G04 #@! TF.GenerationSoftware,KiCad,Pcbnew,(5.1.5)-3*
G04 #@! TF.CreationDate,2021-08-30T19:38:34+02:00*
G04 #@! TF.ProjectId,gbm8,67626d38-2e6b-4696-9361-645f70636258,0424 - A*
G04 #@! TF.SameCoordinates,Original*
G04 #@! TF.FileFunction,Legend,Top*
G04 #@! TF.FilePolarity,Positive*
%FSLAX46Y46*%
G04 Gerber Fmt 4.6, Leading zero omitted, Abs format (unit mm)*
G04 Created by KiCad (PCBNEW (5.1.5)-3) date 2021-08-30 19:38:34*
%MOMM*%
%LPD*%
G04 APERTURE LIST*
%ADD10C,0.304800*%
%ADD11C,0.381000*%
%ADD12C,0.203200*%
%ADD13C,0.127000*%
%ADD14C,0.152400*%
%ADD15C,0.119380*%
%ADD16C,6.908800*%
%ADD17R,1.905000X1.397000*%
%ADD18R,1.397000X1.905000*%
%ADD19R,2.311400X2.108200*%
%ADD20R,2.159000X2.159000*%
%ADD21C,2.159000*%
%ADD22R,2.108200X2.311400*%
%ADD23C,2.707640*%
%ADD24C,4.008120*%
%ADD25C,4.358640*%
%ADD26R,2.032000X2.032000*%
%ADD27C,2.032000*%
%ADD28C,3.048000*%
%ADD29R,1.422400X1.422400*%
%ADD30R,1.270000X0.939800*%
%ADD31R,0.939800X1.270000*%
%ADD32R,0.914400X2.032000*%
%ADD33R,2.032000X0.914400*%
%ADD34R,2.159000X3.556000*%
%ADD35R,6.604000X6.604000*%
%ADD36R,2.506980X6.007100*%
G04 APERTURE END LIST*
D10*
X143691428Y-89916000D02*
X143546285Y-89819238D01*
X143328571Y-89819238D01*
X143110857Y-89916000D01*
X142965714Y-90109523D01*
X142893142Y-90303047D01*
X142820571Y-90690095D01*
X142820571Y-90980380D01*
X142893142Y-91367428D01*
X142965714Y-91560952D01*
X143110857Y-91754476D01*
X143328571Y-91851238D01*
X143473714Y-91851238D01*
X143691428Y-91754476D01*
X143764000Y-91657714D01*
X143764000Y-90980380D01*
X143473714Y-90980380D01*
X144272000Y-89819238D02*
X145215428Y-89819238D01*
X144707428Y-90593333D01*
X144925142Y-90593333D01*
X145070285Y-90690095D01*
X145142857Y-90786857D01*
X145215428Y-90980380D01*
X145215428Y-91464190D01*
X145142857Y-91657714D01*
X145070285Y-91754476D01*
X144925142Y-91851238D01*
X144489714Y-91851238D01*
X144344571Y-91754476D01*
X144272000Y-91657714D01*
X143691428Y-64897000D02*
X143546285Y-64800238D01*
X143328571Y-64800238D01*
X143110857Y-64897000D01*
X142965714Y-65090523D01*
X142893142Y-65284047D01*
X142820571Y-65671095D01*
X142820571Y-65961380D01*
X142893142Y-66348428D01*
X142965714Y-66541952D01*
X143110857Y-66735476D01*
X143328571Y-66832238D01*
X143473714Y-66832238D01*
X143691428Y-66735476D01*
X143764000Y-66638714D01*
X143764000Y-65961380D01*
X143473714Y-65961380D01*
X144634857Y-65671095D02*
X144489714Y-65574333D01*
X144417142Y-65477571D01*
X144344571Y-65284047D01*
X144344571Y-65187285D01*
X144417142Y-64993761D01*
X144489714Y-64897000D01*
X144634857Y-64800238D01*
X144925142Y-64800238D01*
X145070285Y-64897000D01*
X145142857Y-64993761D01*
X145215428Y-65187285D01*
X145215428Y-65284047D01*
X145142857Y-65477571D01*
X145070285Y-65574333D01*
X144925142Y-65671095D01*
X144634857Y-65671095D01*
X144489714Y-65767857D01*
X144417142Y-65864619D01*
X144344571Y-66058142D01*
X144344571Y-66445190D01*
X144417142Y-66638714D01*
X144489714Y-66735476D01*
X144634857Y-66832238D01*
X144925142Y-66832238D01*
X145070285Y-66735476D01*
X145142857Y-66638714D01*
X145215428Y-66445190D01*
X145215428Y-66058142D01*
X145142857Y-65864619D01*
X145070285Y-65767857D01*
X144925142Y-65671095D01*
X143691428Y-69977000D02*
X143546285Y-69880238D01*
X143328571Y-69880238D01*
X143110857Y-69977000D01*
X142965714Y-70170523D01*
X142893142Y-70364047D01*
X142820571Y-70751095D01*
X142820571Y-71041380D01*
X142893142Y-71428428D01*
X142965714Y-71621952D01*
X143110857Y-71815476D01*
X143328571Y-71912238D01*
X143473714Y-71912238D01*
X143691428Y-71815476D01*
X143764000Y-71718714D01*
X143764000Y-71041380D01*
X143473714Y-71041380D01*
X144272000Y-69880238D02*
X145288000Y-69880238D01*
X144634857Y-71912238D01*
X143691428Y-74930000D02*
X143546285Y-74833238D01*
X143328571Y-74833238D01*
X143110857Y-74930000D01*
X142965714Y-75123523D01*
X142893142Y-75317047D01*
X142820571Y-75704095D01*
X142820571Y-75994380D01*
X142893142Y-76381428D01*
X142965714Y-76574952D01*
X143110857Y-76768476D01*
X143328571Y-76865238D01*
X143473714Y-76865238D01*
X143691428Y-76768476D01*
X143764000Y-76671714D01*
X143764000Y-75994380D01*
X143473714Y-75994380D01*
X145070285Y-74833238D02*
X144780000Y-74833238D01*
X144634857Y-74930000D01*
X144562285Y-75026761D01*
X144417142Y-75317047D01*
X144344571Y-75704095D01*
X144344571Y-76478190D01*
X144417142Y-76671714D01*
X144489714Y-76768476D01*
X144634857Y-76865238D01*
X144925142Y-76865238D01*
X145070285Y-76768476D01*
X145142857Y-76671714D01*
X145215428Y-76478190D01*
X145215428Y-75994380D01*
X145142857Y-75800857D01*
X145070285Y-75704095D01*
X144925142Y-75607333D01*
X144634857Y-75607333D01*
X144489714Y-75704095D01*
X144417142Y-75800857D01*
X144344571Y-75994380D01*
X143691428Y-80010000D02*
X143546285Y-79913238D01*
X143328571Y-79913238D01*
X143110857Y-80010000D01*
X142965714Y-80203523D01*
X142893142Y-80397047D01*
X142820571Y-80784095D01*
X142820571Y-81074380D01*
X142893142Y-81461428D01*
X142965714Y-81654952D01*
X143110857Y-81848476D01*
X143328571Y-81945238D01*
X143473714Y-81945238D01*
X143691428Y-81848476D01*
X143764000Y-81751714D01*
X143764000Y-81074380D01*
X143473714Y-81074380D01*
X145142857Y-79913238D02*
X144417142Y-79913238D01*
X144344571Y-80880857D01*
X144417142Y-80784095D01*
X144562285Y-80687333D01*
X144925142Y-80687333D01*
X145070285Y-80784095D01*
X145142857Y-80880857D01*
X145215428Y-81074380D01*
X145215428Y-81558190D01*
X145142857Y-81751714D01*
X145070285Y-81848476D01*
X144925142Y-81945238D01*
X144562285Y-81945238D01*
X144417142Y-81848476D01*
X144344571Y-81751714D01*
X143691428Y-84963000D02*
X143546285Y-84866238D01*
X143328571Y-84866238D01*
X143110857Y-84963000D01*
X142965714Y-85156523D01*
X142893142Y-85350047D01*
X142820571Y-85737095D01*
X142820571Y-86027380D01*
X142893142Y-86414428D01*
X142965714Y-86607952D01*
X143110857Y-86801476D01*
X143328571Y-86898238D01*
X143473714Y-86898238D01*
X143691428Y-86801476D01*
X143764000Y-86704714D01*
X143764000Y-86027380D01*
X143473714Y-86027380D01*
X145070285Y-85543571D02*
X145070285Y-86898238D01*
X144707428Y-84769476D02*
X144344571Y-86220904D01*
X145288000Y-86220904D01*
X143691428Y-95631000D02*
X143546285Y-95534238D01*
X143328571Y-95534238D01*
X143110857Y-95631000D01*
X142965714Y-95824523D01*
X142893142Y-96018047D01*
X142820571Y-96405095D01*
X142820571Y-96695380D01*
X142893142Y-97082428D01*
X142965714Y-97275952D01*
X143110857Y-97469476D01*
X143328571Y-97566238D01*
X143473714Y-97566238D01*
X143691428Y-97469476D01*
X143764000Y-97372714D01*
X143764000Y-96695380D01*
X143473714Y-96695380D01*
X144344571Y-95727761D02*
X144417142Y-95631000D01*
X144562285Y-95534238D01*
X144925142Y-95534238D01*
X145070285Y-95631000D01*
X145142857Y-95727761D01*
X145215428Y-95921285D01*
X145215428Y-96114809D01*
X145142857Y-96405095D01*
X144272000Y-97566238D01*
X145215428Y-97566238D01*
X143691428Y-100076000D02*
X143546285Y-99979238D01*
X143328571Y-99979238D01*
X143110857Y-100076000D01*
X142965714Y-100269523D01*
X142893142Y-100463047D01*
X142820571Y-100850095D01*
X142820571Y-101140380D01*
X142893142Y-101527428D01*
X142965714Y-101720952D01*
X143110857Y-101914476D01*
X143328571Y-102011238D01*
X143473714Y-102011238D01*
X143691428Y-101914476D01*
X143764000Y-101817714D01*
X143764000Y-101140380D01*
X143473714Y-101140380D01*
X145215428Y-102011238D02*
X144344571Y-102011238D01*
X144780000Y-102011238D02*
X144780000Y-99979238D01*
X144634857Y-100269523D01*
X144489714Y-100463047D01*
X144344571Y-100559809D01*
X132823857Y-149890238D02*
X132823857Y-147858238D01*
X133331857Y-149309666D01*
X133839857Y-147858238D01*
X133839857Y-149890238D01*
X134347857Y-147858238D02*
X134855857Y-149890238D01*
X135363857Y-147858238D01*
X150658285Y-52705000D02*
X150513142Y-52608238D01*
X150295428Y-52608238D01*
X150077714Y-52705000D01*
X149932571Y-52898523D01*
X149860000Y-53092047D01*
X149787428Y-53479095D01*
X149787428Y-53769380D01*
X149860000Y-54156428D01*
X149932571Y-54349952D01*
X150077714Y-54543476D01*
X150295428Y-54640238D01*
X150440571Y-54640238D01*
X150658285Y-54543476D01*
X150730857Y-54446714D01*
X150730857Y-53769380D01*
X150440571Y-53769380D01*
X151892000Y-53575857D02*
X152109714Y-53672619D01*
X152182285Y-53769380D01*
X152254857Y-53962904D01*
X152254857Y-54253190D01*
X152182285Y-54446714D01*
X152109714Y-54543476D01*
X151964571Y-54640238D01*
X151384000Y-54640238D01*
X151384000Y-52608238D01*
X151892000Y-52608238D01*
X152037142Y-52705000D01*
X152109714Y-52801761D01*
X152182285Y-52995285D01*
X152182285Y-53188809D01*
X152109714Y-53382333D01*
X152037142Y-53479095D01*
X151892000Y-53575857D01*
X151384000Y-53575857D01*
X152908000Y-54640238D02*
X152908000Y-52608238D01*
X153416000Y-54059666D01*
X153924000Y-52608238D01*
X153924000Y-54640238D01*
X154867428Y-53479095D02*
X154722285Y-53382333D01*
X154649714Y-53285571D01*
X154577142Y-53092047D01*
X154577142Y-52995285D01*
X154649714Y-52801761D01*
X154722285Y-52705000D01*
X154867428Y-52608238D01*
X155157714Y-52608238D01*
X155302857Y-52705000D01*
X155375428Y-52801761D01*
X155448000Y-52995285D01*
X155448000Y-53092047D01*
X155375428Y-53285571D01*
X155302857Y-53382333D01*
X155157714Y-53479095D01*
X154867428Y-53479095D01*
X154722285Y-53575857D01*
X154649714Y-53672619D01*
X154577142Y-53866142D01*
X154577142Y-54253190D01*
X154649714Y-54446714D01*
X154722285Y-54543476D01*
X154867428Y-54640238D01*
X155157714Y-54640238D01*
X155302857Y-54543476D01*
X155375428Y-54446714D01*
X155448000Y-54253190D01*
X155448000Y-53866142D01*
X155375428Y-53672619D01*
X155302857Y-53575857D01*
X155157714Y-53479095D01*
X157189714Y-52801761D02*
X157262285Y-52705000D01*
X157407428Y-52608238D01*
X157770285Y-52608238D01*
X157915428Y-52705000D01*
X157988000Y-52801761D01*
X158060571Y-52995285D01*
X158060571Y-53188809D01*
X157988000Y-53479095D01*
X157117142Y-54640238D01*
X158060571Y-54640238D01*
X159004000Y-52608238D02*
X159149142Y-52608238D01*
X159294285Y-52705000D01*
X159366857Y-52801761D01*
X159439428Y-52995285D01*
X159512000Y-53382333D01*
X159512000Y-53866142D01*
X159439428Y-54253190D01*
X159366857Y-54446714D01*
X159294285Y-54543476D01*
X159149142Y-54640238D01*
X159004000Y-54640238D01*
X158858857Y-54543476D01*
X158786285Y-54446714D01*
X158713714Y-54253190D01*
X158641142Y-53866142D01*
X158641142Y-53382333D01*
X158713714Y-52995285D01*
X158786285Y-52801761D01*
X158858857Y-52705000D01*
X159004000Y-52608238D01*
X160963428Y-54640238D02*
X160092571Y-54640238D01*
X160528000Y-54640238D02*
X160528000Y-52608238D01*
X160382857Y-52898523D01*
X160237714Y-53092047D01*
X160092571Y-53188809D01*
X161544000Y-52801761D02*
X161616571Y-52705000D01*
X161761714Y-52608238D01*
X162124571Y-52608238D01*
X162269714Y-52705000D01*
X162342285Y-52801761D01*
X162414857Y-52995285D01*
X162414857Y-53188809D01*
X162342285Y-53479095D01*
X161471428Y-54640238D01*
X162414857Y-54640238D01*
X163866285Y-54640238D02*
X162995428Y-54640238D01*
X163430857Y-54640238D02*
X163430857Y-52608238D01*
X163285714Y-52898523D01*
X163140571Y-53092047D01*
X162995428Y-53188809D01*
X164446857Y-52801761D02*
X164519428Y-52705000D01*
X164664571Y-52608238D01*
X165027428Y-52608238D01*
X165172571Y-52705000D01*
X165245142Y-52801761D01*
X165317714Y-52995285D01*
X165317714Y-53188809D01*
X165245142Y-53479095D01*
X164374285Y-54640238D01*
X165317714Y-54640238D01*
X166769142Y-54640238D02*
X165898285Y-54640238D01*
X166333714Y-54640238D02*
X166333714Y-52608238D01*
X166188571Y-52898523D01*
X166043428Y-53092047D01*
X165898285Y-53188809D01*
X167349714Y-52801761D02*
X167422285Y-52705000D01*
X167567428Y-52608238D01*
X167930285Y-52608238D01*
X168075428Y-52705000D01*
X168148000Y-52801761D01*
X168220571Y-52995285D01*
X168220571Y-53188809D01*
X168148000Y-53479095D01*
X167277142Y-54640238D01*
X168220571Y-54640238D01*
D11*
X170180000Y-103886000D02*
X170180000Y-110363000D01*
X160782000Y-101092000D02*
X163957000Y-101092000D01*
X156210000Y-109601000D02*
X156210000Y-106553000D01*
D10*
X176814238Y-76780571D02*
X176814238Y-77651428D01*
X176814238Y-77216000D02*
X174782238Y-77216000D01*
X175072523Y-77361142D01*
X175266047Y-77506285D01*
X175362809Y-77651428D01*
D12*
X148590000Y-54864000D02*
G75*
G03X148590000Y-54864000I-3302000J0D01*
G01*
X146990558Y-54864000D02*
G75*
G03X146990558Y-54864000I-1702558J0D01*
G01*
X176657000Y-54864000D02*
G75*
G03X176657000Y-54864000I-3302000J0D01*
G01*
X175057558Y-54864000D02*
G75*
G03X175057558Y-54864000I-1702558J0D01*
G01*
X148590000Y-146939000D02*
G75*
G03X148590000Y-146939000I-3302000J0D01*
G01*
X146990558Y-146939000D02*
G75*
G03X146990558Y-146939000I-1702558J0D01*
G01*
X176657000Y-146939000D02*
G75*
G03X176657000Y-146939000I-3302000J0D01*
G01*
X175057558Y-146939000D02*
G75*
G03X175057558Y-146939000I-1702558J0D01*
G01*
D13*
X153670000Y-132842000D02*
X153670000Y-133223000D01*
X154051000Y-132842000D02*
X153289000Y-132842000D01*
X153670000Y-132207000D02*
X153670000Y-132588000D01*
X153670000Y-132588000D02*
X154051000Y-132588000D01*
X154051000Y-132588000D02*
X153289000Y-132588000D01*
X160020000Y-122047000D02*
X160020000Y-122428000D01*
X160401000Y-122047000D02*
X159639000Y-122047000D01*
X160020000Y-121412000D02*
X160020000Y-121793000D01*
X160020000Y-121793000D02*
X160401000Y-121793000D01*
X160401000Y-121793000D02*
X159639000Y-121793000D01*
X162941000Y-121793000D02*
X162179000Y-121793000D01*
X162560000Y-121793000D02*
X162941000Y-121793000D01*
X162560000Y-121412000D02*
X162560000Y-121793000D01*
X162941000Y-122047000D02*
X162179000Y-122047000D01*
X162560000Y-122047000D02*
X162560000Y-122428000D01*
X155321000Y-124968000D02*
X154559000Y-124968000D01*
X154940000Y-124968000D02*
X155321000Y-124968000D01*
X154940000Y-124587000D02*
X154940000Y-124968000D01*
X155321000Y-125222000D02*
X154559000Y-125222000D01*
X154940000Y-125222000D02*
X154940000Y-125603000D01*
X153416000Y-57023000D02*
X153797000Y-57023000D01*
X153416000Y-56642000D02*
X153416000Y-57404000D01*
X152781000Y-57023000D02*
X153162000Y-57023000D01*
X153162000Y-57023000D02*
X153162000Y-56642000D01*
X153162000Y-56642000D02*
X153162000Y-57404000D01*
X162814000Y-73025000D02*
X163576000Y-73025000D01*
X163195000Y-73025000D02*
X162814000Y-73025000D01*
X163195000Y-73406000D02*
X163195000Y-73025000D01*
X162814000Y-72771000D02*
X163576000Y-72771000D01*
X163195000Y-72771000D02*
X163195000Y-72390000D01*
X157480000Y-98933000D02*
X157480000Y-98552000D01*
X157099000Y-98933000D02*
X157861000Y-98933000D01*
X157480000Y-99568000D02*
X157480000Y-99187000D01*
X157480000Y-99187000D02*
X157099000Y-99187000D01*
X157099000Y-99187000D02*
X157861000Y-99187000D01*
X154940000Y-108077000D02*
X154940000Y-108458000D01*
X155321000Y-108077000D02*
X154559000Y-108077000D01*
X154940000Y-107442000D02*
X154940000Y-107823000D01*
X154940000Y-107823000D02*
X155321000Y-107823000D01*
X155321000Y-107823000D02*
X154559000Y-107823000D01*
X160401000Y-117348000D02*
X159639000Y-117348000D01*
X160020000Y-117348000D02*
X160401000Y-117348000D01*
X160020000Y-116967000D02*
X160020000Y-117348000D01*
X160401000Y-117602000D02*
X159639000Y-117602000D01*
X160020000Y-117602000D02*
X160020000Y-117983000D01*
X156718000Y-116205000D02*
X156337000Y-116205000D01*
X156718000Y-116586000D02*
X156718000Y-115824000D01*
X157353000Y-116205000D02*
X156972000Y-116205000D01*
X156972000Y-116205000D02*
X156972000Y-116586000D01*
X156972000Y-116586000D02*
X156972000Y-115824000D01*
X164846000Y-117348000D02*
X164084000Y-117348000D01*
X164465000Y-117348000D02*
X164846000Y-117348000D01*
X164465000Y-116967000D02*
X164465000Y-117348000D01*
X164846000Y-117602000D02*
X164084000Y-117602000D01*
X164465000Y-117602000D02*
X164465000Y-117983000D01*
X152273000Y-87807800D02*
X152273000Y-87045800D01*
X152273000Y-87426800D02*
X152273000Y-87807800D01*
X152654000Y-87426800D02*
X152273000Y-87426800D01*
X152019000Y-87807800D02*
X152019000Y-87045800D01*
X152019000Y-87426800D02*
X151638000Y-87426800D01*
X173482000Y-82550000D02*
X173863000Y-82550000D01*
X173482000Y-82169000D02*
X173482000Y-82931000D01*
X172847000Y-82550000D02*
X173228000Y-82550000D01*
X173228000Y-82550000D02*
X173228000Y-82169000D01*
X173228000Y-82169000D02*
X173228000Y-82931000D01*
X164846000Y-93853000D02*
X164084000Y-93853000D01*
X164465000Y-93853000D02*
X164846000Y-93853000D01*
X164465000Y-93472000D02*
X164465000Y-93853000D01*
X164846000Y-94107000D02*
X164084000Y-94107000D01*
X164465000Y-94107000D02*
X164465000Y-94488000D01*
X159512000Y-65659000D02*
X158750000Y-65659000D01*
X159131000Y-65659000D02*
X159512000Y-65659000D01*
X159131000Y-65278000D02*
X159131000Y-65659000D01*
X159512000Y-65913000D02*
X158750000Y-65913000D01*
X159131000Y-65913000D02*
X159131000Y-66294000D01*
X159385000Y-68707000D02*
X158877000Y-68707000D01*
X159131000Y-68453000D02*
X159131000Y-68961000D01*
D12*
X148590000Y-139954000D02*
G75*
G03X148590000Y-139954000I-3048000J0D01*
G01*
D13*
X159258000Y-98425000D02*
X158750000Y-98425000D01*
X159004000Y-98679000D02*
X159004000Y-98171000D01*
X161798000Y-98425000D02*
X161417000Y-98425000D01*
X161798000Y-98806000D02*
X161798000Y-98044000D01*
X162433000Y-98425000D02*
X162052000Y-98425000D01*
X162052000Y-98425000D02*
X162052000Y-98806000D01*
X162052000Y-98806000D02*
X162052000Y-98044000D01*
X154305000Y-103378000D02*
X154305000Y-102997000D01*
X153924000Y-103378000D02*
X154686000Y-103378000D01*
X154305000Y-104013000D02*
X154305000Y-103632000D01*
X154305000Y-103632000D02*
X153924000Y-103632000D01*
X153924000Y-103632000D02*
X154686000Y-103632000D01*
X148336000Y-122428000D02*
X147574000Y-122428000D01*
X147955000Y-122428000D02*
X148336000Y-122428000D01*
X147955000Y-122047000D02*
X147955000Y-122428000D01*
X148336000Y-122682000D02*
X147574000Y-122682000D01*
X147955000Y-122682000D02*
X147955000Y-123063000D01*
X171704000Y-59817000D02*
X171704000Y-60579000D01*
X171704000Y-60198000D02*
X171704000Y-59817000D01*
X171323000Y-60198000D02*
X171704000Y-60198000D01*
X171958000Y-59817000D02*
X171958000Y-60579000D01*
X171958000Y-60198000D02*
X172339000Y-60198000D01*
X171958000Y-64262000D02*
X172339000Y-64262000D01*
X171958000Y-63881000D02*
X171958000Y-64643000D01*
X171323000Y-64262000D02*
X171704000Y-64262000D01*
X171704000Y-64262000D02*
X171704000Y-63881000D01*
X171704000Y-63881000D02*
X171704000Y-64643000D01*
D11*
X130175000Y-55245000D02*
X130175000Y-146685000D01*
X130175000Y-146685000D02*
X138430000Y-146685000D01*
X138430000Y-146685000D02*
X138430000Y-141605000D01*
X138430000Y-141605000D02*
X134620000Y-139700000D01*
X134620000Y-139700000D02*
X134620000Y-62230000D01*
X134620000Y-62230000D02*
X138430000Y-60325000D01*
X138430000Y-60325000D02*
X138430000Y-55245000D01*
X138430000Y-55245000D02*
X130175000Y-55245000D01*
D10*
X177546000Y-143827500D02*
X177546000Y-127952500D01*
D11*
X161480500Y-143827500D02*
X156210000Y-143827500D01*
X156210000Y-143827500D02*
X156210000Y-127952500D01*
X156210000Y-127952500D02*
X161480500Y-127952500D01*
D10*
X177546000Y-127952500D02*
X165608000Y-127952500D01*
X177546000Y-143827500D02*
X165608000Y-143827500D01*
D12*
X175387000Y-68707000D02*
X175387000Y-76327000D01*
X170307000Y-76327000D02*
X170307000Y-68707000D01*
X170307000Y-68707000D02*
X175387000Y-68707000D01*
X175387000Y-76327000D02*
X170307000Y-76327000D01*
D13*
X151384000Y-132969000D02*
X151384000Y-132461000D01*
X150876000Y-132969000D02*
X151384000Y-132969000D01*
X150876000Y-132461000D02*
X150876000Y-132969000D01*
X151003000Y-132461000D02*
X150876000Y-132461000D01*
X151384000Y-132461000D02*
X151003000Y-132461000D01*
X151130000Y-132207000D02*
X151130000Y-132461000D01*
X151130000Y-132969000D02*
X151130000Y-133223000D01*
X159385000Y-70485000D02*
X159385000Y-69977000D01*
X158877000Y-70485000D02*
X159385000Y-70485000D01*
X158877000Y-69977000D02*
X158877000Y-70485000D01*
X159004000Y-69977000D02*
X158877000Y-69977000D01*
X159385000Y-69977000D02*
X159004000Y-69977000D01*
X159131000Y-69723000D02*
X159131000Y-69977000D01*
X159131000Y-70485000D02*
X159131000Y-70739000D01*
X147066000Y-133350000D02*
X147066000Y-136398000D01*
X147066000Y-136398000D02*
X146304000Y-136398000D01*
X146304000Y-136398000D02*
X146304000Y-133350000D01*
X146304000Y-133350000D02*
X147066000Y-133350000D01*
X145161000Y-130937000D02*
X145161000Y-131445000D01*
X145669000Y-130937000D02*
X145161000Y-130937000D01*
X145669000Y-131445000D02*
X145669000Y-130937000D01*
X145542000Y-131445000D02*
X145669000Y-131445000D01*
X145161000Y-131445000D02*
X145542000Y-131445000D01*
X145415000Y-131699000D02*
X145415000Y-131445000D01*
X145415000Y-130937000D02*
X145415000Y-130683000D01*
X152654000Y-136525000D02*
X152908000Y-136525000D01*
X151892000Y-136525000D02*
X152146000Y-136525000D01*
X152146000Y-136271000D02*
X152146000Y-136652000D01*
X152146000Y-136652000D02*
X152146000Y-136779000D01*
X152146000Y-136779000D02*
X152654000Y-136779000D01*
X152654000Y-136779000D02*
X152654000Y-136271000D01*
X152654000Y-136271000D02*
X152146000Y-136271000D01*
X152654000Y-141351000D02*
X152146000Y-141351000D01*
X152654000Y-141859000D02*
X152654000Y-141351000D01*
X152146000Y-141859000D02*
X152654000Y-141859000D01*
X152146000Y-141732000D02*
X152146000Y-141859000D01*
X152146000Y-141351000D02*
X152146000Y-141732000D01*
X151892000Y-141605000D02*
X152146000Y-141605000D01*
X152654000Y-141605000D02*
X152908000Y-141605000D01*
X152654000Y-139065000D02*
X152908000Y-139065000D01*
X151892000Y-139065000D02*
X152146000Y-139065000D01*
X152146000Y-138811000D02*
X152146000Y-139192000D01*
X152146000Y-139192000D02*
X152146000Y-139319000D01*
X152146000Y-139319000D02*
X152654000Y-139319000D01*
X152654000Y-139319000D02*
X152654000Y-138811000D01*
X152654000Y-138811000D02*
X152146000Y-138811000D01*
X170180000Y-117983000D02*
X170180000Y-118237000D01*
X170180000Y-117221000D02*
X170180000Y-117475000D01*
X170434000Y-117475000D02*
X170053000Y-117475000D01*
X170053000Y-117475000D02*
X169926000Y-117475000D01*
X169926000Y-117475000D02*
X169926000Y-117983000D01*
X169926000Y-117983000D02*
X170434000Y-117983000D01*
X170434000Y-117983000D02*
X170434000Y-117475000D01*
X172339000Y-117983000D02*
X172339000Y-117475000D01*
X171831000Y-117983000D02*
X172339000Y-117983000D01*
X171831000Y-117475000D02*
X171831000Y-117983000D01*
X171958000Y-117475000D02*
X171831000Y-117475000D01*
X172339000Y-117475000D02*
X171958000Y-117475000D01*
X172085000Y-117221000D02*
X172085000Y-117475000D01*
X172085000Y-117983000D02*
X172085000Y-118237000D01*
X154940000Y-113284000D02*
X154940000Y-113538000D01*
X154940000Y-112522000D02*
X154940000Y-112776000D01*
X155194000Y-112776000D02*
X154813000Y-112776000D01*
X154813000Y-112776000D02*
X154686000Y-112776000D01*
X154686000Y-112776000D02*
X154686000Y-113284000D01*
X154686000Y-113284000D02*
X155194000Y-113284000D01*
X155194000Y-113284000D02*
X155194000Y-112776000D01*
X157480000Y-121539000D02*
X157480000Y-121793000D01*
X157480000Y-120777000D02*
X157480000Y-121031000D01*
X157734000Y-121031000D02*
X157353000Y-121031000D01*
X157353000Y-121031000D02*
X157226000Y-121031000D01*
X157226000Y-121031000D02*
X157226000Y-121539000D01*
X157226000Y-121539000D02*
X157734000Y-121539000D01*
X157734000Y-121539000D02*
X157734000Y-121031000D01*
X165354000Y-121539000D02*
X165354000Y-121031000D01*
X164846000Y-121539000D02*
X165354000Y-121539000D01*
X164846000Y-121031000D02*
X164846000Y-121539000D01*
X164973000Y-121031000D02*
X164846000Y-121031000D01*
X165354000Y-121031000D02*
X164973000Y-121031000D01*
X165100000Y-120777000D02*
X165100000Y-121031000D01*
X165100000Y-121539000D02*
X165100000Y-121793000D01*
X169926000Y-100965000D02*
X169926000Y-100457000D01*
X169418000Y-100965000D02*
X169926000Y-100965000D01*
X169418000Y-100457000D02*
X169418000Y-100965000D01*
X169545000Y-100457000D02*
X169418000Y-100457000D01*
X169926000Y-100457000D02*
X169545000Y-100457000D01*
X169672000Y-100203000D02*
X169672000Y-100457000D01*
X169672000Y-100965000D02*
X169672000Y-101219000D01*
X148209000Y-127127000D02*
X148209000Y-126619000D01*
X147701000Y-127127000D02*
X148209000Y-127127000D01*
X147701000Y-126619000D02*
X147701000Y-127127000D01*
X147828000Y-126619000D02*
X147701000Y-126619000D01*
X148209000Y-126619000D02*
X147828000Y-126619000D01*
X147955000Y-126365000D02*
X147955000Y-126619000D01*
X147955000Y-127127000D02*
X147955000Y-127381000D01*
X153535380Y-92280740D02*
X153535380Y-95679260D01*
X152534620Y-95679260D02*
X152534620Y-92280740D01*
X152135840Y-92280740D02*
X152135840Y-95679260D01*
X153934160Y-95679260D02*
X153934160Y-92280740D01*
X152135840Y-92280740D02*
X153934160Y-92280740D01*
X152135840Y-95679260D02*
X153934160Y-95679260D01*
X152534620Y-93179900D02*
X153535380Y-93179900D01*
X152534620Y-93980000D02*
X153535380Y-93980000D01*
X152534620Y-94780100D02*
X153535380Y-94780100D01*
X152135840Y-92580460D02*
X152534620Y-92580460D01*
X153535380Y-92580460D02*
X153934160Y-92580460D01*
X152135840Y-92979240D02*
X152534620Y-92979240D01*
X153535380Y-92979240D02*
X153934160Y-92979240D01*
X153934160Y-93380560D02*
X153535380Y-93380560D01*
X152534620Y-93380560D02*
X152135840Y-93380560D01*
X152135840Y-93779340D02*
X152534620Y-93779340D01*
X153535380Y-93779340D02*
X153934160Y-93779340D01*
X153934160Y-94180660D02*
X153535380Y-94180660D01*
X152534620Y-94180660D02*
X152135840Y-94180660D01*
X152135840Y-94579440D02*
X152534620Y-94579440D01*
X153535380Y-94579440D02*
X153934160Y-94579440D01*
X153535380Y-95379540D02*
X153934160Y-95379540D01*
X153535380Y-94980760D02*
X153934160Y-94980760D01*
X152135840Y-94980760D02*
X152534620Y-94980760D01*
X152135840Y-95379540D02*
X152534620Y-95379540D01*
X146179540Y-94625160D02*
X146179540Y-94226380D01*
X145780760Y-94625160D02*
X145780760Y-94226380D01*
X145780760Y-93225620D02*
X145780760Y-92826840D01*
X146179540Y-93225620D02*
X146179540Y-92826840D01*
X145379440Y-93225620D02*
X145379440Y-92826840D01*
X145379440Y-94625160D02*
X145379440Y-94226380D01*
X144980660Y-94226380D02*
X144980660Y-94625160D01*
X144980660Y-92826840D02*
X144980660Y-93225620D01*
X144579340Y-93225620D02*
X144579340Y-92826840D01*
X144579340Y-94625160D02*
X144579340Y-94226380D01*
X144180560Y-94226380D02*
X144180560Y-94625160D01*
X144180560Y-92826840D02*
X144180560Y-93225620D01*
X143779240Y-93225620D02*
X143779240Y-92826840D01*
X143779240Y-94625160D02*
X143779240Y-94226380D01*
X143380460Y-93225620D02*
X143380460Y-92826840D01*
X143380460Y-94625160D02*
X143380460Y-94226380D01*
X145580100Y-94226380D02*
X145580100Y-93225620D01*
X144780000Y-94226380D02*
X144780000Y-93225620D01*
X143979900Y-94226380D02*
X143979900Y-93225620D01*
X146479260Y-94625160D02*
X146479260Y-92826840D01*
X143080740Y-94625160D02*
X143080740Y-92826840D01*
X146479260Y-92826840D02*
X143080740Y-92826840D01*
X143080740Y-94625160D02*
X146479260Y-94625160D01*
X146479260Y-94226380D02*
X143080740Y-94226380D01*
X143080740Y-93225620D02*
X146479260Y-93225620D01*
X152654000Y-145796000D02*
X152908000Y-145796000D01*
X151892000Y-145796000D02*
X152146000Y-145796000D01*
X152146000Y-145542000D02*
X152146000Y-145923000D01*
X152146000Y-145923000D02*
X152146000Y-146050000D01*
X152146000Y-146050000D02*
X152654000Y-146050000D01*
X152654000Y-146050000D02*
X152654000Y-145542000D01*
X152654000Y-145542000D02*
X152146000Y-145542000D01*
X147955000Y-130937000D02*
X147955000Y-130683000D01*
X147955000Y-131699000D02*
X147955000Y-131445000D01*
X147701000Y-131445000D02*
X148082000Y-131445000D01*
X148082000Y-131445000D02*
X148209000Y-131445000D01*
X148209000Y-131445000D02*
X148209000Y-130937000D01*
X148209000Y-130937000D02*
X147701000Y-130937000D01*
X147701000Y-130937000D02*
X147701000Y-131445000D01*
X145415000Y-126619000D02*
X145415000Y-126365000D01*
X145415000Y-127381000D02*
X145415000Y-127127000D01*
X145161000Y-127127000D02*
X145542000Y-127127000D01*
X145542000Y-127127000D02*
X145669000Y-127127000D01*
X145669000Y-127127000D02*
X145669000Y-126619000D01*
X145669000Y-126619000D02*
X145161000Y-126619000D01*
X145161000Y-126619000D02*
X145161000Y-127127000D01*
X151239220Y-85112860D02*
X151239220Y-81714340D01*
X152239980Y-81714340D02*
X152239980Y-85112860D01*
X152638760Y-85112860D02*
X152638760Y-81714340D01*
X150840440Y-81714340D02*
X150840440Y-85112860D01*
X152638760Y-85112860D02*
X150840440Y-85112860D01*
X152638760Y-81714340D02*
X150840440Y-81714340D01*
X152239980Y-84213700D02*
X151239220Y-84213700D01*
X152239980Y-83413600D02*
X151239220Y-83413600D01*
X152239980Y-82613500D02*
X151239220Y-82613500D01*
X152638760Y-84813140D02*
X152239980Y-84813140D01*
X151239220Y-84813140D02*
X150840440Y-84813140D01*
X152638760Y-84414360D02*
X152239980Y-84414360D01*
X151239220Y-84414360D02*
X150840440Y-84414360D01*
X150840440Y-84013040D02*
X151239220Y-84013040D01*
X152239980Y-84013040D02*
X152638760Y-84013040D01*
X152638760Y-83614260D02*
X152239980Y-83614260D01*
X151239220Y-83614260D02*
X150840440Y-83614260D01*
X150840440Y-83212940D02*
X151239220Y-83212940D01*
X152239980Y-83212940D02*
X152638760Y-83212940D01*
X152638760Y-82814160D02*
X152239980Y-82814160D01*
X151239220Y-82814160D02*
X150840440Y-82814160D01*
X151239220Y-82014060D02*
X150840440Y-82014060D01*
X151239220Y-82412840D02*
X150840440Y-82412840D01*
X152638760Y-82412840D02*
X152239980Y-82412840D01*
X152638760Y-82014060D02*
X152239980Y-82014060D01*
X151394160Y-72260460D02*
X150995380Y-72260460D01*
X151394160Y-72659240D02*
X150995380Y-72659240D01*
X149994620Y-72659240D02*
X149595840Y-72659240D01*
X149994620Y-72260460D02*
X149595840Y-72260460D01*
X149994620Y-73060560D02*
X149595840Y-73060560D01*
X151394160Y-73060560D02*
X150995380Y-73060560D01*
X150995380Y-73459340D02*
X151394160Y-73459340D01*
X149595840Y-73459340D02*
X149994620Y-73459340D01*
X149994620Y-73860660D02*
X149595840Y-73860660D01*
X151394160Y-73860660D02*
X150995380Y-73860660D01*
X150995380Y-74259440D02*
X151394160Y-74259440D01*
X149595840Y-74259440D02*
X149994620Y-74259440D01*
X149994620Y-74660760D02*
X149595840Y-74660760D01*
X151394160Y-74660760D02*
X150995380Y-74660760D01*
X149994620Y-75059540D02*
X149595840Y-75059540D01*
X151394160Y-75059540D02*
X150995380Y-75059540D01*
X150995380Y-72859900D02*
X149994620Y-72859900D01*
X150995380Y-73660000D02*
X149994620Y-73660000D01*
X150995380Y-74460100D02*
X149994620Y-74460100D01*
X151394160Y-71960740D02*
X149595840Y-71960740D01*
X151394160Y-75359260D02*
X149595840Y-75359260D01*
X149595840Y-71960740D02*
X149595840Y-75359260D01*
X151394160Y-75359260D02*
X151394160Y-71960740D01*
X150995380Y-71960740D02*
X150995380Y-75359260D01*
X149994620Y-75359260D02*
X149994620Y-71960740D01*
X173990000Y-80010000D02*
X174244000Y-80010000D01*
X173228000Y-80010000D02*
X173482000Y-80010000D01*
X173482000Y-79756000D02*
X173482000Y-80137000D01*
X173482000Y-80137000D02*
X173482000Y-80264000D01*
X173482000Y-80264000D02*
X173990000Y-80264000D01*
X173990000Y-80264000D02*
X173990000Y-79756000D01*
X173990000Y-79756000D02*
X173482000Y-79756000D01*
X168148000Y-73025000D02*
X168148000Y-73533000D01*
X168656000Y-73025000D02*
X168148000Y-73025000D01*
X168656000Y-73533000D02*
X168656000Y-73025000D01*
X168529000Y-73533000D02*
X168656000Y-73533000D01*
X168148000Y-73533000D02*
X168529000Y-73533000D01*
X168402000Y-73787000D02*
X168402000Y-73533000D01*
X168402000Y-73025000D02*
X168402000Y-72771000D01*
D10*
X168198800Y-78816200D02*
X168198800Y-88823800D01*
X168198800Y-88823800D02*
X158191200Y-88823800D01*
X158191200Y-79298800D02*
X158191200Y-88823800D01*
X158673800Y-78816200D02*
X168198800Y-78816200D01*
X158191200Y-79298800D02*
X158673800Y-78816200D01*
D12*
X160020000Y-80010000D02*
G75*
G03X160020000Y-80010000I-635000J0D01*
G01*
X160020000Y-104140000D02*
G75*
G03X160020000Y-104140000I-635000J0D01*
G01*
D10*
X158191200Y-103428800D02*
X158673800Y-102946200D01*
X158673800Y-102946200D02*
X168198800Y-102946200D01*
X158191200Y-103428800D02*
X158191200Y-112953800D01*
X168198800Y-112953800D02*
X158191200Y-112953800D01*
X168198800Y-102946200D02*
X168198800Y-112953800D01*
D13*
X151892000Y-62357000D02*
X151892000Y-59182000D01*
X151892000Y-59182000D02*
X150114000Y-59182000D01*
X150114000Y-59182000D02*
X150114000Y-62357000D01*
X156464000Y-62357000D02*
X156464000Y-59182000D01*
X156464000Y-59182000D02*
X154686000Y-59182000D01*
X154686000Y-59182000D02*
X154686000Y-62357000D01*
X149860000Y-68453000D02*
X149860000Y-62357000D01*
X149860000Y-62357000D02*
X156718000Y-62357000D01*
X156718000Y-62357000D02*
X156718000Y-70231000D01*
X156718000Y-70358000D02*
X149860000Y-70358000D01*
X149860000Y-70231000D02*
X149860000Y-68453000D01*
D12*
X148717000Y-110490000D02*
X148717000Y-116840000D01*
X153543000Y-110490000D02*
X153543000Y-116840000D01*
X151130000Y-108077000D02*
G75*
G03X148717000Y-110490000I0J-2413000D01*
G01*
X153543000Y-110490000D02*
G75*
G03X151130000Y-108077000I-2413000J0D01*
G01*
X148717000Y-116840000D02*
G75*
G03X151130000Y-119253000I2413000J0D01*
G01*
X151130000Y-119253000D02*
G75*
G03X153543000Y-116840000I0J2413000D01*
G01*
X166878000Y-68707000D02*
G75*
G03X169291000Y-66294000I0J2413000D01*
G01*
X164465000Y-66294000D02*
G75*
G03X166878000Y-68707000I2413000J0D01*
G01*
X169291000Y-59944000D02*
G75*
G03X166878000Y-57531000I-2413000J0D01*
G01*
X166878000Y-57531000D02*
G75*
G03X164465000Y-59944000I0J-2413000D01*
G01*
X169291000Y-59944000D02*
X169291000Y-66294000D01*
X164465000Y-59944000D02*
X164465000Y-66294000D01*
D14*
X144018000Y-55208714D02*
X144018000Y-54446714D01*
X144018000Y-54809571D02*
X144453428Y-54809571D01*
X144453428Y-55208714D02*
X144453428Y-54446714D01*
X144961428Y-54446714D02*
X145106571Y-54446714D01*
X145179142Y-54483000D01*
X145251714Y-54555571D01*
X145288000Y-54700714D01*
X145288000Y-54954714D01*
X145251714Y-55099857D01*
X145179142Y-55172428D01*
X145106571Y-55208714D01*
X144961428Y-55208714D01*
X144888857Y-55172428D01*
X144816285Y-55099857D01*
X144780000Y-54954714D01*
X144780000Y-54700714D01*
X144816285Y-54555571D01*
X144888857Y-54483000D01*
X144961428Y-54446714D01*
X145977428Y-55208714D02*
X145614571Y-55208714D01*
X145614571Y-54446714D01*
X146231428Y-54809571D02*
X146485428Y-54809571D01*
X146594285Y-55208714D02*
X146231428Y-55208714D01*
X146231428Y-54446714D01*
X146594285Y-54446714D01*
X172085000Y-55208714D02*
X172085000Y-54446714D01*
X172085000Y-54809571D02*
X172520428Y-54809571D01*
X172520428Y-55208714D02*
X172520428Y-54446714D01*
X173028428Y-54446714D02*
X173173571Y-54446714D01*
X173246142Y-54483000D01*
X173318714Y-54555571D01*
X173355000Y-54700714D01*
X173355000Y-54954714D01*
X173318714Y-55099857D01*
X173246142Y-55172428D01*
X173173571Y-55208714D01*
X173028428Y-55208714D01*
X172955857Y-55172428D01*
X172883285Y-55099857D01*
X172847000Y-54954714D01*
X172847000Y-54700714D01*
X172883285Y-54555571D01*
X172955857Y-54483000D01*
X173028428Y-54446714D01*
X174044428Y-55208714D02*
X173681571Y-55208714D01*
X173681571Y-54446714D01*
X174298428Y-54809571D02*
X174552428Y-54809571D01*
X174661285Y-55208714D02*
X174298428Y-55208714D01*
X174298428Y-54446714D01*
X174661285Y-54446714D01*
X144018000Y-147283714D02*
X144018000Y-146521714D01*
X144018000Y-146884571D02*
X144453428Y-146884571D01*
X144453428Y-147283714D02*
X144453428Y-146521714D01*
X144961428Y-146521714D02*
X145106571Y-146521714D01*
X145179142Y-146558000D01*
X145251714Y-146630571D01*
X145288000Y-146775714D01*
X145288000Y-147029714D01*
X145251714Y-147174857D01*
X145179142Y-147247428D01*
X145106571Y-147283714D01*
X144961428Y-147283714D01*
X144888857Y-147247428D01*
X144816285Y-147174857D01*
X144780000Y-147029714D01*
X144780000Y-146775714D01*
X144816285Y-146630571D01*
X144888857Y-146558000D01*
X144961428Y-146521714D01*
X145977428Y-147283714D02*
X145614571Y-147283714D01*
X145614571Y-146521714D01*
X146231428Y-146884571D02*
X146485428Y-146884571D01*
X146594285Y-147283714D02*
X146231428Y-147283714D01*
X146231428Y-146521714D01*
X146594285Y-146521714D01*
X172085000Y-147283714D02*
X172085000Y-146521714D01*
X172085000Y-146884571D02*
X172520428Y-146884571D01*
X172520428Y-147283714D02*
X172520428Y-146521714D01*
X173028428Y-146521714D02*
X173173571Y-146521714D01*
X173246142Y-146558000D01*
X173318714Y-146630571D01*
X173355000Y-146775714D01*
X173355000Y-147029714D01*
X173318714Y-147174857D01*
X173246142Y-147247428D01*
X173173571Y-147283714D01*
X173028428Y-147283714D01*
X172955857Y-147247428D01*
X172883285Y-147174857D01*
X172847000Y-147029714D01*
X172847000Y-146775714D01*
X172883285Y-146630571D01*
X172955857Y-146558000D01*
X173028428Y-146521714D01*
X174044428Y-147283714D02*
X173681571Y-147283714D01*
X173681571Y-146521714D01*
X174298428Y-146884571D02*
X174552428Y-146884571D01*
X174661285Y-147283714D02*
X174298428Y-147283714D01*
X174298428Y-146521714D01*
X174661285Y-146521714D01*
D13*
X155547785Y-133425595D02*
X155578023Y-133455833D01*
X155608261Y-133546547D01*
X155608261Y-133607023D01*
X155578023Y-133697738D01*
X155517547Y-133758214D01*
X155457071Y-133788452D01*
X155336119Y-133818690D01*
X155245404Y-133818690D01*
X155124452Y-133788452D01*
X155063976Y-133758214D01*
X155003500Y-133697738D01*
X154973261Y-133607023D01*
X154973261Y-133546547D01*
X155003500Y-133455833D01*
X155033738Y-133425595D01*
X155033738Y-133183690D02*
X155003500Y-133153452D01*
X154973261Y-133092976D01*
X154973261Y-132941785D01*
X155003500Y-132881309D01*
X155033738Y-132851071D01*
X155094214Y-132820833D01*
X155154690Y-132820833D01*
X155245404Y-132851071D01*
X155608261Y-133213928D01*
X155608261Y-132820833D01*
X154973261Y-132427738D02*
X154973261Y-132367261D01*
X155003500Y-132306785D01*
X155033738Y-132276547D01*
X155094214Y-132246309D01*
X155215166Y-132216071D01*
X155366357Y-132216071D01*
X155487309Y-132246309D01*
X155547785Y-132276547D01*
X155578023Y-132306785D01*
X155608261Y-132367261D01*
X155608261Y-132427738D01*
X155578023Y-132488214D01*
X155547785Y-132518452D01*
X155487309Y-132548690D01*
X155366357Y-132578928D01*
X155215166Y-132578928D01*
X155094214Y-132548690D01*
X155033738Y-132518452D01*
X155003500Y-132488214D01*
X154973261Y-132427738D01*
X155608261Y-131611309D02*
X155608261Y-131974166D01*
X155608261Y-131792738D02*
X154973261Y-131792738D01*
X155063976Y-131853214D01*
X155124452Y-131913690D01*
X155154690Y-131974166D01*
X160119785Y-125805595D02*
X160150023Y-125835833D01*
X160180261Y-125926547D01*
X160180261Y-125987023D01*
X160150023Y-126077738D01*
X160089547Y-126138214D01*
X160029071Y-126168452D01*
X159908119Y-126198690D01*
X159817404Y-126198690D01*
X159696452Y-126168452D01*
X159635976Y-126138214D01*
X159575500Y-126077738D01*
X159545261Y-125987023D01*
X159545261Y-125926547D01*
X159575500Y-125835833D01*
X159605738Y-125805595D01*
X159605738Y-125563690D02*
X159575500Y-125533452D01*
X159545261Y-125472976D01*
X159545261Y-125321785D01*
X159575500Y-125261309D01*
X159605738Y-125231071D01*
X159666214Y-125200833D01*
X159726690Y-125200833D01*
X159817404Y-125231071D01*
X160180261Y-125593928D01*
X160180261Y-125200833D01*
X159545261Y-124807738D02*
X159545261Y-124747261D01*
X159575500Y-124686785D01*
X159605738Y-124656547D01*
X159666214Y-124626309D01*
X159787166Y-124596071D01*
X159938357Y-124596071D01*
X160059309Y-124626309D01*
X160119785Y-124656547D01*
X160150023Y-124686785D01*
X160180261Y-124747261D01*
X160180261Y-124807738D01*
X160150023Y-124868214D01*
X160119785Y-124898452D01*
X160059309Y-124928690D01*
X159938357Y-124958928D01*
X159787166Y-124958928D01*
X159666214Y-124928690D01*
X159605738Y-124898452D01*
X159575500Y-124868214D01*
X159545261Y-124807738D01*
X159605738Y-124354166D02*
X159575500Y-124323928D01*
X159545261Y-124263452D01*
X159545261Y-124112261D01*
X159575500Y-124051785D01*
X159605738Y-124021547D01*
X159666214Y-123991309D01*
X159726690Y-123991309D01*
X159817404Y-124021547D01*
X160180261Y-124384404D01*
X160180261Y-123991309D01*
X162786785Y-125805595D02*
X162817023Y-125835833D01*
X162847261Y-125926547D01*
X162847261Y-125987023D01*
X162817023Y-126077738D01*
X162756547Y-126138214D01*
X162696071Y-126168452D01*
X162575119Y-126198690D01*
X162484404Y-126198690D01*
X162363452Y-126168452D01*
X162302976Y-126138214D01*
X162242500Y-126077738D01*
X162212261Y-125987023D01*
X162212261Y-125926547D01*
X162242500Y-125835833D01*
X162272738Y-125805595D01*
X162272738Y-125563690D02*
X162242500Y-125533452D01*
X162212261Y-125472976D01*
X162212261Y-125321785D01*
X162242500Y-125261309D01*
X162272738Y-125231071D01*
X162333214Y-125200833D01*
X162393690Y-125200833D01*
X162484404Y-125231071D01*
X162847261Y-125593928D01*
X162847261Y-125200833D01*
X162212261Y-124807738D02*
X162212261Y-124747261D01*
X162242500Y-124686785D01*
X162272738Y-124656547D01*
X162333214Y-124626309D01*
X162454166Y-124596071D01*
X162605357Y-124596071D01*
X162726309Y-124626309D01*
X162786785Y-124656547D01*
X162817023Y-124686785D01*
X162847261Y-124747261D01*
X162847261Y-124807738D01*
X162817023Y-124868214D01*
X162786785Y-124898452D01*
X162726309Y-124928690D01*
X162605357Y-124958928D01*
X162454166Y-124958928D01*
X162333214Y-124928690D01*
X162272738Y-124898452D01*
X162242500Y-124868214D01*
X162212261Y-124807738D01*
X162212261Y-124384404D02*
X162212261Y-123991309D01*
X162454166Y-124202976D01*
X162454166Y-124112261D01*
X162484404Y-124051785D01*
X162514642Y-124021547D01*
X162575119Y-123991309D01*
X162726309Y-123991309D01*
X162786785Y-124021547D01*
X162817023Y-124051785D01*
X162847261Y-124112261D01*
X162847261Y-124293690D01*
X162817023Y-124354166D01*
X162786785Y-124384404D01*
X153261785Y-125805595D02*
X153292023Y-125835833D01*
X153322261Y-125926547D01*
X153322261Y-125987023D01*
X153292023Y-126077738D01*
X153231547Y-126138214D01*
X153171071Y-126168452D01*
X153050119Y-126198690D01*
X152959404Y-126198690D01*
X152838452Y-126168452D01*
X152777976Y-126138214D01*
X152717500Y-126077738D01*
X152687261Y-125987023D01*
X152687261Y-125926547D01*
X152717500Y-125835833D01*
X152747738Y-125805595D01*
X152747738Y-125563690D02*
X152717500Y-125533452D01*
X152687261Y-125472976D01*
X152687261Y-125321785D01*
X152717500Y-125261309D01*
X152747738Y-125231071D01*
X152808214Y-125200833D01*
X152868690Y-125200833D01*
X152959404Y-125231071D01*
X153322261Y-125593928D01*
X153322261Y-125200833D01*
X152687261Y-124807738D02*
X152687261Y-124747261D01*
X152717500Y-124686785D01*
X152747738Y-124656547D01*
X152808214Y-124626309D01*
X152929166Y-124596071D01*
X153080357Y-124596071D01*
X153201309Y-124626309D01*
X153261785Y-124656547D01*
X153292023Y-124686785D01*
X153322261Y-124747261D01*
X153322261Y-124807738D01*
X153292023Y-124868214D01*
X153261785Y-124898452D01*
X153201309Y-124928690D01*
X153080357Y-124958928D01*
X152929166Y-124958928D01*
X152808214Y-124928690D01*
X152747738Y-124898452D01*
X152717500Y-124868214D01*
X152687261Y-124807738D01*
X152898928Y-124051785D02*
X153322261Y-124051785D01*
X152657023Y-124202976D02*
X153110595Y-124354166D01*
X153110595Y-123961071D01*
X152451404Y-55598785D02*
X152421166Y-55629023D01*
X152330452Y-55659261D01*
X152269976Y-55659261D01*
X152179261Y-55629023D01*
X152118785Y-55568547D01*
X152088547Y-55508071D01*
X152058309Y-55387119D01*
X152058309Y-55296404D01*
X152088547Y-55175452D01*
X152118785Y-55114976D01*
X152179261Y-55054500D01*
X152269976Y-55024261D01*
X152330452Y-55024261D01*
X152421166Y-55054500D01*
X152451404Y-55084738D01*
X152995690Y-55235928D02*
X152995690Y-55659261D01*
X152844500Y-54994023D02*
X152693309Y-55447595D01*
X153086404Y-55447595D01*
X153449261Y-55024261D02*
X153509738Y-55024261D01*
X153570214Y-55054500D01*
X153600452Y-55084738D01*
X153630690Y-55145214D01*
X153660928Y-55266166D01*
X153660928Y-55417357D01*
X153630690Y-55538309D01*
X153600452Y-55598785D01*
X153570214Y-55629023D01*
X153509738Y-55659261D01*
X153449261Y-55659261D01*
X153388785Y-55629023D01*
X153358547Y-55598785D01*
X153328309Y-55538309D01*
X153298071Y-55417357D01*
X153298071Y-55266166D01*
X153328309Y-55145214D01*
X153358547Y-55084738D01*
X153388785Y-55054500D01*
X153449261Y-55024261D01*
X154265690Y-55659261D02*
X153902833Y-55659261D01*
X154084261Y-55659261D02*
X154084261Y-55024261D01*
X154023785Y-55114976D01*
X153963309Y-55175452D01*
X153902833Y-55205690D01*
X161770785Y-73608595D02*
X161801023Y-73638833D01*
X161831261Y-73729547D01*
X161831261Y-73790023D01*
X161801023Y-73880738D01*
X161740547Y-73941214D01*
X161680071Y-73971452D01*
X161559119Y-74001690D01*
X161468404Y-74001690D01*
X161347452Y-73971452D01*
X161286976Y-73941214D01*
X161226500Y-73880738D01*
X161196261Y-73790023D01*
X161196261Y-73729547D01*
X161226500Y-73638833D01*
X161256738Y-73608595D01*
X161407928Y-73064309D02*
X161831261Y-73064309D01*
X161166023Y-73215500D02*
X161619595Y-73366690D01*
X161619595Y-72973595D01*
X161196261Y-72610738D02*
X161196261Y-72550261D01*
X161226500Y-72489785D01*
X161256738Y-72459547D01*
X161317214Y-72429309D01*
X161438166Y-72399071D01*
X161589357Y-72399071D01*
X161710309Y-72429309D01*
X161770785Y-72459547D01*
X161801023Y-72489785D01*
X161831261Y-72550261D01*
X161831261Y-72610738D01*
X161801023Y-72671214D01*
X161770785Y-72701452D01*
X161710309Y-72731690D01*
X161589357Y-72761928D01*
X161438166Y-72761928D01*
X161317214Y-72731690D01*
X161256738Y-72701452D01*
X161226500Y-72671214D01*
X161196261Y-72610738D01*
X161256738Y-72157166D02*
X161226500Y-72126928D01*
X161196261Y-72066452D01*
X161196261Y-71915261D01*
X161226500Y-71854785D01*
X161256738Y-71824547D01*
X161317214Y-71794309D01*
X161377690Y-71794309D01*
X161468404Y-71824547D01*
X161831261Y-72187404D01*
X161831261Y-71794309D01*
X156182785Y-99770595D02*
X156213023Y-99800833D01*
X156243261Y-99891547D01*
X156243261Y-99952023D01*
X156213023Y-100042738D01*
X156152547Y-100103214D01*
X156092071Y-100133452D01*
X155971119Y-100163690D01*
X155880404Y-100163690D01*
X155759452Y-100133452D01*
X155698976Y-100103214D01*
X155638500Y-100042738D01*
X155608261Y-99952023D01*
X155608261Y-99891547D01*
X155638500Y-99800833D01*
X155668738Y-99770595D01*
X155819928Y-99226309D02*
X156243261Y-99226309D01*
X155578023Y-99377500D02*
X156031595Y-99528690D01*
X156031595Y-99135595D01*
X155608261Y-98772738D02*
X155608261Y-98712261D01*
X155638500Y-98651785D01*
X155668738Y-98621547D01*
X155729214Y-98591309D01*
X155850166Y-98561071D01*
X156001357Y-98561071D01*
X156122309Y-98591309D01*
X156182785Y-98621547D01*
X156213023Y-98651785D01*
X156243261Y-98712261D01*
X156243261Y-98772738D01*
X156213023Y-98833214D01*
X156182785Y-98863452D01*
X156122309Y-98893690D01*
X156001357Y-98923928D01*
X155850166Y-98923928D01*
X155729214Y-98893690D01*
X155668738Y-98863452D01*
X155638500Y-98833214D01*
X155608261Y-98772738D01*
X155608261Y-98349404D02*
X155608261Y-97956309D01*
X155850166Y-98167976D01*
X155850166Y-98077261D01*
X155880404Y-98016785D01*
X155910642Y-97986547D01*
X155971119Y-97956309D01*
X156122309Y-97956309D01*
X156182785Y-97986547D01*
X156213023Y-98016785D01*
X156243261Y-98077261D01*
X156243261Y-98258690D01*
X156213023Y-98319166D01*
X156182785Y-98349404D01*
X155166785Y-108660595D02*
X155197023Y-108690833D01*
X155227261Y-108781547D01*
X155227261Y-108842023D01*
X155197023Y-108932738D01*
X155136547Y-108993214D01*
X155076071Y-109023452D01*
X154955119Y-109053690D01*
X154864404Y-109053690D01*
X154743452Y-109023452D01*
X154682976Y-108993214D01*
X154622500Y-108932738D01*
X154592261Y-108842023D01*
X154592261Y-108781547D01*
X154622500Y-108690833D01*
X154652738Y-108660595D01*
X154803928Y-108116309D02*
X155227261Y-108116309D01*
X154562023Y-108267500D02*
X155015595Y-108418690D01*
X155015595Y-108025595D01*
X154592261Y-107662738D02*
X154592261Y-107602261D01*
X154622500Y-107541785D01*
X154652738Y-107511547D01*
X154713214Y-107481309D01*
X154834166Y-107451071D01*
X154985357Y-107451071D01*
X155106309Y-107481309D01*
X155166785Y-107511547D01*
X155197023Y-107541785D01*
X155227261Y-107602261D01*
X155227261Y-107662738D01*
X155197023Y-107723214D01*
X155166785Y-107753452D01*
X155106309Y-107783690D01*
X154985357Y-107813928D01*
X154834166Y-107813928D01*
X154713214Y-107783690D01*
X154652738Y-107753452D01*
X154622500Y-107723214D01*
X154592261Y-107662738D01*
X154803928Y-106906785D02*
X155227261Y-106906785D01*
X154562023Y-107057976D02*
X155015595Y-107209166D01*
X155015595Y-106816071D01*
X161770785Y-118185595D02*
X161801023Y-118215833D01*
X161831261Y-118306547D01*
X161831261Y-118367023D01*
X161801023Y-118457738D01*
X161740547Y-118518214D01*
X161680071Y-118548452D01*
X161559119Y-118578690D01*
X161468404Y-118578690D01*
X161347452Y-118548452D01*
X161286976Y-118518214D01*
X161226500Y-118457738D01*
X161196261Y-118367023D01*
X161196261Y-118306547D01*
X161226500Y-118215833D01*
X161256738Y-118185595D01*
X161407928Y-117641309D02*
X161831261Y-117641309D01*
X161166023Y-117792500D02*
X161619595Y-117943690D01*
X161619595Y-117550595D01*
X161196261Y-117187738D02*
X161196261Y-117127261D01*
X161226500Y-117066785D01*
X161256738Y-117036547D01*
X161317214Y-117006309D01*
X161438166Y-116976071D01*
X161589357Y-116976071D01*
X161710309Y-117006309D01*
X161770785Y-117036547D01*
X161801023Y-117066785D01*
X161831261Y-117127261D01*
X161831261Y-117187738D01*
X161801023Y-117248214D01*
X161770785Y-117278452D01*
X161710309Y-117308690D01*
X161589357Y-117338928D01*
X161438166Y-117338928D01*
X161317214Y-117308690D01*
X161256738Y-117278452D01*
X161226500Y-117248214D01*
X161196261Y-117187738D01*
X161196261Y-116401547D02*
X161196261Y-116703928D01*
X161498642Y-116734166D01*
X161468404Y-116703928D01*
X161438166Y-116643452D01*
X161438166Y-116492261D01*
X161468404Y-116431785D01*
X161498642Y-116401547D01*
X161559119Y-116371309D01*
X161710309Y-116371309D01*
X161770785Y-116401547D01*
X161801023Y-116431785D01*
X161831261Y-116492261D01*
X161831261Y-116643452D01*
X161801023Y-116703928D01*
X161770785Y-116734166D01*
X156134404Y-116431785D02*
X156104166Y-116462023D01*
X156013452Y-116492261D01*
X155952976Y-116492261D01*
X155862261Y-116462023D01*
X155801785Y-116401547D01*
X155771547Y-116341071D01*
X155741309Y-116220119D01*
X155741309Y-116129404D01*
X155771547Y-116008452D01*
X155801785Y-115947976D01*
X155862261Y-115887500D01*
X155952976Y-115857261D01*
X156013452Y-115857261D01*
X156104166Y-115887500D01*
X156134404Y-115917738D01*
X156678690Y-116068928D02*
X156678690Y-116492261D01*
X156527500Y-115827023D02*
X156376309Y-116280595D01*
X156769404Y-116280595D01*
X157132261Y-115857261D02*
X157192738Y-115857261D01*
X157253214Y-115887500D01*
X157283452Y-115917738D01*
X157313690Y-115978214D01*
X157343928Y-116099166D01*
X157343928Y-116250357D01*
X157313690Y-116371309D01*
X157283452Y-116431785D01*
X157253214Y-116462023D01*
X157192738Y-116492261D01*
X157132261Y-116492261D01*
X157071785Y-116462023D01*
X157041547Y-116431785D01*
X157011309Y-116371309D01*
X156981071Y-116250357D01*
X156981071Y-116099166D01*
X157011309Y-115978214D01*
X157041547Y-115917738D01*
X157071785Y-115887500D01*
X157132261Y-115857261D01*
X157888214Y-115857261D02*
X157767261Y-115857261D01*
X157706785Y-115887500D01*
X157676547Y-115917738D01*
X157616071Y-116008452D01*
X157585833Y-116129404D01*
X157585833Y-116371309D01*
X157616071Y-116431785D01*
X157646309Y-116462023D01*
X157706785Y-116492261D01*
X157827738Y-116492261D01*
X157888214Y-116462023D01*
X157918452Y-116431785D01*
X157948690Y-116371309D01*
X157948690Y-116220119D01*
X157918452Y-116159642D01*
X157888214Y-116129404D01*
X157827738Y-116099166D01*
X157706785Y-116099166D01*
X157646309Y-116129404D01*
X157616071Y-116159642D01*
X157585833Y-116220119D01*
X166342785Y-117677595D02*
X166373023Y-117707833D01*
X166403261Y-117798547D01*
X166403261Y-117859023D01*
X166373023Y-117949738D01*
X166312547Y-118010214D01*
X166252071Y-118040452D01*
X166131119Y-118070690D01*
X166040404Y-118070690D01*
X165919452Y-118040452D01*
X165858976Y-118010214D01*
X165798500Y-117949738D01*
X165768261Y-117859023D01*
X165768261Y-117798547D01*
X165798500Y-117707833D01*
X165828738Y-117677595D01*
X165979928Y-117133309D02*
X166403261Y-117133309D01*
X165738023Y-117284500D02*
X166191595Y-117435690D01*
X166191595Y-117042595D01*
X165768261Y-116679738D02*
X165768261Y-116619261D01*
X165798500Y-116558785D01*
X165828738Y-116528547D01*
X165889214Y-116498309D01*
X166010166Y-116468071D01*
X166161357Y-116468071D01*
X166282309Y-116498309D01*
X166342785Y-116528547D01*
X166373023Y-116558785D01*
X166403261Y-116619261D01*
X166403261Y-116679738D01*
X166373023Y-116740214D01*
X166342785Y-116770452D01*
X166282309Y-116800690D01*
X166161357Y-116830928D01*
X166010166Y-116830928D01*
X165889214Y-116800690D01*
X165828738Y-116770452D01*
X165798500Y-116740214D01*
X165768261Y-116679738D01*
X165768261Y-116256404D02*
X165768261Y-115833071D01*
X166403261Y-116105214D01*
X151435404Y-89304585D02*
X151405166Y-89334823D01*
X151314452Y-89365061D01*
X151253976Y-89365061D01*
X151163261Y-89334823D01*
X151102785Y-89274347D01*
X151072547Y-89213871D01*
X151042309Y-89092919D01*
X151042309Y-89002204D01*
X151072547Y-88881252D01*
X151102785Y-88820776D01*
X151163261Y-88760300D01*
X151253976Y-88730061D01*
X151314452Y-88730061D01*
X151405166Y-88760300D01*
X151435404Y-88790538D01*
X151979690Y-88941728D02*
X151979690Y-89365061D01*
X151828500Y-88699823D02*
X151677309Y-89153395D01*
X152070404Y-89153395D01*
X152433261Y-88730061D02*
X152493738Y-88730061D01*
X152554214Y-88760300D01*
X152584452Y-88790538D01*
X152614690Y-88851014D01*
X152644928Y-88971966D01*
X152644928Y-89123157D01*
X152614690Y-89244109D01*
X152584452Y-89304585D01*
X152554214Y-89334823D01*
X152493738Y-89365061D01*
X152433261Y-89365061D01*
X152372785Y-89334823D01*
X152342547Y-89304585D01*
X152312309Y-89244109D01*
X152282071Y-89123157D01*
X152282071Y-88971966D01*
X152312309Y-88851014D01*
X152342547Y-88790538D01*
X152372785Y-88760300D01*
X152433261Y-88730061D01*
X153007785Y-89002204D02*
X152947309Y-88971966D01*
X152917071Y-88941728D01*
X152886833Y-88881252D01*
X152886833Y-88851014D01*
X152917071Y-88790538D01*
X152947309Y-88760300D01*
X153007785Y-88730061D01*
X153128738Y-88730061D01*
X153189214Y-88760300D01*
X153219452Y-88790538D01*
X153249690Y-88851014D01*
X153249690Y-88881252D01*
X153219452Y-88941728D01*
X153189214Y-88971966D01*
X153128738Y-89002204D01*
X153007785Y-89002204D01*
X152947309Y-89032442D01*
X152917071Y-89062680D01*
X152886833Y-89123157D01*
X152886833Y-89244109D01*
X152917071Y-89304585D01*
X152947309Y-89334823D01*
X153007785Y-89365061D01*
X153128738Y-89365061D01*
X153189214Y-89334823D01*
X153219452Y-89304585D01*
X153249690Y-89244109D01*
X153249690Y-89123157D01*
X153219452Y-89062680D01*
X153189214Y-89032442D01*
X153128738Y-89002204D01*
X172644404Y-84300785D02*
X172614166Y-84331023D01*
X172523452Y-84361261D01*
X172462976Y-84361261D01*
X172372261Y-84331023D01*
X172311785Y-84270547D01*
X172281547Y-84210071D01*
X172251309Y-84089119D01*
X172251309Y-83998404D01*
X172281547Y-83877452D01*
X172311785Y-83816976D01*
X172372261Y-83756500D01*
X172462976Y-83726261D01*
X172523452Y-83726261D01*
X172614166Y-83756500D01*
X172644404Y-83786738D01*
X173188690Y-83937928D02*
X173188690Y-84361261D01*
X173037500Y-83696023D02*
X172886309Y-84149595D01*
X173279404Y-84149595D01*
X173642261Y-83726261D02*
X173702738Y-83726261D01*
X173763214Y-83756500D01*
X173793452Y-83786738D01*
X173823690Y-83847214D01*
X173853928Y-83968166D01*
X173853928Y-84119357D01*
X173823690Y-84240309D01*
X173793452Y-84300785D01*
X173763214Y-84331023D01*
X173702738Y-84361261D01*
X173642261Y-84361261D01*
X173581785Y-84331023D01*
X173551547Y-84300785D01*
X173521309Y-84240309D01*
X173491071Y-84119357D01*
X173491071Y-83968166D01*
X173521309Y-83847214D01*
X173551547Y-83786738D01*
X173581785Y-83756500D01*
X173642261Y-83726261D01*
X174156309Y-84361261D02*
X174277261Y-84361261D01*
X174337738Y-84331023D01*
X174367976Y-84300785D01*
X174428452Y-84210071D01*
X174458690Y-84089119D01*
X174458690Y-83847214D01*
X174428452Y-83786738D01*
X174398214Y-83756500D01*
X174337738Y-83726261D01*
X174216785Y-83726261D01*
X174156309Y-83756500D01*
X174126071Y-83786738D01*
X174095833Y-83847214D01*
X174095833Y-83998404D01*
X174126071Y-84058880D01*
X174156309Y-84089119D01*
X174216785Y-84119357D01*
X174337738Y-84119357D01*
X174398214Y-84089119D01*
X174428452Y-84058880D01*
X174458690Y-83998404D01*
X166342785Y-94690595D02*
X166373023Y-94720833D01*
X166403261Y-94811547D01*
X166403261Y-94872023D01*
X166373023Y-94962738D01*
X166312547Y-95023214D01*
X166252071Y-95053452D01*
X166131119Y-95083690D01*
X166040404Y-95083690D01*
X165919452Y-95053452D01*
X165858976Y-95023214D01*
X165798500Y-94962738D01*
X165768261Y-94872023D01*
X165768261Y-94811547D01*
X165798500Y-94720833D01*
X165828738Y-94690595D01*
X165979928Y-94146309D02*
X166403261Y-94146309D01*
X165738023Y-94297500D02*
X166191595Y-94448690D01*
X166191595Y-94055595D01*
X166403261Y-93481071D02*
X166403261Y-93843928D01*
X166403261Y-93662500D02*
X165768261Y-93662500D01*
X165858976Y-93722976D01*
X165919452Y-93783452D01*
X165949690Y-93843928D01*
X165768261Y-93087976D02*
X165768261Y-93027500D01*
X165798500Y-92967023D01*
X165828738Y-92936785D01*
X165889214Y-92906547D01*
X166010166Y-92876309D01*
X166161357Y-92876309D01*
X166282309Y-92906547D01*
X166342785Y-92936785D01*
X166373023Y-92967023D01*
X166403261Y-93027500D01*
X166403261Y-93087976D01*
X166373023Y-93148452D01*
X166342785Y-93178690D01*
X166282309Y-93208928D01*
X166161357Y-93239166D01*
X166010166Y-93239166D01*
X165889214Y-93208928D01*
X165828738Y-93178690D01*
X165798500Y-93148452D01*
X165768261Y-93087976D01*
D15*
X161087707Y-66345949D02*
X161111534Y-66369776D01*
X161135362Y-66441259D01*
X161135362Y-66488914D01*
X161111534Y-66560397D01*
X161063879Y-66608052D01*
X161016224Y-66631880D01*
X160920913Y-66655708D01*
X160849430Y-66655708D01*
X160754120Y-66631880D01*
X160706465Y-66608052D01*
X160658810Y-66560397D01*
X160634982Y-66488914D01*
X160634982Y-66441259D01*
X160658810Y-66369776D01*
X160682637Y-66345949D01*
X160801775Y-65917051D02*
X161135362Y-65917051D01*
X160611154Y-66036190D02*
X160968569Y-66155328D01*
X160968569Y-65845569D01*
X161135362Y-65392844D02*
X161135362Y-65678775D01*
X161135362Y-65535810D02*
X160634982Y-65535810D01*
X160706465Y-65583465D01*
X160754120Y-65631120D01*
X160777948Y-65678775D01*
X161135362Y-64916291D02*
X161135362Y-65202223D01*
X161135362Y-65059257D02*
X160634982Y-65059257D01*
X160706465Y-65106912D01*
X160754120Y-65154568D01*
X160777948Y-65202223D01*
D12*
X140610166Y-143618857D02*
X140567833Y-143667238D01*
X140440833Y-143715619D01*
X140356166Y-143715619D01*
X140229166Y-143667238D01*
X140144500Y-143570476D01*
X140102166Y-143473714D01*
X140059833Y-143280190D01*
X140059833Y-143135047D01*
X140102166Y-142941523D01*
X140144500Y-142844761D01*
X140229166Y-142748000D01*
X140356166Y-142699619D01*
X140440833Y-142699619D01*
X140567833Y-142748000D01*
X140610166Y-142796380D01*
X141372166Y-143038285D02*
X141372166Y-143715619D01*
X141160500Y-142651238D02*
X140948833Y-143376952D01*
X141499166Y-143376952D01*
X142303500Y-143715619D02*
X141795500Y-143715619D01*
X142049500Y-143715619D02*
X142049500Y-142699619D01*
X141964833Y-142844761D01*
X141880166Y-142941523D01*
X141795500Y-142989904D01*
X142642166Y-142796380D02*
X142684500Y-142748000D01*
X142769166Y-142699619D01*
X142980833Y-142699619D01*
X143065500Y-142748000D01*
X143107833Y-142796380D01*
X143150166Y-142893142D01*
X143150166Y-142989904D01*
X143107833Y-143135047D01*
X142599833Y-143715619D01*
X143150166Y-143715619D01*
X143691428Y-138284857D02*
X144852571Y-138284857D01*
X144272000Y-138865428D02*
X144272000Y-137704285D01*
D15*
X161365050Y-96952707D02*
X161341223Y-96976534D01*
X161269740Y-97000362D01*
X161222085Y-97000362D01*
X161150602Y-96976534D01*
X161102947Y-96928879D01*
X161079119Y-96881224D01*
X161055291Y-96785913D01*
X161055291Y-96714430D01*
X161079119Y-96619120D01*
X161102947Y-96571465D01*
X161150602Y-96523810D01*
X161222085Y-96499982D01*
X161269740Y-96499982D01*
X161341223Y-96523810D01*
X161365050Y-96547637D01*
X161793948Y-96666775D02*
X161793948Y-97000362D01*
X161674810Y-96476154D02*
X161555671Y-96833569D01*
X161865430Y-96833569D01*
X162318155Y-97000362D02*
X162032224Y-97000362D01*
X162175190Y-97000362D02*
X162175190Y-96499982D01*
X162127534Y-96571465D01*
X162079879Y-96619120D01*
X162032224Y-96642948D01*
X162484949Y-96499982D02*
X162794708Y-96499982D01*
X162627914Y-96690603D01*
X162699397Y-96690603D01*
X162747052Y-96714430D01*
X162770880Y-96738258D01*
X162794708Y-96785913D01*
X162794708Y-96905051D01*
X162770880Y-96952707D01*
X162747052Y-96976534D01*
X162699397Y-97000362D01*
X162556431Y-97000362D01*
X162508776Y-96976534D01*
X162484949Y-96952707D01*
D13*
X152880785Y-104215595D02*
X152911023Y-104245833D01*
X152941261Y-104336547D01*
X152941261Y-104397023D01*
X152911023Y-104487738D01*
X152850547Y-104548214D01*
X152790071Y-104578452D01*
X152669119Y-104608690D01*
X152578404Y-104608690D01*
X152457452Y-104578452D01*
X152396976Y-104548214D01*
X152336500Y-104487738D01*
X152306261Y-104397023D01*
X152306261Y-104336547D01*
X152336500Y-104245833D01*
X152366738Y-104215595D01*
X152517928Y-103671309D02*
X152941261Y-103671309D01*
X152276023Y-103822500D02*
X152729595Y-103973690D01*
X152729595Y-103580595D01*
X152941261Y-103006071D02*
X152941261Y-103368928D01*
X152941261Y-103187500D02*
X152306261Y-103187500D01*
X152396976Y-103247976D01*
X152457452Y-103308452D01*
X152487690Y-103368928D01*
X152517928Y-102461785D02*
X152941261Y-102461785D01*
X152276023Y-102612976D02*
X152729595Y-102764166D01*
X152729595Y-102371071D01*
X146657785Y-123265595D02*
X146688023Y-123295833D01*
X146718261Y-123386547D01*
X146718261Y-123447023D01*
X146688023Y-123537738D01*
X146627547Y-123598214D01*
X146567071Y-123628452D01*
X146446119Y-123658690D01*
X146355404Y-123658690D01*
X146234452Y-123628452D01*
X146173976Y-123598214D01*
X146113500Y-123537738D01*
X146083261Y-123447023D01*
X146083261Y-123386547D01*
X146113500Y-123295833D01*
X146143738Y-123265595D01*
X146294928Y-122721309D02*
X146718261Y-122721309D01*
X146053023Y-122872500D02*
X146506595Y-123023690D01*
X146506595Y-122630595D01*
X146718261Y-122056071D02*
X146718261Y-122418928D01*
X146718261Y-122237500D02*
X146083261Y-122237500D01*
X146173976Y-122297976D01*
X146234452Y-122358452D01*
X146264690Y-122418928D01*
X146083261Y-121481547D02*
X146083261Y-121783928D01*
X146385642Y-121814166D01*
X146355404Y-121783928D01*
X146325166Y-121723452D01*
X146325166Y-121572261D01*
X146355404Y-121511785D01*
X146385642Y-121481547D01*
X146446119Y-121451309D01*
X146597309Y-121451309D01*
X146657785Y-121481547D01*
X146688023Y-121511785D01*
X146718261Y-121572261D01*
X146718261Y-121723452D01*
X146688023Y-121783928D01*
X146657785Y-121814166D01*
X174168404Y-60424785D02*
X174138166Y-60455023D01*
X174047452Y-60485261D01*
X173986976Y-60485261D01*
X173896261Y-60455023D01*
X173835785Y-60394547D01*
X173805547Y-60334071D01*
X173775309Y-60213119D01*
X173775309Y-60122404D01*
X173805547Y-60001452D01*
X173835785Y-59940976D01*
X173896261Y-59880500D01*
X173986976Y-59850261D01*
X174047452Y-59850261D01*
X174138166Y-59880500D01*
X174168404Y-59910738D01*
X174712690Y-60061928D02*
X174712690Y-60485261D01*
X174561500Y-59820023D02*
X174410309Y-60273595D01*
X174803404Y-60273595D01*
X175377928Y-60485261D02*
X175015071Y-60485261D01*
X175196500Y-60485261D02*
X175196500Y-59850261D01*
X175136023Y-59940976D01*
X175075547Y-60001452D01*
X175015071Y-60031690D01*
X175922214Y-59850261D02*
X175801261Y-59850261D01*
X175740785Y-59880500D01*
X175710547Y-59910738D01*
X175650071Y-60001452D01*
X175619833Y-60122404D01*
X175619833Y-60364309D01*
X175650071Y-60424785D01*
X175680309Y-60455023D01*
X175740785Y-60485261D01*
X175861738Y-60485261D01*
X175922214Y-60455023D01*
X175952452Y-60424785D01*
X175982690Y-60364309D01*
X175982690Y-60213119D01*
X175952452Y-60152642D01*
X175922214Y-60122404D01*
X175861738Y-60092166D01*
X175740785Y-60092166D01*
X175680309Y-60122404D01*
X175650071Y-60152642D01*
X175619833Y-60213119D01*
X174168404Y-64488785D02*
X174138166Y-64519023D01*
X174047452Y-64549261D01*
X173986976Y-64549261D01*
X173896261Y-64519023D01*
X173835785Y-64458547D01*
X173805547Y-64398071D01*
X173775309Y-64277119D01*
X173775309Y-64186404D01*
X173805547Y-64065452D01*
X173835785Y-64004976D01*
X173896261Y-63944500D01*
X173986976Y-63914261D01*
X174047452Y-63914261D01*
X174138166Y-63944500D01*
X174168404Y-63974738D01*
X174712690Y-64125928D02*
X174712690Y-64549261D01*
X174561500Y-63884023D02*
X174410309Y-64337595D01*
X174803404Y-64337595D01*
X175377928Y-64549261D02*
X175015071Y-64549261D01*
X175196500Y-64549261D02*
X175196500Y-63914261D01*
X175136023Y-64004976D01*
X175075547Y-64065452D01*
X175015071Y-64095690D01*
X175589595Y-63914261D02*
X176012928Y-63914261D01*
X175740785Y-64549261D01*
D10*
X132424714Y-54156428D02*
X132424714Y-52632428D01*
X133295571Y-54156428D02*
X132642428Y-53285571D01*
X133295571Y-52632428D02*
X132424714Y-53503285D01*
X134747000Y-54156428D02*
X133876142Y-54156428D01*
X134311571Y-54156428D02*
X134311571Y-52632428D01*
X134166428Y-52850142D01*
X134021285Y-52995285D01*
X133876142Y-53067857D01*
X135690428Y-52632428D02*
X135835571Y-52632428D01*
X135980714Y-52705000D01*
X136053285Y-52777571D01*
X136125857Y-52922714D01*
X136198428Y-53213000D01*
X136198428Y-53575857D01*
X136125857Y-53866142D01*
X136053285Y-54011285D01*
X135980714Y-54083857D01*
X135835571Y-54156428D01*
X135690428Y-54156428D01*
X135545285Y-54083857D01*
X135472714Y-54011285D01*
X135400142Y-53866142D01*
X135327571Y-53575857D01*
X135327571Y-53213000D01*
X135400142Y-52922714D01*
X135472714Y-52777571D01*
X135545285Y-52705000D01*
X135690428Y-52632428D01*
X137649857Y-54156428D02*
X136779000Y-54156428D01*
X137214428Y-54156428D02*
X137214428Y-52632428D01*
X137069285Y-52850142D01*
X136924142Y-52995285D01*
X136779000Y-53067857D01*
X171159714Y-126927428D02*
X171159714Y-125403428D01*
X172030571Y-126927428D02*
X171377428Y-126056571D01*
X172030571Y-125403428D02*
X171159714Y-126274285D01*
X172611142Y-125548571D02*
X172683714Y-125476000D01*
X172828857Y-125403428D01*
X173191714Y-125403428D01*
X173336857Y-125476000D01*
X173409428Y-125548571D01*
X173482000Y-125693714D01*
X173482000Y-125838857D01*
X173409428Y-126056571D01*
X172538571Y-126927428D01*
X173482000Y-126927428D01*
X174425428Y-125403428D02*
X174570571Y-125403428D01*
X174715714Y-125476000D01*
X174788285Y-125548571D01*
X174860857Y-125693714D01*
X174933428Y-125984000D01*
X174933428Y-126346857D01*
X174860857Y-126637142D01*
X174788285Y-126782285D01*
X174715714Y-126854857D01*
X174570571Y-126927428D01*
X174425428Y-126927428D01*
X174280285Y-126854857D01*
X174207714Y-126782285D01*
X174135142Y-126637142D01*
X174062571Y-126346857D01*
X174062571Y-125984000D01*
X174135142Y-125693714D01*
X174207714Y-125548571D01*
X174280285Y-125476000D01*
X174425428Y-125403428D01*
X176384857Y-126927428D02*
X175514000Y-126927428D01*
X175949428Y-126927428D02*
X175949428Y-125403428D01*
X175804285Y-125621142D01*
X175659142Y-125766285D01*
X175514000Y-125838857D01*
D14*
X169496619Y-74234523D02*
X168480619Y-74234523D01*
X169496619Y-73653952D02*
X168916047Y-74089380D01*
X168480619Y-73653952D02*
X169061190Y-74234523D01*
X168819285Y-72783095D02*
X169496619Y-72783095D01*
X168432238Y-73025000D02*
X169157952Y-73266904D01*
X169157952Y-72637952D01*
X168480619Y-72057380D02*
X168480619Y-71960619D01*
X168529000Y-71863857D01*
X168577380Y-71815476D01*
X168674142Y-71767095D01*
X168867666Y-71718714D01*
X169109571Y-71718714D01*
X169303095Y-71767095D01*
X169399857Y-71815476D01*
X169448238Y-71863857D01*
X169496619Y-71960619D01*
X169496619Y-72057380D01*
X169448238Y-72154142D01*
X169399857Y-72202523D01*
X169303095Y-72250904D01*
X169109571Y-72299285D01*
X168867666Y-72299285D01*
X168674142Y-72250904D01*
X168577380Y-72202523D01*
X168529000Y-72154142D01*
X168480619Y-72057380D01*
X169496619Y-70751095D02*
X169496619Y-71331666D01*
X169496619Y-71041380D02*
X168480619Y-71041380D01*
X168625761Y-71138142D01*
X168722523Y-71234904D01*
X168770904Y-71331666D01*
D13*
X151417261Y-129996595D02*
X151417261Y-130298976D01*
X150782261Y-130298976D01*
X150842738Y-129815166D02*
X150812500Y-129784928D01*
X150782261Y-129724452D01*
X150782261Y-129573261D01*
X150812500Y-129512785D01*
X150842738Y-129482547D01*
X150903214Y-129452309D01*
X150963690Y-129452309D01*
X151054404Y-129482547D01*
X151417261Y-129845404D01*
X151417261Y-129452309D01*
X150782261Y-129059214D02*
X150782261Y-128998738D01*
X150812500Y-128938261D01*
X150842738Y-128908023D01*
X150903214Y-128877785D01*
X151024166Y-128847547D01*
X151175357Y-128847547D01*
X151296309Y-128877785D01*
X151356785Y-128908023D01*
X151387023Y-128938261D01*
X151417261Y-128998738D01*
X151417261Y-129059214D01*
X151387023Y-129119690D01*
X151356785Y-129149928D01*
X151296309Y-129180166D01*
X151175357Y-129210404D01*
X151024166Y-129210404D01*
X150903214Y-129180166D01*
X150842738Y-129149928D01*
X150812500Y-129119690D01*
X150782261Y-129059214D01*
X151417261Y-128242785D02*
X151417261Y-128605642D01*
X151417261Y-128424214D02*
X150782261Y-128424214D01*
X150872976Y-128484690D01*
X150933452Y-128545166D01*
X150963690Y-128605642D01*
X161069261Y-70814595D02*
X161069261Y-71116976D01*
X160434261Y-71116976D01*
X160645928Y-70330785D02*
X161069261Y-70330785D01*
X160404023Y-70481976D02*
X160857595Y-70633166D01*
X160857595Y-70240071D01*
X160434261Y-69877214D02*
X160434261Y-69816738D01*
X160464500Y-69756261D01*
X160494738Y-69726023D01*
X160555214Y-69695785D01*
X160676166Y-69665547D01*
X160827357Y-69665547D01*
X160948309Y-69695785D01*
X161008785Y-69726023D01*
X161039023Y-69756261D01*
X161069261Y-69816738D01*
X161069261Y-69877214D01*
X161039023Y-69937690D01*
X161008785Y-69967928D01*
X160948309Y-69998166D01*
X160827357Y-70028404D01*
X160676166Y-70028404D01*
X160555214Y-69998166D01*
X160494738Y-69967928D01*
X160464500Y-69937690D01*
X160434261Y-69877214D01*
X161069261Y-69060785D02*
X161069261Y-69423642D01*
X161069261Y-69242214D02*
X160434261Y-69242214D01*
X160524976Y-69302690D01*
X160585452Y-69363166D01*
X160615690Y-69423642D01*
X143984738Y-135539238D02*
X143954500Y-135599714D01*
X143894023Y-135660190D01*
X143803309Y-135750904D01*
X143773071Y-135811380D01*
X143773071Y-135871857D01*
X143924261Y-135841619D02*
X143894023Y-135902095D01*
X143833547Y-135962571D01*
X143712595Y-135992809D01*
X143500928Y-135992809D01*
X143379976Y-135962571D01*
X143319500Y-135902095D01*
X143289261Y-135841619D01*
X143289261Y-135720666D01*
X143319500Y-135660190D01*
X143379976Y-135599714D01*
X143500928Y-135569476D01*
X143712595Y-135569476D01*
X143833547Y-135599714D01*
X143894023Y-135660190D01*
X143924261Y-135720666D01*
X143924261Y-135841619D01*
X143349738Y-135327571D02*
X143319500Y-135297333D01*
X143289261Y-135236857D01*
X143289261Y-135085666D01*
X143319500Y-135025190D01*
X143349738Y-134994952D01*
X143410214Y-134964714D01*
X143470690Y-134964714D01*
X143561404Y-134994952D01*
X143924261Y-135357809D01*
X143924261Y-134964714D01*
X143289261Y-134571619D02*
X143289261Y-134511142D01*
X143319500Y-134450666D01*
X143349738Y-134420428D01*
X143410214Y-134390190D01*
X143531166Y-134359952D01*
X143682357Y-134359952D01*
X143803309Y-134390190D01*
X143863785Y-134420428D01*
X143894023Y-134450666D01*
X143924261Y-134511142D01*
X143924261Y-134571619D01*
X143894023Y-134632095D01*
X143863785Y-134662333D01*
X143803309Y-134692571D01*
X143682357Y-134722809D01*
X143531166Y-134722809D01*
X143410214Y-134692571D01*
X143349738Y-134662333D01*
X143319500Y-134632095D01*
X143289261Y-134571619D01*
X143924261Y-133755190D02*
X143924261Y-134118047D01*
X143924261Y-133936619D02*
X143289261Y-133936619D01*
X143379976Y-133997095D01*
X143440452Y-134057571D01*
X143470690Y-134118047D01*
X143924261Y-131901595D02*
X143621880Y-132113261D01*
X143924261Y-132264452D02*
X143289261Y-132264452D01*
X143289261Y-132022547D01*
X143319500Y-131962071D01*
X143349738Y-131931833D01*
X143410214Y-131901595D01*
X143500928Y-131901595D01*
X143561404Y-131931833D01*
X143591642Y-131962071D01*
X143621880Y-132022547D01*
X143621880Y-132264452D01*
X143924261Y-131296833D02*
X143924261Y-131659690D01*
X143924261Y-131478261D02*
X143289261Y-131478261D01*
X143379976Y-131538738D01*
X143440452Y-131599214D01*
X143470690Y-131659690D01*
X143289261Y-130903738D02*
X143289261Y-130843261D01*
X143319500Y-130782785D01*
X143349738Y-130752547D01*
X143410214Y-130722309D01*
X143531166Y-130692071D01*
X143682357Y-130692071D01*
X143803309Y-130722309D01*
X143863785Y-130752547D01*
X143894023Y-130782785D01*
X143924261Y-130843261D01*
X143924261Y-130903738D01*
X143894023Y-130964214D01*
X143863785Y-130994452D01*
X143803309Y-131024690D01*
X143682357Y-131054928D01*
X143531166Y-131054928D01*
X143410214Y-131024690D01*
X143349738Y-130994452D01*
X143319500Y-130964214D01*
X143289261Y-130903738D01*
X143924261Y-130087309D02*
X143924261Y-130450166D01*
X143924261Y-130268738D02*
X143289261Y-130268738D01*
X143379976Y-130329214D01*
X143440452Y-130389690D01*
X143470690Y-130450166D01*
X155100261Y-137108595D02*
X154797880Y-137320261D01*
X155100261Y-137471452D02*
X154465261Y-137471452D01*
X154465261Y-137229547D01*
X154495500Y-137169071D01*
X154525738Y-137138833D01*
X154586214Y-137108595D01*
X154676928Y-137108595D01*
X154737404Y-137138833D01*
X154767642Y-137169071D01*
X154797880Y-137229547D01*
X154797880Y-137471452D01*
X154525738Y-136866690D02*
X154495500Y-136836452D01*
X154465261Y-136775976D01*
X154465261Y-136624785D01*
X154495500Y-136564309D01*
X154525738Y-136534071D01*
X154586214Y-136503833D01*
X154646690Y-136503833D01*
X154737404Y-136534071D01*
X155100261Y-136896928D01*
X155100261Y-136503833D01*
X154465261Y-136110738D02*
X154465261Y-136050261D01*
X154495500Y-135989785D01*
X154525738Y-135959547D01*
X154586214Y-135929309D01*
X154707166Y-135899071D01*
X154858357Y-135899071D01*
X154979309Y-135929309D01*
X155039785Y-135959547D01*
X155070023Y-135989785D01*
X155100261Y-136050261D01*
X155100261Y-136110738D01*
X155070023Y-136171214D01*
X155039785Y-136201452D01*
X154979309Y-136231690D01*
X154858357Y-136261928D01*
X154707166Y-136261928D01*
X154586214Y-136231690D01*
X154525738Y-136201452D01*
X154495500Y-136171214D01*
X154465261Y-136110738D01*
X155100261Y-135294309D02*
X155100261Y-135657166D01*
X155100261Y-135475738D02*
X154465261Y-135475738D01*
X154555976Y-135536214D01*
X154616452Y-135596690D01*
X154646690Y-135657166D01*
X151689404Y-143543261D02*
X151477738Y-143240880D01*
X151326547Y-143543261D02*
X151326547Y-142908261D01*
X151568452Y-142908261D01*
X151628928Y-142938500D01*
X151659166Y-142968738D01*
X151689404Y-143029214D01*
X151689404Y-143119928D01*
X151659166Y-143180404D01*
X151628928Y-143210642D01*
X151568452Y-143240880D01*
X151326547Y-143240880D01*
X151931309Y-142968738D02*
X151961547Y-142938500D01*
X152022023Y-142908261D01*
X152173214Y-142908261D01*
X152233690Y-142938500D01*
X152263928Y-142968738D01*
X152294166Y-143029214D01*
X152294166Y-143089690D01*
X152263928Y-143180404D01*
X151901071Y-143543261D01*
X152294166Y-143543261D01*
X152687261Y-142908261D02*
X152747738Y-142908261D01*
X152808214Y-142938500D01*
X152838452Y-142968738D01*
X152868690Y-143029214D01*
X152898928Y-143150166D01*
X152898928Y-143301357D01*
X152868690Y-143422309D01*
X152838452Y-143482785D01*
X152808214Y-143513023D01*
X152747738Y-143543261D01*
X152687261Y-143543261D01*
X152626785Y-143513023D01*
X152596547Y-143482785D01*
X152566309Y-143422309D01*
X152536071Y-143301357D01*
X152536071Y-143150166D01*
X152566309Y-143029214D01*
X152596547Y-142968738D01*
X152626785Y-142938500D01*
X152687261Y-142908261D01*
X153140833Y-142968738D02*
X153171071Y-142938500D01*
X153231547Y-142908261D01*
X153382738Y-142908261D01*
X153443214Y-142938500D01*
X153473452Y-142968738D01*
X153503690Y-143029214D01*
X153503690Y-143089690D01*
X153473452Y-143180404D01*
X153110595Y-143543261D01*
X153503690Y-143543261D01*
X150274261Y-139775595D02*
X149971880Y-139987261D01*
X150274261Y-140138452D02*
X149639261Y-140138452D01*
X149639261Y-139896547D01*
X149669500Y-139836071D01*
X149699738Y-139805833D01*
X149760214Y-139775595D01*
X149850928Y-139775595D01*
X149911404Y-139805833D01*
X149941642Y-139836071D01*
X149971880Y-139896547D01*
X149971880Y-140138452D01*
X149699738Y-139533690D02*
X149669500Y-139503452D01*
X149639261Y-139442976D01*
X149639261Y-139291785D01*
X149669500Y-139231309D01*
X149699738Y-139201071D01*
X149760214Y-139170833D01*
X149820690Y-139170833D01*
X149911404Y-139201071D01*
X150274261Y-139563928D01*
X150274261Y-139170833D01*
X149639261Y-138777738D02*
X149639261Y-138717261D01*
X149669500Y-138656785D01*
X149699738Y-138626547D01*
X149760214Y-138596309D01*
X149881166Y-138566071D01*
X150032357Y-138566071D01*
X150153309Y-138596309D01*
X150213785Y-138626547D01*
X150244023Y-138656785D01*
X150274261Y-138717261D01*
X150274261Y-138777738D01*
X150244023Y-138838214D01*
X150213785Y-138868452D01*
X150153309Y-138898690D01*
X150032357Y-138928928D01*
X149881166Y-138928928D01*
X149760214Y-138898690D01*
X149699738Y-138868452D01*
X149669500Y-138838214D01*
X149639261Y-138777738D01*
X149639261Y-138354404D02*
X149639261Y-137961309D01*
X149881166Y-138172976D01*
X149881166Y-138082261D01*
X149911404Y-138021785D01*
X149941642Y-137991547D01*
X150002119Y-137961309D01*
X150153309Y-137961309D01*
X150213785Y-137991547D01*
X150244023Y-138021785D01*
X150274261Y-138082261D01*
X150274261Y-138263690D01*
X150244023Y-138324166D01*
X150213785Y-138354404D01*
X170467261Y-121487595D02*
X170164880Y-121699261D01*
X170467261Y-121850452D02*
X169832261Y-121850452D01*
X169832261Y-121608547D01*
X169862500Y-121548071D01*
X169892738Y-121517833D01*
X169953214Y-121487595D01*
X170043928Y-121487595D01*
X170104404Y-121517833D01*
X170134642Y-121548071D01*
X170164880Y-121608547D01*
X170164880Y-121850452D01*
X169892738Y-121245690D02*
X169862500Y-121215452D01*
X169832261Y-121154976D01*
X169832261Y-121003785D01*
X169862500Y-120943309D01*
X169892738Y-120913071D01*
X169953214Y-120882833D01*
X170013690Y-120882833D01*
X170104404Y-120913071D01*
X170467261Y-121275928D01*
X170467261Y-120882833D01*
X169832261Y-120489738D02*
X169832261Y-120429261D01*
X169862500Y-120368785D01*
X169892738Y-120338547D01*
X169953214Y-120308309D01*
X170074166Y-120278071D01*
X170225357Y-120278071D01*
X170346309Y-120308309D01*
X170406785Y-120338547D01*
X170437023Y-120368785D01*
X170467261Y-120429261D01*
X170467261Y-120489738D01*
X170437023Y-120550214D01*
X170406785Y-120580452D01*
X170346309Y-120610690D01*
X170225357Y-120640928D01*
X170074166Y-120640928D01*
X169953214Y-120610690D01*
X169892738Y-120580452D01*
X169862500Y-120550214D01*
X169832261Y-120489738D01*
X170043928Y-119733785D02*
X170467261Y-119733785D01*
X169802023Y-119884976D02*
X170255595Y-120036166D01*
X170255595Y-119643071D01*
X172499261Y-121487595D02*
X172196880Y-121699261D01*
X172499261Y-121850452D02*
X171864261Y-121850452D01*
X171864261Y-121608547D01*
X171894500Y-121548071D01*
X171924738Y-121517833D01*
X171985214Y-121487595D01*
X172075928Y-121487595D01*
X172136404Y-121517833D01*
X172166642Y-121548071D01*
X172196880Y-121608547D01*
X172196880Y-121850452D01*
X171924738Y-121245690D02*
X171894500Y-121215452D01*
X171864261Y-121154976D01*
X171864261Y-121003785D01*
X171894500Y-120943309D01*
X171924738Y-120913071D01*
X171985214Y-120882833D01*
X172045690Y-120882833D01*
X172136404Y-120913071D01*
X172499261Y-121275928D01*
X172499261Y-120882833D01*
X171864261Y-120489738D02*
X171864261Y-120429261D01*
X171894500Y-120368785D01*
X171924738Y-120338547D01*
X171985214Y-120308309D01*
X172106166Y-120278071D01*
X172257357Y-120278071D01*
X172378309Y-120308309D01*
X172438785Y-120338547D01*
X172469023Y-120368785D01*
X172499261Y-120429261D01*
X172499261Y-120489738D01*
X172469023Y-120550214D01*
X172438785Y-120580452D01*
X172378309Y-120610690D01*
X172257357Y-120640928D01*
X172106166Y-120640928D01*
X171985214Y-120610690D01*
X171924738Y-120580452D01*
X171894500Y-120550214D01*
X171864261Y-120489738D01*
X171864261Y-119703547D02*
X171864261Y-120005928D01*
X172166642Y-120036166D01*
X172136404Y-120005928D01*
X172106166Y-119945452D01*
X172106166Y-119794261D01*
X172136404Y-119733785D01*
X172166642Y-119703547D01*
X172227119Y-119673309D01*
X172378309Y-119673309D01*
X172438785Y-119703547D01*
X172469023Y-119733785D01*
X172499261Y-119794261D01*
X172499261Y-119945452D01*
X172469023Y-120005928D01*
X172438785Y-120036166D01*
X155227261Y-113740595D02*
X154924880Y-113952261D01*
X155227261Y-114103452D02*
X154592261Y-114103452D01*
X154592261Y-113861547D01*
X154622500Y-113801071D01*
X154652738Y-113770833D01*
X154713214Y-113740595D01*
X154803928Y-113740595D01*
X154864404Y-113770833D01*
X154894642Y-113801071D01*
X154924880Y-113861547D01*
X154924880Y-114103452D01*
X154652738Y-113498690D02*
X154622500Y-113468452D01*
X154592261Y-113407976D01*
X154592261Y-113256785D01*
X154622500Y-113196309D01*
X154652738Y-113166071D01*
X154713214Y-113135833D01*
X154773690Y-113135833D01*
X154864404Y-113166071D01*
X155227261Y-113528928D01*
X155227261Y-113135833D01*
X154592261Y-112742738D02*
X154592261Y-112682261D01*
X154622500Y-112621785D01*
X154652738Y-112591547D01*
X154713214Y-112561309D01*
X154834166Y-112531071D01*
X154985357Y-112531071D01*
X155106309Y-112561309D01*
X155166785Y-112591547D01*
X155197023Y-112621785D01*
X155227261Y-112682261D01*
X155227261Y-112742738D01*
X155197023Y-112803214D01*
X155166785Y-112833452D01*
X155106309Y-112863690D01*
X154985357Y-112893928D01*
X154834166Y-112893928D01*
X154713214Y-112863690D01*
X154652738Y-112833452D01*
X154622500Y-112803214D01*
X154592261Y-112742738D01*
X154592261Y-111986785D02*
X154592261Y-112107738D01*
X154622500Y-112168214D01*
X154652738Y-112198452D01*
X154743452Y-112258928D01*
X154864404Y-112289166D01*
X155106309Y-112289166D01*
X155166785Y-112258928D01*
X155197023Y-112228690D01*
X155227261Y-112168214D01*
X155227261Y-112047261D01*
X155197023Y-111986785D01*
X155166785Y-111956547D01*
X155106309Y-111926309D01*
X154955119Y-111926309D01*
X154894642Y-111956547D01*
X154864404Y-111986785D01*
X154834166Y-112047261D01*
X154834166Y-112168214D01*
X154864404Y-112228690D01*
X154894642Y-112258928D01*
X154955119Y-112289166D01*
X156243261Y-121995595D02*
X155940880Y-122207261D01*
X156243261Y-122358452D02*
X155608261Y-122358452D01*
X155608261Y-122116547D01*
X155638500Y-122056071D01*
X155668738Y-122025833D01*
X155729214Y-121995595D01*
X155819928Y-121995595D01*
X155880404Y-122025833D01*
X155910642Y-122056071D01*
X155940880Y-122116547D01*
X155940880Y-122358452D01*
X155668738Y-121753690D02*
X155638500Y-121723452D01*
X155608261Y-121662976D01*
X155608261Y-121511785D01*
X155638500Y-121451309D01*
X155668738Y-121421071D01*
X155729214Y-121390833D01*
X155789690Y-121390833D01*
X155880404Y-121421071D01*
X156243261Y-121783928D01*
X156243261Y-121390833D01*
X155608261Y-120997738D02*
X155608261Y-120937261D01*
X155638500Y-120876785D01*
X155668738Y-120846547D01*
X155729214Y-120816309D01*
X155850166Y-120786071D01*
X156001357Y-120786071D01*
X156122309Y-120816309D01*
X156182785Y-120846547D01*
X156213023Y-120876785D01*
X156243261Y-120937261D01*
X156243261Y-120997738D01*
X156213023Y-121058214D01*
X156182785Y-121088452D01*
X156122309Y-121118690D01*
X156001357Y-121148928D01*
X155850166Y-121148928D01*
X155729214Y-121118690D01*
X155668738Y-121088452D01*
X155638500Y-121058214D01*
X155608261Y-120997738D01*
X155608261Y-120574404D02*
X155608261Y-120151071D01*
X156243261Y-120423214D01*
X167038261Y-121995595D02*
X166735880Y-122207261D01*
X167038261Y-122358452D02*
X166403261Y-122358452D01*
X166403261Y-122116547D01*
X166433500Y-122056071D01*
X166463738Y-122025833D01*
X166524214Y-121995595D01*
X166614928Y-121995595D01*
X166675404Y-122025833D01*
X166705642Y-122056071D01*
X166735880Y-122116547D01*
X166735880Y-122358452D01*
X166463738Y-121753690D02*
X166433500Y-121723452D01*
X166403261Y-121662976D01*
X166403261Y-121511785D01*
X166433500Y-121451309D01*
X166463738Y-121421071D01*
X166524214Y-121390833D01*
X166584690Y-121390833D01*
X166675404Y-121421071D01*
X167038261Y-121783928D01*
X167038261Y-121390833D01*
X166403261Y-120997738D02*
X166403261Y-120937261D01*
X166433500Y-120876785D01*
X166463738Y-120846547D01*
X166524214Y-120816309D01*
X166645166Y-120786071D01*
X166796357Y-120786071D01*
X166917309Y-120816309D01*
X166977785Y-120846547D01*
X167008023Y-120876785D01*
X167038261Y-120937261D01*
X167038261Y-120997738D01*
X167008023Y-121058214D01*
X166977785Y-121088452D01*
X166917309Y-121118690D01*
X166796357Y-121148928D01*
X166645166Y-121148928D01*
X166524214Y-121118690D01*
X166463738Y-121088452D01*
X166433500Y-121058214D01*
X166403261Y-120997738D01*
X166675404Y-120423214D02*
X166645166Y-120483690D01*
X166614928Y-120513928D01*
X166554452Y-120544166D01*
X166524214Y-120544166D01*
X166463738Y-120513928D01*
X166433500Y-120483690D01*
X166403261Y-120423214D01*
X166403261Y-120302261D01*
X166433500Y-120241785D01*
X166463738Y-120211547D01*
X166524214Y-120181309D01*
X166554452Y-120181309D01*
X166614928Y-120211547D01*
X166645166Y-120241785D01*
X166675404Y-120302261D01*
X166675404Y-120423214D01*
X166705642Y-120483690D01*
X166735880Y-120513928D01*
X166796357Y-120544166D01*
X166917309Y-120544166D01*
X166977785Y-120513928D01*
X167008023Y-120483690D01*
X167038261Y-120423214D01*
X167038261Y-120302261D01*
X167008023Y-120241785D01*
X166977785Y-120211547D01*
X166917309Y-120181309D01*
X166796357Y-120181309D01*
X166735880Y-120211547D01*
X166705642Y-120241785D01*
X166675404Y-120302261D01*
X171737261Y-101421595D02*
X171434880Y-101633261D01*
X171737261Y-101784452D02*
X171102261Y-101784452D01*
X171102261Y-101542547D01*
X171132500Y-101482071D01*
X171162738Y-101451833D01*
X171223214Y-101421595D01*
X171313928Y-101421595D01*
X171374404Y-101451833D01*
X171404642Y-101482071D01*
X171434880Y-101542547D01*
X171434880Y-101784452D01*
X171162738Y-101179690D02*
X171132500Y-101149452D01*
X171102261Y-101088976D01*
X171102261Y-100937785D01*
X171132500Y-100877309D01*
X171162738Y-100847071D01*
X171223214Y-100816833D01*
X171283690Y-100816833D01*
X171374404Y-100847071D01*
X171737261Y-101209928D01*
X171737261Y-100816833D01*
X171102261Y-100423738D02*
X171102261Y-100363261D01*
X171132500Y-100302785D01*
X171162738Y-100272547D01*
X171223214Y-100242309D01*
X171344166Y-100212071D01*
X171495357Y-100212071D01*
X171616309Y-100242309D01*
X171676785Y-100272547D01*
X171707023Y-100302785D01*
X171737261Y-100363261D01*
X171737261Y-100423738D01*
X171707023Y-100484214D01*
X171676785Y-100514452D01*
X171616309Y-100544690D01*
X171495357Y-100574928D01*
X171344166Y-100574928D01*
X171223214Y-100544690D01*
X171162738Y-100514452D01*
X171132500Y-100484214D01*
X171102261Y-100423738D01*
X171737261Y-99909690D02*
X171737261Y-99788738D01*
X171707023Y-99728261D01*
X171676785Y-99698023D01*
X171586071Y-99637547D01*
X171465119Y-99607309D01*
X171223214Y-99607309D01*
X171162738Y-99637547D01*
X171132500Y-99667785D01*
X171102261Y-99728261D01*
X171102261Y-99849214D01*
X171132500Y-99909690D01*
X171162738Y-99939928D01*
X171223214Y-99970166D01*
X171374404Y-99970166D01*
X171434880Y-99939928D01*
X171465119Y-99909690D01*
X171495357Y-99849214D01*
X171495357Y-99728261D01*
X171465119Y-99667785D01*
X171434880Y-99637547D01*
X171374404Y-99607309D01*
X149893261Y-127583595D02*
X149590880Y-127795261D01*
X149893261Y-127946452D02*
X149258261Y-127946452D01*
X149258261Y-127704547D01*
X149288500Y-127644071D01*
X149318738Y-127613833D01*
X149379214Y-127583595D01*
X149469928Y-127583595D01*
X149530404Y-127613833D01*
X149560642Y-127644071D01*
X149590880Y-127704547D01*
X149590880Y-127946452D01*
X149318738Y-127341690D02*
X149288500Y-127311452D01*
X149258261Y-127250976D01*
X149258261Y-127099785D01*
X149288500Y-127039309D01*
X149318738Y-127009071D01*
X149379214Y-126978833D01*
X149439690Y-126978833D01*
X149530404Y-127009071D01*
X149893261Y-127371928D01*
X149893261Y-126978833D01*
X149893261Y-126374071D02*
X149893261Y-126736928D01*
X149893261Y-126555500D02*
X149258261Y-126555500D01*
X149348976Y-126615976D01*
X149409452Y-126676452D01*
X149439690Y-126736928D01*
X149258261Y-125980976D02*
X149258261Y-125920500D01*
X149288500Y-125860023D01*
X149318738Y-125829785D01*
X149379214Y-125799547D01*
X149500166Y-125769309D01*
X149651357Y-125769309D01*
X149772309Y-125799547D01*
X149832785Y-125829785D01*
X149863023Y-125860023D01*
X149893261Y-125920500D01*
X149893261Y-125980976D01*
X149863023Y-126041452D01*
X149832785Y-126071690D01*
X149772309Y-126101928D01*
X149651357Y-126132166D01*
X149500166Y-126132166D01*
X149379214Y-126101928D01*
X149318738Y-126071690D01*
X149288500Y-126041452D01*
X149258261Y-125980976D01*
X152451404Y-91854261D02*
X152239738Y-91551880D01*
X152088547Y-91854261D02*
X152088547Y-91219261D01*
X152330452Y-91219261D01*
X152390928Y-91249500D01*
X152421166Y-91279738D01*
X152451404Y-91340214D01*
X152451404Y-91430928D01*
X152421166Y-91491404D01*
X152390928Y-91521642D01*
X152330452Y-91551880D01*
X152088547Y-91551880D01*
X152693309Y-91279738D02*
X152723547Y-91249500D01*
X152784023Y-91219261D01*
X152935214Y-91219261D01*
X152995690Y-91249500D01*
X153025928Y-91279738D01*
X153056166Y-91340214D01*
X153056166Y-91400690D01*
X153025928Y-91491404D01*
X152663071Y-91854261D01*
X153056166Y-91854261D01*
X153660928Y-91854261D02*
X153298071Y-91854261D01*
X153479500Y-91854261D02*
X153479500Y-91219261D01*
X153419023Y-91309976D01*
X153358547Y-91370452D01*
X153298071Y-91400690D01*
X154265690Y-91854261D02*
X153902833Y-91854261D01*
X154084261Y-91854261D02*
X154084261Y-91219261D01*
X154023785Y-91309976D01*
X153963309Y-91370452D01*
X153902833Y-91400690D01*
X147371404Y-94140261D02*
X147159738Y-93837880D01*
X147008547Y-94140261D02*
X147008547Y-93505261D01*
X147250452Y-93505261D01*
X147310928Y-93535500D01*
X147341166Y-93565738D01*
X147371404Y-93626214D01*
X147371404Y-93716928D01*
X147341166Y-93777404D01*
X147310928Y-93807642D01*
X147250452Y-93837880D01*
X147008547Y-93837880D01*
X147613309Y-93565738D02*
X147643547Y-93535500D01*
X147704023Y-93505261D01*
X147855214Y-93505261D01*
X147915690Y-93535500D01*
X147945928Y-93565738D01*
X147976166Y-93626214D01*
X147976166Y-93686690D01*
X147945928Y-93777404D01*
X147583071Y-94140261D01*
X147976166Y-94140261D01*
X148580928Y-94140261D02*
X148218071Y-94140261D01*
X148399500Y-94140261D02*
X148399500Y-93505261D01*
X148339023Y-93595976D01*
X148278547Y-93656452D01*
X148218071Y-93686690D01*
X148822833Y-93565738D02*
X148853071Y-93535500D01*
X148913547Y-93505261D01*
X149064738Y-93505261D01*
X149125214Y-93535500D01*
X149155452Y-93565738D01*
X149185690Y-93626214D01*
X149185690Y-93686690D01*
X149155452Y-93777404D01*
X148792595Y-94140261D01*
X149185690Y-94140261D01*
X151689404Y-144686261D02*
X151477738Y-144383880D01*
X151326547Y-144686261D02*
X151326547Y-144051261D01*
X151568452Y-144051261D01*
X151628928Y-144081500D01*
X151659166Y-144111738D01*
X151689404Y-144172214D01*
X151689404Y-144262928D01*
X151659166Y-144323404D01*
X151628928Y-144353642D01*
X151568452Y-144383880D01*
X151326547Y-144383880D01*
X151931309Y-144111738D02*
X151961547Y-144081500D01*
X152022023Y-144051261D01*
X152173214Y-144051261D01*
X152233690Y-144081500D01*
X152263928Y-144111738D01*
X152294166Y-144172214D01*
X152294166Y-144232690D01*
X152263928Y-144323404D01*
X151901071Y-144686261D01*
X152294166Y-144686261D01*
X152898928Y-144686261D02*
X152536071Y-144686261D01*
X152717500Y-144686261D02*
X152717500Y-144051261D01*
X152657023Y-144141976D01*
X152596547Y-144202452D01*
X152536071Y-144232690D01*
X153110595Y-144051261D02*
X153503690Y-144051261D01*
X153292023Y-144293166D01*
X153382738Y-144293166D01*
X153443214Y-144323404D01*
X153473452Y-144353642D01*
X153503690Y-144414119D01*
X153503690Y-144565309D01*
X153473452Y-144625785D01*
X153443214Y-144656023D01*
X153382738Y-144686261D01*
X153201309Y-144686261D01*
X153140833Y-144656023D01*
X153110595Y-144625785D01*
X149893261Y-131901595D02*
X149590880Y-132113261D01*
X149893261Y-132264452D02*
X149258261Y-132264452D01*
X149258261Y-132022547D01*
X149288500Y-131962071D01*
X149318738Y-131931833D01*
X149379214Y-131901595D01*
X149469928Y-131901595D01*
X149530404Y-131931833D01*
X149560642Y-131962071D01*
X149590880Y-132022547D01*
X149590880Y-132264452D01*
X149318738Y-131659690D02*
X149288500Y-131629452D01*
X149258261Y-131568976D01*
X149258261Y-131417785D01*
X149288500Y-131357309D01*
X149318738Y-131327071D01*
X149379214Y-131296833D01*
X149439690Y-131296833D01*
X149530404Y-131327071D01*
X149893261Y-131689928D01*
X149893261Y-131296833D01*
X149893261Y-130692071D02*
X149893261Y-131054928D01*
X149893261Y-130873500D02*
X149258261Y-130873500D01*
X149348976Y-130933976D01*
X149409452Y-130994452D01*
X149439690Y-131054928D01*
X149469928Y-130147785D02*
X149893261Y-130147785D01*
X149228023Y-130298976D02*
X149681595Y-130450166D01*
X149681595Y-130057071D01*
X143924261Y-127583595D02*
X143621880Y-127795261D01*
X143924261Y-127946452D02*
X143289261Y-127946452D01*
X143289261Y-127704547D01*
X143319500Y-127644071D01*
X143349738Y-127613833D01*
X143410214Y-127583595D01*
X143500928Y-127583595D01*
X143561404Y-127613833D01*
X143591642Y-127644071D01*
X143621880Y-127704547D01*
X143621880Y-127946452D01*
X143349738Y-127341690D02*
X143319500Y-127311452D01*
X143289261Y-127250976D01*
X143289261Y-127099785D01*
X143319500Y-127039309D01*
X143349738Y-127009071D01*
X143410214Y-126978833D01*
X143470690Y-126978833D01*
X143561404Y-127009071D01*
X143924261Y-127371928D01*
X143924261Y-126978833D01*
X143924261Y-126374071D02*
X143924261Y-126736928D01*
X143924261Y-126555500D02*
X143289261Y-126555500D01*
X143379976Y-126615976D01*
X143440452Y-126676452D01*
X143470690Y-126736928D01*
X143289261Y-125799547D02*
X143289261Y-126101928D01*
X143591642Y-126132166D01*
X143561404Y-126101928D01*
X143531166Y-126041452D01*
X143531166Y-125890261D01*
X143561404Y-125829785D01*
X143591642Y-125799547D01*
X143652119Y-125769309D01*
X143803309Y-125769309D01*
X143863785Y-125799547D01*
X143894023Y-125829785D01*
X143924261Y-125890261D01*
X143924261Y-126041452D01*
X143894023Y-126101928D01*
X143863785Y-126132166D01*
X151029004Y-86113861D02*
X150817338Y-85811480D01*
X150666147Y-86113861D02*
X150666147Y-85478861D01*
X150908052Y-85478861D01*
X150968528Y-85509100D01*
X150998766Y-85539338D01*
X151029004Y-85599814D01*
X151029004Y-85690528D01*
X150998766Y-85751004D01*
X150968528Y-85781242D01*
X150908052Y-85811480D01*
X150666147Y-85811480D01*
X151240671Y-85478861D02*
X151633766Y-85478861D01*
X151422100Y-85720766D01*
X151512814Y-85720766D01*
X151573290Y-85751004D01*
X151603528Y-85781242D01*
X151633766Y-85841719D01*
X151633766Y-85992909D01*
X151603528Y-86053385D01*
X151573290Y-86083623D01*
X151512814Y-86113861D01*
X151331385Y-86113861D01*
X151270909Y-86083623D01*
X151240671Y-86053385D01*
X152026861Y-85478861D02*
X152087338Y-85478861D01*
X152147814Y-85509100D01*
X152178052Y-85539338D01*
X152208290Y-85599814D01*
X152238528Y-85720766D01*
X152238528Y-85871957D01*
X152208290Y-85992909D01*
X152178052Y-86053385D01*
X152147814Y-86083623D01*
X152087338Y-86113861D01*
X152026861Y-86113861D01*
X151966385Y-86083623D01*
X151936147Y-86053385D01*
X151905909Y-85992909D01*
X151875671Y-85871957D01*
X151875671Y-85720766D01*
X151905909Y-85599814D01*
X151936147Y-85539338D01*
X151966385Y-85509100D01*
X152026861Y-85478861D01*
X152843290Y-86113861D02*
X152480433Y-86113861D01*
X152661861Y-86113861D02*
X152661861Y-85478861D01*
X152601385Y-85569576D01*
X152540909Y-85630052D01*
X152480433Y-85660290D01*
X149784404Y-76614261D02*
X149572738Y-76311880D01*
X149421547Y-76614261D02*
X149421547Y-75979261D01*
X149663452Y-75979261D01*
X149723928Y-76009500D01*
X149754166Y-76039738D01*
X149784404Y-76100214D01*
X149784404Y-76190928D01*
X149754166Y-76251404D01*
X149723928Y-76281642D01*
X149663452Y-76311880D01*
X149421547Y-76311880D01*
X149996071Y-75979261D02*
X150389166Y-75979261D01*
X150177500Y-76221166D01*
X150268214Y-76221166D01*
X150328690Y-76251404D01*
X150358928Y-76281642D01*
X150389166Y-76342119D01*
X150389166Y-76493309D01*
X150358928Y-76553785D01*
X150328690Y-76584023D01*
X150268214Y-76614261D01*
X150086785Y-76614261D01*
X150026309Y-76584023D01*
X149996071Y-76553785D01*
X150782261Y-75979261D02*
X150842738Y-75979261D01*
X150903214Y-76009500D01*
X150933452Y-76039738D01*
X150963690Y-76100214D01*
X150993928Y-76221166D01*
X150993928Y-76372357D01*
X150963690Y-76493309D01*
X150933452Y-76553785D01*
X150903214Y-76584023D01*
X150842738Y-76614261D01*
X150782261Y-76614261D01*
X150721785Y-76584023D01*
X150691547Y-76553785D01*
X150661309Y-76493309D01*
X150631071Y-76372357D01*
X150631071Y-76221166D01*
X150661309Y-76100214D01*
X150691547Y-76039738D01*
X150721785Y-76009500D01*
X150782261Y-75979261D01*
X151235833Y-76039738D02*
X151266071Y-76009500D01*
X151326547Y-75979261D01*
X151477738Y-75979261D01*
X151538214Y-76009500D01*
X151568452Y-76039738D01*
X151598690Y-76100214D01*
X151598690Y-76160690D01*
X151568452Y-76251404D01*
X151205595Y-76614261D01*
X151598690Y-76614261D01*
X173025404Y-78773261D02*
X172813738Y-78470880D01*
X172662547Y-78773261D02*
X172662547Y-78138261D01*
X172904452Y-78138261D01*
X172964928Y-78168500D01*
X172995166Y-78198738D01*
X173025404Y-78259214D01*
X173025404Y-78349928D01*
X172995166Y-78410404D01*
X172964928Y-78440642D01*
X172904452Y-78470880D01*
X172662547Y-78470880D01*
X173569690Y-78349928D02*
X173569690Y-78773261D01*
X173418500Y-78108023D02*
X173267309Y-78561595D01*
X173660404Y-78561595D01*
X174023261Y-78138261D02*
X174083738Y-78138261D01*
X174144214Y-78168500D01*
X174174452Y-78198738D01*
X174204690Y-78259214D01*
X174234928Y-78380166D01*
X174234928Y-78531357D01*
X174204690Y-78652309D01*
X174174452Y-78712785D01*
X174144214Y-78743023D01*
X174083738Y-78773261D01*
X174023261Y-78773261D01*
X173962785Y-78743023D01*
X173932547Y-78712785D01*
X173902309Y-78652309D01*
X173872071Y-78531357D01*
X173872071Y-78380166D01*
X173902309Y-78259214D01*
X173932547Y-78198738D01*
X173962785Y-78168500D01*
X174023261Y-78138261D01*
X174839690Y-78773261D02*
X174476833Y-78773261D01*
X174658261Y-78773261D02*
X174658261Y-78138261D01*
X174597785Y-78228976D01*
X174537309Y-78289452D01*
X174476833Y-78319690D01*
X167038261Y-73989595D02*
X166735880Y-74201261D01*
X167038261Y-74352452D02*
X166403261Y-74352452D01*
X166403261Y-74110547D01*
X166433500Y-74050071D01*
X166463738Y-74019833D01*
X166524214Y-73989595D01*
X166614928Y-73989595D01*
X166675404Y-74019833D01*
X166705642Y-74050071D01*
X166735880Y-74110547D01*
X166735880Y-74352452D01*
X166614928Y-73445309D02*
X167038261Y-73445309D01*
X166373023Y-73596500D02*
X166826595Y-73747690D01*
X166826595Y-73354595D01*
X166403261Y-72991738D02*
X166403261Y-72931261D01*
X166433500Y-72870785D01*
X166463738Y-72840547D01*
X166524214Y-72810309D01*
X166645166Y-72780071D01*
X166796357Y-72780071D01*
X166917309Y-72810309D01*
X166977785Y-72840547D01*
X167008023Y-72870785D01*
X167038261Y-72931261D01*
X167038261Y-72991738D01*
X167008023Y-73052214D01*
X166977785Y-73082452D01*
X166917309Y-73112690D01*
X166796357Y-73142928D01*
X166645166Y-73142928D01*
X166524214Y-73112690D01*
X166463738Y-73082452D01*
X166433500Y-73052214D01*
X166403261Y-72991738D01*
X166463738Y-72538166D02*
X166433500Y-72507928D01*
X166403261Y-72447452D01*
X166403261Y-72296261D01*
X166433500Y-72235785D01*
X166463738Y-72205547D01*
X166524214Y-72175309D01*
X166584690Y-72175309D01*
X166675404Y-72205547D01*
X167038261Y-72568404D01*
X167038261Y-72175309D01*
D12*
X162420904Y-81080428D02*
X162420904Y-82314142D01*
X162469285Y-82459285D01*
X162517666Y-82531857D01*
X162614428Y-82604428D01*
X162807952Y-82604428D01*
X162904714Y-82531857D01*
X162953095Y-82459285D01*
X163001476Y-82314142D01*
X163001476Y-81080428D01*
X164017476Y-82604428D02*
X163436904Y-82604428D01*
X163727190Y-82604428D02*
X163727190Y-81080428D01*
X163630428Y-81298142D01*
X163533666Y-81443285D01*
X163436904Y-81515857D01*
X162420904Y-105210428D02*
X162420904Y-106444142D01*
X162469285Y-106589285D01*
X162517666Y-106661857D01*
X162614428Y-106734428D01*
X162807952Y-106734428D01*
X162904714Y-106661857D01*
X162953095Y-106589285D01*
X163001476Y-106444142D01*
X163001476Y-105210428D01*
X163436904Y-105355571D02*
X163485285Y-105283000D01*
X163582047Y-105210428D01*
X163823952Y-105210428D01*
X163920714Y-105283000D01*
X163969095Y-105355571D01*
X164017476Y-105500714D01*
X164017476Y-105645857D01*
X163969095Y-105863571D01*
X163388523Y-106734428D01*
X164017476Y-106734428D01*
X145451285Y-61407523D02*
X145451285Y-62435619D01*
X145499666Y-62556571D01*
X145548047Y-62617047D01*
X145644809Y-62677523D01*
X145838333Y-62677523D01*
X145935095Y-62617047D01*
X145983476Y-62556571D01*
X146031857Y-62435619D01*
X146031857Y-61407523D01*
X146951095Y-61830857D02*
X146951095Y-62677523D01*
X146709190Y-61347047D02*
X146467285Y-62254190D01*
X147096238Y-62254190D01*
X147676809Y-61407523D02*
X147773571Y-61407523D01*
X147870333Y-61468000D01*
X147918714Y-61528476D01*
X147967095Y-61649428D01*
X148015476Y-61891333D01*
X148015476Y-62193714D01*
X147967095Y-62435619D01*
X147918714Y-62556571D01*
X147870333Y-62617047D01*
X147773571Y-62677523D01*
X147676809Y-62677523D01*
X147580047Y-62617047D01*
X147531666Y-62556571D01*
X147483285Y-62435619D01*
X147434904Y-62193714D01*
X147434904Y-61891333D01*
X147483285Y-61649428D01*
X147531666Y-61528476D01*
X147580047Y-61468000D01*
X147676809Y-61407523D01*
X148983095Y-62677523D02*
X148402523Y-62677523D01*
X148692809Y-62677523D02*
X148692809Y-61407523D01*
X148596047Y-61588952D01*
X148499285Y-61709904D01*
X148402523Y-61770380D01*
X146763619Y-115455095D02*
X147779619Y-114777761D01*
X146763619Y-114777761D02*
X147779619Y-115455095D01*
X147102285Y-113955285D02*
X147779619Y-113955285D01*
X146715238Y-114197190D02*
X147440952Y-114439095D01*
X147440952Y-113810142D01*
X146763619Y-113229571D02*
X146763619Y-113132809D01*
X146812000Y-113036047D01*
X146860380Y-112987666D01*
X146957142Y-112939285D01*
X147150666Y-112890904D01*
X147392571Y-112890904D01*
X147586095Y-112939285D01*
X147682857Y-112987666D01*
X147731238Y-113036047D01*
X147779619Y-113132809D01*
X147779619Y-113229571D01*
X147731238Y-113326333D01*
X147682857Y-113374714D01*
X147586095Y-113423095D01*
X147392571Y-113471476D01*
X147150666Y-113471476D01*
X146957142Y-113423095D01*
X146860380Y-113374714D01*
X146812000Y-113326333D01*
X146763619Y-113229571D01*
X147779619Y-111923285D02*
X147779619Y-112503857D01*
X147779619Y-112213571D02*
X146763619Y-112213571D01*
X146908761Y-112310333D01*
X147005523Y-112407095D01*
X147053904Y-112503857D01*
X162638619Y-64909095D02*
X163654619Y-64231761D01*
X162638619Y-64231761D02*
X163654619Y-64909095D01*
X162977285Y-63409285D02*
X163654619Y-63409285D01*
X162590238Y-63651190D02*
X163315952Y-63893095D01*
X163315952Y-63264142D01*
X162638619Y-62683571D02*
X162638619Y-62586809D01*
X162687000Y-62490047D01*
X162735380Y-62441666D01*
X162832142Y-62393285D01*
X163025666Y-62344904D01*
X163267571Y-62344904D01*
X163461095Y-62393285D01*
X163557857Y-62441666D01*
X163606238Y-62490047D01*
X163654619Y-62586809D01*
X163654619Y-62683571D01*
X163606238Y-62780333D01*
X163557857Y-62828714D01*
X163461095Y-62877095D01*
X163267571Y-62925476D01*
X163025666Y-62925476D01*
X162832142Y-62877095D01*
X162735380Y-62828714D01*
X162687000Y-62780333D01*
X162638619Y-62683571D01*
X162735380Y-61957857D02*
X162687000Y-61909476D01*
X162638619Y-61812714D01*
X162638619Y-61570809D01*
X162687000Y-61474047D01*
X162735380Y-61425666D01*
X162832142Y-61377285D01*
X162928904Y-61377285D01*
X163074047Y-61425666D01*
X163654619Y-62006238D01*
X163654619Y-61377285D01*
%LPC*%
D16*
X145288000Y-54864000D03*
X173355000Y-54864000D03*
X145288000Y-146939000D03*
X173355000Y-146939000D03*
D17*
X153670000Y-131762500D03*
X153670000Y-133667500D03*
X160020000Y-120967500D03*
X160020000Y-122872500D03*
X162560000Y-122872500D03*
X162560000Y-120967500D03*
X154940000Y-126047500D03*
X154940000Y-124142500D03*
D18*
X152336500Y-57023000D03*
X154241500Y-57023000D03*
D17*
X163195000Y-71945500D03*
X163195000Y-73850500D03*
X157480000Y-100012500D03*
X157480000Y-98107500D03*
X154940000Y-106997500D03*
X154940000Y-108902500D03*
X160020000Y-118427500D03*
X160020000Y-116522500D03*
D18*
X157797500Y-116205000D03*
X155892500Y-116205000D03*
D17*
X164465000Y-118427500D03*
X164465000Y-116522500D03*
D18*
X151193500Y-87426800D03*
X153098500Y-87426800D03*
X172402500Y-82550000D03*
X174307500Y-82550000D03*
D17*
X164465000Y-94932500D03*
X164465000Y-93027500D03*
D19*
X159131000Y-64389000D03*
X159131000Y-67183000D03*
D20*
X144272000Y-139954000D03*
D21*
X146812000Y-139954000D03*
D22*
X160528000Y-98425000D03*
X163322000Y-98425000D03*
D17*
X154305000Y-104457500D03*
X154305000Y-102552500D03*
X147955000Y-123507500D03*
X147955000Y-121602500D03*
D18*
X172783500Y-60198000D03*
X170878500Y-60198000D03*
X170878500Y-64262000D03*
X172783500Y-64262000D03*
D23*
X139700000Y-60965080D03*
X139700000Y-140964920D03*
D24*
X134698740Y-143466820D03*
D23*
X137200640Y-63464440D03*
X137198100Y-103464360D03*
X137198100Y-108465620D03*
X137198100Y-118465600D03*
X137198100Y-113464340D03*
X137198100Y-133464300D03*
X137198100Y-138465560D03*
X137198100Y-128465580D03*
X137198100Y-123464320D03*
X137198100Y-83464400D03*
X137198100Y-88465660D03*
X137198100Y-98465640D03*
X137198100Y-93464380D03*
X137198100Y-73464420D03*
X137198100Y-78465680D03*
X137198100Y-68465700D03*
X139700000Y-65966340D03*
X139700000Y-75966320D03*
X139700000Y-70965060D03*
X139700000Y-90965020D03*
X139700000Y-95966280D03*
X139700000Y-85966300D03*
X139700000Y-80965040D03*
X139700000Y-120964960D03*
X139700000Y-125966220D03*
X139700000Y-135966200D03*
X139700000Y-130964940D03*
X139700000Y-110964980D03*
X139700000Y-115966240D03*
X139700000Y-105966260D03*
X139700000Y-100965000D03*
D24*
X134698740Y-58465720D03*
D25*
X166370000Y-130175000D03*
X166370000Y-141605000D03*
D26*
X160020000Y-140017500D03*
D27*
X157480000Y-139382500D03*
X160020000Y-137477500D03*
X157480000Y-136842500D03*
X160020000Y-134937500D03*
X157480000Y-134302500D03*
X160020000Y-132397500D03*
D28*
X163322000Y-128145540D03*
X163322000Y-143634460D03*
D27*
X170428920Y-139979400D03*
X170428920Y-131800600D03*
X170428920Y-142519400D03*
X170428920Y-129260600D03*
X157480000Y-131762500D03*
D26*
X174117000Y-75057000D03*
D27*
X171577000Y-75057000D03*
X174117000Y-72517000D03*
X171577000Y-72517000D03*
X174117000Y-69977000D03*
X171577000Y-69977000D03*
D17*
X151130000Y-133667500D03*
X151130000Y-131762500D03*
X159131000Y-71183500D03*
X159131000Y-69278500D03*
D29*
X147701000Y-133985000D03*
X147701000Y-135763000D03*
X145669000Y-134874000D03*
D17*
X145415000Y-130238500D03*
X145415000Y-132143500D03*
D18*
X151447500Y-136525000D03*
X153352500Y-136525000D03*
X153352500Y-141605000D03*
X151447500Y-141605000D03*
X151447500Y-139065000D03*
X153352500Y-139065000D03*
D17*
X170180000Y-116776500D03*
X170180000Y-118681500D03*
X172085000Y-118681500D03*
X172085000Y-116776500D03*
X154940000Y-112077500D03*
X154940000Y-113982500D03*
X157480000Y-120332500D03*
X157480000Y-122237500D03*
X165100000Y-122237500D03*
X165100000Y-120332500D03*
X169672000Y-101663500D03*
X169672000Y-99758500D03*
X147955000Y-127825500D03*
X147955000Y-125920500D03*
D30*
X153797000Y-94378780D03*
X152273000Y-94378780D03*
X153797000Y-93581220D03*
X152273000Y-93581220D03*
X153797000Y-95178880D03*
X153797000Y-92781120D03*
X152273000Y-92781120D03*
X152273000Y-95178880D03*
D31*
X145978880Y-94488000D03*
X143581120Y-94488000D03*
X143581120Y-92964000D03*
X145978880Y-92964000D03*
X144381220Y-94488000D03*
X144381220Y-92964000D03*
X145178780Y-94488000D03*
X145178780Y-92964000D03*
D18*
X151447500Y-145796000D03*
X153352500Y-145796000D03*
D17*
X147955000Y-132143500D03*
X147955000Y-130238500D03*
X145415000Y-127825500D03*
X145415000Y-125920500D03*
D30*
X150977600Y-83014820D03*
X152501600Y-83014820D03*
X150977600Y-83812380D03*
X152501600Y-83812380D03*
X150977600Y-82214720D03*
X150977600Y-84612480D03*
X152501600Y-84612480D03*
X152501600Y-82214720D03*
X151257000Y-72461120D03*
X151257000Y-74858880D03*
X149733000Y-74858880D03*
X149733000Y-72461120D03*
X151257000Y-74058780D03*
X149733000Y-74058780D03*
X151257000Y-73261220D03*
X149733000Y-73261220D03*
D18*
X172783500Y-80010000D03*
X174688500Y-80010000D03*
D17*
X168402000Y-72326500D03*
X168402000Y-74231500D03*
D32*
X163195000Y-78105000D03*
X162394900Y-78105000D03*
X161594800Y-78105000D03*
X160794700Y-78105000D03*
X159994600Y-78105000D03*
X159194500Y-78105000D03*
X163995100Y-78105000D03*
X164795200Y-78105000D03*
X165595300Y-78105000D03*
X166395400Y-78105000D03*
X167195500Y-78105000D03*
X163195000Y-89535000D03*
X162394900Y-89535000D03*
X161594800Y-89535000D03*
X160794700Y-89535000D03*
X159994600Y-89535000D03*
X159194500Y-89535000D03*
X163995100Y-89535000D03*
X164795200Y-89535000D03*
X165595300Y-89535000D03*
X166395400Y-89535000D03*
X167195500Y-89535000D03*
D33*
X157480000Y-83820000D03*
X168910000Y-83820000D03*
X157480000Y-84620100D03*
X168910000Y-84620100D03*
X168910000Y-85420200D03*
X157480000Y-85420200D03*
X157480000Y-86220300D03*
X168910000Y-86220300D03*
X168910000Y-87020400D03*
X157480000Y-87020400D03*
X157480000Y-87820500D03*
X168910000Y-87820500D03*
X168910000Y-83019900D03*
X157480000Y-83019900D03*
X157480000Y-82219800D03*
X168910000Y-82219800D03*
X168910000Y-81419700D03*
X157480000Y-81419700D03*
X157480000Y-80619600D03*
X168910000Y-80619600D03*
X168910000Y-79819500D03*
X157480000Y-79819500D03*
X157480000Y-103949500D03*
X168910000Y-103949500D03*
X168910000Y-104749600D03*
X157480000Y-104749600D03*
X157480000Y-105549700D03*
X168910000Y-105549700D03*
X168910000Y-106349800D03*
X157480000Y-106349800D03*
X157480000Y-107149900D03*
X168910000Y-107149900D03*
X168910000Y-111950500D03*
X157480000Y-111950500D03*
X157480000Y-111150400D03*
X168910000Y-111150400D03*
X168910000Y-110350300D03*
X157480000Y-110350300D03*
X157480000Y-109550200D03*
X168910000Y-109550200D03*
X168910000Y-108750100D03*
X157480000Y-108750100D03*
X168910000Y-107950000D03*
X157480000Y-107950000D03*
D32*
X167195500Y-113665000D03*
X166395400Y-113665000D03*
X165595300Y-113665000D03*
X164795200Y-113665000D03*
X163995100Y-113665000D03*
X159194500Y-113665000D03*
X159994600Y-113665000D03*
X160794700Y-113665000D03*
X161594800Y-113665000D03*
X162394900Y-113665000D03*
X163195000Y-113665000D03*
X167195500Y-102235000D03*
X166395400Y-102235000D03*
X165595300Y-102235000D03*
X164795200Y-102235000D03*
X163995100Y-102235000D03*
X159194500Y-102235000D03*
X159994600Y-102235000D03*
X160794700Y-102235000D03*
X161594800Y-102235000D03*
X162394900Y-102235000D03*
X163195000Y-102235000D03*
D34*
X155575000Y-60833000D03*
D35*
X153289000Y-67183000D03*
D34*
X151003000Y-60833000D03*
D36*
X151130000Y-108915200D03*
X151130000Y-118414800D03*
X166878000Y-67868800D03*
X166878000Y-58369200D03*
M02*
