G04 #@! TF.GenerationSoftware,KiCad,Pcbnew,(5.1.5)-3*
G04 #@! TF.CreationDate,2021-08-30T19:38:34+02:00*
G04 #@! TF.ProjectId,gbm8,67626d38-2e6b-4696-9361-645f70636258,0424 - A*
G04 #@! TF.SameCoordinates,Original*
G04 #@! TF.FileFunction,Copper,L2,Bot*
G04 #@! TF.FilePolarity,Positive*
%FSLAX46Y46*%
G04 Gerber Fmt 4.6, Leading zero omitted, Abs format (unit mm)*
G04 Created by KiCad (PCBNEW (5.1.5)-3) date 2021-08-30 19:38:34*
%MOMM*%
%LPD*%
G04 APERTURE LIST*
%ADD10C,6.400800*%
%ADD11R,1.651000X1.651000*%
%ADD12C,1.651000*%
%ADD13R,1.998980X1.998980*%
%ADD14C,2.199640*%
%ADD15C,3.500120*%
%ADD16C,3.850640*%
%ADD17R,1.524000X1.524000*%
%ADD18C,1.524000*%
%ADD19C,2.540000*%
%ADD20C,0.889000*%
%ADD21C,0.762000*%
%ADD22C,0.304800*%
%ADD23C,1.778000*%
%ADD24C,0.254000*%
G04 APERTURE END LIST*
D10*
X145288000Y-54864000D03*
X173355000Y-54864000D03*
X145288000Y-146939000D03*
X173355000Y-146939000D03*
D11*
X144272000Y-139954000D03*
D12*
X146812000Y-139954000D03*
D13*
X144145000Y-102963980D03*
X144145000Y-98966020D03*
X147320000Y-102963980D03*
X147320000Y-98966020D03*
X151130000Y-97883980D03*
X151130000Y-93886020D03*
X154305000Y-97883980D03*
X154305000Y-93886020D03*
X144145000Y-92803980D03*
X144145000Y-88806020D03*
X147320000Y-92803980D03*
X147320000Y-88806020D03*
X151130000Y-83726020D03*
X151130000Y-87723980D03*
X154305000Y-87723980D03*
X154305000Y-83726020D03*
X144145000Y-82643980D03*
X144145000Y-78646020D03*
X147320000Y-82643980D03*
X147320000Y-78646020D03*
X151130000Y-78833980D03*
X151130000Y-74836020D03*
X154305000Y-78833980D03*
X154305000Y-74836020D03*
X144145000Y-73118980D03*
X144145000Y-69121020D03*
X147320000Y-73118980D03*
X147320000Y-69121020D03*
X151130000Y-69308980D03*
X151130000Y-65311020D03*
X154305000Y-65311020D03*
X154305000Y-69308980D03*
D14*
X139700000Y-60965080D03*
X139700000Y-140964920D03*
D15*
X134698740Y-143466820D03*
D14*
X137200640Y-63464440D03*
X137198100Y-103464360D03*
X137198100Y-108465620D03*
X137198100Y-118465600D03*
X137198100Y-113464340D03*
X137198100Y-133464300D03*
X137198100Y-138465560D03*
X137198100Y-128465580D03*
X137198100Y-123464320D03*
X137198100Y-83464400D03*
X137198100Y-88465660D03*
X137198100Y-98465640D03*
X137198100Y-93464380D03*
X137198100Y-73464420D03*
X137198100Y-78465680D03*
X137198100Y-68465700D03*
X139700000Y-65966340D03*
X139700000Y-75966320D03*
X139700000Y-70965060D03*
X139700000Y-90965020D03*
X139700000Y-95966280D03*
X139700000Y-85966300D03*
X139700000Y-80965040D03*
X139700000Y-120964960D03*
X139700000Y-125966220D03*
X139700000Y-135966200D03*
X139700000Y-130964940D03*
X139700000Y-110964980D03*
X139700000Y-115966240D03*
X139700000Y-105966260D03*
X139700000Y-100965000D03*
D15*
X134698740Y-58465720D03*
D16*
X166370000Y-130175000D03*
X166370000Y-141605000D03*
D17*
X160020000Y-140017500D03*
D18*
X157480000Y-139382500D03*
X160020000Y-137477500D03*
X157480000Y-136842500D03*
X160020000Y-134937500D03*
X157480000Y-134302500D03*
X160020000Y-132397500D03*
D19*
X163322000Y-128145540D03*
X163322000Y-143634460D03*
D18*
X170428920Y-139979400D03*
X170428920Y-131800600D03*
X170428920Y-142519400D03*
X170428920Y-129260600D03*
X157480000Y-131762500D03*
D17*
X174117000Y-75057000D03*
D18*
X171577000Y-75057000D03*
X174117000Y-72517000D03*
X171577000Y-72517000D03*
X174117000Y-69977000D03*
X171577000Y-69977000D03*
D20*
X161290000Y-80772000D03*
X165100000Y-107188000D03*
X163449000Y-69850000D03*
X141478000Y-129286000D03*
X166370000Y-97790000D03*
X168910000Y-89535000D03*
X173482000Y-111379000D03*
X171958000Y-109855000D03*
X170815000Y-84074000D03*
X168783000Y-76327000D03*
X172339000Y-84836000D03*
X170053000Y-77216000D03*
X154940000Y-110490000D03*
X154305000Y-100965000D03*
X167005000Y-112141000D03*
X159131000Y-62230000D03*
X149860000Y-123190000D03*
X163195000Y-100330000D03*
X149250400Y-87782400D03*
X153924000Y-60833000D03*
X174371000Y-84201000D03*
X154305000Y-116205000D03*
X159512000Y-85471000D03*
X160274000Y-115316000D03*
X162560000Y-95885000D03*
X154940000Y-127508000D03*
X167005000Y-82423000D03*
X156845000Y-113665000D03*
X155575000Y-58420000D03*
X153670000Y-130302000D03*
X166370000Y-118745000D03*
X168910000Y-102870000D03*
X163957000Y-104140000D03*
X145415000Y-124206000D03*
X157353000Y-60833000D03*
X149733000Y-135255000D03*
X157480000Y-96520000D03*
X165227000Y-112014000D03*
X163957000Y-80010000D03*
X161671000Y-71247000D03*
X158115000Y-118110000D03*
X164084000Y-87884000D03*
X157480000Y-102743000D03*
X172720000Y-62230000D03*
X165100000Y-123825000D03*
X157480000Y-123825000D03*
X176022000Y-78105000D03*
X160401000Y-111125000D03*
X170053000Y-114681000D03*
X172085000Y-114681000D03*
X159512000Y-110236000D03*
D21*
X175133000Y-107188000D02*
X165100000Y-107188000D01*
X163449000Y-73279000D02*
X165227000Y-75057000D01*
X163449000Y-69850000D02*
X163449000Y-78613000D01*
X163449000Y-69850000D02*
X163449000Y-73279000D01*
X163449000Y-78613000D02*
X161290000Y-80772000D01*
X171577000Y-75057000D02*
X171577000Y-76200000D01*
X176149000Y-80772000D02*
X176149000Y-106172000D01*
X171577000Y-76200000D02*
X176149000Y-80772000D01*
X165227000Y-75057000D02*
X171577000Y-75057000D01*
X176149000Y-106172000D02*
X175133000Y-107188000D01*
D22*
X140825220Y-125966220D02*
X139700000Y-125966220D01*
X141478000Y-129286000D02*
X141478000Y-126619000D01*
X141478000Y-126619000D02*
X140825220Y-125966220D01*
D23*
X141698980Y-102963980D02*
X147320000Y-102963980D01*
X139700000Y-100965000D02*
X141698980Y-102963980D01*
X144145000Y-102963980D02*
X147320000Y-102963980D01*
X149049740Y-95966280D02*
X151130000Y-93886020D01*
X151130000Y-93886020D02*
X154305000Y-93886020D01*
X139700000Y-95966280D02*
X149049740Y-95966280D01*
X141538960Y-92803980D02*
X147320000Y-92803980D01*
X139700000Y-90965020D02*
X141538960Y-92803980D01*
X141538960Y-92803980D02*
X144145000Y-92803980D01*
X139700000Y-85966300D02*
X148348700Y-85966300D01*
X148348700Y-85966300D02*
X150588980Y-83726020D01*
X151130000Y-83726020D02*
X154305000Y-83726020D01*
X150588980Y-83726020D02*
X151130000Y-83726020D01*
X139700000Y-80965040D02*
X141378940Y-82643980D01*
X141378940Y-82643980D02*
X147320000Y-82643980D01*
X141378940Y-82643980D02*
X144145000Y-82643980D01*
X151130000Y-74836020D02*
X154305000Y-74836020D01*
X149999700Y-75966320D02*
X151130000Y-74836020D01*
X139700000Y-75966320D02*
X149999700Y-75966320D01*
X141853920Y-73118980D02*
X147320000Y-73118980D01*
X139700000Y-70965060D02*
X141853920Y-73118980D01*
X141853920Y-73118980D02*
X144145000Y-73118980D01*
X140355320Y-65311020D02*
X151130000Y-65311020D01*
X139700000Y-65966340D02*
X140355320Y-65311020D01*
X140355320Y-65311020D02*
X154305000Y-65311020D01*
D22*
X166370000Y-92075000D02*
X168910000Y-89535000D01*
X166370000Y-97790000D02*
X166370000Y-92075000D01*
X171958000Y-109855000D02*
X173482000Y-111379000D01*
X170815000Y-84074000D02*
X168783000Y-82042000D01*
X168783000Y-82042000D02*
X168783000Y-76327000D01*
X172339000Y-83947000D02*
X170053000Y-81661000D01*
X170053000Y-81661000D02*
X170053000Y-77216000D01*
X172339000Y-84836000D02*
X172339000Y-83947000D01*
X165100000Y-123825000D02*
X157480000Y-123825000D01*
X158750000Y-133667500D02*
X160020000Y-134937500D01*
X157480000Y-123825000D02*
X157480000Y-128397000D01*
X158750000Y-129667000D02*
X158750000Y-133667500D01*
X157480000Y-128397000D02*
X158750000Y-129667000D01*
X174117000Y-76200000D02*
X174117000Y-75057000D01*
X176022000Y-78105000D02*
X174117000Y-76200000D01*
X170053000Y-113284000D02*
X170053000Y-114681000D01*
X160401000Y-111125000D02*
X167894000Y-111125000D01*
X167894000Y-111125000D02*
X170053000Y-113284000D01*
X162052000Y-110236000D02*
X168148000Y-110236000D01*
X159512000Y-110236000D02*
X162052000Y-110236000D01*
X172085000Y-114173000D02*
X172085000Y-114681000D01*
X168148000Y-110236000D02*
X172085000Y-114173000D01*
D24*
G36*
X141452600Y-54486246D02*
G01*
X141452600Y-55241754D01*
X141599992Y-55982745D01*
X141889112Y-56680743D01*
X142308850Y-57308925D01*
X142843075Y-57843150D01*
X143471257Y-58262888D01*
X144169255Y-58552008D01*
X144910246Y-58699400D01*
X145665754Y-58699400D01*
X146406745Y-58552008D01*
X147104743Y-58262888D01*
X147732925Y-57843150D01*
X148267150Y-57308925D01*
X148686888Y-56680743D01*
X148976008Y-55982745D01*
X149123400Y-55241754D01*
X149123400Y-54486246D01*
X149021707Y-53975000D01*
X169621293Y-53975000D01*
X169519600Y-54486246D01*
X169519600Y-55241754D01*
X169666992Y-55982745D01*
X169956112Y-56680743D01*
X170375850Y-57308925D01*
X170910075Y-57843150D01*
X171538257Y-58262888D01*
X172236255Y-58552008D01*
X172977246Y-58699400D01*
X173732754Y-58699400D01*
X174473745Y-58552008D01*
X175171743Y-58262888D01*
X175799925Y-57843150D01*
X176334150Y-57308925D01*
X176403000Y-57205884D01*
X176403000Y-77094374D01*
X176336878Y-77066985D01*
X176128321Y-77025500D01*
X176056051Y-77025500D01*
X175314010Y-76283460D01*
X175330185Y-76270185D01*
X175409537Y-76173494D01*
X175468502Y-76063180D01*
X175504812Y-75943482D01*
X175517072Y-75819000D01*
X175517072Y-74295000D01*
X175504812Y-74170518D01*
X175468502Y-74050820D01*
X175409537Y-73940506D01*
X175330185Y-73843815D01*
X175233494Y-73764463D01*
X175123180Y-73705498D01*
X175003482Y-73669188D01*
X174919535Y-73660920D01*
X175007535Y-73602120D01*
X175202120Y-73407535D01*
X175355005Y-73178727D01*
X175460314Y-72924490D01*
X175514000Y-72654592D01*
X175514000Y-72379408D01*
X175460314Y-72109510D01*
X175355005Y-71855273D01*
X175202120Y-71626465D01*
X175007535Y-71431880D01*
X174778727Y-71278995D01*
X174701485Y-71247000D01*
X174778727Y-71215005D01*
X175007535Y-71062120D01*
X175202120Y-70867535D01*
X175355005Y-70638727D01*
X175460314Y-70384490D01*
X175514000Y-70114592D01*
X175514000Y-69839408D01*
X175460314Y-69569510D01*
X175355005Y-69315273D01*
X175202120Y-69086465D01*
X175007535Y-68891880D01*
X174778727Y-68738995D01*
X174524490Y-68633686D01*
X174254592Y-68580000D01*
X173979408Y-68580000D01*
X173709510Y-68633686D01*
X173455273Y-68738995D01*
X173226465Y-68891880D01*
X173031880Y-69086465D01*
X172878995Y-69315273D01*
X172849564Y-69386326D01*
X172843216Y-69371001D01*
X172618444Y-69294766D01*
X171936210Y-69977000D01*
X172618444Y-70659234D01*
X172843216Y-70582999D01*
X172849145Y-70566664D01*
X172878995Y-70638727D01*
X173031880Y-70867535D01*
X173226465Y-71062120D01*
X173455273Y-71215005D01*
X173532515Y-71247000D01*
X173455273Y-71278995D01*
X173226465Y-71431880D01*
X173031880Y-71626465D01*
X172878995Y-71855273D01*
X172847000Y-71932515D01*
X172815005Y-71855273D01*
X172662120Y-71626465D01*
X172467535Y-71431880D01*
X172238727Y-71278995D01*
X172167674Y-71249564D01*
X172182999Y-71243216D01*
X172259234Y-71018444D01*
X171577000Y-70336210D01*
X170894766Y-71018444D01*
X170971001Y-71243216D01*
X170987336Y-71249145D01*
X170915273Y-71278995D01*
X170686465Y-71431880D01*
X170491880Y-71626465D01*
X170338995Y-71855273D01*
X170233686Y-72109510D01*
X170180000Y-72379408D01*
X170180000Y-72654592D01*
X170233686Y-72924490D01*
X170338995Y-73178727D01*
X170491880Y-73407535D01*
X170686465Y-73602120D01*
X170915273Y-73755005D01*
X170992515Y-73787000D01*
X170915273Y-73818995D01*
X170686465Y-73971880D01*
X170617345Y-74041000D01*
X165647841Y-74041000D01*
X164465000Y-72858160D01*
X164465000Y-70218027D01*
X164487015Y-70164878D01*
X164528500Y-69956321D01*
X164528500Y-69901690D01*
X170175263Y-69901690D01*
X170187505Y-70176602D01*
X170253145Y-70443843D01*
X170310784Y-70582999D01*
X170535556Y-70659234D01*
X171217790Y-69977000D01*
X170535556Y-69294766D01*
X170310784Y-69371001D01*
X170216889Y-69629671D01*
X170175263Y-69901690D01*
X164528500Y-69901690D01*
X164528500Y-69743679D01*
X164487015Y-69535122D01*
X164405640Y-69338665D01*
X164287502Y-69161859D01*
X164137141Y-69011498D01*
X164023486Y-68935556D01*
X170894766Y-68935556D01*
X171577000Y-69617790D01*
X172259234Y-68935556D01*
X172182999Y-68710784D01*
X171924329Y-68616889D01*
X171652310Y-68575263D01*
X171377398Y-68587505D01*
X171110157Y-68653145D01*
X170971001Y-68710784D01*
X170894766Y-68935556D01*
X164023486Y-68935556D01*
X163960335Y-68893360D01*
X163763878Y-68811985D01*
X163555321Y-68770500D01*
X163342679Y-68770500D01*
X163134122Y-68811985D01*
X162937665Y-68893360D01*
X162760859Y-69011498D01*
X162610498Y-69161859D01*
X162492360Y-69338665D01*
X162410985Y-69535122D01*
X162369500Y-69743679D01*
X162369500Y-69956321D01*
X162410985Y-70164878D01*
X162433000Y-70218027D01*
X162433000Y-73229094D01*
X162428085Y-73279000D01*
X162433000Y-73328902D01*
X162433001Y-78192158D01*
X160831815Y-79793344D01*
X160778665Y-79815360D01*
X160601859Y-79933498D01*
X160451498Y-80083859D01*
X160333360Y-80260665D01*
X160251985Y-80457122D01*
X160210500Y-80665679D01*
X160210500Y-80878321D01*
X160251985Y-81086878D01*
X160333360Y-81283335D01*
X160451498Y-81460141D01*
X160601859Y-81610502D01*
X160778665Y-81728640D01*
X160975122Y-81810015D01*
X161183679Y-81851500D01*
X161396321Y-81851500D01*
X161604878Y-81810015D01*
X161801335Y-81728640D01*
X161978141Y-81610502D01*
X162128502Y-81460141D01*
X162246640Y-81283335D01*
X162268656Y-81230185D01*
X164132133Y-79366708D01*
X164170896Y-79334896D01*
X164297860Y-79180190D01*
X164392202Y-79003687D01*
X164450298Y-78812171D01*
X164465000Y-78662902D01*
X164469915Y-78613001D01*
X164465000Y-78563099D01*
X164465000Y-75731841D01*
X164473292Y-75740133D01*
X164505104Y-75778896D01*
X164659810Y-75905860D01*
X164772924Y-75966320D01*
X164836313Y-76000202D01*
X165027829Y-76058298D01*
X165227000Y-76077915D01*
X165276902Y-76073000D01*
X167732875Y-76073000D01*
X167703500Y-76220679D01*
X167703500Y-76433321D01*
X167744985Y-76641878D01*
X167826360Y-76838335D01*
X167944498Y-77015141D01*
X167995601Y-77066244D01*
X167995600Y-82003337D01*
X167991792Y-82042000D01*
X167995600Y-82080663D01*
X167995600Y-82080672D01*
X168006994Y-82196356D01*
X168052018Y-82344782D01*
X168125134Y-82481571D01*
X168223531Y-82601469D01*
X168253578Y-82626128D01*
X169735500Y-84108051D01*
X169735500Y-84180321D01*
X169776985Y-84388878D01*
X169858360Y-84585335D01*
X169976498Y-84762141D01*
X170126859Y-84912502D01*
X170303665Y-85030640D01*
X170500122Y-85112015D01*
X170708679Y-85153500D01*
X170921321Y-85153500D01*
X171129878Y-85112015D01*
X171280818Y-85049494D01*
X171300985Y-85150878D01*
X171382360Y-85347335D01*
X171500498Y-85524141D01*
X171650859Y-85674502D01*
X171827665Y-85792640D01*
X172024122Y-85874015D01*
X172232679Y-85915500D01*
X172445321Y-85915500D01*
X172653878Y-85874015D01*
X172850335Y-85792640D01*
X173027141Y-85674502D01*
X173177502Y-85524141D01*
X173295640Y-85347335D01*
X173377015Y-85150878D01*
X173418500Y-84942321D01*
X173418500Y-84729679D01*
X173377015Y-84521122D01*
X173295640Y-84324665D01*
X173177502Y-84147859D01*
X173126400Y-84096757D01*
X173126400Y-83985662D01*
X173130208Y-83946999D01*
X173126400Y-83908336D01*
X173126400Y-83908327D01*
X173115006Y-83792643D01*
X173069982Y-83644217D01*
X172996866Y-83507428D01*
X172898469Y-83387531D01*
X172868433Y-83362881D01*
X170840400Y-81334850D01*
X170840400Y-77955243D01*
X170891502Y-77904141D01*
X171009640Y-77727335D01*
X171091015Y-77530878D01*
X171132500Y-77322321D01*
X171132500Y-77192340D01*
X175133000Y-81192841D01*
X175133001Y-105751158D01*
X174712160Y-106172000D01*
X165468027Y-106172000D01*
X165414878Y-106149985D01*
X165206321Y-106108500D01*
X164993679Y-106108500D01*
X164785122Y-106149985D01*
X164588665Y-106231360D01*
X164411859Y-106349498D01*
X164261498Y-106499859D01*
X164143360Y-106676665D01*
X164061985Y-106873122D01*
X164020500Y-107081679D01*
X164020500Y-107294321D01*
X164061985Y-107502878D01*
X164143360Y-107699335D01*
X164261498Y-107876141D01*
X164411859Y-108026502D01*
X164588665Y-108144640D01*
X164785122Y-108226015D01*
X164993679Y-108267500D01*
X165206321Y-108267500D01*
X165414878Y-108226015D01*
X165468027Y-108204000D01*
X175083098Y-108204000D01*
X175133000Y-108208915D01*
X175182902Y-108204000D01*
X175332171Y-108189298D01*
X175523687Y-108131202D01*
X175700190Y-108036860D01*
X175854896Y-107909896D01*
X175886712Y-107871128D01*
X176403000Y-107354841D01*
X176403000Y-144597116D01*
X176334150Y-144494075D01*
X175799925Y-143959850D01*
X175171743Y-143540112D01*
X174473745Y-143250992D01*
X173732754Y-143103600D01*
X172977246Y-143103600D01*
X172236255Y-143250992D01*
X171538257Y-143540112D01*
X170910075Y-143959850D01*
X170375850Y-144494075D01*
X169956112Y-145122257D01*
X169666992Y-145820255D01*
X169519600Y-146561246D01*
X169519600Y-147316754D01*
X169621293Y-147828000D01*
X149021707Y-147828000D01*
X149123400Y-147316754D01*
X149123400Y-146561246D01*
X148976008Y-145820255D01*
X148686888Y-145122257D01*
X148267150Y-144494075D01*
X147732925Y-143959850D01*
X147104743Y-143540112D01*
X146879550Y-143446834D01*
X161417000Y-143446834D01*
X161417000Y-143822086D01*
X161490209Y-144190128D01*
X161633811Y-144536816D01*
X161842290Y-144848826D01*
X162107634Y-145114170D01*
X162419644Y-145322649D01*
X162766332Y-145466251D01*
X163134374Y-145539460D01*
X163509626Y-145539460D01*
X163877668Y-145466251D01*
X164224356Y-145322649D01*
X164536366Y-145114170D01*
X164801710Y-144848826D01*
X165010189Y-144536816D01*
X165153791Y-144190128D01*
X165212163Y-143896678D01*
X165623182Y-144066928D01*
X166117831Y-144165320D01*
X166622169Y-144165320D01*
X167116818Y-144066928D01*
X167582766Y-143873926D01*
X168002109Y-143593730D01*
X168358730Y-143237109D01*
X168638926Y-142817766D01*
X168819505Y-142381808D01*
X169031920Y-142381808D01*
X169031920Y-142656992D01*
X169085606Y-142926890D01*
X169190915Y-143181127D01*
X169343800Y-143409935D01*
X169538385Y-143604520D01*
X169767193Y-143757405D01*
X170021430Y-143862714D01*
X170291328Y-143916400D01*
X170566512Y-143916400D01*
X170836410Y-143862714D01*
X171090647Y-143757405D01*
X171319455Y-143604520D01*
X171514040Y-143409935D01*
X171666925Y-143181127D01*
X171772234Y-142926890D01*
X171825920Y-142656992D01*
X171825920Y-142381808D01*
X171772234Y-142111910D01*
X171666925Y-141857673D01*
X171514040Y-141628865D01*
X171319455Y-141434280D01*
X171090647Y-141281395D01*
X171019594Y-141251964D01*
X171034919Y-141245616D01*
X171111154Y-141020844D01*
X170428920Y-140338610D01*
X169746686Y-141020844D01*
X169822921Y-141245616D01*
X169839256Y-141251545D01*
X169767193Y-141281395D01*
X169538385Y-141434280D01*
X169343800Y-141628865D01*
X169190915Y-141857673D01*
X169085606Y-142111910D01*
X169031920Y-142381808D01*
X168819505Y-142381808D01*
X168831928Y-142351818D01*
X168930320Y-141857169D01*
X168930320Y-141352831D01*
X168831928Y-140858182D01*
X168638926Y-140392234D01*
X168358730Y-139972891D01*
X168289929Y-139904090D01*
X169027183Y-139904090D01*
X169039425Y-140179002D01*
X169105065Y-140446243D01*
X169162704Y-140585399D01*
X169387476Y-140661634D01*
X170069710Y-139979400D01*
X170788130Y-139979400D01*
X171470364Y-140661634D01*
X171695136Y-140585399D01*
X171789031Y-140326729D01*
X171830657Y-140054710D01*
X171818415Y-139779798D01*
X171752775Y-139512557D01*
X171695136Y-139373401D01*
X171470364Y-139297166D01*
X170788130Y-139979400D01*
X170069710Y-139979400D01*
X169387476Y-139297166D01*
X169162704Y-139373401D01*
X169068809Y-139632071D01*
X169027183Y-139904090D01*
X168289929Y-139904090D01*
X168002109Y-139616270D01*
X167582766Y-139336074D01*
X167116818Y-139143072D01*
X166622169Y-139044680D01*
X166117831Y-139044680D01*
X165623182Y-139143072D01*
X165157234Y-139336074D01*
X164737891Y-139616270D01*
X164381270Y-139972891D01*
X164101074Y-140392234D01*
X163908072Y-140858182D01*
X163809680Y-141352831D01*
X163809680Y-141789145D01*
X163509626Y-141729460D01*
X163134374Y-141729460D01*
X162766332Y-141802669D01*
X162419644Y-141946271D01*
X162107634Y-142154750D01*
X161842290Y-142420094D01*
X161633811Y-142732104D01*
X161490209Y-143078792D01*
X161417000Y-143446834D01*
X146879550Y-143446834D01*
X146406745Y-143250992D01*
X145665754Y-143103600D01*
X144910246Y-143103600D01*
X144169255Y-143250992D01*
X143471257Y-143540112D01*
X142843075Y-143959850D01*
X142308850Y-144494075D01*
X141889112Y-145122257D01*
X141599992Y-145820255D01*
X141452600Y-146561246D01*
X141452600Y-147316754D01*
X141554293Y-147828000D01*
X131572000Y-147828000D01*
X131572000Y-143231912D01*
X132313680Y-143231912D01*
X132313680Y-143701728D01*
X132405337Y-144162516D01*
X132585127Y-144596569D01*
X132846143Y-144987207D01*
X133178353Y-145319417D01*
X133568991Y-145580433D01*
X134003044Y-145760223D01*
X134463832Y-145851880D01*
X134933648Y-145851880D01*
X135394436Y-145760223D01*
X135828489Y-145580433D01*
X136219127Y-145319417D01*
X136551337Y-144987207D01*
X136812353Y-144596569D01*
X136992143Y-144162516D01*
X137083800Y-143701728D01*
X137083800Y-143231912D01*
X136992143Y-142771124D01*
X136812353Y-142337071D01*
X136551337Y-141946433D01*
X136219127Y-141614223D01*
X135828489Y-141353207D01*
X135394436Y-141173417D01*
X134933648Y-141081760D01*
X134463832Y-141081760D01*
X134003044Y-141173417D01*
X133568991Y-141353207D01*
X133178353Y-141614223D01*
X132846143Y-141946433D01*
X132585127Y-142337071D01*
X132405337Y-142771124D01*
X132313680Y-143231912D01*
X131572000Y-143231912D01*
X131572000Y-140794055D01*
X137965180Y-140794055D01*
X137965180Y-141135785D01*
X138031848Y-141470948D01*
X138162623Y-141786665D01*
X138352477Y-142070803D01*
X138594117Y-142312443D01*
X138878255Y-142502297D01*
X139193972Y-142633072D01*
X139529135Y-142699740D01*
X139870865Y-142699740D01*
X140206028Y-142633072D01*
X140521745Y-142502297D01*
X140805883Y-142312443D01*
X141047523Y-142070803D01*
X141237377Y-141786665D01*
X141368152Y-141470948D01*
X141434820Y-141135785D01*
X141434820Y-140794055D01*
X141368152Y-140458892D01*
X141237377Y-140143175D01*
X141047523Y-139859037D01*
X140805883Y-139617397D01*
X140521745Y-139427543D01*
X140206028Y-139296768D01*
X139870865Y-139230100D01*
X139529135Y-139230100D01*
X139193972Y-139296768D01*
X138878255Y-139427543D01*
X138594117Y-139617397D01*
X138352477Y-139859037D01*
X138162623Y-140143175D01*
X138031848Y-140458892D01*
X137965180Y-140794055D01*
X131572000Y-140794055D01*
X131572000Y-138294695D01*
X135463280Y-138294695D01*
X135463280Y-138636425D01*
X135529948Y-138971588D01*
X135660723Y-139287305D01*
X135850577Y-139571443D01*
X136092217Y-139813083D01*
X136376355Y-140002937D01*
X136692072Y-140133712D01*
X137027235Y-140200380D01*
X137368965Y-140200380D01*
X137704128Y-140133712D01*
X138019845Y-140002937D01*
X138303983Y-139813083D01*
X138545623Y-139571443D01*
X138735477Y-139287305D01*
X138801256Y-139128500D01*
X142808428Y-139128500D01*
X142808428Y-140779500D01*
X142820688Y-140903982D01*
X142856998Y-141023680D01*
X142915963Y-141133994D01*
X142995315Y-141230685D01*
X143092006Y-141310037D01*
X143202320Y-141369002D01*
X143322018Y-141405312D01*
X143446500Y-141417572D01*
X145097500Y-141417572D01*
X145221982Y-141405312D01*
X145341680Y-141369002D01*
X145451994Y-141310037D01*
X145548685Y-141230685D01*
X145628037Y-141133994D01*
X145677485Y-141041484D01*
X146083727Y-141041484D01*
X146167894Y-141272666D01*
X146437530Y-141372987D01*
X146721555Y-141418777D01*
X147009057Y-141408278D01*
X147288987Y-141341890D01*
X147456106Y-141272666D01*
X147540273Y-141041484D01*
X146812000Y-140313210D01*
X146083727Y-141041484D01*
X145677485Y-141041484D01*
X145687002Y-141023680D01*
X145723312Y-140903982D01*
X145735572Y-140779500D01*
X145735572Y-140671217D01*
X146452790Y-139954000D01*
X147171210Y-139954000D01*
X147899484Y-140682273D01*
X148130666Y-140598106D01*
X148230987Y-140328470D01*
X148276777Y-140044445D01*
X148266278Y-139756943D01*
X148199890Y-139477013D01*
X148130666Y-139309894D01*
X147899484Y-139225727D01*
X147171210Y-139954000D01*
X146452790Y-139954000D01*
X145735572Y-139236783D01*
X145735572Y-139128500D01*
X145723312Y-139004018D01*
X145687002Y-138884320D01*
X145677486Y-138866516D01*
X146083727Y-138866516D01*
X146812000Y-139594790D01*
X147540273Y-138866516D01*
X147456106Y-138635334D01*
X147186470Y-138535013D01*
X146902445Y-138489223D01*
X146614943Y-138499722D01*
X146335013Y-138566110D01*
X146167894Y-138635334D01*
X146083727Y-138866516D01*
X145677486Y-138866516D01*
X145628037Y-138774006D01*
X145548685Y-138677315D01*
X145451994Y-138597963D01*
X145341680Y-138538998D01*
X145221982Y-138502688D01*
X145097500Y-138490428D01*
X143446500Y-138490428D01*
X143322018Y-138502688D01*
X143202320Y-138538998D01*
X143092006Y-138597963D01*
X142995315Y-138677315D01*
X142915963Y-138774006D01*
X142856998Y-138884320D01*
X142820688Y-139004018D01*
X142808428Y-139128500D01*
X138801256Y-139128500D01*
X138866252Y-138971588D01*
X138932920Y-138636425D01*
X138932920Y-138294695D01*
X138866252Y-137959532D01*
X138735477Y-137643815D01*
X138545623Y-137359677D01*
X138437647Y-137251701D01*
X138773709Y-137251701D01*
X138891790Y-137510736D01*
X139208643Y-137638732D01*
X139544379Y-137702454D01*
X139886095Y-137699453D01*
X140220660Y-137629844D01*
X140508210Y-137510736D01*
X140626291Y-137251701D01*
X139700000Y-136325410D01*
X138773709Y-137251701D01*
X138437647Y-137251701D01*
X138303983Y-137118037D01*
X138019845Y-136928183D01*
X137704128Y-136797408D01*
X137368965Y-136730740D01*
X137027235Y-136730740D01*
X136692072Y-136797408D01*
X136376355Y-136928183D01*
X136092217Y-137118037D01*
X135850577Y-137359677D01*
X135660723Y-137643815D01*
X135529948Y-137959532D01*
X135463280Y-138294695D01*
X131572000Y-138294695D01*
X131572000Y-135810579D01*
X137963746Y-135810579D01*
X137966747Y-136152295D01*
X138036356Y-136486860D01*
X138155464Y-136774410D01*
X138414499Y-136892491D01*
X139340790Y-135966200D01*
X140059210Y-135966200D01*
X140985501Y-136892491D01*
X141244536Y-136774410D01*
X141372532Y-136457557D01*
X141436254Y-136121821D01*
X141433253Y-135780105D01*
X141363644Y-135445540D01*
X141244536Y-135157990D01*
X140985501Y-135039909D01*
X140059210Y-135966200D01*
X139340790Y-135966200D01*
X138414499Y-135039909D01*
X138155464Y-135157990D01*
X138027468Y-135474843D01*
X137963746Y-135810579D01*
X131572000Y-135810579D01*
X131572000Y-133293435D01*
X135463280Y-133293435D01*
X135463280Y-133635165D01*
X135529948Y-133970328D01*
X135660723Y-134286045D01*
X135850577Y-134570183D01*
X136092217Y-134811823D01*
X136376355Y-135001677D01*
X136692072Y-135132452D01*
X137027235Y-135199120D01*
X137368965Y-135199120D01*
X137704128Y-135132452D01*
X138019845Y-135001677D01*
X138303983Y-134811823D01*
X138435107Y-134680699D01*
X138773709Y-134680699D01*
X139700000Y-135606990D01*
X140626291Y-134680699D01*
X140508210Y-134421664D01*
X140191357Y-134293668D01*
X139855621Y-134229946D01*
X139513905Y-134232947D01*
X139179340Y-134302556D01*
X138891790Y-134421664D01*
X138773709Y-134680699D01*
X138435107Y-134680699D01*
X138545623Y-134570183D01*
X138735477Y-134286045D01*
X138866252Y-133970328D01*
X138932920Y-133635165D01*
X138932920Y-133293435D01*
X138866252Y-132958272D01*
X138735477Y-132642555D01*
X138545623Y-132358417D01*
X138437647Y-132250441D01*
X138773709Y-132250441D01*
X138891790Y-132509476D01*
X139208643Y-132637472D01*
X139544379Y-132701194D01*
X139886095Y-132698193D01*
X140220660Y-132628584D01*
X140508210Y-132509476D01*
X140626291Y-132250441D01*
X139700000Y-131324150D01*
X138773709Y-132250441D01*
X138437647Y-132250441D01*
X138303983Y-132116777D01*
X138019845Y-131926923D01*
X137704128Y-131796148D01*
X137368965Y-131729480D01*
X137027235Y-131729480D01*
X136692072Y-131796148D01*
X136376355Y-131926923D01*
X136092217Y-132116777D01*
X135850577Y-132358417D01*
X135660723Y-132642555D01*
X135529948Y-132958272D01*
X135463280Y-133293435D01*
X131572000Y-133293435D01*
X131572000Y-130809319D01*
X137963746Y-130809319D01*
X137966747Y-131151035D01*
X138036356Y-131485600D01*
X138155464Y-131773150D01*
X138414499Y-131891231D01*
X139340790Y-130964940D01*
X138414499Y-130038649D01*
X138155464Y-130156730D01*
X138027468Y-130473583D01*
X137963746Y-130809319D01*
X131572000Y-130809319D01*
X131572000Y-128294715D01*
X135463280Y-128294715D01*
X135463280Y-128636445D01*
X135529948Y-128971608D01*
X135660723Y-129287325D01*
X135850577Y-129571463D01*
X136092217Y-129813103D01*
X136376355Y-130002957D01*
X136692072Y-130133732D01*
X137027235Y-130200400D01*
X137368965Y-130200400D01*
X137704128Y-130133732D01*
X138019845Y-130002957D01*
X138303983Y-129813103D01*
X138545623Y-129571463D01*
X138735477Y-129287325D01*
X138866252Y-128971608D01*
X138932920Y-128636445D01*
X138932920Y-128294715D01*
X138866252Y-127959552D01*
X138735477Y-127643835D01*
X138545623Y-127359697D01*
X138303983Y-127118057D01*
X138019845Y-126928203D01*
X137704128Y-126797428D01*
X137368965Y-126730760D01*
X137027235Y-126730760D01*
X136692072Y-126797428D01*
X136376355Y-126928203D01*
X136092217Y-127118057D01*
X135850577Y-127359697D01*
X135660723Y-127643835D01*
X135529948Y-127959552D01*
X135463280Y-128294715D01*
X131572000Y-128294715D01*
X131572000Y-125795355D01*
X137965180Y-125795355D01*
X137965180Y-126137085D01*
X138031848Y-126472248D01*
X138162623Y-126787965D01*
X138352477Y-127072103D01*
X138594117Y-127313743D01*
X138878255Y-127503597D01*
X139193972Y-127634372D01*
X139529135Y-127701040D01*
X139870865Y-127701040D01*
X140206028Y-127634372D01*
X140521745Y-127503597D01*
X140690601Y-127390772D01*
X140690600Y-128546757D01*
X140639498Y-128597859D01*
X140521360Y-128774665D01*
X140439985Y-128971122D01*
X140398500Y-129179679D01*
X140398500Y-129376086D01*
X140191357Y-129292408D01*
X139855621Y-129228686D01*
X139513905Y-129231687D01*
X139179340Y-129301296D01*
X138891790Y-129420404D01*
X138773709Y-129679439D01*
X139700000Y-130605730D01*
X139714143Y-130591588D01*
X140073353Y-130950798D01*
X140059210Y-130964940D01*
X140985501Y-131891231D01*
X141244536Y-131773150D01*
X141304419Y-131624908D01*
X156083000Y-131624908D01*
X156083000Y-131900092D01*
X156136686Y-132169990D01*
X156241995Y-132424227D01*
X156394880Y-132653035D01*
X156589465Y-132847620D01*
X156818273Y-133000505D01*
X156895515Y-133032500D01*
X156818273Y-133064495D01*
X156589465Y-133217380D01*
X156394880Y-133411965D01*
X156241995Y-133640773D01*
X156136686Y-133895010D01*
X156083000Y-134164908D01*
X156083000Y-134440092D01*
X156136686Y-134709990D01*
X156241995Y-134964227D01*
X156394880Y-135193035D01*
X156589465Y-135387620D01*
X156818273Y-135540505D01*
X156895515Y-135572500D01*
X156818273Y-135604495D01*
X156589465Y-135757380D01*
X156394880Y-135951965D01*
X156241995Y-136180773D01*
X156136686Y-136435010D01*
X156083000Y-136704908D01*
X156083000Y-136980092D01*
X156136686Y-137249990D01*
X156241995Y-137504227D01*
X156394880Y-137733035D01*
X156589465Y-137927620D01*
X156818273Y-138080505D01*
X156895515Y-138112500D01*
X156818273Y-138144495D01*
X156589465Y-138297380D01*
X156394880Y-138491965D01*
X156241995Y-138720773D01*
X156136686Y-138975010D01*
X156083000Y-139244908D01*
X156083000Y-139520092D01*
X156136686Y-139789990D01*
X156241995Y-140044227D01*
X156394880Y-140273035D01*
X156589465Y-140467620D01*
X156818273Y-140620505D01*
X157072510Y-140725814D01*
X157342408Y-140779500D01*
X157617592Y-140779500D01*
X157887490Y-140725814D01*
X158141727Y-140620505D01*
X158370535Y-140467620D01*
X158565120Y-140273035D01*
X158619928Y-140191009D01*
X158619928Y-140779500D01*
X158632188Y-140903982D01*
X158668498Y-141023680D01*
X158727463Y-141133994D01*
X158806815Y-141230685D01*
X158903506Y-141310037D01*
X159013820Y-141369002D01*
X159133518Y-141405312D01*
X159258000Y-141417572D01*
X160782000Y-141417572D01*
X160906482Y-141405312D01*
X161026180Y-141369002D01*
X161136494Y-141310037D01*
X161233185Y-141230685D01*
X161312537Y-141133994D01*
X161371502Y-141023680D01*
X161407812Y-140903982D01*
X161420072Y-140779500D01*
X161420072Y-139255500D01*
X161407812Y-139131018D01*
X161371502Y-139011320D01*
X161332288Y-138937956D01*
X169746686Y-138937956D01*
X170428920Y-139620190D01*
X171111154Y-138937956D01*
X171034919Y-138713184D01*
X170776249Y-138619289D01*
X170504230Y-138577663D01*
X170229318Y-138589905D01*
X169962077Y-138655545D01*
X169822921Y-138713184D01*
X169746686Y-138937956D01*
X161332288Y-138937956D01*
X161312537Y-138901006D01*
X161233185Y-138804315D01*
X161136494Y-138724963D01*
X161026180Y-138665998D01*
X160906482Y-138629688D01*
X160822535Y-138621420D01*
X160910535Y-138562620D01*
X161105120Y-138368035D01*
X161258005Y-138139227D01*
X161363314Y-137884990D01*
X161417000Y-137615092D01*
X161417000Y-137339908D01*
X161363314Y-137070010D01*
X161258005Y-136815773D01*
X161105120Y-136586965D01*
X160910535Y-136392380D01*
X160681727Y-136239495D01*
X160604485Y-136207500D01*
X160681727Y-136175505D01*
X160910535Y-136022620D01*
X161105120Y-135828035D01*
X161258005Y-135599227D01*
X161363314Y-135344990D01*
X161417000Y-135075092D01*
X161417000Y-134799908D01*
X161363314Y-134530010D01*
X161258005Y-134275773D01*
X161105120Y-134046965D01*
X160910535Y-133852380D01*
X160681727Y-133699495D01*
X160604485Y-133667500D01*
X160681727Y-133635505D01*
X160910535Y-133482620D01*
X161105120Y-133288035D01*
X161258005Y-133059227D01*
X161363314Y-132804990D01*
X161417000Y-132535092D01*
X161417000Y-132259908D01*
X161363314Y-131990010D01*
X161258005Y-131735773D01*
X161105120Y-131506965D01*
X160910535Y-131312380D01*
X160681727Y-131159495D01*
X160427490Y-131054186D01*
X160157592Y-131000500D01*
X159882408Y-131000500D01*
X159612510Y-131054186D01*
X159537400Y-131085298D01*
X159537400Y-129705662D01*
X159541208Y-129666999D01*
X159537400Y-129628336D01*
X159537400Y-129628327D01*
X159526006Y-129512643D01*
X159480982Y-129364217D01*
X159407866Y-129227428D01*
X159373284Y-129185290D01*
X159334121Y-129137569D01*
X159334119Y-129137567D01*
X159309469Y-129107531D01*
X159279434Y-129082882D01*
X158267400Y-128070850D01*
X158267400Y-127957914D01*
X161417000Y-127957914D01*
X161417000Y-128333166D01*
X161490209Y-128701208D01*
X161633811Y-129047896D01*
X161842290Y-129359906D01*
X162107634Y-129625250D01*
X162419644Y-129833729D01*
X162766332Y-129977331D01*
X163134374Y-130050540D01*
X163509626Y-130050540D01*
X163809680Y-129990855D01*
X163809680Y-130427169D01*
X163908072Y-130921818D01*
X164101074Y-131387766D01*
X164381270Y-131807109D01*
X164737891Y-132163730D01*
X165157234Y-132443926D01*
X165623182Y-132636928D01*
X166117831Y-132735320D01*
X166622169Y-132735320D01*
X167116818Y-132636928D01*
X167582766Y-132443926D01*
X168002109Y-132163730D01*
X168358730Y-131807109D01*
X168455015Y-131663008D01*
X169031920Y-131663008D01*
X169031920Y-131938192D01*
X169085606Y-132208090D01*
X169190915Y-132462327D01*
X169343800Y-132691135D01*
X169538385Y-132885720D01*
X169767193Y-133038605D01*
X170021430Y-133143914D01*
X170291328Y-133197600D01*
X170566512Y-133197600D01*
X170836410Y-133143914D01*
X171090647Y-133038605D01*
X171319455Y-132885720D01*
X171514040Y-132691135D01*
X171666925Y-132462327D01*
X171772234Y-132208090D01*
X171825920Y-131938192D01*
X171825920Y-131663008D01*
X171772234Y-131393110D01*
X171666925Y-131138873D01*
X171514040Y-130910065D01*
X171319455Y-130715480D01*
X171090647Y-130562595D01*
X171019594Y-130533164D01*
X171034919Y-130526816D01*
X171111154Y-130302044D01*
X170428920Y-129619810D01*
X169746686Y-130302044D01*
X169822921Y-130526816D01*
X169839256Y-130532745D01*
X169767193Y-130562595D01*
X169538385Y-130715480D01*
X169343800Y-130910065D01*
X169190915Y-131138873D01*
X169085606Y-131393110D01*
X169031920Y-131663008D01*
X168455015Y-131663008D01*
X168638926Y-131387766D01*
X168831928Y-130921818D01*
X168930320Y-130427169D01*
X168930320Y-129922831D01*
X168831928Y-129428182D01*
X168731319Y-129185290D01*
X169027183Y-129185290D01*
X169039425Y-129460202D01*
X169105065Y-129727443D01*
X169162704Y-129866599D01*
X169387476Y-129942834D01*
X170069710Y-129260600D01*
X170788130Y-129260600D01*
X171470364Y-129942834D01*
X171695136Y-129866599D01*
X171789031Y-129607929D01*
X171830657Y-129335910D01*
X171818415Y-129060998D01*
X171752775Y-128793757D01*
X171695136Y-128654601D01*
X171470364Y-128578366D01*
X170788130Y-129260600D01*
X170069710Y-129260600D01*
X169387476Y-128578366D01*
X169162704Y-128654601D01*
X169068809Y-128913271D01*
X169027183Y-129185290D01*
X168731319Y-129185290D01*
X168638926Y-128962234D01*
X168358730Y-128542891D01*
X168034995Y-128219156D01*
X169746686Y-128219156D01*
X170428920Y-128901390D01*
X171111154Y-128219156D01*
X171034919Y-127994384D01*
X170776249Y-127900489D01*
X170504230Y-127858863D01*
X170229318Y-127871105D01*
X169962077Y-127936745D01*
X169822921Y-127994384D01*
X169746686Y-128219156D01*
X168034995Y-128219156D01*
X168002109Y-128186270D01*
X167582766Y-127906074D01*
X167116818Y-127713072D01*
X166622169Y-127614680D01*
X166117831Y-127614680D01*
X165623182Y-127713072D01*
X165212163Y-127883322D01*
X165153791Y-127589872D01*
X165010189Y-127243184D01*
X164801710Y-126931174D01*
X164536366Y-126665830D01*
X164224356Y-126457351D01*
X163877668Y-126313749D01*
X163509626Y-126240540D01*
X163134374Y-126240540D01*
X162766332Y-126313749D01*
X162419644Y-126457351D01*
X162107634Y-126665830D01*
X161842290Y-126931174D01*
X161633811Y-127243184D01*
X161490209Y-127589872D01*
X161417000Y-127957914D01*
X158267400Y-127957914D01*
X158267400Y-124612400D01*
X164360757Y-124612400D01*
X164411859Y-124663502D01*
X164588665Y-124781640D01*
X164785122Y-124863015D01*
X164993679Y-124904500D01*
X165206321Y-124904500D01*
X165414878Y-124863015D01*
X165611335Y-124781640D01*
X165788141Y-124663502D01*
X165938502Y-124513141D01*
X166056640Y-124336335D01*
X166138015Y-124139878D01*
X166179500Y-123931321D01*
X166179500Y-123718679D01*
X166138015Y-123510122D01*
X166056640Y-123313665D01*
X165938502Y-123136859D01*
X165788141Y-122986498D01*
X165611335Y-122868360D01*
X165414878Y-122786985D01*
X165206321Y-122745500D01*
X164993679Y-122745500D01*
X164785122Y-122786985D01*
X164588665Y-122868360D01*
X164411859Y-122986498D01*
X164360757Y-123037600D01*
X158219243Y-123037600D01*
X158168141Y-122986498D01*
X157991335Y-122868360D01*
X157794878Y-122786985D01*
X157586321Y-122745500D01*
X157373679Y-122745500D01*
X157165122Y-122786985D01*
X156968665Y-122868360D01*
X156791859Y-122986498D01*
X156641498Y-123136859D01*
X156523360Y-123313665D01*
X156441985Y-123510122D01*
X156400500Y-123718679D01*
X156400500Y-123931321D01*
X156441985Y-124139878D01*
X156523360Y-124336335D01*
X156641498Y-124513141D01*
X156692600Y-124564243D01*
X156692601Y-128358327D01*
X156688792Y-128397000D01*
X156703995Y-128551357D01*
X156749018Y-128699782D01*
X156799250Y-128793757D01*
X156822135Y-128836572D01*
X156920532Y-128956469D01*
X156950573Y-128981123D01*
X157962600Y-129993152D01*
X157962600Y-130450298D01*
X157887490Y-130419186D01*
X157617592Y-130365500D01*
X157342408Y-130365500D01*
X157072510Y-130419186D01*
X156818273Y-130524495D01*
X156589465Y-130677380D01*
X156394880Y-130871965D01*
X156241995Y-131100773D01*
X156136686Y-131355010D01*
X156083000Y-131624908D01*
X141304419Y-131624908D01*
X141372532Y-131456297D01*
X141436254Y-131120561D01*
X141433253Y-130778845D01*
X141363644Y-130444280D01*
X141327360Y-130356684D01*
X141371679Y-130365500D01*
X141584321Y-130365500D01*
X141792878Y-130324015D01*
X141989335Y-130242640D01*
X142166141Y-130124502D01*
X142316502Y-129974141D01*
X142434640Y-129797335D01*
X142516015Y-129600878D01*
X142557500Y-129392321D01*
X142557500Y-129179679D01*
X142516015Y-128971122D01*
X142434640Y-128774665D01*
X142316502Y-128597859D01*
X142265400Y-128546757D01*
X142265400Y-126657662D01*
X142269208Y-126618999D01*
X142265400Y-126580336D01*
X142265400Y-126580327D01*
X142254006Y-126464643D01*
X142208982Y-126316217D01*
X142135866Y-126179428D01*
X142037469Y-126059531D01*
X142007433Y-126034881D01*
X141409347Y-125436797D01*
X141384689Y-125406751D01*
X141326099Y-125358667D01*
X141237377Y-125144475D01*
X141047523Y-124860337D01*
X140805883Y-124618697D01*
X140521745Y-124428843D01*
X140206028Y-124298068D01*
X139870865Y-124231400D01*
X139529135Y-124231400D01*
X139193972Y-124298068D01*
X138878255Y-124428843D01*
X138594117Y-124618697D01*
X138352477Y-124860337D01*
X138162623Y-125144475D01*
X138031848Y-125460192D01*
X137965180Y-125795355D01*
X131572000Y-125795355D01*
X131572000Y-123293455D01*
X135463280Y-123293455D01*
X135463280Y-123635185D01*
X135529948Y-123970348D01*
X135660723Y-124286065D01*
X135850577Y-124570203D01*
X136092217Y-124811843D01*
X136376355Y-125001697D01*
X136692072Y-125132472D01*
X137027235Y-125199140D01*
X137368965Y-125199140D01*
X137704128Y-125132472D01*
X138019845Y-125001697D01*
X138303983Y-124811843D01*
X138545623Y-124570203D01*
X138735477Y-124286065D01*
X138866252Y-123970348D01*
X138932920Y-123635185D01*
X138932920Y-123293455D01*
X138866252Y-122958292D01*
X138735477Y-122642575D01*
X138545623Y-122358437D01*
X138303983Y-122116797D01*
X138019845Y-121926943D01*
X137704128Y-121796168D01*
X137368965Y-121729500D01*
X137027235Y-121729500D01*
X136692072Y-121796168D01*
X136376355Y-121926943D01*
X136092217Y-122116797D01*
X135850577Y-122358437D01*
X135660723Y-122642575D01*
X135529948Y-122958292D01*
X135463280Y-123293455D01*
X131572000Y-123293455D01*
X131572000Y-120794095D01*
X137965180Y-120794095D01*
X137965180Y-121135825D01*
X138031848Y-121470988D01*
X138162623Y-121786705D01*
X138352477Y-122070843D01*
X138594117Y-122312483D01*
X138878255Y-122502337D01*
X139193972Y-122633112D01*
X139529135Y-122699780D01*
X139870865Y-122699780D01*
X140206028Y-122633112D01*
X140521745Y-122502337D01*
X140805883Y-122312483D01*
X141047523Y-122070843D01*
X141237377Y-121786705D01*
X141368152Y-121470988D01*
X141434820Y-121135825D01*
X141434820Y-120794095D01*
X141368152Y-120458932D01*
X141237377Y-120143215D01*
X141047523Y-119859077D01*
X140805883Y-119617437D01*
X140521745Y-119427583D01*
X140206028Y-119296808D01*
X139870865Y-119230140D01*
X139529135Y-119230140D01*
X139193972Y-119296808D01*
X138878255Y-119427583D01*
X138594117Y-119617437D01*
X138352477Y-119859077D01*
X138162623Y-120143215D01*
X138031848Y-120458932D01*
X137965180Y-120794095D01*
X131572000Y-120794095D01*
X131572000Y-118294735D01*
X135463280Y-118294735D01*
X135463280Y-118636465D01*
X135529948Y-118971628D01*
X135660723Y-119287345D01*
X135850577Y-119571483D01*
X136092217Y-119813123D01*
X136376355Y-120002977D01*
X136692072Y-120133752D01*
X137027235Y-120200420D01*
X137368965Y-120200420D01*
X137704128Y-120133752D01*
X138019845Y-120002977D01*
X138303983Y-119813123D01*
X138545623Y-119571483D01*
X138735477Y-119287345D01*
X138866252Y-118971628D01*
X138932920Y-118636465D01*
X138932920Y-118294735D01*
X138866252Y-117959572D01*
X138735477Y-117643855D01*
X138545623Y-117359717D01*
X138303983Y-117118077D01*
X138019845Y-116928223D01*
X137704128Y-116797448D01*
X137368965Y-116730780D01*
X137027235Y-116730780D01*
X136692072Y-116797448D01*
X136376355Y-116928223D01*
X136092217Y-117118077D01*
X135850577Y-117359717D01*
X135660723Y-117643855D01*
X135529948Y-117959572D01*
X135463280Y-118294735D01*
X131572000Y-118294735D01*
X131572000Y-115795375D01*
X137965180Y-115795375D01*
X137965180Y-116137105D01*
X138031848Y-116472268D01*
X138162623Y-116787985D01*
X138352477Y-117072123D01*
X138594117Y-117313763D01*
X138878255Y-117503617D01*
X139193972Y-117634392D01*
X139529135Y-117701060D01*
X139870865Y-117701060D01*
X140206028Y-117634392D01*
X140521745Y-117503617D01*
X140805883Y-117313763D01*
X141047523Y-117072123D01*
X141237377Y-116787985D01*
X141368152Y-116472268D01*
X141434820Y-116137105D01*
X141434820Y-115795375D01*
X141368152Y-115460212D01*
X141237377Y-115144495D01*
X141047523Y-114860357D01*
X140805883Y-114618717D01*
X140521745Y-114428863D01*
X140206028Y-114298088D01*
X139870865Y-114231420D01*
X139529135Y-114231420D01*
X139193972Y-114298088D01*
X138878255Y-114428863D01*
X138594117Y-114618717D01*
X138352477Y-114860357D01*
X138162623Y-115144495D01*
X138031848Y-115460212D01*
X137965180Y-115795375D01*
X131572000Y-115795375D01*
X131572000Y-113293475D01*
X135463280Y-113293475D01*
X135463280Y-113635205D01*
X135529948Y-113970368D01*
X135660723Y-114286085D01*
X135850577Y-114570223D01*
X136092217Y-114811863D01*
X136376355Y-115001717D01*
X136692072Y-115132492D01*
X137027235Y-115199160D01*
X137368965Y-115199160D01*
X137704128Y-115132492D01*
X138019845Y-115001717D01*
X138303983Y-114811863D01*
X138545623Y-114570223D01*
X138735477Y-114286085D01*
X138866252Y-113970368D01*
X138932920Y-113635205D01*
X138932920Y-113293475D01*
X138866252Y-112958312D01*
X138735477Y-112642595D01*
X138545623Y-112358457D01*
X138303983Y-112116817D01*
X138019845Y-111926963D01*
X137704128Y-111796188D01*
X137368965Y-111729520D01*
X137027235Y-111729520D01*
X136692072Y-111796188D01*
X136376355Y-111926963D01*
X136092217Y-112116817D01*
X135850577Y-112358457D01*
X135660723Y-112642595D01*
X135529948Y-112958312D01*
X135463280Y-113293475D01*
X131572000Y-113293475D01*
X131572000Y-110794115D01*
X137965180Y-110794115D01*
X137965180Y-111135845D01*
X138031848Y-111471008D01*
X138162623Y-111786725D01*
X138352477Y-112070863D01*
X138594117Y-112312503D01*
X138878255Y-112502357D01*
X139193972Y-112633132D01*
X139529135Y-112699800D01*
X139870865Y-112699800D01*
X140206028Y-112633132D01*
X140521745Y-112502357D01*
X140805883Y-112312503D01*
X141047523Y-112070863D01*
X141237377Y-111786725D01*
X141368152Y-111471008D01*
X141434820Y-111135845D01*
X141434820Y-110794115D01*
X141368152Y-110458952D01*
X141237377Y-110143235D01*
X141228320Y-110129679D01*
X158432500Y-110129679D01*
X158432500Y-110342321D01*
X158473985Y-110550878D01*
X158555360Y-110747335D01*
X158673498Y-110924141D01*
X158823859Y-111074502D01*
X159000665Y-111192640D01*
X159197122Y-111274015D01*
X159335466Y-111301534D01*
X159362985Y-111439878D01*
X159444360Y-111636335D01*
X159562498Y-111813141D01*
X159712859Y-111963502D01*
X159889665Y-112081640D01*
X160086122Y-112163015D01*
X160294679Y-112204500D01*
X160507321Y-112204500D01*
X160715878Y-112163015D01*
X160912335Y-112081640D01*
X161089141Y-111963502D01*
X161140243Y-111912400D01*
X167567850Y-111912400D01*
X169265600Y-113610151D01*
X169265600Y-113941757D01*
X169214498Y-113992859D01*
X169096360Y-114169665D01*
X169014985Y-114366122D01*
X168973500Y-114574679D01*
X168973500Y-114787321D01*
X169014985Y-114995878D01*
X169096360Y-115192335D01*
X169214498Y-115369141D01*
X169364859Y-115519502D01*
X169541665Y-115637640D01*
X169738122Y-115719015D01*
X169946679Y-115760500D01*
X170159321Y-115760500D01*
X170367878Y-115719015D01*
X170564335Y-115637640D01*
X170741141Y-115519502D01*
X170891502Y-115369141D01*
X171009640Y-115192335D01*
X171069000Y-115049027D01*
X171128360Y-115192335D01*
X171246498Y-115369141D01*
X171396859Y-115519502D01*
X171573665Y-115637640D01*
X171770122Y-115719015D01*
X171978679Y-115760500D01*
X172191321Y-115760500D01*
X172399878Y-115719015D01*
X172596335Y-115637640D01*
X172773141Y-115519502D01*
X172923502Y-115369141D01*
X173041640Y-115192335D01*
X173123015Y-114995878D01*
X173164500Y-114787321D01*
X173164500Y-114574679D01*
X173123015Y-114366122D01*
X173041640Y-114169665D01*
X172923502Y-113992859D01*
X172822567Y-113891924D01*
X172815982Y-113870217D01*
X172742867Y-113733429D01*
X172742866Y-113733427D01*
X172669121Y-113643570D01*
X172644469Y-113613531D01*
X172614429Y-113588878D01*
X168774230Y-109748679D01*
X170878500Y-109748679D01*
X170878500Y-109961321D01*
X170919985Y-110169878D01*
X171001360Y-110366335D01*
X171119498Y-110543141D01*
X171269859Y-110693502D01*
X171446665Y-110811640D01*
X171643122Y-110893015D01*
X171851679Y-110934500D01*
X171923949Y-110934500D01*
X172402500Y-111413051D01*
X172402500Y-111485321D01*
X172443985Y-111693878D01*
X172525360Y-111890335D01*
X172643498Y-112067141D01*
X172793859Y-112217502D01*
X172970665Y-112335640D01*
X173167122Y-112417015D01*
X173375679Y-112458500D01*
X173588321Y-112458500D01*
X173796878Y-112417015D01*
X173993335Y-112335640D01*
X174170141Y-112217502D01*
X174320502Y-112067141D01*
X174438640Y-111890335D01*
X174520015Y-111693878D01*
X174561500Y-111485321D01*
X174561500Y-111272679D01*
X174520015Y-111064122D01*
X174438640Y-110867665D01*
X174320502Y-110690859D01*
X174170141Y-110540498D01*
X173993335Y-110422360D01*
X173796878Y-110340985D01*
X173588321Y-110299500D01*
X173516051Y-110299500D01*
X173037500Y-109820949D01*
X173037500Y-109748679D01*
X172996015Y-109540122D01*
X172914640Y-109343665D01*
X172796502Y-109166859D01*
X172646141Y-109016498D01*
X172469335Y-108898360D01*
X172272878Y-108816985D01*
X172064321Y-108775500D01*
X171851679Y-108775500D01*
X171643122Y-108816985D01*
X171446665Y-108898360D01*
X171269859Y-109016498D01*
X171119498Y-109166859D01*
X171001360Y-109343665D01*
X170919985Y-109540122D01*
X170878500Y-109748679D01*
X168774230Y-109748679D01*
X168732128Y-109706578D01*
X168707469Y-109676531D01*
X168587572Y-109578134D01*
X168450783Y-109505018D01*
X168302357Y-109459994D01*
X168186673Y-109448600D01*
X168186663Y-109448600D01*
X168148000Y-109444792D01*
X168109337Y-109448600D01*
X160251243Y-109448600D01*
X160200141Y-109397498D01*
X160023335Y-109279360D01*
X159826878Y-109197985D01*
X159618321Y-109156500D01*
X159405679Y-109156500D01*
X159197122Y-109197985D01*
X159000665Y-109279360D01*
X158823859Y-109397498D01*
X158673498Y-109547859D01*
X158555360Y-109724665D01*
X158473985Y-109921122D01*
X158432500Y-110129679D01*
X141228320Y-110129679D01*
X141047523Y-109859097D01*
X140805883Y-109617457D01*
X140521745Y-109427603D01*
X140206028Y-109296828D01*
X139870865Y-109230160D01*
X139529135Y-109230160D01*
X139193972Y-109296828D01*
X138878255Y-109427603D01*
X138594117Y-109617457D01*
X138352477Y-109859097D01*
X138162623Y-110143235D01*
X138031848Y-110458952D01*
X137965180Y-110794115D01*
X131572000Y-110794115D01*
X131572000Y-108294755D01*
X135463280Y-108294755D01*
X135463280Y-108636485D01*
X135529948Y-108971648D01*
X135660723Y-109287365D01*
X135850577Y-109571503D01*
X136092217Y-109813143D01*
X136376355Y-110002997D01*
X136692072Y-110133772D01*
X137027235Y-110200440D01*
X137368965Y-110200440D01*
X137704128Y-110133772D01*
X138019845Y-110002997D01*
X138303983Y-109813143D01*
X138545623Y-109571503D01*
X138735477Y-109287365D01*
X138866252Y-108971648D01*
X138932920Y-108636485D01*
X138932920Y-108294755D01*
X138866252Y-107959592D01*
X138735477Y-107643875D01*
X138545623Y-107359737D01*
X138437647Y-107251761D01*
X138773709Y-107251761D01*
X138891790Y-107510796D01*
X139208643Y-107638792D01*
X139544379Y-107702514D01*
X139886095Y-107699513D01*
X140220660Y-107629904D01*
X140508210Y-107510796D01*
X140626291Y-107251761D01*
X139700000Y-106325470D01*
X138773709Y-107251761D01*
X138437647Y-107251761D01*
X138303983Y-107118097D01*
X138019845Y-106928243D01*
X137704128Y-106797468D01*
X137368965Y-106730800D01*
X137027235Y-106730800D01*
X136692072Y-106797468D01*
X136376355Y-106928243D01*
X136092217Y-107118097D01*
X135850577Y-107359737D01*
X135660723Y-107643875D01*
X135529948Y-107959592D01*
X135463280Y-108294755D01*
X131572000Y-108294755D01*
X131572000Y-105810639D01*
X137963746Y-105810639D01*
X137966747Y-106152355D01*
X138036356Y-106486920D01*
X138155464Y-106774470D01*
X138414499Y-106892551D01*
X139340790Y-105966260D01*
X140059210Y-105966260D01*
X140985501Y-106892551D01*
X141244536Y-106774470D01*
X141372532Y-106457617D01*
X141436254Y-106121881D01*
X141433253Y-105780165D01*
X141363644Y-105445600D01*
X141244536Y-105158050D01*
X140985501Y-105039969D01*
X140059210Y-105966260D01*
X139340790Y-105966260D01*
X138414499Y-105039969D01*
X138155464Y-105158050D01*
X138027468Y-105474903D01*
X137963746Y-105810639D01*
X131572000Y-105810639D01*
X131572000Y-104749861D01*
X136271809Y-104749861D01*
X136389890Y-105008896D01*
X136706743Y-105136892D01*
X137042479Y-105200614D01*
X137384195Y-105197613D01*
X137718760Y-105128004D01*
X138006310Y-105008896D01*
X138124391Y-104749861D01*
X138055289Y-104680759D01*
X138773709Y-104680759D01*
X139700000Y-105607050D01*
X140626291Y-104680759D01*
X140508210Y-104421724D01*
X140191357Y-104293728D01*
X139855621Y-104230006D01*
X139513905Y-104233007D01*
X139179340Y-104302616D01*
X138891790Y-104421724D01*
X138773709Y-104680759D01*
X138055289Y-104680759D01*
X137198100Y-103823570D01*
X136271809Y-104749861D01*
X131572000Y-104749861D01*
X131572000Y-103308739D01*
X135461846Y-103308739D01*
X135464847Y-103650455D01*
X135534456Y-103985020D01*
X135653564Y-104272570D01*
X135912599Y-104390651D01*
X136838890Y-103464360D01*
X137557310Y-103464360D01*
X138483601Y-104390651D01*
X138742636Y-104272570D01*
X138870632Y-103955717D01*
X138934354Y-103619981D01*
X138931353Y-103278265D01*
X138861744Y-102943700D01*
X138742636Y-102656150D01*
X138483601Y-102538069D01*
X137557310Y-103464360D01*
X136838890Y-103464360D01*
X135912599Y-102538069D01*
X135653564Y-102656150D01*
X135525568Y-102973003D01*
X135461846Y-103308739D01*
X131572000Y-103308739D01*
X131572000Y-102178859D01*
X136271809Y-102178859D01*
X137198100Y-103105150D01*
X138124391Y-102178859D01*
X138006310Y-101919824D01*
X137689457Y-101791828D01*
X137353721Y-101728106D01*
X137012005Y-101731107D01*
X136677440Y-101800716D01*
X136389890Y-101919824D01*
X136271809Y-102178859D01*
X131572000Y-102178859D01*
X131572000Y-100794135D01*
X137965180Y-100794135D01*
X137965180Y-101135865D01*
X138031848Y-101471028D01*
X138162623Y-101786745D01*
X138352477Y-102070883D01*
X138594117Y-102312523D01*
X138878255Y-102502377D01*
X139193972Y-102633152D01*
X139217588Y-102637850D01*
X140568420Y-103988682D01*
X140616136Y-104046824D01*
X140674278Y-104094540D01*
X140674282Y-104094544D01*
X140848195Y-104237270D01*
X141112949Y-104378784D01*
X141400224Y-104465928D01*
X141624121Y-104487980D01*
X141624129Y-104487980D01*
X141698980Y-104495352D01*
X141773831Y-104487980D01*
X142783672Y-104487980D01*
X142791016Y-104494007D01*
X142901330Y-104552972D01*
X143021028Y-104589282D01*
X143145510Y-104601542D01*
X145144490Y-104601542D01*
X145268972Y-104589282D01*
X145388670Y-104552972D01*
X145498984Y-104494007D01*
X145506328Y-104487980D01*
X145958672Y-104487980D01*
X145966016Y-104494007D01*
X146076330Y-104552972D01*
X146196028Y-104589282D01*
X146320510Y-104601542D01*
X148319490Y-104601542D01*
X148443972Y-104589282D01*
X148563670Y-104552972D01*
X148673984Y-104494007D01*
X148770675Y-104414655D01*
X148850027Y-104317964D01*
X148908992Y-104207650D01*
X148945302Y-104087952D01*
X148957562Y-103963470D01*
X148957562Y-101964490D01*
X148945302Y-101840008D01*
X148908992Y-101720310D01*
X148850027Y-101609996D01*
X148770675Y-101513305D01*
X148673984Y-101433953D01*
X148563670Y-101374988D01*
X148443972Y-101338678D01*
X148319490Y-101326418D01*
X146320510Y-101326418D01*
X146196028Y-101338678D01*
X146076330Y-101374988D01*
X145966016Y-101433953D01*
X145958672Y-101439980D01*
X145506328Y-101439980D01*
X145498984Y-101433953D01*
X145388670Y-101374988D01*
X145268972Y-101338678D01*
X145144490Y-101326418D01*
X143145510Y-101326418D01*
X143021028Y-101338678D01*
X142901330Y-101374988D01*
X142791016Y-101433953D01*
X142783672Y-101439980D01*
X142330242Y-101439980D01*
X141372850Y-100482588D01*
X141368152Y-100458972D01*
X141237377Y-100143255D01*
X141118613Y-99965510D01*
X142507438Y-99965510D01*
X142519698Y-100089992D01*
X142556008Y-100209690D01*
X142614973Y-100320004D01*
X142694325Y-100416695D01*
X142791016Y-100496047D01*
X142901330Y-100555012D01*
X143021028Y-100591322D01*
X143145510Y-100603582D01*
X143732250Y-100600510D01*
X143891000Y-100441760D01*
X143891000Y-99220020D01*
X144399000Y-99220020D01*
X144399000Y-100441760D01*
X144557750Y-100600510D01*
X145144490Y-100603582D01*
X145268972Y-100591322D01*
X145388670Y-100555012D01*
X145498984Y-100496047D01*
X145595675Y-100416695D01*
X145675027Y-100320004D01*
X145732500Y-100212481D01*
X145789973Y-100320004D01*
X145869325Y-100416695D01*
X145966016Y-100496047D01*
X146076330Y-100555012D01*
X146196028Y-100591322D01*
X146320510Y-100603582D01*
X146907250Y-100600510D01*
X147066000Y-100441760D01*
X147066000Y-99220020D01*
X147574000Y-99220020D01*
X147574000Y-100441760D01*
X147732750Y-100600510D01*
X148319490Y-100603582D01*
X148443972Y-100591322D01*
X148563670Y-100555012D01*
X148673984Y-100496047D01*
X148770675Y-100416695D01*
X148850027Y-100320004D01*
X148908992Y-100209690D01*
X148945302Y-100089992D01*
X148957562Y-99965510D01*
X148954490Y-99378770D01*
X148795740Y-99220020D01*
X147574000Y-99220020D01*
X147066000Y-99220020D01*
X145844260Y-99220020D01*
X145732500Y-99331780D01*
X145620740Y-99220020D01*
X144399000Y-99220020D01*
X143891000Y-99220020D01*
X142669260Y-99220020D01*
X142510510Y-99378770D01*
X142507438Y-99965510D01*
X141118613Y-99965510D01*
X141047523Y-99859117D01*
X140805883Y-99617477D01*
X140521745Y-99427623D01*
X140206028Y-99296848D01*
X139870865Y-99230180D01*
X139529135Y-99230180D01*
X139193972Y-99296848D01*
X138878255Y-99427623D01*
X138594117Y-99617477D01*
X138352477Y-99859117D01*
X138162623Y-100143255D01*
X138031848Y-100458972D01*
X137965180Y-100794135D01*
X131572000Y-100794135D01*
X131572000Y-99751141D01*
X136271809Y-99751141D01*
X136389890Y-100010176D01*
X136706743Y-100138172D01*
X137042479Y-100201894D01*
X137384195Y-100198893D01*
X137718760Y-100129284D01*
X138006310Y-100010176D01*
X138124391Y-99751141D01*
X137198100Y-98824850D01*
X136271809Y-99751141D01*
X131572000Y-99751141D01*
X131572000Y-98310019D01*
X135461846Y-98310019D01*
X135464847Y-98651735D01*
X135534456Y-98986300D01*
X135653564Y-99273850D01*
X135912599Y-99391931D01*
X136838890Y-98465640D01*
X137557310Y-98465640D01*
X138483601Y-99391931D01*
X138742636Y-99273850D01*
X138870632Y-98956997D01*
X138884587Y-98883470D01*
X149492438Y-98883470D01*
X149504698Y-99007952D01*
X149541008Y-99127650D01*
X149599973Y-99237964D01*
X149679325Y-99334655D01*
X149776016Y-99414007D01*
X149886330Y-99472972D01*
X150006028Y-99509282D01*
X150130510Y-99521542D01*
X150717250Y-99518470D01*
X150876000Y-99359720D01*
X150876000Y-98137980D01*
X151384000Y-98137980D01*
X151384000Y-99359720D01*
X151542750Y-99518470D01*
X152129490Y-99521542D01*
X152253972Y-99509282D01*
X152373670Y-99472972D01*
X152483984Y-99414007D01*
X152580675Y-99334655D01*
X152660027Y-99237964D01*
X152717500Y-99130441D01*
X152774973Y-99237964D01*
X152854325Y-99334655D01*
X152951016Y-99414007D01*
X153061330Y-99472972D01*
X153181028Y-99509282D01*
X153305510Y-99521542D01*
X153892250Y-99518470D01*
X154051000Y-99359720D01*
X154051000Y-98137980D01*
X154559000Y-98137980D01*
X154559000Y-99359720D01*
X154717750Y-99518470D01*
X155304490Y-99521542D01*
X155428972Y-99509282D01*
X155548670Y-99472972D01*
X155658984Y-99414007D01*
X155755675Y-99334655D01*
X155835027Y-99237964D01*
X155893992Y-99127650D01*
X155930302Y-99007952D01*
X155942562Y-98883470D01*
X155939490Y-98296730D01*
X155780740Y-98137980D01*
X154559000Y-98137980D01*
X154051000Y-98137980D01*
X152829260Y-98137980D01*
X152717500Y-98249740D01*
X152605740Y-98137980D01*
X151384000Y-98137980D01*
X150876000Y-98137980D01*
X149654260Y-98137980D01*
X149495510Y-98296730D01*
X149492438Y-98883470D01*
X138884587Y-98883470D01*
X138934354Y-98621261D01*
X138931353Y-98279545D01*
X138861744Y-97944980D01*
X138742636Y-97657430D01*
X138483601Y-97539349D01*
X137557310Y-98465640D01*
X136838890Y-98465640D01*
X135912599Y-97539349D01*
X135653564Y-97657430D01*
X135525568Y-97974283D01*
X135461846Y-98310019D01*
X131572000Y-98310019D01*
X131572000Y-97180139D01*
X136271809Y-97180139D01*
X137198100Y-98106430D01*
X138124391Y-97180139D01*
X138006310Y-96921104D01*
X137689457Y-96793108D01*
X137353721Y-96729386D01*
X137012005Y-96732387D01*
X136677440Y-96801996D01*
X136389890Y-96921104D01*
X136271809Y-97180139D01*
X131572000Y-97180139D01*
X131572000Y-94749881D01*
X136271809Y-94749881D01*
X136389890Y-95008916D01*
X136706743Y-95136912D01*
X137042479Y-95200634D01*
X137384195Y-95197633D01*
X137718760Y-95128024D01*
X138006310Y-95008916D01*
X138124391Y-94749881D01*
X137198100Y-93823590D01*
X136271809Y-94749881D01*
X131572000Y-94749881D01*
X131572000Y-93308759D01*
X135461846Y-93308759D01*
X135464847Y-93650475D01*
X135534456Y-93985040D01*
X135653564Y-94272590D01*
X135912599Y-94390671D01*
X136838890Y-93464380D01*
X137557310Y-93464380D01*
X138483601Y-94390671D01*
X138742636Y-94272590D01*
X138870632Y-93955737D01*
X138934354Y-93620001D01*
X138931353Y-93278285D01*
X138861744Y-92943720D01*
X138742636Y-92656170D01*
X138483601Y-92538089D01*
X137557310Y-93464380D01*
X136838890Y-93464380D01*
X135912599Y-92538089D01*
X135653564Y-92656170D01*
X135525568Y-92973023D01*
X135461846Y-93308759D01*
X131572000Y-93308759D01*
X131572000Y-92178879D01*
X136271809Y-92178879D01*
X137198100Y-93105170D01*
X138124391Y-92178879D01*
X138006310Y-91919844D01*
X137689457Y-91791848D01*
X137353721Y-91728126D01*
X137012005Y-91731127D01*
X136677440Y-91800736D01*
X136389890Y-91919844D01*
X136271809Y-92178879D01*
X131572000Y-92178879D01*
X131572000Y-90794155D01*
X137965180Y-90794155D01*
X137965180Y-91135885D01*
X138031848Y-91471048D01*
X138162623Y-91786765D01*
X138352477Y-92070903D01*
X138594117Y-92312543D01*
X138878255Y-92502397D01*
X139193972Y-92633172D01*
X139217589Y-92637870D01*
X140408396Y-93828677D01*
X140456116Y-93886824D01*
X140688175Y-94077270D01*
X140952929Y-94218784D01*
X141240204Y-94305928D01*
X141464101Y-94327980D01*
X141464110Y-94327980D01*
X141538959Y-94335352D01*
X141613808Y-94327980D01*
X142783672Y-94327980D01*
X142791016Y-94334007D01*
X142901330Y-94392972D01*
X143021028Y-94429282D01*
X143145510Y-94441542D01*
X145144490Y-94441542D01*
X145268972Y-94429282D01*
X145388670Y-94392972D01*
X145498984Y-94334007D01*
X145506328Y-94327980D01*
X145958672Y-94327980D01*
X145966016Y-94334007D01*
X146076330Y-94392972D01*
X146196028Y-94429282D01*
X146320510Y-94441542D01*
X148319490Y-94441542D01*
X148430112Y-94430647D01*
X148418479Y-94442280D01*
X140541765Y-94442280D01*
X140521745Y-94428903D01*
X140206028Y-94298128D01*
X139870865Y-94231460D01*
X139529135Y-94231460D01*
X139193972Y-94298128D01*
X138878255Y-94428903D01*
X138594117Y-94618757D01*
X138352477Y-94860397D01*
X138162623Y-95144535D01*
X138031848Y-95460252D01*
X137965180Y-95795415D01*
X137965180Y-96137145D01*
X138031848Y-96472308D01*
X138162623Y-96788025D01*
X138352477Y-97072163D01*
X138594117Y-97313803D01*
X138878255Y-97503657D01*
X139193972Y-97634432D01*
X139529135Y-97701100D01*
X139870865Y-97701100D01*
X140206028Y-97634432D01*
X140521745Y-97503657D01*
X140541765Y-97490280D01*
X142724867Y-97490280D01*
X142694325Y-97515345D01*
X142614973Y-97612036D01*
X142556008Y-97722350D01*
X142519698Y-97842048D01*
X142507438Y-97966530D01*
X142510510Y-98553270D01*
X142669260Y-98712020D01*
X143891000Y-98712020D01*
X143891000Y-98692020D01*
X144399000Y-98692020D01*
X144399000Y-98712020D01*
X145620740Y-98712020D01*
X145732500Y-98600260D01*
X145844260Y-98712020D01*
X147066000Y-98712020D01*
X147066000Y-98692020D01*
X147574000Y-98692020D01*
X147574000Y-98712020D01*
X148795740Y-98712020D01*
X148954490Y-98553270D01*
X148957562Y-97966530D01*
X148945302Y-97842048D01*
X148908992Y-97722350D01*
X148888322Y-97683679D01*
X165290500Y-97683679D01*
X165290500Y-97896321D01*
X165331985Y-98104878D01*
X165413360Y-98301335D01*
X165531498Y-98478141D01*
X165681859Y-98628502D01*
X165858665Y-98746640D01*
X166055122Y-98828015D01*
X166263679Y-98869500D01*
X166476321Y-98869500D01*
X166684878Y-98828015D01*
X166881335Y-98746640D01*
X167058141Y-98628502D01*
X167208502Y-98478141D01*
X167326640Y-98301335D01*
X167408015Y-98104878D01*
X167449500Y-97896321D01*
X167449500Y-97683679D01*
X167408015Y-97475122D01*
X167326640Y-97278665D01*
X167208502Y-97101859D01*
X167157400Y-97050757D01*
X167157400Y-92401150D01*
X168944052Y-90614500D01*
X169016321Y-90614500D01*
X169224878Y-90573015D01*
X169421335Y-90491640D01*
X169598141Y-90373502D01*
X169748502Y-90223141D01*
X169866640Y-90046335D01*
X169948015Y-89849878D01*
X169989500Y-89641321D01*
X169989500Y-89428679D01*
X169948015Y-89220122D01*
X169866640Y-89023665D01*
X169748502Y-88846859D01*
X169598141Y-88696498D01*
X169421335Y-88578360D01*
X169224878Y-88496985D01*
X169016321Y-88455500D01*
X168803679Y-88455500D01*
X168595122Y-88496985D01*
X168398665Y-88578360D01*
X168221859Y-88696498D01*
X168071498Y-88846859D01*
X167953360Y-89023665D01*
X167871985Y-89220122D01*
X167830500Y-89428679D01*
X167830500Y-89500948D01*
X165840573Y-91490877D01*
X165810532Y-91515531D01*
X165773783Y-91560310D01*
X165712135Y-91635428D01*
X165639018Y-91772218D01*
X165593995Y-91920643D01*
X165578792Y-92075000D01*
X165582601Y-92113673D01*
X165582600Y-97050757D01*
X165531498Y-97101859D01*
X165413360Y-97278665D01*
X165331985Y-97475122D01*
X165290500Y-97683679D01*
X148888322Y-97683679D01*
X148850027Y-97612036D01*
X148770675Y-97515345D01*
X148740133Y-97490280D01*
X148974891Y-97490280D01*
X149049740Y-97497652D01*
X149124589Y-97490280D01*
X149124599Y-97490280D01*
X149348496Y-97468228D01*
X149495261Y-97423707D01*
X149495510Y-97471230D01*
X149654260Y-97629980D01*
X150876000Y-97629980D01*
X150876000Y-96408240D01*
X151384000Y-96408240D01*
X151384000Y-97629980D01*
X152605740Y-97629980D01*
X152717500Y-97518220D01*
X152829260Y-97629980D01*
X154051000Y-97629980D01*
X154051000Y-96408240D01*
X154559000Y-96408240D01*
X154559000Y-97629980D01*
X155780740Y-97629980D01*
X155939490Y-97471230D01*
X155942562Y-96884490D01*
X155930302Y-96760008D01*
X155893992Y-96640310D01*
X155835027Y-96529996D01*
X155755675Y-96433305D01*
X155658984Y-96353953D01*
X155548670Y-96294988D01*
X155428972Y-96258678D01*
X155304490Y-96246418D01*
X154717750Y-96249490D01*
X154559000Y-96408240D01*
X154051000Y-96408240D01*
X153892250Y-96249490D01*
X153305510Y-96246418D01*
X153181028Y-96258678D01*
X153061330Y-96294988D01*
X152951016Y-96353953D01*
X152854325Y-96433305D01*
X152774973Y-96529996D01*
X152717500Y-96637519D01*
X152660027Y-96529996D01*
X152580675Y-96433305D01*
X152483984Y-96353953D01*
X152373670Y-96294988D01*
X152253972Y-96258678D01*
X152129490Y-96246418D01*
X151542750Y-96249490D01*
X151384000Y-96408240D01*
X150876000Y-96408240D01*
X150819521Y-96351761D01*
X151647700Y-95523582D01*
X152129490Y-95523582D01*
X152253972Y-95511322D01*
X152373670Y-95475012D01*
X152483984Y-95416047D01*
X152491328Y-95410020D01*
X152943672Y-95410020D01*
X152951016Y-95416047D01*
X153061330Y-95475012D01*
X153181028Y-95511322D01*
X153305510Y-95523582D01*
X155304490Y-95523582D01*
X155428972Y-95511322D01*
X155548670Y-95475012D01*
X155658984Y-95416047D01*
X155755675Y-95336695D01*
X155835027Y-95240004D01*
X155893992Y-95129690D01*
X155930302Y-95009992D01*
X155942562Y-94885510D01*
X155942562Y-92886530D01*
X155930302Y-92762048D01*
X155893992Y-92642350D01*
X155835027Y-92532036D01*
X155755675Y-92435345D01*
X155658984Y-92355993D01*
X155548670Y-92297028D01*
X155428972Y-92260718D01*
X155304490Y-92248458D01*
X153305510Y-92248458D01*
X153181028Y-92260718D01*
X153061330Y-92297028D01*
X152951016Y-92355993D01*
X152943672Y-92362020D01*
X152491328Y-92362020D01*
X152483984Y-92355993D01*
X152373670Y-92297028D01*
X152253972Y-92260718D01*
X152129490Y-92248458D01*
X150130510Y-92248458D01*
X150006028Y-92260718D01*
X149886330Y-92297028D01*
X149776016Y-92355993D01*
X149679325Y-92435345D01*
X149599973Y-92532036D01*
X149541008Y-92642350D01*
X149504698Y-92762048D01*
X149492438Y-92886530D01*
X149492438Y-93368320D01*
X148946667Y-93914091D01*
X148957562Y-93803470D01*
X148957562Y-91804490D01*
X148945302Y-91680008D01*
X148908992Y-91560310D01*
X148850027Y-91449996D01*
X148770675Y-91353305D01*
X148673984Y-91273953D01*
X148563670Y-91214988D01*
X148443972Y-91178678D01*
X148319490Y-91166418D01*
X146320510Y-91166418D01*
X146196028Y-91178678D01*
X146076330Y-91214988D01*
X145966016Y-91273953D01*
X145958672Y-91279980D01*
X145506328Y-91279980D01*
X145498984Y-91273953D01*
X145388670Y-91214988D01*
X145268972Y-91178678D01*
X145144490Y-91166418D01*
X143145510Y-91166418D01*
X143021028Y-91178678D01*
X142901330Y-91214988D01*
X142791016Y-91273953D01*
X142783672Y-91279980D01*
X142170221Y-91279980D01*
X141372850Y-90482609D01*
X141368152Y-90458992D01*
X141237377Y-90143275D01*
X141047523Y-89859137D01*
X140993896Y-89805510D01*
X142507438Y-89805510D01*
X142519698Y-89929992D01*
X142556008Y-90049690D01*
X142614973Y-90160004D01*
X142694325Y-90256695D01*
X142791016Y-90336047D01*
X142901330Y-90395012D01*
X143021028Y-90431322D01*
X143145510Y-90443582D01*
X143732250Y-90440510D01*
X143891000Y-90281760D01*
X143891000Y-89060020D01*
X144399000Y-89060020D01*
X144399000Y-90281760D01*
X144557750Y-90440510D01*
X145144490Y-90443582D01*
X145268972Y-90431322D01*
X145388670Y-90395012D01*
X145498984Y-90336047D01*
X145595675Y-90256695D01*
X145675027Y-90160004D01*
X145732500Y-90052481D01*
X145789973Y-90160004D01*
X145869325Y-90256695D01*
X145966016Y-90336047D01*
X146076330Y-90395012D01*
X146196028Y-90431322D01*
X146320510Y-90443582D01*
X146907250Y-90440510D01*
X147066000Y-90281760D01*
X147066000Y-89060020D01*
X147574000Y-89060020D01*
X147574000Y-90281760D01*
X147732750Y-90440510D01*
X148319490Y-90443582D01*
X148443972Y-90431322D01*
X148563670Y-90395012D01*
X148673984Y-90336047D01*
X148770675Y-90256695D01*
X148850027Y-90160004D01*
X148908992Y-90049690D01*
X148945302Y-89929992D01*
X148957562Y-89805510D01*
X148954490Y-89218770D01*
X148795740Y-89060020D01*
X147574000Y-89060020D01*
X147066000Y-89060020D01*
X145844260Y-89060020D01*
X145732500Y-89171780D01*
X145620740Y-89060020D01*
X144399000Y-89060020D01*
X143891000Y-89060020D01*
X142669260Y-89060020D01*
X142510510Y-89218770D01*
X142507438Y-89805510D01*
X140993896Y-89805510D01*
X140805883Y-89617497D01*
X140521745Y-89427643D01*
X140206028Y-89296868D01*
X139870865Y-89230200D01*
X139529135Y-89230200D01*
X139193972Y-89296868D01*
X138878255Y-89427643D01*
X138594117Y-89617497D01*
X138352477Y-89859137D01*
X138162623Y-90143275D01*
X138031848Y-90458992D01*
X137965180Y-90794155D01*
X131572000Y-90794155D01*
X131572000Y-89751161D01*
X136271809Y-89751161D01*
X136389890Y-90010196D01*
X136706743Y-90138192D01*
X137042479Y-90201914D01*
X137384195Y-90198913D01*
X137718760Y-90129304D01*
X138006310Y-90010196D01*
X138124391Y-89751161D01*
X137198100Y-88824870D01*
X136271809Y-89751161D01*
X131572000Y-89751161D01*
X131572000Y-88310039D01*
X135461846Y-88310039D01*
X135464847Y-88651755D01*
X135534456Y-88986320D01*
X135653564Y-89273870D01*
X135912599Y-89391951D01*
X136838890Y-88465660D01*
X137557310Y-88465660D01*
X138483601Y-89391951D01*
X138742636Y-89273870D01*
X138870632Y-88957017D01*
X138914958Y-88723470D01*
X149492438Y-88723470D01*
X149504698Y-88847952D01*
X149541008Y-88967650D01*
X149599973Y-89077964D01*
X149679325Y-89174655D01*
X149776016Y-89254007D01*
X149886330Y-89312972D01*
X150006028Y-89349282D01*
X150130510Y-89361542D01*
X150717250Y-89358470D01*
X150876000Y-89199720D01*
X150876000Y-87977980D01*
X151384000Y-87977980D01*
X151384000Y-89199720D01*
X151542750Y-89358470D01*
X152129490Y-89361542D01*
X152253972Y-89349282D01*
X152373670Y-89312972D01*
X152483984Y-89254007D01*
X152580675Y-89174655D01*
X152660027Y-89077964D01*
X152717500Y-88970441D01*
X152774973Y-89077964D01*
X152854325Y-89174655D01*
X152951016Y-89254007D01*
X153061330Y-89312972D01*
X153181028Y-89349282D01*
X153305510Y-89361542D01*
X153892250Y-89358470D01*
X154051000Y-89199720D01*
X154051000Y-87977980D01*
X154559000Y-87977980D01*
X154559000Y-89199720D01*
X154717750Y-89358470D01*
X155304490Y-89361542D01*
X155428972Y-89349282D01*
X155548670Y-89312972D01*
X155658984Y-89254007D01*
X155755675Y-89174655D01*
X155835027Y-89077964D01*
X155893992Y-88967650D01*
X155930302Y-88847952D01*
X155942562Y-88723470D01*
X155939490Y-88136730D01*
X155780740Y-87977980D01*
X154559000Y-87977980D01*
X154051000Y-87977980D01*
X152829260Y-87977980D01*
X152717500Y-88089740D01*
X152605740Y-87977980D01*
X151384000Y-87977980D01*
X150876000Y-87977980D01*
X149654260Y-87977980D01*
X149495510Y-88136730D01*
X149492438Y-88723470D01*
X138914958Y-88723470D01*
X138934354Y-88621281D01*
X138931353Y-88279565D01*
X138861744Y-87945000D01*
X138742636Y-87657450D01*
X138483601Y-87539369D01*
X137557310Y-88465660D01*
X136838890Y-88465660D01*
X135912599Y-87539369D01*
X135653564Y-87657450D01*
X135525568Y-87974303D01*
X135461846Y-88310039D01*
X131572000Y-88310039D01*
X131572000Y-87180159D01*
X136271809Y-87180159D01*
X137198100Y-88106450D01*
X138124391Y-87180159D01*
X138006310Y-86921124D01*
X137689457Y-86793128D01*
X137353721Y-86729406D01*
X137012005Y-86732407D01*
X136677440Y-86802016D01*
X136389890Y-86921124D01*
X136271809Y-87180159D01*
X131572000Y-87180159D01*
X131572000Y-84749901D01*
X136271809Y-84749901D01*
X136389890Y-85008936D01*
X136706743Y-85136932D01*
X137042479Y-85200654D01*
X137384195Y-85197653D01*
X137718760Y-85128044D01*
X138006310Y-85008936D01*
X138124391Y-84749901D01*
X137198100Y-83823610D01*
X136271809Y-84749901D01*
X131572000Y-84749901D01*
X131572000Y-83308779D01*
X135461846Y-83308779D01*
X135464847Y-83650495D01*
X135534456Y-83985060D01*
X135653564Y-84272610D01*
X135912599Y-84390691D01*
X136838890Y-83464400D01*
X137557310Y-83464400D01*
X138483601Y-84390691D01*
X138742636Y-84272610D01*
X138870632Y-83955757D01*
X138934354Y-83620021D01*
X138931353Y-83278305D01*
X138861744Y-82943740D01*
X138742636Y-82656190D01*
X138483601Y-82538109D01*
X137557310Y-83464400D01*
X136838890Y-83464400D01*
X135912599Y-82538109D01*
X135653564Y-82656190D01*
X135525568Y-82973043D01*
X135461846Y-83308779D01*
X131572000Y-83308779D01*
X131572000Y-82178899D01*
X136271809Y-82178899D01*
X137198100Y-83105190D01*
X138124391Y-82178899D01*
X138006310Y-81919864D01*
X137689457Y-81791868D01*
X137353721Y-81728146D01*
X137012005Y-81731147D01*
X136677440Y-81800756D01*
X136389890Y-81919864D01*
X136271809Y-82178899D01*
X131572000Y-82178899D01*
X131572000Y-80794175D01*
X137965180Y-80794175D01*
X137965180Y-81135905D01*
X138031848Y-81471068D01*
X138162623Y-81786785D01*
X138352477Y-82070923D01*
X138594117Y-82312563D01*
X138878255Y-82502417D01*
X139193972Y-82633192D01*
X139217588Y-82637890D01*
X140248380Y-83668682D01*
X140296096Y-83726824D01*
X140354238Y-83774540D01*
X140354242Y-83774544D01*
X140528154Y-83917270D01*
X140729286Y-84024777D01*
X140792909Y-84058784D01*
X141080184Y-84145928D01*
X141304081Y-84167980D01*
X141304089Y-84167980D01*
X141378940Y-84175352D01*
X141453791Y-84167980D01*
X142783672Y-84167980D01*
X142791016Y-84174007D01*
X142901330Y-84232972D01*
X143021028Y-84269282D01*
X143145510Y-84281542D01*
X145144490Y-84281542D01*
X145268972Y-84269282D01*
X145388670Y-84232972D01*
X145498984Y-84174007D01*
X145506328Y-84167980D01*
X145958672Y-84167980D01*
X145966016Y-84174007D01*
X146076330Y-84232972D01*
X146196028Y-84269282D01*
X146320510Y-84281542D01*
X147878197Y-84281542D01*
X147717439Y-84442300D01*
X140541765Y-84442300D01*
X140521745Y-84428923D01*
X140206028Y-84298148D01*
X139870865Y-84231480D01*
X139529135Y-84231480D01*
X139193972Y-84298148D01*
X138878255Y-84428923D01*
X138594117Y-84618777D01*
X138352477Y-84860417D01*
X138162623Y-85144555D01*
X138031848Y-85460272D01*
X137965180Y-85795435D01*
X137965180Y-86137165D01*
X138031848Y-86472328D01*
X138162623Y-86788045D01*
X138352477Y-87072183D01*
X138594117Y-87313823D01*
X138878255Y-87503677D01*
X139193972Y-87634452D01*
X139529135Y-87701120D01*
X139870865Y-87701120D01*
X140206028Y-87634452D01*
X140521745Y-87503677D01*
X140541765Y-87490300D01*
X142594520Y-87490300D01*
X142556008Y-87562350D01*
X142519698Y-87682048D01*
X142507438Y-87806530D01*
X142510510Y-88393270D01*
X142669260Y-88552020D01*
X143891000Y-88552020D01*
X143891000Y-88532020D01*
X144399000Y-88532020D01*
X144399000Y-88552020D01*
X145620740Y-88552020D01*
X145732500Y-88440260D01*
X145844260Y-88552020D01*
X147066000Y-88552020D01*
X147066000Y-88532020D01*
X147574000Y-88532020D01*
X147574000Y-88552020D01*
X148795740Y-88552020D01*
X148954490Y-88393270D01*
X148957562Y-87806530D01*
X148945302Y-87682048D01*
X148908992Y-87562350D01*
X148850027Y-87452036D01*
X148820302Y-87415816D01*
X148934731Y-87381104D01*
X149199485Y-87239590D01*
X149431544Y-87049144D01*
X149479264Y-86990997D01*
X149493757Y-86976504D01*
X149495510Y-87311230D01*
X149654260Y-87469980D01*
X150876000Y-87469980D01*
X150876000Y-86248240D01*
X151384000Y-86248240D01*
X151384000Y-87469980D01*
X152605740Y-87469980D01*
X152717500Y-87358220D01*
X152829260Y-87469980D01*
X154051000Y-87469980D01*
X154051000Y-86248240D01*
X154559000Y-86248240D01*
X154559000Y-87469980D01*
X155780740Y-87469980D01*
X155939490Y-87311230D01*
X155942562Y-86724490D01*
X155930302Y-86600008D01*
X155893992Y-86480310D01*
X155835027Y-86369996D01*
X155755675Y-86273305D01*
X155658984Y-86193953D01*
X155548670Y-86134988D01*
X155428972Y-86098678D01*
X155304490Y-86086418D01*
X154717750Y-86089490D01*
X154559000Y-86248240D01*
X154051000Y-86248240D01*
X153892250Y-86089490D01*
X153305510Y-86086418D01*
X153181028Y-86098678D01*
X153061330Y-86134988D01*
X152951016Y-86193953D01*
X152854325Y-86273305D01*
X152774973Y-86369996D01*
X152717500Y-86477519D01*
X152660027Y-86369996D01*
X152580675Y-86273305D01*
X152483984Y-86193953D01*
X152373670Y-86134988D01*
X152253972Y-86098678D01*
X152129490Y-86086418D01*
X151542750Y-86089490D01*
X151384000Y-86248240D01*
X150876000Y-86248240D01*
X150717250Y-86089490D01*
X150382524Y-86087737D01*
X151106679Y-85363582D01*
X152129490Y-85363582D01*
X152253972Y-85351322D01*
X152373670Y-85315012D01*
X152483984Y-85256047D01*
X152491328Y-85250020D01*
X152943672Y-85250020D01*
X152951016Y-85256047D01*
X153061330Y-85315012D01*
X153181028Y-85351322D01*
X153305510Y-85363582D01*
X155304490Y-85363582D01*
X155428972Y-85351322D01*
X155548670Y-85315012D01*
X155658984Y-85256047D01*
X155755675Y-85176695D01*
X155835027Y-85080004D01*
X155893992Y-84969690D01*
X155930302Y-84849992D01*
X155942562Y-84725510D01*
X155942562Y-82726530D01*
X155930302Y-82602048D01*
X155893992Y-82482350D01*
X155835027Y-82372036D01*
X155755675Y-82275345D01*
X155658984Y-82195993D01*
X155548670Y-82137028D01*
X155428972Y-82100718D01*
X155304490Y-82088458D01*
X153305510Y-82088458D01*
X153181028Y-82100718D01*
X153061330Y-82137028D01*
X152951016Y-82195993D01*
X152943672Y-82202020D01*
X152491328Y-82202020D01*
X152483984Y-82195993D01*
X152373670Y-82137028D01*
X152253972Y-82100718D01*
X152129490Y-82088458D01*
X150130510Y-82088458D01*
X150006028Y-82100718D01*
X149886330Y-82137028D01*
X149776016Y-82195993D01*
X149679325Y-82275345D01*
X149599973Y-82372036D01*
X149541008Y-82482350D01*
X149504698Y-82602048D01*
X149499899Y-82650776D01*
X149458416Y-82701323D01*
X148957562Y-83202177D01*
X148957562Y-81644490D01*
X148945302Y-81520008D01*
X148908992Y-81400310D01*
X148850027Y-81289996D01*
X148770675Y-81193305D01*
X148673984Y-81113953D01*
X148563670Y-81054988D01*
X148443972Y-81018678D01*
X148319490Y-81006418D01*
X146320510Y-81006418D01*
X146196028Y-81018678D01*
X146076330Y-81054988D01*
X145966016Y-81113953D01*
X145958672Y-81119980D01*
X145506328Y-81119980D01*
X145498984Y-81113953D01*
X145388670Y-81054988D01*
X145268972Y-81018678D01*
X145144490Y-81006418D01*
X143145510Y-81006418D01*
X143021028Y-81018678D01*
X142901330Y-81054988D01*
X142791016Y-81113953D01*
X142783672Y-81119980D01*
X142010202Y-81119980D01*
X141372850Y-80482628D01*
X141368152Y-80459012D01*
X141237377Y-80143295D01*
X141047523Y-79859157D01*
X140833876Y-79645510D01*
X142507438Y-79645510D01*
X142519698Y-79769992D01*
X142556008Y-79889690D01*
X142614973Y-80000004D01*
X142694325Y-80096695D01*
X142791016Y-80176047D01*
X142901330Y-80235012D01*
X143021028Y-80271322D01*
X143145510Y-80283582D01*
X143732250Y-80280510D01*
X143891000Y-80121760D01*
X143891000Y-78900020D01*
X144399000Y-78900020D01*
X144399000Y-80121760D01*
X144557750Y-80280510D01*
X145144490Y-80283582D01*
X145268972Y-80271322D01*
X145388670Y-80235012D01*
X145498984Y-80176047D01*
X145595675Y-80096695D01*
X145675027Y-80000004D01*
X145732500Y-79892481D01*
X145789973Y-80000004D01*
X145869325Y-80096695D01*
X145966016Y-80176047D01*
X146076330Y-80235012D01*
X146196028Y-80271322D01*
X146320510Y-80283582D01*
X146907250Y-80280510D01*
X147066000Y-80121760D01*
X147066000Y-78900020D01*
X147574000Y-78900020D01*
X147574000Y-80121760D01*
X147732750Y-80280510D01*
X148319490Y-80283582D01*
X148443972Y-80271322D01*
X148563670Y-80235012D01*
X148673984Y-80176047D01*
X148770675Y-80096695D01*
X148850027Y-80000004D01*
X148908992Y-79889690D01*
X148926046Y-79833470D01*
X149492438Y-79833470D01*
X149504698Y-79957952D01*
X149541008Y-80077650D01*
X149599973Y-80187964D01*
X149679325Y-80284655D01*
X149776016Y-80364007D01*
X149886330Y-80422972D01*
X150006028Y-80459282D01*
X150130510Y-80471542D01*
X150717250Y-80468470D01*
X150876000Y-80309720D01*
X150876000Y-79087980D01*
X151384000Y-79087980D01*
X151384000Y-80309720D01*
X151542750Y-80468470D01*
X152129490Y-80471542D01*
X152253972Y-80459282D01*
X152373670Y-80422972D01*
X152483984Y-80364007D01*
X152580675Y-80284655D01*
X152660027Y-80187964D01*
X152717500Y-80080441D01*
X152774973Y-80187964D01*
X152854325Y-80284655D01*
X152951016Y-80364007D01*
X153061330Y-80422972D01*
X153181028Y-80459282D01*
X153305510Y-80471542D01*
X153892250Y-80468470D01*
X154051000Y-80309720D01*
X154051000Y-79087980D01*
X154559000Y-79087980D01*
X154559000Y-80309720D01*
X154717750Y-80468470D01*
X155304490Y-80471542D01*
X155428972Y-80459282D01*
X155548670Y-80422972D01*
X155658984Y-80364007D01*
X155755675Y-80284655D01*
X155835027Y-80187964D01*
X155893992Y-80077650D01*
X155930302Y-79957952D01*
X155942562Y-79833470D01*
X155939490Y-79246730D01*
X155780740Y-79087980D01*
X154559000Y-79087980D01*
X154051000Y-79087980D01*
X152829260Y-79087980D01*
X152717500Y-79199740D01*
X152605740Y-79087980D01*
X151384000Y-79087980D01*
X150876000Y-79087980D01*
X149654260Y-79087980D01*
X149495510Y-79246730D01*
X149492438Y-79833470D01*
X148926046Y-79833470D01*
X148945302Y-79769992D01*
X148957562Y-79645510D01*
X148954490Y-79058770D01*
X148795740Y-78900020D01*
X147574000Y-78900020D01*
X147066000Y-78900020D01*
X145844260Y-78900020D01*
X145732500Y-79011780D01*
X145620740Y-78900020D01*
X144399000Y-78900020D01*
X143891000Y-78900020D01*
X142669260Y-78900020D01*
X142510510Y-79058770D01*
X142507438Y-79645510D01*
X140833876Y-79645510D01*
X140805883Y-79617517D01*
X140521745Y-79427663D01*
X140206028Y-79296888D01*
X139870865Y-79230220D01*
X139529135Y-79230220D01*
X139193972Y-79296888D01*
X138878255Y-79427663D01*
X138594117Y-79617517D01*
X138352477Y-79859157D01*
X138162623Y-80143295D01*
X138031848Y-80459012D01*
X137965180Y-80794175D01*
X131572000Y-80794175D01*
X131572000Y-79751181D01*
X136271809Y-79751181D01*
X136389890Y-80010216D01*
X136706743Y-80138212D01*
X137042479Y-80201934D01*
X137384195Y-80198933D01*
X137718760Y-80129324D01*
X138006310Y-80010216D01*
X138124391Y-79751181D01*
X137198100Y-78824890D01*
X136271809Y-79751181D01*
X131572000Y-79751181D01*
X131572000Y-78310059D01*
X135461846Y-78310059D01*
X135464847Y-78651775D01*
X135534456Y-78986340D01*
X135653564Y-79273890D01*
X135912599Y-79391971D01*
X136838890Y-78465680D01*
X137557310Y-78465680D01*
X138483601Y-79391971D01*
X138742636Y-79273890D01*
X138870632Y-78957037D01*
X138934354Y-78621301D01*
X138931353Y-78279585D01*
X138861744Y-77945020D01*
X138742636Y-77657470D01*
X138483601Y-77539389D01*
X137557310Y-78465680D01*
X136838890Y-78465680D01*
X135912599Y-77539389D01*
X135653564Y-77657470D01*
X135525568Y-77974323D01*
X135461846Y-78310059D01*
X131572000Y-78310059D01*
X131572000Y-77180179D01*
X136271809Y-77180179D01*
X137198100Y-78106470D01*
X138124391Y-77180179D01*
X138006310Y-76921144D01*
X137689457Y-76793148D01*
X137353721Y-76729426D01*
X137012005Y-76732427D01*
X136677440Y-76802036D01*
X136389890Y-76921144D01*
X136271809Y-77180179D01*
X131572000Y-77180179D01*
X131572000Y-74749921D01*
X136271809Y-74749921D01*
X136389890Y-75008956D01*
X136706743Y-75136952D01*
X137042479Y-75200674D01*
X137384195Y-75197673D01*
X137718760Y-75128064D01*
X138006310Y-75008956D01*
X138124391Y-74749921D01*
X137198100Y-73823630D01*
X136271809Y-74749921D01*
X131572000Y-74749921D01*
X131572000Y-73308799D01*
X135461846Y-73308799D01*
X135464847Y-73650515D01*
X135534456Y-73985080D01*
X135653564Y-74272630D01*
X135912599Y-74390711D01*
X136838890Y-73464420D01*
X137557310Y-73464420D01*
X138483601Y-74390711D01*
X138742636Y-74272630D01*
X138870632Y-73955777D01*
X138934354Y-73620041D01*
X138931353Y-73278325D01*
X138861744Y-72943760D01*
X138742636Y-72656210D01*
X138483601Y-72538129D01*
X137557310Y-73464420D01*
X136838890Y-73464420D01*
X135912599Y-72538129D01*
X135653564Y-72656210D01*
X135525568Y-72973063D01*
X135461846Y-73308799D01*
X131572000Y-73308799D01*
X131572000Y-72178919D01*
X136271809Y-72178919D01*
X137198100Y-73105210D01*
X138124391Y-72178919D01*
X138006310Y-71919884D01*
X137689457Y-71791888D01*
X137353721Y-71728166D01*
X137012005Y-71731167D01*
X136677440Y-71800776D01*
X136389890Y-71919884D01*
X136271809Y-72178919D01*
X131572000Y-72178919D01*
X131572000Y-70794195D01*
X137965180Y-70794195D01*
X137965180Y-71135925D01*
X138031848Y-71471088D01*
X138162623Y-71786805D01*
X138352477Y-72070943D01*
X138594117Y-72312583D01*
X138878255Y-72502437D01*
X139193972Y-72633212D01*
X139217588Y-72637910D01*
X140723360Y-74143682D01*
X140771076Y-74201824D01*
X140829218Y-74249540D01*
X140829222Y-74249544D01*
X141003134Y-74392270D01*
X141096771Y-74442320D01*
X140541765Y-74442320D01*
X140521745Y-74428943D01*
X140206028Y-74298168D01*
X139870865Y-74231500D01*
X139529135Y-74231500D01*
X139193972Y-74298168D01*
X138878255Y-74428943D01*
X138594117Y-74618797D01*
X138352477Y-74860437D01*
X138162623Y-75144575D01*
X138031848Y-75460292D01*
X137965180Y-75795455D01*
X137965180Y-76137185D01*
X138031848Y-76472348D01*
X138162623Y-76788065D01*
X138352477Y-77072203D01*
X138594117Y-77313843D01*
X138878255Y-77503697D01*
X139193972Y-77634472D01*
X139529135Y-77701140D01*
X139870865Y-77701140D01*
X140206028Y-77634472D01*
X140521745Y-77503697D01*
X140541765Y-77490320D01*
X142529323Y-77490320D01*
X142519698Y-77522048D01*
X142507438Y-77646530D01*
X142510510Y-78233270D01*
X142669260Y-78392020D01*
X143891000Y-78392020D01*
X143891000Y-78372020D01*
X144399000Y-78372020D01*
X144399000Y-78392020D01*
X145620740Y-78392020D01*
X145732500Y-78280260D01*
X145844260Y-78392020D01*
X147066000Y-78392020D01*
X147066000Y-78372020D01*
X147574000Y-78372020D01*
X147574000Y-78392020D01*
X148795740Y-78392020D01*
X148954490Y-78233270D01*
X148957562Y-77646530D01*
X148945302Y-77522048D01*
X148935677Y-77490320D01*
X149594455Y-77490320D01*
X149541008Y-77590310D01*
X149504698Y-77710008D01*
X149492438Y-77834490D01*
X149495510Y-78421230D01*
X149654260Y-78579980D01*
X150876000Y-78579980D01*
X150876000Y-77358240D01*
X151384000Y-77358240D01*
X151384000Y-78579980D01*
X152605740Y-78579980D01*
X152717500Y-78468220D01*
X152829260Y-78579980D01*
X154051000Y-78579980D01*
X154051000Y-77358240D01*
X154559000Y-77358240D01*
X154559000Y-78579980D01*
X155780740Y-78579980D01*
X155939490Y-78421230D01*
X155942562Y-77834490D01*
X155930302Y-77710008D01*
X155893992Y-77590310D01*
X155835027Y-77479996D01*
X155755675Y-77383305D01*
X155658984Y-77303953D01*
X155548670Y-77244988D01*
X155428972Y-77208678D01*
X155304490Y-77196418D01*
X154717750Y-77199490D01*
X154559000Y-77358240D01*
X154051000Y-77358240D01*
X153892250Y-77199490D01*
X153305510Y-77196418D01*
X153181028Y-77208678D01*
X153061330Y-77244988D01*
X152951016Y-77303953D01*
X152854325Y-77383305D01*
X152774973Y-77479996D01*
X152717500Y-77587519D01*
X152660027Y-77479996D01*
X152580675Y-77383305D01*
X152483984Y-77303953D01*
X152373670Y-77244988D01*
X152253972Y-77208678D01*
X152129490Y-77196418D01*
X151542750Y-77199490D01*
X151384000Y-77358240D01*
X150876000Y-77358240D01*
X150789804Y-77272044D01*
X150850485Y-77239610D01*
X151082544Y-77049164D01*
X151130264Y-76991017D01*
X151647700Y-76473582D01*
X152129490Y-76473582D01*
X152253972Y-76461322D01*
X152373670Y-76425012D01*
X152483984Y-76366047D01*
X152491328Y-76360020D01*
X152943672Y-76360020D01*
X152951016Y-76366047D01*
X153061330Y-76425012D01*
X153181028Y-76461322D01*
X153305510Y-76473582D01*
X155304490Y-76473582D01*
X155428972Y-76461322D01*
X155548670Y-76425012D01*
X155658984Y-76366047D01*
X155755675Y-76286695D01*
X155835027Y-76190004D01*
X155893992Y-76079690D01*
X155930302Y-75959992D01*
X155942562Y-75835510D01*
X155942562Y-73836530D01*
X155930302Y-73712048D01*
X155893992Y-73592350D01*
X155835027Y-73482036D01*
X155755675Y-73385345D01*
X155658984Y-73305993D01*
X155548670Y-73247028D01*
X155428972Y-73210718D01*
X155304490Y-73198458D01*
X153305510Y-73198458D01*
X153181028Y-73210718D01*
X153061330Y-73247028D01*
X152951016Y-73305993D01*
X152943672Y-73312020D01*
X152491328Y-73312020D01*
X152483984Y-73305993D01*
X152373670Y-73247028D01*
X152253972Y-73210718D01*
X152129490Y-73198458D01*
X150130510Y-73198458D01*
X150006028Y-73210718D01*
X149886330Y-73247028D01*
X149776016Y-73305993D01*
X149679325Y-73385345D01*
X149599973Y-73482036D01*
X149541008Y-73592350D01*
X149504698Y-73712048D01*
X149492438Y-73836530D01*
X149492438Y-74318320D01*
X149368439Y-74442320D01*
X148866407Y-74442320D01*
X148908992Y-74362650D01*
X148945302Y-74242952D01*
X148957562Y-74118470D01*
X148957562Y-72119490D01*
X148945302Y-71995008D01*
X148908992Y-71875310D01*
X148850027Y-71764996D01*
X148770675Y-71668305D01*
X148673984Y-71588953D01*
X148563670Y-71529988D01*
X148443972Y-71493678D01*
X148319490Y-71481418D01*
X146320510Y-71481418D01*
X146196028Y-71493678D01*
X146076330Y-71529988D01*
X145966016Y-71588953D01*
X145958672Y-71594980D01*
X145506328Y-71594980D01*
X145498984Y-71588953D01*
X145388670Y-71529988D01*
X145268972Y-71493678D01*
X145144490Y-71481418D01*
X143145510Y-71481418D01*
X143021028Y-71493678D01*
X142901330Y-71529988D01*
X142791016Y-71588953D01*
X142783672Y-71594980D01*
X142485182Y-71594980D01*
X141372850Y-70482648D01*
X141368152Y-70459032D01*
X141237377Y-70143315D01*
X141222140Y-70120510D01*
X142507438Y-70120510D01*
X142519698Y-70244992D01*
X142556008Y-70364690D01*
X142614973Y-70475004D01*
X142694325Y-70571695D01*
X142791016Y-70651047D01*
X142901330Y-70710012D01*
X143021028Y-70746322D01*
X143145510Y-70758582D01*
X143732250Y-70755510D01*
X143891000Y-70596760D01*
X143891000Y-69375020D01*
X144399000Y-69375020D01*
X144399000Y-70596760D01*
X144557750Y-70755510D01*
X145144490Y-70758582D01*
X145268972Y-70746322D01*
X145388670Y-70710012D01*
X145498984Y-70651047D01*
X145595675Y-70571695D01*
X145675027Y-70475004D01*
X145732500Y-70367481D01*
X145789973Y-70475004D01*
X145869325Y-70571695D01*
X145966016Y-70651047D01*
X146076330Y-70710012D01*
X146196028Y-70746322D01*
X146320510Y-70758582D01*
X146907250Y-70755510D01*
X147066000Y-70596760D01*
X147066000Y-69375020D01*
X147574000Y-69375020D01*
X147574000Y-70596760D01*
X147732750Y-70755510D01*
X148319490Y-70758582D01*
X148443972Y-70746322D01*
X148563670Y-70710012D01*
X148673984Y-70651047D01*
X148770675Y-70571695D01*
X148850027Y-70475004D01*
X148908992Y-70364690D01*
X148926046Y-70308470D01*
X149492438Y-70308470D01*
X149504698Y-70432952D01*
X149541008Y-70552650D01*
X149599973Y-70662964D01*
X149679325Y-70759655D01*
X149776016Y-70839007D01*
X149886330Y-70897972D01*
X150006028Y-70934282D01*
X150130510Y-70946542D01*
X150717250Y-70943470D01*
X150876000Y-70784720D01*
X150876000Y-69562980D01*
X151384000Y-69562980D01*
X151384000Y-70784720D01*
X151542750Y-70943470D01*
X152129490Y-70946542D01*
X152253972Y-70934282D01*
X152373670Y-70897972D01*
X152483984Y-70839007D01*
X152580675Y-70759655D01*
X152660027Y-70662964D01*
X152717500Y-70555441D01*
X152774973Y-70662964D01*
X152854325Y-70759655D01*
X152951016Y-70839007D01*
X153061330Y-70897972D01*
X153181028Y-70934282D01*
X153305510Y-70946542D01*
X153892250Y-70943470D01*
X154051000Y-70784720D01*
X154051000Y-69562980D01*
X154559000Y-69562980D01*
X154559000Y-70784720D01*
X154717750Y-70943470D01*
X155304490Y-70946542D01*
X155428972Y-70934282D01*
X155548670Y-70897972D01*
X155658984Y-70839007D01*
X155755675Y-70759655D01*
X155835027Y-70662964D01*
X155893992Y-70552650D01*
X155930302Y-70432952D01*
X155942562Y-70308470D01*
X155939490Y-69721730D01*
X155780740Y-69562980D01*
X154559000Y-69562980D01*
X154051000Y-69562980D01*
X152829260Y-69562980D01*
X152717500Y-69674740D01*
X152605740Y-69562980D01*
X151384000Y-69562980D01*
X150876000Y-69562980D01*
X149654260Y-69562980D01*
X149495510Y-69721730D01*
X149492438Y-70308470D01*
X148926046Y-70308470D01*
X148945302Y-70244992D01*
X148957562Y-70120510D01*
X148954490Y-69533770D01*
X148795740Y-69375020D01*
X147574000Y-69375020D01*
X147066000Y-69375020D01*
X145844260Y-69375020D01*
X145732500Y-69486780D01*
X145620740Y-69375020D01*
X144399000Y-69375020D01*
X143891000Y-69375020D01*
X142669260Y-69375020D01*
X142510510Y-69533770D01*
X142507438Y-70120510D01*
X141222140Y-70120510D01*
X141047523Y-69859177D01*
X140805883Y-69617537D01*
X140521745Y-69427683D01*
X140206028Y-69296908D01*
X139870865Y-69230240D01*
X139529135Y-69230240D01*
X139193972Y-69296908D01*
X138878255Y-69427683D01*
X138594117Y-69617537D01*
X138352477Y-69859177D01*
X138162623Y-70143315D01*
X138031848Y-70459032D01*
X137965180Y-70794195D01*
X131572000Y-70794195D01*
X131572000Y-69751201D01*
X136271809Y-69751201D01*
X136389890Y-70010236D01*
X136706743Y-70138232D01*
X137042479Y-70201954D01*
X137384195Y-70198953D01*
X137718760Y-70129344D01*
X138006310Y-70010236D01*
X138124391Y-69751201D01*
X137198100Y-68824910D01*
X136271809Y-69751201D01*
X131572000Y-69751201D01*
X131572000Y-68310079D01*
X135461846Y-68310079D01*
X135464847Y-68651795D01*
X135534456Y-68986360D01*
X135653564Y-69273910D01*
X135912599Y-69391991D01*
X136838890Y-68465700D01*
X137557310Y-68465700D01*
X138483601Y-69391991D01*
X138742636Y-69273910D01*
X138870632Y-68957057D01*
X138934354Y-68621321D01*
X138931353Y-68279605D01*
X138898465Y-68121530D01*
X142507438Y-68121530D01*
X142510510Y-68708270D01*
X142669260Y-68867020D01*
X143891000Y-68867020D01*
X143891000Y-67645280D01*
X144399000Y-67645280D01*
X144399000Y-68867020D01*
X145620740Y-68867020D01*
X145732500Y-68755260D01*
X145844260Y-68867020D01*
X147066000Y-68867020D01*
X147066000Y-67645280D01*
X147574000Y-67645280D01*
X147574000Y-68867020D01*
X148795740Y-68867020D01*
X148954490Y-68708270D01*
X148956577Y-68309490D01*
X149492438Y-68309490D01*
X149495510Y-68896230D01*
X149654260Y-69054980D01*
X150876000Y-69054980D01*
X150876000Y-67833240D01*
X151384000Y-67833240D01*
X151384000Y-69054980D01*
X152605740Y-69054980D01*
X152717500Y-68943220D01*
X152829260Y-69054980D01*
X154051000Y-69054980D01*
X154051000Y-67833240D01*
X154559000Y-67833240D01*
X154559000Y-69054980D01*
X155780740Y-69054980D01*
X155939490Y-68896230D01*
X155942562Y-68309490D01*
X155930302Y-68185008D01*
X155893992Y-68065310D01*
X155835027Y-67954996D01*
X155755675Y-67858305D01*
X155658984Y-67778953D01*
X155548670Y-67719988D01*
X155428972Y-67683678D01*
X155304490Y-67671418D01*
X154717750Y-67674490D01*
X154559000Y-67833240D01*
X154051000Y-67833240D01*
X153892250Y-67674490D01*
X153305510Y-67671418D01*
X153181028Y-67683678D01*
X153061330Y-67719988D01*
X152951016Y-67778953D01*
X152854325Y-67858305D01*
X152774973Y-67954996D01*
X152717500Y-68062519D01*
X152660027Y-67954996D01*
X152580675Y-67858305D01*
X152483984Y-67778953D01*
X152373670Y-67719988D01*
X152253972Y-67683678D01*
X152129490Y-67671418D01*
X151542750Y-67674490D01*
X151384000Y-67833240D01*
X150876000Y-67833240D01*
X150717250Y-67674490D01*
X150130510Y-67671418D01*
X150006028Y-67683678D01*
X149886330Y-67719988D01*
X149776016Y-67778953D01*
X149679325Y-67858305D01*
X149599973Y-67954996D01*
X149541008Y-68065310D01*
X149504698Y-68185008D01*
X149492438Y-68309490D01*
X148956577Y-68309490D01*
X148957562Y-68121530D01*
X148945302Y-67997048D01*
X148908992Y-67877350D01*
X148850027Y-67767036D01*
X148770675Y-67670345D01*
X148673984Y-67590993D01*
X148563670Y-67532028D01*
X148443972Y-67495718D01*
X148319490Y-67483458D01*
X147732750Y-67486530D01*
X147574000Y-67645280D01*
X147066000Y-67645280D01*
X146907250Y-67486530D01*
X146320510Y-67483458D01*
X146196028Y-67495718D01*
X146076330Y-67532028D01*
X145966016Y-67590993D01*
X145869325Y-67670345D01*
X145789973Y-67767036D01*
X145732500Y-67874559D01*
X145675027Y-67767036D01*
X145595675Y-67670345D01*
X145498984Y-67590993D01*
X145388670Y-67532028D01*
X145268972Y-67495718D01*
X145144490Y-67483458D01*
X144557750Y-67486530D01*
X144399000Y-67645280D01*
X143891000Y-67645280D01*
X143732250Y-67486530D01*
X143145510Y-67483458D01*
X143021028Y-67495718D01*
X142901330Y-67532028D01*
X142791016Y-67590993D01*
X142694325Y-67670345D01*
X142614973Y-67767036D01*
X142556008Y-67877350D01*
X142519698Y-67997048D01*
X142507438Y-68121530D01*
X138898465Y-68121530D01*
X138861744Y-67945040D01*
X138742636Y-67657490D01*
X138483601Y-67539409D01*
X137557310Y-68465700D01*
X136838890Y-68465700D01*
X135912599Y-67539409D01*
X135653564Y-67657490D01*
X135525568Y-67974343D01*
X135461846Y-68310079D01*
X131572000Y-68310079D01*
X131572000Y-67180199D01*
X136271809Y-67180199D01*
X137198100Y-68106490D01*
X138124391Y-67180199D01*
X138006310Y-66921164D01*
X137689457Y-66793168D01*
X137353721Y-66729446D01*
X137012005Y-66732447D01*
X136677440Y-66802056D01*
X136389890Y-66921164D01*
X136271809Y-67180199D01*
X131572000Y-67180199D01*
X131572000Y-65795475D01*
X137965180Y-65795475D01*
X137965180Y-66137205D01*
X138031848Y-66472368D01*
X138162623Y-66788085D01*
X138352477Y-67072223D01*
X138594117Y-67313863D01*
X138878255Y-67503717D01*
X139193972Y-67634492D01*
X139529135Y-67701160D01*
X139870865Y-67701160D01*
X140206028Y-67634492D01*
X140521745Y-67503717D01*
X140805883Y-67313863D01*
X141047523Y-67072223D01*
X141206016Y-66835020D01*
X149768672Y-66835020D01*
X149776016Y-66841047D01*
X149886330Y-66900012D01*
X150006028Y-66936322D01*
X150130510Y-66948582D01*
X152129490Y-66948582D01*
X152253972Y-66936322D01*
X152373670Y-66900012D01*
X152483984Y-66841047D01*
X152491328Y-66835020D01*
X152943672Y-66835020D01*
X152951016Y-66841047D01*
X153061330Y-66900012D01*
X153181028Y-66936322D01*
X153305510Y-66948582D01*
X155304490Y-66948582D01*
X155428972Y-66936322D01*
X155548670Y-66900012D01*
X155658984Y-66841047D01*
X155755675Y-66761695D01*
X155835027Y-66665004D01*
X155893992Y-66554690D01*
X155930302Y-66434992D01*
X155942562Y-66310510D01*
X155942562Y-64311530D01*
X155930302Y-64187048D01*
X155893992Y-64067350D01*
X155835027Y-63957036D01*
X155755675Y-63860345D01*
X155658984Y-63780993D01*
X155548670Y-63722028D01*
X155428972Y-63685718D01*
X155304490Y-63673458D01*
X153305510Y-63673458D01*
X153181028Y-63685718D01*
X153061330Y-63722028D01*
X152951016Y-63780993D01*
X152943672Y-63787020D01*
X152491328Y-63787020D01*
X152483984Y-63780993D01*
X152373670Y-63722028D01*
X152253972Y-63685718D01*
X152129490Y-63673458D01*
X150130510Y-63673458D01*
X150006028Y-63685718D01*
X149886330Y-63722028D01*
X149776016Y-63780993D01*
X149768672Y-63787020D01*
X140430168Y-63787020D01*
X140355319Y-63779648D01*
X140280470Y-63787020D01*
X140280461Y-63787020D01*
X140056564Y-63809072D01*
X139769289Y-63896216D01*
X139504535Y-64037730D01*
X139272476Y-64228176D01*
X139224752Y-64286328D01*
X139217590Y-64293490D01*
X139193972Y-64298188D01*
X138878255Y-64428963D01*
X138594117Y-64618817D01*
X138352477Y-64860457D01*
X138162623Y-65144595D01*
X138031848Y-65460312D01*
X137965180Y-65795475D01*
X131572000Y-65795475D01*
X131572000Y-64749941D01*
X136274349Y-64749941D01*
X136392430Y-65008976D01*
X136709283Y-65136972D01*
X137045019Y-65200694D01*
X137386735Y-65197693D01*
X137721300Y-65128084D01*
X138008850Y-65008976D01*
X138126931Y-64749941D01*
X137200640Y-63823650D01*
X136274349Y-64749941D01*
X131572000Y-64749941D01*
X131572000Y-63308819D01*
X135464386Y-63308819D01*
X135467387Y-63650535D01*
X135536996Y-63985100D01*
X135656104Y-64272650D01*
X135915139Y-64390731D01*
X136841430Y-63464440D01*
X137559850Y-63464440D01*
X138486141Y-64390731D01*
X138745176Y-64272650D01*
X138873172Y-63955797D01*
X138936894Y-63620061D01*
X138933893Y-63278345D01*
X138864284Y-62943780D01*
X138745176Y-62656230D01*
X138486141Y-62538149D01*
X137559850Y-63464440D01*
X136841430Y-63464440D01*
X135915139Y-62538149D01*
X135656104Y-62656230D01*
X135528108Y-62973083D01*
X135464386Y-63308819D01*
X131572000Y-63308819D01*
X131572000Y-62178939D01*
X136274349Y-62178939D01*
X137200640Y-63105230D01*
X138055289Y-62250581D01*
X138773709Y-62250581D01*
X138891790Y-62509616D01*
X139208643Y-62637612D01*
X139544379Y-62701334D01*
X139886095Y-62698333D01*
X140220660Y-62628724D01*
X140508210Y-62509616D01*
X140626291Y-62250581D01*
X139700000Y-61324290D01*
X138773709Y-62250581D01*
X138055289Y-62250581D01*
X138126931Y-62178939D01*
X138008850Y-61919904D01*
X137691997Y-61791908D01*
X137356261Y-61728186D01*
X137014545Y-61731187D01*
X136679980Y-61800796D01*
X136392430Y-61919904D01*
X136274349Y-62178939D01*
X131572000Y-62178939D01*
X131572000Y-58230812D01*
X132313680Y-58230812D01*
X132313680Y-58700628D01*
X132405337Y-59161416D01*
X132585127Y-59595469D01*
X132846143Y-59986107D01*
X133178353Y-60318317D01*
X133568991Y-60579333D01*
X134003044Y-60759123D01*
X134463832Y-60850780D01*
X134933648Y-60850780D01*
X135141381Y-60809459D01*
X137963746Y-60809459D01*
X137966747Y-61151175D01*
X138036356Y-61485740D01*
X138155464Y-61773290D01*
X138414499Y-61891371D01*
X139340790Y-60965080D01*
X140059210Y-60965080D01*
X140985501Y-61891371D01*
X141244536Y-61773290D01*
X141372532Y-61456437D01*
X141436254Y-61120701D01*
X141433253Y-60778985D01*
X141363644Y-60444420D01*
X141244536Y-60156870D01*
X140985501Y-60038789D01*
X140059210Y-60965080D01*
X139340790Y-60965080D01*
X138414499Y-60038789D01*
X138155464Y-60156870D01*
X138027468Y-60473723D01*
X137963746Y-60809459D01*
X135141381Y-60809459D01*
X135394436Y-60759123D01*
X135828489Y-60579333D01*
X136219127Y-60318317D01*
X136551337Y-59986107D01*
X136756152Y-59679579D01*
X138773709Y-59679579D01*
X139700000Y-60605870D01*
X140626291Y-59679579D01*
X140508210Y-59420544D01*
X140191357Y-59292548D01*
X139855621Y-59228826D01*
X139513905Y-59231827D01*
X139179340Y-59301436D01*
X138891790Y-59420544D01*
X138773709Y-59679579D01*
X136756152Y-59679579D01*
X136812353Y-59595469D01*
X136992143Y-59161416D01*
X137083800Y-58700628D01*
X137083800Y-58230812D01*
X136992143Y-57770024D01*
X136812353Y-57335971D01*
X136551337Y-56945333D01*
X136219127Y-56613123D01*
X135828489Y-56352107D01*
X135394436Y-56172317D01*
X134933648Y-56080660D01*
X134463832Y-56080660D01*
X134003044Y-56172317D01*
X133568991Y-56352107D01*
X133178353Y-56613123D01*
X132846143Y-56945333D01*
X132585127Y-57335971D01*
X132405337Y-57770024D01*
X132313680Y-58230812D01*
X131572000Y-58230812D01*
X131572000Y-53975000D01*
X141554293Y-53975000D01*
X141452600Y-54486246D01*
G37*
X141452600Y-54486246D02*
X141452600Y-55241754D01*
X141599992Y-55982745D01*
X141889112Y-56680743D01*
X142308850Y-57308925D01*
X142843075Y-57843150D01*
X143471257Y-58262888D01*
X144169255Y-58552008D01*
X144910246Y-58699400D01*
X145665754Y-58699400D01*
X146406745Y-58552008D01*
X147104743Y-58262888D01*
X147732925Y-57843150D01*
X148267150Y-57308925D01*
X148686888Y-56680743D01*
X148976008Y-55982745D01*
X149123400Y-55241754D01*
X149123400Y-54486246D01*
X149021707Y-53975000D01*
X169621293Y-53975000D01*
X169519600Y-54486246D01*
X169519600Y-55241754D01*
X169666992Y-55982745D01*
X169956112Y-56680743D01*
X170375850Y-57308925D01*
X170910075Y-57843150D01*
X171538257Y-58262888D01*
X172236255Y-58552008D01*
X172977246Y-58699400D01*
X173732754Y-58699400D01*
X174473745Y-58552008D01*
X175171743Y-58262888D01*
X175799925Y-57843150D01*
X176334150Y-57308925D01*
X176403000Y-57205884D01*
X176403000Y-77094374D01*
X176336878Y-77066985D01*
X176128321Y-77025500D01*
X176056051Y-77025500D01*
X175314010Y-76283460D01*
X175330185Y-76270185D01*
X175409537Y-76173494D01*
X175468502Y-76063180D01*
X175504812Y-75943482D01*
X175517072Y-75819000D01*
X175517072Y-74295000D01*
X175504812Y-74170518D01*
X175468502Y-74050820D01*
X175409537Y-73940506D01*
X175330185Y-73843815D01*
X175233494Y-73764463D01*
X175123180Y-73705498D01*
X175003482Y-73669188D01*
X174919535Y-73660920D01*
X175007535Y-73602120D01*
X175202120Y-73407535D01*
X175355005Y-73178727D01*
X175460314Y-72924490D01*
X175514000Y-72654592D01*
X175514000Y-72379408D01*
X175460314Y-72109510D01*
X175355005Y-71855273D01*
X175202120Y-71626465D01*
X175007535Y-71431880D01*
X174778727Y-71278995D01*
X174701485Y-71247000D01*
X174778727Y-71215005D01*
X175007535Y-71062120D01*
X175202120Y-70867535D01*
X175355005Y-70638727D01*
X175460314Y-70384490D01*
X175514000Y-70114592D01*
X175514000Y-69839408D01*
X175460314Y-69569510D01*
X175355005Y-69315273D01*
X175202120Y-69086465D01*
X175007535Y-68891880D01*
X174778727Y-68738995D01*
X174524490Y-68633686D01*
X174254592Y-68580000D01*
X173979408Y-68580000D01*
X173709510Y-68633686D01*
X173455273Y-68738995D01*
X173226465Y-68891880D01*
X173031880Y-69086465D01*
X172878995Y-69315273D01*
X172849564Y-69386326D01*
X172843216Y-69371001D01*
X172618444Y-69294766D01*
X171936210Y-69977000D01*
X172618444Y-70659234D01*
X172843216Y-70582999D01*
X172849145Y-70566664D01*
X172878995Y-70638727D01*
X173031880Y-70867535D01*
X173226465Y-71062120D01*
X173455273Y-71215005D01*
X173532515Y-71247000D01*
X173455273Y-71278995D01*
X173226465Y-71431880D01*
X173031880Y-71626465D01*
X172878995Y-71855273D01*
X172847000Y-71932515D01*
X172815005Y-71855273D01*
X172662120Y-71626465D01*
X172467535Y-71431880D01*
X172238727Y-71278995D01*
X172167674Y-71249564D01*
X172182999Y-71243216D01*
X172259234Y-71018444D01*
X171577000Y-70336210D01*
X170894766Y-71018444D01*
X170971001Y-71243216D01*
X170987336Y-71249145D01*
X170915273Y-71278995D01*
X170686465Y-71431880D01*
X170491880Y-71626465D01*
X170338995Y-71855273D01*
X170233686Y-72109510D01*
X170180000Y-72379408D01*
X170180000Y-72654592D01*
X170233686Y-72924490D01*
X170338995Y-73178727D01*
X170491880Y-73407535D01*
X170686465Y-73602120D01*
X170915273Y-73755005D01*
X170992515Y-73787000D01*
X170915273Y-73818995D01*
X170686465Y-73971880D01*
X170617345Y-74041000D01*
X165647841Y-74041000D01*
X164465000Y-72858160D01*
X164465000Y-70218027D01*
X164487015Y-70164878D01*
X164528500Y-69956321D01*
X164528500Y-69901690D01*
X170175263Y-69901690D01*
X170187505Y-70176602D01*
X170253145Y-70443843D01*
X170310784Y-70582999D01*
X170535556Y-70659234D01*
X171217790Y-69977000D01*
X170535556Y-69294766D01*
X170310784Y-69371001D01*
X170216889Y-69629671D01*
X170175263Y-69901690D01*
X164528500Y-69901690D01*
X164528500Y-69743679D01*
X164487015Y-69535122D01*
X164405640Y-69338665D01*
X164287502Y-69161859D01*
X164137141Y-69011498D01*
X164023486Y-68935556D01*
X170894766Y-68935556D01*
X171577000Y-69617790D01*
X172259234Y-68935556D01*
X172182999Y-68710784D01*
X171924329Y-68616889D01*
X171652310Y-68575263D01*
X171377398Y-68587505D01*
X171110157Y-68653145D01*
X170971001Y-68710784D01*
X170894766Y-68935556D01*
X164023486Y-68935556D01*
X163960335Y-68893360D01*
X163763878Y-68811985D01*
X163555321Y-68770500D01*
X163342679Y-68770500D01*
X163134122Y-68811985D01*
X162937665Y-68893360D01*
X162760859Y-69011498D01*
X162610498Y-69161859D01*
X162492360Y-69338665D01*
X162410985Y-69535122D01*
X162369500Y-69743679D01*
X162369500Y-69956321D01*
X162410985Y-70164878D01*
X162433000Y-70218027D01*
X162433000Y-73229094D01*
X162428085Y-73279000D01*
X162433000Y-73328902D01*
X162433001Y-78192158D01*
X160831815Y-79793344D01*
X160778665Y-79815360D01*
X160601859Y-79933498D01*
X160451498Y-80083859D01*
X160333360Y-80260665D01*
X160251985Y-80457122D01*
X160210500Y-80665679D01*
X160210500Y-80878321D01*
X160251985Y-81086878D01*
X160333360Y-81283335D01*
X160451498Y-81460141D01*
X160601859Y-81610502D01*
X160778665Y-81728640D01*
X160975122Y-81810015D01*
X161183679Y-81851500D01*
X161396321Y-81851500D01*
X161604878Y-81810015D01*
X161801335Y-81728640D01*
X161978141Y-81610502D01*
X162128502Y-81460141D01*
X162246640Y-81283335D01*
X162268656Y-81230185D01*
X164132133Y-79366708D01*
X164170896Y-79334896D01*
X164297860Y-79180190D01*
X164392202Y-79003687D01*
X164450298Y-78812171D01*
X164465000Y-78662902D01*
X164469915Y-78613001D01*
X164465000Y-78563099D01*
X164465000Y-75731841D01*
X164473292Y-75740133D01*
X164505104Y-75778896D01*
X164659810Y-75905860D01*
X164772924Y-75966320D01*
X164836313Y-76000202D01*
X165027829Y-76058298D01*
X165227000Y-76077915D01*
X165276902Y-76073000D01*
X167732875Y-76073000D01*
X167703500Y-76220679D01*
X167703500Y-76433321D01*
X167744985Y-76641878D01*
X167826360Y-76838335D01*
X167944498Y-77015141D01*
X167995601Y-77066244D01*
X167995600Y-82003337D01*
X167991792Y-82042000D01*
X167995600Y-82080663D01*
X167995600Y-82080672D01*
X168006994Y-82196356D01*
X168052018Y-82344782D01*
X168125134Y-82481571D01*
X168223531Y-82601469D01*
X168253578Y-82626128D01*
X169735500Y-84108051D01*
X169735500Y-84180321D01*
X169776985Y-84388878D01*
X169858360Y-84585335D01*
X169976498Y-84762141D01*
X170126859Y-84912502D01*
X170303665Y-85030640D01*
X170500122Y-85112015D01*
X170708679Y-85153500D01*
X170921321Y-85153500D01*
X171129878Y-85112015D01*
X171280818Y-85049494D01*
X171300985Y-85150878D01*
X171382360Y-85347335D01*
X171500498Y-85524141D01*
X171650859Y-85674502D01*
X171827665Y-85792640D01*
X172024122Y-85874015D01*
X172232679Y-85915500D01*
X172445321Y-85915500D01*
X172653878Y-85874015D01*
X172850335Y-85792640D01*
X173027141Y-85674502D01*
X173177502Y-85524141D01*
X173295640Y-85347335D01*
X173377015Y-85150878D01*
X173418500Y-84942321D01*
X173418500Y-84729679D01*
X173377015Y-84521122D01*
X173295640Y-84324665D01*
X173177502Y-84147859D01*
X173126400Y-84096757D01*
X173126400Y-83985662D01*
X173130208Y-83946999D01*
X173126400Y-83908336D01*
X173126400Y-83908327D01*
X173115006Y-83792643D01*
X173069982Y-83644217D01*
X172996866Y-83507428D01*
X172898469Y-83387531D01*
X172868433Y-83362881D01*
X170840400Y-81334850D01*
X170840400Y-77955243D01*
X170891502Y-77904141D01*
X171009640Y-77727335D01*
X171091015Y-77530878D01*
X171132500Y-77322321D01*
X171132500Y-77192340D01*
X175133000Y-81192841D01*
X175133001Y-105751158D01*
X174712160Y-106172000D01*
X165468027Y-106172000D01*
X165414878Y-106149985D01*
X165206321Y-106108500D01*
X164993679Y-106108500D01*
X164785122Y-106149985D01*
X164588665Y-106231360D01*
X164411859Y-106349498D01*
X164261498Y-106499859D01*
X164143360Y-106676665D01*
X164061985Y-106873122D01*
X164020500Y-107081679D01*
X164020500Y-107294321D01*
X164061985Y-107502878D01*
X164143360Y-107699335D01*
X164261498Y-107876141D01*
X164411859Y-108026502D01*
X164588665Y-108144640D01*
X164785122Y-108226015D01*
X164993679Y-108267500D01*
X165206321Y-108267500D01*
X165414878Y-108226015D01*
X165468027Y-108204000D01*
X175083098Y-108204000D01*
X175133000Y-108208915D01*
X175182902Y-108204000D01*
X175332171Y-108189298D01*
X175523687Y-108131202D01*
X175700190Y-108036860D01*
X175854896Y-107909896D01*
X175886712Y-107871128D01*
X176403000Y-107354841D01*
X176403000Y-144597116D01*
X176334150Y-144494075D01*
X175799925Y-143959850D01*
X175171743Y-143540112D01*
X174473745Y-143250992D01*
X173732754Y-143103600D01*
X172977246Y-143103600D01*
X172236255Y-143250992D01*
X171538257Y-143540112D01*
X170910075Y-143959850D01*
X170375850Y-144494075D01*
X169956112Y-145122257D01*
X169666992Y-145820255D01*
X169519600Y-146561246D01*
X169519600Y-147316754D01*
X169621293Y-147828000D01*
X149021707Y-147828000D01*
X149123400Y-147316754D01*
X149123400Y-146561246D01*
X148976008Y-145820255D01*
X148686888Y-145122257D01*
X148267150Y-144494075D01*
X147732925Y-143959850D01*
X147104743Y-143540112D01*
X146879550Y-143446834D01*
X161417000Y-143446834D01*
X161417000Y-143822086D01*
X161490209Y-144190128D01*
X161633811Y-144536816D01*
X161842290Y-144848826D01*
X162107634Y-145114170D01*
X162419644Y-145322649D01*
X162766332Y-145466251D01*
X163134374Y-145539460D01*
X163509626Y-145539460D01*
X163877668Y-145466251D01*
X164224356Y-145322649D01*
X164536366Y-145114170D01*
X164801710Y-144848826D01*
X165010189Y-144536816D01*
X165153791Y-144190128D01*
X165212163Y-143896678D01*
X165623182Y-144066928D01*
X166117831Y-144165320D01*
X166622169Y-144165320D01*
X167116818Y-144066928D01*
X167582766Y-143873926D01*
X168002109Y-143593730D01*
X168358730Y-143237109D01*
X168638926Y-142817766D01*
X168819505Y-142381808D01*
X169031920Y-142381808D01*
X169031920Y-142656992D01*
X169085606Y-142926890D01*
X169190915Y-143181127D01*
X169343800Y-143409935D01*
X169538385Y-143604520D01*
X169767193Y-143757405D01*
X170021430Y-143862714D01*
X170291328Y-143916400D01*
X170566512Y-143916400D01*
X170836410Y-143862714D01*
X171090647Y-143757405D01*
X171319455Y-143604520D01*
X171514040Y-143409935D01*
X171666925Y-143181127D01*
X171772234Y-142926890D01*
X171825920Y-142656992D01*
X171825920Y-142381808D01*
X171772234Y-142111910D01*
X171666925Y-141857673D01*
X171514040Y-141628865D01*
X171319455Y-141434280D01*
X171090647Y-141281395D01*
X171019594Y-141251964D01*
X171034919Y-141245616D01*
X171111154Y-141020844D01*
X170428920Y-140338610D01*
X169746686Y-141020844D01*
X169822921Y-141245616D01*
X169839256Y-141251545D01*
X169767193Y-141281395D01*
X169538385Y-141434280D01*
X169343800Y-141628865D01*
X169190915Y-141857673D01*
X169085606Y-142111910D01*
X169031920Y-142381808D01*
X168819505Y-142381808D01*
X168831928Y-142351818D01*
X168930320Y-141857169D01*
X168930320Y-141352831D01*
X168831928Y-140858182D01*
X168638926Y-140392234D01*
X168358730Y-139972891D01*
X168289929Y-139904090D01*
X169027183Y-139904090D01*
X169039425Y-140179002D01*
X169105065Y-140446243D01*
X169162704Y-140585399D01*
X169387476Y-140661634D01*
X170069710Y-139979400D01*
X170788130Y-139979400D01*
X171470364Y-140661634D01*
X171695136Y-140585399D01*
X171789031Y-140326729D01*
X171830657Y-140054710D01*
X171818415Y-139779798D01*
X171752775Y-139512557D01*
X171695136Y-139373401D01*
X171470364Y-139297166D01*
X170788130Y-139979400D01*
X170069710Y-139979400D01*
X169387476Y-139297166D01*
X169162704Y-139373401D01*
X169068809Y-139632071D01*
X169027183Y-139904090D01*
X168289929Y-139904090D01*
X168002109Y-139616270D01*
X167582766Y-139336074D01*
X167116818Y-139143072D01*
X166622169Y-139044680D01*
X166117831Y-139044680D01*
X165623182Y-139143072D01*
X165157234Y-139336074D01*
X164737891Y-139616270D01*
X164381270Y-139972891D01*
X164101074Y-140392234D01*
X163908072Y-140858182D01*
X163809680Y-141352831D01*
X163809680Y-141789145D01*
X163509626Y-141729460D01*
X163134374Y-141729460D01*
X162766332Y-141802669D01*
X162419644Y-141946271D01*
X162107634Y-142154750D01*
X161842290Y-142420094D01*
X161633811Y-142732104D01*
X161490209Y-143078792D01*
X161417000Y-143446834D01*
X146879550Y-143446834D01*
X146406745Y-143250992D01*
X145665754Y-143103600D01*
X144910246Y-143103600D01*
X144169255Y-143250992D01*
X143471257Y-143540112D01*
X142843075Y-143959850D01*
X142308850Y-144494075D01*
X141889112Y-145122257D01*
X141599992Y-145820255D01*
X141452600Y-146561246D01*
X141452600Y-147316754D01*
X141554293Y-147828000D01*
X131572000Y-147828000D01*
X131572000Y-143231912D01*
X132313680Y-143231912D01*
X132313680Y-143701728D01*
X132405337Y-144162516D01*
X132585127Y-144596569D01*
X132846143Y-144987207D01*
X133178353Y-145319417D01*
X133568991Y-145580433D01*
X134003044Y-145760223D01*
X134463832Y-145851880D01*
X134933648Y-145851880D01*
X135394436Y-145760223D01*
X135828489Y-145580433D01*
X136219127Y-145319417D01*
X136551337Y-144987207D01*
X136812353Y-144596569D01*
X136992143Y-144162516D01*
X137083800Y-143701728D01*
X137083800Y-143231912D01*
X136992143Y-142771124D01*
X136812353Y-142337071D01*
X136551337Y-141946433D01*
X136219127Y-141614223D01*
X135828489Y-141353207D01*
X135394436Y-141173417D01*
X134933648Y-141081760D01*
X134463832Y-141081760D01*
X134003044Y-141173417D01*
X133568991Y-141353207D01*
X133178353Y-141614223D01*
X132846143Y-141946433D01*
X132585127Y-142337071D01*
X132405337Y-142771124D01*
X132313680Y-143231912D01*
X131572000Y-143231912D01*
X131572000Y-140794055D01*
X137965180Y-140794055D01*
X137965180Y-141135785D01*
X138031848Y-141470948D01*
X138162623Y-141786665D01*
X138352477Y-142070803D01*
X138594117Y-142312443D01*
X138878255Y-142502297D01*
X139193972Y-142633072D01*
X139529135Y-142699740D01*
X139870865Y-142699740D01*
X140206028Y-142633072D01*
X140521745Y-142502297D01*
X140805883Y-142312443D01*
X141047523Y-142070803D01*
X141237377Y-141786665D01*
X141368152Y-141470948D01*
X141434820Y-141135785D01*
X141434820Y-140794055D01*
X141368152Y-140458892D01*
X141237377Y-140143175D01*
X141047523Y-139859037D01*
X140805883Y-139617397D01*
X140521745Y-139427543D01*
X140206028Y-139296768D01*
X139870865Y-139230100D01*
X139529135Y-139230100D01*
X139193972Y-139296768D01*
X138878255Y-139427543D01*
X138594117Y-139617397D01*
X138352477Y-139859037D01*
X138162623Y-140143175D01*
X138031848Y-140458892D01*
X137965180Y-140794055D01*
X131572000Y-140794055D01*
X131572000Y-138294695D01*
X135463280Y-138294695D01*
X135463280Y-138636425D01*
X135529948Y-138971588D01*
X135660723Y-139287305D01*
X135850577Y-139571443D01*
X136092217Y-139813083D01*
X136376355Y-140002937D01*
X136692072Y-140133712D01*
X137027235Y-140200380D01*
X137368965Y-140200380D01*
X137704128Y-140133712D01*
X138019845Y-140002937D01*
X138303983Y-139813083D01*
X138545623Y-139571443D01*
X138735477Y-139287305D01*
X138801256Y-139128500D01*
X142808428Y-139128500D01*
X142808428Y-140779500D01*
X142820688Y-140903982D01*
X142856998Y-141023680D01*
X142915963Y-141133994D01*
X142995315Y-141230685D01*
X143092006Y-141310037D01*
X143202320Y-141369002D01*
X143322018Y-141405312D01*
X143446500Y-141417572D01*
X145097500Y-141417572D01*
X145221982Y-141405312D01*
X145341680Y-141369002D01*
X145451994Y-141310037D01*
X145548685Y-141230685D01*
X145628037Y-141133994D01*
X145677485Y-141041484D01*
X146083727Y-141041484D01*
X146167894Y-141272666D01*
X146437530Y-141372987D01*
X146721555Y-141418777D01*
X147009057Y-141408278D01*
X147288987Y-141341890D01*
X147456106Y-141272666D01*
X147540273Y-141041484D01*
X146812000Y-140313210D01*
X146083727Y-141041484D01*
X145677485Y-141041484D01*
X145687002Y-141023680D01*
X145723312Y-140903982D01*
X145735572Y-140779500D01*
X145735572Y-140671217D01*
X146452790Y-139954000D01*
X147171210Y-139954000D01*
X147899484Y-140682273D01*
X148130666Y-140598106D01*
X148230987Y-140328470D01*
X148276777Y-140044445D01*
X148266278Y-139756943D01*
X148199890Y-139477013D01*
X148130666Y-139309894D01*
X147899484Y-139225727D01*
X147171210Y-139954000D01*
X146452790Y-139954000D01*
X145735572Y-139236783D01*
X145735572Y-139128500D01*
X145723312Y-139004018D01*
X145687002Y-138884320D01*
X145677486Y-138866516D01*
X146083727Y-138866516D01*
X146812000Y-139594790D01*
X147540273Y-138866516D01*
X147456106Y-138635334D01*
X147186470Y-138535013D01*
X146902445Y-138489223D01*
X146614943Y-138499722D01*
X146335013Y-138566110D01*
X146167894Y-138635334D01*
X146083727Y-138866516D01*
X145677486Y-138866516D01*
X145628037Y-138774006D01*
X145548685Y-138677315D01*
X145451994Y-138597963D01*
X145341680Y-138538998D01*
X145221982Y-138502688D01*
X145097500Y-138490428D01*
X143446500Y-138490428D01*
X143322018Y-138502688D01*
X143202320Y-138538998D01*
X143092006Y-138597963D01*
X142995315Y-138677315D01*
X142915963Y-138774006D01*
X142856998Y-138884320D01*
X142820688Y-139004018D01*
X142808428Y-139128500D01*
X138801256Y-139128500D01*
X138866252Y-138971588D01*
X138932920Y-138636425D01*
X138932920Y-138294695D01*
X138866252Y-137959532D01*
X138735477Y-137643815D01*
X138545623Y-137359677D01*
X138437647Y-137251701D01*
X138773709Y-137251701D01*
X138891790Y-137510736D01*
X139208643Y-137638732D01*
X139544379Y-137702454D01*
X139886095Y-137699453D01*
X140220660Y-137629844D01*
X140508210Y-137510736D01*
X140626291Y-137251701D01*
X139700000Y-136325410D01*
X138773709Y-137251701D01*
X138437647Y-137251701D01*
X138303983Y-137118037D01*
X138019845Y-136928183D01*
X137704128Y-136797408D01*
X137368965Y-136730740D01*
X137027235Y-136730740D01*
X136692072Y-136797408D01*
X136376355Y-136928183D01*
X136092217Y-137118037D01*
X135850577Y-137359677D01*
X135660723Y-137643815D01*
X135529948Y-137959532D01*
X135463280Y-138294695D01*
X131572000Y-138294695D01*
X131572000Y-135810579D01*
X137963746Y-135810579D01*
X137966747Y-136152295D01*
X138036356Y-136486860D01*
X138155464Y-136774410D01*
X138414499Y-136892491D01*
X139340790Y-135966200D01*
X140059210Y-135966200D01*
X140985501Y-136892491D01*
X141244536Y-136774410D01*
X141372532Y-136457557D01*
X141436254Y-136121821D01*
X141433253Y-135780105D01*
X141363644Y-135445540D01*
X141244536Y-135157990D01*
X140985501Y-135039909D01*
X140059210Y-135966200D01*
X139340790Y-135966200D01*
X138414499Y-135039909D01*
X138155464Y-135157990D01*
X138027468Y-135474843D01*
X137963746Y-135810579D01*
X131572000Y-135810579D01*
X131572000Y-133293435D01*
X135463280Y-133293435D01*
X135463280Y-133635165D01*
X135529948Y-133970328D01*
X135660723Y-134286045D01*
X135850577Y-134570183D01*
X136092217Y-134811823D01*
X136376355Y-135001677D01*
X136692072Y-135132452D01*
X137027235Y-135199120D01*
X137368965Y-135199120D01*
X137704128Y-135132452D01*
X138019845Y-135001677D01*
X138303983Y-134811823D01*
X138435107Y-134680699D01*
X138773709Y-134680699D01*
X139700000Y-135606990D01*
X140626291Y-134680699D01*
X140508210Y-134421664D01*
X140191357Y-134293668D01*
X139855621Y-134229946D01*
X139513905Y-134232947D01*
X139179340Y-134302556D01*
X138891790Y-134421664D01*
X138773709Y-134680699D01*
X138435107Y-134680699D01*
X138545623Y-134570183D01*
X138735477Y-134286045D01*
X138866252Y-133970328D01*
X138932920Y-133635165D01*
X138932920Y-133293435D01*
X138866252Y-132958272D01*
X138735477Y-132642555D01*
X138545623Y-132358417D01*
X138437647Y-132250441D01*
X138773709Y-132250441D01*
X138891790Y-132509476D01*
X139208643Y-132637472D01*
X139544379Y-132701194D01*
X139886095Y-132698193D01*
X140220660Y-132628584D01*
X140508210Y-132509476D01*
X140626291Y-132250441D01*
X139700000Y-131324150D01*
X138773709Y-132250441D01*
X138437647Y-132250441D01*
X138303983Y-132116777D01*
X138019845Y-131926923D01*
X137704128Y-131796148D01*
X137368965Y-131729480D01*
X137027235Y-131729480D01*
X136692072Y-131796148D01*
X136376355Y-131926923D01*
X136092217Y-132116777D01*
X135850577Y-132358417D01*
X135660723Y-132642555D01*
X135529948Y-132958272D01*
X135463280Y-133293435D01*
X131572000Y-133293435D01*
X131572000Y-130809319D01*
X137963746Y-130809319D01*
X137966747Y-131151035D01*
X138036356Y-131485600D01*
X138155464Y-131773150D01*
X138414499Y-131891231D01*
X139340790Y-130964940D01*
X138414499Y-130038649D01*
X138155464Y-130156730D01*
X138027468Y-130473583D01*
X137963746Y-130809319D01*
X131572000Y-130809319D01*
X131572000Y-128294715D01*
X135463280Y-128294715D01*
X135463280Y-128636445D01*
X135529948Y-128971608D01*
X135660723Y-129287325D01*
X135850577Y-129571463D01*
X136092217Y-129813103D01*
X136376355Y-130002957D01*
X136692072Y-130133732D01*
X137027235Y-130200400D01*
X137368965Y-130200400D01*
X137704128Y-130133732D01*
X138019845Y-130002957D01*
X138303983Y-129813103D01*
X138545623Y-129571463D01*
X138735477Y-129287325D01*
X138866252Y-128971608D01*
X138932920Y-128636445D01*
X138932920Y-128294715D01*
X138866252Y-127959552D01*
X138735477Y-127643835D01*
X138545623Y-127359697D01*
X138303983Y-127118057D01*
X138019845Y-126928203D01*
X137704128Y-126797428D01*
X137368965Y-126730760D01*
X137027235Y-126730760D01*
X136692072Y-126797428D01*
X136376355Y-126928203D01*
X136092217Y-127118057D01*
X135850577Y-127359697D01*
X135660723Y-127643835D01*
X135529948Y-127959552D01*
X135463280Y-128294715D01*
X131572000Y-128294715D01*
X131572000Y-125795355D01*
X137965180Y-125795355D01*
X137965180Y-126137085D01*
X138031848Y-126472248D01*
X138162623Y-126787965D01*
X138352477Y-127072103D01*
X138594117Y-127313743D01*
X138878255Y-127503597D01*
X139193972Y-127634372D01*
X139529135Y-127701040D01*
X139870865Y-127701040D01*
X140206028Y-127634372D01*
X140521745Y-127503597D01*
X140690601Y-127390772D01*
X140690600Y-128546757D01*
X140639498Y-128597859D01*
X140521360Y-128774665D01*
X140439985Y-128971122D01*
X140398500Y-129179679D01*
X140398500Y-129376086D01*
X140191357Y-129292408D01*
X139855621Y-129228686D01*
X139513905Y-129231687D01*
X139179340Y-129301296D01*
X138891790Y-129420404D01*
X138773709Y-129679439D01*
X139700000Y-130605730D01*
X139714143Y-130591588D01*
X140073353Y-130950798D01*
X140059210Y-130964940D01*
X140985501Y-131891231D01*
X141244536Y-131773150D01*
X141304419Y-131624908D01*
X156083000Y-131624908D01*
X156083000Y-131900092D01*
X156136686Y-132169990D01*
X156241995Y-132424227D01*
X156394880Y-132653035D01*
X156589465Y-132847620D01*
X156818273Y-133000505D01*
X156895515Y-133032500D01*
X156818273Y-133064495D01*
X156589465Y-133217380D01*
X156394880Y-133411965D01*
X156241995Y-133640773D01*
X156136686Y-133895010D01*
X156083000Y-134164908D01*
X156083000Y-134440092D01*
X156136686Y-134709990D01*
X156241995Y-134964227D01*
X156394880Y-135193035D01*
X156589465Y-135387620D01*
X156818273Y-135540505D01*
X156895515Y-135572500D01*
X156818273Y-135604495D01*
X156589465Y-135757380D01*
X156394880Y-135951965D01*
X156241995Y-136180773D01*
X156136686Y-136435010D01*
X156083000Y-136704908D01*
X156083000Y-136980092D01*
X156136686Y-137249990D01*
X156241995Y-137504227D01*
X156394880Y-137733035D01*
X156589465Y-137927620D01*
X156818273Y-138080505D01*
X156895515Y-138112500D01*
X156818273Y-138144495D01*
X156589465Y-138297380D01*
X156394880Y-138491965D01*
X156241995Y-138720773D01*
X156136686Y-138975010D01*
X156083000Y-139244908D01*
X156083000Y-139520092D01*
X156136686Y-139789990D01*
X156241995Y-140044227D01*
X156394880Y-140273035D01*
X156589465Y-140467620D01*
X156818273Y-140620505D01*
X157072510Y-140725814D01*
X157342408Y-140779500D01*
X157617592Y-140779500D01*
X157887490Y-140725814D01*
X158141727Y-140620505D01*
X158370535Y-140467620D01*
X158565120Y-140273035D01*
X158619928Y-140191009D01*
X158619928Y-140779500D01*
X158632188Y-140903982D01*
X158668498Y-141023680D01*
X158727463Y-141133994D01*
X158806815Y-141230685D01*
X158903506Y-141310037D01*
X159013820Y-141369002D01*
X159133518Y-141405312D01*
X159258000Y-141417572D01*
X160782000Y-141417572D01*
X160906482Y-141405312D01*
X161026180Y-141369002D01*
X161136494Y-141310037D01*
X161233185Y-141230685D01*
X161312537Y-141133994D01*
X161371502Y-141023680D01*
X161407812Y-140903982D01*
X161420072Y-140779500D01*
X161420072Y-139255500D01*
X161407812Y-139131018D01*
X161371502Y-139011320D01*
X161332288Y-138937956D01*
X169746686Y-138937956D01*
X170428920Y-139620190D01*
X171111154Y-138937956D01*
X171034919Y-138713184D01*
X170776249Y-138619289D01*
X170504230Y-138577663D01*
X170229318Y-138589905D01*
X169962077Y-138655545D01*
X169822921Y-138713184D01*
X169746686Y-138937956D01*
X161332288Y-138937956D01*
X161312537Y-138901006D01*
X161233185Y-138804315D01*
X161136494Y-138724963D01*
X161026180Y-138665998D01*
X160906482Y-138629688D01*
X160822535Y-138621420D01*
X160910535Y-138562620D01*
X161105120Y-138368035D01*
X161258005Y-138139227D01*
X161363314Y-137884990D01*
X161417000Y-137615092D01*
X161417000Y-137339908D01*
X161363314Y-137070010D01*
X161258005Y-136815773D01*
X161105120Y-136586965D01*
X160910535Y-136392380D01*
X160681727Y-136239495D01*
X160604485Y-136207500D01*
X160681727Y-136175505D01*
X160910535Y-136022620D01*
X161105120Y-135828035D01*
X161258005Y-135599227D01*
X161363314Y-135344990D01*
X161417000Y-135075092D01*
X161417000Y-134799908D01*
X161363314Y-134530010D01*
X161258005Y-134275773D01*
X161105120Y-134046965D01*
X160910535Y-133852380D01*
X160681727Y-133699495D01*
X160604485Y-133667500D01*
X160681727Y-133635505D01*
X160910535Y-133482620D01*
X161105120Y-133288035D01*
X161258005Y-133059227D01*
X161363314Y-132804990D01*
X161417000Y-132535092D01*
X161417000Y-132259908D01*
X161363314Y-131990010D01*
X161258005Y-131735773D01*
X161105120Y-131506965D01*
X160910535Y-131312380D01*
X160681727Y-131159495D01*
X160427490Y-131054186D01*
X160157592Y-131000500D01*
X159882408Y-131000500D01*
X159612510Y-131054186D01*
X159537400Y-131085298D01*
X159537400Y-129705662D01*
X159541208Y-129666999D01*
X159537400Y-129628336D01*
X159537400Y-129628327D01*
X159526006Y-129512643D01*
X159480982Y-129364217D01*
X159407866Y-129227428D01*
X159373284Y-129185290D01*
X159334121Y-129137569D01*
X159334119Y-129137567D01*
X159309469Y-129107531D01*
X159279434Y-129082882D01*
X158267400Y-128070850D01*
X158267400Y-127957914D01*
X161417000Y-127957914D01*
X161417000Y-128333166D01*
X161490209Y-128701208D01*
X161633811Y-129047896D01*
X161842290Y-129359906D01*
X162107634Y-129625250D01*
X162419644Y-129833729D01*
X162766332Y-129977331D01*
X163134374Y-130050540D01*
X163509626Y-130050540D01*
X163809680Y-129990855D01*
X163809680Y-130427169D01*
X163908072Y-130921818D01*
X164101074Y-131387766D01*
X164381270Y-131807109D01*
X164737891Y-132163730D01*
X165157234Y-132443926D01*
X165623182Y-132636928D01*
X166117831Y-132735320D01*
X166622169Y-132735320D01*
X167116818Y-132636928D01*
X167582766Y-132443926D01*
X168002109Y-132163730D01*
X168358730Y-131807109D01*
X168455015Y-131663008D01*
X169031920Y-131663008D01*
X169031920Y-131938192D01*
X169085606Y-132208090D01*
X169190915Y-132462327D01*
X169343800Y-132691135D01*
X169538385Y-132885720D01*
X169767193Y-133038605D01*
X170021430Y-133143914D01*
X170291328Y-133197600D01*
X170566512Y-133197600D01*
X170836410Y-133143914D01*
X171090647Y-133038605D01*
X171319455Y-132885720D01*
X171514040Y-132691135D01*
X171666925Y-132462327D01*
X171772234Y-132208090D01*
X171825920Y-131938192D01*
X171825920Y-131663008D01*
X171772234Y-131393110D01*
X171666925Y-131138873D01*
X171514040Y-130910065D01*
X171319455Y-130715480D01*
X171090647Y-130562595D01*
X171019594Y-130533164D01*
X171034919Y-130526816D01*
X171111154Y-130302044D01*
X170428920Y-129619810D01*
X169746686Y-130302044D01*
X169822921Y-130526816D01*
X169839256Y-130532745D01*
X169767193Y-130562595D01*
X169538385Y-130715480D01*
X169343800Y-130910065D01*
X169190915Y-131138873D01*
X169085606Y-131393110D01*
X169031920Y-131663008D01*
X168455015Y-131663008D01*
X168638926Y-131387766D01*
X168831928Y-130921818D01*
X168930320Y-130427169D01*
X168930320Y-129922831D01*
X168831928Y-129428182D01*
X168731319Y-129185290D01*
X169027183Y-129185290D01*
X169039425Y-129460202D01*
X169105065Y-129727443D01*
X169162704Y-129866599D01*
X169387476Y-129942834D01*
X170069710Y-129260600D01*
X170788130Y-129260600D01*
X171470364Y-129942834D01*
X171695136Y-129866599D01*
X171789031Y-129607929D01*
X171830657Y-129335910D01*
X171818415Y-129060998D01*
X171752775Y-128793757D01*
X171695136Y-128654601D01*
X171470364Y-128578366D01*
X170788130Y-129260600D01*
X170069710Y-129260600D01*
X169387476Y-128578366D01*
X169162704Y-128654601D01*
X169068809Y-128913271D01*
X169027183Y-129185290D01*
X168731319Y-129185290D01*
X168638926Y-128962234D01*
X168358730Y-128542891D01*
X168034995Y-128219156D01*
X169746686Y-128219156D01*
X170428920Y-128901390D01*
X171111154Y-128219156D01*
X171034919Y-127994384D01*
X170776249Y-127900489D01*
X170504230Y-127858863D01*
X170229318Y-127871105D01*
X169962077Y-127936745D01*
X169822921Y-127994384D01*
X169746686Y-128219156D01*
X168034995Y-128219156D01*
X168002109Y-128186270D01*
X167582766Y-127906074D01*
X167116818Y-127713072D01*
X166622169Y-127614680D01*
X166117831Y-127614680D01*
X165623182Y-127713072D01*
X165212163Y-127883322D01*
X165153791Y-127589872D01*
X165010189Y-127243184D01*
X164801710Y-126931174D01*
X164536366Y-126665830D01*
X164224356Y-126457351D01*
X163877668Y-126313749D01*
X163509626Y-126240540D01*
X163134374Y-126240540D01*
X162766332Y-126313749D01*
X162419644Y-126457351D01*
X162107634Y-126665830D01*
X161842290Y-126931174D01*
X161633811Y-127243184D01*
X161490209Y-127589872D01*
X161417000Y-127957914D01*
X158267400Y-127957914D01*
X158267400Y-124612400D01*
X164360757Y-124612400D01*
X164411859Y-124663502D01*
X164588665Y-124781640D01*
X164785122Y-124863015D01*
X164993679Y-124904500D01*
X165206321Y-124904500D01*
X165414878Y-124863015D01*
X165611335Y-124781640D01*
X165788141Y-124663502D01*
X165938502Y-124513141D01*
X166056640Y-124336335D01*
X166138015Y-124139878D01*
X166179500Y-123931321D01*
X166179500Y-123718679D01*
X166138015Y-123510122D01*
X166056640Y-123313665D01*
X165938502Y-123136859D01*
X165788141Y-122986498D01*
X165611335Y-122868360D01*
X165414878Y-122786985D01*
X165206321Y-122745500D01*
X164993679Y-122745500D01*
X164785122Y-122786985D01*
X164588665Y-122868360D01*
X164411859Y-122986498D01*
X164360757Y-123037600D01*
X158219243Y-123037600D01*
X158168141Y-122986498D01*
X157991335Y-122868360D01*
X157794878Y-122786985D01*
X157586321Y-122745500D01*
X157373679Y-122745500D01*
X157165122Y-122786985D01*
X156968665Y-122868360D01*
X156791859Y-122986498D01*
X156641498Y-123136859D01*
X156523360Y-123313665D01*
X156441985Y-123510122D01*
X156400500Y-123718679D01*
X156400500Y-123931321D01*
X156441985Y-124139878D01*
X156523360Y-124336335D01*
X156641498Y-124513141D01*
X156692600Y-124564243D01*
X156692601Y-128358327D01*
X156688792Y-128397000D01*
X156703995Y-128551357D01*
X156749018Y-128699782D01*
X156799250Y-128793757D01*
X156822135Y-128836572D01*
X156920532Y-128956469D01*
X156950573Y-128981123D01*
X157962600Y-129993152D01*
X157962600Y-130450298D01*
X157887490Y-130419186D01*
X157617592Y-130365500D01*
X157342408Y-130365500D01*
X157072510Y-130419186D01*
X156818273Y-130524495D01*
X156589465Y-130677380D01*
X156394880Y-130871965D01*
X156241995Y-131100773D01*
X156136686Y-131355010D01*
X156083000Y-131624908D01*
X141304419Y-131624908D01*
X141372532Y-131456297D01*
X141436254Y-131120561D01*
X141433253Y-130778845D01*
X141363644Y-130444280D01*
X141327360Y-130356684D01*
X141371679Y-130365500D01*
X141584321Y-130365500D01*
X141792878Y-130324015D01*
X141989335Y-130242640D01*
X142166141Y-130124502D01*
X142316502Y-129974141D01*
X142434640Y-129797335D01*
X142516015Y-129600878D01*
X142557500Y-129392321D01*
X142557500Y-129179679D01*
X142516015Y-128971122D01*
X142434640Y-128774665D01*
X142316502Y-128597859D01*
X142265400Y-128546757D01*
X142265400Y-126657662D01*
X142269208Y-126618999D01*
X142265400Y-126580336D01*
X142265400Y-126580327D01*
X142254006Y-126464643D01*
X142208982Y-126316217D01*
X142135866Y-126179428D01*
X142037469Y-126059531D01*
X142007433Y-126034881D01*
X141409347Y-125436797D01*
X141384689Y-125406751D01*
X141326099Y-125358667D01*
X141237377Y-125144475D01*
X141047523Y-124860337D01*
X140805883Y-124618697D01*
X140521745Y-124428843D01*
X140206028Y-124298068D01*
X139870865Y-124231400D01*
X139529135Y-124231400D01*
X139193972Y-124298068D01*
X138878255Y-124428843D01*
X138594117Y-124618697D01*
X138352477Y-124860337D01*
X138162623Y-125144475D01*
X138031848Y-125460192D01*
X137965180Y-125795355D01*
X131572000Y-125795355D01*
X131572000Y-123293455D01*
X135463280Y-123293455D01*
X135463280Y-123635185D01*
X135529948Y-123970348D01*
X135660723Y-124286065D01*
X135850577Y-124570203D01*
X136092217Y-124811843D01*
X136376355Y-125001697D01*
X136692072Y-125132472D01*
X137027235Y-125199140D01*
X137368965Y-125199140D01*
X137704128Y-125132472D01*
X138019845Y-125001697D01*
X138303983Y-124811843D01*
X138545623Y-124570203D01*
X138735477Y-124286065D01*
X138866252Y-123970348D01*
X138932920Y-123635185D01*
X138932920Y-123293455D01*
X138866252Y-122958292D01*
X138735477Y-122642575D01*
X138545623Y-122358437D01*
X138303983Y-122116797D01*
X138019845Y-121926943D01*
X137704128Y-121796168D01*
X137368965Y-121729500D01*
X137027235Y-121729500D01*
X136692072Y-121796168D01*
X136376355Y-121926943D01*
X136092217Y-122116797D01*
X135850577Y-122358437D01*
X135660723Y-122642575D01*
X135529948Y-122958292D01*
X135463280Y-123293455D01*
X131572000Y-123293455D01*
X131572000Y-120794095D01*
X137965180Y-120794095D01*
X137965180Y-121135825D01*
X138031848Y-121470988D01*
X138162623Y-121786705D01*
X138352477Y-122070843D01*
X138594117Y-122312483D01*
X138878255Y-122502337D01*
X139193972Y-122633112D01*
X139529135Y-122699780D01*
X139870865Y-122699780D01*
X140206028Y-122633112D01*
X140521745Y-122502337D01*
X140805883Y-122312483D01*
X141047523Y-122070843D01*
X141237377Y-121786705D01*
X141368152Y-121470988D01*
X141434820Y-121135825D01*
X141434820Y-120794095D01*
X141368152Y-120458932D01*
X141237377Y-120143215D01*
X141047523Y-119859077D01*
X140805883Y-119617437D01*
X140521745Y-119427583D01*
X140206028Y-119296808D01*
X139870865Y-119230140D01*
X139529135Y-119230140D01*
X139193972Y-119296808D01*
X138878255Y-119427583D01*
X138594117Y-119617437D01*
X138352477Y-119859077D01*
X138162623Y-120143215D01*
X138031848Y-120458932D01*
X137965180Y-120794095D01*
X131572000Y-120794095D01*
X131572000Y-118294735D01*
X135463280Y-118294735D01*
X135463280Y-118636465D01*
X135529948Y-118971628D01*
X135660723Y-119287345D01*
X135850577Y-119571483D01*
X136092217Y-119813123D01*
X136376355Y-120002977D01*
X136692072Y-120133752D01*
X137027235Y-120200420D01*
X137368965Y-120200420D01*
X137704128Y-120133752D01*
X138019845Y-120002977D01*
X138303983Y-119813123D01*
X138545623Y-119571483D01*
X138735477Y-119287345D01*
X138866252Y-118971628D01*
X138932920Y-118636465D01*
X138932920Y-118294735D01*
X138866252Y-117959572D01*
X138735477Y-117643855D01*
X138545623Y-117359717D01*
X138303983Y-117118077D01*
X138019845Y-116928223D01*
X137704128Y-116797448D01*
X137368965Y-116730780D01*
X137027235Y-116730780D01*
X136692072Y-116797448D01*
X136376355Y-116928223D01*
X136092217Y-117118077D01*
X135850577Y-117359717D01*
X135660723Y-117643855D01*
X135529948Y-117959572D01*
X135463280Y-118294735D01*
X131572000Y-118294735D01*
X131572000Y-115795375D01*
X137965180Y-115795375D01*
X137965180Y-116137105D01*
X138031848Y-116472268D01*
X138162623Y-116787985D01*
X138352477Y-117072123D01*
X138594117Y-117313763D01*
X138878255Y-117503617D01*
X139193972Y-117634392D01*
X139529135Y-117701060D01*
X139870865Y-117701060D01*
X140206028Y-117634392D01*
X140521745Y-117503617D01*
X140805883Y-117313763D01*
X141047523Y-117072123D01*
X141237377Y-116787985D01*
X141368152Y-116472268D01*
X141434820Y-116137105D01*
X141434820Y-115795375D01*
X141368152Y-115460212D01*
X141237377Y-115144495D01*
X141047523Y-114860357D01*
X140805883Y-114618717D01*
X140521745Y-114428863D01*
X140206028Y-114298088D01*
X139870865Y-114231420D01*
X139529135Y-114231420D01*
X139193972Y-114298088D01*
X138878255Y-114428863D01*
X138594117Y-114618717D01*
X138352477Y-114860357D01*
X138162623Y-115144495D01*
X138031848Y-115460212D01*
X137965180Y-115795375D01*
X131572000Y-115795375D01*
X131572000Y-113293475D01*
X135463280Y-113293475D01*
X135463280Y-113635205D01*
X135529948Y-113970368D01*
X135660723Y-114286085D01*
X135850577Y-114570223D01*
X136092217Y-114811863D01*
X136376355Y-115001717D01*
X136692072Y-115132492D01*
X137027235Y-115199160D01*
X137368965Y-115199160D01*
X137704128Y-115132492D01*
X138019845Y-115001717D01*
X138303983Y-114811863D01*
X138545623Y-114570223D01*
X138735477Y-114286085D01*
X138866252Y-113970368D01*
X138932920Y-113635205D01*
X138932920Y-113293475D01*
X138866252Y-112958312D01*
X138735477Y-112642595D01*
X138545623Y-112358457D01*
X138303983Y-112116817D01*
X138019845Y-111926963D01*
X137704128Y-111796188D01*
X137368965Y-111729520D01*
X137027235Y-111729520D01*
X136692072Y-111796188D01*
X136376355Y-111926963D01*
X136092217Y-112116817D01*
X135850577Y-112358457D01*
X135660723Y-112642595D01*
X135529948Y-112958312D01*
X135463280Y-113293475D01*
X131572000Y-113293475D01*
X131572000Y-110794115D01*
X137965180Y-110794115D01*
X137965180Y-111135845D01*
X138031848Y-111471008D01*
X138162623Y-111786725D01*
X138352477Y-112070863D01*
X138594117Y-112312503D01*
X138878255Y-112502357D01*
X139193972Y-112633132D01*
X139529135Y-112699800D01*
X139870865Y-112699800D01*
X140206028Y-112633132D01*
X140521745Y-112502357D01*
X140805883Y-112312503D01*
X141047523Y-112070863D01*
X141237377Y-111786725D01*
X141368152Y-111471008D01*
X141434820Y-111135845D01*
X141434820Y-110794115D01*
X141368152Y-110458952D01*
X141237377Y-110143235D01*
X141228320Y-110129679D01*
X158432500Y-110129679D01*
X158432500Y-110342321D01*
X158473985Y-110550878D01*
X158555360Y-110747335D01*
X158673498Y-110924141D01*
X158823859Y-111074502D01*
X159000665Y-111192640D01*
X159197122Y-111274015D01*
X159335466Y-111301534D01*
X159362985Y-111439878D01*
X159444360Y-111636335D01*
X159562498Y-111813141D01*
X159712859Y-111963502D01*
X159889665Y-112081640D01*
X160086122Y-112163015D01*
X160294679Y-112204500D01*
X160507321Y-112204500D01*
X160715878Y-112163015D01*
X160912335Y-112081640D01*
X161089141Y-111963502D01*
X161140243Y-111912400D01*
X167567850Y-111912400D01*
X169265600Y-113610151D01*
X169265600Y-113941757D01*
X169214498Y-113992859D01*
X169096360Y-114169665D01*
X169014985Y-114366122D01*
X168973500Y-114574679D01*
X168973500Y-114787321D01*
X169014985Y-114995878D01*
X169096360Y-115192335D01*
X169214498Y-115369141D01*
X169364859Y-115519502D01*
X169541665Y-115637640D01*
X169738122Y-115719015D01*
X169946679Y-115760500D01*
X170159321Y-115760500D01*
X170367878Y-115719015D01*
X170564335Y-115637640D01*
X170741141Y-115519502D01*
X170891502Y-115369141D01*
X171009640Y-115192335D01*
X171069000Y-115049027D01*
X171128360Y-115192335D01*
X171246498Y-115369141D01*
X171396859Y-115519502D01*
X171573665Y-115637640D01*
X171770122Y-115719015D01*
X171978679Y-115760500D01*
X172191321Y-115760500D01*
X172399878Y-115719015D01*
X172596335Y-115637640D01*
X172773141Y-115519502D01*
X172923502Y-115369141D01*
X173041640Y-115192335D01*
X173123015Y-114995878D01*
X173164500Y-114787321D01*
X173164500Y-114574679D01*
X173123015Y-114366122D01*
X173041640Y-114169665D01*
X172923502Y-113992859D01*
X172822567Y-113891924D01*
X172815982Y-113870217D01*
X172742867Y-113733429D01*
X172742866Y-113733427D01*
X172669121Y-113643570D01*
X172644469Y-113613531D01*
X172614429Y-113588878D01*
X168774230Y-109748679D01*
X170878500Y-109748679D01*
X170878500Y-109961321D01*
X170919985Y-110169878D01*
X171001360Y-110366335D01*
X171119498Y-110543141D01*
X171269859Y-110693502D01*
X171446665Y-110811640D01*
X171643122Y-110893015D01*
X171851679Y-110934500D01*
X171923949Y-110934500D01*
X172402500Y-111413051D01*
X172402500Y-111485321D01*
X172443985Y-111693878D01*
X172525360Y-111890335D01*
X172643498Y-112067141D01*
X172793859Y-112217502D01*
X172970665Y-112335640D01*
X173167122Y-112417015D01*
X173375679Y-112458500D01*
X173588321Y-112458500D01*
X173796878Y-112417015D01*
X173993335Y-112335640D01*
X174170141Y-112217502D01*
X174320502Y-112067141D01*
X174438640Y-111890335D01*
X174520015Y-111693878D01*
X174561500Y-111485321D01*
X174561500Y-111272679D01*
X174520015Y-111064122D01*
X174438640Y-110867665D01*
X174320502Y-110690859D01*
X174170141Y-110540498D01*
X173993335Y-110422360D01*
X173796878Y-110340985D01*
X173588321Y-110299500D01*
X173516051Y-110299500D01*
X173037500Y-109820949D01*
X173037500Y-109748679D01*
X172996015Y-109540122D01*
X172914640Y-109343665D01*
X172796502Y-109166859D01*
X172646141Y-109016498D01*
X172469335Y-108898360D01*
X172272878Y-108816985D01*
X172064321Y-108775500D01*
X171851679Y-108775500D01*
X171643122Y-108816985D01*
X171446665Y-108898360D01*
X171269859Y-109016498D01*
X171119498Y-109166859D01*
X171001360Y-109343665D01*
X170919985Y-109540122D01*
X170878500Y-109748679D01*
X168774230Y-109748679D01*
X168732128Y-109706578D01*
X168707469Y-109676531D01*
X168587572Y-109578134D01*
X168450783Y-109505018D01*
X168302357Y-109459994D01*
X168186673Y-109448600D01*
X168186663Y-109448600D01*
X168148000Y-109444792D01*
X168109337Y-109448600D01*
X160251243Y-109448600D01*
X160200141Y-109397498D01*
X160023335Y-109279360D01*
X159826878Y-109197985D01*
X159618321Y-109156500D01*
X159405679Y-109156500D01*
X159197122Y-109197985D01*
X159000665Y-109279360D01*
X158823859Y-109397498D01*
X158673498Y-109547859D01*
X158555360Y-109724665D01*
X158473985Y-109921122D01*
X158432500Y-110129679D01*
X141228320Y-110129679D01*
X141047523Y-109859097D01*
X140805883Y-109617457D01*
X140521745Y-109427603D01*
X140206028Y-109296828D01*
X139870865Y-109230160D01*
X139529135Y-109230160D01*
X139193972Y-109296828D01*
X138878255Y-109427603D01*
X138594117Y-109617457D01*
X138352477Y-109859097D01*
X138162623Y-110143235D01*
X138031848Y-110458952D01*
X137965180Y-110794115D01*
X131572000Y-110794115D01*
X131572000Y-108294755D01*
X135463280Y-108294755D01*
X135463280Y-108636485D01*
X135529948Y-108971648D01*
X135660723Y-109287365D01*
X135850577Y-109571503D01*
X136092217Y-109813143D01*
X136376355Y-110002997D01*
X136692072Y-110133772D01*
X137027235Y-110200440D01*
X137368965Y-110200440D01*
X137704128Y-110133772D01*
X138019845Y-110002997D01*
X138303983Y-109813143D01*
X138545623Y-109571503D01*
X138735477Y-109287365D01*
X138866252Y-108971648D01*
X138932920Y-108636485D01*
X138932920Y-108294755D01*
X138866252Y-107959592D01*
X138735477Y-107643875D01*
X138545623Y-107359737D01*
X138437647Y-107251761D01*
X138773709Y-107251761D01*
X138891790Y-107510796D01*
X139208643Y-107638792D01*
X139544379Y-107702514D01*
X139886095Y-107699513D01*
X140220660Y-107629904D01*
X140508210Y-107510796D01*
X140626291Y-107251761D01*
X139700000Y-106325470D01*
X138773709Y-107251761D01*
X138437647Y-107251761D01*
X138303983Y-107118097D01*
X138019845Y-106928243D01*
X137704128Y-106797468D01*
X137368965Y-106730800D01*
X137027235Y-106730800D01*
X136692072Y-106797468D01*
X136376355Y-106928243D01*
X136092217Y-107118097D01*
X135850577Y-107359737D01*
X135660723Y-107643875D01*
X135529948Y-107959592D01*
X135463280Y-108294755D01*
X131572000Y-108294755D01*
X131572000Y-105810639D01*
X137963746Y-105810639D01*
X137966747Y-106152355D01*
X138036356Y-106486920D01*
X138155464Y-106774470D01*
X138414499Y-106892551D01*
X139340790Y-105966260D01*
X140059210Y-105966260D01*
X140985501Y-106892551D01*
X141244536Y-106774470D01*
X141372532Y-106457617D01*
X141436254Y-106121881D01*
X141433253Y-105780165D01*
X141363644Y-105445600D01*
X141244536Y-105158050D01*
X140985501Y-105039969D01*
X140059210Y-105966260D01*
X139340790Y-105966260D01*
X138414499Y-105039969D01*
X138155464Y-105158050D01*
X138027468Y-105474903D01*
X137963746Y-105810639D01*
X131572000Y-105810639D01*
X131572000Y-104749861D01*
X136271809Y-104749861D01*
X136389890Y-105008896D01*
X136706743Y-105136892D01*
X137042479Y-105200614D01*
X137384195Y-105197613D01*
X137718760Y-105128004D01*
X138006310Y-105008896D01*
X138124391Y-104749861D01*
X138055289Y-104680759D01*
X138773709Y-104680759D01*
X139700000Y-105607050D01*
X140626291Y-104680759D01*
X140508210Y-104421724D01*
X140191357Y-104293728D01*
X139855621Y-104230006D01*
X139513905Y-104233007D01*
X139179340Y-104302616D01*
X138891790Y-104421724D01*
X138773709Y-104680759D01*
X138055289Y-104680759D01*
X137198100Y-103823570D01*
X136271809Y-104749861D01*
X131572000Y-104749861D01*
X131572000Y-103308739D01*
X135461846Y-103308739D01*
X135464847Y-103650455D01*
X135534456Y-103985020D01*
X135653564Y-104272570D01*
X135912599Y-104390651D01*
X136838890Y-103464360D01*
X137557310Y-103464360D01*
X138483601Y-104390651D01*
X138742636Y-104272570D01*
X138870632Y-103955717D01*
X138934354Y-103619981D01*
X138931353Y-103278265D01*
X138861744Y-102943700D01*
X138742636Y-102656150D01*
X138483601Y-102538069D01*
X137557310Y-103464360D01*
X136838890Y-103464360D01*
X135912599Y-102538069D01*
X135653564Y-102656150D01*
X135525568Y-102973003D01*
X135461846Y-103308739D01*
X131572000Y-103308739D01*
X131572000Y-102178859D01*
X136271809Y-102178859D01*
X137198100Y-103105150D01*
X138124391Y-102178859D01*
X138006310Y-101919824D01*
X137689457Y-101791828D01*
X137353721Y-101728106D01*
X137012005Y-101731107D01*
X136677440Y-101800716D01*
X136389890Y-101919824D01*
X136271809Y-102178859D01*
X131572000Y-102178859D01*
X131572000Y-100794135D01*
X137965180Y-100794135D01*
X137965180Y-101135865D01*
X138031848Y-101471028D01*
X138162623Y-101786745D01*
X138352477Y-102070883D01*
X138594117Y-102312523D01*
X138878255Y-102502377D01*
X139193972Y-102633152D01*
X139217588Y-102637850D01*
X140568420Y-103988682D01*
X140616136Y-104046824D01*
X140674278Y-104094540D01*
X140674282Y-104094544D01*
X140848195Y-104237270D01*
X141112949Y-104378784D01*
X141400224Y-104465928D01*
X141624121Y-104487980D01*
X141624129Y-104487980D01*
X141698980Y-104495352D01*
X141773831Y-104487980D01*
X142783672Y-104487980D01*
X142791016Y-104494007D01*
X142901330Y-104552972D01*
X143021028Y-104589282D01*
X143145510Y-104601542D01*
X145144490Y-104601542D01*
X145268972Y-104589282D01*
X145388670Y-104552972D01*
X145498984Y-104494007D01*
X145506328Y-104487980D01*
X145958672Y-104487980D01*
X145966016Y-104494007D01*
X146076330Y-104552972D01*
X146196028Y-104589282D01*
X146320510Y-104601542D01*
X148319490Y-104601542D01*
X148443972Y-104589282D01*
X148563670Y-104552972D01*
X148673984Y-104494007D01*
X148770675Y-104414655D01*
X148850027Y-104317964D01*
X148908992Y-104207650D01*
X148945302Y-104087952D01*
X148957562Y-103963470D01*
X148957562Y-101964490D01*
X148945302Y-101840008D01*
X148908992Y-101720310D01*
X148850027Y-101609996D01*
X148770675Y-101513305D01*
X148673984Y-101433953D01*
X148563670Y-101374988D01*
X148443972Y-101338678D01*
X148319490Y-101326418D01*
X146320510Y-101326418D01*
X146196028Y-101338678D01*
X146076330Y-101374988D01*
X145966016Y-101433953D01*
X145958672Y-101439980D01*
X145506328Y-101439980D01*
X145498984Y-101433953D01*
X145388670Y-101374988D01*
X145268972Y-101338678D01*
X145144490Y-101326418D01*
X143145510Y-101326418D01*
X143021028Y-101338678D01*
X142901330Y-101374988D01*
X142791016Y-101433953D01*
X142783672Y-101439980D01*
X142330242Y-101439980D01*
X141372850Y-100482588D01*
X141368152Y-100458972D01*
X141237377Y-100143255D01*
X141118613Y-99965510D01*
X142507438Y-99965510D01*
X142519698Y-100089992D01*
X142556008Y-100209690D01*
X142614973Y-100320004D01*
X142694325Y-100416695D01*
X142791016Y-100496047D01*
X142901330Y-100555012D01*
X143021028Y-100591322D01*
X143145510Y-100603582D01*
X143732250Y-100600510D01*
X143891000Y-100441760D01*
X143891000Y-99220020D01*
X144399000Y-99220020D01*
X144399000Y-100441760D01*
X144557750Y-100600510D01*
X145144490Y-100603582D01*
X145268972Y-100591322D01*
X145388670Y-100555012D01*
X145498984Y-100496047D01*
X145595675Y-100416695D01*
X145675027Y-100320004D01*
X145732500Y-100212481D01*
X145789973Y-100320004D01*
X145869325Y-100416695D01*
X145966016Y-100496047D01*
X146076330Y-100555012D01*
X146196028Y-100591322D01*
X146320510Y-100603582D01*
X146907250Y-100600510D01*
X147066000Y-100441760D01*
X147066000Y-99220020D01*
X147574000Y-99220020D01*
X147574000Y-100441760D01*
X147732750Y-100600510D01*
X148319490Y-100603582D01*
X148443972Y-100591322D01*
X148563670Y-100555012D01*
X148673984Y-100496047D01*
X148770675Y-100416695D01*
X148850027Y-100320004D01*
X148908992Y-100209690D01*
X148945302Y-100089992D01*
X148957562Y-99965510D01*
X148954490Y-99378770D01*
X148795740Y-99220020D01*
X147574000Y-99220020D01*
X147066000Y-99220020D01*
X145844260Y-99220020D01*
X145732500Y-99331780D01*
X145620740Y-99220020D01*
X144399000Y-99220020D01*
X143891000Y-99220020D01*
X142669260Y-99220020D01*
X142510510Y-99378770D01*
X142507438Y-99965510D01*
X141118613Y-99965510D01*
X141047523Y-99859117D01*
X140805883Y-99617477D01*
X140521745Y-99427623D01*
X140206028Y-99296848D01*
X139870865Y-99230180D01*
X139529135Y-99230180D01*
X139193972Y-99296848D01*
X138878255Y-99427623D01*
X138594117Y-99617477D01*
X138352477Y-99859117D01*
X138162623Y-100143255D01*
X138031848Y-100458972D01*
X137965180Y-100794135D01*
X131572000Y-100794135D01*
X131572000Y-99751141D01*
X136271809Y-99751141D01*
X136389890Y-100010176D01*
X136706743Y-100138172D01*
X137042479Y-100201894D01*
X137384195Y-100198893D01*
X137718760Y-100129284D01*
X138006310Y-100010176D01*
X138124391Y-99751141D01*
X137198100Y-98824850D01*
X136271809Y-99751141D01*
X131572000Y-99751141D01*
X131572000Y-98310019D01*
X135461846Y-98310019D01*
X135464847Y-98651735D01*
X135534456Y-98986300D01*
X135653564Y-99273850D01*
X135912599Y-99391931D01*
X136838890Y-98465640D01*
X137557310Y-98465640D01*
X138483601Y-99391931D01*
X138742636Y-99273850D01*
X138870632Y-98956997D01*
X138884587Y-98883470D01*
X149492438Y-98883470D01*
X149504698Y-99007952D01*
X149541008Y-99127650D01*
X149599973Y-99237964D01*
X149679325Y-99334655D01*
X149776016Y-99414007D01*
X149886330Y-99472972D01*
X150006028Y-99509282D01*
X150130510Y-99521542D01*
X150717250Y-99518470D01*
X150876000Y-99359720D01*
X150876000Y-98137980D01*
X151384000Y-98137980D01*
X151384000Y-99359720D01*
X151542750Y-99518470D01*
X152129490Y-99521542D01*
X152253972Y-99509282D01*
X152373670Y-99472972D01*
X152483984Y-99414007D01*
X152580675Y-99334655D01*
X152660027Y-99237964D01*
X152717500Y-99130441D01*
X152774973Y-99237964D01*
X152854325Y-99334655D01*
X152951016Y-99414007D01*
X153061330Y-99472972D01*
X153181028Y-99509282D01*
X153305510Y-99521542D01*
X153892250Y-99518470D01*
X154051000Y-99359720D01*
X154051000Y-98137980D01*
X154559000Y-98137980D01*
X154559000Y-99359720D01*
X154717750Y-99518470D01*
X155304490Y-99521542D01*
X155428972Y-99509282D01*
X155548670Y-99472972D01*
X155658984Y-99414007D01*
X155755675Y-99334655D01*
X155835027Y-99237964D01*
X155893992Y-99127650D01*
X155930302Y-99007952D01*
X155942562Y-98883470D01*
X155939490Y-98296730D01*
X155780740Y-98137980D01*
X154559000Y-98137980D01*
X154051000Y-98137980D01*
X152829260Y-98137980D01*
X152717500Y-98249740D01*
X152605740Y-98137980D01*
X151384000Y-98137980D01*
X150876000Y-98137980D01*
X149654260Y-98137980D01*
X149495510Y-98296730D01*
X149492438Y-98883470D01*
X138884587Y-98883470D01*
X138934354Y-98621261D01*
X138931353Y-98279545D01*
X138861744Y-97944980D01*
X138742636Y-97657430D01*
X138483601Y-97539349D01*
X137557310Y-98465640D01*
X136838890Y-98465640D01*
X135912599Y-97539349D01*
X135653564Y-97657430D01*
X135525568Y-97974283D01*
X135461846Y-98310019D01*
X131572000Y-98310019D01*
X131572000Y-97180139D01*
X136271809Y-97180139D01*
X137198100Y-98106430D01*
X138124391Y-97180139D01*
X138006310Y-96921104D01*
X137689457Y-96793108D01*
X137353721Y-96729386D01*
X137012005Y-96732387D01*
X136677440Y-96801996D01*
X136389890Y-96921104D01*
X136271809Y-97180139D01*
X131572000Y-97180139D01*
X131572000Y-94749881D01*
X136271809Y-94749881D01*
X136389890Y-95008916D01*
X136706743Y-95136912D01*
X137042479Y-95200634D01*
X137384195Y-95197633D01*
X137718760Y-95128024D01*
X138006310Y-95008916D01*
X138124391Y-94749881D01*
X137198100Y-93823590D01*
X136271809Y-94749881D01*
X131572000Y-94749881D01*
X131572000Y-93308759D01*
X135461846Y-93308759D01*
X135464847Y-93650475D01*
X135534456Y-93985040D01*
X135653564Y-94272590D01*
X135912599Y-94390671D01*
X136838890Y-93464380D01*
X137557310Y-93464380D01*
X138483601Y-94390671D01*
X138742636Y-94272590D01*
X138870632Y-93955737D01*
X138934354Y-93620001D01*
X138931353Y-93278285D01*
X138861744Y-92943720D01*
X138742636Y-92656170D01*
X138483601Y-92538089D01*
X137557310Y-93464380D01*
X136838890Y-93464380D01*
X135912599Y-92538089D01*
X135653564Y-92656170D01*
X135525568Y-92973023D01*
X135461846Y-93308759D01*
X131572000Y-93308759D01*
X131572000Y-92178879D01*
X136271809Y-92178879D01*
X137198100Y-93105170D01*
X138124391Y-92178879D01*
X138006310Y-91919844D01*
X137689457Y-91791848D01*
X137353721Y-91728126D01*
X137012005Y-91731127D01*
X136677440Y-91800736D01*
X136389890Y-91919844D01*
X136271809Y-92178879D01*
X131572000Y-92178879D01*
X131572000Y-90794155D01*
X137965180Y-90794155D01*
X137965180Y-91135885D01*
X138031848Y-91471048D01*
X138162623Y-91786765D01*
X138352477Y-92070903D01*
X138594117Y-92312543D01*
X138878255Y-92502397D01*
X139193972Y-92633172D01*
X139217589Y-92637870D01*
X140408396Y-93828677D01*
X140456116Y-93886824D01*
X140688175Y-94077270D01*
X140952929Y-94218784D01*
X141240204Y-94305928D01*
X141464101Y-94327980D01*
X141464110Y-94327980D01*
X141538959Y-94335352D01*
X141613808Y-94327980D01*
X142783672Y-94327980D01*
X142791016Y-94334007D01*
X142901330Y-94392972D01*
X143021028Y-94429282D01*
X143145510Y-94441542D01*
X145144490Y-94441542D01*
X145268972Y-94429282D01*
X145388670Y-94392972D01*
X145498984Y-94334007D01*
X145506328Y-94327980D01*
X145958672Y-94327980D01*
X145966016Y-94334007D01*
X146076330Y-94392972D01*
X146196028Y-94429282D01*
X146320510Y-94441542D01*
X148319490Y-94441542D01*
X148430112Y-94430647D01*
X148418479Y-94442280D01*
X140541765Y-94442280D01*
X140521745Y-94428903D01*
X140206028Y-94298128D01*
X139870865Y-94231460D01*
X139529135Y-94231460D01*
X139193972Y-94298128D01*
X138878255Y-94428903D01*
X138594117Y-94618757D01*
X138352477Y-94860397D01*
X138162623Y-95144535D01*
X138031848Y-95460252D01*
X137965180Y-95795415D01*
X137965180Y-96137145D01*
X138031848Y-96472308D01*
X138162623Y-96788025D01*
X138352477Y-97072163D01*
X138594117Y-97313803D01*
X138878255Y-97503657D01*
X139193972Y-97634432D01*
X139529135Y-97701100D01*
X139870865Y-97701100D01*
X140206028Y-97634432D01*
X140521745Y-97503657D01*
X140541765Y-97490280D01*
X142724867Y-97490280D01*
X142694325Y-97515345D01*
X142614973Y-97612036D01*
X142556008Y-97722350D01*
X142519698Y-97842048D01*
X142507438Y-97966530D01*
X142510510Y-98553270D01*
X142669260Y-98712020D01*
X143891000Y-98712020D01*
X143891000Y-98692020D01*
X144399000Y-98692020D01*
X144399000Y-98712020D01*
X145620740Y-98712020D01*
X145732500Y-98600260D01*
X145844260Y-98712020D01*
X147066000Y-98712020D01*
X147066000Y-98692020D01*
X147574000Y-98692020D01*
X147574000Y-98712020D01*
X148795740Y-98712020D01*
X148954490Y-98553270D01*
X148957562Y-97966530D01*
X148945302Y-97842048D01*
X148908992Y-97722350D01*
X148888322Y-97683679D01*
X165290500Y-97683679D01*
X165290500Y-97896321D01*
X165331985Y-98104878D01*
X165413360Y-98301335D01*
X165531498Y-98478141D01*
X165681859Y-98628502D01*
X165858665Y-98746640D01*
X166055122Y-98828015D01*
X166263679Y-98869500D01*
X166476321Y-98869500D01*
X166684878Y-98828015D01*
X166881335Y-98746640D01*
X167058141Y-98628502D01*
X167208502Y-98478141D01*
X167326640Y-98301335D01*
X167408015Y-98104878D01*
X167449500Y-97896321D01*
X167449500Y-97683679D01*
X167408015Y-97475122D01*
X167326640Y-97278665D01*
X167208502Y-97101859D01*
X167157400Y-97050757D01*
X167157400Y-92401150D01*
X168944052Y-90614500D01*
X169016321Y-90614500D01*
X169224878Y-90573015D01*
X169421335Y-90491640D01*
X169598141Y-90373502D01*
X169748502Y-90223141D01*
X169866640Y-90046335D01*
X169948015Y-89849878D01*
X169989500Y-89641321D01*
X169989500Y-89428679D01*
X169948015Y-89220122D01*
X169866640Y-89023665D01*
X169748502Y-88846859D01*
X169598141Y-88696498D01*
X169421335Y-88578360D01*
X169224878Y-88496985D01*
X169016321Y-88455500D01*
X168803679Y-88455500D01*
X168595122Y-88496985D01*
X168398665Y-88578360D01*
X168221859Y-88696498D01*
X168071498Y-88846859D01*
X167953360Y-89023665D01*
X167871985Y-89220122D01*
X167830500Y-89428679D01*
X167830500Y-89500948D01*
X165840573Y-91490877D01*
X165810532Y-91515531D01*
X165773783Y-91560310D01*
X165712135Y-91635428D01*
X165639018Y-91772218D01*
X165593995Y-91920643D01*
X165578792Y-92075000D01*
X165582601Y-92113673D01*
X165582600Y-97050757D01*
X165531498Y-97101859D01*
X165413360Y-97278665D01*
X165331985Y-97475122D01*
X165290500Y-97683679D01*
X148888322Y-97683679D01*
X148850027Y-97612036D01*
X148770675Y-97515345D01*
X148740133Y-97490280D01*
X148974891Y-97490280D01*
X149049740Y-97497652D01*
X149124589Y-97490280D01*
X149124599Y-97490280D01*
X149348496Y-97468228D01*
X149495261Y-97423707D01*
X149495510Y-97471230D01*
X149654260Y-97629980D01*
X150876000Y-97629980D01*
X150876000Y-96408240D01*
X151384000Y-96408240D01*
X151384000Y-97629980D01*
X152605740Y-97629980D01*
X152717500Y-97518220D01*
X152829260Y-97629980D01*
X154051000Y-97629980D01*
X154051000Y-96408240D01*
X154559000Y-96408240D01*
X154559000Y-97629980D01*
X155780740Y-97629980D01*
X155939490Y-97471230D01*
X155942562Y-96884490D01*
X155930302Y-96760008D01*
X155893992Y-96640310D01*
X155835027Y-96529996D01*
X155755675Y-96433305D01*
X155658984Y-96353953D01*
X155548670Y-96294988D01*
X155428972Y-96258678D01*
X155304490Y-96246418D01*
X154717750Y-96249490D01*
X154559000Y-96408240D01*
X154051000Y-96408240D01*
X153892250Y-96249490D01*
X153305510Y-96246418D01*
X153181028Y-96258678D01*
X153061330Y-96294988D01*
X152951016Y-96353953D01*
X152854325Y-96433305D01*
X152774973Y-96529996D01*
X152717500Y-96637519D01*
X152660027Y-96529996D01*
X152580675Y-96433305D01*
X152483984Y-96353953D01*
X152373670Y-96294988D01*
X152253972Y-96258678D01*
X152129490Y-96246418D01*
X151542750Y-96249490D01*
X151384000Y-96408240D01*
X150876000Y-96408240D01*
X150819521Y-96351761D01*
X151647700Y-95523582D01*
X152129490Y-95523582D01*
X152253972Y-95511322D01*
X152373670Y-95475012D01*
X152483984Y-95416047D01*
X152491328Y-95410020D01*
X152943672Y-95410020D01*
X152951016Y-95416047D01*
X153061330Y-95475012D01*
X153181028Y-95511322D01*
X153305510Y-95523582D01*
X155304490Y-95523582D01*
X155428972Y-95511322D01*
X155548670Y-95475012D01*
X155658984Y-95416047D01*
X155755675Y-95336695D01*
X155835027Y-95240004D01*
X155893992Y-95129690D01*
X155930302Y-95009992D01*
X155942562Y-94885510D01*
X155942562Y-92886530D01*
X155930302Y-92762048D01*
X155893992Y-92642350D01*
X155835027Y-92532036D01*
X155755675Y-92435345D01*
X155658984Y-92355993D01*
X155548670Y-92297028D01*
X155428972Y-92260718D01*
X155304490Y-92248458D01*
X153305510Y-92248458D01*
X153181028Y-92260718D01*
X153061330Y-92297028D01*
X152951016Y-92355993D01*
X152943672Y-92362020D01*
X152491328Y-92362020D01*
X152483984Y-92355993D01*
X152373670Y-92297028D01*
X152253972Y-92260718D01*
X152129490Y-92248458D01*
X150130510Y-92248458D01*
X150006028Y-92260718D01*
X149886330Y-92297028D01*
X149776016Y-92355993D01*
X149679325Y-92435345D01*
X149599973Y-92532036D01*
X149541008Y-92642350D01*
X149504698Y-92762048D01*
X149492438Y-92886530D01*
X149492438Y-93368320D01*
X148946667Y-93914091D01*
X148957562Y-93803470D01*
X148957562Y-91804490D01*
X148945302Y-91680008D01*
X148908992Y-91560310D01*
X148850027Y-91449996D01*
X148770675Y-91353305D01*
X148673984Y-91273953D01*
X148563670Y-91214988D01*
X148443972Y-91178678D01*
X148319490Y-91166418D01*
X146320510Y-91166418D01*
X146196028Y-91178678D01*
X146076330Y-91214988D01*
X145966016Y-91273953D01*
X145958672Y-91279980D01*
X145506328Y-91279980D01*
X145498984Y-91273953D01*
X145388670Y-91214988D01*
X145268972Y-91178678D01*
X145144490Y-91166418D01*
X143145510Y-91166418D01*
X143021028Y-91178678D01*
X142901330Y-91214988D01*
X142791016Y-91273953D01*
X142783672Y-91279980D01*
X142170221Y-91279980D01*
X141372850Y-90482609D01*
X141368152Y-90458992D01*
X141237377Y-90143275D01*
X141047523Y-89859137D01*
X140993896Y-89805510D01*
X142507438Y-89805510D01*
X142519698Y-89929992D01*
X142556008Y-90049690D01*
X142614973Y-90160004D01*
X142694325Y-90256695D01*
X142791016Y-90336047D01*
X142901330Y-90395012D01*
X143021028Y-90431322D01*
X143145510Y-90443582D01*
X143732250Y-90440510D01*
X143891000Y-90281760D01*
X143891000Y-89060020D01*
X144399000Y-89060020D01*
X144399000Y-90281760D01*
X144557750Y-90440510D01*
X145144490Y-90443582D01*
X145268972Y-90431322D01*
X145388670Y-90395012D01*
X145498984Y-90336047D01*
X145595675Y-90256695D01*
X145675027Y-90160004D01*
X145732500Y-90052481D01*
X145789973Y-90160004D01*
X145869325Y-90256695D01*
X145966016Y-90336047D01*
X146076330Y-90395012D01*
X146196028Y-90431322D01*
X146320510Y-90443582D01*
X146907250Y-90440510D01*
X147066000Y-90281760D01*
X147066000Y-89060020D01*
X147574000Y-89060020D01*
X147574000Y-90281760D01*
X147732750Y-90440510D01*
X148319490Y-90443582D01*
X148443972Y-90431322D01*
X148563670Y-90395012D01*
X148673984Y-90336047D01*
X148770675Y-90256695D01*
X148850027Y-90160004D01*
X148908992Y-90049690D01*
X148945302Y-89929992D01*
X148957562Y-89805510D01*
X148954490Y-89218770D01*
X148795740Y-89060020D01*
X147574000Y-89060020D01*
X147066000Y-89060020D01*
X145844260Y-89060020D01*
X145732500Y-89171780D01*
X145620740Y-89060020D01*
X144399000Y-89060020D01*
X143891000Y-89060020D01*
X142669260Y-89060020D01*
X142510510Y-89218770D01*
X142507438Y-89805510D01*
X140993896Y-89805510D01*
X140805883Y-89617497D01*
X140521745Y-89427643D01*
X140206028Y-89296868D01*
X139870865Y-89230200D01*
X139529135Y-89230200D01*
X139193972Y-89296868D01*
X138878255Y-89427643D01*
X138594117Y-89617497D01*
X138352477Y-89859137D01*
X138162623Y-90143275D01*
X138031848Y-90458992D01*
X137965180Y-90794155D01*
X131572000Y-90794155D01*
X131572000Y-89751161D01*
X136271809Y-89751161D01*
X136389890Y-90010196D01*
X136706743Y-90138192D01*
X137042479Y-90201914D01*
X137384195Y-90198913D01*
X137718760Y-90129304D01*
X138006310Y-90010196D01*
X138124391Y-89751161D01*
X137198100Y-88824870D01*
X136271809Y-89751161D01*
X131572000Y-89751161D01*
X131572000Y-88310039D01*
X135461846Y-88310039D01*
X135464847Y-88651755D01*
X135534456Y-88986320D01*
X135653564Y-89273870D01*
X135912599Y-89391951D01*
X136838890Y-88465660D01*
X137557310Y-88465660D01*
X138483601Y-89391951D01*
X138742636Y-89273870D01*
X138870632Y-88957017D01*
X138914958Y-88723470D01*
X149492438Y-88723470D01*
X149504698Y-88847952D01*
X149541008Y-88967650D01*
X149599973Y-89077964D01*
X149679325Y-89174655D01*
X149776016Y-89254007D01*
X149886330Y-89312972D01*
X150006028Y-89349282D01*
X150130510Y-89361542D01*
X150717250Y-89358470D01*
X150876000Y-89199720D01*
X150876000Y-87977980D01*
X151384000Y-87977980D01*
X151384000Y-89199720D01*
X151542750Y-89358470D01*
X152129490Y-89361542D01*
X152253972Y-89349282D01*
X152373670Y-89312972D01*
X152483984Y-89254007D01*
X152580675Y-89174655D01*
X152660027Y-89077964D01*
X152717500Y-88970441D01*
X152774973Y-89077964D01*
X152854325Y-89174655D01*
X152951016Y-89254007D01*
X153061330Y-89312972D01*
X153181028Y-89349282D01*
X153305510Y-89361542D01*
X153892250Y-89358470D01*
X154051000Y-89199720D01*
X154051000Y-87977980D01*
X154559000Y-87977980D01*
X154559000Y-89199720D01*
X154717750Y-89358470D01*
X155304490Y-89361542D01*
X155428972Y-89349282D01*
X155548670Y-89312972D01*
X155658984Y-89254007D01*
X155755675Y-89174655D01*
X155835027Y-89077964D01*
X155893992Y-88967650D01*
X155930302Y-88847952D01*
X155942562Y-88723470D01*
X155939490Y-88136730D01*
X155780740Y-87977980D01*
X154559000Y-87977980D01*
X154051000Y-87977980D01*
X152829260Y-87977980D01*
X152717500Y-88089740D01*
X152605740Y-87977980D01*
X151384000Y-87977980D01*
X150876000Y-87977980D01*
X149654260Y-87977980D01*
X149495510Y-88136730D01*
X149492438Y-88723470D01*
X138914958Y-88723470D01*
X138934354Y-88621281D01*
X138931353Y-88279565D01*
X138861744Y-87945000D01*
X138742636Y-87657450D01*
X138483601Y-87539369D01*
X137557310Y-88465660D01*
X136838890Y-88465660D01*
X135912599Y-87539369D01*
X135653564Y-87657450D01*
X135525568Y-87974303D01*
X135461846Y-88310039D01*
X131572000Y-88310039D01*
X131572000Y-87180159D01*
X136271809Y-87180159D01*
X137198100Y-88106450D01*
X138124391Y-87180159D01*
X138006310Y-86921124D01*
X137689457Y-86793128D01*
X137353721Y-86729406D01*
X137012005Y-86732407D01*
X136677440Y-86802016D01*
X136389890Y-86921124D01*
X136271809Y-87180159D01*
X131572000Y-87180159D01*
X131572000Y-84749901D01*
X136271809Y-84749901D01*
X136389890Y-85008936D01*
X136706743Y-85136932D01*
X137042479Y-85200654D01*
X137384195Y-85197653D01*
X137718760Y-85128044D01*
X138006310Y-85008936D01*
X138124391Y-84749901D01*
X137198100Y-83823610D01*
X136271809Y-84749901D01*
X131572000Y-84749901D01*
X131572000Y-83308779D01*
X135461846Y-83308779D01*
X135464847Y-83650495D01*
X135534456Y-83985060D01*
X135653564Y-84272610D01*
X135912599Y-84390691D01*
X136838890Y-83464400D01*
X137557310Y-83464400D01*
X138483601Y-84390691D01*
X138742636Y-84272610D01*
X138870632Y-83955757D01*
X138934354Y-83620021D01*
X138931353Y-83278305D01*
X138861744Y-82943740D01*
X138742636Y-82656190D01*
X138483601Y-82538109D01*
X137557310Y-83464400D01*
X136838890Y-83464400D01*
X135912599Y-82538109D01*
X135653564Y-82656190D01*
X135525568Y-82973043D01*
X135461846Y-83308779D01*
X131572000Y-83308779D01*
X131572000Y-82178899D01*
X136271809Y-82178899D01*
X137198100Y-83105190D01*
X138124391Y-82178899D01*
X138006310Y-81919864D01*
X137689457Y-81791868D01*
X137353721Y-81728146D01*
X137012005Y-81731147D01*
X136677440Y-81800756D01*
X136389890Y-81919864D01*
X136271809Y-82178899D01*
X131572000Y-82178899D01*
X131572000Y-80794175D01*
X137965180Y-80794175D01*
X137965180Y-81135905D01*
X138031848Y-81471068D01*
X138162623Y-81786785D01*
X138352477Y-82070923D01*
X138594117Y-82312563D01*
X138878255Y-82502417D01*
X139193972Y-82633192D01*
X139217588Y-82637890D01*
X140248380Y-83668682D01*
X140296096Y-83726824D01*
X140354238Y-83774540D01*
X140354242Y-83774544D01*
X140528154Y-83917270D01*
X140729286Y-84024777D01*
X140792909Y-84058784D01*
X141080184Y-84145928D01*
X141304081Y-84167980D01*
X141304089Y-84167980D01*
X141378940Y-84175352D01*
X141453791Y-84167980D01*
X142783672Y-84167980D01*
X142791016Y-84174007D01*
X142901330Y-84232972D01*
X143021028Y-84269282D01*
X143145510Y-84281542D01*
X145144490Y-84281542D01*
X145268972Y-84269282D01*
X145388670Y-84232972D01*
X145498984Y-84174007D01*
X145506328Y-84167980D01*
X145958672Y-84167980D01*
X145966016Y-84174007D01*
X146076330Y-84232972D01*
X146196028Y-84269282D01*
X146320510Y-84281542D01*
X147878197Y-84281542D01*
X147717439Y-84442300D01*
X140541765Y-84442300D01*
X140521745Y-84428923D01*
X140206028Y-84298148D01*
X139870865Y-84231480D01*
X139529135Y-84231480D01*
X139193972Y-84298148D01*
X138878255Y-84428923D01*
X138594117Y-84618777D01*
X138352477Y-84860417D01*
X138162623Y-85144555D01*
X138031848Y-85460272D01*
X137965180Y-85795435D01*
X137965180Y-86137165D01*
X138031848Y-86472328D01*
X138162623Y-86788045D01*
X138352477Y-87072183D01*
X138594117Y-87313823D01*
X138878255Y-87503677D01*
X139193972Y-87634452D01*
X139529135Y-87701120D01*
X139870865Y-87701120D01*
X140206028Y-87634452D01*
X140521745Y-87503677D01*
X140541765Y-87490300D01*
X142594520Y-87490300D01*
X142556008Y-87562350D01*
X142519698Y-87682048D01*
X142507438Y-87806530D01*
X142510510Y-88393270D01*
X142669260Y-88552020D01*
X143891000Y-88552020D01*
X143891000Y-88532020D01*
X144399000Y-88532020D01*
X144399000Y-88552020D01*
X145620740Y-88552020D01*
X145732500Y-88440260D01*
X145844260Y-88552020D01*
X147066000Y-88552020D01*
X147066000Y-88532020D01*
X147574000Y-88532020D01*
X147574000Y-88552020D01*
X148795740Y-88552020D01*
X148954490Y-88393270D01*
X148957562Y-87806530D01*
X148945302Y-87682048D01*
X148908992Y-87562350D01*
X148850027Y-87452036D01*
X148820302Y-87415816D01*
X148934731Y-87381104D01*
X149199485Y-87239590D01*
X149431544Y-87049144D01*
X149479264Y-86990997D01*
X149493757Y-86976504D01*
X149495510Y-87311230D01*
X149654260Y-87469980D01*
X150876000Y-87469980D01*
X150876000Y-86248240D01*
X151384000Y-86248240D01*
X151384000Y-87469980D01*
X152605740Y-87469980D01*
X152717500Y-87358220D01*
X152829260Y-87469980D01*
X154051000Y-87469980D01*
X154051000Y-86248240D01*
X154559000Y-86248240D01*
X154559000Y-87469980D01*
X155780740Y-87469980D01*
X155939490Y-87311230D01*
X155942562Y-86724490D01*
X155930302Y-86600008D01*
X155893992Y-86480310D01*
X155835027Y-86369996D01*
X155755675Y-86273305D01*
X155658984Y-86193953D01*
X155548670Y-86134988D01*
X155428972Y-86098678D01*
X155304490Y-86086418D01*
X154717750Y-86089490D01*
X154559000Y-86248240D01*
X154051000Y-86248240D01*
X153892250Y-86089490D01*
X153305510Y-86086418D01*
X153181028Y-86098678D01*
X153061330Y-86134988D01*
X152951016Y-86193953D01*
X152854325Y-86273305D01*
X152774973Y-86369996D01*
X152717500Y-86477519D01*
X152660027Y-86369996D01*
X152580675Y-86273305D01*
X152483984Y-86193953D01*
X152373670Y-86134988D01*
X152253972Y-86098678D01*
X152129490Y-86086418D01*
X151542750Y-86089490D01*
X151384000Y-86248240D01*
X150876000Y-86248240D01*
X150717250Y-86089490D01*
X150382524Y-86087737D01*
X151106679Y-85363582D01*
X152129490Y-85363582D01*
X152253972Y-85351322D01*
X152373670Y-85315012D01*
X152483984Y-85256047D01*
X152491328Y-85250020D01*
X152943672Y-85250020D01*
X152951016Y-85256047D01*
X153061330Y-85315012D01*
X153181028Y-85351322D01*
X153305510Y-85363582D01*
X155304490Y-85363582D01*
X155428972Y-85351322D01*
X155548670Y-85315012D01*
X155658984Y-85256047D01*
X155755675Y-85176695D01*
X155835027Y-85080004D01*
X155893992Y-84969690D01*
X155930302Y-84849992D01*
X155942562Y-84725510D01*
X155942562Y-82726530D01*
X155930302Y-82602048D01*
X155893992Y-82482350D01*
X155835027Y-82372036D01*
X155755675Y-82275345D01*
X155658984Y-82195993D01*
X155548670Y-82137028D01*
X155428972Y-82100718D01*
X155304490Y-82088458D01*
X153305510Y-82088458D01*
X153181028Y-82100718D01*
X153061330Y-82137028D01*
X152951016Y-82195993D01*
X152943672Y-82202020D01*
X152491328Y-82202020D01*
X152483984Y-82195993D01*
X152373670Y-82137028D01*
X152253972Y-82100718D01*
X152129490Y-82088458D01*
X150130510Y-82088458D01*
X150006028Y-82100718D01*
X149886330Y-82137028D01*
X149776016Y-82195993D01*
X149679325Y-82275345D01*
X149599973Y-82372036D01*
X149541008Y-82482350D01*
X149504698Y-82602048D01*
X149499899Y-82650776D01*
X149458416Y-82701323D01*
X148957562Y-83202177D01*
X148957562Y-81644490D01*
X148945302Y-81520008D01*
X148908992Y-81400310D01*
X148850027Y-81289996D01*
X148770675Y-81193305D01*
X148673984Y-81113953D01*
X148563670Y-81054988D01*
X148443972Y-81018678D01*
X148319490Y-81006418D01*
X146320510Y-81006418D01*
X146196028Y-81018678D01*
X146076330Y-81054988D01*
X145966016Y-81113953D01*
X145958672Y-81119980D01*
X145506328Y-81119980D01*
X145498984Y-81113953D01*
X145388670Y-81054988D01*
X145268972Y-81018678D01*
X145144490Y-81006418D01*
X143145510Y-81006418D01*
X143021028Y-81018678D01*
X142901330Y-81054988D01*
X142791016Y-81113953D01*
X142783672Y-81119980D01*
X142010202Y-81119980D01*
X141372850Y-80482628D01*
X141368152Y-80459012D01*
X141237377Y-80143295D01*
X141047523Y-79859157D01*
X140833876Y-79645510D01*
X142507438Y-79645510D01*
X142519698Y-79769992D01*
X142556008Y-79889690D01*
X142614973Y-80000004D01*
X142694325Y-80096695D01*
X142791016Y-80176047D01*
X142901330Y-80235012D01*
X143021028Y-80271322D01*
X143145510Y-80283582D01*
X143732250Y-80280510D01*
X143891000Y-80121760D01*
X143891000Y-78900020D01*
X144399000Y-78900020D01*
X144399000Y-80121760D01*
X144557750Y-80280510D01*
X145144490Y-80283582D01*
X145268972Y-80271322D01*
X145388670Y-80235012D01*
X145498984Y-80176047D01*
X145595675Y-80096695D01*
X145675027Y-80000004D01*
X145732500Y-79892481D01*
X145789973Y-80000004D01*
X145869325Y-80096695D01*
X145966016Y-80176047D01*
X146076330Y-80235012D01*
X146196028Y-80271322D01*
X146320510Y-80283582D01*
X146907250Y-80280510D01*
X147066000Y-80121760D01*
X147066000Y-78900020D01*
X147574000Y-78900020D01*
X147574000Y-80121760D01*
X147732750Y-80280510D01*
X148319490Y-80283582D01*
X148443972Y-80271322D01*
X148563670Y-80235012D01*
X148673984Y-80176047D01*
X148770675Y-80096695D01*
X148850027Y-80000004D01*
X148908992Y-79889690D01*
X148926046Y-79833470D01*
X149492438Y-79833470D01*
X149504698Y-79957952D01*
X149541008Y-80077650D01*
X149599973Y-80187964D01*
X149679325Y-80284655D01*
X149776016Y-80364007D01*
X149886330Y-80422972D01*
X150006028Y-80459282D01*
X150130510Y-80471542D01*
X150717250Y-80468470D01*
X150876000Y-80309720D01*
X150876000Y-79087980D01*
X151384000Y-79087980D01*
X151384000Y-80309720D01*
X151542750Y-80468470D01*
X152129490Y-80471542D01*
X152253972Y-80459282D01*
X152373670Y-80422972D01*
X152483984Y-80364007D01*
X152580675Y-80284655D01*
X152660027Y-80187964D01*
X152717500Y-80080441D01*
X152774973Y-80187964D01*
X152854325Y-80284655D01*
X152951016Y-80364007D01*
X153061330Y-80422972D01*
X153181028Y-80459282D01*
X153305510Y-80471542D01*
X153892250Y-80468470D01*
X154051000Y-80309720D01*
X154051000Y-79087980D01*
X154559000Y-79087980D01*
X154559000Y-80309720D01*
X154717750Y-80468470D01*
X155304490Y-80471542D01*
X155428972Y-80459282D01*
X155548670Y-80422972D01*
X155658984Y-80364007D01*
X155755675Y-80284655D01*
X155835027Y-80187964D01*
X155893992Y-80077650D01*
X155930302Y-79957952D01*
X155942562Y-79833470D01*
X155939490Y-79246730D01*
X155780740Y-79087980D01*
X154559000Y-79087980D01*
X154051000Y-79087980D01*
X152829260Y-79087980D01*
X152717500Y-79199740D01*
X152605740Y-79087980D01*
X151384000Y-79087980D01*
X150876000Y-79087980D01*
X149654260Y-79087980D01*
X149495510Y-79246730D01*
X149492438Y-79833470D01*
X148926046Y-79833470D01*
X148945302Y-79769992D01*
X148957562Y-79645510D01*
X148954490Y-79058770D01*
X148795740Y-78900020D01*
X147574000Y-78900020D01*
X147066000Y-78900020D01*
X145844260Y-78900020D01*
X145732500Y-79011780D01*
X145620740Y-78900020D01*
X144399000Y-78900020D01*
X143891000Y-78900020D01*
X142669260Y-78900020D01*
X142510510Y-79058770D01*
X142507438Y-79645510D01*
X140833876Y-79645510D01*
X140805883Y-79617517D01*
X140521745Y-79427663D01*
X140206028Y-79296888D01*
X139870865Y-79230220D01*
X139529135Y-79230220D01*
X139193972Y-79296888D01*
X138878255Y-79427663D01*
X138594117Y-79617517D01*
X138352477Y-79859157D01*
X138162623Y-80143295D01*
X138031848Y-80459012D01*
X137965180Y-80794175D01*
X131572000Y-80794175D01*
X131572000Y-79751181D01*
X136271809Y-79751181D01*
X136389890Y-80010216D01*
X136706743Y-80138212D01*
X137042479Y-80201934D01*
X137384195Y-80198933D01*
X137718760Y-80129324D01*
X138006310Y-80010216D01*
X138124391Y-79751181D01*
X137198100Y-78824890D01*
X136271809Y-79751181D01*
X131572000Y-79751181D01*
X131572000Y-78310059D01*
X135461846Y-78310059D01*
X135464847Y-78651775D01*
X135534456Y-78986340D01*
X135653564Y-79273890D01*
X135912599Y-79391971D01*
X136838890Y-78465680D01*
X137557310Y-78465680D01*
X138483601Y-79391971D01*
X138742636Y-79273890D01*
X138870632Y-78957037D01*
X138934354Y-78621301D01*
X138931353Y-78279585D01*
X138861744Y-77945020D01*
X138742636Y-77657470D01*
X138483601Y-77539389D01*
X137557310Y-78465680D01*
X136838890Y-78465680D01*
X135912599Y-77539389D01*
X135653564Y-77657470D01*
X135525568Y-77974323D01*
X135461846Y-78310059D01*
X131572000Y-78310059D01*
X131572000Y-77180179D01*
X136271809Y-77180179D01*
X137198100Y-78106470D01*
X138124391Y-77180179D01*
X138006310Y-76921144D01*
X137689457Y-76793148D01*
X137353721Y-76729426D01*
X137012005Y-76732427D01*
X136677440Y-76802036D01*
X136389890Y-76921144D01*
X136271809Y-77180179D01*
X131572000Y-77180179D01*
X131572000Y-74749921D01*
X136271809Y-74749921D01*
X136389890Y-75008956D01*
X136706743Y-75136952D01*
X137042479Y-75200674D01*
X137384195Y-75197673D01*
X137718760Y-75128064D01*
X138006310Y-75008956D01*
X138124391Y-74749921D01*
X137198100Y-73823630D01*
X136271809Y-74749921D01*
X131572000Y-74749921D01*
X131572000Y-73308799D01*
X135461846Y-73308799D01*
X135464847Y-73650515D01*
X135534456Y-73985080D01*
X135653564Y-74272630D01*
X135912599Y-74390711D01*
X136838890Y-73464420D01*
X137557310Y-73464420D01*
X138483601Y-74390711D01*
X138742636Y-74272630D01*
X138870632Y-73955777D01*
X138934354Y-73620041D01*
X138931353Y-73278325D01*
X138861744Y-72943760D01*
X138742636Y-72656210D01*
X138483601Y-72538129D01*
X137557310Y-73464420D01*
X136838890Y-73464420D01*
X135912599Y-72538129D01*
X135653564Y-72656210D01*
X135525568Y-72973063D01*
X135461846Y-73308799D01*
X131572000Y-73308799D01*
X131572000Y-72178919D01*
X136271809Y-72178919D01*
X137198100Y-73105210D01*
X138124391Y-72178919D01*
X138006310Y-71919884D01*
X137689457Y-71791888D01*
X137353721Y-71728166D01*
X137012005Y-71731167D01*
X136677440Y-71800776D01*
X136389890Y-71919884D01*
X136271809Y-72178919D01*
X131572000Y-72178919D01*
X131572000Y-70794195D01*
X137965180Y-70794195D01*
X137965180Y-71135925D01*
X138031848Y-71471088D01*
X138162623Y-71786805D01*
X138352477Y-72070943D01*
X138594117Y-72312583D01*
X138878255Y-72502437D01*
X139193972Y-72633212D01*
X139217588Y-72637910D01*
X140723360Y-74143682D01*
X140771076Y-74201824D01*
X140829218Y-74249540D01*
X140829222Y-74249544D01*
X141003134Y-74392270D01*
X141096771Y-74442320D01*
X140541765Y-74442320D01*
X140521745Y-74428943D01*
X140206028Y-74298168D01*
X139870865Y-74231500D01*
X139529135Y-74231500D01*
X139193972Y-74298168D01*
X138878255Y-74428943D01*
X138594117Y-74618797D01*
X138352477Y-74860437D01*
X138162623Y-75144575D01*
X138031848Y-75460292D01*
X137965180Y-75795455D01*
X137965180Y-76137185D01*
X138031848Y-76472348D01*
X138162623Y-76788065D01*
X138352477Y-77072203D01*
X138594117Y-77313843D01*
X138878255Y-77503697D01*
X139193972Y-77634472D01*
X139529135Y-77701140D01*
X139870865Y-77701140D01*
X140206028Y-77634472D01*
X140521745Y-77503697D01*
X140541765Y-77490320D01*
X142529323Y-77490320D01*
X142519698Y-77522048D01*
X142507438Y-77646530D01*
X142510510Y-78233270D01*
X142669260Y-78392020D01*
X143891000Y-78392020D01*
X143891000Y-78372020D01*
X144399000Y-78372020D01*
X144399000Y-78392020D01*
X145620740Y-78392020D01*
X145732500Y-78280260D01*
X145844260Y-78392020D01*
X147066000Y-78392020D01*
X147066000Y-78372020D01*
X147574000Y-78372020D01*
X147574000Y-78392020D01*
X148795740Y-78392020D01*
X148954490Y-78233270D01*
X148957562Y-77646530D01*
X148945302Y-77522048D01*
X148935677Y-77490320D01*
X149594455Y-77490320D01*
X149541008Y-77590310D01*
X149504698Y-77710008D01*
X149492438Y-77834490D01*
X149495510Y-78421230D01*
X149654260Y-78579980D01*
X150876000Y-78579980D01*
X150876000Y-77358240D01*
X151384000Y-77358240D01*
X151384000Y-78579980D01*
X152605740Y-78579980D01*
X152717500Y-78468220D01*
X152829260Y-78579980D01*
X154051000Y-78579980D01*
X154051000Y-77358240D01*
X154559000Y-77358240D01*
X154559000Y-78579980D01*
X155780740Y-78579980D01*
X155939490Y-78421230D01*
X155942562Y-77834490D01*
X155930302Y-77710008D01*
X155893992Y-77590310D01*
X155835027Y-77479996D01*
X155755675Y-77383305D01*
X155658984Y-77303953D01*
X155548670Y-77244988D01*
X155428972Y-77208678D01*
X155304490Y-77196418D01*
X154717750Y-77199490D01*
X154559000Y-77358240D01*
X154051000Y-77358240D01*
X153892250Y-77199490D01*
X153305510Y-77196418D01*
X153181028Y-77208678D01*
X153061330Y-77244988D01*
X152951016Y-77303953D01*
X152854325Y-77383305D01*
X152774973Y-77479996D01*
X152717500Y-77587519D01*
X152660027Y-77479996D01*
X152580675Y-77383305D01*
X152483984Y-77303953D01*
X152373670Y-77244988D01*
X152253972Y-77208678D01*
X152129490Y-77196418D01*
X151542750Y-77199490D01*
X151384000Y-77358240D01*
X150876000Y-77358240D01*
X150789804Y-77272044D01*
X150850485Y-77239610D01*
X151082544Y-77049164D01*
X151130264Y-76991017D01*
X151647700Y-76473582D01*
X152129490Y-76473582D01*
X152253972Y-76461322D01*
X152373670Y-76425012D01*
X152483984Y-76366047D01*
X152491328Y-76360020D01*
X152943672Y-76360020D01*
X152951016Y-76366047D01*
X153061330Y-76425012D01*
X153181028Y-76461322D01*
X153305510Y-76473582D01*
X155304490Y-76473582D01*
X155428972Y-76461322D01*
X155548670Y-76425012D01*
X155658984Y-76366047D01*
X155755675Y-76286695D01*
X155835027Y-76190004D01*
X155893992Y-76079690D01*
X155930302Y-75959992D01*
X155942562Y-75835510D01*
X155942562Y-73836530D01*
X155930302Y-73712048D01*
X155893992Y-73592350D01*
X155835027Y-73482036D01*
X155755675Y-73385345D01*
X155658984Y-73305993D01*
X155548670Y-73247028D01*
X155428972Y-73210718D01*
X155304490Y-73198458D01*
X153305510Y-73198458D01*
X153181028Y-73210718D01*
X153061330Y-73247028D01*
X152951016Y-73305993D01*
X152943672Y-73312020D01*
X152491328Y-73312020D01*
X152483984Y-73305993D01*
X152373670Y-73247028D01*
X152253972Y-73210718D01*
X152129490Y-73198458D01*
X150130510Y-73198458D01*
X150006028Y-73210718D01*
X149886330Y-73247028D01*
X149776016Y-73305993D01*
X149679325Y-73385345D01*
X149599973Y-73482036D01*
X149541008Y-73592350D01*
X149504698Y-73712048D01*
X149492438Y-73836530D01*
X149492438Y-74318320D01*
X149368439Y-74442320D01*
X148866407Y-74442320D01*
X148908992Y-74362650D01*
X148945302Y-74242952D01*
X148957562Y-74118470D01*
X148957562Y-72119490D01*
X148945302Y-71995008D01*
X148908992Y-71875310D01*
X148850027Y-71764996D01*
X148770675Y-71668305D01*
X148673984Y-71588953D01*
X148563670Y-71529988D01*
X148443972Y-71493678D01*
X148319490Y-71481418D01*
X146320510Y-71481418D01*
X146196028Y-71493678D01*
X146076330Y-71529988D01*
X145966016Y-71588953D01*
X145958672Y-71594980D01*
X145506328Y-71594980D01*
X145498984Y-71588953D01*
X145388670Y-71529988D01*
X145268972Y-71493678D01*
X145144490Y-71481418D01*
X143145510Y-71481418D01*
X143021028Y-71493678D01*
X142901330Y-71529988D01*
X142791016Y-71588953D01*
X142783672Y-71594980D01*
X142485182Y-71594980D01*
X141372850Y-70482648D01*
X141368152Y-70459032D01*
X141237377Y-70143315D01*
X141222140Y-70120510D01*
X142507438Y-70120510D01*
X142519698Y-70244992D01*
X142556008Y-70364690D01*
X142614973Y-70475004D01*
X142694325Y-70571695D01*
X142791016Y-70651047D01*
X142901330Y-70710012D01*
X143021028Y-70746322D01*
X143145510Y-70758582D01*
X143732250Y-70755510D01*
X143891000Y-70596760D01*
X143891000Y-69375020D01*
X144399000Y-69375020D01*
X144399000Y-70596760D01*
X144557750Y-70755510D01*
X145144490Y-70758582D01*
X145268972Y-70746322D01*
X145388670Y-70710012D01*
X145498984Y-70651047D01*
X145595675Y-70571695D01*
X145675027Y-70475004D01*
X145732500Y-70367481D01*
X145789973Y-70475004D01*
X145869325Y-70571695D01*
X145966016Y-70651047D01*
X146076330Y-70710012D01*
X146196028Y-70746322D01*
X146320510Y-70758582D01*
X146907250Y-70755510D01*
X147066000Y-70596760D01*
X147066000Y-69375020D01*
X147574000Y-69375020D01*
X147574000Y-70596760D01*
X147732750Y-70755510D01*
X148319490Y-70758582D01*
X148443972Y-70746322D01*
X148563670Y-70710012D01*
X148673984Y-70651047D01*
X148770675Y-70571695D01*
X148850027Y-70475004D01*
X148908992Y-70364690D01*
X148926046Y-70308470D01*
X149492438Y-70308470D01*
X149504698Y-70432952D01*
X149541008Y-70552650D01*
X149599973Y-70662964D01*
X149679325Y-70759655D01*
X149776016Y-70839007D01*
X149886330Y-70897972D01*
X150006028Y-70934282D01*
X150130510Y-70946542D01*
X150717250Y-70943470D01*
X150876000Y-70784720D01*
X150876000Y-69562980D01*
X151384000Y-69562980D01*
X151384000Y-70784720D01*
X151542750Y-70943470D01*
X152129490Y-70946542D01*
X152253972Y-70934282D01*
X152373670Y-70897972D01*
X152483984Y-70839007D01*
X152580675Y-70759655D01*
X152660027Y-70662964D01*
X152717500Y-70555441D01*
X152774973Y-70662964D01*
X152854325Y-70759655D01*
X152951016Y-70839007D01*
X153061330Y-70897972D01*
X153181028Y-70934282D01*
X153305510Y-70946542D01*
X153892250Y-70943470D01*
X154051000Y-70784720D01*
X154051000Y-69562980D01*
X154559000Y-69562980D01*
X154559000Y-70784720D01*
X154717750Y-70943470D01*
X155304490Y-70946542D01*
X155428972Y-70934282D01*
X155548670Y-70897972D01*
X155658984Y-70839007D01*
X155755675Y-70759655D01*
X155835027Y-70662964D01*
X155893992Y-70552650D01*
X155930302Y-70432952D01*
X155942562Y-70308470D01*
X155939490Y-69721730D01*
X155780740Y-69562980D01*
X154559000Y-69562980D01*
X154051000Y-69562980D01*
X152829260Y-69562980D01*
X152717500Y-69674740D01*
X152605740Y-69562980D01*
X151384000Y-69562980D01*
X150876000Y-69562980D01*
X149654260Y-69562980D01*
X149495510Y-69721730D01*
X149492438Y-70308470D01*
X148926046Y-70308470D01*
X148945302Y-70244992D01*
X148957562Y-70120510D01*
X148954490Y-69533770D01*
X148795740Y-69375020D01*
X147574000Y-69375020D01*
X147066000Y-69375020D01*
X145844260Y-69375020D01*
X145732500Y-69486780D01*
X145620740Y-69375020D01*
X144399000Y-69375020D01*
X143891000Y-69375020D01*
X142669260Y-69375020D01*
X142510510Y-69533770D01*
X142507438Y-70120510D01*
X141222140Y-70120510D01*
X141047523Y-69859177D01*
X140805883Y-69617537D01*
X140521745Y-69427683D01*
X140206028Y-69296908D01*
X139870865Y-69230240D01*
X139529135Y-69230240D01*
X139193972Y-69296908D01*
X138878255Y-69427683D01*
X138594117Y-69617537D01*
X138352477Y-69859177D01*
X138162623Y-70143315D01*
X138031848Y-70459032D01*
X137965180Y-70794195D01*
X131572000Y-70794195D01*
X131572000Y-69751201D01*
X136271809Y-69751201D01*
X136389890Y-70010236D01*
X136706743Y-70138232D01*
X137042479Y-70201954D01*
X137384195Y-70198953D01*
X137718760Y-70129344D01*
X138006310Y-70010236D01*
X138124391Y-69751201D01*
X137198100Y-68824910D01*
X136271809Y-69751201D01*
X131572000Y-69751201D01*
X131572000Y-68310079D01*
X135461846Y-68310079D01*
X135464847Y-68651795D01*
X135534456Y-68986360D01*
X135653564Y-69273910D01*
X135912599Y-69391991D01*
X136838890Y-68465700D01*
X137557310Y-68465700D01*
X138483601Y-69391991D01*
X138742636Y-69273910D01*
X138870632Y-68957057D01*
X138934354Y-68621321D01*
X138931353Y-68279605D01*
X138898465Y-68121530D01*
X142507438Y-68121530D01*
X142510510Y-68708270D01*
X142669260Y-68867020D01*
X143891000Y-68867020D01*
X143891000Y-67645280D01*
X144399000Y-67645280D01*
X144399000Y-68867020D01*
X145620740Y-68867020D01*
X145732500Y-68755260D01*
X145844260Y-68867020D01*
X147066000Y-68867020D01*
X147066000Y-67645280D01*
X147574000Y-67645280D01*
X147574000Y-68867020D01*
X148795740Y-68867020D01*
X148954490Y-68708270D01*
X148956577Y-68309490D01*
X149492438Y-68309490D01*
X149495510Y-68896230D01*
X149654260Y-69054980D01*
X150876000Y-69054980D01*
X150876000Y-67833240D01*
X151384000Y-67833240D01*
X151384000Y-69054980D01*
X152605740Y-69054980D01*
X152717500Y-68943220D01*
X152829260Y-69054980D01*
X154051000Y-69054980D01*
X154051000Y-67833240D01*
X154559000Y-67833240D01*
X154559000Y-69054980D01*
X155780740Y-69054980D01*
X155939490Y-68896230D01*
X155942562Y-68309490D01*
X155930302Y-68185008D01*
X155893992Y-68065310D01*
X155835027Y-67954996D01*
X155755675Y-67858305D01*
X155658984Y-67778953D01*
X155548670Y-67719988D01*
X155428972Y-67683678D01*
X155304490Y-67671418D01*
X154717750Y-67674490D01*
X154559000Y-67833240D01*
X154051000Y-67833240D01*
X153892250Y-67674490D01*
X153305510Y-67671418D01*
X153181028Y-67683678D01*
X153061330Y-67719988D01*
X152951016Y-67778953D01*
X152854325Y-67858305D01*
X152774973Y-67954996D01*
X152717500Y-68062519D01*
X152660027Y-67954996D01*
X152580675Y-67858305D01*
X152483984Y-67778953D01*
X152373670Y-67719988D01*
X152253972Y-67683678D01*
X152129490Y-67671418D01*
X151542750Y-67674490D01*
X151384000Y-67833240D01*
X150876000Y-67833240D01*
X150717250Y-67674490D01*
X150130510Y-67671418D01*
X150006028Y-67683678D01*
X149886330Y-67719988D01*
X149776016Y-67778953D01*
X149679325Y-67858305D01*
X149599973Y-67954996D01*
X149541008Y-68065310D01*
X149504698Y-68185008D01*
X149492438Y-68309490D01*
X148956577Y-68309490D01*
X148957562Y-68121530D01*
X148945302Y-67997048D01*
X148908992Y-67877350D01*
X148850027Y-67767036D01*
X148770675Y-67670345D01*
X148673984Y-67590993D01*
X148563670Y-67532028D01*
X148443972Y-67495718D01*
X148319490Y-67483458D01*
X147732750Y-67486530D01*
X147574000Y-67645280D01*
X147066000Y-67645280D01*
X146907250Y-67486530D01*
X146320510Y-67483458D01*
X146196028Y-67495718D01*
X146076330Y-67532028D01*
X145966016Y-67590993D01*
X145869325Y-67670345D01*
X145789973Y-67767036D01*
X145732500Y-67874559D01*
X145675027Y-67767036D01*
X145595675Y-67670345D01*
X145498984Y-67590993D01*
X145388670Y-67532028D01*
X145268972Y-67495718D01*
X145144490Y-67483458D01*
X144557750Y-67486530D01*
X144399000Y-67645280D01*
X143891000Y-67645280D01*
X143732250Y-67486530D01*
X143145510Y-67483458D01*
X143021028Y-67495718D01*
X142901330Y-67532028D01*
X142791016Y-67590993D01*
X142694325Y-67670345D01*
X142614973Y-67767036D01*
X142556008Y-67877350D01*
X142519698Y-67997048D01*
X142507438Y-68121530D01*
X138898465Y-68121530D01*
X138861744Y-67945040D01*
X138742636Y-67657490D01*
X138483601Y-67539409D01*
X137557310Y-68465700D01*
X136838890Y-68465700D01*
X135912599Y-67539409D01*
X135653564Y-67657490D01*
X135525568Y-67974343D01*
X135461846Y-68310079D01*
X131572000Y-68310079D01*
X131572000Y-67180199D01*
X136271809Y-67180199D01*
X137198100Y-68106490D01*
X138124391Y-67180199D01*
X138006310Y-66921164D01*
X137689457Y-66793168D01*
X137353721Y-66729446D01*
X137012005Y-66732447D01*
X136677440Y-66802056D01*
X136389890Y-66921164D01*
X136271809Y-67180199D01*
X131572000Y-67180199D01*
X131572000Y-65795475D01*
X137965180Y-65795475D01*
X137965180Y-66137205D01*
X138031848Y-66472368D01*
X138162623Y-66788085D01*
X138352477Y-67072223D01*
X138594117Y-67313863D01*
X138878255Y-67503717D01*
X139193972Y-67634492D01*
X139529135Y-67701160D01*
X139870865Y-67701160D01*
X140206028Y-67634492D01*
X140521745Y-67503717D01*
X140805883Y-67313863D01*
X141047523Y-67072223D01*
X141206016Y-66835020D01*
X149768672Y-66835020D01*
X149776016Y-66841047D01*
X149886330Y-66900012D01*
X150006028Y-66936322D01*
X150130510Y-66948582D01*
X152129490Y-66948582D01*
X152253972Y-66936322D01*
X152373670Y-66900012D01*
X152483984Y-66841047D01*
X152491328Y-66835020D01*
X152943672Y-66835020D01*
X152951016Y-66841047D01*
X153061330Y-66900012D01*
X153181028Y-66936322D01*
X153305510Y-66948582D01*
X155304490Y-66948582D01*
X155428972Y-66936322D01*
X155548670Y-66900012D01*
X155658984Y-66841047D01*
X155755675Y-66761695D01*
X155835027Y-66665004D01*
X155893992Y-66554690D01*
X155930302Y-66434992D01*
X155942562Y-66310510D01*
X155942562Y-64311530D01*
X155930302Y-64187048D01*
X155893992Y-64067350D01*
X155835027Y-63957036D01*
X155755675Y-63860345D01*
X155658984Y-63780993D01*
X155548670Y-63722028D01*
X155428972Y-63685718D01*
X155304490Y-63673458D01*
X153305510Y-63673458D01*
X153181028Y-63685718D01*
X153061330Y-63722028D01*
X152951016Y-63780993D01*
X152943672Y-63787020D01*
X152491328Y-63787020D01*
X152483984Y-63780993D01*
X152373670Y-63722028D01*
X152253972Y-63685718D01*
X152129490Y-63673458D01*
X150130510Y-63673458D01*
X150006028Y-63685718D01*
X149886330Y-63722028D01*
X149776016Y-63780993D01*
X149768672Y-63787020D01*
X140430168Y-63787020D01*
X140355319Y-63779648D01*
X140280470Y-63787020D01*
X140280461Y-63787020D01*
X140056564Y-63809072D01*
X139769289Y-63896216D01*
X139504535Y-64037730D01*
X139272476Y-64228176D01*
X139224752Y-64286328D01*
X139217590Y-64293490D01*
X139193972Y-64298188D01*
X138878255Y-64428963D01*
X138594117Y-64618817D01*
X138352477Y-64860457D01*
X138162623Y-65144595D01*
X138031848Y-65460312D01*
X137965180Y-65795475D01*
X131572000Y-65795475D01*
X131572000Y-64749941D01*
X136274349Y-64749941D01*
X136392430Y-65008976D01*
X136709283Y-65136972D01*
X137045019Y-65200694D01*
X137386735Y-65197693D01*
X137721300Y-65128084D01*
X138008850Y-65008976D01*
X138126931Y-64749941D01*
X137200640Y-63823650D01*
X136274349Y-64749941D01*
X131572000Y-64749941D01*
X131572000Y-63308819D01*
X135464386Y-63308819D01*
X135467387Y-63650535D01*
X135536996Y-63985100D01*
X135656104Y-64272650D01*
X135915139Y-64390731D01*
X136841430Y-63464440D01*
X137559850Y-63464440D01*
X138486141Y-64390731D01*
X138745176Y-64272650D01*
X138873172Y-63955797D01*
X138936894Y-63620061D01*
X138933893Y-63278345D01*
X138864284Y-62943780D01*
X138745176Y-62656230D01*
X138486141Y-62538149D01*
X137559850Y-63464440D01*
X136841430Y-63464440D01*
X135915139Y-62538149D01*
X135656104Y-62656230D01*
X135528108Y-62973083D01*
X135464386Y-63308819D01*
X131572000Y-63308819D01*
X131572000Y-62178939D01*
X136274349Y-62178939D01*
X137200640Y-63105230D01*
X138055289Y-62250581D01*
X138773709Y-62250581D01*
X138891790Y-62509616D01*
X139208643Y-62637612D01*
X139544379Y-62701334D01*
X139886095Y-62698333D01*
X140220660Y-62628724D01*
X140508210Y-62509616D01*
X140626291Y-62250581D01*
X139700000Y-61324290D01*
X138773709Y-62250581D01*
X138055289Y-62250581D01*
X138126931Y-62178939D01*
X138008850Y-61919904D01*
X137691997Y-61791908D01*
X137356261Y-61728186D01*
X137014545Y-61731187D01*
X136679980Y-61800796D01*
X136392430Y-61919904D01*
X136274349Y-62178939D01*
X131572000Y-62178939D01*
X131572000Y-58230812D01*
X132313680Y-58230812D01*
X132313680Y-58700628D01*
X132405337Y-59161416D01*
X132585127Y-59595469D01*
X132846143Y-59986107D01*
X133178353Y-60318317D01*
X133568991Y-60579333D01*
X134003044Y-60759123D01*
X134463832Y-60850780D01*
X134933648Y-60850780D01*
X135141381Y-60809459D01*
X137963746Y-60809459D01*
X137966747Y-61151175D01*
X138036356Y-61485740D01*
X138155464Y-61773290D01*
X138414499Y-61891371D01*
X139340790Y-60965080D01*
X140059210Y-60965080D01*
X140985501Y-61891371D01*
X141244536Y-61773290D01*
X141372532Y-61456437D01*
X141436254Y-61120701D01*
X141433253Y-60778985D01*
X141363644Y-60444420D01*
X141244536Y-60156870D01*
X140985501Y-60038789D01*
X140059210Y-60965080D01*
X139340790Y-60965080D01*
X138414499Y-60038789D01*
X138155464Y-60156870D01*
X138027468Y-60473723D01*
X137963746Y-60809459D01*
X135141381Y-60809459D01*
X135394436Y-60759123D01*
X135828489Y-60579333D01*
X136219127Y-60318317D01*
X136551337Y-59986107D01*
X136756152Y-59679579D01*
X138773709Y-59679579D01*
X139700000Y-60605870D01*
X140626291Y-59679579D01*
X140508210Y-59420544D01*
X140191357Y-59292548D01*
X139855621Y-59228826D01*
X139513905Y-59231827D01*
X139179340Y-59301436D01*
X138891790Y-59420544D01*
X138773709Y-59679579D01*
X136756152Y-59679579D01*
X136812353Y-59595469D01*
X136992143Y-59161416D01*
X137083800Y-58700628D01*
X137083800Y-58230812D01*
X136992143Y-57770024D01*
X136812353Y-57335971D01*
X136551337Y-56945333D01*
X136219127Y-56613123D01*
X135828489Y-56352107D01*
X135394436Y-56172317D01*
X134933648Y-56080660D01*
X134463832Y-56080660D01*
X134003044Y-56172317D01*
X133568991Y-56352107D01*
X133178353Y-56613123D01*
X132846143Y-56945333D01*
X132585127Y-57335971D01*
X132405337Y-57770024D01*
X132313680Y-58230812D01*
X131572000Y-58230812D01*
X131572000Y-53975000D01*
X141554293Y-53975000D01*
X141452600Y-54486246D01*
M02*
