G04 #@! TF.GenerationSoftware,KiCad,Pcbnew,(5.1.5)-3*
G04 #@! TF.CreationDate,2022-01-12T20:14:22+01:00*
G04 #@! TF.ProjectId,gbm8,67626d38-2e6b-4696-9361-645f70636258,0424 - A*
G04 #@! TF.SameCoordinates,Original*
G04 #@! TF.FileFunction,Copper,L2,Bot*
G04 #@! TF.FilePolarity,Positive*
%FSLAX46Y46*%
G04 Gerber Fmt 4.6, Leading zero omitted, Abs format (unit mm)*
G04 Created by KiCad (PCBNEW (5.1.5)-3) date 2022-01-12 20:14:22*
%MOMM*%
%LPD*%
G04 APERTURE LIST*
%ADD10C,6.400800*%
%ADD11R,1.651000X1.651000*%
%ADD12C,1.651000*%
%ADD13C,2.199640*%
%ADD14C,3.500120*%
%ADD15R,1.524000X1.524000*%
%ADD16C,1.524000*%
%ADD17C,0.889000*%
%ADD18C,0.762000*%
%ADD19C,0.304800*%
%ADD20C,0.254000*%
G04 APERTURE END LIST*
D10*
X145288000Y-54864000D03*
X173355000Y-54864000D03*
X145288000Y-146939000D03*
X173355000Y-146939000D03*
D11*
X151300000Y-144470000D03*
D12*
X151300000Y-141930000D03*
D13*
X139700000Y-60965080D03*
X139700000Y-140964920D03*
D14*
X134698740Y-143466820D03*
D13*
X137200640Y-63464440D03*
X137198100Y-103464360D03*
X137198100Y-108465620D03*
X137198100Y-118465600D03*
X137198100Y-113464340D03*
X137198100Y-133464300D03*
X137198100Y-138465560D03*
X137198100Y-128465580D03*
X137198100Y-123464320D03*
X137198100Y-83464400D03*
X137198100Y-88465660D03*
X137198100Y-98465640D03*
X137198100Y-93464380D03*
X137198100Y-73464420D03*
X137198100Y-78465680D03*
X137198100Y-68465700D03*
X139700000Y-65966340D03*
X139700000Y-75966320D03*
X139700000Y-70965060D03*
X139700000Y-90965020D03*
X139700000Y-95966280D03*
X139700000Y-85966300D03*
X139700000Y-80965040D03*
X139700000Y-120964960D03*
X139700000Y-125966220D03*
X139700000Y-135966200D03*
X139700000Y-130964940D03*
X139700000Y-110964980D03*
X139700000Y-115966240D03*
X139700000Y-105966260D03*
X139700000Y-100965000D03*
D14*
X134698740Y-58465720D03*
D15*
X174117000Y-75057000D03*
D16*
X171577000Y-75057000D03*
X174117000Y-72517000D03*
X171577000Y-72517000D03*
X174117000Y-69977000D03*
X171577000Y-69977000D03*
D17*
X166400000Y-91900000D03*
X167600000Y-86400000D03*
X167800000Y-81700012D03*
X150200006Y-86000000D03*
X150200000Y-84700000D03*
X150199998Y-83400000D03*
X161500000Y-69199996D03*
X162299998Y-68100000D03*
X163400000Y-66999998D03*
X164300004Y-66100000D03*
X161512000Y-85471000D03*
X166084000Y-87884000D03*
X166200000Y-76200000D03*
X151600000Y-87400000D03*
X166400000Y-96900000D03*
X173400000Y-83000000D03*
X156300000Y-58700000D03*
X156300000Y-63400000D03*
X156300000Y-73500000D03*
X141700000Y-63500000D03*
X142000000Y-73500000D03*
X141800000Y-88500000D03*
X141800000Y-93500000D03*
X141500000Y-98500000D03*
X141600000Y-103400000D03*
X156300000Y-93300000D03*
X156300000Y-98500000D03*
X156300000Y-103500000D03*
X156300000Y-89000000D03*
X174100000Y-77800000D03*
X156300000Y-78049090D03*
X141900000Y-68500000D03*
X165600000Y-123300000D03*
X168800000Y-82900000D03*
X160100000Y-121100000D03*
X162900000Y-120800000D03*
X148100000Y-118800000D03*
X172100000Y-125500000D03*
X175000000Y-125500000D03*
X172800000Y-128200000D03*
X175400000Y-126700000D03*
X152700000Y-119000000D03*
X152500000Y-135600000D03*
X146600000Y-131300000D03*
X142800000Y-137100000D03*
X160100000Y-125900000D03*
X148100000Y-127900000D03*
X175400000Y-137500000D03*
X172700000Y-135800000D03*
X159200000Y-142500000D03*
X156100000Y-140800000D03*
X156500000Y-128000000D03*
X173800000Y-138800000D03*
X159400000Y-136900000D03*
X172549100Y-89300000D03*
X171200000Y-78400000D03*
X161600000Y-116700000D03*
X166700000Y-116700000D03*
X173400000Y-86600000D03*
X172500000Y-78300000D03*
X160600000Y-117600000D03*
X167500000Y-117600000D03*
X154100000Y-130000000D03*
X158000000Y-137200000D03*
D18*
X171577000Y-75057000D02*
X169900000Y-75057000D01*
X167600000Y-90700000D02*
X167600000Y-86400000D01*
X166400000Y-91900000D02*
X167600000Y-90700000D01*
X167800000Y-81071395D02*
X167800000Y-81700012D01*
X167800000Y-77100000D02*
X167800000Y-81071395D01*
X169843000Y-75057000D02*
X167800000Y-77100000D01*
D19*
X139697460Y-125966220D02*
X139700000Y-125966220D01*
X137198100Y-128465580D02*
X139697460Y-125966220D01*
X149500000Y-86000000D02*
X150200006Y-86000000D01*
X147600000Y-96800000D02*
X147600000Y-87900000D01*
X147600000Y-87900000D02*
X149500000Y-86000000D01*
X139700000Y-100965000D02*
X143435000Y-100965000D01*
X143435000Y-100965000D02*
X147600000Y-96800000D01*
X149500000Y-84700000D02*
X150200000Y-84700000D01*
X146700000Y-87500000D02*
X149500000Y-84700000D01*
X146700000Y-92200000D02*
X146700000Y-87500000D01*
X139700000Y-95966280D02*
X142933720Y-95966280D01*
X142933720Y-95966280D02*
X146700000Y-92200000D01*
X149600000Y-83400000D02*
X150199998Y-83400000D01*
X139700000Y-90965020D02*
X142034980Y-90965020D01*
X142034980Y-90965020D02*
X149600000Y-83400000D01*
X161499996Y-69200000D02*
X161500000Y-69199996D01*
X151600000Y-69200000D02*
X159499996Y-69200000D01*
X139700000Y-80965040D02*
X139834960Y-80965040D01*
X139834960Y-80965040D02*
X151600000Y-69200000D01*
X159500000Y-69199996D02*
X161500000Y-69199996D01*
X159499996Y-69200000D02*
X159500000Y-69199996D01*
X142133680Y-75966320D02*
X139700000Y-75966320D01*
X162299998Y-68100000D02*
X150000000Y-68100000D01*
X150000000Y-68100000D02*
X142133680Y-75966320D01*
X148900002Y-66999998D02*
X163400000Y-66999998D01*
X139700000Y-70965060D02*
X144934940Y-70965060D01*
X144934940Y-70965060D02*
X148900002Y-66999998D01*
X164166344Y-65966340D02*
X164300004Y-66100000D01*
X139700000Y-65966340D02*
X164166344Y-65966340D01*
X172549100Y-89300000D02*
X171200000Y-87950900D01*
X171200000Y-87950900D02*
X171200000Y-78400000D01*
X161600000Y-116700000D02*
X166700000Y-116700000D01*
X173400000Y-86600000D02*
X172500000Y-85700000D01*
X172500000Y-85700000D02*
X172500000Y-78300000D01*
X160600000Y-117600000D02*
X167500000Y-117600000D01*
X158000000Y-136571383D02*
X158000000Y-137200000D01*
X158000000Y-133900000D02*
X158000000Y-136571383D01*
X154100000Y-130000000D02*
X158000000Y-133900000D01*
D20*
G36*
X141452600Y-54486246D02*
G01*
X141452600Y-55241754D01*
X141599992Y-55982745D01*
X141889112Y-56680743D01*
X142308850Y-57308925D01*
X142843075Y-57843150D01*
X143471257Y-58262888D01*
X144169255Y-58552008D01*
X144910246Y-58699400D01*
X145665754Y-58699400D01*
X146406745Y-58552008D01*
X147104743Y-58262888D01*
X147732925Y-57843150D01*
X148267150Y-57308925D01*
X148686888Y-56680743D01*
X148976008Y-55982745D01*
X149123400Y-55241754D01*
X149123400Y-54486246D01*
X149021707Y-53975000D01*
X169621293Y-53975000D01*
X169519600Y-54486246D01*
X169519600Y-55241754D01*
X169666992Y-55982745D01*
X169956112Y-56680743D01*
X170375850Y-57308925D01*
X170910075Y-57843150D01*
X171538257Y-58262888D01*
X172236255Y-58552008D01*
X172977246Y-58699400D01*
X173732754Y-58699400D01*
X174473745Y-58552008D01*
X175171743Y-58262888D01*
X175799925Y-57843150D01*
X176334150Y-57308925D01*
X176412379Y-57191847D01*
X176615143Y-129473000D01*
X162127000Y-129473000D01*
X162127000Y-123300000D01*
X162124560Y-123275224D01*
X162117333Y-123251399D01*
X162105597Y-123229443D01*
X162089803Y-123210197D01*
X162070557Y-123194403D01*
X162048601Y-123182667D01*
X162024776Y-123175440D01*
X162000000Y-123173000D01*
X138908960Y-123173000D01*
X138866252Y-122958292D01*
X138735477Y-122642575D01*
X138545623Y-122358437D01*
X138303983Y-122116797D01*
X138019845Y-121926943D01*
X137704128Y-121796168D01*
X137368965Y-121729500D01*
X137027235Y-121729500D01*
X136692072Y-121796168D01*
X136376355Y-121926943D01*
X136092217Y-122116797D01*
X135850577Y-122358437D01*
X135660723Y-122642575D01*
X135529948Y-122958292D01*
X135487240Y-123173000D01*
X131784112Y-123173000D01*
X131776834Y-120794095D01*
X137965180Y-120794095D01*
X137965180Y-121135825D01*
X138031848Y-121470988D01*
X138162623Y-121786705D01*
X138352477Y-122070843D01*
X138594117Y-122312483D01*
X138878255Y-122502337D01*
X139193972Y-122633112D01*
X139529135Y-122699780D01*
X139870865Y-122699780D01*
X140206028Y-122633112D01*
X140521745Y-122502337D01*
X140805883Y-122312483D01*
X141047523Y-122070843D01*
X141237377Y-121786705D01*
X141368152Y-121470988D01*
X141434820Y-121135825D01*
X141434820Y-120794095D01*
X141368152Y-120458932D01*
X141237377Y-120143215D01*
X141047523Y-119859077D01*
X140805883Y-119617437D01*
X140521745Y-119427583D01*
X140206028Y-119296808D01*
X139870865Y-119230140D01*
X139529135Y-119230140D01*
X139193972Y-119296808D01*
X138878255Y-119427583D01*
X138594117Y-119617437D01*
X138352477Y-119859077D01*
X138162623Y-120143215D01*
X138031848Y-120458932D01*
X137965180Y-120794095D01*
X131776834Y-120794095D01*
X131769187Y-118294735D01*
X135463280Y-118294735D01*
X135463280Y-118636465D01*
X135529948Y-118971628D01*
X135660723Y-119287345D01*
X135850577Y-119571483D01*
X136092217Y-119813123D01*
X136376355Y-120002977D01*
X136692072Y-120133752D01*
X137027235Y-120200420D01*
X137368965Y-120200420D01*
X137704128Y-120133752D01*
X138019845Y-120002977D01*
X138303983Y-119813123D01*
X138545623Y-119571483D01*
X138735477Y-119287345D01*
X138866252Y-118971628D01*
X138932920Y-118636465D01*
X138932920Y-118294735D01*
X138866252Y-117959572D01*
X138735477Y-117643855D01*
X138545623Y-117359717D01*
X138303983Y-117118077D01*
X138019845Y-116928223D01*
X137704128Y-116797448D01*
X137368965Y-116730780D01*
X137027235Y-116730780D01*
X136692072Y-116797448D01*
X136376355Y-116928223D01*
X136092217Y-117118077D01*
X135850577Y-117359717D01*
X135660723Y-117643855D01*
X135529948Y-117959572D01*
X135463280Y-118294735D01*
X131769187Y-118294735D01*
X131761540Y-115795375D01*
X137965180Y-115795375D01*
X137965180Y-116137105D01*
X138031848Y-116472268D01*
X138162623Y-116787985D01*
X138352477Y-117072123D01*
X138594117Y-117313763D01*
X138878255Y-117503617D01*
X139193972Y-117634392D01*
X139529135Y-117701060D01*
X139870865Y-117701060D01*
X140206028Y-117634392D01*
X140521745Y-117503617D01*
X140536618Y-117493679D01*
X159520500Y-117493679D01*
X159520500Y-117706321D01*
X159561985Y-117914878D01*
X159643360Y-118111335D01*
X159761498Y-118288141D01*
X159911859Y-118438502D01*
X160088665Y-118556640D01*
X160285122Y-118638015D01*
X160493679Y-118679500D01*
X160706321Y-118679500D01*
X160914878Y-118638015D01*
X161111335Y-118556640D01*
X161288141Y-118438502D01*
X161339243Y-118387400D01*
X166760757Y-118387400D01*
X166811859Y-118438502D01*
X166988665Y-118556640D01*
X167185122Y-118638015D01*
X167393679Y-118679500D01*
X167606321Y-118679500D01*
X167814878Y-118638015D01*
X168011335Y-118556640D01*
X168188141Y-118438502D01*
X168338502Y-118288141D01*
X168456640Y-118111335D01*
X168538015Y-117914878D01*
X168579500Y-117706321D01*
X168579500Y-117493679D01*
X168538015Y-117285122D01*
X168456640Y-117088665D01*
X168338502Y-116911859D01*
X168188141Y-116761498D01*
X168011335Y-116643360D01*
X167814878Y-116561985D01*
X167771478Y-116553352D01*
X167738015Y-116385122D01*
X167656640Y-116188665D01*
X167538502Y-116011859D01*
X167388141Y-115861498D01*
X167211335Y-115743360D01*
X167014878Y-115661985D01*
X166806321Y-115620500D01*
X166593679Y-115620500D01*
X166385122Y-115661985D01*
X166188665Y-115743360D01*
X166011859Y-115861498D01*
X165960757Y-115912600D01*
X162339243Y-115912600D01*
X162288141Y-115861498D01*
X162111335Y-115743360D01*
X161914878Y-115661985D01*
X161706321Y-115620500D01*
X161493679Y-115620500D01*
X161285122Y-115661985D01*
X161088665Y-115743360D01*
X160911859Y-115861498D01*
X160761498Y-116011859D01*
X160643360Y-116188665D01*
X160561985Y-116385122D01*
X160535056Y-116520500D01*
X160493679Y-116520500D01*
X160285122Y-116561985D01*
X160088665Y-116643360D01*
X159911859Y-116761498D01*
X159761498Y-116911859D01*
X159643360Y-117088665D01*
X159561985Y-117285122D01*
X159520500Y-117493679D01*
X140536618Y-117493679D01*
X140805883Y-117313763D01*
X141047523Y-117072123D01*
X141237377Y-116787985D01*
X141368152Y-116472268D01*
X141434820Y-116137105D01*
X141434820Y-115795375D01*
X141368152Y-115460212D01*
X141237377Y-115144495D01*
X141047523Y-114860357D01*
X140805883Y-114618717D01*
X140521745Y-114428863D01*
X140206028Y-114298088D01*
X139870865Y-114231420D01*
X139529135Y-114231420D01*
X139193972Y-114298088D01*
X138878255Y-114428863D01*
X138594117Y-114618717D01*
X138352477Y-114860357D01*
X138162623Y-115144495D01*
X138031848Y-115460212D01*
X137965180Y-115795375D01*
X131761540Y-115795375D01*
X131753885Y-113293475D01*
X135463280Y-113293475D01*
X135463280Y-113635205D01*
X135529948Y-113970368D01*
X135660723Y-114286085D01*
X135850577Y-114570223D01*
X136092217Y-114811863D01*
X136376355Y-115001717D01*
X136692072Y-115132492D01*
X137027235Y-115199160D01*
X137368965Y-115199160D01*
X137704128Y-115132492D01*
X138019845Y-115001717D01*
X138303983Y-114811863D01*
X138545623Y-114570223D01*
X138735477Y-114286085D01*
X138866252Y-113970368D01*
X138932920Y-113635205D01*
X138932920Y-113293475D01*
X138866252Y-112958312D01*
X138735477Y-112642595D01*
X138545623Y-112358457D01*
X138303983Y-112116817D01*
X138019845Y-111926963D01*
X137704128Y-111796188D01*
X137368965Y-111729520D01*
X137027235Y-111729520D01*
X136692072Y-111796188D01*
X136376355Y-111926963D01*
X136092217Y-112116817D01*
X135850577Y-112358457D01*
X135660723Y-112642595D01*
X135529948Y-112958312D01*
X135463280Y-113293475D01*
X131753885Y-113293475D01*
X131746238Y-110794115D01*
X137965180Y-110794115D01*
X137965180Y-111135845D01*
X138031848Y-111471008D01*
X138162623Y-111786725D01*
X138352477Y-112070863D01*
X138594117Y-112312503D01*
X138878255Y-112502357D01*
X139193972Y-112633132D01*
X139529135Y-112699800D01*
X139870865Y-112699800D01*
X140206028Y-112633132D01*
X140521745Y-112502357D01*
X140805883Y-112312503D01*
X141047523Y-112070863D01*
X141237377Y-111786725D01*
X141368152Y-111471008D01*
X141434820Y-111135845D01*
X141434820Y-110794115D01*
X141368152Y-110458952D01*
X141237377Y-110143235D01*
X141047523Y-109859097D01*
X140805883Y-109617457D01*
X140521745Y-109427603D01*
X140206028Y-109296828D01*
X139870865Y-109230160D01*
X139529135Y-109230160D01*
X139193972Y-109296828D01*
X138878255Y-109427603D01*
X138594117Y-109617457D01*
X138352477Y-109859097D01*
X138162623Y-110143235D01*
X138031848Y-110458952D01*
X137965180Y-110794115D01*
X131746238Y-110794115D01*
X131738591Y-108294755D01*
X135463280Y-108294755D01*
X135463280Y-108636485D01*
X135529948Y-108971648D01*
X135660723Y-109287365D01*
X135850577Y-109571503D01*
X136092217Y-109813143D01*
X136376355Y-110002997D01*
X136692072Y-110133772D01*
X137027235Y-110200440D01*
X137368965Y-110200440D01*
X137704128Y-110133772D01*
X138019845Y-110002997D01*
X138303983Y-109813143D01*
X138545623Y-109571503D01*
X138735477Y-109287365D01*
X138866252Y-108971648D01*
X138932920Y-108636485D01*
X138932920Y-108294755D01*
X138866252Y-107959592D01*
X138735477Y-107643875D01*
X138545623Y-107359737D01*
X138437647Y-107251761D01*
X138773709Y-107251761D01*
X138891790Y-107510796D01*
X139208643Y-107638792D01*
X139544379Y-107702514D01*
X139886095Y-107699513D01*
X140220660Y-107629904D01*
X140508210Y-107510796D01*
X140626291Y-107251761D01*
X139700000Y-106325470D01*
X138773709Y-107251761D01*
X138437647Y-107251761D01*
X138303983Y-107118097D01*
X138019845Y-106928243D01*
X137704128Y-106797468D01*
X137368965Y-106730800D01*
X137027235Y-106730800D01*
X136692072Y-106797468D01*
X136376355Y-106928243D01*
X136092217Y-107118097D01*
X135850577Y-107359737D01*
X135660723Y-107643875D01*
X135529948Y-107959592D01*
X135463280Y-108294755D01*
X131738591Y-108294755D01*
X131730991Y-105810639D01*
X137963746Y-105810639D01*
X137966747Y-106152355D01*
X138036356Y-106486920D01*
X138155464Y-106774470D01*
X138414499Y-106892551D01*
X139340790Y-105966260D01*
X140059210Y-105966260D01*
X140985501Y-106892551D01*
X141244536Y-106774470D01*
X141372532Y-106457617D01*
X141436254Y-106121881D01*
X141433253Y-105780165D01*
X141363644Y-105445600D01*
X141244536Y-105158050D01*
X140985501Y-105039969D01*
X140059210Y-105966260D01*
X139340790Y-105966260D01*
X138414499Y-105039969D01*
X138155464Y-105158050D01*
X138027468Y-105474903D01*
X137963746Y-105810639D01*
X131730991Y-105810639D01*
X131727745Y-104749861D01*
X136271809Y-104749861D01*
X136389890Y-105008896D01*
X136706743Y-105136892D01*
X137042479Y-105200614D01*
X137384195Y-105197613D01*
X137718760Y-105128004D01*
X138006310Y-105008896D01*
X138124391Y-104749861D01*
X138055289Y-104680759D01*
X138773709Y-104680759D01*
X139700000Y-105607050D01*
X140626291Y-104680759D01*
X140508210Y-104421724D01*
X140191357Y-104293728D01*
X139855621Y-104230006D01*
X139513905Y-104233007D01*
X139179340Y-104302616D01*
X138891790Y-104421724D01*
X138773709Y-104680759D01*
X138055289Y-104680759D01*
X137198100Y-103823570D01*
X136271809Y-104749861D01*
X131727745Y-104749861D01*
X131723335Y-103308739D01*
X135461846Y-103308739D01*
X135464847Y-103650455D01*
X135534456Y-103985020D01*
X135653564Y-104272570D01*
X135912599Y-104390651D01*
X136838890Y-103464360D01*
X137557310Y-103464360D01*
X138483601Y-104390651D01*
X138742636Y-104272570D01*
X138870632Y-103955717D01*
X138934354Y-103619981D01*
X138931353Y-103278265D01*
X138861744Y-102943700D01*
X138742636Y-102656150D01*
X138483601Y-102538069D01*
X137557310Y-103464360D01*
X136838890Y-103464360D01*
X135912599Y-102538069D01*
X135653564Y-102656150D01*
X135525568Y-102973003D01*
X135461846Y-103308739D01*
X131723335Y-103308739D01*
X131719879Y-102178859D01*
X136271809Y-102178859D01*
X137198100Y-103105150D01*
X138124391Y-102178859D01*
X138006310Y-101919824D01*
X137689457Y-101791828D01*
X137353721Y-101728106D01*
X137012005Y-101731107D01*
X136677440Y-101800716D01*
X136389890Y-101919824D01*
X136271809Y-102178859D01*
X131719879Y-102178859D01*
X131712451Y-99751141D01*
X136271809Y-99751141D01*
X136389890Y-100010176D01*
X136706743Y-100138172D01*
X137042479Y-100201894D01*
X137384195Y-100198893D01*
X137718760Y-100129284D01*
X138006310Y-100010176D01*
X138124391Y-99751141D01*
X137198100Y-98824850D01*
X136271809Y-99751141D01*
X131712451Y-99751141D01*
X131708041Y-98310019D01*
X135461846Y-98310019D01*
X135464847Y-98651735D01*
X135534456Y-98986300D01*
X135653564Y-99273850D01*
X135912599Y-99391931D01*
X136838890Y-98465640D01*
X137557310Y-98465640D01*
X138483601Y-99391931D01*
X138742636Y-99273850D01*
X138870632Y-98956997D01*
X138934354Y-98621261D01*
X138931353Y-98279545D01*
X138861744Y-97944980D01*
X138742636Y-97657430D01*
X138483601Y-97539349D01*
X137557310Y-98465640D01*
X136838890Y-98465640D01*
X135912599Y-97539349D01*
X135653564Y-97657430D01*
X135525568Y-97974283D01*
X135461846Y-98310019D01*
X131708041Y-98310019D01*
X131704584Y-97180139D01*
X136271809Y-97180139D01*
X137198100Y-98106430D01*
X138124391Y-97180139D01*
X138006310Y-96921104D01*
X137689457Y-96793108D01*
X137353721Y-96729386D01*
X137012005Y-96732387D01*
X136677440Y-96801996D01*
X136389890Y-96921104D01*
X136271809Y-97180139D01*
X131704584Y-97180139D01*
X131697149Y-94749881D01*
X136271809Y-94749881D01*
X136389890Y-95008916D01*
X136706743Y-95136912D01*
X137042479Y-95200634D01*
X137384195Y-95197633D01*
X137718760Y-95128024D01*
X138006310Y-95008916D01*
X138124391Y-94749881D01*
X137198100Y-93823590D01*
X136271809Y-94749881D01*
X131697149Y-94749881D01*
X131692739Y-93308759D01*
X135461846Y-93308759D01*
X135464847Y-93650475D01*
X135534456Y-93985040D01*
X135653564Y-94272590D01*
X135912599Y-94390671D01*
X136838890Y-93464380D01*
X137557310Y-93464380D01*
X138483601Y-94390671D01*
X138742636Y-94272590D01*
X138870632Y-93955737D01*
X138934354Y-93620001D01*
X138931353Y-93278285D01*
X138861744Y-92943720D01*
X138742636Y-92656170D01*
X138483601Y-92538089D01*
X137557310Y-93464380D01*
X136838890Y-93464380D01*
X135912599Y-92538089D01*
X135653564Y-92656170D01*
X135525568Y-92973023D01*
X135461846Y-93308759D01*
X131692739Y-93308759D01*
X131689283Y-92178879D01*
X136271809Y-92178879D01*
X137198100Y-93105170D01*
X138124391Y-92178879D01*
X138006310Y-91919844D01*
X137689457Y-91791848D01*
X137353721Y-91728126D01*
X137012005Y-91731127D01*
X136677440Y-91800736D01*
X136389890Y-91919844D01*
X136271809Y-92178879D01*
X131689283Y-92178879D01*
X131685047Y-90794155D01*
X137965180Y-90794155D01*
X137965180Y-91135885D01*
X138031848Y-91471048D01*
X138162623Y-91786765D01*
X138352477Y-92070903D01*
X138594117Y-92312543D01*
X138878255Y-92502397D01*
X139193972Y-92633172D01*
X139529135Y-92699840D01*
X139870865Y-92699840D01*
X140206028Y-92633172D01*
X140521745Y-92502397D01*
X140805883Y-92312543D01*
X141047523Y-92070903D01*
X141237377Y-91786765D01*
X141251603Y-91752420D01*
X141996317Y-91752420D01*
X142034980Y-91756228D01*
X142073643Y-91752420D01*
X142073653Y-91752420D01*
X142189337Y-91741026D01*
X142337763Y-91696002D01*
X142474552Y-91622886D01*
X142594449Y-91524489D01*
X142619108Y-91494442D01*
X145912601Y-88200950D01*
X145912600Y-91873848D01*
X142607570Y-95178880D01*
X141251603Y-95178880D01*
X141237377Y-95144535D01*
X141047523Y-94860397D01*
X140805883Y-94618757D01*
X140521745Y-94428903D01*
X140206028Y-94298128D01*
X139870865Y-94231460D01*
X139529135Y-94231460D01*
X139193972Y-94298128D01*
X138878255Y-94428903D01*
X138594117Y-94618757D01*
X138352477Y-94860397D01*
X138162623Y-95144535D01*
X138031848Y-95460252D01*
X137965180Y-95795415D01*
X137965180Y-96137145D01*
X138031848Y-96472308D01*
X138162623Y-96788025D01*
X138352477Y-97072163D01*
X138594117Y-97313803D01*
X138878255Y-97503657D01*
X139193972Y-97634432D01*
X139529135Y-97701100D01*
X139870865Y-97701100D01*
X140206028Y-97634432D01*
X140521745Y-97503657D01*
X140805883Y-97313803D01*
X141047523Y-97072163D01*
X141237377Y-96788025D01*
X141251603Y-96753680D01*
X142895057Y-96753680D01*
X142933720Y-96757488D01*
X142972383Y-96753680D01*
X142972393Y-96753680D01*
X143088077Y-96742286D01*
X143236503Y-96697262D01*
X143373292Y-96624146D01*
X143493189Y-96525749D01*
X143517848Y-96495702D01*
X146812600Y-93200951D01*
X146812600Y-96473848D01*
X143108850Y-100177600D01*
X141251603Y-100177600D01*
X141237377Y-100143255D01*
X141047523Y-99859117D01*
X140805883Y-99617477D01*
X140521745Y-99427623D01*
X140206028Y-99296848D01*
X139870865Y-99230180D01*
X139529135Y-99230180D01*
X139193972Y-99296848D01*
X138878255Y-99427623D01*
X138594117Y-99617477D01*
X138352477Y-99859117D01*
X138162623Y-100143255D01*
X138031848Y-100458972D01*
X137965180Y-100794135D01*
X137965180Y-101135865D01*
X138031848Y-101471028D01*
X138162623Y-101786745D01*
X138352477Y-102070883D01*
X138594117Y-102312523D01*
X138878255Y-102502377D01*
X139193972Y-102633152D01*
X139529135Y-102699820D01*
X139870865Y-102699820D01*
X140206028Y-102633152D01*
X140521745Y-102502377D01*
X140805883Y-102312523D01*
X141047523Y-102070883D01*
X141237377Y-101786745D01*
X141251603Y-101752400D01*
X143396337Y-101752400D01*
X143435000Y-101756208D01*
X143473663Y-101752400D01*
X143473673Y-101752400D01*
X143589357Y-101741006D01*
X143737783Y-101695982D01*
X143874572Y-101622866D01*
X143994469Y-101524469D01*
X144019128Y-101494422D01*
X148129434Y-97384118D01*
X148159469Y-97359469D01*
X148257866Y-97239572D01*
X148330982Y-97102783D01*
X148376006Y-96954357D01*
X148387400Y-96838673D01*
X148387400Y-96838664D01*
X148391208Y-96800001D01*
X148387400Y-96761338D01*
X148387400Y-91793679D01*
X165320500Y-91793679D01*
X165320500Y-92006321D01*
X165361985Y-92214878D01*
X165443360Y-92411335D01*
X165561498Y-92588141D01*
X165711859Y-92738502D01*
X165888665Y-92856640D01*
X166085122Y-92938015D01*
X166293679Y-92979500D01*
X166506321Y-92979500D01*
X166714878Y-92938015D01*
X166911335Y-92856640D01*
X167088141Y-92738502D01*
X167238502Y-92588141D01*
X167356640Y-92411335D01*
X167378656Y-92358185D01*
X168283133Y-91453708D01*
X168321896Y-91421896D01*
X168448860Y-91267190D01*
X168543202Y-91090687D01*
X168601298Y-90899171D01*
X168616000Y-90749902D01*
X168616000Y-90749895D01*
X168620914Y-90700001D01*
X168616000Y-90650107D01*
X168616000Y-86768027D01*
X168638015Y-86714878D01*
X168679500Y-86506321D01*
X168679500Y-86293679D01*
X168638015Y-86085122D01*
X168556640Y-85888665D01*
X168438502Y-85711859D01*
X168288141Y-85561498D01*
X168111335Y-85443360D01*
X167914878Y-85361985D01*
X167706321Y-85320500D01*
X167493679Y-85320500D01*
X167285122Y-85361985D01*
X167088665Y-85443360D01*
X166911859Y-85561498D01*
X166761498Y-85711859D01*
X166643360Y-85888665D01*
X166561985Y-86085122D01*
X166520500Y-86293679D01*
X166520500Y-86506321D01*
X166561985Y-86714878D01*
X166584001Y-86768029D01*
X166584000Y-90279159D01*
X165941815Y-90921344D01*
X165888665Y-90943360D01*
X165711859Y-91061498D01*
X165561498Y-91211859D01*
X165443360Y-91388665D01*
X165361985Y-91585122D01*
X165320500Y-91793679D01*
X148387400Y-91793679D01*
X148387400Y-88226150D01*
X149669632Y-86943919D01*
X149688671Y-86956640D01*
X149885128Y-87038015D01*
X150093685Y-87079500D01*
X150306327Y-87079500D01*
X150514884Y-87038015D01*
X150711341Y-86956640D01*
X150888147Y-86838502D01*
X151038508Y-86688141D01*
X151156646Y-86511335D01*
X151238021Y-86314878D01*
X151279506Y-86106321D01*
X151279506Y-85893679D01*
X151238021Y-85685122D01*
X151156646Y-85488665D01*
X151063990Y-85349996D01*
X151156640Y-85211335D01*
X151238015Y-85014878D01*
X151279500Y-84806321D01*
X151279500Y-84593679D01*
X151238015Y-84385122D01*
X151156640Y-84188665D01*
X151063986Y-84049999D01*
X151156638Y-83911335D01*
X151238013Y-83714878D01*
X151279498Y-83506321D01*
X151279498Y-83293679D01*
X151238013Y-83085122D01*
X151156638Y-82888665D01*
X151038500Y-82711859D01*
X150888139Y-82561498D01*
X150711333Y-82443360D01*
X150514876Y-82361985D01*
X150306319Y-82320500D01*
X150093677Y-82320500D01*
X149885120Y-82361985D01*
X149688663Y-82443360D01*
X149511857Y-82561498D01*
X149449767Y-82623588D01*
X149445643Y-82623994D01*
X149339506Y-82656190D01*
X149297217Y-82669018D01*
X149160427Y-82742134D01*
X149114883Y-82779512D01*
X149040531Y-82840531D01*
X149015877Y-82870572D01*
X141708830Y-90177620D01*
X141251603Y-90177620D01*
X141237377Y-90143275D01*
X141047523Y-89859137D01*
X140805883Y-89617497D01*
X140521745Y-89427643D01*
X140206028Y-89296868D01*
X139870865Y-89230200D01*
X139529135Y-89230200D01*
X139193972Y-89296868D01*
X138878255Y-89427643D01*
X138594117Y-89617497D01*
X138352477Y-89859137D01*
X138162623Y-90143275D01*
X138031848Y-90458992D01*
X137965180Y-90794155D01*
X131685047Y-90794155D01*
X131681855Y-89751161D01*
X136271809Y-89751161D01*
X136389890Y-90010196D01*
X136706743Y-90138192D01*
X137042479Y-90201914D01*
X137384195Y-90198913D01*
X137718760Y-90129304D01*
X138006310Y-90010196D01*
X138124391Y-89751161D01*
X137198100Y-88824870D01*
X136271809Y-89751161D01*
X131681855Y-89751161D01*
X131677445Y-88310039D01*
X135461846Y-88310039D01*
X135464847Y-88651755D01*
X135534456Y-88986320D01*
X135653564Y-89273870D01*
X135912599Y-89391951D01*
X136838890Y-88465660D01*
X137557310Y-88465660D01*
X138483601Y-89391951D01*
X138742636Y-89273870D01*
X138870632Y-88957017D01*
X138934354Y-88621281D01*
X138931353Y-88279565D01*
X138861744Y-87945000D01*
X138742636Y-87657450D01*
X138483601Y-87539369D01*
X137557310Y-88465660D01*
X136838890Y-88465660D01*
X135912599Y-87539369D01*
X135653564Y-87657450D01*
X135525568Y-87974303D01*
X135461846Y-88310039D01*
X131677445Y-88310039D01*
X131673988Y-87180159D01*
X136271809Y-87180159D01*
X137198100Y-88106450D01*
X138124391Y-87180159D01*
X138006310Y-86921124D01*
X137689457Y-86793128D01*
X137353721Y-86729406D01*
X137012005Y-86732407D01*
X136677440Y-86802016D01*
X136389890Y-86921124D01*
X136271809Y-87180159D01*
X131673988Y-87180159D01*
X131669752Y-85795435D01*
X137965180Y-85795435D01*
X137965180Y-86137165D01*
X138031848Y-86472328D01*
X138162623Y-86788045D01*
X138352477Y-87072183D01*
X138594117Y-87313823D01*
X138878255Y-87503677D01*
X139193972Y-87634452D01*
X139529135Y-87701120D01*
X139870865Y-87701120D01*
X140206028Y-87634452D01*
X140521745Y-87503677D01*
X140805883Y-87313823D01*
X141047523Y-87072183D01*
X141237377Y-86788045D01*
X141368152Y-86472328D01*
X141434820Y-86137165D01*
X141434820Y-85795435D01*
X141368152Y-85460272D01*
X141237377Y-85144555D01*
X141047523Y-84860417D01*
X140805883Y-84618777D01*
X140521745Y-84428923D01*
X140206028Y-84298148D01*
X139870865Y-84231480D01*
X139529135Y-84231480D01*
X139193972Y-84298148D01*
X138878255Y-84428923D01*
X138594117Y-84618777D01*
X138352477Y-84860417D01*
X138162623Y-85144555D01*
X138031848Y-85460272D01*
X137965180Y-85795435D01*
X131669752Y-85795435D01*
X131666553Y-84749901D01*
X136271809Y-84749901D01*
X136389890Y-85008936D01*
X136706743Y-85136932D01*
X137042479Y-85200654D01*
X137384195Y-85197653D01*
X137718760Y-85128044D01*
X138006310Y-85008936D01*
X138124391Y-84749901D01*
X137198100Y-83823610D01*
X136271809Y-84749901D01*
X131666553Y-84749901D01*
X131662143Y-83308779D01*
X135461846Y-83308779D01*
X135464847Y-83650495D01*
X135534456Y-83985060D01*
X135653564Y-84272610D01*
X135912599Y-84390691D01*
X136838890Y-83464400D01*
X137557310Y-83464400D01*
X138483601Y-84390691D01*
X138742636Y-84272610D01*
X138870632Y-83955757D01*
X138934354Y-83620021D01*
X138931353Y-83278305D01*
X138861744Y-82943740D01*
X138742636Y-82656190D01*
X138483601Y-82538109D01*
X137557310Y-83464400D01*
X136838890Y-83464400D01*
X135912599Y-82538109D01*
X135653564Y-82656190D01*
X135525568Y-82973043D01*
X135461846Y-83308779D01*
X131662143Y-83308779D01*
X131658687Y-82178899D01*
X136271809Y-82178899D01*
X137198100Y-83105190D01*
X138124391Y-82178899D01*
X138006310Y-81919864D01*
X137689457Y-81791868D01*
X137353721Y-81728146D01*
X137012005Y-81731147D01*
X136677440Y-81800756D01*
X136389890Y-81919864D01*
X136271809Y-82178899D01*
X131658687Y-82178899D01*
X131651259Y-79751181D01*
X136271809Y-79751181D01*
X136389890Y-80010216D01*
X136706743Y-80138212D01*
X137042479Y-80201934D01*
X137384195Y-80198933D01*
X137718760Y-80129324D01*
X138006310Y-80010216D01*
X138124391Y-79751181D01*
X137198100Y-78824890D01*
X136271809Y-79751181D01*
X131651259Y-79751181D01*
X131646849Y-78310059D01*
X135461846Y-78310059D01*
X135464847Y-78651775D01*
X135534456Y-78986340D01*
X135653564Y-79273890D01*
X135912599Y-79391971D01*
X136838890Y-78465680D01*
X137557310Y-78465680D01*
X138483601Y-79391971D01*
X138742636Y-79273890D01*
X138870632Y-78957037D01*
X138934354Y-78621301D01*
X138931353Y-78279585D01*
X138861744Y-77945020D01*
X138742636Y-77657470D01*
X138483601Y-77539389D01*
X137557310Y-78465680D01*
X136838890Y-78465680D01*
X135912599Y-77539389D01*
X135653564Y-77657470D01*
X135525568Y-77974323D01*
X135461846Y-78310059D01*
X131646849Y-78310059D01*
X131643392Y-77180179D01*
X136271809Y-77180179D01*
X137198100Y-78106470D01*
X138124391Y-77180179D01*
X138006310Y-76921144D01*
X137689457Y-76793148D01*
X137353721Y-76729426D01*
X137012005Y-76732427D01*
X136677440Y-76802036D01*
X136389890Y-76921144D01*
X136271809Y-77180179D01*
X131643392Y-77180179D01*
X131635957Y-74749921D01*
X136271809Y-74749921D01*
X136389890Y-75008956D01*
X136706743Y-75136952D01*
X137042479Y-75200674D01*
X137384195Y-75197673D01*
X137718760Y-75128064D01*
X138006310Y-75008956D01*
X138124391Y-74749921D01*
X137198100Y-73823630D01*
X136271809Y-74749921D01*
X131635957Y-74749921D01*
X131631547Y-73308799D01*
X135461846Y-73308799D01*
X135464847Y-73650515D01*
X135534456Y-73985080D01*
X135653564Y-74272630D01*
X135912599Y-74390711D01*
X136838890Y-73464420D01*
X137557310Y-73464420D01*
X138483601Y-74390711D01*
X138742636Y-74272630D01*
X138870632Y-73955777D01*
X138934354Y-73620041D01*
X138931353Y-73278325D01*
X138861744Y-72943760D01*
X138742636Y-72656210D01*
X138483601Y-72538129D01*
X137557310Y-73464420D01*
X136838890Y-73464420D01*
X135912599Y-72538129D01*
X135653564Y-72656210D01*
X135525568Y-72973063D01*
X135461846Y-73308799D01*
X131631547Y-73308799D01*
X131628090Y-72178919D01*
X136271809Y-72178919D01*
X137198100Y-73105210D01*
X138124391Y-72178919D01*
X138006310Y-71919884D01*
X137689457Y-71791888D01*
X137353721Y-71728166D01*
X137012005Y-71731167D01*
X136677440Y-71800776D01*
X136389890Y-71919884D01*
X136271809Y-72178919D01*
X131628090Y-72178919D01*
X131620662Y-69751201D01*
X136271809Y-69751201D01*
X136389890Y-70010236D01*
X136706743Y-70138232D01*
X137042479Y-70201954D01*
X137384195Y-70198953D01*
X137718760Y-70129344D01*
X138006310Y-70010236D01*
X138124391Y-69751201D01*
X137198100Y-68824910D01*
X136271809Y-69751201D01*
X131620662Y-69751201D01*
X131616252Y-68310079D01*
X135461846Y-68310079D01*
X135464847Y-68651795D01*
X135534456Y-68986360D01*
X135653564Y-69273910D01*
X135912599Y-69391991D01*
X136838890Y-68465700D01*
X137557310Y-68465700D01*
X138483601Y-69391991D01*
X138742636Y-69273910D01*
X138870632Y-68957057D01*
X138934354Y-68621321D01*
X138931353Y-68279605D01*
X138861744Y-67945040D01*
X138742636Y-67657490D01*
X138483601Y-67539409D01*
X137557310Y-68465700D01*
X136838890Y-68465700D01*
X135912599Y-67539409D01*
X135653564Y-67657490D01*
X135525568Y-67974343D01*
X135461846Y-68310079D01*
X131616252Y-68310079D01*
X131612795Y-67180199D01*
X136271809Y-67180199D01*
X137198100Y-68106490D01*
X138124391Y-67180199D01*
X138006310Y-66921164D01*
X137689457Y-66793168D01*
X137353721Y-66729446D01*
X137012005Y-66732447D01*
X136677440Y-66802056D01*
X136389890Y-66921164D01*
X136271809Y-67180199D01*
X131612795Y-67180199D01*
X131608559Y-65795475D01*
X137965180Y-65795475D01*
X137965180Y-66137205D01*
X138031848Y-66472368D01*
X138162623Y-66788085D01*
X138352477Y-67072223D01*
X138594117Y-67313863D01*
X138878255Y-67503717D01*
X139193972Y-67634492D01*
X139529135Y-67701160D01*
X139870865Y-67701160D01*
X140206028Y-67634492D01*
X140521745Y-67503717D01*
X140805883Y-67313863D01*
X141047523Y-67072223D01*
X141237377Y-66788085D01*
X141251603Y-66753740D01*
X148032708Y-66753740D01*
X144608790Y-70177660D01*
X141251603Y-70177660D01*
X141237377Y-70143315D01*
X141047523Y-69859177D01*
X140805883Y-69617537D01*
X140521745Y-69427683D01*
X140206028Y-69296908D01*
X139870865Y-69230240D01*
X139529135Y-69230240D01*
X139193972Y-69296908D01*
X138878255Y-69427683D01*
X138594117Y-69617537D01*
X138352477Y-69859177D01*
X138162623Y-70143315D01*
X138031848Y-70459032D01*
X137965180Y-70794195D01*
X137965180Y-71135925D01*
X138031848Y-71471088D01*
X138162623Y-71786805D01*
X138352477Y-72070943D01*
X138594117Y-72312583D01*
X138878255Y-72502437D01*
X139193972Y-72633212D01*
X139529135Y-72699880D01*
X139870865Y-72699880D01*
X140206028Y-72633212D01*
X140521745Y-72502437D01*
X140805883Y-72312583D01*
X141047523Y-72070943D01*
X141237377Y-71786805D01*
X141251603Y-71752460D01*
X144896277Y-71752460D01*
X144934940Y-71756268D01*
X144973603Y-71752460D01*
X144973613Y-71752460D01*
X145089297Y-71741066D01*
X145237723Y-71696042D01*
X145350904Y-71635545D01*
X141807530Y-75178920D01*
X141251603Y-75178920D01*
X141237377Y-75144575D01*
X141047523Y-74860437D01*
X140805883Y-74618797D01*
X140521745Y-74428943D01*
X140206028Y-74298168D01*
X139870865Y-74231500D01*
X139529135Y-74231500D01*
X139193972Y-74298168D01*
X138878255Y-74428943D01*
X138594117Y-74618797D01*
X138352477Y-74860437D01*
X138162623Y-75144575D01*
X138031848Y-75460292D01*
X137965180Y-75795455D01*
X137965180Y-76137185D01*
X138031848Y-76472348D01*
X138162623Y-76788065D01*
X138352477Y-77072203D01*
X138594117Y-77313843D01*
X138878255Y-77503697D01*
X139193972Y-77634472D01*
X139529135Y-77701140D01*
X139870865Y-77701140D01*
X140206028Y-77634472D01*
X140521745Y-77503697D01*
X140805883Y-77313843D01*
X141047523Y-77072203D01*
X141237377Y-76788065D01*
X141251603Y-76753720D01*
X142095017Y-76753720D01*
X142133680Y-76757528D01*
X142172343Y-76753720D01*
X142172353Y-76753720D01*
X142288037Y-76742326D01*
X142436463Y-76697302D01*
X142573252Y-76624186D01*
X142693149Y-76525789D01*
X142717808Y-76495742D01*
X150326152Y-68887400D01*
X150799048Y-68887400D01*
X140335806Y-79350644D01*
X140206028Y-79296888D01*
X139870865Y-79230220D01*
X139529135Y-79230220D01*
X139193972Y-79296888D01*
X138878255Y-79427663D01*
X138594117Y-79617517D01*
X138352477Y-79859157D01*
X138162623Y-80143295D01*
X138031848Y-80459012D01*
X137965180Y-80794175D01*
X137965180Y-81135905D01*
X138031848Y-81471068D01*
X138162623Y-81786785D01*
X138352477Y-82070923D01*
X138594117Y-82312563D01*
X138878255Y-82502417D01*
X139193972Y-82633192D01*
X139529135Y-82699860D01*
X139870865Y-82699860D01*
X140206028Y-82633192D01*
X140521745Y-82502417D01*
X140805883Y-82312563D01*
X141047523Y-82070923D01*
X141237377Y-81786785D01*
X141317359Y-81593691D01*
X166720500Y-81593691D01*
X166720500Y-81806333D01*
X166761985Y-82014890D01*
X166843360Y-82211347D01*
X166961498Y-82388153D01*
X167111859Y-82538514D01*
X167288665Y-82656652D01*
X167485122Y-82738027D01*
X167693679Y-82779512D01*
X167906321Y-82779512D01*
X168114878Y-82738027D01*
X168311335Y-82656652D01*
X168488141Y-82538514D01*
X168638502Y-82388153D01*
X168756640Y-82211347D01*
X168838015Y-82014890D01*
X168879500Y-81806333D01*
X168879500Y-81593691D01*
X168838015Y-81385134D01*
X168816000Y-81331985D01*
X168816000Y-78293679D01*
X170120500Y-78293679D01*
X170120500Y-78506321D01*
X170161985Y-78714878D01*
X170243360Y-78911335D01*
X170361498Y-79088141D01*
X170412601Y-79139244D01*
X170412600Y-87912237D01*
X170408792Y-87950900D01*
X170412600Y-87989563D01*
X170412600Y-87989572D01*
X170423994Y-88105256D01*
X170469018Y-88253682D01*
X170542134Y-88390471D01*
X170640531Y-88510369D01*
X170670577Y-88535027D01*
X171469600Y-89334051D01*
X171469600Y-89406321D01*
X171511085Y-89614878D01*
X171592460Y-89811335D01*
X171710598Y-89988141D01*
X171860959Y-90138502D01*
X172037765Y-90256640D01*
X172234222Y-90338015D01*
X172442779Y-90379500D01*
X172655421Y-90379500D01*
X172863978Y-90338015D01*
X173060435Y-90256640D01*
X173237241Y-90138502D01*
X173387602Y-89988141D01*
X173505740Y-89811335D01*
X173587115Y-89614878D01*
X173628600Y-89406321D01*
X173628600Y-89193679D01*
X173587115Y-88985122D01*
X173505740Y-88788665D01*
X173387602Y-88611859D01*
X173237241Y-88461498D01*
X173060435Y-88343360D01*
X172863978Y-88261985D01*
X172655421Y-88220500D01*
X172583151Y-88220500D01*
X171987400Y-87624750D01*
X171987400Y-86300950D01*
X172320500Y-86634051D01*
X172320500Y-86706321D01*
X172361985Y-86914878D01*
X172443360Y-87111335D01*
X172561498Y-87288141D01*
X172711859Y-87438502D01*
X172888665Y-87556640D01*
X173085122Y-87638015D01*
X173293679Y-87679500D01*
X173506321Y-87679500D01*
X173714878Y-87638015D01*
X173911335Y-87556640D01*
X174088141Y-87438502D01*
X174238502Y-87288141D01*
X174356640Y-87111335D01*
X174438015Y-86914878D01*
X174479500Y-86706321D01*
X174479500Y-86493679D01*
X174438015Y-86285122D01*
X174356640Y-86088665D01*
X174238502Y-85911859D01*
X174088141Y-85761498D01*
X173911335Y-85643360D01*
X173714878Y-85561985D01*
X173506321Y-85520500D01*
X173434051Y-85520500D01*
X173287400Y-85373849D01*
X173287400Y-79039243D01*
X173338502Y-78988141D01*
X173456640Y-78811335D01*
X173538015Y-78614878D01*
X173579500Y-78406321D01*
X173579500Y-78193679D01*
X173538015Y-77985122D01*
X173456640Y-77788665D01*
X173338502Y-77611859D01*
X173188141Y-77461498D01*
X173011335Y-77343360D01*
X172814878Y-77261985D01*
X172606321Y-77220500D01*
X172393679Y-77220500D01*
X172185122Y-77261985D01*
X171988665Y-77343360D01*
X171811859Y-77461498D01*
X171782468Y-77490889D01*
X171711335Y-77443360D01*
X171514878Y-77361985D01*
X171306321Y-77320500D01*
X171093679Y-77320500D01*
X170885122Y-77361985D01*
X170688665Y-77443360D01*
X170511859Y-77561498D01*
X170361498Y-77711859D01*
X170243360Y-77888665D01*
X170161985Y-78085122D01*
X170120500Y-78293679D01*
X168816000Y-78293679D01*
X168816000Y-77520840D01*
X170263841Y-76073000D01*
X170617345Y-76073000D01*
X170686465Y-76142120D01*
X170915273Y-76295005D01*
X171169510Y-76400314D01*
X171439408Y-76454000D01*
X171714592Y-76454000D01*
X171984490Y-76400314D01*
X172238727Y-76295005D01*
X172467535Y-76142120D01*
X172662120Y-75947535D01*
X172720920Y-75859535D01*
X172729188Y-75943482D01*
X172765498Y-76063180D01*
X172824463Y-76173494D01*
X172903815Y-76270185D01*
X173000506Y-76349537D01*
X173110820Y-76408502D01*
X173230518Y-76444812D01*
X173355000Y-76457072D01*
X174879000Y-76457072D01*
X175003482Y-76444812D01*
X175123180Y-76408502D01*
X175233494Y-76349537D01*
X175330185Y-76270185D01*
X175409537Y-76173494D01*
X175468502Y-76063180D01*
X175504812Y-75943482D01*
X175517072Y-75819000D01*
X175517072Y-74295000D01*
X175504812Y-74170518D01*
X175468502Y-74050820D01*
X175409537Y-73940506D01*
X175330185Y-73843815D01*
X175233494Y-73764463D01*
X175123180Y-73705498D01*
X175003482Y-73669188D01*
X174919535Y-73660920D01*
X175007535Y-73602120D01*
X175202120Y-73407535D01*
X175355005Y-73178727D01*
X175460314Y-72924490D01*
X175514000Y-72654592D01*
X175514000Y-72379408D01*
X175460314Y-72109510D01*
X175355005Y-71855273D01*
X175202120Y-71626465D01*
X175007535Y-71431880D01*
X174778727Y-71278995D01*
X174701485Y-71247000D01*
X174778727Y-71215005D01*
X175007535Y-71062120D01*
X175202120Y-70867535D01*
X175355005Y-70638727D01*
X175460314Y-70384490D01*
X175514000Y-70114592D01*
X175514000Y-69839408D01*
X175460314Y-69569510D01*
X175355005Y-69315273D01*
X175202120Y-69086465D01*
X175007535Y-68891880D01*
X174778727Y-68738995D01*
X174524490Y-68633686D01*
X174254592Y-68580000D01*
X173979408Y-68580000D01*
X173709510Y-68633686D01*
X173455273Y-68738995D01*
X173226465Y-68891880D01*
X173031880Y-69086465D01*
X172878995Y-69315273D01*
X172849564Y-69386326D01*
X172843216Y-69371001D01*
X172618444Y-69294766D01*
X171936210Y-69977000D01*
X172618444Y-70659234D01*
X172843216Y-70582999D01*
X172849145Y-70566664D01*
X172878995Y-70638727D01*
X173031880Y-70867535D01*
X173226465Y-71062120D01*
X173455273Y-71215005D01*
X173532515Y-71247000D01*
X173455273Y-71278995D01*
X173226465Y-71431880D01*
X173031880Y-71626465D01*
X172878995Y-71855273D01*
X172847000Y-71932515D01*
X172815005Y-71855273D01*
X172662120Y-71626465D01*
X172467535Y-71431880D01*
X172238727Y-71278995D01*
X172167674Y-71249564D01*
X172182999Y-71243216D01*
X172259234Y-71018444D01*
X171577000Y-70336210D01*
X170894766Y-71018444D01*
X170971001Y-71243216D01*
X170987336Y-71249145D01*
X170915273Y-71278995D01*
X170686465Y-71431880D01*
X170491880Y-71626465D01*
X170338995Y-71855273D01*
X170233686Y-72109510D01*
X170180000Y-72379408D01*
X170180000Y-72654592D01*
X170233686Y-72924490D01*
X170338995Y-73178727D01*
X170491880Y-73407535D01*
X170686465Y-73602120D01*
X170915273Y-73755005D01*
X170992515Y-73787000D01*
X170915273Y-73818995D01*
X170686465Y-73971880D01*
X170617345Y-74041000D01*
X169892893Y-74041000D01*
X169842999Y-74036086D01*
X169643829Y-74055702D01*
X169452312Y-74113799D01*
X169275810Y-74208141D01*
X169159865Y-74303294D01*
X167116872Y-76346288D01*
X167078104Y-76378104D01*
X166951140Y-76532810D01*
X166856798Y-76709314D01*
X166828671Y-76802036D01*
X166798702Y-76900830D01*
X166779085Y-77100000D01*
X166784000Y-77149902D01*
X166784001Y-81021484D01*
X166784000Y-81021494D01*
X166784000Y-81331985D01*
X166761985Y-81385134D01*
X166720500Y-81593691D01*
X141317359Y-81593691D01*
X141368152Y-81471068D01*
X141434820Y-81135905D01*
X141434820Y-80794175D01*
X141382484Y-80531066D01*
X151926152Y-69987400D01*
X159461333Y-69987400D01*
X159499996Y-69991208D01*
X159538659Y-69987400D01*
X159538669Y-69987400D01*
X159538710Y-69987396D01*
X160760757Y-69987396D01*
X160811859Y-70038498D01*
X160988665Y-70156636D01*
X161185122Y-70238011D01*
X161393679Y-70279496D01*
X161606321Y-70279496D01*
X161814878Y-70238011D01*
X162011335Y-70156636D01*
X162188141Y-70038498D01*
X162324949Y-69901690D01*
X170175263Y-69901690D01*
X170187505Y-70176602D01*
X170253145Y-70443843D01*
X170310784Y-70582999D01*
X170535556Y-70659234D01*
X171217790Y-69977000D01*
X170535556Y-69294766D01*
X170310784Y-69371001D01*
X170216889Y-69629671D01*
X170175263Y-69901690D01*
X162324949Y-69901690D01*
X162338502Y-69888137D01*
X162456640Y-69711331D01*
X162538015Y-69514874D01*
X162579500Y-69306317D01*
X162579500Y-69145052D01*
X162614876Y-69138015D01*
X162811333Y-69056640D01*
X162988139Y-68938502D01*
X162991085Y-68935556D01*
X170894766Y-68935556D01*
X171577000Y-69617790D01*
X172259234Y-68935556D01*
X172182999Y-68710784D01*
X171924329Y-68616889D01*
X171652310Y-68575263D01*
X171377398Y-68587505D01*
X171110157Y-68653145D01*
X170971001Y-68710784D01*
X170894766Y-68935556D01*
X162991085Y-68935556D01*
X163138500Y-68788141D01*
X163256638Y-68611335D01*
X163338013Y-68414878D01*
X163379498Y-68206321D01*
X163379498Y-68079498D01*
X163506321Y-68079498D01*
X163714878Y-68038013D01*
X163911335Y-67956638D01*
X164088141Y-67838500D01*
X164238502Y-67688139D01*
X164356640Y-67511333D01*
X164438015Y-67314876D01*
X164467358Y-67167360D01*
X164614882Y-67138015D01*
X164811339Y-67056640D01*
X164988145Y-66938502D01*
X165138506Y-66788141D01*
X165256644Y-66611335D01*
X165338019Y-66414878D01*
X165379504Y-66206321D01*
X165379504Y-65993679D01*
X165338019Y-65785122D01*
X165256644Y-65588665D01*
X165138506Y-65411859D01*
X164988145Y-65261498D01*
X164811339Y-65143360D01*
X164614882Y-65061985D01*
X164406325Y-65020500D01*
X164193683Y-65020500D01*
X163985126Y-65061985D01*
X163788669Y-65143360D01*
X163735420Y-65178940D01*
X141251603Y-65178940D01*
X141237377Y-65144595D01*
X141047523Y-64860457D01*
X140805883Y-64618817D01*
X140521745Y-64428963D01*
X140206028Y-64298188D01*
X139870865Y-64231520D01*
X139529135Y-64231520D01*
X139193972Y-64298188D01*
X138878255Y-64428963D01*
X138594117Y-64618817D01*
X138352477Y-64860457D01*
X138162623Y-65144595D01*
X138031848Y-65460312D01*
X137965180Y-65795475D01*
X131608559Y-65795475D01*
X131605359Y-64749941D01*
X136274349Y-64749941D01*
X136392430Y-65008976D01*
X136709283Y-65136972D01*
X137045019Y-65200694D01*
X137386735Y-65197693D01*
X137721300Y-65128084D01*
X138008850Y-65008976D01*
X138126931Y-64749941D01*
X137200640Y-63823650D01*
X136274349Y-64749941D01*
X131605359Y-64749941D01*
X131600949Y-63308819D01*
X135464386Y-63308819D01*
X135467387Y-63650535D01*
X135536996Y-63985100D01*
X135656104Y-64272650D01*
X135915139Y-64390731D01*
X136841430Y-63464440D01*
X137559850Y-63464440D01*
X138486141Y-64390731D01*
X138745176Y-64272650D01*
X138873172Y-63955797D01*
X138936894Y-63620061D01*
X138933893Y-63278345D01*
X138864284Y-62943780D01*
X138745176Y-62656230D01*
X138486141Y-62538149D01*
X137559850Y-63464440D01*
X136841430Y-63464440D01*
X135915139Y-62538149D01*
X135656104Y-62656230D01*
X135528108Y-62973083D01*
X135464386Y-63308819D01*
X131600949Y-63308819D01*
X131597492Y-62178939D01*
X136274349Y-62178939D01*
X137200640Y-63105230D01*
X138055289Y-62250581D01*
X138773709Y-62250581D01*
X138891790Y-62509616D01*
X139208643Y-62637612D01*
X139544379Y-62701334D01*
X139886095Y-62698333D01*
X140220660Y-62628724D01*
X140508210Y-62509616D01*
X140626291Y-62250581D01*
X139700000Y-61324290D01*
X138773709Y-62250581D01*
X138055289Y-62250581D01*
X138126931Y-62178939D01*
X138008850Y-61919904D01*
X137691997Y-61791908D01*
X137356261Y-61728186D01*
X137014545Y-61731187D01*
X136679980Y-61800796D01*
X136392430Y-61919904D01*
X136274349Y-62178939D01*
X131597492Y-62178939D01*
X131585411Y-58230812D01*
X132313680Y-58230812D01*
X132313680Y-58700628D01*
X132405337Y-59161416D01*
X132585127Y-59595469D01*
X132846143Y-59986107D01*
X133178353Y-60318317D01*
X133568991Y-60579333D01*
X134003044Y-60759123D01*
X134463832Y-60850780D01*
X134933648Y-60850780D01*
X135141381Y-60809459D01*
X137963746Y-60809459D01*
X137966747Y-61151175D01*
X138036356Y-61485740D01*
X138155464Y-61773290D01*
X138414499Y-61891371D01*
X139340790Y-60965080D01*
X140059210Y-60965080D01*
X140985501Y-61891371D01*
X141244536Y-61773290D01*
X141372532Y-61456437D01*
X141436254Y-61120701D01*
X141433253Y-60778985D01*
X141363644Y-60444420D01*
X141244536Y-60156870D01*
X140985501Y-60038789D01*
X140059210Y-60965080D01*
X139340790Y-60965080D01*
X138414499Y-60038789D01*
X138155464Y-60156870D01*
X138027468Y-60473723D01*
X137963746Y-60809459D01*
X135141381Y-60809459D01*
X135394436Y-60759123D01*
X135828489Y-60579333D01*
X136219127Y-60318317D01*
X136551337Y-59986107D01*
X136756152Y-59679579D01*
X138773709Y-59679579D01*
X139700000Y-60605870D01*
X140626291Y-59679579D01*
X140508210Y-59420544D01*
X140191357Y-59292548D01*
X139855621Y-59228826D01*
X139513905Y-59231827D01*
X139179340Y-59301436D01*
X138891790Y-59420544D01*
X138773709Y-59679579D01*
X136756152Y-59679579D01*
X136812353Y-59595469D01*
X136992143Y-59161416D01*
X137083800Y-58700628D01*
X137083800Y-58230812D01*
X136992143Y-57770024D01*
X136812353Y-57335971D01*
X136551337Y-56945333D01*
X136219127Y-56613123D01*
X135828489Y-56352107D01*
X135394436Y-56172317D01*
X134933648Y-56080660D01*
X134463832Y-56080660D01*
X134003044Y-56172317D01*
X133568991Y-56352107D01*
X133178353Y-56613123D01*
X132846143Y-56945333D01*
X132585127Y-57335971D01*
X132405337Y-57770024D01*
X132313680Y-58230812D01*
X131585411Y-58230812D01*
X131572389Y-53975000D01*
X141554293Y-53975000D01*
X141452600Y-54486246D01*
G37*
X141452600Y-54486246D02*
X141452600Y-55241754D01*
X141599992Y-55982745D01*
X141889112Y-56680743D01*
X142308850Y-57308925D01*
X142843075Y-57843150D01*
X143471257Y-58262888D01*
X144169255Y-58552008D01*
X144910246Y-58699400D01*
X145665754Y-58699400D01*
X146406745Y-58552008D01*
X147104743Y-58262888D01*
X147732925Y-57843150D01*
X148267150Y-57308925D01*
X148686888Y-56680743D01*
X148976008Y-55982745D01*
X149123400Y-55241754D01*
X149123400Y-54486246D01*
X149021707Y-53975000D01*
X169621293Y-53975000D01*
X169519600Y-54486246D01*
X169519600Y-55241754D01*
X169666992Y-55982745D01*
X169956112Y-56680743D01*
X170375850Y-57308925D01*
X170910075Y-57843150D01*
X171538257Y-58262888D01*
X172236255Y-58552008D01*
X172977246Y-58699400D01*
X173732754Y-58699400D01*
X174473745Y-58552008D01*
X175171743Y-58262888D01*
X175799925Y-57843150D01*
X176334150Y-57308925D01*
X176412379Y-57191847D01*
X176615143Y-129473000D01*
X162127000Y-129473000D01*
X162127000Y-123300000D01*
X162124560Y-123275224D01*
X162117333Y-123251399D01*
X162105597Y-123229443D01*
X162089803Y-123210197D01*
X162070557Y-123194403D01*
X162048601Y-123182667D01*
X162024776Y-123175440D01*
X162000000Y-123173000D01*
X138908960Y-123173000D01*
X138866252Y-122958292D01*
X138735477Y-122642575D01*
X138545623Y-122358437D01*
X138303983Y-122116797D01*
X138019845Y-121926943D01*
X137704128Y-121796168D01*
X137368965Y-121729500D01*
X137027235Y-121729500D01*
X136692072Y-121796168D01*
X136376355Y-121926943D01*
X136092217Y-122116797D01*
X135850577Y-122358437D01*
X135660723Y-122642575D01*
X135529948Y-122958292D01*
X135487240Y-123173000D01*
X131784112Y-123173000D01*
X131776834Y-120794095D01*
X137965180Y-120794095D01*
X137965180Y-121135825D01*
X138031848Y-121470988D01*
X138162623Y-121786705D01*
X138352477Y-122070843D01*
X138594117Y-122312483D01*
X138878255Y-122502337D01*
X139193972Y-122633112D01*
X139529135Y-122699780D01*
X139870865Y-122699780D01*
X140206028Y-122633112D01*
X140521745Y-122502337D01*
X140805883Y-122312483D01*
X141047523Y-122070843D01*
X141237377Y-121786705D01*
X141368152Y-121470988D01*
X141434820Y-121135825D01*
X141434820Y-120794095D01*
X141368152Y-120458932D01*
X141237377Y-120143215D01*
X141047523Y-119859077D01*
X140805883Y-119617437D01*
X140521745Y-119427583D01*
X140206028Y-119296808D01*
X139870865Y-119230140D01*
X139529135Y-119230140D01*
X139193972Y-119296808D01*
X138878255Y-119427583D01*
X138594117Y-119617437D01*
X138352477Y-119859077D01*
X138162623Y-120143215D01*
X138031848Y-120458932D01*
X137965180Y-120794095D01*
X131776834Y-120794095D01*
X131769187Y-118294735D01*
X135463280Y-118294735D01*
X135463280Y-118636465D01*
X135529948Y-118971628D01*
X135660723Y-119287345D01*
X135850577Y-119571483D01*
X136092217Y-119813123D01*
X136376355Y-120002977D01*
X136692072Y-120133752D01*
X137027235Y-120200420D01*
X137368965Y-120200420D01*
X137704128Y-120133752D01*
X138019845Y-120002977D01*
X138303983Y-119813123D01*
X138545623Y-119571483D01*
X138735477Y-119287345D01*
X138866252Y-118971628D01*
X138932920Y-118636465D01*
X138932920Y-118294735D01*
X138866252Y-117959572D01*
X138735477Y-117643855D01*
X138545623Y-117359717D01*
X138303983Y-117118077D01*
X138019845Y-116928223D01*
X137704128Y-116797448D01*
X137368965Y-116730780D01*
X137027235Y-116730780D01*
X136692072Y-116797448D01*
X136376355Y-116928223D01*
X136092217Y-117118077D01*
X135850577Y-117359717D01*
X135660723Y-117643855D01*
X135529948Y-117959572D01*
X135463280Y-118294735D01*
X131769187Y-118294735D01*
X131761540Y-115795375D01*
X137965180Y-115795375D01*
X137965180Y-116137105D01*
X138031848Y-116472268D01*
X138162623Y-116787985D01*
X138352477Y-117072123D01*
X138594117Y-117313763D01*
X138878255Y-117503617D01*
X139193972Y-117634392D01*
X139529135Y-117701060D01*
X139870865Y-117701060D01*
X140206028Y-117634392D01*
X140521745Y-117503617D01*
X140536618Y-117493679D01*
X159520500Y-117493679D01*
X159520500Y-117706321D01*
X159561985Y-117914878D01*
X159643360Y-118111335D01*
X159761498Y-118288141D01*
X159911859Y-118438502D01*
X160088665Y-118556640D01*
X160285122Y-118638015D01*
X160493679Y-118679500D01*
X160706321Y-118679500D01*
X160914878Y-118638015D01*
X161111335Y-118556640D01*
X161288141Y-118438502D01*
X161339243Y-118387400D01*
X166760757Y-118387400D01*
X166811859Y-118438502D01*
X166988665Y-118556640D01*
X167185122Y-118638015D01*
X167393679Y-118679500D01*
X167606321Y-118679500D01*
X167814878Y-118638015D01*
X168011335Y-118556640D01*
X168188141Y-118438502D01*
X168338502Y-118288141D01*
X168456640Y-118111335D01*
X168538015Y-117914878D01*
X168579500Y-117706321D01*
X168579500Y-117493679D01*
X168538015Y-117285122D01*
X168456640Y-117088665D01*
X168338502Y-116911859D01*
X168188141Y-116761498D01*
X168011335Y-116643360D01*
X167814878Y-116561985D01*
X167771478Y-116553352D01*
X167738015Y-116385122D01*
X167656640Y-116188665D01*
X167538502Y-116011859D01*
X167388141Y-115861498D01*
X167211335Y-115743360D01*
X167014878Y-115661985D01*
X166806321Y-115620500D01*
X166593679Y-115620500D01*
X166385122Y-115661985D01*
X166188665Y-115743360D01*
X166011859Y-115861498D01*
X165960757Y-115912600D01*
X162339243Y-115912600D01*
X162288141Y-115861498D01*
X162111335Y-115743360D01*
X161914878Y-115661985D01*
X161706321Y-115620500D01*
X161493679Y-115620500D01*
X161285122Y-115661985D01*
X161088665Y-115743360D01*
X160911859Y-115861498D01*
X160761498Y-116011859D01*
X160643360Y-116188665D01*
X160561985Y-116385122D01*
X160535056Y-116520500D01*
X160493679Y-116520500D01*
X160285122Y-116561985D01*
X160088665Y-116643360D01*
X159911859Y-116761498D01*
X159761498Y-116911859D01*
X159643360Y-117088665D01*
X159561985Y-117285122D01*
X159520500Y-117493679D01*
X140536618Y-117493679D01*
X140805883Y-117313763D01*
X141047523Y-117072123D01*
X141237377Y-116787985D01*
X141368152Y-116472268D01*
X141434820Y-116137105D01*
X141434820Y-115795375D01*
X141368152Y-115460212D01*
X141237377Y-115144495D01*
X141047523Y-114860357D01*
X140805883Y-114618717D01*
X140521745Y-114428863D01*
X140206028Y-114298088D01*
X139870865Y-114231420D01*
X139529135Y-114231420D01*
X139193972Y-114298088D01*
X138878255Y-114428863D01*
X138594117Y-114618717D01*
X138352477Y-114860357D01*
X138162623Y-115144495D01*
X138031848Y-115460212D01*
X137965180Y-115795375D01*
X131761540Y-115795375D01*
X131753885Y-113293475D01*
X135463280Y-113293475D01*
X135463280Y-113635205D01*
X135529948Y-113970368D01*
X135660723Y-114286085D01*
X135850577Y-114570223D01*
X136092217Y-114811863D01*
X136376355Y-115001717D01*
X136692072Y-115132492D01*
X137027235Y-115199160D01*
X137368965Y-115199160D01*
X137704128Y-115132492D01*
X138019845Y-115001717D01*
X138303983Y-114811863D01*
X138545623Y-114570223D01*
X138735477Y-114286085D01*
X138866252Y-113970368D01*
X138932920Y-113635205D01*
X138932920Y-113293475D01*
X138866252Y-112958312D01*
X138735477Y-112642595D01*
X138545623Y-112358457D01*
X138303983Y-112116817D01*
X138019845Y-111926963D01*
X137704128Y-111796188D01*
X137368965Y-111729520D01*
X137027235Y-111729520D01*
X136692072Y-111796188D01*
X136376355Y-111926963D01*
X136092217Y-112116817D01*
X135850577Y-112358457D01*
X135660723Y-112642595D01*
X135529948Y-112958312D01*
X135463280Y-113293475D01*
X131753885Y-113293475D01*
X131746238Y-110794115D01*
X137965180Y-110794115D01*
X137965180Y-111135845D01*
X138031848Y-111471008D01*
X138162623Y-111786725D01*
X138352477Y-112070863D01*
X138594117Y-112312503D01*
X138878255Y-112502357D01*
X139193972Y-112633132D01*
X139529135Y-112699800D01*
X139870865Y-112699800D01*
X140206028Y-112633132D01*
X140521745Y-112502357D01*
X140805883Y-112312503D01*
X141047523Y-112070863D01*
X141237377Y-111786725D01*
X141368152Y-111471008D01*
X141434820Y-111135845D01*
X141434820Y-110794115D01*
X141368152Y-110458952D01*
X141237377Y-110143235D01*
X141047523Y-109859097D01*
X140805883Y-109617457D01*
X140521745Y-109427603D01*
X140206028Y-109296828D01*
X139870865Y-109230160D01*
X139529135Y-109230160D01*
X139193972Y-109296828D01*
X138878255Y-109427603D01*
X138594117Y-109617457D01*
X138352477Y-109859097D01*
X138162623Y-110143235D01*
X138031848Y-110458952D01*
X137965180Y-110794115D01*
X131746238Y-110794115D01*
X131738591Y-108294755D01*
X135463280Y-108294755D01*
X135463280Y-108636485D01*
X135529948Y-108971648D01*
X135660723Y-109287365D01*
X135850577Y-109571503D01*
X136092217Y-109813143D01*
X136376355Y-110002997D01*
X136692072Y-110133772D01*
X137027235Y-110200440D01*
X137368965Y-110200440D01*
X137704128Y-110133772D01*
X138019845Y-110002997D01*
X138303983Y-109813143D01*
X138545623Y-109571503D01*
X138735477Y-109287365D01*
X138866252Y-108971648D01*
X138932920Y-108636485D01*
X138932920Y-108294755D01*
X138866252Y-107959592D01*
X138735477Y-107643875D01*
X138545623Y-107359737D01*
X138437647Y-107251761D01*
X138773709Y-107251761D01*
X138891790Y-107510796D01*
X139208643Y-107638792D01*
X139544379Y-107702514D01*
X139886095Y-107699513D01*
X140220660Y-107629904D01*
X140508210Y-107510796D01*
X140626291Y-107251761D01*
X139700000Y-106325470D01*
X138773709Y-107251761D01*
X138437647Y-107251761D01*
X138303983Y-107118097D01*
X138019845Y-106928243D01*
X137704128Y-106797468D01*
X137368965Y-106730800D01*
X137027235Y-106730800D01*
X136692072Y-106797468D01*
X136376355Y-106928243D01*
X136092217Y-107118097D01*
X135850577Y-107359737D01*
X135660723Y-107643875D01*
X135529948Y-107959592D01*
X135463280Y-108294755D01*
X131738591Y-108294755D01*
X131730991Y-105810639D01*
X137963746Y-105810639D01*
X137966747Y-106152355D01*
X138036356Y-106486920D01*
X138155464Y-106774470D01*
X138414499Y-106892551D01*
X139340790Y-105966260D01*
X140059210Y-105966260D01*
X140985501Y-106892551D01*
X141244536Y-106774470D01*
X141372532Y-106457617D01*
X141436254Y-106121881D01*
X141433253Y-105780165D01*
X141363644Y-105445600D01*
X141244536Y-105158050D01*
X140985501Y-105039969D01*
X140059210Y-105966260D01*
X139340790Y-105966260D01*
X138414499Y-105039969D01*
X138155464Y-105158050D01*
X138027468Y-105474903D01*
X137963746Y-105810639D01*
X131730991Y-105810639D01*
X131727745Y-104749861D01*
X136271809Y-104749861D01*
X136389890Y-105008896D01*
X136706743Y-105136892D01*
X137042479Y-105200614D01*
X137384195Y-105197613D01*
X137718760Y-105128004D01*
X138006310Y-105008896D01*
X138124391Y-104749861D01*
X138055289Y-104680759D01*
X138773709Y-104680759D01*
X139700000Y-105607050D01*
X140626291Y-104680759D01*
X140508210Y-104421724D01*
X140191357Y-104293728D01*
X139855621Y-104230006D01*
X139513905Y-104233007D01*
X139179340Y-104302616D01*
X138891790Y-104421724D01*
X138773709Y-104680759D01*
X138055289Y-104680759D01*
X137198100Y-103823570D01*
X136271809Y-104749861D01*
X131727745Y-104749861D01*
X131723335Y-103308739D01*
X135461846Y-103308739D01*
X135464847Y-103650455D01*
X135534456Y-103985020D01*
X135653564Y-104272570D01*
X135912599Y-104390651D01*
X136838890Y-103464360D01*
X137557310Y-103464360D01*
X138483601Y-104390651D01*
X138742636Y-104272570D01*
X138870632Y-103955717D01*
X138934354Y-103619981D01*
X138931353Y-103278265D01*
X138861744Y-102943700D01*
X138742636Y-102656150D01*
X138483601Y-102538069D01*
X137557310Y-103464360D01*
X136838890Y-103464360D01*
X135912599Y-102538069D01*
X135653564Y-102656150D01*
X135525568Y-102973003D01*
X135461846Y-103308739D01*
X131723335Y-103308739D01*
X131719879Y-102178859D01*
X136271809Y-102178859D01*
X137198100Y-103105150D01*
X138124391Y-102178859D01*
X138006310Y-101919824D01*
X137689457Y-101791828D01*
X137353721Y-101728106D01*
X137012005Y-101731107D01*
X136677440Y-101800716D01*
X136389890Y-101919824D01*
X136271809Y-102178859D01*
X131719879Y-102178859D01*
X131712451Y-99751141D01*
X136271809Y-99751141D01*
X136389890Y-100010176D01*
X136706743Y-100138172D01*
X137042479Y-100201894D01*
X137384195Y-100198893D01*
X137718760Y-100129284D01*
X138006310Y-100010176D01*
X138124391Y-99751141D01*
X137198100Y-98824850D01*
X136271809Y-99751141D01*
X131712451Y-99751141D01*
X131708041Y-98310019D01*
X135461846Y-98310019D01*
X135464847Y-98651735D01*
X135534456Y-98986300D01*
X135653564Y-99273850D01*
X135912599Y-99391931D01*
X136838890Y-98465640D01*
X137557310Y-98465640D01*
X138483601Y-99391931D01*
X138742636Y-99273850D01*
X138870632Y-98956997D01*
X138934354Y-98621261D01*
X138931353Y-98279545D01*
X138861744Y-97944980D01*
X138742636Y-97657430D01*
X138483601Y-97539349D01*
X137557310Y-98465640D01*
X136838890Y-98465640D01*
X135912599Y-97539349D01*
X135653564Y-97657430D01*
X135525568Y-97974283D01*
X135461846Y-98310019D01*
X131708041Y-98310019D01*
X131704584Y-97180139D01*
X136271809Y-97180139D01*
X137198100Y-98106430D01*
X138124391Y-97180139D01*
X138006310Y-96921104D01*
X137689457Y-96793108D01*
X137353721Y-96729386D01*
X137012005Y-96732387D01*
X136677440Y-96801996D01*
X136389890Y-96921104D01*
X136271809Y-97180139D01*
X131704584Y-97180139D01*
X131697149Y-94749881D01*
X136271809Y-94749881D01*
X136389890Y-95008916D01*
X136706743Y-95136912D01*
X137042479Y-95200634D01*
X137384195Y-95197633D01*
X137718760Y-95128024D01*
X138006310Y-95008916D01*
X138124391Y-94749881D01*
X137198100Y-93823590D01*
X136271809Y-94749881D01*
X131697149Y-94749881D01*
X131692739Y-93308759D01*
X135461846Y-93308759D01*
X135464847Y-93650475D01*
X135534456Y-93985040D01*
X135653564Y-94272590D01*
X135912599Y-94390671D01*
X136838890Y-93464380D01*
X137557310Y-93464380D01*
X138483601Y-94390671D01*
X138742636Y-94272590D01*
X138870632Y-93955737D01*
X138934354Y-93620001D01*
X138931353Y-93278285D01*
X138861744Y-92943720D01*
X138742636Y-92656170D01*
X138483601Y-92538089D01*
X137557310Y-93464380D01*
X136838890Y-93464380D01*
X135912599Y-92538089D01*
X135653564Y-92656170D01*
X135525568Y-92973023D01*
X135461846Y-93308759D01*
X131692739Y-93308759D01*
X131689283Y-92178879D01*
X136271809Y-92178879D01*
X137198100Y-93105170D01*
X138124391Y-92178879D01*
X138006310Y-91919844D01*
X137689457Y-91791848D01*
X137353721Y-91728126D01*
X137012005Y-91731127D01*
X136677440Y-91800736D01*
X136389890Y-91919844D01*
X136271809Y-92178879D01*
X131689283Y-92178879D01*
X131685047Y-90794155D01*
X137965180Y-90794155D01*
X137965180Y-91135885D01*
X138031848Y-91471048D01*
X138162623Y-91786765D01*
X138352477Y-92070903D01*
X138594117Y-92312543D01*
X138878255Y-92502397D01*
X139193972Y-92633172D01*
X139529135Y-92699840D01*
X139870865Y-92699840D01*
X140206028Y-92633172D01*
X140521745Y-92502397D01*
X140805883Y-92312543D01*
X141047523Y-92070903D01*
X141237377Y-91786765D01*
X141251603Y-91752420D01*
X141996317Y-91752420D01*
X142034980Y-91756228D01*
X142073643Y-91752420D01*
X142073653Y-91752420D01*
X142189337Y-91741026D01*
X142337763Y-91696002D01*
X142474552Y-91622886D01*
X142594449Y-91524489D01*
X142619108Y-91494442D01*
X145912601Y-88200950D01*
X145912600Y-91873848D01*
X142607570Y-95178880D01*
X141251603Y-95178880D01*
X141237377Y-95144535D01*
X141047523Y-94860397D01*
X140805883Y-94618757D01*
X140521745Y-94428903D01*
X140206028Y-94298128D01*
X139870865Y-94231460D01*
X139529135Y-94231460D01*
X139193972Y-94298128D01*
X138878255Y-94428903D01*
X138594117Y-94618757D01*
X138352477Y-94860397D01*
X138162623Y-95144535D01*
X138031848Y-95460252D01*
X137965180Y-95795415D01*
X137965180Y-96137145D01*
X138031848Y-96472308D01*
X138162623Y-96788025D01*
X138352477Y-97072163D01*
X138594117Y-97313803D01*
X138878255Y-97503657D01*
X139193972Y-97634432D01*
X139529135Y-97701100D01*
X139870865Y-97701100D01*
X140206028Y-97634432D01*
X140521745Y-97503657D01*
X140805883Y-97313803D01*
X141047523Y-97072163D01*
X141237377Y-96788025D01*
X141251603Y-96753680D01*
X142895057Y-96753680D01*
X142933720Y-96757488D01*
X142972383Y-96753680D01*
X142972393Y-96753680D01*
X143088077Y-96742286D01*
X143236503Y-96697262D01*
X143373292Y-96624146D01*
X143493189Y-96525749D01*
X143517848Y-96495702D01*
X146812600Y-93200951D01*
X146812600Y-96473848D01*
X143108850Y-100177600D01*
X141251603Y-100177600D01*
X141237377Y-100143255D01*
X141047523Y-99859117D01*
X140805883Y-99617477D01*
X140521745Y-99427623D01*
X140206028Y-99296848D01*
X139870865Y-99230180D01*
X139529135Y-99230180D01*
X139193972Y-99296848D01*
X138878255Y-99427623D01*
X138594117Y-99617477D01*
X138352477Y-99859117D01*
X138162623Y-100143255D01*
X138031848Y-100458972D01*
X137965180Y-100794135D01*
X137965180Y-101135865D01*
X138031848Y-101471028D01*
X138162623Y-101786745D01*
X138352477Y-102070883D01*
X138594117Y-102312523D01*
X138878255Y-102502377D01*
X139193972Y-102633152D01*
X139529135Y-102699820D01*
X139870865Y-102699820D01*
X140206028Y-102633152D01*
X140521745Y-102502377D01*
X140805883Y-102312523D01*
X141047523Y-102070883D01*
X141237377Y-101786745D01*
X141251603Y-101752400D01*
X143396337Y-101752400D01*
X143435000Y-101756208D01*
X143473663Y-101752400D01*
X143473673Y-101752400D01*
X143589357Y-101741006D01*
X143737783Y-101695982D01*
X143874572Y-101622866D01*
X143994469Y-101524469D01*
X144019128Y-101494422D01*
X148129434Y-97384118D01*
X148159469Y-97359469D01*
X148257866Y-97239572D01*
X148330982Y-97102783D01*
X148376006Y-96954357D01*
X148387400Y-96838673D01*
X148387400Y-96838664D01*
X148391208Y-96800001D01*
X148387400Y-96761338D01*
X148387400Y-91793679D01*
X165320500Y-91793679D01*
X165320500Y-92006321D01*
X165361985Y-92214878D01*
X165443360Y-92411335D01*
X165561498Y-92588141D01*
X165711859Y-92738502D01*
X165888665Y-92856640D01*
X166085122Y-92938015D01*
X166293679Y-92979500D01*
X166506321Y-92979500D01*
X166714878Y-92938015D01*
X166911335Y-92856640D01*
X167088141Y-92738502D01*
X167238502Y-92588141D01*
X167356640Y-92411335D01*
X167378656Y-92358185D01*
X168283133Y-91453708D01*
X168321896Y-91421896D01*
X168448860Y-91267190D01*
X168543202Y-91090687D01*
X168601298Y-90899171D01*
X168616000Y-90749902D01*
X168616000Y-90749895D01*
X168620914Y-90700001D01*
X168616000Y-90650107D01*
X168616000Y-86768027D01*
X168638015Y-86714878D01*
X168679500Y-86506321D01*
X168679500Y-86293679D01*
X168638015Y-86085122D01*
X168556640Y-85888665D01*
X168438502Y-85711859D01*
X168288141Y-85561498D01*
X168111335Y-85443360D01*
X167914878Y-85361985D01*
X167706321Y-85320500D01*
X167493679Y-85320500D01*
X167285122Y-85361985D01*
X167088665Y-85443360D01*
X166911859Y-85561498D01*
X166761498Y-85711859D01*
X166643360Y-85888665D01*
X166561985Y-86085122D01*
X166520500Y-86293679D01*
X166520500Y-86506321D01*
X166561985Y-86714878D01*
X166584001Y-86768029D01*
X166584000Y-90279159D01*
X165941815Y-90921344D01*
X165888665Y-90943360D01*
X165711859Y-91061498D01*
X165561498Y-91211859D01*
X165443360Y-91388665D01*
X165361985Y-91585122D01*
X165320500Y-91793679D01*
X148387400Y-91793679D01*
X148387400Y-88226150D01*
X149669632Y-86943919D01*
X149688671Y-86956640D01*
X149885128Y-87038015D01*
X150093685Y-87079500D01*
X150306327Y-87079500D01*
X150514884Y-87038015D01*
X150711341Y-86956640D01*
X150888147Y-86838502D01*
X151038508Y-86688141D01*
X151156646Y-86511335D01*
X151238021Y-86314878D01*
X151279506Y-86106321D01*
X151279506Y-85893679D01*
X151238021Y-85685122D01*
X151156646Y-85488665D01*
X151063990Y-85349996D01*
X151156640Y-85211335D01*
X151238015Y-85014878D01*
X151279500Y-84806321D01*
X151279500Y-84593679D01*
X151238015Y-84385122D01*
X151156640Y-84188665D01*
X151063986Y-84049999D01*
X151156638Y-83911335D01*
X151238013Y-83714878D01*
X151279498Y-83506321D01*
X151279498Y-83293679D01*
X151238013Y-83085122D01*
X151156638Y-82888665D01*
X151038500Y-82711859D01*
X150888139Y-82561498D01*
X150711333Y-82443360D01*
X150514876Y-82361985D01*
X150306319Y-82320500D01*
X150093677Y-82320500D01*
X149885120Y-82361985D01*
X149688663Y-82443360D01*
X149511857Y-82561498D01*
X149449767Y-82623588D01*
X149445643Y-82623994D01*
X149339506Y-82656190D01*
X149297217Y-82669018D01*
X149160427Y-82742134D01*
X149114883Y-82779512D01*
X149040531Y-82840531D01*
X149015877Y-82870572D01*
X141708830Y-90177620D01*
X141251603Y-90177620D01*
X141237377Y-90143275D01*
X141047523Y-89859137D01*
X140805883Y-89617497D01*
X140521745Y-89427643D01*
X140206028Y-89296868D01*
X139870865Y-89230200D01*
X139529135Y-89230200D01*
X139193972Y-89296868D01*
X138878255Y-89427643D01*
X138594117Y-89617497D01*
X138352477Y-89859137D01*
X138162623Y-90143275D01*
X138031848Y-90458992D01*
X137965180Y-90794155D01*
X131685047Y-90794155D01*
X131681855Y-89751161D01*
X136271809Y-89751161D01*
X136389890Y-90010196D01*
X136706743Y-90138192D01*
X137042479Y-90201914D01*
X137384195Y-90198913D01*
X137718760Y-90129304D01*
X138006310Y-90010196D01*
X138124391Y-89751161D01*
X137198100Y-88824870D01*
X136271809Y-89751161D01*
X131681855Y-89751161D01*
X131677445Y-88310039D01*
X135461846Y-88310039D01*
X135464847Y-88651755D01*
X135534456Y-88986320D01*
X135653564Y-89273870D01*
X135912599Y-89391951D01*
X136838890Y-88465660D01*
X137557310Y-88465660D01*
X138483601Y-89391951D01*
X138742636Y-89273870D01*
X138870632Y-88957017D01*
X138934354Y-88621281D01*
X138931353Y-88279565D01*
X138861744Y-87945000D01*
X138742636Y-87657450D01*
X138483601Y-87539369D01*
X137557310Y-88465660D01*
X136838890Y-88465660D01*
X135912599Y-87539369D01*
X135653564Y-87657450D01*
X135525568Y-87974303D01*
X135461846Y-88310039D01*
X131677445Y-88310039D01*
X131673988Y-87180159D01*
X136271809Y-87180159D01*
X137198100Y-88106450D01*
X138124391Y-87180159D01*
X138006310Y-86921124D01*
X137689457Y-86793128D01*
X137353721Y-86729406D01*
X137012005Y-86732407D01*
X136677440Y-86802016D01*
X136389890Y-86921124D01*
X136271809Y-87180159D01*
X131673988Y-87180159D01*
X131669752Y-85795435D01*
X137965180Y-85795435D01*
X137965180Y-86137165D01*
X138031848Y-86472328D01*
X138162623Y-86788045D01*
X138352477Y-87072183D01*
X138594117Y-87313823D01*
X138878255Y-87503677D01*
X139193972Y-87634452D01*
X139529135Y-87701120D01*
X139870865Y-87701120D01*
X140206028Y-87634452D01*
X140521745Y-87503677D01*
X140805883Y-87313823D01*
X141047523Y-87072183D01*
X141237377Y-86788045D01*
X141368152Y-86472328D01*
X141434820Y-86137165D01*
X141434820Y-85795435D01*
X141368152Y-85460272D01*
X141237377Y-85144555D01*
X141047523Y-84860417D01*
X140805883Y-84618777D01*
X140521745Y-84428923D01*
X140206028Y-84298148D01*
X139870865Y-84231480D01*
X139529135Y-84231480D01*
X139193972Y-84298148D01*
X138878255Y-84428923D01*
X138594117Y-84618777D01*
X138352477Y-84860417D01*
X138162623Y-85144555D01*
X138031848Y-85460272D01*
X137965180Y-85795435D01*
X131669752Y-85795435D01*
X131666553Y-84749901D01*
X136271809Y-84749901D01*
X136389890Y-85008936D01*
X136706743Y-85136932D01*
X137042479Y-85200654D01*
X137384195Y-85197653D01*
X137718760Y-85128044D01*
X138006310Y-85008936D01*
X138124391Y-84749901D01*
X137198100Y-83823610D01*
X136271809Y-84749901D01*
X131666553Y-84749901D01*
X131662143Y-83308779D01*
X135461846Y-83308779D01*
X135464847Y-83650495D01*
X135534456Y-83985060D01*
X135653564Y-84272610D01*
X135912599Y-84390691D01*
X136838890Y-83464400D01*
X137557310Y-83464400D01*
X138483601Y-84390691D01*
X138742636Y-84272610D01*
X138870632Y-83955757D01*
X138934354Y-83620021D01*
X138931353Y-83278305D01*
X138861744Y-82943740D01*
X138742636Y-82656190D01*
X138483601Y-82538109D01*
X137557310Y-83464400D01*
X136838890Y-83464400D01*
X135912599Y-82538109D01*
X135653564Y-82656190D01*
X135525568Y-82973043D01*
X135461846Y-83308779D01*
X131662143Y-83308779D01*
X131658687Y-82178899D01*
X136271809Y-82178899D01*
X137198100Y-83105190D01*
X138124391Y-82178899D01*
X138006310Y-81919864D01*
X137689457Y-81791868D01*
X137353721Y-81728146D01*
X137012005Y-81731147D01*
X136677440Y-81800756D01*
X136389890Y-81919864D01*
X136271809Y-82178899D01*
X131658687Y-82178899D01*
X131651259Y-79751181D01*
X136271809Y-79751181D01*
X136389890Y-80010216D01*
X136706743Y-80138212D01*
X137042479Y-80201934D01*
X137384195Y-80198933D01*
X137718760Y-80129324D01*
X138006310Y-80010216D01*
X138124391Y-79751181D01*
X137198100Y-78824890D01*
X136271809Y-79751181D01*
X131651259Y-79751181D01*
X131646849Y-78310059D01*
X135461846Y-78310059D01*
X135464847Y-78651775D01*
X135534456Y-78986340D01*
X135653564Y-79273890D01*
X135912599Y-79391971D01*
X136838890Y-78465680D01*
X137557310Y-78465680D01*
X138483601Y-79391971D01*
X138742636Y-79273890D01*
X138870632Y-78957037D01*
X138934354Y-78621301D01*
X138931353Y-78279585D01*
X138861744Y-77945020D01*
X138742636Y-77657470D01*
X138483601Y-77539389D01*
X137557310Y-78465680D01*
X136838890Y-78465680D01*
X135912599Y-77539389D01*
X135653564Y-77657470D01*
X135525568Y-77974323D01*
X135461846Y-78310059D01*
X131646849Y-78310059D01*
X131643392Y-77180179D01*
X136271809Y-77180179D01*
X137198100Y-78106470D01*
X138124391Y-77180179D01*
X138006310Y-76921144D01*
X137689457Y-76793148D01*
X137353721Y-76729426D01*
X137012005Y-76732427D01*
X136677440Y-76802036D01*
X136389890Y-76921144D01*
X136271809Y-77180179D01*
X131643392Y-77180179D01*
X131635957Y-74749921D01*
X136271809Y-74749921D01*
X136389890Y-75008956D01*
X136706743Y-75136952D01*
X137042479Y-75200674D01*
X137384195Y-75197673D01*
X137718760Y-75128064D01*
X138006310Y-75008956D01*
X138124391Y-74749921D01*
X137198100Y-73823630D01*
X136271809Y-74749921D01*
X131635957Y-74749921D01*
X131631547Y-73308799D01*
X135461846Y-73308799D01*
X135464847Y-73650515D01*
X135534456Y-73985080D01*
X135653564Y-74272630D01*
X135912599Y-74390711D01*
X136838890Y-73464420D01*
X137557310Y-73464420D01*
X138483601Y-74390711D01*
X138742636Y-74272630D01*
X138870632Y-73955777D01*
X138934354Y-73620041D01*
X138931353Y-73278325D01*
X138861744Y-72943760D01*
X138742636Y-72656210D01*
X138483601Y-72538129D01*
X137557310Y-73464420D01*
X136838890Y-73464420D01*
X135912599Y-72538129D01*
X135653564Y-72656210D01*
X135525568Y-72973063D01*
X135461846Y-73308799D01*
X131631547Y-73308799D01*
X131628090Y-72178919D01*
X136271809Y-72178919D01*
X137198100Y-73105210D01*
X138124391Y-72178919D01*
X138006310Y-71919884D01*
X137689457Y-71791888D01*
X137353721Y-71728166D01*
X137012005Y-71731167D01*
X136677440Y-71800776D01*
X136389890Y-71919884D01*
X136271809Y-72178919D01*
X131628090Y-72178919D01*
X131620662Y-69751201D01*
X136271809Y-69751201D01*
X136389890Y-70010236D01*
X136706743Y-70138232D01*
X137042479Y-70201954D01*
X137384195Y-70198953D01*
X137718760Y-70129344D01*
X138006310Y-70010236D01*
X138124391Y-69751201D01*
X137198100Y-68824910D01*
X136271809Y-69751201D01*
X131620662Y-69751201D01*
X131616252Y-68310079D01*
X135461846Y-68310079D01*
X135464847Y-68651795D01*
X135534456Y-68986360D01*
X135653564Y-69273910D01*
X135912599Y-69391991D01*
X136838890Y-68465700D01*
X137557310Y-68465700D01*
X138483601Y-69391991D01*
X138742636Y-69273910D01*
X138870632Y-68957057D01*
X138934354Y-68621321D01*
X138931353Y-68279605D01*
X138861744Y-67945040D01*
X138742636Y-67657490D01*
X138483601Y-67539409D01*
X137557310Y-68465700D01*
X136838890Y-68465700D01*
X135912599Y-67539409D01*
X135653564Y-67657490D01*
X135525568Y-67974343D01*
X135461846Y-68310079D01*
X131616252Y-68310079D01*
X131612795Y-67180199D01*
X136271809Y-67180199D01*
X137198100Y-68106490D01*
X138124391Y-67180199D01*
X138006310Y-66921164D01*
X137689457Y-66793168D01*
X137353721Y-66729446D01*
X137012005Y-66732447D01*
X136677440Y-66802056D01*
X136389890Y-66921164D01*
X136271809Y-67180199D01*
X131612795Y-67180199D01*
X131608559Y-65795475D01*
X137965180Y-65795475D01*
X137965180Y-66137205D01*
X138031848Y-66472368D01*
X138162623Y-66788085D01*
X138352477Y-67072223D01*
X138594117Y-67313863D01*
X138878255Y-67503717D01*
X139193972Y-67634492D01*
X139529135Y-67701160D01*
X139870865Y-67701160D01*
X140206028Y-67634492D01*
X140521745Y-67503717D01*
X140805883Y-67313863D01*
X141047523Y-67072223D01*
X141237377Y-66788085D01*
X141251603Y-66753740D01*
X148032708Y-66753740D01*
X144608790Y-70177660D01*
X141251603Y-70177660D01*
X141237377Y-70143315D01*
X141047523Y-69859177D01*
X140805883Y-69617537D01*
X140521745Y-69427683D01*
X140206028Y-69296908D01*
X139870865Y-69230240D01*
X139529135Y-69230240D01*
X139193972Y-69296908D01*
X138878255Y-69427683D01*
X138594117Y-69617537D01*
X138352477Y-69859177D01*
X138162623Y-70143315D01*
X138031848Y-70459032D01*
X137965180Y-70794195D01*
X137965180Y-71135925D01*
X138031848Y-71471088D01*
X138162623Y-71786805D01*
X138352477Y-72070943D01*
X138594117Y-72312583D01*
X138878255Y-72502437D01*
X139193972Y-72633212D01*
X139529135Y-72699880D01*
X139870865Y-72699880D01*
X140206028Y-72633212D01*
X140521745Y-72502437D01*
X140805883Y-72312583D01*
X141047523Y-72070943D01*
X141237377Y-71786805D01*
X141251603Y-71752460D01*
X144896277Y-71752460D01*
X144934940Y-71756268D01*
X144973603Y-71752460D01*
X144973613Y-71752460D01*
X145089297Y-71741066D01*
X145237723Y-71696042D01*
X145350904Y-71635545D01*
X141807530Y-75178920D01*
X141251603Y-75178920D01*
X141237377Y-75144575D01*
X141047523Y-74860437D01*
X140805883Y-74618797D01*
X140521745Y-74428943D01*
X140206028Y-74298168D01*
X139870865Y-74231500D01*
X139529135Y-74231500D01*
X139193972Y-74298168D01*
X138878255Y-74428943D01*
X138594117Y-74618797D01*
X138352477Y-74860437D01*
X138162623Y-75144575D01*
X138031848Y-75460292D01*
X137965180Y-75795455D01*
X137965180Y-76137185D01*
X138031848Y-76472348D01*
X138162623Y-76788065D01*
X138352477Y-77072203D01*
X138594117Y-77313843D01*
X138878255Y-77503697D01*
X139193972Y-77634472D01*
X139529135Y-77701140D01*
X139870865Y-77701140D01*
X140206028Y-77634472D01*
X140521745Y-77503697D01*
X140805883Y-77313843D01*
X141047523Y-77072203D01*
X141237377Y-76788065D01*
X141251603Y-76753720D01*
X142095017Y-76753720D01*
X142133680Y-76757528D01*
X142172343Y-76753720D01*
X142172353Y-76753720D01*
X142288037Y-76742326D01*
X142436463Y-76697302D01*
X142573252Y-76624186D01*
X142693149Y-76525789D01*
X142717808Y-76495742D01*
X150326152Y-68887400D01*
X150799048Y-68887400D01*
X140335806Y-79350644D01*
X140206028Y-79296888D01*
X139870865Y-79230220D01*
X139529135Y-79230220D01*
X139193972Y-79296888D01*
X138878255Y-79427663D01*
X138594117Y-79617517D01*
X138352477Y-79859157D01*
X138162623Y-80143295D01*
X138031848Y-80459012D01*
X137965180Y-80794175D01*
X137965180Y-81135905D01*
X138031848Y-81471068D01*
X138162623Y-81786785D01*
X138352477Y-82070923D01*
X138594117Y-82312563D01*
X138878255Y-82502417D01*
X139193972Y-82633192D01*
X139529135Y-82699860D01*
X139870865Y-82699860D01*
X140206028Y-82633192D01*
X140521745Y-82502417D01*
X140805883Y-82312563D01*
X141047523Y-82070923D01*
X141237377Y-81786785D01*
X141317359Y-81593691D01*
X166720500Y-81593691D01*
X166720500Y-81806333D01*
X166761985Y-82014890D01*
X166843360Y-82211347D01*
X166961498Y-82388153D01*
X167111859Y-82538514D01*
X167288665Y-82656652D01*
X167485122Y-82738027D01*
X167693679Y-82779512D01*
X167906321Y-82779512D01*
X168114878Y-82738027D01*
X168311335Y-82656652D01*
X168488141Y-82538514D01*
X168638502Y-82388153D01*
X168756640Y-82211347D01*
X168838015Y-82014890D01*
X168879500Y-81806333D01*
X168879500Y-81593691D01*
X168838015Y-81385134D01*
X168816000Y-81331985D01*
X168816000Y-78293679D01*
X170120500Y-78293679D01*
X170120500Y-78506321D01*
X170161985Y-78714878D01*
X170243360Y-78911335D01*
X170361498Y-79088141D01*
X170412601Y-79139244D01*
X170412600Y-87912237D01*
X170408792Y-87950900D01*
X170412600Y-87989563D01*
X170412600Y-87989572D01*
X170423994Y-88105256D01*
X170469018Y-88253682D01*
X170542134Y-88390471D01*
X170640531Y-88510369D01*
X170670577Y-88535027D01*
X171469600Y-89334051D01*
X171469600Y-89406321D01*
X171511085Y-89614878D01*
X171592460Y-89811335D01*
X171710598Y-89988141D01*
X171860959Y-90138502D01*
X172037765Y-90256640D01*
X172234222Y-90338015D01*
X172442779Y-90379500D01*
X172655421Y-90379500D01*
X172863978Y-90338015D01*
X173060435Y-90256640D01*
X173237241Y-90138502D01*
X173387602Y-89988141D01*
X173505740Y-89811335D01*
X173587115Y-89614878D01*
X173628600Y-89406321D01*
X173628600Y-89193679D01*
X173587115Y-88985122D01*
X173505740Y-88788665D01*
X173387602Y-88611859D01*
X173237241Y-88461498D01*
X173060435Y-88343360D01*
X172863978Y-88261985D01*
X172655421Y-88220500D01*
X172583151Y-88220500D01*
X171987400Y-87624750D01*
X171987400Y-86300950D01*
X172320500Y-86634051D01*
X172320500Y-86706321D01*
X172361985Y-86914878D01*
X172443360Y-87111335D01*
X172561498Y-87288141D01*
X172711859Y-87438502D01*
X172888665Y-87556640D01*
X173085122Y-87638015D01*
X173293679Y-87679500D01*
X173506321Y-87679500D01*
X173714878Y-87638015D01*
X173911335Y-87556640D01*
X174088141Y-87438502D01*
X174238502Y-87288141D01*
X174356640Y-87111335D01*
X174438015Y-86914878D01*
X174479500Y-86706321D01*
X174479500Y-86493679D01*
X174438015Y-86285122D01*
X174356640Y-86088665D01*
X174238502Y-85911859D01*
X174088141Y-85761498D01*
X173911335Y-85643360D01*
X173714878Y-85561985D01*
X173506321Y-85520500D01*
X173434051Y-85520500D01*
X173287400Y-85373849D01*
X173287400Y-79039243D01*
X173338502Y-78988141D01*
X173456640Y-78811335D01*
X173538015Y-78614878D01*
X173579500Y-78406321D01*
X173579500Y-78193679D01*
X173538015Y-77985122D01*
X173456640Y-77788665D01*
X173338502Y-77611859D01*
X173188141Y-77461498D01*
X173011335Y-77343360D01*
X172814878Y-77261985D01*
X172606321Y-77220500D01*
X172393679Y-77220500D01*
X172185122Y-77261985D01*
X171988665Y-77343360D01*
X171811859Y-77461498D01*
X171782468Y-77490889D01*
X171711335Y-77443360D01*
X171514878Y-77361985D01*
X171306321Y-77320500D01*
X171093679Y-77320500D01*
X170885122Y-77361985D01*
X170688665Y-77443360D01*
X170511859Y-77561498D01*
X170361498Y-77711859D01*
X170243360Y-77888665D01*
X170161985Y-78085122D01*
X170120500Y-78293679D01*
X168816000Y-78293679D01*
X168816000Y-77520840D01*
X170263841Y-76073000D01*
X170617345Y-76073000D01*
X170686465Y-76142120D01*
X170915273Y-76295005D01*
X171169510Y-76400314D01*
X171439408Y-76454000D01*
X171714592Y-76454000D01*
X171984490Y-76400314D01*
X172238727Y-76295005D01*
X172467535Y-76142120D01*
X172662120Y-75947535D01*
X172720920Y-75859535D01*
X172729188Y-75943482D01*
X172765498Y-76063180D01*
X172824463Y-76173494D01*
X172903815Y-76270185D01*
X173000506Y-76349537D01*
X173110820Y-76408502D01*
X173230518Y-76444812D01*
X173355000Y-76457072D01*
X174879000Y-76457072D01*
X175003482Y-76444812D01*
X175123180Y-76408502D01*
X175233494Y-76349537D01*
X175330185Y-76270185D01*
X175409537Y-76173494D01*
X175468502Y-76063180D01*
X175504812Y-75943482D01*
X175517072Y-75819000D01*
X175517072Y-74295000D01*
X175504812Y-74170518D01*
X175468502Y-74050820D01*
X175409537Y-73940506D01*
X175330185Y-73843815D01*
X175233494Y-73764463D01*
X175123180Y-73705498D01*
X175003482Y-73669188D01*
X174919535Y-73660920D01*
X175007535Y-73602120D01*
X175202120Y-73407535D01*
X175355005Y-73178727D01*
X175460314Y-72924490D01*
X175514000Y-72654592D01*
X175514000Y-72379408D01*
X175460314Y-72109510D01*
X175355005Y-71855273D01*
X175202120Y-71626465D01*
X175007535Y-71431880D01*
X174778727Y-71278995D01*
X174701485Y-71247000D01*
X174778727Y-71215005D01*
X175007535Y-71062120D01*
X175202120Y-70867535D01*
X175355005Y-70638727D01*
X175460314Y-70384490D01*
X175514000Y-70114592D01*
X175514000Y-69839408D01*
X175460314Y-69569510D01*
X175355005Y-69315273D01*
X175202120Y-69086465D01*
X175007535Y-68891880D01*
X174778727Y-68738995D01*
X174524490Y-68633686D01*
X174254592Y-68580000D01*
X173979408Y-68580000D01*
X173709510Y-68633686D01*
X173455273Y-68738995D01*
X173226465Y-68891880D01*
X173031880Y-69086465D01*
X172878995Y-69315273D01*
X172849564Y-69386326D01*
X172843216Y-69371001D01*
X172618444Y-69294766D01*
X171936210Y-69977000D01*
X172618444Y-70659234D01*
X172843216Y-70582999D01*
X172849145Y-70566664D01*
X172878995Y-70638727D01*
X173031880Y-70867535D01*
X173226465Y-71062120D01*
X173455273Y-71215005D01*
X173532515Y-71247000D01*
X173455273Y-71278995D01*
X173226465Y-71431880D01*
X173031880Y-71626465D01*
X172878995Y-71855273D01*
X172847000Y-71932515D01*
X172815005Y-71855273D01*
X172662120Y-71626465D01*
X172467535Y-71431880D01*
X172238727Y-71278995D01*
X172167674Y-71249564D01*
X172182999Y-71243216D01*
X172259234Y-71018444D01*
X171577000Y-70336210D01*
X170894766Y-71018444D01*
X170971001Y-71243216D01*
X170987336Y-71249145D01*
X170915273Y-71278995D01*
X170686465Y-71431880D01*
X170491880Y-71626465D01*
X170338995Y-71855273D01*
X170233686Y-72109510D01*
X170180000Y-72379408D01*
X170180000Y-72654592D01*
X170233686Y-72924490D01*
X170338995Y-73178727D01*
X170491880Y-73407535D01*
X170686465Y-73602120D01*
X170915273Y-73755005D01*
X170992515Y-73787000D01*
X170915273Y-73818995D01*
X170686465Y-73971880D01*
X170617345Y-74041000D01*
X169892893Y-74041000D01*
X169842999Y-74036086D01*
X169643829Y-74055702D01*
X169452312Y-74113799D01*
X169275810Y-74208141D01*
X169159865Y-74303294D01*
X167116872Y-76346288D01*
X167078104Y-76378104D01*
X166951140Y-76532810D01*
X166856798Y-76709314D01*
X166828671Y-76802036D01*
X166798702Y-76900830D01*
X166779085Y-77100000D01*
X166784000Y-77149902D01*
X166784001Y-81021484D01*
X166784000Y-81021494D01*
X166784000Y-81331985D01*
X166761985Y-81385134D01*
X166720500Y-81593691D01*
X141317359Y-81593691D01*
X141368152Y-81471068D01*
X141434820Y-81135905D01*
X141434820Y-80794175D01*
X141382484Y-80531066D01*
X151926152Y-69987400D01*
X159461333Y-69987400D01*
X159499996Y-69991208D01*
X159538659Y-69987400D01*
X159538669Y-69987400D01*
X159538710Y-69987396D01*
X160760757Y-69987396D01*
X160811859Y-70038498D01*
X160988665Y-70156636D01*
X161185122Y-70238011D01*
X161393679Y-70279496D01*
X161606321Y-70279496D01*
X161814878Y-70238011D01*
X162011335Y-70156636D01*
X162188141Y-70038498D01*
X162324949Y-69901690D01*
X170175263Y-69901690D01*
X170187505Y-70176602D01*
X170253145Y-70443843D01*
X170310784Y-70582999D01*
X170535556Y-70659234D01*
X171217790Y-69977000D01*
X170535556Y-69294766D01*
X170310784Y-69371001D01*
X170216889Y-69629671D01*
X170175263Y-69901690D01*
X162324949Y-69901690D01*
X162338502Y-69888137D01*
X162456640Y-69711331D01*
X162538015Y-69514874D01*
X162579500Y-69306317D01*
X162579500Y-69145052D01*
X162614876Y-69138015D01*
X162811333Y-69056640D01*
X162988139Y-68938502D01*
X162991085Y-68935556D01*
X170894766Y-68935556D01*
X171577000Y-69617790D01*
X172259234Y-68935556D01*
X172182999Y-68710784D01*
X171924329Y-68616889D01*
X171652310Y-68575263D01*
X171377398Y-68587505D01*
X171110157Y-68653145D01*
X170971001Y-68710784D01*
X170894766Y-68935556D01*
X162991085Y-68935556D01*
X163138500Y-68788141D01*
X163256638Y-68611335D01*
X163338013Y-68414878D01*
X163379498Y-68206321D01*
X163379498Y-68079498D01*
X163506321Y-68079498D01*
X163714878Y-68038013D01*
X163911335Y-67956638D01*
X164088141Y-67838500D01*
X164238502Y-67688139D01*
X164356640Y-67511333D01*
X164438015Y-67314876D01*
X164467358Y-67167360D01*
X164614882Y-67138015D01*
X164811339Y-67056640D01*
X164988145Y-66938502D01*
X165138506Y-66788141D01*
X165256644Y-66611335D01*
X165338019Y-66414878D01*
X165379504Y-66206321D01*
X165379504Y-65993679D01*
X165338019Y-65785122D01*
X165256644Y-65588665D01*
X165138506Y-65411859D01*
X164988145Y-65261498D01*
X164811339Y-65143360D01*
X164614882Y-65061985D01*
X164406325Y-65020500D01*
X164193683Y-65020500D01*
X163985126Y-65061985D01*
X163788669Y-65143360D01*
X163735420Y-65178940D01*
X141251603Y-65178940D01*
X141237377Y-65144595D01*
X141047523Y-64860457D01*
X140805883Y-64618817D01*
X140521745Y-64428963D01*
X140206028Y-64298188D01*
X139870865Y-64231520D01*
X139529135Y-64231520D01*
X139193972Y-64298188D01*
X138878255Y-64428963D01*
X138594117Y-64618817D01*
X138352477Y-64860457D01*
X138162623Y-65144595D01*
X138031848Y-65460312D01*
X137965180Y-65795475D01*
X131608559Y-65795475D01*
X131605359Y-64749941D01*
X136274349Y-64749941D01*
X136392430Y-65008976D01*
X136709283Y-65136972D01*
X137045019Y-65200694D01*
X137386735Y-65197693D01*
X137721300Y-65128084D01*
X138008850Y-65008976D01*
X138126931Y-64749941D01*
X137200640Y-63823650D01*
X136274349Y-64749941D01*
X131605359Y-64749941D01*
X131600949Y-63308819D01*
X135464386Y-63308819D01*
X135467387Y-63650535D01*
X135536996Y-63985100D01*
X135656104Y-64272650D01*
X135915139Y-64390731D01*
X136841430Y-63464440D01*
X137559850Y-63464440D01*
X138486141Y-64390731D01*
X138745176Y-64272650D01*
X138873172Y-63955797D01*
X138936894Y-63620061D01*
X138933893Y-63278345D01*
X138864284Y-62943780D01*
X138745176Y-62656230D01*
X138486141Y-62538149D01*
X137559850Y-63464440D01*
X136841430Y-63464440D01*
X135915139Y-62538149D01*
X135656104Y-62656230D01*
X135528108Y-62973083D01*
X135464386Y-63308819D01*
X131600949Y-63308819D01*
X131597492Y-62178939D01*
X136274349Y-62178939D01*
X137200640Y-63105230D01*
X138055289Y-62250581D01*
X138773709Y-62250581D01*
X138891790Y-62509616D01*
X139208643Y-62637612D01*
X139544379Y-62701334D01*
X139886095Y-62698333D01*
X140220660Y-62628724D01*
X140508210Y-62509616D01*
X140626291Y-62250581D01*
X139700000Y-61324290D01*
X138773709Y-62250581D01*
X138055289Y-62250581D01*
X138126931Y-62178939D01*
X138008850Y-61919904D01*
X137691997Y-61791908D01*
X137356261Y-61728186D01*
X137014545Y-61731187D01*
X136679980Y-61800796D01*
X136392430Y-61919904D01*
X136274349Y-62178939D01*
X131597492Y-62178939D01*
X131585411Y-58230812D01*
X132313680Y-58230812D01*
X132313680Y-58700628D01*
X132405337Y-59161416D01*
X132585127Y-59595469D01*
X132846143Y-59986107D01*
X133178353Y-60318317D01*
X133568991Y-60579333D01*
X134003044Y-60759123D01*
X134463832Y-60850780D01*
X134933648Y-60850780D01*
X135141381Y-60809459D01*
X137963746Y-60809459D01*
X137966747Y-61151175D01*
X138036356Y-61485740D01*
X138155464Y-61773290D01*
X138414499Y-61891371D01*
X139340790Y-60965080D01*
X140059210Y-60965080D01*
X140985501Y-61891371D01*
X141244536Y-61773290D01*
X141372532Y-61456437D01*
X141436254Y-61120701D01*
X141433253Y-60778985D01*
X141363644Y-60444420D01*
X141244536Y-60156870D01*
X140985501Y-60038789D01*
X140059210Y-60965080D01*
X139340790Y-60965080D01*
X138414499Y-60038789D01*
X138155464Y-60156870D01*
X138027468Y-60473723D01*
X137963746Y-60809459D01*
X135141381Y-60809459D01*
X135394436Y-60759123D01*
X135828489Y-60579333D01*
X136219127Y-60318317D01*
X136551337Y-59986107D01*
X136756152Y-59679579D01*
X138773709Y-59679579D01*
X139700000Y-60605870D01*
X140626291Y-59679579D01*
X140508210Y-59420544D01*
X140191357Y-59292548D01*
X139855621Y-59228826D01*
X139513905Y-59231827D01*
X139179340Y-59301436D01*
X138891790Y-59420544D01*
X138773709Y-59679579D01*
X136756152Y-59679579D01*
X136812353Y-59595469D01*
X136992143Y-59161416D01*
X137083800Y-58700628D01*
X137083800Y-58230812D01*
X136992143Y-57770024D01*
X136812353Y-57335971D01*
X136551337Y-56945333D01*
X136219127Y-56613123D01*
X135828489Y-56352107D01*
X135394436Y-56172317D01*
X134933648Y-56080660D01*
X134463832Y-56080660D01*
X134003044Y-56172317D01*
X133568991Y-56352107D01*
X133178353Y-56613123D01*
X132846143Y-56945333D01*
X132585127Y-57335971D01*
X132405337Y-57770024D01*
X132313680Y-58230812D01*
X131585411Y-58230812D01*
X131572389Y-53975000D01*
X141554293Y-53975000D01*
X141452600Y-54486246D01*
G36*
X136092217Y-124811843D02*
G01*
X136376355Y-125001697D01*
X136692072Y-125132472D01*
X137027235Y-125199140D01*
X137368965Y-125199140D01*
X137704128Y-125132472D01*
X138019845Y-125001697D01*
X138303983Y-124811843D01*
X138488826Y-124627000D01*
X138585814Y-124627000D01*
X138352477Y-124860337D01*
X138162623Y-125144475D01*
X138031848Y-125460192D01*
X137965180Y-125795355D01*
X137965180Y-126137085D01*
X138031848Y-126472248D01*
X138045331Y-126504799D01*
X137738475Y-126811655D01*
X137704128Y-126797428D01*
X137368965Y-126730760D01*
X137027235Y-126730760D01*
X136692072Y-126797428D01*
X136376355Y-126928203D01*
X136092217Y-127118057D01*
X135850577Y-127359697D01*
X135660723Y-127643835D01*
X135529948Y-127959552D01*
X135463280Y-128294715D01*
X135463280Y-128636445D01*
X135529948Y-128971608D01*
X135660723Y-129287325D01*
X135850577Y-129571463D01*
X136092217Y-129813103D01*
X136376355Y-130002957D01*
X136692072Y-130133732D01*
X137027235Y-130200400D01*
X137368965Y-130200400D01*
X137704128Y-130133732D01*
X138019845Y-130002957D01*
X138303983Y-129813103D01*
X138358729Y-129758357D01*
X138673022Y-129758357D01*
X139700000Y-130785335D01*
X140591656Y-129893679D01*
X153020500Y-129893679D01*
X153020500Y-130106321D01*
X153061985Y-130314878D01*
X153143360Y-130511335D01*
X153261498Y-130688141D01*
X153411859Y-130838502D01*
X153588665Y-130956640D01*
X153785122Y-131038015D01*
X153993679Y-131079500D01*
X154065950Y-131079500D01*
X157212600Y-134226151D01*
X157212601Y-136460756D01*
X157161498Y-136511859D01*
X157043360Y-136688665D01*
X156961985Y-136885122D01*
X156920500Y-137093679D01*
X156920500Y-137306321D01*
X156961985Y-137514878D01*
X157043360Y-137711335D01*
X157161498Y-137888141D01*
X157311859Y-138038502D01*
X157488665Y-138156640D01*
X157685122Y-138238015D01*
X157893679Y-138279500D01*
X158106321Y-138279500D01*
X158314878Y-138238015D01*
X158511335Y-138156640D01*
X158688141Y-138038502D01*
X158838502Y-137888141D01*
X158956640Y-137711335D01*
X159038015Y-137514878D01*
X159079500Y-137306321D01*
X159079500Y-137093679D01*
X159038015Y-136885122D01*
X158956640Y-136688665D01*
X158838502Y-136511859D01*
X158787400Y-136460757D01*
X158787400Y-133938663D01*
X158791208Y-133900000D01*
X158787400Y-133861337D01*
X158787400Y-133861327D01*
X158776006Y-133745643D01*
X158730982Y-133597217D01*
X158657867Y-133460429D01*
X158657866Y-133460427D01*
X158584121Y-133370570D01*
X158559469Y-133340531D01*
X158529429Y-133315878D01*
X155179500Y-129965950D01*
X155179500Y-129893679D01*
X155138015Y-129685122D01*
X155056640Y-129488665D01*
X154938502Y-129311859D01*
X154788141Y-129161498D01*
X154611335Y-129043360D01*
X154414878Y-128961985D01*
X154206321Y-128920500D01*
X153993679Y-128920500D01*
X153785122Y-128961985D01*
X153588665Y-129043360D01*
X153411859Y-129161498D01*
X153261498Y-129311859D01*
X153143360Y-129488665D01*
X153061985Y-129685122D01*
X153020500Y-129893679D01*
X140591656Y-129893679D01*
X140726978Y-129758357D01*
X140619167Y-129483749D01*
X140312540Y-129332888D01*
X139982372Y-129244746D01*
X139641353Y-129222712D01*
X139302588Y-129267630D01*
X138979095Y-129377774D01*
X138780833Y-129483749D01*
X138673022Y-129758357D01*
X138358729Y-129758357D01*
X138545623Y-129571463D01*
X138735477Y-129287325D01*
X138866252Y-128971608D01*
X138932920Y-128636445D01*
X138932920Y-128294715D01*
X138866252Y-127959552D01*
X138852025Y-127925205D01*
X139157829Y-127619401D01*
X139193972Y-127634372D01*
X139529135Y-127701040D01*
X139870865Y-127701040D01*
X140206028Y-127634372D01*
X140521745Y-127503597D01*
X140805883Y-127313743D01*
X141047523Y-127072103D01*
X141237377Y-126787965D01*
X141368152Y-126472248D01*
X141434820Y-126137085D01*
X141434820Y-125795355D01*
X141368152Y-125460192D01*
X141237377Y-125144475D01*
X141047523Y-124860337D01*
X140814186Y-124627000D01*
X160573000Y-124627000D01*
X160573000Y-130800000D01*
X160575440Y-130824776D01*
X160582667Y-130848601D01*
X160594403Y-130870557D01*
X160610197Y-130889803D01*
X160629443Y-130905597D01*
X160651399Y-130917333D01*
X160675224Y-130924560D01*
X160700000Y-130927000D01*
X176473000Y-130927000D01*
X176473000Y-144701879D01*
X176334150Y-144494075D01*
X175799925Y-143959850D01*
X175171743Y-143540112D01*
X174473745Y-143250992D01*
X173732754Y-143103600D01*
X172977246Y-143103600D01*
X172236255Y-143250992D01*
X171538257Y-143540112D01*
X170910075Y-143959850D01*
X170375850Y-144494075D01*
X169956112Y-145122257D01*
X169666992Y-145820255D01*
X169596827Y-146173000D01*
X149046173Y-146173000D01*
X148976008Y-145820255D01*
X148686888Y-145122257D01*
X148267150Y-144494075D01*
X147732925Y-143959850D01*
X147260971Y-143644500D01*
X149836428Y-143644500D01*
X149836428Y-145295500D01*
X149848688Y-145419982D01*
X149884998Y-145539680D01*
X149943963Y-145649994D01*
X150023315Y-145746685D01*
X150120006Y-145826037D01*
X150230320Y-145885002D01*
X150350018Y-145921312D01*
X150474500Y-145933572D01*
X152125500Y-145933572D01*
X152249982Y-145921312D01*
X152369680Y-145885002D01*
X152479994Y-145826037D01*
X152576685Y-145746685D01*
X152656037Y-145649994D01*
X152715002Y-145539680D01*
X152751312Y-145419982D01*
X152763572Y-145295500D01*
X152763572Y-143644500D01*
X152751312Y-143520018D01*
X152715002Y-143400320D01*
X152656037Y-143290006D01*
X152576685Y-143193315D01*
X152479994Y-143113963D01*
X152369680Y-143054998D01*
X152249982Y-143018688D01*
X152125500Y-143006428D01*
X152111462Y-143006428D01*
X152131304Y-142940909D01*
X151300000Y-142109605D01*
X150468696Y-142940909D01*
X150488538Y-143006428D01*
X150474500Y-143006428D01*
X150350018Y-143018688D01*
X150230320Y-143054998D01*
X150120006Y-143113963D01*
X150023315Y-143193315D01*
X149943963Y-143290006D01*
X149884998Y-143400320D01*
X149848688Y-143520018D01*
X149836428Y-143644500D01*
X147260971Y-143644500D01*
X147104743Y-143540112D01*
X146406745Y-143250992D01*
X145665754Y-143103600D01*
X144910246Y-143103600D01*
X144169255Y-143250992D01*
X143471257Y-143540112D01*
X142843075Y-143959850D01*
X142308850Y-144494075D01*
X141889112Y-145122257D01*
X141599992Y-145820255D01*
X141529827Y-146173000D01*
X131627000Y-146173000D01*
X131627000Y-143231912D01*
X132313680Y-143231912D01*
X132313680Y-143701728D01*
X132405337Y-144162516D01*
X132585127Y-144596569D01*
X132846143Y-144987207D01*
X133178353Y-145319417D01*
X133568991Y-145580433D01*
X134003044Y-145760223D01*
X134463832Y-145851880D01*
X134933648Y-145851880D01*
X135394436Y-145760223D01*
X135828489Y-145580433D01*
X136219127Y-145319417D01*
X136551337Y-144987207D01*
X136812353Y-144596569D01*
X136992143Y-144162516D01*
X137083800Y-143701728D01*
X137083800Y-143231912D01*
X136992143Y-142771124D01*
X136812353Y-142337071D01*
X136551337Y-141946433D01*
X136219127Y-141614223D01*
X135828489Y-141353207D01*
X135394436Y-141173417D01*
X134933648Y-141081760D01*
X134463832Y-141081760D01*
X134003044Y-141173417D01*
X133568991Y-141353207D01*
X133178353Y-141614223D01*
X132846143Y-141946433D01*
X132585127Y-142337071D01*
X132405337Y-142771124D01*
X132313680Y-143231912D01*
X131627000Y-143231912D01*
X131627000Y-140794055D01*
X137965180Y-140794055D01*
X137965180Y-141135785D01*
X138031848Y-141470948D01*
X138162623Y-141786665D01*
X138352477Y-142070803D01*
X138594117Y-142312443D01*
X138878255Y-142502297D01*
X139193972Y-142633072D01*
X139529135Y-142699740D01*
X139870865Y-142699740D01*
X140206028Y-142633072D01*
X140521745Y-142502297D01*
X140805883Y-142312443D01*
X141047523Y-142070803D01*
X141095164Y-141999502D01*
X149834079Y-141999502D01*
X149875806Y-142284154D01*
X149972263Y-142555196D01*
X150042519Y-142686633D01*
X150289091Y-142761304D01*
X151120395Y-141930000D01*
X151479605Y-141930000D01*
X152310909Y-142761304D01*
X152557481Y-142686633D01*
X152680931Y-142426772D01*
X152751313Y-142147820D01*
X152765921Y-141860498D01*
X152724194Y-141575846D01*
X152627737Y-141304804D01*
X152557481Y-141173367D01*
X152310909Y-141098696D01*
X151479605Y-141930000D01*
X151120395Y-141930000D01*
X150289091Y-141098696D01*
X150042519Y-141173367D01*
X149919069Y-141433228D01*
X149848687Y-141712180D01*
X149834079Y-141999502D01*
X141095164Y-141999502D01*
X141237377Y-141786665D01*
X141368152Y-141470948D01*
X141434820Y-141135785D01*
X141434820Y-140919091D01*
X150468696Y-140919091D01*
X151300000Y-141750395D01*
X152131304Y-140919091D01*
X152056633Y-140672519D01*
X151796772Y-140549069D01*
X151517820Y-140478687D01*
X151230498Y-140464079D01*
X150945846Y-140505806D01*
X150674804Y-140602263D01*
X150543367Y-140672519D01*
X150468696Y-140919091D01*
X141434820Y-140919091D01*
X141434820Y-140794055D01*
X141368152Y-140458892D01*
X141237377Y-140143175D01*
X141047523Y-139859037D01*
X140805883Y-139617397D01*
X140521745Y-139427543D01*
X140206028Y-139296768D01*
X139870865Y-139230100D01*
X139529135Y-139230100D01*
X139193972Y-139296768D01*
X138878255Y-139427543D01*
X138594117Y-139617397D01*
X138352477Y-139859037D01*
X138162623Y-140143175D01*
X138031848Y-140458892D01*
X137965180Y-140794055D01*
X131627000Y-140794055D01*
X131627000Y-138294695D01*
X135463280Y-138294695D01*
X135463280Y-138636425D01*
X135529948Y-138971588D01*
X135660723Y-139287305D01*
X135850577Y-139571443D01*
X136092217Y-139813083D01*
X136376355Y-140002937D01*
X136692072Y-140133712D01*
X137027235Y-140200380D01*
X137368965Y-140200380D01*
X137704128Y-140133712D01*
X138019845Y-140002937D01*
X138303983Y-139813083D01*
X138545623Y-139571443D01*
X138735477Y-139287305D01*
X138866252Y-138971588D01*
X138932920Y-138636425D01*
X138932920Y-138294695D01*
X138866252Y-137959532D01*
X138735477Y-137643815D01*
X138545623Y-137359677D01*
X138358729Y-137172783D01*
X138673022Y-137172783D01*
X138780833Y-137447391D01*
X139087460Y-137598252D01*
X139417628Y-137686394D01*
X139758647Y-137708428D01*
X140097412Y-137663510D01*
X140420905Y-137553366D01*
X140619167Y-137447391D01*
X140726978Y-137172783D01*
X139700000Y-136145805D01*
X138673022Y-137172783D01*
X138358729Y-137172783D01*
X138303983Y-137118037D01*
X138019845Y-136928183D01*
X137704128Y-136797408D01*
X137368965Y-136730740D01*
X137027235Y-136730740D01*
X136692072Y-136797408D01*
X136376355Y-136928183D01*
X136092217Y-137118037D01*
X135850577Y-137359677D01*
X135660723Y-137643815D01*
X135529948Y-137959532D01*
X135463280Y-138294695D01*
X131627000Y-138294695D01*
X131627000Y-136024847D01*
X137957772Y-136024847D01*
X138002690Y-136363612D01*
X138112834Y-136687105D01*
X138218809Y-136885367D01*
X138493417Y-136993178D01*
X139520395Y-135966200D01*
X139879605Y-135966200D01*
X140906583Y-136993178D01*
X141181191Y-136885367D01*
X141332052Y-136578740D01*
X141420194Y-136248572D01*
X141442228Y-135907553D01*
X141397310Y-135568788D01*
X141287166Y-135245295D01*
X141181191Y-135047033D01*
X140906583Y-134939222D01*
X139879605Y-135966200D01*
X139520395Y-135966200D01*
X138493417Y-134939222D01*
X138218809Y-135047033D01*
X138067948Y-135353660D01*
X137979806Y-135683828D01*
X137957772Y-136024847D01*
X131627000Y-136024847D01*
X131627000Y-133293435D01*
X135463280Y-133293435D01*
X135463280Y-133635165D01*
X135529948Y-133970328D01*
X135660723Y-134286045D01*
X135850577Y-134570183D01*
X136092217Y-134811823D01*
X136376355Y-135001677D01*
X136692072Y-135132452D01*
X137027235Y-135199120D01*
X137368965Y-135199120D01*
X137704128Y-135132452D01*
X138019845Y-135001677D01*
X138303983Y-134811823D01*
X138356189Y-134759617D01*
X138673022Y-134759617D01*
X139700000Y-135786595D01*
X140726978Y-134759617D01*
X140619167Y-134485009D01*
X140312540Y-134334148D01*
X139982372Y-134246006D01*
X139641353Y-134223972D01*
X139302588Y-134268890D01*
X138979095Y-134379034D01*
X138780833Y-134485009D01*
X138673022Y-134759617D01*
X138356189Y-134759617D01*
X138545623Y-134570183D01*
X138735477Y-134286045D01*
X138866252Y-133970328D01*
X138932920Y-133635165D01*
X138932920Y-133293435D01*
X138866252Y-132958272D01*
X138735477Y-132642555D01*
X138545623Y-132358417D01*
X138358729Y-132171523D01*
X138673022Y-132171523D01*
X138780833Y-132446131D01*
X139087460Y-132596992D01*
X139417628Y-132685134D01*
X139758647Y-132707168D01*
X140097412Y-132662250D01*
X140420905Y-132552106D01*
X140619167Y-132446131D01*
X140726978Y-132171523D01*
X139700000Y-131144545D01*
X138673022Y-132171523D01*
X138358729Y-132171523D01*
X138303983Y-132116777D01*
X138019845Y-131926923D01*
X137704128Y-131796148D01*
X137368965Y-131729480D01*
X137027235Y-131729480D01*
X136692072Y-131796148D01*
X136376355Y-131926923D01*
X136092217Y-132116777D01*
X135850577Y-132358417D01*
X135660723Y-132642555D01*
X135529948Y-132958272D01*
X135463280Y-133293435D01*
X131627000Y-133293435D01*
X131627000Y-131023587D01*
X137957772Y-131023587D01*
X138002690Y-131362352D01*
X138112834Y-131685845D01*
X138218809Y-131884107D01*
X138493417Y-131991918D01*
X139520395Y-130964940D01*
X139879605Y-130964940D01*
X140906583Y-131991918D01*
X141181191Y-131884107D01*
X141332052Y-131577480D01*
X141420194Y-131247312D01*
X141442228Y-130906293D01*
X141397310Y-130567528D01*
X141287166Y-130244035D01*
X141181191Y-130045773D01*
X140906583Y-129937962D01*
X139879605Y-130964940D01*
X139520395Y-130964940D01*
X138493417Y-129937962D01*
X138218809Y-130045773D01*
X138067948Y-130352400D01*
X137979806Y-130682568D01*
X137957772Y-131023587D01*
X131627000Y-131023587D01*
X131627000Y-124627000D01*
X135907374Y-124627000D01*
X136092217Y-124811843D01*
G37*
X136092217Y-124811843D02*
X136376355Y-125001697D01*
X136692072Y-125132472D01*
X137027235Y-125199140D01*
X137368965Y-125199140D01*
X137704128Y-125132472D01*
X138019845Y-125001697D01*
X138303983Y-124811843D01*
X138488826Y-124627000D01*
X138585814Y-124627000D01*
X138352477Y-124860337D01*
X138162623Y-125144475D01*
X138031848Y-125460192D01*
X137965180Y-125795355D01*
X137965180Y-126137085D01*
X138031848Y-126472248D01*
X138045331Y-126504799D01*
X137738475Y-126811655D01*
X137704128Y-126797428D01*
X137368965Y-126730760D01*
X137027235Y-126730760D01*
X136692072Y-126797428D01*
X136376355Y-126928203D01*
X136092217Y-127118057D01*
X135850577Y-127359697D01*
X135660723Y-127643835D01*
X135529948Y-127959552D01*
X135463280Y-128294715D01*
X135463280Y-128636445D01*
X135529948Y-128971608D01*
X135660723Y-129287325D01*
X135850577Y-129571463D01*
X136092217Y-129813103D01*
X136376355Y-130002957D01*
X136692072Y-130133732D01*
X137027235Y-130200400D01*
X137368965Y-130200400D01*
X137704128Y-130133732D01*
X138019845Y-130002957D01*
X138303983Y-129813103D01*
X138358729Y-129758357D01*
X138673022Y-129758357D01*
X139700000Y-130785335D01*
X140591656Y-129893679D01*
X153020500Y-129893679D01*
X153020500Y-130106321D01*
X153061985Y-130314878D01*
X153143360Y-130511335D01*
X153261498Y-130688141D01*
X153411859Y-130838502D01*
X153588665Y-130956640D01*
X153785122Y-131038015D01*
X153993679Y-131079500D01*
X154065950Y-131079500D01*
X157212600Y-134226151D01*
X157212601Y-136460756D01*
X157161498Y-136511859D01*
X157043360Y-136688665D01*
X156961985Y-136885122D01*
X156920500Y-137093679D01*
X156920500Y-137306321D01*
X156961985Y-137514878D01*
X157043360Y-137711335D01*
X157161498Y-137888141D01*
X157311859Y-138038502D01*
X157488665Y-138156640D01*
X157685122Y-138238015D01*
X157893679Y-138279500D01*
X158106321Y-138279500D01*
X158314878Y-138238015D01*
X158511335Y-138156640D01*
X158688141Y-138038502D01*
X158838502Y-137888141D01*
X158956640Y-137711335D01*
X159038015Y-137514878D01*
X159079500Y-137306321D01*
X159079500Y-137093679D01*
X159038015Y-136885122D01*
X158956640Y-136688665D01*
X158838502Y-136511859D01*
X158787400Y-136460757D01*
X158787400Y-133938663D01*
X158791208Y-133900000D01*
X158787400Y-133861337D01*
X158787400Y-133861327D01*
X158776006Y-133745643D01*
X158730982Y-133597217D01*
X158657867Y-133460429D01*
X158657866Y-133460427D01*
X158584121Y-133370570D01*
X158559469Y-133340531D01*
X158529429Y-133315878D01*
X155179500Y-129965950D01*
X155179500Y-129893679D01*
X155138015Y-129685122D01*
X155056640Y-129488665D01*
X154938502Y-129311859D01*
X154788141Y-129161498D01*
X154611335Y-129043360D01*
X154414878Y-128961985D01*
X154206321Y-128920500D01*
X153993679Y-128920500D01*
X153785122Y-128961985D01*
X153588665Y-129043360D01*
X153411859Y-129161498D01*
X153261498Y-129311859D01*
X153143360Y-129488665D01*
X153061985Y-129685122D01*
X153020500Y-129893679D01*
X140591656Y-129893679D01*
X140726978Y-129758357D01*
X140619167Y-129483749D01*
X140312540Y-129332888D01*
X139982372Y-129244746D01*
X139641353Y-129222712D01*
X139302588Y-129267630D01*
X138979095Y-129377774D01*
X138780833Y-129483749D01*
X138673022Y-129758357D01*
X138358729Y-129758357D01*
X138545623Y-129571463D01*
X138735477Y-129287325D01*
X138866252Y-128971608D01*
X138932920Y-128636445D01*
X138932920Y-128294715D01*
X138866252Y-127959552D01*
X138852025Y-127925205D01*
X139157829Y-127619401D01*
X139193972Y-127634372D01*
X139529135Y-127701040D01*
X139870865Y-127701040D01*
X140206028Y-127634372D01*
X140521745Y-127503597D01*
X140805883Y-127313743D01*
X141047523Y-127072103D01*
X141237377Y-126787965D01*
X141368152Y-126472248D01*
X141434820Y-126137085D01*
X141434820Y-125795355D01*
X141368152Y-125460192D01*
X141237377Y-125144475D01*
X141047523Y-124860337D01*
X140814186Y-124627000D01*
X160573000Y-124627000D01*
X160573000Y-130800000D01*
X160575440Y-130824776D01*
X160582667Y-130848601D01*
X160594403Y-130870557D01*
X160610197Y-130889803D01*
X160629443Y-130905597D01*
X160651399Y-130917333D01*
X160675224Y-130924560D01*
X160700000Y-130927000D01*
X176473000Y-130927000D01*
X176473000Y-144701879D01*
X176334150Y-144494075D01*
X175799925Y-143959850D01*
X175171743Y-143540112D01*
X174473745Y-143250992D01*
X173732754Y-143103600D01*
X172977246Y-143103600D01*
X172236255Y-143250992D01*
X171538257Y-143540112D01*
X170910075Y-143959850D01*
X170375850Y-144494075D01*
X169956112Y-145122257D01*
X169666992Y-145820255D01*
X169596827Y-146173000D01*
X149046173Y-146173000D01*
X148976008Y-145820255D01*
X148686888Y-145122257D01*
X148267150Y-144494075D01*
X147732925Y-143959850D01*
X147260971Y-143644500D01*
X149836428Y-143644500D01*
X149836428Y-145295500D01*
X149848688Y-145419982D01*
X149884998Y-145539680D01*
X149943963Y-145649994D01*
X150023315Y-145746685D01*
X150120006Y-145826037D01*
X150230320Y-145885002D01*
X150350018Y-145921312D01*
X150474500Y-145933572D01*
X152125500Y-145933572D01*
X152249982Y-145921312D01*
X152369680Y-145885002D01*
X152479994Y-145826037D01*
X152576685Y-145746685D01*
X152656037Y-145649994D01*
X152715002Y-145539680D01*
X152751312Y-145419982D01*
X152763572Y-145295500D01*
X152763572Y-143644500D01*
X152751312Y-143520018D01*
X152715002Y-143400320D01*
X152656037Y-143290006D01*
X152576685Y-143193315D01*
X152479994Y-143113963D01*
X152369680Y-143054998D01*
X152249982Y-143018688D01*
X152125500Y-143006428D01*
X152111462Y-143006428D01*
X152131304Y-142940909D01*
X151300000Y-142109605D01*
X150468696Y-142940909D01*
X150488538Y-143006428D01*
X150474500Y-143006428D01*
X150350018Y-143018688D01*
X150230320Y-143054998D01*
X150120006Y-143113963D01*
X150023315Y-143193315D01*
X149943963Y-143290006D01*
X149884998Y-143400320D01*
X149848688Y-143520018D01*
X149836428Y-143644500D01*
X147260971Y-143644500D01*
X147104743Y-143540112D01*
X146406745Y-143250992D01*
X145665754Y-143103600D01*
X144910246Y-143103600D01*
X144169255Y-143250992D01*
X143471257Y-143540112D01*
X142843075Y-143959850D01*
X142308850Y-144494075D01*
X141889112Y-145122257D01*
X141599992Y-145820255D01*
X141529827Y-146173000D01*
X131627000Y-146173000D01*
X131627000Y-143231912D01*
X132313680Y-143231912D01*
X132313680Y-143701728D01*
X132405337Y-144162516D01*
X132585127Y-144596569D01*
X132846143Y-144987207D01*
X133178353Y-145319417D01*
X133568991Y-145580433D01*
X134003044Y-145760223D01*
X134463832Y-145851880D01*
X134933648Y-145851880D01*
X135394436Y-145760223D01*
X135828489Y-145580433D01*
X136219127Y-145319417D01*
X136551337Y-144987207D01*
X136812353Y-144596569D01*
X136992143Y-144162516D01*
X137083800Y-143701728D01*
X137083800Y-143231912D01*
X136992143Y-142771124D01*
X136812353Y-142337071D01*
X136551337Y-141946433D01*
X136219127Y-141614223D01*
X135828489Y-141353207D01*
X135394436Y-141173417D01*
X134933648Y-141081760D01*
X134463832Y-141081760D01*
X134003044Y-141173417D01*
X133568991Y-141353207D01*
X133178353Y-141614223D01*
X132846143Y-141946433D01*
X132585127Y-142337071D01*
X132405337Y-142771124D01*
X132313680Y-143231912D01*
X131627000Y-143231912D01*
X131627000Y-140794055D01*
X137965180Y-140794055D01*
X137965180Y-141135785D01*
X138031848Y-141470948D01*
X138162623Y-141786665D01*
X138352477Y-142070803D01*
X138594117Y-142312443D01*
X138878255Y-142502297D01*
X139193972Y-142633072D01*
X139529135Y-142699740D01*
X139870865Y-142699740D01*
X140206028Y-142633072D01*
X140521745Y-142502297D01*
X140805883Y-142312443D01*
X141047523Y-142070803D01*
X141095164Y-141999502D01*
X149834079Y-141999502D01*
X149875806Y-142284154D01*
X149972263Y-142555196D01*
X150042519Y-142686633D01*
X150289091Y-142761304D01*
X151120395Y-141930000D01*
X151479605Y-141930000D01*
X152310909Y-142761304D01*
X152557481Y-142686633D01*
X152680931Y-142426772D01*
X152751313Y-142147820D01*
X152765921Y-141860498D01*
X152724194Y-141575846D01*
X152627737Y-141304804D01*
X152557481Y-141173367D01*
X152310909Y-141098696D01*
X151479605Y-141930000D01*
X151120395Y-141930000D01*
X150289091Y-141098696D01*
X150042519Y-141173367D01*
X149919069Y-141433228D01*
X149848687Y-141712180D01*
X149834079Y-141999502D01*
X141095164Y-141999502D01*
X141237377Y-141786665D01*
X141368152Y-141470948D01*
X141434820Y-141135785D01*
X141434820Y-140919091D01*
X150468696Y-140919091D01*
X151300000Y-141750395D01*
X152131304Y-140919091D01*
X152056633Y-140672519D01*
X151796772Y-140549069D01*
X151517820Y-140478687D01*
X151230498Y-140464079D01*
X150945846Y-140505806D01*
X150674804Y-140602263D01*
X150543367Y-140672519D01*
X150468696Y-140919091D01*
X141434820Y-140919091D01*
X141434820Y-140794055D01*
X141368152Y-140458892D01*
X141237377Y-140143175D01*
X141047523Y-139859037D01*
X140805883Y-139617397D01*
X140521745Y-139427543D01*
X140206028Y-139296768D01*
X139870865Y-139230100D01*
X139529135Y-139230100D01*
X139193972Y-139296768D01*
X138878255Y-139427543D01*
X138594117Y-139617397D01*
X138352477Y-139859037D01*
X138162623Y-140143175D01*
X138031848Y-140458892D01*
X137965180Y-140794055D01*
X131627000Y-140794055D01*
X131627000Y-138294695D01*
X135463280Y-138294695D01*
X135463280Y-138636425D01*
X135529948Y-138971588D01*
X135660723Y-139287305D01*
X135850577Y-139571443D01*
X136092217Y-139813083D01*
X136376355Y-140002937D01*
X136692072Y-140133712D01*
X137027235Y-140200380D01*
X137368965Y-140200380D01*
X137704128Y-140133712D01*
X138019845Y-140002937D01*
X138303983Y-139813083D01*
X138545623Y-139571443D01*
X138735477Y-139287305D01*
X138866252Y-138971588D01*
X138932920Y-138636425D01*
X138932920Y-138294695D01*
X138866252Y-137959532D01*
X138735477Y-137643815D01*
X138545623Y-137359677D01*
X138358729Y-137172783D01*
X138673022Y-137172783D01*
X138780833Y-137447391D01*
X139087460Y-137598252D01*
X139417628Y-137686394D01*
X139758647Y-137708428D01*
X140097412Y-137663510D01*
X140420905Y-137553366D01*
X140619167Y-137447391D01*
X140726978Y-137172783D01*
X139700000Y-136145805D01*
X138673022Y-137172783D01*
X138358729Y-137172783D01*
X138303983Y-137118037D01*
X138019845Y-136928183D01*
X137704128Y-136797408D01*
X137368965Y-136730740D01*
X137027235Y-136730740D01*
X136692072Y-136797408D01*
X136376355Y-136928183D01*
X136092217Y-137118037D01*
X135850577Y-137359677D01*
X135660723Y-137643815D01*
X135529948Y-137959532D01*
X135463280Y-138294695D01*
X131627000Y-138294695D01*
X131627000Y-136024847D01*
X137957772Y-136024847D01*
X138002690Y-136363612D01*
X138112834Y-136687105D01*
X138218809Y-136885367D01*
X138493417Y-136993178D01*
X139520395Y-135966200D01*
X139879605Y-135966200D01*
X140906583Y-136993178D01*
X141181191Y-136885367D01*
X141332052Y-136578740D01*
X141420194Y-136248572D01*
X141442228Y-135907553D01*
X141397310Y-135568788D01*
X141287166Y-135245295D01*
X141181191Y-135047033D01*
X140906583Y-134939222D01*
X139879605Y-135966200D01*
X139520395Y-135966200D01*
X138493417Y-134939222D01*
X138218809Y-135047033D01*
X138067948Y-135353660D01*
X137979806Y-135683828D01*
X137957772Y-136024847D01*
X131627000Y-136024847D01*
X131627000Y-133293435D01*
X135463280Y-133293435D01*
X135463280Y-133635165D01*
X135529948Y-133970328D01*
X135660723Y-134286045D01*
X135850577Y-134570183D01*
X136092217Y-134811823D01*
X136376355Y-135001677D01*
X136692072Y-135132452D01*
X137027235Y-135199120D01*
X137368965Y-135199120D01*
X137704128Y-135132452D01*
X138019845Y-135001677D01*
X138303983Y-134811823D01*
X138356189Y-134759617D01*
X138673022Y-134759617D01*
X139700000Y-135786595D01*
X140726978Y-134759617D01*
X140619167Y-134485009D01*
X140312540Y-134334148D01*
X139982372Y-134246006D01*
X139641353Y-134223972D01*
X139302588Y-134268890D01*
X138979095Y-134379034D01*
X138780833Y-134485009D01*
X138673022Y-134759617D01*
X138356189Y-134759617D01*
X138545623Y-134570183D01*
X138735477Y-134286045D01*
X138866252Y-133970328D01*
X138932920Y-133635165D01*
X138932920Y-133293435D01*
X138866252Y-132958272D01*
X138735477Y-132642555D01*
X138545623Y-132358417D01*
X138358729Y-132171523D01*
X138673022Y-132171523D01*
X138780833Y-132446131D01*
X139087460Y-132596992D01*
X139417628Y-132685134D01*
X139758647Y-132707168D01*
X140097412Y-132662250D01*
X140420905Y-132552106D01*
X140619167Y-132446131D01*
X140726978Y-132171523D01*
X139700000Y-131144545D01*
X138673022Y-132171523D01*
X138358729Y-132171523D01*
X138303983Y-132116777D01*
X138019845Y-131926923D01*
X137704128Y-131796148D01*
X137368965Y-131729480D01*
X137027235Y-131729480D01*
X136692072Y-131796148D01*
X136376355Y-131926923D01*
X136092217Y-132116777D01*
X135850577Y-132358417D01*
X135660723Y-132642555D01*
X135529948Y-132958272D01*
X135463280Y-133293435D01*
X131627000Y-133293435D01*
X131627000Y-131023587D01*
X137957772Y-131023587D01*
X138002690Y-131362352D01*
X138112834Y-131685845D01*
X138218809Y-131884107D01*
X138493417Y-131991918D01*
X139520395Y-130964940D01*
X139879605Y-130964940D01*
X140906583Y-131991918D01*
X141181191Y-131884107D01*
X141332052Y-131577480D01*
X141420194Y-131247312D01*
X141442228Y-130906293D01*
X141397310Y-130567528D01*
X141287166Y-130244035D01*
X141181191Y-130045773D01*
X140906583Y-129937962D01*
X139879605Y-130964940D01*
X139520395Y-130964940D01*
X138493417Y-129937962D01*
X138218809Y-130045773D01*
X138067948Y-130352400D01*
X137979806Y-130682568D01*
X137957772Y-131023587D01*
X131627000Y-131023587D01*
X131627000Y-124627000D01*
X135907374Y-124627000D01*
X136092217Y-124811843D01*
M02*
