M48
; DRILL file {KiCad (5.1.5)-3} date 30.08.2021 19:38:36
; FORMAT={-:-/ absolute / inch / decimal}
; #@! TF.CreationDate,2021-08-30T19:38:36+02:00
; #@! TF.GenerationSoftware,Kicad,Pcbnew,(5.1.5)-3
; #@! TF.FileFunction,Plated,1,2,PTH
FMAT,2
INCH
T1C0.0250
T2C0.0320
T3C0.0354
T4C0.0400
T5C0.0591
T6C0.0700
T7C0.1260
T8C0.1300
%
G90
G05
T1
X5.57Y-5.09
X5.725Y-4.89
X5.876Y-3.456
X5.895Y-5.325
X5.9Y-4.85
X6.05Y-5.13
X6.06Y-2.395
X6.075Y-3.975
X6.075Y-4.575
X6.1Y-4.35
X6.1Y-5.02
X6.125Y-2.3
X6.175Y-4.475
X6.195Y-2.395
X6.2Y-3.8
X6.2Y-4.045
X6.2Y-4.875
X6.225Y-4.65
X6.265Y-2.45
X6.28Y-3.365
X6.28Y-4.34
X6.31Y-4.54
X6.315Y-4.375
X6.35Y-3.18
X6.365Y-2.805
X6.4Y-3.775
X6.425Y-3.95
X6.435Y-2.75
X6.455Y-3.15
X6.455Y-4.1
X6.46Y-3.46
X6.5Y-4.22
X6.5Y-4.875
X6.505Y-4.41
X6.55Y-3.85
X6.55Y-4.675
X6.575Y-3.245
X6.575Y-4.415
X6.645Y-3.005
X6.65Y-3.525
X6.65Y-4.05
X6.695Y-3.04
X6.695Y-4.515
X6.725Y-3.31
X6.77Y-4.325
X6.775Y-4.515
X6.785Y-3.34
X6.8Y-2.45
X6.83Y-4.385
X6.865Y-3.315
X6.93Y-3.075
T2
X5.68Y-5.51
X5.78Y-5.51
T3
X6.755Y-2.755
X6.755Y-2.855
X6.755Y-2.955
X6.855Y-2.755
X6.855Y-2.855
X6.855Y-2.955
T4
X6.2Y-5.1875
X6.2Y-5.2875
X6.2Y-5.3875
X6.2Y-5.4875
X6.3Y-5.2125
X6.3Y-5.3125
X6.3Y-5.4125
X6.3Y-5.5125
X6.7098Y-5.089
X6.7098Y-5.189
X6.7098Y-5.511
X6.7098Y-5.611
T5
X5.4015Y-2.6955
X5.4015Y-2.8923
X5.4015Y-3.0892
X5.4015Y-3.286
X5.4015Y-3.4829
X5.4015Y-3.6797
X5.4015Y-3.8766
X5.4015Y-4.0734
X5.4015Y-4.2703
X5.4015Y-4.4671
X5.4015Y-4.664
X5.4015Y-4.8608
X5.4015Y-5.0577
X5.4015Y-5.2545
X5.4015Y-5.4514
X5.4016Y-2.4986
X5.5Y-2.4002
X5.5Y-2.5971
X5.5Y-2.7939
X5.5Y-2.9908
X5.5Y-3.1876
X5.5Y-3.3845
X5.5Y-3.5813
X5.5Y-3.7782
X5.5Y-3.975
X5.5Y-4.1719
X5.5Y-4.3687
X5.5Y-4.5656
X5.5Y-4.7624
X5.5Y-4.9593
X5.5Y-5.1561
X5.5Y-5.353
X5.5Y-5.5498
T6
X6.43Y-5.0451
X6.43Y-5.6549
T7
X6.825Y-5.785
X5.72Y-5.785
X5.72Y-2.16
X6.825Y-2.16
X5.3031Y-2.3018
X5.3031Y-5.6483
T8
X6.55Y-5.125
X6.55Y-5.575
T0
M30
