M48
; DRILL file {KiCad (5.1.5)-3} date 12.01.2022 20:14:30
; FORMAT={-:-/ absolute / inch / decimal}
; #@! TF.CreationDate,2022-01-12T20:14:30+01:00
; #@! TF.GenerationSoftware,Kicad,Pcbnew,(5.1.5)-3
; #@! TF.FileFunction,Plated,1,2,PTH
FMAT,2
INCH
T1C0.0250
T2C0.0320
T3C0.0354
T4C0.0591
T5C0.1260
%
G90
G05
T1
X5.5709Y-3.878
X5.5748Y-4.0709
X5.5787Y-2.5
X5.5827Y-3.4843
X5.5827Y-3.6811
X5.5866Y-2.6969
X5.5906Y-2.8937
X5.622Y-5.3976
X5.7717Y-5.1693
X5.8307Y-4.6772
X5.8307Y-5.0354
X5.9134Y-3.2835
X5.9134Y-3.3346
X5.9134Y-3.3858
X5.9685Y-3.4409
X6.0039Y-5.3386
X6.0118Y-4.685
X6.0669Y-5.1181
X6.1457Y-5.5433
X6.1535Y-2.311
X6.1535Y-2.4961
X6.1535Y-2.8937
X6.1535Y-3.0728
X6.1535Y-3.5039
X6.1535Y-3.6732
X6.1535Y-3.878
X6.1535Y-4.0748
X6.1614Y-5.0394
X6.2205Y-5.4016
X6.2677Y-5.6102
X6.2756Y-5.3898
X6.3031Y-4.7677
X6.3031Y-4.9567
X6.3228Y-4.6299
X6.3583Y-2.7244
X6.3587Y-3.365
X6.3622Y-4.5945
X6.3898Y-2.6811
X6.4134Y-4.7559
X6.4331Y-2.6378
X6.4685Y-2.6024
X6.5197Y-4.8543
X6.5387Y-3.46
X6.5433Y-3.0
X6.5512Y-3.6181
X6.5512Y-3.815
X6.563Y-4.5945
X6.5945Y-4.6299
X6.5984Y-3.4016
X6.6063Y-3.2165
X6.6457Y-3.2638
X6.7402Y-3.0866
X6.7756Y-4.9409
X6.7913Y-3.0827
X6.7933Y-3.5157
X6.7992Y-5.3465
X6.8031Y-5.0472
X6.8268Y-3.2677
X6.8268Y-3.4094
X6.8425Y-5.4646
X6.8543Y-3.063
X6.8898Y-4.9409
X6.9055Y-4.9882
X6.9055Y-5.4134
T2
X5.9567Y-5.5878
X5.9567Y-5.6878
T3
X6.755Y-2.755
X6.755Y-2.855
X6.755Y-2.955
X6.855Y-2.755
X6.855Y-2.855
X6.855Y-2.955
T4
X5.4015Y-2.6955
X5.4015Y-2.8923
X5.4015Y-3.0892
X5.4015Y-3.286
X5.4015Y-3.4829
X5.4015Y-3.6797
X5.4015Y-3.8766
X5.4015Y-4.0734
X5.4015Y-4.2703
X5.4015Y-4.4671
X5.4015Y-4.664
X5.4015Y-4.8608
X5.4015Y-5.0577
X5.4015Y-5.2545
X5.4015Y-5.4514
X5.4016Y-2.4986
X5.5Y-2.4002
X5.5Y-2.5971
X5.5Y-2.7939
X5.5Y-2.9908
X5.5Y-3.1876
X5.5Y-3.3845
X5.5Y-3.5813
X5.5Y-3.7782
X5.5Y-3.975
X5.5Y-4.1719
X5.5Y-4.3687
X5.5Y-4.5656
X5.5Y-4.7624
X5.5Y-4.9593
X5.5Y-5.1561
X5.5Y-5.353
X5.5Y-5.5498
T5
X5.3031Y-2.3018
X5.3031Y-5.6483
X6.825Y-5.785
X6.825Y-2.16
X5.72Y-2.16
X5.72Y-5.785
T0
M30
