G04 #@! TF.GenerationSoftware,KiCad,Pcbnew,(5.1.5)-3*
G04 #@! TF.CreationDate,2021-08-30T19:38:34+02:00*
G04 #@! TF.ProjectId,gbm8,67626d38-2e6b-4696-9361-645f70636258,0424 - A*
G04 #@! TF.SameCoordinates,Original*
G04 #@! TF.FileFunction,Legend,Bot*
G04 #@! TF.FilePolarity,Positive*
%FSLAX46Y46*%
G04 Gerber Fmt 4.6, Leading zero omitted, Abs format (unit mm)*
G04 Created by KiCad (PCBNEW (5.1.5)-3) date 2021-08-30 19:38:34*
%MOMM*%
%LPD*%
G04 APERTURE LIST*
%ADD10C,0.127000*%
%ADD11C,6.908800*%
%ADD12R,2.159000X2.159000*%
%ADD13C,2.159000*%
%ADD14R,2.506980X2.506980*%
%ADD15C,2.707640*%
%ADD16C,4.008120*%
%ADD17C,4.358640*%
%ADD18R,2.032000X2.032000*%
%ADD19C,2.032000*%
%ADD20C,3.048000*%
G04 APERTURE END LIST*
D10*
X144526000Y-101473000D02*
X143764000Y-101473000D01*
X144145000Y-101854000D02*
X144145000Y-101473000D01*
X144526000Y-100584000D02*
X143764000Y-100584000D01*
X144145000Y-100584000D02*
X144145000Y-100203000D01*
X144145000Y-101473000D02*
X144526000Y-100584000D01*
X143764000Y-100584000D02*
X144145000Y-101473000D01*
X142621000Y-101981000D02*
X142621000Y-99949000D01*
X145669000Y-101981000D02*
X145669000Y-99949000D01*
X145796000Y-99949000D02*
X145796000Y-101981000D01*
X148844000Y-99949000D02*
X148844000Y-101981000D01*
X147701000Y-101346000D02*
X147320000Y-100457000D01*
X147320000Y-100457000D02*
X146939000Y-101346000D01*
X147320000Y-101346000D02*
X147320000Y-101727000D01*
X146939000Y-101346000D02*
X147701000Y-101346000D01*
X147320000Y-100076000D02*
X147320000Y-100457000D01*
X146939000Y-100457000D02*
X147701000Y-100457000D01*
X149606000Y-94869000D02*
X149606000Y-96901000D01*
X152654000Y-94869000D02*
X152654000Y-96901000D01*
X151511000Y-96266000D02*
X151130000Y-95377000D01*
X151130000Y-95377000D02*
X150749000Y-96266000D01*
X151130000Y-96266000D02*
X151130000Y-96647000D01*
X150749000Y-96266000D02*
X151511000Y-96266000D01*
X151130000Y-94996000D02*
X151130000Y-95377000D01*
X150749000Y-95377000D02*
X151511000Y-95377000D01*
X154686000Y-96393000D02*
X153924000Y-96393000D01*
X154305000Y-96774000D02*
X154305000Y-96393000D01*
X154686000Y-95504000D02*
X153924000Y-95504000D01*
X154305000Y-95504000D02*
X154305000Y-95123000D01*
X154305000Y-96393000D02*
X154686000Y-95504000D01*
X153924000Y-95504000D02*
X154305000Y-96393000D01*
X152781000Y-96901000D02*
X152781000Y-94869000D01*
X155829000Y-96901000D02*
X155829000Y-94869000D01*
X144526000Y-91313000D02*
X143764000Y-91313000D01*
X144145000Y-91694000D02*
X144145000Y-91313000D01*
X144526000Y-90424000D02*
X143764000Y-90424000D01*
X144145000Y-90424000D02*
X144145000Y-90043000D01*
X144145000Y-91313000D02*
X144526000Y-90424000D01*
X143764000Y-90424000D02*
X144145000Y-91313000D01*
X142621000Y-91821000D02*
X142621000Y-89789000D01*
X145669000Y-91821000D02*
X145669000Y-89789000D01*
X145796000Y-89789000D02*
X145796000Y-91821000D01*
X148844000Y-89789000D02*
X148844000Y-91821000D01*
X147701000Y-91186000D02*
X147320000Y-90297000D01*
X147320000Y-90297000D02*
X146939000Y-91186000D01*
X147320000Y-91186000D02*
X147320000Y-91567000D01*
X146939000Y-91186000D02*
X147701000Y-91186000D01*
X147320000Y-89916000D02*
X147320000Y-90297000D01*
X146939000Y-90297000D02*
X147701000Y-90297000D01*
X150749000Y-85217000D02*
X151511000Y-85217000D01*
X151130000Y-84836000D02*
X151130000Y-85217000D01*
X150749000Y-86106000D02*
X151511000Y-86106000D01*
X151130000Y-86106000D02*
X151130000Y-86487000D01*
X151130000Y-85217000D02*
X150749000Y-86106000D01*
X151511000Y-86106000D02*
X151130000Y-85217000D01*
X152654000Y-84709000D02*
X152654000Y-86741000D01*
X149606000Y-84709000D02*
X149606000Y-86741000D01*
X154686000Y-86233000D02*
X153924000Y-86233000D01*
X154305000Y-86614000D02*
X154305000Y-86233000D01*
X154686000Y-85344000D02*
X153924000Y-85344000D01*
X154305000Y-85344000D02*
X154305000Y-84963000D01*
X154305000Y-86233000D02*
X154686000Y-85344000D01*
X153924000Y-85344000D02*
X154305000Y-86233000D01*
X152781000Y-86741000D02*
X152781000Y-84709000D01*
X155829000Y-86741000D02*
X155829000Y-84709000D01*
X144526000Y-81153000D02*
X143764000Y-81153000D01*
X144145000Y-81534000D02*
X144145000Y-81153000D01*
X144526000Y-80264000D02*
X143764000Y-80264000D01*
X144145000Y-80264000D02*
X144145000Y-79883000D01*
X144145000Y-81153000D02*
X144526000Y-80264000D01*
X143764000Y-80264000D02*
X144145000Y-81153000D01*
X142621000Y-81661000D02*
X142621000Y-79629000D01*
X145669000Y-81661000D02*
X145669000Y-79629000D01*
X145796000Y-79629000D02*
X145796000Y-81661000D01*
X148844000Y-79629000D02*
X148844000Y-81661000D01*
X147701000Y-81026000D02*
X147320000Y-80137000D01*
X147320000Y-80137000D02*
X146939000Y-81026000D01*
X147320000Y-81026000D02*
X147320000Y-81407000D01*
X146939000Y-81026000D02*
X147701000Y-81026000D01*
X147320000Y-79756000D02*
X147320000Y-80137000D01*
X146939000Y-80137000D02*
X147701000Y-80137000D01*
X149606000Y-75819000D02*
X149606000Y-77851000D01*
X152654000Y-75819000D02*
X152654000Y-77851000D01*
X151511000Y-77216000D02*
X151130000Y-76327000D01*
X151130000Y-76327000D02*
X150749000Y-77216000D01*
X151130000Y-77216000D02*
X151130000Y-77597000D01*
X150749000Y-77216000D02*
X151511000Y-77216000D01*
X151130000Y-75946000D02*
X151130000Y-76327000D01*
X150749000Y-76327000D02*
X151511000Y-76327000D01*
X154686000Y-77343000D02*
X153924000Y-77343000D01*
X154305000Y-77724000D02*
X154305000Y-77343000D01*
X154686000Y-76454000D02*
X153924000Y-76454000D01*
X154305000Y-76454000D02*
X154305000Y-76073000D01*
X154305000Y-77343000D02*
X154686000Y-76454000D01*
X153924000Y-76454000D02*
X154305000Y-77343000D01*
X152781000Y-77851000D02*
X152781000Y-75819000D01*
X155829000Y-77851000D02*
X155829000Y-75819000D01*
X144526000Y-71628000D02*
X143764000Y-71628000D01*
X144145000Y-72009000D02*
X144145000Y-71628000D01*
X144526000Y-70739000D02*
X143764000Y-70739000D01*
X144145000Y-70739000D02*
X144145000Y-70358000D01*
X144145000Y-71628000D02*
X144526000Y-70739000D01*
X143764000Y-70739000D02*
X144145000Y-71628000D01*
X142621000Y-72136000D02*
X142621000Y-70104000D01*
X145669000Y-72136000D02*
X145669000Y-70104000D01*
X145796000Y-70104000D02*
X145796000Y-72136000D01*
X148844000Y-70104000D02*
X148844000Y-72136000D01*
X147701000Y-71501000D02*
X147320000Y-70612000D01*
X147320000Y-70612000D02*
X146939000Y-71501000D01*
X147320000Y-71501000D02*
X147320000Y-71882000D01*
X146939000Y-71501000D02*
X147701000Y-71501000D01*
X147320000Y-70231000D02*
X147320000Y-70612000D01*
X146939000Y-70612000D02*
X147701000Y-70612000D01*
X149606000Y-66294000D02*
X149606000Y-68326000D01*
X152654000Y-66294000D02*
X152654000Y-68326000D01*
X151511000Y-67691000D02*
X151130000Y-66802000D01*
X151130000Y-66802000D02*
X150749000Y-67691000D01*
X151130000Y-67691000D02*
X151130000Y-68072000D01*
X150749000Y-67691000D02*
X151511000Y-67691000D01*
X151130000Y-66421000D02*
X151130000Y-66802000D01*
X150749000Y-66802000D02*
X151511000Y-66802000D01*
X155829000Y-68326000D02*
X155829000Y-66294000D01*
X152781000Y-68326000D02*
X152781000Y-66294000D01*
X153924000Y-66929000D02*
X154305000Y-67818000D01*
X154305000Y-67818000D02*
X154686000Y-66929000D01*
X154305000Y-66929000D02*
X154305000Y-66548000D01*
X154686000Y-66929000D02*
X153924000Y-66929000D01*
X154305000Y-68199000D02*
X154305000Y-67818000D01*
X154686000Y-67818000D02*
X153924000Y-67818000D01*
%LPC*%
D11*
X145288000Y-54864000D03*
X173355000Y-54864000D03*
X145288000Y-146939000D03*
X173355000Y-146939000D03*
D12*
X144272000Y-139954000D03*
D13*
X146812000Y-139954000D03*
D14*
X144145000Y-102963980D03*
X144145000Y-98966020D03*
X147320000Y-102963980D03*
X147320000Y-98966020D03*
X151130000Y-97883980D03*
X151130000Y-93886020D03*
X154305000Y-97883980D03*
X154305000Y-93886020D03*
X144145000Y-92803980D03*
X144145000Y-88806020D03*
X147320000Y-92803980D03*
X147320000Y-88806020D03*
X151130000Y-83726020D03*
X151130000Y-87723980D03*
X154305000Y-87723980D03*
X154305000Y-83726020D03*
X144145000Y-82643980D03*
X144145000Y-78646020D03*
X147320000Y-82643980D03*
X147320000Y-78646020D03*
X151130000Y-78833980D03*
X151130000Y-74836020D03*
X154305000Y-78833980D03*
X154305000Y-74836020D03*
X144145000Y-73118980D03*
X144145000Y-69121020D03*
X147320000Y-73118980D03*
X147320000Y-69121020D03*
X151130000Y-69308980D03*
X151130000Y-65311020D03*
X154305000Y-65311020D03*
X154305000Y-69308980D03*
D15*
X139700000Y-60965080D03*
X139700000Y-140964920D03*
D16*
X134698740Y-143466820D03*
D15*
X137200640Y-63464440D03*
X137198100Y-103464360D03*
X137198100Y-108465620D03*
X137198100Y-118465600D03*
X137198100Y-113464340D03*
X137198100Y-133464300D03*
X137198100Y-138465560D03*
X137198100Y-128465580D03*
X137198100Y-123464320D03*
X137198100Y-83464400D03*
X137198100Y-88465660D03*
X137198100Y-98465640D03*
X137198100Y-93464380D03*
X137198100Y-73464420D03*
X137198100Y-78465680D03*
X137198100Y-68465700D03*
X139700000Y-65966340D03*
X139700000Y-75966320D03*
X139700000Y-70965060D03*
X139700000Y-90965020D03*
X139700000Y-95966280D03*
X139700000Y-85966300D03*
X139700000Y-80965040D03*
X139700000Y-120964960D03*
X139700000Y-125966220D03*
X139700000Y-135966200D03*
X139700000Y-130964940D03*
X139700000Y-110964980D03*
X139700000Y-115966240D03*
X139700000Y-105966260D03*
X139700000Y-100965000D03*
D16*
X134698740Y-58465720D03*
D17*
X166370000Y-130175000D03*
X166370000Y-141605000D03*
D18*
X160020000Y-140017500D03*
D19*
X157480000Y-139382500D03*
X160020000Y-137477500D03*
X157480000Y-136842500D03*
X160020000Y-134937500D03*
X157480000Y-134302500D03*
X160020000Y-132397500D03*
D20*
X163322000Y-128145540D03*
X163322000Y-143634460D03*
D19*
X170428920Y-139979400D03*
X170428920Y-131800600D03*
X170428920Y-142519400D03*
X170428920Y-129260600D03*
X157480000Y-131762500D03*
D18*
X174117000Y-75057000D03*
D19*
X171577000Y-75057000D03*
X174117000Y-72517000D03*
X171577000Y-72517000D03*
X174117000Y-69977000D03*
X171577000Y-69977000D03*
M02*
