G04 #@! TF.GenerationSoftware,KiCad,Pcbnew,(5.1.5)-3*
G04 #@! TF.CreationDate,2022-01-12T20:14:22+01:00*
G04 #@! TF.ProjectId,gbm8,67626d38-2e6b-4696-9361-645f70636258,0424 - A*
G04 #@! TF.SameCoordinates,Original*
G04 #@! TF.FileFunction,Soldermask,Top*
G04 #@! TF.FilePolarity,Negative*
%FSLAX46Y46*%
G04 Gerber Fmt 4.6, Leading zero omitted, Abs format (unit mm)*
G04 Created by KiCad (PCBNEW (5.1.5)-3) date 2022-01-12 20:14:22*
%MOMM*%
%LPD*%
G04 APERTURE LIST*
%ADD10C,0.150000*%
G04 APERTURE END LIST*
D10*
G36*
X174362610Y-143617350D02*
G01*
X174991270Y-143877750D01*
X174991272Y-143877751D01*
X175133676Y-143972903D01*
X175557051Y-144255792D01*
X176038208Y-144736949D01*
X176229658Y-145023475D01*
X176376204Y-145242796D01*
X176416250Y-145302730D01*
X176676650Y-145931390D01*
X176809400Y-146598770D01*
X176809400Y-147279230D01*
X176676650Y-147946610D01*
X176416250Y-148575270D01*
X176038208Y-149141051D01*
X175557051Y-149622208D01*
X175133676Y-149905097D01*
X174991272Y-150000249D01*
X174991271Y-150000250D01*
X174991270Y-150000250D01*
X174362610Y-150260650D01*
X173695230Y-150393400D01*
X173014770Y-150393400D01*
X172347390Y-150260650D01*
X171718730Y-150000250D01*
X171718729Y-150000250D01*
X171718728Y-150000249D01*
X171576324Y-149905097D01*
X171152949Y-149622208D01*
X170671792Y-149141051D01*
X170293750Y-148575270D01*
X170033350Y-147946610D01*
X169900600Y-147279230D01*
X169900600Y-146598770D01*
X170033350Y-145931390D01*
X170293750Y-145302730D01*
X170333797Y-145242796D01*
X170480342Y-145023475D01*
X170671792Y-144736949D01*
X171152949Y-144255792D01*
X171576324Y-143972903D01*
X171718728Y-143877751D01*
X171718730Y-143877750D01*
X172347390Y-143617350D01*
X173014770Y-143484600D01*
X173695230Y-143484600D01*
X174362610Y-143617350D01*
G37*
G36*
X146295610Y-143617350D02*
G01*
X146924270Y-143877750D01*
X146924272Y-143877751D01*
X147066676Y-143972903D01*
X147490051Y-144255792D01*
X147971208Y-144736949D01*
X148162658Y-145023475D01*
X148309204Y-145242796D01*
X148349250Y-145302730D01*
X148609650Y-145931390D01*
X148742400Y-146598770D01*
X148742400Y-147279230D01*
X148609650Y-147946610D01*
X148349250Y-148575270D01*
X147971208Y-149141051D01*
X147490051Y-149622208D01*
X147066676Y-149905097D01*
X146924272Y-150000249D01*
X146924271Y-150000250D01*
X146924270Y-150000250D01*
X146295610Y-150260650D01*
X145628230Y-150393400D01*
X144947770Y-150393400D01*
X144280390Y-150260650D01*
X143651730Y-150000250D01*
X143651729Y-150000250D01*
X143651728Y-150000249D01*
X143509324Y-149905097D01*
X143085949Y-149622208D01*
X142604792Y-149141051D01*
X142226750Y-148575270D01*
X141966350Y-147946610D01*
X141833600Y-147279230D01*
X141833600Y-146598770D01*
X141966350Y-145931390D01*
X142226750Y-145302730D01*
X142266797Y-145242796D01*
X142413342Y-145023475D01*
X142604792Y-144736949D01*
X143085949Y-144255792D01*
X143509324Y-143972903D01*
X143651728Y-143877751D01*
X143651730Y-143877750D01*
X144280390Y-143617350D01*
X144947770Y-143484600D01*
X145628230Y-143484600D01*
X146295610Y-143617350D01*
G37*
G36*
X160978000Y-146465500D02*
G01*
X157422000Y-146465500D01*
X157422000Y-144306500D01*
X160978000Y-144306500D01*
X160978000Y-146465500D01*
G37*
G36*
X168852000Y-146402000D02*
G01*
X162248000Y-146402000D01*
X162248000Y-139798000D01*
X168852000Y-139798000D01*
X168852000Y-146402000D01*
G37*
G36*
X152379500Y-145549500D02*
G01*
X150220500Y-145549500D01*
X150220500Y-143390500D01*
X152379500Y-143390500D01*
X152379500Y-145549500D01*
G37*
G36*
X135283302Y-141539774D02*
G01*
X135648017Y-141690844D01*
X135648018Y-141690845D01*
X135976254Y-141910165D01*
X136255395Y-142189306D01*
X136307117Y-142266714D01*
X136474716Y-142517543D01*
X136625786Y-142882258D01*
X136702800Y-143269436D01*
X136702800Y-143664204D01*
X136625786Y-144051382D01*
X136474716Y-144416097D01*
X136474715Y-144416098D01*
X136255395Y-144744334D01*
X135976254Y-145023475D01*
X135811021Y-145133880D01*
X135648017Y-145242796D01*
X135283302Y-145393866D01*
X134896124Y-145470880D01*
X134501356Y-145470880D01*
X134114178Y-145393866D01*
X133749463Y-145242796D01*
X133586459Y-145133880D01*
X133421226Y-145023475D01*
X133142085Y-144744334D01*
X132922765Y-144416098D01*
X132922764Y-144416097D01*
X132771694Y-144051382D01*
X132694680Y-143664204D01*
X132694680Y-143269436D01*
X132771694Y-142882258D01*
X132922764Y-142517543D01*
X133090363Y-142266714D01*
X133142085Y-142189306D01*
X133421226Y-141910165D01*
X133749462Y-141690845D01*
X133749463Y-141690844D01*
X134114178Y-141539774D01*
X134501356Y-141462760D01*
X134896124Y-141462760D01*
X135283302Y-141539774D01*
G37*
G36*
X156952500Y-144751000D02*
G01*
X155047500Y-144751000D01*
X155047500Y-143354000D01*
X156952500Y-143354000D01*
X156952500Y-144751000D01*
G37*
G36*
X151614877Y-140891984D02*
G01*
X151811333Y-140973359D01*
X151811335Y-140973360D01*
X151988141Y-141091498D01*
X152138502Y-141241859D01*
X152256640Y-141418665D01*
X152256641Y-141418667D01*
X152338016Y-141615123D01*
X152379500Y-141823677D01*
X152379500Y-142036323D01*
X152338016Y-142244877D01*
X152256641Y-142441333D01*
X152256640Y-142441335D01*
X152138502Y-142618141D01*
X151988141Y-142768502D01*
X151811335Y-142886640D01*
X151811334Y-142886641D01*
X151811333Y-142886641D01*
X151614877Y-142968016D01*
X151406323Y-143009500D01*
X151193677Y-143009500D01*
X150985123Y-142968016D01*
X150788667Y-142886641D01*
X150788666Y-142886641D01*
X150788665Y-142886640D01*
X150611859Y-142768502D01*
X150461498Y-142618141D01*
X150343360Y-142441335D01*
X150343359Y-142441333D01*
X150261984Y-142244877D01*
X150220500Y-142036323D01*
X150220500Y-141823677D01*
X150261984Y-141615123D01*
X150343359Y-141418667D01*
X150343360Y-141418665D01*
X150461498Y-141241859D01*
X150611859Y-141091498D01*
X150788665Y-140973360D01*
X150788667Y-140973359D01*
X150985123Y-140891984D01*
X151193677Y-140850500D01*
X151406323Y-140850500D01*
X151614877Y-140891984D01*
G37*
G36*
X156952500Y-142846000D02*
G01*
X155047500Y-142846000D01*
X155047500Y-141449000D01*
X156952500Y-141449000D01*
X156952500Y-142846000D01*
G37*
G36*
X140094895Y-139663126D02*
G01*
X140341274Y-139765180D01*
X140563010Y-139913339D01*
X140751581Y-140101910D01*
X140899740Y-140323646D01*
X141001794Y-140570025D01*
X141053820Y-140831580D01*
X141053820Y-141098260D01*
X141001794Y-141359815D01*
X140899740Y-141606194D01*
X140751581Y-141827930D01*
X140563010Y-142016501D01*
X140341274Y-142164660D01*
X140094895Y-142266714D01*
X139833340Y-142318740D01*
X139566660Y-142318740D01*
X139305105Y-142266714D01*
X139058726Y-142164660D01*
X138836990Y-142016501D01*
X138648419Y-141827930D01*
X138500260Y-141606194D01*
X138398206Y-141359815D01*
X138346180Y-141098260D01*
X138346180Y-140831580D01*
X138398206Y-140570025D01*
X138500260Y-140323646D01*
X138648419Y-140101910D01*
X138836990Y-139913339D01*
X139058726Y-139765180D01*
X139305105Y-139663126D01*
X139566660Y-139611100D01*
X139833340Y-139611100D01*
X140094895Y-139663126D01*
G37*
G36*
X174851100Y-141955700D02*
G01*
X172742900Y-141955700D01*
X172742900Y-139644300D01*
X174851100Y-139644300D01*
X174851100Y-141955700D01*
G37*
G36*
X172057100Y-141955700D02*
G01*
X169948900Y-141955700D01*
X169948900Y-139644300D01*
X172057100Y-139644300D01*
X172057100Y-141955700D01*
G37*
G36*
X160978000Y-141893500D02*
G01*
X157422000Y-141893500D01*
X157422000Y-139734500D01*
X160978000Y-139734500D01*
X160978000Y-141893500D01*
G37*
G36*
X137592995Y-137163766D02*
G01*
X137839374Y-137265820D01*
X138061110Y-137413979D01*
X138249681Y-137602550D01*
X138397840Y-137824286D01*
X138499894Y-138070665D01*
X138551920Y-138332220D01*
X138551920Y-138598900D01*
X138499894Y-138860455D01*
X138397840Y-139106834D01*
X138249681Y-139328570D01*
X138061110Y-139517141D01*
X137839374Y-139665300D01*
X137592995Y-139767354D01*
X137331440Y-139819380D01*
X137064760Y-139819380D01*
X136803205Y-139767354D01*
X136556826Y-139665300D01*
X136335090Y-139517141D01*
X136146519Y-139328570D01*
X135998360Y-139106834D01*
X135896306Y-138860455D01*
X135844280Y-138598900D01*
X135844280Y-138332220D01*
X135896306Y-138070665D01*
X135998360Y-137824286D01*
X136146519Y-137602550D01*
X136335090Y-137413979D01*
X136556826Y-137265820D01*
X136803205Y-137163766D01*
X137064760Y-137111740D01*
X137331440Y-137111740D01*
X137592995Y-137163766D01*
G37*
G36*
X151852500Y-138003500D02*
G01*
X149947500Y-138003500D01*
X149947500Y-136606500D01*
X151852500Y-136606500D01*
X151852500Y-138003500D01*
G37*
G36*
X149252500Y-137951000D02*
G01*
X147347500Y-137951000D01*
X147347500Y-136554000D01*
X149252500Y-136554000D01*
X149252500Y-137951000D01*
G37*
G36*
X145411200Y-137911200D02*
G01*
X143988800Y-137911200D01*
X143988800Y-136488800D01*
X145411200Y-136488800D01*
X145411200Y-137911200D01*
G37*
G36*
X157254000Y-137834000D02*
G01*
X155746000Y-137834000D01*
X155746000Y-136666000D01*
X157254000Y-136666000D01*
X157254000Y-137834000D01*
G37*
G36*
X154654000Y-137834000D02*
G01*
X153146000Y-137834000D01*
X153146000Y-134766000D01*
X154654000Y-134766000D01*
X154654000Y-137834000D01*
G37*
G36*
X140094895Y-134664406D02*
G01*
X140341274Y-134766460D01*
X140563010Y-134914619D01*
X140751581Y-135103190D01*
X140899740Y-135324926D01*
X141001794Y-135571305D01*
X141053820Y-135832860D01*
X141053820Y-136099540D01*
X141001794Y-136361095D01*
X140899740Y-136607474D01*
X140751581Y-136829210D01*
X140563010Y-137017781D01*
X140341274Y-137165940D01*
X140094895Y-137267994D01*
X139833340Y-137320020D01*
X139566660Y-137320020D01*
X139305105Y-137267994D01*
X139058726Y-137165940D01*
X138836990Y-137017781D01*
X138648419Y-136829210D01*
X138500260Y-136607474D01*
X138398206Y-136361095D01*
X138346180Y-136099540D01*
X138346180Y-135832860D01*
X138398206Y-135571305D01*
X138500260Y-135324926D01*
X138648419Y-135103190D01*
X138836990Y-134914619D01*
X139058726Y-134766460D01*
X139305105Y-134664406D01*
X139566660Y-134612380D01*
X139833340Y-134612380D01*
X140094895Y-134664406D01*
G37*
G36*
X167154000Y-136699000D02*
G01*
X163646000Y-136699000D01*
X163646000Y-134921000D01*
X167154000Y-134921000D01*
X167154000Y-136699000D01*
G37*
G36*
X177154000Y-136699000D02*
G01*
X173646000Y-136699000D01*
X173646000Y-134921000D01*
X177154000Y-134921000D01*
X177154000Y-136699000D01*
G37*
G36*
X151852500Y-136098500D02*
G01*
X149947500Y-136098500D01*
X149947500Y-134701500D01*
X151852500Y-134701500D01*
X151852500Y-136098500D01*
G37*
G36*
X149252500Y-136046000D02*
G01*
X147347500Y-136046000D01*
X147347500Y-134649000D01*
X149252500Y-134649000D01*
X149252500Y-136046000D01*
G37*
G36*
X160352500Y-135951000D02*
G01*
X158447500Y-135951000D01*
X158447500Y-134554000D01*
X160352500Y-134554000D01*
X160352500Y-135951000D01*
G37*
G36*
X157254000Y-135934000D02*
G01*
X155746000Y-135934000D01*
X155746000Y-134766000D01*
X157254000Y-134766000D01*
X157254000Y-135934000D01*
G37*
G36*
X144522200Y-135879200D02*
G01*
X143099800Y-135879200D01*
X143099800Y-134456800D01*
X144522200Y-134456800D01*
X144522200Y-135879200D01*
G37*
G36*
X146300200Y-135879200D02*
G01*
X144877800Y-135879200D01*
X144877800Y-134456800D01*
X146300200Y-134456800D01*
X146300200Y-135879200D01*
G37*
G36*
X137592995Y-132162506D02*
G01*
X137839374Y-132264560D01*
X138061110Y-132412719D01*
X138249681Y-132601290D01*
X138397840Y-132823026D01*
X138499894Y-133069405D01*
X138551920Y-133330960D01*
X138551920Y-133597640D01*
X138499894Y-133859195D01*
X138397840Y-134105574D01*
X138249681Y-134327310D01*
X138061110Y-134515881D01*
X137839374Y-134664040D01*
X137592995Y-134766094D01*
X137331440Y-134818120D01*
X137064760Y-134818120D01*
X136803205Y-134766094D01*
X136556826Y-134664040D01*
X136335090Y-134515881D01*
X136146519Y-134327310D01*
X135998360Y-134105574D01*
X135896306Y-133859195D01*
X135844280Y-133597640D01*
X135844280Y-133330960D01*
X135896306Y-133069405D01*
X135998360Y-132823026D01*
X136146519Y-132601290D01*
X136335090Y-132412719D01*
X136556826Y-132264560D01*
X136803205Y-132162506D01*
X137064760Y-132110480D01*
X137331440Y-132110480D01*
X137592995Y-132162506D01*
G37*
G36*
X177154000Y-134159000D02*
G01*
X173646000Y-134159000D01*
X173646000Y-132381000D01*
X177154000Y-132381000D01*
X177154000Y-134159000D01*
G37*
G36*
X160352500Y-134046000D02*
G01*
X158447500Y-134046000D01*
X158447500Y-132649000D01*
X160352500Y-132649000D01*
X160352500Y-134046000D01*
G37*
G36*
X145152500Y-133998500D02*
G01*
X143247500Y-133998500D01*
X143247500Y-132601500D01*
X145152500Y-132601500D01*
X145152500Y-133998500D01*
G37*
G36*
X154852500Y-133951000D02*
G01*
X152947500Y-133951000D01*
X152947500Y-132554000D01*
X154852500Y-132554000D01*
X154852500Y-133951000D01*
G37*
G36*
X149252500Y-133951000D02*
G01*
X147347500Y-133951000D01*
X147347500Y-132554000D01*
X149252500Y-132554000D01*
X149252500Y-133951000D01*
G37*
G36*
X157452500Y-133951000D02*
G01*
X155547500Y-133951000D01*
X155547500Y-132554000D01*
X157452500Y-132554000D01*
X157452500Y-133951000D01*
G37*
G36*
X151852500Y-133903500D02*
G01*
X149947500Y-133903500D01*
X149947500Y-132506500D01*
X151852500Y-132506500D01*
X151852500Y-133903500D01*
G37*
G36*
X140094895Y-129663146D02*
G01*
X140341274Y-129765200D01*
X140563010Y-129913359D01*
X140751581Y-130101930D01*
X140899740Y-130323666D01*
X141001794Y-130570045D01*
X141053820Y-130831600D01*
X141053820Y-131098280D01*
X141001794Y-131359835D01*
X140899740Y-131606214D01*
X140751581Y-131827950D01*
X140563010Y-132016521D01*
X140341274Y-132164680D01*
X140094895Y-132266734D01*
X139833340Y-132318760D01*
X139566660Y-132318760D01*
X139305105Y-132266734D01*
X139058726Y-132164680D01*
X138836990Y-132016521D01*
X138648419Y-131827950D01*
X138500260Y-131606214D01*
X138398206Y-131359835D01*
X138346180Y-131098280D01*
X138346180Y-130831600D01*
X138398206Y-130570045D01*
X138500260Y-130323666D01*
X138648419Y-130101930D01*
X138836990Y-129913359D01*
X139058726Y-129765200D01*
X139305105Y-129663146D01*
X139566660Y-129611120D01*
X139833340Y-129611120D01*
X140094895Y-129663146D01*
G37*
G36*
X145152500Y-132093500D02*
G01*
X143247500Y-132093500D01*
X143247500Y-130696500D01*
X145152500Y-130696500D01*
X145152500Y-132093500D01*
G37*
G36*
X157452500Y-132046000D02*
G01*
X155547500Y-132046000D01*
X155547500Y-130649000D01*
X157452500Y-130649000D01*
X157452500Y-132046000D01*
G37*
G36*
X154852500Y-132046000D02*
G01*
X152947500Y-132046000D01*
X152947500Y-130649000D01*
X154852500Y-130649000D01*
X154852500Y-132046000D01*
G37*
G36*
X149252500Y-132046000D02*
G01*
X147347500Y-132046000D01*
X147347500Y-130649000D01*
X149252500Y-130649000D01*
X149252500Y-132046000D01*
G37*
G36*
X151852500Y-131998500D02*
G01*
X149947500Y-131998500D01*
X149947500Y-130601500D01*
X151852500Y-130601500D01*
X151852500Y-131998500D01*
G37*
G36*
X137592995Y-127163786D02*
G01*
X137839374Y-127265840D01*
X138061110Y-127413999D01*
X138249681Y-127602570D01*
X138397840Y-127824306D01*
X138499894Y-128070685D01*
X138551920Y-128332240D01*
X138551920Y-128598920D01*
X138499894Y-128860475D01*
X138397840Y-129106854D01*
X138249681Y-129328590D01*
X138061110Y-129517161D01*
X137839374Y-129665320D01*
X137592995Y-129767374D01*
X137331440Y-129819400D01*
X137064760Y-129819400D01*
X136803205Y-129767374D01*
X136556826Y-129665320D01*
X136335090Y-129517161D01*
X136146519Y-129328590D01*
X135998360Y-129106854D01*
X135896306Y-128860475D01*
X135844280Y-128598920D01*
X135844280Y-128332240D01*
X135896306Y-128070685D01*
X135998360Y-127824306D01*
X136146519Y-127602570D01*
X136335090Y-127413999D01*
X136556826Y-127265840D01*
X136803205Y-127163786D01*
X137064760Y-127111760D01*
X137331440Y-127111760D01*
X137592995Y-127163786D01*
G37*
G36*
X167154000Y-129079000D02*
G01*
X163646000Y-129079000D01*
X163646000Y-127301000D01*
X167154000Y-127301000D01*
X167154000Y-129079000D01*
G37*
G36*
X177154000Y-129079000D02*
G01*
X173646000Y-129079000D01*
X173646000Y-127301000D01*
X177154000Y-127301000D01*
X177154000Y-129079000D01*
G37*
G36*
X144462196Y-125995972D02*
G01*
X144474448Y-125996574D01*
X144492868Y-125996574D01*
X144535018Y-126000725D01*
X144548802Y-126002083D01*
X144548803Y-126002083D01*
X144554944Y-126002688D01*
X144639029Y-126019414D01*
X144644931Y-126021204D01*
X144644935Y-126021205D01*
X144664437Y-126027121D01*
X144698723Y-126037521D01*
X144777926Y-126070327D01*
X144832933Y-126099729D01*
X144904227Y-126147367D01*
X144952438Y-126186932D01*
X145013068Y-126247562D01*
X145052633Y-126295773D01*
X145100271Y-126367067D01*
X145129673Y-126422074D01*
X145162479Y-126501277D01*
X145180586Y-126560971D01*
X145197312Y-126645056D01*
X145203426Y-126707132D01*
X145203426Y-126725552D01*
X145204028Y-126737804D01*
X145205834Y-126756140D01*
X145205834Y-127243859D01*
X145205229Y-127250000D01*
X145200325Y-127299793D01*
X145195955Y-127314199D01*
X145183628Y-127354836D01*
X145179949Y-127363717D01*
X145175169Y-127387750D01*
X145175169Y-127412254D01*
X145179950Y-127436287D01*
X145183629Y-127445168D01*
X145185801Y-127452328D01*
X145200325Y-127500207D01*
X145203153Y-127528917D01*
X145205834Y-127556141D01*
X145205834Y-128043860D01*
X145204028Y-128062196D01*
X145203426Y-128074448D01*
X145203426Y-128092868D01*
X145197312Y-128154944D01*
X145180586Y-128239029D01*
X145162479Y-128298723D01*
X145129673Y-128377926D01*
X145100271Y-128432933D01*
X145052633Y-128504227D01*
X145013068Y-128552438D01*
X144952438Y-128613068D01*
X144904227Y-128652633D01*
X144832933Y-128700271D01*
X144777926Y-128729673D01*
X144698723Y-128762479D01*
X144664437Y-128772879D01*
X144644935Y-128778795D01*
X144644931Y-128778796D01*
X144639029Y-128780586D01*
X144554944Y-128797312D01*
X144548803Y-128797917D01*
X144548802Y-128797917D01*
X144535018Y-128799275D01*
X144492868Y-128803426D01*
X144474448Y-128803426D01*
X144462196Y-128804028D01*
X144443860Y-128805834D01*
X143956140Y-128805834D01*
X143937804Y-128804028D01*
X143925552Y-128803426D01*
X143907132Y-128803426D01*
X143864982Y-128799275D01*
X143851198Y-128797917D01*
X143851197Y-128797917D01*
X143845056Y-128797312D01*
X143760971Y-128780586D01*
X143755069Y-128778796D01*
X143755065Y-128778795D01*
X143735563Y-128772879D01*
X143701277Y-128762479D01*
X143622074Y-128729673D01*
X143567067Y-128700271D01*
X143495773Y-128652633D01*
X143447562Y-128613068D01*
X143386932Y-128552438D01*
X143347367Y-128504227D01*
X143299729Y-128432933D01*
X143270327Y-128377926D01*
X143237521Y-128298723D01*
X143219414Y-128239029D01*
X143202688Y-128154944D01*
X143196574Y-128092868D01*
X143196574Y-128074448D01*
X143195972Y-128062196D01*
X143194166Y-128043860D01*
X143194166Y-127556141D01*
X143196847Y-127528917D01*
X143199675Y-127500207D01*
X143214199Y-127452328D01*
X143216372Y-127445164D01*
X143220051Y-127436283D01*
X143224831Y-127412250D01*
X143224831Y-127387746D01*
X143220050Y-127363713D01*
X143216371Y-127354832D01*
X143204045Y-127314199D01*
X143199675Y-127299793D01*
X143194771Y-127250000D01*
X143194166Y-127243859D01*
X143194166Y-126756140D01*
X143195972Y-126737804D01*
X143196574Y-126725552D01*
X143196574Y-126707132D01*
X143202688Y-126645056D01*
X143219414Y-126560971D01*
X143237521Y-126501277D01*
X143270327Y-126422074D01*
X143299729Y-126367067D01*
X143347367Y-126295773D01*
X143386932Y-126247562D01*
X143447562Y-126186932D01*
X143495773Y-126147367D01*
X143567067Y-126099729D01*
X143622074Y-126070327D01*
X143701277Y-126037521D01*
X143735563Y-126027121D01*
X143755065Y-126021205D01*
X143755069Y-126021204D01*
X143760971Y-126019414D01*
X143845056Y-126002688D01*
X143851197Y-126002083D01*
X143851198Y-126002083D01*
X143864982Y-126000725D01*
X143907132Y-125996574D01*
X143925552Y-125996574D01*
X143937804Y-125995972D01*
X143956140Y-125994166D01*
X144443860Y-125994166D01*
X144462196Y-125995972D01*
G37*
G36*
X155252500Y-128751000D02*
G01*
X153347500Y-128751000D01*
X153347500Y-127354000D01*
X155252500Y-127354000D01*
X155252500Y-128751000D01*
G37*
G36*
X140094895Y-124664426D02*
G01*
X140341274Y-124766480D01*
X140563010Y-124914639D01*
X140751581Y-125103210D01*
X140899740Y-125324946D01*
X141001794Y-125571325D01*
X141053820Y-125832880D01*
X141053820Y-126099560D01*
X141001794Y-126361115D01*
X140899740Y-126607494D01*
X140751581Y-126829230D01*
X140563010Y-127017801D01*
X140341274Y-127165960D01*
X140094895Y-127268014D01*
X139833340Y-127320040D01*
X139566660Y-127320040D01*
X139305105Y-127268014D01*
X139058726Y-127165960D01*
X138836990Y-127017801D01*
X138648419Y-126829230D01*
X138500260Y-126607494D01*
X138398206Y-126361115D01*
X138346180Y-126099560D01*
X138346180Y-125832880D01*
X138398206Y-125571325D01*
X138500260Y-125324946D01*
X138648419Y-125103210D01*
X138836990Y-124914639D01*
X139058726Y-124766480D01*
X139305105Y-124664426D01*
X139566660Y-124612400D01*
X139833340Y-124612400D01*
X140094895Y-124664426D01*
G37*
G36*
X152458720Y-127020770D02*
G01*
X147541280Y-127020770D01*
X147541280Y-125113230D01*
X152458720Y-125113230D01*
X152458720Y-127020770D01*
G37*
G36*
X155252500Y-126846000D02*
G01*
X153347500Y-126846000D01*
X153347500Y-125449000D01*
X155252500Y-125449000D01*
X155252500Y-126846000D01*
G37*
G36*
X145662196Y-122195972D02*
G01*
X145674448Y-122196574D01*
X145692868Y-122196574D01*
X145735018Y-122200725D01*
X145748802Y-122202083D01*
X145748803Y-122202083D01*
X145754944Y-122202688D01*
X145839029Y-122219414D01*
X145844931Y-122221204D01*
X145844935Y-122221205D01*
X145864437Y-122227121D01*
X145898723Y-122237521D01*
X145977926Y-122270327D01*
X146032933Y-122299729D01*
X146104227Y-122347367D01*
X146152438Y-122386932D01*
X146213068Y-122447562D01*
X146252633Y-122495773D01*
X146300271Y-122567067D01*
X146329673Y-122622074D01*
X146362479Y-122701277D01*
X146369842Y-122725552D01*
X146377259Y-122750000D01*
X146380586Y-122760971D01*
X146397312Y-122845056D01*
X146403426Y-122907132D01*
X146403426Y-122925552D01*
X146404028Y-122937804D01*
X146405834Y-122956140D01*
X146405834Y-123443859D01*
X146405229Y-123450000D01*
X146400325Y-123499793D01*
X146395955Y-123514199D01*
X146383628Y-123554836D01*
X146379949Y-123563717D01*
X146375169Y-123587750D01*
X146375169Y-123612254D01*
X146379950Y-123636287D01*
X146383629Y-123645168D01*
X146385801Y-123652328D01*
X146400325Y-123700207D01*
X146403153Y-123728917D01*
X146405834Y-123756141D01*
X146405834Y-124243860D01*
X146404028Y-124262196D01*
X146403426Y-124274448D01*
X146403426Y-124292868D01*
X146397312Y-124354944D01*
X146380586Y-124439029D01*
X146362479Y-124498723D01*
X146329673Y-124577926D01*
X146300271Y-124632933D01*
X146252633Y-124704227D01*
X146213068Y-124752438D01*
X146152438Y-124813068D01*
X146104227Y-124852633D01*
X146032933Y-124900271D01*
X145977926Y-124929673D01*
X145898723Y-124962479D01*
X145864437Y-124972879D01*
X145844935Y-124978795D01*
X145844931Y-124978796D01*
X145839029Y-124980586D01*
X145754944Y-124997312D01*
X145748803Y-124997917D01*
X145748802Y-124997917D01*
X145735018Y-124999275D01*
X145692868Y-125003426D01*
X145674448Y-125003426D01*
X145662196Y-125004028D01*
X145643860Y-125005834D01*
X145156140Y-125005834D01*
X145137804Y-125004028D01*
X145125552Y-125003426D01*
X145107132Y-125003426D01*
X145064982Y-124999275D01*
X145051198Y-124997917D01*
X145051197Y-124997917D01*
X145045056Y-124997312D01*
X144960971Y-124980586D01*
X144955069Y-124978796D01*
X144955065Y-124978795D01*
X144935563Y-124972879D01*
X144901277Y-124962479D01*
X144822074Y-124929673D01*
X144767067Y-124900271D01*
X144695773Y-124852633D01*
X144647562Y-124813068D01*
X144586932Y-124752438D01*
X144547367Y-124704227D01*
X144499729Y-124632933D01*
X144470327Y-124577926D01*
X144437521Y-124498723D01*
X144419414Y-124439029D01*
X144402688Y-124354944D01*
X144396574Y-124292868D01*
X144396574Y-124274448D01*
X144395972Y-124262196D01*
X144394166Y-124243860D01*
X144394166Y-123756141D01*
X144396847Y-123728917D01*
X144399675Y-123700207D01*
X144414199Y-123652328D01*
X144416372Y-123645164D01*
X144420051Y-123636283D01*
X144424831Y-123612250D01*
X144424831Y-123587746D01*
X144420050Y-123563713D01*
X144416371Y-123554832D01*
X144404045Y-123514199D01*
X144399675Y-123499793D01*
X144394771Y-123450000D01*
X144394166Y-123443859D01*
X144394166Y-122956140D01*
X144395972Y-122937804D01*
X144396574Y-122925552D01*
X144396574Y-122907132D01*
X144402688Y-122845056D01*
X144419414Y-122760971D01*
X144422742Y-122750000D01*
X144430158Y-122725552D01*
X144437521Y-122701277D01*
X144470327Y-122622074D01*
X144499729Y-122567067D01*
X144547367Y-122495773D01*
X144586932Y-122447562D01*
X144647562Y-122386932D01*
X144695773Y-122347367D01*
X144767067Y-122299729D01*
X144822074Y-122270327D01*
X144901277Y-122237521D01*
X144935563Y-122227121D01*
X144955065Y-122221205D01*
X144955069Y-122221204D01*
X144960971Y-122219414D01*
X145045056Y-122202688D01*
X145051197Y-122202083D01*
X145051198Y-122202083D01*
X145064982Y-122200725D01*
X145107132Y-122196574D01*
X145125552Y-122196574D01*
X145137804Y-122195972D01*
X145156140Y-122194166D01*
X145643860Y-122194166D01*
X145662196Y-122195972D01*
G37*
G36*
X163852500Y-124951000D02*
G01*
X161947500Y-124951000D01*
X161947500Y-123554000D01*
X163852500Y-123554000D01*
X163852500Y-124951000D01*
G37*
G36*
X157462196Y-122045972D02*
G01*
X157474448Y-122046574D01*
X157492868Y-122046574D01*
X157535018Y-122050725D01*
X157548802Y-122052083D01*
X157548803Y-122052083D01*
X157554944Y-122052688D01*
X157639029Y-122069414D01*
X157644931Y-122071204D01*
X157644935Y-122071205D01*
X157664437Y-122077121D01*
X157698723Y-122087521D01*
X157777926Y-122120327D01*
X157832933Y-122149729D01*
X157904227Y-122197367D01*
X157952438Y-122236932D01*
X158013068Y-122297562D01*
X158052633Y-122345773D01*
X158100271Y-122417067D01*
X158129673Y-122472074D01*
X158162479Y-122551277D01*
X158180586Y-122610971D01*
X158197312Y-122695056D01*
X158203426Y-122757132D01*
X158203426Y-122775552D01*
X158204028Y-122787804D01*
X158205834Y-122806140D01*
X158205834Y-123293859D01*
X158205229Y-123300000D01*
X158200325Y-123349793D01*
X158198796Y-123354832D01*
X158183628Y-123404836D01*
X158179949Y-123413717D01*
X158175169Y-123437750D01*
X158175169Y-123462254D01*
X158179950Y-123486287D01*
X158183629Y-123495168D01*
X158185801Y-123502328D01*
X158200325Y-123550207D01*
X158202228Y-123569526D01*
X158205834Y-123606141D01*
X158205834Y-124093860D01*
X158204028Y-124112196D01*
X158203426Y-124124448D01*
X158203426Y-124142868D01*
X158197312Y-124204944D01*
X158180586Y-124289029D01*
X158162479Y-124348723D01*
X158129673Y-124427926D01*
X158100271Y-124482933D01*
X158052633Y-124554227D01*
X158013068Y-124602438D01*
X157952438Y-124663068D01*
X157904227Y-124702633D01*
X157832933Y-124750271D01*
X157777926Y-124779673D01*
X157698723Y-124812479D01*
X157664437Y-124822879D01*
X157644935Y-124828795D01*
X157644931Y-124828796D01*
X157639029Y-124830586D01*
X157554944Y-124847312D01*
X157548803Y-124847917D01*
X157548802Y-124847917D01*
X157535018Y-124849275D01*
X157492868Y-124853426D01*
X157474448Y-124853426D01*
X157462196Y-124854028D01*
X157443860Y-124855834D01*
X156956140Y-124855834D01*
X156937804Y-124854028D01*
X156925552Y-124853426D01*
X156907132Y-124853426D01*
X156864982Y-124849275D01*
X156851198Y-124847917D01*
X156851197Y-124847917D01*
X156845056Y-124847312D01*
X156760971Y-124830586D01*
X156755069Y-124828796D01*
X156755065Y-124828795D01*
X156735563Y-124822879D01*
X156701277Y-124812479D01*
X156622074Y-124779673D01*
X156567067Y-124750271D01*
X156495773Y-124702633D01*
X156447562Y-124663068D01*
X156386932Y-124602438D01*
X156347367Y-124554227D01*
X156299729Y-124482933D01*
X156270327Y-124427926D01*
X156237521Y-124348723D01*
X156219414Y-124289029D01*
X156202688Y-124204944D01*
X156196574Y-124142868D01*
X156196574Y-124124448D01*
X156195972Y-124112196D01*
X156194166Y-124093860D01*
X156194166Y-123606141D01*
X156197772Y-123569526D01*
X156199675Y-123550207D01*
X156214199Y-123502328D01*
X156216372Y-123495164D01*
X156220051Y-123486283D01*
X156224831Y-123462250D01*
X156224831Y-123437746D01*
X156220050Y-123413713D01*
X156216371Y-123404832D01*
X156201204Y-123354832D01*
X156199675Y-123349793D01*
X156194771Y-123300000D01*
X156194166Y-123293859D01*
X156194166Y-122806140D01*
X156195972Y-122787804D01*
X156196574Y-122775552D01*
X156196574Y-122757132D01*
X156202688Y-122695056D01*
X156219414Y-122610971D01*
X156237521Y-122551277D01*
X156270327Y-122472074D01*
X156299729Y-122417067D01*
X156347367Y-122345773D01*
X156386932Y-122297562D01*
X156447562Y-122236932D01*
X156495773Y-122197367D01*
X156567067Y-122149729D01*
X156622074Y-122120327D01*
X156701277Y-122087521D01*
X156735563Y-122077121D01*
X156755065Y-122071205D01*
X156755069Y-122071204D01*
X156760971Y-122069414D01*
X156845056Y-122052688D01*
X156851197Y-122052083D01*
X156851198Y-122052083D01*
X156864982Y-122050725D01*
X156907132Y-122046574D01*
X156925552Y-122046574D01*
X156937804Y-122045972D01*
X156956140Y-122044166D01*
X157443860Y-122044166D01*
X157462196Y-122045972D01*
G37*
G36*
X160362196Y-122045972D02*
G01*
X160374448Y-122046574D01*
X160392868Y-122046574D01*
X160435018Y-122050725D01*
X160448802Y-122052083D01*
X160448803Y-122052083D01*
X160454944Y-122052688D01*
X160539029Y-122069414D01*
X160544931Y-122071204D01*
X160544935Y-122071205D01*
X160564437Y-122077121D01*
X160598723Y-122087521D01*
X160677926Y-122120327D01*
X160732933Y-122149729D01*
X160804227Y-122197367D01*
X160852438Y-122236932D01*
X160913068Y-122297562D01*
X160952633Y-122345773D01*
X161000271Y-122417067D01*
X161029673Y-122472074D01*
X161062479Y-122551277D01*
X161080586Y-122610971D01*
X161097312Y-122695056D01*
X161103426Y-122757132D01*
X161103426Y-122775552D01*
X161104028Y-122787804D01*
X161105834Y-122806140D01*
X161105834Y-123293859D01*
X161105229Y-123300000D01*
X161100325Y-123349793D01*
X161098796Y-123354832D01*
X161083628Y-123404836D01*
X161079949Y-123413717D01*
X161075169Y-123437750D01*
X161075169Y-123462254D01*
X161079950Y-123486287D01*
X161083629Y-123495168D01*
X161085801Y-123502328D01*
X161100325Y-123550207D01*
X161102228Y-123569526D01*
X161105834Y-123606141D01*
X161105834Y-124093860D01*
X161104028Y-124112196D01*
X161103426Y-124124448D01*
X161103426Y-124142868D01*
X161097312Y-124204944D01*
X161080586Y-124289029D01*
X161062479Y-124348723D01*
X161029673Y-124427926D01*
X161000271Y-124482933D01*
X160952633Y-124554227D01*
X160913068Y-124602438D01*
X160852438Y-124663068D01*
X160804227Y-124702633D01*
X160732933Y-124750271D01*
X160677926Y-124779673D01*
X160598723Y-124812479D01*
X160564437Y-124822879D01*
X160544935Y-124828795D01*
X160544931Y-124828796D01*
X160539029Y-124830586D01*
X160454944Y-124847312D01*
X160448803Y-124847917D01*
X160448802Y-124847917D01*
X160435018Y-124849275D01*
X160392868Y-124853426D01*
X160374448Y-124853426D01*
X160362196Y-124854028D01*
X160343860Y-124855834D01*
X159856140Y-124855834D01*
X159837804Y-124854028D01*
X159825552Y-124853426D01*
X159807132Y-124853426D01*
X159764982Y-124849275D01*
X159751198Y-124847917D01*
X159751197Y-124847917D01*
X159745056Y-124847312D01*
X159660971Y-124830586D01*
X159655069Y-124828796D01*
X159655065Y-124828795D01*
X159635563Y-124822879D01*
X159601277Y-124812479D01*
X159522074Y-124779673D01*
X159467067Y-124750271D01*
X159395773Y-124702633D01*
X159347562Y-124663068D01*
X159286932Y-124602438D01*
X159247367Y-124554227D01*
X159199729Y-124482933D01*
X159170327Y-124427926D01*
X159137521Y-124348723D01*
X159119414Y-124289029D01*
X159102688Y-124204944D01*
X159096574Y-124142868D01*
X159096574Y-124124448D01*
X159095972Y-124112196D01*
X159094166Y-124093860D01*
X159094166Y-123606141D01*
X159097772Y-123569526D01*
X159099675Y-123550207D01*
X159114199Y-123502328D01*
X159116372Y-123495164D01*
X159120051Y-123486283D01*
X159124831Y-123462250D01*
X159124831Y-123437746D01*
X159120050Y-123413713D01*
X159116371Y-123404832D01*
X159101204Y-123354832D01*
X159099675Y-123349793D01*
X159094771Y-123300000D01*
X159094166Y-123293859D01*
X159094166Y-122806140D01*
X159095972Y-122787804D01*
X159096574Y-122775552D01*
X159096574Y-122757132D01*
X159102688Y-122695056D01*
X159119414Y-122610971D01*
X159137521Y-122551277D01*
X159170327Y-122472074D01*
X159199729Y-122417067D01*
X159247367Y-122345773D01*
X159286932Y-122297562D01*
X159347562Y-122236932D01*
X159395773Y-122197367D01*
X159467067Y-122149729D01*
X159522074Y-122120327D01*
X159601277Y-122087521D01*
X159635563Y-122077121D01*
X159655065Y-122071205D01*
X159655069Y-122071204D01*
X159660971Y-122069414D01*
X159745056Y-122052688D01*
X159751197Y-122052083D01*
X159751198Y-122052083D01*
X159764982Y-122050725D01*
X159807132Y-122046574D01*
X159825552Y-122046574D01*
X159837804Y-122045972D01*
X159856140Y-122044166D01*
X160343860Y-122044166D01*
X160362196Y-122045972D01*
G37*
G36*
X176155700Y-124851100D02*
G01*
X173844300Y-124851100D01*
X173844300Y-122742900D01*
X176155700Y-122742900D01*
X176155700Y-124851100D01*
G37*
G36*
X137592995Y-122162526D02*
G01*
X137839374Y-122264580D01*
X138061110Y-122412739D01*
X138249681Y-122601310D01*
X138397840Y-122823046D01*
X138499894Y-123069425D01*
X138551920Y-123330980D01*
X138551920Y-123597660D01*
X138499894Y-123859215D01*
X138397840Y-124105594D01*
X138249681Y-124327330D01*
X138061110Y-124515901D01*
X137839374Y-124664060D01*
X137592995Y-124766114D01*
X137331440Y-124818140D01*
X137064760Y-124818140D01*
X136803205Y-124766114D01*
X136556826Y-124664060D01*
X136335090Y-124515901D01*
X136146519Y-124327330D01*
X135998360Y-124105594D01*
X135896306Y-123859215D01*
X135844280Y-123597660D01*
X135844280Y-123330980D01*
X135896306Y-123069425D01*
X135998360Y-122823046D01*
X136146519Y-122601310D01*
X136335090Y-122412739D01*
X136556826Y-122264580D01*
X136803205Y-122162526D01*
X137064760Y-122110500D01*
X137331440Y-122110500D01*
X137592995Y-122162526D01*
G37*
G36*
X154762196Y-121995972D02*
G01*
X154774448Y-121996574D01*
X154792868Y-121996574D01*
X154835018Y-122000725D01*
X154848802Y-122002083D01*
X154848803Y-122002083D01*
X154854944Y-122002688D01*
X154939029Y-122019414D01*
X154944931Y-122021204D01*
X154944935Y-122021205D01*
X154964437Y-122027121D01*
X154998723Y-122037521D01*
X155077926Y-122070327D01*
X155132933Y-122099729D01*
X155204227Y-122147367D01*
X155252438Y-122186932D01*
X155313068Y-122247562D01*
X155352633Y-122295773D01*
X155400271Y-122367067D01*
X155429673Y-122422074D01*
X155462479Y-122501277D01*
X155480586Y-122560971D01*
X155497312Y-122645056D01*
X155503426Y-122707132D01*
X155503426Y-122725552D01*
X155504028Y-122737804D01*
X155505834Y-122756140D01*
X155505834Y-123243859D01*
X155505229Y-123250000D01*
X155500325Y-123299793D01*
X155500262Y-123300000D01*
X155483628Y-123354836D01*
X155479949Y-123363717D01*
X155475169Y-123387750D01*
X155475169Y-123412254D01*
X155479950Y-123436287D01*
X155483629Y-123445168D01*
X155485801Y-123452328D01*
X155500325Y-123500207D01*
X155501508Y-123512215D01*
X155505834Y-123556141D01*
X155505834Y-124043860D01*
X155504028Y-124062196D01*
X155503426Y-124074448D01*
X155503426Y-124092868D01*
X155497312Y-124154944D01*
X155480586Y-124239029D01*
X155478796Y-124244931D01*
X155478795Y-124244935D01*
X155473559Y-124262196D01*
X155462479Y-124298723D01*
X155429673Y-124377926D01*
X155400271Y-124432933D01*
X155352633Y-124504227D01*
X155313068Y-124552438D01*
X155252438Y-124613068D01*
X155204227Y-124652633D01*
X155132933Y-124700271D01*
X155077926Y-124729673D01*
X154998723Y-124762479D01*
X154964437Y-124772879D01*
X154944935Y-124778795D01*
X154944931Y-124778796D01*
X154939029Y-124780586D01*
X154854944Y-124797312D01*
X154848803Y-124797917D01*
X154848802Y-124797917D01*
X154835018Y-124799275D01*
X154792868Y-124803426D01*
X154774448Y-124803426D01*
X154762196Y-124804028D01*
X154743860Y-124805834D01*
X154256140Y-124805834D01*
X154237804Y-124804028D01*
X154225552Y-124803426D01*
X154207132Y-124803426D01*
X154164982Y-124799275D01*
X154151198Y-124797917D01*
X154151197Y-124797917D01*
X154145056Y-124797312D01*
X154060971Y-124780586D01*
X154055069Y-124778796D01*
X154055065Y-124778795D01*
X154035563Y-124772879D01*
X154001277Y-124762479D01*
X153922074Y-124729673D01*
X153867067Y-124700271D01*
X153795773Y-124652633D01*
X153747562Y-124613068D01*
X153686932Y-124552438D01*
X153647367Y-124504227D01*
X153599729Y-124432933D01*
X153570327Y-124377926D01*
X153537521Y-124298723D01*
X153526441Y-124262196D01*
X153521205Y-124244935D01*
X153521204Y-124244931D01*
X153519414Y-124239029D01*
X153502688Y-124154944D01*
X153496574Y-124092868D01*
X153496574Y-124074448D01*
X153495972Y-124062196D01*
X153494166Y-124043860D01*
X153494166Y-123556141D01*
X153498492Y-123512215D01*
X153499675Y-123500207D01*
X153514199Y-123452328D01*
X153516372Y-123445164D01*
X153520051Y-123436283D01*
X153524831Y-123412250D01*
X153524831Y-123387746D01*
X153520050Y-123363713D01*
X153516371Y-123354832D01*
X153499738Y-123300000D01*
X153499675Y-123299793D01*
X153494771Y-123250000D01*
X153494166Y-123243859D01*
X153494166Y-122756140D01*
X153495972Y-122737804D01*
X153496574Y-122725552D01*
X153496574Y-122707132D01*
X153502688Y-122645056D01*
X153519414Y-122560971D01*
X153537521Y-122501277D01*
X153570327Y-122422074D01*
X153599729Y-122367067D01*
X153647367Y-122295773D01*
X153686932Y-122247562D01*
X153747562Y-122186932D01*
X153795773Y-122147367D01*
X153867067Y-122099729D01*
X153922074Y-122070327D01*
X154001277Y-122037521D01*
X154035563Y-122027121D01*
X154055065Y-122021205D01*
X154055069Y-122021204D01*
X154060971Y-122019414D01*
X154145056Y-122002688D01*
X154151197Y-122002083D01*
X154151198Y-122002083D01*
X154164982Y-122000725D01*
X154207132Y-121996574D01*
X154225552Y-121996574D01*
X154237804Y-121995972D01*
X154256140Y-121994166D01*
X154743860Y-121994166D01*
X154762196Y-121995972D01*
G37*
G36*
X167954000Y-124784000D02*
G01*
X166446000Y-124784000D01*
X166446000Y-121716000D01*
X167954000Y-121716000D01*
X167954000Y-124784000D01*
G37*
G36*
X170554000Y-124784000D02*
G01*
X169046000Y-124784000D01*
X169046000Y-123616000D01*
X170554000Y-123616000D01*
X170554000Y-124784000D01*
G37*
G36*
X173052500Y-124751000D02*
G01*
X171147500Y-124751000D01*
X171147500Y-123354000D01*
X173052500Y-123354000D01*
X173052500Y-124751000D01*
G37*
G36*
X163852500Y-123046000D02*
G01*
X161947500Y-123046000D01*
X161947500Y-121649000D01*
X163852500Y-121649000D01*
X163852500Y-123046000D01*
G37*
G36*
X170554000Y-122884000D02*
G01*
X169046000Y-122884000D01*
X169046000Y-121716000D01*
X170554000Y-121716000D01*
X170554000Y-122884000D01*
G37*
G36*
X173052500Y-122846000D02*
G01*
X171147500Y-122846000D01*
X171147500Y-121449000D01*
X173052500Y-121449000D01*
X173052500Y-122846000D01*
G37*
G36*
X140094895Y-119663166D02*
G01*
X140341274Y-119765220D01*
X140563010Y-119913379D01*
X140751581Y-120101950D01*
X140899740Y-120323686D01*
X141001794Y-120570065D01*
X141053820Y-120831620D01*
X141053820Y-121098300D01*
X141001794Y-121359855D01*
X140899740Y-121606234D01*
X140751581Y-121827970D01*
X140563010Y-122016541D01*
X140341274Y-122164700D01*
X140094895Y-122266754D01*
X139833340Y-122318780D01*
X139566660Y-122318780D01*
X139305105Y-122266754D01*
X139058726Y-122164700D01*
X138836990Y-122016541D01*
X138648419Y-121827970D01*
X138500260Y-121606234D01*
X138398206Y-121359855D01*
X138346180Y-121098300D01*
X138346180Y-120831620D01*
X138398206Y-120570065D01*
X138500260Y-120323686D01*
X138648419Y-120101950D01*
X138836990Y-119913379D01*
X139058726Y-119765220D01*
X139305105Y-119663166D01*
X139566660Y-119611140D01*
X139833340Y-119611140D01*
X140094895Y-119663166D01*
G37*
G36*
X165462196Y-119395972D02*
G01*
X165474448Y-119396574D01*
X165492868Y-119396574D01*
X165535018Y-119400725D01*
X165548802Y-119402083D01*
X165548803Y-119402083D01*
X165554944Y-119402688D01*
X165639029Y-119419414D01*
X165644931Y-119421204D01*
X165644935Y-119421205D01*
X165664437Y-119427121D01*
X165698723Y-119437521D01*
X165777926Y-119470327D01*
X165832933Y-119499729D01*
X165904227Y-119547367D01*
X165952438Y-119586932D01*
X166013068Y-119647562D01*
X166052633Y-119695773D01*
X166100271Y-119767067D01*
X166129673Y-119822074D01*
X166162479Y-119901277D01*
X166166150Y-119913380D01*
X166176925Y-119948900D01*
X166180586Y-119960971D01*
X166197312Y-120045056D01*
X166203426Y-120107132D01*
X166203426Y-120125552D01*
X166204028Y-120137804D01*
X166205834Y-120156140D01*
X166205834Y-120643859D01*
X166205229Y-120650000D01*
X166200325Y-120699793D01*
X166195955Y-120714199D01*
X166183628Y-120754836D01*
X166179949Y-120763717D01*
X166175169Y-120787750D01*
X166175169Y-120812254D01*
X166179950Y-120836287D01*
X166183629Y-120845168D01*
X166185801Y-120852328D01*
X166200325Y-120900207D01*
X166203153Y-120928917D01*
X166205834Y-120956141D01*
X166205834Y-121443860D01*
X166204028Y-121462196D01*
X166203426Y-121474448D01*
X166203426Y-121492868D01*
X166197312Y-121554944D01*
X166180586Y-121639029D01*
X166178796Y-121644931D01*
X166178795Y-121644935D01*
X166172879Y-121664437D01*
X166162479Y-121698723D01*
X166129673Y-121777926D01*
X166100271Y-121832933D01*
X166052633Y-121904227D01*
X166013068Y-121952438D01*
X165952438Y-122013068D01*
X165904227Y-122052633D01*
X165832933Y-122100271D01*
X165777926Y-122129673D01*
X165698723Y-122162479D01*
X165664437Y-122172879D01*
X165644935Y-122178795D01*
X165644931Y-122178796D01*
X165639029Y-122180586D01*
X165554944Y-122197312D01*
X165548803Y-122197917D01*
X165548802Y-122197917D01*
X165535018Y-122199275D01*
X165492868Y-122203426D01*
X165474448Y-122203426D01*
X165462196Y-122204028D01*
X165443860Y-122205834D01*
X164956140Y-122205834D01*
X164937804Y-122204028D01*
X164925552Y-122203426D01*
X164907132Y-122203426D01*
X164864982Y-122199275D01*
X164851198Y-122197917D01*
X164851197Y-122197917D01*
X164845056Y-122197312D01*
X164760971Y-122180586D01*
X164755069Y-122178796D01*
X164755065Y-122178795D01*
X164735563Y-122172879D01*
X164701277Y-122162479D01*
X164622074Y-122129673D01*
X164567067Y-122100271D01*
X164495773Y-122052633D01*
X164447562Y-122013068D01*
X164386932Y-121952438D01*
X164347367Y-121904227D01*
X164299729Y-121832933D01*
X164270327Y-121777926D01*
X164237521Y-121698723D01*
X164227121Y-121664437D01*
X164221205Y-121644935D01*
X164221204Y-121644931D01*
X164219414Y-121639029D01*
X164202688Y-121554944D01*
X164196574Y-121492868D01*
X164196574Y-121474448D01*
X164195972Y-121462196D01*
X164194166Y-121443860D01*
X164194166Y-120956141D01*
X164196847Y-120928917D01*
X164199675Y-120900207D01*
X164214199Y-120852328D01*
X164216372Y-120845164D01*
X164220051Y-120836283D01*
X164224831Y-120812250D01*
X164224831Y-120787746D01*
X164220050Y-120763713D01*
X164216371Y-120754832D01*
X164204045Y-120714199D01*
X164199675Y-120699793D01*
X164194771Y-120650000D01*
X164194166Y-120643859D01*
X164194166Y-120156140D01*
X164195972Y-120137804D01*
X164196574Y-120125552D01*
X164196574Y-120107132D01*
X164202688Y-120045056D01*
X164219414Y-119960971D01*
X164223076Y-119948900D01*
X164233850Y-119913380D01*
X164237521Y-119901277D01*
X164270327Y-119822074D01*
X164299729Y-119767067D01*
X164347367Y-119695773D01*
X164386932Y-119647562D01*
X164447562Y-119586932D01*
X164495773Y-119547367D01*
X164567067Y-119499729D01*
X164622074Y-119470327D01*
X164701277Y-119437521D01*
X164735563Y-119427121D01*
X164755065Y-119421205D01*
X164755069Y-119421204D01*
X164760971Y-119419414D01*
X164845056Y-119402688D01*
X164851197Y-119402083D01*
X164851198Y-119402083D01*
X164864982Y-119400725D01*
X164907132Y-119396574D01*
X164925552Y-119396574D01*
X164937804Y-119395972D01*
X164956140Y-119394166D01*
X165443860Y-119394166D01*
X165462196Y-119395972D01*
G37*
G36*
X176155700Y-122057100D02*
G01*
X173844300Y-122057100D01*
X173844300Y-119948900D01*
X176155700Y-119948900D01*
X176155700Y-122057100D01*
G37*
G36*
X152458720Y-121686770D02*
G01*
X147541280Y-121686770D01*
X147541280Y-119779230D01*
X152458720Y-119779230D01*
X152458720Y-121686770D01*
G37*
G36*
X155452500Y-121551000D02*
G01*
X153547500Y-121551000D01*
X153547500Y-120154000D01*
X155452500Y-120154000D01*
X155452500Y-121551000D01*
G37*
G36*
X137592995Y-117163806D02*
G01*
X137839374Y-117265860D01*
X138061110Y-117414019D01*
X138249681Y-117602590D01*
X138397840Y-117824326D01*
X138499894Y-118070705D01*
X138551920Y-118332260D01*
X138551920Y-118598940D01*
X138499894Y-118860495D01*
X138397840Y-119106874D01*
X138249681Y-119328610D01*
X138061110Y-119517181D01*
X137839374Y-119665340D01*
X137592995Y-119767394D01*
X137331440Y-119819420D01*
X137064760Y-119819420D01*
X136803205Y-119767394D01*
X136556826Y-119665340D01*
X136335090Y-119517181D01*
X136146519Y-119328610D01*
X135998360Y-119106874D01*
X135896306Y-118860495D01*
X135844280Y-118598940D01*
X135844280Y-118332260D01*
X135896306Y-118070705D01*
X135998360Y-117824326D01*
X136146519Y-117602590D01*
X136335090Y-117414019D01*
X136556826Y-117265860D01*
X136803205Y-117163806D01*
X137064760Y-117111780D01*
X137331440Y-117111780D01*
X137592995Y-117163806D01*
G37*
G36*
X155452500Y-119646000D02*
G01*
X153547500Y-119646000D01*
X153547500Y-118249000D01*
X155452500Y-118249000D01*
X155452500Y-119646000D01*
G37*
G36*
X140094895Y-114664446D02*
G01*
X140341274Y-114766500D01*
X140563010Y-114914659D01*
X140751581Y-115103230D01*
X140899740Y-115324966D01*
X141001794Y-115571345D01*
X141053820Y-115832900D01*
X141053820Y-116099580D01*
X141001794Y-116361135D01*
X140899740Y-116607514D01*
X140751581Y-116829250D01*
X140563010Y-117017821D01*
X140341274Y-117165980D01*
X140094895Y-117268034D01*
X139833340Y-117320060D01*
X139566660Y-117320060D01*
X139305105Y-117268034D01*
X139058726Y-117165980D01*
X138836990Y-117017821D01*
X138648419Y-116829250D01*
X138500260Y-116607514D01*
X138398206Y-116361135D01*
X138346180Y-116099580D01*
X138346180Y-115832900D01*
X138398206Y-115571345D01*
X138500260Y-115324966D01*
X138648419Y-115103230D01*
X138836990Y-114914659D01*
X139058726Y-114766500D01*
X139305105Y-114664446D01*
X139566660Y-114612420D01*
X139833340Y-114612420D01*
X140094895Y-114664446D01*
G37*
G36*
X137592995Y-112162546D02*
G01*
X137839374Y-112264600D01*
X138061110Y-112412759D01*
X138249681Y-112601330D01*
X138397840Y-112823066D01*
X138499894Y-113069445D01*
X138551920Y-113331000D01*
X138551920Y-113597680D01*
X138499894Y-113859235D01*
X138397840Y-114105614D01*
X138249681Y-114327350D01*
X138061110Y-114515921D01*
X137839374Y-114664080D01*
X137592995Y-114766134D01*
X137331440Y-114818160D01*
X137064760Y-114818160D01*
X136803205Y-114766134D01*
X136556826Y-114664080D01*
X136335090Y-114515921D01*
X136146519Y-114327350D01*
X135998360Y-114105614D01*
X135896306Y-113859235D01*
X135844280Y-113597680D01*
X135844280Y-113331000D01*
X135896306Y-113069445D01*
X135998360Y-112823066D01*
X136146519Y-112601330D01*
X136335090Y-112412759D01*
X136556826Y-112264600D01*
X136803205Y-112162546D01*
X137064760Y-112110520D01*
X137331440Y-112110520D01*
X137592995Y-112162546D01*
G37*
G36*
X140094895Y-109663186D02*
G01*
X140341274Y-109765240D01*
X140563010Y-109913399D01*
X140751581Y-110101970D01*
X140899740Y-110323706D01*
X141001794Y-110570085D01*
X141053820Y-110831640D01*
X141053820Y-111098320D01*
X141001794Y-111359875D01*
X140899740Y-111606254D01*
X140751581Y-111827990D01*
X140563010Y-112016561D01*
X140341274Y-112164720D01*
X140094895Y-112266774D01*
X139833340Y-112318800D01*
X139566660Y-112318800D01*
X139305105Y-112266774D01*
X139058726Y-112164720D01*
X138836990Y-112016561D01*
X138648419Y-111827990D01*
X138500260Y-111606254D01*
X138398206Y-111359875D01*
X138346180Y-111098320D01*
X138346180Y-110831640D01*
X138398206Y-110570085D01*
X138500260Y-110323706D01*
X138648419Y-110101970D01*
X138836990Y-109913399D01*
X139058726Y-109765240D01*
X139305105Y-109663186D01*
X139566660Y-109611160D01*
X139833340Y-109611160D01*
X140094895Y-109663186D01*
G37*
G36*
X137592995Y-107163826D02*
G01*
X137839374Y-107265880D01*
X138061110Y-107414039D01*
X138249681Y-107602610D01*
X138397840Y-107824346D01*
X138499894Y-108070725D01*
X138551920Y-108332280D01*
X138551920Y-108598960D01*
X138499894Y-108860515D01*
X138397840Y-109106894D01*
X138249681Y-109328630D01*
X138061110Y-109517201D01*
X137839374Y-109665360D01*
X137592995Y-109767414D01*
X137331440Y-109819440D01*
X137064760Y-109819440D01*
X136803205Y-109767414D01*
X136556826Y-109665360D01*
X136335090Y-109517201D01*
X136146519Y-109328630D01*
X135998360Y-109106894D01*
X135896306Y-108860515D01*
X135844280Y-108598960D01*
X135844280Y-108332280D01*
X135896306Y-108070725D01*
X135998360Y-107824346D01*
X136146519Y-107602610D01*
X136335090Y-107414039D01*
X136556826Y-107265880D01*
X136803205Y-107163826D01*
X137064760Y-107111800D01*
X137331440Y-107111800D01*
X137592995Y-107163826D01*
G37*
G36*
X140094895Y-104664466D02*
G01*
X140341274Y-104766520D01*
X140563010Y-104914679D01*
X140751581Y-105103250D01*
X140899740Y-105324986D01*
X141001794Y-105571365D01*
X141053820Y-105832920D01*
X141053820Y-106099600D01*
X141001794Y-106361155D01*
X140899740Y-106607534D01*
X140751581Y-106829270D01*
X140563010Y-107017841D01*
X140341274Y-107166000D01*
X140094895Y-107268054D01*
X139833340Y-107320080D01*
X139566660Y-107320080D01*
X139305105Y-107268054D01*
X139058726Y-107166000D01*
X138836990Y-107017841D01*
X138648419Y-106829270D01*
X138500260Y-106607534D01*
X138398206Y-106361155D01*
X138346180Y-106099600D01*
X138346180Y-105832920D01*
X138398206Y-105571365D01*
X138500260Y-105324986D01*
X138648419Y-105103250D01*
X138836990Y-104914679D01*
X139058726Y-104766520D01*
X139305105Y-104664466D01*
X139566660Y-104612440D01*
X139833340Y-104612440D01*
X140094895Y-104664466D01*
G37*
G36*
X153554510Y-107219130D02*
G01*
X151047530Y-107219130D01*
X151047530Y-104712150D01*
X153554510Y-104712150D01*
X153554510Y-107219130D01*
G37*
G36*
X157552470Y-107219130D02*
G01*
X155045490Y-107219130D01*
X155045490Y-104712150D01*
X157552470Y-104712150D01*
X157552470Y-107219130D01*
G37*
G36*
X137592995Y-102162566D02*
G01*
X137839374Y-102264620D01*
X138061110Y-102412779D01*
X138249681Y-102601350D01*
X138397840Y-102823086D01*
X138499894Y-103069465D01*
X138551920Y-103331020D01*
X138551920Y-103597700D01*
X138499894Y-103859255D01*
X138397840Y-104105634D01*
X138249681Y-104327370D01*
X138061110Y-104515941D01*
X137839374Y-104664100D01*
X137592995Y-104766154D01*
X137331440Y-104818180D01*
X137064760Y-104818180D01*
X136803205Y-104766154D01*
X136556826Y-104664100D01*
X136335090Y-104515941D01*
X136146519Y-104327370D01*
X135998360Y-104105634D01*
X135896306Y-103859255D01*
X135844280Y-103597700D01*
X135844280Y-103331020D01*
X135896306Y-103069465D01*
X135998360Y-102823086D01*
X136146519Y-102601350D01*
X136335090Y-102412779D01*
X136556826Y-102264620D01*
X136803205Y-102162566D01*
X137064760Y-102110540D01*
X137331440Y-102110540D01*
X137592995Y-102162566D01*
G37*
G36*
X149552470Y-104718490D02*
G01*
X147045490Y-104718490D01*
X147045490Y-102211510D01*
X149552470Y-102211510D01*
X149552470Y-104718490D01*
G37*
G36*
X145554510Y-104718490D02*
G01*
X143047530Y-104718490D01*
X143047530Y-102211510D01*
X145554510Y-102211510D01*
X145554510Y-104718490D01*
G37*
G36*
X140094895Y-99663206D02*
G01*
X140341274Y-99765260D01*
X140563010Y-99913419D01*
X140751581Y-100101990D01*
X140899740Y-100323726D01*
X141001794Y-100570105D01*
X141053820Y-100831660D01*
X141053820Y-101098340D01*
X141001794Y-101359895D01*
X140899740Y-101606274D01*
X140751581Y-101828010D01*
X140563010Y-102016581D01*
X140341274Y-102164740D01*
X140094895Y-102266794D01*
X139833340Y-102318820D01*
X139566660Y-102318820D01*
X139305105Y-102266794D01*
X139058726Y-102164740D01*
X138836990Y-102016581D01*
X138648419Y-101828010D01*
X138500260Y-101606274D01*
X138398206Y-101359895D01*
X138346180Y-101098340D01*
X138346180Y-100831660D01*
X138398206Y-100570105D01*
X138500260Y-100323726D01*
X138648419Y-100101990D01*
X138836990Y-99913419D01*
X139058726Y-99765260D01*
X139305105Y-99663206D01*
X139566660Y-99611180D01*
X139833340Y-99611180D01*
X140094895Y-99663206D01*
G37*
G36*
X153554510Y-102217870D02*
G01*
X151047530Y-102217870D01*
X151047530Y-99710890D01*
X153554510Y-99710890D01*
X153554510Y-102217870D01*
G37*
G36*
X157552470Y-102217870D02*
G01*
X155045490Y-102217870D01*
X155045490Y-99710890D01*
X157552470Y-99710890D01*
X157552470Y-102217870D01*
G37*
G36*
X165667660Y-100097000D02*
G01*
X162330100Y-100097000D01*
X162330100Y-98827000D01*
X165667660Y-98827000D01*
X165667660Y-100097000D01*
G37*
G36*
X137592995Y-97163846D02*
G01*
X137839374Y-97265900D01*
X138061110Y-97414059D01*
X138249681Y-97602630D01*
X138397840Y-97824366D01*
X138499894Y-98070745D01*
X138551920Y-98332300D01*
X138551920Y-98598980D01*
X138499894Y-98860535D01*
X138397840Y-99106914D01*
X138249681Y-99328650D01*
X138061110Y-99517221D01*
X137839374Y-99665380D01*
X137592995Y-99767434D01*
X137331440Y-99819460D01*
X137064760Y-99819460D01*
X136803205Y-99767434D01*
X136556826Y-99665380D01*
X136335090Y-99517221D01*
X136146519Y-99328650D01*
X135998360Y-99106914D01*
X135896306Y-98860535D01*
X135844280Y-98598980D01*
X135844280Y-98332300D01*
X135896306Y-98070745D01*
X135998360Y-97824366D01*
X136146519Y-97602630D01*
X136335090Y-97414059D01*
X136556826Y-97265900D01*
X136803205Y-97163846D01*
X137064760Y-97111820D01*
X137331440Y-97111820D01*
X137592995Y-97163846D01*
G37*
G36*
X149552470Y-99719770D02*
G01*
X147045490Y-99719770D01*
X147045490Y-97212790D01*
X149552470Y-97212790D01*
X149552470Y-99719770D01*
G37*
G36*
X145554510Y-99719770D02*
G01*
X143047530Y-99719770D01*
X143047530Y-97212790D01*
X145554510Y-97212790D01*
X145554510Y-99719770D01*
G37*
G36*
X165667660Y-98573000D02*
G01*
X162330100Y-98573000D01*
X162330100Y-97303000D01*
X165667660Y-97303000D01*
X165667660Y-98573000D01*
G37*
G36*
X140094895Y-94664486D02*
G01*
X140341274Y-94766540D01*
X140563010Y-94914699D01*
X140751581Y-95103270D01*
X140899740Y-95325006D01*
X141001794Y-95571385D01*
X141053820Y-95832940D01*
X141053820Y-96099620D01*
X141001794Y-96361175D01*
X140899740Y-96607554D01*
X140751581Y-96829290D01*
X140563010Y-97017861D01*
X140341274Y-97166020D01*
X140094895Y-97268074D01*
X139833340Y-97320100D01*
X139566660Y-97320100D01*
X139305105Y-97268074D01*
X139058726Y-97166020D01*
X138836990Y-97017861D01*
X138648419Y-96829290D01*
X138500260Y-96607554D01*
X138398206Y-96361175D01*
X138346180Y-96099620D01*
X138346180Y-95832940D01*
X138398206Y-95571385D01*
X138500260Y-95325006D01*
X138648419Y-95103270D01*
X138836990Y-94914699D01*
X139058726Y-94766540D01*
X139305105Y-94664486D01*
X139566660Y-94612460D01*
X139833340Y-94612460D01*
X140094895Y-94664486D01*
G37*
G36*
X153554510Y-97219150D02*
G01*
X151047530Y-97219150D01*
X151047530Y-94712170D01*
X153554510Y-94712170D01*
X153554510Y-97219150D01*
G37*
G36*
X157552470Y-97219150D02*
G01*
X155045490Y-97219150D01*
X155045490Y-94712170D01*
X157552470Y-94712170D01*
X157552470Y-97219150D01*
G37*
G36*
X167352500Y-96003500D02*
G01*
X165447500Y-96003500D01*
X165447500Y-94606500D01*
X167352500Y-94606500D01*
X167352500Y-96003500D01*
G37*
G36*
X162368780Y-95797000D02*
G01*
X159031220Y-95797000D01*
X159031220Y-94527000D01*
X162368780Y-94527000D01*
X162368780Y-95797000D01*
G37*
G36*
X137592995Y-92162586D02*
G01*
X137839374Y-92264640D01*
X138061110Y-92412799D01*
X138249681Y-92601370D01*
X138397840Y-92823106D01*
X138499894Y-93069485D01*
X138551920Y-93331040D01*
X138551920Y-93597720D01*
X138499894Y-93859275D01*
X138397840Y-94105654D01*
X138249681Y-94327390D01*
X138061110Y-94515961D01*
X137839374Y-94664120D01*
X137592995Y-94766174D01*
X137331440Y-94818200D01*
X137064760Y-94818200D01*
X136803205Y-94766174D01*
X136556826Y-94664120D01*
X136335090Y-94515961D01*
X136146519Y-94327390D01*
X135998360Y-94105654D01*
X135896306Y-93859275D01*
X135844280Y-93597720D01*
X135844280Y-93331040D01*
X135896306Y-93069485D01*
X135998360Y-92823106D01*
X136146519Y-92601370D01*
X136335090Y-92412799D01*
X136556826Y-92264640D01*
X136803205Y-92162586D01*
X137064760Y-92110560D01*
X137331440Y-92110560D01*
X137592995Y-92162586D01*
G37*
G36*
X145554510Y-94718510D02*
G01*
X143047530Y-94718510D01*
X143047530Y-92211530D01*
X145554510Y-92211530D01*
X145554510Y-94718510D01*
G37*
G36*
X149552470Y-94718510D02*
G01*
X147045490Y-94718510D01*
X147045490Y-92211530D01*
X149552470Y-92211530D01*
X149552470Y-94718510D01*
G37*
G36*
X162368780Y-94273000D02*
G01*
X159031220Y-94273000D01*
X159031220Y-93003000D01*
X162368780Y-93003000D01*
X162368780Y-94273000D01*
G37*
G36*
X167352500Y-94098500D02*
G01*
X165447500Y-94098500D01*
X165447500Y-92701500D01*
X167352500Y-92701500D01*
X167352500Y-94098500D01*
G37*
G36*
X140094895Y-89663226D02*
G01*
X140341274Y-89765280D01*
X140563010Y-89913439D01*
X140751581Y-90102010D01*
X140899740Y-90323746D01*
X141001794Y-90570125D01*
X141053820Y-90831680D01*
X141053820Y-91098360D01*
X141001794Y-91359915D01*
X140899740Y-91606294D01*
X140751581Y-91828030D01*
X140563010Y-92016601D01*
X140341274Y-92164760D01*
X140094895Y-92266814D01*
X139833340Y-92318840D01*
X139566660Y-92318840D01*
X139305105Y-92266814D01*
X139058726Y-92164760D01*
X138836990Y-92016601D01*
X138648419Y-91828030D01*
X138500260Y-91606294D01*
X138398206Y-91359915D01*
X138346180Y-91098360D01*
X138346180Y-90831680D01*
X138398206Y-90570125D01*
X138500260Y-90323746D01*
X138648419Y-90102010D01*
X138836990Y-89913439D01*
X139058726Y-89765280D01*
X139305105Y-89663226D01*
X139566660Y-89611200D01*
X139833340Y-89611200D01*
X140094895Y-89663226D01*
G37*
G36*
X157552470Y-92217890D02*
G01*
X155045490Y-92217890D01*
X155045490Y-89710910D01*
X157552470Y-89710910D01*
X157552470Y-92217890D01*
G37*
G36*
X153554510Y-92217890D02*
G01*
X151047530Y-92217890D01*
X151047530Y-89710910D01*
X153554510Y-89710910D01*
X153554510Y-92217890D01*
G37*
G36*
X169652700Y-90551000D02*
G01*
X160737300Y-90551000D01*
X160737300Y-88519000D01*
X169652700Y-88519000D01*
X169652700Y-90551000D01*
G37*
G36*
X137592995Y-87163866D02*
G01*
X137839374Y-87265920D01*
X138061110Y-87414079D01*
X138249681Y-87602650D01*
X138397840Y-87824386D01*
X138499894Y-88070765D01*
X138551920Y-88332320D01*
X138551920Y-88599000D01*
X138499894Y-88860555D01*
X138397840Y-89106934D01*
X138249681Y-89328670D01*
X138061110Y-89517241D01*
X137839374Y-89665400D01*
X137592995Y-89767454D01*
X137331440Y-89819480D01*
X137064760Y-89819480D01*
X136803205Y-89767454D01*
X136556826Y-89665400D01*
X136335090Y-89517241D01*
X136146519Y-89328670D01*
X135998360Y-89106934D01*
X135896306Y-88860555D01*
X135844280Y-88599000D01*
X135844280Y-88332320D01*
X135896306Y-88070765D01*
X135998360Y-87824386D01*
X136146519Y-87602650D01*
X136335090Y-87414079D01*
X136556826Y-87265920D01*
X136803205Y-87163866D01*
X137064760Y-87111840D01*
X137331440Y-87111840D01*
X137592995Y-87163866D01*
G37*
G36*
X149552470Y-89719790D02*
G01*
X147045490Y-89719790D01*
X147045490Y-87212810D01*
X149552470Y-87212810D01*
X149552470Y-89719790D01*
G37*
G36*
X145554510Y-89719790D02*
G01*
X143047530Y-89719790D01*
X143047530Y-87212810D01*
X145554510Y-87212810D01*
X145554510Y-89719790D01*
G37*
G36*
X153892000Y-88379300D02*
G01*
X152495000Y-88379300D01*
X152495000Y-86474300D01*
X153892000Y-86474300D01*
X153892000Y-88379300D01*
G37*
G36*
X155797000Y-88379300D02*
G01*
X154400000Y-88379300D01*
X154400000Y-86474300D01*
X155797000Y-86474300D01*
X155797000Y-88379300D01*
G37*
G36*
X160496000Y-88277700D02*
G01*
X158464000Y-88277700D01*
X158464000Y-79362300D01*
X160496000Y-79362300D01*
X160496000Y-88277700D01*
G37*
G36*
X171926000Y-88277700D02*
G01*
X169894000Y-88277700D01*
X169894000Y-79362300D01*
X171926000Y-79362300D01*
X171926000Y-88277700D01*
G37*
G36*
X140094895Y-84664506D02*
G01*
X140341274Y-84766560D01*
X140563010Y-84914719D01*
X140751581Y-85103290D01*
X140899740Y-85325026D01*
X141001794Y-85571405D01*
X141053820Y-85832960D01*
X141053820Y-86099640D01*
X141001794Y-86361195D01*
X140899740Y-86607574D01*
X140751581Y-86829310D01*
X140563010Y-87017881D01*
X140341274Y-87166040D01*
X140094895Y-87268094D01*
X139833340Y-87320120D01*
X139566660Y-87320120D01*
X139305105Y-87268094D01*
X139058726Y-87166040D01*
X138836990Y-87017881D01*
X138648419Y-86829310D01*
X138500260Y-86607574D01*
X138398206Y-86361195D01*
X138346180Y-86099640D01*
X138346180Y-85832960D01*
X138398206Y-85571405D01*
X138500260Y-85325026D01*
X138648419Y-85103290D01*
X138836990Y-84914719D01*
X139058726Y-84766560D01*
X139305105Y-84664506D01*
X139566660Y-84612480D01*
X139833340Y-84612480D01*
X140094895Y-84664506D01*
G37*
G36*
X155136600Y-85082380D02*
G01*
X153866600Y-85082380D01*
X153866600Y-81744820D01*
X155136600Y-81744820D01*
X155136600Y-85082380D01*
G37*
G36*
X153612600Y-85082380D02*
G01*
X152342600Y-85082380D01*
X152342600Y-81744820D01*
X153612600Y-81744820D01*
X153612600Y-85082380D01*
G37*
G36*
X137592995Y-82162606D02*
G01*
X137839374Y-82264660D01*
X138061110Y-82412819D01*
X138249681Y-82601390D01*
X138397840Y-82823126D01*
X138499894Y-83069505D01*
X138551920Y-83331060D01*
X138551920Y-83597740D01*
X138499894Y-83859295D01*
X138397840Y-84105674D01*
X138249681Y-84327410D01*
X138061110Y-84515981D01*
X137839374Y-84664140D01*
X137592995Y-84766194D01*
X137331440Y-84818220D01*
X137064760Y-84818220D01*
X136803205Y-84766194D01*
X136556826Y-84664140D01*
X136335090Y-84515981D01*
X136146519Y-84327410D01*
X135998360Y-84105674D01*
X135896306Y-83859295D01*
X135844280Y-83597740D01*
X135844280Y-83331060D01*
X135896306Y-83069505D01*
X135998360Y-82823126D01*
X136146519Y-82601390D01*
X136335090Y-82412819D01*
X136556826Y-82264660D01*
X136803205Y-82162606D01*
X137064760Y-82110580D01*
X137331440Y-82110580D01*
X137592995Y-82162606D01*
G37*
G36*
X140094895Y-79663246D02*
G01*
X140341274Y-79765300D01*
X140563010Y-79913459D01*
X140751581Y-80102030D01*
X140899740Y-80323766D01*
X141001794Y-80570145D01*
X141053820Y-80831700D01*
X141053820Y-81098380D01*
X141001794Y-81359935D01*
X140899740Y-81606314D01*
X140751581Y-81828050D01*
X140563010Y-82016621D01*
X140341274Y-82164780D01*
X140094895Y-82266834D01*
X139833340Y-82318860D01*
X139566660Y-82318860D01*
X139305105Y-82266834D01*
X139058726Y-82164780D01*
X138836990Y-82016621D01*
X138648419Y-81828050D01*
X138500260Y-81606314D01*
X138398206Y-81359935D01*
X138346180Y-81098380D01*
X138346180Y-80831700D01*
X138398206Y-80570145D01*
X138500260Y-80323766D01*
X138648419Y-80102030D01*
X138836990Y-79913459D01*
X139058726Y-79765300D01*
X139305105Y-79663246D01*
X139566660Y-79611220D01*
X139833340Y-79611220D01*
X140094895Y-79663246D01*
G37*
G36*
X175052500Y-81951000D02*
G01*
X173147500Y-81951000D01*
X173147500Y-80554000D01*
X175052500Y-80554000D01*
X175052500Y-81951000D01*
G37*
G36*
X153668307Y-79296574D02*
G01*
X153699793Y-79299675D01*
X153741961Y-79312466D01*
X153754836Y-79316372D01*
X153763717Y-79320051D01*
X153787750Y-79324831D01*
X153812254Y-79324831D01*
X153836287Y-79320050D01*
X153845168Y-79316371D01*
X153852328Y-79314199D01*
X153900207Y-79299675D01*
X153931693Y-79296574D01*
X153956141Y-79294166D01*
X154443860Y-79294166D01*
X154462196Y-79295972D01*
X154474448Y-79296574D01*
X154492868Y-79296574D01*
X154535018Y-79300725D01*
X154548802Y-79302083D01*
X154548803Y-79302083D01*
X154554944Y-79302688D01*
X154639029Y-79319414D01*
X154644931Y-79321204D01*
X154644935Y-79321205D01*
X154664437Y-79327121D01*
X154698723Y-79337521D01*
X154777926Y-79370327D01*
X154832933Y-79399729D01*
X154904227Y-79447367D01*
X154952438Y-79486932D01*
X155013068Y-79547562D01*
X155052633Y-79595773D01*
X155100271Y-79667067D01*
X155129673Y-79722074D01*
X155162479Y-79801277D01*
X155180586Y-79860971D01*
X155197312Y-79945056D01*
X155203426Y-80007132D01*
X155203426Y-80025552D01*
X155204028Y-80037804D01*
X155205834Y-80056140D01*
X155205834Y-80543860D01*
X155204028Y-80562196D01*
X155203426Y-80574448D01*
X155203426Y-80592868D01*
X155197312Y-80654944D01*
X155180586Y-80739029D01*
X155162479Y-80798723D01*
X155129673Y-80877926D01*
X155100271Y-80932933D01*
X155052633Y-81004227D01*
X155013068Y-81052438D01*
X154952438Y-81113068D01*
X154904227Y-81152633D01*
X154832933Y-81200271D01*
X154777926Y-81229673D01*
X154698723Y-81262479D01*
X154664437Y-81272879D01*
X154644935Y-81278795D01*
X154644931Y-81278796D01*
X154639029Y-81280586D01*
X154554944Y-81297312D01*
X154548803Y-81297917D01*
X154548802Y-81297917D01*
X154535018Y-81299275D01*
X154492868Y-81303426D01*
X154474448Y-81303426D01*
X154462196Y-81304028D01*
X154443860Y-81305834D01*
X153956141Y-81305834D01*
X153925550Y-81302821D01*
X153900207Y-81300325D01*
X153852328Y-81285801D01*
X153845164Y-81283628D01*
X153836283Y-81279949D01*
X153812250Y-81275169D01*
X153787746Y-81275169D01*
X153763713Y-81279950D01*
X153754832Y-81283629D01*
X153747672Y-81285801D01*
X153699793Y-81300325D01*
X153674450Y-81302821D01*
X153643859Y-81305834D01*
X153156140Y-81305834D01*
X153137804Y-81304028D01*
X153125552Y-81303426D01*
X153107132Y-81303426D01*
X153064982Y-81299275D01*
X153051198Y-81297917D01*
X153051197Y-81297917D01*
X153045056Y-81297312D01*
X152960971Y-81280586D01*
X152955069Y-81278796D01*
X152955065Y-81278795D01*
X152935563Y-81272879D01*
X152901277Y-81262479D01*
X152822074Y-81229673D01*
X152767067Y-81200271D01*
X152695773Y-81152633D01*
X152647562Y-81113068D01*
X152586932Y-81052438D01*
X152547367Y-81004227D01*
X152499729Y-80932933D01*
X152470327Y-80877926D01*
X152437521Y-80798723D01*
X152419414Y-80739029D01*
X152402688Y-80654944D01*
X152396574Y-80592868D01*
X152396574Y-80574448D01*
X152395972Y-80562196D01*
X152394166Y-80543860D01*
X152394166Y-80056140D01*
X152395972Y-80037804D01*
X152396574Y-80025552D01*
X152396574Y-80007132D01*
X152402688Y-79945056D01*
X152419414Y-79860971D01*
X152437521Y-79801277D01*
X152470327Y-79722074D01*
X152499729Y-79667067D01*
X152547367Y-79595773D01*
X152586932Y-79547562D01*
X152647562Y-79486932D01*
X152695773Y-79447367D01*
X152767067Y-79399729D01*
X152822074Y-79370327D01*
X152901277Y-79337521D01*
X152935563Y-79327121D01*
X152955065Y-79321205D01*
X152955069Y-79321204D01*
X152960971Y-79319414D01*
X153045056Y-79302688D01*
X153051197Y-79302083D01*
X153051198Y-79302083D01*
X153064982Y-79300725D01*
X153107132Y-79296574D01*
X153125552Y-79296574D01*
X153137804Y-79295972D01*
X153156140Y-79294166D01*
X153643859Y-79294166D01*
X153668307Y-79296574D01*
G37*
G36*
X175052500Y-80046000D02*
G01*
X173147500Y-80046000D01*
X173147500Y-78649000D01*
X175052500Y-78649000D01*
X175052500Y-80046000D01*
G37*
G36*
X137592995Y-77163886D02*
G01*
X137839374Y-77265940D01*
X138061110Y-77414099D01*
X138249681Y-77602670D01*
X138397840Y-77824406D01*
X138499894Y-78070785D01*
X138551920Y-78332340D01*
X138551920Y-78599020D01*
X138499894Y-78860575D01*
X138397840Y-79106954D01*
X138249681Y-79328690D01*
X138061110Y-79517261D01*
X137839374Y-79665420D01*
X137592995Y-79767474D01*
X137331440Y-79819500D01*
X137064760Y-79819500D01*
X136803205Y-79767474D01*
X136556826Y-79665420D01*
X136335090Y-79517261D01*
X136146519Y-79328690D01*
X135998360Y-79106954D01*
X135896306Y-78860575D01*
X135844280Y-78599020D01*
X135844280Y-78332340D01*
X135896306Y-78070785D01*
X135998360Y-77824406D01*
X136146519Y-77602670D01*
X136335090Y-77414099D01*
X136556826Y-77265940D01*
X136803205Y-77163886D01*
X137064760Y-77111860D01*
X137331440Y-77111860D01*
X137592995Y-77163886D01*
G37*
G36*
X145554510Y-79718530D02*
G01*
X143047530Y-79718530D01*
X143047530Y-77211550D01*
X145554510Y-77211550D01*
X145554510Y-79718530D01*
G37*
G36*
X149552470Y-79718530D02*
G01*
X147045490Y-79718530D01*
X147045490Y-77211550D01*
X149552470Y-77211550D01*
X149552470Y-79718530D01*
G37*
G36*
X169652700Y-79121000D02*
G01*
X160737300Y-79121000D01*
X160737300Y-77089000D01*
X169652700Y-77089000D01*
X169652700Y-79121000D01*
G37*
G36*
X140094895Y-74664526D02*
G01*
X140341274Y-74766580D01*
X140563010Y-74914739D01*
X140751581Y-75103310D01*
X140899740Y-75325046D01*
X141001794Y-75571425D01*
X141053820Y-75832980D01*
X141053820Y-76099660D01*
X141001794Y-76361215D01*
X140899740Y-76607594D01*
X140751581Y-76829330D01*
X140563010Y-77017901D01*
X140341274Y-77166060D01*
X140094895Y-77268114D01*
X139833340Y-77320140D01*
X139566660Y-77320140D01*
X139305105Y-77268114D01*
X139058726Y-77166060D01*
X138836990Y-77017901D01*
X138648419Y-76829330D01*
X138500260Y-76607594D01*
X138398206Y-76361215D01*
X138346180Y-76099660D01*
X138346180Y-75832980D01*
X138398206Y-75571425D01*
X138500260Y-75325046D01*
X138648419Y-75103310D01*
X138836990Y-74914739D01*
X139058726Y-74766580D01*
X139305105Y-74664526D01*
X139566660Y-74612500D01*
X139833340Y-74612500D01*
X140094895Y-74664526D01*
G37*
G36*
X157552470Y-77219170D02*
G01*
X155045490Y-77219170D01*
X155045490Y-74712190D01*
X157552470Y-74712190D01*
X157552470Y-77219170D01*
G37*
G36*
X153554510Y-77219170D02*
G01*
X151047530Y-77219170D01*
X151047530Y-74712190D01*
X153554510Y-74712190D01*
X153554510Y-77219170D01*
G37*
G36*
X171807926Y-74067029D02*
G01*
X171873356Y-74080044D01*
X172058256Y-74156632D01*
X172224662Y-74267821D01*
X172366179Y-74409338D01*
X172477368Y-74575744D01*
X172533886Y-74712190D01*
X172553956Y-74760645D01*
X172584608Y-74914740D01*
X172593000Y-74956933D01*
X172593000Y-75157067D01*
X172553956Y-75353356D01*
X172477368Y-75538256D01*
X172366179Y-75704662D01*
X172224662Y-75846179D01*
X172058256Y-75957368D01*
X171873356Y-76033956D01*
X171807926Y-76046971D01*
X171677069Y-76073000D01*
X171476931Y-76073000D01*
X171346074Y-76046971D01*
X171280644Y-76033956D01*
X171095744Y-75957368D01*
X170929338Y-75846179D01*
X170787821Y-75704662D01*
X170676632Y-75538256D01*
X170600044Y-75353356D01*
X170561000Y-75157067D01*
X170561000Y-74956933D01*
X170569393Y-74914740D01*
X170600044Y-74760645D01*
X170620115Y-74712190D01*
X170676632Y-74575744D01*
X170787821Y-74409338D01*
X170929338Y-74267821D01*
X171095744Y-74156632D01*
X171280644Y-74080044D01*
X171346074Y-74067029D01*
X171476931Y-74041000D01*
X171677069Y-74041000D01*
X171807926Y-74067029D01*
G37*
G36*
X175133000Y-76073000D02*
G01*
X173101000Y-76073000D01*
X173101000Y-74041000D01*
X175133000Y-74041000D01*
X175133000Y-76073000D01*
G37*
G36*
X167046000Y-75152500D02*
G01*
X165649000Y-75152500D01*
X165649000Y-73247500D01*
X167046000Y-73247500D01*
X167046000Y-75152500D01*
G37*
G36*
X168951000Y-75152500D02*
G01*
X167554000Y-75152500D01*
X167554000Y-73247500D01*
X168951000Y-73247500D01*
X168951000Y-75152500D01*
G37*
G36*
X137592995Y-72162626D02*
G01*
X137839374Y-72264680D01*
X138061110Y-72412839D01*
X138249681Y-72601410D01*
X138397840Y-72823146D01*
X138499894Y-73069525D01*
X138551920Y-73331080D01*
X138551920Y-73597760D01*
X138499894Y-73859315D01*
X138397840Y-74105694D01*
X138249681Y-74327430D01*
X138061110Y-74516001D01*
X137839374Y-74664160D01*
X137592995Y-74766214D01*
X137331440Y-74818240D01*
X137064760Y-74818240D01*
X136803205Y-74766214D01*
X136556826Y-74664160D01*
X136335090Y-74516001D01*
X136146519Y-74327430D01*
X135998360Y-74105694D01*
X135896306Y-73859315D01*
X135844280Y-73597760D01*
X135844280Y-73331080D01*
X135896306Y-73069525D01*
X135998360Y-72823146D01*
X136146519Y-72601410D01*
X136335090Y-72412839D01*
X136556826Y-72264680D01*
X136803205Y-72162626D01*
X137064760Y-72110600D01*
X137331440Y-72110600D01*
X137592995Y-72162626D01*
G37*
G36*
X149552470Y-74719810D02*
G01*
X147045490Y-74719810D01*
X147045490Y-72212830D01*
X149552470Y-72212830D01*
X149552470Y-74719810D01*
G37*
G36*
X145554510Y-74719810D02*
G01*
X143047530Y-74719810D01*
X143047530Y-72212830D01*
X145554510Y-72212830D01*
X145554510Y-74719810D01*
G37*
G36*
X174347926Y-71527029D02*
G01*
X174413356Y-71540044D01*
X174598256Y-71616632D01*
X174764662Y-71727821D01*
X174906179Y-71869338D01*
X175017368Y-72035744D01*
X175093956Y-72220644D01*
X175133000Y-72416933D01*
X175133000Y-72617067D01*
X175093956Y-72813356D01*
X175017368Y-72998256D01*
X174906179Y-73164662D01*
X174764662Y-73306179D01*
X174598256Y-73417368D01*
X174413356Y-73493956D01*
X174347926Y-73506971D01*
X174217069Y-73533000D01*
X174016931Y-73533000D01*
X173886074Y-73506971D01*
X173820644Y-73493956D01*
X173635744Y-73417368D01*
X173469338Y-73306179D01*
X173327821Y-73164662D01*
X173216632Y-72998256D01*
X173140044Y-72813356D01*
X173101000Y-72617067D01*
X173101000Y-72416933D01*
X173140044Y-72220644D01*
X173216632Y-72035744D01*
X173327821Y-71869338D01*
X173469338Y-71727821D01*
X173635744Y-71616632D01*
X173820644Y-71540044D01*
X173886074Y-71527029D01*
X174016931Y-71501000D01*
X174217069Y-71501000D01*
X174347926Y-71527029D01*
G37*
G36*
X171807926Y-71527029D02*
G01*
X171873356Y-71540044D01*
X172058256Y-71616632D01*
X172224662Y-71727821D01*
X172366179Y-71869338D01*
X172477368Y-72035744D01*
X172553956Y-72220644D01*
X172593000Y-72416933D01*
X172593000Y-72617067D01*
X172553956Y-72813356D01*
X172477368Y-72998256D01*
X172366179Y-73164662D01*
X172224662Y-73306179D01*
X172058256Y-73417368D01*
X171873356Y-73493956D01*
X171807926Y-73506971D01*
X171677069Y-73533000D01*
X171476931Y-73533000D01*
X171346074Y-73506971D01*
X171280644Y-73493956D01*
X171095744Y-73417368D01*
X170929338Y-73306179D01*
X170787821Y-73164662D01*
X170676632Y-72998256D01*
X170600044Y-72813356D01*
X170561000Y-72617067D01*
X170561000Y-72416933D01*
X170600044Y-72220644D01*
X170676632Y-72035744D01*
X170787821Y-71869338D01*
X170929338Y-71727821D01*
X171095744Y-71616632D01*
X171280644Y-71540044D01*
X171346074Y-71527029D01*
X171476931Y-71501000D01*
X171677069Y-71501000D01*
X171807926Y-71527029D01*
G37*
G36*
X164868780Y-73397000D02*
G01*
X161531220Y-73397000D01*
X161531220Y-72127000D01*
X164868780Y-72127000D01*
X164868780Y-73397000D01*
G37*
G36*
X140094895Y-69663266D02*
G01*
X140341274Y-69765320D01*
X140563010Y-69913479D01*
X140751581Y-70102050D01*
X140899740Y-70323786D01*
X141001794Y-70570165D01*
X141053820Y-70831720D01*
X141053820Y-71098400D01*
X141001794Y-71359955D01*
X140899740Y-71606334D01*
X140751581Y-71828070D01*
X140563010Y-72016641D01*
X140341274Y-72164800D01*
X140094895Y-72266854D01*
X139833340Y-72318880D01*
X139566660Y-72318880D01*
X139305105Y-72266854D01*
X139058726Y-72164800D01*
X138836990Y-72016641D01*
X138648419Y-71828070D01*
X138500260Y-71606334D01*
X138398206Y-71359955D01*
X138346180Y-71098400D01*
X138346180Y-70831720D01*
X138398206Y-70570165D01*
X138500260Y-70323786D01*
X138648419Y-70102050D01*
X138836990Y-69913479D01*
X139058726Y-69765320D01*
X139305105Y-69663266D01*
X139566660Y-69611240D01*
X139833340Y-69611240D01*
X140094895Y-69663266D01*
G37*
G36*
X157552470Y-72217910D02*
G01*
X155045490Y-72217910D01*
X155045490Y-69710930D01*
X157552470Y-69710930D01*
X157552470Y-72217910D01*
G37*
G36*
X153554510Y-72217910D02*
G01*
X151047530Y-72217910D01*
X151047530Y-69710930D01*
X153554510Y-69710930D01*
X153554510Y-72217910D01*
G37*
G36*
X164868780Y-71873000D02*
G01*
X161531220Y-71873000D01*
X161531220Y-70603000D01*
X164868780Y-70603000D01*
X164868780Y-71873000D01*
G37*
G36*
X167046000Y-71552500D02*
G01*
X165649000Y-71552500D01*
X165649000Y-69647500D01*
X167046000Y-69647500D01*
X167046000Y-71552500D01*
G37*
G36*
X168951000Y-71552500D02*
G01*
X167554000Y-71552500D01*
X167554000Y-69647500D01*
X168951000Y-69647500D01*
X168951000Y-71552500D01*
G37*
G36*
X174347926Y-68987029D02*
G01*
X174413356Y-69000044D01*
X174598256Y-69076632D01*
X174764662Y-69187821D01*
X174906179Y-69329338D01*
X175017368Y-69495744D01*
X175086758Y-69663266D01*
X175093956Y-69680645D01*
X175133000Y-69876931D01*
X175133000Y-70077069D01*
X175106971Y-70207926D01*
X175093956Y-70273356D01*
X175017368Y-70458256D01*
X174906179Y-70624662D01*
X174764662Y-70766179D01*
X174598256Y-70877368D01*
X174413356Y-70953956D01*
X174347926Y-70966971D01*
X174217069Y-70993000D01*
X174016931Y-70993000D01*
X173886074Y-70966971D01*
X173820644Y-70953956D01*
X173635744Y-70877368D01*
X173469338Y-70766179D01*
X173327821Y-70624662D01*
X173216632Y-70458256D01*
X173140044Y-70273356D01*
X173127029Y-70207926D01*
X173101000Y-70077069D01*
X173101000Y-69876931D01*
X173140044Y-69680645D01*
X173147243Y-69663266D01*
X173216632Y-69495744D01*
X173327821Y-69329338D01*
X173469338Y-69187821D01*
X173635744Y-69076632D01*
X173820644Y-69000044D01*
X173886074Y-68987029D01*
X174016931Y-68961000D01*
X174217069Y-68961000D01*
X174347926Y-68987029D01*
G37*
G36*
X171807926Y-68987029D02*
G01*
X171873356Y-69000044D01*
X172058256Y-69076632D01*
X172224662Y-69187821D01*
X172366179Y-69329338D01*
X172477368Y-69495744D01*
X172546758Y-69663266D01*
X172553956Y-69680645D01*
X172593000Y-69876931D01*
X172593000Y-70077069D01*
X172566971Y-70207926D01*
X172553956Y-70273356D01*
X172477368Y-70458256D01*
X172366179Y-70624662D01*
X172224662Y-70766179D01*
X172058256Y-70877368D01*
X171873356Y-70953956D01*
X171807926Y-70966971D01*
X171677069Y-70993000D01*
X171476931Y-70993000D01*
X171346074Y-70966971D01*
X171280644Y-70953956D01*
X171095744Y-70877368D01*
X170929338Y-70766179D01*
X170787821Y-70624662D01*
X170676632Y-70458256D01*
X170600044Y-70273356D01*
X170587029Y-70207926D01*
X170561000Y-70077069D01*
X170561000Y-69876931D01*
X170600044Y-69680645D01*
X170607243Y-69663266D01*
X170676632Y-69495744D01*
X170787821Y-69329338D01*
X170929338Y-69187821D01*
X171095744Y-69076632D01*
X171280644Y-69000044D01*
X171346074Y-68987029D01*
X171476931Y-68961000D01*
X171677069Y-68961000D01*
X171807926Y-68987029D01*
G37*
G36*
X137592995Y-67163906D02*
G01*
X137839374Y-67265960D01*
X138061110Y-67414119D01*
X138249681Y-67602690D01*
X138397840Y-67824426D01*
X138499894Y-68070805D01*
X138551920Y-68332360D01*
X138551920Y-68599040D01*
X138499894Y-68860595D01*
X138397840Y-69106974D01*
X138249681Y-69328710D01*
X138061110Y-69517281D01*
X137839374Y-69665440D01*
X137592995Y-69767494D01*
X137331440Y-69819520D01*
X137064760Y-69819520D01*
X136803205Y-69767494D01*
X136556826Y-69665440D01*
X136335090Y-69517281D01*
X136146519Y-69328710D01*
X135998360Y-69106974D01*
X135896306Y-68860595D01*
X135844280Y-68599040D01*
X135844280Y-68332360D01*
X135896306Y-68070805D01*
X135998360Y-67824426D01*
X136146519Y-67602690D01*
X136335090Y-67414119D01*
X136556826Y-67265960D01*
X136803205Y-67163906D01*
X137064760Y-67111880D01*
X137331440Y-67111880D01*
X137592995Y-67163906D01*
G37*
G36*
X145554510Y-69718550D02*
G01*
X143047530Y-69718550D01*
X143047530Y-67211570D01*
X145554510Y-67211570D01*
X145554510Y-69718550D01*
G37*
G36*
X149552470Y-69718550D02*
G01*
X147045490Y-69718550D01*
X147045490Y-67211570D01*
X149552470Y-67211570D01*
X149552470Y-69718550D01*
G37*
G36*
X174651000Y-67752500D02*
G01*
X173254000Y-67752500D01*
X173254000Y-65847500D01*
X174651000Y-65847500D01*
X174651000Y-67752500D01*
G37*
G36*
X172746000Y-67752500D02*
G01*
X171349000Y-67752500D01*
X171349000Y-65847500D01*
X172746000Y-65847500D01*
X172746000Y-67752500D01*
G37*
G36*
X140094895Y-64664546D02*
G01*
X140341274Y-64766600D01*
X140563010Y-64914759D01*
X140751581Y-65103330D01*
X140899740Y-65325066D01*
X141001794Y-65571445D01*
X141053820Y-65833000D01*
X141053820Y-66099680D01*
X141001794Y-66361235D01*
X140899740Y-66607614D01*
X140751581Y-66829350D01*
X140563010Y-67017921D01*
X140341274Y-67166080D01*
X140094895Y-67268134D01*
X139833340Y-67320160D01*
X139566660Y-67320160D01*
X139305105Y-67268134D01*
X139058726Y-67166080D01*
X138836990Y-67017921D01*
X138648419Y-66829350D01*
X138500260Y-66607614D01*
X138398206Y-66361235D01*
X138346180Y-66099680D01*
X138346180Y-65833000D01*
X138398206Y-65571445D01*
X138500260Y-65325066D01*
X138648419Y-65103330D01*
X138836990Y-64914759D01*
X139058726Y-64766600D01*
X139305105Y-64664546D01*
X139566660Y-64612520D01*
X139833340Y-64612520D01*
X140094895Y-64664546D01*
G37*
G36*
X157552470Y-67219190D02*
G01*
X155045490Y-67219190D01*
X155045490Y-64712210D01*
X157552470Y-64712210D01*
X157552470Y-67219190D01*
G37*
G36*
X153554510Y-67219190D02*
G01*
X151047530Y-67219190D01*
X151047530Y-64712210D01*
X153554510Y-64712210D01*
X153554510Y-67219190D01*
G37*
G36*
X137595535Y-62162646D02*
G01*
X137841914Y-62264700D01*
X138063650Y-62412859D01*
X138252221Y-62601430D01*
X138400380Y-62823166D01*
X138502434Y-63069545D01*
X138554460Y-63331100D01*
X138554460Y-63597780D01*
X138502434Y-63859335D01*
X138400380Y-64105714D01*
X138252221Y-64327450D01*
X138063650Y-64516021D01*
X137841914Y-64664180D01*
X137595535Y-64766234D01*
X137333980Y-64818260D01*
X137067300Y-64818260D01*
X136805745Y-64766234D01*
X136559366Y-64664180D01*
X136337630Y-64516021D01*
X136149059Y-64327450D01*
X136000900Y-64105714D01*
X135898846Y-63859335D01*
X135846820Y-63597780D01*
X135846820Y-63331100D01*
X135898846Y-63069545D01*
X136000900Y-62823166D01*
X136149059Y-62601430D01*
X136337630Y-62412859D01*
X136559366Y-62264700D01*
X136805745Y-62162646D01*
X137067300Y-62110620D01*
X137333980Y-62110620D01*
X137595535Y-62162646D01*
G37*
G36*
X149552470Y-64719830D02*
G01*
X147045490Y-64719830D01*
X147045490Y-62212850D01*
X149552470Y-62212850D01*
X149552470Y-64719830D01*
G37*
G36*
X145554510Y-64719830D02*
G01*
X143047530Y-64719830D01*
X143047530Y-62212850D01*
X145554510Y-62212850D01*
X145554510Y-64719830D01*
G37*
G36*
X140094895Y-59663286D02*
G01*
X140341274Y-59765340D01*
X140563010Y-59913499D01*
X140751581Y-60102070D01*
X140899740Y-60323806D01*
X141001794Y-60570185D01*
X141053820Y-60831740D01*
X141053820Y-61098420D01*
X141001794Y-61359975D01*
X140899740Y-61606354D01*
X140751581Y-61828090D01*
X140563010Y-62016661D01*
X140341274Y-62164820D01*
X140094895Y-62266874D01*
X139833340Y-62318900D01*
X139566660Y-62318900D01*
X139305105Y-62266874D01*
X139058726Y-62164820D01*
X138836990Y-62016661D01*
X138648419Y-61828090D01*
X138500260Y-61606354D01*
X138398206Y-61359975D01*
X138346180Y-61098420D01*
X138346180Y-60831740D01*
X138398206Y-60570185D01*
X138500260Y-60323806D01*
X138648419Y-60102070D01*
X138836990Y-59913499D01*
X139058726Y-59765340D01*
X139305105Y-59663286D01*
X139566660Y-59611260D01*
X139833340Y-59611260D01*
X140094895Y-59663286D01*
G37*
G36*
X153554510Y-62217930D02*
G01*
X151047530Y-62217930D01*
X151047530Y-59710950D01*
X153554510Y-59710950D01*
X153554510Y-62217930D01*
G37*
G36*
X157552470Y-62217930D02*
G01*
X155045490Y-62217930D01*
X155045490Y-59710950D01*
X157552470Y-59710950D01*
X157552470Y-62217930D01*
G37*
G36*
X135283302Y-56538674D02*
G01*
X135648017Y-56689744D01*
X135648018Y-56689745D01*
X135976254Y-56909065D01*
X136255395Y-57188206D01*
X136255396Y-57188208D01*
X136474716Y-57516443D01*
X136625786Y-57881158D01*
X136702800Y-58268336D01*
X136702800Y-58663104D01*
X136625786Y-59050282D01*
X136474716Y-59414997D01*
X136474715Y-59414998D01*
X136255395Y-59743234D01*
X135976254Y-60022375D01*
X135856982Y-60102070D01*
X135648017Y-60241696D01*
X135283302Y-60392766D01*
X134896124Y-60469780D01*
X134501356Y-60469780D01*
X134114178Y-60392766D01*
X133749463Y-60241696D01*
X133540498Y-60102070D01*
X133421226Y-60022375D01*
X133142085Y-59743234D01*
X132922765Y-59414998D01*
X132922764Y-59414997D01*
X132771694Y-59050282D01*
X132694680Y-58663104D01*
X132694680Y-58268336D01*
X132771694Y-57881158D01*
X132922764Y-57516443D01*
X133142084Y-57188208D01*
X133142085Y-57188206D01*
X133421226Y-56909065D01*
X133749462Y-56689745D01*
X133749463Y-56689744D01*
X134114178Y-56538674D01*
X134501356Y-56461660D01*
X134896124Y-56461660D01*
X135283302Y-56538674D01*
G37*
G36*
X174362610Y-51542350D02*
G01*
X174991270Y-51802750D01*
X174991272Y-51802751D01*
X175133676Y-51897903D01*
X175557051Y-52180792D01*
X176038208Y-52661949D01*
X176416250Y-53227730D01*
X176676650Y-53856390D01*
X176809400Y-54523770D01*
X176809400Y-55204230D01*
X176676650Y-55871610D01*
X176432243Y-56461660D01*
X176416249Y-56500272D01*
X176390589Y-56538675D01*
X176038208Y-57066051D01*
X175557051Y-57547208D01*
X175133676Y-57830097D01*
X174991272Y-57925249D01*
X174991271Y-57925250D01*
X174991270Y-57925250D01*
X174362610Y-58185650D01*
X173695230Y-58318400D01*
X173014770Y-58318400D01*
X172347390Y-58185650D01*
X171718730Y-57925250D01*
X171718729Y-57925250D01*
X171718728Y-57925249D01*
X171576324Y-57830097D01*
X171152949Y-57547208D01*
X170671792Y-57066051D01*
X170319411Y-56538675D01*
X170293751Y-56500272D01*
X170277757Y-56461660D01*
X170033350Y-55871610D01*
X169900600Y-55204230D01*
X169900600Y-54523770D01*
X170033350Y-53856390D01*
X170293750Y-53227730D01*
X170671792Y-52661949D01*
X171152949Y-52180792D01*
X171576324Y-51897903D01*
X171718728Y-51802751D01*
X171718730Y-51802750D01*
X172347390Y-51542350D01*
X173014770Y-51409600D01*
X173695230Y-51409600D01*
X174362610Y-51542350D01*
G37*
G36*
X146295610Y-51542350D02*
G01*
X146924270Y-51802750D01*
X146924272Y-51802751D01*
X147066676Y-51897903D01*
X147490051Y-52180792D01*
X147971208Y-52661949D01*
X148349250Y-53227730D01*
X148609650Y-53856390D01*
X148742400Y-54523770D01*
X148742400Y-55204230D01*
X148609650Y-55871610D01*
X148365243Y-56461660D01*
X148349249Y-56500272D01*
X148323589Y-56538675D01*
X147971208Y-57066051D01*
X147490051Y-57547208D01*
X147066676Y-57830097D01*
X146924272Y-57925249D01*
X146924271Y-57925250D01*
X146924270Y-57925250D01*
X146295610Y-58185650D01*
X145628230Y-58318400D01*
X144947770Y-58318400D01*
X144280390Y-58185650D01*
X143651730Y-57925250D01*
X143651729Y-57925250D01*
X143651728Y-57925249D01*
X143509324Y-57830097D01*
X143085949Y-57547208D01*
X142604792Y-57066051D01*
X142252411Y-56538675D01*
X142226751Y-56500272D01*
X142210757Y-56461660D01*
X141966350Y-55871610D01*
X141833600Y-55204230D01*
X141833600Y-54523770D01*
X141966350Y-53856390D01*
X142226750Y-53227730D01*
X142604792Y-52661949D01*
X143085949Y-52180792D01*
X143509324Y-51897903D01*
X143651728Y-51802751D01*
X143651730Y-51802750D01*
X144280390Y-51542350D01*
X144947770Y-51409600D01*
X145628230Y-51409600D01*
X146295610Y-51542350D01*
G37*
M02*
