G04 #@! TF.GenerationSoftware,KiCad,Pcbnew,(5.1.5)-3*
G04 #@! TF.CreationDate,2021-08-30T19:44:14+02:00*
G04 #@! TF.ProjectId,sbk6,73626b36-2e6b-4696-9361-645f70636258,0426 -*
G04 #@! TF.SameCoordinates,Original*
G04 #@! TF.FileFunction,Legend,Top*
G04 #@! TF.FilePolarity,Positive*
%FSLAX46Y46*%
G04 Gerber Fmt 4.6, Leading zero omitted, Abs format (unit mm)*
G04 Created by KiCad (PCBNEW (5.1.5)-3) date 2021-08-30 19:44:14*
%MOMM*%
%LPD*%
G04 APERTURE LIST*
%ADD10C,0.304800*%
%ADD11C,0.127000*%
%ADD12C,0.203200*%
%ADD13C,0.381000*%
%ADD14C,0.254000*%
%ADD15C,0.119380*%
G04 APERTURE END LIST*
D10*
X68688857Y-150779238D02*
X68688857Y-148747238D01*
X69196857Y-150198666D01*
X69704857Y-148747238D01*
X69704857Y-150779238D01*
X70212857Y-148747238D02*
X70720857Y-150779238D01*
X71228857Y-148747238D01*
X150694571Y-55595761D02*
X150767142Y-55499000D01*
X150912285Y-55402238D01*
X151275142Y-55402238D01*
X151420285Y-55499000D01*
X151492857Y-55595761D01*
X151565428Y-55789285D01*
X151565428Y-55982809D01*
X151492857Y-56273095D01*
X150622000Y-57434238D01*
X151565428Y-57434238D01*
X152508857Y-55402238D02*
X152654000Y-55402238D01*
X152799142Y-55499000D01*
X152871714Y-55595761D01*
X152944285Y-55789285D01*
X153016857Y-56176333D01*
X153016857Y-56660142D01*
X152944285Y-57047190D01*
X152871714Y-57240714D01*
X152799142Y-57337476D01*
X152654000Y-57434238D01*
X152508857Y-57434238D01*
X152363714Y-57337476D01*
X152291142Y-57240714D01*
X152218571Y-57047190D01*
X152146000Y-56660142D01*
X152146000Y-56176333D01*
X152218571Y-55789285D01*
X152291142Y-55595761D01*
X152363714Y-55499000D01*
X152508857Y-55402238D01*
X154468285Y-57434238D02*
X153597428Y-57434238D01*
X154032857Y-57434238D02*
X154032857Y-55402238D01*
X153887714Y-55692523D01*
X153742571Y-55886047D01*
X153597428Y-55982809D01*
X155048857Y-55595761D02*
X155121428Y-55499000D01*
X155266571Y-55402238D01*
X155629428Y-55402238D01*
X155774571Y-55499000D01*
X155847142Y-55595761D01*
X155919714Y-55789285D01*
X155919714Y-55982809D01*
X155847142Y-56273095D01*
X154976285Y-57434238D01*
X155919714Y-57434238D01*
X156863142Y-55402238D02*
X157008285Y-55402238D01*
X157153428Y-55499000D01*
X157226000Y-55595761D01*
X157298571Y-55789285D01*
X157371142Y-56176333D01*
X157371142Y-56660142D01*
X157298571Y-57047190D01*
X157226000Y-57240714D01*
X157153428Y-57337476D01*
X157008285Y-57434238D01*
X156863142Y-57434238D01*
X156718000Y-57337476D01*
X156645428Y-57240714D01*
X156572857Y-57047190D01*
X156500285Y-56660142D01*
X156500285Y-56176333D01*
X156572857Y-55789285D01*
X156645428Y-55595761D01*
X156718000Y-55499000D01*
X156863142Y-55402238D01*
X157879142Y-55402238D02*
X158895142Y-55402238D01*
X158242000Y-57434238D01*
X159766000Y-55402238D02*
X159911142Y-55402238D01*
X160056285Y-55499000D01*
X160128857Y-55595761D01*
X160201428Y-55789285D01*
X160274000Y-56176333D01*
X160274000Y-56660142D01*
X160201428Y-57047190D01*
X160128857Y-57240714D01*
X160056285Y-57337476D01*
X159911142Y-57434238D01*
X159766000Y-57434238D01*
X159620857Y-57337476D01*
X159548285Y-57240714D01*
X159475714Y-57047190D01*
X159403142Y-56660142D01*
X159403142Y-56176333D01*
X159475714Y-55789285D01*
X159548285Y-55595761D01*
X159620857Y-55499000D01*
X159766000Y-55402238D01*
X160782000Y-55402238D02*
X161725428Y-55402238D01*
X161217428Y-56176333D01*
X161435142Y-56176333D01*
X161580285Y-56273095D01*
X161652857Y-56369857D01*
X161725428Y-56563380D01*
X161725428Y-57047190D01*
X161652857Y-57240714D01*
X161580285Y-57337476D01*
X161435142Y-57434238D01*
X160999714Y-57434238D01*
X160854571Y-57337476D01*
X160782000Y-57240714D01*
X140824857Y-57337476D02*
X141042571Y-57434238D01*
X141405428Y-57434238D01*
X141550571Y-57337476D01*
X141623142Y-57240714D01*
X141695714Y-57047190D01*
X141695714Y-56853666D01*
X141623142Y-56660142D01*
X141550571Y-56563380D01*
X141405428Y-56466619D01*
X141115142Y-56369857D01*
X140970000Y-56273095D01*
X140897428Y-56176333D01*
X140824857Y-55982809D01*
X140824857Y-55789285D01*
X140897428Y-55595761D01*
X140970000Y-55499000D01*
X141115142Y-55402238D01*
X141478000Y-55402238D01*
X141695714Y-55499000D01*
X142856857Y-56369857D02*
X143074571Y-56466619D01*
X143147142Y-56563380D01*
X143219714Y-56756904D01*
X143219714Y-57047190D01*
X143147142Y-57240714D01*
X143074571Y-57337476D01*
X142929428Y-57434238D01*
X142348857Y-57434238D01*
X142348857Y-55402238D01*
X142856857Y-55402238D01*
X143002000Y-55499000D01*
X143074571Y-55595761D01*
X143147142Y-55789285D01*
X143147142Y-55982809D01*
X143074571Y-56176333D01*
X143002000Y-56273095D01*
X142856857Y-56369857D01*
X142348857Y-56369857D01*
X143872857Y-57434238D02*
X143872857Y-55402238D01*
X144743714Y-57434238D02*
X144090571Y-56273095D01*
X144743714Y-55402238D02*
X143872857Y-56563380D01*
X146050000Y-55402238D02*
X145759714Y-55402238D01*
X145614571Y-55499000D01*
X145542000Y-55595761D01*
X145396857Y-55886047D01*
X145324285Y-56273095D01*
X145324285Y-57047190D01*
X145396857Y-57240714D01*
X145469428Y-57337476D01*
X145614571Y-57434238D01*
X145904857Y-57434238D01*
X146050000Y-57337476D01*
X146122571Y-57240714D01*
X146195142Y-57047190D01*
X146195142Y-56563380D01*
X146122571Y-56369857D01*
X146050000Y-56273095D01*
X145904857Y-56176333D01*
X145614571Y-56176333D01*
X145469428Y-56273095D01*
X145396857Y-56369857D01*
X145324285Y-56563380D01*
D11*
X144018000Y-110236000D02*
X144018000Y-109855000D01*
X143637000Y-110236000D02*
X144399000Y-110236000D01*
X144018000Y-110871000D02*
X144018000Y-110490000D01*
X144018000Y-110490000D02*
X143637000Y-110490000D01*
X143637000Y-110490000D02*
X144399000Y-110490000D01*
X129667000Y-90424000D02*
X130429000Y-90424000D01*
X130048000Y-90424000D02*
X129667000Y-90424000D01*
X130048000Y-90805000D02*
X130048000Y-90424000D01*
X129667000Y-90170000D02*
X130429000Y-90170000D01*
X130048000Y-90170000D02*
X130048000Y-89789000D01*
D12*
X143256000Y-140843000D02*
G75*
G03X143256000Y-140843000I-3048000J0D01*
G01*
D11*
X108839000Y-58039000D02*
X108839000Y-60071000D01*
X105791000Y-58039000D02*
X105791000Y-60071000D01*
X106934000Y-59436000D02*
X107315000Y-58547000D01*
X107315000Y-58547000D02*
X107696000Y-59436000D01*
X107315000Y-59436000D02*
X107315000Y-59817000D01*
X107696000Y-59436000D02*
X106934000Y-59436000D01*
X107315000Y-58166000D02*
X107315000Y-58547000D01*
X107696000Y-58547000D02*
X106934000Y-58547000D01*
X110744000Y-59563000D02*
X111506000Y-59563000D01*
X111125000Y-59944000D02*
X111125000Y-59563000D01*
X110744000Y-58674000D02*
X111506000Y-58674000D01*
X111125000Y-58674000D02*
X111125000Y-58293000D01*
X111125000Y-59563000D02*
X110744000Y-58674000D01*
X111506000Y-58674000D02*
X111125000Y-59563000D01*
X112649000Y-60071000D02*
X112649000Y-58039000D01*
X109601000Y-60071000D02*
X109601000Y-58039000D01*
D12*
X143129000Y-116332000D02*
X143891000Y-116332000D01*
X143129000Y-117348000D02*
X143129000Y-116332000D01*
X143891000Y-117348000D02*
X143129000Y-117348000D01*
X143891000Y-115062000D02*
X143891000Y-118618000D01*
X132969000Y-115062000D02*
X143891000Y-115062000D01*
X132969000Y-118618000D02*
X132969000Y-115062000D01*
X143891000Y-118618000D02*
X132969000Y-118618000D01*
X131699000Y-88392000D02*
X142621000Y-88392000D01*
X142621000Y-88392000D02*
X142621000Y-91948000D01*
X142621000Y-91948000D02*
X131699000Y-91948000D01*
X131699000Y-91948000D02*
X131699000Y-88392000D01*
X131699000Y-89662000D02*
X132461000Y-89662000D01*
X132461000Y-89662000D02*
X132461000Y-90678000D01*
X132461000Y-90678000D02*
X131699000Y-90678000D01*
D13*
X66675000Y-55880000D02*
X66675000Y-147320000D01*
X66675000Y-147320000D02*
X74930000Y-147320000D01*
X74930000Y-147320000D02*
X74930000Y-142240000D01*
X74930000Y-142240000D02*
X71120000Y-140335000D01*
X71120000Y-140335000D02*
X71120000Y-62865000D01*
X71120000Y-62865000D02*
X74930000Y-60960000D01*
X74930000Y-60960000D02*
X74930000Y-55880000D01*
X74930000Y-55880000D02*
X66675000Y-55880000D01*
D11*
X108331000Y-63500000D02*
X108077000Y-63500000D01*
X109093000Y-63500000D02*
X108839000Y-63500000D01*
X108839000Y-63754000D02*
X108839000Y-63373000D01*
X108839000Y-63373000D02*
X108839000Y-63246000D01*
X108839000Y-63246000D02*
X108331000Y-63246000D01*
X108331000Y-63246000D02*
X108331000Y-63754000D01*
X108331000Y-63754000D02*
X108839000Y-63754000D01*
X112649000Y-63246000D02*
X112141000Y-63246000D01*
X112649000Y-63754000D02*
X112649000Y-63246000D01*
X112141000Y-63754000D02*
X112649000Y-63754000D01*
X112141000Y-63627000D02*
X112141000Y-63754000D01*
X112141000Y-63246000D02*
X112141000Y-63627000D01*
X111887000Y-63500000D02*
X112141000Y-63500000D01*
X112649000Y-63500000D02*
X112903000Y-63500000D01*
X141224000Y-99822000D02*
X140716000Y-99822000D01*
X141224000Y-100330000D02*
X141224000Y-99822000D01*
X140716000Y-100330000D02*
X141224000Y-100330000D01*
X140716000Y-100203000D02*
X140716000Y-100330000D01*
X140716000Y-99822000D02*
X140716000Y-100203000D01*
X140462000Y-100076000D02*
X140716000Y-100076000D01*
X141224000Y-100076000D02*
X141478000Y-100076000D01*
X110744000Y-129286000D02*
X110236000Y-129286000D01*
X110744000Y-129794000D02*
X110744000Y-129286000D01*
X110236000Y-129794000D02*
X110744000Y-129794000D01*
X110236000Y-129667000D02*
X110236000Y-129794000D01*
X110236000Y-129286000D02*
X110236000Y-129667000D01*
X109982000Y-129540000D02*
X110236000Y-129540000D01*
X110744000Y-129540000D02*
X110998000Y-129540000D01*
X110744000Y-116840000D02*
X110998000Y-116840000D01*
X109982000Y-116840000D02*
X110236000Y-116840000D01*
X110236000Y-116586000D02*
X110236000Y-116967000D01*
X110236000Y-116967000D02*
X110236000Y-117094000D01*
X110236000Y-117094000D02*
X110744000Y-117094000D01*
X110744000Y-117094000D02*
X110744000Y-116586000D01*
X110744000Y-116586000D02*
X110236000Y-116586000D01*
X110744000Y-104140000D02*
X110998000Y-104140000D01*
X109982000Y-104140000D02*
X110236000Y-104140000D01*
X110236000Y-103886000D02*
X110236000Y-104267000D01*
X110236000Y-104267000D02*
X110236000Y-104394000D01*
X110236000Y-104394000D02*
X110744000Y-104394000D01*
X110744000Y-104394000D02*
X110744000Y-103886000D01*
X110744000Y-103886000D02*
X110236000Y-103886000D01*
X110744000Y-91440000D02*
X110998000Y-91440000D01*
X109982000Y-91440000D02*
X110236000Y-91440000D01*
X110236000Y-91186000D02*
X110236000Y-91567000D01*
X110236000Y-91567000D02*
X110236000Y-91694000D01*
X110236000Y-91694000D02*
X110744000Y-91694000D01*
X110744000Y-91694000D02*
X110744000Y-91186000D01*
X110744000Y-91186000D02*
X110236000Y-91186000D01*
X110744000Y-78486000D02*
X110236000Y-78486000D01*
X110744000Y-78994000D02*
X110744000Y-78486000D01*
X110236000Y-78994000D02*
X110744000Y-78994000D01*
X110236000Y-78867000D02*
X110236000Y-78994000D01*
X110236000Y-78486000D02*
X110236000Y-78867000D01*
X109982000Y-78740000D02*
X110236000Y-78740000D01*
X110744000Y-78740000D02*
X110998000Y-78740000D01*
X110744000Y-66040000D02*
X110998000Y-66040000D01*
X109982000Y-66040000D02*
X110236000Y-66040000D01*
X110236000Y-65786000D02*
X110236000Y-66167000D01*
X110236000Y-66167000D02*
X110236000Y-66294000D01*
X110236000Y-66294000D02*
X110744000Y-66294000D01*
X110744000Y-66294000D02*
X110744000Y-65786000D01*
X110744000Y-65786000D02*
X110236000Y-65786000D01*
D14*
X102870000Y-64770000D02*
X102870000Y-54610000D01*
X102870000Y-54610000D02*
X82550000Y-54610000D01*
X82550000Y-54610000D02*
X82550000Y-64770000D01*
X82550000Y-64770000D02*
X102870000Y-64770000D01*
X100330000Y-58420000D02*
X97790000Y-60960000D01*
X99060000Y-58420000D02*
X99060000Y-55880000D01*
X99060000Y-55880000D02*
X100330000Y-55880000D01*
X100330000Y-63500000D02*
X99060000Y-63500000D01*
X99060000Y-63500000D02*
X99060000Y-62230000D01*
X99060000Y-62230000D02*
X99060000Y-60960000D01*
X99060000Y-60960000D02*
X100330000Y-60960000D01*
X100330000Y-60960000D02*
X100330000Y-58420000D01*
X100330000Y-58420000D02*
X97790000Y-58420000D01*
X97790000Y-58420000D02*
X97790000Y-60960000D01*
X97790000Y-60960000D02*
X99060000Y-60960000D01*
X111760000Y-134620000D02*
X110490000Y-134620000D01*
X111760000Y-137160000D02*
X111760000Y-134620000D01*
X109220000Y-137160000D02*
X111760000Y-137160000D01*
X109220000Y-134620000D02*
X109220000Y-137160000D01*
X110490000Y-134620000D02*
X109220000Y-134620000D01*
X110490000Y-133350000D02*
X110490000Y-134620000D01*
X110490000Y-132080000D02*
X110490000Y-133350000D01*
X109220000Y-132080000D02*
X110490000Y-132080000D01*
X110490000Y-139700000D02*
X109220000Y-139700000D01*
X110490000Y-137160000D02*
X110490000Y-139700000D01*
X109220000Y-137160000D02*
X111760000Y-134620000D01*
X127000000Y-130810000D02*
X106680000Y-130810000D01*
X127000000Y-140970000D02*
X127000000Y-130810000D01*
X106680000Y-140970000D02*
X127000000Y-140970000D01*
X106680000Y-130810000D02*
X106680000Y-140970000D01*
X102870000Y-140970000D02*
X102870000Y-130810000D01*
X102870000Y-130810000D02*
X82550000Y-130810000D01*
X82550000Y-130810000D02*
X82550000Y-140970000D01*
X82550000Y-140970000D02*
X102870000Y-140970000D01*
X100330000Y-134620000D02*
X97790000Y-137160000D01*
X99060000Y-134620000D02*
X99060000Y-132080000D01*
X99060000Y-132080000D02*
X100330000Y-132080000D01*
X100330000Y-139700000D02*
X99060000Y-139700000D01*
X99060000Y-139700000D02*
X99060000Y-138430000D01*
X99060000Y-138430000D02*
X99060000Y-137160000D01*
X99060000Y-137160000D02*
X100330000Y-137160000D01*
X100330000Y-137160000D02*
X100330000Y-134620000D01*
X100330000Y-134620000D02*
X97790000Y-134620000D01*
X97790000Y-134620000D02*
X97790000Y-137160000D01*
X97790000Y-137160000D02*
X99060000Y-137160000D01*
X111760000Y-121920000D02*
X110490000Y-121920000D01*
X111760000Y-124460000D02*
X111760000Y-121920000D01*
X109220000Y-124460000D02*
X111760000Y-124460000D01*
X109220000Y-121920000D02*
X109220000Y-124460000D01*
X110490000Y-121920000D02*
X109220000Y-121920000D01*
X110490000Y-120650000D02*
X110490000Y-121920000D01*
X110490000Y-119380000D02*
X110490000Y-120650000D01*
X109220000Y-119380000D02*
X110490000Y-119380000D01*
X110490000Y-127000000D02*
X109220000Y-127000000D01*
X110490000Y-124460000D02*
X110490000Y-127000000D01*
X109220000Y-124460000D02*
X111760000Y-121920000D01*
X127000000Y-118110000D02*
X106680000Y-118110000D01*
X127000000Y-128270000D02*
X127000000Y-118110000D01*
X106680000Y-128270000D02*
X127000000Y-128270000D01*
X106680000Y-118110000D02*
X106680000Y-128270000D01*
X102870000Y-128270000D02*
X102870000Y-118110000D01*
X102870000Y-118110000D02*
X82550000Y-118110000D01*
X82550000Y-118110000D02*
X82550000Y-128270000D01*
X82550000Y-128270000D02*
X102870000Y-128270000D01*
X100330000Y-121920000D02*
X97790000Y-124460000D01*
X99060000Y-121920000D02*
X99060000Y-119380000D01*
X99060000Y-119380000D02*
X100330000Y-119380000D01*
X100330000Y-127000000D02*
X99060000Y-127000000D01*
X99060000Y-127000000D02*
X99060000Y-125730000D01*
X99060000Y-125730000D02*
X99060000Y-124460000D01*
X99060000Y-124460000D02*
X100330000Y-124460000D01*
X100330000Y-124460000D02*
X100330000Y-121920000D01*
X100330000Y-121920000D02*
X97790000Y-121920000D01*
X97790000Y-121920000D02*
X97790000Y-124460000D01*
X97790000Y-124460000D02*
X99060000Y-124460000D01*
X111760000Y-109220000D02*
X110490000Y-109220000D01*
X111760000Y-111760000D02*
X111760000Y-109220000D01*
X109220000Y-111760000D02*
X111760000Y-111760000D01*
X109220000Y-109220000D02*
X109220000Y-111760000D01*
X110490000Y-109220000D02*
X109220000Y-109220000D01*
X110490000Y-107950000D02*
X110490000Y-109220000D01*
X110490000Y-106680000D02*
X110490000Y-107950000D01*
X109220000Y-106680000D02*
X110490000Y-106680000D01*
X110490000Y-114300000D02*
X109220000Y-114300000D01*
X110490000Y-111760000D02*
X110490000Y-114300000D01*
X109220000Y-111760000D02*
X111760000Y-109220000D01*
X127000000Y-105410000D02*
X106680000Y-105410000D01*
X127000000Y-115570000D02*
X127000000Y-105410000D01*
X106680000Y-115570000D02*
X127000000Y-115570000D01*
X106680000Y-105410000D02*
X106680000Y-115570000D01*
X102870000Y-115570000D02*
X102870000Y-105410000D01*
X102870000Y-105410000D02*
X82550000Y-105410000D01*
X82550000Y-105410000D02*
X82550000Y-115570000D01*
X82550000Y-115570000D02*
X102870000Y-115570000D01*
X100330000Y-109220000D02*
X97790000Y-111760000D01*
X99060000Y-109220000D02*
X99060000Y-106680000D01*
X99060000Y-106680000D02*
X100330000Y-106680000D01*
X100330000Y-114300000D02*
X99060000Y-114300000D01*
X99060000Y-114300000D02*
X99060000Y-113030000D01*
X99060000Y-113030000D02*
X99060000Y-111760000D01*
X99060000Y-111760000D02*
X100330000Y-111760000D01*
X100330000Y-111760000D02*
X100330000Y-109220000D01*
X100330000Y-109220000D02*
X97790000Y-109220000D01*
X97790000Y-109220000D02*
X97790000Y-111760000D01*
X97790000Y-111760000D02*
X99060000Y-111760000D01*
X111760000Y-96520000D02*
X110490000Y-96520000D01*
X111760000Y-99060000D02*
X111760000Y-96520000D01*
X109220000Y-99060000D02*
X111760000Y-99060000D01*
X109220000Y-96520000D02*
X109220000Y-99060000D01*
X110490000Y-96520000D02*
X109220000Y-96520000D01*
X110490000Y-95250000D02*
X110490000Y-96520000D01*
X110490000Y-93980000D02*
X110490000Y-95250000D01*
X109220000Y-93980000D02*
X110490000Y-93980000D01*
X110490000Y-101600000D02*
X109220000Y-101600000D01*
X110490000Y-99060000D02*
X110490000Y-101600000D01*
X109220000Y-99060000D02*
X111760000Y-96520000D01*
X127000000Y-92710000D02*
X106680000Y-92710000D01*
X127000000Y-102870000D02*
X127000000Y-92710000D01*
X106680000Y-102870000D02*
X127000000Y-102870000D01*
X106680000Y-92710000D02*
X106680000Y-102870000D01*
X102870000Y-102870000D02*
X102870000Y-92710000D01*
X102870000Y-92710000D02*
X82550000Y-92710000D01*
X82550000Y-92710000D02*
X82550000Y-102870000D01*
X82550000Y-102870000D02*
X102870000Y-102870000D01*
X100330000Y-96520000D02*
X97790000Y-99060000D01*
X99060000Y-96520000D02*
X99060000Y-93980000D01*
X99060000Y-93980000D02*
X100330000Y-93980000D01*
X100330000Y-101600000D02*
X99060000Y-101600000D01*
X99060000Y-101600000D02*
X99060000Y-100330000D01*
X99060000Y-100330000D02*
X99060000Y-99060000D01*
X99060000Y-99060000D02*
X100330000Y-99060000D01*
X100330000Y-99060000D02*
X100330000Y-96520000D01*
X100330000Y-96520000D02*
X97790000Y-96520000D01*
X97790000Y-96520000D02*
X97790000Y-99060000D01*
X97790000Y-99060000D02*
X99060000Y-99060000D01*
X111760000Y-83820000D02*
X110490000Y-83820000D01*
X111760000Y-86360000D02*
X111760000Y-83820000D01*
X109220000Y-86360000D02*
X111760000Y-86360000D01*
X109220000Y-83820000D02*
X109220000Y-86360000D01*
X110490000Y-83820000D02*
X109220000Y-83820000D01*
X110490000Y-82550000D02*
X110490000Y-83820000D01*
X110490000Y-81280000D02*
X110490000Y-82550000D01*
X109220000Y-81280000D02*
X110490000Y-81280000D01*
X110490000Y-88900000D02*
X109220000Y-88900000D01*
X110490000Y-86360000D02*
X110490000Y-88900000D01*
X109220000Y-86360000D02*
X111760000Y-83820000D01*
X127000000Y-80010000D02*
X106680000Y-80010000D01*
X127000000Y-90170000D02*
X127000000Y-80010000D01*
X106680000Y-90170000D02*
X127000000Y-90170000D01*
X106680000Y-80010000D02*
X106680000Y-90170000D01*
X102870000Y-90170000D02*
X102870000Y-80010000D01*
X102870000Y-80010000D02*
X82550000Y-80010000D01*
X82550000Y-80010000D02*
X82550000Y-90170000D01*
X82550000Y-90170000D02*
X102870000Y-90170000D01*
X100330000Y-83820000D02*
X97790000Y-86360000D01*
X99060000Y-83820000D02*
X99060000Y-81280000D01*
X99060000Y-81280000D02*
X100330000Y-81280000D01*
X100330000Y-88900000D02*
X99060000Y-88900000D01*
X99060000Y-88900000D02*
X99060000Y-87630000D01*
X99060000Y-87630000D02*
X99060000Y-86360000D01*
X99060000Y-86360000D02*
X100330000Y-86360000D01*
X100330000Y-86360000D02*
X100330000Y-83820000D01*
X100330000Y-83820000D02*
X97790000Y-83820000D01*
X97790000Y-83820000D02*
X97790000Y-86360000D01*
X97790000Y-86360000D02*
X99060000Y-86360000D01*
X111760000Y-71120000D02*
X110490000Y-71120000D01*
X111760000Y-73660000D02*
X111760000Y-71120000D01*
X109220000Y-73660000D02*
X111760000Y-73660000D01*
X109220000Y-71120000D02*
X109220000Y-73660000D01*
X110490000Y-71120000D02*
X109220000Y-71120000D01*
X110490000Y-69850000D02*
X110490000Y-71120000D01*
X110490000Y-68580000D02*
X110490000Y-69850000D01*
X109220000Y-68580000D02*
X110490000Y-68580000D01*
X110490000Y-76200000D02*
X109220000Y-76200000D01*
X110490000Y-73660000D02*
X110490000Y-76200000D01*
X109220000Y-73660000D02*
X111760000Y-71120000D01*
X127000000Y-67310000D02*
X106680000Y-67310000D01*
X127000000Y-77470000D02*
X127000000Y-67310000D01*
X106680000Y-77470000D02*
X127000000Y-77470000D01*
X106680000Y-67310000D02*
X106680000Y-77470000D01*
X102870000Y-77470000D02*
X102870000Y-67310000D01*
X102870000Y-67310000D02*
X82550000Y-67310000D01*
X82550000Y-67310000D02*
X82550000Y-77470000D01*
X82550000Y-77470000D02*
X102870000Y-77470000D01*
X100330000Y-71120000D02*
X97790000Y-73660000D01*
X99060000Y-71120000D02*
X99060000Y-68580000D01*
X99060000Y-68580000D02*
X100330000Y-68580000D01*
X100330000Y-76200000D02*
X99060000Y-76200000D01*
X99060000Y-76200000D02*
X99060000Y-74930000D01*
X99060000Y-74930000D02*
X99060000Y-73660000D01*
X99060000Y-73660000D02*
X100330000Y-73660000D01*
X100330000Y-73660000D02*
X100330000Y-71120000D01*
X100330000Y-71120000D02*
X97790000Y-71120000D01*
X97790000Y-71120000D02*
X97790000Y-73660000D01*
X97790000Y-73660000D02*
X99060000Y-73660000D01*
D10*
X148209000Y-138303000D02*
X144399000Y-142113000D01*
X144399000Y-142113000D02*
X144399000Y-143383000D01*
X144399000Y-143383000D02*
X145669000Y-144653000D01*
X145669000Y-144653000D02*
X148209000Y-144653000D01*
X148209000Y-144653000D02*
X150749000Y-142113000D01*
X150749000Y-142113000D02*
X150749000Y-139573000D01*
X150749000Y-139573000D02*
X149479000Y-138303000D01*
X149479000Y-138303000D02*
X148209000Y-138303000D01*
D11*
X146149785Y-110946595D02*
X146180023Y-110976833D01*
X146210261Y-111067547D01*
X146210261Y-111128023D01*
X146180023Y-111218738D01*
X146119547Y-111279214D01*
X146059071Y-111309452D01*
X145938119Y-111339690D01*
X145847404Y-111339690D01*
X145726452Y-111309452D01*
X145665976Y-111279214D01*
X145605500Y-111218738D01*
X145575261Y-111128023D01*
X145575261Y-111067547D01*
X145605500Y-110976833D01*
X145635738Y-110946595D01*
X146210261Y-110341833D02*
X146210261Y-110704690D01*
X146210261Y-110523261D02*
X145575261Y-110523261D01*
X145665976Y-110583738D01*
X145726452Y-110644214D01*
X145756690Y-110704690D01*
X145575261Y-109948738D02*
X145575261Y-109888261D01*
X145605500Y-109827785D01*
X145635738Y-109797547D01*
X145696214Y-109767309D01*
X145817166Y-109737071D01*
X145968357Y-109737071D01*
X146089309Y-109767309D01*
X146149785Y-109797547D01*
X146180023Y-109827785D01*
X146210261Y-109888261D01*
X146210261Y-109948738D01*
X146180023Y-110009214D01*
X146149785Y-110039452D01*
X146089309Y-110069690D01*
X145968357Y-110099928D01*
X145817166Y-110099928D01*
X145696214Y-110069690D01*
X145635738Y-110039452D01*
X145605500Y-110009214D01*
X145575261Y-109948738D01*
X146210261Y-109132309D02*
X146210261Y-109495166D01*
X146210261Y-109313738D02*
X145575261Y-109313738D01*
X145665976Y-109374214D01*
X145726452Y-109434690D01*
X145756690Y-109495166D01*
X130274785Y-94055595D02*
X130305023Y-94085833D01*
X130335261Y-94176547D01*
X130335261Y-94237023D01*
X130305023Y-94327738D01*
X130244547Y-94388214D01*
X130184071Y-94418452D01*
X130063119Y-94448690D01*
X129972404Y-94448690D01*
X129851452Y-94418452D01*
X129790976Y-94388214D01*
X129730500Y-94327738D01*
X129700261Y-94237023D01*
X129700261Y-94176547D01*
X129730500Y-94085833D01*
X129760738Y-94055595D01*
X130335261Y-93450833D02*
X130335261Y-93813690D01*
X130335261Y-93632261D02*
X129700261Y-93632261D01*
X129790976Y-93692738D01*
X129851452Y-93753214D01*
X129881690Y-93813690D01*
X129700261Y-93057738D02*
X129700261Y-92997261D01*
X129730500Y-92936785D01*
X129760738Y-92906547D01*
X129821214Y-92876309D01*
X129942166Y-92846071D01*
X130093357Y-92846071D01*
X130214309Y-92876309D01*
X130274785Y-92906547D01*
X130305023Y-92936785D01*
X130335261Y-92997261D01*
X130335261Y-93057738D01*
X130305023Y-93118214D01*
X130274785Y-93148452D01*
X130214309Y-93178690D01*
X130093357Y-93208928D01*
X129942166Y-93208928D01*
X129821214Y-93178690D01*
X129760738Y-93148452D01*
X129730500Y-93118214D01*
X129700261Y-93057738D01*
X129760738Y-92604166D02*
X129730500Y-92573928D01*
X129700261Y-92513452D01*
X129700261Y-92362261D01*
X129730500Y-92301785D01*
X129760738Y-92271547D01*
X129821214Y-92241309D01*
X129881690Y-92241309D01*
X129972404Y-92271547D01*
X130335261Y-92634404D01*
X130335261Y-92241309D01*
D12*
X138959166Y-145777857D02*
X138916833Y-145826238D01*
X138789833Y-145874619D01*
X138705166Y-145874619D01*
X138578166Y-145826238D01*
X138493500Y-145729476D01*
X138451166Y-145632714D01*
X138408833Y-145439190D01*
X138408833Y-145294047D01*
X138451166Y-145100523D01*
X138493500Y-145003761D01*
X138578166Y-144907000D01*
X138705166Y-144858619D01*
X138789833Y-144858619D01*
X138916833Y-144907000D01*
X138959166Y-144955380D01*
X139805833Y-145874619D02*
X139297833Y-145874619D01*
X139551833Y-145874619D02*
X139551833Y-144858619D01*
X139467166Y-145003761D01*
X139382500Y-145100523D01*
X139297833Y-145148904D01*
X140356166Y-144858619D02*
X140440833Y-144858619D01*
X140525500Y-144907000D01*
X140567833Y-144955380D01*
X140610166Y-145052142D01*
X140652500Y-145245666D01*
X140652500Y-145487571D01*
X140610166Y-145681095D01*
X140567833Y-145777857D01*
X140525500Y-145826238D01*
X140440833Y-145874619D01*
X140356166Y-145874619D01*
X140271500Y-145826238D01*
X140229166Y-145777857D01*
X140186833Y-145681095D01*
X140144500Y-145487571D01*
X140144500Y-145245666D01*
X140186833Y-145052142D01*
X140229166Y-144955380D01*
X140271500Y-144907000D01*
X140356166Y-144858619D01*
X141414500Y-145197285D02*
X141414500Y-145874619D01*
X141202833Y-144810238D02*
X140991166Y-145535952D01*
X141541500Y-145535952D01*
X138538857Y-142693571D02*
X138538857Y-141532428D01*
X139119428Y-142113000D02*
X137958285Y-142113000D01*
D15*
X108049362Y-56471880D02*
X107548982Y-56471880D01*
X107548982Y-56352742D01*
X107572810Y-56281259D01*
X107620465Y-56233604D01*
X107668120Y-56209776D01*
X107763430Y-56185949D01*
X107834913Y-56185949D01*
X107930224Y-56209776D01*
X107977879Y-56233604D01*
X108025534Y-56281259D01*
X108049362Y-56352742D01*
X108049362Y-56471880D01*
X108049362Y-55709396D02*
X108049362Y-55995328D01*
X108049362Y-55852362D02*
X107548982Y-55852362D01*
X107620465Y-55900017D01*
X107668120Y-55947672D01*
X107691948Y-55995328D01*
X107548982Y-55399637D02*
X107548982Y-55351982D01*
X107572810Y-55304327D01*
X107596637Y-55280499D01*
X107644292Y-55256671D01*
X107739603Y-55232844D01*
X107858741Y-55232844D01*
X107954051Y-55256671D01*
X108001707Y-55280499D01*
X108025534Y-55304327D01*
X108049362Y-55351982D01*
X108049362Y-55399637D01*
X108025534Y-55447292D01*
X108001707Y-55471120D01*
X107954051Y-55494948D01*
X107858741Y-55518775D01*
X107739603Y-55518775D01*
X107644292Y-55494948D01*
X107596637Y-55471120D01*
X107572810Y-55447292D01*
X107548982Y-55399637D01*
X108049362Y-54756291D02*
X108049362Y-55042223D01*
X108049362Y-54899257D02*
X107548982Y-54899257D01*
X107620465Y-54946912D01*
X107668120Y-54994568D01*
X107691948Y-55042223D01*
X110055962Y-59875480D02*
X109555582Y-59875480D01*
X109555582Y-59756342D01*
X109579410Y-59684859D01*
X109627065Y-59637204D01*
X109674720Y-59613376D01*
X109770030Y-59589549D01*
X109841513Y-59589549D01*
X109936824Y-59613376D01*
X109984479Y-59637204D01*
X110032134Y-59684859D01*
X110055962Y-59756342D01*
X110055962Y-59875480D01*
X110055962Y-59112996D02*
X110055962Y-59398928D01*
X110055962Y-59255962D02*
X109555582Y-59255962D01*
X109627065Y-59303617D01*
X109674720Y-59351272D01*
X109698548Y-59398928D01*
X109555582Y-58803237D02*
X109555582Y-58755582D01*
X109579410Y-58707927D01*
X109603237Y-58684099D01*
X109650892Y-58660271D01*
X109746203Y-58636444D01*
X109865341Y-58636444D01*
X109960651Y-58660271D01*
X110008307Y-58684099D01*
X110032134Y-58707927D01*
X110055962Y-58755582D01*
X110055962Y-58803237D01*
X110032134Y-58850892D01*
X110008307Y-58874720D01*
X109960651Y-58898548D01*
X109865341Y-58922375D01*
X109746203Y-58922375D01*
X109650892Y-58898548D01*
X109603237Y-58874720D01*
X109579410Y-58850892D01*
X109555582Y-58803237D01*
X109603237Y-58445823D02*
X109579410Y-58421995D01*
X109555582Y-58374340D01*
X109555582Y-58255202D01*
X109579410Y-58207547D01*
X109603237Y-58183719D01*
X109650892Y-58159891D01*
X109698548Y-58159891D01*
X109770030Y-58183719D01*
X110055962Y-58469650D01*
X110055962Y-58159891D01*
D11*
X136225642Y-118061619D02*
X136225642Y-117045619D01*
X137423071Y-117964857D02*
X137368642Y-118013238D01*
X137205357Y-118061619D01*
X137096500Y-118061619D01*
X136933214Y-118013238D01*
X136824357Y-117916476D01*
X136769928Y-117819714D01*
X136715500Y-117626190D01*
X136715500Y-117481047D01*
X136769928Y-117287523D01*
X136824357Y-117190761D01*
X136933214Y-117094000D01*
X137096500Y-117045619D01*
X137205357Y-117045619D01*
X137368642Y-117094000D01*
X137423071Y-117142380D01*
X138511642Y-118061619D02*
X137858500Y-118061619D01*
X138185071Y-118061619D02*
X138185071Y-117045619D01*
X138076214Y-117190761D01*
X137967357Y-117287523D01*
X137858500Y-117335904D01*
X139219214Y-117045619D02*
X139328071Y-117045619D01*
X139436928Y-117094000D01*
X139491357Y-117142380D01*
X139545785Y-117239142D01*
X139600214Y-117432666D01*
X139600214Y-117674571D01*
X139545785Y-117868095D01*
X139491357Y-117964857D01*
X139436928Y-118013238D01*
X139328071Y-118061619D01*
X139219214Y-118061619D01*
X139110357Y-118013238D01*
X139055928Y-117964857D01*
X139001500Y-117868095D01*
X138947071Y-117674571D01*
X138947071Y-117432666D01*
X139001500Y-117239142D01*
X139055928Y-117142380D01*
X139110357Y-117094000D01*
X139219214Y-117045619D01*
X140688785Y-118061619D02*
X140035642Y-118061619D01*
X140362214Y-118061619D02*
X140362214Y-117045619D01*
X140253357Y-117190761D01*
X140144500Y-117287523D01*
X140035642Y-117335904D01*
X133368142Y-115521619D02*
X134021285Y-115521619D01*
X133694714Y-116537619D02*
X133694714Y-115521619D01*
X134402285Y-116537619D02*
X134402285Y-115521619D01*
X134837714Y-115521619D01*
X134946571Y-115570000D01*
X135001000Y-115618380D01*
X135055428Y-115715142D01*
X135055428Y-115860285D01*
X135001000Y-115957047D01*
X134946571Y-116005428D01*
X134837714Y-116053809D01*
X134402285Y-116053809D01*
X135545285Y-116537619D02*
X135545285Y-115521619D01*
X136742714Y-116440857D02*
X136688285Y-116489238D01*
X136525000Y-116537619D01*
X136416142Y-116537619D01*
X136252857Y-116489238D01*
X136144000Y-116392476D01*
X136089571Y-116295714D01*
X136035142Y-116102190D01*
X136035142Y-115957047D01*
X136089571Y-115763523D01*
X136144000Y-115666761D01*
X136252857Y-115570000D01*
X136416142Y-115521619D01*
X136525000Y-115521619D01*
X136688285Y-115570000D01*
X136742714Y-115618380D01*
X137722428Y-115521619D02*
X137504714Y-115521619D01*
X137395857Y-115570000D01*
X137341428Y-115618380D01*
X137232571Y-115763523D01*
X137178142Y-115957047D01*
X137178142Y-116344095D01*
X137232571Y-116440857D01*
X137287000Y-116489238D01*
X137395857Y-116537619D01*
X137613571Y-116537619D01*
X137722428Y-116489238D01*
X137776857Y-116440857D01*
X137831285Y-116344095D01*
X137831285Y-116102190D01*
X137776857Y-116005428D01*
X137722428Y-115957047D01*
X137613571Y-115908666D01*
X137395857Y-115908666D01*
X137287000Y-115957047D01*
X137232571Y-116005428D01*
X137178142Y-116102190D01*
X138974285Y-116440857D02*
X138919857Y-116489238D01*
X138756571Y-116537619D01*
X138647714Y-116537619D01*
X138484428Y-116489238D01*
X138375571Y-116392476D01*
X138321142Y-116295714D01*
X138266714Y-116102190D01*
X138266714Y-115957047D01*
X138321142Y-115763523D01*
X138375571Y-115666761D01*
X138484428Y-115570000D01*
X138647714Y-115521619D01*
X138756571Y-115521619D01*
X138919857Y-115570000D01*
X138974285Y-115618380D01*
X140008428Y-115521619D02*
X139464142Y-115521619D01*
X139409714Y-116005428D01*
X139464142Y-115957047D01*
X139573000Y-115908666D01*
X139845142Y-115908666D01*
X139954000Y-115957047D01*
X140008428Y-116005428D01*
X140062857Y-116102190D01*
X140062857Y-116344095D01*
X140008428Y-116440857D01*
X139954000Y-116489238D01*
X139845142Y-116537619D01*
X139573000Y-116537619D01*
X139464142Y-116489238D01*
X139409714Y-116440857D01*
X140607142Y-116537619D02*
X140824857Y-116537619D01*
X140933714Y-116489238D01*
X140988142Y-116440857D01*
X141097000Y-116295714D01*
X141151428Y-116102190D01*
X141151428Y-115715142D01*
X141097000Y-115618380D01*
X141042571Y-115570000D01*
X140933714Y-115521619D01*
X140716000Y-115521619D01*
X140607142Y-115570000D01*
X140552714Y-115618380D01*
X140498285Y-115715142D01*
X140498285Y-115957047D01*
X140552714Y-116053809D01*
X140607142Y-116102190D01*
X140716000Y-116150571D01*
X140933714Y-116150571D01*
X141042571Y-116102190D01*
X141097000Y-116053809D01*
X141151428Y-115957047D01*
X142131142Y-115521619D02*
X141913428Y-115521619D01*
X141804571Y-115570000D01*
X141750142Y-115618380D01*
X141641285Y-115763523D01*
X141586857Y-115957047D01*
X141586857Y-116344095D01*
X141641285Y-116440857D01*
X141695714Y-116489238D01*
X141804571Y-116537619D01*
X142022285Y-116537619D01*
X142131142Y-116489238D01*
X142185571Y-116440857D01*
X142240000Y-116344095D01*
X142240000Y-116102190D01*
X142185571Y-116005428D01*
X142131142Y-115957047D01*
X142022285Y-115908666D01*
X141804571Y-115908666D01*
X141695714Y-115957047D01*
X141641285Y-116005428D01*
X141586857Y-116102190D01*
X142729857Y-116537619D02*
X142729857Y-115521619D01*
X143002000Y-115521619D01*
X143165285Y-115570000D01*
X143274142Y-115666761D01*
X143328571Y-115763523D01*
X143383000Y-115957047D01*
X143383000Y-116102190D01*
X143328571Y-116295714D01*
X143274142Y-116392476D01*
X143165285Y-116489238D01*
X143002000Y-116537619D01*
X142729857Y-116537619D01*
X134955642Y-89867619D02*
X134955642Y-88851619D01*
X136153071Y-89770857D02*
X136098642Y-89819238D01*
X135935357Y-89867619D01*
X135826500Y-89867619D01*
X135663214Y-89819238D01*
X135554357Y-89722476D01*
X135499928Y-89625714D01*
X135445500Y-89432190D01*
X135445500Y-89287047D01*
X135499928Y-89093523D01*
X135554357Y-88996761D01*
X135663214Y-88900000D01*
X135826500Y-88851619D01*
X135935357Y-88851619D01*
X136098642Y-88900000D01*
X136153071Y-88948380D01*
X137241642Y-89867619D02*
X136588500Y-89867619D01*
X136915071Y-89867619D02*
X136915071Y-88851619D01*
X136806214Y-88996761D01*
X136697357Y-89093523D01*
X136588500Y-89141904D01*
X137949214Y-88851619D02*
X138058071Y-88851619D01*
X138166928Y-88900000D01*
X138221357Y-88948380D01*
X138275785Y-89045142D01*
X138330214Y-89238666D01*
X138330214Y-89480571D01*
X138275785Y-89674095D01*
X138221357Y-89770857D01*
X138166928Y-89819238D01*
X138058071Y-89867619D01*
X137949214Y-89867619D01*
X137840357Y-89819238D01*
X137785928Y-89770857D01*
X137731500Y-89674095D01*
X137677071Y-89480571D01*
X137677071Y-89238666D01*
X137731500Y-89045142D01*
X137785928Y-88948380D01*
X137840357Y-88900000D01*
X137949214Y-88851619D01*
X138765642Y-88948380D02*
X138820071Y-88900000D01*
X138928928Y-88851619D01*
X139201071Y-88851619D01*
X139309928Y-88900000D01*
X139364357Y-88948380D01*
X139418785Y-89045142D01*
X139418785Y-89141904D01*
X139364357Y-89287047D01*
X138711214Y-89867619D01*
X139418785Y-89867619D01*
X132098142Y-90375619D02*
X132751285Y-90375619D01*
X132424714Y-91391619D02*
X132424714Y-90375619D01*
X133132285Y-91391619D02*
X133132285Y-90375619D01*
X133567714Y-90375619D01*
X133676571Y-90424000D01*
X133731000Y-90472380D01*
X133785428Y-90569142D01*
X133785428Y-90714285D01*
X133731000Y-90811047D01*
X133676571Y-90859428D01*
X133567714Y-90907809D01*
X133132285Y-90907809D01*
X134275285Y-91391619D02*
X134275285Y-90375619D01*
X135472714Y-91294857D02*
X135418285Y-91343238D01*
X135255000Y-91391619D01*
X135146142Y-91391619D01*
X134982857Y-91343238D01*
X134874000Y-91246476D01*
X134819571Y-91149714D01*
X134765142Y-90956190D01*
X134765142Y-90811047D01*
X134819571Y-90617523D01*
X134874000Y-90520761D01*
X134982857Y-90424000D01*
X135146142Y-90375619D01*
X135255000Y-90375619D01*
X135418285Y-90424000D01*
X135472714Y-90472380D01*
X136452428Y-90375619D02*
X136234714Y-90375619D01*
X136125857Y-90424000D01*
X136071428Y-90472380D01*
X135962571Y-90617523D01*
X135908142Y-90811047D01*
X135908142Y-91198095D01*
X135962571Y-91294857D01*
X136017000Y-91343238D01*
X136125857Y-91391619D01*
X136343571Y-91391619D01*
X136452428Y-91343238D01*
X136506857Y-91294857D01*
X136561285Y-91198095D01*
X136561285Y-90956190D01*
X136506857Y-90859428D01*
X136452428Y-90811047D01*
X136343571Y-90762666D01*
X136125857Y-90762666D01*
X136017000Y-90811047D01*
X135962571Y-90859428D01*
X135908142Y-90956190D01*
X137704285Y-91294857D02*
X137649857Y-91343238D01*
X137486571Y-91391619D01*
X137377714Y-91391619D01*
X137214428Y-91343238D01*
X137105571Y-91246476D01*
X137051142Y-91149714D01*
X136996714Y-90956190D01*
X136996714Y-90811047D01*
X137051142Y-90617523D01*
X137105571Y-90520761D01*
X137214428Y-90424000D01*
X137377714Y-90375619D01*
X137486571Y-90375619D01*
X137649857Y-90424000D01*
X137704285Y-90472380D01*
X138738428Y-90375619D02*
X138194142Y-90375619D01*
X138139714Y-90859428D01*
X138194142Y-90811047D01*
X138303000Y-90762666D01*
X138575142Y-90762666D01*
X138684000Y-90811047D01*
X138738428Y-90859428D01*
X138792857Y-90956190D01*
X138792857Y-91198095D01*
X138738428Y-91294857D01*
X138684000Y-91343238D01*
X138575142Y-91391619D01*
X138303000Y-91391619D01*
X138194142Y-91343238D01*
X138139714Y-91294857D01*
X139337142Y-91391619D02*
X139554857Y-91391619D01*
X139663714Y-91343238D01*
X139718142Y-91294857D01*
X139827000Y-91149714D01*
X139881428Y-90956190D01*
X139881428Y-90569142D01*
X139827000Y-90472380D01*
X139772571Y-90424000D01*
X139663714Y-90375619D01*
X139446000Y-90375619D01*
X139337142Y-90424000D01*
X139282714Y-90472380D01*
X139228285Y-90569142D01*
X139228285Y-90811047D01*
X139282714Y-90907809D01*
X139337142Y-90956190D01*
X139446000Y-91004571D01*
X139663714Y-91004571D01*
X139772571Y-90956190D01*
X139827000Y-90907809D01*
X139881428Y-90811047D01*
X140861142Y-90375619D02*
X140643428Y-90375619D01*
X140534571Y-90424000D01*
X140480142Y-90472380D01*
X140371285Y-90617523D01*
X140316857Y-90811047D01*
X140316857Y-91198095D01*
X140371285Y-91294857D01*
X140425714Y-91343238D01*
X140534571Y-91391619D01*
X140752285Y-91391619D01*
X140861142Y-91343238D01*
X140915571Y-91294857D01*
X140970000Y-91198095D01*
X140970000Y-90956190D01*
X140915571Y-90859428D01*
X140861142Y-90811047D01*
X140752285Y-90762666D01*
X140534571Y-90762666D01*
X140425714Y-90811047D01*
X140371285Y-90859428D01*
X140316857Y-90956190D01*
X141459857Y-91391619D02*
X141459857Y-90375619D01*
X141732000Y-90375619D01*
X141895285Y-90424000D01*
X142004142Y-90520761D01*
X142058571Y-90617523D01*
X142113000Y-90811047D01*
X142113000Y-90956190D01*
X142058571Y-91149714D01*
X142004142Y-91246476D01*
X141895285Y-91343238D01*
X141732000Y-91391619D01*
X141459857Y-91391619D01*
D10*
X68289714Y-55045428D02*
X68289714Y-53521428D01*
X69160571Y-55045428D02*
X68507428Y-54174571D01*
X69160571Y-53521428D02*
X68289714Y-54392285D01*
X70612000Y-55045428D02*
X69741142Y-55045428D01*
X70176571Y-55045428D02*
X70176571Y-53521428D01*
X70031428Y-53739142D01*
X69886285Y-53884285D01*
X69741142Y-53956857D01*
X71555428Y-53521428D02*
X71700571Y-53521428D01*
X71845714Y-53594000D01*
X71918285Y-53666571D01*
X71990857Y-53811714D01*
X72063428Y-54102000D01*
X72063428Y-54464857D01*
X71990857Y-54755142D01*
X71918285Y-54900285D01*
X71845714Y-54972857D01*
X71700571Y-55045428D01*
X71555428Y-55045428D01*
X71410285Y-54972857D01*
X71337714Y-54900285D01*
X71265142Y-54755142D01*
X71192571Y-54464857D01*
X71192571Y-54102000D01*
X71265142Y-53811714D01*
X71337714Y-53666571D01*
X71410285Y-53594000D01*
X71555428Y-53521428D01*
X73514857Y-55045428D02*
X72644000Y-55045428D01*
X73079428Y-55045428D02*
X73079428Y-53521428D01*
X72934285Y-53739142D01*
X72789142Y-53884285D01*
X72644000Y-53956857D01*
X155741914Y-61888188D02*
X155741914Y-60364188D01*
X156612771Y-61888188D02*
X155959628Y-61017331D01*
X156612771Y-60364188D02*
X155741914Y-61235045D01*
X158064200Y-61888188D02*
X157193342Y-61888188D01*
X157628771Y-61888188D02*
X157628771Y-60364188D01*
X157483628Y-60581902D01*
X157338485Y-60727045D01*
X157193342Y-60799617D01*
X159007628Y-60364188D02*
X159152771Y-60364188D01*
X159297914Y-60436760D01*
X159370485Y-60509331D01*
X159443057Y-60654474D01*
X159515628Y-60944760D01*
X159515628Y-61307617D01*
X159443057Y-61597902D01*
X159370485Y-61743045D01*
X159297914Y-61815617D01*
X159152771Y-61888188D01*
X159007628Y-61888188D01*
X158862485Y-61815617D01*
X158789914Y-61743045D01*
X158717342Y-61597902D01*
X158644771Y-61307617D01*
X158644771Y-60944760D01*
X158717342Y-60654474D01*
X158789914Y-60509331D01*
X158862485Y-60436760D01*
X159007628Y-60364188D01*
X160096200Y-60509331D02*
X160168771Y-60436760D01*
X160313914Y-60364188D01*
X160676771Y-60364188D01*
X160821914Y-60436760D01*
X160894485Y-60509331D01*
X160967057Y-60654474D01*
X160967057Y-60799617D01*
X160894485Y-61017331D01*
X160023628Y-61888188D01*
X160967057Y-61888188D01*
D11*
X104826404Y-63787261D02*
X104614738Y-63484880D01*
X104463547Y-63787261D02*
X104463547Y-63152261D01*
X104705452Y-63152261D01*
X104765928Y-63182500D01*
X104796166Y-63212738D01*
X104826404Y-63273214D01*
X104826404Y-63363928D01*
X104796166Y-63424404D01*
X104765928Y-63454642D01*
X104705452Y-63484880D01*
X104463547Y-63484880D01*
X105431166Y-63787261D02*
X105068309Y-63787261D01*
X105249738Y-63787261D02*
X105249738Y-63152261D01*
X105189261Y-63242976D01*
X105128785Y-63303452D01*
X105068309Y-63333690D01*
X105824261Y-63152261D02*
X105884738Y-63152261D01*
X105945214Y-63182500D01*
X105975452Y-63212738D01*
X106005690Y-63273214D01*
X106035928Y-63394166D01*
X106035928Y-63545357D01*
X106005690Y-63666309D01*
X105975452Y-63726785D01*
X105945214Y-63757023D01*
X105884738Y-63787261D01*
X105824261Y-63787261D01*
X105763785Y-63757023D01*
X105733547Y-63726785D01*
X105703309Y-63666309D01*
X105673071Y-63545357D01*
X105673071Y-63394166D01*
X105703309Y-63273214D01*
X105733547Y-63212738D01*
X105763785Y-63182500D01*
X105824261Y-63152261D01*
X106640690Y-63787261D02*
X106277833Y-63787261D01*
X106459261Y-63787261D02*
X106459261Y-63152261D01*
X106398785Y-63242976D01*
X106338309Y-63303452D01*
X106277833Y-63333690D01*
X116383404Y-63787261D02*
X116171738Y-63484880D01*
X116020547Y-63787261D02*
X116020547Y-63152261D01*
X116262452Y-63152261D01*
X116322928Y-63182500D01*
X116353166Y-63212738D01*
X116383404Y-63273214D01*
X116383404Y-63363928D01*
X116353166Y-63424404D01*
X116322928Y-63454642D01*
X116262452Y-63484880D01*
X116020547Y-63484880D01*
X116988166Y-63787261D02*
X116625309Y-63787261D01*
X116806738Y-63787261D02*
X116806738Y-63152261D01*
X116746261Y-63242976D01*
X116685785Y-63303452D01*
X116625309Y-63333690D01*
X117381261Y-63152261D02*
X117441738Y-63152261D01*
X117502214Y-63182500D01*
X117532452Y-63212738D01*
X117562690Y-63273214D01*
X117592928Y-63394166D01*
X117592928Y-63545357D01*
X117562690Y-63666309D01*
X117532452Y-63726785D01*
X117502214Y-63757023D01*
X117441738Y-63787261D01*
X117381261Y-63787261D01*
X117320785Y-63757023D01*
X117290547Y-63726785D01*
X117260309Y-63666309D01*
X117230071Y-63545357D01*
X117230071Y-63394166D01*
X117260309Y-63273214D01*
X117290547Y-63212738D01*
X117320785Y-63182500D01*
X117381261Y-63152261D01*
X117834833Y-63212738D02*
X117865071Y-63182500D01*
X117925547Y-63152261D01*
X118076738Y-63152261D01*
X118137214Y-63182500D01*
X118167452Y-63212738D01*
X118197690Y-63273214D01*
X118197690Y-63333690D01*
X118167452Y-63424404D01*
X117804595Y-63787261D01*
X118197690Y-63787261D01*
X143561404Y-100363261D02*
X143349738Y-100060880D01*
X143198547Y-100363261D02*
X143198547Y-99728261D01*
X143440452Y-99728261D01*
X143500928Y-99758500D01*
X143531166Y-99788738D01*
X143561404Y-99849214D01*
X143561404Y-99939928D01*
X143531166Y-100000404D01*
X143500928Y-100030642D01*
X143440452Y-100060880D01*
X143198547Y-100060880D01*
X144166166Y-100363261D02*
X143803309Y-100363261D01*
X143984738Y-100363261D02*
X143984738Y-99728261D01*
X143924261Y-99818976D01*
X143863785Y-99879452D01*
X143803309Y-99909690D01*
X144559261Y-99728261D02*
X144619738Y-99728261D01*
X144680214Y-99758500D01*
X144710452Y-99788738D01*
X144740690Y-99849214D01*
X144770928Y-99970166D01*
X144770928Y-100121357D01*
X144740690Y-100242309D01*
X144710452Y-100302785D01*
X144680214Y-100333023D01*
X144619738Y-100363261D01*
X144559261Y-100363261D01*
X144498785Y-100333023D01*
X144468547Y-100302785D01*
X144438309Y-100242309D01*
X144408071Y-100121357D01*
X144408071Y-99970166D01*
X144438309Y-99849214D01*
X144468547Y-99788738D01*
X144498785Y-99758500D01*
X144559261Y-99728261D01*
X144982595Y-99728261D02*
X145375690Y-99728261D01*
X145164023Y-99970166D01*
X145254738Y-99970166D01*
X145315214Y-100000404D01*
X145345452Y-100030642D01*
X145375690Y-100091119D01*
X145375690Y-100242309D01*
X145345452Y-100302785D01*
X145315214Y-100333023D01*
X145254738Y-100363261D01*
X145073309Y-100363261D01*
X145012833Y-100333023D01*
X144982595Y-100302785D01*
X106477404Y-129827261D02*
X106265738Y-129524880D01*
X106114547Y-129827261D02*
X106114547Y-129192261D01*
X106356452Y-129192261D01*
X106416928Y-129222500D01*
X106447166Y-129252738D01*
X106477404Y-129313214D01*
X106477404Y-129403928D01*
X106447166Y-129464404D01*
X106416928Y-129494642D01*
X106356452Y-129524880D01*
X106114547Y-129524880D01*
X106719309Y-129252738D02*
X106749547Y-129222500D01*
X106810023Y-129192261D01*
X106961214Y-129192261D01*
X107021690Y-129222500D01*
X107051928Y-129252738D01*
X107082166Y-129313214D01*
X107082166Y-129373690D01*
X107051928Y-129464404D01*
X106689071Y-129827261D01*
X107082166Y-129827261D01*
X107475261Y-129192261D02*
X107535738Y-129192261D01*
X107596214Y-129222500D01*
X107626452Y-129252738D01*
X107656690Y-129313214D01*
X107686928Y-129434166D01*
X107686928Y-129585357D01*
X107656690Y-129706309D01*
X107626452Y-129766785D01*
X107596214Y-129797023D01*
X107535738Y-129827261D01*
X107475261Y-129827261D01*
X107414785Y-129797023D01*
X107384547Y-129766785D01*
X107354309Y-129706309D01*
X107324071Y-129585357D01*
X107324071Y-129434166D01*
X107354309Y-129313214D01*
X107384547Y-129252738D01*
X107414785Y-129222500D01*
X107475261Y-129192261D01*
X108291690Y-129827261D02*
X107928833Y-129827261D01*
X108110261Y-129827261D02*
X108110261Y-129192261D01*
X108049785Y-129282976D01*
X107989309Y-129343452D01*
X107928833Y-129373690D01*
X106325004Y-117127261D02*
X106113338Y-116824880D01*
X105962147Y-117127261D02*
X105962147Y-116492261D01*
X106204052Y-116492261D01*
X106264528Y-116522500D01*
X106294766Y-116552738D01*
X106325004Y-116613214D01*
X106325004Y-116703928D01*
X106294766Y-116764404D01*
X106264528Y-116794642D01*
X106204052Y-116824880D01*
X105962147Y-116824880D01*
X106536671Y-116492261D02*
X106929766Y-116492261D01*
X106718100Y-116734166D01*
X106808814Y-116734166D01*
X106869290Y-116764404D01*
X106899528Y-116794642D01*
X106929766Y-116855119D01*
X106929766Y-117006309D01*
X106899528Y-117066785D01*
X106869290Y-117097023D01*
X106808814Y-117127261D01*
X106627385Y-117127261D01*
X106566909Y-117097023D01*
X106536671Y-117066785D01*
X107322861Y-116492261D02*
X107383338Y-116492261D01*
X107443814Y-116522500D01*
X107474052Y-116552738D01*
X107504290Y-116613214D01*
X107534528Y-116734166D01*
X107534528Y-116885357D01*
X107504290Y-117006309D01*
X107474052Y-117066785D01*
X107443814Y-117097023D01*
X107383338Y-117127261D01*
X107322861Y-117127261D01*
X107262385Y-117097023D01*
X107232147Y-117066785D01*
X107201909Y-117006309D01*
X107171671Y-116885357D01*
X107171671Y-116734166D01*
X107201909Y-116613214D01*
X107232147Y-116552738D01*
X107262385Y-116522500D01*
X107322861Y-116492261D01*
X108139290Y-117127261D02*
X107776433Y-117127261D01*
X107957861Y-117127261D02*
X107957861Y-116492261D01*
X107897385Y-116582976D01*
X107836909Y-116643452D01*
X107776433Y-116673690D01*
X106274204Y-104427261D02*
X106062538Y-104124880D01*
X105911347Y-104427261D02*
X105911347Y-103792261D01*
X106153252Y-103792261D01*
X106213728Y-103822500D01*
X106243966Y-103852738D01*
X106274204Y-103913214D01*
X106274204Y-104003928D01*
X106243966Y-104064404D01*
X106213728Y-104094642D01*
X106153252Y-104124880D01*
X105911347Y-104124880D01*
X106818490Y-104003928D02*
X106818490Y-104427261D01*
X106667300Y-103762023D02*
X106516109Y-104215595D01*
X106909204Y-104215595D01*
X107272061Y-103792261D02*
X107332538Y-103792261D01*
X107393014Y-103822500D01*
X107423252Y-103852738D01*
X107453490Y-103913214D01*
X107483728Y-104034166D01*
X107483728Y-104185357D01*
X107453490Y-104306309D01*
X107423252Y-104366785D01*
X107393014Y-104397023D01*
X107332538Y-104427261D01*
X107272061Y-104427261D01*
X107211585Y-104397023D01*
X107181347Y-104366785D01*
X107151109Y-104306309D01*
X107120871Y-104185357D01*
X107120871Y-104034166D01*
X107151109Y-103913214D01*
X107181347Y-103852738D01*
X107211585Y-103822500D01*
X107272061Y-103792261D01*
X108088490Y-104427261D02*
X107725633Y-104427261D01*
X107907061Y-104427261D02*
X107907061Y-103792261D01*
X107846585Y-103882976D01*
X107786109Y-103943452D01*
X107725633Y-103973690D01*
X106325004Y-91727261D02*
X106113338Y-91424880D01*
X105962147Y-91727261D02*
X105962147Y-91092261D01*
X106204052Y-91092261D01*
X106264528Y-91122500D01*
X106294766Y-91152738D01*
X106325004Y-91213214D01*
X106325004Y-91303928D01*
X106294766Y-91364404D01*
X106264528Y-91394642D01*
X106204052Y-91424880D01*
X105962147Y-91424880D01*
X106899528Y-91092261D02*
X106597147Y-91092261D01*
X106566909Y-91394642D01*
X106597147Y-91364404D01*
X106657623Y-91334166D01*
X106808814Y-91334166D01*
X106869290Y-91364404D01*
X106899528Y-91394642D01*
X106929766Y-91455119D01*
X106929766Y-91606309D01*
X106899528Y-91666785D01*
X106869290Y-91697023D01*
X106808814Y-91727261D01*
X106657623Y-91727261D01*
X106597147Y-91697023D01*
X106566909Y-91666785D01*
X107322861Y-91092261D02*
X107383338Y-91092261D01*
X107443814Y-91122500D01*
X107474052Y-91152738D01*
X107504290Y-91213214D01*
X107534528Y-91334166D01*
X107534528Y-91485357D01*
X107504290Y-91606309D01*
X107474052Y-91666785D01*
X107443814Y-91697023D01*
X107383338Y-91727261D01*
X107322861Y-91727261D01*
X107262385Y-91697023D01*
X107232147Y-91666785D01*
X107201909Y-91606309D01*
X107171671Y-91485357D01*
X107171671Y-91334166D01*
X107201909Y-91213214D01*
X107232147Y-91152738D01*
X107262385Y-91122500D01*
X107322861Y-91092261D01*
X108139290Y-91727261D02*
X107776433Y-91727261D01*
X107957861Y-91727261D02*
X107957861Y-91092261D01*
X107897385Y-91182976D01*
X107836909Y-91243452D01*
X107776433Y-91273690D01*
X106325004Y-79078061D02*
X106113338Y-78775680D01*
X105962147Y-79078061D02*
X105962147Y-78443061D01*
X106204052Y-78443061D01*
X106264528Y-78473300D01*
X106294766Y-78503538D01*
X106325004Y-78564014D01*
X106325004Y-78654728D01*
X106294766Y-78715204D01*
X106264528Y-78745442D01*
X106204052Y-78775680D01*
X105962147Y-78775680D01*
X106869290Y-78443061D02*
X106748338Y-78443061D01*
X106687861Y-78473300D01*
X106657623Y-78503538D01*
X106597147Y-78594252D01*
X106566909Y-78715204D01*
X106566909Y-78957109D01*
X106597147Y-79017585D01*
X106627385Y-79047823D01*
X106687861Y-79078061D01*
X106808814Y-79078061D01*
X106869290Y-79047823D01*
X106899528Y-79017585D01*
X106929766Y-78957109D01*
X106929766Y-78805919D01*
X106899528Y-78745442D01*
X106869290Y-78715204D01*
X106808814Y-78684966D01*
X106687861Y-78684966D01*
X106627385Y-78715204D01*
X106597147Y-78745442D01*
X106566909Y-78805919D01*
X107322861Y-78443061D02*
X107383338Y-78443061D01*
X107443814Y-78473300D01*
X107474052Y-78503538D01*
X107504290Y-78564014D01*
X107534528Y-78684966D01*
X107534528Y-78836157D01*
X107504290Y-78957109D01*
X107474052Y-79017585D01*
X107443814Y-79047823D01*
X107383338Y-79078061D01*
X107322861Y-79078061D01*
X107262385Y-79047823D01*
X107232147Y-79017585D01*
X107201909Y-78957109D01*
X107171671Y-78836157D01*
X107171671Y-78684966D01*
X107201909Y-78564014D01*
X107232147Y-78503538D01*
X107262385Y-78473300D01*
X107322861Y-78443061D01*
X108139290Y-79078061D02*
X107776433Y-79078061D01*
X107957861Y-79078061D02*
X107957861Y-78443061D01*
X107897385Y-78533776D01*
X107836909Y-78594252D01*
X107776433Y-78624490D01*
X106274204Y-66327261D02*
X106062538Y-66024880D01*
X105911347Y-66327261D02*
X105911347Y-65692261D01*
X106153252Y-65692261D01*
X106213728Y-65722500D01*
X106243966Y-65752738D01*
X106274204Y-65813214D01*
X106274204Y-65903928D01*
X106243966Y-65964404D01*
X106213728Y-65994642D01*
X106153252Y-66024880D01*
X105911347Y-66024880D01*
X106485871Y-65692261D02*
X106909204Y-65692261D01*
X106637061Y-66327261D01*
X107272061Y-65692261D02*
X107332538Y-65692261D01*
X107393014Y-65722500D01*
X107423252Y-65752738D01*
X107453490Y-65813214D01*
X107483728Y-65934166D01*
X107483728Y-66085357D01*
X107453490Y-66206309D01*
X107423252Y-66266785D01*
X107393014Y-66297023D01*
X107332538Y-66327261D01*
X107272061Y-66327261D01*
X107211585Y-66297023D01*
X107181347Y-66266785D01*
X107151109Y-66206309D01*
X107120871Y-66085357D01*
X107120871Y-65934166D01*
X107151109Y-65813214D01*
X107181347Y-65752738D01*
X107211585Y-65722500D01*
X107272061Y-65692261D01*
X108088490Y-66327261D02*
X107725633Y-66327261D01*
X107907061Y-66327261D02*
X107907061Y-65692261D01*
X107846585Y-65782976D01*
X107786109Y-65843452D01*
X107725633Y-65873690D01*
D10*
X88809285Y-59998428D02*
X88301285Y-59272714D01*
X87938428Y-59998428D02*
X87938428Y-58474428D01*
X88519000Y-58474428D01*
X88664142Y-58547000D01*
X88736714Y-58619571D01*
X88809285Y-58764714D01*
X88809285Y-58982428D01*
X88736714Y-59127571D01*
X88664142Y-59200142D01*
X88519000Y-59272714D01*
X87938428Y-59272714D01*
X89462428Y-59200142D02*
X89970428Y-59200142D01*
X90188142Y-59998428D02*
X89462428Y-59998428D01*
X89462428Y-58474428D01*
X90188142Y-58474428D01*
X91567000Y-59998428D02*
X90841285Y-59998428D01*
X90841285Y-58474428D01*
X92873285Y-59998428D02*
X92002428Y-59998428D01*
X92437857Y-59998428D02*
X92437857Y-58474428D01*
X92292714Y-58692142D01*
X92147571Y-58837285D01*
X92002428Y-58909857D01*
X93816714Y-58474428D02*
X93961857Y-58474428D01*
X94107000Y-58547000D01*
X94179571Y-58619571D01*
X94252142Y-58764714D01*
X94324714Y-59055000D01*
X94324714Y-59417857D01*
X94252142Y-59708142D01*
X94179571Y-59853285D01*
X94107000Y-59925857D01*
X93961857Y-59998428D01*
X93816714Y-59998428D01*
X93671571Y-59925857D01*
X93599000Y-59853285D01*
X93526428Y-59708142D01*
X93453857Y-59417857D01*
X93453857Y-59055000D01*
X93526428Y-58764714D01*
X93599000Y-58619571D01*
X93671571Y-58547000D01*
X93816714Y-58474428D01*
X95776142Y-59998428D02*
X94905285Y-59998428D01*
X95340714Y-59998428D02*
X95340714Y-58474428D01*
X95195571Y-58692142D01*
X95050428Y-58837285D01*
X94905285Y-58909857D01*
X113828285Y-136579428D02*
X113320285Y-135853714D01*
X112957428Y-136579428D02*
X112957428Y-135055428D01*
X113538000Y-135055428D01*
X113683142Y-135128000D01*
X113755714Y-135200571D01*
X113828285Y-135345714D01*
X113828285Y-135563428D01*
X113755714Y-135708571D01*
X113683142Y-135781142D01*
X113538000Y-135853714D01*
X112957428Y-135853714D01*
X114481428Y-135781142D02*
X114989428Y-135781142D01*
X115207142Y-136579428D02*
X114481428Y-136579428D01*
X114481428Y-135055428D01*
X115207142Y-135055428D01*
X116586000Y-136579428D02*
X115860285Y-136579428D01*
X115860285Y-135055428D01*
X117021428Y-135200571D02*
X117094000Y-135128000D01*
X117239142Y-135055428D01*
X117602000Y-135055428D01*
X117747142Y-135128000D01*
X117819714Y-135200571D01*
X117892285Y-135345714D01*
X117892285Y-135490857D01*
X117819714Y-135708571D01*
X116948857Y-136579428D01*
X117892285Y-136579428D01*
X118835714Y-135055428D02*
X118980857Y-135055428D01*
X119126000Y-135128000D01*
X119198571Y-135200571D01*
X119271142Y-135345714D01*
X119343714Y-135636000D01*
X119343714Y-135998857D01*
X119271142Y-136289142D01*
X119198571Y-136434285D01*
X119126000Y-136506857D01*
X118980857Y-136579428D01*
X118835714Y-136579428D01*
X118690571Y-136506857D01*
X118618000Y-136434285D01*
X118545428Y-136289142D01*
X118472857Y-135998857D01*
X118472857Y-135636000D01*
X118545428Y-135345714D01*
X118618000Y-135200571D01*
X118690571Y-135128000D01*
X118835714Y-135055428D01*
X120795142Y-136579428D02*
X119924285Y-136579428D01*
X120359714Y-136579428D02*
X120359714Y-135055428D01*
X120214571Y-135273142D01*
X120069428Y-135418285D01*
X119924285Y-135490857D01*
X89698285Y-136579428D02*
X89190285Y-135853714D01*
X88827428Y-136579428D02*
X88827428Y-135055428D01*
X89408000Y-135055428D01*
X89553142Y-135128000D01*
X89625714Y-135200571D01*
X89698285Y-135345714D01*
X89698285Y-135563428D01*
X89625714Y-135708571D01*
X89553142Y-135781142D01*
X89408000Y-135853714D01*
X88827428Y-135853714D01*
X90351428Y-135781142D02*
X90859428Y-135781142D01*
X91077142Y-136579428D02*
X90351428Y-136579428D01*
X90351428Y-135055428D01*
X91077142Y-135055428D01*
X92456000Y-136579428D02*
X91730285Y-136579428D01*
X91730285Y-135055428D01*
X92891428Y-135200571D02*
X92964000Y-135128000D01*
X93109142Y-135055428D01*
X93472000Y-135055428D01*
X93617142Y-135128000D01*
X93689714Y-135200571D01*
X93762285Y-135345714D01*
X93762285Y-135490857D01*
X93689714Y-135708571D01*
X92818857Y-136579428D01*
X93762285Y-136579428D01*
X94705714Y-135055428D02*
X94850857Y-135055428D01*
X94996000Y-135128000D01*
X95068571Y-135200571D01*
X95141142Y-135345714D01*
X95213714Y-135636000D01*
X95213714Y-135998857D01*
X95141142Y-136289142D01*
X95068571Y-136434285D01*
X94996000Y-136506857D01*
X94850857Y-136579428D01*
X94705714Y-136579428D01*
X94560571Y-136506857D01*
X94488000Y-136434285D01*
X94415428Y-136289142D01*
X94342857Y-135998857D01*
X94342857Y-135636000D01*
X94415428Y-135345714D01*
X94488000Y-135200571D01*
X94560571Y-135128000D01*
X94705714Y-135055428D01*
X95794285Y-135200571D02*
X95866857Y-135128000D01*
X96012000Y-135055428D01*
X96374857Y-135055428D01*
X96520000Y-135128000D01*
X96592571Y-135200571D01*
X96665142Y-135345714D01*
X96665142Y-135490857D01*
X96592571Y-135708571D01*
X95721714Y-136579428D01*
X96665142Y-136579428D01*
X113828285Y-123879428D02*
X113320285Y-123153714D01*
X112957428Y-123879428D02*
X112957428Y-122355428D01*
X113538000Y-122355428D01*
X113683142Y-122428000D01*
X113755714Y-122500571D01*
X113828285Y-122645714D01*
X113828285Y-122863428D01*
X113755714Y-123008571D01*
X113683142Y-123081142D01*
X113538000Y-123153714D01*
X112957428Y-123153714D01*
X114481428Y-123081142D02*
X114989428Y-123081142D01*
X115207142Y-123879428D02*
X114481428Y-123879428D01*
X114481428Y-122355428D01*
X115207142Y-122355428D01*
X116586000Y-123879428D02*
X115860285Y-123879428D01*
X115860285Y-122355428D01*
X116948857Y-122355428D02*
X117892285Y-122355428D01*
X117384285Y-122936000D01*
X117602000Y-122936000D01*
X117747142Y-123008571D01*
X117819714Y-123081142D01*
X117892285Y-123226285D01*
X117892285Y-123589142D01*
X117819714Y-123734285D01*
X117747142Y-123806857D01*
X117602000Y-123879428D01*
X117166571Y-123879428D01*
X117021428Y-123806857D01*
X116948857Y-123734285D01*
X118835714Y-122355428D02*
X118980857Y-122355428D01*
X119126000Y-122428000D01*
X119198571Y-122500571D01*
X119271142Y-122645714D01*
X119343714Y-122936000D01*
X119343714Y-123298857D01*
X119271142Y-123589142D01*
X119198571Y-123734285D01*
X119126000Y-123806857D01*
X118980857Y-123879428D01*
X118835714Y-123879428D01*
X118690571Y-123806857D01*
X118618000Y-123734285D01*
X118545428Y-123589142D01*
X118472857Y-123298857D01*
X118472857Y-122936000D01*
X118545428Y-122645714D01*
X118618000Y-122500571D01*
X118690571Y-122428000D01*
X118835714Y-122355428D01*
X120795142Y-123879428D02*
X119924285Y-123879428D01*
X120359714Y-123879428D02*
X120359714Y-122355428D01*
X120214571Y-122573142D01*
X120069428Y-122718285D01*
X119924285Y-122790857D01*
X89698285Y-123879428D02*
X89190285Y-123153714D01*
X88827428Y-123879428D02*
X88827428Y-122355428D01*
X89408000Y-122355428D01*
X89553142Y-122428000D01*
X89625714Y-122500571D01*
X89698285Y-122645714D01*
X89698285Y-122863428D01*
X89625714Y-123008571D01*
X89553142Y-123081142D01*
X89408000Y-123153714D01*
X88827428Y-123153714D01*
X90351428Y-123081142D02*
X90859428Y-123081142D01*
X91077142Y-123879428D02*
X90351428Y-123879428D01*
X90351428Y-122355428D01*
X91077142Y-122355428D01*
X92456000Y-123879428D02*
X91730285Y-123879428D01*
X91730285Y-122355428D01*
X92818857Y-122355428D02*
X93762285Y-122355428D01*
X93254285Y-122936000D01*
X93472000Y-122936000D01*
X93617142Y-123008571D01*
X93689714Y-123081142D01*
X93762285Y-123226285D01*
X93762285Y-123589142D01*
X93689714Y-123734285D01*
X93617142Y-123806857D01*
X93472000Y-123879428D01*
X93036571Y-123879428D01*
X92891428Y-123806857D01*
X92818857Y-123734285D01*
X94705714Y-122355428D02*
X94850857Y-122355428D01*
X94996000Y-122428000D01*
X95068571Y-122500571D01*
X95141142Y-122645714D01*
X95213714Y-122936000D01*
X95213714Y-123298857D01*
X95141142Y-123589142D01*
X95068571Y-123734285D01*
X94996000Y-123806857D01*
X94850857Y-123879428D01*
X94705714Y-123879428D01*
X94560571Y-123806857D01*
X94488000Y-123734285D01*
X94415428Y-123589142D01*
X94342857Y-123298857D01*
X94342857Y-122936000D01*
X94415428Y-122645714D01*
X94488000Y-122500571D01*
X94560571Y-122428000D01*
X94705714Y-122355428D01*
X95794285Y-122500571D02*
X95866857Y-122428000D01*
X96012000Y-122355428D01*
X96374857Y-122355428D01*
X96520000Y-122428000D01*
X96592571Y-122500571D01*
X96665142Y-122645714D01*
X96665142Y-122790857D01*
X96592571Y-123008571D01*
X95721714Y-123879428D01*
X96665142Y-123879428D01*
X113828285Y-111179428D02*
X113320285Y-110453714D01*
X112957428Y-111179428D02*
X112957428Y-109655428D01*
X113538000Y-109655428D01*
X113683142Y-109728000D01*
X113755714Y-109800571D01*
X113828285Y-109945714D01*
X113828285Y-110163428D01*
X113755714Y-110308571D01*
X113683142Y-110381142D01*
X113538000Y-110453714D01*
X112957428Y-110453714D01*
X114481428Y-110381142D02*
X114989428Y-110381142D01*
X115207142Y-111179428D02*
X114481428Y-111179428D01*
X114481428Y-109655428D01*
X115207142Y-109655428D01*
X116586000Y-111179428D02*
X115860285Y-111179428D01*
X115860285Y-109655428D01*
X117747142Y-110163428D02*
X117747142Y-111179428D01*
X117384285Y-109582857D02*
X117021428Y-110671428D01*
X117964857Y-110671428D01*
X118835714Y-109655428D02*
X118980857Y-109655428D01*
X119126000Y-109728000D01*
X119198571Y-109800571D01*
X119271142Y-109945714D01*
X119343714Y-110236000D01*
X119343714Y-110598857D01*
X119271142Y-110889142D01*
X119198571Y-111034285D01*
X119126000Y-111106857D01*
X118980857Y-111179428D01*
X118835714Y-111179428D01*
X118690571Y-111106857D01*
X118618000Y-111034285D01*
X118545428Y-110889142D01*
X118472857Y-110598857D01*
X118472857Y-110236000D01*
X118545428Y-109945714D01*
X118618000Y-109800571D01*
X118690571Y-109728000D01*
X118835714Y-109655428D01*
X120795142Y-111179428D02*
X119924285Y-111179428D01*
X120359714Y-111179428D02*
X120359714Y-109655428D01*
X120214571Y-109873142D01*
X120069428Y-110018285D01*
X119924285Y-110090857D01*
X89698285Y-111179428D02*
X89190285Y-110453714D01*
X88827428Y-111179428D02*
X88827428Y-109655428D01*
X89408000Y-109655428D01*
X89553142Y-109728000D01*
X89625714Y-109800571D01*
X89698285Y-109945714D01*
X89698285Y-110163428D01*
X89625714Y-110308571D01*
X89553142Y-110381142D01*
X89408000Y-110453714D01*
X88827428Y-110453714D01*
X90351428Y-110381142D02*
X90859428Y-110381142D01*
X91077142Y-111179428D02*
X90351428Y-111179428D01*
X90351428Y-109655428D01*
X91077142Y-109655428D01*
X92456000Y-111179428D02*
X91730285Y-111179428D01*
X91730285Y-109655428D01*
X93617142Y-110163428D02*
X93617142Y-111179428D01*
X93254285Y-109582857D02*
X92891428Y-110671428D01*
X93834857Y-110671428D01*
X94705714Y-109655428D02*
X94850857Y-109655428D01*
X94996000Y-109728000D01*
X95068571Y-109800571D01*
X95141142Y-109945714D01*
X95213714Y-110236000D01*
X95213714Y-110598857D01*
X95141142Y-110889142D01*
X95068571Y-111034285D01*
X94996000Y-111106857D01*
X94850857Y-111179428D01*
X94705714Y-111179428D01*
X94560571Y-111106857D01*
X94488000Y-111034285D01*
X94415428Y-110889142D01*
X94342857Y-110598857D01*
X94342857Y-110236000D01*
X94415428Y-109945714D01*
X94488000Y-109800571D01*
X94560571Y-109728000D01*
X94705714Y-109655428D01*
X95794285Y-109800571D02*
X95866857Y-109728000D01*
X96012000Y-109655428D01*
X96374857Y-109655428D01*
X96520000Y-109728000D01*
X96592571Y-109800571D01*
X96665142Y-109945714D01*
X96665142Y-110090857D01*
X96592571Y-110308571D01*
X95721714Y-111179428D01*
X96665142Y-111179428D01*
X113828285Y-98479428D02*
X113320285Y-97753714D01*
X112957428Y-98479428D02*
X112957428Y-96955428D01*
X113538000Y-96955428D01*
X113683142Y-97028000D01*
X113755714Y-97100571D01*
X113828285Y-97245714D01*
X113828285Y-97463428D01*
X113755714Y-97608571D01*
X113683142Y-97681142D01*
X113538000Y-97753714D01*
X112957428Y-97753714D01*
X114481428Y-97681142D02*
X114989428Y-97681142D01*
X115207142Y-98479428D02*
X114481428Y-98479428D01*
X114481428Y-96955428D01*
X115207142Y-96955428D01*
X116586000Y-98479428D02*
X115860285Y-98479428D01*
X115860285Y-96955428D01*
X117819714Y-96955428D02*
X117094000Y-96955428D01*
X117021428Y-97681142D01*
X117094000Y-97608571D01*
X117239142Y-97536000D01*
X117602000Y-97536000D01*
X117747142Y-97608571D01*
X117819714Y-97681142D01*
X117892285Y-97826285D01*
X117892285Y-98189142D01*
X117819714Y-98334285D01*
X117747142Y-98406857D01*
X117602000Y-98479428D01*
X117239142Y-98479428D01*
X117094000Y-98406857D01*
X117021428Y-98334285D01*
X118835714Y-96955428D02*
X118980857Y-96955428D01*
X119126000Y-97028000D01*
X119198571Y-97100571D01*
X119271142Y-97245714D01*
X119343714Y-97536000D01*
X119343714Y-97898857D01*
X119271142Y-98189142D01*
X119198571Y-98334285D01*
X119126000Y-98406857D01*
X118980857Y-98479428D01*
X118835714Y-98479428D01*
X118690571Y-98406857D01*
X118618000Y-98334285D01*
X118545428Y-98189142D01*
X118472857Y-97898857D01*
X118472857Y-97536000D01*
X118545428Y-97245714D01*
X118618000Y-97100571D01*
X118690571Y-97028000D01*
X118835714Y-96955428D01*
X120795142Y-98479428D02*
X119924285Y-98479428D01*
X120359714Y-98479428D02*
X120359714Y-96955428D01*
X120214571Y-97173142D01*
X120069428Y-97318285D01*
X119924285Y-97390857D01*
X89698285Y-98479428D02*
X89190285Y-97753714D01*
X88827428Y-98479428D02*
X88827428Y-96955428D01*
X89408000Y-96955428D01*
X89553142Y-97028000D01*
X89625714Y-97100571D01*
X89698285Y-97245714D01*
X89698285Y-97463428D01*
X89625714Y-97608571D01*
X89553142Y-97681142D01*
X89408000Y-97753714D01*
X88827428Y-97753714D01*
X90351428Y-97681142D02*
X90859428Y-97681142D01*
X91077142Y-98479428D02*
X90351428Y-98479428D01*
X90351428Y-96955428D01*
X91077142Y-96955428D01*
X92456000Y-98479428D02*
X91730285Y-98479428D01*
X91730285Y-96955428D01*
X93689714Y-96955428D02*
X92964000Y-96955428D01*
X92891428Y-97681142D01*
X92964000Y-97608571D01*
X93109142Y-97536000D01*
X93472000Y-97536000D01*
X93617142Y-97608571D01*
X93689714Y-97681142D01*
X93762285Y-97826285D01*
X93762285Y-98189142D01*
X93689714Y-98334285D01*
X93617142Y-98406857D01*
X93472000Y-98479428D01*
X93109142Y-98479428D01*
X92964000Y-98406857D01*
X92891428Y-98334285D01*
X94705714Y-96955428D02*
X94850857Y-96955428D01*
X94996000Y-97028000D01*
X95068571Y-97100571D01*
X95141142Y-97245714D01*
X95213714Y-97536000D01*
X95213714Y-97898857D01*
X95141142Y-98189142D01*
X95068571Y-98334285D01*
X94996000Y-98406857D01*
X94850857Y-98479428D01*
X94705714Y-98479428D01*
X94560571Y-98406857D01*
X94488000Y-98334285D01*
X94415428Y-98189142D01*
X94342857Y-97898857D01*
X94342857Y-97536000D01*
X94415428Y-97245714D01*
X94488000Y-97100571D01*
X94560571Y-97028000D01*
X94705714Y-96955428D01*
X95794285Y-97100571D02*
X95866857Y-97028000D01*
X96012000Y-96955428D01*
X96374857Y-96955428D01*
X96520000Y-97028000D01*
X96592571Y-97100571D01*
X96665142Y-97245714D01*
X96665142Y-97390857D01*
X96592571Y-97608571D01*
X95721714Y-98479428D01*
X96665142Y-98479428D01*
X113828285Y-85779428D02*
X113320285Y-85053714D01*
X112957428Y-85779428D02*
X112957428Y-84255428D01*
X113538000Y-84255428D01*
X113683142Y-84328000D01*
X113755714Y-84400571D01*
X113828285Y-84545714D01*
X113828285Y-84763428D01*
X113755714Y-84908571D01*
X113683142Y-84981142D01*
X113538000Y-85053714D01*
X112957428Y-85053714D01*
X114481428Y-84981142D02*
X114989428Y-84981142D01*
X115207142Y-85779428D02*
X114481428Y-85779428D01*
X114481428Y-84255428D01*
X115207142Y-84255428D01*
X116586000Y-85779428D02*
X115860285Y-85779428D01*
X115860285Y-84255428D01*
X117747142Y-84255428D02*
X117456857Y-84255428D01*
X117311714Y-84328000D01*
X117239142Y-84400571D01*
X117094000Y-84618285D01*
X117021428Y-84908571D01*
X117021428Y-85489142D01*
X117094000Y-85634285D01*
X117166571Y-85706857D01*
X117311714Y-85779428D01*
X117602000Y-85779428D01*
X117747142Y-85706857D01*
X117819714Y-85634285D01*
X117892285Y-85489142D01*
X117892285Y-85126285D01*
X117819714Y-84981142D01*
X117747142Y-84908571D01*
X117602000Y-84836000D01*
X117311714Y-84836000D01*
X117166571Y-84908571D01*
X117094000Y-84981142D01*
X117021428Y-85126285D01*
X118835714Y-84255428D02*
X118980857Y-84255428D01*
X119126000Y-84328000D01*
X119198571Y-84400571D01*
X119271142Y-84545714D01*
X119343714Y-84836000D01*
X119343714Y-85198857D01*
X119271142Y-85489142D01*
X119198571Y-85634285D01*
X119126000Y-85706857D01*
X118980857Y-85779428D01*
X118835714Y-85779428D01*
X118690571Y-85706857D01*
X118618000Y-85634285D01*
X118545428Y-85489142D01*
X118472857Y-85198857D01*
X118472857Y-84836000D01*
X118545428Y-84545714D01*
X118618000Y-84400571D01*
X118690571Y-84328000D01*
X118835714Y-84255428D01*
X120795142Y-85779428D02*
X119924285Y-85779428D01*
X120359714Y-85779428D02*
X120359714Y-84255428D01*
X120214571Y-84473142D01*
X120069428Y-84618285D01*
X119924285Y-84690857D01*
X89698285Y-85779428D02*
X89190285Y-85053714D01*
X88827428Y-85779428D02*
X88827428Y-84255428D01*
X89408000Y-84255428D01*
X89553142Y-84328000D01*
X89625714Y-84400571D01*
X89698285Y-84545714D01*
X89698285Y-84763428D01*
X89625714Y-84908571D01*
X89553142Y-84981142D01*
X89408000Y-85053714D01*
X88827428Y-85053714D01*
X90351428Y-84981142D02*
X90859428Y-84981142D01*
X91077142Y-85779428D02*
X90351428Y-85779428D01*
X90351428Y-84255428D01*
X91077142Y-84255428D01*
X92456000Y-85779428D02*
X91730285Y-85779428D01*
X91730285Y-84255428D01*
X93617142Y-84255428D02*
X93326857Y-84255428D01*
X93181714Y-84328000D01*
X93109142Y-84400571D01*
X92964000Y-84618285D01*
X92891428Y-84908571D01*
X92891428Y-85489142D01*
X92964000Y-85634285D01*
X93036571Y-85706857D01*
X93181714Y-85779428D01*
X93472000Y-85779428D01*
X93617142Y-85706857D01*
X93689714Y-85634285D01*
X93762285Y-85489142D01*
X93762285Y-85126285D01*
X93689714Y-84981142D01*
X93617142Y-84908571D01*
X93472000Y-84836000D01*
X93181714Y-84836000D01*
X93036571Y-84908571D01*
X92964000Y-84981142D01*
X92891428Y-85126285D01*
X94705714Y-84255428D02*
X94850857Y-84255428D01*
X94996000Y-84328000D01*
X95068571Y-84400571D01*
X95141142Y-84545714D01*
X95213714Y-84836000D01*
X95213714Y-85198857D01*
X95141142Y-85489142D01*
X95068571Y-85634285D01*
X94996000Y-85706857D01*
X94850857Y-85779428D01*
X94705714Y-85779428D01*
X94560571Y-85706857D01*
X94488000Y-85634285D01*
X94415428Y-85489142D01*
X94342857Y-85198857D01*
X94342857Y-84836000D01*
X94415428Y-84545714D01*
X94488000Y-84400571D01*
X94560571Y-84328000D01*
X94705714Y-84255428D01*
X95794285Y-84400571D02*
X95866857Y-84328000D01*
X96012000Y-84255428D01*
X96374857Y-84255428D01*
X96520000Y-84328000D01*
X96592571Y-84400571D01*
X96665142Y-84545714D01*
X96665142Y-84690857D01*
X96592571Y-84908571D01*
X95721714Y-85779428D01*
X96665142Y-85779428D01*
X113828285Y-73079428D02*
X113320285Y-72353714D01*
X112957428Y-73079428D02*
X112957428Y-71555428D01*
X113538000Y-71555428D01*
X113683142Y-71628000D01*
X113755714Y-71700571D01*
X113828285Y-71845714D01*
X113828285Y-72063428D01*
X113755714Y-72208571D01*
X113683142Y-72281142D01*
X113538000Y-72353714D01*
X112957428Y-72353714D01*
X114481428Y-72281142D02*
X114989428Y-72281142D01*
X115207142Y-73079428D02*
X114481428Y-73079428D01*
X114481428Y-71555428D01*
X115207142Y-71555428D01*
X116586000Y-73079428D02*
X115860285Y-73079428D01*
X115860285Y-71555428D01*
X116948857Y-71555428D02*
X117964857Y-71555428D01*
X117311714Y-73079428D01*
X118835714Y-71555428D02*
X118980857Y-71555428D01*
X119126000Y-71628000D01*
X119198571Y-71700571D01*
X119271142Y-71845714D01*
X119343714Y-72136000D01*
X119343714Y-72498857D01*
X119271142Y-72789142D01*
X119198571Y-72934285D01*
X119126000Y-73006857D01*
X118980857Y-73079428D01*
X118835714Y-73079428D01*
X118690571Y-73006857D01*
X118618000Y-72934285D01*
X118545428Y-72789142D01*
X118472857Y-72498857D01*
X118472857Y-72136000D01*
X118545428Y-71845714D01*
X118618000Y-71700571D01*
X118690571Y-71628000D01*
X118835714Y-71555428D01*
X120795142Y-73079428D02*
X119924285Y-73079428D01*
X120359714Y-73079428D02*
X120359714Y-71555428D01*
X120214571Y-71773142D01*
X120069428Y-71918285D01*
X119924285Y-71990857D01*
X89698285Y-73079428D02*
X89190285Y-72353714D01*
X88827428Y-73079428D02*
X88827428Y-71555428D01*
X89408000Y-71555428D01*
X89553142Y-71628000D01*
X89625714Y-71700571D01*
X89698285Y-71845714D01*
X89698285Y-72063428D01*
X89625714Y-72208571D01*
X89553142Y-72281142D01*
X89408000Y-72353714D01*
X88827428Y-72353714D01*
X90351428Y-72281142D02*
X90859428Y-72281142D01*
X91077142Y-73079428D02*
X90351428Y-73079428D01*
X90351428Y-71555428D01*
X91077142Y-71555428D01*
X92456000Y-73079428D02*
X91730285Y-73079428D01*
X91730285Y-71555428D01*
X92818857Y-71555428D02*
X93834857Y-71555428D01*
X93181714Y-73079428D01*
X94705714Y-71555428D02*
X94850857Y-71555428D01*
X94996000Y-71628000D01*
X95068571Y-71700571D01*
X95141142Y-71845714D01*
X95213714Y-72136000D01*
X95213714Y-72498857D01*
X95141142Y-72789142D01*
X95068571Y-72934285D01*
X94996000Y-73006857D01*
X94850857Y-73079428D01*
X94705714Y-73079428D01*
X94560571Y-73006857D01*
X94488000Y-72934285D01*
X94415428Y-72789142D01*
X94342857Y-72498857D01*
X94342857Y-72136000D01*
X94415428Y-71845714D01*
X94488000Y-71700571D01*
X94560571Y-71628000D01*
X94705714Y-71555428D01*
X95794285Y-71700571D02*
X95866857Y-71628000D01*
X96012000Y-71555428D01*
X96374857Y-71555428D01*
X96520000Y-71628000D01*
X96592571Y-71700571D01*
X96665142Y-71845714D01*
X96665142Y-71990857D01*
X96592571Y-72208571D01*
X95721714Y-73079428D01*
X96665142Y-73079428D01*
D12*
X147102285Y-136476619D02*
X147102285Y-137299095D01*
X147150666Y-137395857D01*
X147199047Y-137444238D01*
X147295809Y-137492619D01*
X147489333Y-137492619D01*
X147586095Y-137444238D01*
X147634476Y-137395857D01*
X147682857Y-137299095D01*
X147682857Y-136476619D01*
X148698857Y-137492619D02*
X148118285Y-137492619D01*
X148408571Y-137492619D02*
X148408571Y-136476619D01*
X148311809Y-136621761D01*
X148215047Y-136718523D01*
X148118285Y-136766904D01*
X149327809Y-136476619D02*
X149424571Y-136476619D01*
X149521333Y-136525000D01*
X149569714Y-136573380D01*
X149618095Y-136670142D01*
X149666476Y-136863666D01*
X149666476Y-137105571D01*
X149618095Y-137299095D01*
X149569714Y-137395857D01*
X149521333Y-137444238D01*
X149424571Y-137492619D01*
X149327809Y-137492619D01*
X149231047Y-137444238D01*
X149182666Y-137395857D01*
X149134285Y-137299095D01*
X149085904Y-137105571D01*
X149085904Y-136863666D01*
X149134285Y-136670142D01*
X149182666Y-136573380D01*
X149231047Y-136525000D01*
X149327809Y-136476619D01*
X150634095Y-137492619D02*
X150053523Y-137492619D01*
X150343809Y-137492619D02*
X150343809Y-136476619D01*
X150247047Y-136621761D01*
X150150285Y-136718523D01*
X150053523Y-136766904D01*
X145372666Y-145620619D02*
X146050000Y-145620619D01*
X145614571Y-146636619D01*
X146582190Y-146056047D02*
X146485428Y-146007666D01*
X146437047Y-145959285D01*
X146388666Y-145862523D01*
X146388666Y-145814142D01*
X146437047Y-145717380D01*
X146485428Y-145669000D01*
X146582190Y-145620619D01*
X146775714Y-145620619D01*
X146872476Y-145669000D01*
X146920857Y-145717380D01*
X146969238Y-145814142D01*
X146969238Y-145862523D01*
X146920857Y-145959285D01*
X146872476Y-146007666D01*
X146775714Y-146056047D01*
X146582190Y-146056047D01*
X146485428Y-146104428D01*
X146437047Y-146152809D01*
X146388666Y-146249571D01*
X146388666Y-146443095D01*
X146437047Y-146539857D01*
X146485428Y-146588238D01*
X146582190Y-146636619D01*
X146775714Y-146636619D01*
X146872476Y-146588238D01*
X146920857Y-146539857D01*
X146969238Y-146443095D01*
X146969238Y-146249571D01*
X146920857Y-146152809D01*
X146872476Y-146104428D01*
X146775714Y-146056047D01*
X147888476Y-146636619D02*
X147404666Y-146636619D01*
X147404666Y-145620619D01*
X148420666Y-145620619D02*
X148517428Y-145620619D01*
X148614190Y-145669000D01*
X148662571Y-145717380D01*
X148710952Y-145814142D01*
X148759333Y-146007666D01*
X148759333Y-146249571D01*
X148710952Y-146443095D01*
X148662571Y-146539857D01*
X148614190Y-146588238D01*
X148517428Y-146636619D01*
X148420666Y-146636619D01*
X148323904Y-146588238D01*
X148275523Y-146539857D01*
X148227142Y-146443095D01*
X148178761Y-146249571D01*
X148178761Y-146007666D01*
X148227142Y-145814142D01*
X148275523Y-145717380D01*
X148323904Y-145669000D01*
X148420666Y-145620619D01*
X149678571Y-145620619D02*
X149194761Y-145620619D01*
X149146380Y-146104428D01*
X149194761Y-146056047D01*
X149291523Y-146007666D01*
X149533428Y-146007666D01*
X149630190Y-146056047D01*
X149678571Y-146104428D01*
X149726952Y-146201190D01*
X149726952Y-146443095D01*
X149678571Y-146539857D01*
X149630190Y-146588238D01*
X149533428Y-146636619D01*
X149291523Y-146636619D01*
X149194761Y-146588238D01*
X149146380Y-146539857D01*
M02*
