G04 #@! TF.GenerationSoftware,KiCad,Pcbnew,(5.1.5)-3*
G04 #@! TF.CreationDate,2021-08-30T19:36:05+02:00*
G04 #@! TF.ProjectId,fsu,6673752e-6b69-4636-9164-5f7063625858,0431 -*
G04 #@! TF.SameCoordinates,Original*
G04 #@! TF.FileFunction,Legend,Top*
G04 #@! TF.FilePolarity,Positive*
%FSLAX46Y46*%
G04 Gerber Fmt 4.6, Leading zero omitted, Abs format (unit mm)*
G04 Created by KiCad (PCBNEW (5.1.5)-3) date 2021-08-30 19:36:05*
%MOMM*%
%LPD*%
G04 APERTURE LIST*
%ADD10C,0.304800*%
%ADD11C,0.381000*%
%ADD12C,0.127000*%
%ADD13C,0.203200*%
%ADD14C,0.254000*%
%ADD15C,0.152400*%
G04 APERTURE END LIST*
D10*
X79549362Y-63265988D02*
X79694505Y-63265988D01*
X79839648Y-63338560D01*
X79912220Y-63411131D01*
X79984791Y-63556274D01*
X80057362Y-63846560D01*
X80057362Y-64209417D01*
X79984791Y-64499702D01*
X79912220Y-64644845D01*
X79839648Y-64717417D01*
X79694505Y-64789988D01*
X79549362Y-64789988D01*
X79404220Y-64717417D01*
X79331648Y-64644845D01*
X79259077Y-64499702D01*
X79186505Y-64209417D01*
X79186505Y-63846560D01*
X79259077Y-63556274D01*
X79331648Y-63411131D01*
X79404220Y-63338560D01*
X79549362Y-63265988D01*
X80492791Y-63265988D02*
X81000791Y-64789988D01*
X81508791Y-63265988D01*
X79549362Y-65765988D02*
X79694505Y-65765988D01*
X79839648Y-65838560D01*
X79912220Y-65911131D01*
X79984791Y-66056274D01*
X80057362Y-66346560D01*
X80057362Y-66709417D01*
X79984791Y-66999702D01*
X79912220Y-67144845D01*
X79839648Y-67217417D01*
X79694505Y-67289988D01*
X79549362Y-67289988D01*
X79404220Y-67217417D01*
X79331648Y-67144845D01*
X79259077Y-66999702D01*
X79186505Y-66709417D01*
X79186505Y-66346560D01*
X79259077Y-66056274D01*
X79331648Y-65911131D01*
X79404220Y-65838560D01*
X79549362Y-65765988D01*
X80492791Y-65765988D02*
X81000791Y-67289988D01*
X81508791Y-65765988D01*
X79767077Y-68991702D02*
X79984791Y-69064274D01*
X80057362Y-69136845D01*
X80129934Y-69281988D01*
X80129934Y-69499702D01*
X80057362Y-69644845D01*
X79984791Y-69717417D01*
X79839648Y-69789988D01*
X79259077Y-69789988D01*
X79259077Y-68265988D01*
X79767077Y-68265988D01*
X79912220Y-68338560D01*
X79984791Y-68411131D01*
X80057362Y-68556274D01*
X80057362Y-68701417D01*
X79984791Y-68846560D01*
X79912220Y-68919131D01*
X79767077Y-68991702D01*
X79259077Y-68991702D01*
X81000791Y-68919131D02*
X80855648Y-68846560D01*
X80783077Y-68773988D01*
X80710505Y-68628845D01*
X80710505Y-68556274D01*
X80783077Y-68411131D01*
X80855648Y-68338560D01*
X81000791Y-68265988D01*
X81291077Y-68265988D01*
X81436220Y-68338560D01*
X81508791Y-68411131D01*
X81581362Y-68556274D01*
X81581362Y-68628845D01*
X81508791Y-68773988D01*
X81436220Y-68846560D01*
X81291077Y-68919131D01*
X81000791Y-68919131D01*
X80855648Y-68991702D01*
X80783077Y-69064274D01*
X80710505Y-69209417D01*
X80710505Y-69499702D01*
X80783077Y-69644845D01*
X80855648Y-69717417D01*
X81000791Y-69789988D01*
X81291077Y-69789988D01*
X81436220Y-69717417D01*
X81508791Y-69644845D01*
X81581362Y-69499702D01*
X81581362Y-69209417D01*
X81508791Y-69064274D01*
X81436220Y-68991702D01*
X81291077Y-68919131D01*
X79186505Y-71854560D02*
X79912220Y-71854560D01*
X79041362Y-72289988D02*
X79549362Y-70765988D01*
X80057362Y-72289988D01*
X80783077Y-71419131D02*
X80637934Y-71346560D01*
X80565362Y-71273988D01*
X80492791Y-71128845D01*
X80492791Y-71056274D01*
X80565362Y-70911131D01*
X80637934Y-70838560D01*
X80783077Y-70765988D01*
X81073362Y-70765988D01*
X81218505Y-70838560D01*
X81291077Y-70911131D01*
X81363648Y-71056274D01*
X81363648Y-71128845D01*
X81291077Y-71273988D01*
X81218505Y-71346560D01*
X81073362Y-71419131D01*
X80783077Y-71419131D01*
X80637934Y-71491702D01*
X80565362Y-71564274D01*
X80492791Y-71709417D01*
X80492791Y-71999702D01*
X80565362Y-72144845D01*
X80637934Y-72217417D01*
X80783077Y-72289988D01*
X81073362Y-72289988D01*
X81218505Y-72217417D01*
X81291077Y-72144845D01*
X81363648Y-71999702D01*
X81363648Y-71709417D01*
X81291077Y-71564274D01*
X81218505Y-71491702D01*
X81073362Y-71419131D01*
X79767077Y-73991702D02*
X79984791Y-74064274D01*
X80057362Y-74136845D01*
X80129934Y-74281988D01*
X80129934Y-74499702D01*
X80057362Y-74644845D01*
X79984791Y-74717417D01*
X79839648Y-74789988D01*
X79259077Y-74789988D01*
X79259077Y-73265988D01*
X79767077Y-73265988D01*
X79912220Y-73338560D01*
X79984791Y-73411131D01*
X80057362Y-73556274D01*
X80057362Y-73701417D01*
X79984791Y-73846560D01*
X79912220Y-73919131D01*
X79767077Y-73991702D01*
X79259077Y-73991702D01*
X80637934Y-73265988D02*
X81653934Y-73265988D01*
X81000791Y-74789988D01*
X79186505Y-76854560D02*
X79912220Y-76854560D01*
X79041362Y-77289988D02*
X79549362Y-75765988D01*
X80057362Y-77289988D01*
X80420220Y-75765988D02*
X81436220Y-75765988D01*
X80783077Y-77289988D01*
X79767077Y-78991702D02*
X79984791Y-79064274D01*
X80057362Y-79136845D01*
X80129934Y-79281988D01*
X80129934Y-79499702D01*
X80057362Y-79644845D01*
X79984791Y-79717417D01*
X79839648Y-79789988D01*
X79259077Y-79789988D01*
X79259077Y-78265988D01*
X79767077Y-78265988D01*
X79912220Y-78338560D01*
X79984791Y-78411131D01*
X80057362Y-78556274D01*
X80057362Y-78701417D01*
X79984791Y-78846560D01*
X79912220Y-78919131D01*
X79767077Y-78991702D01*
X79259077Y-78991702D01*
X81436220Y-78265988D02*
X81145934Y-78265988D01*
X81000791Y-78338560D01*
X80928220Y-78411131D01*
X80783077Y-78628845D01*
X80710505Y-78919131D01*
X80710505Y-79499702D01*
X80783077Y-79644845D01*
X80855648Y-79717417D01*
X81000791Y-79789988D01*
X81291077Y-79789988D01*
X81436220Y-79717417D01*
X81508791Y-79644845D01*
X81581362Y-79499702D01*
X81581362Y-79136845D01*
X81508791Y-78991702D01*
X81436220Y-78919131D01*
X81291077Y-78846560D01*
X81000791Y-78846560D01*
X80855648Y-78919131D01*
X80783077Y-78991702D01*
X80710505Y-79136845D01*
X79186505Y-81854560D02*
X79912220Y-81854560D01*
X79041362Y-82289988D02*
X79549362Y-80765988D01*
X80057362Y-82289988D01*
X81218505Y-80765988D02*
X80928220Y-80765988D01*
X80783077Y-80838560D01*
X80710505Y-80911131D01*
X80565362Y-81128845D01*
X80492791Y-81419131D01*
X80492791Y-81999702D01*
X80565362Y-82144845D01*
X80637934Y-82217417D01*
X80783077Y-82289988D01*
X81073362Y-82289988D01*
X81218505Y-82217417D01*
X81291077Y-82144845D01*
X81363648Y-81999702D01*
X81363648Y-81636845D01*
X81291077Y-81491702D01*
X81218505Y-81419131D01*
X81073362Y-81346560D01*
X80783077Y-81346560D01*
X80637934Y-81419131D01*
X80565362Y-81491702D01*
X80492791Y-81636845D01*
X79767077Y-83991702D02*
X79984791Y-84064274D01*
X80057362Y-84136845D01*
X80129934Y-84281988D01*
X80129934Y-84499702D01*
X80057362Y-84644845D01*
X79984791Y-84717417D01*
X79839648Y-84789988D01*
X79259077Y-84789988D01*
X79259077Y-83265988D01*
X79767077Y-83265988D01*
X79912220Y-83338560D01*
X79984791Y-83411131D01*
X80057362Y-83556274D01*
X80057362Y-83701417D01*
X79984791Y-83846560D01*
X79912220Y-83919131D01*
X79767077Y-83991702D01*
X79259077Y-83991702D01*
X81508791Y-83265988D02*
X80783077Y-83265988D01*
X80710505Y-83991702D01*
X80783077Y-83919131D01*
X80928220Y-83846560D01*
X81291077Y-83846560D01*
X81436220Y-83919131D01*
X81508791Y-83991702D01*
X81581362Y-84136845D01*
X81581362Y-84499702D01*
X81508791Y-84644845D01*
X81436220Y-84717417D01*
X81291077Y-84789988D01*
X80928220Y-84789988D01*
X80783077Y-84717417D01*
X80710505Y-84644845D01*
X79186505Y-86854560D02*
X79912220Y-86854560D01*
X79041362Y-87289988D02*
X79549362Y-85765988D01*
X80057362Y-87289988D01*
X81291077Y-85765988D02*
X80565362Y-85765988D01*
X80492791Y-86491702D01*
X80565362Y-86419131D01*
X80710505Y-86346560D01*
X81073362Y-86346560D01*
X81218505Y-86419131D01*
X81291077Y-86491702D01*
X81363648Y-86636845D01*
X81363648Y-86999702D01*
X81291077Y-87144845D01*
X81218505Y-87217417D01*
X81073362Y-87289988D01*
X80710505Y-87289988D01*
X80565362Y-87217417D01*
X80492791Y-87144845D01*
X79767077Y-88991702D02*
X79984791Y-89064274D01*
X80057362Y-89136845D01*
X80129934Y-89281988D01*
X80129934Y-89499702D01*
X80057362Y-89644845D01*
X79984791Y-89717417D01*
X79839648Y-89789988D01*
X79259077Y-89789988D01*
X79259077Y-88265988D01*
X79767077Y-88265988D01*
X79912220Y-88338560D01*
X79984791Y-88411131D01*
X80057362Y-88556274D01*
X80057362Y-88701417D01*
X79984791Y-88846560D01*
X79912220Y-88919131D01*
X79767077Y-88991702D01*
X79259077Y-88991702D01*
X81436220Y-88773988D02*
X81436220Y-89789988D01*
X81073362Y-88193417D02*
X80710505Y-89281988D01*
X81653934Y-89281988D01*
X79186505Y-91854560D02*
X79912220Y-91854560D01*
X79041362Y-92289988D02*
X79549362Y-90765988D01*
X80057362Y-92289988D01*
X81218505Y-91273988D02*
X81218505Y-92289988D01*
X80855648Y-90693417D02*
X80492791Y-91781988D01*
X81436220Y-91781988D01*
X80129934Y-94644845D02*
X80057362Y-94717417D01*
X79839648Y-94789988D01*
X79694505Y-94789988D01*
X79476791Y-94717417D01*
X79331648Y-94572274D01*
X79259077Y-94427131D01*
X79186505Y-94136845D01*
X79186505Y-93919131D01*
X79259077Y-93628845D01*
X79331648Y-93483702D01*
X79476791Y-93338560D01*
X79694505Y-93265988D01*
X79839648Y-93265988D01*
X80057362Y-93338560D01*
X80129934Y-93411131D01*
X81000791Y-93919131D02*
X80855648Y-93846560D01*
X80783077Y-93773988D01*
X80710505Y-93628845D01*
X80710505Y-93556274D01*
X80783077Y-93411131D01*
X80855648Y-93338560D01*
X81000791Y-93265988D01*
X81291077Y-93265988D01*
X81436220Y-93338560D01*
X81508791Y-93411131D01*
X81581362Y-93556274D01*
X81581362Y-93628845D01*
X81508791Y-93773988D01*
X81436220Y-93846560D01*
X81291077Y-93919131D01*
X81000791Y-93919131D01*
X80855648Y-93991702D01*
X80783077Y-94064274D01*
X80710505Y-94209417D01*
X80710505Y-94499702D01*
X80783077Y-94644845D01*
X80855648Y-94717417D01*
X81000791Y-94789988D01*
X81291077Y-94789988D01*
X81436220Y-94717417D01*
X81508791Y-94644845D01*
X81581362Y-94499702D01*
X81581362Y-94209417D01*
X81508791Y-94064274D01*
X81436220Y-93991702D01*
X81291077Y-93919131D01*
X80129934Y-97144845D02*
X80057362Y-97217417D01*
X79839648Y-97289988D01*
X79694505Y-97289988D01*
X79476791Y-97217417D01*
X79331648Y-97072274D01*
X79259077Y-96927131D01*
X79186505Y-96636845D01*
X79186505Y-96419131D01*
X79259077Y-96128845D01*
X79331648Y-95983702D01*
X79476791Y-95838560D01*
X79694505Y-95765988D01*
X79839648Y-95765988D01*
X80057362Y-95838560D01*
X80129934Y-95911131D01*
X80637934Y-95765988D02*
X81653934Y-95765988D01*
X81000791Y-97289988D01*
X80129934Y-99644845D02*
X80057362Y-99717417D01*
X79839648Y-99789988D01*
X79694505Y-99789988D01*
X79476791Y-99717417D01*
X79331648Y-99572274D01*
X79259077Y-99427131D01*
X79186505Y-99136845D01*
X79186505Y-98919131D01*
X79259077Y-98628845D01*
X79331648Y-98483702D01*
X79476791Y-98338560D01*
X79694505Y-98265988D01*
X79839648Y-98265988D01*
X80057362Y-98338560D01*
X80129934Y-98411131D01*
X81436220Y-98265988D02*
X81145934Y-98265988D01*
X81000791Y-98338560D01*
X80928220Y-98411131D01*
X80783077Y-98628845D01*
X80710505Y-98919131D01*
X80710505Y-99499702D01*
X80783077Y-99644845D01*
X80855648Y-99717417D01*
X81000791Y-99789988D01*
X81291077Y-99789988D01*
X81436220Y-99717417D01*
X81508791Y-99644845D01*
X81581362Y-99499702D01*
X81581362Y-99136845D01*
X81508791Y-98991702D01*
X81436220Y-98919131D01*
X81291077Y-98846560D01*
X81000791Y-98846560D01*
X80855648Y-98919131D01*
X80783077Y-98991702D01*
X80710505Y-99136845D01*
X80129934Y-102144845D02*
X80057362Y-102217417D01*
X79839648Y-102289988D01*
X79694505Y-102289988D01*
X79476791Y-102217417D01*
X79331648Y-102072274D01*
X79259077Y-101927131D01*
X79186505Y-101636845D01*
X79186505Y-101419131D01*
X79259077Y-101128845D01*
X79331648Y-100983702D01*
X79476791Y-100838560D01*
X79694505Y-100765988D01*
X79839648Y-100765988D01*
X80057362Y-100838560D01*
X80129934Y-100911131D01*
X81508791Y-100765988D02*
X80783077Y-100765988D01*
X80710505Y-101491702D01*
X80783077Y-101419131D01*
X80928220Y-101346560D01*
X81291077Y-101346560D01*
X81436220Y-101419131D01*
X81508791Y-101491702D01*
X81581362Y-101636845D01*
X81581362Y-101999702D01*
X81508791Y-102144845D01*
X81436220Y-102217417D01*
X81291077Y-102289988D01*
X80928220Y-102289988D01*
X80783077Y-102217417D01*
X80710505Y-102144845D01*
X80129934Y-104644845D02*
X80057362Y-104717417D01*
X79839648Y-104789988D01*
X79694505Y-104789988D01*
X79476791Y-104717417D01*
X79331648Y-104572274D01*
X79259077Y-104427131D01*
X79186505Y-104136845D01*
X79186505Y-103919131D01*
X79259077Y-103628845D01*
X79331648Y-103483702D01*
X79476791Y-103338560D01*
X79694505Y-103265988D01*
X79839648Y-103265988D01*
X80057362Y-103338560D01*
X80129934Y-103411131D01*
X81436220Y-103773988D02*
X81436220Y-104789988D01*
X81073362Y-103193417D02*
X80710505Y-104281988D01*
X81653934Y-104281988D01*
X80129934Y-107144845D02*
X80057362Y-107217417D01*
X79839648Y-107289988D01*
X79694505Y-107289988D01*
X79476791Y-107217417D01*
X79331648Y-107072274D01*
X79259077Y-106927131D01*
X79186505Y-106636845D01*
X79186505Y-106419131D01*
X79259077Y-106128845D01*
X79331648Y-105983702D01*
X79476791Y-105838560D01*
X79694505Y-105765988D01*
X79839648Y-105765988D01*
X80057362Y-105838560D01*
X80129934Y-105911131D01*
X80637934Y-105765988D02*
X81581362Y-105765988D01*
X81073362Y-106346560D01*
X81291077Y-106346560D01*
X81436220Y-106419131D01*
X81508791Y-106491702D01*
X81581362Y-106636845D01*
X81581362Y-106999702D01*
X81508791Y-107144845D01*
X81436220Y-107217417D01*
X81291077Y-107289988D01*
X80855648Y-107289988D01*
X80710505Y-107217417D01*
X80637934Y-107144845D01*
X80129934Y-109644845D02*
X80057362Y-109717417D01*
X79839648Y-109789988D01*
X79694505Y-109789988D01*
X79476791Y-109717417D01*
X79331648Y-109572274D01*
X79259077Y-109427131D01*
X79186505Y-109136845D01*
X79186505Y-108919131D01*
X79259077Y-108628845D01*
X79331648Y-108483702D01*
X79476791Y-108338560D01*
X79694505Y-108265988D01*
X79839648Y-108265988D01*
X80057362Y-108338560D01*
X80129934Y-108411131D01*
X80710505Y-108411131D02*
X80783077Y-108338560D01*
X80928220Y-108265988D01*
X81291077Y-108265988D01*
X81436220Y-108338560D01*
X81508791Y-108411131D01*
X81581362Y-108556274D01*
X81581362Y-108701417D01*
X81508791Y-108919131D01*
X80637934Y-109789988D01*
X81581362Y-109789988D01*
X80129934Y-112144845D02*
X80057362Y-112217417D01*
X79839648Y-112289988D01*
X79694505Y-112289988D01*
X79476791Y-112217417D01*
X79331648Y-112072274D01*
X79259077Y-111927131D01*
X79186505Y-111636845D01*
X79186505Y-111419131D01*
X79259077Y-111128845D01*
X79331648Y-110983702D01*
X79476791Y-110838560D01*
X79694505Y-110765988D01*
X79839648Y-110765988D01*
X80057362Y-110838560D01*
X80129934Y-110911131D01*
X81581362Y-112289988D02*
X80710505Y-112289988D01*
X81145934Y-112289988D02*
X81145934Y-110765988D01*
X81000791Y-110983702D01*
X80855648Y-111128845D01*
X80710505Y-111201417D01*
X79767077Y-113991702D02*
X79984791Y-114064274D01*
X80057362Y-114136845D01*
X80129934Y-114281988D01*
X80129934Y-114499702D01*
X80057362Y-114644845D01*
X79984791Y-114717417D01*
X79839648Y-114789988D01*
X79259077Y-114789988D01*
X79259077Y-113265988D01*
X79767077Y-113265988D01*
X79912220Y-113338560D01*
X79984791Y-113411131D01*
X80057362Y-113556274D01*
X80057362Y-113701417D01*
X79984791Y-113846560D01*
X79912220Y-113919131D01*
X79767077Y-113991702D01*
X79259077Y-113991702D01*
X80637934Y-113265988D02*
X81581362Y-113265988D01*
X81073362Y-113846560D01*
X81291077Y-113846560D01*
X81436220Y-113919131D01*
X81508791Y-113991702D01*
X81581362Y-114136845D01*
X81581362Y-114499702D01*
X81508791Y-114644845D01*
X81436220Y-114717417D01*
X81291077Y-114789988D01*
X80855648Y-114789988D01*
X80710505Y-114717417D01*
X80637934Y-114644845D01*
X79186505Y-116854560D02*
X79912220Y-116854560D01*
X79041362Y-117289988D02*
X79549362Y-115765988D01*
X80057362Y-117289988D01*
X80420220Y-115765988D02*
X81363648Y-115765988D01*
X80855648Y-116346560D01*
X81073362Y-116346560D01*
X81218505Y-116419131D01*
X81291077Y-116491702D01*
X81363648Y-116636845D01*
X81363648Y-116999702D01*
X81291077Y-117144845D01*
X81218505Y-117217417D01*
X81073362Y-117289988D01*
X80637934Y-117289988D01*
X80492791Y-117217417D01*
X80420220Y-117144845D01*
X79767077Y-118991702D02*
X79984791Y-119064274D01*
X80057362Y-119136845D01*
X80129934Y-119281988D01*
X80129934Y-119499702D01*
X80057362Y-119644845D01*
X79984791Y-119717417D01*
X79839648Y-119789988D01*
X79259077Y-119789988D01*
X79259077Y-118265988D01*
X79767077Y-118265988D01*
X79912220Y-118338560D01*
X79984791Y-118411131D01*
X80057362Y-118556274D01*
X80057362Y-118701417D01*
X79984791Y-118846560D01*
X79912220Y-118919131D01*
X79767077Y-118991702D01*
X79259077Y-118991702D01*
X80710505Y-118411131D02*
X80783077Y-118338560D01*
X80928220Y-118265988D01*
X81291077Y-118265988D01*
X81436220Y-118338560D01*
X81508791Y-118411131D01*
X81581362Y-118556274D01*
X81581362Y-118701417D01*
X81508791Y-118919131D01*
X80637934Y-119789988D01*
X81581362Y-119789988D01*
X79186505Y-121854560D02*
X79912220Y-121854560D01*
X79041362Y-122289988D02*
X79549362Y-120765988D01*
X80057362Y-122289988D01*
X80492791Y-120911131D02*
X80565362Y-120838560D01*
X80710505Y-120765988D01*
X81073362Y-120765988D01*
X81218505Y-120838560D01*
X81291077Y-120911131D01*
X81363648Y-121056274D01*
X81363648Y-121201417D01*
X81291077Y-121419131D01*
X80420220Y-122289988D01*
X81363648Y-122289988D01*
X79767077Y-123991702D02*
X79984791Y-124064274D01*
X80057362Y-124136845D01*
X80129934Y-124281988D01*
X80129934Y-124499702D01*
X80057362Y-124644845D01*
X79984791Y-124717417D01*
X79839648Y-124789988D01*
X79259077Y-124789988D01*
X79259077Y-123265988D01*
X79767077Y-123265988D01*
X79912220Y-123338560D01*
X79984791Y-123411131D01*
X80057362Y-123556274D01*
X80057362Y-123701417D01*
X79984791Y-123846560D01*
X79912220Y-123919131D01*
X79767077Y-123991702D01*
X79259077Y-123991702D01*
X81581362Y-124789988D02*
X80710505Y-124789988D01*
X81145934Y-124789988D02*
X81145934Y-123265988D01*
X81000791Y-123483702D01*
X80855648Y-123628845D01*
X80710505Y-123701417D01*
X79186505Y-126854560D02*
X79912220Y-126854560D01*
X79041362Y-127289988D02*
X79549362Y-125765988D01*
X80057362Y-127289988D01*
X81363648Y-127289988D02*
X80492791Y-127289988D01*
X80928220Y-127289988D02*
X80928220Y-125765988D01*
X80783077Y-125983702D01*
X80637934Y-126128845D01*
X80492791Y-126201417D01*
X79549362Y-128265988D02*
X79694505Y-128265988D01*
X79839648Y-128338560D01*
X79912220Y-128411131D01*
X79984791Y-128556274D01*
X80057362Y-128846560D01*
X80057362Y-129209417D01*
X79984791Y-129499702D01*
X79912220Y-129644845D01*
X79839648Y-129717417D01*
X79694505Y-129789988D01*
X79549362Y-129789988D01*
X79404220Y-129717417D01*
X79331648Y-129644845D01*
X79259077Y-129499702D01*
X79186505Y-129209417D01*
X79186505Y-128846560D01*
X79259077Y-128556274D01*
X79331648Y-128411131D01*
X79404220Y-128338560D01*
X79549362Y-128265988D01*
X80492791Y-128265988D02*
X81000791Y-129789988D01*
X81508791Y-128265988D01*
X79549362Y-130765988D02*
X79694505Y-130765988D01*
X79839648Y-130838560D01*
X79912220Y-130911131D01*
X79984791Y-131056274D01*
X80057362Y-131346560D01*
X80057362Y-131709417D01*
X79984791Y-131999702D01*
X79912220Y-132144845D01*
X79839648Y-132217417D01*
X79694505Y-132289988D01*
X79549362Y-132289988D01*
X79404220Y-132217417D01*
X79331648Y-132144845D01*
X79259077Y-131999702D01*
X79186505Y-131709417D01*
X79186505Y-131346560D01*
X79259077Y-131056274D01*
X79331648Y-130911131D01*
X79404220Y-130838560D01*
X79549362Y-130765988D01*
X80492791Y-130765988D02*
X81000791Y-132289988D01*
X81508791Y-130765988D01*
X79259077Y-134209417D02*
X80420220Y-134209417D01*
X79839648Y-134789988D02*
X79839648Y-133628845D01*
X79549362Y-135765988D02*
X79694505Y-135765988D01*
X79839648Y-135838560D01*
X79912220Y-135911131D01*
X79984791Y-136056274D01*
X80057362Y-136346560D01*
X80057362Y-136709417D01*
X79984791Y-136999702D01*
X79912220Y-137144845D01*
X79839648Y-137217417D01*
X79694505Y-137289988D01*
X79549362Y-137289988D01*
X79404220Y-137217417D01*
X79331648Y-137144845D01*
X79259077Y-136999702D01*
X79186505Y-136709417D01*
X79186505Y-136346560D01*
X79259077Y-136056274D01*
X79331648Y-135911131D01*
X79404220Y-135838560D01*
X79549362Y-135765988D01*
X80492791Y-135765988D02*
X81000791Y-137289988D01*
X81508791Y-135765988D01*
X79984791Y-139789988D02*
X79259077Y-139789988D01*
X79259077Y-138265988D01*
X80492791Y-139789988D02*
X80492791Y-138265988D01*
X81363648Y-139789988D01*
X81363648Y-138265988D01*
X68338857Y-150419238D02*
X68338857Y-148387238D01*
X68846857Y-149838666D01*
X69354857Y-148387238D01*
X69354857Y-150419238D01*
X69862857Y-148387238D02*
X70370857Y-150419238D01*
X70878857Y-148387238D01*
X131807428Y-56854857D02*
X131299428Y-56854857D01*
X131299428Y-57919238D02*
X131299428Y-55887238D01*
X132025142Y-55887238D01*
X132533142Y-57822476D02*
X132750857Y-57919238D01*
X133113714Y-57919238D01*
X133258857Y-57822476D01*
X133331428Y-57725714D01*
X133404000Y-57532190D01*
X133404000Y-57338666D01*
X133331428Y-57145142D01*
X133258857Y-57048380D01*
X133113714Y-56951619D01*
X132823428Y-56854857D01*
X132678285Y-56758095D01*
X132605714Y-56661333D01*
X132533142Y-56467809D01*
X132533142Y-56274285D01*
X132605714Y-56080761D01*
X132678285Y-55984000D01*
X132823428Y-55887238D01*
X133186285Y-55887238D01*
X133404000Y-55984000D01*
X134057142Y-55887238D02*
X134057142Y-57532190D01*
X134129714Y-57725714D01*
X134202285Y-57822476D01*
X134347428Y-57919238D01*
X134637714Y-57919238D01*
X134782857Y-57822476D01*
X134855428Y-57725714D01*
X134928000Y-57532190D01*
X134928000Y-55887238D01*
X136742285Y-56080761D02*
X136814857Y-55984000D01*
X136960000Y-55887238D01*
X137322857Y-55887238D01*
X137468000Y-55984000D01*
X137540571Y-56080761D01*
X137613142Y-56274285D01*
X137613142Y-56467809D01*
X137540571Y-56758095D01*
X136669714Y-57919238D01*
X137613142Y-57919238D01*
X138556571Y-55887238D02*
X138701714Y-55887238D01*
X138846857Y-55984000D01*
X138919428Y-56080761D01*
X138992000Y-56274285D01*
X139064571Y-56661333D01*
X139064571Y-57145142D01*
X138992000Y-57532190D01*
X138919428Y-57725714D01*
X138846857Y-57822476D01*
X138701714Y-57919238D01*
X138556571Y-57919238D01*
X138411428Y-57822476D01*
X138338857Y-57725714D01*
X138266285Y-57532190D01*
X138193714Y-57145142D01*
X138193714Y-56661333D01*
X138266285Y-56274285D01*
X138338857Y-56080761D01*
X138411428Y-55984000D01*
X138556571Y-55887238D01*
X139645142Y-56080761D02*
X139717714Y-55984000D01*
X139862857Y-55887238D01*
X140225714Y-55887238D01*
X140370857Y-55984000D01*
X140443428Y-56080761D01*
X140516000Y-56274285D01*
X140516000Y-56467809D01*
X140443428Y-56758095D01*
X139572571Y-57919238D01*
X140516000Y-57919238D01*
X141967428Y-57919238D02*
X141096571Y-57919238D01*
X141532000Y-57919238D02*
X141532000Y-55887238D01*
X141386857Y-56177523D01*
X141241714Y-56371047D01*
X141096571Y-56467809D01*
X142910857Y-55887238D02*
X143056000Y-55887238D01*
X143201142Y-55984000D01*
X143273714Y-56080761D01*
X143346285Y-56274285D01*
X143418857Y-56661333D01*
X143418857Y-57145142D01*
X143346285Y-57532190D01*
X143273714Y-57725714D01*
X143201142Y-57822476D01*
X143056000Y-57919238D01*
X142910857Y-57919238D01*
X142765714Y-57822476D01*
X142693142Y-57725714D01*
X142620571Y-57532190D01*
X142548000Y-57145142D01*
X142548000Y-56661333D01*
X142620571Y-56274285D01*
X142693142Y-56080761D01*
X142765714Y-55984000D01*
X142910857Y-55887238D01*
X144725142Y-55887238D02*
X144434857Y-55887238D01*
X144289714Y-55984000D01*
X144217142Y-56080761D01*
X144072000Y-56371047D01*
X143999428Y-56758095D01*
X143999428Y-57532190D01*
X144072000Y-57725714D01*
X144144571Y-57822476D01*
X144289714Y-57919238D01*
X144580000Y-57919238D01*
X144725142Y-57822476D01*
X144797714Y-57725714D01*
X144870285Y-57532190D01*
X144870285Y-57048380D01*
X144797714Y-56854857D01*
X144725142Y-56758095D01*
X144580000Y-56661333D01*
X144289714Y-56661333D01*
X144144571Y-56758095D01*
X144072000Y-56854857D01*
X143999428Y-57048380D01*
X145813714Y-55887238D02*
X145958857Y-55887238D01*
X146104000Y-55984000D01*
X146176571Y-56080761D01*
X146249142Y-56274285D01*
X146321714Y-56661333D01*
X146321714Y-57145142D01*
X146249142Y-57532190D01*
X146176571Y-57725714D01*
X146104000Y-57822476D01*
X145958857Y-57919238D01*
X145813714Y-57919238D01*
X145668571Y-57822476D01*
X145596000Y-57725714D01*
X145523428Y-57532190D01*
X145450857Y-57145142D01*
X145450857Y-56661333D01*
X145523428Y-56274285D01*
X145596000Y-56080761D01*
X145668571Y-55984000D01*
X145813714Y-55887238D01*
X146829714Y-55887238D02*
X147773142Y-55887238D01*
X147265142Y-56661333D01*
X147482857Y-56661333D01*
X147628000Y-56758095D01*
X147700571Y-56854857D01*
X147773142Y-57048380D01*
X147773142Y-57532190D01*
X147700571Y-57725714D01*
X147628000Y-57822476D01*
X147482857Y-57919238D01*
X147047428Y-57919238D01*
X146902285Y-57822476D01*
X146829714Y-57725714D01*
D11*
X74930000Y-55880000D02*
X66675000Y-55880000D01*
X74930000Y-60960000D02*
X74930000Y-55880000D01*
X71120000Y-62865000D02*
X74930000Y-60960000D01*
X71120000Y-140335000D02*
X71120000Y-62865000D01*
X74930000Y-142240000D02*
X71120000Y-140335000D01*
X74930000Y-147320000D02*
X74930000Y-142240000D01*
X66675000Y-147320000D02*
X74930000Y-147320000D01*
X66675000Y-55880000D02*
X66675000Y-147320000D01*
D12*
X125000000Y-138936000D02*
X125000000Y-138428000D01*
X124746000Y-138682000D02*
X125254000Y-138682000D01*
X125000000Y-141476000D02*
X125000000Y-141095000D01*
X124619000Y-141476000D02*
X125381000Y-141476000D01*
X125000000Y-142111000D02*
X125000000Y-141730000D01*
X125000000Y-141730000D02*
X124619000Y-141730000D01*
X124619000Y-141730000D02*
X125381000Y-141730000D01*
D13*
X121998000Y-143400000D02*
G75*
G03X121998000Y-143400000I-3048000J0D01*
G01*
D12*
X134623000Y-97119000D02*
X134623000Y-97881000D01*
X134623000Y-97500000D02*
X134623000Y-97119000D01*
X134242000Y-97500000D02*
X134623000Y-97500000D01*
X134877000Y-97119000D02*
X134877000Y-97881000D01*
X134877000Y-97500000D02*
X135258000Y-97500000D01*
D13*
X134442000Y-111986000D02*
X134442000Y-111224000D01*
X135458000Y-111986000D02*
X134442000Y-111986000D01*
X135458000Y-111224000D02*
X135458000Y-111986000D01*
X132918000Y-111224000D02*
X136728000Y-111224000D01*
X132918000Y-120876000D02*
X132918000Y-111224000D01*
X136728000Y-120876000D02*
X132918000Y-120876000D01*
X136728000Y-111224000D02*
X136728000Y-120876000D01*
D12*
X113548000Y-146929000D02*
X111770000Y-146929000D01*
X113675000Y-140071000D02*
X113675000Y-146929000D01*
X105674000Y-140071000D02*
X113548000Y-140071000D01*
X105674000Y-146929000D02*
X105674000Y-140071000D01*
X111770000Y-146929000D02*
X105674000Y-146929000D01*
X102499000Y-142103000D02*
X105674000Y-142103000D01*
X102499000Y-140325000D02*
X102499000Y-142103000D01*
X105674000Y-140325000D02*
X102499000Y-140325000D01*
X102499000Y-146675000D02*
X105674000Y-146675000D01*
X102499000Y-144897000D02*
X102499000Y-146675000D01*
X105674000Y-144897000D02*
X102499000Y-144897000D01*
D14*
X128080000Y-102200000D02*
X117920000Y-102200000D01*
X117920000Y-102200000D02*
X117920000Y-122520000D01*
X117920000Y-122520000D02*
X128080000Y-122520000D01*
X128080000Y-122520000D02*
X128080000Y-102200000D01*
X121730000Y-104740000D02*
X124270000Y-107280000D01*
X121730000Y-106010000D02*
X119190000Y-106010000D01*
X119190000Y-106010000D02*
X119190000Y-104740000D01*
X126810000Y-104740000D02*
X126810000Y-106010000D01*
X126810000Y-106010000D02*
X125540000Y-106010000D01*
X125540000Y-106010000D02*
X124270000Y-106010000D01*
X124270000Y-106010000D02*
X124270000Y-104740000D01*
X124270000Y-104740000D02*
X121730000Y-104740000D01*
X121730000Y-104740000D02*
X121730000Y-107280000D01*
X121730000Y-107280000D02*
X124270000Y-107280000D01*
X124270000Y-107280000D02*
X124270000Y-106010000D01*
D13*
X136578000Y-99089000D02*
X136578000Y-110011000D01*
X136578000Y-110011000D02*
X133022000Y-110011000D01*
X133022000Y-110011000D02*
X133022000Y-99089000D01*
X133022000Y-99089000D02*
X136578000Y-99089000D01*
X135308000Y-99089000D02*
X135308000Y-99851000D01*
X135308000Y-99851000D02*
X134292000Y-99851000D01*
X134292000Y-99851000D02*
X134292000Y-99089000D01*
D14*
X121730000Y-88320000D02*
X121730000Y-89590000D01*
X124270000Y-88320000D02*
X121730000Y-88320000D01*
X124270000Y-90860000D02*
X124270000Y-88320000D01*
X121730000Y-90860000D02*
X124270000Y-90860000D01*
X121730000Y-89590000D02*
X121730000Y-90860000D01*
X120460000Y-89590000D02*
X121730000Y-89590000D01*
X119190000Y-89590000D02*
X120460000Y-89590000D01*
X119190000Y-90860000D02*
X119190000Y-89590000D01*
X126810000Y-89590000D02*
X126810000Y-90860000D01*
X124270000Y-89590000D02*
X126810000Y-89590000D01*
X124270000Y-90860000D02*
X121730000Y-88320000D01*
X117920000Y-73080000D02*
X117920000Y-93400000D01*
X128080000Y-73080000D02*
X117920000Y-73080000D01*
X128080000Y-93400000D02*
X128080000Y-73080000D01*
X117920000Y-93400000D02*
X128080000Y-93400000D01*
X92080000Y-117440000D02*
X81920000Y-117440000D01*
X81920000Y-117440000D02*
X81920000Y-137760000D01*
X81920000Y-137760000D02*
X92080000Y-137760000D01*
X92080000Y-137760000D02*
X92080000Y-117440000D01*
X85730000Y-119980000D02*
X88270000Y-122520000D01*
X85730000Y-121250000D02*
X83190000Y-121250000D01*
X83190000Y-121250000D02*
X83190000Y-119980000D01*
X90810000Y-119980000D02*
X90810000Y-121250000D01*
X90810000Y-121250000D02*
X89540000Y-121250000D01*
X89540000Y-121250000D02*
X88270000Y-121250000D01*
X88270000Y-121250000D02*
X88270000Y-119980000D01*
X88270000Y-119980000D02*
X85730000Y-119980000D01*
X85730000Y-119980000D02*
X85730000Y-122520000D01*
X85730000Y-122520000D02*
X88270000Y-122520000D01*
X88270000Y-122520000D02*
X88270000Y-121250000D01*
D12*
X109750000Y-133870500D02*
X109750000Y-133489500D01*
X109369000Y-133870500D02*
X110131000Y-133870500D01*
X109750000Y-134505500D02*
X109750000Y-134124500D01*
X109750000Y-134124500D02*
X109369000Y-134124500D01*
X109369000Y-134124500D02*
X110131000Y-134124500D01*
X139900000Y-110225500D02*
X139900000Y-109844500D01*
X139519000Y-110225500D02*
X140281000Y-110225500D01*
X139900000Y-110860500D02*
X139900000Y-110479500D01*
X139900000Y-110479500D02*
X139519000Y-110479500D01*
X139519000Y-110479500D02*
X140281000Y-110479500D01*
X100500000Y-142225500D02*
X100500000Y-141844500D01*
X100119000Y-142225500D02*
X100881000Y-142225500D01*
X100500000Y-142860500D02*
X100500000Y-142479500D01*
X100500000Y-142479500D02*
X100119000Y-142479500D01*
X100119000Y-142479500D02*
X100881000Y-142479500D01*
D13*
X99148000Y-143700000D02*
G75*
G03X99148000Y-143700000I-3048000J0D01*
G01*
D12*
X142770500Y-127869000D02*
X142770500Y-128631000D01*
X142770500Y-128250000D02*
X142770500Y-127869000D01*
X142389500Y-128250000D02*
X142770500Y-128250000D01*
X143024500Y-127869000D02*
X143024500Y-128631000D01*
X143024500Y-128250000D02*
X143405500Y-128250000D01*
X128431000Y-141170500D02*
X127669000Y-141170500D01*
X128050000Y-141170500D02*
X128431000Y-141170500D01*
X128050000Y-140789500D02*
X128050000Y-141170500D01*
X128431000Y-141424500D02*
X127669000Y-141424500D01*
X128050000Y-141424500D02*
X128050000Y-141805500D01*
X136000000Y-144379500D02*
X136000000Y-144760500D01*
X136381000Y-144379500D02*
X135619000Y-144379500D01*
X136000000Y-143744500D02*
X136000000Y-144125500D01*
X136000000Y-144125500D02*
X136381000Y-144125500D01*
X136381000Y-144125500D02*
X135619000Y-144125500D01*
X134169000Y-124229500D02*
X134931000Y-124229500D01*
X134550000Y-124229500D02*
X134169000Y-124229500D01*
X134550000Y-124610500D02*
X134550000Y-124229500D01*
X134169000Y-123975500D02*
X134931000Y-123975500D01*
X134550000Y-123975500D02*
X134550000Y-123594500D01*
D13*
X148390000Y-130340000D02*
X148390000Y-137960000D01*
X143310000Y-137960000D02*
X143310000Y-130340000D01*
X143310000Y-130340000D02*
X148390000Y-130340000D01*
X148390000Y-137960000D02*
X143310000Y-137960000D01*
D12*
X132100000Y-124406500D02*
X132100000Y-124660500D01*
X132100000Y-123644500D02*
X132100000Y-123898500D01*
X132354000Y-123898500D02*
X131973000Y-123898500D01*
X131973000Y-123898500D02*
X131846000Y-123898500D01*
X131846000Y-123898500D02*
X131846000Y-124406500D01*
X131846000Y-124406500D02*
X132354000Y-124406500D01*
X132354000Y-124406500D02*
X132354000Y-123898500D01*
X143176000Y-143803000D02*
X146224000Y-143803000D01*
X146224000Y-143803000D02*
X146224000Y-144565000D01*
X146224000Y-144565000D02*
X143176000Y-144565000D01*
X143176000Y-144565000D02*
X143176000Y-143803000D01*
X129950000Y-109156500D02*
X129950000Y-109410500D01*
X129950000Y-108394500D02*
X129950000Y-108648500D01*
X130204000Y-108648500D02*
X129823000Y-108648500D01*
X129823000Y-108648500D02*
X129696000Y-108648500D01*
X129696000Y-108648500D02*
X129696000Y-109156500D01*
X129696000Y-109156500D02*
X130204000Y-109156500D01*
X130204000Y-109156500D02*
X130204000Y-108648500D01*
X141550000Y-144048500D02*
X141550000Y-143794500D01*
X141550000Y-144810500D02*
X141550000Y-144556500D01*
X141296000Y-144556500D02*
X141677000Y-144556500D01*
X141677000Y-144556500D02*
X141804000Y-144556500D01*
X141804000Y-144556500D02*
X141804000Y-144048500D01*
X141804000Y-144048500D02*
X141296000Y-144048500D01*
X141296000Y-144048500D02*
X141296000Y-144556500D01*
X147646000Y-143993500D02*
X147646000Y-144501500D01*
X148154000Y-143993500D02*
X147646000Y-143993500D01*
X148154000Y-144501500D02*
X148154000Y-143993500D01*
X148027000Y-144501500D02*
X148154000Y-144501500D01*
X147646000Y-144501500D02*
X148027000Y-144501500D01*
X147900000Y-144755500D02*
X147900000Y-144501500D01*
X147900000Y-143993500D02*
X147900000Y-143739500D01*
X139054000Y-144601500D02*
X139054000Y-144093500D01*
X138546000Y-144601500D02*
X139054000Y-144601500D01*
X138546000Y-144093500D02*
X138546000Y-144601500D01*
X138673000Y-144093500D02*
X138546000Y-144093500D01*
X139054000Y-144093500D02*
X138673000Y-144093500D01*
X138800000Y-143839500D02*
X138800000Y-144093500D01*
X138800000Y-144601500D02*
X138800000Y-144855500D01*
X137304000Y-124351500D02*
X137304000Y-123843500D01*
X136796000Y-124351500D02*
X137304000Y-124351500D01*
X136796000Y-123843500D02*
X136796000Y-124351500D01*
X136923000Y-123843500D02*
X136796000Y-123843500D01*
X137304000Y-123843500D02*
X136923000Y-123843500D01*
X137050000Y-123589500D02*
X137050000Y-123843500D01*
X137050000Y-124351500D02*
X137050000Y-124605500D01*
D14*
X104080000Y-112360000D02*
X93920000Y-112360000D01*
X93920000Y-112360000D02*
X93920000Y-132680000D01*
X93920000Y-132680000D02*
X104080000Y-132680000D01*
X104080000Y-132680000D02*
X104080000Y-112360000D01*
X97730000Y-114900000D02*
X100270000Y-117440000D01*
X97730000Y-116170000D02*
X95190000Y-116170000D01*
X95190000Y-116170000D02*
X95190000Y-114900000D01*
X102810000Y-114900000D02*
X102810000Y-116170000D01*
X102810000Y-116170000D02*
X101540000Y-116170000D01*
X101540000Y-116170000D02*
X100270000Y-116170000D01*
X100270000Y-116170000D02*
X100270000Y-114900000D01*
X100270000Y-114900000D02*
X97730000Y-114900000D01*
X97730000Y-114900000D02*
X97730000Y-117440000D01*
X97730000Y-117440000D02*
X100270000Y-117440000D01*
X100270000Y-117440000D02*
X100270000Y-116170000D01*
X112270000Y-112360000D02*
X112270000Y-111090000D01*
X109730000Y-112360000D02*
X112270000Y-112360000D01*
X109730000Y-109820000D02*
X109730000Y-112360000D01*
X112270000Y-109820000D02*
X109730000Y-109820000D01*
X112270000Y-111090000D02*
X112270000Y-109820000D01*
X113540000Y-111090000D02*
X112270000Y-111090000D01*
X114810000Y-111090000D02*
X113540000Y-111090000D01*
X114810000Y-109820000D02*
X114810000Y-111090000D01*
X107190000Y-111090000D02*
X107190000Y-109820000D01*
X109730000Y-111090000D02*
X107190000Y-111090000D01*
X109730000Y-109820000D02*
X112270000Y-112360000D01*
X116080000Y-127600000D02*
X116080000Y-107280000D01*
X105920000Y-127600000D02*
X116080000Y-127600000D01*
X105920000Y-107280000D02*
X105920000Y-127600000D01*
X116080000Y-107280000D02*
X105920000Y-107280000D01*
X105920000Y-88320000D02*
X116080000Y-88320000D01*
X116080000Y-88320000D02*
X116080000Y-68000000D01*
X116080000Y-68000000D02*
X105920000Y-68000000D01*
X105920000Y-68000000D02*
X105920000Y-88320000D01*
X112270000Y-85780000D02*
X109730000Y-83240000D01*
X112270000Y-84510000D02*
X114810000Y-84510000D01*
X114810000Y-84510000D02*
X114810000Y-85780000D01*
X107190000Y-85780000D02*
X107190000Y-84510000D01*
X107190000Y-84510000D02*
X108460000Y-84510000D01*
X108460000Y-84510000D02*
X109730000Y-84510000D01*
X109730000Y-84510000D02*
X109730000Y-85780000D01*
X109730000Y-85780000D02*
X112270000Y-85780000D01*
X112270000Y-85780000D02*
X112270000Y-83240000D01*
X112270000Y-83240000D02*
X109730000Y-83240000D01*
X109730000Y-83240000D02*
X109730000Y-84510000D01*
X93920000Y-83240000D02*
X104080000Y-83240000D01*
X104080000Y-83240000D02*
X104080000Y-62920000D01*
X104080000Y-62920000D02*
X93920000Y-62920000D01*
X93920000Y-62920000D02*
X93920000Y-83240000D01*
X100270000Y-80700000D02*
X97730000Y-78160000D01*
X100270000Y-79430000D02*
X102810000Y-79430000D01*
X102810000Y-79430000D02*
X102810000Y-80700000D01*
X95190000Y-80700000D02*
X95190000Y-79430000D01*
X95190000Y-79430000D02*
X96460000Y-79430000D01*
X96460000Y-79430000D02*
X97730000Y-79430000D01*
X97730000Y-79430000D02*
X97730000Y-80700000D01*
X97730000Y-80700000D02*
X100270000Y-80700000D01*
X100270000Y-80700000D02*
X100270000Y-78160000D01*
X100270000Y-78160000D02*
X97730000Y-78160000D01*
X97730000Y-78160000D02*
X97730000Y-79430000D01*
X85730000Y-73080000D02*
X85730000Y-74350000D01*
X88270000Y-73080000D02*
X85730000Y-73080000D01*
X88270000Y-75620000D02*
X88270000Y-73080000D01*
X85730000Y-75620000D02*
X88270000Y-75620000D01*
X85730000Y-74350000D02*
X85730000Y-75620000D01*
X84460000Y-74350000D02*
X85730000Y-74350000D01*
X83190000Y-74350000D02*
X84460000Y-74350000D01*
X83190000Y-75620000D02*
X83190000Y-74350000D01*
X90810000Y-74350000D02*
X90810000Y-75620000D01*
X88270000Y-74350000D02*
X90810000Y-74350000D01*
X88270000Y-75620000D02*
X85730000Y-73080000D01*
X81920000Y-57840000D02*
X81920000Y-78160000D01*
X92080000Y-57840000D02*
X81920000Y-57840000D01*
X92080000Y-78160000D02*
X92080000Y-57840000D01*
X81920000Y-78160000D02*
X92080000Y-78160000D01*
D12*
X115324000Y-135597000D02*
X112149000Y-135597000D01*
X112149000Y-135597000D02*
X112149000Y-137375000D01*
X112149000Y-137375000D02*
X115324000Y-137375000D01*
X115324000Y-131025000D02*
X112149000Y-131025000D01*
X112149000Y-131025000D02*
X112149000Y-132803000D01*
X112149000Y-132803000D02*
X115324000Y-132803000D01*
X121420000Y-137629000D02*
X115324000Y-137629000D01*
X115324000Y-137629000D02*
X115324000Y-130771000D01*
X115324000Y-130771000D02*
X123198000Y-130771000D01*
X123325000Y-130771000D02*
X123325000Y-137629000D01*
X123198000Y-137629000D02*
X121420000Y-137629000D01*
D13*
X131275000Y-130540000D02*
G75*
G03X131275000Y-130540000I-635000J0D01*
G01*
D10*
X129446200Y-129828800D02*
X129928800Y-129346200D01*
X129928800Y-129346200D02*
X139453800Y-129346200D01*
X129446200Y-129828800D02*
X129446200Y-139353800D01*
X139453800Y-139353800D02*
X129446200Y-139353800D01*
X139453800Y-129346200D02*
X139453800Y-139353800D01*
D12*
X72926547Y-148787261D02*
X72926547Y-148152261D01*
X73289404Y-148787261D02*
X73017261Y-148424404D01*
X73289404Y-148152261D02*
X72926547Y-148515119D01*
X73894166Y-148787261D02*
X73531309Y-148787261D01*
X73712738Y-148787261D02*
X73712738Y-148152261D01*
X73652261Y-148242976D01*
X73591785Y-148303452D01*
X73531309Y-148333690D01*
X74287261Y-148152261D02*
X74347738Y-148152261D01*
X74408214Y-148182500D01*
X74438452Y-148212738D01*
X74468690Y-148273214D01*
X74498928Y-148394166D01*
X74498928Y-148545357D01*
X74468690Y-148666309D01*
X74438452Y-148726785D01*
X74408214Y-148757023D01*
X74347738Y-148787261D01*
X74287261Y-148787261D01*
X74226785Y-148757023D01*
X74196547Y-148726785D01*
X74166309Y-148666309D01*
X74136071Y-148545357D01*
X74136071Y-148394166D01*
X74166309Y-148273214D01*
X74196547Y-148212738D01*
X74226785Y-148182500D01*
X74287261Y-148152261D01*
X75103690Y-148787261D02*
X74740833Y-148787261D01*
X74922261Y-148787261D02*
X74922261Y-148152261D01*
X74861785Y-148242976D01*
X74801309Y-148303452D01*
X74740833Y-148333690D01*
X124289404Y-146226785D02*
X124259166Y-146257023D01*
X124168452Y-146287261D01*
X124107976Y-146287261D01*
X124017261Y-146257023D01*
X123956785Y-146196547D01*
X123926547Y-146136071D01*
X123896309Y-146015119D01*
X123896309Y-145924404D01*
X123926547Y-145803452D01*
X123956785Y-145742976D01*
X124017261Y-145682500D01*
X124107976Y-145652261D01*
X124168452Y-145652261D01*
X124259166Y-145682500D01*
X124289404Y-145712738D01*
X124894166Y-146287261D02*
X124531309Y-146287261D01*
X124712738Y-146287261D02*
X124712738Y-145652261D01*
X124652261Y-145742976D01*
X124591785Y-145803452D01*
X124531309Y-145833690D01*
X125287261Y-145652261D02*
X125347738Y-145652261D01*
X125408214Y-145682500D01*
X125438452Y-145712738D01*
X125468690Y-145773214D01*
X125498928Y-145894166D01*
X125498928Y-146045357D01*
X125468690Y-146166309D01*
X125438452Y-146226785D01*
X125408214Y-146257023D01*
X125347738Y-146287261D01*
X125287261Y-146287261D01*
X125226785Y-146257023D01*
X125196547Y-146226785D01*
X125166309Y-146166309D01*
X125136071Y-146045357D01*
X125136071Y-145894166D01*
X125166309Y-145773214D01*
X125196547Y-145712738D01*
X125226785Y-145682500D01*
X125287261Y-145652261D01*
X125710595Y-145652261D02*
X126103690Y-145652261D01*
X125892023Y-145894166D01*
X125982738Y-145894166D01*
X126043214Y-145924404D01*
X126073452Y-145954642D01*
X126103690Y-146015119D01*
X126103690Y-146166309D01*
X126073452Y-146226785D01*
X126043214Y-146257023D01*
X125982738Y-146287261D01*
X125801309Y-146287261D01*
X125740833Y-146257023D01*
X125710595Y-146226785D01*
X118289404Y-147726785D02*
X118259166Y-147757023D01*
X118168452Y-147787261D01*
X118107976Y-147787261D01*
X118017261Y-147757023D01*
X117956785Y-147696547D01*
X117926547Y-147636071D01*
X117896309Y-147515119D01*
X117896309Y-147424404D01*
X117926547Y-147303452D01*
X117956785Y-147242976D01*
X118017261Y-147182500D01*
X118107976Y-147152261D01*
X118168452Y-147152261D01*
X118259166Y-147182500D01*
X118289404Y-147212738D01*
X118894166Y-147787261D02*
X118531309Y-147787261D01*
X118712738Y-147787261D02*
X118712738Y-147152261D01*
X118652261Y-147242976D01*
X118591785Y-147303452D01*
X118531309Y-147333690D01*
X119287261Y-147152261D02*
X119347738Y-147152261D01*
X119408214Y-147182500D01*
X119438452Y-147212738D01*
X119468690Y-147273214D01*
X119498928Y-147394166D01*
X119498928Y-147545357D01*
X119468690Y-147666309D01*
X119438452Y-147726785D01*
X119408214Y-147757023D01*
X119347738Y-147787261D01*
X119287261Y-147787261D01*
X119226785Y-147757023D01*
X119196547Y-147726785D01*
X119166309Y-147666309D01*
X119136071Y-147545357D01*
X119136071Y-147394166D01*
X119166309Y-147273214D01*
X119196547Y-147212738D01*
X119226785Y-147182500D01*
X119287261Y-147152261D01*
X119740833Y-147212738D02*
X119771071Y-147182500D01*
X119831547Y-147152261D01*
X119982738Y-147152261D01*
X120043214Y-147182500D01*
X120073452Y-147212738D01*
X120103690Y-147273214D01*
X120103690Y-147333690D01*
X120073452Y-147424404D01*
X119710595Y-147787261D01*
X120103690Y-147787261D01*
D13*
X120836857Y-142710571D02*
X120836857Y-141549428D01*
X121417428Y-142130000D02*
X120256285Y-142130000D01*
D12*
X134039404Y-96226785D02*
X134009166Y-96257023D01*
X133918452Y-96287261D01*
X133857976Y-96287261D01*
X133767261Y-96257023D01*
X133706785Y-96196547D01*
X133676547Y-96136071D01*
X133646309Y-96015119D01*
X133646309Y-95924404D01*
X133676547Y-95803452D01*
X133706785Y-95742976D01*
X133767261Y-95682500D01*
X133857976Y-95652261D01*
X133918452Y-95652261D01*
X134009166Y-95682500D01*
X134039404Y-95712738D01*
X134644166Y-96287261D02*
X134281309Y-96287261D01*
X134462738Y-96287261D02*
X134462738Y-95652261D01*
X134402261Y-95742976D01*
X134341785Y-95803452D01*
X134281309Y-95833690D01*
X135037261Y-95652261D02*
X135097738Y-95652261D01*
X135158214Y-95682500D01*
X135188452Y-95712738D01*
X135218690Y-95773214D01*
X135248928Y-95894166D01*
X135248928Y-96045357D01*
X135218690Y-96166309D01*
X135188452Y-96226785D01*
X135158214Y-96257023D01*
X135097738Y-96287261D01*
X135037261Y-96287261D01*
X134976785Y-96257023D01*
X134946547Y-96226785D01*
X134916309Y-96166309D01*
X134886071Y-96045357D01*
X134886071Y-95894166D01*
X134916309Y-95773214D01*
X134946547Y-95712738D01*
X134976785Y-95682500D01*
X135037261Y-95652261D01*
X135460595Y-95652261D02*
X135883928Y-95652261D01*
X135611785Y-96287261D01*
X129411428Y-110652261D02*
X129411428Y-111166309D01*
X129441666Y-111226785D01*
X129471904Y-111257023D01*
X129532380Y-111287261D01*
X129653333Y-111287261D01*
X129713809Y-111257023D01*
X129744047Y-111226785D01*
X129774285Y-111166309D01*
X129774285Y-110652261D01*
X130409285Y-111287261D02*
X130046428Y-111287261D01*
X130227857Y-111287261D02*
X130227857Y-110652261D01*
X130167380Y-110742976D01*
X130106904Y-110803452D01*
X130046428Y-110833690D01*
X130802380Y-110652261D02*
X130862857Y-110652261D01*
X130923333Y-110682500D01*
X130953571Y-110712738D01*
X130983809Y-110773214D01*
X131014047Y-110894166D01*
X131014047Y-111045357D01*
X130983809Y-111166309D01*
X130953571Y-111226785D01*
X130923333Y-111257023D01*
X130862857Y-111287261D01*
X130802380Y-111287261D01*
X130741904Y-111257023D01*
X130711666Y-111226785D01*
X130681428Y-111166309D01*
X130651190Y-111045357D01*
X130651190Y-110894166D01*
X130681428Y-110773214D01*
X130711666Y-110712738D01*
X130741904Y-110682500D01*
X130802380Y-110652261D01*
X131558333Y-110863928D02*
X131558333Y-111287261D01*
X131407142Y-110622023D02*
X131255952Y-111075595D01*
X131649047Y-111075595D01*
X111411428Y-147652261D02*
X111411428Y-148166309D01*
X111441666Y-148226785D01*
X111471904Y-148257023D01*
X111532380Y-148287261D01*
X111653333Y-148287261D01*
X111713809Y-148257023D01*
X111744047Y-148226785D01*
X111774285Y-148166309D01*
X111774285Y-147652261D01*
X112409285Y-148287261D02*
X112046428Y-148287261D01*
X112227857Y-148287261D02*
X112227857Y-147652261D01*
X112167380Y-147742976D01*
X112106904Y-147803452D01*
X112046428Y-147833690D01*
X112802380Y-147652261D02*
X112862857Y-147652261D01*
X112923333Y-147682500D01*
X112953571Y-147712738D01*
X112983809Y-147773214D01*
X113014047Y-147894166D01*
X113014047Y-148045357D01*
X112983809Y-148166309D01*
X112953571Y-148226785D01*
X112923333Y-148257023D01*
X112862857Y-148287261D01*
X112802380Y-148287261D01*
X112741904Y-148257023D01*
X112711666Y-148226785D01*
X112681428Y-148166309D01*
X112651190Y-148045357D01*
X112651190Y-147894166D01*
X112681428Y-147773214D01*
X112711666Y-147712738D01*
X112741904Y-147682500D01*
X112802380Y-147652261D01*
X113618809Y-148287261D02*
X113255952Y-148287261D01*
X113437380Y-148287261D02*
X113437380Y-147652261D01*
X113376904Y-147742976D01*
X113316428Y-147803452D01*
X113255952Y-147833690D01*
D10*
X123689428Y-115511714D02*
X122963714Y-116019714D01*
X123689428Y-116382571D02*
X122165428Y-116382571D01*
X122165428Y-115802000D01*
X122238000Y-115656857D01*
X122310571Y-115584285D01*
X122455714Y-115511714D01*
X122673428Y-115511714D01*
X122818571Y-115584285D01*
X122891142Y-115656857D01*
X122963714Y-115802000D01*
X122963714Y-116382571D01*
X122891142Y-114858571D02*
X122891142Y-114350571D01*
X123689428Y-114132857D02*
X123689428Y-114858571D01*
X122165428Y-114858571D01*
X122165428Y-114132857D01*
X123689428Y-112754000D02*
X123689428Y-113479714D01*
X122165428Y-113479714D01*
X123689428Y-111447714D02*
X123689428Y-112318571D01*
X123689428Y-111883142D02*
X122165428Y-111883142D01*
X122383142Y-112028285D01*
X122528285Y-112173428D01*
X122600857Y-112318571D01*
X122165428Y-110504285D02*
X122165428Y-110359142D01*
X122238000Y-110214000D01*
X122310571Y-110141428D01*
X122455714Y-110068857D01*
X122746000Y-109996285D01*
X123108857Y-109996285D01*
X123399142Y-110068857D01*
X123544285Y-110141428D01*
X123616857Y-110214000D01*
X123689428Y-110359142D01*
X123689428Y-110504285D01*
X123616857Y-110649428D01*
X123544285Y-110722000D01*
X123399142Y-110794571D01*
X123108857Y-110867142D01*
X122746000Y-110867142D01*
X122455714Y-110794571D01*
X122310571Y-110722000D01*
X122238000Y-110649428D01*
X122165428Y-110504285D01*
X122673428Y-108690000D02*
X123689428Y-108690000D01*
X122092857Y-109052857D02*
X123181428Y-109415714D01*
X123181428Y-108472285D01*
D12*
X129411428Y-98652261D02*
X129411428Y-99166309D01*
X129441666Y-99226785D01*
X129471904Y-99257023D01*
X129532380Y-99287261D01*
X129653333Y-99287261D01*
X129713809Y-99257023D01*
X129744047Y-99226785D01*
X129774285Y-99166309D01*
X129774285Y-98652261D01*
X130409285Y-99287261D02*
X130046428Y-99287261D01*
X130227857Y-99287261D02*
X130227857Y-98652261D01*
X130167380Y-98742976D01*
X130106904Y-98803452D01*
X130046428Y-98833690D01*
X130802380Y-98652261D02*
X130862857Y-98652261D01*
X130923333Y-98682500D01*
X130953571Y-98712738D01*
X130983809Y-98773214D01*
X131014047Y-98894166D01*
X131014047Y-99045357D01*
X130983809Y-99166309D01*
X130953571Y-99226785D01*
X130923333Y-99257023D01*
X130862857Y-99287261D01*
X130802380Y-99287261D01*
X130741904Y-99257023D01*
X130711666Y-99226785D01*
X130681428Y-99166309D01*
X130651190Y-99045357D01*
X130651190Y-98894166D01*
X130681428Y-98773214D01*
X130711666Y-98712738D01*
X130741904Y-98682500D01*
X130802380Y-98652261D01*
X131588571Y-98652261D02*
X131286190Y-98652261D01*
X131255952Y-98954642D01*
X131286190Y-98924404D01*
X131346666Y-98894166D01*
X131497857Y-98894166D01*
X131558333Y-98924404D01*
X131588571Y-98954642D01*
X131618809Y-99015119D01*
X131618809Y-99166309D01*
X131588571Y-99226785D01*
X131558333Y-99257023D01*
X131497857Y-99287261D01*
X131346666Y-99287261D01*
X131286190Y-99257023D01*
X131255952Y-99226785D01*
D10*
X123689428Y-86011714D02*
X122963714Y-86519714D01*
X123689428Y-86882571D02*
X122165428Y-86882571D01*
X122165428Y-86302000D01*
X122238000Y-86156857D01*
X122310571Y-86084285D01*
X122455714Y-86011714D01*
X122673428Y-86011714D01*
X122818571Y-86084285D01*
X122891142Y-86156857D01*
X122963714Y-86302000D01*
X122963714Y-86882571D01*
X122891142Y-85358571D02*
X122891142Y-84850571D01*
X123689428Y-84632857D02*
X123689428Y-85358571D01*
X122165428Y-85358571D01*
X122165428Y-84632857D01*
X123689428Y-83254000D02*
X123689428Y-83979714D01*
X122165428Y-83979714D01*
X123689428Y-81947714D02*
X123689428Y-82818571D01*
X123689428Y-82383142D02*
X122165428Y-82383142D01*
X122383142Y-82528285D01*
X122528285Y-82673428D01*
X122600857Y-82818571D01*
X122165428Y-81004285D02*
X122165428Y-80859142D01*
X122238000Y-80714000D01*
X122310571Y-80641428D01*
X122455714Y-80568857D01*
X122746000Y-80496285D01*
X123108857Y-80496285D01*
X123399142Y-80568857D01*
X123544285Y-80641428D01*
X123616857Y-80714000D01*
X123689428Y-80859142D01*
X123689428Y-81004285D01*
X123616857Y-81149428D01*
X123544285Y-81222000D01*
X123399142Y-81294571D01*
X123108857Y-81367142D01*
X122746000Y-81367142D01*
X122455714Y-81294571D01*
X122310571Y-81222000D01*
X122238000Y-81149428D01*
X122165428Y-81004285D01*
X122165428Y-79117428D02*
X122165428Y-79843142D01*
X122891142Y-79915714D01*
X122818571Y-79843142D01*
X122746000Y-79698000D01*
X122746000Y-79335142D01*
X122818571Y-79190000D01*
X122891142Y-79117428D01*
X123036285Y-79044857D01*
X123399142Y-79044857D01*
X123544285Y-79117428D01*
X123616857Y-79190000D01*
X123689428Y-79335142D01*
X123689428Y-79698000D01*
X123616857Y-79843142D01*
X123544285Y-79915714D01*
X87689428Y-131011714D02*
X86963714Y-131519714D01*
X87689428Y-131882571D02*
X86165428Y-131882571D01*
X86165428Y-131302000D01*
X86238000Y-131156857D01*
X86310571Y-131084285D01*
X86455714Y-131011714D01*
X86673428Y-131011714D01*
X86818571Y-131084285D01*
X86891142Y-131156857D01*
X86963714Y-131302000D01*
X86963714Y-131882571D01*
X86891142Y-130358571D02*
X86891142Y-129850571D01*
X87689428Y-129632857D02*
X87689428Y-130358571D01*
X86165428Y-130358571D01*
X86165428Y-129632857D01*
X87689428Y-128254000D02*
X87689428Y-128979714D01*
X86165428Y-128979714D01*
X87689428Y-126947714D02*
X87689428Y-127818571D01*
X87689428Y-127383142D02*
X86165428Y-127383142D01*
X86383142Y-127528285D01*
X86528285Y-127673428D01*
X86600857Y-127818571D01*
X86165428Y-126004285D02*
X86165428Y-125859142D01*
X86238000Y-125714000D01*
X86310571Y-125641428D01*
X86455714Y-125568857D01*
X86746000Y-125496285D01*
X87108857Y-125496285D01*
X87399142Y-125568857D01*
X87544285Y-125641428D01*
X87616857Y-125714000D01*
X87689428Y-125859142D01*
X87689428Y-126004285D01*
X87616857Y-126149428D01*
X87544285Y-126222000D01*
X87399142Y-126294571D01*
X87108857Y-126367142D01*
X86746000Y-126367142D01*
X86455714Y-126294571D01*
X86310571Y-126222000D01*
X86238000Y-126149428D01*
X86165428Y-126004285D01*
X87689428Y-124044857D02*
X87689428Y-124915714D01*
X87689428Y-124480285D02*
X86165428Y-124480285D01*
X86383142Y-124625428D01*
X86528285Y-124770571D01*
X86600857Y-124915714D01*
D12*
X109039404Y-136764285D02*
X109009166Y-136794523D01*
X108918452Y-136824761D01*
X108857976Y-136824761D01*
X108767261Y-136794523D01*
X108706785Y-136734047D01*
X108676547Y-136673571D01*
X108646309Y-136552619D01*
X108646309Y-136461904D01*
X108676547Y-136340952D01*
X108706785Y-136280476D01*
X108767261Y-136220000D01*
X108857976Y-136189761D01*
X108918452Y-136189761D01*
X109009166Y-136220000D01*
X109039404Y-136250238D01*
X109644166Y-136824761D02*
X109281309Y-136824761D01*
X109462738Y-136824761D02*
X109462738Y-136189761D01*
X109402261Y-136280476D01*
X109341785Y-136340952D01*
X109281309Y-136371190D01*
X110037261Y-136189761D02*
X110097738Y-136189761D01*
X110158214Y-136220000D01*
X110188452Y-136250238D01*
X110218690Y-136310714D01*
X110248928Y-136431666D01*
X110248928Y-136582857D01*
X110218690Y-136703809D01*
X110188452Y-136764285D01*
X110158214Y-136794523D01*
X110097738Y-136824761D01*
X110037261Y-136824761D01*
X109976785Y-136794523D01*
X109946547Y-136764285D01*
X109916309Y-136703809D01*
X109886071Y-136582857D01*
X109886071Y-136431666D01*
X109916309Y-136310714D01*
X109946547Y-136250238D01*
X109976785Y-136220000D01*
X110037261Y-136189761D01*
X110823452Y-136189761D02*
X110521071Y-136189761D01*
X110490833Y-136492142D01*
X110521071Y-136461904D01*
X110581547Y-136431666D01*
X110732738Y-136431666D01*
X110793214Y-136461904D01*
X110823452Y-136492142D01*
X110853690Y-136552619D01*
X110853690Y-136703809D01*
X110823452Y-136764285D01*
X110793214Y-136794523D01*
X110732738Y-136824761D01*
X110581547Y-136824761D01*
X110521071Y-136794523D01*
X110490833Y-136764285D01*
X141726785Y-111210595D02*
X141757023Y-111240833D01*
X141787261Y-111331547D01*
X141787261Y-111392023D01*
X141757023Y-111482738D01*
X141696547Y-111543214D01*
X141636071Y-111573452D01*
X141515119Y-111603690D01*
X141424404Y-111603690D01*
X141303452Y-111573452D01*
X141242976Y-111543214D01*
X141182500Y-111482738D01*
X141152261Y-111392023D01*
X141152261Y-111331547D01*
X141182500Y-111240833D01*
X141212738Y-111210595D01*
X141787261Y-110605833D02*
X141787261Y-110968690D01*
X141787261Y-110787261D02*
X141152261Y-110787261D01*
X141242976Y-110847738D01*
X141303452Y-110908214D01*
X141333690Y-110968690D01*
X141152261Y-110212738D02*
X141152261Y-110152261D01*
X141182500Y-110091785D01*
X141212738Y-110061547D01*
X141273214Y-110031309D01*
X141394166Y-110001071D01*
X141545357Y-110001071D01*
X141666309Y-110031309D01*
X141726785Y-110061547D01*
X141757023Y-110091785D01*
X141787261Y-110152261D01*
X141787261Y-110212738D01*
X141757023Y-110273214D01*
X141726785Y-110303452D01*
X141666309Y-110333690D01*
X141545357Y-110363928D01*
X141394166Y-110363928D01*
X141273214Y-110333690D01*
X141212738Y-110303452D01*
X141182500Y-110273214D01*
X141152261Y-110212738D01*
X141152261Y-109456785D02*
X141152261Y-109577738D01*
X141182500Y-109638214D01*
X141212738Y-109668452D01*
X141303452Y-109728928D01*
X141424404Y-109759166D01*
X141666309Y-109759166D01*
X141726785Y-109728928D01*
X141757023Y-109698690D01*
X141787261Y-109638214D01*
X141787261Y-109517261D01*
X141757023Y-109456785D01*
X141726785Y-109426547D01*
X141666309Y-109396309D01*
X141515119Y-109396309D01*
X141454642Y-109426547D01*
X141424404Y-109456785D01*
X141394166Y-109517261D01*
X141394166Y-109638214D01*
X141424404Y-109698690D01*
X141454642Y-109728928D01*
X141515119Y-109759166D01*
X99789404Y-145226785D02*
X99759166Y-145257023D01*
X99668452Y-145287261D01*
X99607976Y-145287261D01*
X99517261Y-145257023D01*
X99456785Y-145196547D01*
X99426547Y-145136071D01*
X99396309Y-145015119D01*
X99396309Y-144924404D01*
X99426547Y-144803452D01*
X99456785Y-144742976D01*
X99517261Y-144682500D01*
X99607976Y-144652261D01*
X99668452Y-144652261D01*
X99759166Y-144682500D01*
X99789404Y-144712738D01*
X100394166Y-145287261D02*
X100031309Y-145287261D01*
X100212738Y-145287261D02*
X100212738Y-144652261D01*
X100152261Y-144742976D01*
X100091785Y-144803452D01*
X100031309Y-144833690D01*
X100787261Y-144652261D02*
X100847738Y-144652261D01*
X100908214Y-144682500D01*
X100938452Y-144712738D01*
X100968690Y-144773214D01*
X100998928Y-144894166D01*
X100998928Y-145045357D01*
X100968690Y-145166309D01*
X100938452Y-145226785D01*
X100908214Y-145257023D01*
X100847738Y-145287261D01*
X100787261Y-145287261D01*
X100726785Y-145257023D01*
X100696547Y-145226785D01*
X100666309Y-145166309D01*
X100636071Y-145045357D01*
X100636071Y-144894166D01*
X100666309Y-144773214D01*
X100696547Y-144712738D01*
X100726785Y-144682500D01*
X100787261Y-144652261D01*
X101543214Y-144863928D02*
X101543214Y-145287261D01*
X101392023Y-144622023D02*
X101240833Y-145075595D01*
X101633928Y-145075595D01*
X95289404Y-147726785D02*
X95259166Y-147757023D01*
X95168452Y-147787261D01*
X95107976Y-147787261D01*
X95017261Y-147757023D01*
X94956785Y-147696547D01*
X94926547Y-147636071D01*
X94896309Y-147515119D01*
X94896309Y-147424404D01*
X94926547Y-147303452D01*
X94956785Y-147242976D01*
X95017261Y-147182500D01*
X95107976Y-147152261D01*
X95168452Y-147152261D01*
X95259166Y-147182500D01*
X95289404Y-147212738D01*
X95894166Y-147787261D02*
X95531309Y-147787261D01*
X95712738Y-147787261D02*
X95712738Y-147152261D01*
X95652261Y-147242976D01*
X95591785Y-147303452D01*
X95531309Y-147333690D01*
X96287261Y-147152261D02*
X96347738Y-147152261D01*
X96408214Y-147182500D01*
X96438452Y-147212738D01*
X96468690Y-147273214D01*
X96498928Y-147394166D01*
X96498928Y-147545357D01*
X96468690Y-147666309D01*
X96438452Y-147726785D01*
X96408214Y-147757023D01*
X96347738Y-147787261D01*
X96287261Y-147787261D01*
X96226785Y-147757023D01*
X96196547Y-147726785D01*
X96166309Y-147666309D01*
X96136071Y-147545357D01*
X96136071Y-147394166D01*
X96166309Y-147273214D01*
X96196547Y-147212738D01*
X96226785Y-147182500D01*
X96287261Y-147152261D01*
X97103690Y-147787261D02*
X96740833Y-147787261D01*
X96922261Y-147787261D02*
X96922261Y-147152261D01*
X96861785Y-147242976D01*
X96801309Y-147303452D01*
X96740833Y-147333690D01*
D13*
X94430857Y-145550571D02*
X94430857Y-144389428D01*
X95011428Y-144970000D02*
X93850285Y-144970000D01*
D12*
X142289404Y-126726785D02*
X142259166Y-126757023D01*
X142168452Y-126787261D01*
X142107976Y-126787261D01*
X142017261Y-126757023D01*
X141956785Y-126696547D01*
X141926547Y-126636071D01*
X141896309Y-126515119D01*
X141896309Y-126424404D01*
X141926547Y-126303452D01*
X141956785Y-126242976D01*
X142017261Y-126182500D01*
X142107976Y-126152261D01*
X142168452Y-126152261D01*
X142259166Y-126182500D01*
X142289404Y-126212738D01*
X142894166Y-126787261D02*
X142531309Y-126787261D01*
X142712738Y-126787261D02*
X142712738Y-126152261D01*
X142652261Y-126242976D01*
X142591785Y-126303452D01*
X142531309Y-126333690D01*
X143498928Y-126787261D02*
X143136071Y-126787261D01*
X143317500Y-126787261D02*
X143317500Y-126152261D01*
X143257023Y-126242976D01*
X143196547Y-126303452D01*
X143136071Y-126333690D01*
X143892023Y-126152261D02*
X143952500Y-126152261D01*
X144012976Y-126182500D01*
X144043214Y-126212738D01*
X144073452Y-126273214D01*
X144103690Y-126394166D01*
X144103690Y-126545357D01*
X144073452Y-126666309D01*
X144043214Y-126726785D01*
X144012976Y-126757023D01*
X143952500Y-126787261D01*
X143892023Y-126787261D01*
X143831547Y-126757023D01*
X143801309Y-126726785D01*
X143771071Y-126666309D01*
X143740833Y-126545357D01*
X143740833Y-126394166D01*
X143771071Y-126273214D01*
X143801309Y-126212738D01*
X143831547Y-126182500D01*
X143892023Y-126152261D01*
X127339404Y-146226785D02*
X127309166Y-146257023D01*
X127218452Y-146287261D01*
X127157976Y-146287261D01*
X127067261Y-146257023D01*
X127006785Y-146196547D01*
X126976547Y-146136071D01*
X126946309Y-146015119D01*
X126946309Y-145924404D01*
X126976547Y-145803452D01*
X127006785Y-145742976D01*
X127067261Y-145682500D01*
X127157976Y-145652261D01*
X127218452Y-145652261D01*
X127309166Y-145682500D01*
X127339404Y-145712738D01*
X127944166Y-146287261D02*
X127581309Y-146287261D01*
X127762738Y-146287261D02*
X127762738Y-145652261D01*
X127702261Y-145742976D01*
X127641785Y-145803452D01*
X127581309Y-145833690D01*
X128337261Y-145652261D02*
X128397738Y-145652261D01*
X128458214Y-145682500D01*
X128488452Y-145712738D01*
X128518690Y-145773214D01*
X128548928Y-145894166D01*
X128548928Y-146045357D01*
X128518690Y-146166309D01*
X128488452Y-146226785D01*
X128458214Y-146257023D01*
X128397738Y-146287261D01*
X128337261Y-146287261D01*
X128276785Y-146257023D01*
X128246547Y-146226785D01*
X128216309Y-146166309D01*
X128186071Y-146045357D01*
X128186071Y-145894166D01*
X128216309Y-145773214D01*
X128246547Y-145712738D01*
X128276785Y-145682500D01*
X128337261Y-145652261D01*
X128911785Y-145924404D02*
X128851309Y-145894166D01*
X128821071Y-145863928D01*
X128790833Y-145803452D01*
X128790833Y-145773214D01*
X128821071Y-145712738D01*
X128851309Y-145682500D01*
X128911785Y-145652261D01*
X129032738Y-145652261D01*
X129093214Y-145682500D01*
X129123452Y-145712738D01*
X129153690Y-145773214D01*
X129153690Y-145803452D01*
X129123452Y-145863928D01*
X129093214Y-145894166D01*
X129032738Y-145924404D01*
X128911785Y-145924404D01*
X128851309Y-145954642D01*
X128821071Y-145984880D01*
X128790833Y-146045357D01*
X128790833Y-146166309D01*
X128821071Y-146226785D01*
X128851309Y-146257023D01*
X128911785Y-146287261D01*
X129032738Y-146287261D01*
X129093214Y-146257023D01*
X129123452Y-146226785D01*
X129153690Y-146166309D01*
X129153690Y-146045357D01*
X129123452Y-145984880D01*
X129093214Y-145954642D01*
X129032738Y-145924404D01*
X135289404Y-148226785D02*
X135259166Y-148257023D01*
X135168452Y-148287261D01*
X135107976Y-148287261D01*
X135017261Y-148257023D01*
X134956785Y-148196547D01*
X134926547Y-148136071D01*
X134896309Y-148015119D01*
X134896309Y-147924404D01*
X134926547Y-147803452D01*
X134956785Y-147742976D01*
X135017261Y-147682500D01*
X135107976Y-147652261D01*
X135168452Y-147652261D01*
X135259166Y-147682500D01*
X135289404Y-147712738D01*
X135894166Y-148287261D02*
X135531309Y-148287261D01*
X135712738Y-148287261D02*
X135712738Y-147652261D01*
X135652261Y-147742976D01*
X135591785Y-147803452D01*
X135531309Y-147833690D01*
X136287261Y-147652261D02*
X136347738Y-147652261D01*
X136408214Y-147682500D01*
X136438452Y-147712738D01*
X136468690Y-147773214D01*
X136498928Y-147894166D01*
X136498928Y-148045357D01*
X136468690Y-148166309D01*
X136438452Y-148226785D01*
X136408214Y-148257023D01*
X136347738Y-148287261D01*
X136287261Y-148287261D01*
X136226785Y-148257023D01*
X136196547Y-148226785D01*
X136166309Y-148166309D01*
X136136071Y-148045357D01*
X136136071Y-147894166D01*
X136166309Y-147773214D01*
X136196547Y-147712738D01*
X136226785Y-147682500D01*
X136287261Y-147652261D01*
X136801309Y-148287261D02*
X136922261Y-148287261D01*
X136982738Y-148257023D01*
X137012976Y-148226785D01*
X137073452Y-148136071D01*
X137103690Y-148015119D01*
X137103690Y-147773214D01*
X137073452Y-147712738D01*
X137043214Y-147682500D01*
X136982738Y-147652261D01*
X136861785Y-147652261D01*
X136801309Y-147682500D01*
X136771071Y-147712738D01*
X136740833Y-147773214D01*
X136740833Y-147924404D01*
X136771071Y-147984880D01*
X136801309Y-148015119D01*
X136861785Y-148045357D01*
X136982738Y-148045357D01*
X137043214Y-148015119D01*
X137073452Y-147984880D01*
X137103690Y-147924404D01*
X133289404Y-126726785D02*
X133259166Y-126757023D01*
X133168452Y-126787261D01*
X133107976Y-126787261D01*
X133017261Y-126757023D01*
X132956785Y-126696547D01*
X132926547Y-126636071D01*
X132896309Y-126515119D01*
X132896309Y-126424404D01*
X132926547Y-126303452D01*
X132956785Y-126242976D01*
X133017261Y-126182500D01*
X133107976Y-126152261D01*
X133168452Y-126152261D01*
X133259166Y-126182500D01*
X133289404Y-126212738D01*
X133894166Y-126787261D02*
X133531309Y-126787261D01*
X133712738Y-126787261D02*
X133712738Y-126152261D01*
X133652261Y-126242976D01*
X133591785Y-126303452D01*
X133531309Y-126333690D01*
X134498928Y-126787261D02*
X134136071Y-126787261D01*
X134317500Y-126787261D02*
X134317500Y-126152261D01*
X134257023Y-126242976D01*
X134196547Y-126303452D01*
X134136071Y-126333690D01*
X135103690Y-126787261D02*
X134740833Y-126787261D01*
X134922261Y-126787261D02*
X134922261Y-126152261D01*
X134861785Y-126242976D01*
X134801309Y-126303452D01*
X134740833Y-126333690D01*
D15*
X144782476Y-139459619D02*
X144782476Y-138443619D01*
X145363047Y-139459619D02*
X144927619Y-138879047D01*
X145363047Y-138443619D02*
X144782476Y-139024190D01*
X146330666Y-139459619D02*
X145750095Y-139459619D01*
X146040380Y-139459619D02*
X146040380Y-138443619D01*
X145943619Y-138588761D01*
X145846857Y-138685523D01*
X145750095Y-138733904D01*
X146959619Y-138443619D02*
X147056380Y-138443619D01*
X147153142Y-138492000D01*
X147201523Y-138540380D01*
X147249904Y-138637142D01*
X147298285Y-138830666D01*
X147298285Y-139072571D01*
X147249904Y-139266095D01*
X147201523Y-139362857D01*
X147153142Y-139411238D01*
X147056380Y-139459619D01*
X146959619Y-139459619D01*
X146862857Y-139411238D01*
X146814476Y-139362857D01*
X146766095Y-139266095D01*
X146717714Y-139072571D01*
X146717714Y-138830666D01*
X146766095Y-138637142D01*
X146814476Y-138540380D01*
X146862857Y-138492000D01*
X146959619Y-138443619D01*
X147685333Y-138540380D02*
X147733714Y-138492000D01*
X147830476Y-138443619D01*
X148072380Y-138443619D01*
X148169142Y-138492000D01*
X148217523Y-138540380D01*
X148265904Y-138637142D01*
X148265904Y-138733904D01*
X148217523Y-138879047D01*
X147636952Y-139459619D01*
X148265904Y-139459619D01*
D12*
X130789404Y-126787261D02*
X130487023Y-126787261D01*
X130487023Y-126152261D01*
X131333690Y-126787261D02*
X130970833Y-126787261D01*
X131152261Y-126787261D02*
X131152261Y-126152261D01*
X131091785Y-126242976D01*
X131031309Y-126303452D01*
X130970833Y-126333690D01*
X131726785Y-126152261D02*
X131787261Y-126152261D01*
X131847738Y-126182500D01*
X131877976Y-126212738D01*
X131908214Y-126273214D01*
X131938452Y-126394166D01*
X131938452Y-126545357D01*
X131908214Y-126666309D01*
X131877976Y-126726785D01*
X131847738Y-126757023D01*
X131787261Y-126787261D01*
X131726785Y-126787261D01*
X131666309Y-126757023D01*
X131636071Y-126726785D01*
X131605833Y-126666309D01*
X131575595Y-126545357D01*
X131575595Y-126394166D01*
X131605833Y-126273214D01*
X131636071Y-126212738D01*
X131666309Y-126182500D01*
X131726785Y-126152261D01*
X132543214Y-126787261D02*
X132180357Y-126787261D01*
X132361785Y-126787261D02*
X132361785Y-126152261D01*
X132301309Y-126242976D01*
X132240833Y-126303452D01*
X132180357Y-126333690D01*
X143834761Y-148347738D02*
X143774285Y-148317500D01*
X143713809Y-148257023D01*
X143623095Y-148166309D01*
X143562619Y-148136071D01*
X143502142Y-148136071D01*
X143532380Y-148287261D02*
X143471904Y-148257023D01*
X143411428Y-148196547D01*
X143381190Y-148075595D01*
X143381190Y-147863928D01*
X143411428Y-147742976D01*
X143471904Y-147682500D01*
X143532380Y-147652261D01*
X143653333Y-147652261D01*
X143713809Y-147682500D01*
X143774285Y-147742976D01*
X143804523Y-147863928D01*
X143804523Y-148075595D01*
X143774285Y-148196547D01*
X143713809Y-148257023D01*
X143653333Y-148287261D01*
X143532380Y-148287261D01*
X144409285Y-148287261D02*
X144046428Y-148287261D01*
X144227857Y-148287261D02*
X144227857Y-147652261D01*
X144167380Y-147742976D01*
X144106904Y-147803452D01*
X144046428Y-147833690D01*
X144802380Y-147652261D02*
X144862857Y-147652261D01*
X144923333Y-147682500D01*
X144953571Y-147712738D01*
X144983809Y-147773214D01*
X145014047Y-147894166D01*
X145014047Y-148045357D01*
X144983809Y-148166309D01*
X144953571Y-148226785D01*
X144923333Y-148257023D01*
X144862857Y-148287261D01*
X144802380Y-148287261D01*
X144741904Y-148257023D01*
X144711666Y-148226785D01*
X144681428Y-148166309D01*
X144651190Y-148045357D01*
X144651190Y-147894166D01*
X144681428Y-147773214D01*
X144711666Y-147712738D01*
X144741904Y-147682500D01*
X144802380Y-147652261D01*
X145618809Y-148287261D02*
X145255952Y-148287261D01*
X145437380Y-148287261D02*
X145437380Y-147652261D01*
X145376904Y-147742976D01*
X145316428Y-147803452D01*
X145255952Y-147833690D01*
X129289404Y-106787261D02*
X129077738Y-106484880D01*
X128926547Y-106787261D02*
X128926547Y-106152261D01*
X129168452Y-106152261D01*
X129228928Y-106182500D01*
X129259166Y-106212738D01*
X129289404Y-106273214D01*
X129289404Y-106363928D01*
X129259166Y-106424404D01*
X129228928Y-106454642D01*
X129168452Y-106484880D01*
X128926547Y-106484880D01*
X129894166Y-106787261D02*
X129531309Y-106787261D01*
X129712738Y-106787261D02*
X129712738Y-106152261D01*
X129652261Y-106242976D01*
X129591785Y-106303452D01*
X129531309Y-106333690D01*
X130287261Y-106152261D02*
X130347738Y-106152261D01*
X130408214Y-106182500D01*
X130438452Y-106212738D01*
X130468690Y-106273214D01*
X130498928Y-106394166D01*
X130498928Y-106545357D01*
X130468690Y-106666309D01*
X130438452Y-106726785D01*
X130408214Y-106757023D01*
X130347738Y-106787261D01*
X130287261Y-106787261D01*
X130226785Y-106757023D01*
X130196547Y-106726785D01*
X130166309Y-106666309D01*
X130136071Y-106545357D01*
X130136071Y-106394166D01*
X130166309Y-106273214D01*
X130196547Y-106212738D01*
X130226785Y-106182500D01*
X130287261Y-106152261D01*
X131073452Y-106152261D02*
X130771071Y-106152261D01*
X130740833Y-106454642D01*
X130771071Y-106424404D01*
X130831547Y-106394166D01*
X130982738Y-106394166D01*
X131043214Y-106424404D01*
X131073452Y-106454642D01*
X131103690Y-106515119D01*
X131103690Y-106666309D01*
X131073452Y-106726785D01*
X131043214Y-106757023D01*
X130982738Y-106787261D01*
X130831547Y-106787261D01*
X130771071Y-106757023D01*
X130740833Y-106726785D01*
X140789404Y-148287261D02*
X140577738Y-147984880D01*
X140426547Y-148287261D02*
X140426547Y-147652261D01*
X140668452Y-147652261D01*
X140728928Y-147682500D01*
X140759166Y-147712738D01*
X140789404Y-147773214D01*
X140789404Y-147863928D01*
X140759166Y-147924404D01*
X140728928Y-147954642D01*
X140668452Y-147984880D01*
X140426547Y-147984880D01*
X141394166Y-148287261D02*
X141031309Y-148287261D01*
X141212738Y-148287261D02*
X141212738Y-147652261D01*
X141152261Y-147742976D01*
X141091785Y-147803452D01*
X141031309Y-147833690D01*
X141787261Y-147652261D02*
X141847738Y-147652261D01*
X141908214Y-147682500D01*
X141938452Y-147712738D01*
X141968690Y-147773214D01*
X141998928Y-147894166D01*
X141998928Y-148045357D01*
X141968690Y-148166309D01*
X141938452Y-148226785D01*
X141908214Y-148257023D01*
X141847738Y-148287261D01*
X141787261Y-148287261D01*
X141726785Y-148257023D01*
X141696547Y-148226785D01*
X141666309Y-148166309D01*
X141636071Y-148045357D01*
X141636071Y-147894166D01*
X141666309Y-147773214D01*
X141696547Y-147712738D01*
X141726785Y-147682500D01*
X141787261Y-147652261D01*
X142603690Y-148287261D02*
X142240833Y-148287261D01*
X142422261Y-148287261D02*
X142422261Y-147652261D01*
X142361785Y-147742976D01*
X142301309Y-147803452D01*
X142240833Y-147833690D01*
X146789404Y-148287261D02*
X146577738Y-147984880D01*
X146426547Y-148287261D02*
X146426547Y-147652261D01*
X146668452Y-147652261D01*
X146728928Y-147682500D01*
X146759166Y-147712738D01*
X146789404Y-147773214D01*
X146789404Y-147863928D01*
X146759166Y-147924404D01*
X146728928Y-147954642D01*
X146668452Y-147984880D01*
X146426547Y-147984880D01*
X147394166Y-148287261D02*
X147031309Y-148287261D01*
X147212738Y-148287261D02*
X147212738Y-147652261D01*
X147152261Y-147742976D01*
X147091785Y-147803452D01*
X147031309Y-147833690D01*
X147787261Y-147652261D02*
X147847738Y-147652261D01*
X147908214Y-147682500D01*
X147938452Y-147712738D01*
X147968690Y-147773214D01*
X147998928Y-147894166D01*
X147998928Y-148045357D01*
X147968690Y-148166309D01*
X147938452Y-148226785D01*
X147908214Y-148257023D01*
X147847738Y-148287261D01*
X147787261Y-148287261D01*
X147726785Y-148257023D01*
X147696547Y-148226785D01*
X147666309Y-148166309D01*
X147636071Y-148045357D01*
X147636071Y-147894166D01*
X147666309Y-147773214D01*
X147696547Y-147712738D01*
X147726785Y-147682500D01*
X147787261Y-147652261D01*
X148240833Y-147712738D02*
X148271071Y-147682500D01*
X148331547Y-147652261D01*
X148482738Y-147652261D01*
X148543214Y-147682500D01*
X148573452Y-147712738D01*
X148603690Y-147773214D01*
X148603690Y-147833690D01*
X148573452Y-147924404D01*
X148210595Y-148287261D01*
X148603690Y-148287261D01*
X138089404Y-148287261D02*
X137877738Y-147984880D01*
X137726547Y-148287261D02*
X137726547Y-147652261D01*
X137968452Y-147652261D01*
X138028928Y-147682500D01*
X138059166Y-147712738D01*
X138089404Y-147773214D01*
X138089404Y-147863928D01*
X138059166Y-147924404D01*
X138028928Y-147954642D01*
X137968452Y-147984880D01*
X137726547Y-147984880D01*
X138694166Y-148287261D02*
X138331309Y-148287261D01*
X138512738Y-148287261D02*
X138512738Y-147652261D01*
X138452261Y-147742976D01*
X138391785Y-147803452D01*
X138331309Y-147833690D01*
X139087261Y-147652261D02*
X139147738Y-147652261D01*
X139208214Y-147682500D01*
X139238452Y-147712738D01*
X139268690Y-147773214D01*
X139298928Y-147894166D01*
X139298928Y-148045357D01*
X139268690Y-148166309D01*
X139238452Y-148226785D01*
X139208214Y-148257023D01*
X139147738Y-148287261D01*
X139087261Y-148287261D01*
X139026785Y-148257023D01*
X138996547Y-148226785D01*
X138966309Y-148166309D01*
X138936071Y-148045357D01*
X138936071Y-147894166D01*
X138966309Y-147773214D01*
X138996547Y-147712738D01*
X139026785Y-147682500D01*
X139087261Y-147652261D01*
X139510595Y-147652261D02*
X139903690Y-147652261D01*
X139692023Y-147894166D01*
X139782738Y-147894166D01*
X139843214Y-147924404D01*
X139873452Y-147954642D01*
X139903690Y-148015119D01*
X139903690Y-148166309D01*
X139873452Y-148226785D01*
X139843214Y-148257023D01*
X139782738Y-148287261D01*
X139601309Y-148287261D01*
X139540833Y-148257023D01*
X139510595Y-148226785D01*
X136789404Y-126787261D02*
X136577738Y-126484880D01*
X136426547Y-126787261D02*
X136426547Y-126152261D01*
X136668452Y-126152261D01*
X136728928Y-126182500D01*
X136759166Y-126212738D01*
X136789404Y-126273214D01*
X136789404Y-126363928D01*
X136759166Y-126424404D01*
X136728928Y-126454642D01*
X136668452Y-126484880D01*
X136426547Y-126484880D01*
X137394166Y-126787261D02*
X137031309Y-126787261D01*
X137212738Y-126787261D02*
X137212738Y-126152261D01*
X137152261Y-126242976D01*
X137091785Y-126303452D01*
X137031309Y-126333690D01*
X137787261Y-126152261D02*
X137847738Y-126152261D01*
X137908214Y-126182500D01*
X137938452Y-126212738D01*
X137968690Y-126273214D01*
X137998928Y-126394166D01*
X137998928Y-126545357D01*
X137968690Y-126666309D01*
X137938452Y-126726785D01*
X137908214Y-126757023D01*
X137847738Y-126787261D01*
X137787261Y-126787261D01*
X137726785Y-126757023D01*
X137696547Y-126726785D01*
X137666309Y-126666309D01*
X137636071Y-126545357D01*
X137636071Y-126394166D01*
X137666309Y-126273214D01*
X137696547Y-126212738D01*
X137726785Y-126182500D01*
X137787261Y-126152261D01*
X138543214Y-126363928D02*
X138543214Y-126787261D01*
X138392023Y-126122023D02*
X138240833Y-126575595D01*
X138633928Y-126575595D01*
D10*
X99689428Y-125511714D02*
X98963714Y-126019714D01*
X99689428Y-126382571D02*
X98165428Y-126382571D01*
X98165428Y-125802000D01*
X98238000Y-125656857D01*
X98310571Y-125584285D01*
X98455714Y-125511714D01*
X98673428Y-125511714D01*
X98818571Y-125584285D01*
X98891142Y-125656857D01*
X98963714Y-125802000D01*
X98963714Y-126382571D01*
X98891142Y-124858571D02*
X98891142Y-124350571D01*
X99689428Y-124132857D02*
X99689428Y-124858571D01*
X98165428Y-124858571D01*
X98165428Y-124132857D01*
X99689428Y-122754000D02*
X99689428Y-123479714D01*
X98165428Y-123479714D01*
X99689428Y-121447714D02*
X99689428Y-122318571D01*
X99689428Y-121883142D02*
X98165428Y-121883142D01*
X98383142Y-122028285D01*
X98528285Y-122173428D01*
X98600857Y-122318571D01*
X98165428Y-120504285D02*
X98165428Y-120359142D01*
X98238000Y-120214000D01*
X98310571Y-120141428D01*
X98455714Y-120068857D01*
X98746000Y-119996285D01*
X99108857Y-119996285D01*
X99399142Y-120068857D01*
X99544285Y-120141428D01*
X99616857Y-120214000D01*
X99689428Y-120359142D01*
X99689428Y-120504285D01*
X99616857Y-120649428D01*
X99544285Y-120722000D01*
X99399142Y-120794571D01*
X99108857Y-120867142D01*
X98746000Y-120867142D01*
X98455714Y-120794571D01*
X98310571Y-120722000D01*
X98238000Y-120649428D01*
X98165428Y-120504285D01*
X98310571Y-119415714D02*
X98238000Y-119343142D01*
X98165428Y-119198000D01*
X98165428Y-118835142D01*
X98238000Y-118690000D01*
X98310571Y-118617428D01*
X98455714Y-118544857D01*
X98600857Y-118544857D01*
X98818571Y-118617428D01*
X99689428Y-119488285D01*
X99689428Y-118544857D01*
X111689428Y-121011714D02*
X110963714Y-121519714D01*
X111689428Y-121882571D02*
X110165428Y-121882571D01*
X110165428Y-121302000D01*
X110238000Y-121156857D01*
X110310571Y-121084285D01*
X110455714Y-121011714D01*
X110673428Y-121011714D01*
X110818571Y-121084285D01*
X110891142Y-121156857D01*
X110963714Y-121302000D01*
X110963714Y-121882571D01*
X110891142Y-120358571D02*
X110891142Y-119850571D01*
X111689428Y-119632857D02*
X111689428Y-120358571D01*
X110165428Y-120358571D01*
X110165428Y-119632857D01*
X111689428Y-118254000D02*
X111689428Y-118979714D01*
X110165428Y-118979714D01*
X111689428Y-116947714D02*
X111689428Y-117818571D01*
X111689428Y-117383142D02*
X110165428Y-117383142D01*
X110383142Y-117528285D01*
X110528285Y-117673428D01*
X110600857Y-117818571D01*
X110165428Y-116004285D02*
X110165428Y-115859142D01*
X110238000Y-115714000D01*
X110310571Y-115641428D01*
X110455714Y-115568857D01*
X110746000Y-115496285D01*
X111108857Y-115496285D01*
X111399142Y-115568857D01*
X111544285Y-115641428D01*
X111616857Y-115714000D01*
X111689428Y-115859142D01*
X111689428Y-116004285D01*
X111616857Y-116149428D01*
X111544285Y-116222000D01*
X111399142Y-116294571D01*
X111108857Y-116367142D01*
X110746000Y-116367142D01*
X110455714Y-116294571D01*
X110310571Y-116222000D01*
X110238000Y-116149428D01*
X110165428Y-116004285D01*
X110165428Y-114988285D02*
X110165428Y-114044857D01*
X110746000Y-114552857D01*
X110746000Y-114335142D01*
X110818571Y-114190000D01*
X110891142Y-114117428D01*
X111036285Y-114044857D01*
X111399142Y-114044857D01*
X111544285Y-114117428D01*
X111616857Y-114190000D01*
X111689428Y-114335142D01*
X111689428Y-114770571D01*
X111616857Y-114915714D01*
X111544285Y-114988285D01*
X111889428Y-80771714D02*
X111163714Y-81279714D01*
X111889428Y-81642571D02*
X110365428Y-81642571D01*
X110365428Y-81062000D01*
X110438000Y-80916857D01*
X110510571Y-80844285D01*
X110655714Y-80771714D01*
X110873428Y-80771714D01*
X111018571Y-80844285D01*
X111091142Y-80916857D01*
X111163714Y-81062000D01*
X111163714Y-81642571D01*
X111091142Y-80118571D02*
X111091142Y-79610571D01*
X111889428Y-79392857D02*
X111889428Y-80118571D01*
X110365428Y-80118571D01*
X110365428Y-79392857D01*
X111889428Y-78014000D02*
X111889428Y-78739714D01*
X110365428Y-78739714D01*
X111889428Y-76707714D02*
X111889428Y-77578571D01*
X111889428Y-77143142D02*
X110365428Y-77143142D01*
X110583142Y-77288285D01*
X110728285Y-77433428D01*
X110800857Y-77578571D01*
X110365428Y-75764285D02*
X110365428Y-75619142D01*
X110438000Y-75474000D01*
X110510571Y-75401428D01*
X110655714Y-75328857D01*
X110946000Y-75256285D01*
X111308857Y-75256285D01*
X111599142Y-75328857D01*
X111744285Y-75401428D01*
X111816857Y-75474000D01*
X111889428Y-75619142D01*
X111889428Y-75764285D01*
X111816857Y-75909428D01*
X111744285Y-75982000D01*
X111599142Y-76054571D01*
X111308857Y-76127142D01*
X110946000Y-76127142D01*
X110655714Y-76054571D01*
X110510571Y-75982000D01*
X110438000Y-75909428D01*
X110365428Y-75764285D01*
X110365428Y-73950000D02*
X110365428Y-74240285D01*
X110438000Y-74385428D01*
X110510571Y-74458000D01*
X110728285Y-74603142D01*
X111018571Y-74675714D01*
X111599142Y-74675714D01*
X111744285Y-74603142D01*
X111816857Y-74530571D01*
X111889428Y-74385428D01*
X111889428Y-74095142D01*
X111816857Y-73950000D01*
X111744285Y-73877428D01*
X111599142Y-73804857D01*
X111236285Y-73804857D01*
X111091142Y-73877428D01*
X111018571Y-73950000D01*
X110946000Y-74095142D01*
X110946000Y-74385428D01*
X111018571Y-74530571D01*
X111091142Y-74603142D01*
X111236285Y-74675714D01*
X99689428Y-76291714D02*
X98963714Y-76799714D01*
X99689428Y-77162571D02*
X98165428Y-77162571D01*
X98165428Y-76582000D01*
X98238000Y-76436857D01*
X98310571Y-76364285D01*
X98455714Y-76291714D01*
X98673428Y-76291714D01*
X98818571Y-76364285D01*
X98891142Y-76436857D01*
X98963714Y-76582000D01*
X98963714Y-77162571D01*
X98891142Y-75638571D02*
X98891142Y-75130571D01*
X99689428Y-74912857D02*
X99689428Y-75638571D01*
X98165428Y-75638571D01*
X98165428Y-74912857D01*
X99689428Y-73534000D02*
X99689428Y-74259714D01*
X98165428Y-74259714D01*
X99689428Y-72227714D02*
X99689428Y-73098571D01*
X99689428Y-72663142D02*
X98165428Y-72663142D01*
X98383142Y-72808285D01*
X98528285Y-72953428D01*
X98600857Y-73098571D01*
X98165428Y-71284285D02*
X98165428Y-71139142D01*
X98238000Y-70994000D01*
X98310571Y-70921428D01*
X98455714Y-70848857D01*
X98746000Y-70776285D01*
X99108857Y-70776285D01*
X99399142Y-70848857D01*
X99544285Y-70921428D01*
X99616857Y-70994000D01*
X99689428Y-71139142D01*
X99689428Y-71284285D01*
X99616857Y-71429428D01*
X99544285Y-71502000D01*
X99399142Y-71574571D01*
X99108857Y-71647142D01*
X98746000Y-71647142D01*
X98455714Y-71574571D01*
X98310571Y-71502000D01*
X98238000Y-71429428D01*
X98165428Y-71284285D01*
X98165428Y-70268285D02*
X98165428Y-69252285D01*
X99689428Y-69905428D01*
X87689428Y-71011714D02*
X86963714Y-71519714D01*
X87689428Y-71882571D02*
X86165428Y-71882571D01*
X86165428Y-71302000D01*
X86238000Y-71156857D01*
X86310571Y-71084285D01*
X86455714Y-71011714D01*
X86673428Y-71011714D01*
X86818571Y-71084285D01*
X86891142Y-71156857D01*
X86963714Y-71302000D01*
X86963714Y-71882571D01*
X86891142Y-70358571D02*
X86891142Y-69850571D01*
X87689428Y-69632857D02*
X87689428Y-70358571D01*
X86165428Y-70358571D01*
X86165428Y-69632857D01*
X87689428Y-68254000D02*
X87689428Y-68979714D01*
X86165428Y-68979714D01*
X87689428Y-66947714D02*
X87689428Y-67818571D01*
X87689428Y-67383142D02*
X86165428Y-67383142D01*
X86383142Y-67528285D01*
X86528285Y-67673428D01*
X86600857Y-67818571D01*
X86165428Y-66004285D02*
X86165428Y-65859142D01*
X86238000Y-65714000D01*
X86310571Y-65641428D01*
X86455714Y-65568857D01*
X86746000Y-65496285D01*
X87108857Y-65496285D01*
X87399142Y-65568857D01*
X87544285Y-65641428D01*
X87616857Y-65714000D01*
X87689428Y-65859142D01*
X87689428Y-66004285D01*
X87616857Y-66149428D01*
X87544285Y-66222000D01*
X87399142Y-66294571D01*
X87108857Y-66367142D01*
X86746000Y-66367142D01*
X86455714Y-66294571D01*
X86310571Y-66222000D01*
X86238000Y-66149428D01*
X86165428Y-66004285D01*
X86818571Y-64625428D02*
X86746000Y-64770571D01*
X86673428Y-64843142D01*
X86528285Y-64915714D01*
X86455714Y-64915714D01*
X86310571Y-64843142D01*
X86238000Y-64770571D01*
X86165428Y-64625428D01*
X86165428Y-64335142D01*
X86238000Y-64190000D01*
X86310571Y-64117428D01*
X86455714Y-64044857D01*
X86528285Y-64044857D01*
X86673428Y-64117428D01*
X86746000Y-64190000D01*
X86818571Y-64335142D01*
X86818571Y-64625428D01*
X86891142Y-64770571D01*
X86963714Y-64843142D01*
X87108857Y-64915714D01*
X87399142Y-64915714D01*
X87544285Y-64843142D01*
X87616857Y-64770571D01*
X87689428Y-64625428D01*
X87689428Y-64335142D01*
X87616857Y-64190000D01*
X87544285Y-64117428D01*
X87399142Y-64044857D01*
X87108857Y-64044857D01*
X86963714Y-64117428D01*
X86891142Y-64190000D01*
X86818571Y-64335142D01*
D12*
X120911428Y-138152261D02*
X120911428Y-138666309D01*
X120941666Y-138726785D01*
X120971904Y-138757023D01*
X121032380Y-138787261D01*
X121153333Y-138787261D01*
X121213809Y-138757023D01*
X121244047Y-138726785D01*
X121274285Y-138666309D01*
X121274285Y-138152261D01*
X121909285Y-138787261D02*
X121546428Y-138787261D01*
X121727857Y-138787261D02*
X121727857Y-138152261D01*
X121667380Y-138242976D01*
X121606904Y-138303452D01*
X121546428Y-138333690D01*
X122302380Y-138152261D02*
X122362857Y-138152261D01*
X122423333Y-138182500D01*
X122453571Y-138212738D01*
X122483809Y-138273214D01*
X122514047Y-138394166D01*
X122514047Y-138545357D01*
X122483809Y-138666309D01*
X122453571Y-138726785D01*
X122423333Y-138757023D01*
X122362857Y-138787261D01*
X122302380Y-138787261D01*
X122241904Y-138757023D01*
X122211666Y-138726785D01*
X122181428Y-138666309D01*
X122151190Y-138545357D01*
X122151190Y-138394166D01*
X122181428Y-138273214D01*
X122211666Y-138212738D01*
X122241904Y-138182500D01*
X122302380Y-138152261D01*
X122755952Y-138212738D02*
X122786190Y-138182500D01*
X122846666Y-138152261D01*
X122997857Y-138152261D01*
X123058333Y-138182500D01*
X123088571Y-138212738D01*
X123118809Y-138273214D01*
X123118809Y-138333690D01*
X123088571Y-138424404D01*
X122725714Y-138787261D01*
X123118809Y-138787261D01*
X125411428Y-128152261D02*
X125411428Y-128666309D01*
X125441666Y-128726785D01*
X125471904Y-128757023D01*
X125532380Y-128787261D01*
X125653333Y-128787261D01*
X125713809Y-128757023D01*
X125744047Y-128726785D01*
X125774285Y-128666309D01*
X125774285Y-128152261D01*
X126409285Y-128787261D02*
X126046428Y-128787261D01*
X126227857Y-128787261D02*
X126227857Y-128152261D01*
X126167380Y-128242976D01*
X126106904Y-128303452D01*
X126046428Y-128333690D01*
X126802380Y-128152261D02*
X126862857Y-128152261D01*
X126923333Y-128182500D01*
X126953571Y-128212738D01*
X126983809Y-128273214D01*
X127014047Y-128394166D01*
X127014047Y-128545357D01*
X126983809Y-128666309D01*
X126953571Y-128726785D01*
X126923333Y-128757023D01*
X126862857Y-128787261D01*
X126802380Y-128787261D01*
X126741904Y-128757023D01*
X126711666Y-128726785D01*
X126681428Y-128666309D01*
X126651190Y-128545357D01*
X126651190Y-128394166D01*
X126681428Y-128273214D01*
X126711666Y-128212738D01*
X126741904Y-128182500D01*
X126802380Y-128152261D01*
X127225714Y-128152261D02*
X127618809Y-128152261D01*
X127407142Y-128394166D01*
X127497857Y-128394166D01*
X127558333Y-128424404D01*
X127588571Y-128454642D01*
X127618809Y-128515119D01*
X127618809Y-128666309D01*
X127588571Y-128726785D01*
X127558333Y-128757023D01*
X127497857Y-128787261D01*
X127316428Y-128787261D01*
X127255952Y-128757023D01*
X127225714Y-128726785D01*
M02*
