M48
; DRILL file {KiCad (5.1.5)-3} date 30.08.2021 19:36:10
; FORMAT={-:-/ absolute / inch / decimal}
; #@! TF.CreationDate,2021-08-30T19:36:10+02:00
; #@! TF.GenerationSoftware,Kicad,Pcbnew,(5.1.5)-3
; #@! TF.FileFunction,Plated,1,2,PTH
FMAT,2
INCH
T1C0.0250
T2C0.0320
T3C0.0354
T4C0.0591
T5C0.1260
%
G90
G05
T1
X3.1732Y-3.6969
X3.3012Y-5.2795
X3.3386Y-4.3858
X3.4882Y-3.6969
X3.9567Y-5.4843
X4.0984Y-5.4803
X4.1024Y-5.6339
X4.2126Y-3.6969
X4.3189Y-5.1772
X4.4803Y-5.1102
X4.4803Y-5.2717
X4.9213Y-5.7106
X4.9606Y-5.315
X5.0413Y-5.6732
X5.0433Y-4.2913
X5.0728Y-4.9744
X5.1063Y-3.9724
X5.1299Y-4.4193
X5.1299Y-4.5709
X5.1437Y-5.4213
X5.1457Y-4.7835
X5.189Y-5.435
X5.2362Y-5.439
X5.2618Y-5.1594
X5.2776Y-5.6102
X5.2815Y-4.7185
X5.2894Y-5.4409
X5.2972Y-4.7933
X5.3248Y-5.1909
X5.3465Y-4.9724
X5.3543Y-5.7894
X5.4035Y-3.8386
X5.4173Y-4.3543
X5.4232Y-5.2657
X5.4646Y-5.7894
X5.4882Y-3.939
X5.4882Y-4.6201
X5.5039Y-4.6772
X5.5059Y-4.8681
X5.5079Y-4.2343
X5.5079Y-4.4567
X5.5098Y-4.5138
X5.5325Y-5.0492
X5.5728Y-5.5689
X5.6083Y-5.1614
X5.6457Y-5.4941
X5.6614Y-5.5689
T2
X4.6831Y-5.5957
X4.6831Y-5.6957
X3.7835Y-5.6075
X3.7835Y-5.7075
T3
X4.6925Y-2.9272
X4.6925Y-3.1272
X4.6925Y-3.3272
X4.6925Y-3.6272
X4.9925Y-2.9272
X4.9925Y-3.1272
X4.9925Y-3.3272
X4.9925Y-3.6272
X3.2752Y-4.6736
X3.2752Y-4.9736
X3.2752Y-5.1736
X3.2752Y-5.3736
X3.5752Y-4.6736
X3.5752Y-4.9736
X3.5752Y-5.1736
X3.5752Y-5.3736
X4.6925Y-4.0736
X4.6925Y-4.3736
X4.6925Y-4.5736
X4.6925Y-4.7736
X4.9925Y-4.0736
X4.9925Y-4.3736
X4.9925Y-4.5736
X4.9925Y-4.7736
X3.7476Y-4.4736
X3.7476Y-4.7736
X3.7476Y-4.9736
X3.7476Y-5.1736
X4.0476Y-4.4736
X4.0476Y-4.7736
X4.0476Y-4.9736
X4.0476Y-5.1736
X4.2201Y-4.2736
X4.2201Y-4.5736
X4.2201Y-4.7736
X4.2201Y-4.9736
X4.5201Y-4.2736
X4.5201Y-4.5736
X4.5201Y-4.7736
X4.5201Y-4.9736
X4.2201Y-2.7272
X4.2201Y-2.9272
X4.2201Y-3.1272
X4.2201Y-3.4272
X4.5201Y-2.7272
X4.5201Y-2.9272
X4.5201Y-3.1272
X4.5201Y-3.4272
X3.2752Y-2.3272
X3.2752Y-2.5272
X3.2752Y-2.7272
X3.2752Y-3.0272
X3.5752Y-2.3272
X3.5752Y-2.5272
X3.5752Y-2.7272
X3.5752Y-3.0272
X3.7476Y-2.5272
X3.7476Y-2.7272
X3.7476Y-2.9272
X3.7476Y-3.2272
X4.0476Y-2.5272
X4.0476Y-2.7272
X4.0476Y-2.9272
X4.0476Y-3.2272
X5.6921Y-5.1815
X5.6921Y-5.2815
X5.6921Y-5.3815
X5.7921Y-5.1815
X5.7921Y-5.2815
X5.7921Y-5.3815
T4
X2.9015Y-2.7205
X2.9015Y-2.9173
X2.9015Y-3.1142
X2.9015Y-3.311
X2.9015Y-3.5079
X2.9015Y-3.7047
X2.9015Y-3.9016
X2.9015Y-4.0984
X2.9015Y-4.2953
X2.9015Y-4.4921
X2.9015Y-4.689
X2.9015Y-4.8858
X2.9015Y-5.0827
X2.9015Y-5.2795
X2.9015Y-5.4764
X2.9016Y-2.5236
X3.0Y-2.6221
X3.0Y-2.8189
X3.0Y-3.0158
X3.0Y-3.2126
X3.0Y-3.4095
X3.0Y-3.6063
X3.0Y-3.8032
X3.0Y-4.0
X3.0Y-4.1969
X3.0Y-4.3937
X3.0Y-4.5906
X3.0Y-4.7874
X3.0Y-4.9843
X3.0Y-5.1811
X3.0Y-5.378
T5
X2.8031Y-2.3268
X2.8031Y-5.6733
T0
M30
