G04 #@! TF.GenerationSoftware,KiCad,Pcbnew,(5.1.5)-3*
G04 #@! TF.CreationDate,2021-08-30T19:36:05+02:00*
G04 #@! TF.ProjectId,fsu,6673752e-6b69-4636-9164-5f7063625858,0431 -*
G04 #@! TF.SameCoordinates,Original*
G04 #@! TF.FileFunction,Soldermask,Top*
G04 #@! TF.FilePolarity,Negative*
%FSLAX46Y46*%
G04 Gerber Fmt 4.6, Leading zero omitted, Abs format (unit mm)*
G04 Created by KiCad (PCBNEW (5.1.5)-3) date 2021-08-30 19:36:05*
%MOMM*%
%LPD*%
G04 APERTURE LIST*
%ADD10C,4.008120*%
%ADD11C,2.707640*%
%ADD12R,2.311400X2.108200*%
%ADD13C,2.159000*%
%ADD14R,2.159000X2.159000*%
%ADD15R,1.397000X1.905000*%
%ADD16R,1.651000X1.016000*%
%ADD17R,3.556000X2.159000*%
%ADD18R,6.604000X6.604000*%
%ADD19C,2.286000*%
%ADD20R,1.905000X1.397000*%
%ADD21R,2.032000X2.032000*%
%ADD22C,2.032000*%
%ADD23R,1.422400X1.422400*%
%ADD24R,2.032000X0.914400*%
%ADD25R,0.914400X2.032000*%
G04 APERTURE END LIST*
D10*
X71198740Y-59100720D03*
D11*
X76200000Y-101600000D03*
X76200000Y-106601260D03*
X76200000Y-116601240D03*
X76200000Y-111599980D03*
X76200000Y-131599940D03*
X76200000Y-136601200D03*
X76200000Y-126601220D03*
X76200000Y-121599960D03*
X76200000Y-81600040D03*
X76200000Y-86601300D03*
X76200000Y-96601280D03*
X76200000Y-91600020D03*
X76200000Y-71600060D03*
X76200000Y-76601320D03*
X76200000Y-66601340D03*
X73698100Y-69100700D03*
X73698100Y-79100680D03*
X73698100Y-74099420D03*
X73698100Y-94099380D03*
X73698100Y-99100640D03*
X73698100Y-89100660D03*
X73698100Y-84099400D03*
X73698100Y-124099320D03*
X73698100Y-129100580D03*
X73698100Y-139100560D03*
X73698100Y-134099300D03*
X73698100Y-114099340D03*
X73698100Y-119100600D03*
X73698100Y-109100620D03*
X73698100Y-104099360D03*
X73700640Y-64099440D03*
D10*
X71198740Y-144101820D03*
D12*
X125000000Y-140206000D03*
X125000000Y-143000000D03*
D13*
X118950000Y-144670000D03*
D14*
X118950000Y-142130000D03*
D15*
X135702500Y-97500000D03*
X133797500Y-97500000D03*
D16*
X137490000Y-112240000D03*
X137490000Y-113510000D03*
X137490000Y-114780000D03*
X137490000Y-116050000D03*
X137490000Y-117320000D03*
X137490000Y-118590000D03*
X137490000Y-119860000D03*
X132156000Y-119860000D03*
X132156000Y-118590000D03*
X132156000Y-117320000D03*
X132156000Y-116050000D03*
X132156000Y-114780000D03*
X132156000Y-113510000D03*
X132156000Y-112240000D03*
D17*
X104150000Y-145786000D03*
D18*
X110500000Y-143500000D03*
D17*
X104150000Y-141214000D03*
D19*
X119190000Y-103470000D03*
X126810000Y-103470000D03*
X119190000Y-111090000D03*
X119190000Y-116170000D03*
X119190000Y-121250000D03*
X126810000Y-111090000D03*
X126810000Y-116170000D03*
X126810000Y-121250000D03*
D16*
X132260000Y-100105000D03*
X132260000Y-101375000D03*
X132260000Y-102645000D03*
X132260000Y-103915000D03*
X132260000Y-105185000D03*
X132260000Y-106455000D03*
X132260000Y-107725000D03*
X132260000Y-108995000D03*
X137340000Y-108995000D03*
X137340000Y-107725000D03*
X137340000Y-106455000D03*
X137340000Y-105185000D03*
X137340000Y-103915000D03*
X137340000Y-102645000D03*
X137340000Y-101375000D03*
X137340000Y-100105000D03*
D19*
X119190000Y-74350000D03*
X119190000Y-79430000D03*
X119190000Y-84510000D03*
X126810000Y-74350000D03*
X126810000Y-79430000D03*
X126810000Y-84510000D03*
X119190000Y-92130000D03*
X126810000Y-92130000D03*
X83190000Y-118710000D03*
X90810000Y-118710000D03*
X83190000Y-126330000D03*
X83190000Y-131410000D03*
X83190000Y-136490000D03*
X90810000Y-126330000D03*
X90810000Y-131410000D03*
X90810000Y-136490000D03*
D20*
X109750000Y-134950000D03*
X109750000Y-133045000D03*
X139900000Y-111305000D03*
X139900000Y-109400000D03*
X100500000Y-143305000D03*
X100500000Y-141400000D03*
D14*
X96100000Y-144970000D03*
D13*
X96100000Y-142430000D03*
D15*
X143850000Y-128250000D03*
X141945000Y-128250000D03*
D20*
X128050000Y-142250000D03*
X128050000Y-140345000D03*
X136000000Y-143300000D03*
X136000000Y-145205000D03*
X134550000Y-123150000D03*
X134550000Y-125055000D03*
D21*
X147120000Y-136690000D03*
D22*
X144580000Y-136690000D03*
X147120000Y-134150000D03*
X144580000Y-134150000D03*
X147120000Y-131610000D03*
X144580000Y-131610000D03*
D20*
X132100000Y-123200000D03*
X132100000Y-125105000D03*
D23*
X143811000Y-143168000D03*
X145589000Y-143168000D03*
X144700000Y-145200000D03*
D20*
X129950000Y-107950000D03*
X129950000Y-109855000D03*
X141550000Y-145255000D03*
X141550000Y-143350000D03*
X147900000Y-143295000D03*
X147900000Y-145200000D03*
X138800000Y-145300000D03*
X138800000Y-143395000D03*
X137050000Y-125050000D03*
X137050000Y-123145000D03*
D19*
X95190000Y-113630000D03*
X102810000Y-113630000D03*
X95190000Y-121250000D03*
X95190000Y-126330000D03*
X95190000Y-131410000D03*
X102810000Y-121250000D03*
X102810000Y-126330000D03*
X102810000Y-131410000D03*
X114810000Y-126330000D03*
X114810000Y-121250000D03*
X114810000Y-116170000D03*
X107190000Y-126330000D03*
X107190000Y-121250000D03*
X107190000Y-116170000D03*
X114810000Y-108550000D03*
X107190000Y-108550000D03*
X114810000Y-87050000D03*
X107190000Y-87050000D03*
X114810000Y-79430000D03*
X114810000Y-74350000D03*
X114810000Y-69270000D03*
X107190000Y-79430000D03*
X107190000Y-74350000D03*
X107190000Y-69270000D03*
X102810000Y-81970000D03*
X95190000Y-81970000D03*
X102810000Y-74350000D03*
X102810000Y-69270000D03*
X102810000Y-64190000D03*
X95190000Y-74350000D03*
X95190000Y-69270000D03*
X95190000Y-64190000D03*
X83190000Y-59110000D03*
X83190000Y-64190000D03*
X83190000Y-69270000D03*
X90810000Y-59110000D03*
X90810000Y-64190000D03*
X90810000Y-69270000D03*
X83190000Y-76890000D03*
X90810000Y-76890000D03*
D17*
X113800000Y-131914000D03*
D18*
X120150000Y-134200000D03*
D17*
X113800000Y-136486000D03*
D24*
X128735000Y-130349500D03*
X140165000Y-130349500D03*
X140165000Y-131149600D03*
X128735000Y-131149600D03*
X128735000Y-131949700D03*
X140165000Y-131949700D03*
X140165000Y-132749800D03*
X128735000Y-132749800D03*
X128735000Y-133549900D03*
X140165000Y-133549900D03*
X140165000Y-138350500D03*
X128735000Y-138350500D03*
X128735000Y-137550400D03*
X140165000Y-137550400D03*
X140165000Y-136750300D03*
X128735000Y-136750300D03*
X128735000Y-135950200D03*
X140165000Y-135950200D03*
X140165000Y-135150100D03*
X128735000Y-135150100D03*
X140165000Y-134350000D03*
X128735000Y-134350000D03*
D25*
X138450500Y-140065000D03*
X137650400Y-140065000D03*
X136850300Y-140065000D03*
X136050200Y-140065000D03*
X135250100Y-140065000D03*
X130449500Y-140065000D03*
X131249600Y-140065000D03*
X132049700Y-140065000D03*
X132849800Y-140065000D03*
X133649900Y-140065000D03*
X134450000Y-140065000D03*
X138450500Y-128635000D03*
X137650400Y-128635000D03*
X136850300Y-128635000D03*
X136050200Y-128635000D03*
X135250100Y-128635000D03*
X130449500Y-128635000D03*
X131249600Y-128635000D03*
X132049700Y-128635000D03*
X132849800Y-128635000D03*
X133649900Y-128635000D03*
X134450000Y-128635000D03*
M02*
