G04 #@! TF.GenerationSoftware,KiCad,Pcbnew,(5.1.5)-3*
G04 #@! TF.CreationDate,2021-08-30T19:36:05+02:00*
G04 #@! TF.ProjectId,fsu,6673752e-6b69-4636-9164-5f7063625858,0431 -*
G04 #@! TF.SameCoordinates,Original*
G04 #@! TF.FileFunction,Soldermask,Bot*
G04 #@! TF.FilePolarity,Negative*
%FSLAX46Y46*%
G04 Gerber Fmt 4.6, Leading zero omitted, Abs format (unit mm)*
G04 Created by KiCad (PCBNEW (5.1.5)-3) date 2021-08-30 19:36:05*
%MOMM*%
%LPD*%
G04 APERTURE LIST*
%ADD10C,4.008120*%
%ADD11C,2.707640*%
%ADD12C,2.159000*%
%ADD13R,2.159000X2.159000*%
%ADD14C,2.286000*%
%ADD15R,2.032000X2.032000*%
%ADD16C,2.032000*%
G04 APERTURE END LIST*
D10*
X71198740Y-59100720D03*
D11*
X76200000Y-101600000D03*
X76200000Y-106601260D03*
X76200000Y-116601240D03*
X76200000Y-111599980D03*
X76200000Y-131599940D03*
X76200000Y-136601200D03*
X76200000Y-126601220D03*
X76200000Y-121599960D03*
X76200000Y-81600040D03*
X76200000Y-86601300D03*
X76200000Y-96601280D03*
X76200000Y-91600020D03*
X76200000Y-71600060D03*
X76200000Y-76601320D03*
X76200000Y-66601340D03*
X73698100Y-69100700D03*
X73698100Y-79100680D03*
X73698100Y-74099420D03*
X73698100Y-94099380D03*
X73698100Y-99100640D03*
X73698100Y-89100660D03*
X73698100Y-84099400D03*
X73698100Y-124099320D03*
X73698100Y-129100580D03*
X73698100Y-139100560D03*
X73698100Y-134099300D03*
X73698100Y-114099340D03*
X73698100Y-119100600D03*
X73698100Y-109100620D03*
X73698100Y-104099360D03*
X73700640Y-64099440D03*
D10*
X71198740Y-144101820D03*
D12*
X118950000Y-144670000D03*
D13*
X118950000Y-142130000D03*
D14*
X119190000Y-103470000D03*
X126810000Y-103470000D03*
X119190000Y-111090000D03*
X119190000Y-116170000D03*
X119190000Y-121250000D03*
X126810000Y-111090000D03*
X126810000Y-116170000D03*
X126810000Y-121250000D03*
X119190000Y-74350000D03*
X119190000Y-79430000D03*
X119190000Y-84510000D03*
X126810000Y-74350000D03*
X126810000Y-79430000D03*
X126810000Y-84510000D03*
X119190000Y-92130000D03*
X126810000Y-92130000D03*
X83190000Y-118710000D03*
X90810000Y-118710000D03*
X83190000Y-126330000D03*
X83190000Y-131410000D03*
X83190000Y-136490000D03*
X90810000Y-126330000D03*
X90810000Y-131410000D03*
X90810000Y-136490000D03*
D13*
X96100000Y-144970000D03*
D12*
X96100000Y-142430000D03*
D15*
X147120000Y-136690000D03*
D16*
X144580000Y-136690000D03*
X147120000Y-134150000D03*
X144580000Y-134150000D03*
X147120000Y-131610000D03*
X144580000Y-131610000D03*
D14*
X95190000Y-113630000D03*
X102810000Y-113630000D03*
X95190000Y-121250000D03*
X95190000Y-126330000D03*
X95190000Y-131410000D03*
X102810000Y-121250000D03*
X102810000Y-126330000D03*
X102810000Y-131410000D03*
X114810000Y-126330000D03*
X114810000Y-121250000D03*
X114810000Y-116170000D03*
X107190000Y-126330000D03*
X107190000Y-121250000D03*
X107190000Y-116170000D03*
X114810000Y-108550000D03*
X107190000Y-108550000D03*
X114810000Y-87050000D03*
X107190000Y-87050000D03*
X114810000Y-79430000D03*
X114810000Y-74350000D03*
X114810000Y-69270000D03*
X107190000Y-79430000D03*
X107190000Y-74350000D03*
X107190000Y-69270000D03*
X102810000Y-81970000D03*
X95190000Y-81970000D03*
X102810000Y-74350000D03*
X102810000Y-69270000D03*
X102810000Y-64190000D03*
X95190000Y-74350000D03*
X95190000Y-69270000D03*
X95190000Y-64190000D03*
X83190000Y-59110000D03*
X83190000Y-64190000D03*
X83190000Y-69270000D03*
X90810000Y-59110000D03*
X90810000Y-64190000D03*
X90810000Y-69270000D03*
X83190000Y-76890000D03*
X90810000Y-76890000D03*
M02*
