G04 #@! TF.GenerationSoftware,KiCad,Pcbnew,(5.1.5)-3*
G04 #@! TF.CreationDate,2021-08-30T19:37:19+02:00*
G04 #@! TF.ProjectId,fsz,66737a2e-6b69-4636-9164-5f7063625858,0427 -*
G04 #@! TF.SameCoordinates,Original*
G04 #@! TF.FileFunction,Soldermask,Bot*
G04 #@! TF.FilePolarity,Negative*
%FSLAX46Y46*%
G04 Gerber Fmt 4.6, Leading zero omitted, Abs format (unit mm)*
G04 Created by KiCad (PCBNEW (5.1.5)-3) date 2021-08-30 19:37:19*
%MOMM*%
%LPD*%
G04 APERTURE LIST*
%ADD10R,1.397000X1.905000*%
%ADD11R,2.159000X2.159000*%
%ADD12C,2.159000*%
%ADD13R,2.311400X2.108200*%
%ADD14C,4.008120*%
%ADD15C,2.707640*%
%ADD16C,2.286000*%
%ADD17R,6.507480X2.506980*%
%ADD18R,2.032000X2.032000*%
%ADD19C,2.032000*%
%ADD20C,1.905000*%
%ADD21R,1.905000X1.905000*%
G04 APERTURE END LIST*
D10*
X146240500Y-144907000D03*
X148145500Y-144907000D03*
D11*
X140208000Y-142113000D03*
D12*
X140208000Y-139573000D03*
D13*
X153289000Y-142240000D03*
X153289000Y-139446000D03*
D14*
X71198740Y-144101820D03*
D15*
X73700640Y-64099440D03*
X73698100Y-104099360D03*
X73698100Y-109100620D03*
X73698100Y-119100600D03*
X73698100Y-114099340D03*
X73698100Y-134099300D03*
X73698100Y-139100560D03*
X73698100Y-129100580D03*
X73698100Y-124099320D03*
X73698100Y-84099400D03*
X73698100Y-89100660D03*
X73698100Y-99100640D03*
X73698100Y-94099380D03*
X73698100Y-74099420D03*
X73698100Y-79100680D03*
X73698100Y-69100700D03*
X76200000Y-66601340D03*
X76200000Y-76601320D03*
X76200000Y-71600060D03*
X76200000Y-91600020D03*
X76200000Y-96601280D03*
X76200000Y-86601300D03*
X76200000Y-81600040D03*
X76200000Y-121599960D03*
X76200000Y-126601220D03*
X76200000Y-136601200D03*
X76200000Y-131599940D03*
X76200000Y-111599980D03*
X76200000Y-116601240D03*
X76200000Y-106601260D03*
X76200000Y-101600000D03*
D14*
X71198740Y-59100720D03*
D16*
X161719260Y-139100560D03*
D17*
X161218880Y-136601200D03*
D16*
X161719260Y-134099300D03*
D17*
X161218880Y-131599940D03*
D16*
X161719260Y-129100580D03*
D17*
X161218880Y-126601220D03*
D16*
X161719260Y-124099320D03*
D17*
X161218880Y-121599960D03*
D16*
X161719260Y-119100600D03*
D17*
X161218880Y-116601240D03*
D16*
X161719260Y-114099340D03*
D17*
X161218880Y-111599980D03*
D16*
X161719260Y-109100620D03*
D17*
X161218880Y-106601260D03*
D16*
X161719260Y-104099360D03*
D17*
X161218880Y-101600000D03*
D16*
X161719260Y-99100640D03*
D17*
X161218880Y-96601280D03*
D16*
X161719260Y-94099380D03*
D17*
X161218880Y-91600020D03*
D16*
X161719260Y-89100660D03*
D17*
X161218880Y-86601300D03*
D16*
X161719260Y-84099400D03*
D17*
X161218880Y-81600040D03*
D16*
X161719260Y-79100680D03*
D17*
X161218880Y-76601320D03*
D16*
X161719260Y-74099420D03*
D17*
X161218880Y-71600060D03*
D16*
X161719260Y-69100700D03*
D17*
X161218880Y-66601340D03*
D16*
X161719260Y-64099440D03*
D18*
X149606000Y-118110000D03*
D19*
X152146000Y-118110000D03*
X149606000Y-120650000D03*
X152146000Y-120650000D03*
X149606000Y-123190000D03*
X152146000Y-123190000D03*
X137160000Y-107696000D03*
X134620000Y-107696000D03*
X137160000Y-105156000D03*
X134620000Y-105156000D03*
X137160000Y-102616000D03*
D18*
X134620000Y-102616000D03*
X134620000Y-111760000D03*
D19*
X137160000Y-111760000D03*
X134620000Y-114300000D03*
X137160000Y-114300000D03*
X134620000Y-116840000D03*
X137160000Y-116840000D03*
D16*
X123890000Y-133490000D03*
X118810000Y-133490000D03*
X113730000Y-133490000D03*
X123890000Y-141110000D03*
X118810000Y-141110000D03*
X113730000Y-141110000D03*
X106110000Y-133490000D03*
X106110000Y-141110000D03*
X84110000Y-141110000D03*
X89190000Y-141110000D03*
X94270000Y-141110000D03*
X84110000Y-133490000D03*
X89190000Y-133490000D03*
X94270000Y-133490000D03*
X101890000Y-141110000D03*
X101890000Y-133490000D03*
X101890000Y-121490000D03*
X101890000Y-129110000D03*
X94270000Y-121490000D03*
X89190000Y-121490000D03*
X84110000Y-121490000D03*
X94270000Y-129110000D03*
X89190000Y-129110000D03*
X84110000Y-129110000D03*
X101890000Y-109490000D03*
X101890000Y-117110000D03*
X94270000Y-109490000D03*
X89190000Y-109490000D03*
X84110000Y-109490000D03*
X94270000Y-117110000D03*
X89190000Y-117110000D03*
X84110000Y-117110000D03*
X123890000Y-109490000D03*
X118810000Y-109490000D03*
X113730000Y-109490000D03*
X123890000Y-117110000D03*
X118810000Y-117110000D03*
X113730000Y-117110000D03*
X106110000Y-109490000D03*
X106110000Y-117110000D03*
X101890000Y-97490000D03*
X101890000Y-105110000D03*
X94270000Y-97490000D03*
X89190000Y-97490000D03*
X84110000Y-97490000D03*
X94270000Y-105110000D03*
X89190000Y-105110000D03*
X84110000Y-105110000D03*
X106110000Y-105110000D03*
X106110000Y-97490000D03*
X113730000Y-105110000D03*
X118810000Y-105110000D03*
X123890000Y-105110000D03*
X113730000Y-97490000D03*
X118810000Y-97490000D03*
X123890000Y-97490000D03*
X123890000Y-121490000D03*
X118810000Y-121490000D03*
X113730000Y-121490000D03*
X123890000Y-129110000D03*
X118810000Y-129110000D03*
X113730000Y-129110000D03*
X106110000Y-121490000D03*
X106110000Y-129110000D03*
X84110000Y-93110000D03*
X89190000Y-93110000D03*
X94270000Y-93110000D03*
X84110000Y-85490000D03*
X89190000Y-85490000D03*
X94270000Y-85490000D03*
X101890000Y-93110000D03*
X101890000Y-85490000D03*
X106110000Y-93110000D03*
X106110000Y-85490000D03*
X113730000Y-93110000D03*
X118810000Y-93110000D03*
X123890000Y-93110000D03*
X113730000Y-85490000D03*
X118810000Y-85490000D03*
X123890000Y-85490000D03*
X152810000Y-77090000D03*
X145190000Y-77090000D03*
X152810000Y-69470000D03*
X152810000Y-64390000D03*
X152810000Y-59310000D03*
X145190000Y-69470000D03*
X145190000Y-64390000D03*
X145190000Y-59310000D03*
X140210000Y-77090000D03*
X132590000Y-77090000D03*
X140210000Y-69470000D03*
X140210000Y-64390000D03*
X140210000Y-59310000D03*
X132590000Y-69470000D03*
X132590000Y-64390000D03*
X132590000Y-59310000D03*
X84110000Y-77110000D03*
X89190000Y-77110000D03*
X94270000Y-77110000D03*
X84110000Y-69490000D03*
X89190000Y-69490000D03*
X94270000Y-69490000D03*
X101890000Y-77110000D03*
X101890000Y-69490000D03*
X106110000Y-77110000D03*
X106110000Y-69490000D03*
X113730000Y-77110000D03*
X118810000Y-77110000D03*
X123890000Y-77110000D03*
X113730000Y-69490000D03*
X118810000Y-69490000D03*
X123890000Y-69490000D03*
X84110000Y-65110000D03*
X89190000Y-65110000D03*
X94270000Y-65110000D03*
X84110000Y-57490000D03*
X89190000Y-57490000D03*
X94270000Y-57490000D03*
X101890000Y-65110000D03*
X101890000Y-57490000D03*
X123890000Y-57490000D03*
X118810000Y-57490000D03*
X113730000Y-57490000D03*
X123890000Y-65110000D03*
X118810000Y-65110000D03*
X113730000Y-65110000D03*
X106110000Y-57490000D03*
X106110000Y-65110000D03*
D20*
X145669000Y-142113000D03*
D21*
X148209000Y-142113000D03*
D20*
X148209000Y-139573000D03*
M02*
