G04 #@! TF.GenerationSoftware,KiCad,Pcbnew,(5.1.5)-3*
G04 #@! TF.CreationDate,2021-08-30T19:37:19+02:00*
G04 #@! TF.ProjectId,fsz,66737a2e-6b69-4636-9164-5f7063625858,0427 -*
G04 #@! TF.SameCoordinates,Original*
G04 #@! TF.FileFunction,Legend,Bot*
G04 #@! TF.FilePolarity,Positive*
%FSLAX46Y46*%
G04 Gerber Fmt 4.6, Leading zero omitted, Abs format (unit mm)*
G04 Created by KiCad (PCBNEW (5.1.5)-3) date 2021-08-30 19:37:19*
%MOMM*%
%LPD*%
G04 APERTURE LIST*
%ADD10C,0.381000*%
%ADD11C,0.127000*%
%ADD12C,0.119380*%
G04 APERTURE END LIST*
D10*
X66294000Y-51511000D02*
X66294000Y-151511000D01*
X164846000Y-51511000D02*
X66294000Y-51511000D01*
X164846000Y-151511000D02*
X66294000Y-151511000D01*
X164846000Y-51511000D02*
X164846000Y-151511000D01*
D11*
X147320000Y-144907000D02*
X147701000Y-144907000D01*
X147320000Y-145288000D02*
X147320000Y-144526000D01*
X146685000Y-144907000D02*
X147066000Y-144907000D01*
X147066000Y-144907000D02*
X147066000Y-145288000D01*
X147066000Y-145288000D02*
X147066000Y-144526000D01*
X153670000Y-140970000D02*
X152908000Y-140970000D01*
X153289000Y-140970000D02*
X153670000Y-140970000D01*
X153289000Y-141351000D02*
X153289000Y-140970000D01*
X153670000Y-140716000D02*
X152908000Y-140716000D01*
X153289000Y-140716000D02*
X153289000Y-140335000D01*
X153543000Y-137922000D02*
X153035000Y-137922000D01*
X153289000Y-138176000D02*
X153289000Y-137668000D01*
X151078595Y-145260785D02*
X151108833Y-145291023D01*
X151199547Y-145321261D01*
X151260023Y-145321261D01*
X151350738Y-145291023D01*
X151411214Y-145230547D01*
X151441452Y-145170071D01*
X151471690Y-145049119D01*
X151471690Y-144958404D01*
X151441452Y-144837452D01*
X151411214Y-144776976D01*
X151350738Y-144716500D01*
X151260023Y-144686261D01*
X151199547Y-144686261D01*
X151108833Y-144716500D01*
X151078595Y-144746738D01*
X150473833Y-145321261D02*
X150836690Y-145321261D01*
X150655261Y-145321261D02*
X150655261Y-144686261D01*
X150715738Y-144776976D01*
X150776214Y-144837452D01*
X150836690Y-144867690D01*
X150080738Y-144686261D02*
X150020261Y-144686261D01*
X149959785Y-144716500D01*
X149929547Y-144746738D01*
X149899309Y-144807214D01*
X149869071Y-144928166D01*
X149869071Y-145079357D01*
X149899309Y-145200309D01*
X149929547Y-145260785D01*
X149959785Y-145291023D01*
X150020261Y-145321261D01*
X150080738Y-145321261D01*
X150141214Y-145291023D01*
X150171452Y-145260785D01*
X150201690Y-145200309D01*
X150231928Y-145079357D01*
X150231928Y-144928166D01*
X150201690Y-144807214D01*
X150171452Y-144746738D01*
X150141214Y-144716500D01*
X150080738Y-144686261D01*
X149657404Y-144686261D02*
X149264309Y-144686261D01*
X149475976Y-144928166D01*
X149385261Y-144928166D01*
X149324785Y-144958404D01*
X149294547Y-144988642D01*
X149264309Y-145049119D01*
X149264309Y-145200309D01*
X149294547Y-145260785D01*
X149324785Y-145291023D01*
X149385261Y-145321261D01*
X149566690Y-145321261D01*
X149627166Y-145291023D01*
X149657404Y-145260785D01*
D12*
X153467707Y-144093050D02*
X153491534Y-144069223D01*
X153515362Y-143997740D01*
X153515362Y-143950085D01*
X153491534Y-143878602D01*
X153443879Y-143830947D01*
X153396224Y-143807119D01*
X153300913Y-143783291D01*
X153229430Y-143783291D01*
X153134120Y-143807119D01*
X153086465Y-143830947D01*
X153038810Y-143878602D01*
X153014982Y-143950085D01*
X153014982Y-143997740D01*
X153038810Y-144069223D01*
X153062637Y-144093050D01*
X153515362Y-144569603D02*
X153515362Y-144283671D01*
X153515362Y-144426637D02*
X153014982Y-144426637D01*
X153086465Y-144378982D01*
X153134120Y-144331327D01*
X153157948Y-144283671D01*
X153014982Y-144879362D02*
X153014982Y-144927017D01*
X153038810Y-144974672D01*
X153062637Y-144998500D01*
X153110292Y-145022328D01*
X153205603Y-145046155D01*
X153324741Y-145046155D01*
X153420051Y-145022328D01*
X153467707Y-144998500D01*
X153491534Y-144974672D01*
X153515362Y-144927017D01*
X153515362Y-144879362D01*
X153491534Y-144831707D01*
X153467707Y-144807879D01*
X153420051Y-144784051D01*
X153324741Y-144760224D01*
X153205603Y-144760224D01*
X153110292Y-144784051D01*
X153062637Y-144807879D01*
X153038810Y-144831707D01*
X153014982Y-144879362D01*
X153014982Y-145498880D02*
X153014982Y-145260604D01*
X153253258Y-145236776D01*
X153229430Y-145260604D01*
X153205603Y-145308259D01*
X153205603Y-145427397D01*
X153229430Y-145475052D01*
X153253258Y-145498880D01*
X153300913Y-145522708D01*
X153420051Y-145522708D01*
X153467707Y-145498880D01*
X153491534Y-145475052D01*
X153515362Y-145427397D01*
X153515362Y-145308259D01*
X153491534Y-145260604D01*
X153467707Y-145236776D01*
M02*
