G04 #@! TF.GenerationSoftware,KiCad,Pcbnew,(5.1.5)-3*
G04 #@! TF.CreationDate,2021-08-30T19:37:19+02:00*
G04 #@! TF.ProjectId,fsz,66737a2e-6b69-4636-9164-5f7063625858,0427 -*
G04 #@! TF.SameCoordinates,Original*
G04 #@! TF.FileFunction,Legend,Top*
G04 #@! TF.FilePolarity,Positive*
%FSLAX46Y46*%
G04 Gerber Fmt 4.6, Leading zero omitted, Abs format (unit mm)*
G04 Created by KiCad (PCBNEW (5.1.5)-3) date 2021-08-30 19:37:19*
%MOMM*%
%LPD*%
G04 APERTURE LIST*
%ADD10C,0.304800*%
%ADD11C,0.127000*%
%ADD12C,0.203200*%
%ADD13C,0.381000*%
%ADD14C,0.254000*%
%ADD15C,0.152400*%
%ADD16C,0.190500*%
G04 APERTURE END LIST*
D10*
X68688857Y-150779238D02*
X68688857Y-148747238D01*
X69196857Y-150198666D01*
X69704857Y-148747238D01*
X69704857Y-150779238D01*
X70212857Y-148747238D02*
X70720857Y-150779238D01*
X71228857Y-148747238D01*
X150694571Y-55595761D02*
X150767142Y-55499000D01*
X150912285Y-55402238D01*
X151275142Y-55402238D01*
X151420285Y-55499000D01*
X151492857Y-55595761D01*
X151565428Y-55789285D01*
X151565428Y-55982809D01*
X151492857Y-56273095D01*
X150622000Y-57434238D01*
X151565428Y-57434238D01*
X152508857Y-55402238D02*
X152654000Y-55402238D01*
X152799142Y-55499000D01*
X152871714Y-55595761D01*
X152944285Y-55789285D01*
X153016857Y-56176333D01*
X153016857Y-56660142D01*
X152944285Y-57047190D01*
X152871714Y-57240714D01*
X152799142Y-57337476D01*
X152654000Y-57434238D01*
X152508857Y-57434238D01*
X152363714Y-57337476D01*
X152291142Y-57240714D01*
X152218571Y-57047190D01*
X152146000Y-56660142D01*
X152146000Y-56176333D01*
X152218571Y-55789285D01*
X152291142Y-55595761D01*
X152363714Y-55499000D01*
X152508857Y-55402238D01*
X154468285Y-57434238D02*
X153597428Y-57434238D01*
X154032857Y-57434238D02*
X154032857Y-55402238D01*
X153887714Y-55692523D01*
X153742571Y-55886047D01*
X153597428Y-55982809D01*
X155847142Y-55402238D02*
X155121428Y-55402238D01*
X155048857Y-56369857D01*
X155121428Y-56273095D01*
X155266571Y-56176333D01*
X155629428Y-56176333D01*
X155774571Y-56273095D01*
X155847142Y-56369857D01*
X155919714Y-56563380D01*
X155919714Y-57047190D01*
X155847142Y-57240714D01*
X155774571Y-57337476D01*
X155629428Y-57434238D01*
X155266571Y-57434238D01*
X155121428Y-57337476D01*
X155048857Y-57240714D01*
X156863142Y-55402238D02*
X157008285Y-55402238D01*
X157153428Y-55499000D01*
X157226000Y-55595761D01*
X157298571Y-55789285D01*
X157371142Y-56176333D01*
X157371142Y-56660142D01*
X157298571Y-57047190D01*
X157226000Y-57240714D01*
X157153428Y-57337476D01*
X157008285Y-57434238D01*
X156863142Y-57434238D01*
X156718000Y-57337476D01*
X156645428Y-57240714D01*
X156572857Y-57047190D01*
X156500285Y-56660142D01*
X156500285Y-56176333D01*
X156572857Y-55789285D01*
X156645428Y-55595761D01*
X156718000Y-55499000D01*
X156863142Y-55402238D01*
X157951714Y-55595761D02*
X158024285Y-55499000D01*
X158169428Y-55402238D01*
X158532285Y-55402238D01*
X158677428Y-55499000D01*
X158750000Y-55595761D01*
X158822571Y-55789285D01*
X158822571Y-55982809D01*
X158750000Y-56273095D01*
X157879142Y-57434238D01*
X158822571Y-57434238D01*
X159403142Y-55595761D02*
X159475714Y-55499000D01*
X159620857Y-55402238D01*
X159983714Y-55402238D01*
X160128857Y-55499000D01*
X160201428Y-55595761D01*
X160274000Y-55789285D01*
X160274000Y-55982809D01*
X160201428Y-56273095D01*
X159330571Y-57434238D01*
X160274000Y-57434238D01*
X161652857Y-55402238D02*
X160927142Y-55402238D01*
X160854571Y-56369857D01*
X160927142Y-56273095D01*
X161072285Y-56176333D01*
X161435142Y-56176333D01*
X161580285Y-56273095D01*
X161652857Y-56369857D01*
X161725428Y-56563380D01*
X161725428Y-57047190D01*
X161652857Y-57240714D01*
X161580285Y-57337476D01*
X161435142Y-57434238D01*
X161072285Y-57434238D01*
X160927142Y-57337476D01*
X160854571Y-57240714D01*
X142276285Y-56369857D02*
X141768285Y-56369857D01*
X141768285Y-57434238D02*
X141768285Y-55402238D01*
X142494000Y-55402238D01*
X143002000Y-57337476D02*
X143219714Y-57434238D01*
X143582571Y-57434238D01*
X143727714Y-57337476D01*
X143800285Y-57240714D01*
X143872857Y-57047190D01*
X143872857Y-56853666D01*
X143800285Y-56660142D01*
X143727714Y-56563380D01*
X143582571Y-56466619D01*
X143292285Y-56369857D01*
X143147142Y-56273095D01*
X143074571Y-56176333D01*
X143002000Y-55982809D01*
X143002000Y-55789285D01*
X143074571Y-55595761D01*
X143147142Y-55499000D01*
X143292285Y-55402238D01*
X143655142Y-55402238D01*
X143872857Y-55499000D01*
X144380857Y-55402238D02*
X145396857Y-55402238D01*
X144380857Y-57434238D01*
X145396857Y-57434238D01*
D11*
X139446000Y-124587000D02*
X139446000Y-124968000D01*
X139827000Y-124587000D02*
X139065000Y-124587000D01*
X139446000Y-123952000D02*
X139446000Y-124333000D01*
X139446000Y-124333000D02*
X139827000Y-124333000D01*
X139827000Y-124333000D02*
X139065000Y-124333000D01*
X130048000Y-90170000D02*
X130048000Y-89789000D01*
X129667000Y-90170000D02*
X130429000Y-90170000D01*
X130048000Y-90805000D02*
X130048000Y-90424000D01*
X130048000Y-90424000D02*
X129667000Y-90424000D01*
X129667000Y-90424000D02*
X130429000Y-90424000D01*
D12*
X143256000Y-140843000D02*
G75*
G03X143256000Y-140843000I-3048000J0D01*
G01*
D11*
X146304000Y-93091000D02*
X146304000Y-93599000D01*
X146558000Y-93345000D02*
X146050000Y-93345000D01*
X146304000Y-90551000D02*
X146304000Y-90932000D01*
X146685000Y-90551000D02*
X145923000Y-90551000D01*
X146304000Y-89916000D02*
X146304000Y-90297000D01*
X146304000Y-90297000D02*
X146685000Y-90297000D01*
X146685000Y-90297000D02*
X145923000Y-90297000D01*
X147193000Y-97155000D02*
X147955000Y-97155000D01*
X147574000Y-97155000D02*
X147193000Y-97155000D01*
X147574000Y-97536000D02*
X147574000Y-97155000D01*
X147193000Y-96901000D02*
X147955000Y-96901000D01*
X147574000Y-96901000D02*
X147574000Y-96520000D01*
X140335000Y-111379000D02*
X139573000Y-111379000D01*
X139954000Y-111379000D02*
X140335000Y-111379000D01*
X139954000Y-110998000D02*
X139954000Y-111379000D01*
X140335000Y-111633000D02*
X139573000Y-111633000D01*
X139954000Y-111633000D02*
X139954000Y-112014000D01*
X149479000Y-115316000D02*
X149098000Y-115316000D01*
X149479000Y-115697000D02*
X149479000Y-114935000D01*
X150114000Y-115316000D02*
X149733000Y-115316000D01*
X149733000Y-115316000D02*
X149733000Y-115697000D01*
X149733000Y-115697000D02*
X149733000Y-114935000D01*
X155067000Y-97155000D02*
X155067000Y-97917000D01*
X155067000Y-97536000D02*
X155067000Y-97155000D01*
X154686000Y-97536000D02*
X155067000Y-97536000D01*
X155321000Y-97155000D02*
X155321000Y-97917000D01*
X155321000Y-97536000D02*
X155702000Y-97536000D01*
D12*
X137795000Y-126238000D02*
X126873000Y-126238000D01*
X126873000Y-126238000D02*
X126873000Y-122682000D01*
X126873000Y-122682000D02*
X137795000Y-122682000D01*
X137795000Y-122682000D02*
X137795000Y-126238000D01*
X137795000Y-124968000D02*
X137033000Y-124968000D01*
X137033000Y-124968000D02*
X137033000Y-123952000D01*
X137033000Y-123952000D02*
X137795000Y-123952000D01*
X132461000Y-90678000D02*
X131699000Y-90678000D01*
X132461000Y-89662000D02*
X132461000Y-90678000D01*
X131699000Y-89662000D02*
X132461000Y-89662000D01*
X131699000Y-91948000D02*
X131699000Y-88392000D01*
X142621000Y-91948000D02*
X131699000Y-91948000D01*
X142621000Y-88392000D02*
X142621000Y-91948000D01*
X131699000Y-88392000D02*
X142621000Y-88392000D01*
D13*
X66675000Y-55880000D02*
X66675000Y-147320000D01*
X66675000Y-147320000D02*
X74930000Y-147320000D01*
X74930000Y-147320000D02*
X74930000Y-142240000D01*
X74930000Y-142240000D02*
X71120000Y-140335000D01*
X71120000Y-140335000D02*
X71120000Y-62865000D01*
X71120000Y-62865000D02*
X74930000Y-60960000D01*
X74930000Y-60960000D02*
X74930000Y-55880000D01*
X74930000Y-55880000D02*
X66675000Y-55880000D01*
D12*
X148336000Y-124460000D02*
X148336000Y-116840000D01*
X153416000Y-116840000D02*
X153416000Y-124460000D01*
X153416000Y-124460000D02*
X148336000Y-124460000D01*
X148336000Y-116840000D02*
X153416000Y-116840000D01*
X133350000Y-101346000D02*
X138430000Y-101346000D01*
X138430000Y-108966000D02*
X133350000Y-108966000D01*
X138430000Y-101346000D02*
X138430000Y-108966000D01*
X133350000Y-108966000D02*
X133350000Y-101346000D01*
X133350000Y-118110000D02*
X133350000Y-110490000D01*
X138430000Y-110490000D02*
X138430000Y-118110000D01*
X138430000Y-118110000D02*
X133350000Y-118110000D01*
X133350000Y-110490000D02*
X138430000Y-110490000D01*
D11*
X151892000Y-97536000D02*
X152146000Y-97536000D01*
X151130000Y-97536000D02*
X151384000Y-97536000D01*
X151384000Y-97282000D02*
X151384000Y-97663000D01*
X151384000Y-97663000D02*
X151384000Y-97790000D01*
X151384000Y-97790000D02*
X151892000Y-97790000D01*
X151892000Y-97790000D02*
X151892000Y-97282000D01*
X151892000Y-97282000D02*
X151384000Y-97282000D01*
X151257000Y-130810000D02*
X151257000Y-133858000D01*
X151257000Y-133858000D02*
X150495000Y-133858000D01*
X150495000Y-133858000D02*
X150495000Y-130810000D01*
X150495000Y-130810000D02*
X151257000Y-130810000D01*
X145288000Y-96774000D02*
X145288000Y-96520000D01*
X145288000Y-97536000D02*
X145288000Y-97282000D01*
X145034000Y-97282000D02*
X145415000Y-97282000D01*
X145415000Y-97282000D02*
X145542000Y-97282000D01*
X145542000Y-97282000D02*
X145542000Y-96774000D01*
X145542000Y-96774000D02*
X145034000Y-96774000D01*
X145034000Y-96774000D02*
X145034000Y-97282000D01*
X149860000Y-127508000D02*
X149860000Y-127254000D01*
X149860000Y-128270000D02*
X149860000Y-128016000D01*
X149606000Y-128016000D02*
X149987000Y-128016000D01*
X149987000Y-128016000D02*
X150114000Y-128016000D01*
X150114000Y-128016000D02*
X150114000Y-127508000D01*
X150114000Y-127508000D02*
X149606000Y-127508000D01*
X149606000Y-127508000D02*
X149606000Y-128016000D01*
X152146000Y-127508000D02*
X152146000Y-128016000D01*
X152654000Y-127508000D02*
X152146000Y-127508000D01*
X152654000Y-128016000D02*
X152654000Y-127508000D01*
X152527000Y-128016000D02*
X152654000Y-128016000D01*
X152146000Y-128016000D02*
X152527000Y-128016000D01*
X152400000Y-128270000D02*
X152400000Y-128016000D01*
X152400000Y-127508000D02*
X152400000Y-127254000D01*
X146304000Y-125984000D02*
X146558000Y-125984000D01*
X145542000Y-125984000D02*
X145796000Y-125984000D01*
X145796000Y-125730000D02*
X145796000Y-126111000D01*
X145796000Y-126111000D02*
X145796000Y-126238000D01*
X145796000Y-126238000D02*
X146304000Y-126238000D01*
X146304000Y-126238000D02*
X146304000Y-125730000D01*
X146304000Y-125730000D02*
X145796000Y-125730000D01*
X145796000Y-128524000D02*
X146304000Y-128524000D01*
X145796000Y-128016000D02*
X145796000Y-128524000D01*
X146304000Y-128016000D02*
X145796000Y-128016000D01*
X146304000Y-128143000D02*
X146304000Y-128016000D01*
X146304000Y-128524000D02*
X146304000Y-128143000D01*
X146558000Y-128270000D02*
X146304000Y-128270000D01*
X145796000Y-128270000D02*
X145542000Y-128270000D01*
X146304000Y-123190000D02*
X145796000Y-123190000D01*
X146304000Y-123698000D02*
X146304000Y-123190000D01*
X145796000Y-123698000D02*
X146304000Y-123698000D01*
X145796000Y-123571000D02*
X145796000Y-123698000D01*
X145796000Y-123190000D02*
X145796000Y-123571000D01*
X145542000Y-123444000D02*
X145796000Y-123444000D01*
X146304000Y-123444000D02*
X146558000Y-123444000D01*
D14*
X109920000Y-136030000D02*
X108650000Y-136030000D01*
X109920000Y-138570000D02*
X109920000Y-136030000D01*
X107380000Y-138570000D02*
X109920000Y-138570000D01*
X107380000Y-136030000D02*
X107380000Y-138570000D01*
X108650000Y-136030000D02*
X107380000Y-136030000D01*
X108650000Y-134760000D02*
X108650000Y-136030000D01*
X108650000Y-133490000D02*
X108650000Y-134760000D01*
X107380000Y-133490000D02*
X108650000Y-133490000D01*
X108650000Y-141110000D02*
X107380000Y-141110000D01*
X108650000Y-138570000D02*
X108650000Y-141110000D01*
X107380000Y-138570000D02*
X109920000Y-136030000D01*
X125160000Y-132220000D02*
X104840000Y-132220000D01*
X125160000Y-142380000D02*
X125160000Y-132220000D01*
X104840000Y-142380000D02*
X125160000Y-142380000D01*
X104840000Y-132220000D02*
X104840000Y-142380000D01*
X98080000Y-138570000D02*
X99350000Y-138570000D01*
X98080000Y-136030000D02*
X98080000Y-138570000D01*
X100620000Y-136030000D02*
X98080000Y-136030000D01*
X100620000Y-138570000D02*
X100620000Y-136030000D01*
X99350000Y-138570000D02*
X100620000Y-138570000D01*
X99350000Y-139840000D02*
X99350000Y-138570000D01*
X99350000Y-141110000D02*
X99350000Y-139840000D01*
X100620000Y-141110000D02*
X99350000Y-141110000D01*
X99350000Y-133490000D02*
X100620000Y-133490000D01*
X99350000Y-136030000D02*
X99350000Y-133490000D01*
X100620000Y-136030000D02*
X98080000Y-138570000D01*
X82840000Y-142380000D02*
X103160000Y-142380000D01*
X82840000Y-132220000D02*
X82840000Y-142380000D01*
X103160000Y-132220000D02*
X82840000Y-132220000D01*
X103160000Y-142380000D02*
X103160000Y-132220000D01*
X103160000Y-130380000D02*
X103160000Y-120220000D01*
X103160000Y-120220000D02*
X82840000Y-120220000D01*
X82840000Y-120220000D02*
X82840000Y-130380000D01*
X82840000Y-130380000D02*
X103160000Y-130380000D01*
X100620000Y-124030000D02*
X98080000Y-126570000D01*
X99350000Y-124030000D02*
X99350000Y-121490000D01*
X99350000Y-121490000D02*
X100620000Y-121490000D01*
X100620000Y-129110000D02*
X99350000Y-129110000D01*
X99350000Y-129110000D02*
X99350000Y-127840000D01*
X99350000Y-127840000D02*
X99350000Y-126570000D01*
X99350000Y-126570000D02*
X100620000Y-126570000D01*
X100620000Y-126570000D02*
X100620000Y-124030000D01*
X100620000Y-124030000D02*
X98080000Y-124030000D01*
X98080000Y-124030000D02*
X98080000Y-126570000D01*
X98080000Y-126570000D02*
X99350000Y-126570000D01*
X103160000Y-118380000D02*
X103160000Y-108220000D01*
X103160000Y-108220000D02*
X82840000Y-108220000D01*
X82840000Y-108220000D02*
X82840000Y-118380000D01*
X82840000Y-118380000D02*
X103160000Y-118380000D01*
X100620000Y-112030000D02*
X98080000Y-114570000D01*
X99350000Y-112030000D02*
X99350000Y-109490000D01*
X99350000Y-109490000D02*
X100620000Y-109490000D01*
X100620000Y-117110000D02*
X99350000Y-117110000D01*
X99350000Y-117110000D02*
X99350000Y-115840000D01*
X99350000Y-115840000D02*
X99350000Y-114570000D01*
X99350000Y-114570000D02*
X100620000Y-114570000D01*
X100620000Y-114570000D02*
X100620000Y-112030000D01*
X100620000Y-112030000D02*
X98080000Y-112030000D01*
X98080000Y-112030000D02*
X98080000Y-114570000D01*
X98080000Y-114570000D02*
X99350000Y-114570000D01*
X109920000Y-112030000D02*
X108650000Y-112030000D01*
X109920000Y-114570000D02*
X109920000Y-112030000D01*
X107380000Y-114570000D02*
X109920000Y-114570000D01*
X107380000Y-112030000D02*
X107380000Y-114570000D01*
X108650000Y-112030000D02*
X107380000Y-112030000D01*
X108650000Y-110760000D02*
X108650000Y-112030000D01*
X108650000Y-109490000D02*
X108650000Y-110760000D01*
X107380000Y-109490000D02*
X108650000Y-109490000D01*
X108650000Y-117110000D02*
X107380000Y-117110000D01*
X108650000Y-114570000D02*
X108650000Y-117110000D01*
X107380000Y-114570000D02*
X109920000Y-112030000D01*
X125160000Y-108220000D02*
X104840000Y-108220000D01*
X125160000Y-118380000D02*
X125160000Y-108220000D01*
X104840000Y-118380000D02*
X125160000Y-118380000D01*
X104840000Y-108220000D02*
X104840000Y-118380000D01*
X103160000Y-106380000D02*
X103160000Y-96220000D01*
X103160000Y-96220000D02*
X82840000Y-96220000D01*
X82840000Y-96220000D02*
X82840000Y-106380000D01*
X82840000Y-106380000D02*
X103160000Y-106380000D01*
X100620000Y-100030000D02*
X98080000Y-102570000D01*
X99350000Y-100030000D02*
X99350000Y-97490000D01*
X99350000Y-97490000D02*
X100620000Y-97490000D01*
X100620000Y-105110000D02*
X99350000Y-105110000D01*
X99350000Y-105110000D02*
X99350000Y-103840000D01*
X99350000Y-103840000D02*
X99350000Y-102570000D01*
X99350000Y-102570000D02*
X100620000Y-102570000D01*
X100620000Y-102570000D02*
X100620000Y-100030000D01*
X100620000Y-100030000D02*
X98080000Y-100030000D01*
X98080000Y-100030000D02*
X98080000Y-102570000D01*
X98080000Y-102570000D02*
X99350000Y-102570000D01*
X104840000Y-96220000D02*
X104840000Y-106380000D01*
X104840000Y-106380000D02*
X125160000Y-106380000D01*
X125160000Y-106380000D02*
X125160000Y-96220000D01*
X125160000Y-96220000D02*
X104840000Y-96220000D01*
X107380000Y-102570000D02*
X109920000Y-100030000D01*
X108650000Y-102570000D02*
X108650000Y-105110000D01*
X108650000Y-105110000D02*
X107380000Y-105110000D01*
X107380000Y-97490000D02*
X108650000Y-97490000D01*
X108650000Y-97490000D02*
X108650000Y-98760000D01*
X108650000Y-98760000D02*
X108650000Y-100030000D01*
X108650000Y-100030000D02*
X107380000Y-100030000D01*
X107380000Y-100030000D02*
X107380000Y-102570000D01*
X107380000Y-102570000D02*
X109920000Y-102570000D01*
X109920000Y-102570000D02*
X109920000Y-100030000D01*
X109920000Y-100030000D02*
X108650000Y-100030000D01*
X109920000Y-124030000D02*
X108650000Y-124030000D01*
X109920000Y-126570000D02*
X109920000Y-124030000D01*
X107380000Y-126570000D02*
X109920000Y-126570000D01*
X107380000Y-124030000D02*
X107380000Y-126570000D01*
X108650000Y-124030000D02*
X107380000Y-124030000D01*
X108650000Y-122760000D02*
X108650000Y-124030000D01*
X108650000Y-121490000D02*
X108650000Y-122760000D01*
X107380000Y-121490000D02*
X108650000Y-121490000D01*
X108650000Y-129110000D02*
X107380000Y-129110000D01*
X108650000Y-126570000D02*
X108650000Y-129110000D01*
X107380000Y-126570000D02*
X109920000Y-124030000D01*
X125160000Y-120220000D02*
X104840000Y-120220000D01*
X125160000Y-130380000D02*
X125160000Y-120220000D01*
X104840000Y-130380000D02*
X125160000Y-130380000D01*
X104840000Y-120220000D02*
X104840000Y-130380000D01*
X98080000Y-90570000D02*
X99350000Y-90570000D01*
X98080000Y-88030000D02*
X98080000Y-90570000D01*
X100620000Y-88030000D02*
X98080000Y-88030000D01*
X100620000Y-90570000D02*
X100620000Y-88030000D01*
X99350000Y-90570000D02*
X100620000Y-90570000D01*
X99350000Y-91840000D02*
X99350000Y-90570000D01*
X99350000Y-93110000D02*
X99350000Y-91840000D01*
X100620000Y-93110000D02*
X99350000Y-93110000D01*
X99350000Y-85490000D02*
X100620000Y-85490000D01*
X99350000Y-88030000D02*
X99350000Y-85490000D01*
X100620000Y-88030000D02*
X98080000Y-90570000D01*
X82840000Y-94380000D02*
X103160000Y-94380000D01*
X82840000Y-84220000D02*
X82840000Y-94380000D01*
X103160000Y-84220000D02*
X82840000Y-84220000D01*
X103160000Y-94380000D02*
X103160000Y-84220000D01*
X104840000Y-84220000D02*
X104840000Y-94380000D01*
X104840000Y-94380000D02*
X125160000Y-94380000D01*
X125160000Y-94380000D02*
X125160000Y-84220000D01*
X125160000Y-84220000D02*
X104840000Y-84220000D01*
X107380000Y-90570000D02*
X109920000Y-88030000D01*
X108650000Y-90570000D02*
X108650000Y-93110000D01*
X108650000Y-93110000D02*
X107380000Y-93110000D01*
X107380000Y-85490000D02*
X108650000Y-85490000D01*
X108650000Y-85490000D02*
X108650000Y-86760000D01*
X108650000Y-86760000D02*
X108650000Y-88030000D01*
X108650000Y-88030000D02*
X107380000Y-88030000D01*
X107380000Y-88030000D02*
X107380000Y-90570000D01*
X107380000Y-90570000D02*
X109920000Y-90570000D01*
X109920000Y-90570000D02*
X109920000Y-88030000D01*
X109920000Y-88030000D02*
X108650000Y-88030000D01*
X143920000Y-78360000D02*
X154080000Y-78360000D01*
X154080000Y-78360000D02*
X154080000Y-58040000D01*
X154080000Y-58040000D02*
X143920000Y-58040000D01*
X143920000Y-58040000D02*
X143920000Y-78360000D01*
X150270000Y-75820000D02*
X147730000Y-73280000D01*
X150270000Y-74550000D02*
X152810000Y-74550000D01*
X152810000Y-74550000D02*
X152810000Y-75820000D01*
X145190000Y-75820000D02*
X145190000Y-74550000D01*
X145190000Y-74550000D02*
X146460000Y-74550000D01*
X146460000Y-74550000D02*
X147730000Y-74550000D01*
X147730000Y-74550000D02*
X147730000Y-75820000D01*
X147730000Y-75820000D02*
X150270000Y-75820000D01*
X150270000Y-75820000D02*
X150270000Y-73280000D01*
X150270000Y-73280000D02*
X147730000Y-73280000D01*
X147730000Y-73280000D02*
X147730000Y-74550000D01*
X131320000Y-78360000D02*
X141480000Y-78360000D01*
X141480000Y-78360000D02*
X141480000Y-58040000D01*
X141480000Y-58040000D02*
X131320000Y-58040000D01*
X131320000Y-58040000D02*
X131320000Y-78360000D01*
X137670000Y-75820000D02*
X135130000Y-73280000D01*
X137670000Y-74550000D02*
X140210000Y-74550000D01*
X140210000Y-74550000D02*
X140210000Y-75820000D01*
X132590000Y-75820000D02*
X132590000Y-74550000D01*
X132590000Y-74550000D02*
X133860000Y-74550000D01*
X133860000Y-74550000D02*
X135130000Y-74550000D01*
X135130000Y-74550000D02*
X135130000Y-75820000D01*
X135130000Y-75820000D02*
X137670000Y-75820000D01*
X137670000Y-75820000D02*
X137670000Y-73280000D01*
X137670000Y-73280000D02*
X135130000Y-73280000D01*
X135130000Y-73280000D02*
X135130000Y-74550000D01*
X98080000Y-74570000D02*
X99350000Y-74570000D01*
X98080000Y-72030000D02*
X98080000Y-74570000D01*
X100620000Y-72030000D02*
X98080000Y-72030000D01*
X100620000Y-74570000D02*
X100620000Y-72030000D01*
X99350000Y-74570000D02*
X100620000Y-74570000D01*
X99350000Y-75840000D02*
X99350000Y-74570000D01*
X99350000Y-77110000D02*
X99350000Y-75840000D01*
X100620000Y-77110000D02*
X99350000Y-77110000D01*
X99350000Y-69490000D02*
X100620000Y-69490000D01*
X99350000Y-72030000D02*
X99350000Y-69490000D01*
X100620000Y-72030000D02*
X98080000Y-74570000D01*
X82840000Y-78380000D02*
X103160000Y-78380000D01*
X82840000Y-68220000D02*
X82840000Y-78380000D01*
X103160000Y-68220000D02*
X82840000Y-68220000D01*
X103160000Y-78380000D02*
X103160000Y-68220000D01*
X104840000Y-68220000D02*
X104840000Y-78380000D01*
X104840000Y-78380000D02*
X125160000Y-78380000D01*
X125160000Y-78380000D02*
X125160000Y-68220000D01*
X125160000Y-68220000D02*
X104840000Y-68220000D01*
X107380000Y-74570000D02*
X109920000Y-72030000D01*
X108650000Y-74570000D02*
X108650000Y-77110000D01*
X108650000Y-77110000D02*
X107380000Y-77110000D01*
X107380000Y-69490000D02*
X108650000Y-69490000D01*
X108650000Y-69490000D02*
X108650000Y-70760000D01*
X108650000Y-70760000D02*
X108650000Y-72030000D01*
X108650000Y-72030000D02*
X107380000Y-72030000D01*
X107380000Y-72030000D02*
X107380000Y-74570000D01*
X107380000Y-74570000D02*
X109920000Y-74570000D01*
X109920000Y-74570000D02*
X109920000Y-72030000D01*
X109920000Y-72030000D02*
X108650000Y-72030000D01*
X98080000Y-62570000D02*
X99350000Y-62570000D01*
X98080000Y-60030000D02*
X98080000Y-62570000D01*
X100620000Y-60030000D02*
X98080000Y-60030000D01*
X100620000Y-62570000D02*
X100620000Y-60030000D01*
X99350000Y-62570000D02*
X100620000Y-62570000D01*
X99350000Y-63840000D02*
X99350000Y-62570000D01*
X99350000Y-65110000D02*
X99350000Y-63840000D01*
X100620000Y-65110000D02*
X99350000Y-65110000D01*
X99350000Y-57490000D02*
X100620000Y-57490000D01*
X99350000Y-60030000D02*
X99350000Y-57490000D01*
X100620000Y-60030000D02*
X98080000Y-62570000D01*
X82840000Y-66380000D02*
X103160000Y-66380000D01*
X82840000Y-56220000D02*
X82840000Y-66380000D01*
X103160000Y-56220000D02*
X82840000Y-56220000D01*
X103160000Y-66380000D02*
X103160000Y-56220000D01*
X109920000Y-60030000D02*
X108650000Y-60030000D01*
X109920000Y-62570000D02*
X109920000Y-60030000D01*
X107380000Y-62570000D02*
X109920000Y-62570000D01*
X107380000Y-60030000D02*
X107380000Y-62570000D01*
X108650000Y-60030000D02*
X107380000Y-60030000D01*
X108650000Y-58760000D02*
X108650000Y-60030000D01*
X108650000Y-57490000D02*
X108650000Y-58760000D01*
X107380000Y-57490000D02*
X108650000Y-57490000D01*
X108650000Y-65110000D02*
X107380000Y-65110000D01*
X108650000Y-62570000D02*
X108650000Y-65110000D01*
X107380000Y-62570000D02*
X109920000Y-60030000D01*
X125160000Y-56220000D02*
X104840000Y-56220000D01*
X125160000Y-66380000D02*
X125160000Y-56220000D01*
X104840000Y-66380000D02*
X125160000Y-66380000D01*
X104840000Y-56220000D02*
X104840000Y-66380000D01*
D10*
X148209000Y-138303000D02*
X144399000Y-142113000D01*
X144399000Y-142113000D02*
X144399000Y-143383000D01*
X144399000Y-143383000D02*
X145669000Y-144653000D01*
X145669000Y-144653000D02*
X148209000Y-144653000D01*
X148209000Y-144653000D02*
X150749000Y-142113000D01*
X150749000Y-142113000D02*
X150749000Y-139573000D01*
X150749000Y-139573000D02*
X149479000Y-138303000D01*
X149479000Y-138303000D02*
X148209000Y-138303000D01*
D11*
X151003000Y-86360000D02*
X151003000Y-83185000D01*
X151003000Y-83185000D02*
X149225000Y-83185000D01*
X149225000Y-83185000D02*
X149225000Y-86360000D01*
X155575000Y-86360000D02*
X155575000Y-83185000D01*
X155575000Y-83185000D02*
X153797000Y-83185000D01*
X153797000Y-83185000D02*
X153797000Y-86360000D01*
X148971000Y-92456000D02*
X148971000Y-86360000D01*
X148971000Y-86360000D02*
X155829000Y-86360000D01*
X155829000Y-86360000D02*
X155829000Y-94234000D01*
X155829000Y-94361000D02*
X148971000Y-94361000D01*
X148971000Y-94234000D02*
X148971000Y-92456000D01*
D10*
X153085800Y-111175800D02*
X143078200Y-111175800D01*
X143078200Y-111175800D02*
X143078200Y-101168200D01*
X152603200Y-101168200D02*
X143078200Y-101168200D01*
X153085800Y-101650800D02*
X153085800Y-111175800D01*
X152603200Y-101168200D02*
X153085800Y-101650800D01*
D12*
X152527000Y-102362000D02*
G75*
G03X152527000Y-102362000I-635000J0D01*
G01*
D11*
X138735404Y-122146785D02*
X138705166Y-122177023D01*
X138614452Y-122207261D01*
X138553976Y-122207261D01*
X138463261Y-122177023D01*
X138402785Y-122116547D01*
X138372547Y-122056071D01*
X138342309Y-121935119D01*
X138342309Y-121844404D01*
X138372547Y-121723452D01*
X138402785Y-121662976D01*
X138463261Y-121602500D01*
X138553976Y-121572261D01*
X138614452Y-121572261D01*
X138705166Y-121602500D01*
X138735404Y-121632738D01*
X139340166Y-122207261D02*
X138977309Y-122207261D01*
X139158738Y-122207261D02*
X139158738Y-121572261D01*
X139098261Y-121662976D01*
X139037785Y-121723452D01*
X138977309Y-121753690D01*
X139733261Y-121572261D02*
X139793738Y-121572261D01*
X139854214Y-121602500D01*
X139884452Y-121632738D01*
X139914690Y-121693214D01*
X139944928Y-121814166D01*
X139944928Y-121965357D01*
X139914690Y-122086309D01*
X139884452Y-122146785D01*
X139854214Y-122177023D01*
X139793738Y-122207261D01*
X139733261Y-122207261D01*
X139672785Y-122177023D01*
X139642547Y-122146785D01*
X139612309Y-122086309D01*
X139582071Y-121965357D01*
X139582071Y-121814166D01*
X139612309Y-121693214D01*
X139642547Y-121632738D01*
X139672785Y-121602500D01*
X139733261Y-121572261D01*
X140549690Y-122207261D02*
X140186833Y-122207261D01*
X140368261Y-122207261D02*
X140368261Y-121572261D01*
X140307785Y-121662976D01*
X140247309Y-121723452D01*
X140186833Y-121753690D01*
X129083404Y-93190785D02*
X129053166Y-93221023D01*
X128962452Y-93251261D01*
X128901976Y-93251261D01*
X128811261Y-93221023D01*
X128750785Y-93160547D01*
X128720547Y-93100071D01*
X128690309Y-92979119D01*
X128690309Y-92888404D01*
X128720547Y-92767452D01*
X128750785Y-92706976D01*
X128811261Y-92646500D01*
X128901976Y-92616261D01*
X128962452Y-92616261D01*
X129053166Y-92646500D01*
X129083404Y-92676738D01*
X129688166Y-93251261D02*
X129325309Y-93251261D01*
X129506738Y-93251261D02*
X129506738Y-92616261D01*
X129446261Y-92706976D01*
X129385785Y-92767452D01*
X129325309Y-92797690D01*
X130081261Y-92616261D02*
X130141738Y-92616261D01*
X130202214Y-92646500D01*
X130232452Y-92676738D01*
X130262690Y-92737214D01*
X130292928Y-92858166D01*
X130292928Y-93009357D01*
X130262690Y-93130309D01*
X130232452Y-93190785D01*
X130202214Y-93221023D01*
X130141738Y-93251261D01*
X130081261Y-93251261D01*
X130020785Y-93221023D01*
X129990547Y-93190785D01*
X129960309Y-93130309D01*
X129930071Y-93009357D01*
X129930071Y-92858166D01*
X129960309Y-92737214D01*
X129990547Y-92676738D01*
X130020785Y-92646500D01*
X130081261Y-92616261D01*
X130534833Y-92676738D02*
X130565071Y-92646500D01*
X130625547Y-92616261D01*
X130776738Y-92616261D01*
X130837214Y-92646500D01*
X130867452Y-92676738D01*
X130897690Y-92737214D01*
X130897690Y-92797690D01*
X130867452Y-92888404D01*
X130504595Y-93251261D01*
X130897690Y-93251261D01*
D12*
X138959166Y-145777857D02*
X138916833Y-145826238D01*
X138789833Y-145874619D01*
X138705166Y-145874619D01*
X138578166Y-145826238D01*
X138493500Y-145729476D01*
X138451166Y-145632714D01*
X138408833Y-145439190D01*
X138408833Y-145294047D01*
X138451166Y-145100523D01*
X138493500Y-145003761D01*
X138578166Y-144907000D01*
X138705166Y-144858619D01*
X138789833Y-144858619D01*
X138916833Y-144907000D01*
X138959166Y-144955380D01*
X139805833Y-145874619D02*
X139297833Y-145874619D01*
X139551833Y-145874619D02*
X139551833Y-144858619D01*
X139467166Y-145003761D01*
X139382500Y-145100523D01*
X139297833Y-145148904D01*
X140356166Y-144858619D02*
X140440833Y-144858619D01*
X140525500Y-144907000D01*
X140567833Y-144955380D01*
X140610166Y-145052142D01*
X140652500Y-145245666D01*
X140652500Y-145487571D01*
X140610166Y-145681095D01*
X140567833Y-145777857D01*
X140525500Y-145826238D01*
X140440833Y-145874619D01*
X140356166Y-145874619D01*
X140271500Y-145826238D01*
X140229166Y-145777857D01*
X140186833Y-145681095D01*
X140144500Y-145487571D01*
X140144500Y-145245666D01*
X140186833Y-145052142D01*
X140229166Y-144955380D01*
X140271500Y-144907000D01*
X140356166Y-144858619D01*
X141414500Y-145197285D02*
X141414500Y-145874619D01*
X141202833Y-144810238D02*
X140991166Y-145535952D01*
X141541500Y-145535952D01*
X138538857Y-142693571D02*
X138538857Y-141532428D01*
X139119428Y-142113000D02*
X137958285Y-142113000D01*
D11*
X144069404Y-93952785D02*
X144039166Y-93983023D01*
X143948452Y-94013261D01*
X143887976Y-94013261D01*
X143797261Y-93983023D01*
X143736785Y-93922547D01*
X143706547Y-93862071D01*
X143676309Y-93741119D01*
X143676309Y-93650404D01*
X143706547Y-93529452D01*
X143736785Y-93468976D01*
X143797261Y-93408500D01*
X143887976Y-93378261D01*
X143948452Y-93378261D01*
X144039166Y-93408500D01*
X144069404Y-93438738D01*
X144674166Y-94013261D02*
X144311309Y-94013261D01*
X144492738Y-94013261D02*
X144492738Y-93378261D01*
X144432261Y-93468976D01*
X144371785Y-93529452D01*
X144311309Y-93559690D01*
X145067261Y-93378261D02*
X145127738Y-93378261D01*
X145188214Y-93408500D01*
X145218452Y-93438738D01*
X145248690Y-93499214D01*
X145278928Y-93620166D01*
X145278928Y-93771357D01*
X145248690Y-93892309D01*
X145218452Y-93952785D01*
X145188214Y-93983023D01*
X145127738Y-94013261D01*
X145067261Y-94013261D01*
X145006785Y-93983023D01*
X144976547Y-93952785D01*
X144946309Y-93892309D01*
X144916071Y-93771357D01*
X144916071Y-93620166D01*
X144946309Y-93499214D01*
X144976547Y-93438738D01*
X145006785Y-93408500D01*
X145067261Y-93378261D01*
X145823214Y-93378261D02*
X145702261Y-93378261D01*
X145641785Y-93408500D01*
X145611547Y-93438738D01*
X145551071Y-93529452D01*
X145520833Y-93650404D01*
X145520833Y-93892309D01*
X145551071Y-93952785D01*
X145581309Y-93983023D01*
X145641785Y-94013261D01*
X145762738Y-94013261D01*
X145823214Y-93983023D01*
X145853452Y-93952785D01*
X145883690Y-93892309D01*
X145883690Y-93741119D01*
X145853452Y-93680642D01*
X145823214Y-93650404D01*
X145762738Y-93620166D01*
X145641785Y-93620166D01*
X145581309Y-93650404D01*
X145551071Y-93680642D01*
X145520833Y-93741119D01*
X149324785Y-97738595D02*
X149355023Y-97768833D01*
X149385261Y-97859547D01*
X149385261Y-97920023D01*
X149355023Y-98010738D01*
X149294547Y-98071214D01*
X149234071Y-98101452D01*
X149113119Y-98131690D01*
X149022404Y-98131690D01*
X148901452Y-98101452D01*
X148840976Y-98071214D01*
X148780500Y-98010738D01*
X148750261Y-97920023D01*
X148750261Y-97859547D01*
X148780500Y-97768833D01*
X148810738Y-97738595D01*
X149385261Y-97133833D02*
X149385261Y-97496690D01*
X149385261Y-97315261D02*
X148750261Y-97315261D01*
X148840976Y-97375738D01*
X148901452Y-97436214D01*
X148931690Y-97496690D01*
X148750261Y-96740738D02*
X148750261Y-96680261D01*
X148780500Y-96619785D01*
X148810738Y-96589547D01*
X148871214Y-96559309D01*
X148992166Y-96529071D01*
X149143357Y-96529071D01*
X149264309Y-96559309D01*
X149324785Y-96589547D01*
X149355023Y-96619785D01*
X149385261Y-96680261D01*
X149385261Y-96740738D01*
X149355023Y-96801214D01*
X149324785Y-96831452D01*
X149264309Y-96861690D01*
X149143357Y-96891928D01*
X148992166Y-96891928D01*
X148871214Y-96861690D01*
X148810738Y-96831452D01*
X148780500Y-96801214D01*
X148750261Y-96740738D01*
X148750261Y-96317404D02*
X148750261Y-95894071D01*
X149385261Y-96166214D01*
X140180785Y-112216595D02*
X140211023Y-112246833D01*
X140241261Y-112337547D01*
X140241261Y-112398023D01*
X140211023Y-112488738D01*
X140150547Y-112549214D01*
X140090071Y-112579452D01*
X139969119Y-112609690D01*
X139878404Y-112609690D01*
X139757452Y-112579452D01*
X139696976Y-112549214D01*
X139636500Y-112488738D01*
X139606261Y-112398023D01*
X139606261Y-112337547D01*
X139636500Y-112246833D01*
X139666738Y-112216595D01*
X140241261Y-111611833D02*
X140241261Y-111974690D01*
X140241261Y-111793261D02*
X139606261Y-111793261D01*
X139696976Y-111853738D01*
X139757452Y-111914214D01*
X139787690Y-111974690D01*
X139606261Y-111218738D02*
X139606261Y-111158261D01*
X139636500Y-111097785D01*
X139666738Y-111067547D01*
X139727214Y-111037309D01*
X139848166Y-111007071D01*
X139999357Y-111007071D01*
X140120309Y-111037309D01*
X140180785Y-111067547D01*
X140211023Y-111097785D01*
X140241261Y-111158261D01*
X140241261Y-111218738D01*
X140211023Y-111279214D01*
X140180785Y-111309452D01*
X140120309Y-111339690D01*
X139999357Y-111369928D01*
X139848166Y-111369928D01*
X139727214Y-111339690D01*
X139666738Y-111309452D01*
X139636500Y-111279214D01*
X139606261Y-111218738D01*
X139878404Y-110644214D02*
X139848166Y-110704690D01*
X139817928Y-110734928D01*
X139757452Y-110765166D01*
X139727214Y-110765166D01*
X139666738Y-110734928D01*
X139636500Y-110704690D01*
X139606261Y-110644214D01*
X139606261Y-110523261D01*
X139636500Y-110462785D01*
X139666738Y-110432547D01*
X139727214Y-110402309D01*
X139757452Y-110402309D01*
X139817928Y-110432547D01*
X139848166Y-110462785D01*
X139878404Y-110523261D01*
X139878404Y-110644214D01*
X139908642Y-110704690D01*
X139938880Y-110734928D01*
X139999357Y-110765166D01*
X140120309Y-110765166D01*
X140180785Y-110734928D01*
X140211023Y-110704690D01*
X140241261Y-110644214D01*
X140241261Y-110523261D01*
X140211023Y-110462785D01*
X140180785Y-110432547D01*
X140120309Y-110402309D01*
X139999357Y-110402309D01*
X139938880Y-110432547D01*
X139908642Y-110462785D01*
X139878404Y-110523261D01*
X145847404Y-115542785D02*
X145817166Y-115573023D01*
X145726452Y-115603261D01*
X145665976Y-115603261D01*
X145575261Y-115573023D01*
X145514785Y-115512547D01*
X145484547Y-115452071D01*
X145454309Y-115331119D01*
X145454309Y-115240404D01*
X145484547Y-115119452D01*
X145514785Y-115058976D01*
X145575261Y-114998500D01*
X145665976Y-114968261D01*
X145726452Y-114968261D01*
X145817166Y-114998500D01*
X145847404Y-115028738D01*
X146452166Y-115603261D02*
X146089309Y-115603261D01*
X146270738Y-115603261D02*
X146270738Y-114968261D01*
X146210261Y-115058976D01*
X146149785Y-115119452D01*
X146089309Y-115149690D01*
X146845261Y-114968261D02*
X146905738Y-114968261D01*
X146966214Y-114998500D01*
X146996452Y-115028738D01*
X147026690Y-115089214D01*
X147056928Y-115210166D01*
X147056928Y-115361357D01*
X147026690Y-115482309D01*
X146996452Y-115542785D01*
X146966214Y-115573023D01*
X146905738Y-115603261D01*
X146845261Y-115603261D01*
X146784785Y-115573023D01*
X146754547Y-115542785D01*
X146724309Y-115482309D01*
X146694071Y-115361357D01*
X146694071Y-115210166D01*
X146724309Y-115089214D01*
X146754547Y-115028738D01*
X146784785Y-114998500D01*
X146845261Y-114968261D01*
X147359309Y-115603261D02*
X147480261Y-115603261D01*
X147540738Y-115573023D01*
X147570976Y-115542785D01*
X147631452Y-115452071D01*
X147661690Y-115331119D01*
X147661690Y-115089214D01*
X147631452Y-115028738D01*
X147601214Y-114998500D01*
X147540738Y-114968261D01*
X147419785Y-114968261D01*
X147359309Y-114998500D01*
X147329071Y-115028738D01*
X147298833Y-115089214D01*
X147298833Y-115240404D01*
X147329071Y-115300880D01*
X147359309Y-115331119D01*
X147419785Y-115361357D01*
X147540738Y-115361357D01*
X147601214Y-115331119D01*
X147631452Y-115300880D01*
X147661690Y-115240404D01*
X154483404Y-96238785D02*
X154453166Y-96269023D01*
X154362452Y-96299261D01*
X154301976Y-96299261D01*
X154211261Y-96269023D01*
X154150785Y-96208547D01*
X154120547Y-96148071D01*
X154090309Y-96027119D01*
X154090309Y-95936404D01*
X154120547Y-95815452D01*
X154150785Y-95754976D01*
X154211261Y-95694500D01*
X154301976Y-95664261D01*
X154362452Y-95664261D01*
X154453166Y-95694500D01*
X154483404Y-95724738D01*
X154725309Y-95724738D02*
X154755547Y-95694500D01*
X154816023Y-95664261D01*
X154967214Y-95664261D01*
X155027690Y-95694500D01*
X155057928Y-95724738D01*
X155088166Y-95785214D01*
X155088166Y-95845690D01*
X155057928Y-95936404D01*
X154695071Y-96299261D01*
X155088166Y-96299261D01*
X155481261Y-95664261D02*
X155541738Y-95664261D01*
X155602214Y-95694500D01*
X155632452Y-95724738D01*
X155662690Y-95785214D01*
X155692928Y-95906166D01*
X155692928Y-96057357D01*
X155662690Y-96178309D01*
X155632452Y-96238785D01*
X155602214Y-96269023D01*
X155541738Y-96299261D01*
X155481261Y-96299261D01*
X155420785Y-96269023D01*
X155390547Y-96238785D01*
X155360309Y-96178309D01*
X155330071Y-96057357D01*
X155330071Y-95906166D01*
X155360309Y-95785214D01*
X155390547Y-95724738D01*
X155420785Y-95694500D01*
X155481261Y-95664261D01*
X156297690Y-96299261D02*
X155934833Y-96299261D01*
X156116261Y-96299261D02*
X156116261Y-95664261D01*
X156055785Y-95754976D01*
X155995309Y-95815452D01*
X155934833Y-95845690D01*
X130129642Y-125681619D02*
X130129642Y-124665619D01*
X131327071Y-125584857D02*
X131272642Y-125633238D01*
X131109357Y-125681619D01*
X131000500Y-125681619D01*
X130837214Y-125633238D01*
X130728357Y-125536476D01*
X130673928Y-125439714D01*
X130619500Y-125246190D01*
X130619500Y-125101047D01*
X130673928Y-124907523D01*
X130728357Y-124810761D01*
X130837214Y-124714000D01*
X131000500Y-124665619D01*
X131109357Y-124665619D01*
X131272642Y-124714000D01*
X131327071Y-124762380D01*
X132415642Y-125681619D02*
X131762500Y-125681619D01*
X132089071Y-125681619D02*
X132089071Y-124665619D01*
X131980214Y-124810761D01*
X131871357Y-124907523D01*
X131762500Y-124955904D01*
X133123214Y-124665619D02*
X133232071Y-124665619D01*
X133340928Y-124714000D01*
X133395357Y-124762380D01*
X133449785Y-124859142D01*
X133504214Y-125052666D01*
X133504214Y-125294571D01*
X133449785Y-125488095D01*
X133395357Y-125584857D01*
X133340928Y-125633238D01*
X133232071Y-125681619D01*
X133123214Y-125681619D01*
X133014357Y-125633238D01*
X132959928Y-125584857D01*
X132905500Y-125488095D01*
X132851071Y-125294571D01*
X132851071Y-125052666D01*
X132905500Y-124859142D01*
X132959928Y-124762380D01*
X133014357Y-124714000D01*
X133123214Y-124665619D01*
X134592785Y-125681619D02*
X133939642Y-125681619D01*
X134266214Y-125681619D02*
X134266214Y-124665619D01*
X134157357Y-124810761D01*
X134048500Y-124907523D01*
X133939642Y-124955904D01*
X134955642Y-89867619D02*
X134955642Y-88851619D01*
X136153071Y-89770857D02*
X136098642Y-89819238D01*
X135935357Y-89867619D01*
X135826500Y-89867619D01*
X135663214Y-89819238D01*
X135554357Y-89722476D01*
X135499928Y-89625714D01*
X135445500Y-89432190D01*
X135445500Y-89287047D01*
X135499928Y-89093523D01*
X135554357Y-88996761D01*
X135663214Y-88900000D01*
X135826500Y-88851619D01*
X135935357Y-88851619D01*
X136098642Y-88900000D01*
X136153071Y-88948380D01*
X137241642Y-89867619D02*
X136588500Y-89867619D01*
X136915071Y-89867619D02*
X136915071Y-88851619D01*
X136806214Y-88996761D01*
X136697357Y-89093523D01*
X136588500Y-89141904D01*
X137949214Y-88851619D02*
X138058071Y-88851619D01*
X138166928Y-88900000D01*
X138221357Y-88948380D01*
X138275785Y-89045142D01*
X138330214Y-89238666D01*
X138330214Y-89480571D01*
X138275785Y-89674095D01*
X138221357Y-89770857D01*
X138166928Y-89819238D01*
X138058071Y-89867619D01*
X137949214Y-89867619D01*
X137840357Y-89819238D01*
X137785928Y-89770857D01*
X137731500Y-89674095D01*
X137677071Y-89480571D01*
X137677071Y-89238666D01*
X137731500Y-89045142D01*
X137785928Y-88948380D01*
X137840357Y-88900000D01*
X137949214Y-88851619D01*
X138765642Y-88948380D02*
X138820071Y-88900000D01*
X138928928Y-88851619D01*
X139201071Y-88851619D01*
X139309928Y-88900000D01*
X139364357Y-88948380D01*
X139418785Y-89045142D01*
X139418785Y-89141904D01*
X139364357Y-89287047D01*
X138711214Y-89867619D01*
X139418785Y-89867619D01*
D10*
X68289714Y-55045428D02*
X68289714Y-53521428D01*
X69160571Y-55045428D02*
X68507428Y-54174571D01*
X69160571Y-53521428D02*
X68289714Y-54392285D01*
X70612000Y-55045428D02*
X69741142Y-55045428D01*
X70176571Y-55045428D02*
X70176571Y-53521428D01*
X70031428Y-53739142D01*
X69886285Y-53884285D01*
X69741142Y-53956857D01*
X71555428Y-53521428D02*
X71700571Y-53521428D01*
X71845714Y-53594000D01*
X71918285Y-53666571D01*
X71990857Y-53811714D01*
X72063428Y-54102000D01*
X72063428Y-54464857D01*
X71990857Y-54755142D01*
X71918285Y-54900285D01*
X71845714Y-54972857D01*
X71700571Y-55045428D01*
X71555428Y-55045428D01*
X71410285Y-54972857D01*
X71337714Y-54900285D01*
X71265142Y-54755142D01*
X71192571Y-54464857D01*
X71192571Y-54102000D01*
X71265142Y-53811714D01*
X71337714Y-53666571D01*
X71410285Y-53594000D01*
X71555428Y-53521428D01*
X73514857Y-55045428D02*
X72644000Y-55045428D01*
X73079428Y-55045428D02*
X73079428Y-53521428D01*
X72934285Y-53739142D01*
X72789142Y-53884285D01*
X72644000Y-53956857D01*
X155741914Y-61888188D02*
X155741914Y-60364188D01*
X156612771Y-61888188D02*
X155959628Y-61017331D01*
X156612771Y-60364188D02*
X155741914Y-61235045D01*
X158064200Y-61888188D02*
X157193342Y-61888188D01*
X157628771Y-61888188D02*
X157628771Y-60364188D01*
X157483628Y-60581902D01*
X157338485Y-60727045D01*
X157193342Y-60799617D01*
X159007628Y-60364188D02*
X159152771Y-60364188D01*
X159297914Y-60436760D01*
X159370485Y-60509331D01*
X159443057Y-60654474D01*
X159515628Y-60944760D01*
X159515628Y-61307617D01*
X159443057Y-61597902D01*
X159370485Y-61743045D01*
X159297914Y-61815617D01*
X159152771Y-61888188D01*
X159007628Y-61888188D01*
X158862485Y-61815617D01*
X158789914Y-61743045D01*
X158717342Y-61597902D01*
X158644771Y-61307617D01*
X158644771Y-60944760D01*
X158717342Y-60654474D01*
X158789914Y-60509331D01*
X158862485Y-60436760D01*
X159007628Y-60364188D01*
X160096200Y-60509331D02*
X160168771Y-60436760D01*
X160313914Y-60364188D01*
X160676771Y-60364188D01*
X160821914Y-60436760D01*
X160894485Y-60509331D01*
X160967057Y-60654474D01*
X160967057Y-60799617D01*
X160894485Y-61017331D01*
X160023628Y-61888188D01*
X160967057Y-61888188D01*
D15*
X147779619Y-120589523D02*
X146763619Y-120589523D01*
X147779619Y-120008952D02*
X147199047Y-120444380D01*
X146763619Y-120008952D02*
X147344190Y-120589523D01*
X146860380Y-119621904D02*
X146812000Y-119573523D01*
X146763619Y-119476761D01*
X146763619Y-119234857D01*
X146812000Y-119138095D01*
X146860380Y-119089714D01*
X146957142Y-119041333D01*
X147053904Y-119041333D01*
X147199047Y-119089714D01*
X147779619Y-119670285D01*
X147779619Y-119041333D01*
X146763619Y-118412380D02*
X146763619Y-118315619D01*
X146812000Y-118218857D01*
X146860380Y-118170476D01*
X146957142Y-118122095D01*
X147150666Y-118073714D01*
X147392571Y-118073714D01*
X147586095Y-118122095D01*
X147682857Y-118170476D01*
X147731238Y-118218857D01*
X147779619Y-118315619D01*
X147779619Y-118412380D01*
X147731238Y-118509142D01*
X147682857Y-118557523D01*
X147586095Y-118605904D01*
X147392571Y-118654285D01*
X147150666Y-118654285D01*
X146957142Y-118605904D01*
X146860380Y-118557523D01*
X146812000Y-118509142D01*
X146763619Y-118412380D01*
X147779619Y-117106095D02*
X147779619Y-117686666D01*
X147779619Y-117396380D02*
X146763619Y-117396380D01*
X146908761Y-117493142D01*
X147005523Y-117589904D01*
X147053904Y-117686666D01*
X140159619Y-108905523D02*
X139143619Y-108905523D01*
X140159619Y-108324952D02*
X139579047Y-108760380D01*
X139143619Y-108324952D02*
X139724190Y-108905523D01*
X139240380Y-107937904D02*
X139192000Y-107889523D01*
X139143619Y-107792761D01*
X139143619Y-107550857D01*
X139192000Y-107454095D01*
X139240380Y-107405714D01*
X139337142Y-107357333D01*
X139433904Y-107357333D01*
X139579047Y-107405714D01*
X140159619Y-107986285D01*
X140159619Y-107357333D01*
X139143619Y-106728380D02*
X139143619Y-106631619D01*
X139192000Y-106534857D01*
X139240380Y-106486476D01*
X139337142Y-106438095D01*
X139530666Y-106389714D01*
X139772571Y-106389714D01*
X139966095Y-106438095D01*
X140062857Y-106486476D01*
X140111238Y-106534857D01*
X140159619Y-106631619D01*
X140159619Y-106728380D01*
X140111238Y-106825142D01*
X140062857Y-106873523D01*
X139966095Y-106921904D01*
X139772571Y-106970285D01*
X139530666Y-106970285D01*
X139337142Y-106921904D01*
X139240380Y-106873523D01*
X139192000Y-106825142D01*
X139143619Y-106728380D01*
X139240380Y-106002666D02*
X139192000Y-105954285D01*
X139143619Y-105857523D01*
X139143619Y-105615619D01*
X139192000Y-105518857D01*
X139240380Y-105470476D01*
X139337142Y-105422095D01*
X139433904Y-105422095D01*
X139579047Y-105470476D01*
X140159619Y-106051047D01*
X140159619Y-105422095D01*
X132491238Y-107405714D02*
X132539619Y-107260571D01*
X132539619Y-107018666D01*
X132491238Y-106921904D01*
X132442857Y-106873523D01*
X132346095Y-106825142D01*
X132249333Y-106825142D01*
X132152571Y-106873523D01*
X132104190Y-106921904D01*
X132055809Y-107018666D01*
X132007428Y-107212190D01*
X131959047Y-107308952D01*
X131910666Y-107357333D01*
X131813904Y-107405714D01*
X131717142Y-107405714D01*
X131620380Y-107357333D01*
X131572000Y-107308952D01*
X131523619Y-107212190D01*
X131523619Y-106970285D01*
X131572000Y-106825142D01*
X132539619Y-106389714D02*
X131523619Y-106389714D01*
X131523619Y-106002666D01*
X131572000Y-105905904D01*
X131620380Y-105857523D01*
X131717142Y-105809142D01*
X131862285Y-105809142D01*
X131959047Y-105857523D01*
X132007428Y-105905904D01*
X132055809Y-106002666D01*
X132055809Y-106389714D01*
X132539619Y-105373714D02*
X131523619Y-105373714D01*
X132539619Y-104744761D02*
X132491238Y-104841523D01*
X132442857Y-104889904D01*
X132346095Y-104938285D01*
X132055809Y-104938285D01*
X131959047Y-104889904D01*
X131910666Y-104841523D01*
X131862285Y-104744761D01*
X131862285Y-104599619D01*
X131910666Y-104502857D01*
X131959047Y-104454476D01*
X132055809Y-104406095D01*
X132346095Y-104406095D01*
X132442857Y-104454476D01*
X132491238Y-104502857D01*
X132539619Y-104599619D01*
X132539619Y-104744761D01*
X131862285Y-103535238D02*
X132539619Y-103535238D01*
X131862285Y-103970666D02*
X132394476Y-103970666D01*
X132491238Y-103922285D01*
X132539619Y-103825523D01*
X132539619Y-103680380D01*
X132491238Y-103583619D01*
X132442857Y-103535238D01*
X131862285Y-103196571D02*
X131862285Y-102809523D01*
X131523619Y-103051428D02*
X132394476Y-103051428D01*
X132491238Y-103003047D01*
X132539619Y-102906285D01*
X132539619Y-102809523D01*
X140413619Y-118303523D02*
X139397619Y-118303523D01*
X140413619Y-117722952D02*
X139833047Y-118158380D01*
X139397619Y-117722952D02*
X139978190Y-118303523D01*
X139494380Y-117335904D02*
X139446000Y-117287523D01*
X139397619Y-117190761D01*
X139397619Y-116948857D01*
X139446000Y-116852095D01*
X139494380Y-116803714D01*
X139591142Y-116755333D01*
X139687904Y-116755333D01*
X139833047Y-116803714D01*
X140413619Y-117384285D01*
X140413619Y-116755333D01*
X139397619Y-116126380D02*
X139397619Y-116029619D01*
X139446000Y-115932857D01*
X139494380Y-115884476D01*
X139591142Y-115836095D01*
X139784666Y-115787714D01*
X140026571Y-115787714D01*
X140220095Y-115836095D01*
X140316857Y-115884476D01*
X140365238Y-115932857D01*
X140413619Y-116029619D01*
X140413619Y-116126380D01*
X140365238Y-116223142D01*
X140316857Y-116271523D01*
X140220095Y-116319904D01*
X140026571Y-116368285D01*
X139784666Y-116368285D01*
X139591142Y-116319904D01*
X139494380Y-116271523D01*
X139446000Y-116223142D01*
X139397619Y-116126380D01*
X139397619Y-115449047D02*
X139397619Y-114820095D01*
X139784666Y-115158761D01*
X139784666Y-115013619D01*
X139833047Y-114916857D01*
X139881428Y-114868476D01*
X139978190Y-114820095D01*
X140220095Y-114820095D01*
X140316857Y-114868476D01*
X140365238Y-114916857D01*
X140413619Y-115013619D01*
X140413619Y-115303904D01*
X140365238Y-115400666D01*
X140316857Y-115449047D01*
X132491238Y-116041714D02*
X132539619Y-115896571D01*
X132539619Y-115654666D01*
X132491238Y-115557904D01*
X132442857Y-115509523D01*
X132346095Y-115461142D01*
X132249333Y-115461142D01*
X132152571Y-115509523D01*
X132104190Y-115557904D01*
X132055809Y-115654666D01*
X132007428Y-115848190D01*
X131959047Y-115944952D01*
X131910666Y-115993333D01*
X131813904Y-116041714D01*
X131717142Y-116041714D01*
X131620380Y-115993333D01*
X131572000Y-115944952D01*
X131523619Y-115848190D01*
X131523619Y-115606285D01*
X131572000Y-115461142D01*
X132539619Y-115025714D02*
X131523619Y-115025714D01*
X131523619Y-114638666D01*
X131572000Y-114541904D01*
X131620380Y-114493523D01*
X131717142Y-114445142D01*
X131862285Y-114445142D01*
X131959047Y-114493523D01*
X132007428Y-114541904D01*
X132055809Y-114638666D01*
X132055809Y-115025714D01*
X132539619Y-114009714D02*
X131523619Y-114009714D01*
X132539619Y-113525904D02*
X131862285Y-113525904D01*
X131523619Y-113525904D02*
X131572000Y-113574285D01*
X131620380Y-113525904D01*
X131572000Y-113477523D01*
X131523619Y-113525904D01*
X131620380Y-113525904D01*
X131862285Y-113042095D02*
X132539619Y-113042095D01*
X131959047Y-113042095D02*
X131910666Y-112993714D01*
X131862285Y-112896952D01*
X131862285Y-112751809D01*
X131910666Y-112655047D01*
X132007428Y-112606666D01*
X132539619Y-112606666D01*
D11*
X150927404Y-96299261D02*
X150625023Y-96299261D01*
X150625023Y-95664261D01*
X151108833Y-95724738D02*
X151139071Y-95694500D01*
X151199547Y-95664261D01*
X151350738Y-95664261D01*
X151411214Y-95694500D01*
X151441452Y-95724738D01*
X151471690Y-95785214D01*
X151471690Y-95845690D01*
X151441452Y-95936404D01*
X151078595Y-96299261D01*
X151471690Y-96299261D01*
X151864785Y-95664261D02*
X151925261Y-95664261D01*
X151985738Y-95694500D01*
X152015976Y-95724738D01*
X152046214Y-95785214D01*
X152076452Y-95906166D01*
X152076452Y-96057357D01*
X152046214Y-96178309D01*
X152015976Y-96238785D01*
X151985738Y-96269023D01*
X151925261Y-96299261D01*
X151864785Y-96299261D01*
X151804309Y-96269023D01*
X151774071Y-96238785D01*
X151743833Y-96178309D01*
X151713595Y-96057357D01*
X151713595Y-95906166D01*
X151743833Y-95785214D01*
X151774071Y-95724738D01*
X151804309Y-95694500D01*
X151864785Y-95664261D01*
X152681214Y-96299261D02*
X152318357Y-96299261D01*
X152499785Y-96299261D02*
X152499785Y-95664261D01*
X152439309Y-95754976D01*
X152378833Y-95815452D01*
X152318357Y-95845690D01*
D16*
X146521714Y-133005285D02*
X146449142Y-132969000D01*
X146376571Y-132896428D01*
X146267714Y-132787571D01*
X146195142Y-132751285D01*
X146122571Y-132751285D01*
X146158857Y-132932714D02*
X146086285Y-132896428D01*
X146013714Y-132823857D01*
X145977428Y-132678714D01*
X145977428Y-132424714D01*
X146013714Y-132279571D01*
X146086285Y-132207000D01*
X146158857Y-132170714D01*
X146304000Y-132170714D01*
X146376571Y-132207000D01*
X146449142Y-132279571D01*
X146485428Y-132424714D01*
X146485428Y-132678714D01*
X146449142Y-132823857D01*
X146376571Y-132896428D01*
X146304000Y-132932714D01*
X146158857Y-132932714D01*
X146775714Y-132243285D02*
X146812000Y-132207000D01*
X146884571Y-132170714D01*
X147066000Y-132170714D01*
X147138571Y-132207000D01*
X147174857Y-132243285D01*
X147211142Y-132315857D01*
X147211142Y-132388428D01*
X147174857Y-132497285D01*
X146739428Y-132932714D01*
X147211142Y-132932714D01*
X147682857Y-132170714D02*
X147755428Y-132170714D01*
X147828000Y-132207000D01*
X147864285Y-132243285D01*
X147900571Y-132315857D01*
X147936857Y-132461000D01*
X147936857Y-132642428D01*
X147900571Y-132787571D01*
X147864285Y-132860142D01*
X147828000Y-132896428D01*
X147755428Y-132932714D01*
X147682857Y-132932714D01*
X147610285Y-132896428D01*
X147574000Y-132860142D01*
X147537714Y-132787571D01*
X147501428Y-132642428D01*
X147501428Y-132461000D01*
X147537714Y-132315857D01*
X147574000Y-132243285D01*
X147610285Y-132207000D01*
X147682857Y-132170714D01*
X148662571Y-132932714D02*
X148227142Y-132932714D01*
X148444857Y-132932714D02*
X148444857Y-132170714D01*
X148372285Y-132279571D01*
X148299714Y-132352142D01*
X148227142Y-132388428D01*
D11*
X144069404Y-95029261D02*
X143857738Y-94726880D01*
X143706547Y-95029261D02*
X143706547Y-94394261D01*
X143948452Y-94394261D01*
X144008928Y-94424500D01*
X144039166Y-94454738D01*
X144069404Y-94515214D01*
X144069404Y-94605928D01*
X144039166Y-94666404D01*
X144008928Y-94696642D01*
X143948452Y-94726880D01*
X143706547Y-94726880D01*
X144674166Y-95029261D02*
X144311309Y-95029261D01*
X144492738Y-95029261D02*
X144492738Y-94394261D01*
X144432261Y-94484976D01*
X144371785Y-94545452D01*
X144311309Y-94575690D01*
X145067261Y-94394261D02*
X145127738Y-94394261D01*
X145188214Y-94424500D01*
X145218452Y-94454738D01*
X145248690Y-94515214D01*
X145278928Y-94636166D01*
X145278928Y-94787357D01*
X145248690Y-94908309D01*
X145218452Y-94968785D01*
X145188214Y-94999023D01*
X145127738Y-95029261D01*
X145067261Y-95029261D01*
X145006785Y-94999023D01*
X144976547Y-94968785D01*
X144946309Y-94908309D01*
X144916071Y-94787357D01*
X144916071Y-94636166D01*
X144946309Y-94515214D01*
X144976547Y-94454738D01*
X145006785Y-94424500D01*
X145067261Y-94394261D01*
X145490595Y-94394261D02*
X145883690Y-94394261D01*
X145672023Y-94636166D01*
X145762738Y-94636166D01*
X145823214Y-94666404D01*
X145853452Y-94696642D01*
X145883690Y-94757119D01*
X145883690Y-94908309D01*
X145853452Y-94968785D01*
X145823214Y-94999023D01*
X145762738Y-95029261D01*
X145581309Y-95029261D01*
X145520833Y-94999023D01*
X145490595Y-94968785D01*
X148895404Y-125763261D02*
X148683738Y-125460880D01*
X148532547Y-125763261D02*
X148532547Y-125128261D01*
X148774452Y-125128261D01*
X148834928Y-125158500D01*
X148865166Y-125188738D01*
X148895404Y-125249214D01*
X148895404Y-125339928D01*
X148865166Y-125400404D01*
X148834928Y-125430642D01*
X148774452Y-125460880D01*
X148532547Y-125460880D01*
X149137309Y-125188738D02*
X149167547Y-125158500D01*
X149228023Y-125128261D01*
X149379214Y-125128261D01*
X149439690Y-125158500D01*
X149469928Y-125188738D01*
X149500166Y-125249214D01*
X149500166Y-125309690D01*
X149469928Y-125400404D01*
X149107071Y-125763261D01*
X149500166Y-125763261D01*
X149893261Y-125128261D02*
X149953738Y-125128261D01*
X150014214Y-125158500D01*
X150044452Y-125188738D01*
X150074690Y-125249214D01*
X150104928Y-125370166D01*
X150104928Y-125521357D01*
X150074690Y-125642309D01*
X150044452Y-125702785D01*
X150014214Y-125733023D01*
X149953738Y-125763261D01*
X149893261Y-125763261D01*
X149832785Y-125733023D01*
X149802547Y-125702785D01*
X149772309Y-125642309D01*
X149742071Y-125521357D01*
X149742071Y-125370166D01*
X149772309Y-125249214D01*
X149802547Y-125188738D01*
X149832785Y-125158500D01*
X149893261Y-125128261D01*
X150709690Y-125763261D02*
X150346833Y-125763261D01*
X150528261Y-125763261D02*
X150528261Y-125128261D01*
X150467785Y-125218976D01*
X150407309Y-125279452D01*
X150346833Y-125309690D01*
X151689404Y-125763261D02*
X151477738Y-125460880D01*
X151326547Y-125763261D02*
X151326547Y-125128261D01*
X151568452Y-125128261D01*
X151628928Y-125158500D01*
X151659166Y-125188738D01*
X151689404Y-125249214D01*
X151689404Y-125339928D01*
X151659166Y-125400404D01*
X151628928Y-125430642D01*
X151568452Y-125460880D01*
X151326547Y-125460880D01*
X151931309Y-125188738D02*
X151961547Y-125158500D01*
X152022023Y-125128261D01*
X152173214Y-125128261D01*
X152233690Y-125158500D01*
X152263928Y-125188738D01*
X152294166Y-125249214D01*
X152294166Y-125309690D01*
X152263928Y-125400404D01*
X151901071Y-125763261D01*
X152294166Y-125763261D01*
X152687261Y-125128261D02*
X152747738Y-125128261D01*
X152808214Y-125158500D01*
X152838452Y-125188738D01*
X152868690Y-125249214D01*
X152898928Y-125370166D01*
X152898928Y-125521357D01*
X152868690Y-125642309D01*
X152838452Y-125702785D01*
X152808214Y-125733023D01*
X152747738Y-125763261D01*
X152687261Y-125763261D01*
X152626785Y-125733023D01*
X152596547Y-125702785D01*
X152566309Y-125642309D01*
X152536071Y-125521357D01*
X152536071Y-125370166D01*
X152566309Y-125249214D01*
X152596547Y-125188738D01*
X152626785Y-125158500D01*
X152687261Y-125128261D01*
X153140833Y-125188738D02*
X153171071Y-125158500D01*
X153231547Y-125128261D01*
X153382738Y-125128261D01*
X153443214Y-125158500D01*
X153473452Y-125188738D01*
X153503690Y-125249214D01*
X153503690Y-125309690D01*
X153473452Y-125400404D01*
X153110595Y-125763261D01*
X153503690Y-125763261D01*
X142291404Y-126271261D02*
X142079738Y-125968880D01*
X141928547Y-126271261D02*
X141928547Y-125636261D01*
X142170452Y-125636261D01*
X142230928Y-125666500D01*
X142261166Y-125696738D01*
X142291404Y-125757214D01*
X142291404Y-125847928D01*
X142261166Y-125908404D01*
X142230928Y-125938642D01*
X142170452Y-125968880D01*
X141928547Y-125968880D01*
X142533309Y-125696738D02*
X142563547Y-125666500D01*
X142624023Y-125636261D01*
X142775214Y-125636261D01*
X142835690Y-125666500D01*
X142865928Y-125696738D01*
X142896166Y-125757214D01*
X142896166Y-125817690D01*
X142865928Y-125908404D01*
X142503071Y-126271261D01*
X142896166Y-126271261D01*
X143289261Y-125636261D02*
X143349738Y-125636261D01*
X143410214Y-125666500D01*
X143440452Y-125696738D01*
X143470690Y-125757214D01*
X143500928Y-125878166D01*
X143500928Y-126029357D01*
X143470690Y-126150309D01*
X143440452Y-126210785D01*
X143410214Y-126241023D01*
X143349738Y-126271261D01*
X143289261Y-126271261D01*
X143228785Y-126241023D01*
X143198547Y-126210785D01*
X143168309Y-126150309D01*
X143138071Y-126029357D01*
X143138071Y-125878166D01*
X143168309Y-125757214D01*
X143198547Y-125696738D01*
X143228785Y-125666500D01*
X143289261Y-125636261D01*
X143712595Y-125636261D02*
X144105690Y-125636261D01*
X143894023Y-125878166D01*
X143984738Y-125878166D01*
X144045214Y-125908404D01*
X144075452Y-125938642D01*
X144105690Y-125999119D01*
X144105690Y-126150309D01*
X144075452Y-126210785D01*
X144045214Y-126241023D01*
X143984738Y-126271261D01*
X143803309Y-126271261D01*
X143742833Y-126241023D01*
X143712595Y-126210785D01*
X142291404Y-128557261D02*
X142079738Y-128254880D01*
X141928547Y-128557261D02*
X141928547Y-127922261D01*
X142170452Y-127922261D01*
X142230928Y-127952500D01*
X142261166Y-127982738D01*
X142291404Y-128043214D01*
X142291404Y-128133928D01*
X142261166Y-128194404D01*
X142230928Y-128224642D01*
X142170452Y-128254880D01*
X141928547Y-128254880D01*
X142533309Y-127982738D02*
X142563547Y-127952500D01*
X142624023Y-127922261D01*
X142775214Y-127922261D01*
X142835690Y-127952500D01*
X142865928Y-127982738D01*
X142896166Y-128043214D01*
X142896166Y-128103690D01*
X142865928Y-128194404D01*
X142503071Y-128557261D01*
X142896166Y-128557261D01*
X143289261Y-127922261D02*
X143349738Y-127922261D01*
X143410214Y-127952500D01*
X143440452Y-127982738D01*
X143470690Y-128043214D01*
X143500928Y-128164166D01*
X143500928Y-128315357D01*
X143470690Y-128436309D01*
X143440452Y-128496785D01*
X143410214Y-128527023D01*
X143349738Y-128557261D01*
X143289261Y-128557261D01*
X143228785Y-128527023D01*
X143198547Y-128496785D01*
X143168309Y-128436309D01*
X143138071Y-128315357D01*
X143138071Y-128164166D01*
X143168309Y-128043214D01*
X143198547Y-127982738D01*
X143228785Y-127952500D01*
X143289261Y-127922261D01*
X144045214Y-128133928D02*
X144045214Y-128557261D01*
X143894023Y-127892023D02*
X143742833Y-128345595D01*
X144135928Y-128345595D01*
X142291404Y-123731261D02*
X142079738Y-123428880D01*
X141928547Y-123731261D02*
X141928547Y-123096261D01*
X142170452Y-123096261D01*
X142230928Y-123126500D01*
X142261166Y-123156738D01*
X142291404Y-123217214D01*
X142291404Y-123307928D01*
X142261166Y-123368404D01*
X142230928Y-123398642D01*
X142170452Y-123428880D01*
X141928547Y-123428880D01*
X142533309Y-123156738D02*
X142563547Y-123126500D01*
X142624023Y-123096261D01*
X142775214Y-123096261D01*
X142835690Y-123126500D01*
X142865928Y-123156738D01*
X142896166Y-123217214D01*
X142896166Y-123277690D01*
X142865928Y-123368404D01*
X142503071Y-123731261D01*
X142896166Y-123731261D01*
X143289261Y-123096261D02*
X143349738Y-123096261D01*
X143410214Y-123126500D01*
X143440452Y-123156738D01*
X143470690Y-123217214D01*
X143500928Y-123338166D01*
X143500928Y-123489357D01*
X143470690Y-123610309D01*
X143440452Y-123670785D01*
X143410214Y-123701023D01*
X143349738Y-123731261D01*
X143289261Y-123731261D01*
X143228785Y-123701023D01*
X143198547Y-123670785D01*
X143168309Y-123610309D01*
X143138071Y-123489357D01*
X143138071Y-123338166D01*
X143168309Y-123217214D01*
X143198547Y-123156738D01*
X143228785Y-123126500D01*
X143289261Y-123096261D01*
X144075452Y-123096261D02*
X143773071Y-123096261D01*
X143742833Y-123398642D01*
X143773071Y-123368404D01*
X143833547Y-123338166D01*
X143984738Y-123338166D01*
X144045214Y-123368404D01*
X144075452Y-123398642D01*
X144105690Y-123459119D01*
X144105690Y-123610309D01*
X144075452Y-123670785D01*
X144045214Y-123701023D01*
X143984738Y-123731261D01*
X143833547Y-123731261D01*
X143773071Y-123701023D01*
X143742833Y-123670785D01*
D10*
X112877285Y-138370428D02*
X112369285Y-137644714D01*
X112006428Y-138370428D02*
X112006428Y-136846428D01*
X112587000Y-136846428D01*
X112732142Y-136919000D01*
X112804714Y-136991571D01*
X112877285Y-137136714D01*
X112877285Y-137354428D01*
X112804714Y-137499571D01*
X112732142Y-137572142D01*
X112587000Y-137644714D01*
X112006428Y-137644714D01*
X113530428Y-137572142D02*
X114038428Y-137572142D01*
X114256142Y-138370428D02*
X113530428Y-138370428D01*
X113530428Y-136846428D01*
X114256142Y-136846428D01*
X115635000Y-138370428D02*
X114909285Y-138370428D01*
X114909285Y-136846428D01*
X116941285Y-138370428D02*
X116070428Y-138370428D01*
X116505857Y-138370428D02*
X116505857Y-136846428D01*
X116360714Y-137064142D01*
X116215571Y-137209285D01*
X116070428Y-137281857D01*
X117884714Y-136846428D02*
X118029857Y-136846428D01*
X118175000Y-136919000D01*
X118247571Y-136991571D01*
X118320142Y-137136714D01*
X118392714Y-137427000D01*
X118392714Y-137789857D01*
X118320142Y-138080142D01*
X118247571Y-138225285D01*
X118175000Y-138297857D01*
X118029857Y-138370428D01*
X117884714Y-138370428D01*
X117739571Y-138297857D01*
X117667000Y-138225285D01*
X117594428Y-138080142D01*
X117521857Y-137789857D01*
X117521857Y-137427000D01*
X117594428Y-137136714D01*
X117667000Y-136991571D01*
X117739571Y-136919000D01*
X117884714Y-136846428D01*
X119844142Y-138370428D02*
X118973285Y-138370428D01*
X119408714Y-138370428D02*
X119408714Y-136846428D01*
X119263571Y-137064142D01*
X119118428Y-137209285D01*
X118973285Y-137281857D01*
X87588285Y-137989428D02*
X87080285Y-137263714D01*
X86717428Y-137989428D02*
X86717428Y-136465428D01*
X87298000Y-136465428D01*
X87443142Y-136538000D01*
X87515714Y-136610571D01*
X87588285Y-136755714D01*
X87588285Y-136973428D01*
X87515714Y-137118571D01*
X87443142Y-137191142D01*
X87298000Y-137263714D01*
X86717428Y-137263714D01*
X88241428Y-137191142D02*
X88749428Y-137191142D01*
X88967142Y-137989428D02*
X88241428Y-137989428D01*
X88241428Y-136465428D01*
X88967142Y-136465428D01*
X90346000Y-137989428D02*
X89620285Y-137989428D01*
X89620285Y-136465428D01*
X91652285Y-137989428D02*
X90781428Y-137989428D01*
X91216857Y-137989428D02*
X91216857Y-136465428D01*
X91071714Y-136683142D01*
X90926571Y-136828285D01*
X90781428Y-136900857D01*
X92595714Y-136465428D02*
X92740857Y-136465428D01*
X92886000Y-136538000D01*
X92958571Y-136610571D01*
X93031142Y-136755714D01*
X93103714Y-137046000D01*
X93103714Y-137408857D01*
X93031142Y-137699142D01*
X92958571Y-137844285D01*
X92886000Y-137916857D01*
X92740857Y-137989428D01*
X92595714Y-137989428D01*
X92450571Y-137916857D01*
X92378000Y-137844285D01*
X92305428Y-137699142D01*
X92232857Y-137408857D01*
X92232857Y-137046000D01*
X92305428Y-136755714D01*
X92378000Y-136610571D01*
X92450571Y-136538000D01*
X92595714Y-136465428D01*
X93684285Y-136610571D02*
X93756857Y-136538000D01*
X93902000Y-136465428D01*
X94264857Y-136465428D01*
X94410000Y-136538000D01*
X94482571Y-136610571D01*
X94555142Y-136755714D01*
X94555142Y-136900857D01*
X94482571Y-137118571D01*
X93611714Y-137989428D01*
X94555142Y-137989428D01*
X86888285Y-125989428D02*
X86380285Y-125263714D01*
X86017428Y-125989428D02*
X86017428Y-124465428D01*
X86598000Y-124465428D01*
X86743142Y-124538000D01*
X86815714Y-124610571D01*
X86888285Y-124755714D01*
X86888285Y-124973428D01*
X86815714Y-125118571D01*
X86743142Y-125191142D01*
X86598000Y-125263714D01*
X86017428Y-125263714D01*
X87541428Y-125191142D02*
X88049428Y-125191142D01*
X88267142Y-125989428D02*
X87541428Y-125989428D01*
X87541428Y-124465428D01*
X88267142Y-124465428D01*
X89646000Y-125989428D02*
X88920285Y-125989428D01*
X88920285Y-124465428D01*
X90952285Y-125989428D02*
X90081428Y-125989428D01*
X90516857Y-125989428D02*
X90516857Y-124465428D01*
X90371714Y-124683142D01*
X90226571Y-124828285D01*
X90081428Y-124900857D01*
X91895714Y-124465428D02*
X92040857Y-124465428D01*
X92186000Y-124538000D01*
X92258571Y-124610571D01*
X92331142Y-124755714D01*
X92403714Y-125046000D01*
X92403714Y-125408857D01*
X92331142Y-125699142D01*
X92258571Y-125844285D01*
X92186000Y-125916857D01*
X92040857Y-125989428D01*
X91895714Y-125989428D01*
X91750571Y-125916857D01*
X91678000Y-125844285D01*
X91605428Y-125699142D01*
X91532857Y-125408857D01*
X91532857Y-125046000D01*
X91605428Y-124755714D01*
X91678000Y-124610571D01*
X91750571Y-124538000D01*
X91895714Y-124465428D01*
X92911714Y-124465428D02*
X93855142Y-124465428D01*
X93347142Y-125046000D01*
X93564857Y-125046000D01*
X93710000Y-125118571D01*
X93782571Y-125191142D01*
X93855142Y-125336285D01*
X93855142Y-125699142D01*
X93782571Y-125844285D01*
X93710000Y-125916857D01*
X93564857Y-125989428D01*
X93129428Y-125989428D01*
X92984285Y-125916857D01*
X92911714Y-125844285D01*
X86388285Y-113889428D02*
X85880285Y-113163714D01*
X85517428Y-113889428D02*
X85517428Y-112365428D01*
X86098000Y-112365428D01*
X86243142Y-112438000D01*
X86315714Y-112510571D01*
X86388285Y-112655714D01*
X86388285Y-112873428D01*
X86315714Y-113018571D01*
X86243142Y-113091142D01*
X86098000Y-113163714D01*
X85517428Y-113163714D01*
X87041428Y-113091142D02*
X87549428Y-113091142D01*
X87767142Y-113889428D02*
X87041428Y-113889428D01*
X87041428Y-112365428D01*
X87767142Y-112365428D01*
X89146000Y-113889428D02*
X88420285Y-113889428D01*
X88420285Y-112365428D01*
X90452285Y-113889428D02*
X89581428Y-113889428D01*
X90016857Y-113889428D02*
X90016857Y-112365428D01*
X89871714Y-112583142D01*
X89726571Y-112728285D01*
X89581428Y-112800857D01*
X91395714Y-112365428D02*
X91540857Y-112365428D01*
X91686000Y-112438000D01*
X91758571Y-112510571D01*
X91831142Y-112655714D01*
X91903714Y-112946000D01*
X91903714Y-113308857D01*
X91831142Y-113599142D01*
X91758571Y-113744285D01*
X91686000Y-113816857D01*
X91540857Y-113889428D01*
X91395714Y-113889428D01*
X91250571Y-113816857D01*
X91178000Y-113744285D01*
X91105428Y-113599142D01*
X91032857Y-113308857D01*
X91032857Y-112946000D01*
X91105428Y-112655714D01*
X91178000Y-112510571D01*
X91250571Y-112438000D01*
X91395714Y-112365428D01*
X93210000Y-112873428D02*
X93210000Y-113889428D01*
X92847142Y-112292857D02*
X92484285Y-113381428D01*
X93427714Y-113381428D01*
X110288285Y-114189428D02*
X109780285Y-113463714D01*
X109417428Y-114189428D02*
X109417428Y-112665428D01*
X109998000Y-112665428D01*
X110143142Y-112738000D01*
X110215714Y-112810571D01*
X110288285Y-112955714D01*
X110288285Y-113173428D01*
X110215714Y-113318571D01*
X110143142Y-113391142D01*
X109998000Y-113463714D01*
X109417428Y-113463714D01*
X110941428Y-113391142D02*
X111449428Y-113391142D01*
X111667142Y-114189428D02*
X110941428Y-114189428D01*
X110941428Y-112665428D01*
X111667142Y-112665428D01*
X113046000Y-114189428D02*
X112320285Y-114189428D01*
X112320285Y-112665428D01*
X114352285Y-114189428D02*
X113481428Y-114189428D01*
X113916857Y-114189428D02*
X113916857Y-112665428D01*
X113771714Y-112883142D01*
X113626571Y-113028285D01*
X113481428Y-113100857D01*
X115295714Y-112665428D02*
X115440857Y-112665428D01*
X115586000Y-112738000D01*
X115658571Y-112810571D01*
X115731142Y-112955714D01*
X115803714Y-113246000D01*
X115803714Y-113608857D01*
X115731142Y-113899142D01*
X115658571Y-114044285D01*
X115586000Y-114116857D01*
X115440857Y-114189428D01*
X115295714Y-114189428D01*
X115150571Y-114116857D01*
X115078000Y-114044285D01*
X115005428Y-113899142D01*
X114932857Y-113608857D01*
X114932857Y-113246000D01*
X115005428Y-112955714D01*
X115078000Y-112810571D01*
X115150571Y-112738000D01*
X115295714Y-112665428D01*
X117182571Y-112665428D02*
X116456857Y-112665428D01*
X116384285Y-113391142D01*
X116456857Y-113318571D01*
X116602000Y-113246000D01*
X116964857Y-113246000D01*
X117110000Y-113318571D01*
X117182571Y-113391142D01*
X117255142Y-113536285D01*
X117255142Y-113899142D01*
X117182571Y-114044285D01*
X117110000Y-114116857D01*
X116964857Y-114189428D01*
X116602000Y-114189428D01*
X116456857Y-114116857D01*
X116384285Y-114044285D01*
X89588285Y-101789428D02*
X89080285Y-101063714D01*
X88717428Y-101789428D02*
X88717428Y-100265428D01*
X89298000Y-100265428D01*
X89443142Y-100338000D01*
X89515714Y-100410571D01*
X89588285Y-100555714D01*
X89588285Y-100773428D01*
X89515714Y-100918571D01*
X89443142Y-100991142D01*
X89298000Y-101063714D01*
X88717428Y-101063714D01*
X90241428Y-100991142D02*
X90749428Y-100991142D01*
X90967142Y-101789428D02*
X90241428Y-101789428D01*
X90241428Y-100265428D01*
X90967142Y-100265428D01*
X92346000Y-101789428D02*
X91620285Y-101789428D01*
X91620285Y-100265428D01*
X93652285Y-101789428D02*
X92781428Y-101789428D01*
X93216857Y-101789428D02*
X93216857Y-100265428D01*
X93071714Y-100483142D01*
X92926571Y-100628285D01*
X92781428Y-100700857D01*
X94595714Y-100265428D02*
X94740857Y-100265428D01*
X94886000Y-100338000D01*
X94958571Y-100410571D01*
X95031142Y-100555714D01*
X95103714Y-100846000D01*
X95103714Y-101208857D01*
X95031142Y-101499142D01*
X94958571Y-101644285D01*
X94886000Y-101716857D01*
X94740857Y-101789428D01*
X94595714Y-101789428D01*
X94450571Y-101716857D01*
X94378000Y-101644285D01*
X94305428Y-101499142D01*
X94232857Y-101208857D01*
X94232857Y-100846000D01*
X94305428Y-100555714D01*
X94378000Y-100410571D01*
X94450571Y-100338000D01*
X94595714Y-100265428D01*
X96410000Y-100265428D02*
X96119714Y-100265428D01*
X95974571Y-100338000D01*
X95902000Y-100410571D01*
X95756857Y-100628285D01*
X95684285Y-100918571D01*
X95684285Y-101499142D01*
X95756857Y-101644285D01*
X95829428Y-101716857D01*
X95974571Y-101789428D01*
X96264857Y-101789428D01*
X96410000Y-101716857D01*
X96482571Y-101644285D01*
X96555142Y-101499142D01*
X96555142Y-101136285D01*
X96482571Y-100991142D01*
X96410000Y-100918571D01*
X96264857Y-100846000D01*
X95974571Y-100846000D01*
X95829428Y-100918571D01*
X95756857Y-100991142D01*
X95684285Y-101136285D01*
X111788285Y-101989428D02*
X111280285Y-101263714D01*
X110917428Y-101989428D02*
X110917428Y-100465428D01*
X111498000Y-100465428D01*
X111643142Y-100538000D01*
X111715714Y-100610571D01*
X111788285Y-100755714D01*
X111788285Y-100973428D01*
X111715714Y-101118571D01*
X111643142Y-101191142D01*
X111498000Y-101263714D01*
X110917428Y-101263714D01*
X112441428Y-101191142D02*
X112949428Y-101191142D01*
X113167142Y-101989428D02*
X112441428Y-101989428D01*
X112441428Y-100465428D01*
X113167142Y-100465428D01*
X114546000Y-101989428D02*
X113820285Y-101989428D01*
X113820285Y-100465428D01*
X115852285Y-101989428D02*
X114981428Y-101989428D01*
X115416857Y-101989428D02*
X115416857Y-100465428D01*
X115271714Y-100683142D01*
X115126571Y-100828285D01*
X114981428Y-100900857D01*
X116795714Y-100465428D02*
X116940857Y-100465428D01*
X117086000Y-100538000D01*
X117158571Y-100610571D01*
X117231142Y-100755714D01*
X117303714Y-101046000D01*
X117303714Y-101408857D01*
X117231142Y-101699142D01*
X117158571Y-101844285D01*
X117086000Y-101916857D01*
X116940857Y-101989428D01*
X116795714Y-101989428D01*
X116650571Y-101916857D01*
X116578000Y-101844285D01*
X116505428Y-101699142D01*
X116432857Y-101408857D01*
X116432857Y-101046000D01*
X116505428Y-100755714D01*
X116578000Y-100610571D01*
X116650571Y-100538000D01*
X116795714Y-100465428D01*
X117811714Y-100465428D02*
X118827714Y-100465428D01*
X118174571Y-101989428D01*
X111388285Y-125489428D02*
X110880285Y-124763714D01*
X110517428Y-125489428D02*
X110517428Y-123965428D01*
X111098000Y-123965428D01*
X111243142Y-124038000D01*
X111315714Y-124110571D01*
X111388285Y-124255714D01*
X111388285Y-124473428D01*
X111315714Y-124618571D01*
X111243142Y-124691142D01*
X111098000Y-124763714D01*
X110517428Y-124763714D01*
X112041428Y-124691142D02*
X112549428Y-124691142D01*
X112767142Y-125489428D02*
X112041428Y-125489428D01*
X112041428Y-123965428D01*
X112767142Y-123965428D01*
X114146000Y-125489428D02*
X113420285Y-125489428D01*
X113420285Y-123965428D01*
X115452285Y-125489428D02*
X114581428Y-125489428D01*
X115016857Y-125489428D02*
X115016857Y-123965428D01*
X114871714Y-124183142D01*
X114726571Y-124328285D01*
X114581428Y-124400857D01*
X116395714Y-123965428D02*
X116540857Y-123965428D01*
X116686000Y-124038000D01*
X116758571Y-124110571D01*
X116831142Y-124255714D01*
X116903714Y-124546000D01*
X116903714Y-124908857D01*
X116831142Y-125199142D01*
X116758571Y-125344285D01*
X116686000Y-125416857D01*
X116540857Y-125489428D01*
X116395714Y-125489428D01*
X116250571Y-125416857D01*
X116178000Y-125344285D01*
X116105428Y-125199142D01*
X116032857Y-124908857D01*
X116032857Y-124546000D01*
X116105428Y-124255714D01*
X116178000Y-124110571D01*
X116250571Y-124038000D01*
X116395714Y-123965428D01*
X117774571Y-124618571D02*
X117629428Y-124546000D01*
X117556857Y-124473428D01*
X117484285Y-124328285D01*
X117484285Y-124255714D01*
X117556857Y-124110571D01*
X117629428Y-124038000D01*
X117774571Y-123965428D01*
X118064857Y-123965428D01*
X118210000Y-124038000D01*
X118282571Y-124110571D01*
X118355142Y-124255714D01*
X118355142Y-124328285D01*
X118282571Y-124473428D01*
X118210000Y-124546000D01*
X118064857Y-124618571D01*
X117774571Y-124618571D01*
X117629428Y-124691142D01*
X117556857Y-124763714D01*
X117484285Y-124908857D01*
X117484285Y-125199142D01*
X117556857Y-125344285D01*
X117629428Y-125416857D01*
X117774571Y-125489428D01*
X118064857Y-125489428D01*
X118210000Y-125416857D01*
X118282571Y-125344285D01*
X118355142Y-125199142D01*
X118355142Y-124908857D01*
X118282571Y-124763714D01*
X118210000Y-124691142D01*
X118064857Y-124618571D01*
X87788285Y-89989428D02*
X87280285Y-89263714D01*
X86917428Y-89989428D02*
X86917428Y-88465428D01*
X87498000Y-88465428D01*
X87643142Y-88538000D01*
X87715714Y-88610571D01*
X87788285Y-88755714D01*
X87788285Y-88973428D01*
X87715714Y-89118571D01*
X87643142Y-89191142D01*
X87498000Y-89263714D01*
X86917428Y-89263714D01*
X88441428Y-89191142D02*
X88949428Y-89191142D01*
X89167142Y-89989428D02*
X88441428Y-89989428D01*
X88441428Y-88465428D01*
X89167142Y-88465428D01*
X90546000Y-89989428D02*
X89820285Y-89989428D01*
X89820285Y-88465428D01*
X91852285Y-89989428D02*
X90981428Y-89989428D01*
X91416857Y-89989428D02*
X91416857Y-88465428D01*
X91271714Y-88683142D01*
X91126571Y-88828285D01*
X90981428Y-88900857D01*
X92795714Y-88465428D02*
X92940857Y-88465428D01*
X93086000Y-88538000D01*
X93158571Y-88610571D01*
X93231142Y-88755714D01*
X93303714Y-89046000D01*
X93303714Y-89408857D01*
X93231142Y-89699142D01*
X93158571Y-89844285D01*
X93086000Y-89916857D01*
X92940857Y-89989428D01*
X92795714Y-89989428D01*
X92650571Y-89916857D01*
X92578000Y-89844285D01*
X92505428Y-89699142D01*
X92432857Y-89408857D01*
X92432857Y-89046000D01*
X92505428Y-88755714D01*
X92578000Y-88610571D01*
X92650571Y-88538000D01*
X92795714Y-88465428D01*
X94029428Y-89989428D02*
X94319714Y-89989428D01*
X94464857Y-89916857D01*
X94537428Y-89844285D01*
X94682571Y-89626571D01*
X94755142Y-89336285D01*
X94755142Y-88755714D01*
X94682571Y-88610571D01*
X94610000Y-88538000D01*
X94464857Y-88465428D01*
X94174571Y-88465428D01*
X94029428Y-88538000D01*
X93956857Y-88610571D01*
X93884285Y-88755714D01*
X93884285Y-89118571D01*
X93956857Y-89263714D01*
X94029428Y-89336285D01*
X94174571Y-89408857D01*
X94464857Y-89408857D01*
X94610000Y-89336285D01*
X94682571Y-89263714D01*
X94755142Y-89118571D01*
X111188285Y-89989428D02*
X110680285Y-89263714D01*
X110317428Y-89989428D02*
X110317428Y-88465428D01*
X110898000Y-88465428D01*
X111043142Y-88538000D01*
X111115714Y-88610571D01*
X111188285Y-88755714D01*
X111188285Y-88973428D01*
X111115714Y-89118571D01*
X111043142Y-89191142D01*
X110898000Y-89263714D01*
X110317428Y-89263714D01*
X111841428Y-89191142D02*
X112349428Y-89191142D01*
X112567142Y-89989428D02*
X111841428Y-89989428D01*
X111841428Y-88465428D01*
X112567142Y-88465428D01*
X113946000Y-89989428D02*
X113220285Y-89989428D01*
X113220285Y-88465428D01*
X115252285Y-89989428D02*
X114381428Y-89989428D01*
X114816857Y-89989428D02*
X114816857Y-88465428D01*
X114671714Y-88683142D01*
X114526571Y-88828285D01*
X114381428Y-88900857D01*
X116703714Y-89989428D02*
X115832857Y-89989428D01*
X116268285Y-89989428D02*
X116268285Y-88465428D01*
X116123142Y-88683142D01*
X115978000Y-88828285D01*
X115832857Y-88900857D01*
X117647142Y-88465428D02*
X117792285Y-88465428D01*
X117937428Y-88538000D01*
X118010000Y-88610571D01*
X118082571Y-88755714D01*
X118155142Y-89046000D01*
X118155142Y-89408857D01*
X118082571Y-89699142D01*
X118010000Y-89844285D01*
X117937428Y-89916857D01*
X117792285Y-89989428D01*
X117647142Y-89989428D01*
X117502000Y-89916857D01*
X117429428Y-89844285D01*
X117356857Y-89699142D01*
X117284285Y-89408857D01*
X117284285Y-89046000D01*
X117356857Y-88755714D01*
X117429428Y-88610571D01*
X117502000Y-88538000D01*
X117647142Y-88465428D01*
X149989428Y-69511714D02*
X149263714Y-70019714D01*
X149989428Y-70382571D02*
X148465428Y-70382571D01*
X148465428Y-69802000D01*
X148538000Y-69656857D01*
X148610571Y-69584285D01*
X148755714Y-69511714D01*
X148973428Y-69511714D01*
X149118571Y-69584285D01*
X149191142Y-69656857D01*
X149263714Y-69802000D01*
X149263714Y-70382571D01*
X149191142Y-68858571D02*
X149191142Y-68350571D01*
X149989428Y-68132857D02*
X149989428Y-68858571D01*
X148465428Y-68858571D01*
X148465428Y-68132857D01*
X149989428Y-66754000D02*
X149989428Y-67479714D01*
X148465428Y-67479714D01*
X149989428Y-65447714D02*
X149989428Y-66318571D01*
X149989428Y-65883142D02*
X148465428Y-65883142D01*
X148683142Y-66028285D01*
X148828285Y-66173428D01*
X148900857Y-66318571D01*
X149989428Y-63996285D02*
X149989428Y-64867142D01*
X149989428Y-64431714D02*
X148465428Y-64431714D01*
X148683142Y-64576857D01*
X148828285Y-64722000D01*
X148900857Y-64867142D01*
X149989428Y-62544857D02*
X149989428Y-63415714D01*
X149989428Y-62980285D02*
X148465428Y-62980285D01*
X148683142Y-63125428D01*
X148828285Y-63270571D01*
X148900857Y-63415714D01*
X137189428Y-68611714D02*
X136463714Y-69119714D01*
X137189428Y-69482571D02*
X135665428Y-69482571D01*
X135665428Y-68902000D01*
X135738000Y-68756857D01*
X135810571Y-68684285D01*
X135955714Y-68611714D01*
X136173428Y-68611714D01*
X136318571Y-68684285D01*
X136391142Y-68756857D01*
X136463714Y-68902000D01*
X136463714Y-69482571D01*
X136391142Y-67958571D02*
X136391142Y-67450571D01*
X137189428Y-67232857D02*
X137189428Y-67958571D01*
X135665428Y-67958571D01*
X135665428Y-67232857D01*
X137189428Y-65854000D02*
X137189428Y-66579714D01*
X135665428Y-66579714D01*
X137189428Y-64547714D02*
X137189428Y-65418571D01*
X137189428Y-64983142D02*
X135665428Y-64983142D01*
X135883142Y-65128285D01*
X136028285Y-65273428D01*
X136100857Y-65418571D01*
X137189428Y-63096285D02*
X137189428Y-63967142D01*
X137189428Y-63531714D02*
X135665428Y-63531714D01*
X135883142Y-63676857D01*
X136028285Y-63822000D01*
X136100857Y-63967142D01*
X135810571Y-62515714D02*
X135738000Y-62443142D01*
X135665428Y-62298000D01*
X135665428Y-61935142D01*
X135738000Y-61790000D01*
X135810571Y-61717428D01*
X135955714Y-61644857D01*
X136100857Y-61644857D01*
X136318571Y-61717428D01*
X137189428Y-62588285D01*
X137189428Y-61644857D01*
X89088285Y-73989428D02*
X88580285Y-73263714D01*
X88217428Y-73989428D02*
X88217428Y-72465428D01*
X88798000Y-72465428D01*
X88943142Y-72538000D01*
X89015714Y-72610571D01*
X89088285Y-72755714D01*
X89088285Y-72973428D01*
X89015714Y-73118571D01*
X88943142Y-73191142D01*
X88798000Y-73263714D01*
X88217428Y-73263714D01*
X89741428Y-73191142D02*
X90249428Y-73191142D01*
X90467142Y-73989428D02*
X89741428Y-73989428D01*
X89741428Y-72465428D01*
X90467142Y-72465428D01*
X91846000Y-73989428D02*
X91120285Y-73989428D01*
X91120285Y-72465428D01*
X93152285Y-73989428D02*
X92281428Y-73989428D01*
X92716857Y-73989428D02*
X92716857Y-72465428D01*
X92571714Y-72683142D01*
X92426571Y-72828285D01*
X92281428Y-72900857D01*
X94603714Y-73989428D02*
X93732857Y-73989428D01*
X94168285Y-73989428D02*
X94168285Y-72465428D01*
X94023142Y-72683142D01*
X93878000Y-72828285D01*
X93732857Y-72900857D01*
X95111714Y-72465428D02*
X96055142Y-72465428D01*
X95547142Y-73046000D01*
X95764857Y-73046000D01*
X95910000Y-73118571D01*
X95982571Y-73191142D01*
X96055142Y-73336285D01*
X96055142Y-73699142D01*
X95982571Y-73844285D01*
X95910000Y-73916857D01*
X95764857Y-73989428D01*
X95329428Y-73989428D01*
X95184285Y-73916857D01*
X95111714Y-73844285D01*
X112588285Y-74089428D02*
X112080285Y-73363714D01*
X111717428Y-74089428D02*
X111717428Y-72565428D01*
X112298000Y-72565428D01*
X112443142Y-72638000D01*
X112515714Y-72710571D01*
X112588285Y-72855714D01*
X112588285Y-73073428D01*
X112515714Y-73218571D01*
X112443142Y-73291142D01*
X112298000Y-73363714D01*
X111717428Y-73363714D01*
X113241428Y-73291142D02*
X113749428Y-73291142D01*
X113967142Y-74089428D02*
X113241428Y-74089428D01*
X113241428Y-72565428D01*
X113967142Y-72565428D01*
X115346000Y-74089428D02*
X114620285Y-74089428D01*
X114620285Y-72565428D01*
X116652285Y-74089428D02*
X115781428Y-74089428D01*
X116216857Y-74089428D02*
X116216857Y-72565428D01*
X116071714Y-72783142D01*
X115926571Y-72928285D01*
X115781428Y-73000857D01*
X118103714Y-74089428D02*
X117232857Y-74089428D01*
X117668285Y-74089428D02*
X117668285Y-72565428D01*
X117523142Y-72783142D01*
X117378000Y-72928285D01*
X117232857Y-73000857D01*
X119410000Y-73073428D02*
X119410000Y-74089428D01*
X119047142Y-72492857D02*
X118684285Y-73581428D01*
X119627714Y-73581428D01*
X87688285Y-61789428D02*
X87180285Y-61063714D01*
X86817428Y-61789428D02*
X86817428Y-60265428D01*
X87398000Y-60265428D01*
X87543142Y-60338000D01*
X87615714Y-60410571D01*
X87688285Y-60555714D01*
X87688285Y-60773428D01*
X87615714Y-60918571D01*
X87543142Y-60991142D01*
X87398000Y-61063714D01*
X86817428Y-61063714D01*
X88341428Y-60991142D02*
X88849428Y-60991142D01*
X89067142Y-61789428D02*
X88341428Y-61789428D01*
X88341428Y-60265428D01*
X89067142Y-60265428D01*
X90446000Y-61789428D02*
X89720285Y-61789428D01*
X89720285Y-60265428D01*
X91752285Y-61789428D02*
X90881428Y-61789428D01*
X91316857Y-61789428D02*
X91316857Y-60265428D01*
X91171714Y-60483142D01*
X91026571Y-60628285D01*
X90881428Y-60700857D01*
X93203714Y-61789428D02*
X92332857Y-61789428D01*
X92768285Y-61789428D02*
X92768285Y-60265428D01*
X92623142Y-60483142D01*
X92478000Y-60628285D01*
X92332857Y-60700857D01*
X94582571Y-60265428D02*
X93856857Y-60265428D01*
X93784285Y-60991142D01*
X93856857Y-60918571D01*
X94002000Y-60846000D01*
X94364857Y-60846000D01*
X94510000Y-60918571D01*
X94582571Y-60991142D01*
X94655142Y-61136285D01*
X94655142Y-61499142D01*
X94582571Y-61644285D01*
X94510000Y-61716857D01*
X94364857Y-61789428D01*
X94002000Y-61789428D01*
X93856857Y-61716857D01*
X93784285Y-61644285D01*
X111888285Y-61989428D02*
X111380285Y-61263714D01*
X111017428Y-61989428D02*
X111017428Y-60465428D01*
X111598000Y-60465428D01*
X111743142Y-60538000D01*
X111815714Y-60610571D01*
X111888285Y-60755714D01*
X111888285Y-60973428D01*
X111815714Y-61118571D01*
X111743142Y-61191142D01*
X111598000Y-61263714D01*
X111017428Y-61263714D01*
X112541428Y-61191142D02*
X113049428Y-61191142D01*
X113267142Y-61989428D02*
X112541428Y-61989428D01*
X112541428Y-60465428D01*
X113267142Y-60465428D01*
X114646000Y-61989428D02*
X113920285Y-61989428D01*
X113920285Y-60465428D01*
X115952285Y-61989428D02*
X115081428Y-61989428D01*
X115516857Y-61989428D02*
X115516857Y-60465428D01*
X115371714Y-60683142D01*
X115226571Y-60828285D01*
X115081428Y-60900857D01*
X117403714Y-61989428D02*
X116532857Y-61989428D01*
X116968285Y-61989428D02*
X116968285Y-60465428D01*
X116823142Y-60683142D01*
X116678000Y-60828285D01*
X116532857Y-60900857D01*
X118710000Y-60465428D02*
X118419714Y-60465428D01*
X118274571Y-60538000D01*
X118202000Y-60610571D01*
X118056857Y-60828285D01*
X117984285Y-61118571D01*
X117984285Y-61699142D01*
X118056857Y-61844285D01*
X118129428Y-61916857D01*
X118274571Y-61989428D01*
X118564857Y-61989428D01*
X118710000Y-61916857D01*
X118782571Y-61844285D01*
X118855142Y-61699142D01*
X118855142Y-61336285D01*
X118782571Y-61191142D01*
X118710000Y-61118571D01*
X118564857Y-61046000D01*
X118274571Y-61046000D01*
X118129428Y-61118571D01*
X118056857Y-61191142D01*
X117984285Y-61336285D01*
D12*
X147102285Y-136476619D02*
X147102285Y-137299095D01*
X147150666Y-137395857D01*
X147199047Y-137444238D01*
X147295809Y-137492619D01*
X147489333Y-137492619D01*
X147586095Y-137444238D01*
X147634476Y-137395857D01*
X147682857Y-137299095D01*
X147682857Y-136476619D01*
X148698857Y-137492619D02*
X148118285Y-137492619D01*
X148408571Y-137492619D02*
X148408571Y-136476619D01*
X148311809Y-136621761D01*
X148215047Y-136718523D01*
X148118285Y-136766904D01*
X149327809Y-136476619D02*
X149424571Y-136476619D01*
X149521333Y-136525000D01*
X149569714Y-136573380D01*
X149618095Y-136670142D01*
X149666476Y-136863666D01*
X149666476Y-137105571D01*
X149618095Y-137299095D01*
X149569714Y-137395857D01*
X149521333Y-137444238D01*
X149424571Y-137492619D01*
X149327809Y-137492619D01*
X149231047Y-137444238D01*
X149182666Y-137395857D01*
X149134285Y-137299095D01*
X149085904Y-137105571D01*
X149085904Y-136863666D01*
X149134285Y-136670142D01*
X149182666Y-136573380D01*
X149231047Y-136525000D01*
X149327809Y-136476619D01*
X150634095Y-137492619D02*
X150053523Y-137492619D01*
X150343809Y-137492619D02*
X150343809Y-136476619D01*
X150247047Y-136621761D01*
X150150285Y-136718523D01*
X150053523Y-136766904D01*
X156276523Y-93943714D02*
X157304619Y-93943714D01*
X157425571Y-93895333D01*
X157486047Y-93846952D01*
X157546523Y-93750190D01*
X157546523Y-93556666D01*
X157486047Y-93459904D01*
X157425571Y-93411523D01*
X157304619Y-93363142D01*
X156276523Y-93363142D01*
X157546523Y-92347142D02*
X157546523Y-92927714D01*
X157546523Y-92637428D02*
X156276523Y-92637428D01*
X156457952Y-92734190D01*
X156578904Y-92830952D01*
X156639380Y-92927714D01*
X156276523Y-91718190D02*
X156276523Y-91621428D01*
X156337000Y-91524666D01*
X156397476Y-91476285D01*
X156518428Y-91427904D01*
X156760333Y-91379523D01*
X157062714Y-91379523D01*
X157304619Y-91427904D01*
X157425571Y-91476285D01*
X157486047Y-91524666D01*
X157546523Y-91621428D01*
X157546523Y-91718190D01*
X157486047Y-91814952D01*
X157425571Y-91863333D01*
X157304619Y-91911714D01*
X157062714Y-91960095D01*
X156760333Y-91960095D01*
X156518428Y-91911714D01*
X156397476Y-91863333D01*
X156337000Y-91814952D01*
X156276523Y-91718190D01*
X156397476Y-90992476D02*
X156337000Y-90944095D01*
X156276523Y-90847333D01*
X156276523Y-90605428D01*
X156337000Y-90508666D01*
X156397476Y-90460285D01*
X156518428Y-90411904D01*
X156639380Y-90411904D01*
X156820809Y-90460285D01*
X157546523Y-91040857D01*
X157546523Y-90411904D01*
D11*
X153597428Y-100236261D02*
X153597428Y-100750309D01*
X153627666Y-100810785D01*
X153657904Y-100841023D01*
X153718380Y-100871261D01*
X153839333Y-100871261D01*
X153899809Y-100841023D01*
X153930047Y-100810785D01*
X153960285Y-100750309D01*
X153960285Y-100236261D01*
X154232428Y-100296738D02*
X154262666Y-100266500D01*
X154323142Y-100236261D01*
X154474333Y-100236261D01*
X154534809Y-100266500D01*
X154565047Y-100296738D01*
X154595285Y-100357214D01*
X154595285Y-100417690D01*
X154565047Y-100508404D01*
X154202190Y-100871261D01*
X154595285Y-100871261D01*
X154988380Y-100236261D02*
X155048857Y-100236261D01*
X155109333Y-100266500D01*
X155139571Y-100296738D01*
X155169809Y-100357214D01*
X155200047Y-100478166D01*
X155200047Y-100629357D01*
X155169809Y-100750309D01*
X155139571Y-100810785D01*
X155109333Y-100841023D01*
X155048857Y-100871261D01*
X154988380Y-100871261D01*
X154927904Y-100841023D01*
X154897666Y-100810785D01*
X154867428Y-100750309D01*
X154837190Y-100629357D01*
X154837190Y-100478166D01*
X154867428Y-100357214D01*
X154897666Y-100296738D01*
X154927904Y-100266500D01*
X154988380Y-100236261D01*
X155804809Y-100871261D02*
X155441952Y-100871261D01*
X155623380Y-100871261D02*
X155623380Y-100236261D01*
X155562904Y-100326976D01*
X155502428Y-100387452D01*
X155441952Y-100417690D01*
M02*
