M48
; DRILL file {KiCad (5.1.5)-3} date 30.08.2021 19:37:21
; FORMAT={-:-/ absolute / inch / decimal}
; #@! TF.CreationDate,2021-08-30T19:37:21+02:00
; #@! TF.GenerationSoftware,Kicad,Pcbnew,(5.1.5)-3
; #@! TF.FileFunction,Plated,1,2,PTH
FMAT,2
INCH
T1C0.0250
T2C0.0320
T3C0.0354
T4C0.0591
T5C0.1260
%
G90
G05
T1
X3.8268Y-4.937
X3.9016Y-4.6575
X4.98Y-4.8
X4.99Y-4.59
X4.99Y-4.74
X5.0Y-5.07
X5.0157Y-3.878
X5.07Y-4.48
X5.07Y-5.07
X5.09Y-5.12
X5.1181Y-3.4409
X5.12Y-3.68
X5.17Y-4.48
X5.22Y-4.05
X5.22Y-4.19
X5.2244Y-3.3543
X5.25Y-3.58
X5.2559Y-2.8858
X5.28Y-3.38
X5.3Y-4.5
X5.31Y-3.52
X5.34Y-5.14
X5.35Y-4.71
X5.39Y-5.08
X5.49Y-5.0
X5.52Y-4.49
X5.622Y-2.9213
X5.73Y-4.26
X5.73Y-5.13
X5.76Y-3.42
X5.8Y-3.72
X5.8Y-4.03
X5.81Y-4.22
X5.84Y-4.18
X5.85Y-4.48
X5.87Y-4.14
X5.87Y-4.32
X5.91Y-4.1
X5.92Y-5.14
X5.96Y-4.26
X5.97Y-5.68
X5.97Y-5.81
X6.01Y-4.54
X6.09Y-3.22
X6.09Y-4.97
X6.14Y-3.92
X6.16Y-4.22
X6.18Y-3.33
T2
X5.52Y-5.495
X5.52Y-5.595
X5.735Y-5.595
X5.835Y-5.495
X5.835Y-5.595
T3
X6.3669Y-2.5236
X6.3669Y-2.6221
X6.3669Y-2.7205
X6.3669Y-2.8189
X6.3669Y-2.9173
X6.3669Y-3.0158
X6.3669Y-3.1142
X6.3669Y-3.2126
X6.3669Y-3.311
X6.3669Y-3.4095
X6.3669Y-3.5079
X6.3669Y-3.6063
X6.3669Y-3.7047
X6.3669Y-3.8032
X6.3669Y-3.9016
X6.3669Y-4.0
X6.3669Y-4.0984
X6.3669Y-4.1969
X6.3669Y-4.2953
X6.3669Y-4.3937
X6.3669Y-4.4921
X6.3669Y-4.5906
X6.3669Y-4.689
X6.3669Y-4.7874
X6.3669Y-4.8858
X6.3669Y-4.9843
X6.3669Y-5.0827
X6.3669Y-5.1811
X6.3669Y-5.2795
X6.3669Y-5.378
X6.3669Y-5.4764
X3.3114Y-2.7358
X3.3114Y-3.0358
X3.5114Y-2.7358
X3.5114Y-3.0358
X3.7114Y-2.7358
X3.7114Y-3.0358
X4.0114Y-2.7358
X4.0114Y-3.0358
X5.2201Y-2.335
X5.2201Y-2.535
X5.2201Y-2.735
X5.2201Y-3.035
X5.5201Y-2.335
X5.5201Y-2.535
X5.5201Y-2.735
X5.5201Y-3.035
X4.1776Y-2.2634
X4.1776Y-2.5634
X4.4776Y-2.2634
X4.4776Y-2.5634
X4.6776Y-2.2634
X4.6776Y-2.5634
X4.8776Y-2.2634
X4.8776Y-2.5634
X4.1776Y-2.7358
X4.1776Y-3.0358
X4.4776Y-2.7358
X4.4776Y-3.0358
X4.6776Y-2.7358
X4.6776Y-3.0358
X4.8776Y-2.7358
X4.8776Y-3.0358
X3.3114Y-2.2634
X3.3114Y-2.5634
X3.5114Y-2.2634
X3.5114Y-2.5634
X3.7114Y-2.2634
X3.7114Y-2.5634
X4.0114Y-2.2634
X4.0114Y-2.5634
X4.1776Y-3.3657
X4.1776Y-3.6657
X4.4776Y-3.3657
X4.4776Y-3.6657
X4.6776Y-3.3657
X4.6776Y-3.6657
X4.8776Y-3.3657
X4.8776Y-3.6657
X5.7161Y-2.335
X5.7161Y-2.535
X5.7161Y-2.735
X5.7161Y-3.035
X6.0161Y-2.335
X6.0161Y-2.535
X6.0161Y-2.735
X6.0161Y-3.035
X5.3Y-4.4
X5.3Y-4.5
X5.3Y-4.6
X5.4Y-4.4
X5.4Y-4.5
X5.4Y-4.6
X3.3114Y-5.2555
X3.3114Y-5.5555
X3.5114Y-5.2555
X3.5114Y-5.5555
X3.7114Y-5.2555
X3.7114Y-5.5555
X4.0114Y-5.2555
X4.0114Y-5.5555
X4.1776Y-3.8382
X4.1776Y-4.1382
X4.4776Y-3.8382
X4.4776Y-4.1382
X4.6776Y-3.8382
X4.6776Y-4.1382
X4.8776Y-3.8382
X4.8776Y-4.1382
X3.3114Y-4.3106
X3.3114Y-4.6106
X3.5114Y-4.3106
X3.5114Y-4.6106
X3.7114Y-4.3106
X3.7114Y-4.6106
X4.0114Y-4.3106
X4.0114Y-4.6106
X3.3114Y-3.8382
X3.3114Y-4.1382
X3.5114Y-3.8382
X3.5114Y-4.1382
X3.7114Y-3.8382
X3.7114Y-4.1382
X4.0114Y-3.8382
X4.0114Y-4.1382
X4.1776Y-4.3106
X4.1776Y-4.6106
X4.4776Y-4.3106
X4.4776Y-4.6106
X4.6776Y-4.3106
X4.6776Y-4.6106
X4.8776Y-4.3106
X4.8776Y-4.6106
X5.3Y-4.04
X5.3Y-4.14
X5.3Y-4.24
X5.4Y-4.04
X5.4Y-4.14
X5.4Y-4.24
X4.1776Y-5.2555
X4.1776Y-5.5555
X4.4776Y-5.2555
X4.4776Y-5.5555
X4.6776Y-5.2555
X4.6776Y-5.5555
X4.8776Y-5.2555
X4.8776Y-5.5555
X3.3114Y-4.7831
X3.3114Y-5.0831
X3.5114Y-4.7831
X3.5114Y-5.0831
X3.7114Y-4.7831
X3.7114Y-5.0831
X4.0114Y-4.7831
X4.0114Y-5.0831
X5.89Y-4.65
X5.89Y-4.75
X5.89Y-4.85
X5.99Y-4.65
X5.99Y-4.75
X5.99Y-4.85
X4.1776Y-4.7831
X4.1776Y-5.0831
X4.4776Y-4.7831
X4.4776Y-5.0831
X4.6776Y-4.7831
X4.6776Y-5.0831
X4.8776Y-4.7831
X4.8776Y-5.0831
X3.3114Y-3.3657
X3.3114Y-3.6657
X3.5114Y-3.3657
X3.5114Y-3.6657
X3.7114Y-3.3657
X3.7114Y-3.6657
X4.0114Y-3.3657
X4.0114Y-3.6657
T4
X2.9015Y-2.7205
X2.9015Y-2.9173
X2.9015Y-3.1142
X2.9015Y-3.311
X2.9015Y-3.5079
X2.9015Y-3.7047
X2.9015Y-3.9016
X2.9015Y-4.0984
X2.9015Y-4.2953
X2.9015Y-4.4921
X2.9015Y-4.689
X2.9015Y-4.8858
X2.9015Y-5.0827
X2.9015Y-5.2795
X2.9015Y-5.4764
X2.9016Y-2.5236
X3.0Y-2.6221
X3.0Y-2.8189
X3.0Y-3.0158
X3.0Y-3.2126
X3.0Y-3.4095
X3.0Y-3.6063
X3.0Y-3.8032
X3.0Y-4.0
X3.0Y-4.1969
X3.0Y-4.3937
X3.0Y-4.5906
X3.0Y-4.7874
X3.0Y-4.9843
X3.0Y-5.1811
X3.0Y-5.378
T5
X2.8031Y-2.3268
X2.8031Y-5.6733
T0
M30
