G04 #@! TF.GenerationSoftware,KiCad,Pcbnew,(5.1.5)-3*
G04 #@! TF.CreationDate,2021-08-30T19:43:02+02:00*
G04 #@! TF.ProjectId,gbm12,67626d31-322e-46b6-9963-61645f706362,0430 -*
G04 #@! TF.SameCoordinates,Original*
G04 #@! TF.FileFunction,Legend,Top*
G04 #@! TF.FilePolarity,Positive*
%FSLAX46Y46*%
G04 Gerber Fmt 4.6, Leading zero omitted, Abs format (unit mm)*
G04 Created by KiCad (PCBNEW (5.1.5)-3) date 2021-08-30 19:43:02*
%MOMM*%
%LPD*%
G04 APERTURE LIST*
%ADD10C,0.300000*%
%ADD11C,0.127000*%
%ADD12C,0.203200*%
%ADD13C,0.304800*%
%ADD14C,0.381000*%
%ADD15C,0.152400*%
G04 APERTURE END LIST*
D10*
X102178571Y-91821428D02*
X102178571Y-92678571D01*
X102178571Y-92250000D02*
X100678571Y-92250000D01*
X100892857Y-92392857D01*
X101035714Y-92535714D01*
X101107142Y-92678571D01*
X73928571Y-148892857D02*
X72428571Y-148892857D01*
X73500000Y-148392857D01*
X72428571Y-147892857D01*
X73928571Y-147892857D01*
X72428571Y-147392857D02*
X73928571Y-146892857D01*
X72428571Y-146392857D01*
X116500000Y-146178571D02*
X116428571Y-146321428D01*
X116428571Y-146535714D01*
X116500000Y-146750000D01*
X116642857Y-146892857D01*
X116785714Y-146964285D01*
X117071428Y-147035714D01*
X117285714Y-147035714D01*
X117571428Y-146964285D01*
X117714285Y-146892857D01*
X117857142Y-146750000D01*
X117928571Y-146535714D01*
X117928571Y-146392857D01*
X117857142Y-146178571D01*
X117785714Y-146107142D01*
X117285714Y-146107142D01*
X117285714Y-146392857D01*
X117142857Y-144964285D02*
X117214285Y-144750000D01*
X117285714Y-144678571D01*
X117428571Y-144607142D01*
X117642857Y-144607142D01*
X117785714Y-144678571D01*
X117857142Y-144750000D01*
X117928571Y-144892857D01*
X117928571Y-145464285D01*
X116428571Y-145464285D01*
X116428571Y-144964285D01*
X116500000Y-144821428D01*
X116571428Y-144750000D01*
X116714285Y-144678571D01*
X116857142Y-144678571D01*
X117000000Y-144750000D01*
X117071428Y-144821428D01*
X117142857Y-144964285D01*
X117142857Y-145464285D01*
X117928571Y-143964285D02*
X116428571Y-143964285D01*
X117500000Y-143464285D01*
X116428571Y-142964285D01*
X117928571Y-142964285D01*
X117928571Y-141464285D02*
X117928571Y-142321428D01*
X117928571Y-141892857D02*
X116428571Y-141892857D01*
X116642857Y-142035714D01*
X116785714Y-142178571D01*
X116857142Y-142321428D01*
X116571428Y-140892857D02*
X116500000Y-140821428D01*
X116428571Y-140678571D01*
X116428571Y-140321428D01*
X116500000Y-140178571D01*
X116571428Y-140107142D01*
X116714285Y-140035714D01*
X116857142Y-140035714D01*
X117071428Y-140107142D01*
X117928571Y-140964285D01*
X117928571Y-140035714D01*
X116571428Y-138321428D02*
X116500000Y-138250000D01*
X116428571Y-138107142D01*
X116428571Y-137750000D01*
X116500000Y-137607142D01*
X116571428Y-137535714D01*
X116714285Y-137464285D01*
X116857142Y-137464285D01*
X117071428Y-137535714D01*
X117928571Y-138392857D01*
X117928571Y-137464285D01*
X116428571Y-136535714D02*
X116428571Y-136392857D01*
X116500000Y-136250000D01*
X116571428Y-136178571D01*
X116714285Y-136107142D01*
X117000000Y-136035714D01*
X117357142Y-136035714D01*
X117642857Y-136107142D01*
X117785714Y-136178571D01*
X117857142Y-136250000D01*
X117928571Y-136392857D01*
X117928571Y-136535714D01*
X117857142Y-136678571D01*
X117785714Y-136750000D01*
X117642857Y-136821428D01*
X117357142Y-136892857D01*
X117000000Y-136892857D01*
X116714285Y-136821428D01*
X116571428Y-136750000D01*
X116500000Y-136678571D01*
X116428571Y-136535714D01*
X117928571Y-134607142D02*
X117928571Y-135464285D01*
X117928571Y-135035714D02*
X116428571Y-135035714D01*
X116642857Y-135178571D01*
X116785714Y-135321428D01*
X116857142Y-135464285D01*
X116428571Y-133250000D02*
X116428571Y-133964285D01*
X117142857Y-134035714D01*
X117071428Y-133964285D01*
X117000000Y-133821428D01*
X117000000Y-133464285D01*
X117071428Y-133321428D01*
X117142857Y-133250000D01*
X117285714Y-133178571D01*
X117642857Y-133178571D01*
X117785714Y-133250000D01*
X117857142Y-133321428D01*
X117928571Y-133464285D01*
X117928571Y-133821428D01*
X117857142Y-133964285D01*
X117785714Y-134035714D01*
X117928571Y-131750000D02*
X117928571Y-132607142D01*
X117928571Y-132178571D02*
X116428571Y-132178571D01*
X116642857Y-132321428D01*
X116785714Y-132464285D01*
X116857142Y-132607142D01*
X116571428Y-131178571D02*
X116500000Y-131107142D01*
X116428571Y-130964285D01*
X116428571Y-130607142D01*
X116500000Y-130464285D01*
X116571428Y-130392857D01*
X116714285Y-130321428D01*
X116857142Y-130321428D01*
X117071428Y-130392857D01*
X117928571Y-131250000D01*
X117928571Y-130321428D01*
X116571428Y-129750000D02*
X116500000Y-129678571D01*
X116428571Y-129535714D01*
X116428571Y-129178571D01*
X116500000Y-129035714D01*
X116571428Y-128964285D01*
X116714285Y-128892857D01*
X116857142Y-128892857D01*
X117071428Y-128964285D01*
X117928571Y-129821428D01*
X117928571Y-128892857D01*
X117071428Y-128035714D02*
X117000000Y-128178571D01*
X116928571Y-128250000D01*
X116785714Y-128321428D01*
X116714285Y-128321428D01*
X116571428Y-128250000D01*
X116500000Y-128178571D01*
X116428571Y-128035714D01*
X116428571Y-127750000D01*
X116500000Y-127607142D01*
X116571428Y-127535714D01*
X116714285Y-127464285D01*
X116785714Y-127464285D01*
X116928571Y-127535714D01*
X117000000Y-127607142D01*
X117071428Y-127750000D01*
X117071428Y-128035714D01*
X117142857Y-128178571D01*
X117214285Y-128250000D01*
X117357142Y-128321428D01*
X117642857Y-128321428D01*
X117785714Y-128250000D01*
X117857142Y-128178571D01*
X117928571Y-128035714D01*
X117928571Y-127750000D01*
X117857142Y-127607142D01*
X117785714Y-127535714D01*
X117642857Y-127464285D01*
X117357142Y-127464285D01*
X117214285Y-127535714D01*
X117142857Y-127607142D01*
X117071428Y-127750000D01*
D11*
X118500000Y-58627000D02*
X118500000Y-59008000D01*
X118881000Y-58627000D02*
X118119000Y-58627000D01*
X118500000Y-57992000D02*
X118500000Y-58373000D01*
X118500000Y-58373000D02*
X118881000Y-58373000D01*
X118881000Y-58373000D02*
X118119000Y-58373000D01*
X97250000Y-100873000D02*
X97250000Y-100492000D01*
X96869000Y-100873000D02*
X97631000Y-100873000D01*
X97250000Y-101508000D02*
X97250000Y-101127000D01*
X97250000Y-101127000D02*
X96869000Y-101127000D01*
X96869000Y-101127000D02*
X97631000Y-101127000D01*
X96250000Y-87373000D02*
X96250000Y-86992000D01*
X95869000Y-87373000D02*
X96631000Y-87373000D01*
X96250000Y-88008000D02*
X96250000Y-87627000D01*
X96250000Y-87627000D02*
X95869000Y-87627000D01*
X95869000Y-87627000D02*
X96631000Y-87627000D01*
X108750000Y-112127000D02*
X108750000Y-112508000D01*
X109131000Y-112127000D02*
X108369000Y-112127000D01*
X108750000Y-111492000D02*
X108750000Y-111873000D01*
X108750000Y-111873000D02*
X109131000Y-111873000D01*
X109131000Y-111873000D02*
X108369000Y-111873000D01*
X102123000Y-94000000D02*
X101742000Y-94000000D01*
X102123000Y-94381000D02*
X102123000Y-93619000D01*
X102758000Y-94000000D02*
X102377000Y-94000000D01*
X102377000Y-94000000D02*
X102377000Y-94381000D01*
X102377000Y-94381000D02*
X102377000Y-93619000D01*
D12*
X87548000Y-56000000D02*
G75*
G03X87548000Y-56000000I-3048000J0D01*
G01*
X108310000Y-91540000D02*
X100690000Y-91540000D01*
X100690000Y-86460000D02*
X108310000Y-86460000D01*
X108310000Y-86460000D02*
X108310000Y-91540000D01*
X100690000Y-91540000D02*
X100690000Y-86460000D01*
D11*
X95250000Y-101254000D02*
X95250000Y-101508000D01*
X95250000Y-100492000D02*
X95250000Y-100746000D01*
X95504000Y-100746000D02*
X95123000Y-100746000D01*
X95123000Y-100746000D02*
X94996000Y-100746000D01*
X94996000Y-100746000D02*
X94996000Y-101254000D01*
X94996000Y-101254000D02*
X95504000Y-101254000D01*
X95504000Y-101254000D02*
X95504000Y-100746000D01*
X92250000Y-101496000D02*
X92250000Y-101242000D01*
X92250000Y-102258000D02*
X92250000Y-102004000D01*
X91996000Y-102004000D02*
X92377000Y-102004000D01*
X92377000Y-102004000D02*
X92504000Y-102004000D01*
X92504000Y-102004000D02*
X92504000Y-101496000D01*
X92504000Y-101496000D02*
X91996000Y-101496000D01*
X91996000Y-101496000D02*
X91996000Y-102004000D01*
X89750000Y-101496000D02*
X89750000Y-101242000D01*
X89750000Y-102258000D02*
X89750000Y-102004000D01*
X89496000Y-102004000D02*
X89877000Y-102004000D01*
X89877000Y-102004000D02*
X90004000Y-102004000D01*
X90004000Y-102004000D02*
X90004000Y-101496000D01*
X90004000Y-101496000D02*
X89496000Y-101496000D01*
X89496000Y-101496000D02*
X89496000Y-102004000D01*
X87000000Y-102004000D02*
X87000000Y-102258000D01*
X87000000Y-101242000D02*
X87000000Y-101496000D01*
X87254000Y-101496000D02*
X86873000Y-101496000D01*
X86873000Y-101496000D02*
X86746000Y-101496000D01*
X86746000Y-101496000D02*
X86746000Y-102004000D01*
X86746000Y-102004000D02*
X87254000Y-102004000D01*
X87254000Y-102004000D02*
X87254000Y-101496000D01*
X99000000Y-88746000D02*
X99000000Y-88492000D01*
X99000000Y-89508000D02*
X99000000Y-89254000D01*
X98746000Y-89254000D02*
X99127000Y-89254000D01*
X99127000Y-89254000D02*
X99254000Y-89254000D01*
X99254000Y-89254000D02*
X99254000Y-88746000D01*
X99254000Y-88746000D02*
X98746000Y-88746000D01*
X98746000Y-88746000D02*
X98746000Y-89254000D01*
D13*
X100996200Y-97496200D02*
X111003800Y-97496200D01*
X111003800Y-97496200D02*
X111003800Y-107503800D01*
X101478800Y-107503800D02*
X111003800Y-107503800D01*
X100996200Y-107021200D02*
X100996200Y-97496200D01*
X101478800Y-107503800D02*
X100996200Y-107021200D01*
D12*
X102825000Y-106310000D02*
G75*
G03X102825000Y-106310000I-635000J0D01*
G01*
D11*
X113476000Y-57103000D02*
X116651000Y-57103000D01*
X116651000Y-57103000D02*
X116651000Y-55325000D01*
X116651000Y-55325000D02*
X113476000Y-55325000D01*
X113476000Y-61675000D02*
X116651000Y-61675000D01*
X116651000Y-61675000D02*
X116651000Y-59897000D01*
X116651000Y-59897000D02*
X113476000Y-59897000D01*
X107380000Y-55071000D02*
X113476000Y-55071000D01*
X113476000Y-55071000D02*
X113476000Y-61929000D01*
X113476000Y-61929000D02*
X105602000Y-61929000D01*
X105475000Y-61929000D02*
X105475000Y-55071000D01*
X105602000Y-55071000D02*
X107380000Y-55071000D01*
X91317000Y-68350000D02*
X98683000Y-68350000D01*
X98683000Y-55650000D02*
X91317000Y-55650000D01*
X91317000Y-68350000D02*
X91317000Y-55650000D01*
X98683000Y-55650000D02*
X98683000Y-68350000D01*
X95635000Y-55650000D02*
X95635000Y-56920000D01*
X95635000Y-56920000D02*
X94365000Y-56920000D01*
X94365000Y-56920000D02*
X94365000Y-55650000D01*
X91317000Y-84850000D02*
X98683000Y-84850000D01*
X98683000Y-72150000D02*
X91317000Y-72150000D01*
X91317000Y-84850000D02*
X91317000Y-72150000D01*
X98683000Y-72150000D02*
X98683000Y-84850000D01*
X95635000Y-72150000D02*
X95635000Y-73420000D01*
X95635000Y-73420000D02*
X94365000Y-73420000D01*
X94365000Y-73420000D02*
X94365000Y-72150000D01*
X84996000Y-92250000D02*
X84742000Y-92250000D01*
X85758000Y-92250000D02*
X85504000Y-92250000D01*
X85504000Y-92504000D02*
X85504000Y-92123000D01*
X85504000Y-92123000D02*
X85504000Y-91996000D01*
X85504000Y-91996000D02*
X84996000Y-91996000D01*
X84996000Y-91996000D02*
X84996000Y-92504000D01*
X84996000Y-92504000D02*
X85504000Y-92504000D01*
X88746000Y-92250000D02*
X88492000Y-92250000D01*
X89508000Y-92250000D02*
X89254000Y-92250000D01*
X89254000Y-92504000D02*
X89254000Y-92123000D01*
X89254000Y-92123000D02*
X89254000Y-91996000D01*
X89254000Y-91996000D02*
X88746000Y-91996000D01*
X88746000Y-91996000D02*
X88746000Y-92504000D01*
X88746000Y-92504000D02*
X89254000Y-92504000D01*
X92000000Y-97504000D02*
X92000000Y-97758000D01*
X92000000Y-96742000D02*
X92000000Y-96996000D01*
X92254000Y-96996000D02*
X91873000Y-96996000D01*
X91873000Y-96996000D02*
X91746000Y-96996000D01*
X91746000Y-96996000D02*
X91746000Y-97504000D01*
X91746000Y-97504000D02*
X92254000Y-97504000D01*
X92254000Y-97504000D02*
X92254000Y-96996000D01*
X85222000Y-93833000D02*
X85095000Y-93833000D01*
X85095000Y-93833000D02*
X85095000Y-99167000D01*
X88905000Y-99167000D02*
X88905000Y-93833000D01*
X88905000Y-93833000D02*
X85222000Y-93833000D01*
X87508000Y-93833000D02*
X87508000Y-94341000D01*
X87508000Y-94341000D02*
X86492000Y-94341000D01*
X86492000Y-94341000D02*
X86492000Y-93833000D01*
X88905000Y-99167000D02*
X85095000Y-99167000D01*
X92000000Y-93123000D02*
X92000000Y-92742000D01*
X91619000Y-93123000D02*
X92381000Y-93123000D01*
X92000000Y-93758000D02*
X92000000Y-93377000D01*
X92000000Y-93377000D02*
X91619000Y-93377000D01*
X91619000Y-93377000D02*
X92381000Y-93377000D01*
X103000000Y-57627000D02*
X103000000Y-58008000D01*
X103381000Y-57627000D02*
X102619000Y-57627000D01*
X103000000Y-56992000D02*
X103000000Y-57373000D01*
X103000000Y-57373000D02*
X103381000Y-57373000D01*
X103381000Y-57373000D02*
X102619000Y-57373000D01*
X102750000Y-73127000D02*
X102750000Y-73508000D01*
X103131000Y-73127000D02*
X102369000Y-73127000D01*
X102750000Y-72492000D02*
X102750000Y-72873000D01*
X102750000Y-72873000D02*
X103131000Y-72873000D01*
X103131000Y-72873000D02*
X102369000Y-72873000D01*
X85500000Y-85623000D02*
X85500000Y-85242000D01*
X85119000Y-85623000D02*
X85881000Y-85623000D01*
X85500000Y-86258000D02*
X85500000Y-85877000D01*
X85500000Y-85877000D02*
X85119000Y-85877000D01*
X85119000Y-85877000D02*
X85881000Y-85877000D01*
D12*
X113548000Y-71500000D02*
G75*
G03X113548000Y-71500000I-3048000J0D01*
G01*
D11*
X84250000Y-101496000D02*
X84250000Y-101242000D01*
X84250000Y-102258000D02*
X84250000Y-102004000D01*
X83996000Y-102004000D02*
X84377000Y-102004000D01*
X84377000Y-102004000D02*
X84504000Y-102004000D01*
X84504000Y-102004000D02*
X84504000Y-101496000D01*
X84504000Y-101496000D02*
X83996000Y-101496000D01*
X83996000Y-101496000D02*
X83996000Y-102004000D01*
D14*
X70475000Y-54280000D02*
X70475000Y-145720000D01*
X70475000Y-145720000D02*
X78730000Y-145720000D01*
X78730000Y-145720000D02*
X78730000Y-140640000D01*
X78730000Y-140640000D02*
X74920000Y-138735000D01*
X74920000Y-138735000D02*
X74920000Y-61265000D01*
X74920000Y-61265000D02*
X78730000Y-59360000D01*
X78730000Y-59360000D02*
X78730000Y-54280000D01*
X78730000Y-54280000D02*
X70475000Y-54280000D01*
D11*
X91881000Y-86476000D02*
X91881000Y-89524000D01*
X91881000Y-89524000D02*
X91119000Y-89524000D01*
X91119000Y-89524000D02*
X91119000Y-86476000D01*
X91119000Y-86476000D02*
X91881000Y-86476000D01*
X96250000Y-89833000D02*
X96250000Y-89325000D01*
X95996000Y-89579000D02*
X96504000Y-89579000D01*
X96250000Y-92373000D02*
X96250000Y-91992000D01*
X95869000Y-92373000D02*
X96631000Y-92373000D01*
X96250000Y-93008000D02*
X96250000Y-92627000D01*
X96250000Y-92627000D02*
X95869000Y-92627000D01*
X95869000Y-92627000D02*
X96631000Y-92627000D01*
X86500380Y-79300740D02*
X86500380Y-82699260D01*
X85499620Y-82699260D02*
X85499620Y-79300740D01*
X85100840Y-79300740D02*
X85100840Y-82699260D01*
X86899160Y-82699260D02*
X86899160Y-79300740D01*
X85100840Y-79300740D02*
X86899160Y-79300740D01*
X85100840Y-82699260D02*
X86899160Y-82699260D01*
X85499620Y-80199900D02*
X86500380Y-80199900D01*
X85499620Y-81000000D02*
X86500380Y-81000000D01*
X85499620Y-81800100D02*
X86500380Y-81800100D01*
X85100840Y-79600460D02*
X85499620Y-79600460D01*
X86500380Y-79600460D02*
X86899160Y-79600460D01*
X85100840Y-79999240D02*
X85499620Y-79999240D01*
X86500380Y-79999240D02*
X86899160Y-79999240D01*
X86899160Y-80400560D02*
X86500380Y-80400560D01*
X85499620Y-80400560D02*
X85100840Y-80400560D01*
X85100840Y-80799340D02*
X85499620Y-80799340D01*
X86500380Y-80799340D02*
X86899160Y-80799340D01*
X86899160Y-81200660D02*
X86500380Y-81200660D01*
X85499620Y-81200660D02*
X85100840Y-81200660D01*
X85100840Y-81599440D02*
X85499620Y-81599440D01*
X86500380Y-81599440D02*
X86899160Y-81599440D01*
X86500380Y-82399540D02*
X86899160Y-82399540D01*
X86500380Y-82000760D02*
X86899160Y-82000760D01*
X85100840Y-82000760D02*
X85499620Y-82000760D01*
X85100840Y-82399540D02*
X85499620Y-82399540D01*
X96699260Y-107500380D02*
X93300740Y-107500380D01*
X93300740Y-106499620D02*
X96699260Y-106499620D01*
X96699260Y-106100840D02*
X93300740Y-106100840D01*
X93300740Y-107899160D02*
X96699260Y-107899160D01*
X96699260Y-106100840D02*
X96699260Y-107899160D01*
X93300740Y-106100840D02*
X93300740Y-107899160D01*
X95800100Y-106499620D02*
X95800100Y-107500380D01*
X95000000Y-106499620D02*
X95000000Y-107500380D01*
X94199900Y-106499620D02*
X94199900Y-107500380D01*
X96399540Y-106100840D02*
X96399540Y-106499620D01*
X96399540Y-107500380D02*
X96399540Y-107899160D01*
X96000760Y-106100840D02*
X96000760Y-106499620D01*
X96000760Y-107500380D02*
X96000760Y-107899160D01*
X95599440Y-107899160D02*
X95599440Y-107500380D01*
X95599440Y-106499620D02*
X95599440Y-106100840D01*
X95200660Y-106100840D02*
X95200660Y-106499620D01*
X95200660Y-107500380D02*
X95200660Y-107899160D01*
X94799340Y-107899160D02*
X94799340Y-107500380D01*
X94799340Y-106499620D02*
X94799340Y-106100840D01*
X94400560Y-106100840D02*
X94400560Y-106499620D01*
X94400560Y-107500380D02*
X94400560Y-107899160D01*
X93600460Y-107500380D02*
X93600460Y-107899160D01*
X93999240Y-107500380D02*
X93999240Y-107899160D01*
X93999240Y-106100840D02*
X93999240Y-106499620D01*
X93600460Y-106100840D02*
X93600460Y-106499620D01*
X96999620Y-125199260D02*
X96999620Y-121800740D01*
X98000380Y-121800740D02*
X98000380Y-125199260D01*
X98399160Y-125199260D02*
X98399160Y-121800740D01*
X96600840Y-121800740D02*
X96600840Y-125199260D01*
X98399160Y-125199260D02*
X96600840Y-125199260D01*
X98399160Y-121800740D02*
X96600840Y-121800740D01*
X98000380Y-124300100D02*
X96999620Y-124300100D01*
X98000380Y-123500000D02*
X96999620Y-123500000D01*
X98000380Y-122699900D02*
X96999620Y-122699900D01*
X98399160Y-124899540D02*
X98000380Y-124899540D01*
X96999620Y-124899540D02*
X96600840Y-124899540D01*
X98399160Y-124500760D02*
X98000380Y-124500760D01*
X96999620Y-124500760D02*
X96600840Y-124500760D01*
X96600840Y-124099440D02*
X96999620Y-124099440D01*
X98000380Y-124099440D02*
X98399160Y-124099440D01*
X98399160Y-123700660D02*
X98000380Y-123700660D01*
X96999620Y-123700660D02*
X96600840Y-123700660D01*
X96600840Y-123299340D02*
X96999620Y-123299340D01*
X98000380Y-123299340D02*
X98399160Y-123299340D01*
X98399160Y-122900560D02*
X98000380Y-122900560D01*
X96999620Y-122900560D02*
X96600840Y-122900560D01*
X96999620Y-122100460D02*
X96600840Y-122100460D01*
X96999620Y-122499240D02*
X96600840Y-122499240D01*
X98399160Y-122499240D02*
X98000380Y-122499240D01*
X98399160Y-122100460D02*
X98000380Y-122100460D01*
X96999620Y-135699260D02*
X96999620Y-132300740D01*
X98000380Y-132300740D02*
X98000380Y-135699260D01*
X98399160Y-135699260D02*
X98399160Y-132300740D01*
X96600840Y-132300740D02*
X96600840Y-135699260D01*
X98399160Y-135699260D02*
X96600840Y-135699260D01*
X98399160Y-132300740D02*
X96600840Y-132300740D01*
X98000380Y-134800100D02*
X96999620Y-134800100D01*
X98000380Y-134000000D02*
X96999620Y-134000000D01*
X98000380Y-133199900D02*
X96999620Y-133199900D01*
X98399160Y-135399540D02*
X98000380Y-135399540D01*
X96999620Y-135399540D02*
X96600840Y-135399540D01*
X98399160Y-135000760D02*
X98000380Y-135000760D01*
X96999620Y-135000760D02*
X96600840Y-135000760D01*
X96600840Y-134599440D02*
X96999620Y-134599440D01*
X98000380Y-134599440D02*
X98399160Y-134599440D01*
X98399160Y-134200660D02*
X98000380Y-134200660D01*
X96999620Y-134200660D02*
X96600840Y-134200660D01*
X96600840Y-133799340D02*
X96999620Y-133799340D01*
X98000380Y-133799340D02*
X98399160Y-133799340D01*
X98399160Y-133400560D02*
X98000380Y-133400560D01*
X96999620Y-133400560D02*
X96600840Y-133400560D01*
X96999620Y-132600460D02*
X96600840Y-132600460D01*
X96999620Y-132999240D02*
X96600840Y-132999240D01*
X98399160Y-132999240D02*
X98000380Y-132999240D01*
X98399160Y-132600460D02*
X98000380Y-132600460D01*
X86500380Y-74300740D02*
X86500380Y-77699260D01*
X85499620Y-77699260D02*
X85499620Y-74300740D01*
X85100840Y-74300740D02*
X85100840Y-77699260D01*
X86899160Y-77699260D02*
X86899160Y-74300740D01*
X85100840Y-74300740D02*
X86899160Y-74300740D01*
X85100840Y-77699260D02*
X86899160Y-77699260D01*
X85499620Y-75199900D02*
X86500380Y-75199900D01*
X85499620Y-76000000D02*
X86500380Y-76000000D01*
X85499620Y-76800100D02*
X86500380Y-76800100D01*
X85100840Y-74600460D02*
X85499620Y-74600460D01*
X86500380Y-74600460D02*
X86899160Y-74600460D01*
X85100840Y-74999240D02*
X85499620Y-74999240D01*
X86500380Y-74999240D02*
X86899160Y-74999240D01*
X86899160Y-75400560D02*
X86500380Y-75400560D01*
X85499620Y-75400560D02*
X85100840Y-75400560D01*
X85100840Y-75799340D02*
X85499620Y-75799340D01*
X86500380Y-75799340D02*
X86899160Y-75799340D01*
X86899160Y-76200660D02*
X86500380Y-76200660D01*
X85499620Y-76200660D02*
X85100840Y-76200660D01*
X85100840Y-76599440D02*
X85499620Y-76599440D01*
X86500380Y-76599440D02*
X86899160Y-76599440D01*
X86500380Y-77399540D02*
X86899160Y-77399540D01*
X86500380Y-77000760D02*
X86899160Y-77000760D01*
X85100840Y-77000760D02*
X85499620Y-77000760D01*
X85100840Y-77399540D02*
X85499620Y-77399540D01*
X86500380Y-62800740D02*
X86500380Y-66199260D01*
X85499620Y-66199260D02*
X85499620Y-62800740D01*
X85100840Y-62800740D02*
X85100840Y-66199260D01*
X86899160Y-66199260D02*
X86899160Y-62800740D01*
X85100840Y-62800740D02*
X86899160Y-62800740D01*
X85100840Y-66199260D02*
X86899160Y-66199260D01*
X85499620Y-63699900D02*
X86500380Y-63699900D01*
X85499620Y-64500000D02*
X86500380Y-64500000D01*
X85499620Y-65300100D02*
X86500380Y-65300100D01*
X85100840Y-63100460D02*
X85499620Y-63100460D01*
X86500380Y-63100460D02*
X86899160Y-63100460D01*
X85100840Y-63499240D02*
X85499620Y-63499240D01*
X86500380Y-63499240D02*
X86899160Y-63499240D01*
X86899160Y-63900560D02*
X86500380Y-63900560D01*
X85499620Y-63900560D02*
X85100840Y-63900560D01*
X85100840Y-64299340D02*
X85499620Y-64299340D01*
X86500380Y-64299340D02*
X86899160Y-64299340D01*
X86899160Y-64700660D02*
X86500380Y-64700660D01*
X85499620Y-64700660D02*
X85100840Y-64700660D01*
X85100840Y-65099440D02*
X85499620Y-65099440D01*
X86500380Y-65099440D02*
X86899160Y-65099440D01*
X86500380Y-65899540D02*
X86899160Y-65899540D01*
X86500380Y-65500760D02*
X86899160Y-65500760D01*
X85100840Y-65500760D02*
X85499620Y-65500760D01*
X85100840Y-65899540D02*
X85499620Y-65899540D01*
X90131000Y-105226000D02*
X90131000Y-108274000D01*
X90131000Y-108274000D02*
X89369000Y-108274000D01*
X89369000Y-108274000D02*
X89369000Y-105226000D01*
X89369000Y-105226000D02*
X90131000Y-105226000D01*
X118726785Y-59210595D02*
X118757023Y-59240833D01*
X118787261Y-59331547D01*
X118787261Y-59392023D01*
X118757023Y-59482738D01*
X118696547Y-59543214D01*
X118636071Y-59573452D01*
X118515119Y-59603690D01*
X118424404Y-59603690D01*
X118303452Y-59573452D01*
X118242976Y-59543214D01*
X118182500Y-59482738D01*
X118152261Y-59392023D01*
X118152261Y-59331547D01*
X118182500Y-59240833D01*
X118212738Y-59210595D01*
X118363928Y-58666309D02*
X118787261Y-58666309D01*
X118122023Y-58817500D02*
X118575595Y-58968690D01*
X118575595Y-58575595D01*
X118152261Y-58212738D02*
X118152261Y-58152261D01*
X118182500Y-58091785D01*
X118212738Y-58061547D01*
X118273214Y-58031309D01*
X118394166Y-58001071D01*
X118545357Y-58001071D01*
X118666309Y-58031309D01*
X118726785Y-58061547D01*
X118757023Y-58091785D01*
X118787261Y-58152261D01*
X118787261Y-58212738D01*
X118757023Y-58273214D01*
X118726785Y-58303452D01*
X118666309Y-58333690D01*
X118545357Y-58363928D01*
X118394166Y-58363928D01*
X118273214Y-58333690D01*
X118212738Y-58303452D01*
X118182500Y-58273214D01*
X118152261Y-58212738D01*
X118787261Y-57396309D02*
X118787261Y-57759166D01*
X118787261Y-57577738D02*
X118152261Y-57577738D01*
X118242976Y-57638214D01*
X118303452Y-57698690D01*
X118333690Y-57759166D01*
X98976785Y-101710595D02*
X99007023Y-101740833D01*
X99037261Y-101831547D01*
X99037261Y-101892023D01*
X99007023Y-101982738D01*
X98946547Y-102043214D01*
X98886071Y-102073452D01*
X98765119Y-102103690D01*
X98674404Y-102103690D01*
X98553452Y-102073452D01*
X98492976Y-102043214D01*
X98432500Y-101982738D01*
X98402261Y-101892023D01*
X98402261Y-101831547D01*
X98432500Y-101740833D01*
X98462738Y-101710595D01*
X98613928Y-101166309D02*
X99037261Y-101166309D01*
X98372023Y-101317500D02*
X98825595Y-101468690D01*
X98825595Y-101075595D01*
X98402261Y-100712738D02*
X98402261Y-100652261D01*
X98432500Y-100591785D01*
X98462738Y-100561547D01*
X98523214Y-100531309D01*
X98644166Y-100501071D01*
X98795357Y-100501071D01*
X98916309Y-100531309D01*
X98976785Y-100561547D01*
X99007023Y-100591785D01*
X99037261Y-100652261D01*
X99037261Y-100712738D01*
X99007023Y-100773214D01*
X98976785Y-100803452D01*
X98916309Y-100833690D01*
X98795357Y-100863928D01*
X98644166Y-100863928D01*
X98523214Y-100833690D01*
X98462738Y-100803452D01*
X98432500Y-100773214D01*
X98402261Y-100712738D01*
X98462738Y-100259166D02*
X98432500Y-100228928D01*
X98402261Y-100168452D01*
X98402261Y-100017261D01*
X98432500Y-99956785D01*
X98462738Y-99926547D01*
X98523214Y-99896309D01*
X98583690Y-99896309D01*
X98674404Y-99926547D01*
X99037261Y-100289404D01*
X99037261Y-99896309D01*
X94976785Y-88210595D02*
X95007023Y-88240833D01*
X95037261Y-88331547D01*
X95037261Y-88392023D01*
X95007023Y-88482738D01*
X94946547Y-88543214D01*
X94886071Y-88573452D01*
X94765119Y-88603690D01*
X94674404Y-88603690D01*
X94553452Y-88573452D01*
X94492976Y-88543214D01*
X94432500Y-88482738D01*
X94402261Y-88392023D01*
X94402261Y-88331547D01*
X94432500Y-88240833D01*
X94462738Y-88210595D01*
X94613928Y-87666309D02*
X95037261Y-87666309D01*
X94372023Y-87817500D02*
X94825595Y-87968690D01*
X94825595Y-87575595D01*
X94402261Y-87212738D02*
X94402261Y-87152261D01*
X94432500Y-87091785D01*
X94462738Y-87061547D01*
X94523214Y-87031309D01*
X94644166Y-87001071D01*
X94795357Y-87001071D01*
X94916309Y-87031309D01*
X94976785Y-87061547D01*
X95007023Y-87091785D01*
X95037261Y-87152261D01*
X95037261Y-87212738D01*
X95007023Y-87273214D01*
X94976785Y-87303452D01*
X94916309Y-87333690D01*
X94795357Y-87363928D01*
X94644166Y-87363928D01*
X94523214Y-87333690D01*
X94462738Y-87303452D01*
X94432500Y-87273214D01*
X94402261Y-87212738D01*
X94402261Y-86789404D02*
X94402261Y-86396309D01*
X94644166Y-86607976D01*
X94644166Y-86517261D01*
X94674404Y-86456785D01*
X94704642Y-86426547D01*
X94765119Y-86396309D01*
X94916309Y-86396309D01*
X94976785Y-86426547D01*
X95007023Y-86456785D01*
X95037261Y-86517261D01*
X95037261Y-86698690D01*
X95007023Y-86759166D01*
X94976785Y-86789404D01*
X107476785Y-112710595D02*
X107507023Y-112740833D01*
X107537261Y-112831547D01*
X107537261Y-112892023D01*
X107507023Y-112982738D01*
X107446547Y-113043214D01*
X107386071Y-113073452D01*
X107265119Y-113103690D01*
X107174404Y-113103690D01*
X107053452Y-113073452D01*
X106992976Y-113043214D01*
X106932500Y-112982738D01*
X106902261Y-112892023D01*
X106902261Y-112831547D01*
X106932500Y-112740833D01*
X106962738Y-112710595D01*
X107113928Y-112166309D02*
X107537261Y-112166309D01*
X106872023Y-112317500D02*
X107325595Y-112468690D01*
X107325595Y-112075595D01*
X106902261Y-111712738D02*
X106902261Y-111652261D01*
X106932500Y-111591785D01*
X106962738Y-111561547D01*
X107023214Y-111531309D01*
X107144166Y-111501071D01*
X107295357Y-111501071D01*
X107416309Y-111531309D01*
X107476785Y-111561547D01*
X107507023Y-111591785D01*
X107537261Y-111652261D01*
X107537261Y-111712738D01*
X107507023Y-111773214D01*
X107476785Y-111803452D01*
X107416309Y-111833690D01*
X107295357Y-111863928D01*
X107144166Y-111863928D01*
X107023214Y-111833690D01*
X106962738Y-111803452D01*
X106932500Y-111773214D01*
X106902261Y-111712738D01*
X107113928Y-110956785D02*
X107537261Y-110956785D01*
X106872023Y-111107976D02*
X107325595Y-111259166D01*
X107325595Y-110866071D01*
X104726785Y-93960595D02*
X104757023Y-93990833D01*
X104787261Y-94081547D01*
X104787261Y-94142023D01*
X104757023Y-94232738D01*
X104696547Y-94293214D01*
X104636071Y-94323452D01*
X104515119Y-94353690D01*
X104424404Y-94353690D01*
X104303452Y-94323452D01*
X104242976Y-94293214D01*
X104182500Y-94232738D01*
X104152261Y-94142023D01*
X104152261Y-94081547D01*
X104182500Y-93990833D01*
X104212738Y-93960595D01*
X104363928Y-93416309D02*
X104787261Y-93416309D01*
X104122023Y-93567500D02*
X104575595Y-93718690D01*
X104575595Y-93325595D01*
X104152261Y-92962738D02*
X104152261Y-92902261D01*
X104182500Y-92841785D01*
X104212738Y-92811547D01*
X104273214Y-92781309D01*
X104394166Y-92751071D01*
X104545357Y-92751071D01*
X104666309Y-92781309D01*
X104726785Y-92811547D01*
X104757023Y-92841785D01*
X104787261Y-92902261D01*
X104787261Y-92962738D01*
X104757023Y-93023214D01*
X104726785Y-93053452D01*
X104666309Y-93083690D01*
X104545357Y-93113928D01*
X104394166Y-93113928D01*
X104273214Y-93083690D01*
X104212738Y-93053452D01*
X104182500Y-93023214D01*
X104152261Y-92962738D01*
X104152261Y-92176547D02*
X104152261Y-92478928D01*
X104454642Y-92509166D01*
X104424404Y-92478928D01*
X104394166Y-92418452D01*
X104394166Y-92267261D01*
X104424404Y-92206785D01*
X104454642Y-92176547D01*
X104515119Y-92146309D01*
X104666309Y-92146309D01*
X104726785Y-92176547D01*
X104757023Y-92206785D01*
X104787261Y-92267261D01*
X104787261Y-92418452D01*
X104757023Y-92478928D01*
X104726785Y-92509166D01*
D12*
X82830857Y-56994833D02*
X82879238Y-57037166D01*
X82927619Y-57164166D01*
X82927619Y-57248833D01*
X82879238Y-57375833D01*
X82782476Y-57460500D01*
X82685714Y-57502833D01*
X82492190Y-57545166D01*
X82347047Y-57545166D01*
X82153523Y-57502833D01*
X82056761Y-57460500D01*
X81960000Y-57375833D01*
X81911619Y-57248833D01*
X81911619Y-57164166D01*
X81960000Y-57037166D01*
X82008380Y-56994833D01*
X82250285Y-56232833D02*
X82927619Y-56232833D01*
X81863238Y-56444500D02*
X82588952Y-56656166D01*
X82588952Y-56105833D01*
X82927619Y-55301500D02*
X82927619Y-55809500D01*
X82927619Y-55555500D02*
X81911619Y-55555500D01*
X82056761Y-55640166D01*
X82153523Y-55724833D01*
X82201904Y-55809500D01*
X82008380Y-54962833D02*
X81960000Y-54920500D01*
X81911619Y-54835833D01*
X81911619Y-54624166D01*
X81960000Y-54539500D01*
X82008380Y-54497166D01*
X82105142Y-54454833D01*
X82201904Y-54454833D01*
X82347047Y-54497166D01*
X82927619Y-55005166D01*
X82927619Y-54454833D01*
X86386857Y-55310571D02*
X86386857Y-54149428D01*
X86967428Y-54730000D02*
X85806285Y-54730000D01*
D15*
X109959619Y-91467523D02*
X108943619Y-91467523D01*
X109959619Y-90886952D02*
X109379047Y-91322380D01*
X108943619Y-90886952D02*
X109524190Y-91467523D01*
X109282285Y-90016095D02*
X109959619Y-90016095D01*
X108895238Y-90258000D02*
X109620952Y-90499904D01*
X109620952Y-89870952D01*
X108943619Y-89290380D02*
X108943619Y-89193619D01*
X108992000Y-89096857D01*
X109040380Y-89048476D01*
X109137142Y-89000095D01*
X109330666Y-88951714D01*
X109572571Y-88951714D01*
X109766095Y-89000095D01*
X109862857Y-89048476D01*
X109911238Y-89096857D01*
X109959619Y-89193619D01*
X109959619Y-89290380D01*
X109911238Y-89387142D01*
X109862857Y-89435523D01*
X109766095Y-89483904D01*
X109572571Y-89532285D01*
X109330666Y-89532285D01*
X109137142Y-89483904D01*
X109040380Y-89435523D01*
X108992000Y-89387142D01*
X108943619Y-89290380D01*
X109959619Y-87984095D02*
X109959619Y-88564666D01*
X109959619Y-88274380D02*
X108943619Y-88274380D01*
X109088761Y-88371142D01*
X109185523Y-88467904D01*
X109233904Y-88564666D01*
D11*
X94037261Y-101710595D02*
X94037261Y-102012976D01*
X93402261Y-102012976D01*
X93613928Y-101226785D02*
X94037261Y-101226785D01*
X93372023Y-101377976D02*
X93825595Y-101529166D01*
X93825595Y-101136071D01*
X93402261Y-100773214D02*
X93402261Y-100712738D01*
X93432500Y-100652261D01*
X93462738Y-100622023D01*
X93523214Y-100591785D01*
X93644166Y-100561547D01*
X93795357Y-100561547D01*
X93916309Y-100591785D01*
X93976785Y-100622023D01*
X94007023Y-100652261D01*
X94037261Y-100712738D01*
X94037261Y-100773214D01*
X94007023Y-100833690D01*
X93976785Y-100863928D01*
X93916309Y-100894166D01*
X93795357Y-100924404D01*
X93644166Y-100924404D01*
X93523214Y-100894166D01*
X93462738Y-100863928D01*
X93432500Y-100833690D01*
X93402261Y-100773214D01*
X94037261Y-99956785D02*
X94037261Y-100319642D01*
X94037261Y-100138214D02*
X93402261Y-100138214D01*
X93492976Y-100198690D01*
X93553452Y-100259166D01*
X93583690Y-100319642D01*
X91287261Y-102460595D02*
X90984880Y-102672261D01*
X91287261Y-102823452D02*
X90652261Y-102823452D01*
X90652261Y-102581547D01*
X90682500Y-102521071D01*
X90712738Y-102490833D01*
X90773214Y-102460595D01*
X90863928Y-102460595D01*
X90924404Y-102490833D01*
X90954642Y-102521071D01*
X90984880Y-102581547D01*
X90984880Y-102823452D01*
X90712738Y-102218690D02*
X90682500Y-102188452D01*
X90652261Y-102127976D01*
X90652261Y-101976785D01*
X90682500Y-101916309D01*
X90712738Y-101886071D01*
X90773214Y-101855833D01*
X90833690Y-101855833D01*
X90924404Y-101886071D01*
X91287261Y-102248928D01*
X91287261Y-101855833D01*
X91287261Y-101251071D02*
X91287261Y-101613928D01*
X91287261Y-101432500D02*
X90652261Y-101432500D01*
X90742976Y-101492976D01*
X90803452Y-101553452D01*
X90833690Y-101613928D01*
X90652261Y-101039404D02*
X90652261Y-100646309D01*
X90894166Y-100857976D01*
X90894166Y-100767261D01*
X90924404Y-100706785D01*
X90954642Y-100676547D01*
X91015119Y-100646309D01*
X91166309Y-100646309D01*
X91226785Y-100676547D01*
X91257023Y-100706785D01*
X91287261Y-100767261D01*
X91287261Y-100948690D01*
X91257023Y-101009166D01*
X91226785Y-101039404D01*
X88787261Y-102460595D02*
X88484880Y-102672261D01*
X88787261Y-102823452D02*
X88152261Y-102823452D01*
X88152261Y-102581547D01*
X88182500Y-102521071D01*
X88212738Y-102490833D01*
X88273214Y-102460595D01*
X88363928Y-102460595D01*
X88424404Y-102490833D01*
X88454642Y-102521071D01*
X88484880Y-102581547D01*
X88484880Y-102823452D01*
X88212738Y-102218690D02*
X88182500Y-102188452D01*
X88152261Y-102127976D01*
X88152261Y-101976785D01*
X88182500Y-101916309D01*
X88212738Y-101886071D01*
X88273214Y-101855833D01*
X88333690Y-101855833D01*
X88424404Y-101886071D01*
X88787261Y-102248928D01*
X88787261Y-101855833D01*
X88787261Y-101251071D02*
X88787261Y-101613928D01*
X88787261Y-101432500D02*
X88152261Y-101432500D01*
X88242976Y-101492976D01*
X88303452Y-101553452D01*
X88333690Y-101613928D01*
X88363928Y-100706785D02*
X88787261Y-100706785D01*
X88122023Y-100857976D02*
X88575595Y-101009166D01*
X88575595Y-100616071D01*
X86037261Y-102460595D02*
X85734880Y-102672261D01*
X86037261Y-102823452D02*
X85402261Y-102823452D01*
X85402261Y-102581547D01*
X85432500Y-102521071D01*
X85462738Y-102490833D01*
X85523214Y-102460595D01*
X85613928Y-102460595D01*
X85674404Y-102490833D01*
X85704642Y-102521071D01*
X85734880Y-102581547D01*
X85734880Y-102823452D01*
X85462738Y-102218690D02*
X85432500Y-102188452D01*
X85402261Y-102127976D01*
X85402261Y-101976785D01*
X85432500Y-101916309D01*
X85462738Y-101886071D01*
X85523214Y-101855833D01*
X85583690Y-101855833D01*
X85674404Y-101886071D01*
X86037261Y-102248928D01*
X86037261Y-101855833D01*
X86037261Y-101251071D02*
X86037261Y-101613928D01*
X86037261Y-101432500D02*
X85402261Y-101432500D01*
X85492976Y-101492976D01*
X85553452Y-101553452D01*
X85583690Y-101613928D01*
X85402261Y-100676547D02*
X85402261Y-100978928D01*
X85704642Y-101009166D01*
X85674404Y-100978928D01*
X85644166Y-100918452D01*
X85644166Y-100767261D01*
X85674404Y-100706785D01*
X85704642Y-100676547D01*
X85765119Y-100646309D01*
X85916309Y-100646309D01*
X85976785Y-100676547D01*
X86007023Y-100706785D01*
X86037261Y-100767261D01*
X86037261Y-100918452D01*
X86007023Y-100978928D01*
X85976785Y-101009166D01*
X99287261Y-92960595D02*
X98984880Y-93172261D01*
X99287261Y-93323452D02*
X98652261Y-93323452D01*
X98652261Y-93081547D01*
X98682500Y-93021071D01*
X98712738Y-92990833D01*
X98773214Y-92960595D01*
X98863928Y-92960595D01*
X98924404Y-92990833D01*
X98954642Y-93021071D01*
X98984880Y-93081547D01*
X98984880Y-93323452D01*
X98863928Y-92416309D02*
X99287261Y-92416309D01*
X98622023Y-92567500D02*
X99075595Y-92718690D01*
X99075595Y-92325595D01*
X98652261Y-91962738D02*
X98652261Y-91902261D01*
X98682500Y-91841785D01*
X98712738Y-91811547D01*
X98773214Y-91781309D01*
X98894166Y-91751071D01*
X99045357Y-91751071D01*
X99166309Y-91781309D01*
X99226785Y-91811547D01*
X99257023Y-91841785D01*
X99287261Y-91902261D01*
X99287261Y-91962738D01*
X99257023Y-92023214D01*
X99226785Y-92053452D01*
X99166309Y-92083690D01*
X99045357Y-92113928D01*
X98894166Y-92113928D01*
X98773214Y-92083690D01*
X98712738Y-92053452D01*
X98682500Y-92023214D01*
X98652261Y-91962738D01*
X98712738Y-91509166D02*
X98682500Y-91478928D01*
X98652261Y-91418452D01*
X98652261Y-91267261D01*
X98682500Y-91206785D01*
X98712738Y-91176547D01*
X98773214Y-91146309D01*
X98833690Y-91146309D01*
X98924404Y-91176547D01*
X99287261Y-91539404D01*
X99287261Y-91146309D01*
D12*
X103260428Y-103274095D02*
X104494142Y-103274095D01*
X104639285Y-103225714D01*
X104711857Y-103177333D01*
X104784428Y-103080571D01*
X104784428Y-102887047D01*
X104711857Y-102790285D01*
X104639285Y-102741904D01*
X104494142Y-102693523D01*
X103260428Y-102693523D01*
X104784428Y-101677523D02*
X104784428Y-102258095D01*
X104784428Y-101967809D02*
X103260428Y-101967809D01*
X103478142Y-102064571D01*
X103623285Y-102161333D01*
X103695857Y-102258095D01*
D11*
X104402261Y-61838571D02*
X104916309Y-61838571D01*
X104976785Y-61808333D01*
X105007023Y-61778095D01*
X105037261Y-61717619D01*
X105037261Y-61596666D01*
X105007023Y-61536190D01*
X104976785Y-61505952D01*
X104916309Y-61475714D01*
X104402261Y-61475714D01*
X104613928Y-60901190D02*
X105037261Y-60901190D01*
X104372023Y-61052380D02*
X104825595Y-61203571D01*
X104825595Y-60810476D01*
X104402261Y-60447619D02*
X104402261Y-60387142D01*
X104432500Y-60326666D01*
X104462738Y-60296428D01*
X104523214Y-60266190D01*
X104644166Y-60235952D01*
X104795357Y-60235952D01*
X104916309Y-60266190D01*
X104976785Y-60296428D01*
X105007023Y-60326666D01*
X105037261Y-60387142D01*
X105037261Y-60447619D01*
X105007023Y-60508095D01*
X104976785Y-60538333D01*
X104916309Y-60568571D01*
X104795357Y-60598809D01*
X104644166Y-60598809D01*
X104523214Y-60568571D01*
X104462738Y-60538333D01*
X104432500Y-60508095D01*
X104402261Y-60447619D01*
X105037261Y-59631190D02*
X105037261Y-59994047D01*
X105037261Y-59812619D02*
X104402261Y-59812619D01*
X104492976Y-59873095D01*
X104553452Y-59933571D01*
X104583690Y-59994047D01*
X95435428Y-63161142D02*
X96669142Y-63161142D01*
X96814285Y-63088571D01*
X96886857Y-63016000D01*
X96959428Y-62870857D01*
X96959428Y-62580571D01*
X96886857Y-62435428D01*
X96814285Y-62362857D01*
X96669142Y-62290285D01*
X95435428Y-62290285D01*
X95580571Y-61637142D02*
X95508000Y-61564571D01*
X95435428Y-61419428D01*
X95435428Y-61056571D01*
X95508000Y-60911428D01*
X95580571Y-60838857D01*
X95725714Y-60766285D01*
X95870857Y-60766285D01*
X96088571Y-60838857D01*
X96959428Y-61709714D01*
X96959428Y-60766285D01*
X92895428Y-66626428D02*
X92895428Y-65779761D01*
X94419428Y-66324047D01*
X93403428Y-64751666D02*
X94419428Y-64751666D01*
X92822857Y-65054047D02*
X93911428Y-65356428D01*
X93911428Y-64570238D01*
X94419428Y-64086428D02*
X92895428Y-64086428D01*
X93621142Y-64086428D02*
X93621142Y-63360714D01*
X94419428Y-63360714D02*
X92895428Y-63360714D01*
X94274285Y-62030238D02*
X94346857Y-62090714D01*
X94419428Y-62272142D01*
X94419428Y-62393095D01*
X94346857Y-62574523D01*
X94201714Y-62695476D01*
X94056571Y-62755952D01*
X93766285Y-62816428D01*
X93548571Y-62816428D01*
X93258285Y-62755952D01*
X93113142Y-62695476D01*
X92968000Y-62574523D01*
X92895428Y-62393095D01*
X92895428Y-62272142D01*
X92968000Y-62090714D01*
X93040571Y-62030238D01*
X92895428Y-61667380D02*
X92895428Y-60941666D01*
X94419428Y-61304523D02*
X92895428Y-61304523D01*
X93040571Y-60578809D02*
X92968000Y-60518333D01*
X92895428Y-60397380D01*
X92895428Y-60095000D01*
X92968000Y-59974047D01*
X93040571Y-59913571D01*
X93185714Y-59853095D01*
X93330857Y-59853095D01*
X93548571Y-59913571D01*
X94419428Y-60639285D01*
X94419428Y-59853095D01*
X93403428Y-58764523D02*
X94419428Y-58764523D01*
X92822857Y-59066904D02*
X93911428Y-59369285D01*
X93911428Y-58583095D01*
X92895428Y-57494523D02*
X92895428Y-58099285D01*
X93621142Y-58159761D01*
X93548571Y-58099285D01*
X93476000Y-57978333D01*
X93476000Y-57675952D01*
X93548571Y-57555000D01*
X93621142Y-57494523D01*
X93766285Y-57434047D01*
X94129142Y-57434047D01*
X94274285Y-57494523D01*
X94346857Y-57555000D01*
X94419428Y-57675952D01*
X94419428Y-57978333D01*
X94346857Y-58099285D01*
X94274285Y-58159761D01*
X95435428Y-79661142D02*
X96669142Y-79661142D01*
X96814285Y-79588571D01*
X96886857Y-79516000D01*
X96959428Y-79370857D01*
X96959428Y-79080571D01*
X96886857Y-78935428D01*
X96814285Y-78862857D01*
X96669142Y-78790285D01*
X95435428Y-78790285D01*
X95435428Y-78209714D02*
X95435428Y-77266285D01*
X96016000Y-77774285D01*
X96016000Y-77556571D01*
X96088571Y-77411428D01*
X96161142Y-77338857D01*
X96306285Y-77266285D01*
X96669142Y-77266285D01*
X96814285Y-77338857D01*
X96886857Y-77411428D01*
X96959428Y-77556571D01*
X96959428Y-77992000D01*
X96886857Y-78137142D01*
X96814285Y-78209714D01*
X92895428Y-83126428D02*
X92895428Y-82279761D01*
X94419428Y-82824047D01*
X93403428Y-81251666D02*
X94419428Y-81251666D01*
X92822857Y-81554047D02*
X93911428Y-81856428D01*
X93911428Y-81070238D01*
X94419428Y-80586428D02*
X92895428Y-80586428D01*
X93621142Y-80586428D02*
X93621142Y-79860714D01*
X94419428Y-79860714D02*
X92895428Y-79860714D01*
X94274285Y-78530238D02*
X94346857Y-78590714D01*
X94419428Y-78772142D01*
X94419428Y-78893095D01*
X94346857Y-79074523D01*
X94201714Y-79195476D01*
X94056571Y-79255952D01*
X93766285Y-79316428D01*
X93548571Y-79316428D01*
X93258285Y-79255952D01*
X93113142Y-79195476D01*
X92968000Y-79074523D01*
X92895428Y-78893095D01*
X92895428Y-78772142D01*
X92968000Y-78590714D01*
X93040571Y-78530238D01*
X92895428Y-78167380D02*
X92895428Y-77441666D01*
X94419428Y-77804523D02*
X92895428Y-77804523D01*
X93040571Y-77078809D02*
X92968000Y-77018333D01*
X92895428Y-76897380D01*
X92895428Y-76595000D01*
X92968000Y-76474047D01*
X93040571Y-76413571D01*
X93185714Y-76353095D01*
X93330857Y-76353095D01*
X93548571Y-76413571D01*
X94419428Y-77139285D01*
X94419428Y-76353095D01*
X93403428Y-75264523D02*
X94419428Y-75264523D01*
X92822857Y-75566904D02*
X93911428Y-75869285D01*
X93911428Y-75083095D01*
X92895428Y-73994523D02*
X92895428Y-74599285D01*
X93621142Y-74659761D01*
X93548571Y-74599285D01*
X93476000Y-74478333D01*
X93476000Y-74175952D01*
X93548571Y-74055000D01*
X93621142Y-73994523D01*
X93766285Y-73934047D01*
X94129142Y-73934047D01*
X94274285Y-73994523D01*
X94346857Y-74055000D01*
X94419428Y-74175952D01*
X94419428Y-74478333D01*
X94346857Y-74599285D01*
X94274285Y-74659761D01*
X84537261Y-90710595D02*
X84234880Y-90922261D01*
X84537261Y-91073452D02*
X83902261Y-91073452D01*
X83902261Y-90831547D01*
X83932500Y-90771071D01*
X83962738Y-90740833D01*
X84023214Y-90710595D01*
X84113928Y-90710595D01*
X84174404Y-90740833D01*
X84204642Y-90771071D01*
X84234880Y-90831547D01*
X84234880Y-91073452D01*
X83962738Y-90468690D02*
X83932500Y-90438452D01*
X83902261Y-90377976D01*
X83902261Y-90226785D01*
X83932500Y-90166309D01*
X83962738Y-90136071D01*
X84023214Y-90105833D01*
X84083690Y-90105833D01*
X84174404Y-90136071D01*
X84537261Y-90498928D01*
X84537261Y-90105833D01*
X84537261Y-89501071D02*
X84537261Y-89863928D01*
X84537261Y-89682500D02*
X83902261Y-89682500D01*
X83992976Y-89742976D01*
X84053452Y-89803452D01*
X84083690Y-89863928D01*
X83902261Y-88956785D02*
X83902261Y-89077738D01*
X83932500Y-89138214D01*
X83962738Y-89168452D01*
X84053452Y-89228928D01*
X84174404Y-89259166D01*
X84416309Y-89259166D01*
X84476785Y-89228928D01*
X84507023Y-89198690D01*
X84537261Y-89138214D01*
X84537261Y-89017261D01*
X84507023Y-88956785D01*
X84476785Y-88926547D01*
X84416309Y-88896309D01*
X84265119Y-88896309D01*
X84204642Y-88926547D01*
X84174404Y-88956785D01*
X84144166Y-89017261D01*
X84144166Y-89138214D01*
X84174404Y-89198690D01*
X84204642Y-89228928D01*
X84265119Y-89259166D01*
X88287261Y-90710595D02*
X87984880Y-90922261D01*
X88287261Y-91073452D02*
X87652261Y-91073452D01*
X87652261Y-90831547D01*
X87682500Y-90771071D01*
X87712738Y-90740833D01*
X87773214Y-90710595D01*
X87863928Y-90710595D01*
X87924404Y-90740833D01*
X87954642Y-90771071D01*
X87984880Y-90831547D01*
X87984880Y-91073452D01*
X87712738Y-90468690D02*
X87682500Y-90438452D01*
X87652261Y-90377976D01*
X87652261Y-90226785D01*
X87682500Y-90166309D01*
X87712738Y-90136071D01*
X87773214Y-90105833D01*
X87833690Y-90105833D01*
X87924404Y-90136071D01*
X88287261Y-90498928D01*
X88287261Y-90105833D01*
X88287261Y-89501071D02*
X88287261Y-89863928D01*
X88287261Y-89682500D02*
X87652261Y-89682500D01*
X87742976Y-89742976D01*
X87803452Y-89803452D01*
X87833690Y-89863928D01*
X87652261Y-89289404D02*
X87652261Y-88866071D01*
X88287261Y-89138214D01*
X93787261Y-97960595D02*
X93484880Y-98172261D01*
X93787261Y-98323452D02*
X93152261Y-98323452D01*
X93152261Y-98081547D01*
X93182500Y-98021071D01*
X93212738Y-97990833D01*
X93273214Y-97960595D01*
X93363928Y-97960595D01*
X93424404Y-97990833D01*
X93454642Y-98021071D01*
X93484880Y-98081547D01*
X93484880Y-98323452D01*
X93212738Y-97718690D02*
X93182500Y-97688452D01*
X93152261Y-97627976D01*
X93152261Y-97476785D01*
X93182500Y-97416309D01*
X93212738Y-97386071D01*
X93273214Y-97355833D01*
X93333690Y-97355833D01*
X93424404Y-97386071D01*
X93787261Y-97748928D01*
X93787261Y-97355833D01*
X93787261Y-96751071D02*
X93787261Y-97113928D01*
X93787261Y-96932500D02*
X93152261Y-96932500D01*
X93242976Y-96992976D01*
X93303452Y-97053452D01*
X93333690Y-97113928D01*
X93424404Y-96388214D02*
X93394166Y-96448690D01*
X93363928Y-96478928D01*
X93303452Y-96509166D01*
X93273214Y-96509166D01*
X93212738Y-96478928D01*
X93182500Y-96448690D01*
X93152261Y-96388214D01*
X93152261Y-96267261D01*
X93182500Y-96206785D01*
X93212738Y-96176547D01*
X93273214Y-96146309D01*
X93303452Y-96146309D01*
X93363928Y-96176547D01*
X93394166Y-96206785D01*
X93424404Y-96267261D01*
X93424404Y-96388214D01*
X93454642Y-96448690D01*
X93484880Y-96478928D01*
X93545357Y-96509166D01*
X93666309Y-96509166D01*
X93726785Y-96478928D01*
X93757023Y-96448690D01*
X93787261Y-96388214D01*
X93787261Y-96267261D01*
X93757023Y-96206785D01*
X93726785Y-96176547D01*
X93666309Y-96146309D01*
X93545357Y-96146309D01*
X93484880Y-96176547D01*
X93454642Y-96206785D01*
X93424404Y-96267261D01*
D15*
X87263071Y-97370857D02*
X88188357Y-97370857D01*
X88297214Y-97316428D01*
X88351642Y-97262000D01*
X88406071Y-97153142D01*
X88406071Y-96935428D01*
X88351642Y-96826571D01*
X88297214Y-96772142D01*
X88188357Y-96717714D01*
X87263071Y-96717714D01*
X87644071Y-95683571D02*
X88406071Y-95683571D01*
X87208642Y-95955714D02*
X88025071Y-96227857D01*
X88025071Y-95520285D01*
D11*
X93726785Y-93210595D02*
X93757023Y-93240833D01*
X93787261Y-93331547D01*
X93787261Y-93392023D01*
X93757023Y-93482738D01*
X93696547Y-93543214D01*
X93636071Y-93573452D01*
X93515119Y-93603690D01*
X93424404Y-93603690D01*
X93303452Y-93573452D01*
X93242976Y-93543214D01*
X93182500Y-93482738D01*
X93152261Y-93392023D01*
X93152261Y-93331547D01*
X93182500Y-93240833D01*
X93212738Y-93210595D01*
X93363928Y-92666309D02*
X93787261Y-92666309D01*
X93122023Y-92817500D02*
X93575595Y-92968690D01*
X93575595Y-92575595D01*
X93152261Y-92212738D02*
X93152261Y-92152261D01*
X93182500Y-92091785D01*
X93212738Y-92061547D01*
X93273214Y-92031309D01*
X93394166Y-92001071D01*
X93545357Y-92001071D01*
X93666309Y-92031309D01*
X93726785Y-92061547D01*
X93757023Y-92091785D01*
X93787261Y-92152261D01*
X93787261Y-92212738D01*
X93757023Y-92273214D01*
X93726785Y-92303452D01*
X93666309Y-92333690D01*
X93545357Y-92363928D01*
X93394166Y-92363928D01*
X93273214Y-92333690D01*
X93212738Y-92303452D01*
X93182500Y-92273214D01*
X93152261Y-92212738D01*
X93152261Y-91456785D02*
X93152261Y-91577738D01*
X93182500Y-91638214D01*
X93212738Y-91668452D01*
X93303452Y-91728928D01*
X93424404Y-91759166D01*
X93666309Y-91759166D01*
X93726785Y-91728928D01*
X93757023Y-91698690D01*
X93787261Y-91638214D01*
X93787261Y-91517261D01*
X93757023Y-91456785D01*
X93726785Y-91426547D01*
X93666309Y-91396309D01*
X93515119Y-91396309D01*
X93454642Y-91426547D01*
X93424404Y-91456785D01*
X93394166Y-91517261D01*
X93394166Y-91638214D01*
X93424404Y-91698690D01*
X93454642Y-91728928D01*
X93515119Y-91759166D01*
X104976785Y-58210595D02*
X105007023Y-58240833D01*
X105037261Y-58331547D01*
X105037261Y-58392023D01*
X105007023Y-58482738D01*
X104946547Y-58543214D01*
X104886071Y-58573452D01*
X104765119Y-58603690D01*
X104674404Y-58603690D01*
X104553452Y-58573452D01*
X104492976Y-58543214D01*
X104432500Y-58482738D01*
X104402261Y-58392023D01*
X104402261Y-58331547D01*
X104432500Y-58240833D01*
X104462738Y-58210595D01*
X104613928Y-57666309D02*
X105037261Y-57666309D01*
X104372023Y-57817500D02*
X104825595Y-57968690D01*
X104825595Y-57575595D01*
X104402261Y-57212738D02*
X104402261Y-57152261D01*
X104432500Y-57091785D01*
X104462738Y-57061547D01*
X104523214Y-57031309D01*
X104644166Y-57001071D01*
X104795357Y-57001071D01*
X104916309Y-57031309D01*
X104976785Y-57061547D01*
X105007023Y-57091785D01*
X105037261Y-57152261D01*
X105037261Y-57212738D01*
X105007023Y-57273214D01*
X104976785Y-57303452D01*
X104916309Y-57333690D01*
X104795357Y-57363928D01*
X104644166Y-57363928D01*
X104523214Y-57333690D01*
X104462738Y-57303452D01*
X104432500Y-57273214D01*
X104402261Y-57212738D01*
X104402261Y-56789404D02*
X104402261Y-56366071D01*
X105037261Y-56638214D01*
X104976785Y-72960595D02*
X105007023Y-72990833D01*
X105037261Y-73081547D01*
X105037261Y-73142023D01*
X105007023Y-73232738D01*
X104946547Y-73293214D01*
X104886071Y-73323452D01*
X104765119Y-73353690D01*
X104674404Y-73353690D01*
X104553452Y-73323452D01*
X104492976Y-73293214D01*
X104432500Y-73232738D01*
X104402261Y-73142023D01*
X104402261Y-73081547D01*
X104432500Y-72990833D01*
X104462738Y-72960595D01*
X104613928Y-72416309D02*
X105037261Y-72416309D01*
X104372023Y-72567500D02*
X104825595Y-72718690D01*
X104825595Y-72325595D01*
X104402261Y-71962738D02*
X104402261Y-71902261D01*
X104432500Y-71841785D01*
X104462738Y-71811547D01*
X104523214Y-71781309D01*
X104644166Y-71751071D01*
X104795357Y-71751071D01*
X104916309Y-71781309D01*
X104976785Y-71811547D01*
X105007023Y-71841785D01*
X105037261Y-71902261D01*
X105037261Y-71962738D01*
X105007023Y-72023214D01*
X104976785Y-72053452D01*
X104916309Y-72083690D01*
X104795357Y-72113928D01*
X104644166Y-72113928D01*
X104523214Y-72083690D01*
X104462738Y-72053452D01*
X104432500Y-72023214D01*
X104402261Y-71962738D01*
X104674404Y-71388214D02*
X104644166Y-71448690D01*
X104613928Y-71478928D01*
X104553452Y-71509166D01*
X104523214Y-71509166D01*
X104462738Y-71478928D01*
X104432500Y-71448690D01*
X104402261Y-71388214D01*
X104402261Y-71267261D01*
X104432500Y-71206785D01*
X104462738Y-71176547D01*
X104523214Y-71146309D01*
X104553452Y-71146309D01*
X104613928Y-71176547D01*
X104644166Y-71206785D01*
X104674404Y-71267261D01*
X104674404Y-71388214D01*
X104704642Y-71448690D01*
X104734880Y-71478928D01*
X104795357Y-71509166D01*
X104916309Y-71509166D01*
X104976785Y-71478928D01*
X105007023Y-71448690D01*
X105037261Y-71388214D01*
X105037261Y-71267261D01*
X105007023Y-71206785D01*
X104976785Y-71176547D01*
X104916309Y-71146309D01*
X104795357Y-71146309D01*
X104734880Y-71176547D01*
X104704642Y-71206785D01*
X104674404Y-71267261D01*
X83976785Y-86460595D02*
X84007023Y-86490833D01*
X84037261Y-86581547D01*
X84037261Y-86642023D01*
X84007023Y-86732738D01*
X83946547Y-86793214D01*
X83886071Y-86823452D01*
X83765119Y-86853690D01*
X83674404Y-86853690D01*
X83553452Y-86823452D01*
X83492976Y-86793214D01*
X83432500Y-86732738D01*
X83402261Y-86642023D01*
X83402261Y-86581547D01*
X83432500Y-86490833D01*
X83462738Y-86460595D01*
X83613928Y-85916309D02*
X84037261Y-85916309D01*
X83372023Y-86067500D02*
X83825595Y-86218690D01*
X83825595Y-85825595D01*
X83402261Y-85462738D02*
X83402261Y-85402261D01*
X83432500Y-85341785D01*
X83462738Y-85311547D01*
X83523214Y-85281309D01*
X83644166Y-85251071D01*
X83795357Y-85251071D01*
X83916309Y-85281309D01*
X83976785Y-85311547D01*
X84007023Y-85341785D01*
X84037261Y-85402261D01*
X84037261Y-85462738D01*
X84007023Y-85523214D01*
X83976785Y-85553452D01*
X83916309Y-85583690D01*
X83795357Y-85613928D01*
X83644166Y-85613928D01*
X83523214Y-85583690D01*
X83462738Y-85553452D01*
X83432500Y-85523214D01*
X83402261Y-85462738D01*
X84037261Y-84948690D02*
X84037261Y-84827738D01*
X84007023Y-84767261D01*
X83976785Y-84737023D01*
X83886071Y-84676547D01*
X83765119Y-84646309D01*
X83523214Y-84646309D01*
X83462738Y-84676547D01*
X83432500Y-84706785D01*
X83402261Y-84767261D01*
X83402261Y-84888214D01*
X83432500Y-84948690D01*
X83462738Y-84978928D01*
X83523214Y-85009166D01*
X83674404Y-85009166D01*
X83734880Y-84978928D01*
X83765119Y-84948690D01*
X83795357Y-84888214D01*
X83795357Y-84767261D01*
X83765119Y-84706785D01*
X83734880Y-84676547D01*
X83674404Y-84646309D01*
D12*
X112894857Y-72494833D02*
X112943238Y-72537166D01*
X112991619Y-72664166D01*
X112991619Y-72748833D01*
X112943238Y-72875833D01*
X112846476Y-72960500D01*
X112749714Y-73002833D01*
X112556190Y-73045166D01*
X112411047Y-73045166D01*
X112217523Y-73002833D01*
X112120761Y-72960500D01*
X112024000Y-72875833D01*
X111975619Y-72748833D01*
X111975619Y-72664166D01*
X112024000Y-72537166D01*
X112072380Y-72494833D01*
X112314285Y-71732833D02*
X112991619Y-71732833D01*
X111927238Y-71944500D02*
X112652952Y-72156166D01*
X112652952Y-71605833D01*
X112991619Y-70801500D02*
X112991619Y-71309500D01*
X112991619Y-71055500D02*
X111975619Y-71055500D01*
X112120761Y-71140166D01*
X112217523Y-71224833D01*
X112265904Y-71309500D01*
X111975619Y-70505166D02*
X111975619Y-69954833D01*
X112362666Y-70251166D01*
X112362666Y-70124166D01*
X112411047Y-70039500D01*
X112459428Y-69997166D01*
X112556190Y-69954833D01*
X112798095Y-69954833D01*
X112894857Y-69997166D01*
X112943238Y-70039500D01*
X112991619Y-70124166D01*
X112991619Y-70378166D01*
X112943238Y-70462833D01*
X112894857Y-70505166D01*
X108830857Y-73350571D02*
X108830857Y-72189428D01*
X109411428Y-72770000D02*
X108250285Y-72770000D01*
D11*
X83037261Y-102460595D02*
X82734880Y-102672261D01*
X83037261Y-102823452D02*
X82402261Y-102823452D01*
X82402261Y-102581547D01*
X82432500Y-102521071D01*
X82462738Y-102490833D01*
X82523214Y-102460595D01*
X82613928Y-102460595D01*
X82674404Y-102490833D01*
X82704642Y-102521071D01*
X82734880Y-102581547D01*
X82734880Y-102823452D01*
X82462738Y-102218690D02*
X82432500Y-102188452D01*
X82402261Y-102127976D01*
X82402261Y-101976785D01*
X82432500Y-101916309D01*
X82462738Y-101886071D01*
X82523214Y-101855833D01*
X82583690Y-101855833D01*
X82674404Y-101886071D01*
X83037261Y-102248928D01*
X83037261Y-101855833D01*
X83037261Y-101251071D02*
X83037261Y-101613928D01*
X83037261Y-101432500D02*
X82402261Y-101432500D01*
X82492976Y-101492976D01*
X82553452Y-101553452D01*
X82583690Y-101613928D01*
X83037261Y-100948690D02*
X83037261Y-100827738D01*
X83007023Y-100767261D01*
X82976785Y-100737023D01*
X82886071Y-100676547D01*
X82765119Y-100646309D01*
X82523214Y-100646309D01*
X82462738Y-100676547D01*
X82432500Y-100706785D01*
X82402261Y-100767261D01*
X82402261Y-100888214D01*
X82432500Y-100948690D01*
X82462738Y-100978928D01*
X82523214Y-101009166D01*
X82674404Y-101009166D01*
X82734880Y-100978928D01*
X82765119Y-100948690D01*
X82795357Y-100888214D01*
X82795357Y-100767261D01*
X82765119Y-100706785D01*
X82734880Y-100676547D01*
X82674404Y-100646309D01*
D13*
X81189428Y-145576285D02*
X79665428Y-145576285D01*
X81189428Y-144705428D02*
X80318571Y-145358571D01*
X79665428Y-144705428D02*
X80536285Y-145576285D01*
X81189428Y-143254000D02*
X81189428Y-144124857D01*
X81189428Y-143689428D02*
X79665428Y-143689428D01*
X79883142Y-143834571D01*
X80028285Y-143979714D01*
X80100857Y-144124857D01*
X79665428Y-142310571D02*
X79665428Y-142165428D01*
X79738000Y-142020285D01*
X79810571Y-141947714D01*
X79955714Y-141875142D01*
X80246000Y-141802571D01*
X80608857Y-141802571D01*
X80899142Y-141875142D01*
X81044285Y-141947714D01*
X81116857Y-142020285D01*
X81189428Y-142165428D01*
X81189428Y-142310571D01*
X81116857Y-142455714D01*
X81044285Y-142528285D01*
X80899142Y-142600857D01*
X80608857Y-142673428D01*
X80246000Y-142673428D01*
X79955714Y-142600857D01*
X79810571Y-142528285D01*
X79738000Y-142455714D01*
X79665428Y-142310571D01*
X81189428Y-140351142D02*
X81189428Y-141222000D01*
X81189428Y-140786571D02*
X79665428Y-140786571D01*
X79883142Y-140931714D01*
X80028285Y-141076857D01*
X80100857Y-141222000D01*
D11*
X88652261Y-89088571D02*
X89166309Y-89088571D01*
X89226785Y-89058333D01*
X89257023Y-89028095D01*
X89287261Y-88967619D01*
X89287261Y-88846666D01*
X89257023Y-88786190D01*
X89226785Y-88755952D01*
X89166309Y-88725714D01*
X88652261Y-88725714D01*
X88863928Y-88151190D02*
X89287261Y-88151190D01*
X88622023Y-88302380D02*
X89075595Y-88453571D01*
X89075595Y-88060476D01*
X88652261Y-87697619D02*
X88652261Y-87637142D01*
X88682500Y-87576666D01*
X88712738Y-87546428D01*
X88773214Y-87516190D01*
X88894166Y-87485952D01*
X89045357Y-87485952D01*
X89166309Y-87516190D01*
X89226785Y-87546428D01*
X89257023Y-87576666D01*
X89287261Y-87637142D01*
X89287261Y-87697619D01*
X89257023Y-87758095D01*
X89226785Y-87788333D01*
X89166309Y-87818571D01*
X89045357Y-87848809D01*
X88894166Y-87848809D01*
X88773214Y-87818571D01*
X88712738Y-87788333D01*
X88682500Y-87758095D01*
X88652261Y-87697619D01*
X88712738Y-87244047D02*
X88682500Y-87213809D01*
X88652261Y-87153333D01*
X88652261Y-87002142D01*
X88682500Y-86941666D01*
X88712738Y-86911428D01*
X88773214Y-86881190D01*
X88833690Y-86881190D01*
X88924404Y-86911428D01*
X89287261Y-87274285D01*
X89287261Y-86881190D01*
X94976785Y-93210595D02*
X95007023Y-93240833D01*
X95037261Y-93331547D01*
X95037261Y-93392023D01*
X95007023Y-93482738D01*
X94946547Y-93543214D01*
X94886071Y-93573452D01*
X94765119Y-93603690D01*
X94674404Y-93603690D01*
X94553452Y-93573452D01*
X94492976Y-93543214D01*
X94432500Y-93482738D01*
X94402261Y-93392023D01*
X94402261Y-93331547D01*
X94432500Y-93240833D01*
X94462738Y-93210595D01*
X94613928Y-92666309D02*
X95037261Y-92666309D01*
X94372023Y-92817500D02*
X94825595Y-92968690D01*
X94825595Y-92575595D01*
X95037261Y-92001071D02*
X95037261Y-92363928D01*
X95037261Y-92182500D02*
X94402261Y-92182500D01*
X94492976Y-92242976D01*
X94553452Y-92303452D01*
X94583690Y-92363928D01*
X95037261Y-91396309D02*
X95037261Y-91759166D01*
X95037261Y-91577738D02*
X94402261Y-91577738D01*
X94492976Y-91638214D01*
X94553452Y-91698690D01*
X94583690Y-91759166D01*
X84037261Y-83210595D02*
X83734880Y-83422261D01*
X84037261Y-83573452D02*
X83402261Y-83573452D01*
X83402261Y-83331547D01*
X83432500Y-83271071D01*
X83462738Y-83240833D01*
X83523214Y-83210595D01*
X83613928Y-83210595D01*
X83674404Y-83240833D01*
X83704642Y-83271071D01*
X83734880Y-83331547D01*
X83734880Y-83573452D01*
X83462738Y-82968690D02*
X83432500Y-82938452D01*
X83402261Y-82877976D01*
X83402261Y-82726785D01*
X83432500Y-82666309D01*
X83462738Y-82636071D01*
X83523214Y-82605833D01*
X83583690Y-82605833D01*
X83674404Y-82636071D01*
X84037261Y-82998928D01*
X84037261Y-82605833D01*
X84037261Y-82001071D02*
X84037261Y-82363928D01*
X84037261Y-82182500D02*
X83402261Y-82182500D01*
X83492976Y-82242976D01*
X83553452Y-82303452D01*
X83583690Y-82363928D01*
X83402261Y-81607976D02*
X83402261Y-81547500D01*
X83432500Y-81487023D01*
X83462738Y-81456785D01*
X83523214Y-81426547D01*
X83644166Y-81396309D01*
X83795357Y-81396309D01*
X83916309Y-81426547D01*
X83976785Y-81456785D01*
X84007023Y-81487023D01*
X84037261Y-81547500D01*
X84037261Y-81607976D01*
X84007023Y-81668452D01*
X83976785Y-81698690D01*
X83916309Y-81728928D01*
X83795357Y-81759166D01*
X83644166Y-81759166D01*
X83523214Y-81728928D01*
X83462738Y-81698690D01*
X83432500Y-81668452D01*
X83402261Y-81607976D01*
X97787261Y-107710595D02*
X97484880Y-107922261D01*
X97787261Y-108073452D02*
X97152261Y-108073452D01*
X97152261Y-107831547D01*
X97182500Y-107771071D01*
X97212738Y-107740833D01*
X97273214Y-107710595D01*
X97363928Y-107710595D01*
X97424404Y-107740833D01*
X97454642Y-107771071D01*
X97484880Y-107831547D01*
X97484880Y-108073452D01*
X97152261Y-107498928D02*
X97152261Y-107105833D01*
X97394166Y-107317500D01*
X97394166Y-107226785D01*
X97424404Y-107166309D01*
X97454642Y-107136071D01*
X97515119Y-107105833D01*
X97666309Y-107105833D01*
X97726785Y-107136071D01*
X97757023Y-107166309D01*
X97787261Y-107226785D01*
X97787261Y-107408214D01*
X97757023Y-107468690D01*
X97726785Y-107498928D01*
X97152261Y-106712738D02*
X97152261Y-106652261D01*
X97182500Y-106591785D01*
X97212738Y-106561547D01*
X97273214Y-106531309D01*
X97394166Y-106501071D01*
X97545357Y-106501071D01*
X97666309Y-106531309D01*
X97726785Y-106561547D01*
X97757023Y-106591785D01*
X97787261Y-106652261D01*
X97787261Y-106712738D01*
X97757023Y-106773214D01*
X97726785Y-106803452D01*
X97666309Y-106833690D01*
X97545357Y-106863928D01*
X97394166Y-106863928D01*
X97273214Y-106833690D01*
X97212738Y-106803452D01*
X97182500Y-106773214D01*
X97152261Y-106712738D01*
X97152261Y-106289404D02*
X97152261Y-105896309D01*
X97394166Y-106107976D01*
X97394166Y-106017261D01*
X97424404Y-105956785D01*
X97454642Y-105926547D01*
X97515119Y-105896309D01*
X97666309Y-105896309D01*
X97726785Y-105926547D01*
X97757023Y-105956785D01*
X97787261Y-106017261D01*
X97787261Y-106198690D01*
X97757023Y-106259166D01*
X97726785Y-106289404D01*
X95537261Y-125460595D02*
X95234880Y-125672261D01*
X95537261Y-125823452D02*
X94902261Y-125823452D01*
X94902261Y-125581547D01*
X94932500Y-125521071D01*
X94962738Y-125490833D01*
X95023214Y-125460595D01*
X95113928Y-125460595D01*
X95174404Y-125490833D01*
X95204642Y-125521071D01*
X95234880Y-125581547D01*
X95234880Y-125823452D01*
X94902261Y-125248928D02*
X94902261Y-124855833D01*
X95144166Y-125067500D01*
X95144166Y-124976785D01*
X95174404Y-124916309D01*
X95204642Y-124886071D01*
X95265119Y-124855833D01*
X95416309Y-124855833D01*
X95476785Y-124886071D01*
X95507023Y-124916309D01*
X95537261Y-124976785D01*
X95537261Y-125158214D01*
X95507023Y-125218690D01*
X95476785Y-125248928D01*
X94902261Y-124462738D02*
X94902261Y-124402261D01*
X94932500Y-124341785D01*
X94962738Y-124311547D01*
X95023214Y-124281309D01*
X95144166Y-124251071D01*
X95295357Y-124251071D01*
X95416309Y-124281309D01*
X95476785Y-124311547D01*
X95507023Y-124341785D01*
X95537261Y-124402261D01*
X95537261Y-124462738D01*
X95507023Y-124523214D01*
X95476785Y-124553452D01*
X95416309Y-124583690D01*
X95295357Y-124613928D01*
X95144166Y-124613928D01*
X95023214Y-124583690D01*
X94962738Y-124553452D01*
X94932500Y-124523214D01*
X94902261Y-124462738D01*
X94962738Y-124009166D02*
X94932500Y-123978928D01*
X94902261Y-123918452D01*
X94902261Y-123767261D01*
X94932500Y-123706785D01*
X94962738Y-123676547D01*
X95023214Y-123646309D01*
X95083690Y-123646309D01*
X95174404Y-123676547D01*
X95537261Y-124039404D01*
X95537261Y-123646309D01*
X95537261Y-135710595D02*
X95234880Y-135922261D01*
X95537261Y-136073452D02*
X94902261Y-136073452D01*
X94902261Y-135831547D01*
X94932500Y-135771071D01*
X94962738Y-135740833D01*
X95023214Y-135710595D01*
X95113928Y-135710595D01*
X95174404Y-135740833D01*
X95204642Y-135771071D01*
X95234880Y-135831547D01*
X95234880Y-136073452D01*
X94902261Y-135498928D02*
X94902261Y-135105833D01*
X95144166Y-135317500D01*
X95144166Y-135226785D01*
X95174404Y-135166309D01*
X95204642Y-135136071D01*
X95265119Y-135105833D01*
X95416309Y-135105833D01*
X95476785Y-135136071D01*
X95507023Y-135166309D01*
X95537261Y-135226785D01*
X95537261Y-135408214D01*
X95507023Y-135468690D01*
X95476785Y-135498928D01*
X94902261Y-134712738D02*
X94902261Y-134652261D01*
X94932500Y-134591785D01*
X94962738Y-134561547D01*
X95023214Y-134531309D01*
X95144166Y-134501071D01*
X95295357Y-134501071D01*
X95416309Y-134531309D01*
X95476785Y-134561547D01*
X95507023Y-134591785D01*
X95537261Y-134652261D01*
X95537261Y-134712738D01*
X95507023Y-134773214D01*
X95476785Y-134803452D01*
X95416309Y-134833690D01*
X95295357Y-134863928D01*
X95144166Y-134863928D01*
X95023214Y-134833690D01*
X94962738Y-134803452D01*
X94932500Y-134773214D01*
X94902261Y-134712738D01*
X95537261Y-133896309D02*
X95537261Y-134259166D01*
X95537261Y-134077738D02*
X94902261Y-134077738D01*
X94992976Y-134138214D01*
X95053452Y-134198690D01*
X95083690Y-134259166D01*
X84037261Y-77960595D02*
X83734880Y-78172261D01*
X84037261Y-78323452D02*
X83402261Y-78323452D01*
X83402261Y-78081547D01*
X83432500Y-78021071D01*
X83462738Y-77990833D01*
X83523214Y-77960595D01*
X83613928Y-77960595D01*
X83674404Y-77990833D01*
X83704642Y-78021071D01*
X83734880Y-78081547D01*
X83734880Y-78323452D01*
X83462738Y-77718690D02*
X83432500Y-77688452D01*
X83402261Y-77627976D01*
X83402261Y-77476785D01*
X83432500Y-77416309D01*
X83462738Y-77386071D01*
X83523214Y-77355833D01*
X83583690Y-77355833D01*
X83674404Y-77386071D01*
X84037261Y-77748928D01*
X84037261Y-77355833D01*
X84037261Y-76751071D02*
X84037261Y-77113928D01*
X84037261Y-76932500D02*
X83402261Y-76932500D01*
X83492976Y-76992976D01*
X83553452Y-77053452D01*
X83583690Y-77113928D01*
X83462738Y-76509166D02*
X83432500Y-76478928D01*
X83402261Y-76418452D01*
X83402261Y-76267261D01*
X83432500Y-76206785D01*
X83462738Y-76176547D01*
X83523214Y-76146309D01*
X83583690Y-76146309D01*
X83674404Y-76176547D01*
X84037261Y-76539404D01*
X84037261Y-76146309D01*
X84037261Y-66460595D02*
X83734880Y-66672261D01*
X84037261Y-66823452D02*
X83402261Y-66823452D01*
X83402261Y-66581547D01*
X83432500Y-66521071D01*
X83462738Y-66490833D01*
X83523214Y-66460595D01*
X83613928Y-66460595D01*
X83674404Y-66490833D01*
X83704642Y-66521071D01*
X83734880Y-66581547D01*
X83734880Y-66823452D01*
X83462738Y-66218690D02*
X83432500Y-66188452D01*
X83402261Y-66127976D01*
X83402261Y-65976785D01*
X83432500Y-65916309D01*
X83462738Y-65886071D01*
X83523214Y-65855833D01*
X83583690Y-65855833D01*
X83674404Y-65886071D01*
X84037261Y-66248928D01*
X84037261Y-65855833D01*
X84037261Y-65251071D02*
X84037261Y-65613928D01*
X84037261Y-65432500D02*
X83402261Y-65432500D01*
X83492976Y-65492976D01*
X83553452Y-65553452D01*
X83583690Y-65613928D01*
X84037261Y-64646309D02*
X84037261Y-65009166D01*
X84037261Y-64827738D02*
X83402261Y-64827738D01*
X83492976Y-64888214D01*
X83553452Y-64948690D01*
X83583690Y-65009166D01*
X87597738Y-107415238D02*
X87567500Y-107475714D01*
X87507023Y-107536190D01*
X87416309Y-107626904D01*
X87386071Y-107687380D01*
X87386071Y-107747857D01*
X87537261Y-107717619D02*
X87507023Y-107778095D01*
X87446547Y-107838571D01*
X87325595Y-107868809D01*
X87113928Y-107868809D01*
X86992976Y-107838571D01*
X86932500Y-107778095D01*
X86902261Y-107717619D01*
X86902261Y-107596666D01*
X86932500Y-107536190D01*
X86992976Y-107475714D01*
X87113928Y-107445476D01*
X87325595Y-107445476D01*
X87446547Y-107475714D01*
X87507023Y-107536190D01*
X87537261Y-107596666D01*
X87537261Y-107717619D01*
X86962738Y-107203571D02*
X86932500Y-107173333D01*
X86902261Y-107112857D01*
X86902261Y-106961666D01*
X86932500Y-106901190D01*
X86962738Y-106870952D01*
X87023214Y-106840714D01*
X87083690Y-106840714D01*
X87174404Y-106870952D01*
X87537261Y-107233809D01*
X87537261Y-106840714D01*
X86902261Y-106447619D02*
X86902261Y-106387142D01*
X86932500Y-106326666D01*
X86962738Y-106296428D01*
X87023214Y-106266190D01*
X87144166Y-106235952D01*
X87295357Y-106235952D01*
X87416309Y-106266190D01*
X87476785Y-106296428D01*
X87507023Y-106326666D01*
X87537261Y-106387142D01*
X87537261Y-106447619D01*
X87507023Y-106508095D01*
X87476785Y-106538333D01*
X87416309Y-106568571D01*
X87295357Y-106598809D01*
X87144166Y-106598809D01*
X87023214Y-106568571D01*
X86962738Y-106538333D01*
X86932500Y-106508095D01*
X86902261Y-106447619D01*
X87537261Y-105631190D02*
X87537261Y-105994047D01*
X87537261Y-105812619D02*
X86902261Y-105812619D01*
X86992976Y-105873095D01*
X87053452Y-105933571D01*
X87083690Y-105994047D01*
M02*
