M48
; DRILL file {KiCad (5.1.5)-3} date 30.08.2021 19:43:06
; FORMAT={-:-/ absolute / inch / decimal}
; #@! TF.CreationDate,2021-08-30T19:43:06+02:00
; #@! TF.GenerationSoftware,Kicad,Pcbnew,(5.1.5)-3
; #@! TF.FileFunction,Plated,1,2,PTH
FMAT,2
INCH
T1C0.0250
T2C0.0320
T3C0.0354
T4C0.0591
T5C0.1260
%
G90
G05
T1
X3.2283Y-3.8189
X3.248Y-3.6614
X3.3169Y-4.1043
X3.4252Y-4.1043
X3.4646Y-2.6772
X3.4646Y-2.8543
X3.4646Y-3.3268
X3.4744Y-2.2244
X3.4843Y-3.4646
X3.5728Y-4.1043
X3.622Y-3.5728
X3.7008Y-3.7106
X3.75Y-3.8681
X3.7894Y-3.3465
X3.8091Y-3.878
X3.8681Y-3.7008
X3.8681Y-3.878
X3.937Y-3.7008
X4.0059Y-2.4606
X4.0256Y-3.9469
X4.0453Y-4.0551
X4.0551Y-2.372
X4.124Y-2.9134
X4.124Y-3.7402
X4.1437Y-3.9272
X4.2323Y-4.1732
X4.3602Y-4.4488
X4.4882Y-3.9764
X4.5276Y-2.3228
X4.5276Y-2.4606
X4.626Y-2.3917
T2
X3.3268Y-2.1547
X3.3268Y-2.2547
X4.3504Y-2.765
X4.3504Y-2.865
T3
X3.6417Y-4.3307
X3.6417Y-4.4291
X3.6417Y-4.5276
X3.6417Y-4.626
X3.6417Y-4.7244
X3.6417Y-4.8228
X3.6417Y-4.9213
X3.6417Y-5.0197
X3.6417Y-5.1181
X3.6417Y-5.2165
X3.6417Y-5.315
X3.6417Y-5.4134
X4.0142Y-3.4539
X4.0142Y-3.5539
X4.1142Y-3.4539
X4.1142Y-3.5539
X4.2142Y-3.4539
X4.2142Y-3.5539
T4
X3.0511Y-2.6575
X3.0511Y-2.8543
X3.0511Y-3.0512
X3.0511Y-3.248
X3.0511Y-3.4449
X3.0511Y-3.6417
X3.0511Y-3.8386
X3.0511Y-4.0354
X3.0511Y-4.2323
X3.0511Y-4.4291
X3.0511Y-4.626
X3.0511Y-4.8228
X3.0511Y-5.0197
X3.0511Y-5.2165
X3.0511Y-5.4134
X3.0512Y-2.4606
X3.1496Y-2.5591
X3.1496Y-2.7559
X3.1496Y-2.9528
X3.1496Y-3.1496
X3.1496Y-3.3465
X3.1496Y-3.5433
X3.1496Y-3.7402
X3.1496Y-3.937
X3.1496Y-4.1339
X3.1496Y-4.3307
X3.1496Y-4.5276
X3.1496Y-4.7244
X3.1496Y-4.9213
X3.1496Y-5.1181
X3.1496Y-5.315
T5
X2.9527Y-2.2638
X2.9527Y-5.6103
T0
M30
