M48
; DRILL file {KiCad (5.1.5)-3} date 04.05.2022 20:17:46
; FORMAT={-:-/ absolute / inch / decimal}
; #@! TF.CreationDate,2022-05-04T20:17:46+02:00
; #@! TF.GenerationSoftware,Kicad,Pcbnew,(5.1.5)-3
; #@! TF.FileFunction,Plated,1,2,PTH
FMAT,2
INCH
T1C0.0250
T2C0.0354
T3C0.0591
T4C0.1260
%
G90
G05
T1
X5.2677Y-3.4921
T2
X4.6705Y-3.49
X4.6705Y-3.59
X4.6705Y-3.69
X4.6705Y-3.79
X4.7705Y-3.49
X4.7705Y-3.59
X4.7705Y-3.69
X4.7705Y-3.79
X4.9Y-3.49
X4.9Y-3.59
X4.9Y-3.69
X4.9Y-3.79
X5.0Y-3.49
X5.0Y-3.59
X5.0Y-3.69
X5.0Y-3.79
T3
X5.1929Y-3.2402
X5.3897Y-3.2402
T4
X4.745Y-3.07
T0
M30
