G04 #@! TF.GenerationSoftware,KiCad,Pcbnew,(5.1.5)-3*
G04 #@! TF.CreationDate,2021-08-30T19:46:45+02:00*
G04 #@! TF.ProjectId,zs8,7a73382e-6b69-4636-9164-5f7063625858,0421 - A*
G04 #@! TF.SameCoordinates,Original*
G04 #@! TF.FileFunction,Soldermask,Top*
G04 #@! TF.FilePolarity,Negative*
%FSLAX46Y46*%
G04 Gerber Fmt 4.6, Leading zero omitted, Abs format (unit mm)*
G04 Created by KiCad (PCBNEW (5.1.5)-3) date 2021-08-30 19:46:45*
%MOMM*%
%LPD*%
G04 APERTURE LIST*
%ADD10C,3.900120*%
%ADD11C,2.599640*%
%ADD12C,2.178000*%
%ADD13R,1.289000X1.797000*%
%ADD14R,1.797000X1.289000*%
%ADD15R,2.000200X2.203400*%
%ADD16R,2.051000X2.051000*%
%ADD17C,2.051000*%
%ADD18R,1.924000X1.924000*%
%ADD19C,1.924000*%
%ADD20R,1.314400X1.314400*%
%ADD21R,0.806400X1.924000*%
%ADD22R,1.924000X0.806400*%
%ADD23R,0.908000X1.543000*%
%ADD24R,1.543000X0.908000*%
%ADD25R,2.051000X3.448000*%
%ADD26R,6.496000X6.496000*%
G04 APERTURE END LIST*
D10*
X94998740Y-142501820D03*
D11*
X97500640Y-62499440D03*
X97498100Y-102499360D03*
X97498100Y-107500620D03*
X97498100Y-117500600D03*
X97498100Y-112499340D03*
X97498100Y-132499300D03*
X97498100Y-137500560D03*
X97498100Y-127500580D03*
X97498100Y-122499320D03*
X97498100Y-82499400D03*
X97498100Y-87500660D03*
X97498100Y-97500640D03*
X97498100Y-92499380D03*
X97498100Y-72499420D03*
X97498100Y-77500680D03*
X97498100Y-67500700D03*
X100000000Y-65001340D03*
X100000000Y-75001320D03*
X100000000Y-70000060D03*
X100000000Y-90000020D03*
X100000000Y-95001280D03*
X100000000Y-85001300D03*
X100000000Y-80000040D03*
X100000000Y-119999960D03*
X100000000Y-125001220D03*
X100000000Y-135001200D03*
X100000000Y-129999940D03*
X100000000Y-109999980D03*
X100000000Y-115001240D03*
X100000000Y-105001260D03*
X100000000Y-100000000D03*
D10*
X94998740Y-57500720D03*
D12*
X107610000Y-64810000D03*
X107610000Y-57190000D03*
X115230000Y-64810000D03*
X120310000Y-64810000D03*
X125390000Y-64810000D03*
X115230000Y-57190000D03*
X120310000Y-57190000D03*
X125390000Y-57190000D03*
X119190000Y-69110000D03*
X126810000Y-69110000D03*
X119190000Y-76730000D03*
X119190000Y-81810000D03*
X119190000Y-86890000D03*
X126810000Y-76730000D03*
X126810000Y-81810000D03*
X126810000Y-86890000D03*
X129690000Y-69110000D03*
X137310000Y-69110000D03*
X129690000Y-76730000D03*
X129690000Y-81810000D03*
X129690000Y-86890000D03*
X137310000Y-76730000D03*
X137310000Y-81810000D03*
X137310000Y-86890000D03*
X108690000Y-69110000D03*
X116310000Y-69110000D03*
X108690000Y-76730000D03*
X108690000Y-81810000D03*
X108690000Y-86890000D03*
X116310000Y-76730000D03*
X116310000Y-81810000D03*
X116310000Y-86890000D03*
X144610000Y-64810000D03*
X144610000Y-57190000D03*
X152230000Y-64810000D03*
X157310000Y-64810000D03*
X162390000Y-64810000D03*
X152230000Y-57190000D03*
X157310000Y-57190000D03*
X162390000Y-57190000D03*
X156190000Y-69110000D03*
X163810000Y-69110000D03*
X156190000Y-76730000D03*
X156190000Y-81810000D03*
X156190000Y-86890000D03*
X163810000Y-76730000D03*
X163810000Y-81810000D03*
X163810000Y-86890000D03*
X166690000Y-69110000D03*
X174310000Y-69110000D03*
X166690000Y-76730000D03*
X166690000Y-81810000D03*
X166690000Y-86890000D03*
X174310000Y-76730000D03*
X174310000Y-81810000D03*
X174310000Y-86890000D03*
X145690000Y-69110000D03*
X153310000Y-69110000D03*
X145690000Y-76730000D03*
X145690000Y-81810000D03*
X145690000Y-86890000D03*
X153310000Y-76730000D03*
X153310000Y-81810000D03*
X153310000Y-86890000D03*
X176110000Y-64810000D03*
X176110000Y-57190000D03*
X183730000Y-64810000D03*
X188810000Y-64810000D03*
X193890000Y-64810000D03*
X183730000Y-57190000D03*
X188810000Y-57190000D03*
X193890000Y-57190000D03*
X187690000Y-69110000D03*
X195310000Y-69110000D03*
X187690000Y-76730000D03*
X187690000Y-81810000D03*
X187690000Y-86890000D03*
X195310000Y-76730000D03*
X195310000Y-81810000D03*
X195310000Y-86890000D03*
X198190000Y-69110000D03*
X205810000Y-69110000D03*
X198190000Y-76730000D03*
X198190000Y-81810000D03*
X198190000Y-86890000D03*
X205810000Y-76730000D03*
X205810000Y-81810000D03*
X205810000Y-86890000D03*
X177190000Y-69110000D03*
X184810000Y-69110000D03*
X177190000Y-76730000D03*
X177190000Y-81810000D03*
X177190000Y-86890000D03*
X184810000Y-76730000D03*
X184810000Y-81810000D03*
X184810000Y-86890000D03*
X137890000Y-138190000D03*
X137890000Y-145810000D03*
X130270000Y-138190000D03*
X125190000Y-138190000D03*
X120110000Y-138190000D03*
X130270000Y-145810000D03*
X125190000Y-145810000D03*
X120110000Y-145810000D03*
X126810000Y-133890000D03*
X119190000Y-133890000D03*
X126810000Y-126270000D03*
X126810000Y-121190000D03*
X126810000Y-116110000D03*
X119190000Y-126270000D03*
X119190000Y-121190000D03*
X119190000Y-116110000D03*
X116310000Y-133890000D03*
X108690000Y-133890000D03*
X116310000Y-126270000D03*
X116310000Y-121190000D03*
X116310000Y-116110000D03*
X108690000Y-126270000D03*
X108690000Y-121190000D03*
X108690000Y-116110000D03*
X137310000Y-133890000D03*
X129690000Y-133890000D03*
X137310000Y-126270000D03*
X137310000Y-121190000D03*
X137310000Y-116110000D03*
X129690000Y-126270000D03*
X129690000Y-121190000D03*
X129690000Y-116110000D03*
X175390000Y-138190000D03*
X175390000Y-145810000D03*
X167770000Y-138190000D03*
X162690000Y-138190000D03*
X157610000Y-138190000D03*
X167770000Y-145810000D03*
X162690000Y-145810000D03*
X157610000Y-145810000D03*
X163810000Y-133890000D03*
X156190000Y-133890000D03*
X163810000Y-126270000D03*
X163810000Y-121190000D03*
X163810000Y-116110000D03*
X156190000Y-126270000D03*
X156190000Y-121190000D03*
X156190000Y-116110000D03*
X153310000Y-133890000D03*
X145690000Y-133890000D03*
X153310000Y-126270000D03*
X153310000Y-121190000D03*
X153310000Y-116110000D03*
X145690000Y-126270000D03*
X145690000Y-121190000D03*
X145690000Y-116110000D03*
X174310000Y-133890000D03*
X166690000Y-133890000D03*
X174310000Y-126270000D03*
X174310000Y-121190000D03*
X174310000Y-116110000D03*
X166690000Y-126270000D03*
X166690000Y-121190000D03*
X166690000Y-116110000D03*
X206890000Y-138190000D03*
X206890000Y-145810000D03*
X199270000Y-138190000D03*
X194190000Y-138190000D03*
X189110000Y-138190000D03*
X199270000Y-145810000D03*
X194190000Y-145810000D03*
X189110000Y-145810000D03*
X195310000Y-133890000D03*
X187690000Y-133890000D03*
X195310000Y-126270000D03*
X195310000Y-121190000D03*
X195310000Y-116110000D03*
X187690000Y-126270000D03*
X187690000Y-121190000D03*
X187690000Y-116110000D03*
X184810000Y-133890000D03*
X177190000Y-133890000D03*
X184810000Y-126270000D03*
X184810000Y-121190000D03*
X184810000Y-116110000D03*
X177190000Y-126270000D03*
X177190000Y-121190000D03*
X177190000Y-116110000D03*
X205810000Y-133890000D03*
X198190000Y-133890000D03*
X205810000Y-126270000D03*
X205810000Y-121190000D03*
X205810000Y-116110000D03*
X198190000Y-126270000D03*
X198190000Y-121190000D03*
X198190000Y-116110000D03*
D13*
X227547500Y-119250000D03*
X229452500Y-119250000D03*
D14*
X229500000Y-62202500D03*
X229500000Y-60297500D03*
D13*
X215452500Y-75500000D03*
X213547500Y-75500000D03*
D14*
X226250000Y-82047500D03*
X226250000Y-83952500D03*
D13*
X232797500Y-68000000D03*
X234702500Y-68000000D03*
D14*
X212750000Y-91547500D03*
X212750000Y-93452500D03*
D13*
X227547500Y-105000000D03*
X229452500Y-105000000D03*
D15*
X227103000Y-98750000D03*
X229897000Y-98750000D03*
D16*
X227230000Y-124750000D03*
D17*
X229770000Y-124750000D03*
D16*
X227230000Y-112750000D03*
D17*
X229770000Y-112750000D03*
D18*
X237770000Y-76290000D03*
D19*
X235230000Y-76290000D03*
X237770000Y-73750000D03*
X235230000Y-73750000D03*
X237770000Y-71210000D03*
X235230000Y-71210000D03*
D14*
X227250000Y-60297500D03*
X227250000Y-62202500D03*
D20*
X232734000Y-84389000D03*
X232734000Y-82611000D03*
X234766000Y-83500000D03*
D13*
X234702500Y-80000000D03*
X232797500Y-80000000D03*
X234702500Y-87250000D03*
X232797500Y-87250000D03*
X232797500Y-89500000D03*
X234702500Y-89500000D03*
D14*
X232000000Y-60297500D03*
X232000000Y-62202500D03*
D21*
X224500000Y-67535000D03*
X223699900Y-67535000D03*
X222899800Y-67535000D03*
X222099700Y-67535000D03*
X221299600Y-67535000D03*
X220499500Y-67535000D03*
X225300100Y-67535000D03*
X226100200Y-67535000D03*
X226900300Y-67535000D03*
X227700400Y-67535000D03*
X228500500Y-67535000D03*
X224500000Y-78965000D03*
X223699900Y-78965000D03*
X222899800Y-78965000D03*
X222099700Y-78965000D03*
X221299600Y-78965000D03*
X220499500Y-78965000D03*
X225300100Y-78965000D03*
X226100200Y-78965000D03*
X226900300Y-78965000D03*
X227700400Y-78965000D03*
X228500500Y-78965000D03*
D22*
X218785000Y-73250000D03*
X230215000Y-73250000D03*
X218785000Y-74050100D03*
X230215000Y-74050100D03*
X230215000Y-74850200D03*
X218785000Y-74850200D03*
X218785000Y-75650300D03*
X230215000Y-75650300D03*
X230215000Y-76450400D03*
X218785000Y-76450400D03*
X218785000Y-77250500D03*
X230215000Y-77250500D03*
X230215000Y-72449900D03*
X218785000Y-72449900D03*
X218785000Y-71649800D03*
X230215000Y-71649800D03*
X230215000Y-70849700D03*
X218785000Y-70849700D03*
X218785000Y-70049600D03*
X230215000Y-70049600D03*
X230215000Y-69249500D03*
X218785000Y-69249500D03*
D23*
X219945000Y-129710000D03*
X218675000Y-129710000D03*
X217405000Y-129710000D03*
X216135000Y-129710000D03*
X214865000Y-129710000D03*
X213595000Y-129710000D03*
X212325000Y-129710000D03*
X211055000Y-129710000D03*
X211055000Y-134790000D03*
X212325000Y-134790000D03*
X213595000Y-134790000D03*
X214865000Y-134790000D03*
X216135000Y-134790000D03*
X217405000Y-134790000D03*
X218675000Y-134790000D03*
X219945000Y-134790000D03*
D24*
X146040000Y-146195000D03*
X146040000Y-144925000D03*
X146040000Y-143655000D03*
X146040000Y-142385000D03*
X146040000Y-141115000D03*
X146040000Y-139845000D03*
X146040000Y-138575000D03*
X146040000Y-137305000D03*
X140960000Y-137305000D03*
X140960000Y-138575000D03*
X140960000Y-139845000D03*
X140960000Y-141115000D03*
X140960000Y-142385000D03*
X140960000Y-143655000D03*
X140960000Y-144925000D03*
X140960000Y-146195000D03*
X137040000Y-65695000D03*
X137040000Y-64425000D03*
X137040000Y-63155000D03*
X137040000Y-61885000D03*
X137040000Y-60615000D03*
X137040000Y-59345000D03*
X137040000Y-58075000D03*
X137040000Y-56805000D03*
X131960000Y-56805000D03*
X131960000Y-58075000D03*
X131960000Y-59345000D03*
X131960000Y-60615000D03*
X131960000Y-61885000D03*
X131960000Y-63155000D03*
X131960000Y-64425000D03*
X131960000Y-65695000D03*
D25*
X218714000Y-119250000D03*
D26*
X221000000Y-112900000D03*
D25*
X223286000Y-119250000D03*
D24*
X220294000Y-91310000D03*
X220294000Y-90040000D03*
X220294000Y-88770000D03*
X220294000Y-87500000D03*
X220294000Y-86230000D03*
X220294000Y-84960000D03*
X220294000Y-83690000D03*
X214960000Y-83690000D03*
X214960000Y-84960000D03*
X214960000Y-86230000D03*
X214960000Y-87500000D03*
X214960000Y-88770000D03*
X214960000Y-90040000D03*
X214960000Y-91310000D03*
D13*
X213547500Y-78250000D03*
X215452500Y-78250000D03*
D14*
X213500000Y-62202500D03*
X213500000Y-60297500D03*
X215750000Y-62202500D03*
X215750000Y-60297500D03*
X218000000Y-62202500D03*
X218000000Y-60297500D03*
X220250000Y-62202500D03*
X220250000Y-60297500D03*
X222500000Y-62202500D03*
X222500000Y-60297500D03*
X224750000Y-62202500D03*
X224750000Y-60297500D03*
X211250000Y-62202500D03*
X211250000Y-60297500D03*
X209000000Y-62202500D03*
X209000000Y-60297500D03*
X206750000Y-62202500D03*
X206750000Y-60297500D03*
X222750000Y-131297500D03*
X222750000Y-133202500D03*
D13*
X149547500Y-146000000D03*
X151452500Y-146000000D03*
X139547500Y-65250000D03*
X141452500Y-65250000D03*
D25*
X218714000Y-105000000D03*
D26*
X221000000Y-98650000D03*
D25*
X223286000Y-105000000D03*
M02*
