G04 #@! TF.GenerationSoftware,KiCad,Pcbnew,(5.1.5)-3*
G04 #@! TF.CreationDate,2021-08-30T19:46:45+02:00*
G04 #@! TF.ProjectId,zs8,7a73382e-6b69-4636-9164-5f7063625858,0421 - A*
G04 #@! TF.SameCoordinates,Original*
G04 #@! TF.FileFunction,Legend,Top*
G04 #@! TF.FilePolarity,Positive*
%FSLAX46Y46*%
G04 Gerber Fmt 4.6, Leading zero omitted, Abs format (unit mm)*
G04 Created by KiCad (PCBNEW (5.1.5)-3) date 2021-08-30 19:46:45*
%MOMM*%
%LPD*%
G04 APERTURE LIST*
%ADD10C,0.300000*%
%ADD11C,0.127000*%
%ADD12C,0.381000*%
%ADD13C,0.254000*%
%ADD14C,0.203200*%
%ADD15C,0.304800*%
%ADD16C,0.152400*%
G04 APERTURE END LIST*
D10*
X93107142Y-147928571D02*
X93107142Y-146428571D01*
X93607142Y-147500000D01*
X94107142Y-146428571D01*
X94107142Y-147928571D01*
X94607142Y-146428571D02*
X95107142Y-147928571D01*
X95607142Y-146428571D01*
X220785714Y-145928571D02*
X221785714Y-145928571D01*
X220785714Y-147428571D01*
X221785714Y-147428571D01*
X222285714Y-147357142D02*
X222500000Y-147428571D01*
X222857142Y-147428571D01*
X223000000Y-147357142D01*
X223071428Y-147285714D01*
X223142857Y-147142857D01*
X223142857Y-147000000D01*
X223071428Y-146857142D01*
X223000000Y-146785714D01*
X222857142Y-146714285D01*
X222571428Y-146642857D01*
X222428571Y-146571428D01*
X222357142Y-146500000D01*
X222285714Y-146357142D01*
X222285714Y-146214285D01*
X222357142Y-146071428D01*
X222428571Y-146000000D01*
X222571428Y-145928571D01*
X222928571Y-145928571D01*
X223142857Y-146000000D01*
X224000000Y-146571428D02*
X223857142Y-146500000D01*
X223785714Y-146428571D01*
X223714285Y-146285714D01*
X223714285Y-146214285D01*
X223785714Y-146071428D01*
X223857142Y-146000000D01*
X224000000Y-145928571D01*
X224285714Y-145928571D01*
X224428571Y-146000000D01*
X224500000Y-146071428D01*
X224571428Y-146214285D01*
X224571428Y-146285714D01*
X224500000Y-146428571D01*
X224428571Y-146500000D01*
X224285714Y-146571428D01*
X224000000Y-146571428D01*
X223857142Y-146642857D01*
X223785714Y-146714285D01*
X223714285Y-146857142D01*
X223714285Y-147142857D01*
X223785714Y-147285714D01*
X223857142Y-147357142D01*
X224000000Y-147428571D01*
X224285714Y-147428571D01*
X224428571Y-147357142D01*
X224500000Y-147285714D01*
X224571428Y-147142857D01*
X224571428Y-146857142D01*
X224500000Y-146714285D01*
X224428571Y-146642857D01*
X224285714Y-146571428D01*
X226285714Y-146071428D02*
X226357142Y-146000000D01*
X226500000Y-145928571D01*
X226857142Y-145928571D01*
X227000000Y-146000000D01*
X227071428Y-146071428D01*
X227142857Y-146214285D01*
X227142857Y-146357142D01*
X227071428Y-146571428D01*
X226214285Y-147428571D01*
X227142857Y-147428571D01*
X228071428Y-145928571D02*
X228214285Y-145928571D01*
X228357142Y-146000000D01*
X228428571Y-146071428D01*
X228500000Y-146214285D01*
X228571428Y-146500000D01*
X228571428Y-146857142D01*
X228500000Y-147142857D01*
X228428571Y-147285714D01*
X228357142Y-147357142D01*
X228214285Y-147428571D01*
X228071428Y-147428571D01*
X227928571Y-147357142D01*
X227857142Y-147285714D01*
X227785714Y-147142857D01*
X227714285Y-146857142D01*
X227714285Y-146500000D01*
X227785714Y-146214285D01*
X227857142Y-146071428D01*
X227928571Y-146000000D01*
X228071428Y-145928571D01*
X230000000Y-147428571D02*
X229142857Y-147428571D01*
X229571428Y-147428571D02*
X229571428Y-145928571D01*
X229428571Y-146142857D01*
X229285714Y-146285714D01*
X229142857Y-146357142D01*
X231285714Y-145928571D02*
X231000000Y-145928571D01*
X230857142Y-146000000D01*
X230785714Y-146071428D01*
X230642857Y-146285714D01*
X230571428Y-146571428D01*
X230571428Y-147142857D01*
X230642857Y-147285714D01*
X230714285Y-147357142D01*
X230857142Y-147428571D01*
X231142857Y-147428571D01*
X231285714Y-147357142D01*
X231357142Y-147285714D01*
X231428571Y-147142857D01*
X231428571Y-146785714D01*
X231357142Y-146642857D01*
X231285714Y-146571428D01*
X231142857Y-146500000D01*
X230857142Y-146500000D01*
X230714285Y-146571428D01*
X230642857Y-146642857D01*
X230571428Y-146785714D01*
X232357142Y-145928571D02*
X232500000Y-145928571D01*
X232642857Y-146000000D01*
X232714285Y-146071428D01*
X232785714Y-146214285D01*
X232857142Y-146500000D01*
X232857142Y-146857142D01*
X232785714Y-147142857D01*
X232714285Y-147285714D01*
X232642857Y-147357142D01*
X232500000Y-147428571D01*
X232357142Y-147428571D01*
X232214285Y-147357142D01*
X232142857Y-147285714D01*
X232071428Y-147142857D01*
X232000000Y-146857142D01*
X232000000Y-146500000D01*
X232071428Y-146214285D01*
X232142857Y-146071428D01*
X232214285Y-146000000D01*
X232357142Y-145928571D01*
X234285714Y-147428571D02*
X233428571Y-147428571D01*
X233857142Y-147428571D02*
X233857142Y-145928571D01*
X233714285Y-146142857D01*
X233571428Y-146285714D01*
X233428571Y-146357142D01*
X234857142Y-146071428D02*
X234928571Y-146000000D01*
X235071428Y-145928571D01*
X235428571Y-145928571D01*
X235571428Y-146000000D01*
X235642857Y-146071428D01*
X235714285Y-146214285D01*
X235714285Y-146357142D01*
X235642857Y-146571428D01*
X234785714Y-147428571D01*
X235714285Y-147428571D01*
X236214285Y-145928571D02*
X237214285Y-145928571D01*
X236571428Y-147428571D01*
D11*
X216295357Y-100270000D02*
X216295357Y-99786190D01*
X216537261Y-100028095D02*
X216053452Y-100028095D01*
X215902261Y-99544285D02*
X215902261Y-99151190D01*
X216144166Y-99362857D01*
X216144166Y-99272142D01*
X216174404Y-99211666D01*
X216204642Y-99181428D01*
X216265119Y-99151190D01*
X216416309Y-99151190D01*
X216476785Y-99181428D01*
X216507023Y-99211666D01*
X216537261Y-99272142D01*
X216537261Y-99453571D01*
X216507023Y-99514047D01*
X216476785Y-99544285D01*
X216476785Y-98879047D02*
X216507023Y-98848809D01*
X216537261Y-98879047D01*
X216507023Y-98909285D01*
X216476785Y-98879047D01*
X216537261Y-98879047D01*
X215902261Y-98637142D02*
X215902261Y-98244047D01*
X216144166Y-98455714D01*
X216144166Y-98365000D01*
X216174404Y-98304523D01*
X216204642Y-98274285D01*
X216265119Y-98244047D01*
X216416309Y-98244047D01*
X216476785Y-98274285D01*
X216507023Y-98304523D01*
X216537261Y-98365000D01*
X216537261Y-98546428D01*
X216507023Y-98606904D01*
X216476785Y-98637142D01*
X215902261Y-98062619D02*
X216537261Y-97850952D01*
X215902261Y-97639285D01*
X216295357Y-113816428D02*
X216295357Y-113332619D01*
X216537261Y-113574523D02*
X216053452Y-113574523D01*
X215902261Y-112727857D02*
X215902261Y-113030238D01*
X216204642Y-113060476D01*
X216174404Y-113030238D01*
X216144166Y-112969761D01*
X216144166Y-112818571D01*
X216174404Y-112758095D01*
X216204642Y-112727857D01*
X216265119Y-112697619D01*
X216416309Y-112697619D01*
X216476785Y-112727857D01*
X216507023Y-112758095D01*
X216537261Y-112818571D01*
X216537261Y-112969761D01*
X216507023Y-113030238D01*
X216476785Y-113060476D01*
X215902261Y-112516190D02*
X216537261Y-112304523D01*
X215902261Y-112092857D01*
D10*
X238928571Y-78071428D02*
X238928571Y-78928571D01*
X238928571Y-78500000D02*
X237428571Y-78500000D01*
X237642857Y-78642857D01*
X237785714Y-78785714D01*
X237857142Y-78928571D01*
D12*
X90475000Y-54280000D02*
X90475000Y-145720000D01*
X90475000Y-145720000D02*
X98730000Y-145720000D01*
X98730000Y-145720000D02*
X98730000Y-140640000D01*
X98730000Y-140640000D02*
X94920000Y-138735000D01*
X94920000Y-138735000D02*
X94920000Y-61265000D01*
X94920000Y-61265000D02*
X98730000Y-59360000D01*
X98730000Y-59360000D02*
X98730000Y-54280000D01*
X98730000Y-54280000D02*
X90475000Y-54280000D01*
D13*
X106340000Y-55920000D02*
X106340000Y-66080000D01*
X106340000Y-66080000D02*
X126660000Y-66080000D01*
X126660000Y-66080000D02*
X126660000Y-55920000D01*
X126660000Y-55920000D02*
X106340000Y-55920000D01*
X108880000Y-62270000D02*
X111420000Y-59730000D01*
X110150000Y-62270000D02*
X110150000Y-64810000D01*
X110150000Y-64810000D02*
X108880000Y-64810000D01*
X108880000Y-57190000D02*
X110150000Y-57190000D01*
X110150000Y-57190000D02*
X110150000Y-58460000D01*
X110150000Y-58460000D02*
X110150000Y-59730000D01*
X110150000Y-59730000D02*
X108880000Y-59730000D01*
X108880000Y-59730000D02*
X108880000Y-62270000D01*
X108880000Y-62270000D02*
X111420000Y-62270000D01*
X111420000Y-62270000D02*
X111420000Y-59730000D01*
X111420000Y-59730000D02*
X110150000Y-59730000D01*
X128080000Y-67840000D02*
X117920000Y-67840000D01*
X117920000Y-67840000D02*
X117920000Y-88160000D01*
X117920000Y-88160000D02*
X128080000Y-88160000D01*
X128080000Y-88160000D02*
X128080000Y-67840000D01*
X121730000Y-70380000D02*
X124270000Y-72920000D01*
X121730000Y-71650000D02*
X119190000Y-71650000D01*
X119190000Y-71650000D02*
X119190000Y-70380000D01*
X126810000Y-70380000D02*
X126810000Y-71650000D01*
X126810000Y-71650000D02*
X125540000Y-71650000D01*
X125540000Y-71650000D02*
X124270000Y-71650000D01*
X124270000Y-71650000D02*
X124270000Y-70380000D01*
X124270000Y-70380000D02*
X121730000Y-70380000D01*
X121730000Y-70380000D02*
X121730000Y-72920000D01*
X121730000Y-72920000D02*
X124270000Y-72920000D01*
X124270000Y-72920000D02*
X124270000Y-71650000D01*
X138580000Y-67840000D02*
X128420000Y-67840000D01*
X128420000Y-67840000D02*
X128420000Y-88160000D01*
X128420000Y-88160000D02*
X138580000Y-88160000D01*
X138580000Y-88160000D02*
X138580000Y-67840000D01*
X132230000Y-70380000D02*
X134770000Y-72920000D01*
X132230000Y-71650000D02*
X129690000Y-71650000D01*
X129690000Y-71650000D02*
X129690000Y-70380000D01*
X137310000Y-70380000D02*
X137310000Y-71650000D01*
X137310000Y-71650000D02*
X136040000Y-71650000D01*
X136040000Y-71650000D02*
X134770000Y-71650000D01*
X134770000Y-71650000D02*
X134770000Y-70380000D01*
X134770000Y-70380000D02*
X132230000Y-70380000D01*
X132230000Y-70380000D02*
X132230000Y-72920000D01*
X132230000Y-72920000D02*
X134770000Y-72920000D01*
X134770000Y-72920000D02*
X134770000Y-71650000D01*
X117580000Y-67840000D02*
X107420000Y-67840000D01*
X107420000Y-67840000D02*
X107420000Y-88160000D01*
X107420000Y-88160000D02*
X117580000Y-88160000D01*
X117580000Y-88160000D02*
X117580000Y-67840000D01*
X111230000Y-70380000D02*
X113770000Y-72920000D01*
X111230000Y-71650000D02*
X108690000Y-71650000D01*
X108690000Y-71650000D02*
X108690000Y-70380000D01*
X116310000Y-70380000D02*
X116310000Y-71650000D01*
X116310000Y-71650000D02*
X115040000Y-71650000D01*
X115040000Y-71650000D02*
X113770000Y-71650000D01*
X113770000Y-71650000D02*
X113770000Y-70380000D01*
X113770000Y-70380000D02*
X111230000Y-70380000D01*
X111230000Y-70380000D02*
X111230000Y-72920000D01*
X111230000Y-72920000D02*
X113770000Y-72920000D01*
X113770000Y-72920000D02*
X113770000Y-71650000D01*
X143340000Y-55920000D02*
X143340000Y-66080000D01*
X143340000Y-66080000D02*
X163660000Y-66080000D01*
X163660000Y-66080000D02*
X163660000Y-55920000D01*
X163660000Y-55920000D02*
X143340000Y-55920000D01*
X145880000Y-62270000D02*
X148420000Y-59730000D01*
X147150000Y-62270000D02*
X147150000Y-64810000D01*
X147150000Y-64810000D02*
X145880000Y-64810000D01*
X145880000Y-57190000D02*
X147150000Y-57190000D01*
X147150000Y-57190000D02*
X147150000Y-58460000D01*
X147150000Y-58460000D02*
X147150000Y-59730000D01*
X147150000Y-59730000D02*
X145880000Y-59730000D01*
X145880000Y-59730000D02*
X145880000Y-62270000D01*
X145880000Y-62270000D02*
X148420000Y-62270000D01*
X148420000Y-62270000D02*
X148420000Y-59730000D01*
X148420000Y-59730000D02*
X147150000Y-59730000D01*
X165080000Y-67840000D02*
X154920000Y-67840000D01*
X154920000Y-67840000D02*
X154920000Y-88160000D01*
X154920000Y-88160000D02*
X165080000Y-88160000D01*
X165080000Y-88160000D02*
X165080000Y-67840000D01*
X158730000Y-70380000D02*
X161270000Y-72920000D01*
X158730000Y-71650000D02*
X156190000Y-71650000D01*
X156190000Y-71650000D02*
X156190000Y-70380000D01*
X163810000Y-70380000D02*
X163810000Y-71650000D01*
X163810000Y-71650000D02*
X162540000Y-71650000D01*
X162540000Y-71650000D02*
X161270000Y-71650000D01*
X161270000Y-71650000D02*
X161270000Y-70380000D01*
X161270000Y-70380000D02*
X158730000Y-70380000D01*
X158730000Y-70380000D02*
X158730000Y-72920000D01*
X158730000Y-72920000D02*
X161270000Y-72920000D01*
X161270000Y-72920000D02*
X161270000Y-71650000D01*
X175580000Y-67840000D02*
X165420000Y-67840000D01*
X165420000Y-67840000D02*
X165420000Y-88160000D01*
X165420000Y-88160000D02*
X175580000Y-88160000D01*
X175580000Y-88160000D02*
X175580000Y-67840000D01*
X169230000Y-70380000D02*
X171770000Y-72920000D01*
X169230000Y-71650000D02*
X166690000Y-71650000D01*
X166690000Y-71650000D02*
X166690000Y-70380000D01*
X174310000Y-70380000D02*
X174310000Y-71650000D01*
X174310000Y-71650000D02*
X173040000Y-71650000D01*
X173040000Y-71650000D02*
X171770000Y-71650000D01*
X171770000Y-71650000D02*
X171770000Y-70380000D01*
X171770000Y-70380000D02*
X169230000Y-70380000D01*
X169230000Y-70380000D02*
X169230000Y-72920000D01*
X169230000Y-72920000D02*
X171770000Y-72920000D01*
X171770000Y-72920000D02*
X171770000Y-71650000D01*
X154580000Y-67840000D02*
X144420000Y-67840000D01*
X144420000Y-67840000D02*
X144420000Y-88160000D01*
X144420000Y-88160000D02*
X154580000Y-88160000D01*
X154580000Y-88160000D02*
X154580000Y-67840000D01*
X148230000Y-70380000D02*
X150770000Y-72920000D01*
X148230000Y-71650000D02*
X145690000Y-71650000D01*
X145690000Y-71650000D02*
X145690000Y-70380000D01*
X153310000Y-70380000D02*
X153310000Y-71650000D01*
X153310000Y-71650000D02*
X152040000Y-71650000D01*
X152040000Y-71650000D02*
X150770000Y-71650000D01*
X150770000Y-71650000D02*
X150770000Y-70380000D01*
X150770000Y-70380000D02*
X148230000Y-70380000D01*
X148230000Y-70380000D02*
X148230000Y-72920000D01*
X148230000Y-72920000D02*
X150770000Y-72920000D01*
X150770000Y-72920000D02*
X150770000Y-71650000D01*
X174840000Y-55920000D02*
X174840000Y-66080000D01*
X174840000Y-66080000D02*
X195160000Y-66080000D01*
X195160000Y-66080000D02*
X195160000Y-55920000D01*
X195160000Y-55920000D02*
X174840000Y-55920000D01*
X177380000Y-62270000D02*
X179920000Y-59730000D01*
X178650000Y-62270000D02*
X178650000Y-64810000D01*
X178650000Y-64810000D02*
X177380000Y-64810000D01*
X177380000Y-57190000D02*
X178650000Y-57190000D01*
X178650000Y-57190000D02*
X178650000Y-58460000D01*
X178650000Y-58460000D02*
X178650000Y-59730000D01*
X178650000Y-59730000D02*
X177380000Y-59730000D01*
X177380000Y-59730000D02*
X177380000Y-62270000D01*
X177380000Y-62270000D02*
X179920000Y-62270000D01*
X179920000Y-62270000D02*
X179920000Y-59730000D01*
X179920000Y-59730000D02*
X178650000Y-59730000D01*
X196580000Y-67840000D02*
X186420000Y-67840000D01*
X186420000Y-67840000D02*
X186420000Y-88160000D01*
X186420000Y-88160000D02*
X196580000Y-88160000D01*
X196580000Y-88160000D02*
X196580000Y-67840000D01*
X190230000Y-70380000D02*
X192770000Y-72920000D01*
X190230000Y-71650000D02*
X187690000Y-71650000D01*
X187690000Y-71650000D02*
X187690000Y-70380000D01*
X195310000Y-70380000D02*
X195310000Y-71650000D01*
X195310000Y-71650000D02*
X194040000Y-71650000D01*
X194040000Y-71650000D02*
X192770000Y-71650000D01*
X192770000Y-71650000D02*
X192770000Y-70380000D01*
X192770000Y-70380000D02*
X190230000Y-70380000D01*
X190230000Y-70380000D02*
X190230000Y-72920000D01*
X190230000Y-72920000D02*
X192770000Y-72920000D01*
X192770000Y-72920000D02*
X192770000Y-71650000D01*
X207080000Y-67840000D02*
X196920000Y-67840000D01*
X196920000Y-67840000D02*
X196920000Y-88160000D01*
X196920000Y-88160000D02*
X207080000Y-88160000D01*
X207080000Y-88160000D02*
X207080000Y-67840000D01*
X200730000Y-70380000D02*
X203270000Y-72920000D01*
X200730000Y-71650000D02*
X198190000Y-71650000D01*
X198190000Y-71650000D02*
X198190000Y-70380000D01*
X205810000Y-70380000D02*
X205810000Y-71650000D01*
X205810000Y-71650000D02*
X204540000Y-71650000D01*
X204540000Y-71650000D02*
X203270000Y-71650000D01*
X203270000Y-71650000D02*
X203270000Y-70380000D01*
X203270000Y-70380000D02*
X200730000Y-70380000D01*
X200730000Y-70380000D02*
X200730000Y-72920000D01*
X200730000Y-72920000D02*
X203270000Y-72920000D01*
X203270000Y-72920000D02*
X203270000Y-71650000D01*
X186080000Y-67840000D02*
X175920000Y-67840000D01*
X175920000Y-67840000D02*
X175920000Y-88160000D01*
X175920000Y-88160000D02*
X186080000Y-88160000D01*
X186080000Y-88160000D02*
X186080000Y-67840000D01*
X179730000Y-70380000D02*
X182270000Y-72920000D01*
X179730000Y-71650000D02*
X177190000Y-71650000D01*
X177190000Y-71650000D02*
X177190000Y-70380000D01*
X184810000Y-70380000D02*
X184810000Y-71650000D01*
X184810000Y-71650000D02*
X183540000Y-71650000D01*
X183540000Y-71650000D02*
X182270000Y-71650000D01*
X182270000Y-71650000D02*
X182270000Y-70380000D01*
X182270000Y-70380000D02*
X179730000Y-70380000D01*
X179730000Y-70380000D02*
X179730000Y-72920000D01*
X179730000Y-72920000D02*
X182270000Y-72920000D01*
X182270000Y-72920000D02*
X182270000Y-71650000D01*
X139160000Y-147080000D02*
X139160000Y-136920000D01*
X139160000Y-136920000D02*
X118840000Y-136920000D01*
X118840000Y-136920000D02*
X118840000Y-147080000D01*
X118840000Y-147080000D02*
X139160000Y-147080000D01*
X136620000Y-140730000D02*
X134080000Y-143270000D01*
X135350000Y-140730000D02*
X135350000Y-138190000D01*
X135350000Y-138190000D02*
X136620000Y-138190000D01*
X136620000Y-145810000D02*
X135350000Y-145810000D01*
X135350000Y-145810000D02*
X135350000Y-144540000D01*
X135350000Y-144540000D02*
X135350000Y-143270000D01*
X135350000Y-143270000D02*
X136620000Y-143270000D01*
X136620000Y-143270000D02*
X136620000Y-140730000D01*
X136620000Y-140730000D02*
X134080000Y-140730000D01*
X134080000Y-140730000D02*
X134080000Y-143270000D01*
X134080000Y-143270000D02*
X135350000Y-143270000D01*
X117920000Y-135160000D02*
X128080000Y-135160000D01*
X128080000Y-135160000D02*
X128080000Y-114840000D01*
X128080000Y-114840000D02*
X117920000Y-114840000D01*
X117920000Y-114840000D02*
X117920000Y-135160000D01*
X124270000Y-132620000D02*
X121730000Y-130080000D01*
X124270000Y-131350000D02*
X126810000Y-131350000D01*
X126810000Y-131350000D02*
X126810000Y-132620000D01*
X119190000Y-132620000D02*
X119190000Y-131350000D01*
X119190000Y-131350000D02*
X120460000Y-131350000D01*
X120460000Y-131350000D02*
X121730000Y-131350000D01*
X121730000Y-131350000D02*
X121730000Y-132620000D01*
X121730000Y-132620000D02*
X124270000Y-132620000D01*
X124270000Y-132620000D02*
X124270000Y-130080000D01*
X124270000Y-130080000D02*
X121730000Y-130080000D01*
X121730000Y-130080000D02*
X121730000Y-131350000D01*
X107420000Y-135160000D02*
X117580000Y-135160000D01*
X117580000Y-135160000D02*
X117580000Y-114840000D01*
X117580000Y-114840000D02*
X107420000Y-114840000D01*
X107420000Y-114840000D02*
X107420000Y-135160000D01*
X113770000Y-132620000D02*
X111230000Y-130080000D01*
X113770000Y-131350000D02*
X116310000Y-131350000D01*
X116310000Y-131350000D02*
X116310000Y-132620000D01*
X108690000Y-132620000D02*
X108690000Y-131350000D01*
X108690000Y-131350000D02*
X109960000Y-131350000D01*
X109960000Y-131350000D02*
X111230000Y-131350000D01*
X111230000Y-131350000D02*
X111230000Y-132620000D01*
X111230000Y-132620000D02*
X113770000Y-132620000D01*
X113770000Y-132620000D02*
X113770000Y-130080000D01*
X113770000Y-130080000D02*
X111230000Y-130080000D01*
X111230000Y-130080000D02*
X111230000Y-131350000D01*
X128420000Y-135160000D02*
X138580000Y-135160000D01*
X138580000Y-135160000D02*
X138580000Y-114840000D01*
X138580000Y-114840000D02*
X128420000Y-114840000D01*
X128420000Y-114840000D02*
X128420000Y-135160000D01*
X134770000Y-132620000D02*
X132230000Y-130080000D01*
X134770000Y-131350000D02*
X137310000Y-131350000D01*
X137310000Y-131350000D02*
X137310000Y-132620000D01*
X129690000Y-132620000D02*
X129690000Y-131350000D01*
X129690000Y-131350000D02*
X130960000Y-131350000D01*
X130960000Y-131350000D02*
X132230000Y-131350000D01*
X132230000Y-131350000D02*
X132230000Y-132620000D01*
X132230000Y-132620000D02*
X134770000Y-132620000D01*
X134770000Y-132620000D02*
X134770000Y-130080000D01*
X134770000Y-130080000D02*
X132230000Y-130080000D01*
X132230000Y-130080000D02*
X132230000Y-131350000D01*
X176660000Y-147080000D02*
X176660000Y-136920000D01*
X176660000Y-136920000D02*
X156340000Y-136920000D01*
X156340000Y-136920000D02*
X156340000Y-147080000D01*
X156340000Y-147080000D02*
X176660000Y-147080000D01*
X174120000Y-140730000D02*
X171580000Y-143270000D01*
X172850000Y-140730000D02*
X172850000Y-138190000D01*
X172850000Y-138190000D02*
X174120000Y-138190000D01*
X174120000Y-145810000D02*
X172850000Y-145810000D01*
X172850000Y-145810000D02*
X172850000Y-144540000D01*
X172850000Y-144540000D02*
X172850000Y-143270000D01*
X172850000Y-143270000D02*
X174120000Y-143270000D01*
X174120000Y-143270000D02*
X174120000Y-140730000D01*
X174120000Y-140730000D02*
X171580000Y-140730000D01*
X171580000Y-140730000D02*
X171580000Y-143270000D01*
X171580000Y-143270000D02*
X172850000Y-143270000D01*
X154920000Y-135160000D02*
X165080000Y-135160000D01*
X165080000Y-135160000D02*
X165080000Y-114840000D01*
X165080000Y-114840000D02*
X154920000Y-114840000D01*
X154920000Y-114840000D02*
X154920000Y-135160000D01*
X161270000Y-132620000D02*
X158730000Y-130080000D01*
X161270000Y-131350000D02*
X163810000Y-131350000D01*
X163810000Y-131350000D02*
X163810000Y-132620000D01*
X156190000Y-132620000D02*
X156190000Y-131350000D01*
X156190000Y-131350000D02*
X157460000Y-131350000D01*
X157460000Y-131350000D02*
X158730000Y-131350000D01*
X158730000Y-131350000D02*
X158730000Y-132620000D01*
X158730000Y-132620000D02*
X161270000Y-132620000D01*
X161270000Y-132620000D02*
X161270000Y-130080000D01*
X161270000Y-130080000D02*
X158730000Y-130080000D01*
X158730000Y-130080000D02*
X158730000Y-131350000D01*
X144420000Y-135160000D02*
X154580000Y-135160000D01*
X154580000Y-135160000D02*
X154580000Y-114840000D01*
X154580000Y-114840000D02*
X144420000Y-114840000D01*
X144420000Y-114840000D02*
X144420000Y-135160000D01*
X150770000Y-132620000D02*
X148230000Y-130080000D01*
X150770000Y-131350000D02*
X153310000Y-131350000D01*
X153310000Y-131350000D02*
X153310000Y-132620000D01*
X145690000Y-132620000D02*
X145690000Y-131350000D01*
X145690000Y-131350000D02*
X146960000Y-131350000D01*
X146960000Y-131350000D02*
X148230000Y-131350000D01*
X148230000Y-131350000D02*
X148230000Y-132620000D01*
X148230000Y-132620000D02*
X150770000Y-132620000D01*
X150770000Y-132620000D02*
X150770000Y-130080000D01*
X150770000Y-130080000D02*
X148230000Y-130080000D01*
X148230000Y-130080000D02*
X148230000Y-131350000D01*
X165420000Y-135160000D02*
X175580000Y-135160000D01*
X175580000Y-135160000D02*
X175580000Y-114840000D01*
X175580000Y-114840000D02*
X165420000Y-114840000D01*
X165420000Y-114840000D02*
X165420000Y-135160000D01*
X171770000Y-132620000D02*
X169230000Y-130080000D01*
X171770000Y-131350000D02*
X174310000Y-131350000D01*
X174310000Y-131350000D02*
X174310000Y-132620000D01*
X166690000Y-132620000D02*
X166690000Y-131350000D01*
X166690000Y-131350000D02*
X167960000Y-131350000D01*
X167960000Y-131350000D02*
X169230000Y-131350000D01*
X169230000Y-131350000D02*
X169230000Y-132620000D01*
X169230000Y-132620000D02*
X171770000Y-132620000D01*
X171770000Y-132620000D02*
X171770000Y-130080000D01*
X171770000Y-130080000D02*
X169230000Y-130080000D01*
X169230000Y-130080000D02*
X169230000Y-131350000D01*
X208160000Y-147080000D02*
X208160000Y-136920000D01*
X208160000Y-136920000D02*
X187840000Y-136920000D01*
X187840000Y-136920000D02*
X187840000Y-147080000D01*
X187840000Y-147080000D02*
X208160000Y-147080000D01*
X205620000Y-140730000D02*
X203080000Y-143270000D01*
X204350000Y-140730000D02*
X204350000Y-138190000D01*
X204350000Y-138190000D02*
X205620000Y-138190000D01*
X205620000Y-145810000D02*
X204350000Y-145810000D01*
X204350000Y-145810000D02*
X204350000Y-144540000D01*
X204350000Y-144540000D02*
X204350000Y-143270000D01*
X204350000Y-143270000D02*
X205620000Y-143270000D01*
X205620000Y-143270000D02*
X205620000Y-140730000D01*
X205620000Y-140730000D02*
X203080000Y-140730000D01*
X203080000Y-140730000D02*
X203080000Y-143270000D01*
X203080000Y-143270000D02*
X204350000Y-143270000D01*
X186420000Y-135160000D02*
X196580000Y-135160000D01*
X196580000Y-135160000D02*
X196580000Y-114840000D01*
X196580000Y-114840000D02*
X186420000Y-114840000D01*
X186420000Y-114840000D02*
X186420000Y-135160000D01*
X192770000Y-132620000D02*
X190230000Y-130080000D01*
X192770000Y-131350000D02*
X195310000Y-131350000D01*
X195310000Y-131350000D02*
X195310000Y-132620000D01*
X187690000Y-132620000D02*
X187690000Y-131350000D01*
X187690000Y-131350000D02*
X188960000Y-131350000D01*
X188960000Y-131350000D02*
X190230000Y-131350000D01*
X190230000Y-131350000D02*
X190230000Y-132620000D01*
X190230000Y-132620000D02*
X192770000Y-132620000D01*
X192770000Y-132620000D02*
X192770000Y-130080000D01*
X192770000Y-130080000D02*
X190230000Y-130080000D01*
X190230000Y-130080000D02*
X190230000Y-131350000D01*
X175920000Y-135160000D02*
X186080000Y-135160000D01*
X186080000Y-135160000D02*
X186080000Y-114840000D01*
X186080000Y-114840000D02*
X175920000Y-114840000D01*
X175920000Y-114840000D02*
X175920000Y-135160000D01*
X182270000Y-132620000D02*
X179730000Y-130080000D01*
X182270000Y-131350000D02*
X184810000Y-131350000D01*
X184810000Y-131350000D02*
X184810000Y-132620000D01*
X177190000Y-132620000D02*
X177190000Y-131350000D01*
X177190000Y-131350000D02*
X178460000Y-131350000D01*
X178460000Y-131350000D02*
X179730000Y-131350000D01*
X179730000Y-131350000D02*
X179730000Y-132620000D01*
X179730000Y-132620000D02*
X182270000Y-132620000D01*
X182270000Y-132620000D02*
X182270000Y-130080000D01*
X182270000Y-130080000D02*
X179730000Y-130080000D01*
X179730000Y-130080000D02*
X179730000Y-131350000D01*
X196920000Y-135160000D02*
X207080000Y-135160000D01*
X207080000Y-135160000D02*
X207080000Y-114840000D01*
X207080000Y-114840000D02*
X196920000Y-114840000D01*
X196920000Y-114840000D02*
X196920000Y-135160000D01*
X203270000Y-132620000D02*
X200730000Y-130080000D01*
X203270000Y-131350000D02*
X205810000Y-131350000D01*
X205810000Y-131350000D02*
X205810000Y-132620000D01*
X198190000Y-132620000D02*
X198190000Y-131350000D01*
X198190000Y-131350000D02*
X199460000Y-131350000D01*
X199460000Y-131350000D02*
X200730000Y-131350000D01*
X200730000Y-131350000D02*
X200730000Y-132620000D01*
X200730000Y-132620000D02*
X203270000Y-132620000D01*
X203270000Y-132620000D02*
X203270000Y-130080000D01*
X203270000Y-130080000D02*
X200730000Y-130080000D01*
X200730000Y-130080000D02*
X200730000Y-131350000D01*
D11*
X228627000Y-119250000D02*
X229008000Y-119250000D01*
X228627000Y-118869000D02*
X228627000Y-119631000D01*
X227992000Y-119250000D02*
X228373000Y-119250000D01*
X228373000Y-119250000D02*
X228373000Y-118869000D01*
X228373000Y-118869000D02*
X228373000Y-119631000D01*
X229500000Y-61123000D02*
X229500000Y-60742000D01*
X229119000Y-61123000D02*
X229881000Y-61123000D01*
X229500000Y-61758000D02*
X229500000Y-61377000D01*
X229500000Y-61377000D02*
X229119000Y-61377000D01*
X229119000Y-61377000D02*
X229881000Y-61377000D01*
X214373000Y-75500000D02*
X213992000Y-75500000D01*
X214373000Y-75881000D02*
X214373000Y-75119000D01*
X215008000Y-75500000D02*
X214627000Y-75500000D01*
X214627000Y-75500000D02*
X214627000Y-75881000D01*
X214627000Y-75881000D02*
X214627000Y-75119000D01*
X226250000Y-83127000D02*
X226250000Y-83508000D01*
X226631000Y-83127000D02*
X225869000Y-83127000D01*
X226250000Y-82492000D02*
X226250000Y-82873000D01*
X226250000Y-82873000D02*
X226631000Y-82873000D01*
X226631000Y-82873000D02*
X225869000Y-82873000D01*
X233877000Y-68000000D02*
X234258000Y-68000000D01*
X233877000Y-67619000D02*
X233877000Y-68381000D01*
X233242000Y-68000000D02*
X233623000Y-68000000D01*
X233623000Y-68000000D02*
X233623000Y-67619000D01*
X233623000Y-67619000D02*
X233623000Y-68381000D01*
X212750000Y-92627000D02*
X212750000Y-93008000D01*
X213131000Y-92627000D02*
X212369000Y-92627000D01*
X212750000Y-91992000D02*
X212750000Y-92373000D01*
X212750000Y-92373000D02*
X213131000Y-92373000D01*
X213131000Y-92373000D02*
X212369000Y-92373000D01*
X228627000Y-105000000D02*
X229008000Y-105000000D01*
X228627000Y-104619000D02*
X228627000Y-105381000D01*
X227992000Y-105000000D02*
X228373000Y-105000000D01*
X228373000Y-105000000D02*
X228373000Y-104619000D01*
X228373000Y-104619000D02*
X228373000Y-105381000D01*
X225833000Y-98750000D02*
X225325000Y-98750000D01*
X225579000Y-99004000D02*
X225579000Y-98496000D01*
X228373000Y-98750000D02*
X227992000Y-98750000D01*
X228373000Y-99131000D02*
X228373000Y-98369000D01*
X229008000Y-98750000D02*
X228627000Y-98750000D01*
X228627000Y-98750000D02*
X228627000Y-99131000D01*
X228627000Y-99131000D02*
X228627000Y-98369000D01*
D14*
X231548000Y-124750000D02*
G75*
G03X231548000Y-124750000I-3048000J0D01*
G01*
X231548000Y-112750000D02*
G75*
G03X231548000Y-112750000I-3048000J0D01*
G01*
X239040000Y-69940000D02*
X239040000Y-77560000D01*
X233960000Y-77560000D02*
X233960000Y-69940000D01*
X233960000Y-69940000D02*
X239040000Y-69940000D01*
X239040000Y-77560000D02*
X233960000Y-77560000D01*
D11*
X227250000Y-61504000D02*
X227250000Y-61758000D01*
X227250000Y-60742000D02*
X227250000Y-60996000D01*
X227504000Y-60996000D02*
X227123000Y-60996000D01*
X227123000Y-60996000D02*
X226996000Y-60996000D01*
X226996000Y-60996000D02*
X226996000Y-61504000D01*
X226996000Y-61504000D02*
X227504000Y-61504000D01*
X227504000Y-61504000D02*
X227504000Y-60996000D01*
X233369000Y-85024000D02*
X233369000Y-81976000D01*
X233369000Y-81976000D02*
X234131000Y-81976000D01*
X234131000Y-81976000D02*
X234131000Y-85024000D01*
X234131000Y-85024000D02*
X233369000Y-85024000D01*
X233496000Y-80000000D02*
X233242000Y-80000000D01*
X234258000Y-80000000D02*
X234004000Y-80000000D01*
X234004000Y-80254000D02*
X234004000Y-79873000D01*
X234004000Y-79873000D02*
X234004000Y-79746000D01*
X234004000Y-79746000D02*
X233496000Y-79746000D01*
X233496000Y-79746000D02*
X233496000Y-80254000D01*
X233496000Y-80254000D02*
X234004000Y-80254000D01*
X233496000Y-87250000D02*
X233242000Y-87250000D01*
X234258000Y-87250000D02*
X234004000Y-87250000D01*
X234004000Y-87504000D02*
X234004000Y-87123000D01*
X234004000Y-87123000D02*
X234004000Y-86996000D01*
X234004000Y-86996000D02*
X233496000Y-86996000D01*
X233496000Y-86996000D02*
X233496000Y-87504000D01*
X233496000Y-87504000D02*
X234004000Y-87504000D01*
X234004000Y-89500000D02*
X234258000Y-89500000D01*
X233242000Y-89500000D02*
X233496000Y-89500000D01*
X233496000Y-89246000D02*
X233496000Y-89627000D01*
X233496000Y-89627000D02*
X233496000Y-89754000D01*
X233496000Y-89754000D02*
X234004000Y-89754000D01*
X234004000Y-89754000D02*
X234004000Y-89246000D01*
X234004000Y-89246000D02*
X233496000Y-89246000D01*
X232000000Y-61504000D02*
X232000000Y-61758000D01*
X232000000Y-60742000D02*
X232000000Y-60996000D01*
X232254000Y-60996000D02*
X231873000Y-60996000D01*
X231873000Y-60996000D02*
X231746000Y-60996000D01*
X231746000Y-60996000D02*
X231746000Y-61504000D01*
X231746000Y-61504000D02*
X232254000Y-61504000D01*
X232254000Y-61504000D02*
X232254000Y-60996000D01*
D15*
X229503800Y-68246200D02*
X229503800Y-78253800D01*
X229503800Y-78253800D02*
X219496200Y-78253800D01*
X219496200Y-68728800D02*
X219496200Y-78253800D01*
X219978800Y-68246200D02*
X229503800Y-68246200D01*
X219496200Y-68728800D02*
X219978800Y-68246200D01*
D14*
X221325000Y-69440000D02*
G75*
G03X221325000Y-69440000I-635000J0D01*
G01*
X220961000Y-134028000D02*
X210039000Y-134028000D01*
X210039000Y-134028000D02*
X210039000Y-130472000D01*
X210039000Y-130472000D02*
X220961000Y-130472000D01*
X220961000Y-130472000D02*
X220961000Y-134028000D01*
X220961000Y-132758000D02*
X220199000Y-132758000D01*
X220199000Y-132758000D02*
X220199000Y-131742000D01*
X220199000Y-131742000D02*
X220961000Y-131742000D01*
X141722000Y-147211000D02*
X141722000Y-136289000D01*
X141722000Y-136289000D02*
X145278000Y-136289000D01*
X145278000Y-136289000D02*
X145278000Y-147211000D01*
X145278000Y-147211000D02*
X141722000Y-147211000D01*
X142992000Y-147211000D02*
X142992000Y-146449000D01*
X142992000Y-146449000D02*
X144008000Y-146449000D01*
X144008000Y-146449000D02*
X144008000Y-147211000D01*
X132722000Y-66711000D02*
X132722000Y-55789000D01*
X132722000Y-55789000D02*
X136278000Y-55789000D01*
X136278000Y-55789000D02*
X136278000Y-66711000D01*
X136278000Y-66711000D02*
X132722000Y-66711000D01*
X133992000Y-66711000D02*
X133992000Y-65949000D01*
X133992000Y-65949000D02*
X135008000Y-65949000D01*
X135008000Y-65949000D02*
X135008000Y-66711000D01*
D11*
X222397000Y-117726000D02*
X222397000Y-120901000D01*
X222397000Y-120901000D02*
X224175000Y-120901000D01*
X224175000Y-120901000D02*
X224175000Y-117726000D01*
X217825000Y-117726000D02*
X217825000Y-120901000D01*
X217825000Y-120901000D02*
X219603000Y-120901000D01*
X219603000Y-120901000D02*
X219603000Y-117726000D01*
X224429000Y-111630000D02*
X224429000Y-117726000D01*
X224429000Y-117726000D02*
X217571000Y-117726000D01*
X217571000Y-117726000D02*
X217571000Y-109852000D01*
X217571000Y-109725000D02*
X224429000Y-109725000D01*
X224429000Y-109852000D02*
X224429000Y-111630000D01*
D14*
X215722000Y-92326000D02*
X215722000Y-82674000D01*
X215722000Y-82674000D02*
X219532000Y-82674000D01*
X219532000Y-82674000D02*
X219532000Y-92326000D01*
X219532000Y-92326000D02*
X215722000Y-92326000D01*
X216992000Y-92326000D02*
X216992000Y-91564000D01*
X216992000Y-91564000D02*
X218008000Y-91564000D01*
X218008000Y-91564000D02*
X218008000Y-92326000D01*
D11*
X214754000Y-78250000D02*
X215008000Y-78250000D01*
X213992000Y-78250000D02*
X214246000Y-78250000D01*
X214246000Y-77996000D02*
X214246000Y-78377000D01*
X214246000Y-78377000D02*
X214246000Y-78504000D01*
X214246000Y-78504000D02*
X214754000Y-78504000D01*
X214754000Y-78504000D02*
X214754000Y-77996000D01*
X214754000Y-77996000D02*
X214246000Y-77996000D01*
X213500000Y-60996000D02*
X213500000Y-60742000D01*
X213500000Y-61758000D02*
X213500000Y-61504000D01*
X213246000Y-61504000D02*
X213627000Y-61504000D01*
X213627000Y-61504000D02*
X213754000Y-61504000D01*
X213754000Y-61504000D02*
X213754000Y-60996000D01*
X213754000Y-60996000D02*
X213246000Y-60996000D01*
X213246000Y-60996000D02*
X213246000Y-61504000D01*
X215750000Y-60996000D02*
X215750000Y-60742000D01*
X215750000Y-61758000D02*
X215750000Y-61504000D01*
X215496000Y-61504000D02*
X215877000Y-61504000D01*
X215877000Y-61504000D02*
X216004000Y-61504000D01*
X216004000Y-61504000D02*
X216004000Y-60996000D01*
X216004000Y-60996000D02*
X215496000Y-60996000D01*
X215496000Y-60996000D02*
X215496000Y-61504000D01*
X218000000Y-60996000D02*
X218000000Y-60742000D01*
X218000000Y-61758000D02*
X218000000Y-61504000D01*
X217746000Y-61504000D02*
X218127000Y-61504000D01*
X218127000Y-61504000D02*
X218254000Y-61504000D01*
X218254000Y-61504000D02*
X218254000Y-60996000D01*
X218254000Y-60996000D02*
X217746000Y-60996000D01*
X217746000Y-60996000D02*
X217746000Y-61504000D01*
X220250000Y-60996000D02*
X220250000Y-60742000D01*
X220250000Y-61758000D02*
X220250000Y-61504000D01*
X219996000Y-61504000D02*
X220377000Y-61504000D01*
X220377000Y-61504000D02*
X220504000Y-61504000D01*
X220504000Y-61504000D02*
X220504000Y-60996000D01*
X220504000Y-60996000D02*
X219996000Y-60996000D01*
X219996000Y-60996000D02*
X219996000Y-61504000D01*
X222500000Y-60996000D02*
X222500000Y-60742000D01*
X222500000Y-61758000D02*
X222500000Y-61504000D01*
X222246000Y-61504000D02*
X222627000Y-61504000D01*
X222627000Y-61504000D02*
X222754000Y-61504000D01*
X222754000Y-61504000D02*
X222754000Y-60996000D01*
X222754000Y-60996000D02*
X222246000Y-60996000D01*
X222246000Y-60996000D02*
X222246000Y-61504000D01*
X224750000Y-60996000D02*
X224750000Y-60742000D01*
X224750000Y-61758000D02*
X224750000Y-61504000D01*
X224496000Y-61504000D02*
X224877000Y-61504000D01*
X224877000Y-61504000D02*
X225004000Y-61504000D01*
X225004000Y-61504000D02*
X225004000Y-60996000D01*
X225004000Y-60996000D02*
X224496000Y-60996000D01*
X224496000Y-60996000D02*
X224496000Y-61504000D01*
X211250000Y-60996000D02*
X211250000Y-60742000D01*
X211250000Y-61758000D02*
X211250000Y-61504000D01*
X210996000Y-61504000D02*
X211377000Y-61504000D01*
X211377000Y-61504000D02*
X211504000Y-61504000D01*
X211504000Y-61504000D02*
X211504000Y-60996000D01*
X211504000Y-60996000D02*
X210996000Y-60996000D01*
X210996000Y-60996000D02*
X210996000Y-61504000D01*
X209000000Y-60996000D02*
X209000000Y-60742000D01*
X209000000Y-61758000D02*
X209000000Y-61504000D01*
X208746000Y-61504000D02*
X209127000Y-61504000D01*
X209127000Y-61504000D02*
X209254000Y-61504000D01*
X209254000Y-61504000D02*
X209254000Y-60996000D01*
X209254000Y-60996000D02*
X208746000Y-60996000D01*
X208746000Y-60996000D02*
X208746000Y-61504000D01*
X206750000Y-60996000D02*
X206750000Y-60742000D01*
X206750000Y-61758000D02*
X206750000Y-61504000D01*
X206496000Y-61504000D02*
X206877000Y-61504000D01*
X206877000Y-61504000D02*
X207004000Y-61504000D01*
X207004000Y-61504000D02*
X207004000Y-60996000D01*
X207004000Y-60996000D02*
X206496000Y-60996000D01*
X206496000Y-60996000D02*
X206496000Y-61504000D01*
X222750000Y-132377000D02*
X222750000Y-132758000D01*
X223131000Y-132377000D02*
X222369000Y-132377000D01*
X222750000Y-131742000D02*
X222750000Y-132123000D01*
X222750000Y-132123000D02*
X223131000Y-132123000D01*
X223131000Y-132123000D02*
X222369000Y-132123000D01*
X150627000Y-146000000D02*
X151008000Y-146000000D01*
X150627000Y-145619000D02*
X150627000Y-146381000D01*
X149992000Y-146000000D02*
X150373000Y-146000000D01*
X150373000Y-146000000D02*
X150373000Y-145619000D01*
X150373000Y-145619000D02*
X150373000Y-146381000D01*
X140627000Y-65250000D02*
X141008000Y-65250000D01*
X140627000Y-64869000D02*
X140627000Y-65631000D01*
X139992000Y-65250000D02*
X140373000Y-65250000D01*
X140373000Y-65250000D02*
X140373000Y-64869000D01*
X140373000Y-64869000D02*
X140373000Y-65631000D01*
X222397000Y-103476000D02*
X222397000Y-106651000D01*
X222397000Y-106651000D02*
X224175000Y-106651000D01*
X224175000Y-106651000D02*
X224175000Y-103476000D01*
X217825000Y-103476000D02*
X217825000Y-106651000D01*
X217825000Y-106651000D02*
X219603000Y-106651000D01*
X219603000Y-106651000D02*
X219603000Y-103476000D01*
X224429000Y-97380000D02*
X224429000Y-103476000D01*
X224429000Y-103476000D02*
X217571000Y-103476000D01*
X217571000Y-103476000D02*
X217571000Y-95602000D01*
X217571000Y-95475000D02*
X224429000Y-95475000D01*
X224429000Y-95602000D02*
X224429000Y-97380000D01*
X96176547Y-53537261D02*
X96176547Y-52902261D01*
X96539404Y-53537261D02*
X96267261Y-53174404D01*
X96539404Y-52902261D02*
X96176547Y-53265119D01*
X97144166Y-53537261D02*
X96781309Y-53537261D01*
X96962738Y-53537261D02*
X96962738Y-52902261D01*
X96902261Y-52992976D01*
X96841785Y-53053452D01*
X96781309Y-53083690D01*
X97537261Y-52902261D02*
X97597738Y-52902261D01*
X97658214Y-52932500D01*
X97688452Y-52962738D01*
X97718690Y-53023214D01*
X97748928Y-53144166D01*
X97748928Y-53295357D01*
X97718690Y-53416309D01*
X97688452Y-53476785D01*
X97658214Y-53507023D01*
X97597738Y-53537261D01*
X97537261Y-53537261D01*
X97476785Y-53507023D01*
X97446547Y-53476785D01*
X97416309Y-53416309D01*
X97386071Y-53295357D01*
X97386071Y-53144166D01*
X97416309Y-53023214D01*
X97446547Y-52962738D01*
X97476785Y-52932500D01*
X97537261Y-52902261D01*
X98353690Y-53537261D02*
X97990833Y-53537261D01*
X98172261Y-53537261D02*
X98172261Y-52902261D01*
X98111785Y-52992976D01*
X98051309Y-53053452D01*
X97990833Y-53083690D01*
D15*
X113488285Y-61689428D02*
X112980285Y-60963714D01*
X112617428Y-61689428D02*
X112617428Y-60165428D01*
X113198000Y-60165428D01*
X113343142Y-60238000D01*
X113415714Y-60310571D01*
X113488285Y-60455714D01*
X113488285Y-60673428D01*
X113415714Y-60818571D01*
X113343142Y-60891142D01*
X113198000Y-60963714D01*
X112617428Y-60963714D01*
X114141428Y-60891142D02*
X114649428Y-60891142D01*
X114867142Y-61689428D02*
X114141428Y-61689428D01*
X114141428Y-60165428D01*
X114867142Y-60165428D01*
X116246000Y-61689428D02*
X115520285Y-61689428D01*
X115520285Y-60165428D01*
X116608857Y-60165428D02*
X117552285Y-60165428D01*
X117044285Y-60746000D01*
X117262000Y-60746000D01*
X117407142Y-60818571D01*
X117479714Y-60891142D01*
X117552285Y-61036285D01*
X117552285Y-61399142D01*
X117479714Y-61544285D01*
X117407142Y-61616857D01*
X117262000Y-61689428D01*
X116826571Y-61689428D01*
X116681428Y-61616857D01*
X116608857Y-61544285D01*
X118495714Y-60165428D02*
X118640857Y-60165428D01*
X118786000Y-60238000D01*
X118858571Y-60310571D01*
X118931142Y-60455714D01*
X119003714Y-60746000D01*
X119003714Y-61108857D01*
X118931142Y-61399142D01*
X118858571Y-61544285D01*
X118786000Y-61616857D01*
X118640857Y-61689428D01*
X118495714Y-61689428D01*
X118350571Y-61616857D01*
X118278000Y-61544285D01*
X118205428Y-61399142D01*
X118132857Y-61108857D01*
X118132857Y-60746000D01*
X118205428Y-60455714D01*
X118278000Y-60310571D01*
X118350571Y-60238000D01*
X118495714Y-60165428D01*
X120455142Y-61689428D02*
X119584285Y-61689428D01*
X120019714Y-61689428D02*
X120019714Y-60165428D01*
X119874571Y-60383142D01*
X119729428Y-60528285D01*
X119584285Y-60600857D01*
X123689428Y-81011714D02*
X122963714Y-81519714D01*
X123689428Y-81882571D02*
X122165428Y-81882571D01*
X122165428Y-81302000D01*
X122238000Y-81156857D01*
X122310571Y-81084285D01*
X122455714Y-81011714D01*
X122673428Y-81011714D01*
X122818571Y-81084285D01*
X122891142Y-81156857D01*
X122963714Y-81302000D01*
X122963714Y-81882571D01*
X122891142Y-80358571D02*
X122891142Y-79850571D01*
X123689428Y-79632857D02*
X123689428Y-80358571D01*
X122165428Y-80358571D01*
X122165428Y-79632857D01*
X123689428Y-78254000D02*
X123689428Y-78979714D01*
X122165428Y-78979714D01*
X122165428Y-77891142D02*
X122165428Y-76947714D01*
X122746000Y-77455714D01*
X122746000Y-77238000D01*
X122818571Y-77092857D01*
X122891142Y-77020285D01*
X123036285Y-76947714D01*
X123399142Y-76947714D01*
X123544285Y-77020285D01*
X123616857Y-77092857D01*
X123689428Y-77238000D01*
X123689428Y-77673428D01*
X123616857Y-77818571D01*
X123544285Y-77891142D01*
X122165428Y-76004285D02*
X122165428Y-75859142D01*
X122238000Y-75714000D01*
X122310571Y-75641428D01*
X122455714Y-75568857D01*
X122746000Y-75496285D01*
X123108857Y-75496285D01*
X123399142Y-75568857D01*
X123544285Y-75641428D01*
X123616857Y-75714000D01*
X123689428Y-75859142D01*
X123689428Y-76004285D01*
X123616857Y-76149428D01*
X123544285Y-76222000D01*
X123399142Y-76294571D01*
X123108857Y-76367142D01*
X122746000Y-76367142D01*
X122455714Y-76294571D01*
X122310571Y-76222000D01*
X122238000Y-76149428D01*
X122165428Y-76004285D01*
X122310571Y-74915714D02*
X122238000Y-74843142D01*
X122165428Y-74698000D01*
X122165428Y-74335142D01*
X122238000Y-74190000D01*
X122310571Y-74117428D01*
X122455714Y-74044857D01*
X122600857Y-74044857D01*
X122818571Y-74117428D01*
X123689428Y-74988285D01*
X123689428Y-74044857D01*
X134189428Y-81011714D02*
X133463714Y-81519714D01*
X134189428Y-81882571D02*
X132665428Y-81882571D01*
X132665428Y-81302000D01*
X132738000Y-81156857D01*
X132810571Y-81084285D01*
X132955714Y-81011714D01*
X133173428Y-81011714D01*
X133318571Y-81084285D01*
X133391142Y-81156857D01*
X133463714Y-81302000D01*
X133463714Y-81882571D01*
X133391142Y-80358571D02*
X133391142Y-79850571D01*
X134189428Y-79632857D02*
X134189428Y-80358571D01*
X132665428Y-80358571D01*
X132665428Y-79632857D01*
X134189428Y-78254000D02*
X134189428Y-78979714D01*
X132665428Y-78979714D01*
X132665428Y-77891142D02*
X132665428Y-76947714D01*
X133246000Y-77455714D01*
X133246000Y-77238000D01*
X133318571Y-77092857D01*
X133391142Y-77020285D01*
X133536285Y-76947714D01*
X133899142Y-76947714D01*
X134044285Y-77020285D01*
X134116857Y-77092857D01*
X134189428Y-77238000D01*
X134189428Y-77673428D01*
X134116857Y-77818571D01*
X134044285Y-77891142D01*
X132665428Y-76004285D02*
X132665428Y-75859142D01*
X132738000Y-75714000D01*
X132810571Y-75641428D01*
X132955714Y-75568857D01*
X133246000Y-75496285D01*
X133608857Y-75496285D01*
X133899142Y-75568857D01*
X134044285Y-75641428D01*
X134116857Y-75714000D01*
X134189428Y-75859142D01*
X134189428Y-76004285D01*
X134116857Y-76149428D01*
X134044285Y-76222000D01*
X133899142Y-76294571D01*
X133608857Y-76367142D01*
X133246000Y-76367142D01*
X132955714Y-76294571D01*
X132810571Y-76222000D01*
X132738000Y-76149428D01*
X132665428Y-76004285D01*
X132665428Y-74988285D02*
X132665428Y-74044857D01*
X133246000Y-74552857D01*
X133246000Y-74335142D01*
X133318571Y-74190000D01*
X133391142Y-74117428D01*
X133536285Y-74044857D01*
X133899142Y-74044857D01*
X134044285Y-74117428D01*
X134116857Y-74190000D01*
X134189428Y-74335142D01*
X134189428Y-74770571D01*
X134116857Y-74915714D01*
X134044285Y-74988285D01*
X113189428Y-81011714D02*
X112463714Y-81519714D01*
X113189428Y-81882571D02*
X111665428Y-81882571D01*
X111665428Y-81302000D01*
X111738000Y-81156857D01*
X111810571Y-81084285D01*
X111955714Y-81011714D01*
X112173428Y-81011714D01*
X112318571Y-81084285D01*
X112391142Y-81156857D01*
X112463714Y-81302000D01*
X112463714Y-81882571D01*
X112391142Y-80358571D02*
X112391142Y-79850571D01*
X113189428Y-79632857D02*
X113189428Y-80358571D01*
X111665428Y-80358571D01*
X111665428Y-79632857D01*
X113189428Y-78254000D02*
X113189428Y-78979714D01*
X111665428Y-78979714D01*
X111665428Y-77891142D02*
X111665428Y-76947714D01*
X112246000Y-77455714D01*
X112246000Y-77238000D01*
X112318571Y-77092857D01*
X112391142Y-77020285D01*
X112536285Y-76947714D01*
X112899142Y-76947714D01*
X113044285Y-77020285D01*
X113116857Y-77092857D01*
X113189428Y-77238000D01*
X113189428Y-77673428D01*
X113116857Y-77818571D01*
X113044285Y-77891142D01*
X111665428Y-76004285D02*
X111665428Y-75859142D01*
X111738000Y-75714000D01*
X111810571Y-75641428D01*
X111955714Y-75568857D01*
X112246000Y-75496285D01*
X112608857Y-75496285D01*
X112899142Y-75568857D01*
X113044285Y-75641428D01*
X113116857Y-75714000D01*
X113189428Y-75859142D01*
X113189428Y-76004285D01*
X113116857Y-76149428D01*
X113044285Y-76222000D01*
X112899142Y-76294571D01*
X112608857Y-76367142D01*
X112246000Y-76367142D01*
X111955714Y-76294571D01*
X111810571Y-76222000D01*
X111738000Y-76149428D01*
X111665428Y-76004285D01*
X112173428Y-74190000D02*
X113189428Y-74190000D01*
X111592857Y-74552857D02*
X112681428Y-74915714D01*
X112681428Y-73972285D01*
X150488285Y-61689428D02*
X149980285Y-60963714D01*
X149617428Y-61689428D02*
X149617428Y-60165428D01*
X150198000Y-60165428D01*
X150343142Y-60238000D01*
X150415714Y-60310571D01*
X150488285Y-60455714D01*
X150488285Y-60673428D01*
X150415714Y-60818571D01*
X150343142Y-60891142D01*
X150198000Y-60963714D01*
X149617428Y-60963714D01*
X151141428Y-60891142D02*
X151649428Y-60891142D01*
X151867142Y-61689428D02*
X151141428Y-61689428D01*
X151141428Y-60165428D01*
X151867142Y-60165428D01*
X153246000Y-61689428D02*
X152520285Y-61689428D01*
X152520285Y-60165428D01*
X153608857Y-60165428D02*
X154552285Y-60165428D01*
X154044285Y-60746000D01*
X154262000Y-60746000D01*
X154407142Y-60818571D01*
X154479714Y-60891142D01*
X154552285Y-61036285D01*
X154552285Y-61399142D01*
X154479714Y-61544285D01*
X154407142Y-61616857D01*
X154262000Y-61689428D01*
X153826571Y-61689428D01*
X153681428Y-61616857D01*
X153608857Y-61544285D01*
X155495714Y-60165428D02*
X155640857Y-60165428D01*
X155786000Y-60238000D01*
X155858571Y-60310571D01*
X155931142Y-60455714D01*
X156003714Y-60746000D01*
X156003714Y-61108857D01*
X155931142Y-61399142D01*
X155858571Y-61544285D01*
X155786000Y-61616857D01*
X155640857Y-61689428D01*
X155495714Y-61689428D01*
X155350571Y-61616857D01*
X155278000Y-61544285D01*
X155205428Y-61399142D01*
X155132857Y-61108857D01*
X155132857Y-60746000D01*
X155205428Y-60455714D01*
X155278000Y-60310571D01*
X155350571Y-60238000D01*
X155495714Y-60165428D01*
X157382571Y-60165428D02*
X156656857Y-60165428D01*
X156584285Y-60891142D01*
X156656857Y-60818571D01*
X156802000Y-60746000D01*
X157164857Y-60746000D01*
X157310000Y-60818571D01*
X157382571Y-60891142D01*
X157455142Y-61036285D01*
X157455142Y-61399142D01*
X157382571Y-61544285D01*
X157310000Y-61616857D01*
X157164857Y-61689428D01*
X156802000Y-61689428D01*
X156656857Y-61616857D01*
X156584285Y-61544285D01*
X160689428Y-81011714D02*
X159963714Y-81519714D01*
X160689428Y-81882571D02*
X159165428Y-81882571D01*
X159165428Y-81302000D01*
X159238000Y-81156857D01*
X159310571Y-81084285D01*
X159455714Y-81011714D01*
X159673428Y-81011714D01*
X159818571Y-81084285D01*
X159891142Y-81156857D01*
X159963714Y-81302000D01*
X159963714Y-81882571D01*
X159891142Y-80358571D02*
X159891142Y-79850571D01*
X160689428Y-79632857D02*
X160689428Y-80358571D01*
X159165428Y-80358571D01*
X159165428Y-79632857D01*
X160689428Y-78254000D02*
X160689428Y-78979714D01*
X159165428Y-78979714D01*
X159165428Y-77891142D02*
X159165428Y-76947714D01*
X159746000Y-77455714D01*
X159746000Y-77238000D01*
X159818571Y-77092857D01*
X159891142Y-77020285D01*
X160036285Y-76947714D01*
X160399142Y-76947714D01*
X160544285Y-77020285D01*
X160616857Y-77092857D01*
X160689428Y-77238000D01*
X160689428Y-77673428D01*
X160616857Y-77818571D01*
X160544285Y-77891142D01*
X159165428Y-76004285D02*
X159165428Y-75859142D01*
X159238000Y-75714000D01*
X159310571Y-75641428D01*
X159455714Y-75568857D01*
X159746000Y-75496285D01*
X160108857Y-75496285D01*
X160399142Y-75568857D01*
X160544285Y-75641428D01*
X160616857Y-75714000D01*
X160689428Y-75859142D01*
X160689428Y-76004285D01*
X160616857Y-76149428D01*
X160544285Y-76222000D01*
X160399142Y-76294571D01*
X160108857Y-76367142D01*
X159746000Y-76367142D01*
X159455714Y-76294571D01*
X159310571Y-76222000D01*
X159238000Y-76149428D01*
X159165428Y-76004285D01*
X159165428Y-74190000D02*
X159165428Y-74480285D01*
X159238000Y-74625428D01*
X159310571Y-74698000D01*
X159528285Y-74843142D01*
X159818571Y-74915714D01*
X160399142Y-74915714D01*
X160544285Y-74843142D01*
X160616857Y-74770571D01*
X160689428Y-74625428D01*
X160689428Y-74335142D01*
X160616857Y-74190000D01*
X160544285Y-74117428D01*
X160399142Y-74044857D01*
X160036285Y-74044857D01*
X159891142Y-74117428D01*
X159818571Y-74190000D01*
X159746000Y-74335142D01*
X159746000Y-74625428D01*
X159818571Y-74770571D01*
X159891142Y-74843142D01*
X160036285Y-74915714D01*
X171189428Y-81011714D02*
X170463714Y-81519714D01*
X171189428Y-81882571D02*
X169665428Y-81882571D01*
X169665428Y-81302000D01*
X169738000Y-81156857D01*
X169810571Y-81084285D01*
X169955714Y-81011714D01*
X170173428Y-81011714D01*
X170318571Y-81084285D01*
X170391142Y-81156857D01*
X170463714Y-81302000D01*
X170463714Y-81882571D01*
X170391142Y-80358571D02*
X170391142Y-79850571D01*
X171189428Y-79632857D02*
X171189428Y-80358571D01*
X169665428Y-80358571D01*
X169665428Y-79632857D01*
X171189428Y-78254000D02*
X171189428Y-78979714D01*
X169665428Y-78979714D01*
X169665428Y-77891142D02*
X169665428Y-76947714D01*
X170246000Y-77455714D01*
X170246000Y-77238000D01*
X170318571Y-77092857D01*
X170391142Y-77020285D01*
X170536285Y-76947714D01*
X170899142Y-76947714D01*
X171044285Y-77020285D01*
X171116857Y-77092857D01*
X171189428Y-77238000D01*
X171189428Y-77673428D01*
X171116857Y-77818571D01*
X171044285Y-77891142D01*
X169665428Y-76004285D02*
X169665428Y-75859142D01*
X169738000Y-75714000D01*
X169810571Y-75641428D01*
X169955714Y-75568857D01*
X170246000Y-75496285D01*
X170608857Y-75496285D01*
X170899142Y-75568857D01*
X171044285Y-75641428D01*
X171116857Y-75714000D01*
X171189428Y-75859142D01*
X171189428Y-76004285D01*
X171116857Y-76149428D01*
X171044285Y-76222000D01*
X170899142Y-76294571D01*
X170608857Y-76367142D01*
X170246000Y-76367142D01*
X169955714Y-76294571D01*
X169810571Y-76222000D01*
X169738000Y-76149428D01*
X169665428Y-76004285D01*
X169665428Y-74988285D02*
X169665428Y-73972285D01*
X171189428Y-74625428D01*
X150189428Y-81011714D02*
X149463714Y-81519714D01*
X150189428Y-81882571D02*
X148665428Y-81882571D01*
X148665428Y-81302000D01*
X148738000Y-81156857D01*
X148810571Y-81084285D01*
X148955714Y-81011714D01*
X149173428Y-81011714D01*
X149318571Y-81084285D01*
X149391142Y-81156857D01*
X149463714Y-81302000D01*
X149463714Y-81882571D01*
X149391142Y-80358571D02*
X149391142Y-79850571D01*
X150189428Y-79632857D02*
X150189428Y-80358571D01*
X148665428Y-80358571D01*
X148665428Y-79632857D01*
X150189428Y-78254000D02*
X150189428Y-78979714D01*
X148665428Y-78979714D01*
X148665428Y-77891142D02*
X148665428Y-76947714D01*
X149246000Y-77455714D01*
X149246000Y-77238000D01*
X149318571Y-77092857D01*
X149391142Y-77020285D01*
X149536285Y-76947714D01*
X149899142Y-76947714D01*
X150044285Y-77020285D01*
X150116857Y-77092857D01*
X150189428Y-77238000D01*
X150189428Y-77673428D01*
X150116857Y-77818571D01*
X150044285Y-77891142D01*
X148665428Y-76004285D02*
X148665428Y-75859142D01*
X148738000Y-75714000D01*
X148810571Y-75641428D01*
X148955714Y-75568857D01*
X149246000Y-75496285D01*
X149608857Y-75496285D01*
X149899142Y-75568857D01*
X150044285Y-75641428D01*
X150116857Y-75714000D01*
X150189428Y-75859142D01*
X150189428Y-76004285D01*
X150116857Y-76149428D01*
X150044285Y-76222000D01*
X149899142Y-76294571D01*
X149608857Y-76367142D01*
X149246000Y-76367142D01*
X148955714Y-76294571D01*
X148810571Y-76222000D01*
X148738000Y-76149428D01*
X148665428Y-76004285D01*
X149318571Y-74625428D02*
X149246000Y-74770571D01*
X149173428Y-74843142D01*
X149028285Y-74915714D01*
X148955714Y-74915714D01*
X148810571Y-74843142D01*
X148738000Y-74770571D01*
X148665428Y-74625428D01*
X148665428Y-74335142D01*
X148738000Y-74190000D01*
X148810571Y-74117428D01*
X148955714Y-74044857D01*
X149028285Y-74044857D01*
X149173428Y-74117428D01*
X149246000Y-74190000D01*
X149318571Y-74335142D01*
X149318571Y-74625428D01*
X149391142Y-74770571D01*
X149463714Y-74843142D01*
X149608857Y-74915714D01*
X149899142Y-74915714D01*
X150044285Y-74843142D01*
X150116857Y-74770571D01*
X150189428Y-74625428D01*
X150189428Y-74335142D01*
X150116857Y-74190000D01*
X150044285Y-74117428D01*
X149899142Y-74044857D01*
X149608857Y-74044857D01*
X149463714Y-74117428D01*
X149391142Y-74190000D01*
X149318571Y-74335142D01*
X181988285Y-61689428D02*
X181480285Y-60963714D01*
X181117428Y-61689428D02*
X181117428Y-60165428D01*
X181698000Y-60165428D01*
X181843142Y-60238000D01*
X181915714Y-60310571D01*
X181988285Y-60455714D01*
X181988285Y-60673428D01*
X181915714Y-60818571D01*
X181843142Y-60891142D01*
X181698000Y-60963714D01*
X181117428Y-60963714D01*
X182641428Y-60891142D02*
X183149428Y-60891142D01*
X183367142Y-61689428D02*
X182641428Y-61689428D01*
X182641428Y-60165428D01*
X183367142Y-60165428D01*
X184746000Y-61689428D02*
X184020285Y-61689428D01*
X184020285Y-60165428D01*
X185108857Y-60165428D02*
X186052285Y-60165428D01*
X185544285Y-60746000D01*
X185762000Y-60746000D01*
X185907142Y-60818571D01*
X185979714Y-60891142D01*
X186052285Y-61036285D01*
X186052285Y-61399142D01*
X185979714Y-61544285D01*
X185907142Y-61616857D01*
X185762000Y-61689428D01*
X185326571Y-61689428D01*
X185181428Y-61616857D01*
X185108857Y-61544285D01*
X186995714Y-60165428D02*
X187140857Y-60165428D01*
X187286000Y-60238000D01*
X187358571Y-60310571D01*
X187431142Y-60455714D01*
X187503714Y-60746000D01*
X187503714Y-61108857D01*
X187431142Y-61399142D01*
X187358571Y-61544285D01*
X187286000Y-61616857D01*
X187140857Y-61689428D01*
X186995714Y-61689428D01*
X186850571Y-61616857D01*
X186778000Y-61544285D01*
X186705428Y-61399142D01*
X186632857Y-61108857D01*
X186632857Y-60746000D01*
X186705428Y-60455714D01*
X186778000Y-60310571D01*
X186850571Y-60238000D01*
X186995714Y-60165428D01*
X188229428Y-61689428D02*
X188519714Y-61689428D01*
X188664857Y-61616857D01*
X188737428Y-61544285D01*
X188882571Y-61326571D01*
X188955142Y-61036285D01*
X188955142Y-60455714D01*
X188882571Y-60310571D01*
X188810000Y-60238000D01*
X188664857Y-60165428D01*
X188374571Y-60165428D01*
X188229428Y-60238000D01*
X188156857Y-60310571D01*
X188084285Y-60455714D01*
X188084285Y-60818571D01*
X188156857Y-60963714D01*
X188229428Y-61036285D01*
X188374571Y-61108857D01*
X188664857Y-61108857D01*
X188810000Y-61036285D01*
X188882571Y-60963714D01*
X188955142Y-60818571D01*
X192189428Y-81011714D02*
X191463714Y-81519714D01*
X192189428Y-81882571D02*
X190665428Y-81882571D01*
X190665428Y-81302000D01*
X190738000Y-81156857D01*
X190810571Y-81084285D01*
X190955714Y-81011714D01*
X191173428Y-81011714D01*
X191318571Y-81084285D01*
X191391142Y-81156857D01*
X191463714Y-81302000D01*
X191463714Y-81882571D01*
X191391142Y-80358571D02*
X191391142Y-79850571D01*
X192189428Y-79632857D02*
X192189428Y-80358571D01*
X190665428Y-80358571D01*
X190665428Y-79632857D01*
X192189428Y-78254000D02*
X192189428Y-78979714D01*
X190665428Y-78979714D01*
X190665428Y-77891142D02*
X190665428Y-76947714D01*
X191246000Y-77455714D01*
X191246000Y-77238000D01*
X191318571Y-77092857D01*
X191391142Y-77020285D01*
X191536285Y-76947714D01*
X191899142Y-76947714D01*
X192044285Y-77020285D01*
X192116857Y-77092857D01*
X192189428Y-77238000D01*
X192189428Y-77673428D01*
X192116857Y-77818571D01*
X192044285Y-77891142D01*
X192189428Y-75496285D02*
X192189428Y-76367142D01*
X192189428Y-75931714D02*
X190665428Y-75931714D01*
X190883142Y-76076857D01*
X191028285Y-76222000D01*
X191100857Y-76367142D01*
X190665428Y-74552857D02*
X190665428Y-74407714D01*
X190738000Y-74262571D01*
X190810571Y-74190000D01*
X190955714Y-74117428D01*
X191246000Y-74044857D01*
X191608857Y-74044857D01*
X191899142Y-74117428D01*
X192044285Y-74190000D01*
X192116857Y-74262571D01*
X192189428Y-74407714D01*
X192189428Y-74552857D01*
X192116857Y-74698000D01*
X192044285Y-74770571D01*
X191899142Y-74843142D01*
X191608857Y-74915714D01*
X191246000Y-74915714D01*
X190955714Y-74843142D01*
X190810571Y-74770571D01*
X190738000Y-74698000D01*
X190665428Y-74552857D01*
X202689428Y-81011714D02*
X201963714Y-81519714D01*
X202689428Y-81882571D02*
X201165428Y-81882571D01*
X201165428Y-81302000D01*
X201238000Y-81156857D01*
X201310571Y-81084285D01*
X201455714Y-81011714D01*
X201673428Y-81011714D01*
X201818571Y-81084285D01*
X201891142Y-81156857D01*
X201963714Y-81302000D01*
X201963714Y-81882571D01*
X201891142Y-80358571D02*
X201891142Y-79850571D01*
X202689428Y-79632857D02*
X202689428Y-80358571D01*
X201165428Y-80358571D01*
X201165428Y-79632857D01*
X202689428Y-78254000D02*
X202689428Y-78979714D01*
X201165428Y-78979714D01*
X201165428Y-77891142D02*
X201165428Y-76947714D01*
X201746000Y-77455714D01*
X201746000Y-77238000D01*
X201818571Y-77092857D01*
X201891142Y-77020285D01*
X202036285Y-76947714D01*
X202399142Y-76947714D01*
X202544285Y-77020285D01*
X202616857Y-77092857D01*
X202689428Y-77238000D01*
X202689428Y-77673428D01*
X202616857Y-77818571D01*
X202544285Y-77891142D01*
X202689428Y-75496285D02*
X202689428Y-76367142D01*
X202689428Y-75931714D02*
X201165428Y-75931714D01*
X201383142Y-76076857D01*
X201528285Y-76222000D01*
X201600857Y-76367142D01*
X202689428Y-74044857D02*
X202689428Y-74915714D01*
X202689428Y-74480285D02*
X201165428Y-74480285D01*
X201383142Y-74625428D01*
X201528285Y-74770571D01*
X201600857Y-74915714D01*
X181689428Y-81011714D02*
X180963714Y-81519714D01*
X181689428Y-81882571D02*
X180165428Y-81882571D01*
X180165428Y-81302000D01*
X180238000Y-81156857D01*
X180310571Y-81084285D01*
X180455714Y-81011714D01*
X180673428Y-81011714D01*
X180818571Y-81084285D01*
X180891142Y-81156857D01*
X180963714Y-81302000D01*
X180963714Y-81882571D01*
X180891142Y-80358571D02*
X180891142Y-79850571D01*
X181689428Y-79632857D02*
X181689428Y-80358571D01*
X180165428Y-80358571D01*
X180165428Y-79632857D01*
X181689428Y-78254000D02*
X181689428Y-78979714D01*
X180165428Y-78979714D01*
X180165428Y-77891142D02*
X180165428Y-76947714D01*
X180746000Y-77455714D01*
X180746000Y-77238000D01*
X180818571Y-77092857D01*
X180891142Y-77020285D01*
X181036285Y-76947714D01*
X181399142Y-76947714D01*
X181544285Y-77020285D01*
X181616857Y-77092857D01*
X181689428Y-77238000D01*
X181689428Y-77673428D01*
X181616857Y-77818571D01*
X181544285Y-77891142D01*
X181689428Y-75496285D02*
X181689428Y-76367142D01*
X181689428Y-75931714D02*
X180165428Y-75931714D01*
X180383142Y-76076857D01*
X180528285Y-76222000D01*
X180600857Y-76367142D01*
X180310571Y-74915714D02*
X180238000Y-74843142D01*
X180165428Y-74698000D01*
X180165428Y-74335142D01*
X180238000Y-74190000D01*
X180310571Y-74117428D01*
X180455714Y-74044857D01*
X180600857Y-74044857D01*
X180818571Y-74117428D01*
X181689428Y-74988285D01*
X181689428Y-74044857D01*
X125988285Y-142689428D02*
X125480285Y-141963714D01*
X125117428Y-142689428D02*
X125117428Y-141165428D01*
X125698000Y-141165428D01*
X125843142Y-141238000D01*
X125915714Y-141310571D01*
X125988285Y-141455714D01*
X125988285Y-141673428D01*
X125915714Y-141818571D01*
X125843142Y-141891142D01*
X125698000Y-141963714D01*
X125117428Y-141963714D01*
X126641428Y-141891142D02*
X127149428Y-141891142D01*
X127367142Y-142689428D02*
X126641428Y-142689428D01*
X126641428Y-141165428D01*
X127367142Y-141165428D01*
X128746000Y-142689428D02*
X128020285Y-142689428D01*
X128020285Y-141165428D01*
X129108857Y-141165428D02*
X130052285Y-141165428D01*
X129544285Y-141746000D01*
X129762000Y-141746000D01*
X129907142Y-141818571D01*
X129979714Y-141891142D01*
X130052285Y-142036285D01*
X130052285Y-142399142D01*
X129979714Y-142544285D01*
X129907142Y-142616857D01*
X129762000Y-142689428D01*
X129326571Y-142689428D01*
X129181428Y-142616857D01*
X129108857Y-142544285D01*
X131503714Y-142689428D02*
X130632857Y-142689428D01*
X131068285Y-142689428D02*
X131068285Y-141165428D01*
X130923142Y-141383142D01*
X130778000Y-141528285D01*
X130632857Y-141600857D01*
X132011714Y-141165428D02*
X132955142Y-141165428D01*
X132447142Y-141746000D01*
X132664857Y-141746000D01*
X132810000Y-141818571D01*
X132882571Y-141891142D01*
X132955142Y-142036285D01*
X132955142Y-142399142D01*
X132882571Y-142544285D01*
X132810000Y-142616857D01*
X132664857Y-142689428D01*
X132229428Y-142689428D01*
X132084285Y-142616857D01*
X132011714Y-142544285D01*
X123689428Y-128011714D02*
X122963714Y-128519714D01*
X123689428Y-128882571D02*
X122165428Y-128882571D01*
X122165428Y-128302000D01*
X122238000Y-128156857D01*
X122310571Y-128084285D01*
X122455714Y-128011714D01*
X122673428Y-128011714D01*
X122818571Y-128084285D01*
X122891142Y-128156857D01*
X122963714Y-128302000D01*
X122963714Y-128882571D01*
X122891142Y-127358571D02*
X122891142Y-126850571D01*
X123689428Y-126632857D02*
X123689428Y-127358571D01*
X122165428Y-127358571D01*
X122165428Y-126632857D01*
X123689428Y-125254000D02*
X123689428Y-125979714D01*
X122165428Y-125979714D01*
X122165428Y-124891142D02*
X122165428Y-123947714D01*
X122746000Y-124455714D01*
X122746000Y-124238000D01*
X122818571Y-124092857D01*
X122891142Y-124020285D01*
X123036285Y-123947714D01*
X123399142Y-123947714D01*
X123544285Y-124020285D01*
X123616857Y-124092857D01*
X123689428Y-124238000D01*
X123689428Y-124673428D01*
X123616857Y-124818571D01*
X123544285Y-124891142D01*
X123689428Y-122496285D02*
X123689428Y-123367142D01*
X123689428Y-122931714D02*
X122165428Y-122931714D01*
X122383142Y-123076857D01*
X122528285Y-123222000D01*
X122600857Y-123367142D01*
X122673428Y-121190000D02*
X123689428Y-121190000D01*
X122092857Y-121552857D02*
X123181428Y-121915714D01*
X123181428Y-120972285D01*
X113189428Y-128011714D02*
X112463714Y-128519714D01*
X113189428Y-128882571D02*
X111665428Y-128882571D01*
X111665428Y-128302000D01*
X111738000Y-128156857D01*
X111810571Y-128084285D01*
X111955714Y-128011714D01*
X112173428Y-128011714D01*
X112318571Y-128084285D01*
X112391142Y-128156857D01*
X112463714Y-128302000D01*
X112463714Y-128882571D01*
X112391142Y-127358571D02*
X112391142Y-126850571D01*
X113189428Y-126632857D02*
X113189428Y-127358571D01*
X111665428Y-127358571D01*
X111665428Y-126632857D01*
X113189428Y-125254000D02*
X113189428Y-125979714D01*
X111665428Y-125979714D01*
X111665428Y-124891142D02*
X111665428Y-123947714D01*
X112246000Y-124455714D01*
X112246000Y-124238000D01*
X112318571Y-124092857D01*
X112391142Y-124020285D01*
X112536285Y-123947714D01*
X112899142Y-123947714D01*
X113044285Y-124020285D01*
X113116857Y-124092857D01*
X113189428Y-124238000D01*
X113189428Y-124673428D01*
X113116857Y-124818571D01*
X113044285Y-124891142D01*
X113189428Y-122496285D02*
X113189428Y-123367142D01*
X113189428Y-122931714D02*
X111665428Y-122931714D01*
X111883142Y-123076857D01*
X112028285Y-123222000D01*
X112100857Y-123367142D01*
X111665428Y-121117428D02*
X111665428Y-121843142D01*
X112391142Y-121915714D01*
X112318571Y-121843142D01*
X112246000Y-121698000D01*
X112246000Y-121335142D01*
X112318571Y-121190000D01*
X112391142Y-121117428D01*
X112536285Y-121044857D01*
X112899142Y-121044857D01*
X113044285Y-121117428D01*
X113116857Y-121190000D01*
X113189428Y-121335142D01*
X113189428Y-121698000D01*
X113116857Y-121843142D01*
X113044285Y-121915714D01*
X134189428Y-128011714D02*
X133463714Y-128519714D01*
X134189428Y-128882571D02*
X132665428Y-128882571D01*
X132665428Y-128302000D01*
X132738000Y-128156857D01*
X132810571Y-128084285D01*
X132955714Y-128011714D01*
X133173428Y-128011714D01*
X133318571Y-128084285D01*
X133391142Y-128156857D01*
X133463714Y-128302000D01*
X133463714Y-128882571D01*
X133391142Y-127358571D02*
X133391142Y-126850571D01*
X134189428Y-126632857D02*
X134189428Y-127358571D01*
X132665428Y-127358571D01*
X132665428Y-126632857D01*
X134189428Y-125254000D02*
X134189428Y-125979714D01*
X132665428Y-125979714D01*
X132665428Y-124891142D02*
X132665428Y-123947714D01*
X133246000Y-124455714D01*
X133246000Y-124238000D01*
X133318571Y-124092857D01*
X133391142Y-124020285D01*
X133536285Y-123947714D01*
X133899142Y-123947714D01*
X134044285Y-124020285D01*
X134116857Y-124092857D01*
X134189428Y-124238000D01*
X134189428Y-124673428D01*
X134116857Y-124818571D01*
X134044285Y-124891142D01*
X134189428Y-122496285D02*
X134189428Y-123367142D01*
X134189428Y-122931714D02*
X132665428Y-122931714D01*
X132883142Y-123076857D01*
X133028285Y-123222000D01*
X133100857Y-123367142D01*
X132665428Y-121190000D02*
X132665428Y-121480285D01*
X132738000Y-121625428D01*
X132810571Y-121698000D01*
X133028285Y-121843142D01*
X133318571Y-121915714D01*
X133899142Y-121915714D01*
X134044285Y-121843142D01*
X134116857Y-121770571D01*
X134189428Y-121625428D01*
X134189428Y-121335142D01*
X134116857Y-121190000D01*
X134044285Y-121117428D01*
X133899142Y-121044857D01*
X133536285Y-121044857D01*
X133391142Y-121117428D01*
X133318571Y-121190000D01*
X133246000Y-121335142D01*
X133246000Y-121625428D01*
X133318571Y-121770571D01*
X133391142Y-121843142D01*
X133536285Y-121915714D01*
X163488285Y-142689428D02*
X162980285Y-141963714D01*
X162617428Y-142689428D02*
X162617428Y-141165428D01*
X163198000Y-141165428D01*
X163343142Y-141238000D01*
X163415714Y-141310571D01*
X163488285Y-141455714D01*
X163488285Y-141673428D01*
X163415714Y-141818571D01*
X163343142Y-141891142D01*
X163198000Y-141963714D01*
X162617428Y-141963714D01*
X164141428Y-141891142D02*
X164649428Y-141891142D01*
X164867142Y-142689428D02*
X164141428Y-142689428D01*
X164141428Y-141165428D01*
X164867142Y-141165428D01*
X166246000Y-142689428D02*
X165520285Y-142689428D01*
X165520285Y-141165428D01*
X166608857Y-141165428D02*
X167552285Y-141165428D01*
X167044285Y-141746000D01*
X167262000Y-141746000D01*
X167407142Y-141818571D01*
X167479714Y-141891142D01*
X167552285Y-142036285D01*
X167552285Y-142399142D01*
X167479714Y-142544285D01*
X167407142Y-142616857D01*
X167262000Y-142689428D01*
X166826571Y-142689428D01*
X166681428Y-142616857D01*
X166608857Y-142544285D01*
X169003714Y-142689428D02*
X168132857Y-142689428D01*
X168568285Y-142689428D02*
X168568285Y-141165428D01*
X168423142Y-141383142D01*
X168278000Y-141528285D01*
X168132857Y-141600857D01*
X169511714Y-141165428D02*
X170527714Y-141165428D01*
X169874571Y-142689428D01*
X160689428Y-128011714D02*
X159963714Y-128519714D01*
X160689428Y-128882571D02*
X159165428Y-128882571D01*
X159165428Y-128302000D01*
X159238000Y-128156857D01*
X159310571Y-128084285D01*
X159455714Y-128011714D01*
X159673428Y-128011714D01*
X159818571Y-128084285D01*
X159891142Y-128156857D01*
X159963714Y-128302000D01*
X159963714Y-128882571D01*
X159891142Y-127358571D02*
X159891142Y-126850571D01*
X160689428Y-126632857D02*
X160689428Y-127358571D01*
X159165428Y-127358571D01*
X159165428Y-126632857D01*
X160689428Y-125254000D02*
X160689428Y-125979714D01*
X159165428Y-125979714D01*
X159165428Y-124891142D02*
X159165428Y-123947714D01*
X159746000Y-124455714D01*
X159746000Y-124238000D01*
X159818571Y-124092857D01*
X159891142Y-124020285D01*
X160036285Y-123947714D01*
X160399142Y-123947714D01*
X160544285Y-124020285D01*
X160616857Y-124092857D01*
X160689428Y-124238000D01*
X160689428Y-124673428D01*
X160616857Y-124818571D01*
X160544285Y-124891142D01*
X160689428Y-122496285D02*
X160689428Y-123367142D01*
X160689428Y-122931714D02*
X159165428Y-122931714D01*
X159383142Y-123076857D01*
X159528285Y-123222000D01*
X159600857Y-123367142D01*
X159818571Y-121625428D02*
X159746000Y-121770571D01*
X159673428Y-121843142D01*
X159528285Y-121915714D01*
X159455714Y-121915714D01*
X159310571Y-121843142D01*
X159238000Y-121770571D01*
X159165428Y-121625428D01*
X159165428Y-121335142D01*
X159238000Y-121190000D01*
X159310571Y-121117428D01*
X159455714Y-121044857D01*
X159528285Y-121044857D01*
X159673428Y-121117428D01*
X159746000Y-121190000D01*
X159818571Y-121335142D01*
X159818571Y-121625428D01*
X159891142Y-121770571D01*
X159963714Y-121843142D01*
X160108857Y-121915714D01*
X160399142Y-121915714D01*
X160544285Y-121843142D01*
X160616857Y-121770571D01*
X160689428Y-121625428D01*
X160689428Y-121335142D01*
X160616857Y-121190000D01*
X160544285Y-121117428D01*
X160399142Y-121044857D01*
X160108857Y-121044857D01*
X159963714Y-121117428D01*
X159891142Y-121190000D01*
X159818571Y-121335142D01*
X150189428Y-128011714D02*
X149463714Y-128519714D01*
X150189428Y-128882571D02*
X148665428Y-128882571D01*
X148665428Y-128302000D01*
X148738000Y-128156857D01*
X148810571Y-128084285D01*
X148955714Y-128011714D01*
X149173428Y-128011714D01*
X149318571Y-128084285D01*
X149391142Y-128156857D01*
X149463714Y-128302000D01*
X149463714Y-128882571D01*
X149391142Y-127358571D02*
X149391142Y-126850571D01*
X150189428Y-126632857D02*
X150189428Y-127358571D01*
X148665428Y-127358571D01*
X148665428Y-126632857D01*
X150189428Y-125254000D02*
X150189428Y-125979714D01*
X148665428Y-125979714D01*
X148665428Y-124891142D02*
X148665428Y-123947714D01*
X149246000Y-124455714D01*
X149246000Y-124238000D01*
X149318571Y-124092857D01*
X149391142Y-124020285D01*
X149536285Y-123947714D01*
X149899142Y-123947714D01*
X150044285Y-124020285D01*
X150116857Y-124092857D01*
X150189428Y-124238000D01*
X150189428Y-124673428D01*
X150116857Y-124818571D01*
X150044285Y-124891142D01*
X150189428Y-122496285D02*
X150189428Y-123367142D01*
X150189428Y-122931714D02*
X148665428Y-122931714D01*
X148883142Y-123076857D01*
X149028285Y-123222000D01*
X149100857Y-123367142D01*
X150189428Y-121770571D02*
X150189428Y-121480285D01*
X150116857Y-121335142D01*
X150044285Y-121262571D01*
X149826571Y-121117428D01*
X149536285Y-121044857D01*
X148955714Y-121044857D01*
X148810571Y-121117428D01*
X148738000Y-121190000D01*
X148665428Y-121335142D01*
X148665428Y-121625428D01*
X148738000Y-121770571D01*
X148810571Y-121843142D01*
X148955714Y-121915714D01*
X149318571Y-121915714D01*
X149463714Y-121843142D01*
X149536285Y-121770571D01*
X149608857Y-121625428D01*
X149608857Y-121335142D01*
X149536285Y-121190000D01*
X149463714Y-121117428D01*
X149318571Y-121044857D01*
X171189428Y-128011714D02*
X170463714Y-128519714D01*
X171189428Y-128882571D02*
X169665428Y-128882571D01*
X169665428Y-128302000D01*
X169738000Y-128156857D01*
X169810571Y-128084285D01*
X169955714Y-128011714D01*
X170173428Y-128011714D01*
X170318571Y-128084285D01*
X170391142Y-128156857D01*
X170463714Y-128302000D01*
X170463714Y-128882571D01*
X170391142Y-127358571D02*
X170391142Y-126850571D01*
X171189428Y-126632857D02*
X171189428Y-127358571D01*
X169665428Y-127358571D01*
X169665428Y-126632857D01*
X171189428Y-125254000D02*
X171189428Y-125979714D01*
X169665428Y-125979714D01*
X169665428Y-124891142D02*
X169665428Y-123947714D01*
X170246000Y-124455714D01*
X170246000Y-124238000D01*
X170318571Y-124092857D01*
X170391142Y-124020285D01*
X170536285Y-123947714D01*
X170899142Y-123947714D01*
X171044285Y-124020285D01*
X171116857Y-124092857D01*
X171189428Y-124238000D01*
X171189428Y-124673428D01*
X171116857Y-124818571D01*
X171044285Y-124891142D01*
X169810571Y-123367142D02*
X169738000Y-123294571D01*
X169665428Y-123149428D01*
X169665428Y-122786571D01*
X169738000Y-122641428D01*
X169810571Y-122568857D01*
X169955714Y-122496285D01*
X170100857Y-122496285D01*
X170318571Y-122568857D01*
X171189428Y-123439714D01*
X171189428Y-122496285D01*
X169665428Y-121552857D02*
X169665428Y-121407714D01*
X169738000Y-121262571D01*
X169810571Y-121190000D01*
X169955714Y-121117428D01*
X170246000Y-121044857D01*
X170608857Y-121044857D01*
X170899142Y-121117428D01*
X171044285Y-121190000D01*
X171116857Y-121262571D01*
X171189428Y-121407714D01*
X171189428Y-121552857D01*
X171116857Y-121698000D01*
X171044285Y-121770571D01*
X170899142Y-121843142D01*
X170608857Y-121915714D01*
X170246000Y-121915714D01*
X169955714Y-121843142D01*
X169810571Y-121770571D01*
X169738000Y-121698000D01*
X169665428Y-121552857D01*
X194988285Y-142689428D02*
X194480285Y-141963714D01*
X194117428Y-142689428D02*
X194117428Y-141165428D01*
X194698000Y-141165428D01*
X194843142Y-141238000D01*
X194915714Y-141310571D01*
X194988285Y-141455714D01*
X194988285Y-141673428D01*
X194915714Y-141818571D01*
X194843142Y-141891142D01*
X194698000Y-141963714D01*
X194117428Y-141963714D01*
X195641428Y-141891142D02*
X196149428Y-141891142D01*
X196367142Y-142689428D02*
X195641428Y-142689428D01*
X195641428Y-141165428D01*
X196367142Y-141165428D01*
X197746000Y-142689428D02*
X197020285Y-142689428D01*
X197020285Y-141165428D01*
X198108857Y-141165428D02*
X199052285Y-141165428D01*
X198544285Y-141746000D01*
X198762000Y-141746000D01*
X198907142Y-141818571D01*
X198979714Y-141891142D01*
X199052285Y-142036285D01*
X199052285Y-142399142D01*
X198979714Y-142544285D01*
X198907142Y-142616857D01*
X198762000Y-142689428D01*
X198326571Y-142689428D01*
X198181428Y-142616857D01*
X198108857Y-142544285D01*
X199632857Y-141310571D02*
X199705428Y-141238000D01*
X199850571Y-141165428D01*
X200213428Y-141165428D01*
X200358571Y-141238000D01*
X200431142Y-141310571D01*
X200503714Y-141455714D01*
X200503714Y-141600857D01*
X200431142Y-141818571D01*
X199560285Y-142689428D01*
X200503714Y-142689428D01*
X201955142Y-142689428D02*
X201084285Y-142689428D01*
X201519714Y-142689428D02*
X201519714Y-141165428D01*
X201374571Y-141383142D01*
X201229428Y-141528285D01*
X201084285Y-141600857D01*
X192189428Y-128011714D02*
X191463714Y-128519714D01*
X192189428Y-128882571D02*
X190665428Y-128882571D01*
X190665428Y-128302000D01*
X190738000Y-128156857D01*
X190810571Y-128084285D01*
X190955714Y-128011714D01*
X191173428Y-128011714D01*
X191318571Y-128084285D01*
X191391142Y-128156857D01*
X191463714Y-128302000D01*
X191463714Y-128882571D01*
X191391142Y-127358571D02*
X191391142Y-126850571D01*
X192189428Y-126632857D02*
X192189428Y-127358571D01*
X190665428Y-127358571D01*
X190665428Y-126632857D01*
X192189428Y-125254000D02*
X192189428Y-125979714D01*
X190665428Y-125979714D01*
X190665428Y-124891142D02*
X190665428Y-123947714D01*
X191246000Y-124455714D01*
X191246000Y-124238000D01*
X191318571Y-124092857D01*
X191391142Y-124020285D01*
X191536285Y-123947714D01*
X191899142Y-123947714D01*
X192044285Y-124020285D01*
X192116857Y-124092857D01*
X192189428Y-124238000D01*
X192189428Y-124673428D01*
X192116857Y-124818571D01*
X192044285Y-124891142D01*
X190810571Y-123367142D02*
X190738000Y-123294571D01*
X190665428Y-123149428D01*
X190665428Y-122786571D01*
X190738000Y-122641428D01*
X190810571Y-122568857D01*
X190955714Y-122496285D01*
X191100857Y-122496285D01*
X191318571Y-122568857D01*
X192189428Y-123439714D01*
X192189428Y-122496285D01*
X190810571Y-121915714D02*
X190738000Y-121843142D01*
X190665428Y-121698000D01*
X190665428Y-121335142D01*
X190738000Y-121190000D01*
X190810571Y-121117428D01*
X190955714Y-121044857D01*
X191100857Y-121044857D01*
X191318571Y-121117428D01*
X192189428Y-121988285D01*
X192189428Y-121044857D01*
X181689428Y-128011714D02*
X180963714Y-128519714D01*
X181689428Y-128882571D02*
X180165428Y-128882571D01*
X180165428Y-128302000D01*
X180238000Y-128156857D01*
X180310571Y-128084285D01*
X180455714Y-128011714D01*
X180673428Y-128011714D01*
X180818571Y-128084285D01*
X180891142Y-128156857D01*
X180963714Y-128302000D01*
X180963714Y-128882571D01*
X180891142Y-127358571D02*
X180891142Y-126850571D01*
X181689428Y-126632857D02*
X181689428Y-127358571D01*
X180165428Y-127358571D01*
X180165428Y-126632857D01*
X181689428Y-125254000D02*
X181689428Y-125979714D01*
X180165428Y-125979714D01*
X180165428Y-124891142D02*
X180165428Y-123947714D01*
X180746000Y-124455714D01*
X180746000Y-124238000D01*
X180818571Y-124092857D01*
X180891142Y-124020285D01*
X181036285Y-123947714D01*
X181399142Y-123947714D01*
X181544285Y-124020285D01*
X181616857Y-124092857D01*
X181689428Y-124238000D01*
X181689428Y-124673428D01*
X181616857Y-124818571D01*
X181544285Y-124891142D01*
X180310571Y-123367142D02*
X180238000Y-123294571D01*
X180165428Y-123149428D01*
X180165428Y-122786571D01*
X180238000Y-122641428D01*
X180310571Y-122568857D01*
X180455714Y-122496285D01*
X180600857Y-122496285D01*
X180818571Y-122568857D01*
X181689428Y-123439714D01*
X181689428Y-122496285D01*
X180165428Y-121988285D02*
X180165428Y-121044857D01*
X180746000Y-121552857D01*
X180746000Y-121335142D01*
X180818571Y-121190000D01*
X180891142Y-121117428D01*
X181036285Y-121044857D01*
X181399142Y-121044857D01*
X181544285Y-121117428D01*
X181616857Y-121190000D01*
X181689428Y-121335142D01*
X181689428Y-121770571D01*
X181616857Y-121915714D01*
X181544285Y-121988285D01*
X202689428Y-128011714D02*
X201963714Y-128519714D01*
X202689428Y-128882571D02*
X201165428Y-128882571D01*
X201165428Y-128302000D01*
X201238000Y-128156857D01*
X201310571Y-128084285D01*
X201455714Y-128011714D01*
X201673428Y-128011714D01*
X201818571Y-128084285D01*
X201891142Y-128156857D01*
X201963714Y-128302000D01*
X201963714Y-128882571D01*
X201891142Y-127358571D02*
X201891142Y-126850571D01*
X202689428Y-126632857D02*
X202689428Y-127358571D01*
X201165428Y-127358571D01*
X201165428Y-126632857D01*
X202689428Y-125254000D02*
X202689428Y-125979714D01*
X201165428Y-125979714D01*
X201165428Y-124891142D02*
X201165428Y-123947714D01*
X201746000Y-124455714D01*
X201746000Y-124238000D01*
X201818571Y-124092857D01*
X201891142Y-124020285D01*
X202036285Y-123947714D01*
X202399142Y-123947714D01*
X202544285Y-124020285D01*
X202616857Y-124092857D01*
X202689428Y-124238000D01*
X202689428Y-124673428D01*
X202616857Y-124818571D01*
X202544285Y-124891142D01*
X201310571Y-123367142D02*
X201238000Y-123294571D01*
X201165428Y-123149428D01*
X201165428Y-122786571D01*
X201238000Y-122641428D01*
X201310571Y-122568857D01*
X201455714Y-122496285D01*
X201600857Y-122496285D01*
X201818571Y-122568857D01*
X202689428Y-123439714D01*
X202689428Y-122496285D01*
X201673428Y-121190000D02*
X202689428Y-121190000D01*
X201092857Y-121552857D02*
X202181428Y-121915714D01*
X202181428Y-120972285D01*
D11*
X233039404Y-119476785D02*
X233009166Y-119507023D01*
X232918452Y-119537261D01*
X232857976Y-119537261D01*
X232767261Y-119507023D01*
X232706785Y-119446547D01*
X232676547Y-119386071D01*
X232646309Y-119265119D01*
X232646309Y-119174404D01*
X232676547Y-119053452D01*
X232706785Y-118992976D01*
X232767261Y-118932500D01*
X232857976Y-118902261D01*
X232918452Y-118902261D01*
X233009166Y-118932500D01*
X233039404Y-118962738D01*
X233583690Y-119113928D02*
X233583690Y-119537261D01*
X233432500Y-118872023D02*
X233281309Y-119325595D01*
X233674404Y-119325595D01*
X234037261Y-118902261D02*
X234097738Y-118902261D01*
X234158214Y-118932500D01*
X234188452Y-118962738D01*
X234218690Y-119023214D01*
X234248928Y-119144166D01*
X234248928Y-119295357D01*
X234218690Y-119416309D01*
X234188452Y-119476785D01*
X234158214Y-119507023D01*
X234097738Y-119537261D01*
X234037261Y-119537261D01*
X233976785Y-119507023D01*
X233946547Y-119476785D01*
X233916309Y-119416309D01*
X233886071Y-119295357D01*
X233886071Y-119144166D01*
X233916309Y-119023214D01*
X233946547Y-118962738D01*
X233976785Y-118932500D01*
X234037261Y-118902261D01*
X234853690Y-119537261D02*
X234490833Y-119537261D01*
X234672261Y-119537261D02*
X234672261Y-118902261D01*
X234611785Y-118992976D01*
X234551309Y-119053452D01*
X234490833Y-119083690D01*
X229726785Y-64960595D02*
X229757023Y-64990833D01*
X229787261Y-65081547D01*
X229787261Y-65142023D01*
X229757023Y-65232738D01*
X229696547Y-65293214D01*
X229636071Y-65323452D01*
X229515119Y-65353690D01*
X229424404Y-65353690D01*
X229303452Y-65323452D01*
X229242976Y-65293214D01*
X229182500Y-65232738D01*
X229152261Y-65142023D01*
X229152261Y-65081547D01*
X229182500Y-64990833D01*
X229212738Y-64960595D01*
X229363928Y-64416309D02*
X229787261Y-64416309D01*
X229122023Y-64567500D02*
X229575595Y-64718690D01*
X229575595Y-64325595D01*
X229152261Y-63962738D02*
X229152261Y-63902261D01*
X229182500Y-63841785D01*
X229212738Y-63811547D01*
X229273214Y-63781309D01*
X229394166Y-63751071D01*
X229545357Y-63751071D01*
X229666309Y-63781309D01*
X229726785Y-63811547D01*
X229757023Y-63841785D01*
X229787261Y-63902261D01*
X229787261Y-63962738D01*
X229757023Y-64023214D01*
X229726785Y-64053452D01*
X229666309Y-64083690D01*
X229545357Y-64113928D01*
X229394166Y-64113928D01*
X229273214Y-64083690D01*
X229212738Y-64053452D01*
X229182500Y-64023214D01*
X229152261Y-63962738D01*
X229212738Y-63509166D02*
X229182500Y-63478928D01*
X229152261Y-63418452D01*
X229152261Y-63267261D01*
X229182500Y-63206785D01*
X229212738Y-63176547D01*
X229273214Y-63146309D01*
X229333690Y-63146309D01*
X229424404Y-63176547D01*
X229787261Y-63539404D01*
X229787261Y-63146309D01*
X210039404Y-75726785D02*
X210009166Y-75757023D01*
X209918452Y-75787261D01*
X209857976Y-75787261D01*
X209767261Y-75757023D01*
X209706785Y-75696547D01*
X209676547Y-75636071D01*
X209646309Y-75515119D01*
X209646309Y-75424404D01*
X209676547Y-75303452D01*
X209706785Y-75242976D01*
X209767261Y-75182500D01*
X209857976Y-75152261D01*
X209918452Y-75152261D01*
X210009166Y-75182500D01*
X210039404Y-75212738D01*
X210583690Y-75363928D02*
X210583690Y-75787261D01*
X210432500Y-75122023D02*
X210281309Y-75575595D01*
X210674404Y-75575595D01*
X211037261Y-75152261D02*
X211097738Y-75152261D01*
X211158214Y-75182500D01*
X211188452Y-75212738D01*
X211218690Y-75273214D01*
X211248928Y-75394166D01*
X211248928Y-75545357D01*
X211218690Y-75666309D01*
X211188452Y-75726785D01*
X211158214Y-75757023D01*
X211097738Y-75787261D01*
X211037261Y-75787261D01*
X210976785Y-75757023D01*
X210946547Y-75726785D01*
X210916309Y-75666309D01*
X210886071Y-75545357D01*
X210886071Y-75394166D01*
X210916309Y-75273214D01*
X210946547Y-75212738D01*
X210976785Y-75182500D01*
X211037261Y-75152261D01*
X211460595Y-75152261D02*
X211853690Y-75152261D01*
X211642023Y-75394166D01*
X211732738Y-75394166D01*
X211793214Y-75424404D01*
X211823452Y-75454642D01*
X211853690Y-75515119D01*
X211853690Y-75666309D01*
X211823452Y-75726785D01*
X211793214Y-75757023D01*
X211732738Y-75787261D01*
X211551309Y-75787261D01*
X211490833Y-75757023D01*
X211460595Y-75726785D01*
X228039404Y-84226785D02*
X228009166Y-84257023D01*
X227918452Y-84287261D01*
X227857976Y-84287261D01*
X227767261Y-84257023D01*
X227706785Y-84196547D01*
X227676547Y-84136071D01*
X227646309Y-84015119D01*
X227646309Y-83924404D01*
X227676547Y-83803452D01*
X227706785Y-83742976D01*
X227767261Y-83682500D01*
X227857976Y-83652261D01*
X227918452Y-83652261D01*
X228009166Y-83682500D01*
X228039404Y-83712738D01*
X228583690Y-83863928D02*
X228583690Y-84287261D01*
X228432500Y-83622023D02*
X228281309Y-84075595D01*
X228674404Y-84075595D01*
X229037261Y-83652261D02*
X229097738Y-83652261D01*
X229158214Y-83682500D01*
X229188452Y-83712738D01*
X229218690Y-83773214D01*
X229248928Y-83894166D01*
X229248928Y-84045357D01*
X229218690Y-84166309D01*
X229188452Y-84226785D01*
X229158214Y-84257023D01*
X229097738Y-84287261D01*
X229037261Y-84287261D01*
X228976785Y-84257023D01*
X228946547Y-84226785D01*
X228916309Y-84166309D01*
X228886071Y-84045357D01*
X228886071Y-83894166D01*
X228916309Y-83773214D01*
X228946547Y-83712738D01*
X228976785Y-83682500D01*
X229037261Y-83652261D01*
X229793214Y-83863928D02*
X229793214Y-84287261D01*
X229642023Y-83622023D02*
X229490833Y-84075595D01*
X229883928Y-84075595D01*
X236039404Y-68226785D02*
X236009166Y-68257023D01*
X235918452Y-68287261D01*
X235857976Y-68287261D01*
X235767261Y-68257023D01*
X235706785Y-68196547D01*
X235676547Y-68136071D01*
X235646309Y-68015119D01*
X235646309Y-67924404D01*
X235676547Y-67803452D01*
X235706785Y-67742976D01*
X235767261Y-67682500D01*
X235857976Y-67652261D01*
X235918452Y-67652261D01*
X236009166Y-67682500D01*
X236039404Y-67712738D01*
X236583690Y-67863928D02*
X236583690Y-68287261D01*
X236432500Y-67622023D02*
X236281309Y-68075595D01*
X236674404Y-68075595D01*
X237037261Y-67652261D02*
X237097738Y-67652261D01*
X237158214Y-67682500D01*
X237188452Y-67712738D01*
X237218690Y-67773214D01*
X237248928Y-67894166D01*
X237248928Y-68045357D01*
X237218690Y-68166309D01*
X237188452Y-68226785D01*
X237158214Y-68257023D01*
X237097738Y-68287261D01*
X237037261Y-68287261D01*
X236976785Y-68257023D01*
X236946547Y-68226785D01*
X236916309Y-68166309D01*
X236886071Y-68045357D01*
X236886071Y-67894166D01*
X236916309Y-67773214D01*
X236946547Y-67712738D01*
X236976785Y-67682500D01*
X237037261Y-67652261D01*
X237823452Y-67652261D02*
X237521071Y-67652261D01*
X237490833Y-67954642D01*
X237521071Y-67924404D01*
X237581547Y-67894166D01*
X237732738Y-67894166D01*
X237793214Y-67924404D01*
X237823452Y-67954642D01*
X237853690Y-68015119D01*
X237853690Y-68166309D01*
X237823452Y-68226785D01*
X237793214Y-68257023D01*
X237732738Y-68287261D01*
X237581547Y-68287261D01*
X237521071Y-68257023D01*
X237490833Y-68226785D01*
X211226785Y-93210595D02*
X211257023Y-93240833D01*
X211287261Y-93331547D01*
X211287261Y-93392023D01*
X211257023Y-93482738D01*
X211196547Y-93543214D01*
X211136071Y-93573452D01*
X211015119Y-93603690D01*
X210924404Y-93603690D01*
X210803452Y-93573452D01*
X210742976Y-93543214D01*
X210682500Y-93482738D01*
X210652261Y-93392023D01*
X210652261Y-93331547D01*
X210682500Y-93240833D01*
X210712738Y-93210595D01*
X210863928Y-92666309D02*
X211287261Y-92666309D01*
X210622023Y-92817500D02*
X211075595Y-92968690D01*
X211075595Y-92575595D01*
X210652261Y-92212738D02*
X210652261Y-92152261D01*
X210682500Y-92091785D01*
X210712738Y-92061547D01*
X210773214Y-92031309D01*
X210894166Y-92001071D01*
X211045357Y-92001071D01*
X211166309Y-92031309D01*
X211226785Y-92061547D01*
X211257023Y-92091785D01*
X211287261Y-92152261D01*
X211287261Y-92212738D01*
X211257023Y-92273214D01*
X211226785Y-92303452D01*
X211166309Y-92333690D01*
X211045357Y-92363928D01*
X210894166Y-92363928D01*
X210773214Y-92333690D01*
X210712738Y-92303452D01*
X210682500Y-92273214D01*
X210652261Y-92212738D01*
X210652261Y-91456785D02*
X210652261Y-91577738D01*
X210682500Y-91638214D01*
X210712738Y-91668452D01*
X210803452Y-91728928D01*
X210924404Y-91759166D01*
X211166309Y-91759166D01*
X211226785Y-91728928D01*
X211257023Y-91698690D01*
X211287261Y-91638214D01*
X211287261Y-91517261D01*
X211257023Y-91456785D01*
X211226785Y-91426547D01*
X211166309Y-91396309D01*
X211015119Y-91396309D01*
X210954642Y-91426547D01*
X210924404Y-91456785D01*
X210894166Y-91517261D01*
X210894166Y-91638214D01*
X210924404Y-91698690D01*
X210954642Y-91728928D01*
X211015119Y-91759166D01*
X227789404Y-105226785D02*
X227759166Y-105257023D01*
X227668452Y-105287261D01*
X227607976Y-105287261D01*
X227517261Y-105257023D01*
X227456785Y-105196547D01*
X227426547Y-105136071D01*
X227396309Y-105015119D01*
X227396309Y-104924404D01*
X227426547Y-104803452D01*
X227456785Y-104742976D01*
X227517261Y-104682500D01*
X227607976Y-104652261D01*
X227668452Y-104652261D01*
X227759166Y-104682500D01*
X227789404Y-104712738D01*
X228333690Y-104863928D02*
X228333690Y-105287261D01*
X228182500Y-104622023D02*
X228031309Y-105075595D01*
X228424404Y-105075595D01*
X228787261Y-104652261D02*
X228847738Y-104652261D01*
X228908214Y-104682500D01*
X228938452Y-104712738D01*
X228968690Y-104773214D01*
X228998928Y-104894166D01*
X228998928Y-105045357D01*
X228968690Y-105166309D01*
X228938452Y-105226785D01*
X228908214Y-105257023D01*
X228847738Y-105287261D01*
X228787261Y-105287261D01*
X228726785Y-105257023D01*
X228696547Y-105226785D01*
X228666309Y-105166309D01*
X228636071Y-105045357D01*
X228636071Y-104894166D01*
X228666309Y-104773214D01*
X228696547Y-104712738D01*
X228726785Y-104682500D01*
X228787261Y-104652261D01*
X229210595Y-104652261D02*
X229633928Y-104652261D01*
X229361785Y-105287261D01*
X233289404Y-98976785D02*
X233259166Y-99007023D01*
X233168452Y-99037261D01*
X233107976Y-99037261D01*
X233017261Y-99007023D01*
X232956785Y-98946547D01*
X232926547Y-98886071D01*
X232896309Y-98765119D01*
X232896309Y-98674404D01*
X232926547Y-98553452D01*
X232956785Y-98492976D01*
X233017261Y-98432500D01*
X233107976Y-98402261D01*
X233168452Y-98402261D01*
X233259166Y-98432500D01*
X233289404Y-98462738D01*
X233833690Y-98613928D02*
X233833690Y-99037261D01*
X233682500Y-98372023D02*
X233531309Y-98825595D01*
X233924404Y-98825595D01*
X234498928Y-99037261D02*
X234136071Y-99037261D01*
X234317500Y-99037261D02*
X234317500Y-98402261D01*
X234257023Y-98492976D01*
X234196547Y-98553452D01*
X234136071Y-98583690D01*
X235103690Y-99037261D02*
X234740833Y-99037261D01*
X234922261Y-99037261D02*
X234922261Y-98402261D01*
X234861785Y-98492976D01*
X234801309Y-98553452D01*
X234740833Y-98583690D01*
X233039404Y-124976785D02*
X233009166Y-125007023D01*
X232918452Y-125037261D01*
X232857976Y-125037261D01*
X232767261Y-125007023D01*
X232706785Y-124946547D01*
X232676547Y-124886071D01*
X232646309Y-124765119D01*
X232646309Y-124674404D01*
X232676547Y-124553452D01*
X232706785Y-124492976D01*
X232767261Y-124432500D01*
X232857976Y-124402261D01*
X232918452Y-124402261D01*
X233009166Y-124432500D01*
X233039404Y-124462738D01*
X233583690Y-124613928D02*
X233583690Y-125037261D01*
X233432500Y-124372023D02*
X233281309Y-124825595D01*
X233674404Y-124825595D01*
X234248928Y-125037261D02*
X233886071Y-125037261D01*
X234067500Y-125037261D02*
X234067500Y-124402261D01*
X234007023Y-124492976D01*
X233946547Y-124553452D01*
X233886071Y-124583690D01*
X234490833Y-124462738D02*
X234521071Y-124432500D01*
X234581547Y-124402261D01*
X234732738Y-124402261D01*
X234793214Y-124432500D01*
X234823452Y-124462738D01*
X234853690Y-124523214D01*
X234853690Y-124583690D01*
X234823452Y-124674404D01*
X234460595Y-125037261D01*
X234853690Y-125037261D01*
D14*
X226649428Y-123080857D02*
X227810571Y-123080857D01*
X227230000Y-123661428D02*
X227230000Y-122500285D01*
D11*
X233039404Y-112976785D02*
X233009166Y-113007023D01*
X232918452Y-113037261D01*
X232857976Y-113037261D01*
X232767261Y-113007023D01*
X232706785Y-112946547D01*
X232676547Y-112886071D01*
X232646309Y-112765119D01*
X232646309Y-112674404D01*
X232676547Y-112553452D01*
X232706785Y-112492976D01*
X232767261Y-112432500D01*
X232857976Y-112402261D01*
X232918452Y-112402261D01*
X233009166Y-112432500D01*
X233039404Y-112462738D01*
X233583690Y-112613928D02*
X233583690Y-113037261D01*
X233432500Y-112372023D02*
X233281309Y-112825595D01*
X233674404Y-112825595D01*
X234248928Y-113037261D02*
X233886071Y-113037261D01*
X234067500Y-113037261D02*
X234067500Y-112402261D01*
X234007023Y-112492976D01*
X233946547Y-112553452D01*
X233886071Y-112583690D01*
X234460595Y-112402261D02*
X234853690Y-112402261D01*
X234642023Y-112644166D01*
X234732738Y-112644166D01*
X234793214Y-112674404D01*
X234823452Y-112704642D01*
X234853690Y-112765119D01*
X234853690Y-112916309D01*
X234823452Y-112976785D01*
X234793214Y-113007023D01*
X234732738Y-113037261D01*
X234551309Y-113037261D01*
X234490833Y-113007023D01*
X234460595Y-112976785D01*
D14*
X226649428Y-111080857D02*
X227810571Y-111080857D01*
X227230000Y-111661428D02*
X227230000Y-110500285D01*
D16*
X233709619Y-77467523D02*
X232693619Y-77467523D01*
X233709619Y-76886952D02*
X233129047Y-77322380D01*
X232693619Y-76886952D02*
X233274190Y-77467523D01*
X233032285Y-76016095D02*
X233709619Y-76016095D01*
X232645238Y-76258000D02*
X233370952Y-76499904D01*
X233370952Y-75870952D01*
X232693619Y-75290380D02*
X232693619Y-75193619D01*
X232742000Y-75096857D01*
X232790380Y-75048476D01*
X232887142Y-75000095D01*
X233080666Y-74951714D01*
X233322571Y-74951714D01*
X233516095Y-75000095D01*
X233612857Y-75048476D01*
X233661238Y-75096857D01*
X233709619Y-75193619D01*
X233709619Y-75290380D01*
X233661238Y-75387142D01*
X233612857Y-75435523D01*
X233516095Y-75483904D01*
X233322571Y-75532285D01*
X233080666Y-75532285D01*
X232887142Y-75483904D01*
X232790380Y-75435523D01*
X232742000Y-75387142D01*
X232693619Y-75290380D01*
X233709619Y-73984095D02*
X233709619Y-74564666D01*
X233709619Y-74274380D02*
X232693619Y-74274380D01*
X232838761Y-74371142D01*
X232935523Y-74467904D01*
X232983904Y-74564666D01*
D11*
X227537261Y-64960595D02*
X227537261Y-65262976D01*
X226902261Y-65262976D01*
X227113928Y-64476785D02*
X227537261Y-64476785D01*
X226872023Y-64627976D02*
X227325595Y-64779166D01*
X227325595Y-64386071D01*
X226902261Y-64023214D02*
X226902261Y-63962738D01*
X226932500Y-63902261D01*
X226962738Y-63872023D01*
X227023214Y-63841785D01*
X227144166Y-63811547D01*
X227295357Y-63811547D01*
X227416309Y-63841785D01*
X227476785Y-63872023D01*
X227507023Y-63902261D01*
X227537261Y-63962738D01*
X227537261Y-64023214D01*
X227507023Y-64083690D01*
X227476785Y-64113928D01*
X227416309Y-64144166D01*
X227295357Y-64174404D01*
X227144166Y-64174404D01*
X227023214Y-64144166D01*
X226962738Y-64113928D01*
X226932500Y-64083690D01*
X226902261Y-64023214D01*
X227537261Y-63206785D02*
X227537261Y-63569642D01*
X227537261Y-63388214D02*
X226902261Y-63388214D01*
X226992976Y-63448690D01*
X227053452Y-63509166D01*
X227083690Y-63569642D01*
X236334761Y-83847738D02*
X236274285Y-83817500D01*
X236213809Y-83757023D01*
X236123095Y-83666309D01*
X236062619Y-83636071D01*
X236002142Y-83636071D01*
X236032380Y-83787261D02*
X235971904Y-83757023D01*
X235911428Y-83696547D01*
X235881190Y-83575595D01*
X235881190Y-83363928D01*
X235911428Y-83242976D01*
X235971904Y-83182500D01*
X236032380Y-83152261D01*
X236153333Y-83152261D01*
X236213809Y-83182500D01*
X236274285Y-83242976D01*
X236304523Y-83363928D01*
X236304523Y-83575595D01*
X236274285Y-83696547D01*
X236213809Y-83757023D01*
X236153333Y-83787261D01*
X236032380Y-83787261D01*
X236546428Y-83212738D02*
X236576666Y-83182500D01*
X236637142Y-83152261D01*
X236788333Y-83152261D01*
X236848809Y-83182500D01*
X236879047Y-83212738D01*
X236909285Y-83273214D01*
X236909285Y-83333690D01*
X236879047Y-83424404D01*
X236516190Y-83787261D01*
X236909285Y-83787261D01*
X237302380Y-83152261D02*
X237362857Y-83152261D01*
X237423333Y-83182500D01*
X237453571Y-83212738D01*
X237483809Y-83273214D01*
X237514047Y-83394166D01*
X237514047Y-83545357D01*
X237483809Y-83666309D01*
X237453571Y-83726785D01*
X237423333Y-83757023D01*
X237362857Y-83787261D01*
X237302380Y-83787261D01*
X237241904Y-83757023D01*
X237211666Y-83726785D01*
X237181428Y-83666309D01*
X237151190Y-83545357D01*
X237151190Y-83394166D01*
X237181428Y-83273214D01*
X237211666Y-83212738D01*
X237241904Y-83182500D01*
X237302380Y-83152261D01*
X238118809Y-83787261D02*
X237755952Y-83787261D01*
X237937380Y-83787261D02*
X237937380Y-83152261D01*
X237876904Y-83242976D01*
X237816428Y-83303452D01*
X237755952Y-83333690D01*
X236289404Y-80287261D02*
X236077738Y-79984880D01*
X235926547Y-80287261D02*
X235926547Y-79652261D01*
X236168452Y-79652261D01*
X236228928Y-79682500D01*
X236259166Y-79712738D01*
X236289404Y-79773214D01*
X236289404Y-79863928D01*
X236259166Y-79924404D01*
X236228928Y-79954642D01*
X236168452Y-79984880D01*
X235926547Y-79984880D01*
X236531309Y-79712738D02*
X236561547Y-79682500D01*
X236622023Y-79652261D01*
X236773214Y-79652261D01*
X236833690Y-79682500D01*
X236863928Y-79712738D01*
X236894166Y-79773214D01*
X236894166Y-79833690D01*
X236863928Y-79924404D01*
X236501071Y-80287261D01*
X236894166Y-80287261D01*
X237498928Y-80287261D02*
X237136071Y-80287261D01*
X237317500Y-80287261D02*
X237317500Y-79652261D01*
X237257023Y-79742976D01*
X237196547Y-79803452D01*
X237136071Y-79833690D01*
X237710595Y-79652261D02*
X238103690Y-79652261D01*
X237892023Y-79894166D01*
X237982738Y-79894166D01*
X238043214Y-79924404D01*
X238073452Y-79954642D01*
X238103690Y-80015119D01*
X238103690Y-80166309D01*
X238073452Y-80226785D01*
X238043214Y-80257023D01*
X237982738Y-80287261D01*
X237801309Y-80287261D01*
X237740833Y-80257023D01*
X237710595Y-80226785D01*
X236039404Y-87537261D02*
X235827738Y-87234880D01*
X235676547Y-87537261D02*
X235676547Y-86902261D01*
X235918452Y-86902261D01*
X235978928Y-86932500D01*
X236009166Y-86962738D01*
X236039404Y-87023214D01*
X236039404Y-87113928D01*
X236009166Y-87174404D01*
X235978928Y-87204642D01*
X235918452Y-87234880D01*
X235676547Y-87234880D01*
X236281309Y-86962738D02*
X236311547Y-86932500D01*
X236372023Y-86902261D01*
X236523214Y-86902261D01*
X236583690Y-86932500D01*
X236613928Y-86962738D01*
X236644166Y-87023214D01*
X236644166Y-87083690D01*
X236613928Y-87174404D01*
X236251071Y-87537261D01*
X236644166Y-87537261D01*
X237248928Y-87537261D02*
X236886071Y-87537261D01*
X237067500Y-87537261D02*
X237067500Y-86902261D01*
X237007023Y-86992976D01*
X236946547Y-87053452D01*
X236886071Y-87083690D01*
X237793214Y-87113928D02*
X237793214Y-87537261D01*
X237642023Y-86872023D02*
X237490833Y-87325595D01*
X237883928Y-87325595D01*
X236039404Y-89787261D02*
X235827738Y-89484880D01*
X235676547Y-89787261D02*
X235676547Y-89152261D01*
X235918452Y-89152261D01*
X235978928Y-89182500D01*
X236009166Y-89212738D01*
X236039404Y-89273214D01*
X236039404Y-89363928D01*
X236009166Y-89424404D01*
X235978928Y-89454642D01*
X235918452Y-89484880D01*
X235676547Y-89484880D01*
X236281309Y-89212738D02*
X236311547Y-89182500D01*
X236372023Y-89152261D01*
X236523214Y-89152261D01*
X236583690Y-89182500D01*
X236613928Y-89212738D01*
X236644166Y-89273214D01*
X236644166Y-89333690D01*
X236613928Y-89424404D01*
X236251071Y-89787261D01*
X236644166Y-89787261D01*
X237248928Y-89787261D02*
X236886071Y-89787261D01*
X237067500Y-89787261D02*
X237067500Y-89152261D01*
X237007023Y-89242976D01*
X236946547Y-89303452D01*
X236886071Y-89333690D01*
X237823452Y-89152261D02*
X237521071Y-89152261D01*
X237490833Y-89454642D01*
X237521071Y-89424404D01*
X237581547Y-89394166D01*
X237732738Y-89394166D01*
X237793214Y-89424404D01*
X237823452Y-89454642D01*
X237853690Y-89515119D01*
X237853690Y-89666309D01*
X237823452Y-89726785D01*
X237793214Y-89757023D01*
X237732738Y-89787261D01*
X237581547Y-89787261D01*
X237521071Y-89757023D01*
X237490833Y-89726785D01*
X232287261Y-64960595D02*
X231984880Y-65172261D01*
X232287261Y-65323452D02*
X231652261Y-65323452D01*
X231652261Y-65081547D01*
X231682500Y-65021071D01*
X231712738Y-64990833D01*
X231773214Y-64960595D01*
X231863928Y-64960595D01*
X231924404Y-64990833D01*
X231954642Y-65021071D01*
X231984880Y-65081547D01*
X231984880Y-65323452D01*
X231863928Y-64416309D02*
X232287261Y-64416309D01*
X231622023Y-64567500D02*
X232075595Y-64718690D01*
X232075595Y-64325595D01*
X231652261Y-63962738D02*
X231652261Y-63902261D01*
X231682500Y-63841785D01*
X231712738Y-63811547D01*
X231773214Y-63781309D01*
X231894166Y-63751071D01*
X232045357Y-63751071D01*
X232166309Y-63781309D01*
X232226785Y-63811547D01*
X232257023Y-63841785D01*
X232287261Y-63902261D01*
X232287261Y-63962738D01*
X232257023Y-64023214D01*
X232226785Y-64053452D01*
X232166309Y-64083690D01*
X232045357Y-64113928D01*
X231894166Y-64113928D01*
X231773214Y-64083690D01*
X231712738Y-64053452D01*
X231682500Y-64023214D01*
X231652261Y-63962738D01*
X231712738Y-63509166D02*
X231682500Y-63478928D01*
X231652261Y-63418452D01*
X231652261Y-63267261D01*
X231682500Y-63206785D01*
X231712738Y-63176547D01*
X231773214Y-63146309D01*
X231833690Y-63146309D01*
X231924404Y-63176547D01*
X232287261Y-63539404D01*
X232287261Y-63146309D01*
X218016190Y-66652261D02*
X218016190Y-67166309D01*
X218046428Y-67226785D01*
X218076666Y-67257023D01*
X218137142Y-67287261D01*
X218258095Y-67287261D01*
X218318571Y-67257023D01*
X218348809Y-67226785D01*
X218379047Y-67166309D01*
X218379047Y-66652261D01*
X219014047Y-67287261D02*
X218651190Y-67287261D01*
X218832619Y-67287261D02*
X218832619Y-66652261D01*
X218772142Y-66742976D01*
X218711666Y-66803452D01*
X218651190Y-66833690D01*
X221516190Y-129152261D02*
X221516190Y-129666309D01*
X221546428Y-129726785D01*
X221576666Y-129757023D01*
X221637142Y-129787261D01*
X221758095Y-129787261D01*
X221818571Y-129757023D01*
X221848809Y-129726785D01*
X221879047Y-129666309D01*
X221879047Y-129152261D01*
X222151190Y-129212738D02*
X222181428Y-129182500D01*
X222241904Y-129152261D01*
X222393095Y-129152261D01*
X222453571Y-129182500D01*
X222483809Y-129212738D01*
X222514047Y-129273214D01*
X222514047Y-129333690D01*
X222483809Y-129424404D01*
X222120952Y-129787261D01*
X222514047Y-129787261D01*
X145766190Y-147402261D02*
X145766190Y-147916309D01*
X145796428Y-147976785D01*
X145826666Y-148007023D01*
X145887142Y-148037261D01*
X146008095Y-148037261D01*
X146068571Y-148007023D01*
X146098809Y-147976785D01*
X146129047Y-147916309D01*
X146129047Y-147402261D01*
X146370952Y-147402261D02*
X146764047Y-147402261D01*
X146552380Y-147644166D01*
X146643095Y-147644166D01*
X146703571Y-147674404D01*
X146733809Y-147704642D01*
X146764047Y-147765119D01*
X146764047Y-147916309D01*
X146733809Y-147976785D01*
X146703571Y-148007023D01*
X146643095Y-148037261D01*
X146461666Y-148037261D01*
X146401190Y-148007023D01*
X146370952Y-147976785D01*
X138266190Y-66652261D02*
X138266190Y-67166309D01*
X138296428Y-67226785D01*
X138326666Y-67257023D01*
X138387142Y-67287261D01*
X138508095Y-67287261D01*
X138568571Y-67257023D01*
X138598809Y-67226785D01*
X138629047Y-67166309D01*
X138629047Y-66652261D01*
X139203571Y-66863928D02*
X139203571Y-67287261D01*
X139052380Y-66622023D02*
X138901190Y-67075595D01*
X139294285Y-67075595D01*
X221911428Y-108402261D02*
X221911428Y-108916309D01*
X221941666Y-108976785D01*
X221971904Y-109007023D01*
X222032380Y-109037261D01*
X222153333Y-109037261D01*
X222213809Y-109007023D01*
X222244047Y-108976785D01*
X222274285Y-108916309D01*
X222274285Y-108402261D01*
X222848809Y-108613928D02*
X222848809Y-109037261D01*
X222697619Y-108372023D02*
X222546428Y-108825595D01*
X222939523Y-108825595D01*
X223302380Y-108402261D02*
X223362857Y-108402261D01*
X223423333Y-108432500D01*
X223453571Y-108462738D01*
X223483809Y-108523214D01*
X223514047Y-108644166D01*
X223514047Y-108795357D01*
X223483809Y-108916309D01*
X223453571Y-108976785D01*
X223423333Y-109007023D01*
X223362857Y-109037261D01*
X223302380Y-109037261D01*
X223241904Y-109007023D01*
X223211666Y-108976785D01*
X223181428Y-108916309D01*
X223151190Y-108795357D01*
X223151190Y-108644166D01*
X223181428Y-108523214D01*
X223211666Y-108462738D01*
X223241904Y-108432500D01*
X223302380Y-108402261D01*
X224118809Y-109037261D02*
X223755952Y-109037261D01*
X223937380Y-109037261D02*
X223937380Y-108402261D01*
X223876904Y-108492976D01*
X223816428Y-108553452D01*
X223755952Y-108583690D01*
X220016190Y-92402261D02*
X220016190Y-92916309D01*
X220046428Y-92976785D01*
X220076666Y-93007023D01*
X220137142Y-93037261D01*
X220258095Y-93037261D01*
X220318571Y-93007023D01*
X220348809Y-92976785D01*
X220379047Y-92916309D01*
X220379047Y-92402261D01*
X220983809Y-92402261D02*
X220681428Y-92402261D01*
X220651190Y-92704642D01*
X220681428Y-92674404D01*
X220741904Y-92644166D01*
X220893095Y-92644166D01*
X220953571Y-92674404D01*
X220983809Y-92704642D01*
X221014047Y-92765119D01*
X221014047Y-92916309D01*
X220983809Y-92976785D01*
X220953571Y-93007023D01*
X220893095Y-93037261D01*
X220741904Y-93037261D01*
X220681428Y-93007023D01*
X220651190Y-92976785D01*
X210039404Y-78537261D02*
X209827738Y-78234880D01*
X209676547Y-78537261D02*
X209676547Y-77902261D01*
X209918452Y-77902261D01*
X209978928Y-77932500D01*
X210009166Y-77962738D01*
X210039404Y-78023214D01*
X210039404Y-78113928D01*
X210009166Y-78174404D01*
X209978928Y-78204642D01*
X209918452Y-78234880D01*
X209676547Y-78234880D01*
X210281309Y-77962738D02*
X210311547Y-77932500D01*
X210372023Y-77902261D01*
X210523214Y-77902261D01*
X210583690Y-77932500D01*
X210613928Y-77962738D01*
X210644166Y-78023214D01*
X210644166Y-78083690D01*
X210613928Y-78174404D01*
X210251071Y-78537261D01*
X210644166Y-78537261D01*
X211248928Y-78537261D02*
X210886071Y-78537261D01*
X211067500Y-78537261D02*
X211067500Y-77902261D01*
X211007023Y-77992976D01*
X210946547Y-78053452D01*
X210886071Y-78083690D01*
X211793214Y-77902261D02*
X211672261Y-77902261D01*
X211611785Y-77932500D01*
X211581547Y-77962738D01*
X211521071Y-78053452D01*
X211490833Y-78174404D01*
X211490833Y-78416309D01*
X211521071Y-78476785D01*
X211551309Y-78507023D01*
X211611785Y-78537261D01*
X211732738Y-78537261D01*
X211793214Y-78507023D01*
X211823452Y-78476785D01*
X211853690Y-78416309D01*
X211853690Y-78265119D01*
X211823452Y-78204642D01*
X211793214Y-78174404D01*
X211732738Y-78144166D01*
X211611785Y-78144166D01*
X211551309Y-78174404D01*
X211521071Y-78204642D01*
X211490833Y-78265119D01*
X213787261Y-64960595D02*
X213484880Y-65172261D01*
X213787261Y-65323452D02*
X213152261Y-65323452D01*
X213152261Y-65081547D01*
X213182500Y-65021071D01*
X213212738Y-64990833D01*
X213273214Y-64960595D01*
X213363928Y-64960595D01*
X213424404Y-64990833D01*
X213454642Y-65021071D01*
X213484880Y-65081547D01*
X213484880Y-65323452D01*
X213212738Y-64718690D02*
X213182500Y-64688452D01*
X213152261Y-64627976D01*
X213152261Y-64476785D01*
X213182500Y-64416309D01*
X213212738Y-64386071D01*
X213273214Y-64355833D01*
X213333690Y-64355833D01*
X213424404Y-64386071D01*
X213787261Y-64748928D01*
X213787261Y-64355833D01*
X213152261Y-63962738D02*
X213152261Y-63902261D01*
X213182500Y-63841785D01*
X213212738Y-63811547D01*
X213273214Y-63781309D01*
X213394166Y-63751071D01*
X213545357Y-63751071D01*
X213666309Y-63781309D01*
X213726785Y-63811547D01*
X213757023Y-63841785D01*
X213787261Y-63902261D01*
X213787261Y-63962738D01*
X213757023Y-64023214D01*
X213726785Y-64053452D01*
X213666309Y-64083690D01*
X213545357Y-64113928D01*
X213394166Y-64113928D01*
X213273214Y-64083690D01*
X213212738Y-64053452D01*
X213182500Y-64023214D01*
X213152261Y-63962738D01*
X213787261Y-63146309D02*
X213787261Y-63509166D01*
X213787261Y-63327738D02*
X213152261Y-63327738D01*
X213242976Y-63388214D01*
X213303452Y-63448690D01*
X213333690Y-63509166D01*
X216037261Y-64960595D02*
X215734880Y-65172261D01*
X216037261Y-65323452D02*
X215402261Y-65323452D01*
X215402261Y-65081547D01*
X215432500Y-65021071D01*
X215462738Y-64990833D01*
X215523214Y-64960595D01*
X215613928Y-64960595D01*
X215674404Y-64990833D01*
X215704642Y-65021071D01*
X215734880Y-65081547D01*
X215734880Y-65323452D01*
X215462738Y-64718690D02*
X215432500Y-64688452D01*
X215402261Y-64627976D01*
X215402261Y-64476785D01*
X215432500Y-64416309D01*
X215462738Y-64386071D01*
X215523214Y-64355833D01*
X215583690Y-64355833D01*
X215674404Y-64386071D01*
X216037261Y-64748928D01*
X216037261Y-64355833D01*
X215402261Y-63962738D02*
X215402261Y-63902261D01*
X215432500Y-63841785D01*
X215462738Y-63811547D01*
X215523214Y-63781309D01*
X215644166Y-63751071D01*
X215795357Y-63751071D01*
X215916309Y-63781309D01*
X215976785Y-63811547D01*
X216007023Y-63841785D01*
X216037261Y-63902261D01*
X216037261Y-63962738D01*
X216007023Y-64023214D01*
X215976785Y-64053452D01*
X215916309Y-64083690D01*
X215795357Y-64113928D01*
X215644166Y-64113928D01*
X215523214Y-64083690D01*
X215462738Y-64053452D01*
X215432500Y-64023214D01*
X215402261Y-63962738D01*
X215462738Y-63509166D02*
X215432500Y-63478928D01*
X215402261Y-63418452D01*
X215402261Y-63267261D01*
X215432500Y-63206785D01*
X215462738Y-63176547D01*
X215523214Y-63146309D01*
X215583690Y-63146309D01*
X215674404Y-63176547D01*
X216037261Y-63539404D01*
X216037261Y-63146309D01*
X218287261Y-64960595D02*
X217984880Y-65172261D01*
X218287261Y-65323452D02*
X217652261Y-65323452D01*
X217652261Y-65081547D01*
X217682500Y-65021071D01*
X217712738Y-64990833D01*
X217773214Y-64960595D01*
X217863928Y-64960595D01*
X217924404Y-64990833D01*
X217954642Y-65021071D01*
X217984880Y-65081547D01*
X217984880Y-65323452D01*
X217712738Y-64718690D02*
X217682500Y-64688452D01*
X217652261Y-64627976D01*
X217652261Y-64476785D01*
X217682500Y-64416309D01*
X217712738Y-64386071D01*
X217773214Y-64355833D01*
X217833690Y-64355833D01*
X217924404Y-64386071D01*
X218287261Y-64748928D01*
X218287261Y-64355833D01*
X217652261Y-63962738D02*
X217652261Y-63902261D01*
X217682500Y-63841785D01*
X217712738Y-63811547D01*
X217773214Y-63781309D01*
X217894166Y-63751071D01*
X218045357Y-63751071D01*
X218166309Y-63781309D01*
X218226785Y-63811547D01*
X218257023Y-63841785D01*
X218287261Y-63902261D01*
X218287261Y-63962738D01*
X218257023Y-64023214D01*
X218226785Y-64053452D01*
X218166309Y-64083690D01*
X218045357Y-64113928D01*
X217894166Y-64113928D01*
X217773214Y-64083690D01*
X217712738Y-64053452D01*
X217682500Y-64023214D01*
X217652261Y-63962738D01*
X217652261Y-63539404D02*
X217652261Y-63146309D01*
X217894166Y-63357976D01*
X217894166Y-63267261D01*
X217924404Y-63206785D01*
X217954642Y-63176547D01*
X218015119Y-63146309D01*
X218166309Y-63146309D01*
X218226785Y-63176547D01*
X218257023Y-63206785D01*
X218287261Y-63267261D01*
X218287261Y-63448690D01*
X218257023Y-63509166D01*
X218226785Y-63539404D01*
X220537261Y-64960595D02*
X220234880Y-65172261D01*
X220537261Y-65323452D02*
X219902261Y-65323452D01*
X219902261Y-65081547D01*
X219932500Y-65021071D01*
X219962738Y-64990833D01*
X220023214Y-64960595D01*
X220113928Y-64960595D01*
X220174404Y-64990833D01*
X220204642Y-65021071D01*
X220234880Y-65081547D01*
X220234880Y-65323452D01*
X219962738Y-64718690D02*
X219932500Y-64688452D01*
X219902261Y-64627976D01*
X219902261Y-64476785D01*
X219932500Y-64416309D01*
X219962738Y-64386071D01*
X220023214Y-64355833D01*
X220083690Y-64355833D01*
X220174404Y-64386071D01*
X220537261Y-64748928D01*
X220537261Y-64355833D01*
X219902261Y-63962738D02*
X219902261Y-63902261D01*
X219932500Y-63841785D01*
X219962738Y-63811547D01*
X220023214Y-63781309D01*
X220144166Y-63751071D01*
X220295357Y-63751071D01*
X220416309Y-63781309D01*
X220476785Y-63811547D01*
X220507023Y-63841785D01*
X220537261Y-63902261D01*
X220537261Y-63962738D01*
X220507023Y-64023214D01*
X220476785Y-64053452D01*
X220416309Y-64083690D01*
X220295357Y-64113928D01*
X220144166Y-64113928D01*
X220023214Y-64083690D01*
X219962738Y-64053452D01*
X219932500Y-64023214D01*
X219902261Y-63962738D01*
X220113928Y-63206785D02*
X220537261Y-63206785D01*
X219872023Y-63357976D02*
X220325595Y-63509166D01*
X220325595Y-63116071D01*
X222787261Y-64960595D02*
X222484880Y-65172261D01*
X222787261Y-65323452D02*
X222152261Y-65323452D01*
X222152261Y-65081547D01*
X222182500Y-65021071D01*
X222212738Y-64990833D01*
X222273214Y-64960595D01*
X222363928Y-64960595D01*
X222424404Y-64990833D01*
X222454642Y-65021071D01*
X222484880Y-65081547D01*
X222484880Y-65323452D01*
X222212738Y-64718690D02*
X222182500Y-64688452D01*
X222152261Y-64627976D01*
X222152261Y-64476785D01*
X222182500Y-64416309D01*
X222212738Y-64386071D01*
X222273214Y-64355833D01*
X222333690Y-64355833D01*
X222424404Y-64386071D01*
X222787261Y-64748928D01*
X222787261Y-64355833D01*
X222152261Y-63962738D02*
X222152261Y-63902261D01*
X222182500Y-63841785D01*
X222212738Y-63811547D01*
X222273214Y-63781309D01*
X222394166Y-63751071D01*
X222545357Y-63751071D01*
X222666309Y-63781309D01*
X222726785Y-63811547D01*
X222757023Y-63841785D01*
X222787261Y-63902261D01*
X222787261Y-63962738D01*
X222757023Y-64023214D01*
X222726785Y-64053452D01*
X222666309Y-64083690D01*
X222545357Y-64113928D01*
X222394166Y-64113928D01*
X222273214Y-64083690D01*
X222212738Y-64053452D01*
X222182500Y-64023214D01*
X222152261Y-63962738D01*
X222152261Y-63176547D02*
X222152261Y-63478928D01*
X222454642Y-63509166D01*
X222424404Y-63478928D01*
X222394166Y-63418452D01*
X222394166Y-63267261D01*
X222424404Y-63206785D01*
X222454642Y-63176547D01*
X222515119Y-63146309D01*
X222666309Y-63146309D01*
X222726785Y-63176547D01*
X222757023Y-63206785D01*
X222787261Y-63267261D01*
X222787261Y-63418452D01*
X222757023Y-63478928D01*
X222726785Y-63509166D01*
X225037261Y-64960595D02*
X224734880Y-65172261D01*
X225037261Y-65323452D02*
X224402261Y-65323452D01*
X224402261Y-65081547D01*
X224432500Y-65021071D01*
X224462738Y-64990833D01*
X224523214Y-64960595D01*
X224613928Y-64960595D01*
X224674404Y-64990833D01*
X224704642Y-65021071D01*
X224734880Y-65081547D01*
X224734880Y-65323452D01*
X224462738Y-64718690D02*
X224432500Y-64688452D01*
X224402261Y-64627976D01*
X224402261Y-64476785D01*
X224432500Y-64416309D01*
X224462738Y-64386071D01*
X224523214Y-64355833D01*
X224583690Y-64355833D01*
X224674404Y-64386071D01*
X225037261Y-64748928D01*
X225037261Y-64355833D01*
X224402261Y-63962738D02*
X224402261Y-63902261D01*
X224432500Y-63841785D01*
X224462738Y-63811547D01*
X224523214Y-63781309D01*
X224644166Y-63751071D01*
X224795357Y-63751071D01*
X224916309Y-63781309D01*
X224976785Y-63811547D01*
X225007023Y-63841785D01*
X225037261Y-63902261D01*
X225037261Y-63962738D01*
X225007023Y-64023214D01*
X224976785Y-64053452D01*
X224916309Y-64083690D01*
X224795357Y-64113928D01*
X224644166Y-64113928D01*
X224523214Y-64083690D01*
X224462738Y-64053452D01*
X224432500Y-64023214D01*
X224402261Y-63962738D01*
X224402261Y-63206785D02*
X224402261Y-63327738D01*
X224432500Y-63388214D01*
X224462738Y-63418452D01*
X224553452Y-63478928D01*
X224674404Y-63509166D01*
X224916309Y-63509166D01*
X224976785Y-63478928D01*
X225007023Y-63448690D01*
X225037261Y-63388214D01*
X225037261Y-63267261D01*
X225007023Y-63206785D01*
X224976785Y-63176547D01*
X224916309Y-63146309D01*
X224765119Y-63146309D01*
X224704642Y-63176547D01*
X224674404Y-63206785D01*
X224644166Y-63267261D01*
X224644166Y-63388214D01*
X224674404Y-63448690D01*
X224704642Y-63478928D01*
X224765119Y-63509166D01*
X211537261Y-64960595D02*
X211234880Y-65172261D01*
X211537261Y-65323452D02*
X210902261Y-65323452D01*
X210902261Y-65081547D01*
X210932500Y-65021071D01*
X210962738Y-64990833D01*
X211023214Y-64960595D01*
X211113928Y-64960595D01*
X211174404Y-64990833D01*
X211204642Y-65021071D01*
X211234880Y-65081547D01*
X211234880Y-65323452D01*
X210962738Y-64718690D02*
X210932500Y-64688452D01*
X210902261Y-64627976D01*
X210902261Y-64476785D01*
X210932500Y-64416309D01*
X210962738Y-64386071D01*
X211023214Y-64355833D01*
X211083690Y-64355833D01*
X211174404Y-64386071D01*
X211537261Y-64748928D01*
X211537261Y-64355833D01*
X210902261Y-63962738D02*
X210902261Y-63902261D01*
X210932500Y-63841785D01*
X210962738Y-63811547D01*
X211023214Y-63781309D01*
X211144166Y-63751071D01*
X211295357Y-63751071D01*
X211416309Y-63781309D01*
X211476785Y-63811547D01*
X211507023Y-63841785D01*
X211537261Y-63902261D01*
X211537261Y-63962738D01*
X211507023Y-64023214D01*
X211476785Y-64053452D01*
X211416309Y-64083690D01*
X211295357Y-64113928D01*
X211144166Y-64113928D01*
X211023214Y-64083690D01*
X210962738Y-64053452D01*
X210932500Y-64023214D01*
X210902261Y-63962738D01*
X210902261Y-63539404D02*
X210902261Y-63116071D01*
X211537261Y-63388214D01*
X209287261Y-64960595D02*
X208984880Y-65172261D01*
X209287261Y-65323452D02*
X208652261Y-65323452D01*
X208652261Y-65081547D01*
X208682500Y-65021071D01*
X208712738Y-64990833D01*
X208773214Y-64960595D01*
X208863928Y-64960595D01*
X208924404Y-64990833D01*
X208954642Y-65021071D01*
X208984880Y-65081547D01*
X208984880Y-65323452D01*
X208712738Y-64718690D02*
X208682500Y-64688452D01*
X208652261Y-64627976D01*
X208652261Y-64476785D01*
X208682500Y-64416309D01*
X208712738Y-64386071D01*
X208773214Y-64355833D01*
X208833690Y-64355833D01*
X208924404Y-64386071D01*
X209287261Y-64748928D01*
X209287261Y-64355833D01*
X208652261Y-63962738D02*
X208652261Y-63902261D01*
X208682500Y-63841785D01*
X208712738Y-63811547D01*
X208773214Y-63781309D01*
X208894166Y-63751071D01*
X209045357Y-63751071D01*
X209166309Y-63781309D01*
X209226785Y-63811547D01*
X209257023Y-63841785D01*
X209287261Y-63902261D01*
X209287261Y-63962738D01*
X209257023Y-64023214D01*
X209226785Y-64053452D01*
X209166309Y-64083690D01*
X209045357Y-64113928D01*
X208894166Y-64113928D01*
X208773214Y-64083690D01*
X208712738Y-64053452D01*
X208682500Y-64023214D01*
X208652261Y-63962738D01*
X208924404Y-63388214D02*
X208894166Y-63448690D01*
X208863928Y-63478928D01*
X208803452Y-63509166D01*
X208773214Y-63509166D01*
X208712738Y-63478928D01*
X208682500Y-63448690D01*
X208652261Y-63388214D01*
X208652261Y-63267261D01*
X208682500Y-63206785D01*
X208712738Y-63176547D01*
X208773214Y-63146309D01*
X208803452Y-63146309D01*
X208863928Y-63176547D01*
X208894166Y-63206785D01*
X208924404Y-63267261D01*
X208924404Y-63388214D01*
X208954642Y-63448690D01*
X208984880Y-63478928D01*
X209045357Y-63509166D01*
X209166309Y-63509166D01*
X209226785Y-63478928D01*
X209257023Y-63448690D01*
X209287261Y-63388214D01*
X209287261Y-63267261D01*
X209257023Y-63206785D01*
X209226785Y-63176547D01*
X209166309Y-63146309D01*
X209045357Y-63146309D01*
X208984880Y-63176547D01*
X208954642Y-63206785D01*
X208924404Y-63267261D01*
X207037261Y-64960595D02*
X206734880Y-65172261D01*
X207037261Y-65323452D02*
X206402261Y-65323452D01*
X206402261Y-65081547D01*
X206432500Y-65021071D01*
X206462738Y-64990833D01*
X206523214Y-64960595D01*
X206613928Y-64960595D01*
X206674404Y-64990833D01*
X206704642Y-65021071D01*
X206734880Y-65081547D01*
X206734880Y-65323452D01*
X206462738Y-64718690D02*
X206432500Y-64688452D01*
X206402261Y-64627976D01*
X206402261Y-64476785D01*
X206432500Y-64416309D01*
X206462738Y-64386071D01*
X206523214Y-64355833D01*
X206583690Y-64355833D01*
X206674404Y-64386071D01*
X207037261Y-64748928D01*
X207037261Y-64355833D01*
X206402261Y-63962738D02*
X206402261Y-63902261D01*
X206432500Y-63841785D01*
X206462738Y-63811547D01*
X206523214Y-63781309D01*
X206644166Y-63751071D01*
X206795357Y-63751071D01*
X206916309Y-63781309D01*
X206976785Y-63811547D01*
X207007023Y-63841785D01*
X207037261Y-63902261D01*
X207037261Y-63962738D01*
X207007023Y-64023214D01*
X206976785Y-64053452D01*
X206916309Y-64083690D01*
X206795357Y-64113928D01*
X206644166Y-64113928D01*
X206523214Y-64083690D01*
X206462738Y-64053452D01*
X206432500Y-64023214D01*
X206402261Y-63962738D01*
X207037261Y-63448690D02*
X207037261Y-63327738D01*
X207007023Y-63267261D01*
X206976785Y-63237023D01*
X206886071Y-63176547D01*
X206765119Y-63146309D01*
X206523214Y-63146309D01*
X206462738Y-63176547D01*
X206432500Y-63206785D01*
X206402261Y-63267261D01*
X206402261Y-63388214D01*
X206432500Y-63448690D01*
X206462738Y-63478928D01*
X206523214Y-63509166D01*
X206674404Y-63509166D01*
X206734880Y-63478928D01*
X206765119Y-63448690D01*
X206795357Y-63388214D01*
X206795357Y-63267261D01*
X206765119Y-63206785D01*
X206734880Y-63176547D01*
X206674404Y-63146309D01*
X224539404Y-132476785D02*
X224509166Y-132507023D01*
X224418452Y-132537261D01*
X224357976Y-132537261D01*
X224267261Y-132507023D01*
X224206785Y-132446547D01*
X224176547Y-132386071D01*
X224146309Y-132265119D01*
X224146309Y-132174404D01*
X224176547Y-132053452D01*
X224206785Y-131992976D01*
X224267261Y-131932500D01*
X224357976Y-131902261D01*
X224418452Y-131902261D01*
X224509166Y-131932500D01*
X224539404Y-131962738D01*
X224751071Y-131902261D02*
X225144166Y-131902261D01*
X224932500Y-132144166D01*
X225023214Y-132144166D01*
X225083690Y-132174404D01*
X225113928Y-132204642D01*
X225144166Y-132265119D01*
X225144166Y-132416309D01*
X225113928Y-132476785D01*
X225083690Y-132507023D01*
X225023214Y-132537261D01*
X224841785Y-132537261D01*
X224781309Y-132507023D01*
X224751071Y-132476785D01*
X225537261Y-131902261D02*
X225597738Y-131902261D01*
X225658214Y-131932500D01*
X225688452Y-131962738D01*
X225718690Y-132023214D01*
X225748928Y-132144166D01*
X225748928Y-132295357D01*
X225718690Y-132416309D01*
X225688452Y-132476785D01*
X225658214Y-132507023D01*
X225597738Y-132537261D01*
X225537261Y-132537261D01*
X225476785Y-132507023D01*
X225446547Y-132476785D01*
X225416309Y-132416309D01*
X225386071Y-132295357D01*
X225386071Y-132144166D01*
X225416309Y-132023214D01*
X225446547Y-131962738D01*
X225476785Y-131932500D01*
X225537261Y-131902261D01*
X226353690Y-132537261D02*
X225990833Y-132537261D01*
X226172261Y-132537261D02*
X226172261Y-131902261D01*
X226111785Y-131992976D01*
X226051309Y-132053452D01*
X225990833Y-132083690D01*
X149789404Y-144476785D02*
X149759166Y-144507023D01*
X149668452Y-144537261D01*
X149607976Y-144537261D01*
X149517261Y-144507023D01*
X149456785Y-144446547D01*
X149426547Y-144386071D01*
X149396309Y-144265119D01*
X149396309Y-144174404D01*
X149426547Y-144053452D01*
X149456785Y-143992976D01*
X149517261Y-143932500D01*
X149607976Y-143902261D01*
X149668452Y-143902261D01*
X149759166Y-143932500D01*
X149789404Y-143962738D01*
X150001071Y-143902261D02*
X150394166Y-143902261D01*
X150182500Y-144144166D01*
X150273214Y-144144166D01*
X150333690Y-144174404D01*
X150363928Y-144204642D01*
X150394166Y-144265119D01*
X150394166Y-144416309D01*
X150363928Y-144476785D01*
X150333690Y-144507023D01*
X150273214Y-144537261D01*
X150091785Y-144537261D01*
X150031309Y-144507023D01*
X150001071Y-144476785D01*
X150787261Y-143902261D02*
X150847738Y-143902261D01*
X150908214Y-143932500D01*
X150938452Y-143962738D01*
X150968690Y-144023214D01*
X150998928Y-144144166D01*
X150998928Y-144295357D01*
X150968690Y-144416309D01*
X150938452Y-144476785D01*
X150908214Y-144507023D01*
X150847738Y-144537261D01*
X150787261Y-144537261D01*
X150726785Y-144507023D01*
X150696547Y-144476785D01*
X150666309Y-144416309D01*
X150636071Y-144295357D01*
X150636071Y-144144166D01*
X150666309Y-144023214D01*
X150696547Y-143962738D01*
X150726785Y-143932500D01*
X150787261Y-143902261D01*
X151240833Y-143962738D02*
X151271071Y-143932500D01*
X151331547Y-143902261D01*
X151482738Y-143902261D01*
X151543214Y-143932500D01*
X151573452Y-143962738D01*
X151603690Y-144023214D01*
X151603690Y-144083690D01*
X151573452Y-144174404D01*
X151210595Y-144537261D01*
X151603690Y-144537261D01*
X139789404Y-63726785D02*
X139759166Y-63757023D01*
X139668452Y-63787261D01*
X139607976Y-63787261D01*
X139517261Y-63757023D01*
X139456785Y-63696547D01*
X139426547Y-63636071D01*
X139396309Y-63515119D01*
X139396309Y-63424404D01*
X139426547Y-63303452D01*
X139456785Y-63242976D01*
X139517261Y-63182500D01*
X139607976Y-63152261D01*
X139668452Y-63152261D01*
X139759166Y-63182500D01*
X139789404Y-63212738D01*
X140001071Y-63152261D02*
X140394166Y-63152261D01*
X140182500Y-63394166D01*
X140273214Y-63394166D01*
X140333690Y-63424404D01*
X140363928Y-63454642D01*
X140394166Y-63515119D01*
X140394166Y-63666309D01*
X140363928Y-63726785D01*
X140333690Y-63757023D01*
X140273214Y-63787261D01*
X140091785Y-63787261D01*
X140031309Y-63757023D01*
X140001071Y-63726785D01*
X140787261Y-63152261D02*
X140847738Y-63152261D01*
X140908214Y-63182500D01*
X140938452Y-63212738D01*
X140968690Y-63273214D01*
X140998928Y-63394166D01*
X140998928Y-63545357D01*
X140968690Y-63666309D01*
X140938452Y-63726785D01*
X140908214Y-63757023D01*
X140847738Y-63787261D01*
X140787261Y-63787261D01*
X140726785Y-63757023D01*
X140696547Y-63726785D01*
X140666309Y-63666309D01*
X140636071Y-63545357D01*
X140636071Y-63394166D01*
X140666309Y-63273214D01*
X140696547Y-63212738D01*
X140726785Y-63182500D01*
X140787261Y-63152261D01*
X141210595Y-63152261D02*
X141603690Y-63152261D01*
X141392023Y-63394166D01*
X141482738Y-63394166D01*
X141543214Y-63424404D01*
X141573452Y-63454642D01*
X141603690Y-63515119D01*
X141603690Y-63666309D01*
X141573452Y-63726785D01*
X141543214Y-63757023D01*
X141482738Y-63787261D01*
X141301309Y-63787261D01*
X141240833Y-63757023D01*
X141210595Y-63726785D01*
X221911428Y-94152261D02*
X221911428Y-94666309D01*
X221941666Y-94726785D01*
X221971904Y-94757023D01*
X222032380Y-94787261D01*
X222153333Y-94787261D01*
X222213809Y-94757023D01*
X222244047Y-94726785D01*
X222274285Y-94666309D01*
X222274285Y-94152261D01*
X222848809Y-94363928D02*
X222848809Y-94787261D01*
X222697619Y-94122023D02*
X222546428Y-94575595D01*
X222939523Y-94575595D01*
X223302380Y-94152261D02*
X223362857Y-94152261D01*
X223423333Y-94182500D01*
X223453571Y-94212738D01*
X223483809Y-94273214D01*
X223514047Y-94394166D01*
X223514047Y-94545357D01*
X223483809Y-94666309D01*
X223453571Y-94726785D01*
X223423333Y-94757023D01*
X223362857Y-94787261D01*
X223302380Y-94787261D01*
X223241904Y-94757023D01*
X223211666Y-94726785D01*
X223181428Y-94666309D01*
X223151190Y-94545357D01*
X223151190Y-94394166D01*
X223181428Y-94273214D01*
X223211666Y-94212738D01*
X223241904Y-94182500D01*
X223302380Y-94152261D01*
X223755952Y-94212738D02*
X223786190Y-94182500D01*
X223846666Y-94152261D01*
X223997857Y-94152261D01*
X224058333Y-94182500D01*
X224088571Y-94212738D01*
X224118809Y-94273214D01*
X224118809Y-94333690D01*
X224088571Y-94424404D01*
X223725714Y-94787261D01*
X224118809Y-94787261D01*
M02*
