M48
; DRILL file {KiCad (5.1.5)-3} date 30.08.2021 19:46:47
; FORMAT={-:-/ absolute / inch / decimal}
; #@! TF.CreationDate,2021-08-30T19:46:47+02:00
; #@! TF.GenerationSoftware,Kicad,Pcbnew,(5.1.5)-3
; #@! TF.FileFunction,Plated,1,2,PTH
FMAT,2
INCH
T1C0.0157
T2C0.0320
T3C0.0354
T4C0.0591
T5C0.1260
%
G90
G05
T1
X5.1476Y-2.628
X5.1969Y-2.6378
X5.4134Y-2.6378
X5.4528Y-2.5295
X5.4823Y-2.2933
X5.4921Y-5.374
X5.502Y-2.7362
X5.5709Y-5.3248
X5.6004Y-2.2441
X5.6004Y-2.6181
X5.6102Y-5.3543
X5.6102Y-5.7579
X5.6398Y-2.6575
X5.8268Y-5.502
X5.8268Y-5.5512
X5.8268Y-5.6004
X5.8268Y-5.6496
X5.876Y-5.3937
X5.9055Y-5.3543
X6.0335Y-5.689
X6.0335Y-5.748
X8.1398Y-2.2441
X8.1398Y-2.3228
X8.2087Y-5.3346
X8.2185Y-2.2638
X8.2677Y-4.9508
X8.3563Y-2.9724
X8.3661Y-3.7303
X8.376Y-5.2067
X8.3957Y-3.5433
X8.4646Y-3.248
X8.5236Y-3.3957
X8.5236Y-4.1339
X8.5236Y-4.6949
X8.5335Y-3.4449
X8.5335Y-3.5827
X8.5335Y-3.7008
X8.5433Y-2.9232
X8.6516Y-5.374
X8.7205Y-2.7264
X8.7303Y-3.2972
X8.7303Y-3.4449
X8.7303Y-3.4941
X8.7303Y-3.5925
X8.7697Y-5.2953
X8.8189Y-5.4429
X8.8681Y-2.7657
X8.8681Y-3.1791
X8.8976Y-2.5886
X8.9075Y-3.3661
X9.0354Y-2.3228
X9.065Y-3.1496
X9.0846Y-2.6673
X9.0945Y-4.6949
X9.1043Y-3.3268
X9.1043Y-4.1339
X9.1142Y-3.1496
X9.124Y-3.8878
X9.1634Y-2.6083
X9.1732Y-2.8248
X9.2028Y-2.4902
X9.2323Y-3.5925
X9.2421Y-2.6181
T2
X8.9461Y-4.9114
X9.0461Y-4.9114
X8.9461Y-4.439
X9.0461Y-4.439
T3
X4.2815Y-3.6417
X4.3799Y-3.7402
X4.4783Y-3.8386
X4.5768Y-3.937
X5.1083Y-4.0354
X5.2067Y-4.1339
X5.3051Y-4.2323
X5.4035Y-4.3307
X5.7382Y-3.6417
X5.8366Y-3.7402
X5.935Y-3.8386
X6.0335Y-3.937
X6.565Y-4.0354
X6.6535Y-5.0394
X6.6634Y-4.1339
X6.7618Y-4.2323
X6.8602Y-4.3307
X7.1752Y-3.6713
X7.9035Y-3.6319
X4.2791Y-2.7209
X4.2791Y-3.0209
X4.2791Y-3.2209
X4.2791Y-3.4209
X4.5791Y-2.7209
X4.5791Y-3.0209
X4.5791Y-3.2209
X4.5791Y-3.4209
X5.7358Y-2.7209
X5.7358Y-3.0209
X5.7358Y-3.2209
X5.7358Y-3.4209
X6.0358Y-2.7209
X6.0358Y-3.0209
X6.0358Y-3.2209
X6.0358Y-3.4209
X5.6933Y-2.2516
X5.6933Y-2.5516
X5.9933Y-2.2516
X5.9933Y-2.5516
X6.1933Y-2.2516
X6.1933Y-2.5516
X6.3933Y-2.2516
X6.3933Y-2.5516
X6.5626Y-2.7209
X6.5626Y-3.0209
X6.5626Y-3.2209
X6.5626Y-3.4209
X6.8626Y-2.7209
X6.8626Y-3.0209
X6.8626Y-3.2209
X6.8626Y-3.4209
X6.9335Y-2.2516
X6.9335Y-2.5516
X7.2335Y-2.2516
X7.2335Y-2.5516
X7.4335Y-2.2516
X7.4335Y-2.5516
X7.6335Y-2.2516
X7.6335Y-2.5516
X6.1492Y-2.7209
X6.1492Y-3.0209
X6.1492Y-3.2209
X6.1492Y-3.4209
X6.4492Y-2.7209
X6.4492Y-3.0209
X6.4492Y-3.2209
X6.4492Y-3.4209
X7.3894Y-2.7209
X7.3894Y-3.0209
X7.3894Y-3.2209
X7.3894Y-3.4209
X7.6894Y-2.7209
X7.6894Y-3.0209
X7.6894Y-3.2209
X7.6894Y-3.4209
X7.8028Y-2.7209
X7.8028Y-3.0209
X7.8028Y-3.2209
X7.8028Y-3.4209
X8.1028Y-2.7209
X8.1028Y-3.0209
X8.1028Y-3.2209
X8.1028Y-3.4209
X4.6925Y-2.7209
X4.6925Y-3.0209
X4.6925Y-3.2209
X4.6925Y-3.4209
X4.9925Y-2.7209
X4.9925Y-3.0209
X4.9925Y-3.2209
X4.9925Y-3.4209
X5.1059Y-2.7209
X5.1059Y-3.0209
X5.1059Y-3.2209
X5.1059Y-3.4209
X5.4059Y-2.7209
X5.4059Y-3.0209
X5.4059Y-3.2209
X5.4059Y-3.4209
X4.2366Y-2.2516
X4.2366Y-2.5516
X4.5366Y-2.2516
X4.5366Y-2.5516
X4.7366Y-2.2516
X4.7366Y-2.5516
X4.9366Y-2.2516
X4.9366Y-2.5516
X4.7287Y-5.4406
X4.7287Y-5.7406
X4.9287Y-5.4406
X4.9287Y-5.7406
X5.1287Y-5.4406
X5.1287Y-5.7406
X5.4287Y-5.4406
X5.4287Y-5.7406
X6.2051Y-5.4406
X6.2051Y-5.7406
X6.4051Y-5.4406
X6.4051Y-5.7406
X6.6051Y-5.4406
X6.6051Y-5.7406
X6.9051Y-5.4406
X6.9051Y-5.7406
X6.1492Y-4.5713
X6.1492Y-4.7713
X6.1492Y-4.9713
X6.1492Y-5.2713
X6.4492Y-4.5713
X6.4492Y-4.7713
X6.4492Y-4.9713
X6.4492Y-5.2713
X6.976Y-2.7209
X6.976Y-3.0209
X6.976Y-3.2209
X6.976Y-3.4209
X7.276Y-2.7209
X7.276Y-3.0209
X7.276Y-3.2209
X7.276Y-3.4209
X5.7358Y-4.5713
X5.7358Y-4.7713
X5.7358Y-4.9713
X5.7358Y-5.2713
X6.0358Y-4.5713
X6.0358Y-4.7713
X6.0358Y-4.9713
X6.0358Y-5.2713
X4.6925Y-4.5713
X4.6925Y-4.7713
X4.6925Y-4.9713
X4.6925Y-5.2713
X4.9925Y-4.5713
X4.9925Y-4.7713
X4.9925Y-4.9713
X4.9925Y-5.2713
X6.5626Y-4.5713
X6.5626Y-4.7713
X6.5626Y-4.9713
X6.5626Y-5.2713
X6.8626Y-4.5713
X6.8626Y-4.7713
X6.8626Y-4.9713
X6.8626Y-5.2713
X7.3894Y-4.5713
X7.3894Y-4.7713
X7.3894Y-4.9713
X7.3894Y-5.2713
X7.6894Y-4.5713
X7.6894Y-4.7713
X7.6894Y-4.9713
X7.6894Y-5.2713
X7.8028Y-4.5713
X7.8028Y-4.7713
X7.8028Y-4.9713
X7.8028Y-5.2713
X8.1028Y-4.5713
X8.1028Y-4.7713
X8.1028Y-4.9713
X8.1028Y-5.2713
X4.2791Y-4.5713
X4.2791Y-4.7713
X4.2791Y-4.9713
X4.2791Y-5.2713
X4.5791Y-4.5713
X4.5791Y-4.7713
X4.5791Y-4.9713
X4.5791Y-5.2713
X7.4453Y-5.4406
X7.4453Y-5.7406
X7.6453Y-5.4406
X7.6453Y-5.7406
X7.8453Y-5.4406
X7.8453Y-5.7406
X8.1453Y-5.4406
X8.1453Y-5.7406
X5.1059Y-4.5713
X5.1059Y-4.7713
X5.1059Y-4.9713
X5.1059Y-5.2713
X5.4059Y-4.5713
X5.4059Y-4.7713
X5.4059Y-4.9713
X5.4059Y-5.2713
X6.976Y-4.5713
X6.976Y-4.7713
X6.976Y-4.9713
X6.976Y-5.2713
X7.276Y-4.5713
X7.276Y-4.7713
X7.276Y-4.9713
X7.276Y-5.2713
X9.261Y-2.8035
X9.261Y-2.9035
X9.261Y-3.0035
X9.361Y-2.8035
X9.361Y-2.9035
X9.361Y-3.0035
T4
X3.8385Y-2.6575
X3.8385Y-2.8543
X3.8385Y-3.0512
X3.8385Y-3.248
X3.8385Y-3.4449
X3.8385Y-3.6417
X3.8385Y-3.8386
X3.8385Y-4.0354
X3.8385Y-4.2323
X3.8385Y-4.4291
X3.8385Y-4.626
X3.8385Y-4.8228
X3.8385Y-5.0197
X3.8385Y-5.2165
X3.8385Y-5.4134
X3.8386Y-2.4606
X3.937Y-2.5591
X3.937Y-2.7559
X3.937Y-2.9528
X3.937Y-3.1496
X3.937Y-3.3465
X3.937Y-3.5433
X3.937Y-3.7402
X3.937Y-3.937
X3.937Y-4.1339
X3.937Y-4.3307
X3.937Y-4.5276
X3.937Y-4.7244
X3.937Y-4.9213
X3.937Y-5.1181
X3.937Y-5.315
T5
X3.7401Y-2.2638
X3.7401Y-5.6103
T0
M30
