M48
; DRILL file {KiCad (6.0.7)} date Mon May 29 10:21:43 2023
; FORMAT={-:-/ absolute / metric / decimal}
; #@! TF.CreationDate,2023-05-29T10:21:43+02:00
; #@! TF.GenerationSoftware,Kicad,Pcbnew,(6.0.7)
; #@! TF.FileFunction,Plated,1,2,PTH
FMAT,2
METRIC
; #@! TA.AperFunction,Plated,PTH,ViaDrill
T1C0.400
; #@! TA.AperFunction,Plated,PTH,ComponentDrill
T2C0.899
; #@! TA.AperFunction,Plated,PTH,ComponentDrill
T3C0.900
; #@! TA.AperFunction,Plated,PTH,ComponentDrill
T4C1.200
; #@! TA.AperFunction,Plated,PTH,ComponentDrill
T5C1.501
; #@! TA.AperFunction,Plated,PTH,ComponentDrill
T6C3.170
; #@! TA.AperFunction,Plated,PTH,ComponentDrill
T7C3.200
%
G90
G05
T1
X125.9Y-130.35
X128.45Y-127.3
X128.5Y-119.7
X129.65Y-145.9
X130.85Y-132.55
X131.3Y-127.0
X131.7Y-134.2
X132.9Y-121.7
X133.1Y-114.75
X133.55Y-145.9
X133.75Y-140.95
X137.7Y-105.4
X137.7Y-116.0
X138.5Y-140.95
X138.675Y-129.85
X140.65Y-117.85
X140.9Y-122.7
X140.95Y-127.75
X141.35Y-133.925
X142.325Y-135.05
X143.3Y-142.925
X146.15Y-140.05
X147.393Y-147.343
X147.7Y-135.05
X148.625Y-133.925
X150.543Y-144.193
X151.0Y-141.0
X151.0Y-135.0
X151.0Y-138.0
X151.25Y-128.35
X155.0Y-135.0
X155.0Y-138.0
X155.0Y-141.0
X155.245Y-147.448
X156.45Y-128.375
X159.0Y-135.0
X159.0Y-138.0
X159.0Y-141.0
X159.15Y-144.7
X159.15Y-145.75
X159.182Y-143.582
X160.475Y-132.375
X160.6Y-146.35
X162.55Y-126.5
X165.6Y-143.8
X167.15Y-120.9
T2
X114.0Y-109.095
X114.0Y-111.635
X114.0Y-114.175
X114.0Y-137.095
X114.0Y-139.635
X114.0Y-142.175
X116.54Y-107.825
X116.54Y-110.365
X116.54Y-112.905
X116.54Y-135.825
X116.54Y-138.365
X116.54Y-140.905
X133.71Y-124.13
X133.71Y-126.67
X136.25Y-124.13
X136.25Y-126.67
X138.79Y-124.13
X138.79Y-126.67
T3
X123.3Y-131.2
X123.3Y-133.74
X123.3Y-136.28
T4
X152.15Y-108.4
X152.15Y-115.9
T5
X110.0Y-122.501
X110.0Y-127.499
X176.0Y-109.501
X176.0Y-114.499
X176.0Y-122.501
X176.0Y-127.499
X176.0Y-135.501
X176.0Y-140.499
T6
X107.65Y-105.92
X107.65Y-116.08
X107.65Y-133.92
X107.65Y-144.08
T7
X123.0Y-104.0
X123.0Y-146.0
X171.0Y-104.0
X171.0Y-146.0
T0
M30
