G04 #@! TF.GenerationSoftware,KiCad,Pcbnew,(6.0.7)*
G04 #@! TF.CreationDate,2023-05-29T10:21:20+02:00*
G04 #@! TF.ProjectId,booster,626f6f73-7465-4722-9e6b-696361645f70,rev?*
G04 #@! TF.SameCoordinates,Original*
G04 #@! TF.FileFunction,Legend,Top*
G04 #@! TF.FilePolarity,Positive*
%FSLAX46Y46*%
G04 Gerber Fmt 4.6, Leading zero omitted, Abs format (unit mm)*
G04 Created by KiCad (PCBNEW (6.0.7)) date 2023-05-29 10:21:20*
%MOMM*%
%LPD*%
G01*
G04 APERTURE LIST*
G04 Aperture macros list*
%AMRoundRect*
0 Rectangle with rounded corners*
0 $1 Rounding radius*
0 $2 $3 $4 $5 $6 $7 $8 $9 X,Y pos of 4 corners*
0 Add a 4 corners polygon primitive as box body*
4,1,4,$2,$3,$4,$5,$6,$7,$8,$9,$2,$3,0*
0 Add four circle primitives for the rounded corners*
1,1,$1+$1,$2,$3*
1,1,$1+$1,$4,$5*
1,1,$1+$1,$6,$7*
1,1,$1+$1,$8,$9*
0 Add four rect primitives between the rounded corners*
20,1,$1+$1,$2,$3,$4,$5,0*
20,1,$1+$1,$4,$5,$6,$7,0*
20,1,$1+$1,$6,$7,$8,$9,0*
20,1,$1+$1,$8,$9,$2,$3,0*%
G04 Aperture macros list end*
%ADD10C,0.300000*%
%ADD11C,0.152400*%
%ADD12C,0.150000*%
%ADD13C,0.304800*%
%ADD14C,0.203200*%
%ADD15C,0.120000*%
%ADD16C,0.381000*%
%ADD17C,6.400800*%
%ADD18C,3.048000*%
%ADD19R,3.048000X3.048000*%
%ADD20C,1.524000*%
%ADD21R,1.524000X1.524000*%
%ADD22C,3.169920*%
%ADD23RoundRect,0.250000X-0.325000X-0.450000X0.325000X-0.450000X0.325000X0.450000X-0.325000X0.450000X0*%
%ADD24RoundRect,0.150000X-0.725000X-0.150000X0.725000X-0.150000X0.725000X0.150000X-0.725000X0.150000X0*%
%ADD25R,1.900000X0.800000*%
%ADD26RoundRect,0.150000X-0.825000X-0.150000X0.825000X-0.150000X0.825000X0.150000X-0.825000X0.150000X0*%
%ADD27RoundRect,0.250000X0.325000X0.450000X-0.325000X0.450000X-0.325000X-0.450000X0.325000X-0.450000X0*%
%ADD28RoundRect,0.250000X-0.450000X0.325000X-0.450000X-0.325000X0.450000X-0.325000X0.450000X0.325000X0*%
%ADD29C,1.800000*%
%ADD30R,1.800000X1.800000*%
%ADD31R,10.500000X7.400000*%
%ADD32R,0.450000X3.000000*%
%ADD33R,1.560000X0.650000*%
%ADD34R,1.500000X2.000000*%
%ADD35R,3.800000X2.000000*%
%ADD36RoundRect,0.250001X0.624999X-0.462499X0.624999X0.462499X-0.624999X0.462499X-0.624999X-0.462499X0*%
%ADD37R,2.500000X3.700000*%
%ADD38RoundRect,0.250000X-0.537500X-0.425000X0.537500X-0.425000X0.537500X0.425000X-0.537500X0.425000X0*%
%ADD39C,2.400000*%
%ADD40R,2.400000X2.400000*%
G04 APERTURE END LIST*
D10*
X163321071Y-119250000D02*
X161821071Y-119250000D01*
X161821071Y-118892857D01*
X161892500Y-118678571D01*
X162035357Y-118535714D01*
X162178214Y-118464285D01*
X162463928Y-118392857D01*
X162678214Y-118392857D01*
X162963928Y-118464285D01*
X163106785Y-118535714D01*
X163249642Y-118678571D01*
X163321071Y-118892857D01*
X163321071Y-119250000D01*
X163178214Y-116892857D02*
X163249642Y-116964285D01*
X163321071Y-117178571D01*
X163321071Y-117321428D01*
X163249642Y-117535714D01*
X163106785Y-117678571D01*
X162963928Y-117750000D01*
X162678214Y-117821428D01*
X162463928Y-117821428D01*
X162178214Y-117750000D01*
X162035357Y-117678571D01*
X161892500Y-117535714D01*
X161821071Y-117321428D01*
X161821071Y-117178571D01*
X161892500Y-116964285D01*
X161963928Y-116892857D01*
X163178214Y-115392857D02*
X163249642Y-115464285D01*
X163321071Y-115678571D01*
X163321071Y-115821428D01*
X163249642Y-116035714D01*
X163106785Y-116178571D01*
X162963928Y-116250000D01*
X162678214Y-116321428D01*
X162463928Y-116321428D01*
X162178214Y-116250000D01*
X162035357Y-116178571D01*
X161892500Y-116035714D01*
X161821071Y-115821428D01*
X161821071Y-115678571D01*
X161892500Y-115464285D01*
X161963928Y-115392857D01*
X162535357Y-113107142D02*
X162606785Y-112892857D01*
X162678214Y-112821428D01*
X162821071Y-112750000D01*
X163035357Y-112750000D01*
X163178214Y-112821428D01*
X163249642Y-112892857D01*
X163321071Y-113035714D01*
X163321071Y-113607142D01*
X161821071Y-113607142D01*
X161821071Y-113107142D01*
X161892500Y-112964285D01*
X161963928Y-112892857D01*
X162106785Y-112821428D01*
X162249642Y-112821428D01*
X162392500Y-112892857D01*
X162463928Y-112964285D01*
X162535357Y-113107142D01*
X162535357Y-113607142D01*
X163321071Y-111892857D02*
X163249642Y-112035714D01*
X163178214Y-112107142D01*
X163035357Y-112178571D01*
X162606785Y-112178571D01*
X162463928Y-112107142D01*
X162392500Y-112035714D01*
X162321071Y-111892857D01*
X162321071Y-111678571D01*
X162392500Y-111535714D01*
X162463928Y-111464285D01*
X162606785Y-111392857D01*
X163035357Y-111392857D01*
X163178214Y-111464285D01*
X163249642Y-111535714D01*
X163321071Y-111678571D01*
X163321071Y-111892857D01*
X163321071Y-110535714D02*
X163249642Y-110678571D01*
X163178214Y-110750000D01*
X163035357Y-110821428D01*
X162606785Y-110821428D01*
X162463928Y-110750000D01*
X162392500Y-110678571D01*
X162321071Y-110535714D01*
X162321071Y-110321428D01*
X162392500Y-110178571D01*
X162463928Y-110107142D01*
X162606785Y-110035714D01*
X163035357Y-110035714D01*
X163178214Y-110107142D01*
X163249642Y-110178571D01*
X163321071Y-110321428D01*
X163321071Y-110535714D01*
X163249642Y-109464285D02*
X163321071Y-109321428D01*
X163321071Y-109035714D01*
X163249642Y-108892857D01*
X163106785Y-108821428D01*
X163035357Y-108821428D01*
X162892500Y-108892857D01*
X162821071Y-109035714D01*
X162821071Y-109250000D01*
X162749642Y-109392857D01*
X162606785Y-109464285D01*
X162535357Y-109464285D01*
X162392500Y-109392857D01*
X162321071Y-109250000D01*
X162321071Y-109035714D01*
X162392500Y-108892857D01*
X162321071Y-108392857D02*
X162321071Y-107821428D01*
X161821071Y-108178571D02*
X163106785Y-108178571D01*
X163249642Y-108107142D01*
X163321071Y-107964285D01*
X163321071Y-107821428D01*
X163249642Y-106750000D02*
X163321071Y-106892857D01*
X163321071Y-107178571D01*
X163249642Y-107321428D01*
X163106785Y-107392857D01*
X162535357Y-107392857D01*
X162392500Y-107321428D01*
X162321071Y-107178571D01*
X162321071Y-106892857D01*
X162392500Y-106750000D01*
X162535357Y-106678571D01*
X162678214Y-106678571D01*
X162821071Y-107392857D01*
X163321071Y-106035714D02*
X162321071Y-106035714D01*
X162606785Y-106035714D02*
X162463928Y-105964285D01*
X162392500Y-105892857D01*
X162321071Y-105750000D01*
X162321071Y-105607142D01*
X161821071Y-104107142D02*
X161821071Y-103178571D01*
X162392500Y-103678571D01*
X162392500Y-103464285D01*
X162463928Y-103321428D01*
X162535357Y-103250000D01*
X162678214Y-103178571D01*
X163035357Y-103178571D01*
X163178214Y-103250000D01*
X163249642Y-103321428D01*
X163321071Y-103464285D01*
X163321071Y-103892857D01*
X163249642Y-104035714D01*
X163178214Y-104107142D01*
X164378928Y-118750000D02*
X164307500Y-118678571D01*
X164236071Y-118535714D01*
X164236071Y-118178571D01*
X164307500Y-118035714D01*
X164378928Y-117964285D01*
X164521785Y-117892857D01*
X164664642Y-117892857D01*
X164878928Y-117964285D01*
X165736071Y-118821428D01*
X165736071Y-117892857D01*
X164236071Y-116964285D02*
X164236071Y-116821428D01*
X164307500Y-116678571D01*
X164378928Y-116607142D01*
X164521785Y-116535714D01*
X164807500Y-116464285D01*
X165164642Y-116464285D01*
X165450357Y-116535714D01*
X165593214Y-116607142D01*
X165664642Y-116678571D01*
X165736071Y-116821428D01*
X165736071Y-116964285D01*
X165664642Y-117107142D01*
X165593214Y-117178571D01*
X165450357Y-117250000D01*
X165164642Y-117321428D01*
X164807500Y-117321428D01*
X164521785Y-117250000D01*
X164378928Y-117178571D01*
X164307500Y-117107142D01*
X164236071Y-116964285D01*
X164378928Y-115892857D02*
X164307500Y-115821428D01*
X164236071Y-115678571D01*
X164236071Y-115321428D01*
X164307500Y-115178571D01*
X164378928Y-115107142D01*
X164521785Y-115035714D01*
X164664642Y-115035714D01*
X164878928Y-115107142D01*
X165736071Y-115964285D01*
X165736071Y-115035714D01*
X164236071Y-114107142D02*
X164236071Y-113964285D01*
X164307500Y-113821428D01*
X164378928Y-113750000D01*
X164521785Y-113678571D01*
X164807500Y-113607142D01*
X165164642Y-113607142D01*
X165450357Y-113678571D01*
X165593214Y-113750000D01*
X165664642Y-113821428D01*
X165736071Y-113964285D01*
X165736071Y-114107142D01*
X165664642Y-114250000D01*
X165593214Y-114321428D01*
X165450357Y-114392857D01*
X165164642Y-114464285D01*
X164807500Y-114464285D01*
X164521785Y-114392857D01*
X164378928Y-114321428D01*
X164307500Y-114250000D01*
X164236071Y-114107142D01*
X164236071Y-112678571D02*
X164236071Y-112535714D01*
X164307500Y-112392857D01*
X164378928Y-112321428D01*
X164521785Y-112250000D01*
X164807500Y-112178571D01*
X165164642Y-112178571D01*
X165450357Y-112250000D01*
X165593214Y-112321428D01*
X165664642Y-112392857D01*
X165736071Y-112535714D01*
X165736071Y-112678571D01*
X165664642Y-112821428D01*
X165593214Y-112892857D01*
X165450357Y-112964285D01*
X165164642Y-113035714D01*
X164807500Y-113035714D01*
X164521785Y-112964285D01*
X164378928Y-112892857D01*
X164307500Y-112821428D01*
X164236071Y-112678571D01*
X164236071Y-111678571D02*
X164236071Y-110678571D01*
X165736071Y-111321428D01*
X164236071Y-109821428D02*
X164236071Y-109678571D01*
X164307500Y-109535714D01*
X164378928Y-109464285D01*
X164521785Y-109392857D01*
X164807500Y-109321428D01*
X165164642Y-109321428D01*
X165450357Y-109392857D01*
X165593214Y-109464285D01*
X165664642Y-109535714D01*
X165736071Y-109678571D01*
X165736071Y-109821428D01*
X165664642Y-109964285D01*
X165593214Y-110035714D01*
X165450357Y-110107142D01*
X165164642Y-110178571D01*
X164807500Y-110178571D01*
X164521785Y-110107142D01*
X164378928Y-110035714D01*
X164307500Y-109964285D01*
X164236071Y-109821428D01*
X164236071Y-108821428D02*
X164236071Y-107821428D01*
X165736071Y-108464285D01*
X165736071Y-106107142D02*
X164236071Y-106107142D01*
X165307500Y-105607142D01*
X164236071Y-105107142D01*
X165736071Y-105107142D01*
X164236071Y-104607142D02*
X165736071Y-104107142D01*
X164236071Y-103607142D01*
D11*
X121730000Y-146344714D02*
X121730000Y-145582714D01*
X121730000Y-145945571D02*
X122165428Y-145945571D01*
X122165428Y-146344714D02*
X122165428Y-145582714D01*
X122673428Y-145582714D02*
X122818571Y-145582714D01*
X122891142Y-145619000D01*
X122963714Y-145691571D01*
X123000000Y-145836714D01*
X123000000Y-146090714D01*
X122963714Y-146235857D01*
X122891142Y-146308428D01*
X122818571Y-146344714D01*
X122673428Y-146344714D01*
X122600857Y-146308428D01*
X122528285Y-146235857D01*
X122492000Y-146090714D01*
X122492000Y-145836714D01*
X122528285Y-145691571D01*
X122600857Y-145619000D01*
X122673428Y-145582714D01*
X123689428Y-146344714D02*
X123326571Y-146344714D01*
X123326571Y-145582714D01*
X123943428Y-145945571D02*
X124197428Y-145945571D01*
X124306285Y-146344714D02*
X123943428Y-146344714D01*
X123943428Y-145582714D01*
X124306285Y-145582714D01*
X121730000Y-104344714D02*
X121730000Y-103582714D01*
X121730000Y-103945571D02*
X122165428Y-103945571D01*
X122165428Y-104344714D02*
X122165428Y-103582714D01*
X122673428Y-103582714D02*
X122818571Y-103582714D01*
X122891142Y-103619000D01*
X122963714Y-103691571D01*
X123000000Y-103836714D01*
X123000000Y-104090714D01*
X122963714Y-104235857D01*
X122891142Y-104308428D01*
X122818571Y-104344714D01*
X122673428Y-104344714D01*
X122600857Y-104308428D01*
X122528285Y-104235857D01*
X122492000Y-104090714D01*
X122492000Y-103836714D01*
X122528285Y-103691571D01*
X122600857Y-103619000D01*
X122673428Y-103582714D01*
X123689428Y-104344714D02*
X123326571Y-104344714D01*
X123326571Y-103582714D01*
X123943428Y-103945571D02*
X124197428Y-103945571D01*
X124306285Y-104344714D02*
X123943428Y-104344714D01*
X123943428Y-103582714D01*
X124306285Y-103582714D01*
D12*
X126683333Y-115057142D02*
X126635714Y-115104761D01*
X126492857Y-115152380D01*
X126397619Y-115152380D01*
X126254761Y-115104761D01*
X126159523Y-115009523D01*
X126111904Y-114914285D01*
X126064285Y-114723809D01*
X126064285Y-114580952D01*
X126111904Y-114390476D01*
X126159523Y-114295238D01*
X126254761Y-114200000D01*
X126397619Y-114152380D01*
X126492857Y-114152380D01*
X126635714Y-114200000D01*
X126683333Y-114247619D01*
X127016666Y-114152380D02*
X127683333Y-114152380D01*
X127254761Y-115152380D01*
X120738095Y-113902380D02*
X120738095Y-114711904D01*
X120785714Y-114807142D01*
X120833333Y-114854761D01*
X120928571Y-114902380D01*
X121119047Y-114902380D01*
X121214285Y-114854761D01*
X121261904Y-114807142D01*
X121309523Y-114711904D01*
X121309523Y-113902380D01*
X122261904Y-113902380D02*
X121785714Y-113902380D01*
X121738095Y-114378571D01*
X121785714Y-114330952D01*
X121880952Y-114283333D01*
X122119047Y-114283333D01*
X122214285Y-114330952D01*
X122261904Y-114378571D01*
X122309523Y-114473809D01*
X122309523Y-114711904D01*
X122261904Y-114807142D01*
X122214285Y-114854761D01*
X122119047Y-114902380D01*
X121880952Y-114902380D01*
X121785714Y-114854761D01*
X121738095Y-114807142D01*
X124311904Y-109452380D02*
X124311904Y-108452380D01*
X124550000Y-108452380D01*
X124692857Y-108500000D01*
X124788095Y-108595238D01*
X124835714Y-108690476D01*
X124883333Y-108880952D01*
X124883333Y-109023809D01*
X124835714Y-109214285D01*
X124788095Y-109309523D01*
X124692857Y-109404761D01*
X124550000Y-109452380D01*
X124311904Y-109452380D01*
X125264285Y-108547619D02*
X125311904Y-108500000D01*
X125407142Y-108452380D01*
X125645238Y-108452380D01*
X125740476Y-108500000D01*
X125788095Y-108547619D01*
X125835714Y-108642857D01*
X125835714Y-108738095D01*
X125788095Y-108880952D01*
X125216666Y-109452380D01*
X125835714Y-109452380D01*
X133033333Y-118252380D02*
X132700000Y-117776190D01*
X132461904Y-118252380D02*
X132461904Y-117252380D01*
X132842857Y-117252380D01*
X132938095Y-117300000D01*
X132985714Y-117347619D01*
X133033333Y-117442857D01*
X133033333Y-117585714D01*
X132985714Y-117680952D01*
X132938095Y-117728571D01*
X132842857Y-117776190D01*
X132461904Y-117776190D01*
X133366666Y-117252380D02*
X134033333Y-117252380D01*
X133604761Y-118252380D01*
X133283333Y-112002380D02*
X132950000Y-111526190D01*
X132711904Y-112002380D02*
X132711904Y-111002380D01*
X133092857Y-111002380D01*
X133188095Y-111050000D01*
X133235714Y-111097619D01*
X133283333Y-111192857D01*
X133283333Y-111335714D01*
X133235714Y-111430952D01*
X133188095Y-111478571D01*
X133092857Y-111526190D01*
X132711904Y-111526190D01*
X134140476Y-111335714D02*
X134140476Y-112002380D01*
X133902380Y-110954761D02*
X133664285Y-111669047D01*
X134283333Y-111669047D01*
D13*
X171325142Y-141039428D02*
X171325142Y-139515428D01*
X171905714Y-139515428D01*
X172050857Y-139588000D01*
X172123428Y-139660571D01*
X172196000Y-139805714D01*
X172196000Y-140023428D01*
X172123428Y-140168571D01*
X172050857Y-140241142D01*
X171905714Y-140313714D01*
X171325142Y-140313714D01*
X173502285Y-140023428D02*
X173502285Y-141039428D01*
X173139428Y-139442857D02*
X172776571Y-140531428D01*
X173720000Y-140531428D01*
X180245428Y-141374571D02*
X180245428Y-140503714D01*
X181769428Y-140939142D02*
X180245428Y-140939142D01*
X181769428Y-139124857D02*
X181043714Y-139632857D01*
X181769428Y-139995714D02*
X180245428Y-139995714D01*
X180245428Y-139415142D01*
X180318000Y-139270000D01*
X180390571Y-139197428D01*
X180535714Y-139124857D01*
X180753428Y-139124857D01*
X180898571Y-139197428D01*
X180971142Y-139270000D01*
X181043714Y-139415142D01*
X181043714Y-139995714D01*
X181334000Y-138544285D02*
X181334000Y-137818571D01*
X181769428Y-138689428D02*
X180245428Y-138181428D01*
X181769428Y-137673428D01*
X181624285Y-136294571D02*
X181696857Y-136367142D01*
X181769428Y-136584857D01*
X181769428Y-136730000D01*
X181696857Y-136947714D01*
X181551714Y-137092857D01*
X181406571Y-137165428D01*
X181116285Y-137238000D01*
X180898571Y-137238000D01*
X180608285Y-137165428D01*
X180463142Y-137092857D01*
X180318000Y-136947714D01*
X180245428Y-136730000D01*
X180245428Y-136584857D01*
X180318000Y-136367142D01*
X180390571Y-136294571D01*
X181769428Y-135641428D02*
X180245428Y-135641428D01*
X181769428Y-134770571D02*
X180898571Y-135423714D01*
X180245428Y-134770571D02*
X181116285Y-135641428D01*
D12*
X132938095Y-129102380D02*
X132938095Y-129911904D01*
X132985714Y-130007142D01*
X133033333Y-130054761D01*
X133128571Y-130102380D01*
X133319047Y-130102380D01*
X133414285Y-130054761D01*
X133461904Y-130007142D01*
X133509523Y-129911904D01*
X133509523Y-129102380D01*
X134509523Y-130102380D02*
X133938095Y-130102380D01*
X134223809Y-130102380D02*
X134223809Y-129102380D01*
X134128571Y-129245238D01*
X134033333Y-129340476D01*
X133938095Y-129388095D01*
X168783333Y-121257142D02*
X168735714Y-121304761D01*
X168592857Y-121352380D01*
X168497619Y-121352380D01*
X168354761Y-121304761D01*
X168259523Y-121209523D01*
X168211904Y-121114285D01*
X168164285Y-120923809D01*
X168164285Y-120780952D01*
X168211904Y-120590476D01*
X168259523Y-120495238D01*
X168354761Y-120400000D01*
X168497619Y-120352380D01*
X168592857Y-120352380D01*
X168735714Y-120400000D01*
X168783333Y-120447619D01*
X169116666Y-120352380D02*
X169735714Y-120352380D01*
X169402380Y-120733333D01*
X169545238Y-120733333D01*
X169640476Y-120780952D01*
X169688095Y-120828571D01*
X169735714Y-120923809D01*
X169735714Y-121161904D01*
X169688095Y-121257142D01*
X169640476Y-121304761D01*
X169545238Y-121352380D01*
X169259523Y-121352380D01*
X169164285Y-121304761D01*
X169116666Y-121257142D01*
X125483333Y-130707142D02*
X125435714Y-130754761D01*
X125292857Y-130802380D01*
X125197619Y-130802380D01*
X125054761Y-130754761D01*
X124959523Y-130659523D01*
X124911904Y-130564285D01*
X124864285Y-130373809D01*
X124864285Y-130230952D01*
X124911904Y-130040476D01*
X124959523Y-129945238D01*
X125054761Y-129850000D01*
X125197619Y-129802380D01*
X125292857Y-129802380D01*
X125435714Y-129850000D01*
X125483333Y-129897619D01*
X126340476Y-130135714D02*
X126340476Y-130802380D01*
X126102380Y-129754761D02*
X125864285Y-130469047D01*
X126483333Y-130469047D01*
X126733333Y-122007142D02*
X126685714Y-122054761D01*
X126542857Y-122102380D01*
X126447619Y-122102380D01*
X126304761Y-122054761D01*
X126209523Y-121959523D01*
X126161904Y-121864285D01*
X126114285Y-121673809D01*
X126114285Y-121530952D01*
X126161904Y-121340476D01*
X126209523Y-121245238D01*
X126304761Y-121150000D01*
X126447619Y-121102380D01*
X126542857Y-121102380D01*
X126685714Y-121150000D01*
X126733333Y-121197619D01*
X127590476Y-121102380D02*
X127400000Y-121102380D01*
X127304761Y-121150000D01*
X127257142Y-121197619D01*
X127161904Y-121340476D01*
X127114285Y-121530952D01*
X127114285Y-121911904D01*
X127161904Y-122007142D01*
X127209523Y-122054761D01*
X127304761Y-122102380D01*
X127495238Y-122102380D01*
X127590476Y-122054761D01*
X127638095Y-122007142D01*
X127685714Y-121911904D01*
X127685714Y-121673809D01*
X127638095Y-121578571D01*
X127590476Y-121530952D01*
X127495238Y-121483333D01*
X127304761Y-121483333D01*
X127209523Y-121530952D01*
X127161904Y-121578571D01*
X127114285Y-121673809D01*
X149983333Y-128807142D02*
X149935714Y-128854761D01*
X149792857Y-128902380D01*
X149697619Y-128902380D01*
X149554761Y-128854761D01*
X149459523Y-128759523D01*
X149411904Y-128664285D01*
X149364285Y-128473809D01*
X149364285Y-128330952D01*
X149411904Y-128140476D01*
X149459523Y-128045238D01*
X149554761Y-127950000D01*
X149697619Y-127902380D01*
X149792857Y-127902380D01*
X149935714Y-127950000D01*
X149983333Y-127997619D01*
X150888095Y-127902380D02*
X150411904Y-127902380D01*
X150364285Y-128378571D01*
X150411904Y-128330952D01*
X150507142Y-128283333D01*
X150745238Y-128283333D01*
X150840476Y-128330952D01*
X150888095Y-128378571D01*
X150935714Y-128473809D01*
X150935714Y-128711904D01*
X150888095Y-128807142D01*
X150840476Y-128854761D01*
X150745238Y-128902380D01*
X150507142Y-128902380D01*
X150411904Y-128854761D01*
X150364285Y-128807142D01*
X130058333Y-126502380D02*
X129725000Y-126026190D01*
X129486904Y-126502380D02*
X129486904Y-125502380D01*
X129867857Y-125502380D01*
X129963095Y-125550000D01*
X130010714Y-125597619D01*
X130058333Y-125692857D01*
X130058333Y-125835714D01*
X130010714Y-125930952D01*
X129963095Y-125978571D01*
X129867857Y-126026190D01*
X129486904Y-126026190D01*
X130439285Y-125597619D02*
X130486904Y-125550000D01*
X130582142Y-125502380D01*
X130820238Y-125502380D01*
X130915476Y-125550000D01*
X130963095Y-125597619D01*
X131010714Y-125692857D01*
X131010714Y-125788095D01*
X130963095Y-125930952D01*
X130391666Y-126502380D01*
X131010714Y-126502380D01*
X164257142Y-146316666D02*
X164304761Y-146364285D01*
X164352380Y-146507142D01*
X164352380Y-146602380D01*
X164304761Y-146745238D01*
X164209523Y-146840476D01*
X164114285Y-146888095D01*
X163923809Y-146935714D01*
X163780952Y-146935714D01*
X163590476Y-146888095D01*
X163495238Y-146840476D01*
X163400000Y-146745238D01*
X163352380Y-146602380D01*
X163352380Y-146507142D01*
X163400000Y-146364285D01*
X163447619Y-146316666D01*
X163780952Y-145745238D02*
X163733333Y-145840476D01*
X163685714Y-145888095D01*
X163590476Y-145935714D01*
X163542857Y-145935714D01*
X163447619Y-145888095D01*
X163400000Y-145840476D01*
X163352380Y-145745238D01*
X163352380Y-145554761D01*
X163400000Y-145459523D01*
X163447619Y-145411904D01*
X163542857Y-145364285D01*
X163590476Y-145364285D01*
X163685714Y-145411904D01*
X163733333Y-145459523D01*
X163780952Y-145554761D01*
X163780952Y-145745238D01*
X163828571Y-145840476D01*
X163876190Y-145888095D01*
X163971428Y-145935714D01*
X164161904Y-145935714D01*
X164257142Y-145888095D01*
X164304761Y-145840476D01*
X164352380Y-145745238D01*
X164352380Y-145554761D01*
X164304761Y-145459523D01*
X164257142Y-145411904D01*
X164161904Y-145364285D01*
X163971428Y-145364285D01*
X163876190Y-145411904D01*
X163828571Y-145459523D01*
X163780952Y-145554761D01*
X125483333Y-135252380D02*
X125150000Y-134776190D01*
X124911904Y-135252380D02*
X124911904Y-134252380D01*
X125292857Y-134252380D01*
X125388095Y-134300000D01*
X125435714Y-134347619D01*
X125483333Y-134442857D01*
X125483333Y-134585714D01*
X125435714Y-134680952D01*
X125388095Y-134728571D01*
X125292857Y-134776190D01*
X124911904Y-134776190D01*
X126388095Y-134252380D02*
X125911904Y-134252380D01*
X125864285Y-134728571D01*
X125911904Y-134680952D01*
X126007142Y-134633333D01*
X126245238Y-134633333D01*
X126340476Y-134680952D01*
X126388095Y-134728571D01*
X126435714Y-134823809D01*
X126435714Y-135061904D01*
X126388095Y-135157142D01*
X126340476Y-135204761D01*
X126245238Y-135252380D01*
X126007142Y-135252380D01*
X125911904Y-135204761D01*
X125864285Y-135157142D01*
X119361904Y-136752380D02*
X119361904Y-135752380D01*
X119600000Y-135752380D01*
X119742857Y-135800000D01*
X119838095Y-135895238D01*
X119885714Y-135990476D01*
X119933333Y-136180952D01*
X119933333Y-136323809D01*
X119885714Y-136514285D01*
X119838095Y-136609523D01*
X119742857Y-136704761D01*
X119600000Y-136752380D01*
X119361904Y-136752380D01*
X120266666Y-135752380D02*
X120885714Y-135752380D01*
X120552380Y-136133333D01*
X120695238Y-136133333D01*
X120790476Y-136180952D01*
X120838095Y-136228571D01*
X120885714Y-136323809D01*
X120885714Y-136561904D01*
X120838095Y-136657142D01*
X120790476Y-136704761D01*
X120695238Y-136752380D01*
X120409523Y-136752380D01*
X120314285Y-136704761D01*
X120266666Y-136657142D01*
X143433333Y-129652380D02*
X143100000Y-129176190D01*
X142861904Y-129652380D02*
X142861904Y-128652380D01*
X143242857Y-128652380D01*
X143338095Y-128700000D01*
X143385714Y-128747619D01*
X143433333Y-128842857D01*
X143433333Y-128985714D01*
X143385714Y-129080952D01*
X143338095Y-129128571D01*
X143242857Y-129176190D01*
X142861904Y-129176190D01*
X144004761Y-129080952D02*
X143909523Y-129033333D01*
X143861904Y-128985714D01*
X143814285Y-128890476D01*
X143814285Y-128842857D01*
X143861904Y-128747619D01*
X143909523Y-128700000D01*
X144004761Y-128652380D01*
X144195238Y-128652380D01*
X144290476Y-128700000D01*
X144338095Y-128747619D01*
X144385714Y-128842857D01*
X144385714Y-128890476D01*
X144338095Y-128985714D01*
X144290476Y-129033333D01*
X144195238Y-129080952D01*
X144004761Y-129080952D01*
X143909523Y-129128571D01*
X143861904Y-129176190D01*
X143814285Y-129271428D01*
X143814285Y-129461904D01*
X143861904Y-129557142D01*
X143909523Y-129604761D01*
X144004761Y-129652380D01*
X144195238Y-129652380D01*
X144290476Y-129604761D01*
X144338095Y-129557142D01*
X144385714Y-129461904D01*
X144385714Y-129271428D01*
X144338095Y-129176190D01*
X144290476Y-129128571D01*
X144195238Y-129080952D01*
X125583333Y-133002380D02*
X125250000Y-132526190D01*
X125011904Y-133002380D02*
X125011904Y-132002380D01*
X125392857Y-132002380D01*
X125488095Y-132050000D01*
X125535714Y-132097619D01*
X125583333Y-132192857D01*
X125583333Y-132335714D01*
X125535714Y-132430952D01*
X125488095Y-132478571D01*
X125392857Y-132526190D01*
X125011904Y-132526190D01*
X126440476Y-132002380D02*
X126250000Y-132002380D01*
X126154761Y-132050000D01*
X126107142Y-132097619D01*
X126011904Y-132240476D01*
X125964285Y-132430952D01*
X125964285Y-132811904D01*
X126011904Y-132907142D01*
X126059523Y-132954761D01*
X126154761Y-133002380D01*
X126345238Y-133002380D01*
X126440476Y-132954761D01*
X126488095Y-132907142D01*
X126535714Y-132811904D01*
X126535714Y-132573809D01*
X126488095Y-132478571D01*
X126440476Y-132430952D01*
X126345238Y-132383333D01*
X126154761Y-132383333D01*
X126059523Y-132430952D01*
X126011904Y-132478571D01*
X125964285Y-132573809D01*
X125383333Y-139552380D02*
X125050000Y-139076190D01*
X124811904Y-139552380D02*
X124811904Y-138552380D01*
X125192857Y-138552380D01*
X125288095Y-138600000D01*
X125335714Y-138647619D01*
X125383333Y-138742857D01*
X125383333Y-138885714D01*
X125335714Y-138980952D01*
X125288095Y-139028571D01*
X125192857Y-139076190D01*
X124811904Y-139076190D01*
X125716666Y-138552380D02*
X126335714Y-138552380D01*
X126002380Y-138933333D01*
X126145238Y-138933333D01*
X126240476Y-138980952D01*
X126288095Y-139028571D01*
X126335714Y-139123809D01*
X126335714Y-139361904D01*
X126288095Y-139457142D01*
X126240476Y-139504761D01*
X126145238Y-139552380D01*
X125859523Y-139552380D01*
X125764285Y-139504761D01*
X125716666Y-139457142D01*
X147938095Y-143702380D02*
X147938095Y-144511904D01*
X147985714Y-144607142D01*
X148033333Y-144654761D01*
X148128571Y-144702380D01*
X148319047Y-144702380D01*
X148414285Y-144654761D01*
X148461904Y-144607142D01*
X148509523Y-144511904D01*
X148509523Y-143702380D01*
X148938095Y-143797619D02*
X148985714Y-143750000D01*
X149080952Y-143702380D01*
X149319047Y-143702380D01*
X149414285Y-143750000D01*
X149461904Y-143797619D01*
X149509523Y-143892857D01*
X149509523Y-143988095D01*
X149461904Y-144130952D01*
X148890476Y-144702380D01*
X149509523Y-144702380D01*
X120688095Y-121302380D02*
X120688095Y-122111904D01*
X120735714Y-122207142D01*
X120783333Y-122254761D01*
X120878571Y-122302380D01*
X121069047Y-122302380D01*
X121164285Y-122254761D01*
X121211904Y-122207142D01*
X121259523Y-122111904D01*
X121259523Y-121302380D01*
X122164285Y-121635714D02*
X122164285Y-122302380D01*
X121926190Y-121254761D02*
X121688095Y-121969047D01*
X122307142Y-121969047D01*
X155232142Y-127052380D02*
X154898809Y-126576190D01*
X154660714Y-127052380D02*
X154660714Y-126052380D01*
X155041666Y-126052380D01*
X155136904Y-126100000D01*
X155184523Y-126147619D01*
X155232142Y-126242857D01*
X155232142Y-126385714D01*
X155184523Y-126480952D01*
X155136904Y-126528571D01*
X155041666Y-126576190D01*
X154660714Y-126576190D01*
X156184523Y-127052380D02*
X155613095Y-127052380D01*
X155898809Y-127052380D02*
X155898809Y-126052380D01*
X155803571Y-126195238D01*
X155708333Y-126290476D01*
X155613095Y-126338095D01*
X156803571Y-126052380D02*
X156898809Y-126052380D01*
X156994047Y-126100000D01*
X157041666Y-126147619D01*
X157089285Y-126242857D01*
X157136904Y-126433333D01*
X157136904Y-126671428D01*
X157089285Y-126861904D01*
X157041666Y-126957142D01*
X156994047Y-127004761D01*
X156898809Y-127052380D01*
X156803571Y-127052380D01*
X156708333Y-127004761D01*
X156660714Y-126957142D01*
X156613095Y-126861904D01*
X156565476Y-126671428D01*
X156565476Y-126433333D01*
X156613095Y-126242857D01*
X156660714Y-126147619D01*
X156708333Y-126100000D01*
X156803571Y-126052380D01*
X125433333Y-137402380D02*
X125100000Y-136926190D01*
X124861904Y-137402380D02*
X124861904Y-136402380D01*
X125242857Y-136402380D01*
X125338095Y-136450000D01*
X125385714Y-136497619D01*
X125433333Y-136592857D01*
X125433333Y-136735714D01*
X125385714Y-136830952D01*
X125338095Y-136878571D01*
X125242857Y-136926190D01*
X124861904Y-136926190D01*
X125909523Y-137402380D02*
X126100000Y-137402380D01*
X126195238Y-137354761D01*
X126242857Y-137307142D01*
X126338095Y-137164285D01*
X126385714Y-136973809D01*
X126385714Y-136592857D01*
X126338095Y-136497619D01*
X126290476Y-136450000D01*
X126195238Y-136402380D01*
X126004761Y-136402380D01*
X125909523Y-136450000D01*
X125861904Y-136497619D01*
X125814285Y-136592857D01*
X125814285Y-136830952D01*
X125861904Y-136926190D01*
X125909523Y-136973809D01*
X126004761Y-137021428D01*
X126195238Y-137021428D01*
X126290476Y-136973809D01*
X126338095Y-136926190D01*
X126385714Y-136830952D01*
D11*
X138050095Y-122359619D02*
X138050095Y-121343619D01*
X138630666Y-122359619D02*
X138195238Y-121779047D01*
X138630666Y-121343619D02*
X138050095Y-121924190D01*
X139598285Y-122359619D02*
X139017714Y-122359619D01*
X139308000Y-122359619D02*
X139308000Y-121343619D01*
X139211238Y-121488761D01*
X139114476Y-121585523D01*
X139017714Y-121633904D01*
D12*
X132038095Y-143302380D02*
X132038095Y-144111904D01*
X132085714Y-144207142D01*
X132133333Y-144254761D01*
X132228571Y-144302380D01*
X132419047Y-144302380D01*
X132514285Y-144254761D01*
X132561904Y-144207142D01*
X132609523Y-144111904D01*
X132609523Y-143302380D01*
X132990476Y-143302380D02*
X133609523Y-143302380D01*
X133276190Y-143683333D01*
X133419047Y-143683333D01*
X133514285Y-143730952D01*
X133561904Y-143778571D01*
X133609523Y-143873809D01*
X133609523Y-144111904D01*
X133561904Y-144207142D01*
X133514285Y-144254761D01*
X133419047Y-144302380D01*
X133133333Y-144302380D01*
X133038095Y-144254761D01*
X132990476Y-144207142D01*
D11*
X169730000Y-146344714D02*
X169730000Y-145582714D01*
X169730000Y-145945571D02*
X170165428Y-145945571D01*
X170165428Y-146344714D02*
X170165428Y-145582714D01*
X170673428Y-145582714D02*
X170818571Y-145582714D01*
X170891142Y-145619000D01*
X170963714Y-145691571D01*
X171000000Y-145836714D01*
X171000000Y-146090714D01*
X170963714Y-146235857D01*
X170891142Y-146308428D01*
X170818571Y-146344714D01*
X170673428Y-146344714D01*
X170600857Y-146308428D01*
X170528285Y-146235857D01*
X170492000Y-146090714D01*
X170492000Y-145836714D01*
X170528285Y-145691571D01*
X170600857Y-145619000D01*
X170673428Y-145582714D01*
X171689428Y-146344714D02*
X171326571Y-146344714D01*
X171326571Y-145582714D01*
X171943428Y-145945571D02*
X172197428Y-145945571D01*
X172306285Y-146344714D02*
X171943428Y-146344714D01*
X171943428Y-145582714D01*
X172306285Y-145582714D01*
X169730000Y-104344714D02*
X169730000Y-103582714D01*
X169730000Y-103945571D02*
X170165428Y-103945571D01*
X170165428Y-104344714D02*
X170165428Y-103582714D01*
X170673428Y-103582714D02*
X170818571Y-103582714D01*
X170891142Y-103619000D01*
X170963714Y-103691571D01*
X171000000Y-103836714D01*
X171000000Y-104090714D01*
X170963714Y-104235857D01*
X170891142Y-104308428D01*
X170818571Y-104344714D01*
X170673428Y-104344714D01*
X170600857Y-104308428D01*
X170528285Y-104235857D01*
X170492000Y-104090714D01*
X170492000Y-103836714D01*
X170528285Y-103691571D01*
X170600857Y-103619000D01*
X170673428Y-103582714D01*
X171689428Y-104344714D02*
X171326571Y-104344714D01*
X171326571Y-103582714D01*
X171943428Y-103945571D02*
X172197428Y-103945571D01*
X172306285Y-104344714D02*
X171943428Y-104344714D01*
X171943428Y-103582714D01*
X172306285Y-103582714D01*
D12*
X116411904Y-132052380D02*
X116411904Y-131052380D01*
X116983333Y-132052380D02*
X116554761Y-131480952D01*
X116983333Y-131052380D02*
X116411904Y-131623809D01*
X117316666Y-131052380D02*
X117935714Y-131052380D01*
X117602380Y-131433333D01*
X117745238Y-131433333D01*
X117840476Y-131480952D01*
X117888095Y-131528571D01*
X117935714Y-131623809D01*
X117935714Y-131861904D01*
X117888095Y-131957142D01*
X117840476Y-132004761D01*
X117745238Y-132052380D01*
X117459523Y-132052380D01*
X117364285Y-132004761D01*
X117316666Y-131957142D01*
X116711904Y-103952380D02*
X116711904Y-102952380D01*
X117283333Y-103952380D02*
X116854761Y-103380952D01*
X117283333Y-102952380D02*
X116711904Y-103523809D01*
X117664285Y-103047619D02*
X117711904Y-103000000D01*
X117807142Y-102952380D01*
X118045238Y-102952380D01*
X118140476Y-103000000D01*
X118188095Y-103047619D01*
X118235714Y-103142857D01*
X118235714Y-103238095D01*
X118188095Y-103380952D01*
X117616666Y-103952380D01*
X118235714Y-103952380D01*
D13*
X170975142Y-127889428D02*
X170975142Y-126365428D01*
X171555714Y-126365428D01*
X171700857Y-126438000D01*
X171773428Y-126510571D01*
X171846000Y-126655714D01*
X171846000Y-126873428D01*
X171773428Y-127018571D01*
X171700857Y-127091142D01*
X171555714Y-127163714D01*
X170975142Y-127163714D01*
X172354000Y-126365428D02*
X173297428Y-126365428D01*
X172789428Y-126946000D01*
X173007142Y-126946000D01*
X173152285Y-127018571D01*
X173224857Y-127091142D01*
X173297428Y-127236285D01*
X173297428Y-127599142D01*
X173224857Y-127744285D01*
X173152285Y-127816857D01*
X173007142Y-127889428D01*
X172571714Y-127889428D01*
X172426571Y-127816857D01*
X172354000Y-127744285D01*
X180971142Y-126632857D02*
X180971142Y-126124857D01*
X181769428Y-125907142D02*
X181769428Y-126632857D01*
X180245428Y-126632857D01*
X180245428Y-125907142D01*
X180245428Y-125399142D02*
X181769428Y-124383142D01*
X180245428Y-124383142D02*
X181769428Y-125399142D01*
X180245428Y-124020285D02*
X180245428Y-123149428D01*
X181769428Y-123584857D02*
X180245428Y-123584857D01*
X112475142Y-120989428D02*
X112475142Y-119465428D01*
X113055714Y-119465428D01*
X113200857Y-119538000D01*
X113273428Y-119610571D01*
X113346000Y-119755714D01*
X113346000Y-119973428D01*
X113273428Y-120118571D01*
X113200857Y-120191142D01*
X113055714Y-120263714D01*
X112475142Y-120263714D01*
X113926571Y-119610571D02*
X113999142Y-119538000D01*
X114144285Y-119465428D01*
X114507142Y-119465428D01*
X114652285Y-119538000D01*
X114724857Y-119610571D01*
X114797428Y-119755714D01*
X114797428Y-119900857D01*
X114724857Y-120118571D01*
X113854000Y-120989428D01*
X114797428Y-120989428D01*
X105609428Y-128664857D02*
X104085428Y-128664857D01*
X104085428Y-128302000D01*
X104158000Y-128084285D01*
X104303142Y-127939142D01*
X104448285Y-127866571D01*
X104738571Y-127794000D01*
X104956285Y-127794000D01*
X105246571Y-127866571D01*
X105391714Y-127939142D01*
X105536857Y-128084285D01*
X105609428Y-128302000D01*
X105609428Y-128664857D01*
X105464285Y-126270000D02*
X105536857Y-126342571D01*
X105609428Y-126560285D01*
X105609428Y-126705428D01*
X105536857Y-126923142D01*
X105391714Y-127068285D01*
X105246571Y-127140857D01*
X104956285Y-127213428D01*
X104738571Y-127213428D01*
X104448285Y-127140857D01*
X104303142Y-127068285D01*
X104158000Y-126923142D01*
X104085428Y-126705428D01*
X104085428Y-126560285D01*
X104158000Y-126342571D01*
X104230571Y-126270000D01*
X105464285Y-124746000D02*
X105536857Y-124818571D01*
X105609428Y-125036285D01*
X105609428Y-125181428D01*
X105536857Y-125399142D01*
X105391714Y-125544285D01*
X105246571Y-125616857D01*
X104956285Y-125689428D01*
X104738571Y-125689428D01*
X104448285Y-125616857D01*
X104303142Y-125544285D01*
X104158000Y-125399142D01*
X104085428Y-125181428D01*
X104085428Y-125036285D01*
X104158000Y-124818571D01*
X104230571Y-124746000D01*
X105754571Y-124455714D02*
X105754571Y-123294571D01*
X105609428Y-122931714D02*
X104085428Y-122931714D01*
X105609428Y-122206000D02*
X104085428Y-122206000D01*
X105609428Y-121335142D01*
X104085428Y-121335142D01*
X170925142Y-115539428D02*
X170925142Y-114015428D01*
X171505714Y-114015428D01*
X171650857Y-114088000D01*
X171723428Y-114160571D01*
X171796000Y-114305714D01*
X171796000Y-114523428D01*
X171723428Y-114668571D01*
X171650857Y-114741142D01*
X171505714Y-114813714D01*
X170925142Y-114813714D01*
X173247428Y-115539428D02*
X172376571Y-115539428D01*
X172812000Y-115539428D02*
X172812000Y-114015428D01*
X172666857Y-114233142D01*
X172521714Y-114378285D01*
X172376571Y-114450857D01*
X181769428Y-115773714D02*
X180245428Y-115773714D01*
X180245428Y-115193142D01*
X180318000Y-115048000D01*
X180390571Y-114975428D01*
X180535714Y-114902857D01*
X180753428Y-114902857D01*
X180898571Y-114975428D01*
X180971142Y-115048000D01*
X181043714Y-115193142D01*
X181043714Y-115773714D01*
X180245428Y-114394857D02*
X181769428Y-114032000D01*
X180680857Y-113741714D01*
X181769428Y-113451428D01*
X180245428Y-113088571D01*
X181769428Y-111637142D02*
X181043714Y-112145142D01*
X181769428Y-112508000D02*
X180245428Y-112508000D01*
X180245428Y-111927428D01*
X180318000Y-111782285D01*
X180390571Y-111709714D01*
X180535714Y-111637142D01*
X180753428Y-111637142D01*
X180898571Y-111709714D01*
X180971142Y-111782285D01*
X181043714Y-111927428D01*
X181043714Y-112508000D01*
X181914571Y-111346857D02*
X181914571Y-110185714D01*
X181769428Y-109822857D02*
X180245428Y-109822857D01*
X181769428Y-109097142D02*
X180245428Y-109097142D01*
X181769428Y-108226285D01*
X180245428Y-108226285D01*
D12*
X140788095Y-107202380D02*
X140788095Y-108011904D01*
X140835714Y-108107142D01*
X140883333Y-108154761D01*
X140978571Y-108202380D01*
X141169047Y-108202380D01*
X141264285Y-108154761D01*
X141311904Y-108107142D01*
X141359523Y-108011904D01*
X141359523Y-107202380D01*
X142264285Y-107202380D02*
X142073809Y-107202380D01*
X141978571Y-107250000D01*
X141930952Y-107297619D01*
X141835714Y-107440476D01*
X141788095Y-107630952D01*
X141788095Y-108011904D01*
X141835714Y-108107142D01*
X141883333Y-108154761D01*
X141978571Y-108202380D01*
X142169047Y-108202380D01*
X142264285Y-108154761D01*
X142311904Y-108107142D01*
X142359523Y-108011904D01*
X142359523Y-107773809D01*
X142311904Y-107678571D01*
X142264285Y-107630952D01*
X142169047Y-107583333D01*
X141978571Y-107583333D01*
X141883333Y-107630952D01*
X141835714Y-107678571D01*
X141788095Y-107773809D01*
X162207142Y-130652380D02*
X161873809Y-130176190D01*
X161635714Y-130652380D02*
X161635714Y-129652380D01*
X162016666Y-129652380D01*
X162111904Y-129700000D01*
X162159523Y-129747619D01*
X162207142Y-129842857D01*
X162207142Y-129985714D01*
X162159523Y-130080952D01*
X162111904Y-130128571D01*
X162016666Y-130176190D01*
X161635714Y-130176190D01*
X163159523Y-130652380D02*
X162588095Y-130652380D01*
X162873809Y-130652380D02*
X162873809Y-129652380D01*
X162778571Y-129795238D01*
X162683333Y-129890476D01*
X162588095Y-129938095D01*
X164016666Y-129985714D02*
X164016666Y-130652380D01*
X163778571Y-129604761D02*
X163540476Y-130319047D01*
X164159523Y-130319047D01*
X162257142Y-132302380D02*
X161923809Y-131826190D01*
X161685714Y-132302380D02*
X161685714Y-131302380D01*
X162066666Y-131302380D01*
X162161904Y-131350000D01*
X162209523Y-131397619D01*
X162257142Y-131492857D01*
X162257142Y-131635714D01*
X162209523Y-131730952D01*
X162161904Y-131778571D01*
X162066666Y-131826190D01*
X161685714Y-131826190D01*
X163209523Y-132302380D02*
X162638095Y-132302380D01*
X162923809Y-132302380D02*
X162923809Y-131302380D01*
X162828571Y-131445238D01*
X162733333Y-131540476D01*
X162638095Y-131588095D01*
X163542857Y-131302380D02*
X164161904Y-131302380D01*
X163828571Y-131683333D01*
X163971428Y-131683333D01*
X164066666Y-131730952D01*
X164114285Y-131778571D01*
X164161904Y-131873809D01*
X164161904Y-132111904D01*
X164114285Y-132207142D01*
X164066666Y-132254761D01*
X163971428Y-132302380D01*
X163685714Y-132302380D01*
X163590476Y-132254761D01*
X163542857Y-132207142D01*
X162357142Y-125702380D02*
X162023809Y-125226190D01*
X161785714Y-125702380D02*
X161785714Y-124702380D01*
X162166666Y-124702380D01*
X162261904Y-124750000D01*
X162309523Y-124797619D01*
X162357142Y-124892857D01*
X162357142Y-125035714D01*
X162309523Y-125130952D01*
X162261904Y-125178571D01*
X162166666Y-125226190D01*
X161785714Y-125226190D01*
X163309523Y-125702380D02*
X162738095Y-125702380D01*
X163023809Y-125702380D02*
X163023809Y-124702380D01*
X162928571Y-124845238D01*
X162833333Y-124940476D01*
X162738095Y-124988095D01*
X163690476Y-124797619D02*
X163738095Y-124750000D01*
X163833333Y-124702380D01*
X164071428Y-124702380D01*
X164166666Y-124750000D01*
X164214285Y-124797619D01*
X164261904Y-124892857D01*
X164261904Y-124988095D01*
X164214285Y-125130952D01*
X163642857Y-125702380D01*
X164261904Y-125702380D01*
X162357142Y-123952380D02*
X162023809Y-123476190D01*
X161785714Y-123952380D02*
X161785714Y-122952380D01*
X162166666Y-122952380D01*
X162261904Y-123000000D01*
X162309523Y-123047619D01*
X162357142Y-123142857D01*
X162357142Y-123285714D01*
X162309523Y-123380952D01*
X162261904Y-123428571D01*
X162166666Y-123476190D01*
X161785714Y-123476190D01*
X163309523Y-123952380D02*
X162738095Y-123952380D01*
X163023809Y-123952380D02*
X163023809Y-122952380D01*
X162928571Y-123095238D01*
X162833333Y-123190476D01*
X162738095Y-123238095D01*
X164261904Y-123952380D02*
X163690476Y-123952380D01*
X163976190Y-123952380D02*
X163976190Y-122952380D01*
X163880952Y-123095238D01*
X163785714Y-123190476D01*
X163690476Y-123238095D01*
X116358333Y-124602380D02*
X116025000Y-124126190D01*
X115786904Y-124602380D02*
X115786904Y-123602380D01*
X116167857Y-123602380D01*
X116263095Y-123650000D01*
X116310714Y-123697619D01*
X116358333Y-123792857D01*
X116358333Y-123935714D01*
X116310714Y-124030952D01*
X116263095Y-124078571D01*
X116167857Y-124126190D01*
X115786904Y-124126190D01*
X117310714Y-124602380D02*
X116739285Y-124602380D01*
X117025000Y-124602380D02*
X117025000Y-123602380D01*
X116929761Y-123745238D01*
X116834523Y-123840476D01*
X116739285Y-123888095D01*
X170433333Y-137552380D02*
X169957142Y-137552380D01*
X169957142Y-136552380D01*
X170719047Y-136647619D02*
X170766666Y-136600000D01*
X170861904Y-136552380D01*
X171100000Y-136552380D01*
X171195238Y-136600000D01*
X171242857Y-136647619D01*
X171290476Y-136742857D01*
X171290476Y-136838095D01*
X171242857Y-136980952D01*
X170671428Y-137552380D01*
X171290476Y-137552380D01*
X170383333Y-142352380D02*
X169907142Y-142352380D01*
X169907142Y-141352380D01*
X171240476Y-142352380D02*
X170669047Y-142352380D01*
X170954761Y-142352380D02*
X170954761Y-141352380D01*
X170859523Y-141495238D01*
X170764285Y-141590476D01*
X170669047Y-141638095D01*
X115761904Y-130452380D02*
X115761904Y-129452380D01*
X116000000Y-129452380D01*
X116142857Y-129500000D01*
X116238095Y-129595238D01*
X116285714Y-129690476D01*
X116333333Y-129880952D01*
X116333333Y-130023809D01*
X116285714Y-130214285D01*
X116238095Y-130309523D01*
X116142857Y-130404761D01*
X116000000Y-130452380D01*
X115761904Y-130452380D01*
X117285714Y-130452380D02*
X116714285Y-130452380D01*
X117000000Y-130452380D02*
X117000000Y-129452380D01*
X116904761Y-129595238D01*
X116809523Y-129690476D01*
X116714285Y-129738095D01*
X171433333Y-134557142D02*
X171385714Y-134604761D01*
X171242857Y-134652380D01*
X171147619Y-134652380D01*
X171004761Y-134604761D01*
X170909523Y-134509523D01*
X170861904Y-134414285D01*
X170814285Y-134223809D01*
X170814285Y-134080952D01*
X170861904Y-133890476D01*
X170909523Y-133795238D01*
X171004761Y-133700000D01*
X171147619Y-133652380D01*
X171242857Y-133652380D01*
X171385714Y-133700000D01*
X171433333Y-133747619D01*
X171909523Y-134652380D02*
X172100000Y-134652380D01*
X172195238Y-134604761D01*
X172242857Y-134557142D01*
X172338095Y-134414285D01*
X172385714Y-134223809D01*
X172385714Y-133842857D01*
X172338095Y-133747619D01*
X172290476Y-133700000D01*
X172195238Y-133652380D01*
X172004761Y-133652380D01*
X171909523Y-133700000D01*
X171861904Y-133747619D01*
X171814285Y-133842857D01*
X171814285Y-134080952D01*
X171861904Y-134176190D01*
X171909523Y-134223809D01*
X172004761Y-134271428D01*
X172195238Y-134271428D01*
X172290476Y-134223809D01*
X172338095Y-134176190D01*
X172385714Y-134080952D01*
X141783333Y-118207142D02*
X141735714Y-118254761D01*
X141592857Y-118302380D01*
X141497619Y-118302380D01*
X141354761Y-118254761D01*
X141259523Y-118159523D01*
X141211904Y-118064285D01*
X141164285Y-117873809D01*
X141164285Y-117730952D01*
X141211904Y-117540476D01*
X141259523Y-117445238D01*
X141354761Y-117350000D01*
X141497619Y-117302380D01*
X141592857Y-117302380D01*
X141735714Y-117350000D01*
X141783333Y-117397619D01*
X142164285Y-117397619D02*
X142211904Y-117350000D01*
X142307142Y-117302380D01*
X142545238Y-117302380D01*
X142640476Y-117350000D01*
X142688095Y-117397619D01*
X142735714Y-117492857D01*
X142735714Y-117588095D01*
X142688095Y-117730952D01*
X142116666Y-118302380D01*
X142735714Y-118302380D01*
X158183333Y-119507142D02*
X158135714Y-119554761D01*
X157992857Y-119602380D01*
X157897619Y-119602380D01*
X157754761Y-119554761D01*
X157659523Y-119459523D01*
X157611904Y-119364285D01*
X157564285Y-119173809D01*
X157564285Y-119030952D01*
X157611904Y-118840476D01*
X157659523Y-118745238D01*
X157754761Y-118650000D01*
X157897619Y-118602380D01*
X157992857Y-118602380D01*
X158135714Y-118650000D01*
X158183333Y-118697619D01*
X159135714Y-119602380D02*
X158564285Y-119602380D01*
X158850000Y-119602380D02*
X158850000Y-118602380D01*
X158754761Y-118745238D01*
X158659523Y-118840476D01*
X158564285Y-118888095D01*
D14*
X126302000Y-146000000D02*
G75*
G03*
X126302000Y-146000000I-3302000J0D01*
G01*
X124702558Y-146000000D02*
G75*
G03*
X124702558Y-146000000I-1702558J0D01*
G01*
X124702558Y-104000000D02*
G75*
G03*
X124702558Y-104000000I-1702558J0D01*
G01*
X126302000Y-104000000D02*
G75*
G03*
X126302000Y-104000000I-3302000J0D01*
G01*
D15*
X130063748Y-115460000D02*
X130586252Y-115460000D01*
X130063748Y-114040000D02*
X130586252Y-114040000D01*
X123850000Y-115240000D02*
X120400000Y-115240000D01*
X123850000Y-115240000D02*
X125800000Y-115240000D01*
X123850000Y-120360000D02*
X121900000Y-120360000D01*
X123850000Y-120360000D02*
X125800000Y-120360000D01*
X122690000Y-110020000D02*
X124150000Y-110020000D01*
X122690000Y-113180000D02*
X125850000Y-113180000D01*
X122690000Y-113180000D02*
X122690000Y-112250000D01*
X122690000Y-110020000D02*
X122690000Y-110950000D01*
X130063748Y-118460000D02*
X130586252Y-118460000D01*
X130063748Y-117040000D02*
X130586252Y-117040000D01*
X130063748Y-112210000D02*
X130586252Y-112210000D01*
X130063748Y-110790000D02*
X130586252Y-110790000D01*
D13*
X174001020Y-143600700D02*
X185999980Y-143600700D01*
X185999980Y-132399300D02*
X185999980Y-143600700D01*
X174001020Y-132399300D02*
X185999980Y-132399300D01*
X174001020Y-143600700D02*
X174001020Y-132399300D01*
X180000500Y-143600700D02*
X180000500Y-132399300D01*
D15*
X136200000Y-130615000D02*
X132750000Y-130615000D01*
X136200000Y-130615000D02*
X138150000Y-130615000D01*
X136200000Y-139485000D02*
X134250000Y-139485000D01*
X136200000Y-139485000D02*
X138150000Y-139485000D01*
X164238748Y-120190000D02*
X164761252Y-120190000D01*
X164238748Y-121610000D02*
X164761252Y-121610000D01*
X128861252Y-129640000D02*
X128338748Y-129640000D01*
X128861252Y-131060000D02*
X128338748Y-131060000D01*
X129963748Y-122410000D02*
X130486252Y-122410000D01*
X129963748Y-120990000D02*
X130486252Y-120990000D01*
X150860000Y-130838748D02*
X150860000Y-131361252D01*
X149440000Y-130838748D02*
X149440000Y-131361252D01*
X130486252Y-123690000D02*
X129963748Y-123690000D01*
X130486252Y-125110000D02*
X129963748Y-125110000D01*
X164890000Y-145863748D02*
X164890000Y-146386252D01*
X166310000Y-145863748D02*
X166310000Y-146386252D01*
X128836252Y-134040000D02*
X128313748Y-134040000D01*
X128836252Y-135460000D02*
X128313748Y-135460000D01*
X124380000Y-135300000D02*
X124536000Y-135300000D01*
X122064000Y-135300000D02*
X122220000Y-135300000D01*
X124380000Y-134780961D02*
G75*
G03*
X124379837Y-132698870I-1080000J1040961D01*
G01*
X122220163Y-132698870D02*
G75*
G03*
X122220000Y-134780961I1079837J-1041130D01*
G01*
X124535516Y-135300000D02*
G75*
G03*
X124378608Y-132067665I-1235516J1560000D01*
G01*
X122221392Y-132067665D02*
G75*
G03*
X122064484Y-135300000I1078608J-1672335D01*
G01*
X142890000Y-131563748D02*
X142890000Y-132086252D01*
X144310000Y-131563748D02*
X144310000Y-132086252D01*
X128836252Y-131840000D02*
X128313748Y-131840000D01*
X128836252Y-133260000D02*
X128313748Y-133260000D01*
X128836252Y-138440000D02*
X128313748Y-138440000D01*
X128836252Y-139860000D02*
X128313748Y-139860000D01*
X160525000Y-142500000D02*
X150275000Y-142500000D01*
X160525000Y-133500000D02*
X160525000Y-142500000D01*
X149475000Y-133500000D02*
X160525000Y-133500000D01*
X149475000Y-141700000D02*
X149475000Y-133500000D01*
X150275000Y-142500000D02*
X149475000Y-141700000D01*
X124000000Y-122840000D02*
X120550000Y-122840000D01*
X124000000Y-122840000D02*
X125950000Y-122840000D01*
X124000000Y-127960000D02*
X122050000Y-127960000D01*
X124000000Y-127960000D02*
X125950000Y-127960000D01*
X159488748Y-127210000D02*
X160011252Y-127210000D01*
X159488748Y-125790000D02*
X160011252Y-125790000D01*
X128313748Y-137660000D02*
X128836252Y-137660000D01*
X128313748Y-136240000D02*
X128836252Y-136240000D01*
D14*
X140060000Y-122860000D02*
X140060000Y-127940000D01*
X132440000Y-127940000D02*
X132440000Y-122860000D01*
X140060000Y-127940000D02*
X132440000Y-127940000D01*
X132440000Y-122860000D02*
X140060000Y-122860000D01*
D15*
X137300000Y-143340000D02*
X134850000Y-143340000D01*
X135500000Y-146560000D02*
X137300000Y-146560000D01*
D14*
X172702558Y-146000000D02*
G75*
G03*
X172702558Y-146000000I-1702558J0D01*
G01*
X174302000Y-146000000D02*
G75*
G03*
X174302000Y-146000000I-3302000J0D01*
G01*
X174302000Y-104000000D02*
G75*
G03*
X174302000Y-104000000I-3302000J0D01*
G01*
X172702558Y-104000000D02*
G75*
G03*
X172702558Y-104000000I-1702558J0D01*
G01*
D16*
X118445000Y-132390000D02*
X99850000Y-132390000D01*
X118445000Y-145610000D02*
X118445000Y-132390000D01*
X99850000Y-145610000D02*
X118445000Y-145610000D01*
X99850000Y-132390000D02*
X99850000Y-145610000D01*
X118445000Y-104390000D02*
X99850000Y-104390000D01*
X118445000Y-117610000D02*
X118445000Y-104390000D01*
X99850000Y-117610000D02*
X118445000Y-117610000D01*
X99850000Y-104390000D02*
X99850000Y-117610000D01*
D13*
X174001020Y-130600700D02*
X185999980Y-130600700D01*
X185999980Y-119399300D02*
X185999980Y-130600700D01*
X174001020Y-119399300D02*
X185999980Y-119399300D01*
X174001020Y-130600700D02*
X174001020Y-119399300D01*
X180000500Y-130600700D02*
X180000500Y-119399300D01*
X111998980Y-119399300D02*
X100000020Y-119399300D01*
X100000020Y-130600700D02*
X100000020Y-119399300D01*
X111998980Y-130600700D02*
X100000020Y-130600700D01*
X111998980Y-119399300D02*
X111998980Y-130600700D01*
X105999500Y-119399300D02*
X105999500Y-130600700D01*
X174001020Y-117600700D02*
X185999980Y-117600700D01*
X185999980Y-106399300D02*
X185999980Y-117600700D01*
X174001020Y-106399300D02*
X185999980Y-106399300D01*
X174001020Y-117600700D02*
X174001020Y-106399300D01*
X180000500Y-117600700D02*
X180000500Y-106399300D01*
D15*
X134290000Y-114900000D02*
X134290000Y-108890000D01*
X141110000Y-112650000D02*
X141110000Y-108890000D01*
X134290000Y-108890000D02*
X135550000Y-108890000D01*
X141110000Y-108890000D02*
X139850000Y-108890000D01*
X166710000Y-131314564D02*
X166710000Y-130110436D01*
X164890000Y-131314564D02*
X164890000Y-130110436D01*
X169510000Y-131289564D02*
X169510000Y-130085436D01*
X167690000Y-131289564D02*
X167690000Y-130085436D01*
X169510000Y-125914564D02*
X169510000Y-124710436D01*
X167690000Y-125914564D02*
X167690000Y-124710436D01*
X166710000Y-125914564D02*
X166710000Y-124710436D01*
X164890000Y-125914564D02*
X164890000Y-124710436D01*
X116786252Y-121790000D02*
X116263748Y-121790000D01*
X116786252Y-123210000D02*
X116263748Y-123210000D01*
D13*
X164050000Y-137500000D02*
X168050000Y-137500000D01*
X164050000Y-133500000D02*
X168050000Y-133500000D01*
X163950000Y-142500000D02*
X167950000Y-142500000D01*
X163950000Y-138500000D02*
X167950000Y-138500000D01*
D15*
X115740000Y-125920000D02*
X117200000Y-125920000D01*
X115740000Y-129080000D02*
X118900000Y-129080000D01*
X115740000Y-129080000D02*
X115740000Y-128150000D01*
X115740000Y-125920000D02*
X115740000Y-126850000D01*
X172510000Y-131314564D02*
X172510000Y-130110436D01*
X170690000Y-131314564D02*
X170690000Y-130110436D01*
X134777500Y-118785000D02*
X138862500Y-118785000D01*
X134777500Y-116915000D02*
X134777500Y-118785000D01*
X138862500Y-116915000D02*
X134777500Y-116915000D01*
X146795000Y-120039491D02*
X148395000Y-120039491D01*
X147595000Y-120839491D02*
X147595000Y-119239491D01*
X151385000Y-104069000D02*
X152915000Y-104069000D01*
X151052000Y-104109000D02*
X153248000Y-104109000D01*
X150799000Y-104149000D02*
X153501000Y-104149000D01*
X150586000Y-104189000D02*
X153714000Y-104189000D01*
X150398000Y-104229000D02*
X153902000Y-104229000D01*
X150230000Y-104269000D02*
X154070000Y-104269000D01*
X150076000Y-104309000D02*
X154224000Y-104309000D01*
X149932000Y-104349000D02*
X154368000Y-104349000D01*
X149799000Y-104389000D02*
X154501000Y-104389000D01*
X149672000Y-104429000D02*
X154628000Y-104429000D01*
X149553000Y-104469000D02*
X154747000Y-104469000D01*
X149439000Y-104509000D02*
X154861000Y-104509000D01*
X149330000Y-104549000D02*
X154970000Y-104549000D01*
X149226000Y-104589000D02*
X155074000Y-104589000D01*
X149126000Y-104629000D02*
X155174000Y-104629000D01*
X149030000Y-104669000D02*
X155270000Y-104669000D01*
X148937000Y-104709000D02*
X155363000Y-104709000D01*
X148847000Y-104749000D02*
X155453000Y-104749000D01*
X148760000Y-104789000D02*
X155540000Y-104789000D01*
X148675000Y-104829000D02*
X155625000Y-104829000D01*
X148593000Y-104869000D02*
X155707000Y-104869000D01*
X148513000Y-104909000D02*
X155787000Y-104909000D01*
X148435000Y-104949000D02*
X155865000Y-104949000D01*
X148360000Y-104989000D02*
X155940000Y-104989000D01*
X148286000Y-105029000D02*
X156014000Y-105029000D01*
X148214000Y-105069000D02*
X156086000Y-105069000D01*
X148143000Y-105109000D02*
X156157000Y-105109000D01*
X148074000Y-105149000D02*
X156226000Y-105149000D01*
X148007000Y-105189000D02*
X156293000Y-105189000D01*
X147941000Y-105229000D02*
X156359000Y-105229000D01*
X147877000Y-105269000D02*
X156423000Y-105269000D01*
X147814000Y-105309000D02*
X156486000Y-105309000D01*
X147752000Y-105349000D02*
X156548000Y-105349000D01*
X147691000Y-105389000D02*
X156609000Y-105389000D01*
X147631000Y-105429000D02*
X156669000Y-105429000D01*
X147573000Y-105469000D02*
X156727000Y-105469000D01*
X147516000Y-105509000D02*
X156784000Y-105509000D01*
X147459000Y-105549000D02*
X156841000Y-105549000D01*
X147404000Y-105589000D02*
X156896000Y-105589000D01*
X147350000Y-105629000D02*
X156950000Y-105629000D01*
X147296000Y-105669000D02*
X157004000Y-105669000D01*
X147244000Y-105709000D02*
X157056000Y-105709000D01*
X147192000Y-105749000D02*
X157108000Y-105749000D01*
X147141000Y-105789000D02*
X157159000Y-105789000D01*
X147091000Y-105829000D02*
X157209000Y-105829000D01*
X147042000Y-105869000D02*
X157258000Y-105869000D01*
X146994000Y-105909000D02*
X157306000Y-105909000D01*
X146946000Y-105949000D02*
X157354000Y-105949000D01*
X146899000Y-105989000D02*
X157401000Y-105989000D01*
X146853000Y-106029000D02*
X157447000Y-106029000D01*
X146807000Y-106069000D02*
X157493000Y-106069000D01*
X146762000Y-106109000D02*
X157538000Y-106109000D01*
X146718000Y-106149000D02*
X157582000Y-106149000D01*
X146675000Y-106189000D02*
X157625000Y-106189000D01*
X146632000Y-106229000D02*
X157668000Y-106229000D01*
X146590000Y-106269000D02*
X157710000Y-106269000D01*
X146548000Y-106309000D02*
X157752000Y-106309000D01*
X146507000Y-106349000D02*
X157793000Y-106349000D01*
X146466000Y-106389000D02*
X157834000Y-106389000D01*
X146426000Y-106429000D02*
X157874000Y-106429000D01*
X146387000Y-106469000D02*
X157913000Y-106469000D01*
X146348000Y-106509000D02*
X157952000Y-106509000D01*
X146310000Y-106549000D02*
X157990000Y-106549000D01*
X146272000Y-106589000D02*
X158028000Y-106589000D01*
X146234000Y-106629000D02*
X158066000Y-106629000D01*
X146198000Y-106669000D02*
X158102000Y-106669000D01*
X146161000Y-106709000D02*
X158139000Y-106709000D01*
X146125000Y-106749000D02*
X158175000Y-106749000D01*
X146090000Y-106789000D02*
X158210000Y-106789000D01*
X146055000Y-106829000D02*
X158245000Y-106829000D01*
X146021000Y-106869000D02*
X158279000Y-106869000D01*
X145987000Y-106909000D02*
X158313000Y-106909000D01*
X145953000Y-106949000D02*
X158347000Y-106949000D01*
X153590000Y-106989000D02*
X158380000Y-106989000D01*
X145920000Y-106989000D02*
X150710000Y-106989000D01*
X153590000Y-107029000D02*
X158413000Y-107029000D01*
X145887000Y-107029000D02*
X150710000Y-107029000D01*
X153590000Y-107069000D02*
X158445000Y-107069000D01*
X145855000Y-107069000D02*
X150710000Y-107069000D01*
X153590000Y-107109000D02*
X158477000Y-107109000D01*
X145823000Y-107109000D02*
X150710000Y-107109000D01*
X153590000Y-107149000D02*
X158508000Y-107149000D01*
X145792000Y-107149000D02*
X150710000Y-107149000D01*
X153590000Y-107189000D02*
X158540000Y-107189000D01*
X145760000Y-107189000D02*
X150710000Y-107189000D01*
X153590000Y-107229000D02*
X158570000Y-107229000D01*
X145730000Y-107229000D02*
X150710000Y-107229000D01*
X153590000Y-107269000D02*
X158600000Y-107269000D01*
X145700000Y-107269000D02*
X150710000Y-107269000D01*
X153590000Y-107309000D02*
X158630000Y-107309000D01*
X145670000Y-107309000D02*
X150710000Y-107309000D01*
X153590000Y-107349000D02*
X158660000Y-107349000D01*
X145640000Y-107349000D02*
X150710000Y-107349000D01*
X153590000Y-107389000D02*
X158689000Y-107389000D01*
X145611000Y-107389000D02*
X150710000Y-107389000D01*
X153590000Y-107429000D02*
X158718000Y-107429000D01*
X145582000Y-107429000D02*
X150710000Y-107429000D01*
X153590000Y-107469000D02*
X158746000Y-107469000D01*
X145554000Y-107469000D02*
X150710000Y-107469000D01*
X153590000Y-107509000D02*
X158774000Y-107509000D01*
X145526000Y-107509000D02*
X150710000Y-107509000D01*
X153590000Y-107549000D02*
X158802000Y-107549000D01*
X145498000Y-107549000D02*
X150710000Y-107549000D01*
X153590000Y-107589000D02*
X158829000Y-107589000D01*
X145471000Y-107589000D02*
X150710000Y-107589000D01*
X153590000Y-107629000D02*
X158856000Y-107629000D01*
X145444000Y-107629000D02*
X150710000Y-107629000D01*
X153590000Y-107669000D02*
X158883000Y-107669000D01*
X145417000Y-107669000D02*
X150710000Y-107669000D01*
X153590000Y-107709000D02*
X158909000Y-107709000D01*
X145391000Y-107709000D02*
X150710000Y-107709000D01*
X153590000Y-107749000D02*
X158935000Y-107749000D01*
X145365000Y-107749000D02*
X150710000Y-107749000D01*
X153590000Y-107789000D02*
X158961000Y-107789000D01*
X145339000Y-107789000D02*
X150710000Y-107789000D01*
X153590000Y-107829000D02*
X158986000Y-107829000D01*
X145314000Y-107829000D02*
X150710000Y-107829000D01*
X153590000Y-107869000D02*
X159011000Y-107869000D01*
X145289000Y-107869000D02*
X150710000Y-107869000D01*
X153590000Y-107909000D02*
X159036000Y-107909000D01*
X145264000Y-107909000D02*
X150710000Y-107909000D01*
X153590000Y-107949000D02*
X159060000Y-107949000D01*
X145240000Y-107949000D02*
X150710000Y-107949000D01*
X153590000Y-107989000D02*
X159084000Y-107989000D01*
X145216000Y-107989000D02*
X150710000Y-107989000D01*
X153590000Y-108029000D02*
X159108000Y-108029000D01*
X145192000Y-108029000D02*
X150710000Y-108029000D01*
X153590000Y-108069000D02*
X159131000Y-108069000D01*
X145169000Y-108069000D02*
X150710000Y-108069000D01*
X153590000Y-108109000D02*
X159154000Y-108109000D01*
X145146000Y-108109000D02*
X150710000Y-108109000D01*
X153590000Y-108149000D02*
X159177000Y-108149000D01*
X145123000Y-108149000D02*
X150710000Y-108149000D01*
X153590000Y-108189000D02*
X159199000Y-108189000D01*
X145101000Y-108189000D02*
X150710000Y-108189000D01*
X153590000Y-108229000D02*
X159222000Y-108229000D01*
X145078000Y-108229000D02*
X150710000Y-108229000D01*
X153590000Y-108269000D02*
X159244000Y-108269000D01*
X145056000Y-108269000D02*
X150710000Y-108269000D01*
X153590000Y-108309000D02*
X159265000Y-108309000D01*
X145035000Y-108309000D02*
X150710000Y-108309000D01*
X153590000Y-108349000D02*
X159286000Y-108349000D01*
X145014000Y-108349000D02*
X150710000Y-108349000D01*
X153590000Y-108389000D02*
X159307000Y-108389000D01*
X144993000Y-108389000D02*
X150710000Y-108389000D01*
X153590000Y-108429000D02*
X159328000Y-108429000D01*
X144972000Y-108429000D02*
X150710000Y-108429000D01*
X153590000Y-108469000D02*
X159349000Y-108469000D01*
X144951000Y-108469000D02*
X150710000Y-108469000D01*
X153590000Y-108509000D02*
X159369000Y-108509000D01*
X144931000Y-108509000D02*
X150710000Y-108509000D01*
X153590000Y-108549000D02*
X159389000Y-108549000D01*
X144911000Y-108549000D02*
X150710000Y-108549000D01*
X153590000Y-108589000D02*
X159408000Y-108589000D01*
X144892000Y-108589000D02*
X150710000Y-108589000D01*
X153590000Y-108629000D02*
X159428000Y-108629000D01*
X144872000Y-108629000D02*
X150710000Y-108629000D01*
X153590000Y-108669000D02*
X159447000Y-108669000D01*
X144853000Y-108669000D02*
X150710000Y-108669000D01*
X153590000Y-108709000D02*
X159466000Y-108709000D01*
X144834000Y-108709000D02*
X150710000Y-108709000D01*
X153590000Y-108749000D02*
X159484000Y-108749000D01*
X144816000Y-108749000D02*
X150710000Y-108749000D01*
X153590000Y-108789000D02*
X159503000Y-108789000D01*
X144797000Y-108789000D02*
X150710000Y-108789000D01*
X153590000Y-108829000D02*
X159521000Y-108829000D01*
X144779000Y-108829000D02*
X150710000Y-108829000D01*
X153590000Y-108869000D02*
X159539000Y-108869000D01*
X144761000Y-108869000D02*
X150710000Y-108869000D01*
X153590000Y-108909000D02*
X159556000Y-108909000D01*
X144744000Y-108909000D02*
X150710000Y-108909000D01*
X153590000Y-108949000D02*
X159573000Y-108949000D01*
X144727000Y-108949000D02*
X150710000Y-108949000D01*
X153590000Y-108989000D02*
X159590000Y-108989000D01*
X144710000Y-108989000D02*
X150710000Y-108989000D01*
X153590000Y-109029000D02*
X159607000Y-109029000D01*
X144693000Y-109029000D02*
X150710000Y-109029000D01*
X153590000Y-109069000D02*
X159624000Y-109069000D01*
X144676000Y-109069000D02*
X150710000Y-109069000D01*
X153590000Y-109109000D02*
X159640000Y-109109000D01*
X144660000Y-109109000D02*
X150710000Y-109109000D01*
X153590000Y-109149000D02*
X159656000Y-109149000D01*
X144644000Y-109149000D02*
X150710000Y-109149000D01*
X153590000Y-109189000D02*
X159672000Y-109189000D01*
X144628000Y-109189000D02*
X150710000Y-109189000D01*
X153590000Y-109229000D02*
X159687000Y-109229000D01*
X144613000Y-109229000D02*
X150710000Y-109229000D01*
X153590000Y-109269000D02*
X159703000Y-109269000D01*
X144597000Y-109269000D02*
X150710000Y-109269000D01*
X153590000Y-109309000D02*
X159718000Y-109309000D01*
X144582000Y-109309000D02*
X150710000Y-109309000D01*
X153590000Y-109349000D02*
X159732000Y-109349000D01*
X144568000Y-109349000D02*
X150710000Y-109349000D01*
X153590000Y-109389000D02*
X159747000Y-109389000D01*
X144553000Y-109389000D02*
X150710000Y-109389000D01*
X153590000Y-109429000D02*
X159761000Y-109429000D01*
X144539000Y-109429000D02*
X150710000Y-109429000D01*
X153590000Y-109469000D02*
X159775000Y-109469000D01*
X144525000Y-109469000D02*
X150710000Y-109469000D01*
X153590000Y-109509000D02*
X159789000Y-109509000D01*
X144511000Y-109509000D02*
X150710000Y-109509000D01*
X153590000Y-109549000D02*
X159803000Y-109549000D01*
X144497000Y-109549000D02*
X150710000Y-109549000D01*
X153590000Y-109589000D02*
X159816000Y-109589000D01*
X144484000Y-109589000D02*
X150710000Y-109589000D01*
X153590000Y-109629000D02*
X159830000Y-109629000D01*
X144470000Y-109629000D02*
X150710000Y-109629000D01*
X153590000Y-109669000D02*
X159843000Y-109669000D01*
X144457000Y-109669000D02*
X150710000Y-109669000D01*
X153590000Y-109709000D02*
X159855000Y-109709000D01*
X144445000Y-109709000D02*
X150710000Y-109709000D01*
X153590000Y-109749000D02*
X159868000Y-109749000D01*
X144432000Y-109749000D02*
X150710000Y-109749000D01*
X153590000Y-109789000D02*
X159880000Y-109789000D01*
X144420000Y-109789000D02*
X150710000Y-109789000D01*
X153590000Y-109829000D02*
X159892000Y-109829000D01*
X144408000Y-109829000D02*
X150710000Y-109829000D01*
X144396000Y-109869000D02*
X159904000Y-109869000D01*
X144385000Y-109909000D02*
X159915000Y-109909000D01*
X144373000Y-109949000D02*
X159927000Y-109949000D01*
X144362000Y-109989000D02*
X159938000Y-109989000D01*
X144351000Y-110029000D02*
X159949000Y-110029000D01*
X144340000Y-110069000D02*
X159960000Y-110069000D01*
X144330000Y-110109000D02*
X159970000Y-110109000D01*
X144320000Y-110149000D02*
X159980000Y-110149000D01*
X144310000Y-110189000D02*
X159990000Y-110189000D01*
X144300000Y-110229000D02*
X160000000Y-110229000D01*
X144290000Y-110269000D02*
X160010000Y-110269000D01*
X144281000Y-110309000D02*
X160019000Y-110309000D01*
X144272000Y-110349000D02*
X160028000Y-110349000D01*
X144263000Y-110389000D02*
X160037000Y-110389000D01*
X144254000Y-110429000D02*
X160046000Y-110429000D01*
X144245000Y-110469000D02*
X160055000Y-110469000D01*
X144237000Y-110509000D02*
X160063000Y-110509000D01*
X144229000Y-110549000D02*
X160071000Y-110549000D01*
X144221000Y-110589000D02*
X160079000Y-110589000D01*
X144213000Y-110629000D02*
X160087000Y-110629000D01*
X144206000Y-110669000D02*
X160094000Y-110669000D01*
X144198000Y-110709000D02*
X160102000Y-110709000D01*
X144191000Y-110749000D02*
X160109000Y-110749000D01*
X144184000Y-110789000D02*
X160116000Y-110789000D01*
X144178000Y-110829000D02*
X160122000Y-110829000D01*
X144171000Y-110869000D02*
X160129000Y-110869000D01*
X144165000Y-110909000D02*
X160135000Y-110909000D01*
X144159000Y-110949000D02*
X160141000Y-110949000D01*
X144153000Y-110989000D02*
X160147000Y-110989000D01*
X144147000Y-111029000D02*
X160153000Y-111029000D01*
X144142000Y-111069000D02*
X160158000Y-111069000D01*
X144136000Y-111109000D02*
X160164000Y-111109000D01*
X144131000Y-111149000D02*
X160169000Y-111149000D01*
X144126000Y-111189000D02*
X160174000Y-111189000D01*
X144122000Y-111229000D02*
X160178000Y-111229000D01*
X144117000Y-111269000D02*
X160183000Y-111269000D01*
X144113000Y-111309000D02*
X160187000Y-111309000D01*
X144109000Y-111349000D02*
X160191000Y-111349000D01*
X144105000Y-111389000D02*
X160195000Y-111389000D01*
X144101000Y-111429000D02*
X160199000Y-111429000D01*
X144098000Y-111470000D02*
X160202000Y-111470000D01*
X144095000Y-111510000D02*
X160205000Y-111510000D01*
X144092000Y-111550000D02*
X160208000Y-111550000D01*
X144089000Y-111590000D02*
X160211000Y-111590000D01*
X144086000Y-111630000D02*
X160214000Y-111630000D01*
X144084000Y-111670000D02*
X160216000Y-111670000D01*
X144081000Y-111710000D02*
X160219000Y-111710000D01*
X144079000Y-111750000D02*
X160221000Y-111750000D01*
X144077000Y-111790000D02*
X160223000Y-111790000D01*
X144076000Y-111830000D02*
X160224000Y-111830000D01*
X144074000Y-111870000D02*
X160226000Y-111870000D01*
X144073000Y-111910000D02*
X160227000Y-111910000D01*
X144072000Y-111950000D02*
X160228000Y-111950000D01*
X144071000Y-111990000D02*
X160229000Y-111990000D01*
X144070000Y-112030000D02*
X160230000Y-112030000D01*
X144070000Y-112070000D02*
X160230000Y-112070000D01*
X144070000Y-112110000D02*
X160230000Y-112110000D01*
X144069000Y-112150000D02*
X160231000Y-112150000D01*
X160270000Y-112150000D02*
G75*
G03*
X160270000Y-112150000I-8120000J0D01*
G01*
D17*
X123000000Y-146000000D03*
X123000000Y-104000000D03*
D18*
X176000000Y-135500640D03*
D19*
X176000000Y-140499360D03*
D20*
X133710000Y-126670000D03*
X133710000Y-124130000D03*
X136250000Y-126670000D03*
X136250000Y-124130000D03*
X138790000Y-126670000D03*
D21*
X138790000Y-124130000D03*
D17*
X171000000Y-146000000D03*
X171000000Y-104000000D03*
D22*
X107650000Y-144080000D03*
X107650000Y-133920000D03*
D20*
X114000000Y-142175000D03*
X116540000Y-140905000D03*
X114000000Y-139635000D03*
X116540000Y-138365000D03*
X114000000Y-137095000D03*
X116540000Y-135825000D03*
D22*
X107650000Y-116080000D03*
X107650000Y-105920000D03*
D20*
X114000000Y-114175000D03*
X116540000Y-112905000D03*
X114000000Y-111635000D03*
X116540000Y-110365000D03*
X114000000Y-109095000D03*
X116540000Y-107825000D03*
D18*
X176000000Y-122500640D03*
D19*
X176000000Y-127499360D03*
D18*
X110000000Y-127499360D03*
D19*
X110000000Y-122500640D03*
D18*
X176000000Y-109500640D03*
D19*
X176000000Y-114499360D03*
%LPC*%
D17*
X123000000Y-146000000D03*
X123000000Y-104000000D03*
D23*
X131350000Y-114750000D03*
X129300000Y-114750000D03*
D24*
X126425000Y-115895000D03*
X126425000Y-117165000D03*
X126425000Y-118435000D03*
X126425000Y-119705000D03*
X121275000Y-119705000D03*
X121275000Y-118435000D03*
X121275000Y-117165000D03*
X121275000Y-115895000D03*
D25*
X121950000Y-111600000D03*
X124950000Y-110650000D03*
X124950000Y-112550000D03*
D23*
X131350000Y-117750000D03*
X129300000Y-117750000D03*
X131350000Y-111500000D03*
X129300000Y-111500000D03*
D18*
X176000000Y-135500640D03*
D19*
X176000000Y-140499360D03*
D26*
X138675000Y-131240000D03*
X138675000Y-132510000D03*
X138675000Y-133780000D03*
X138675000Y-135050000D03*
X138675000Y-136320000D03*
X138675000Y-137590000D03*
X138675000Y-138860000D03*
X133725000Y-138860000D03*
X133725000Y-137590000D03*
X133725000Y-136320000D03*
X133725000Y-135050000D03*
X133725000Y-133780000D03*
X133725000Y-132510000D03*
X133725000Y-131240000D03*
D23*
X163475000Y-120900000D03*
X165525000Y-120900000D03*
D27*
X127575000Y-130350000D03*
X129625000Y-130350000D03*
D23*
X131250000Y-121700000D03*
X129200000Y-121700000D03*
D28*
X150150000Y-130075000D03*
X150150000Y-132125000D03*
D27*
X129200000Y-124400000D03*
X131250000Y-124400000D03*
D28*
X165600000Y-147150000D03*
X165600000Y-145100000D03*
D27*
X127550000Y-134750000D03*
X129600000Y-134750000D03*
D29*
X123300000Y-131200000D03*
X123300000Y-133740000D03*
D30*
X123300000Y-136280000D03*
D28*
X143600000Y-132850000D03*
X143600000Y-130800000D03*
D27*
X127550000Y-132550000D03*
X129600000Y-132550000D03*
X127550000Y-139150000D03*
X129600000Y-139150000D03*
D31*
X155000000Y-138000000D03*
D32*
X157800000Y-144500000D03*
X157800000Y-131500000D03*
X157000000Y-144500000D03*
X157000000Y-131500000D03*
X156200000Y-144500000D03*
X156200000Y-131500000D03*
X155400000Y-144500000D03*
X155400000Y-131500000D03*
X154600000Y-144500000D03*
X154600000Y-131500000D03*
X153800000Y-144500000D03*
X153800000Y-131500000D03*
X153000000Y-144500000D03*
X153000000Y-131500000D03*
X152200000Y-144500000D03*
X152200000Y-131500000D03*
D24*
X126575000Y-123495000D03*
X126575000Y-124765000D03*
X126575000Y-126035000D03*
X126575000Y-127305000D03*
X121425000Y-127305000D03*
X121425000Y-126035000D03*
X121425000Y-124765000D03*
X121425000Y-123495000D03*
D23*
X160775000Y-126500000D03*
X158725000Y-126500000D03*
X129600000Y-136950000D03*
X127550000Y-136950000D03*
D20*
X133710000Y-126670000D03*
X133710000Y-124130000D03*
X136250000Y-126670000D03*
X136250000Y-124130000D03*
X138790000Y-126670000D03*
D21*
X138790000Y-124130000D03*
D33*
X137750000Y-144000000D03*
X137750000Y-145900000D03*
X135050000Y-145900000D03*
X135050000Y-144950000D03*
X135050000Y-144000000D03*
D17*
X171000000Y-146000000D03*
X171000000Y-104000000D03*
D22*
X107650000Y-144080000D03*
X107650000Y-133920000D03*
D20*
X114000000Y-142175000D03*
X116540000Y-140905000D03*
X114000000Y-139635000D03*
X116540000Y-138365000D03*
X114000000Y-137095000D03*
X116540000Y-135825000D03*
D22*
X107650000Y-116080000D03*
X107650000Y-105920000D03*
D20*
X114000000Y-114175000D03*
X116540000Y-112905000D03*
X114000000Y-111635000D03*
X116540000Y-110365000D03*
X114000000Y-109095000D03*
X116540000Y-107825000D03*
D18*
X176000000Y-122500640D03*
D19*
X176000000Y-127499360D03*
D18*
X110000000Y-127499360D03*
D19*
X110000000Y-122500640D03*
D18*
X176000000Y-109500640D03*
D19*
X176000000Y-114499360D03*
D34*
X135400000Y-113950000D03*
X140000000Y-113950000D03*
X137700000Y-113950000D03*
D35*
X137700000Y-107650000D03*
D36*
X165800000Y-129225000D03*
X165800000Y-132200000D03*
X168600000Y-129200000D03*
X168600000Y-132175000D03*
X168600000Y-123825000D03*
X168600000Y-126800000D03*
X165800000Y-123825000D03*
X165800000Y-126800000D03*
D27*
X115500000Y-122500000D03*
X117550000Y-122500000D03*
D37*
X168100000Y-135500000D03*
X164000000Y-135500000D03*
X168000000Y-140500000D03*
X163900000Y-140500000D03*
D25*
X115000000Y-127500000D03*
X118000000Y-126550000D03*
X118000000Y-128450000D03*
D36*
X171600000Y-129225000D03*
X171600000Y-132200000D03*
D38*
X138700000Y-117850000D03*
X135825000Y-117850000D03*
D39*
X152150000Y-108400000D03*
D40*
X152150000Y-115900000D03*
M02*
