G04 #@! TF.GenerationSoftware,KiCad,Pcbnew,(6.0.7)*
G04 #@! TF.CreationDate,2023-05-29T10:21:20+02:00*
G04 #@! TF.ProjectId,booster,626f6f73-7465-4722-9e6b-696361645f70,rev?*
G04 #@! TF.SameCoordinates,Original*
G04 #@! TF.FileFunction,Copper,L2,Bot*
G04 #@! TF.FilePolarity,Positive*
%FSLAX46Y46*%
G04 Gerber Fmt 4.6, Leading zero omitted, Abs format (unit mm)*
G04 Created by KiCad (PCBNEW (6.0.7)) date 2023-05-29 10:21:20*
%MOMM*%
%LPD*%
G01*
G04 APERTURE LIST*
G04 #@! TA.AperFunction,ComponentPad*
%ADD10C,6.400800*%
G04 #@! TD*
G04 #@! TA.AperFunction,ComponentPad*
%ADD11C,3.048000*%
G04 #@! TD*
G04 #@! TA.AperFunction,ComponentPad*
%ADD12R,3.048000X3.048000*%
G04 #@! TD*
G04 #@! TA.AperFunction,ComponentPad*
%ADD13C,1.800000*%
G04 #@! TD*
G04 #@! TA.AperFunction,ComponentPad*
%ADD14R,1.800000X1.800000*%
G04 #@! TD*
G04 #@! TA.AperFunction,ComponentPad*
%ADD15C,1.524000*%
G04 #@! TD*
G04 #@! TA.AperFunction,ComponentPad*
%ADD16R,1.524000X1.524000*%
G04 #@! TD*
G04 #@! TA.AperFunction,ComponentPad*
%ADD17C,3.169920*%
G04 #@! TD*
G04 #@! TA.AperFunction,ComponentPad*
%ADD18C,2.400000*%
G04 #@! TD*
G04 #@! TA.AperFunction,ComponentPad*
%ADD19R,2.400000X2.400000*%
G04 #@! TD*
G04 #@! TA.AperFunction,ViaPad*
%ADD20C,0.800000*%
G04 #@! TD*
G04 #@! TA.AperFunction,Conductor*
%ADD21C,0.304800*%
G04 #@! TD*
G04 APERTURE END LIST*
D10*
X123000000Y-146000000D03*
X123000000Y-104000000D03*
D11*
X176000000Y-135500640D03*
D12*
X176000000Y-140499360D03*
D13*
X123300000Y-131200000D03*
X123300000Y-133740000D03*
D14*
X123300000Y-136280000D03*
D15*
X133710000Y-126670000D03*
X133710000Y-124130000D03*
X136250000Y-126670000D03*
X136250000Y-124130000D03*
X138790000Y-126670000D03*
D16*
X138790000Y-124130000D03*
D10*
X171000000Y-146000000D03*
X171000000Y-104000000D03*
D17*
X107650000Y-144080000D03*
X107650000Y-133920000D03*
D15*
X114000000Y-142175000D03*
X116540000Y-140905000D03*
X114000000Y-139635000D03*
X116540000Y-138365000D03*
X114000000Y-137095000D03*
X116540000Y-135825000D03*
D17*
X107650000Y-116080000D03*
X107650000Y-105920000D03*
D15*
X114000000Y-114175000D03*
X116540000Y-112905000D03*
X114000000Y-111635000D03*
X116540000Y-110365000D03*
X114000000Y-109095000D03*
X116540000Y-107825000D03*
D11*
X176000000Y-122500640D03*
D12*
X176000000Y-127499360D03*
D11*
X110000000Y-127499360D03*
D12*
X110000000Y-122500640D03*
D11*
X176000000Y-109500640D03*
D12*
X176000000Y-114499360D03*
D18*
X152150000Y-108400000D03*
D19*
X152150000Y-115900000D03*
D20*
X167150000Y-120900000D03*
X162550000Y-126500000D03*
X159150000Y-145750000D03*
X159150000Y-144700000D03*
X131700000Y-134200000D03*
X160600000Y-146350000D03*
X130850000Y-132550000D03*
X138675000Y-129850000D03*
X129650000Y-145900000D03*
X128450000Y-127300000D03*
X125900000Y-130350000D03*
X133550000Y-145900000D03*
X137700000Y-105400000D03*
X128500000Y-119700000D03*
X132900000Y-121700000D03*
X133100000Y-114750000D03*
X140650000Y-117850000D03*
X137700000Y-116000000D03*
X150542965Y-144192965D03*
X151000026Y-138000000D03*
X151000000Y-141000000D03*
X155000000Y-141000000D03*
X155000000Y-135000000D03*
X159000000Y-138000000D03*
X159000000Y-141000000D03*
X159000000Y-135000000D03*
X151000006Y-135000000D03*
X159182035Y-143582035D03*
X155000000Y-138000000D03*
X165600000Y-143800000D03*
X148625000Y-133925000D03*
X141350000Y-133925000D03*
X146150000Y-140050000D03*
X143300000Y-142925000D03*
X131300000Y-127000000D03*
X160475000Y-132375000D03*
X140900000Y-122700000D03*
X140950000Y-127750000D03*
X156450000Y-128375000D03*
X151250000Y-128350000D03*
X147700000Y-135050000D03*
X142325000Y-135050000D03*
X133750000Y-140950000D03*
X138500000Y-140950000D03*
X155244535Y-147447590D03*
X147392965Y-147342965D03*
D21*
X161950000Y-146300000D02*
X161950000Y-133850000D01*
X161950000Y-133850000D02*
X160475000Y-132375000D01*
X159350000Y-148900000D02*
X161950000Y-146300000D01*
X134000000Y-148900000D02*
X159350000Y-148900000D01*
X130850000Y-145750000D02*
X134000000Y-148900000D01*
X130850000Y-132550000D02*
X130850000Y-145750000D01*
X131700000Y-145600000D02*
X131700000Y-134200000D01*
X134299990Y-148199990D02*
X131700000Y-145600000D01*
X158750010Y-148199990D02*
X134299990Y-148199990D01*
X160600000Y-146350000D02*
X158750010Y-148199990D01*
X166165685Y-143800000D02*
X172350000Y-137615685D01*
X165600000Y-143800000D02*
X166165685Y-143800000D01*
X172350000Y-116320560D02*
X174171200Y-114499360D01*
X174171200Y-114499360D02*
X176000000Y-114499360D01*
X172350000Y-137615685D02*
X172350000Y-116320560D01*
X148625000Y-133925000D02*
X141350000Y-133925000D01*
X146150000Y-140050000D02*
X143300000Y-142900000D01*
X143300000Y-142900000D02*
X143300000Y-142925000D01*
X137390024Y-125270024D02*
X133029976Y-125270024D01*
X138790000Y-126670000D02*
X137390024Y-125270024D01*
X131699999Y-126600001D02*
X131300000Y-127000000D01*
X133029976Y-125270024D02*
X131699999Y-126600001D01*
X110000000Y-138175000D02*
X110000000Y-127499360D01*
X114000000Y-142175000D02*
X110000000Y-138175000D01*
X140900000Y-122700000D02*
X140900000Y-127700000D01*
X140900000Y-127700000D02*
X140950000Y-127750000D01*
X156450000Y-128375000D02*
X151275000Y-128375000D01*
X151275000Y-128375000D02*
X151250000Y-128350000D01*
X147700000Y-135050000D02*
X142325000Y-135050000D01*
X133750000Y-140950000D02*
X138500000Y-140950000D01*
X155172590Y-147447590D02*
X155244535Y-147447590D01*
X155075000Y-147350000D02*
X155172590Y-147447590D01*
X147400000Y-147350000D02*
X155075000Y-147350000D01*
X147400000Y-147350000D02*
X147392965Y-147342965D01*
X116540000Y-112905000D02*
X116095000Y-112905000D01*
X115778001Y-113666999D02*
X116540000Y-112905000D01*
X115425599Y-114019401D02*
X115778001Y-113666999D01*
X115425599Y-139790599D02*
X115425599Y-114019401D01*
X116540000Y-140905000D02*
X115425599Y-139790599D01*
X116540000Y-138365000D02*
X118500000Y-136405000D01*
X118500000Y-112325000D02*
X116540000Y-110365000D01*
X118500000Y-136405000D02*
X118500000Y-112325000D01*
X112000000Y-117500000D02*
X112000000Y-111095000D01*
X112000000Y-111095000D02*
X114000000Y-109095000D01*
X114000000Y-137095000D02*
X114000000Y-119500000D01*
X114000000Y-119500000D02*
X112000000Y-117500000D01*
X116540000Y-107825000D02*
X116175000Y-107825000D01*
X115462370Y-107825000D02*
X116540000Y-107825000D01*
X112175000Y-107825000D02*
X115462370Y-107825000D01*
X110000000Y-122500640D02*
X110000000Y-110000000D01*
X110000000Y-110000000D02*
X112175000Y-107825000D01*
G04 #@! TA.AperFunction,Conductor*
G36*
X119761045Y-102520002D02*
G01*
X119807538Y-102573658D01*
X119817642Y-102643932D01*
X119809832Y-102672994D01*
X119724618Y-102884969D01*
X119623353Y-103245230D01*
X119561589Y-103614320D01*
X119540047Y-103987922D01*
X119558980Y-104361666D01*
X119559517Y-104365021D01*
X119559518Y-104365027D01*
X119576259Y-104469543D01*
X119618166Y-104731178D01*
X119716914Y-105092137D01*
X119718163Y-105095307D01*
X119851407Y-105433567D01*
X119854067Y-105440321D01*
X119855650Y-105443336D01*
X119986869Y-105693271D01*
X120028021Y-105771655D01*
X120029922Y-105774484D01*
X120029928Y-105774494D01*
X120159129Y-105966764D01*
X120236742Y-106082264D01*
X120477788Y-106368515D01*
X120602166Y-106487374D01*
X120745875Y-106624706D01*
X120745882Y-106624712D01*
X120748338Y-106627059D01*
X121045229Y-106854871D01*
X121087899Y-106880815D01*
X121362072Y-107047515D01*
X121362077Y-107047518D01*
X121364987Y-107049287D01*
X121368075Y-107050733D01*
X121368074Y-107050733D01*
X121700787Y-107206588D01*
X121700797Y-107206592D01*
X121703871Y-107208032D01*
X121707089Y-107209134D01*
X121707092Y-107209135D01*
X122054694Y-107328146D01*
X122054702Y-107328148D01*
X122057917Y-107329249D01*
X122422984Y-107411521D01*
X122507292Y-107421127D01*
X122791418Y-107453499D01*
X122791426Y-107453499D01*
X122794801Y-107453884D01*
X122798205Y-107453902D01*
X122798208Y-107453902D01*
X123001278Y-107454965D01*
X123169019Y-107455843D01*
X123172405Y-107455493D01*
X123172407Y-107455493D01*
X123537867Y-107417727D01*
X123537876Y-107417726D01*
X123541259Y-107417376D01*
X123544592Y-107416661D01*
X123544595Y-107416661D01*
X123772226Y-107367861D01*
X123907168Y-107338932D01*
X124262464Y-107221429D01*
X124602992Y-107066241D01*
X124672590Y-107024917D01*
X151139330Y-107024917D01*
X151143903Y-107034693D01*
X152137188Y-108027978D01*
X152151132Y-108035592D01*
X152152965Y-108035461D01*
X152159580Y-108031210D01*
X153152488Y-107038302D01*
X153158872Y-107026612D01*
X153149460Y-107014502D01*
X153023144Y-106926873D01*
X153015116Y-106922145D01*
X152795810Y-106813995D01*
X152787177Y-106810507D01*
X152554288Y-106735958D01*
X152545238Y-106733785D01*
X152303891Y-106694480D01*
X152294602Y-106693668D01*
X152050114Y-106690467D01*
X152040803Y-106691037D01*
X151798522Y-106724010D01*
X151789403Y-106725948D01*
X151554668Y-106794367D01*
X151545915Y-106797639D01*
X151323869Y-106900004D01*
X151315714Y-106904524D01*
X151148468Y-107014175D01*
X151139330Y-107024917D01*
X124672590Y-107024917D01*
X124769359Y-106967460D01*
X124921823Y-106876934D01*
X124921828Y-106876931D01*
X124924768Y-106875185D01*
X124993207Y-106823800D01*
X125221291Y-106652549D01*
X125224028Y-106650494D01*
X125389071Y-106496050D01*
X125494775Y-106397134D01*
X125494778Y-106397131D01*
X125497272Y-106394797D01*
X125741302Y-106111086D01*
X125904772Y-105873236D01*
X125951334Y-105805489D01*
X125951339Y-105805482D01*
X125953264Y-105802680D01*
X125954876Y-105799686D01*
X125954881Y-105799678D01*
X126129056Y-105476197D01*
X126130678Y-105473185D01*
X126271470Y-105126457D01*
X126280525Y-105094671D01*
X126373057Y-104769830D01*
X126373991Y-104766552D01*
X126415003Y-104526626D01*
X126436472Y-104401027D01*
X126436472Y-104401025D01*
X126437044Y-104397680D01*
X126438980Y-104366036D01*
X126457161Y-104068776D01*
X126459890Y-104024155D01*
X126459974Y-104000000D01*
X126439736Y-103626325D01*
X126379261Y-103257021D01*
X126279254Y-102896409D01*
X126277996Y-102893247D01*
X126277993Y-102893239D01*
X126190184Y-102672588D01*
X126183581Y-102601900D01*
X126216244Y-102538862D01*
X126277802Y-102503491D01*
X126307255Y-102500000D01*
X167692924Y-102500000D01*
X167761045Y-102520002D01*
X167807538Y-102573658D01*
X167817642Y-102643932D01*
X167809832Y-102672994D01*
X167724618Y-102884969D01*
X167623353Y-103245230D01*
X167561589Y-103614320D01*
X167540047Y-103987922D01*
X167558980Y-104361666D01*
X167559517Y-104365021D01*
X167559518Y-104365027D01*
X167576259Y-104469543D01*
X167618166Y-104731178D01*
X167716914Y-105092137D01*
X167718163Y-105095307D01*
X167851407Y-105433567D01*
X167854067Y-105440321D01*
X167855650Y-105443336D01*
X167986869Y-105693271D01*
X168028021Y-105771655D01*
X168029922Y-105774484D01*
X168029928Y-105774494D01*
X168159129Y-105966764D01*
X168236742Y-106082264D01*
X168477788Y-106368515D01*
X168602166Y-106487374D01*
X168745875Y-106624706D01*
X168745882Y-106624712D01*
X168748338Y-106627059D01*
X169045229Y-106854871D01*
X169087899Y-106880815D01*
X169362072Y-107047515D01*
X169362077Y-107047518D01*
X169364987Y-107049287D01*
X169368075Y-107050733D01*
X169368074Y-107050733D01*
X169700787Y-107206588D01*
X169700797Y-107206592D01*
X169703871Y-107208032D01*
X169707089Y-107209134D01*
X169707092Y-107209135D01*
X170054694Y-107328146D01*
X170054702Y-107328148D01*
X170057917Y-107329249D01*
X170422984Y-107411521D01*
X170507292Y-107421127D01*
X170791418Y-107453499D01*
X170791426Y-107453499D01*
X170794801Y-107453884D01*
X170798205Y-107453902D01*
X170798208Y-107453902D01*
X171001278Y-107454965D01*
X171169019Y-107455843D01*
X171172405Y-107455493D01*
X171172407Y-107455493D01*
X171537867Y-107417727D01*
X171537876Y-107417726D01*
X171541259Y-107417376D01*
X171544592Y-107416661D01*
X171544595Y-107416661D01*
X171772226Y-107367861D01*
X171907168Y-107338932D01*
X172262464Y-107221429D01*
X172602992Y-107066241D01*
X172769359Y-106967460D01*
X172921823Y-106876934D01*
X172921828Y-106876931D01*
X172924768Y-106875185D01*
X172993207Y-106823800D01*
X173221291Y-106652549D01*
X173224028Y-106650494D01*
X173389071Y-106496050D01*
X173494775Y-106397134D01*
X173494778Y-106397131D01*
X173497272Y-106394797D01*
X173741302Y-106111086D01*
X173904772Y-105873236D01*
X173951334Y-105805489D01*
X173951339Y-105805482D01*
X173953264Y-105802680D01*
X173954876Y-105799686D01*
X173954881Y-105799678D01*
X174129056Y-105476197D01*
X174130678Y-105473185D01*
X174271470Y-105126457D01*
X174280525Y-105094671D01*
X174373057Y-104769830D01*
X174373991Y-104766552D01*
X174415003Y-104526626D01*
X174436472Y-104401027D01*
X174436472Y-104401025D01*
X174437044Y-104397680D01*
X174438980Y-104366036D01*
X174457161Y-104068776D01*
X174459890Y-104024155D01*
X174459974Y-104000000D01*
X174439736Y-103626325D01*
X174379261Y-103257021D01*
X174279254Y-102896409D01*
X174277996Y-102893247D01*
X174277993Y-102893239D01*
X174190184Y-102672588D01*
X174183581Y-102601900D01*
X174216244Y-102538862D01*
X174277802Y-102503491D01*
X174307255Y-102500000D01*
X179874000Y-102500000D01*
X179942121Y-102520002D01*
X179988614Y-102573658D01*
X180000000Y-102626000D01*
X180000000Y-147374000D01*
X179979998Y-147442121D01*
X179926342Y-147488614D01*
X179874000Y-147500000D01*
X174306945Y-147500000D01*
X174238824Y-147479998D01*
X174192331Y-147426342D01*
X174182227Y-147356068D01*
X174190202Y-147326596D01*
X174250134Y-147179002D01*
X174271470Y-147126457D01*
X174373991Y-146766552D01*
X174427042Y-146456195D01*
X174436472Y-146401027D01*
X174436472Y-146401025D01*
X174437044Y-146397680D01*
X174439042Y-146365027D01*
X174456519Y-146079266D01*
X174459890Y-146024155D01*
X174459974Y-146000000D01*
X174439736Y-145626325D01*
X174379261Y-145257021D01*
X174279254Y-144896409D01*
X174277996Y-144893247D01*
X174277993Y-144893239D01*
X174142146Y-144551872D01*
X174142142Y-144551864D01*
X174140886Y-144548707D01*
X173965777Y-144217982D01*
X173963877Y-144215176D01*
X173963873Y-144215169D01*
X173757879Y-143910917D01*
X173757872Y-143910908D01*
X173755973Y-143908103D01*
X173753777Y-143905513D01*
X173753772Y-143905507D01*
X173634870Y-143765304D01*
X173513929Y-143622695D01*
X173242478Y-143365097D01*
X173239771Y-143363035D01*
X173239763Y-143363028D01*
X173048315Y-143217185D01*
X172944794Y-143138323D01*
X172624359Y-142945024D01*
X172615971Y-142941130D01*
X172288004Y-142788893D01*
X172288002Y-142788892D01*
X172284923Y-142787463D01*
X172281711Y-142786376D01*
X172281704Y-142786373D01*
X171933683Y-142668575D01*
X171933678Y-142668574D01*
X171930456Y-142667483D01*
X171658665Y-142607228D01*
X171568434Y-142587224D01*
X171568430Y-142587223D01*
X171565104Y-142586486D01*
X171412757Y-142569667D01*
X171196523Y-142545794D01*
X171196516Y-142545794D01*
X171193141Y-142545421D01*
X171189742Y-142545415D01*
X171189741Y-142545415D01*
X171012920Y-142545107D01*
X170818919Y-142544768D01*
X170709270Y-142556486D01*
X170450198Y-142584172D01*
X170450190Y-142584173D01*
X170446815Y-142584534D01*
X170443489Y-142585259D01*
X170443490Y-142585259D01*
X170084503Y-142663531D01*
X170084501Y-142663532D01*
X170081183Y-142664255D01*
X170077962Y-142665333D01*
X170077961Y-142665333D01*
X170068272Y-142668575D01*
X169726299Y-142782998D01*
X169386314Y-142939373D01*
X169383380Y-142941129D01*
X169383378Y-142941130D01*
X169376872Y-142945024D01*
X169065207Y-143131552D01*
X168766733Y-143357286D01*
X168494384Y-143613934D01*
X168251346Y-143898495D01*
X168249418Y-143901322D01*
X168249416Y-143901324D01*
X168043058Y-144203835D01*
X168040462Y-144207640D01*
X168038855Y-144210650D01*
X168038853Y-144210653D01*
X167928719Y-144416916D01*
X167864199Y-144537752D01*
X167724618Y-144884969D01*
X167723698Y-144888243D01*
X167723696Y-144888248D01*
X167653686Y-145137318D01*
X167623353Y-145245230D01*
X167622792Y-145248583D01*
X167622791Y-145248587D01*
X167586014Y-145468362D01*
X167561589Y-145614320D01*
X167540047Y-145987922D01*
X167558980Y-146361666D01*
X167559517Y-146365021D01*
X167559518Y-146365027D01*
X167591561Y-146565078D01*
X167618166Y-146731178D01*
X167716914Y-147092137D01*
X167718163Y-147095307D01*
X167809752Y-147327821D01*
X167816108Y-147398533D01*
X167783225Y-147461455D01*
X167721544Y-147496611D01*
X167692519Y-147500000D01*
X161629634Y-147500000D01*
X161561513Y-147479998D01*
X161515020Y-147426342D01*
X161504916Y-147356068D01*
X161534410Y-147291488D01*
X161540539Y-147284905D01*
X162260366Y-146565078D01*
X162260369Y-146565074D01*
X162283292Y-146542151D01*
X162293511Y-146522095D01*
X162303833Y-146505252D01*
X162317070Y-146487032D01*
X162324026Y-146465623D01*
X162331592Y-146447357D01*
X162337308Y-146436139D01*
X162341809Y-146427306D01*
X162345331Y-146405070D01*
X162349946Y-146385846D01*
X162353836Y-146373874D01*
X162356899Y-146364447D01*
X162356899Y-146332030D01*
X162356900Y-146332024D01*
X162356900Y-143793096D01*
X164940729Y-143793096D01*
X164941563Y-143800646D01*
X164953140Y-143905507D01*
X164958113Y-143950553D01*
X164960723Y-143957684D01*
X164960723Y-143957686D01*
X164991710Y-144042361D01*
X165012553Y-144099319D01*
X165016789Y-144105622D01*
X165016789Y-144105623D01*
X165080172Y-144199946D01*
X165100908Y-144230805D01*
X165106527Y-144235918D01*
X165106528Y-144235919D01*
X165212460Y-144332309D01*
X165218076Y-144337419D01*
X165357293Y-144413008D01*
X165510522Y-144453207D01*
X165594477Y-144454526D01*
X165661319Y-144455576D01*
X165661322Y-144455576D01*
X165668916Y-144455695D01*
X165823332Y-144420329D01*
X165893742Y-144384917D01*
X165958072Y-144352563D01*
X165958075Y-144352561D01*
X165964855Y-144349151D01*
X165970626Y-144344222D01*
X165970629Y-144344220D01*
X166025084Y-144297710D01*
X166085314Y-144246269D01*
X166085497Y-144246015D01*
X166143667Y-144211010D01*
X166175586Y-144206900D01*
X166230131Y-144206900D01*
X166251533Y-144199946D01*
X166270759Y-144195330D01*
X166283198Y-144193360D01*
X166292991Y-144191809D01*
X166313044Y-144181592D01*
X166331305Y-144174028D01*
X166343282Y-144170136D01*
X166343284Y-144170135D01*
X166352717Y-144167070D01*
X166370926Y-144153840D01*
X166387781Y-144143510D01*
X166407836Y-144133292D01*
X171590835Y-138950293D01*
X174221500Y-138950293D01*
X174221501Y-142048426D01*
X174236266Y-142122661D01*
X174243161Y-142132980D01*
X174243162Y-142132982D01*
X174268908Y-142171513D01*
X174292516Y-142206844D01*
X174376699Y-142263094D01*
X174450933Y-142277860D01*
X175999749Y-142277860D01*
X177549066Y-142277859D01*
X177586236Y-142270466D01*
X177611126Y-142265516D01*
X177611128Y-142265515D01*
X177623301Y-142263094D01*
X177633621Y-142256199D01*
X177633622Y-142256198D01*
X177697168Y-142213737D01*
X177707484Y-142206844D01*
X177763734Y-142122661D01*
X177778500Y-142048427D01*
X177778499Y-138950294D01*
X177769535Y-138905225D01*
X177766156Y-138888234D01*
X177766155Y-138888232D01*
X177763734Y-138876059D01*
X177707484Y-138791876D01*
X177623301Y-138735626D01*
X177549067Y-138720860D01*
X176000251Y-138720860D01*
X174450934Y-138720861D01*
X174415182Y-138727972D01*
X174388874Y-138733204D01*
X174388872Y-138733205D01*
X174376699Y-138735626D01*
X174366379Y-138742521D01*
X174366378Y-138742522D01*
X174314091Y-138777460D01*
X174292516Y-138791876D01*
X174236266Y-138876059D01*
X174221500Y-138950293D01*
X171590835Y-138950293D01*
X172683292Y-137857836D01*
X172693510Y-137837781D01*
X172703840Y-137820926D01*
X172711239Y-137810743D01*
X172711240Y-137810741D01*
X172717070Y-137802717D01*
X172724027Y-137781305D01*
X172731591Y-137763044D01*
X172737309Y-137751822D01*
X172741809Y-137742991D01*
X172743361Y-137733195D01*
X172745332Y-137720755D01*
X172749946Y-137701535D01*
X172753834Y-137689567D01*
X172756900Y-137680132D01*
X172756900Y-135453954D01*
X174217124Y-135453954D01*
X174217348Y-135458620D01*
X174217348Y-135458625D01*
X174223093Y-135578216D01*
X174229807Y-135717992D01*
X174281378Y-135977256D01*
X174282957Y-135981654D01*
X174282959Y-135981661D01*
X174355702Y-136184267D01*
X174370704Y-136226050D01*
X174372921Y-136230176D01*
X174474082Y-136418446D01*
X174495822Y-136458907D01*
X174498617Y-136462651D01*
X174498619Y-136462653D01*
X174629791Y-136638313D01*
X174653985Y-136670713D01*
X174657292Y-136673991D01*
X174657297Y-136673997D01*
X174816054Y-136831373D01*
X174841718Y-136856814D01*
X175054896Y-137013123D01*
X175059031Y-137015299D01*
X175059035Y-137015301D01*
X175157812Y-137067270D01*
X175288836Y-137136205D01*
X175538400Y-137223356D01*
X175542993Y-137224228D01*
X175793515Y-137271791D01*
X175793518Y-137271791D01*
X175798104Y-137272662D01*
X175930173Y-137277851D01*
X176057575Y-137282858D01*
X176057581Y-137282858D01*
X176062243Y-137283041D01*
X176325015Y-137254262D01*
X176329526Y-137253074D01*
X176329528Y-137253074D01*
X176576124Y-137188151D01*
X176576126Y-137188150D01*
X176580647Y-137186960D01*
X176584944Y-137185114D01*
X176819229Y-137084457D01*
X176819231Y-137084456D01*
X176823523Y-137082612D01*
X177048307Y-136943511D01*
X177127150Y-136876766D01*
X177246496Y-136775733D01*
X177246498Y-136775731D01*
X177250063Y-136772713D01*
X177424356Y-136573969D01*
X177427890Y-136568476D01*
X177564831Y-136355576D01*
X177567359Y-136351646D01*
X177675930Y-136110628D01*
X177747683Y-135856210D01*
X177759803Y-135760937D01*
X177780645Y-135597111D01*
X177780645Y-135597105D01*
X177781043Y-135593980D01*
X177783487Y-135500640D01*
X177781711Y-135476736D01*
X177764243Y-135241676D01*
X177764242Y-135241672D01*
X177763897Y-135237024D01*
X177705557Y-134979199D01*
X177690014Y-134939231D01*
X177611442Y-134737182D01*
X177611441Y-134737180D01*
X177609749Y-134732829D01*
X177599384Y-134714693D01*
X177537934Y-134607178D01*
X177478578Y-134503327D01*
X177314925Y-134295734D01*
X177122385Y-134114610D01*
X177118542Y-134111944D01*
X176909026Y-133966598D01*
X176909021Y-133966595D01*
X176905188Y-133963936D01*
X176892419Y-133957639D01*
X176672294Y-133849085D01*
X176672291Y-133849084D01*
X176668106Y-133847020D01*
X176611150Y-133828788D01*
X176443969Y-133775273D01*
X176416347Y-133766431D01*
X176272266Y-133742966D01*
X176160053Y-133724691D01*
X176160052Y-133724691D01*
X176155441Y-133723940D01*
X176023281Y-133722210D01*
X175895798Y-133720541D01*
X175895795Y-133720541D01*
X175891121Y-133720480D01*
X175629192Y-133756126D01*
X175624702Y-133757435D01*
X175624696Y-133757436D01*
X175516732Y-133788905D01*
X175375410Y-133830097D01*
X175371163Y-133832055D01*
X175371160Y-133832056D01*
X175280950Y-133873644D01*
X175135348Y-133940767D01*
X175131439Y-133943330D01*
X174918195Y-134083139D01*
X174918190Y-134083143D01*
X174914282Y-134085705D01*
X174881897Y-134114610D01*
X174724444Y-134255142D01*
X174717067Y-134261726D01*
X174548036Y-134464964D01*
X174410901Y-134690954D01*
X174409095Y-134695262D01*
X174409094Y-134695263D01*
X174313181Y-134923991D01*
X174308677Y-134934731D01*
X174307526Y-134939263D01*
X174307525Y-134939266D01*
X174276892Y-135059885D01*
X174243608Y-135190941D01*
X174217124Y-135453954D01*
X172756900Y-135453954D01*
X172756900Y-125950293D01*
X174221500Y-125950293D01*
X174221501Y-129048426D01*
X174236266Y-129122661D01*
X174243161Y-129132980D01*
X174243162Y-129132982D01*
X174277141Y-129183834D01*
X174292516Y-129206844D01*
X174376699Y-129263094D01*
X174450933Y-129277860D01*
X175999749Y-129277860D01*
X177549066Y-129277859D01*
X177584818Y-129270748D01*
X177611126Y-129265516D01*
X177611128Y-129265515D01*
X177623301Y-129263094D01*
X177633621Y-129256199D01*
X177633622Y-129256198D01*
X177697168Y-129213737D01*
X177707484Y-129206844D01*
X177763734Y-129122661D01*
X177778500Y-129048427D01*
X177778499Y-125950294D01*
X177763734Y-125876059D01*
X177742525Y-125844317D01*
X177714377Y-125802192D01*
X177707484Y-125791876D01*
X177623301Y-125735626D01*
X177549067Y-125720860D01*
X176000251Y-125720860D01*
X174450934Y-125720861D01*
X174415182Y-125727972D01*
X174388874Y-125733204D01*
X174388872Y-125733205D01*
X174376699Y-125735626D01*
X174366379Y-125742521D01*
X174366378Y-125742522D01*
X174305985Y-125782876D01*
X174292516Y-125791876D01*
X174236266Y-125876059D01*
X174221500Y-125950293D01*
X172756900Y-125950293D01*
X172756900Y-122453954D01*
X174217124Y-122453954D01*
X174217348Y-122458620D01*
X174217348Y-122458625D01*
X174219518Y-122503800D01*
X174229807Y-122717992D01*
X174281378Y-122977256D01*
X174282957Y-122981654D01*
X174282959Y-122981661D01*
X174366105Y-123213241D01*
X174370704Y-123226050D01*
X174372921Y-123230176D01*
X174469691Y-123410274D01*
X174495822Y-123458907D01*
X174498617Y-123462651D01*
X174498619Y-123462653D01*
X174578927Y-123570198D01*
X174653985Y-123670713D01*
X174657292Y-123673991D01*
X174657297Y-123673997D01*
X174756879Y-123772713D01*
X174841718Y-123856814D01*
X175054896Y-124013123D01*
X175059031Y-124015299D01*
X175059035Y-124015301D01*
X175182293Y-124080150D01*
X175288836Y-124136205D01*
X175293255Y-124137748D01*
X175514521Y-124215017D01*
X175538400Y-124223356D01*
X175542993Y-124224228D01*
X175793515Y-124271791D01*
X175793518Y-124271791D01*
X175798104Y-124272662D01*
X175930174Y-124277852D01*
X176057575Y-124282858D01*
X176057581Y-124282858D01*
X176062243Y-124283041D01*
X176325015Y-124254262D01*
X176329526Y-124253074D01*
X176329528Y-124253074D01*
X176576124Y-124188151D01*
X176576126Y-124188150D01*
X176580647Y-124186960D01*
X176584944Y-124185114D01*
X176819229Y-124084457D01*
X176819231Y-124084456D01*
X176823523Y-124082612D01*
X177048307Y-123943511D01*
X177085806Y-123911766D01*
X177246496Y-123775733D01*
X177246498Y-123775731D01*
X177250063Y-123772713D01*
X177424356Y-123573969D01*
X177498367Y-123458907D01*
X177564831Y-123355576D01*
X177567359Y-123351646D01*
X177675930Y-123110628D01*
X177747683Y-122856210D01*
X177765267Y-122717992D01*
X177780645Y-122597111D01*
X177780645Y-122597105D01*
X177781043Y-122593980D01*
X177783487Y-122500640D01*
X177775603Y-122394546D01*
X177764243Y-122241676D01*
X177764242Y-122241672D01*
X177763897Y-122237024D01*
X177705557Y-121979199D01*
X177690028Y-121939266D01*
X177611442Y-121737182D01*
X177611441Y-121737180D01*
X177609749Y-121732829D01*
X177583535Y-121686963D01*
X177480897Y-121507385D01*
X177478578Y-121503327D01*
X177314925Y-121295734D01*
X177122385Y-121114610D01*
X177085212Y-121088822D01*
X176909026Y-120966598D01*
X176909021Y-120966595D01*
X176905188Y-120963936D01*
X176900997Y-120961869D01*
X176672294Y-120849085D01*
X176672291Y-120849084D01*
X176668106Y-120847020D01*
X176611150Y-120828788D01*
X176532063Y-120803472D01*
X176416347Y-120766431D01*
X176220184Y-120734484D01*
X176160053Y-120724691D01*
X176160052Y-120724691D01*
X176155441Y-120723940D01*
X176023281Y-120722210D01*
X175895798Y-120720541D01*
X175895795Y-120720541D01*
X175891121Y-120720480D01*
X175629192Y-120756126D01*
X175624702Y-120757435D01*
X175624696Y-120757436D01*
X175525797Y-120786263D01*
X175375410Y-120830097D01*
X175371163Y-120832055D01*
X175371160Y-120832056D01*
X175295322Y-120867018D01*
X175135348Y-120940767D01*
X175118866Y-120951573D01*
X174918195Y-121083139D01*
X174918190Y-121083143D01*
X174914282Y-121085705D01*
X174717067Y-121261726D01*
X174548036Y-121464964D01*
X174410901Y-121690954D01*
X174308677Y-121934731D01*
X174307526Y-121939263D01*
X174307525Y-121939266D01*
X174280646Y-122045102D01*
X174243608Y-122190941D01*
X174217124Y-122453954D01*
X172756900Y-122453954D01*
X172756900Y-116541293D01*
X172776902Y-116473172D01*
X172793805Y-116452198D01*
X174006406Y-115239597D01*
X174068718Y-115205571D01*
X174139533Y-115210636D01*
X174196369Y-115253183D01*
X174221180Y-115319703D01*
X174221501Y-115328692D01*
X174221501Y-116048426D01*
X174228612Y-116084178D01*
X174233210Y-116107295D01*
X174236266Y-116122661D01*
X174243161Y-116132980D01*
X174243162Y-116132982D01*
X174257834Y-116154940D01*
X174292516Y-116206844D01*
X174376699Y-116263094D01*
X174450933Y-116277860D01*
X175999749Y-116277860D01*
X177549066Y-116277859D01*
X177584818Y-116270748D01*
X177611126Y-116265516D01*
X177611128Y-116265515D01*
X177623301Y-116263094D01*
X177633621Y-116256199D01*
X177633622Y-116256198D01*
X177697168Y-116213737D01*
X177707484Y-116206844D01*
X177763734Y-116122661D01*
X177778500Y-116048427D01*
X177778499Y-112950294D01*
X177763734Y-112876059D01*
X177707484Y-112791876D01*
X177623301Y-112735626D01*
X177549067Y-112720860D01*
X176000251Y-112720860D01*
X174450934Y-112720861D01*
X174415182Y-112727972D01*
X174388874Y-112733204D01*
X174388872Y-112733205D01*
X174376699Y-112735626D01*
X174366379Y-112742521D01*
X174366378Y-112742522D01*
X174305985Y-112782876D01*
X174292516Y-112791876D01*
X174236266Y-112876059D01*
X174221500Y-112950293D01*
X174221500Y-113968242D01*
X174201498Y-114036363D01*
X174147842Y-114082856D01*
X174115976Y-114092460D01*
X174106754Y-114092460D01*
X174097328Y-114095523D01*
X174097326Y-114095523D01*
X174085352Y-114099414D01*
X174066126Y-114104030D01*
X174043894Y-114107551D01*
X174035061Y-114112052D01*
X174035060Y-114112052D01*
X174023842Y-114117768D01*
X174005580Y-114125332D01*
X173993603Y-114129224D01*
X173993601Y-114129225D01*
X173984168Y-114132290D01*
X173976143Y-114138121D01*
X173965959Y-114145520D01*
X173949104Y-114155850D01*
X173929049Y-114166068D01*
X172016708Y-116078409D01*
X172012205Y-116087247D01*
X172006492Y-116098460D01*
X171996160Y-116115319D01*
X171982930Y-116133528D01*
X171979865Y-116142961D01*
X171979864Y-116142963D01*
X171975972Y-116154940D01*
X171968408Y-116173201D01*
X171958191Y-116193254D01*
X171956640Y-116203047D01*
X171954670Y-116215486D01*
X171950054Y-116234712D01*
X171943100Y-116256114D01*
X171943100Y-137394952D01*
X171923098Y-137463073D01*
X171906195Y-137484047D01*
X166141769Y-143248473D01*
X166079457Y-143282499D01*
X166008642Y-143277434D01*
X165981395Y-143263173D01*
X165976275Y-143258611D01*
X165968889Y-143254700D01*
X165842988Y-143188039D01*
X165842989Y-143188039D01*
X165836274Y-143184484D01*
X165682633Y-143145892D01*
X165675034Y-143145852D01*
X165675033Y-143145852D01*
X165609181Y-143145507D01*
X165524221Y-143145062D01*
X165516841Y-143146834D01*
X165516839Y-143146834D01*
X165377563Y-143180271D01*
X165377560Y-143180272D01*
X165370184Y-143182043D01*
X165229414Y-143254700D01*
X165110039Y-143358838D01*
X165018950Y-143488444D01*
X164999626Y-143538008D01*
X164966608Y-143622695D01*
X164961406Y-143636037D01*
X164960414Y-143643570D01*
X164960414Y-143643571D01*
X164943804Y-143769740D01*
X164940729Y-143793096D01*
X162356900Y-143793096D01*
X162356900Y-133785554D01*
X162349946Y-133764152D01*
X162345330Y-133744926D01*
X162343360Y-133732487D01*
X162341809Y-133722694D01*
X162331592Y-133702641D01*
X162324028Y-133684380D01*
X162320136Y-133672403D01*
X162320135Y-133672401D01*
X162317070Y-133662968D01*
X162303840Y-133644759D01*
X162293508Y-133627900D01*
X162287795Y-133616687D01*
X162283292Y-133607849D01*
X161169901Y-132494458D01*
X161135875Y-132432146D01*
X161133359Y-132395804D01*
X161133580Y-132392895D01*
X161134162Y-132388807D01*
X161134307Y-132375000D01*
X161131225Y-132349527D01*
X161118639Y-132245524D01*
X161115276Y-132217733D01*
X161059280Y-132069546D01*
X161022076Y-132015414D01*
X160973855Y-131945251D01*
X160973854Y-131945249D01*
X160969553Y-131938992D01*
X160851275Y-131833611D01*
X160843889Y-131829700D01*
X160749499Y-131779723D01*
X160711274Y-131759484D01*
X160557633Y-131720892D01*
X160550034Y-131720852D01*
X160550033Y-131720852D01*
X160484181Y-131720507D01*
X160399221Y-131720062D01*
X160391841Y-131721834D01*
X160391839Y-131721834D01*
X160252563Y-131755271D01*
X160252560Y-131755272D01*
X160245184Y-131757043D01*
X160104414Y-131829700D01*
X159985039Y-131933838D01*
X159893950Y-132063444D01*
X159874242Y-132113992D01*
X159841209Y-132198719D01*
X159836406Y-132211037D01*
X159835414Y-132218570D01*
X159835414Y-132218571D01*
X159818174Y-132349527D01*
X159815729Y-132368096D01*
X159833113Y-132525553D01*
X159835723Y-132532684D01*
X159835723Y-132532686D01*
X159882137Y-132659518D01*
X159887553Y-132674319D01*
X159891789Y-132680622D01*
X159891789Y-132680623D01*
X159905182Y-132700553D01*
X159975908Y-132805805D01*
X159981527Y-132810918D01*
X159981528Y-132810919D01*
X160046659Y-132870183D01*
X160093076Y-132912419D01*
X160232293Y-132988008D01*
X160385522Y-133028207D01*
X160504405Y-133030074D01*
X160572202Y-133051143D01*
X160591520Y-133066963D01*
X161506195Y-133981638D01*
X161540221Y-134043950D01*
X161543100Y-134070733D01*
X161543100Y-146079266D01*
X161523098Y-146147387D01*
X161506195Y-146168361D01*
X161444503Y-146230053D01*
X161382191Y-146264079D01*
X161311376Y-146259014D01*
X161254540Y-146216467D01*
X161237542Y-146185497D01*
X161186963Y-146051647D01*
X161184280Y-146044546D01*
X161154916Y-146001821D01*
X161098855Y-145920251D01*
X161098854Y-145920249D01*
X161094553Y-145913992D01*
X160976275Y-145808611D01*
X160968889Y-145804700D01*
X160842988Y-145738039D01*
X160842989Y-145738039D01*
X160836274Y-145734484D01*
X160682633Y-145695892D01*
X160675034Y-145695852D01*
X160675033Y-145695852D01*
X160609181Y-145695507D01*
X160524221Y-145695062D01*
X160516841Y-145696834D01*
X160516839Y-145696834D01*
X160377563Y-145730271D01*
X160377560Y-145730272D01*
X160370184Y-145732043D01*
X160229414Y-145804700D01*
X160110039Y-145908838D01*
X160018950Y-146038444D01*
X160003034Y-146079266D01*
X159968298Y-146168361D01*
X159961406Y-146186037D01*
X159960414Y-146193570D01*
X159960414Y-146193571D01*
X159942186Y-146332030D01*
X159940729Y-146343096D01*
X159943111Y-146364668D01*
X159930706Y-146434571D01*
X159906967Y-146467590D01*
X158911462Y-147463095D01*
X158849150Y-147497121D01*
X158822367Y-147500000D01*
X156021856Y-147500000D01*
X155953735Y-147479998D01*
X155907242Y-147426342D01*
X155896769Y-147389137D01*
X155885723Y-147297863D01*
X155884811Y-147290323D01*
X155828815Y-147142136D01*
X155815786Y-147123179D01*
X155743390Y-147017841D01*
X155743389Y-147017839D01*
X155739088Y-147011582D01*
X155732480Y-147005694D01*
X155662225Y-146943100D01*
X155620810Y-146906201D01*
X155613424Y-146902290D01*
X155487523Y-146835629D01*
X155487524Y-146835629D01*
X155480809Y-146832074D01*
X155327168Y-146793482D01*
X155319569Y-146793442D01*
X155319568Y-146793442D01*
X155253716Y-146793097D01*
X155168756Y-146792652D01*
X155161376Y-146794424D01*
X155161374Y-146794424D01*
X155022098Y-146827861D01*
X155022095Y-146827862D01*
X155014719Y-146829633D01*
X154873949Y-146902290D01*
X154868232Y-146907277D01*
X154868225Y-146907282D01*
X154862761Y-146912049D01*
X154798279Y-146941757D01*
X154779932Y-146943100D01*
X147975057Y-146943100D01*
X147906936Y-146923098D01*
X147887791Y-146906651D01*
X147887518Y-146906957D01*
X147876130Y-146896811D01*
X147769240Y-146801576D01*
X147761854Y-146797665D01*
X147696761Y-146763200D01*
X147629239Y-146727449D01*
X147475598Y-146688857D01*
X147467999Y-146688817D01*
X147467998Y-146688817D01*
X147402146Y-146688472D01*
X147317186Y-146688027D01*
X147309806Y-146689799D01*
X147309804Y-146689799D01*
X147170528Y-146723236D01*
X147170525Y-146723237D01*
X147163149Y-146725008D01*
X147022379Y-146797665D01*
X146903004Y-146901803D01*
X146811915Y-147031409D01*
X146754371Y-147179002D01*
X146753379Y-147186535D01*
X146753379Y-147186536D01*
X146734779Y-147327821D01*
X146733694Y-147336061D01*
X146734528Y-147343611D01*
X146736356Y-147360173D01*
X146723950Y-147430078D01*
X146675720Y-147482178D01*
X146611117Y-147500000D01*
X134227633Y-147500000D01*
X134159512Y-147479998D01*
X134138538Y-147463095D01*
X132143805Y-145468362D01*
X132109779Y-145406050D01*
X132106900Y-145379267D01*
X132106900Y-142918096D01*
X142640729Y-142918096D01*
X142658113Y-143075553D01*
X142660723Y-143082684D01*
X142660723Y-143082686D01*
X142702261Y-143196194D01*
X142712553Y-143224319D01*
X142800908Y-143355805D01*
X142806527Y-143360918D01*
X142806528Y-143360919D01*
X142811120Y-143365097D01*
X142918076Y-143462419D01*
X143057293Y-143538008D01*
X143210522Y-143578207D01*
X143294477Y-143579526D01*
X143361319Y-143580576D01*
X143361322Y-143580576D01*
X143368916Y-143580695D01*
X143523332Y-143545329D01*
X143605606Y-143503950D01*
X143658072Y-143477563D01*
X143658075Y-143477561D01*
X143664855Y-143474151D01*
X143670626Y-143469222D01*
X143670629Y-143469220D01*
X143779536Y-143376204D01*
X143779536Y-143376203D01*
X143785314Y-143371269D01*
X143877755Y-143242624D01*
X143936842Y-143095641D01*
X143949067Y-143009743D01*
X143958581Y-142942891D01*
X143958581Y-142942888D01*
X143959162Y-142938807D01*
X143959307Y-142925000D01*
X143954921Y-142888759D01*
X143966596Y-142818730D01*
X143990914Y-142784529D01*
X146034328Y-140741115D01*
X146096640Y-140707089D01*
X146125402Y-140704226D01*
X146128736Y-140704278D01*
X146211319Y-140705576D01*
X146211322Y-140705576D01*
X146218916Y-140705695D01*
X146373332Y-140670329D01*
X146452150Y-140630688D01*
X146508072Y-140602563D01*
X146508075Y-140602561D01*
X146514855Y-140599151D01*
X146520626Y-140594222D01*
X146520629Y-140594220D01*
X146629536Y-140501204D01*
X146629536Y-140501203D01*
X146635314Y-140496269D01*
X146727755Y-140367624D01*
X146786842Y-140220641D01*
X146809162Y-140063807D01*
X146809307Y-140050000D01*
X146790276Y-139892733D01*
X146734280Y-139744546D01*
X146653413Y-139626883D01*
X146648855Y-139620251D01*
X146648854Y-139620249D01*
X146644553Y-139613992D01*
X146625088Y-139596649D01*
X146531946Y-139513664D01*
X146526275Y-139508611D01*
X146518889Y-139504700D01*
X146392988Y-139438039D01*
X146392989Y-139438039D01*
X146386274Y-139434484D01*
X146232633Y-139395892D01*
X146225034Y-139395852D01*
X146225033Y-139395852D01*
X146159181Y-139395507D01*
X146074221Y-139395062D01*
X146066841Y-139396834D01*
X146066839Y-139396834D01*
X145927563Y-139430271D01*
X145927560Y-139430272D01*
X145920184Y-139432043D01*
X145779414Y-139504700D01*
X145660039Y-139608838D01*
X145568950Y-139738444D01*
X145511406Y-139886037D01*
X145510414Y-139893570D01*
X145510414Y-139893571D01*
X145492177Y-140032101D01*
X145490729Y-140043096D01*
X145493111Y-140064668D01*
X145480706Y-140134571D01*
X145456967Y-140167590D01*
X143390994Y-142233563D01*
X143328682Y-142267589D01*
X143301242Y-142270466D01*
X143224221Y-142270062D01*
X143216841Y-142271834D01*
X143216839Y-142271834D01*
X143077563Y-142305271D01*
X143077560Y-142305272D01*
X143070184Y-142307043D01*
X142929414Y-142379700D01*
X142810039Y-142483838D01*
X142718950Y-142613444D01*
X142661406Y-142761037D01*
X142660414Y-142768570D01*
X142660414Y-142768571D01*
X142645853Y-142879176D01*
X142640729Y-142918096D01*
X132106900Y-142918096D01*
X132106900Y-140943096D01*
X133090729Y-140943096D01*
X133108113Y-141100553D01*
X133110723Y-141107684D01*
X133110723Y-141107686D01*
X133157797Y-141236322D01*
X133162553Y-141249319D01*
X133166789Y-141255622D01*
X133166789Y-141255623D01*
X133213954Y-141325811D01*
X133250908Y-141380805D01*
X133256527Y-141385918D01*
X133256528Y-141385919D01*
X133341392Y-141463139D01*
X133368076Y-141487419D01*
X133507293Y-141563008D01*
X133660522Y-141603207D01*
X133744477Y-141604526D01*
X133811319Y-141605576D01*
X133811322Y-141605576D01*
X133818916Y-141605695D01*
X133973332Y-141570329D01*
X134043742Y-141534917D01*
X134108072Y-141502563D01*
X134108075Y-141502561D01*
X134114855Y-141499151D01*
X134120626Y-141494222D01*
X134120629Y-141494220D01*
X134175084Y-141447710D01*
X134235314Y-141396269D01*
X134235497Y-141396015D01*
X134293667Y-141361010D01*
X134325586Y-141356900D01*
X137925891Y-141356900D01*
X137994012Y-141376902D01*
X138010690Y-141389706D01*
X138087997Y-141460049D01*
X138118076Y-141487419D01*
X138257293Y-141563008D01*
X138410522Y-141603207D01*
X138494477Y-141604526D01*
X138561319Y-141605576D01*
X138561322Y-141605576D01*
X138568916Y-141605695D01*
X138723332Y-141570329D01*
X138793742Y-141534917D01*
X138858072Y-141502563D01*
X138858075Y-141502561D01*
X138864855Y-141499151D01*
X138870626Y-141494222D01*
X138870629Y-141494220D01*
X138979536Y-141401204D01*
X138979536Y-141401203D01*
X138985314Y-141396269D01*
X139077755Y-141267624D01*
X139136842Y-141120641D01*
X139159162Y-140963807D01*
X139159307Y-140950000D01*
X139140276Y-140792733D01*
X139084280Y-140644546D01*
X139033726Y-140570989D01*
X138998855Y-140520251D01*
X138998854Y-140520249D01*
X138994553Y-140513992D01*
X138876275Y-140408611D01*
X138868889Y-140404700D01*
X138819360Y-140378476D01*
X138736274Y-140334484D01*
X138582633Y-140295892D01*
X138575034Y-140295852D01*
X138575033Y-140295852D01*
X138509181Y-140295507D01*
X138424221Y-140295062D01*
X138416841Y-140296834D01*
X138416839Y-140296834D01*
X138277563Y-140330271D01*
X138277560Y-140330272D01*
X138270184Y-140332043D01*
X138129414Y-140404700D01*
X138010039Y-140508838D01*
X138008591Y-140507178D01*
X137957512Y-140538649D01*
X137924318Y-140543100D01*
X134325212Y-140543100D01*
X134257091Y-140523098D01*
X134241393Y-140511177D01*
X134238884Y-140508941D01*
X134126275Y-140408611D01*
X134118889Y-140404700D01*
X134069360Y-140378476D01*
X133986274Y-140334484D01*
X133832633Y-140295892D01*
X133825034Y-140295852D01*
X133825033Y-140295852D01*
X133759181Y-140295507D01*
X133674221Y-140295062D01*
X133666841Y-140296834D01*
X133666839Y-140296834D01*
X133527563Y-140330271D01*
X133527560Y-140330272D01*
X133520184Y-140332043D01*
X133379414Y-140404700D01*
X133260039Y-140508838D01*
X133168950Y-140638444D01*
X133111406Y-140786037D01*
X133110414Y-140793570D01*
X133110414Y-140793571D01*
X133091990Y-140933520D01*
X133090729Y-140943096D01*
X132106900Y-140943096D01*
X132106900Y-134771328D01*
X132126902Y-134703207D01*
X132151070Y-134675517D01*
X132179532Y-134651208D01*
X132179535Y-134651205D01*
X132185314Y-134646269D01*
X132277755Y-134517624D01*
X132336842Y-134370641D01*
X132342965Y-134327615D01*
X132358581Y-134217891D01*
X132358581Y-134217888D01*
X132359162Y-134213807D01*
X132359307Y-134200000D01*
X132340276Y-134042733D01*
X132293179Y-133918096D01*
X140690729Y-133918096D01*
X140693515Y-133943330D01*
X140704490Y-134042733D01*
X140708113Y-134075553D01*
X140710723Y-134082684D01*
X140710723Y-134082686D01*
X140757197Y-134209682D01*
X140762553Y-134224319D01*
X140766789Y-134230622D01*
X140766789Y-134230623D01*
X140808392Y-134292534D01*
X140850908Y-134355805D01*
X140856527Y-134360918D01*
X140856528Y-134360919D01*
X140962460Y-134457309D01*
X140968076Y-134462419D01*
X141107293Y-134538008D01*
X141260522Y-134578207D01*
X141344477Y-134579526D01*
X141411319Y-134580576D01*
X141411322Y-134580576D01*
X141418916Y-134580695D01*
X141573332Y-134545329D01*
X141595092Y-134534385D01*
X141599021Y-134532409D01*
X141668865Y-134519669D01*
X141734509Y-134546713D01*
X141775112Y-134604954D01*
X141777781Y-134675900D01*
X141758723Y-134717423D01*
X141748321Y-134732223D01*
X141748317Y-134732230D01*
X141743950Y-134738444D01*
X141741190Y-134745524D01*
X141689556Y-134877958D01*
X141686406Y-134886037D01*
X141685414Y-134893570D01*
X141685414Y-134893571D01*
X141673755Y-134982135D01*
X141665729Y-135043096D01*
X141673121Y-135110049D01*
X141682052Y-135190941D01*
X141683113Y-135200553D01*
X141685723Y-135207684D01*
X141685723Y-135207686D01*
X141725414Y-135316146D01*
X141737553Y-135349319D01*
X141741789Y-135355622D01*
X141741789Y-135355623D01*
X141811004Y-135458625D01*
X141825908Y-135480805D01*
X141831527Y-135485918D01*
X141831528Y-135485919D01*
X141848322Y-135501200D01*
X141943076Y-135587419D01*
X142082293Y-135663008D01*
X142235522Y-135703207D01*
X142319477Y-135704526D01*
X142386319Y-135705576D01*
X142386322Y-135705576D01*
X142393916Y-135705695D01*
X142548332Y-135670329D01*
X142623070Y-135632740D01*
X142683072Y-135602563D01*
X142683075Y-135602561D01*
X142689855Y-135599151D01*
X142695626Y-135594222D01*
X142695629Y-135594220D01*
X142780955Y-135521344D01*
X142810314Y-135496269D01*
X142810497Y-135496015D01*
X142868667Y-135461010D01*
X142900586Y-135456900D01*
X147125891Y-135456900D01*
X147194012Y-135476902D01*
X147210690Y-135489706D01*
X147222707Y-135500640D01*
X147318076Y-135587419D01*
X147457293Y-135663008D01*
X147610522Y-135703207D01*
X147694477Y-135704526D01*
X147761319Y-135705576D01*
X147761322Y-135705576D01*
X147768916Y-135705695D01*
X147923332Y-135670329D01*
X147998070Y-135632740D01*
X148058072Y-135602563D01*
X148058075Y-135602561D01*
X148064855Y-135599151D01*
X148070626Y-135594222D01*
X148070629Y-135594220D01*
X148179536Y-135501204D01*
X148179536Y-135501203D01*
X148185314Y-135496269D01*
X148277755Y-135367624D01*
X148336842Y-135220641D01*
X148351573Y-135117133D01*
X148358581Y-135067891D01*
X148358581Y-135067888D01*
X148359162Y-135063807D01*
X148359307Y-135050000D01*
X148340276Y-134892733D01*
X148284280Y-134744546D01*
X148279979Y-134738288D01*
X148276459Y-134731555D01*
X148278237Y-134730625D01*
X148259348Y-134672950D01*
X148277237Y-134604244D01*
X148329430Y-134556116D01*
X148399359Y-134543846D01*
X148417262Y-134547182D01*
X148535522Y-134578207D01*
X148619477Y-134579526D01*
X148686319Y-134580576D01*
X148686322Y-134580576D01*
X148693916Y-134580695D01*
X148848332Y-134545329D01*
X148929115Y-134504700D01*
X148983072Y-134477563D01*
X148983075Y-134477561D01*
X148989855Y-134474151D01*
X148995626Y-134469222D01*
X148995629Y-134469220D01*
X149104536Y-134376204D01*
X149104536Y-134376203D01*
X149110314Y-134371269D01*
X149202755Y-134242624D01*
X149261842Y-134095641D01*
X149272814Y-134018543D01*
X149283581Y-133942891D01*
X149283581Y-133942888D01*
X149284162Y-133938807D01*
X149284307Y-133925000D01*
X149265276Y-133767733D01*
X149209280Y-133619546D01*
X149145378Y-133526567D01*
X149123855Y-133495251D01*
X149123854Y-133495249D01*
X149119553Y-133488992D01*
X149109910Y-133480400D01*
X149006946Y-133388664D01*
X149001275Y-133383611D01*
X148993889Y-133379700D01*
X148867988Y-133313039D01*
X148867989Y-133313039D01*
X148861274Y-133309484D01*
X148707633Y-133270892D01*
X148700034Y-133270852D01*
X148700033Y-133270852D01*
X148634181Y-133270507D01*
X148549221Y-133270062D01*
X148541841Y-133271834D01*
X148541839Y-133271834D01*
X148402563Y-133305271D01*
X148402560Y-133305272D01*
X148395184Y-133307043D01*
X148254414Y-133379700D01*
X148135039Y-133483838D01*
X148133591Y-133482178D01*
X148082512Y-133513649D01*
X148049318Y-133518100D01*
X141925212Y-133518100D01*
X141857091Y-133498098D01*
X141841393Y-133486177D01*
X141838884Y-133483941D01*
X141726275Y-133383611D01*
X141718889Y-133379700D01*
X141592988Y-133313039D01*
X141592989Y-133313039D01*
X141586274Y-133309484D01*
X141432633Y-133270892D01*
X141425034Y-133270852D01*
X141425033Y-133270852D01*
X141359181Y-133270507D01*
X141274221Y-133270062D01*
X141266841Y-133271834D01*
X141266839Y-133271834D01*
X141127563Y-133305271D01*
X141127560Y-133305272D01*
X141120184Y-133307043D01*
X140979414Y-133379700D01*
X140860039Y-133483838D01*
X140768950Y-133613444D01*
X140749370Y-133663664D01*
X140718452Y-133742966D01*
X140711406Y-133761037D01*
X140710414Y-133768570D01*
X140710414Y-133768571D01*
X140700274Y-133845597D01*
X140690729Y-133918096D01*
X132293179Y-133918096D01*
X132284280Y-133894546D01*
X132202889Y-133776121D01*
X132198855Y-133770251D01*
X132198854Y-133770249D01*
X132194553Y-133763992D01*
X132171401Y-133743364D01*
X132115177Y-133693271D01*
X132076275Y-133658611D01*
X132068889Y-133654700D01*
X132018272Y-133627900D01*
X131936274Y-133584484D01*
X131782633Y-133545892D01*
X131775034Y-133545852D01*
X131775033Y-133545852D01*
X131709181Y-133545507D01*
X131624221Y-133545062D01*
X131616841Y-133546834D01*
X131616839Y-133546834D01*
X131477563Y-133580271D01*
X131477560Y-133580272D01*
X131470184Y-133582043D01*
X131463439Y-133585524D01*
X131463440Y-133585524D01*
X131440690Y-133597266D01*
X131370983Y-133610735D01*
X131305059Y-133584380D01*
X131263850Y-133526567D01*
X131256900Y-133485300D01*
X131256900Y-133121328D01*
X131276902Y-133053207D01*
X131301070Y-133025517D01*
X131329532Y-133001208D01*
X131329535Y-133001205D01*
X131335314Y-132996269D01*
X131427755Y-132867624D01*
X131486842Y-132720641D01*
X131509162Y-132563807D01*
X131509307Y-132550000D01*
X131506479Y-132526626D01*
X131491188Y-132400273D01*
X131490276Y-132392733D01*
X131434280Y-132244546D01*
X131370560Y-132151832D01*
X131348855Y-132120251D01*
X131348854Y-132120249D01*
X131344553Y-132113992D01*
X131226275Y-132008611D01*
X131218889Y-132004700D01*
X131128850Y-131957027D01*
X131086274Y-131934484D01*
X130932633Y-131895892D01*
X130925034Y-131895852D01*
X130925033Y-131895852D01*
X130859181Y-131895507D01*
X130774221Y-131895062D01*
X130766841Y-131896834D01*
X130766839Y-131896834D01*
X130627563Y-131930271D01*
X130627560Y-131930272D01*
X130620184Y-131932043D01*
X130479414Y-132004700D01*
X130360039Y-132108838D01*
X130268950Y-132238444D01*
X130257000Y-132269094D01*
X130217311Y-132370892D01*
X130211406Y-132386037D01*
X130210414Y-132393570D01*
X130210414Y-132393571D01*
X130193039Y-132525553D01*
X130190729Y-132543096D01*
X130193509Y-132568274D01*
X130205913Y-132680623D01*
X130208113Y-132700553D01*
X130210723Y-132707684D01*
X130210723Y-132707686D01*
X130248501Y-132810919D01*
X130262553Y-132849319D01*
X130266789Y-132855622D01*
X130266789Y-132855623D01*
X130271533Y-132862682D01*
X130350908Y-132980805D01*
X130356527Y-132985918D01*
X130356528Y-132985919D01*
X130367903Y-132996269D01*
X130400884Y-133026279D01*
X130401899Y-133027203D01*
X130438822Y-133087843D01*
X130443100Y-133120397D01*
X130443100Y-145814446D01*
X130446165Y-145823879D01*
X130450054Y-145835848D01*
X130454670Y-145855074D01*
X130458191Y-145877306D01*
X130462692Y-145886139D01*
X130462692Y-145886140D01*
X130468408Y-145897358D01*
X130475972Y-145915620D01*
X130479864Y-145927597D01*
X130482930Y-145937032D01*
X130488761Y-145945057D01*
X130496160Y-145955241D01*
X130506490Y-145972096D01*
X130516708Y-145992151D01*
X131809462Y-147284905D01*
X131843488Y-147347217D01*
X131838423Y-147418032D01*
X131795876Y-147474868D01*
X131729356Y-147499679D01*
X131720367Y-147500000D01*
X126306945Y-147500000D01*
X126238824Y-147479998D01*
X126192331Y-147426342D01*
X126182227Y-147356068D01*
X126190202Y-147326596D01*
X126250134Y-147179002D01*
X126271470Y-147126457D01*
X126373991Y-146766552D01*
X126427042Y-146456195D01*
X126436472Y-146401027D01*
X126436472Y-146401025D01*
X126437044Y-146397680D01*
X126439042Y-146365027D01*
X126456519Y-146079266D01*
X126459890Y-146024155D01*
X126459974Y-146000000D01*
X126439736Y-145626325D01*
X126379261Y-145257021D01*
X126279254Y-144896409D01*
X126277996Y-144893247D01*
X126277993Y-144893239D01*
X126142146Y-144551872D01*
X126142142Y-144551864D01*
X126140886Y-144548707D01*
X125965777Y-144217982D01*
X125963877Y-144215176D01*
X125963873Y-144215169D01*
X125757879Y-143910917D01*
X125757872Y-143910908D01*
X125755973Y-143908103D01*
X125753777Y-143905513D01*
X125753772Y-143905507D01*
X125634870Y-143765304D01*
X125513929Y-143622695D01*
X125242478Y-143365097D01*
X125239771Y-143363035D01*
X125239763Y-143363028D01*
X125048315Y-143217185D01*
X124944794Y-143138323D01*
X124624359Y-142945024D01*
X124615971Y-142941130D01*
X124288004Y-142788893D01*
X124288002Y-142788892D01*
X124284923Y-142787463D01*
X124281711Y-142786376D01*
X124281704Y-142786373D01*
X123933683Y-142668575D01*
X123933678Y-142668574D01*
X123930456Y-142667483D01*
X123658665Y-142607228D01*
X123568434Y-142587224D01*
X123568430Y-142587223D01*
X123565104Y-142586486D01*
X123412757Y-142569667D01*
X123196523Y-142545794D01*
X123196516Y-142545794D01*
X123193141Y-142545421D01*
X123189742Y-142545415D01*
X123189741Y-142545415D01*
X123012920Y-142545107D01*
X122818919Y-142544768D01*
X122709270Y-142556486D01*
X122450198Y-142584172D01*
X122450190Y-142584173D01*
X122446815Y-142584534D01*
X122443489Y-142585259D01*
X122443490Y-142585259D01*
X122084503Y-142663531D01*
X122084501Y-142663532D01*
X122081183Y-142664255D01*
X122077962Y-142665333D01*
X122077961Y-142665333D01*
X122068272Y-142668575D01*
X121726299Y-142782998D01*
X121386314Y-142939373D01*
X121383380Y-142941129D01*
X121383378Y-142941130D01*
X121376872Y-142945024D01*
X121065207Y-143131552D01*
X120766733Y-143357286D01*
X120494384Y-143613934D01*
X120251346Y-143898495D01*
X120249418Y-143901322D01*
X120249416Y-143901324D01*
X120043058Y-144203835D01*
X120040462Y-144207640D01*
X120038855Y-144210650D01*
X120038853Y-144210653D01*
X119928719Y-144416916D01*
X119864199Y-144537752D01*
X119724618Y-144884969D01*
X119723698Y-144888243D01*
X119723696Y-144888248D01*
X119653686Y-145137318D01*
X119623353Y-145245230D01*
X119622792Y-145248583D01*
X119622791Y-145248587D01*
X119586014Y-145468362D01*
X119561589Y-145614320D01*
X119540047Y-145987922D01*
X119558980Y-146361666D01*
X119559517Y-146365021D01*
X119559518Y-146365027D01*
X119591561Y-146565078D01*
X119618166Y-146731178D01*
X119716914Y-147092137D01*
X119718163Y-147095307D01*
X119809752Y-147327821D01*
X119816108Y-147398533D01*
X119783225Y-147461455D01*
X119721544Y-147496611D01*
X119692519Y-147500000D01*
X102626000Y-147500000D01*
X102557879Y-147479998D01*
X102511386Y-147426342D01*
X102500000Y-147374000D01*
X102500000Y-144122208D01*
X105790056Y-144122208D01*
X105815630Y-144390260D01*
X105816714Y-144394690D01*
X105816715Y-144394696D01*
X105830561Y-144451279D01*
X105879632Y-144651813D01*
X105881347Y-144656048D01*
X105881348Y-144656050D01*
X105975398Y-144888248D01*
X105980720Y-144901388D01*
X105983024Y-144905323D01*
X105983027Y-144905329D01*
X106114471Y-145129817D01*
X106116777Y-145133755D01*
X106284952Y-145344048D01*
X106481723Y-145527861D01*
X106702968Y-145681344D01*
X106801315Y-145730271D01*
X106939964Y-145799248D01*
X106939967Y-145799249D01*
X106944051Y-145801281D01*
X106948390Y-145802703D01*
X106948389Y-145802703D01*
X107195590Y-145883740D01*
X107195595Y-145883741D01*
X107199923Y-145885160D01*
X107204414Y-145885940D01*
X107204415Y-145885940D01*
X107461442Y-145930568D01*
X107461450Y-145930569D01*
X107465223Y-145931224D01*
X107469060Y-145931415D01*
X107548739Y-145935382D01*
X107548747Y-145935382D01*
X107550310Y-145935460D01*
X107718402Y-145935460D01*
X107720670Y-145935295D01*
X107720682Y-145935295D01*
X107851753Y-145925785D01*
X107918564Y-145920937D01*
X107923019Y-145919953D01*
X107923022Y-145919953D01*
X108177045Y-145863869D01*
X108177047Y-145863868D01*
X108181501Y-145862885D01*
X108433305Y-145767486D01*
X108490848Y-145735524D01*
X108664706Y-145638954D01*
X108664707Y-145638953D01*
X108668699Y-145636736D01*
X108811359Y-145527861D01*
X108879122Y-145476146D01*
X108879123Y-145476145D01*
X108882754Y-145473374D01*
X108974750Y-145379267D01*
X109067789Y-145284093D01*
X109067793Y-145284088D01*
X109070984Y-145280824D01*
X109229446Y-145063119D01*
X109354822Y-144824819D01*
X109444485Y-144570915D01*
X109473831Y-144422024D01*
X109495675Y-144311201D01*
X109495676Y-144311195D01*
X109496556Y-144306729D01*
X109496783Y-144302173D01*
X109509717Y-144042361D01*
X109509717Y-144042355D01*
X109509944Y-144037792D01*
X109484370Y-143769740D01*
X109453497Y-143643571D01*
X109427665Y-143538008D01*
X109420368Y-143508187D01*
X109401830Y-143462419D01*
X109320994Y-143262843D01*
X109320992Y-143262840D01*
X109319280Y-143258612D01*
X109316976Y-143254677D01*
X109316973Y-143254671D01*
X109185529Y-143030183D01*
X109185528Y-143030181D01*
X109183223Y-143026245D01*
X109059286Y-142871269D01*
X109017900Y-142819518D01*
X109017898Y-142819516D01*
X109015048Y-142815952D01*
X108818277Y-142632139D01*
X108597032Y-142478656D01*
X108441528Y-142401294D01*
X108360036Y-142360752D01*
X108360033Y-142360751D01*
X108355949Y-142358719D01*
X108208931Y-142310524D01*
X108104410Y-142276260D01*
X108104405Y-142276259D01*
X108100077Y-142274840D01*
X108095585Y-142274060D01*
X107838558Y-142229432D01*
X107838550Y-142229431D01*
X107834777Y-142228776D01*
X107823267Y-142228203D01*
X107751261Y-142224618D01*
X107751253Y-142224618D01*
X107749690Y-142224540D01*
X107581598Y-142224540D01*
X107579330Y-142224705D01*
X107579318Y-142224705D01*
X107457239Y-142233563D01*
X107381436Y-142239063D01*
X107376981Y-142240047D01*
X107376978Y-142240047D01*
X107122955Y-142296131D01*
X107122953Y-142296132D01*
X107118499Y-142297115D01*
X106866695Y-142392514D01*
X106631301Y-142523264D01*
X106587770Y-142556486D01*
X106447508Y-142663531D01*
X106417246Y-142686626D01*
X106414053Y-142689892D01*
X106414051Y-142689894D01*
X106232211Y-142875907D01*
X106232207Y-142875912D01*
X106229016Y-142879176D01*
X106133980Y-143009743D01*
X106076935Y-143088115D01*
X106070554Y-143096881D01*
X105945178Y-143335181D01*
X105855515Y-143589085D01*
X105803444Y-143853271D01*
X105803217Y-143857824D01*
X105803217Y-143857827D01*
X105790882Y-144105623D01*
X105790056Y-144122208D01*
X102500000Y-144122208D01*
X102500000Y-133962208D01*
X105790056Y-133962208D01*
X105815630Y-134230260D01*
X105816714Y-134234690D01*
X105816715Y-134234696D01*
X105848624Y-134365095D01*
X105879632Y-134491813D01*
X105881347Y-134496048D01*
X105881348Y-134496050D01*
X105977008Y-134732223D01*
X105980720Y-134741388D01*
X105983024Y-134745323D01*
X105983027Y-134745329D01*
X106111792Y-134965241D01*
X106116777Y-134973755D01*
X106284952Y-135184048D01*
X106481723Y-135367861D01*
X106702968Y-135521344D01*
X106825513Y-135582309D01*
X106939964Y-135639248D01*
X106939967Y-135639249D01*
X106944051Y-135641281D01*
X106948390Y-135642703D01*
X106948389Y-135642703D01*
X107195590Y-135723740D01*
X107195595Y-135723741D01*
X107199923Y-135725160D01*
X107204414Y-135725940D01*
X107204415Y-135725940D01*
X107461442Y-135770568D01*
X107461450Y-135770569D01*
X107465223Y-135771224D01*
X107469060Y-135771415D01*
X107548739Y-135775382D01*
X107548747Y-135775382D01*
X107550310Y-135775460D01*
X107718402Y-135775460D01*
X107720670Y-135775295D01*
X107720682Y-135775295D01*
X107851753Y-135765785D01*
X107918564Y-135760937D01*
X107923019Y-135759953D01*
X107923022Y-135759953D01*
X108177045Y-135703869D01*
X108177047Y-135703868D01*
X108181501Y-135702885D01*
X108433305Y-135607486D01*
X108451984Y-135597111D01*
X108664706Y-135478954D01*
X108664707Y-135478953D01*
X108668699Y-135476736D01*
X108811670Y-135367624D01*
X108879122Y-135316146D01*
X108879123Y-135316145D01*
X108882754Y-135313374D01*
X108914696Y-135280699D01*
X109067789Y-135124093D01*
X109067793Y-135124088D01*
X109070984Y-135120824D01*
X109184229Y-134965241D01*
X109226759Y-134906811D01*
X109226761Y-134906808D01*
X109229446Y-134903119D01*
X109354822Y-134664819D01*
X109356373Y-134665635D01*
X109397228Y-134616872D01*
X109465007Y-134595741D01*
X109533450Y-134614609D01*
X109580828Y-134667485D01*
X109593100Y-134721724D01*
X109593100Y-138239446D01*
X109596165Y-138248879D01*
X109600054Y-138260848D01*
X109604670Y-138280074D01*
X109608191Y-138302306D01*
X109612692Y-138311139D01*
X109612692Y-138311140D01*
X109618408Y-138322358D01*
X109625972Y-138340620D01*
X109629864Y-138352597D01*
X109632930Y-138362032D01*
X109638761Y-138370057D01*
X109646160Y-138380241D01*
X109656490Y-138397096D01*
X109666708Y-138417151D01*
X109689634Y-138440077D01*
X112997615Y-141748059D01*
X113031641Y-141810371D01*
X113028622Y-141875251D01*
X113000902Y-141962635D01*
X112978682Y-142160739D01*
X112995362Y-142359386D01*
X113007379Y-142401294D01*
X113032831Y-142490052D01*
X113050310Y-142551009D01*
X113067571Y-142584595D01*
X113121687Y-142689894D01*
X113141430Y-142728311D01*
X113265253Y-142884537D01*
X113417063Y-143013737D01*
X113422441Y-143016743D01*
X113422443Y-143016744D01*
X113464397Y-143040191D01*
X113591076Y-143110989D01*
X113596935Y-143112893D01*
X113596938Y-143112894D01*
X113654362Y-143131552D01*
X113780665Y-143172591D01*
X113786775Y-143173320D01*
X113786777Y-143173320D01*
X113879637Y-143184392D01*
X113978609Y-143196194D01*
X113984744Y-143195722D01*
X113984746Y-143195722D01*
X114171226Y-143181373D01*
X114171231Y-143181372D01*
X114177367Y-143180900D01*
X114183297Y-143179244D01*
X114183299Y-143179244D01*
X114302895Y-143145852D01*
X114369370Y-143127292D01*
X114374870Y-143124514D01*
X114541802Y-143040191D01*
X114541804Y-143040190D01*
X114547303Y-143037412D01*
X114704390Y-142914682D01*
X114726962Y-142888532D01*
X114830618Y-142768446D01*
X114830619Y-142768444D01*
X114834647Y-142763778D01*
X114933112Y-142590448D01*
X114996035Y-142401294D01*
X115009196Y-142297115D01*
X115020578Y-142207023D01*
X115020579Y-142207013D01*
X115021020Y-142203520D01*
X115021418Y-142175000D01*
X115001965Y-141976606D01*
X115000184Y-141970707D01*
X115000183Y-141970702D01*
X114946129Y-141791667D01*
X114944348Y-141785768D01*
X114871349Y-141648476D01*
X114853655Y-141615198D01*
X114853653Y-141615195D01*
X114850761Y-141609756D01*
X114846871Y-141604986D01*
X114846868Y-141604982D01*
X114728663Y-141460049D01*
X114728660Y-141460046D01*
X114724768Y-141455274D01*
X114571170Y-141328206D01*
X114395815Y-141233392D01*
X114205385Y-141174444D01*
X114199260Y-141173800D01*
X114199259Y-141173800D01*
X114013260Y-141154251D01*
X114013258Y-141154251D01*
X114007131Y-141153607D01*
X113923537Y-141161215D01*
X113814744Y-141171115D01*
X113814741Y-141171116D01*
X113808605Y-141171674D01*
X113802695Y-141173413D01*
X113802692Y-141173414D01*
X113697660Y-141204326D01*
X113626664Y-141204370D01*
X113572991Y-141172547D01*
X110443805Y-138043362D01*
X110409779Y-137981050D01*
X110406900Y-137954267D01*
X110406900Y-129328545D01*
X110426902Y-129260424D01*
X110480558Y-129213931D01*
X110500820Y-129206697D01*
X110576124Y-129186871D01*
X110576126Y-129186870D01*
X110580647Y-129185680D01*
X110695191Y-129136468D01*
X110819229Y-129083177D01*
X110819231Y-129083176D01*
X110823523Y-129081332D01*
X111008417Y-128966916D01*
X111044332Y-128944691D01*
X111044334Y-128944690D01*
X111048307Y-128942231D01*
X111095165Y-128902563D01*
X111246496Y-128774453D01*
X111246498Y-128774451D01*
X111250063Y-128771433D01*
X111424356Y-128572689D01*
X111466168Y-128507686D01*
X111556714Y-128366916D01*
X111567359Y-128350366D01*
X111675930Y-128109348D01*
X111747683Y-127854930D01*
X111762278Y-127740207D01*
X111780645Y-127595831D01*
X111780645Y-127595825D01*
X111781043Y-127592700D01*
X111781218Y-127586037D01*
X111783404Y-127502520D01*
X111783487Y-127499360D01*
X111780018Y-127452674D01*
X111764243Y-127240396D01*
X111764242Y-127240392D01*
X111763897Y-127235744D01*
X111705557Y-126977919D01*
X111690028Y-126937986D01*
X111611442Y-126735902D01*
X111611441Y-126735900D01*
X111609749Y-126731549D01*
X111590872Y-126698520D01*
X111514588Y-126565052D01*
X111478578Y-126502047D01*
X111314925Y-126294454D01*
X111122385Y-126113330D01*
X111085212Y-126087542D01*
X110909026Y-125965318D01*
X110909021Y-125965315D01*
X110905188Y-125962656D01*
X110900997Y-125960589D01*
X110672294Y-125847805D01*
X110672291Y-125847804D01*
X110668106Y-125845740D01*
X110611150Y-125827508D01*
X110532063Y-125802192D01*
X110416347Y-125765151D01*
X110190637Y-125728392D01*
X110160053Y-125723411D01*
X110160052Y-125723411D01*
X110155441Y-125722660D01*
X110023281Y-125720930D01*
X109895798Y-125719261D01*
X109895795Y-125719261D01*
X109891121Y-125719200D01*
X109629192Y-125754846D01*
X109624702Y-125756155D01*
X109624696Y-125756156D01*
X109525797Y-125784983D01*
X109375410Y-125828817D01*
X109371163Y-125830775D01*
X109371160Y-125830776D01*
X109295322Y-125865738D01*
X109135348Y-125939487D01*
X109127025Y-125944944D01*
X108918195Y-126081859D01*
X108918190Y-126081863D01*
X108914282Y-126084425D01*
X108910790Y-126087542D01*
X108736549Y-126243058D01*
X108717067Y-126260446D01*
X108548036Y-126463684D01*
X108410901Y-126689674D01*
X108409095Y-126693982D01*
X108409094Y-126693983D01*
X108312142Y-126925189D01*
X108308677Y-126933451D01*
X108307526Y-126937983D01*
X108307525Y-126937986D01*
X108280091Y-127046009D01*
X108243608Y-127189661D01*
X108217124Y-127452674D01*
X108217348Y-127457340D01*
X108217348Y-127457345D01*
X108219518Y-127502520D01*
X108229807Y-127716712D01*
X108241675Y-127776376D01*
X108275833Y-127948098D01*
X108281378Y-127975976D01*
X108282957Y-127980374D01*
X108282959Y-127980381D01*
X108352655Y-128174500D01*
X108370704Y-128224770D01*
X108372921Y-128228896D01*
X108444982Y-128363008D01*
X108495822Y-128457627D01*
X108498617Y-128461371D01*
X108498619Y-128461373D01*
X108651192Y-128665693D01*
X108653985Y-128669433D01*
X108657292Y-128672711D01*
X108657297Y-128672717D01*
X108812131Y-128826204D01*
X108841718Y-128855534D01*
X108845485Y-128858296D01*
X108845486Y-128858297D01*
X108988294Y-128963008D01*
X109054896Y-129011843D01*
X109059031Y-129014019D01*
X109059035Y-129014021D01*
X109182293Y-129078870D01*
X109288836Y-129134925D01*
X109293255Y-129136468D01*
X109508641Y-129211684D01*
X109566358Y-129253026D01*
X109592562Y-129319010D01*
X109593100Y-129330639D01*
X109593100Y-133127934D01*
X109573098Y-133196055D01*
X109519442Y-133242548D01*
X109449168Y-133252652D01*
X109384588Y-133223158D01*
X109350316Y-133175236D01*
X109320995Y-133102845D01*
X109320992Y-133102840D01*
X109319280Y-133098612D01*
X109316976Y-133094677D01*
X109316973Y-133094671D01*
X109185529Y-132870183D01*
X109185528Y-132870181D01*
X109183223Y-132866245D01*
X109034778Y-132680623D01*
X109017900Y-132659518D01*
X109017898Y-132659516D01*
X109015048Y-132655952D01*
X108818277Y-132472139D01*
X108597032Y-132318656D01*
X108448065Y-132244546D01*
X108360036Y-132200752D01*
X108360033Y-132200751D01*
X108355949Y-132198719D01*
X108232807Y-132158351D01*
X108104410Y-132116260D01*
X108104405Y-132116259D01*
X108100077Y-132114840D01*
X108095193Y-132113992D01*
X107838558Y-132069432D01*
X107838550Y-132069431D01*
X107834777Y-132068776D01*
X107823267Y-132068203D01*
X107751261Y-132064618D01*
X107751253Y-132064618D01*
X107749690Y-132064540D01*
X107581598Y-132064540D01*
X107579330Y-132064705D01*
X107579318Y-132064705D01*
X107448247Y-132074215D01*
X107381436Y-132079063D01*
X107376981Y-132080047D01*
X107376978Y-132080047D01*
X107122955Y-132136131D01*
X107122953Y-132136132D01*
X107118499Y-132137115D01*
X106866695Y-132232514D01*
X106862709Y-132234728D01*
X106862707Y-132234729D01*
X106656032Y-132349527D01*
X106631301Y-132363264D01*
X106541044Y-132432146D01*
X106484565Y-132475250D01*
X106417246Y-132526626D01*
X106414053Y-132529892D01*
X106414051Y-132529894D01*
X106232211Y-132715907D01*
X106232207Y-132715912D01*
X106229016Y-132719176D01*
X106170550Y-132799500D01*
X106116471Y-132873798D01*
X106070554Y-132936881D01*
X105945178Y-133175181D01*
X105855515Y-133429085D01*
X105837970Y-133518100D01*
X105809280Y-133663664D01*
X105803444Y-133693271D01*
X105803217Y-133697824D01*
X105803217Y-133697827D01*
X105790996Y-133943330D01*
X105790056Y-133962208D01*
X102500000Y-133962208D01*
X102500000Y-116122208D01*
X105790056Y-116122208D01*
X105815630Y-116390260D01*
X105816714Y-116394690D01*
X105816715Y-116394696D01*
X105839817Y-116489103D01*
X105879632Y-116651813D01*
X105980720Y-116901388D01*
X105983024Y-116905323D01*
X105983027Y-116905329D01*
X106108067Y-117118880D01*
X106116777Y-117133755D01*
X106284952Y-117344048D01*
X106481723Y-117527861D01*
X106702968Y-117681344D01*
X106751003Y-117705241D01*
X106939964Y-117799248D01*
X106939967Y-117799249D01*
X106944051Y-117801281D01*
X106948390Y-117802703D01*
X106948389Y-117802703D01*
X107195590Y-117883740D01*
X107195595Y-117883741D01*
X107199923Y-117885160D01*
X107204414Y-117885940D01*
X107204415Y-117885940D01*
X107461442Y-117930568D01*
X107461450Y-117930569D01*
X107465223Y-117931224D01*
X107469060Y-117931415D01*
X107548739Y-117935382D01*
X107548747Y-117935382D01*
X107550310Y-117935460D01*
X107718402Y-117935460D01*
X107720670Y-117935295D01*
X107720682Y-117935295D01*
X107851753Y-117925785D01*
X107918564Y-117920937D01*
X107923019Y-117919953D01*
X107923022Y-117919953D01*
X108177045Y-117863869D01*
X108177047Y-117863868D01*
X108181501Y-117862885D01*
X108433305Y-117767486D01*
X108595136Y-117677597D01*
X108664706Y-117638954D01*
X108664707Y-117638953D01*
X108668699Y-117636736D01*
X108811359Y-117527861D01*
X108879122Y-117476146D01*
X108879123Y-117476145D01*
X108882754Y-117473374D01*
X108985410Y-117368362D01*
X109067789Y-117284093D01*
X109067793Y-117284088D01*
X109070984Y-117280824D01*
X109229446Y-117063119D01*
X109354822Y-116824819D01*
X109356373Y-116825635D01*
X109397228Y-116776872D01*
X109465007Y-116755741D01*
X109533450Y-116774609D01*
X109580828Y-116827485D01*
X109593100Y-116881724D01*
X109593100Y-120596141D01*
X109573098Y-120664262D01*
X109519442Y-120710755D01*
X109467100Y-120722141D01*
X108450934Y-120722141D01*
X108415182Y-120729252D01*
X108388874Y-120734484D01*
X108388872Y-120734485D01*
X108376699Y-120736906D01*
X108366379Y-120743801D01*
X108366378Y-120743802D01*
X108305985Y-120784156D01*
X108292516Y-120793156D01*
X108236266Y-120877339D01*
X108221500Y-120951573D01*
X108221501Y-124049706D01*
X108236266Y-124123941D01*
X108243161Y-124134260D01*
X108243162Y-124134262D01*
X108259371Y-124158520D01*
X108292516Y-124208124D01*
X108302832Y-124215017D01*
X108361566Y-124254262D01*
X108376699Y-124264374D01*
X108450933Y-124279140D01*
X109999749Y-124279140D01*
X111549066Y-124279139D01*
X111586010Y-124271791D01*
X111611126Y-124266796D01*
X111611128Y-124266795D01*
X111623301Y-124264374D01*
X111633621Y-124257479D01*
X111633622Y-124257478D01*
X111697168Y-124215017D01*
X111707484Y-124208124D01*
X111763734Y-124123941D01*
X111778500Y-124049707D01*
X111778499Y-120951574D01*
X111763734Y-120877339D01*
X111742525Y-120845597D01*
X111714377Y-120803472D01*
X111707484Y-120793156D01*
X111623301Y-120736906D01*
X111549067Y-120722140D01*
X110532900Y-120722140D01*
X110464779Y-120702138D01*
X110418286Y-120648482D01*
X110406900Y-120596140D01*
X110406900Y-110220733D01*
X110426902Y-110152612D01*
X110443805Y-110131638D01*
X112306639Y-108268805D01*
X112368951Y-108234779D01*
X112395734Y-108231900D01*
X113127016Y-108231900D01*
X113195137Y-108251902D01*
X113241630Y-108305558D01*
X113251734Y-108375832D01*
X113223538Y-108438891D01*
X113157214Y-108517933D01*
X113061179Y-108692621D01*
X113000902Y-108882635D01*
X112978682Y-109080739D01*
X112995362Y-109279386D01*
X112997059Y-109285305D01*
X112997060Y-109285309D01*
X113029459Y-109398297D01*
X113029008Y-109469292D01*
X112997435Y-109522122D01*
X111666708Y-110852849D01*
X111662205Y-110861687D01*
X111656492Y-110872900D01*
X111646160Y-110889759D01*
X111632930Y-110907968D01*
X111629865Y-110917401D01*
X111629864Y-110917403D01*
X111625972Y-110929380D01*
X111618408Y-110947641D01*
X111608191Y-110967694D01*
X111606640Y-110977487D01*
X111604670Y-110989926D01*
X111600054Y-111009152D01*
X111593100Y-111030554D01*
X111593100Y-117564446D01*
X111596165Y-117573879D01*
X111600054Y-117585848D01*
X111604670Y-117605074D01*
X111608191Y-117627306D01*
X111612692Y-117636139D01*
X111612692Y-117636140D01*
X111618408Y-117647358D01*
X111625972Y-117665620D01*
X111629864Y-117677597D01*
X111632930Y-117687032D01*
X111638761Y-117695057D01*
X111646160Y-117705241D01*
X111656490Y-117722096D01*
X111666708Y-117742151D01*
X113556195Y-119631638D01*
X113590221Y-119693950D01*
X113593100Y-119720733D01*
X113593100Y-136084337D01*
X113573098Y-136152458D01*
X113525476Y-136195998D01*
X113446173Y-136237457D01*
X113446169Y-136237459D01*
X113440709Y-136240314D01*
X113285351Y-136365225D01*
X113157214Y-136517933D01*
X113061179Y-136692621D01*
X113000902Y-136882635D01*
X112978682Y-137080739D01*
X112995362Y-137279386D01*
X113013938Y-137344166D01*
X113039841Y-137434499D01*
X113050310Y-137471009D01*
X113141430Y-137648311D01*
X113265253Y-137804537D01*
X113417063Y-137933737D01*
X113422441Y-137936743D01*
X113422443Y-137936744D01*
X113464397Y-137960191D01*
X113591076Y-138030989D01*
X113596935Y-138032893D01*
X113596938Y-138032894D01*
X113632701Y-138044514D01*
X113780665Y-138092591D01*
X113786775Y-138093320D01*
X113786777Y-138093320D01*
X113854314Y-138101373D01*
X113978609Y-138116194D01*
X113984744Y-138115722D01*
X113984746Y-138115722D01*
X114171226Y-138101373D01*
X114171231Y-138101372D01*
X114177367Y-138100900D01*
X114183297Y-138099244D01*
X114183299Y-138099244D01*
X114311061Y-138063572D01*
X114369370Y-138047292D01*
X114374870Y-138044514D01*
X114541802Y-137960191D01*
X114541804Y-137960190D01*
X114547303Y-137957412D01*
X114704390Y-137834682D01*
X114730411Y-137804537D01*
X114797318Y-137727024D01*
X114856971Y-137688527D01*
X114927967Y-137688392D01*
X114987766Y-137726661D01*
X115017382Y-137791186D01*
X115018699Y-137809355D01*
X115018699Y-138921819D01*
X114998697Y-138989940D01*
X114945041Y-139036433D01*
X114874767Y-139046537D01*
X114810187Y-139017043D01*
X114795056Y-139001455D01*
X114728663Y-138920050D01*
X114724768Y-138915274D01*
X114692083Y-138888234D01*
X114575919Y-138792135D01*
X114571170Y-138788206D01*
X114395815Y-138693392D01*
X114205385Y-138634444D01*
X114199260Y-138633800D01*
X114199259Y-138633800D01*
X114013260Y-138614251D01*
X114013258Y-138614251D01*
X114007131Y-138613607D01*
X113884252Y-138624790D01*
X113814746Y-138631115D01*
X113814745Y-138631115D01*
X113808605Y-138631674D01*
X113802691Y-138633415D01*
X113802689Y-138633415D01*
X113672539Y-138671721D01*
X113617370Y-138687958D01*
X113440709Y-138780314D01*
X113435909Y-138784174D01*
X113435908Y-138784174D01*
X113433872Y-138785811D01*
X113285351Y-138905225D01*
X113157214Y-139057933D01*
X113061179Y-139232621D01*
X113000902Y-139422635D01*
X112978682Y-139620739D01*
X112995362Y-139819386D01*
X113013938Y-139884166D01*
X113028335Y-139934373D01*
X113050310Y-140011009D01*
X113141430Y-140188311D01*
X113265253Y-140344537D01*
X113417063Y-140473737D01*
X113422441Y-140476743D01*
X113422443Y-140476744D01*
X113482532Y-140510326D01*
X113591076Y-140570989D01*
X113596935Y-140572893D01*
X113596938Y-140572894D01*
X113632701Y-140584514D01*
X113780665Y-140632591D01*
X113786775Y-140633320D01*
X113786777Y-140633320D01*
X113854314Y-140641373D01*
X113978609Y-140656194D01*
X113984744Y-140655722D01*
X113984746Y-140655722D01*
X114171226Y-140641373D01*
X114171231Y-140641372D01*
X114177367Y-140640900D01*
X114183297Y-140639244D01*
X114183299Y-140639244D01*
X114314675Y-140602563D01*
X114369370Y-140587292D01*
X114374870Y-140584514D01*
X114541802Y-140500191D01*
X114541804Y-140500190D01*
X114547303Y-140497412D01*
X114704390Y-140374682D01*
X114729840Y-140345198D01*
X114830618Y-140228446D01*
X114830619Y-140228444D01*
X114834647Y-140223778D01*
X114885324Y-140134571D01*
X114915500Y-140081452D01*
X114966539Y-140032101D01*
X115036157Y-140018179D01*
X115102251Y-140044105D01*
X115114151Y-140054594D01*
X115537615Y-140478058D01*
X115571641Y-140540370D01*
X115568622Y-140605251D01*
X115540902Y-140692635D01*
X115518682Y-140890739D01*
X115535362Y-141089386D01*
X115559457Y-141173414D01*
X115586472Y-141267624D01*
X115590310Y-141281009D01*
X115681430Y-141458311D01*
X115805253Y-141614537D01*
X115957063Y-141743737D01*
X115962441Y-141746743D01*
X115962443Y-141746744D01*
X116070972Y-141807398D01*
X116131076Y-141840989D01*
X116136935Y-141842893D01*
X116136938Y-141842894D01*
X116172701Y-141854514D01*
X116320665Y-141902591D01*
X116326775Y-141903320D01*
X116326777Y-141903320D01*
X116394314Y-141911373D01*
X116518609Y-141926194D01*
X116524744Y-141925722D01*
X116524746Y-141925722D01*
X116711226Y-141911373D01*
X116711231Y-141911372D01*
X116717367Y-141910900D01*
X116723297Y-141909244D01*
X116723299Y-141909244D01*
X116845037Y-141875254D01*
X116909370Y-141857292D01*
X116914870Y-141854514D01*
X117081802Y-141770191D01*
X117081804Y-141770190D01*
X117087303Y-141767412D01*
X117244390Y-141644682D01*
X117269840Y-141615198D01*
X117370618Y-141498446D01*
X117370619Y-141498444D01*
X117374647Y-141493778D01*
X117378260Y-141487419D01*
X117427236Y-141401204D01*
X117473112Y-141320448D01*
X117536035Y-141131294D01*
X117558416Y-140954134D01*
X117560578Y-140937023D01*
X117560579Y-140937013D01*
X117561020Y-140933520D01*
X117561418Y-140905000D01*
X117541965Y-140706606D01*
X117540184Y-140700707D01*
X117540183Y-140700702D01*
X117486129Y-140521667D01*
X117484348Y-140515768D01*
X117437555Y-140427762D01*
X117393655Y-140345198D01*
X117393653Y-140345195D01*
X117390761Y-140339756D01*
X117386871Y-140334986D01*
X117386868Y-140334982D01*
X117268663Y-140190049D01*
X117268660Y-140190046D01*
X117264768Y-140185274D01*
X117111170Y-140058206D01*
X116935815Y-139963392D01*
X116745385Y-139904444D01*
X116739260Y-139903800D01*
X116739259Y-139903800D01*
X116553260Y-139884251D01*
X116553258Y-139884251D01*
X116547131Y-139883607D01*
X116463537Y-139891215D01*
X116354744Y-139901115D01*
X116354741Y-139901116D01*
X116348605Y-139901674D01*
X116342695Y-139903413D01*
X116342692Y-139903414D01*
X116297614Y-139916682D01*
X116237662Y-139934327D01*
X116166666Y-139934373D01*
X116112992Y-139902549D01*
X115869404Y-139658961D01*
X115835378Y-139596649D01*
X115832499Y-139569866D01*
X115832499Y-139348882D01*
X115852501Y-139280761D01*
X115906157Y-139234268D01*
X115976431Y-139224164D01*
X116019970Y-139238894D01*
X116131076Y-139300989D01*
X116136935Y-139302893D01*
X116136938Y-139302894D01*
X116172701Y-139314514D01*
X116320665Y-139362591D01*
X116326775Y-139363320D01*
X116326777Y-139363320D01*
X116394314Y-139371373D01*
X116518609Y-139386194D01*
X116524744Y-139385722D01*
X116524746Y-139385722D01*
X116711226Y-139371373D01*
X116711231Y-139371372D01*
X116717367Y-139370900D01*
X116723297Y-139369244D01*
X116723299Y-139369244D01*
X116813368Y-139344096D01*
X116909370Y-139317292D01*
X116914870Y-139314514D01*
X117081802Y-139230191D01*
X117081804Y-139230190D01*
X117087303Y-139227412D01*
X117244390Y-139104682D01*
X117250395Y-139097725D01*
X117370618Y-138958446D01*
X117370619Y-138958444D01*
X117374647Y-138953778D01*
X117473112Y-138780448D01*
X117536035Y-138591294D01*
X117541887Y-138544971D01*
X117560578Y-138397023D01*
X117560579Y-138397013D01*
X117561020Y-138393520D01*
X117561418Y-138365000D01*
X117541965Y-138166606D01*
X117510857Y-138063570D01*
X117510316Y-137992578D01*
X117542384Y-137938059D01*
X118833292Y-136647151D01*
X118843510Y-136627096D01*
X118853840Y-136610241D01*
X118861239Y-136600057D01*
X118867070Y-136592032D01*
X118871798Y-136577482D01*
X118874028Y-136570620D01*
X118881592Y-136552358D01*
X118887308Y-136541140D01*
X118887308Y-136541139D01*
X118891809Y-136532306D01*
X118895330Y-136510074D01*
X118899946Y-136490848D01*
X118903835Y-136478879D01*
X118906900Y-136469446D01*
X118906900Y-135354933D01*
X122145500Y-135354933D01*
X122145501Y-137205066D01*
X122152612Y-137240818D01*
X122155050Y-137253074D01*
X122160266Y-137279301D01*
X122216516Y-137363484D01*
X122300699Y-137419734D01*
X122374933Y-137434500D01*
X123299850Y-137434500D01*
X124225066Y-137434499D01*
X124260818Y-137427388D01*
X124287126Y-137422156D01*
X124287128Y-137422155D01*
X124299301Y-137419734D01*
X124309621Y-137412839D01*
X124309622Y-137412838D01*
X124373168Y-137370377D01*
X124383484Y-137363484D01*
X124439734Y-137279301D01*
X124454500Y-137205067D01*
X124454499Y-135354934D01*
X124439734Y-135280699D01*
X124429377Y-135265198D01*
X124390377Y-135206832D01*
X124383484Y-135196516D01*
X124299301Y-135140266D01*
X124225067Y-135125500D01*
X124174687Y-135125500D01*
X124106566Y-135105498D01*
X124060073Y-135051842D01*
X124049969Y-134981568D01*
X124075581Y-134921692D01*
X124093496Y-134898873D01*
X124086510Y-134885721D01*
X123312811Y-134112021D01*
X123298868Y-134104408D01*
X123297034Y-134104539D01*
X123290420Y-134108790D01*
X122510180Y-134889031D01*
X122503423Y-134901406D01*
X122520330Y-134923991D01*
X122545142Y-134990511D01*
X122530051Y-135059885D01*
X122479849Y-135110088D01*
X122419463Y-135125501D01*
X122374934Y-135125501D01*
X122339182Y-135132612D01*
X122312874Y-135137844D01*
X122312872Y-135137845D01*
X122300699Y-135140266D01*
X122290379Y-135147161D01*
X122290378Y-135147162D01*
X122240512Y-135180482D01*
X122216516Y-135196516D01*
X122160266Y-135280699D01*
X122145500Y-135354933D01*
X118906900Y-135354933D01*
X118906900Y-133710638D01*
X121887893Y-133710638D01*
X121900627Y-133931468D01*
X121902061Y-133941670D01*
X121950685Y-134157439D01*
X121953773Y-134167292D01*
X122036986Y-134372220D01*
X122041634Y-134381421D01*
X122130097Y-134525781D01*
X122140553Y-134535242D01*
X122149331Y-134531458D01*
X122927979Y-133752811D01*
X122934356Y-133741132D01*
X123664408Y-133741132D01*
X123664539Y-133742966D01*
X123668790Y-133749580D01*
X124446307Y-134527096D01*
X124458313Y-134533652D01*
X124470052Y-134524684D01*
X124508010Y-134471859D01*
X124513321Y-134463020D01*
X124611318Y-134264737D01*
X124615117Y-134255142D01*
X124679415Y-134043517D01*
X124681594Y-134033436D01*
X124710702Y-133812338D01*
X124711221Y-133805663D01*
X124712744Y-133743364D01*
X124712550Y-133736646D01*
X124694279Y-133514400D01*
X124692596Y-133504238D01*
X124638710Y-133289708D01*
X124635389Y-133279953D01*
X124547193Y-133077118D01*
X124542315Y-133068020D01*
X124469224Y-132955038D01*
X124458538Y-132945835D01*
X124448973Y-132950238D01*
X123672021Y-133727189D01*
X123664408Y-133741132D01*
X122934356Y-133741132D01*
X122935592Y-133738868D01*
X122935461Y-133737034D01*
X122931210Y-133730420D01*
X122153862Y-132953073D01*
X122142330Y-132946776D01*
X122130048Y-132956399D01*
X122074467Y-133037877D01*
X122069379Y-133046833D01*
X121976252Y-133247459D01*
X121972689Y-133257146D01*
X121913581Y-133470280D01*
X121911650Y-133480400D01*
X121888145Y-133700349D01*
X121887893Y-133710638D01*
X118906900Y-133710638D01*
X118906900Y-131169649D01*
X122140951Y-131169649D01*
X122154829Y-131381377D01*
X122207058Y-131587031D01*
X122209477Y-131592278D01*
X122284618Y-131755271D01*
X122295890Y-131779723D01*
X122418350Y-131953000D01*
X122422484Y-131957027D01*
X122548768Y-132080047D01*
X122570337Y-132101059D01*
X122575133Y-132104264D01*
X122575136Y-132104266D01*
X122646324Y-132151832D01*
X122746760Y-132218941D01*
X122748381Y-132219637D01*
X122797776Y-132268801D01*
X122813031Y-132338140D01*
X122788377Y-132404718D01*
X122745511Y-132441210D01*
X122551725Y-132542089D01*
X122543007Y-132547578D01*
X122513961Y-132569386D01*
X122505508Y-132580711D01*
X122512251Y-132593040D01*
X123287189Y-133367979D01*
X123301132Y-133375592D01*
X123302966Y-133375461D01*
X123309580Y-133371210D01*
X124088994Y-132591795D01*
X124096011Y-132578944D01*
X124088237Y-132568274D01*
X124085902Y-132566430D01*
X124077320Y-132560729D01*
X123883678Y-132453833D01*
X123874269Y-132449604D01*
X123865223Y-132446401D01*
X123807686Y-132404808D01*
X123781769Y-132338711D01*
X123795702Y-132269094D01*
X123845712Y-132217696D01*
X123956717Y-132155530D01*
X124119852Y-132019852D01*
X124255530Y-131856717D01*
X124258354Y-131851674D01*
X124258357Y-131851670D01*
X124356383Y-131676632D01*
X124356384Y-131676630D01*
X124359207Y-131671589D01*
X124427410Y-131470667D01*
X124439545Y-131386979D01*
X124457324Y-131264355D01*
X124457857Y-131260681D01*
X124459446Y-131200000D01*
X124440031Y-130988708D01*
X124382436Y-130784492D01*
X124288590Y-130594191D01*
X124161636Y-130424179D01*
X124137524Y-130401890D01*
X124010066Y-130284069D01*
X124010063Y-130284067D01*
X124005826Y-130280150D01*
X123826377Y-130166926D01*
X123629300Y-130088300D01*
X123623643Y-130087175D01*
X123623637Y-130087173D01*
X123426863Y-130048033D01*
X123426859Y-130048033D01*
X123421195Y-130046906D01*
X123415420Y-130046830D01*
X123415416Y-130046830D01*
X123308804Y-130045434D01*
X123209031Y-130044128D01*
X123203334Y-130045107D01*
X123203333Y-130045107D01*
X123186305Y-130048033D01*
X122999913Y-130080061D01*
X122800846Y-130153501D01*
X122795885Y-130156453D01*
X122795884Y-130156453D01*
X122623463Y-130259032D01*
X122623460Y-130259034D01*
X122618495Y-130261988D01*
X122614155Y-130265794D01*
X122614151Y-130265797D01*
X122463309Y-130398083D01*
X122458968Y-130401890D01*
X122327607Y-130568520D01*
X122228812Y-130756299D01*
X122165891Y-130958938D01*
X122140951Y-131169649D01*
X118906900Y-131169649D01*
X118906900Y-127728777D01*
X133015777Y-127728777D01*
X133025074Y-127740793D01*
X133068069Y-127770898D01*
X133077555Y-127776376D01*
X133268993Y-127865645D01*
X133279285Y-127869391D01*
X133483309Y-127924059D01*
X133494104Y-127925962D01*
X133704525Y-127944372D01*
X133715475Y-127944372D01*
X133925896Y-127925962D01*
X133936691Y-127924059D01*
X134140715Y-127869391D01*
X134151007Y-127865645D01*
X134342445Y-127776376D01*
X134351931Y-127770898D01*
X134395764Y-127740207D01*
X134404139Y-127729729D01*
X134397071Y-127716281D01*
X133722812Y-127042022D01*
X133708868Y-127034408D01*
X133707035Y-127034539D01*
X133700420Y-127038790D01*
X133022207Y-127717003D01*
X133015777Y-127728777D01*
X118906900Y-127728777D01*
X118906900Y-126993096D01*
X130640729Y-126993096D01*
X130645290Y-127034408D01*
X130656380Y-127134853D01*
X130658113Y-127150553D01*
X130660723Y-127157684D01*
X130660723Y-127157686D01*
X130695756Y-127253418D01*
X130712553Y-127299319D01*
X130716789Y-127305622D01*
X130716789Y-127305623D01*
X130721029Y-127311932D01*
X130800908Y-127430805D01*
X130806527Y-127435918D01*
X130806528Y-127435919D01*
X130912460Y-127532309D01*
X130918076Y-127537419D01*
X131057293Y-127613008D01*
X131210522Y-127653207D01*
X131294477Y-127654526D01*
X131361319Y-127655576D01*
X131361322Y-127655576D01*
X131368916Y-127655695D01*
X131523332Y-127620329D01*
X131605592Y-127578957D01*
X131658072Y-127552563D01*
X131658075Y-127552561D01*
X131664855Y-127549151D01*
X131670626Y-127544222D01*
X131670629Y-127544220D01*
X131779536Y-127451204D01*
X131779536Y-127451203D01*
X131785314Y-127446269D01*
X131877755Y-127317624D01*
X131936842Y-127170641D01*
X131959162Y-127013807D01*
X131959307Y-127000000D01*
X131957621Y-126986064D01*
X131969291Y-126916036D01*
X131993612Y-126881831D01*
X132225603Y-126649840D01*
X132287915Y-126615814D01*
X132358730Y-126620879D01*
X132415566Y-126663426D01*
X132440219Y-126727953D01*
X132454038Y-126885896D01*
X132455941Y-126896691D01*
X132510609Y-127100715D01*
X132514355Y-127111007D01*
X132603623Y-127302441D01*
X132609103Y-127311932D01*
X132639794Y-127355765D01*
X132650271Y-127364140D01*
X132663718Y-127357072D01*
X133620905Y-126399885D01*
X133683217Y-126365859D01*
X133754032Y-126370924D01*
X133799095Y-126399885D01*
X134757003Y-127357793D01*
X134768777Y-127364223D01*
X134780793Y-127354926D01*
X134810897Y-127311932D01*
X134816377Y-127302441D01*
X134905645Y-127111007D01*
X134909391Y-127100715D01*
X134964059Y-126896691D01*
X134965963Y-126885895D01*
X134981782Y-126705075D01*
X134997034Y-126666084D01*
X134982395Y-126636502D01*
X134980974Y-126625682D01*
X134965962Y-126454104D01*
X134964059Y-126443309D01*
X134909391Y-126239285D01*
X134905645Y-126228993D01*
X134816376Y-126037556D01*
X134810898Y-126028070D01*
X134703854Y-125875194D01*
X134681166Y-125807920D01*
X134698451Y-125739060D01*
X134750221Y-125690476D01*
X134807067Y-125676924D01*
X135505035Y-125676924D01*
X135573156Y-125696926D01*
X135619649Y-125750582D01*
X135629753Y-125820856D01*
X135600259Y-125885436D01*
X135583989Y-125901119D01*
X135535351Y-125940225D01*
X135407214Y-126092933D01*
X135311179Y-126267621D01*
X135309318Y-126273488D01*
X135309317Y-126273490D01*
X135301503Y-126298122D01*
X135250902Y-126457635D01*
X135240111Y-126553846D01*
X135231710Y-126628744D01*
X135216741Y-126664418D01*
X135230833Y-126691229D01*
X135232861Y-126705513D01*
X135235413Y-126735902D01*
X135245362Y-126854386D01*
X135257379Y-126896294D01*
X135283122Y-126986067D01*
X135300310Y-127046009D01*
X135303125Y-127051486D01*
X135364362Y-127170641D01*
X135391430Y-127223311D01*
X135515253Y-127379537D01*
X135667063Y-127508737D01*
X135672441Y-127511743D01*
X135672443Y-127511744D01*
X135724866Y-127541042D01*
X135841076Y-127605989D01*
X135846935Y-127607893D01*
X135846938Y-127607894D01*
X135874705Y-127616916D01*
X136030665Y-127667591D01*
X136036775Y-127668320D01*
X136036777Y-127668320D01*
X136104314Y-127676373D01*
X136228609Y-127691194D01*
X136234744Y-127690722D01*
X136234746Y-127690722D01*
X136421226Y-127676373D01*
X136421231Y-127676372D01*
X136427367Y-127675900D01*
X136433297Y-127674244D01*
X136433299Y-127674244D01*
X136523368Y-127649096D01*
X136619370Y-127622292D01*
X136630013Y-127616916D01*
X136791802Y-127535191D01*
X136791804Y-127535190D01*
X136797303Y-127532412D01*
X136954390Y-127409682D01*
X136976962Y-127383532D01*
X137080618Y-127263446D01*
X137080619Y-127263444D01*
X137084647Y-127258778D01*
X137183112Y-127085448D01*
X137246035Y-126896294D01*
X137254542Y-126828957D01*
X137270578Y-126702023D01*
X137270579Y-126702013D01*
X137271020Y-126698520D01*
X137271418Y-126670000D01*
X137251965Y-126471606D01*
X137250184Y-126465707D01*
X137250183Y-126465702D01*
X137196129Y-126286667D01*
X137194348Y-126280768D01*
X137147554Y-126192762D01*
X137103655Y-126110198D01*
X137103653Y-126110195D01*
X137100761Y-126104756D01*
X137096871Y-126099986D01*
X137096868Y-126099982D01*
X136978663Y-125955049D01*
X136978660Y-125955046D01*
X136974768Y-125950274D01*
X136914005Y-125900006D01*
X136874269Y-125841175D01*
X136872647Y-125770197D01*
X136909657Y-125709609D01*
X136973547Y-125678649D01*
X136994323Y-125676924D01*
X137169291Y-125676924D01*
X137237412Y-125696926D01*
X137258386Y-125713829D01*
X137787615Y-126243058D01*
X137821641Y-126305370D01*
X137818622Y-126370251D01*
X137790902Y-126457635D01*
X137768682Y-126655739D01*
X137785362Y-126854386D01*
X137797379Y-126896294D01*
X137823122Y-126986067D01*
X137840310Y-127046009D01*
X137843125Y-127051486D01*
X137904362Y-127170641D01*
X137931430Y-127223311D01*
X138055253Y-127379537D01*
X138207063Y-127508737D01*
X138212441Y-127511743D01*
X138212443Y-127511744D01*
X138264866Y-127541042D01*
X138381076Y-127605989D01*
X138386935Y-127607893D01*
X138386938Y-127607894D01*
X138414705Y-127616916D01*
X138570665Y-127667591D01*
X138576775Y-127668320D01*
X138576777Y-127668320D01*
X138644314Y-127676373D01*
X138768609Y-127691194D01*
X138774744Y-127690722D01*
X138774746Y-127690722D01*
X138961226Y-127676373D01*
X138961231Y-127676372D01*
X138967367Y-127675900D01*
X138973297Y-127674244D01*
X138973299Y-127674244D01*
X139063368Y-127649096D01*
X139159370Y-127622292D01*
X139170013Y-127616916D01*
X139331802Y-127535191D01*
X139331804Y-127535190D01*
X139337303Y-127532412D01*
X139494390Y-127409682D01*
X139516962Y-127383532D01*
X139620618Y-127263446D01*
X139620619Y-127263444D01*
X139624647Y-127258778D01*
X139723112Y-127085448D01*
X139786035Y-126896294D01*
X139794542Y-126828957D01*
X139810578Y-126702023D01*
X139810579Y-126702013D01*
X139811020Y-126698520D01*
X139811418Y-126670000D01*
X139791965Y-126471606D01*
X139790184Y-126465707D01*
X139790183Y-126465702D01*
X139736129Y-126286667D01*
X139734348Y-126280768D01*
X139687554Y-126192762D01*
X139643655Y-126110198D01*
X139643653Y-126110195D01*
X139640761Y-126104756D01*
X139636871Y-126099986D01*
X139636868Y-126099982D01*
X139518663Y-125955049D01*
X139518660Y-125955046D01*
X139514768Y-125950274D01*
X139499364Y-125937530D01*
X139388409Y-125845740D01*
X139361170Y-125823206D01*
X139185815Y-125728392D01*
X138995385Y-125669444D01*
X138989260Y-125668800D01*
X138989259Y-125668800D01*
X138803260Y-125649251D01*
X138803258Y-125649251D01*
X138797131Y-125648607D01*
X138713537Y-125656215D01*
X138604744Y-125666115D01*
X138604741Y-125666116D01*
X138598605Y-125666674D01*
X138592695Y-125668413D01*
X138592692Y-125668414D01*
X138563779Y-125676924D01*
X138487662Y-125699327D01*
X138416666Y-125699373D01*
X138362992Y-125667549D01*
X138057038Y-125361595D01*
X138023012Y-125299283D01*
X138028077Y-125228468D01*
X138070624Y-125171632D01*
X138137144Y-125146821D01*
X138146133Y-125146500D01*
X139511852Y-125146499D01*
X139577066Y-125146499D01*
X139612818Y-125139388D01*
X139639126Y-125134156D01*
X139639128Y-125134155D01*
X139651301Y-125131734D01*
X139661621Y-125124839D01*
X139661622Y-125124838D01*
X139725168Y-125082377D01*
X139735484Y-125075484D01*
X139791734Y-124991301D01*
X139806500Y-124917067D01*
X139806499Y-123342934D01*
X139795401Y-123287135D01*
X139794156Y-123280874D01*
X139794155Y-123280872D01*
X139791734Y-123268699D01*
X139771117Y-123237843D01*
X139742377Y-123194832D01*
X139735484Y-123184516D01*
X139651301Y-123128266D01*
X139577067Y-123113500D01*
X138790128Y-123113500D01*
X138002934Y-123113501D01*
X137967182Y-123120612D01*
X137940874Y-123125844D01*
X137940872Y-123125845D01*
X137928699Y-123128266D01*
X137918379Y-123135161D01*
X137918378Y-123135162D01*
X137901756Y-123146269D01*
X137844516Y-123184516D01*
X137788266Y-123268699D01*
X137773500Y-123342933D01*
X137773501Y-124126513D01*
X137773501Y-124799176D01*
X137753499Y-124867297D01*
X137699843Y-124913790D01*
X137629569Y-124923894D01*
X137590296Y-124911442D01*
X137585081Y-124908785D01*
X137577056Y-124902954D01*
X137567623Y-124899889D01*
X137567621Y-124899888D01*
X137555644Y-124895996D01*
X137537382Y-124888432D01*
X137526164Y-124882716D01*
X137526163Y-124882716D01*
X137517330Y-124878215D01*
X137495098Y-124874694D01*
X137475872Y-124870078D01*
X137463903Y-124866189D01*
X137454470Y-124863124D01*
X137219137Y-124863124D01*
X137151016Y-124843122D01*
X137104523Y-124789466D01*
X137094419Y-124719192D01*
X137109580Y-124674888D01*
X137180067Y-124550808D01*
X137183112Y-124545448D01*
X137246035Y-124356294D01*
X137255312Y-124282858D01*
X137270578Y-124162023D01*
X137270579Y-124162013D01*
X137271020Y-124158520D01*
X137271418Y-124130000D01*
X137251965Y-123931606D01*
X137250184Y-123925707D01*
X137250183Y-123925702D01*
X137196129Y-123746667D01*
X137194348Y-123740768D01*
X137100761Y-123564756D01*
X137096871Y-123559986D01*
X137096868Y-123559982D01*
X136978663Y-123415049D01*
X136978660Y-123415046D01*
X136974768Y-123410274D01*
X136821170Y-123283206D01*
X136645815Y-123188392D01*
X136455385Y-123129444D01*
X136449260Y-123128800D01*
X136449259Y-123128800D01*
X136263260Y-123109251D01*
X136263258Y-123109251D01*
X136257131Y-123108607D01*
X136134252Y-123119790D01*
X136064746Y-123126115D01*
X136064745Y-123126115D01*
X136058605Y-123126674D01*
X136052691Y-123128415D01*
X136052689Y-123128415D01*
X135992027Y-123146269D01*
X135867370Y-123182958D01*
X135690709Y-123275314D01*
X135685909Y-123279174D01*
X135685908Y-123279174D01*
X135683796Y-123280872D01*
X135535351Y-123400225D01*
X135407214Y-123552933D01*
X135311179Y-123727621D01*
X135250902Y-123917635D01*
X135228682Y-124115739D01*
X135245362Y-124314386D01*
X135300310Y-124506009D01*
X135387101Y-124674888D01*
X135389487Y-124679530D01*
X135402834Y-124749261D01*
X135376364Y-124815138D01*
X135318479Y-124856246D01*
X135277420Y-124863124D01*
X134679137Y-124863124D01*
X134611016Y-124843122D01*
X134564523Y-124789466D01*
X134554419Y-124719192D01*
X134569580Y-124674888D01*
X134640067Y-124550808D01*
X134643112Y-124545448D01*
X134706035Y-124356294D01*
X134715312Y-124282858D01*
X134730578Y-124162023D01*
X134730579Y-124162013D01*
X134731020Y-124158520D01*
X134731418Y-124130000D01*
X134711965Y-123931606D01*
X134710184Y-123925707D01*
X134710183Y-123925702D01*
X134656129Y-123746667D01*
X134654348Y-123740768D01*
X134560761Y-123564756D01*
X134556871Y-123559986D01*
X134556868Y-123559982D01*
X134438663Y-123415049D01*
X134438660Y-123415046D01*
X134434768Y-123410274D01*
X134281170Y-123283206D01*
X134105815Y-123188392D01*
X133915385Y-123129444D01*
X133909260Y-123128800D01*
X133909259Y-123128800D01*
X133723260Y-123109251D01*
X133723258Y-123109251D01*
X133717131Y-123108607D01*
X133594252Y-123119790D01*
X133524746Y-123126115D01*
X133524745Y-123126115D01*
X133518605Y-123126674D01*
X133512691Y-123128415D01*
X133512689Y-123128415D01*
X133452027Y-123146269D01*
X133327370Y-123182958D01*
X133150709Y-123275314D01*
X133145909Y-123279174D01*
X133145908Y-123279174D01*
X133143796Y-123280872D01*
X132995351Y-123400225D01*
X132867214Y-123552933D01*
X132771179Y-123727621D01*
X132710902Y-123917635D01*
X132688682Y-124115739D01*
X132705362Y-124314386D01*
X132760310Y-124506009D01*
X132851430Y-124683311D01*
X132855256Y-124688138D01*
X132878359Y-124717287D01*
X132904996Y-124783097D01*
X132891825Y-124852861D01*
X132842415Y-124902225D01*
X132842944Y-124902954D01*
X132838330Y-124906306D01*
X132838329Y-124906307D01*
X132834919Y-124908785D01*
X132824735Y-124916184D01*
X132807880Y-124926514D01*
X132787825Y-124936732D01*
X131415864Y-126308693D01*
X131353552Y-126342719D01*
X131326112Y-126345596D01*
X131224221Y-126345062D01*
X131216841Y-126346834D01*
X131216839Y-126346834D01*
X131077563Y-126380271D01*
X131077560Y-126380272D01*
X131070184Y-126382043D01*
X130929414Y-126454700D01*
X130923695Y-126459689D01*
X130919036Y-126463753D01*
X130810039Y-126558838D01*
X130718950Y-126688444D01*
X130661406Y-126836037D01*
X130660414Y-126843570D01*
X130660414Y-126843571D01*
X130652703Y-126902146D01*
X130640729Y-126993096D01*
X118906900Y-126993096D01*
X118906900Y-122693096D01*
X140240729Y-122693096D01*
X140258113Y-122850553D01*
X140312553Y-122999319D01*
X140316789Y-123005622D01*
X140316789Y-123005623D01*
X140390218Y-123114896D01*
X140400908Y-123130805D01*
X140406527Y-123135918D01*
X140406528Y-123135919D01*
X140451899Y-123177203D01*
X140488822Y-123237843D01*
X140493100Y-123270397D01*
X140493100Y-127225117D01*
X140473098Y-127293238D01*
X140463475Y-127305841D01*
X140460039Y-127308838D01*
X140368950Y-127438444D01*
X140311406Y-127586037D01*
X140310414Y-127593570D01*
X140310414Y-127593571D01*
X140291726Y-127735524D01*
X140290729Y-127743096D01*
X140297146Y-127801219D01*
X140304673Y-127869391D01*
X140308113Y-127900553D01*
X140310723Y-127907684D01*
X140310723Y-127907686D01*
X140356299Y-128032228D01*
X140362553Y-128049319D01*
X140450908Y-128180805D01*
X140456527Y-128185918D01*
X140456528Y-128185919D01*
X140562460Y-128282309D01*
X140568076Y-128287419D01*
X140707293Y-128363008D01*
X140860522Y-128403207D01*
X140944477Y-128404526D01*
X141011319Y-128405576D01*
X141011322Y-128405576D01*
X141018916Y-128405695D01*
X141173332Y-128370329D01*
X141227480Y-128343096D01*
X150590729Y-128343096D01*
X150608113Y-128500553D01*
X150610723Y-128507684D01*
X150610723Y-128507686D01*
X150634511Y-128572689D01*
X150662553Y-128649319D01*
X150666789Y-128655622D01*
X150666789Y-128655623D01*
X150746640Y-128774453D01*
X150750908Y-128780805D01*
X150756527Y-128785918D01*
X150756528Y-128785919D01*
X150836071Y-128858297D01*
X150868076Y-128887419D01*
X151007293Y-128963008D01*
X151160522Y-129003207D01*
X151244477Y-129004526D01*
X151311319Y-129005576D01*
X151311322Y-129005576D01*
X151318916Y-129005695D01*
X151473332Y-128970329D01*
X151581271Y-128916042D01*
X151608072Y-128902563D01*
X151608075Y-128902561D01*
X151614855Y-128899151D01*
X151620626Y-128894222D01*
X151620629Y-128894220D01*
X151706043Y-128821269D01*
X151716791Y-128812089D01*
X151781581Y-128783058D01*
X151798622Y-128781900D01*
X155875891Y-128781900D01*
X155944012Y-128801902D01*
X155960690Y-128814706D01*
X156053495Y-128899151D01*
X156068076Y-128912419D01*
X156207293Y-128988008D01*
X156360522Y-129028207D01*
X156444477Y-129029526D01*
X156511319Y-129030576D01*
X156511322Y-129030576D01*
X156518916Y-129030695D01*
X156673332Y-128995329D01*
X156744799Y-128959385D01*
X156808072Y-128927563D01*
X156808075Y-128927561D01*
X156814855Y-128924151D01*
X156820626Y-128919222D01*
X156820629Y-128919220D01*
X156929536Y-128826204D01*
X156929536Y-128826203D01*
X156935314Y-128821269D01*
X157027755Y-128692624D01*
X157086842Y-128545641D01*
X157109162Y-128388807D01*
X157109307Y-128375000D01*
X157090276Y-128217733D01*
X157034280Y-128069546D01*
X156972999Y-127980381D01*
X156948855Y-127945251D01*
X156948854Y-127945249D01*
X156944553Y-127938992D01*
X156931874Y-127927695D01*
X156862229Y-127865645D01*
X156826275Y-127833611D01*
X156818889Y-127829700D01*
X156702152Y-127767891D01*
X156686274Y-127759484D01*
X156532633Y-127720892D01*
X156525034Y-127720852D01*
X156525033Y-127720852D01*
X156459181Y-127720507D01*
X156374221Y-127720062D01*
X156366841Y-127721834D01*
X156366839Y-127721834D01*
X156227563Y-127755271D01*
X156227560Y-127755272D01*
X156220184Y-127757043D01*
X156079414Y-127829700D01*
X155960039Y-127933838D01*
X155958591Y-127932178D01*
X155907512Y-127963649D01*
X155874318Y-127968100D01*
X151847930Y-127968100D01*
X151779809Y-127948098D01*
X151753415Y-127925424D01*
X151748855Y-127920251D01*
X151744553Y-127913992D01*
X151626275Y-127808611D01*
X151618889Y-127804700D01*
X151535455Y-127760524D01*
X151486274Y-127734484D01*
X151332633Y-127695892D01*
X151325034Y-127695852D01*
X151325033Y-127695852D01*
X151259181Y-127695507D01*
X151174221Y-127695062D01*
X151166841Y-127696834D01*
X151166839Y-127696834D01*
X151027563Y-127730271D01*
X151027560Y-127730272D01*
X151020184Y-127732043D01*
X150879414Y-127804700D01*
X150760039Y-127908838D01*
X150668950Y-128038444D01*
X150611406Y-128186037D01*
X150610414Y-128193570D01*
X150610414Y-128193571D01*
X150597164Y-128294220D01*
X150590729Y-128343096D01*
X141227480Y-128343096D01*
X141243742Y-128334917D01*
X141308072Y-128302563D01*
X141308075Y-128302561D01*
X141314855Y-128299151D01*
X141320626Y-128294222D01*
X141320629Y-128294220D01*
X141429536Y-128201204D01*
X141429536Y-128201203D01*
X141435314Y-128196269D01*
X141527755Y-128067624D01*
X141586842Y-127920641D01*
X141609162Y-127763807D01*
X141609307Y-127750000D01*
X141590276Y-127592733D01*
X141534280Y-127444546D01*
X141507113Y-127405018D01*
X141448855Y-127320251D01*
X141448854Y-127320249D01*
X141444553Y-127313992D01*
X141435160Y-127305623D01*
X141349081Y-127228930D01*
X141311525Y-127168679D01*
X141306900Y-127134853D01*
X141306900Y-123271328D01*
X141326902Y-123203207D01*
X141351070Y-123175517D01*
X141379532Y-123151208D01*
X141379535Y-123151205D01*
X141385314Y-123146269D01*
X141477755Y-123017624D01*
X141536842Y-122870641D01*
X141542965Y-122827615D01*
X141558581Y-122717891D01*
X141558581Y-122717888D01*
X141559162Y-122713807D01*
X141559307Y-122700000D01*
X141540276Y-122542733D01*
X141484280Y-122394546D01*
X141394553Y-122263992D01*
X141276275Y-122158611D01*
X141268889Y-122154700D01*
X141142988Y-122088039D01*
X141142989Y-122088039D01*
X141136274Y-122084484D01*
X140982633Y-122045892D01*
X140975034Y-122045852D01*
X140975033Y-122045852D01*
X140909181Y-122045507D01*
X140824221Y-122045062D01*
X140816841Y-122046834D01*
X140816839Y-122046834D01*
X140677563Y-122080271D01*
X140677560Y-122080272D01*
X140670184Y-122082043D01*
X140529414Y-122154700D01*
X140410039Y-122258838D01*
X140318950Y-122388444D01*
X140316190Y-122395524D01*
X140273975Y-122503800D01*
X140261406Y-122536037D01*
X140260414Y-122543570D01*
X140260414Y-122543571D01*
X140253366Y-122597111D01*
X140240729Y-122693096D01*
X118906900Y-122693096D01*
X118906900Y-114674933D01*
X150695500Y-114674933D01*
X150695501Y-117125066D01*
X150710266Y-117199301D01*
X150766516Y-117283484D01*
X150850699Y-117339734D01*
X150924933Y-117354500D01*
X152149802Y-117354500D01*
X153375066Y-117354499D01*
X153411940Y-117347165D01*
X153437126Y-117342156D01*
X153437128Y-117342155D01*
X153449301Y-117339734D01*
X153459621Y-117332839D01*
X153459622Y-117332838D01*
X153523168Y-117290377D01*
X153533484Y-117283484D01*
X153589734Y-117199301D01*
X153604500Y-117125067D01*
X153604499Y-114674934D01*
X153589734Y-114600699D01*
X153560192Y-114556486D01*
X153540377Y-114526832D01*
X153533484Y-114516516D01*
X153449301Y-114460266D01*
X153375067Y-114445500D01*
X152150199Y-114445500D01*
X150924934Y-114445501D01*
X150889182Y-114452612D01*
X150862874Y-114457844D01*
X150862872Y-114457845D01*
X150850699Y-114460266D01*
X150840379Y-114467161D01*
X150840378Y-114467162D01*
X150779985Y-114507516D01*
X150766516Y-114516516D01*
X150710266Y-114600699D01*
X150695500Y-114674933D01*
X118906900Y-114674933D01*
X118906900Y-112260554D01*
X118899946Y-112239152D01*
X118895330Y-112219926D01*
X118893360Y-112207487D01*
X118891809Y-112197694D01*
X118881592Y-112177641D01*
X118874028Y-112159380D01*
X118870136Y-112147403D01*
X118870135Y-112147401D01*
X118867070Y-112137968D01*
X118853840Y-112119759D01*
X118843508Y-112102900D01*
X118837795Y-112091687D01*
X118833292Y-112082849D01*
X117857775Y-111107332D01*
X174758580Y-111107332D01*
X174765635Y-111117305D01*
X174799534Y-111145648D01*
X174806471Y-111150688D01*
X175033893Y-111293350D01*
X175041444Y-111297399D01*
X175286135Y-111407880D01*
X175294166Y-111410867D01*
X175551585Y-111487119D01*
X175559936Y-111488986D01*
X175825327Y-111529596D01*
X175833861Y-111530312D01*
X176102304Y-111534530D01*
X176110855Y-111534081D01*
X176377391Y-111501827D01*
X176385791Y-111500225D01*
X176645497Y-111432092D01*
X176653599Y-111429365D01*
X176901650Y-111326619D01*
X176909312Y-111322816D01*
X177141124Y-111187356D01*
X177148189Y-111182555D01*
X177231751Y-111117033D01*
X177240220Y-111105176D01*
X177233703Y-111093553D01*
X176012812Y-109872662D01*
X175998868Y-109865048D01*
X175997035Y-109865179D01*
X175990420Y-109869430D01*
X174765872Y-111093978D01*
X174758580Y-111107332D01*
X117857775Y-111107332D01*
X117542562Y-110792119D01*
X117508536Y-110729807D01*
X117512098Y-110663253D01*
X117534090Y-110597142D01*
X117534091Y-110597139D01*
X117536035Y-110591294D01*
X117543324Y-110533597D01*
X117560578Y-110397023D01*
X117560579Y-110397013D01*
X117561020Y-110393520D01*
X117561418Y-110365000D01*
X117541965Y-110166606D01*
X117540184Y-110160707D01*
X117540183Y-110160702D01*
X117486129Y-109981667D01*
X117484348Y-109975768D01*
X117424846Y-109863860D01*
X117393655Y-109805198D01*
X117393653Y-109805195D01*
X117390761Y-109799756D01*
X117386871Y-109794986D01*
X117386868Y-109794982D01*
X117369233Y-109773359D01*
X151141386Y-109773359D01*
X151150099Y-109784879D01*
X151238586Y-109849760D01*
X151246505Y-109854708D01*
X151462877Y-109968547D01*
X151471451Y-109972275D01*
X151702282Y-110052885D01*
X151711291Y-110055299D01*
X151951518Y-110100908D01*
X151960775Y-110101962D01*
X152205107Y-110111563D01*
X152214420Y-110111237D01*
X152457478Y-110084618D01*
X152466655Y-110082917D01*
X152703107Y-110020665D01*
X152711926Y-110017628D01*
X152936584Y-109921107D01*
X152944856Y-109916800D01*
X153152777Y-109788135D01*
X153154620Y-109786796D01*
X153162038Y-109775541D01*
X153155974Y-109765184D01*
X152874382Y-109483592D01*
X173963611Y-109483592D01*
X173979065Y-109751625D01*
X173980138Y-109760124D01*
X174031829Y-110023588D01*
X174034040Y-110031840D01*
X174121008Y-110285856D01*
X174124323Y-110293741D01*
X174244958Y-110533597D01*
X174249313Y-110540961D01*
X174382089Y-110734150D01*
X174392343Y-110742493D01*
X174406082Y-110735348D01*
X175627978Y-109513452D01*
X175634356Y-109501772D01*
X176364408Y-109501772D01*
X176364539Y-109503605D01*
X176368790Y-109510220D01*
X177592898Y-110734328D01*
X177605107Y-110740995D01*
X177616607Y-110732305D01*
X177717142Y-110595443D01*
X177721729Y-110588215D01*
X177849835Y-110352275D01*
X177853403Y-110344481D01*
X177948301Y-110093343D01*
X177950778Y-110085137D01*
X178010714Y-109823442D01*
X178012054Y-109814982D01*
X178036081Y-109545759D01*
X178036327Y-109540820D01*
X178036722Y-109503124D01*
X178036579Y-109498160D01*
X178018196Y-109228499D01*
X178017035Y-109220025D01*
X177962590Y-108957124D01*
X177960286Y-108948870D01*
X177870666Y-108695791D01*
X177867270Y-108687943D01*
X177744126Y-108449357D01*
X177739698Y-108442045D01*
X177617258Y-108267830D01*
X177606736Y-108259450D01*
X177593348Y-108266502D01*
X176372022Y-109487828D01*
X176364408Y-109501772D01*
X175634356Y-109501772D01*
X175635592Y-109499508D01*
X175635461Y-109497675D01*
X175631210Y-109491060D01*
X174406617Y-108266467D01*
X174394607Y-108259908D01*
X174382868Y-108268876D01*
X174271491Y-108423874D01*
X174266969Y-108431168D01*
X174141349Y-108668423D01*
X174137863Y-108676251D01*
X174045599Y-108928374D01*
X174043210Y-108936597D01*
X173986015Y-109198920D01*
X173984766Y-109207376D01*
X173963700Y-109475042D01*
X173963611Y-109483592D01*
X152874382Y-109483592D01*
X152162812Y-108772022D01*
X152148868Y-108764408D01*
X152147035Y-108764539D01*
X152140420Y-108768790D01*
X151148044Y-109761166D01*
X151141386Y-109773359D01*
X117369233Y-109773359D01*
X117268663Y-109650049D01*
X117268660Y-109650046D01*
X117264768Y-109645274D01*
X117111170Y-109518206D01*
X116935815Y-109423392D01*
X116745385Y-109364444D01*
X116739260Y-109363800D01*
X116739259Y-109363800D01*
X116553260Y-109344251D01*
X116553258Y-109344251D01*
X116547131Y-109343607D01*
X116424252Y-109354790D01*
X116354746Y-109361115D01*
X116354745Y-109361115D01*
X116348605Y-109361674D01*
X116342691Y-109363415D01*
X116342689Y-109363415D01*
X116224172Y-109398297D01*
X116157370Y-109417958D01*
X115980709Y-109510314D01*
X115975909Y-109514174D01*
X115975908Y-109514174D01*
X115973872Y-109515811D01*
X115825351Y-109635225D01*
X115697214Y-109787933D01*
X115601179Y-109962621D01*
X115599318Y-109968488D01*
X115599317Y-109968490D01*
X115597008Y-109975768D01*
X115540902Y-110152635D01*
X115518682Y-110350739D01*
X115535362Y-110549386D01*
X115553938Y-110614166D01*
X115587098Y-110729807D01*
X115590310Y-110741009D01*
X115593125Y-110746486D01*
X115672722Y-110901366D01*
X115681430Y-110918311D01*
X115805253Y-111074537D01*
X115957063Y-111203737D01*
X115962441Y-111206743D01*
X115962443Y-111206744D01*
X116042824Y-111251667D01*
X116131076Y-111300989D01*
X116136935Y-111302893D01*
X116136938Y-111302894D01*
X116181251Y-111317292D01*
X116320665Y-111362591D01*
X116326775Y-111363320D01*
X116326777Y-111363320D01*
X116394314Y-111371373D01*
X116518609Y-111386194D01*
X116524744Y-111385722D01*
X116524746Y-111385722D01*
X116711226Y-111371373D01*
X116711231Y-111371372D01*
X116717367Y-111370900D01*
X116723301Y-111369243D01*
X116723308Y-111369242D01*
X116844301Y-111335460D01*
X116915291Y-111336406D01*
X116967280Y-111367723D01*
X118056195Y-112456638D01*
X118090221Y-112518950D01*
X118093100Y-112545733D01*
X118093100Y-136184267D01*
X118073098Y-136252388D01*
X118056195Y-136273362D01*
X116966920Y-137362637D01*
X116904608Y-137396663D01*
X116840566Y-137393907D01*
X116794815Y-137379745D01*
X116745385Y-137364444D01*
X116739260Y-137363800D01*
X116739259Y-137363800D01*
X116553260Y-137344251D01*
X116553258Y-137344251D01*
X116547131Y-137343607D01*
X116442072Y-137353168D01*
X116354746Y-137361115D01*
X116354745Y-137361115D01*
X116348605Y-137361674D01*
X116342691Y-137363415D01*
X116342689Y-137363415D01*
X116235537Y-137394952D01*
X116157370Y-137417958D01*
X116151905Y-137420815D01*
X116016874Y-137491407D01*
X115947238Y-137505241D01*
X115881178Y-137479231D01*
X115839666Y-137421635D01*
X115832499Y-137379745D01*
X115832499Y-136808882D01*
X115852501Y-136740761D01*
X115906157Y-136694268D01*
X115976431Y-136684164D01*
X116019970Y-136698894D01*
X116131076Y-136760989D01*
X116136935Y-136762893D01*
X116136938Y-136762894D01*
X116181251Y-136777292D01*
X116320665Y-136822591D01*
X116326775Y-136823320D01*
X116326777Y-136823320D01*
X116394314Y-136831373D01*
X116518609Y-136846194D01*
X116524744Y-136845722D01*
X116524746Y-136845722D01*
X116711226Y-136831373D01*
X116711231Y-136831372D01*
X116717367Y-136830900D01*
X116723297Y-136829244D01*
X116723299Y-136829244D01*
X116813369Y-136804096D01*
X116909370Y-136777292D01*
X116918435Y-136772713D01*
X117081802Y-136690191D01*
X117081804Y-136690190D01*
X117087303Y-136687412D01*
X117244390Y-136564682D01*
X117272336Y-136532306D01*
X117370618Y-136418446D01*
X117370619Y-136418444D01*
X117374647Y-136413778D01*
X117473112Y-136240448D01*
X117536035Y-136051294D01*
X117560112Y-135860708D01*
X117560578Y-135857023D01*
X117560579Y-135857013D01*
X117561020Y-135853520D01*
X117561418Y-135825000D01*
X117541965Y-135626606D01*
X117540184Y-135620707D01*
X117540183Y-135620702D01*
X117486129Y-135441667D01*
X117484348Y-135435768D01*
X117390761Y-135259756D01*
X117386871Y-135254986D01*
X117386868Y-135254982D01*
X117268663Y-135110049D01*
X117268660Y-135110046D01*
X117264768Y-135105274D01*
X117209903Y-135059885D01*
X117126044Y-134990511D01*
X117111170Y-134978206D01*
X116935815Y-134883392D01*
X116745385Y-134824444D01*
X116739260Y-134823800D01*
X116739259Y-134823800D01*
X116553260Y-134804251D01*
X116553258Y-134804251D01*
X116547131Y-134803607D01*
X116424252Y-134814790D01*
X116354746Y-134821115D01*
X116354745Y-134821115D01*
X116348605Y-134821674D01*
X116342691Y-134823415D01*
X116342689Y-134823415D01*
X116212539Y-134861721D01*
X116157370Y-134877958D01*
X116151905Y-134880815D01*
X116016874Y-134951407D01*
X115947238Y-134965241D01*
X115881178Y-134939231D01*
X115839666Y-134881635D01*
X115832499Y-134839745D01*
X115832499Y-114240134D01*
X115852501Y-114172013D01*
X115869404Y-114151039D01*
X116112992Y-113907451D01*
X116175304Y-113873425D01*
X116241022Y-113876713D01*
X116320665Y-113902591D01*
X116326775Y-113903320D01*
X116326777Y-113903320D01*
X116394314Y-113911373D01*
X116518609Y-113926194D01*
X116524744Y-113925722D01*
X116524746Y-113925722D01*
X116711226Y-113911373D01*
X116711231Y-113911372D01*
X116717367Y-113910900D01*
X116723297Y-113909244D01*
X116723299Y-113909244D01*
X116813369Y-113884096D01*
X116909370Y-113857292D01*
X116918158Y-113852853D01*
X117081802Y-113770191D01*
X117081804Y-113770190D01*
X117087303Y-113767412D01*
X117244390Y-113644682D01*
X117269840Y-113615198D01*
X117370618Y-113498446D01*
X117370619Y-113498444D01*
X117374647Y-113493778D01*
X117473112Y-113320448D01*
X117536035Y-113131294D01*
X117542105Y-113083247D01*
X117560578Y-112937023D01*
X117560579Y-112937013D01*
X117561020Y-112933520D01*
X117561418Y-112905000D01*
X117541965Y-112706606D01*
X117540184Y-112700707D01*
X117540183Y-112700702D01*
X117486129Y-112521667D01*
X117484348Y-112515768D01*
X117411349Y-112378476D01*
X117393655Y-112345198D01*
X117393653Y-112345195D01*
X117390761Y-112339756D01*
X117386871Y-112334986D01*
X117386868Y-112334982D01*
X117268663Y-112190049D01*
X117268660Y-112190046D01*
X117264768Y-112185274D01*
X117111170Y-112058206D01*
X116935815Y-111963392D01*
X116745385Y-111904444D01*
X116739260Y-111903800D01*
X116739259Y-111903800D01*
X116553260Y-111884251D01*
X116553258Y-111884251D01*
X116547131Y-111883607D01*
X116424252Y-111894790D01*
X116354746Y-111901115D01*
X116354745Y-111901115D01*
X116348605Y-111901674D01*
X116342691Y-111903415D01*
X116342689Y-111903415D01*
X116212539Y-111941721D01*
X116157370Y-111957958D01*
X115980709Y-112050314D01*
X115975909Y-112054174D01*
X115975908Y-112054174D01*
X115973872Y-112055811D01*
X115825351Y-112175225D01*
X115697214Y-112327933D01*
X115601179Y-112502621D01*
X115540902Y-112692635D01*
X115518682Y-112890739D01*
X115535362Y-113089386D01*
X115537059Y-113095305D01*
X115537060Y-113095309D01*
X115569459Y-113208297D01*
X115569008Y-113279292D01*
X115537435Y-113332122D01*
X115113158Y-113756399D01*
X115050846Y-113790425D01*
X114980031Y-113785360D01*
X114923195Y-113742813D01*
X114912812Y-113726457D01*
X114853655Y-113615198D01*
X114853653Y-113615195D01*
X114850761Y-113609756D01*
X114846871Y-113604986D01*
X114846868Y-113604982D01*
X114728663Y-113460049D01*
X114728660Y-113460046D01*
X114724768Y-113455274D01*
X114571170Y-113328206D01*
X114395815Y-113233392D01*
X114205385Y-113174444D01*
X114199260Y-113173800D01*
X114199259Y-113173800D01*
X114013260Y-113154251D01*
X114013258Y-113154251D01*
X114007131Y-113153607D01*
X113884252Y-113164790D01*
X113814746Y-113171115D01*
X113814745Y-113171115D01*
X113808605Y-113171674D01*
X113802691Y-113173415D01*
X113802689Y-113173415D01*
X113684172Y-113208297D01*
X113617370Y-113227958D01*
X113440709Y-113320314D01*
X113435909Y-113324174D01*
X113435908Y-113324174D01*
X113433872Y-113325811D01*
X113285351Y-113445225D01*
X113157214Y-113597933D01*
X113061179Y-113772621D01*
X113059318Y-113778488D01*
X113059317Y-113778490D01*
X113035727Y-113852853D01*
X113000902Y-113962635D01*
X112978682Y-114160739D01*
X112995362Y-114359386D01*
X113005497Y-114394729D01*
X113038443Y-114509623D01*
X113050310Y-114551009D01*
X113053125Y-114556486D01*
X113121687Y-114689894D01*
X113141430Y-114728311D01*
X113265253Y-114884537D01*
X113417063Y-115013737D01*
X113422441Y-115016743D01*
X113422443Y-115016744D01*
X113464397Y-115040191D01*
X113591076Y-115110989D01*
X113596935Y-115112893D01*
X113596938Y-115112894D01*
X113632701Y-115124514D01*
X113780665Y-115172591D01*
X113786775Y-115173320D01*
X113786777Y-115173320D01*
X113854314Y-115181373D01*
X113978609Y-115196194D01*
X113984744Y-115195722D01*
X113984746Y-115195722D01*
X114171226Y-115181373D01*
X114171231Y-115181372D01*
X114177367Y-115180900D01*
X114183297Y-115179244D01*
X114183299Y-115179244D01*
X114273368Y-115154096D01*
X114369370Y-115127292D01*
X114374870Y-115124514D01*
X114541802Y-115040191D01*
X114541804Y-115040190D01*
X114547303Y-115037412D01*
X114704390Y-114914682D01*
X114730411Y-114884537D01*
X114797318Y-114807024D01*
X114856971Y-114768527D01*
X114927967Y-114768392D01*
X114987766Y-114806661D01*
X115017382Y-114871186D01*
X115018699Y-114889355D01*
X115018699Y-136381819D01*
X114998697Y-136449940D01*
X114945041Y-136496433D01*
X114874767Y-136506537D01*
X114810187Y-136477043D01*
X114795056Y-136461455D01*
X114728663Y-136380050D01*
X114724768Y-136375274D01*
X114700958Y-136355576D01*
X114575918Y-136252134D01*
X114575919Y-136252134D01*
X114571170Y-136248206D01*
X114565753Y-136245277D01*
X114565750Y-136245275D01*
X114472972Y-136195111D01*
X114422563Y-136145116D01*
X114406900Y-136084275D01*
X114406900Y-119435553D01*
X114399946Y-119414150D01*
X114395332Y-119394930D01*
X114393361Y-119382490D01*
X114393360Y-119382487D01*
X114391809Y-119372694D01*
X114381590Y-119352638D01*
X114374025Y-119334375D01*
X114367070Y-119312968D01*
X114353840Y-119294759D01*
X114343508Y-119277900D01*
X114337795Y-119266687D01*
X114333292Y-119257849D01*
X112443805Y-117368362D01*
X112409779Y-117306050D01*
X112406900Y-117279267D01*
X112406900Y-111620739D01*
X112978682Y-111620739D01*
X112995362Y-111819386D01*
X113013938Y-111884166D01*
X113035098Y-111957958D01*
X113050310Y-112011009D01*
X113053125Y-112016486D01*
X113132722Y-112171366D01*
X113141430Y-112188311D01*
X113265253Y-112344537D01*
X113417063Y-112473737D01*
X113422441Y-112476743D01*
X113422443Y-112476744D01*
X113502824Y-112521667D01*
X113591076Y-112570989D01*
X113596935Y-112572893D01*
X113596938Y-112572894D01*
X113632701Y-112584514D01*
X113780665Y-112632591D01*
X113786775Y-112633320D01*
X113786777Y-112633320D01*
X113854314Y-112641373D01*
X113978609Y-112656194D01*
X113984744Y-112655722D01*
X113984746Y-112655722D01*
X114171226Y-112641373D01*
X114171231Y-112641372D01*
X114177367Y-112640900D01*
X114183297Y-112639244D01*
X114183299Y-112639244D01*
X114273368Y-112614096D01*
X114369370Y-112587292D01*
X114374870Y-112584514D01*
X114541802Y-112500191D01*
X114541804Y-112500190D01*
X114547303Y-112497412D01*
X114704390Y-112374682D01*
X114729840Y-112345198D01*
X114830618Y-112228446D01*
X114830619Y-112228444D01*
X114834647Y-112223778D01*
X114933112Y-112050448D01*
X114996035Y-111861294D01*
X115002105Y-111813247D01*
X115020578Y-111667023D01*
X115020579Y-111667013D01*
X115021020Y-111663520D01*
X115021418Y-111635000D01*
X115001965Y-111436606D01*
X115000184Y-111430707D01*
X115000183Y-111430702D01*
X114946129Y-111251667D01*
X114944348Y-111245768D01*
X114875899Y-111117033D01*
X114853655Y-111075198D01*
X114853653Y-111075195D01*
X114850761Y-111069756D01*
X114846871Y-111064986D01*
X114846868Y-111064982D01*
X114728663Y-110920049D01*
X114728660Y-110920046D01*
X114724768Y-110915274D01*
X114571170Y-110788206D01*
X114395815Y-110693392D01*
X114205385Y-110634444D01*
X114199260Y-110633800D01*
X114199259Y-110633800D01*
X114013260Y-110614251D01*
X114013258Y-110614251D01*
X114007131Y-110613607D01*
X113884252Y-110624790D01*
X113814746Y-110631115D01*
X113814745Y-110631115D01*
X113808605Y-110631674D01*
X113802691Y-110633415D01*
X113802689Y-110633415D01*
X113701310Y-110663253D01*
X113617370Y-110687958D01*
X113440709Y-110780314D01*
X113435909Y-110784174D01*
X113435908Y-110784174D01*
X113426007Y-110792135D01*
X113285351Y-110905225D01*
X113157214Y-111057933D01*
X113061179Y-111232621D01*
X113000902Y-111422635D01*
X112978682Y-111620739D01*
X112406900Y-111620739D01*
X112406900Y-111315733D01*
X112426902Y-111247612D01*
X112443805Y-111226638D01*
X113572992Y-110097451D01*
X113635304Y-110063425D01*
X113701022Y-110066713D01*
X113780665Y-110092591D01*
X113786775Y-110093320D01*
X113786777Y-110093320D01*
X113854314Y-110101373D01*
X113978609Y-110116194D01*
X113984744Y-110115722D01*
X113984746Y-110115722D01*
X114171226Y-110101373D01*
X114171231Y-110101372D01*
X114177367Y-110100900D01*
X114183297Y-110099244D01*
X114183299Y-110099244D01*
X114273368Y-110074096D01*
X114369370Y-110047292D01*
X114399960Y-110031840D01*
X114541802Y-109960191D01*
X114541804Y-109960190D01*
X114547303Y-109957412D01*
X114704390Y-109834682D01*
X114730060Y-109804943D01*
X114830618Y-109688446D01*
X114830619Y-109688444D01*
X114834647Y-109683778D01*
X114933112Y-109510448D01*
X114996035Y-109321294D01*
X115008680Y-109221202D01*
X115020578Y-109127023D01*
X115020579Y-109127013D01*
X115021020Y-109123520D01*
X115021418Y-109095000D01*
X115001965Y-108896606D01*
X115000184Y-108890707D01*
X115000183Y-108890702D01*
X114946129Y-108711667D01*
X114944348Y-108705768D01*
X114871349Y-108568476D01*
X114853655Y-108535198D01*
X114853653Y-108535195D01*
X114850761Y-108529756D01*
X114846871Y-108524986D01*
X114846868Y-108524982D01*
X114775548Y-108437536D01*
X114747994Y-108372104D01*
X114760189Y-108302163D01*
X114808262Y-108249918D01*
X114873191Y-108231900D01*
X115529274Y-108231900D01*
X115597395Y-108251902D01*
X115641341Y-108300306D01*
X115674705Y-108365225D01*
X115681430Y-108378311D01*
X115805253Y-108534537D01*
X115957063Y-108663737D01*
X115962441Y-108666743D01*
X115962443Y-108666744D01*
X116022532Y-108700326D01*
X116131076Y-108760989D01*
X116136935Y-108762893D01*
X116136938Y-108762894D01*
X116172701Y-108774514D01*
X116320665Y-108822591D01*
X116326775Y-108823320D01*
X116326777Y-108823320D01*
X116394314Y-108831373D01*
X116518609Y-108846194D01*
X116524744Y-108845722D01*
X116524746Y-108845722D01*
X116711226Y-108831373D01*
X116711231Y-108831372D01*
X116717367Y-108830900D01*
X116723297Y-108829244D01*
X116723299Y-108829244D01*
X116813368Y-108804096D01*
X116909370Y-108777292D01*
X116919803Y-108772022D01*
X117081802Y-108690191D01*
X117081804Y-108690190D01*
X117087303Y-108687412D01*
X117244390Y-108564682D01*
X117269840Y-108535198D01*
X117370618Y-108418446D01*
X117370619Y-108418444D01*
X117374647Y-108413778D01*
X117405291Y-108359835D01*
X150438022Y-108359835D01*
X150449754Y-108604064D01*
X150450891Y-108613324D01*
X150498593Y-108853143D01*
X150501082Y-108862118D01*
X150583708Y-109092250D01*
X150587505Y-109100778D01*
X150703234Y-109316160D01*
X150708245Y-109324027D01*
X150765173Y-109400263D01*
X150776431Y-109408712D01*
X150788850Y-109401940D01*
X151777978Y-108412812D01*
X151784356Y-108401132D01*
X152514408Y-108401132D01*
X152514539Y-108402965D01*
X152518790Y-108409580D01*
X153513732Y-109404522D01*
X153526112Y-109411282D01*
X153534453Y-109405038D01*
X153652700Y-109221202D01*
X153657147Y-109213011D01*
X153757572Y-108990076D01*
X153760767Y-108981298D01*
X153827135Y-108745973D01*
X153828993Y-108736844D01*
X153860044Y-108492770D01*
X153860525Y-108486483D01*
X153862706Y-108403160D01*
X153862555Y-108396851D01*
X153844321Y-108151486D01*
X153842944Y-108142280D01*
X153788979Y-107903786D01*
X153786619Y-107896067D01*
X174759510Y-107896067D01*
X174765906Y-107907336D01*
X175987188Y-109128618D01*
X176001132Y-109136232D01*
X176002965Y-109136101D01*
X176009580Y-109131850D01*
X177233659Y-107907771D01*
X177240850Y-107894602D01*
X177233527Y-107884365D01*
X177183168Y-107843145D01*
X177176196Y-107838191D01*
X176947279Y-107697911D01*
X176939681Y-107693939D01*
X176693852Y-107586027D01*
X176685798Y-107583128D01*
X176427594Y-107509577D01*
X176419216Y-107507795D01*
X176153419Y-107469967D01*
X176144872Y-107469340D01*
X175876398Y-107467933D01*
X175867864Y-107468470D01*
X175601678Y-107503515D01*
X175593280Y-107505208D01*
X175334327Y-107576049D01*
X175326232Y-107578868D01*
X175079278Y-107684202D01*
X175071655Y-107688087D01*
X174841285Y-107825961D01*
X174834247Y-107830852D01*
X174767980Y-107883942D01*
X174759510Y-107896067D01*
X153786619Y-107896067D01*
X153786255Y-107894875D01*
X153697633Y-107666983D01*
X153693619Y-107658567D01*
X153572284Y-107446276D01*
X153567074Y-107438553D01*
X153535787Y-107398865D01*
X153523863Y-107390395D01*
X153512328Y-107396882D01*
X152522022Y-108387188D01*
X152514408Y-108401132D01*
X151784356Y-108401132D01*
X151785592Y-108398868D01*
X151785461Y-108397035D01*
X151781210Y-108390420D01*
X150786828Y-107396038D01*
X150773520Y-107388771D01*
X150763481Y-107395893D01*
X150758581Y-107401784D01*
X150753168Y-107409373D01*
X150626322Y-107618409D01*
X150622084Y-107626726D01*
X150527529Y-107852214D01*
X150524572Y-107861052D01*
X150464384Y-108098042D01*
X150462763Y-108107232D01*
X150438267Y-108350510D01*
X150438022Y-108359835D01*
X117405291Y-108359835D01*
X117473112Y-108240448D01*
X117536035Y-108051294D01*
X117541887Y-108004971D01*
X117560578Y-107857023D01*
X117560579Y-107857013D01*
X117561020Y-107853520D01*
X117561418Y-107825000D01*
X117541965Y-107626606D01*
X117540184Y-107620707D01*
X117540183Y-107620702D01*
X117486129Y-107441667D01*
X117484348Y-107435768D01*
X117390761Y-107259756D01*
X117386871Y-107254986D01*
X117386868Y-107254982D01*
X117268663Y-107110049D01*
X117268660Y-107110046D01*
X117264768Y-107105274D01*
X117217586Y-107066241D01*
X117115919Y-106982135D01*
X117111170Y-106978206D01*
X116935815Y-106883392D01*
X116745385Y-106824444D01*
X116739260Y-106823800D01*
X116739259Y-106823800D01*
X116553260Y-106804251D01*
X116553258Y-106804251D01*
X116547131Y-106803607D01*
X116424252Y-106814790D01*
X116354746Y-106821115D01*
X116354745Y-106821115D01*
X116348605Y-106821674D01*
X116342691Y-106823415D01*
X116342689Y-106823415D01*
X116235812Y-106854871D01*
X116157370Y-106877958D01*
X115980709Y-106970314D01*
X115975909Y-106974174D01*
X115975908Y-106974174D01*
X115971998Y-106977318D01*
X115825351Y-107095225D01*
X115697214Y-107247933D01*
X115694248Y-107253329D01*
X115694242Y-107253337D01*
X115639561Y-107352801D01*
X115589216Y-107402860D01*
X115529147Y-107418100D01*
X112142976Y-107418100D01*
X112142972Y-107418101D01*
X112110553Y-107418101D01*
X112091545Y-107424277D01*
X112089156Y-107425053D01*
X112069937Y-107429667D01*
X112057489Y-107431639D01*
X112057485Y-107431640D01*
X112047694Y-107433191D01*
X112038863Y-107437691D01*
X112038862Y-107437691D01*
X112027635Y-107443412D01*
X112009369Y-107450977D01*
X111987968Y-107457931D01*
X111972265Y-107469340D01*
X111969760Y-107471160D01*
X111952907Y-107481488D01*
X111932849Y-107491708D01*
X111909926Y-107514631D01*
X111909922Y-107514634D01*
X109757849Y-109666708D01*
X109666708Y-109757849D01*
X109658806Y-109773359D01*
X109656492Y-109777900D01*
X109646160Y-109794759D01*
X109632930Y-109812968D01*
X109629865Y-109822401D01*
X109629864Y-109822403D01*
X109625972Y-109834380D01*
X109618408Y-109852641D01*
X109608191Y-109872694D01*
X109606640Y-109882487D01*
X109604670Y-109894926D01*
X109600054Y-109914152D01*
X109593100Y-109935554D01*
X109593100Y-115287934D01*
X109573098Y-115356055D01*
X109519442Y-115402548D01*
X109449168Y-115412652D01*
X109384588Y-115383158D01*
X109350316Y-115335236D01*
X109320995Y-115262845D01*
X109320992Y-115262840D01*
X109319280Y-115258612D01*
X109316976Y-115254677D01*
X109316973Y-115254671D01*
X109185529Y-115030183D01*
X109185528Y-115030181D01*
X109183223Y-115026245D01*
X109015048Y-114815952D01*
X108818277Y-114632139D01*
X108597032Y-114478656D01*
X108423880Y-114392514D01*
X108360036Y-114360752D01*
X108360033Y-114360751D01*
X108355949Y-114358719D01*
X108318182Y-114346338D01*
X108104410Y-114276260D01*
X108104405Y-114276259D01*
X108100077Y-114274840D01*
X108095585Y-114274060D01*
X107838558Y-114229432D01*
X107838550Y-114229431D01*
X107834777Y-114228776D01*
X107823267Y-114228203D01*
X107751261Y-114224618D01*
X107751253Y-114224618D01*
X107749690Y-114224540D01*
X107581598Y-114224540D01*
X107579330Y-114224705D01*
X107579318Y-114224705D01*
X107448247Y-114234215D01*
X107381436Y-114239063D01*
X107376981Y-114240047D01*
X107376978Y-114240047D01*
X107122955Y-114296131D01*
X107122953Y-114296132D01*
X107118499Y-114297115D01*
X106866695Y-114392514D01*
X106862709Y-114394728D01*
X106862707Y-114394729D01*
X106732305Y-114467161D01*
X106631301Y-114523264D01*
X106587770Y-114556486D01*
X106424457Y-114681123D01*
X106417246Y-114686626D01*
X106414053Y-114689892D01*
X106414051Y-114689894D01*
X106232211Y-114875907D01*
X106232207Y-114875912D01*
X106229016Y-114879176D01*
X106070554Y-115096881D01*
X105945178Y-115335181D01*
X105855515Y-115589085D01*
X105803444Y-115853271D01*
X105803217Y-115857824D01*
X105803217Y-115857827D01*
X105790399Y-116115319D01*
X105790056Y-116122208D01*
X102500000Y-116122208D01*
X102500000Y-105962208D01*
X105790056Y-105962208D01*
X105815630Y-106230260D01*
X105816714Y-106234690D01*
X105816715Y-106234696D01*
X105849461Y-106368515D01*
X105879632Y-106491813D01*
X105881347Y-106496048D01*
X105881348Y-106496050D01*
X105978521Y-106735958D01*
X105980720Y-106741388D01*
X105983024Y-106745323D01*
X105983027Y-106745329D01*
X106086558Y-106922145D01*
X106116777Y-106973755D01*
X106284952Y-107184048D01*
X106481723Y-107367861D01*
X106702968Y-107521344D01*
X106818596Y-107578868D01*
X106939964Y-107639248D01*
X106939967Y-107639249D01*
X106944051Y-107641281D01*
X106948390Y-107642703D01*
X106948389Y-107642703D01*
X107195590Y-107723740D01*
X107195595Y-107723741D01*
X107199923Y-107725160D01*
X107204414Y-107725940D01*
X107204415Y-107725940D01*
X107461442Y-107770568D01*
X107461450Y-107770569D01*
X107465223Y-107771224D01*
X107469060Y-107771415D01*
X107548739Y-107775382D01*
X107548747Y-107775382D01*
X107550310Y-107775460D01*
X107718402Y-107775460D01*
X107720670Y-107775295D01*
X107720682Y-107775295D01*
X107851753Y-107765785D01*
X107918564Y-107760937D01*
X107923019Y-107759953D01*
X107923022Y-107759953D01*
X108177045Y-107703869D01*
X108177047Y-107703868D01*
X108181501Y-107702885D01*
X108433305Y-107607486D01*
X108471939Y-107586027D01*
X108664706Y-107478954D01*
X108664707Y-107478953D01*
X108668699Y-107476736D01*
X108781833Y-107390395D01*
X108879122Y-107316146D01*
X108879123Y-107316145D01*
X108882754Y-107313374D01*
X108885949Y-107310106D01*
X109067789Y-107124093D01*
X109067793Y-107124088D01*
X109070984Y-107120824D01*
X109212156Y-106926873D01*
X109226759Y-106906811D01*
X109226761Y-106906808D01*
X109229446Y-106903119D01*
X109354822Y-106664819D01*
X109444485Y-106410915D01*
X109496556Y-106146729D01*
X109498202Y-106113673D01*
X109509717Y-105882361D01*
X109509717Y-105882355D01*
X109509944Y-105877792D01*
X109484370Y-105609740D01*
X109420368Y-105348187D01*
X109418652Y-105343950D01*
X109320995Y-105102845D01*
X109320992Y-105102840D01*
X109319280Y-105098612D01*
X109316976Y-105094677D01*
X109316973Y-105094671D01*
X109185529Y-104870183D01*
X109185528Y-104870181D01*
X109183223Y-104866245D01*
X109015048Y-104655952D01*
X108818277Y-104472139D01*
X108597032Y-104318656D01*
X108423880Y-104232514D01*
X108360036Y-104200752D01*
X108360033Y-104200751D01*
X108355949Y-104198719D01*
X108318182Y-104186338D01*
X108104410Y-104116260D01*
X108104405Y-104116259D01*
X108100077Y-104114840D01*
X108095585Y-104114060D01*
X107838558Y-104069432D01*
X107838550Y-104069431D01*
X107834777Y-104068776D01*
X107823267Y-104068203D01*
X107751261Y-104064618D01*
X107751253Y-104064618D01*
X107749690Y-104064540D01*
X107581598Y-104064540D01*
X107579330Y-104064705D01*
X107579318Y-104064705D01*
X107448247Y-104074215D01*
X107381436Y-104079063D01*
X107376981Y-104080047D01*
X107376978Y-104080047D01*
X107122955Y-104136131D01*
X107122953Y-104136132D01*
X107118499Y-104137115D01*
X106866695Y-104232514D01*
X106631301Y-104363264D01*
X106627669Y-104366036D01*
X106484565Y-104475250D01*
X106417246Y-104526626D01*
X106414053Y-104529892D01*
X106414051Y-104529894D01*
X106232211Y-104715907D01*
X106232207Y-104715912D01*
X106229016Y-104719176D01*
X106070554Y-104936881D01*
X105945178Y-105175181D01*
X105855515Y-105429085D01*
X105803444Y-105693271D01*
X105803217Y-105697824D01*
X105803217Y-105697827D01*
X105797858Y-105805489D01*
X105790056Y-105962208D01*
X102500000Y-105962208D01*
X102500000Y-102626000D01*
X102520002Y-102557879D01*
X102573658Y-102511386D01*
X102626000Y-102500000D01*
X119692924Y-102500000D01*
X119761045Y-102520002D01*
G37*
G04 #@! TD.AperFunction*
M02*
