G04 #@! TF.GenerationSoftware,KiCad,Pcbnew,(6.0.7)*
G04 #@! TF.CreationDate,2023-05-29T10:21:20+02:00*
G04 #@! TF.ProjectId,booster,626f6f73-7465-4722-9e6b-696361645f70,rev?*
G04 #@! TF.SameCoordinates,Original*
G04 #@! TF.FileFunction,Soldermask,Top*
G04 #@! TF.FilePolarity,Negative*
%FSLAX46Y46*%
G04 Gerber Fmt 4.6, Leading zero omitted, Abs format (unit mm)*
G04 Created by KiCad (PCBNEW (6.0.7)) date 2023-05-29 10:21:20*
%MOMM*%
%LPD*%
G01*
G04 APERTURE LIST*
G04 Aperture macros list*
%AMRoundRect*
0 Rectangle with rounded corners*
0 $1 Rounding radius*
0 $2 $3 $4 $5 $6 $7 $8 $9 X,Y pos of 4 corners*
0 Add a 4 corners polygon primitive as box body*
4,1,4,$2,$3,$4,$5,$6,$7,$8,$9,$2,$3,0*
0 Add four circle primitives for the rounded corners*
1,1,$1+$1,$2,$3*
1,1,$1+$1,$4,$5*
1,1,$1+$1,$6,$7*
1,1,$1+$1,$8,$9*
0 Add four rect primitives between the rounded corners*
20,1,$1+$1,$2,$3,$4,$5,0*
20,1,$1+$1,$4,$5,$6,$7,0*
20,1,$1+$1,$6,$7,$8,$9,0*
20,1,$1+$1,$8,$9,$2,$3,0*%
G04 Aperture macros list end*
%ADD10C,6.400800*%
%ADD11RoundRect,0.250000X-0.325000X-0.450000X0.325000X-0.450000X0.325000X0.450000X-0.325000X0.450000X0*%
%ADD12RoundRect,0.150000X-0.725000X-0.150000X0.725000X-0.150000X0.725000X0.150000X-0.725000X0.150000X0*%
%ADD13R,1.900000X0.800000*%
%ADD14C,3.048000*%
%ADD15R,3.048000X3.048000*%
%ADD16RoundRect,0.150000X-0.825000X-0.150000X0.825000X-0.150000X0.825000X0.150000X-0.825000X0.150000X0*%
%ADD17RoundRect,0.250000X0.325000X0.450000X-0.325000X0.450000X-0.325000X-0.450000X0.325000X-0.450000X0*%
%ADD18RoundRect,0.250000X-0.450000X0.325000X-0.450000X-0.325000X0.450000X-0.325000X0.450000X0.325000X0*%
%ADD19C,1.800000*%
%ADD20R,1.800000X1.800000*%
%ADD21R,10.500000X7.400000*%
%ADD22R,0.450000X3.000000*%
%ADD23C,1.524000*%
%ADD24R,1.524000X1.524000*%
%ADD25R,1.560000X0.650000*%
%ADD26C,3.169920*%
%ADD27R,1.500000X2.000000*%
%ADD28R,3.800000X2.000000*%
%ADD29RoundRect,0.250001X0.624999X-0.462499X0.624999X0.462499X-0.624999X0.462499X-0.624999X-0.462499X0*%
%ADD30R,2.500000X3.700000*%
%ADD31RoundRect,0.250000X-0.537500X-0.425000X0.537500X-0.425000X0.537500X0.425000X-0.537500X0.425000X0*%
%ADD32C,2.400000*%
%ADD33R,2.400000X2.400000*%
G04 APERTURE END LIST*
D10*
X123000000Y-146000000D03*
X123000000Y-104000000D03*
D11*
X131350000Y-114750000D03*
X129300000Y-114750000D03*
D12*
X126425000Y-115895000D03*
X126425000Y-117165000D03*
X126425000Y-118435000D03*
X126425000Y-119705000D03*
X121275000Y-119705000D03*
X121275000Y-118435000D03*
X121275000Y-117165000D03*
X121275000Y-115895000D03*
D13*
X121950000Y-111600000D03*
X124950000Y-110650000D03*
X124950000Y-112550000D03*
D11*
X131350000Y-117750000D03*
X129300000Y-117750000D03*
X131350000Y-111500000D03*
X129300000Y-111500000D03*
D14*
X176000000Y-135500640D03*
D15*
X176000000Y-140499360D03*
D16*
X138675000Y-131240000D03*
X138675000Y-132510000D03*
X138675000Y-133780000D03*
X138675000Y-135050000D03*
X138675000Y-136320000D03*
X138675000Y-137590000D03*
X138675000Y-138860000D03*
X133725000Y-138860000D03*
X133725000Y-137590000D03*
X133725000Y-136320000D03*
X133725000Y-135050000D03*
X133725000Y-133780000D03*
X133725000Y-132510000D03*
X133725000Y-131240000D03*
D11*
X163475000Y-120900000D03*
X165525000Y-120900000D03*
D17*
X127575000Y-130350000D03*
X129625000Y-130350000D03*
D11*
X131250000Y-121700000D03*
X129200000Y-121700000D03*
D18*
X150150000Y-130075000D03*
X150150000Y-132125000D03*
D17*
X129200000Y-124400000D03*
X131250000Y-124400000D03*
D18*
X165600000Y-147150000D03*
X165600000Y-145100000D03*
D17*
X127550000Y-134750000D03*
X129600000Y-134750000D03*
D19*
X123300000Y-131200000D03*
X123300000Y-133740000D03*
D20*
X123300000Y-136280000D03*
D18*
X143600000Y-132850000D03*
X143600000Y-130800000D03*
D17*
X127550000Y-132550000D03*
X129600000Y-132550000D03*
X127550000Y-139150000D03*
X129600000Y-139150000D03*
D21*
X155000000Y-138000000D03*
D22*
X157800000Y-144500000D03*
X157800000Y-131500000D03*
X157000000Y-144500000D03*
X157000000Y-131500000D03*
X156200000Y-144500000D03*
X156200000Y-131500000D03*
X155400000Y-144500000D03*
X155400000Y-131500000D03*
X154600000Y-144500000D03*
X154600000Y-131500000D03*
X153800000Y-144500000D03*
X153800000Y-131500000D03*
X153000000Y-144500000D03*
X153000000Y-131500000D03*
X152200000Y-144500000D03*
X152200000Y-131500000D03*
D12*
X126575000Y-123495000D03*
X126575000Y-124765000D03*
X126575000Y-126035000D03*
X126575000Y-127305000D03*
X121425000Y-127305000D03*
X121425000Y-126035000D03*
X121425000Y-124765000D03*
X121425000Y-123495000D03*
D11*
X160775000Y-126500000D03*
X158725000Y-126500000D03*
X129600000Y-136950000D03*
X127550000Y-136950000D03*
D23*
X133710000Y-126670000D03*
X133710000Y-124130000D03*
X136250000Y-126670000D03*
X136250000Y-124130000D03*
X138790000Y-126670000D03*
D24*
X138790000Y-124130000D03*
D25*
X137750000Y-144000000D03*
X137750000Y-145900000D03*
X135050000Y-145900000D03*
X135050000Y-144950000D03*
X135050000Y-144000000D03*
D10*
X171000000Y-146000000D03*
X171000000Y-104000000D03*
D26*
X107650000Y-144080000D03*
X107650000Y-133920000D03*
D23*
X114000000Y-142175000D03*
X116540000Y-140905000D03*
X114000000Y-139635000D03*
X116540000Y-138365000D03*
X114000000Y-137095000D03*
X116540000Y-135825000D03*
D26*
X107650000Y-116080000D03*
X107650000Y-105920000D03*
D23*
X114000000Y-114175000D03*
X116540000Y-112905000D03*
X114000000Y-111635000D03*
X116540000Y-110365000D03*
X114000000Y-109095000D03*
X116540000Y-107825000D03*
D14*
X176000000Y-122500640D03*
D15*
X176000000Y-127499360D03*
D14*
X110000000Y-127499360D03*
D15*
X110000000Y-122500640D03*
D14*
X176000000Y-109500640D03*
D15*
X176000000Y-114499360D03*
D27*
X135400000Y-113950000D03*
X140000000Y-113950000D03*
X137700000Y-113950000D03*
D28*
X137700000Y-107650000D03*
D29*
X165800000Y-129225000D03*
X165800000Y-132200000D03*
X168600000Y-129200000D03*
X168600000Y-132175000D03*
X168600000Y-123825000D03*
X168600000Y-126800000D03*
X165800000Y-123825000D03*
X165800000Y-126800000D03*
D17*
X115500000Y-122500000D03*
X117550000Y-122500000D03*
D30*
X168100000Y-135500000D03*
X164000000Y-135500000D03*
X168000000Y-140500000D03*
X163900000Y-140500000D03*
D13*
X115000000Y-127500000D03*
X118000000Y-126550000D03*
X118000000Y-128450000D03*
D29*
X171600000Y-129225000D03*
X171600000Y-132200000D03*
D31*
X138700000Y-117850000D03*
X135825000Y-117850000D03*
D32*
X152150000Y-108400000D03*
D33*
X152150000Y-115900000D03*
M02*
