M48
; DRILL file {KiCad (5.1.5)-3} date 30.08.2021 19:46:04
; FORMAT={-:-/ absolute / inch / decimal}
; #@! TF.CreationDate,2021-08-30T19:46:04+02:00
; #@! TF.GenerationSoftware,Kicad,Pcbnew,(5.1.5)-3
; #@! TF.FileFunction,Plated,1,2,PTH
FMAT,2
INCH
T1C0.0250
T2C0.0320
T3C0.0354
T4C0.0591
T5C0.1260
%
G90
G05
T1
X4.645Y-4.255
X4.685Y-4.295
X4.715Y-3.535
X4.715Y-3.635
X4.835Y-4.61
X4.875Y-4.2
X4.885Y-4.295
X4.935Y-4.145
X4.935Y-4.195
X4.945Y-4.27
X4.985Y-4.435
X4.99Y-4.61
X4.995Y-3.85
X5.0Y-4.07
X5.03Y-3.995
X5.095Y-4.03
X5.105Y-4.635
X5.11Y-4.435
X5.12Y-4.23
X5.125Y-3.69
X5.145Y-4.75
X5.15Y-4.055
X5.15Y-4.11
X5.155Y-4.81
X5.16Y-3.84
X5.16Y-4.255
X5.265Y-3.915
X5.315Y-4.83
X5.34Y-4.09
X5.645Y-3.985
X5.665Y-4.22
X5.695Y-3.975
X5.745Y-4.18
X5.76Y-3.715
X5.77Y-4.025
X5.92Y-3.775
X5.975Y-4.25
X6.02Y-3.775
X6.05Y-3.45
X6.2165Y-3.6575
T2
X6.07Y-4.455
X6.17Y-4.455
X5.59Y-3.4768
X5.59Y-3.5634
X5.59Y-3.65
X5.59Y-3.776
X5.79Y-3.4768
X5.79Y-3.5634
X5.79Y-3.65
X5.79Y-3.776
X5.3Y-3.4768
X5.3Y-3.5634
X5.3Y-3.65
X5.3Y-3.776
X5.5Y-3.4768
X5.5Y-3.5634
X5.5Y-3.65
X5.5Y-3.776
T3
X4.9Y-3.49
X4.9Y-3.59
X4.9Y-3.69
X4.9Y-3.79
X5.0Y-3.49
X5.0Y-3.59
X5.0Y-3.69
X5.0Y-3.79
X5.985Y-3.975
X5.985Y-4.075
X6.085Y-3.975
X6.085Y-4.075
X6.185Y-3.975
X6.185Y-4.075
X4.71Y-4.7
X4.71Y-4.8
X4.81Y-4.7
X4.81Y-4.8
X4.91Y-4.7
X4.91Y-4.8
T4
X5.6797Y-3.325
X5.8766Y-3.325
X6.0734Y-3.325
X5.2616Y-4.5
X5.4584Y-4.5
X5.6553Y-4.5
X5.8521Y-4.5
X5.0097Y-3.325
X5.2066Y-3.325
X5.4034Y-3.325
T5
X4.745Y-3.07
X6.145Y-4.755
T0
M30
