G04 #@! TF.GenerationSoftware,KiCad,Pcbnew,(5.1.5)-3*
G04 #@! TF.CreationDate,2021-08-30T19:46:02+02:00*
G04 #@! TF.ProjectId,wa2,7761322e-6b69-4636-9164-5f7063625858,0428 -*
G04 #@! TF.SameCoordinates,Original*
G04 #@! TF.FileFunction,Copper,L1,Top*
G04 #@! TF.FilePolarity,Positive*
%FSLAX46Y46*%
G04 Gerber Fmt 4.6, Leading zero omitted, Abs format (unit mm)*
G04 Created by KiCad (PCBNEW (5.1.5)-3) date 2021-08-30 19:46:02*
%MOMM*%
%LPD*%
G04 APERTURE LIST*
%ADD10C,6.400800*%
%ADD11R,1.397000X0.889000*%
%ADD12R,1.651000X1.651000*%
%ADD13C,1.651000*%
%ADD14C,3.048000*%
%ADD15R,3.048000X3.048000*%
%ADD16R,1.524000X1.524000*%
%ADD17C,1.524000*%
%ADD18R,0.914400X0.914400*%
%ADD19R,0.889000X1.397000*%
%ADD20C,1.270000*%
%ADD21R,0.508000X1.143000*%
%ADD22R,0.406400X1.524000*%
%ADD23R,1.524000X0.406400*%
%ADD24R,1.998980X5.499100*%
%ADD25C,0.889000*%
%ADD26C,0.304800*%
%ADD27C,0.762000*%
%ADD28C,0.508000*%
%ADD29C,1.016000*%
%ADD30C,1.778000*%
%ADD31C,0.254000*%
G04 APERTURE END LIST*
D10*
X156083000Y-120777000D03*
X120523000Y-77978000D03*
D11*
X126492000Y-115633500D03*
X126492000Y-113728500D03*
D12*
X154178000Y-113157000D03*
D13*
X156718000Y-113157000D03*
D14*
X144264380Y-84455000D03*
D15*
X154264360Y-84455000D03*
D14*
X149265640Y-84455000D03*
X132247640Y-84455000D03*
D15*
X137246360Y-84455000D03*
D14*
X127246380Y-84455000D03*
X148643340Y-114300000D03*
X138643360Y-114300000D03*
D15*
X133644640Y-114300000D03*
D14*
X143644620Y-114300000D03*
D16*
X119634000Y-121920000D03*
D17*
X119634000Y-119380000D03*
X122174000Y-121920000D03*
X122174000Y-119380000D03*
X124714000Y-121920000D03*
X124714000Y-119380000D03*
D11*
X129159000Y-114109500D03*
X129159000Y-116014500D03*
D17*
X152019000Y-103505000D03*
X152019000Y-100965000D03*
X154559000Y-103505000D03*
X154559000Y-100965000D03*
X157099000Y-103505000D03*
D16*
X157099000Y-100965000D03*
X124460000Y-88646000D03*
D17*
X127000000Y-88646000D03*
X124460000Y-91186000D03*
X127000000Y-91186000D03*
X124460000Y-93726000D03*
X127000000Y-93726000D03*
X124460000Y-96266000D03*
X127000000Y-96266000D03*
D18*
X156718000Y-108585000D03*
X154940000Y-108585000D03*
X155829000Y-106553000D03*
X154241500Y-89344500D03*
X156273500Y-90233500D03*
X156273500Y-88455500D03*
X156210000Y-95377000D03*
X156210000Y-97155000D03*
X154178000Y-96266000D03*
X156273500Y-91884500D03*
X156273500Y-93662500D03*
X154241500Y-92773500D03*
X129413000Y-119253000D03*
X127381000Y-118364000D03*
X127381000Y-120142000D03*
D11*
X150700000Y-109247500D03*
X150700000Y-111152500D03*
D19*
X151828500Y-91059000D03*
X149923500Y-91059000D03*
X149923500Y-97155000D03*
X151828500Y-97155000D03*
X149923500Y-94361000D03*
X151828500Y-94361000D03*
X149796500Y-102235000D03*
X147891500Y-102235000D03*
X149796500Y-100203000D03*
X147891500Y-100203000D03*
X147891500Y-106553000D03*
X149796500Y-106553000D03*
X147891500Y-104394000D03*
X149796500Y-104394000D03*
D11*
X132588000Y-93789500D03*
X132588000Y-95694500D03*
D19*
X151828500Y-88519000D03*
X149923500Y-88519000D03*
D11*
X144399000Y-92646500D03*
X144399000Y-94551500D03*
X137160000Y-94551500D03*
X137160000Y-92646500D03*
X146158000Y-109283500D03*
X146158000Y-111188500D03*
X141205000Y-111188500D03*
X141205000Y-109283500D03*
X122174000Y-115252500D03*
X122174000Y-113347500D03*
X143745000Y-111188500D03*
X143745000Y-109283500D03*
X148500000Y-109247500D03*
X148500000Y-111152500D03*
D19*
X127317500Y-122174000D03*
X129222500Y-122174000D03*
D20*
X147066000Y-95910400D03*
X141986000Y-95910400D03*
X147066000Y-92710000D03*
X147066000Y-90510360D03*
X147066000Y-88310720D03*
X141986000Y-92710000D03*
X141986000Y-90510360D03*
X141986000Y-88310720D03*
X134620000Y-88310720D03*
X134620000Y-90510360D03*
X134620000Y-92710000D03*
X139700000Y-88310720D03*
X139700000Y-90510360D03*
X139700000Y-92710000D03*
X134620000Y-95910400D03*
X139700000Y-95910400D03*
D21*
X137033000Y-104521000D03*
X138303000Y-104521000D03*
X139573000Y-104521000D03*
X140843000Y-104521000D03*
X142113000Y-104521000D03*
X143383000Y-104521000D03*
X144653000Y-104521000D03*
X145923000Y-104521000D03*
X145923000Y-99441000D03*
X144653000Y-99441000D03*
X143383000Y-99441000D03*
X142113000Y-99441000D03*
X140843000Y-99441000D03*
X139573000Y-99441000D03*
X138303000Y-99441000D03*
X137033000Y-99441000D03*
D22*
X127889000Y-110871000D03*
X128689100Y-110871000D03*
X129489200Y-110871000D03*
X130289300Y-110871000D03*
X131089400Y-110871000D03*
X131889500Y-110871000D03*
X127088900Y-110871000D03*
X126288800Y-110871000D03*
X125488700Y-110871000D03*
X124688600Y-110871000D03*
X123888500Y-110871000D03*
X127889000Y-99441000D03*
X128689100Y-99441000D03*
X129489200Y-99441000D03*
X130289300Y-99441000D03*
X131089400Y-99441000D03*
X131889500Y-99441000D03*
X127088900Y-99441000D03*
X126288800Y-99441000D03*
X125488700Y-99441000D03*
X124688600Y-99441000D03*
X123888500Y-99441000D03*
D23*
X133604000Y-105156000D03*
X122174000Y-105156000D03*
X133604000Y-104355900D03*
X122174000Y-104355900D03*
X122174000Y-103555800D03*
X133604000Y-103555800D03*
X133604000Y-102755700D03*
X122174000Y-102755700D03*
X122174000Y-101955600D03*
X133604000Y-101955600D03*
X133604000Y-101155500D03*
X122174000Y-101155500D03*
X122174000Y-105956100D03*
X133604000Y-105956100D03*
X133604000Y-106756200D03*
X122174000Y-106756200D03*
X122174000Y-107556300D03*
X133604000Y-107556300D03*
X133604000Y-108356400D03*
X122174000Y-108356400D03*
X122174000Y-109156500D03*
X133604000Y-109156500D03*
D24*
X119761000Y-86309200D03*
X119761000Y-95808800D03*
D25*
X130937000Y-122174000D03*
X129413000Y-102362000D03*
X127000000Y-103378000D03*
X130810000Y-102997000D03*
X126873000Y-97790000D03*
X135001000Y-122682000D03*
X153670000Y-87630000D03*
X152908000Y-95885000D03*
X146304000Y-94361000D03*
X150368000Y-95885000D03*
X126619000Y-112649000D03*
X135636000Y-103886000D03*
X145923000Y-106172000D03*
X127762000Y-101473000D03*
X130683000Y-120650000D03*
X123825000Y-106680000D03*
X130048000Y-107442000D03*
X125349000Y-106553000D03*
X129794000Y-112649000D03*
X130810000Y-104394000D03*
X125349000Y-105283000D03*
X131064000Y-108077000D03*
X130175000Y-93726000D03*
X146558000Y-102235000D03*
X133731000Y-99441000D03*
X131064000Y-97536000D03*
X143891000Y-107188000D03*
X157900000Y-92900000D03*
X117983000Y-108077000D03*
X119761000Y-89789000D03*
X125603000Y-108458000D03*
X124079000Y-109093000D03*
X119761000Y-92329000D03*
X118999000Y-109093000D03*
X129667000Y-117729000D03*
X151765000Y-107950000D03*
X144653000Y-100965000D03*
X122809000Y-117094000D03*
X126746000Y-117094000D03*
X143383000Y-101219000D03*
D26*
X146158000Y-111188500D02*
X146158000Y-116342000D01*
X143628000Y-118872000D02*
X131191000Y-118872000D01*
X146158000Y-116342000D02*
X143628000Y-118872000D01*
D27*
X131191000Y-114808000D02*
X131191000Y-118872000D01*
X130492500Y-114109500D02*
X131191000Y-114808000D01*
D26*
X129413000Y-102362000D02*
X129413000Y-102755700D01*
X129222500Y-122174000D02*
X130937000Y-122174000D01*
X128689100Y-108115100D02*
X128130300Y-107556300D01*
X133604000Y-102755700D02*
X129413000Y-102755700D01*
X129413000Y-102755700D02*
X126288800Y-102755700D01*
X126288800Y-99441000D02*
X126288800Y-102755700D01*
X129159000Y-114109500D02*
X128689100Y-113639600D01*
X128689100Y-113639600D02*
X128689100Y-110871000D01*
X128689100Y-110871000D02*
X128689100Y-108115100D01*
X128130300Y-107556300D02*
X126288800Y-107556300D01*
X126288800Y-107556300D02*
X122174000Y-107556300D01*
X126288800Y-99441000D02*
X126288800Y-98374200D01*
X126288800Y-102755700D02*
X126288800Y-107556300D01*
X126288800Y-98374200D02*
X126873000Y-97790000D01*
D27*
X129159000Y-114109500D02*
X130492500Y-114109500D01*
X131191000Y-118872000D02*
X135001000Y-122682000D01*
D28*
X139573000Y-99441000D02*
X139573000Y-97917000D01*
X139573000Y-97917000D02*
X140335000Y-97155000D01*
D26*
X153733500Y-89344500D02*
X152908000Y-88519000D01*
X147421600Y-95910400D02*
X148971000Y-94361000D01*
D28*
X144272000Y-97155000D02*
X145516600Y-95910400D01*
D26*
X148971000Y-94361000D02*
X149923500Y-94361000D01*
D28*
X152781000Y-88519000D02*
X151828500Y-88519000D01*
D26*
X147066000Y-95910400D02*
X147421600Y-95910400D01*
X154241500Y-89344500D02*
X153733500Y-89344500D01*
D28*
X140335000Y-97155000D02*
X144272000Y-97155000D01*
D26*
X152908000Y-88519000D02*
X151828500Y-88519000D01*
D28*
X153670000Y-87630000D02*
X152781000Y-88519000D01*
X145516600Y-95910400D02*
X147066000Y-95910400D01*
X141986000Y-95910400D02*
X143611600Y-95910400D01*
X139700000Y-95910400D02*
X141986000Y-95910400D01*
X144399000Y-95123000D02*
X144399000Y-94551500D01*
X152908000Y-95885000D02*
X153289000Y-96266000D01*
X153289000Y-96266000D02*
X154178000Y-96266000D01*
X138303000Y-97307400D02*
X139700000Y-95910400D01*
X138303000Y-99441000D02*
X138303000Y-97307400D01*
X143611600Y-95910400D02*
X144399000Y-95123000D01*
X154241500Y-92773500D02*
X149161500Y-92773500D01*
X137033000Y-99441000D02*
X137033000Y-97028000D01*
X147574000Y-94361000D02*
X149923500Y-92011500D01*
X137033000Y-97028000D02*
X135915400Y-95910400D01*
X135978900Y-94551500D02*
X134620000Y-95910400D01*
X135915400Y-95910400D02*
X134620000Y-95910400D01*
X149161500Y-92773500D02*
X147574000Y-94361000D01*
X137160000Y-94551500D02*
X135978900Y-94551500D01*
X146304000Y-94361000D02*
X147574000Y-94361000D01*
X149923500Y-92011500D02*
X149923500Y-91059000D01*
X149923500Y-96329500D02*
X150368000Y-95885000D01*
X149923500Y-97155000D02*
X149923500Y-96329500D01*
X140843000Y-98557080D02*
X141356080Y-98044000D01*
X145288000Y-98044000D02*
X145923000Y-97409000D01*
X140843000Y-99441000D02*
X140843000Y-98557080D01*
X145923000Y-97409000D02*
X149669500Y-97409000D01*
X141356080Y-98044000D02*
X145288000Y-98044000D01*
X149669500Y-97409000D02*
X149923500Y-97155000D01*
D29*
X143296640Y-90510360D02*
X144264380Y-89542620D01*
D28*
X144399000Y-89677240D02*
X144264380Y-89542620D01*
D29*
X141986000Y-90510360D02*
X143296640Y-90510360D01*
D28*
X144399000Y-92646500D02*
X144399000Y-89677240D01*
D29*
X144264380Y-89542620D02*
X144264380Y-84455000D01*
D28*
X149923500Y-85112860D02*
X149265640Y-84455000D01*
X149923500Y-88519000D02*
X149923500Y-85112860D01*
D29*
X137246360Y-90337640D02*
X137246360Y-84455000D01*
X134620000Y-92710000D02*
X134874000Y-92710000D01*
D28*
X134683500Y-92646500D02*
X134620000Y-92710000D01*
D29*
X134874000Y-92710000D02*
X137246360Y-90337640D01*
D28*
X137160000Y-92646500D02*
X134683500Y-92646500D01*
X132588000Y-84795360D02*
X132247640Y-84455000D01*
X132588000Y-93789500D02*
X132588000Y-84795360D01*
D26*
X141205000Y-109283500D02*
X140116500Y-109283500D01*
X131089400Y-111989400D02*
X131089400Y-110871000D01*
X131400000Y-112300000D02*
X131089400Y-111989400D01*
X137100000Y-112300000D02*
X131400000Y-112300000D01*
X140116500Y-109283500D02*
X137100000Y-112300000D01*
X143745000Y-109283500D02*
X146158000Y-109283500D01*
X141205000Y-109283500D02*
X143745000Y-109283500D01*
X122174000Y-113347500D02*
X122174000Y-109156500D01*
X120650000Y-116586000D02*
X120650000Y-104775000D01*
X122174000Y-118110000D02*
X120650000Y-116586000D01*
X122174000Y-119380000D02*
X122174000Y-118110000D01*
X120650000Y-104775000D02*
X121069100Y-104355900D01*
X121069100Y-104355900D02*
X122174000Y-104355900D01*
X120904000Y-120396000D02*
X120904000Y-118237000D01*
X120904000Y-118237000D02*
X119888000Y-117221000D01*
X122174000Y-121666000D02*
X120904000Y-120396000D01*
X119888000Y-104140000D02*
X120472200Y-103555800D01*
X119888000Y-117221000D02*
X119888000Y-104140000D01*
X122174000Y-121920000D02*
X122174000Y-121666000D01*
X120472200Y-103555800D02*
X122174000Y-103555800D01*
X143644620Y-114300000D02*
X143644620Y-111288880D01*
X143644620Y-111288880D02*
X143745000Y-111188500D01*
X126492000Y-113728500D02*
X126492000Y-112776000D01*
X135305800Y-103555800D02*
X135636000Y-103886000D01*
X127088900Y-112179100D02*
X127088900Y-110871000D01*
X127088900Y-99441000D02*
X127088900Y-100799900D01*
X127889000Y-120650000D02*
X130683000Y-120650000D01*
X123748800Y-106756200D02*
X123825000Y-106680000D01*
X133604000Y-103555800D02*
X135305800Y-103555800D01*
D28*
X145923000Y-104521000D02*
X145923000Y-106172000D01*
D26*
X122174000Y-106756200D02*
X123748800Y-106756200D01*
X127088900Y-100799900D02*
X127762000Y-101473000D01*
X126492000Y-112776000D02*
X126619000Y-112649000D01*
X127088900Y-112179100D02*
X126619000Y-112649000D01*
X127381000Y-120142000D02*
X127889000Y-120650000D01*
X130048000Y-107442000D02*
X130048000Y-106553000D01*
X130048000Y-106553000D02*
X131445000Y-105156000D01*
X131445000Y-105156000D02*
X133604000Y-105156000D01*
X124460000Y-106045000D02*
X124460000Y-101346000D01*
X124688600Y-96494600D02*
X124460000Y-96266000D01*
X124460000Y-101346000D02*
X124688600Y-101117400D01*
X124968000Y-106553000D02*
X124460000Y-106045000D01*
X124688600Y-99441000D02*
X124688600Y-96494600D01*
X125349000Y-106553000D02*
X124968000Y-106553000D01*
X124688600Y-101117400D02*
X124688600Y-99441000D01*
X126365000Y-94996000D02*
X128016000Y-94996000D01*
X125730000Y-94361000D02*
X126365000Y-94996000D01*
X128524000Y-95504000D02*
X128524000Y-97155000D01*
X128016000Y-94996000D02*
X128524000Y-95504000D01*
X124460000Y-91186000D02*
X125730000Y-92456000D01*
X125730000Y-92456000D02*
X125730000Y-94361000D01*
X128524000Y-97155000D02*
X127889000Y-97790000D01*
X127889000Y-97790000D02*
X127889000Y-99441000D01*
X129489200Y-112344200D02*
X129794000Y-112649000D01*
X129489200Y-110871000D02*
X129489200Y-112344200D01*
X120789700Y-102755700D02*
X120650000Y-102616000D01*
X122174000Y-102755700D02*
X120789700Y-102755700D01*
X122809000Y-98298000D02*
X122809000Y-95377000D01*
X120650000Y-102616000D02*
X120650000Y-100457000D01*
X122809000Y-95377000D02*
X124460000Y-93726000D01*
X120650000Y-100457000D02*
X122809000Y-98298000D01*
X130848100Y-104355900D02*
X130810000Y-104394000D01*
X133604000Y-104355900D02*
X130848100Y-104355900D01*
X125488700Y-105143300D02*
X125488700Y-99441000D01*
X125488700Y-97777300D02*
X127000000Y-96266000D01*
X125488700Y-99441000D02*
X125488700Y-97777300D01*
X125349000Y-105283000D02*
X125488700Y-105143300D01*
X129159000Y-93345000D02*
X127000000Y-91186000D01*
X128689100Y-97878900D02*
X129159000Y-97409000D01*
X129159000Y-97409000D02*
X129159000Y-93345000D01*
X128689100Y-99441000D02*
X128689100Y-97878900D01*
X130289300Y-110871000D02*
X130289300Y-108851700D01*
X130289300Y-108851700D02*
X131064000Y-108077000D01*
X130175000Y-97409000D02*
X130175000Y-93726000D01*
X129489200Y-99441000D02*
X129489200Y-98094800D01*
X129489200Y-98094800D02*
X130175000Y-97409000D01*
X139573000Y-105345000D02*
X139573000Y-104521000D01*
X137361700Y-107556300D02*
X139573000Y-105345000D01*
X133604000Y-107556300D02*
X137361700Y-107556300D01*
X137064800Y-106756200D02*
X138303000Y-105518000D01*
X138303000Y-105518000D02*
X138303000Y-104521000D01*
X133604000Y-106756200D02*
X137064800Y-106756200D01*
X136613900Y-105956100D02*
X137033000Y-105537000D01*
X133604000Y-105956100D02*
X136613900Y-105956100D01*
X137033000Y-105537000D02*
X137033000Y-104521000D01*
X137804600Y-108356400D02*
X140843000Y-105318000D01*
X140843000Y-105318000D02*
X140843000Y-104521000D01*
X133604000Y-108356400D02*
X137804600Y-108356400D01*
X131889500Y-99441000D02*
X133731000Y-99441000D01*
X146558000Y-102235000D02*
X147891500Y-102235000D01*
X135064500Y-101155500D02*
X135990000Y-102081000D01*
X133604000Y-101155500D02*
X135064500Y-101155500D01*
X143383000Y-103632000D02*
X143383000Y-104521000D01*
X135990000Y-102081000D02*
X141832000Y-102081000D01*
X141832000Y-102081000D02*
X143383000Y-103632000D01*
X131089400Y-97561400D02*
X131089400Y-99441000D01*
X146431000Y-107188000D02*
X143891000Y-107188000D01*
X147891500Y-106553000D02*
X147066000Y-106553000D01*
X147066000Y-106553000D02*
X146431000Y-107188000D01*
X131064000Y-97536000D02*
X131089400Y-97561400D01*
X133604000Y-101955600D02*
X134848600Y-101955600D01*
X134848600Y-101955600D02*
X135709000Y-102816000D01*
X142113000Y-103505000D02*
X142113000Y-104521000D01*
X141424000Y-102816000D02*
X142113000Y-103505000D01*
X135709000Y-102816000D02*
X141424000Y-102816000D01*
X141313000Y-105918000D02*
X144272000Y-105918000D01*
X144272000Y-105918000D02*
X144653000Y-105537000D01*
X144653000Y-105537000D02*
X144653000Y-104521000D01*
X138074500Y-109156500D02*
X141313000Y-105918000D01*
X133604000Y-109156500D02*
X138074500Y-109156500D01*
D29*
X154178000Y-113157000D02*
X154178000Y-112022000D01*
X156718000Y-109482000D02*
X156718000Y-108585000D01*
X154178000Y-112022000D02*
X156718000Y-109482000D01*
D30*
X148643340Y-114300000D02*
X153035000Y-114300000D01*
X153035000Y-114300000D02*
X154178000Y-113157000D01*
D26*
X150700000Y-111152500D02*
X148500000Y-111152500D01*
X148643340Y-114300000D02*
X148643340Y-111295840D01*
X148643340Y-111295840D02*
X148500000Y-111152500D01*
D28*
X157900000Y-91923500D02*
X157861000Y-91884500D01*
X157900000Y-92900000D02*
X157900000Y-91923500D01*
X156718000Y-98806000D02*
X157861000Y-97663000D01*
D27*
X157543500Y-88455500D02*
X157861000Y-88773000D01*
X157861000Y-97536000D02*
X157861000Y-95250000D01*
X157861000Y-97663000D02*
X157861000Y-97536000D01*
D28*
X146558000Y-98806000D02*
X156718000Y-98806000D01*
X145923000Y-99441000D02*
X146558000Y-98806000D01*
D29*
X158750000Y-106553000D02*
X158750000Y-98425000D01*
X156718000Y-108585000D02*
X158750000Y-106553000D01*
X158750000Y-98425000D02*
X157861000Y-97536000D01*
D27*
X157861000Y-91884500D02*
X157861000Y-95250000D01*
X157861000Y-88773000D02*
X157861000Y-91884500D01*
X156273500Y-88455500D02*
X157543500Y-88455500D01*
X156210000Y-95377000D02*
X157734000Y-95377000D01*
X157734000Y-95377000D02*
X157861000Y-95250000D01*
X156273500Y-91884500D02*
X157861000Y-91884500D01*
D26*
X126492000Y-115633500D02*
X127825500Y-115633500D01*
X127889000Y-114935000D02*
X127889000Y-115697000D01*
X127889000Y-110871000D02*
X127889000Y-114935000D01*
X127889000Y-115697000D02*
X128206500Y-116014500D01*
X127825500Y-115633500D02*
X127889000Y-115697000D01*
X128206500Y-116014500D02*
X129159000Y-116014500D01*
X119761000Y-89154000D02*
X119761000Y-86309200D01*
X126288800Y-110871000D02*
X126288800Y-109143800D01*
X126288800Y-109143800D02*
X125603000Y-108458000D01*
X117983000Y-108077000D02*
X117983000Y-90932000D01*
X119761000Y-89154000D02*
X119761000Y-89789000D01*
X117983000Y-90932000D02*
X119761000Y-89154000D01*
X118999000Y-96570800D02*
X119761000Y-95808800D01*
X118999000Y-109093000D02*
X118999000Y-96570800D01*
X125488700Y-110871000D02*
X125488700Y-109867700D01*
X125488700Y-109867700D02*
X124714000Y-109093000D01*
X124714000Y-109093000D02*
X124079000Y-109093000D01*
X119761000Y-95808800D02*
X119761000Y-92329000D01*
X133644640Y-114300000D02*
X136844640Y-117500000D01*
X141200000Y-111193500D02*
X141205000Y-111188500D01*
X141200000Y-116500000D02*
X141200000Y-111193500D01*
X140200000Y-117500000D02*
X141200000Y-116500000D01*
X136844640Y-117500000D02*
X140200000Y-117500000D01*
X129413000Y-119253000D02*
X129413000Y-117983000D01*
X129413000Y-117983000D02*
X129667000Y-117729000D01*
X122682000Y-123571000D02*
X123444000Y-122809000D01*
X123444000Y-122809000D02*
X123444000Y-118491000D01*
X121285000Y-123571000D02*
X122682000Y-123571000D01*
X123444000Y-118491000D02*
X123888500Y-118046500D01*
X119634000Y-121920000D02*
X121285000Y-123571000D01*
X123888500Y-118046500D02*
X123888500Y-110871000D01*
X124714000Y-121666000D02*
X125984000Y-120396000D01*
X125984000Y-118110000D02*
X124688600Y-116814600D01*
X124688600Y-116814600D02*
X124688600Y-110871000D01*
X124714000Y-121920000D02*
X124714000Y-121666000D01*
X125984000Y-120396000D02*
X125984000Y-118110000D01*
X124968000Y-122174000D02*
X124714000Y-121920000D01*
X127317500Y-122174000D02*
X124968000Y-122174000D01*
D29*
X154559000Y-104394000D02*
X154559000Y-103505000D01*
X154559000Y-103505000D02*
X154559000Y-100965000D01*
X155829000Y-105664000D02*
X154559000Y-104394000D01*
X155829000Y-106553000D02*
X155829000Y-105664000D01*
D28*
X149796500Y-102235000D02*
X150749000Y-102235000D01*
X150749000Y-102235000D02*
X152019000Y-100965000D01*
X151257000Y-100203000D02*
X152019000Y-100965000D01*
X149796500Y-100203000D02*
X151257000Y-100203000D01*
X151130000Y-104394000D02*
X152019000Y-103505000D01*
X149796500Y-106553000D02*
X149796500Y-104394000D01*
X149796500Y-104394000D02*
X151130000Y-104394000D01*
D26*
X150700000Y-109247500D02*
X151102500Y-109247500D01*
X151102500Y-109247500D02*
X151765000Y-108585000D01*
X144653000Y-100965000D02*
X144653000Y-99441000D01*
X151765000Y-108585000D02*
X154940000Y-108585000D01*
X151765000Y-108585000D02*
X151765000Y-107950000D01*
X155384500Y-90233500D02*
X156273500Y-90233500D01*
X151828500Y-91059000D02*
X154559000Y-91059000D01*
X154559000Y-91059000D02*
X155384500Y-90233500D01*
X155702000Y-97663000D02*
X156210000Y-97155000D01*
X151828500Y-97155000D02*
X152336500Y-97663000D01*
X152336500Y-97663000D02*
X155702000Y-97663000D01*
X155638500Y-93662500D02*
X156273500Y-93662500D01*
X154940000Y-94361000D02*
X155638500Y-93662500D01*
X151828500Y-94361000D02*
X154178000Y-94361000D01*
X154178000Y-94361000D02*
X154940000Y-94361000D01*
X127381000Y-117729000D02*
X126746000Y-117094000D01*
X122174000Y-116459000D02*
X122174000Y-115252500D01*
X122809000Y-117094000D02*
X122174000Y-116459000D01*
X127381000Y-118364000D02*
X127381000Y-117729000D01*
X147891500Y-100203000D02*
X147193000Y-100203000D01*
X147193000Y-100203000D02*
X145542000Y-101854000D01*
X145542000Y-101854000D02*
X144018000Y-101854000D01*
D28*
X143383000Y-99441000D02*
X143383000Y-101219000D01*
D26*
X144018000Y-101854000D02*
X143383000Y-101219000D01*
D28*
X135636000Y-100584000D02*
X136271000Y-101219000D01*
D26*
X147891500Y-104394000D02*
X146621500Y-103124000D01*
X146621500Y-103124000D02*
X144018000Y-103124000D01*
X144018000Y-103124000D02*
X142113000Y-101219000D01*
D28*
X142113000Y-100838000D02*
X142113000Y-99441000D01*
X136271000Y-101219000D02*
X141732000Y-101219000D01*
D26*
X142113000Y-101219000D02*
X142113000Y-99441000D01*
D28*
X135636000Y-99441000D02*
X135636000Y-100584000D01*
X132588000Y-96393000D02*
X135636000Y-99441000D01*
X141732000Y-101219000D02*
X142113000Y-100838000D01*
X132588000Y-95694500D02*
X132588000Y-96393000D01*
D26*
X148500000Y-109247500D02*
X147352500Y-108100000D01*
X137429000Y-110871000D02*
X131889500Y-110871000D01*
X140200000Y-108100000D02*
X137429000Y-110871000D01*
X147352500Y-108100000D02*
X140200000Y-108100000D01*
X122174000Y-101955600D02*
X122961400Y-101955600D01*
X123888500Y-101028500D02*
X123888500Y-99441000D01*
X122961400Y-101955600D02*
X123888500Y-101028500D01*
D31*
G36*
X126296198Y-100447180D02*
G01*
X126301501Y-100457101D01*
X126301501Y-100761228D01*
X126297692Y-100799900D01*
X126312895Y-100954257D01*
X126357918Y-101102682D01*
X126421623Y-101221863D01*
X126431035Y-101239472D01*
X126529432Y-101359369D01*
X126559472Y-101384022D01*
X126682500Y-101507050D01*
X126682500Y-101579321D01*
X126723985Y-101787878D01*
X126805360Y-101984335D01*
X126923498Y-102161141D01*
X127073859Y-102311502D01*
X127250665Y-102429640D01*
X127447122Y-102511015D01*
X127655679Y-102552500D01*
X127868321Y-102552500D01*
X128076878Y-102511015D01*
X128273335Y-102429640D01*
X128450141Y-102311502D01*
X128600502Y-102161141D01*
X128718640Y-101984335D01*
X128800015Y-101787878D01*
X128841500Y-101579321D01*
X128841500Y-101366679D01*
X128800015Y-101158122D01*
X128718640Y-100961665D01*
X128638062Y-100841072D01*
X128892300Y-100841072D01*
X129016782Y-100828812D01*
X129089150Y-100806859D01*
X129161518Y-100828812D01*
X129286000Y-100841072D01*
X129692400Y-100841072D01*
X129816882Y-100828812D01*
X129889250Y-100806859D01*
X129961618Y-100828812D01*
X130086100Y-100841072D01*
X130492500Y-100841072D01*
X130616982Y-100828812D01*
X130689350Y-100806859D01*
X130761718Y-100828812D01*
X130886200Y-100841072D01*
X131292600Y-100841072D01*
X131417082Y-100828812D01*
X131489450Y-100806859D01*
X131561818Y-100828812D01*
X131686300Y-100841072D01*
X132092700Y-100841072D01*
X132216079Y-100828921D01*
X132203928Y-100952300D01*
X132203928Y-101358700D01*
X132216188Y-101483182D01*
X132238141Y-101555550D01*
X132216188Y-101627918D01*
X132203928Y-101752400D01*
X132203928Y-102158800D01*
X132216188Y-102283282D01*
X132238204Y-102355860D01*
X132218086Y-102418830D01*
X132207000Y-102520750D01*
X132365750Y-102679500D01*
X132475520Y-102679500D01*
X132487506Y-102689337D01*
X132597820Y-102748302D01*
X132622208Y-102755700D01*
X132597820Y-102763098D01*
X132487506Y-102822063D01*
X132475520Y-102831900D01*
X132365750Y-102831900D01*
X132207000Y-102990650D01*
X132218086Y-103092570D01*
X132238204Y-103155540D01*
X132216188Y-103228118D01*
X132203928Y-103352600D01*
X132203928Y-103568500D01*
X131511143Y-103568500D01*
X131498141Y-103555498D01*
X131321335Y-103437360D01*
X131124878Y-103355985D01*
X130916321Y-103314500D01*
X130703679Y-103314500D01*
X130495122Y-103355985D01*
X130298665Y-103437360D01*
X130121859Y-103555498D01*
X129971498Y-103705859D01*
X129853360Y-103882665D01*
X129771985Y-104079122D01*
X129730500Y-104287679D01*
X129730500Y-104500321D01*
X129771985Y-104708878D01*
X129853360Y-104905335D01*
X129971498Y-105082141D01*
X130121859Y-105232502D01*
X130201639Y-105285810D01*
X129518573Y-105968877D01*
X129488532Y-105993531D01*
X129434799Y-106059005D01*
X129390135Y-106113428D01*
X129317018Y-106250218D01*
X129295543Y-106321015D01*
X129271995Y-106398643D01*
X129260600Y-106514327D01*
X129260600Y-106514337D01*
X129256792Y-106553000D01*
X129260600Y-106591663D01*
X129260600Y-106702757D01*
X129209498Y-106753859D01*
X129091360Y-106930665D01*
X129009985Y-107127122D01*
X128968500Y-107335679D01*
X128968500Y-107548321D01*
X129009985Y-107756878D01*
X129091360Y-107953335D01*
X129209498Y-108130141D01*
X129359859Y-108280502D01*
X129536665Y-108398640D01*
X129620159Y-108433224D01*
X129558318Y-108548918D01*
X129513295Y-108697343D01*
X129498092Y-108851700D01*
X129501901Y-108890373D01*
X129501901Y-109470928D01*
X129286000Y-109470928D01*
X129161518Y-109483188D01*
X129088940Y-109505204D01*
X129025970Y-109485086D01*
X128924050Y-109474000D01*
X128765300Y-109632750D01*
X128765300Y-109742520D01*
X128755463Y-109754506D01*
X128696498Y-109864820D01*
X128689100Y-109889208D01*
X128681702Y-109864820D01*
X128622737Y-109754506D01*
X128612900Y-109742520D01*
X128612900Y-109632750D01*
X128454150Y-109474000D01*
X128352230Y-109485086D01*
X128289260Y-109505204D01*
X128216682Y-109483188D01*
X128092200Y-109470928D01*
X127685800Y-109470928D01*
X127561318Y-109483188D01*
X127488950Y-109505141D01*
X127416582Y-109483188D01*
X127292100Y-109470928D01*
X127076200Y-109470928D01*
X127076200Y-109182465D01*
X127080008Y-109143800D01*
X127076200Y-109105135D01*
X127076200Y-109105127D01*
X127064806Y-108989443D01*
X127019782Y-108841017D01*
X126946666Y-108704228D01*
X126930133Y-108684082D01*
X126872922Y-108614370D01*
X126872919Y-108614367D01*
X126848269Y-108584331D01*
X126818233Y-108559681D01*
X126682500Y-108423949D01*
X126682500Y-108351679D01*
X126641015Y-108143122D01*
X126559640Y-107946665D01*
X126441502Y-107769859D01*
X126291141Y-107619498D01*
X126114335Y-107501360D01*
X125965186Y-107439581D01*
X126037141Y-107391502D01*
X126187502Y-107241141D01*
X126305640Y-107064335D01*
X126387015Y-106867878D01*
X126428500Y-106659321D01*
X126428500Y-106446679D01*
X126387015Y-106238122D01*
X126305640Y-106041665D01*
X126223010Y-105918000D01*
X126305640Y-105794335D01*
X126387015Y-105597878D01*
X126428500Y-105389321D01*
X126428500Y-105176679D01*
X126387015Y-104968122D01*
X126305640Y-104771665D01*
X126276100Y-104727455D01*
X126276100Y-100457099D01*
X126281402Y-100447180D01*
X126288800Y-100422792D01*
X126296198Y-100447180D01*
G37*
X126296198Y-100447180D02*
X126301501Y-100457101D01*
X126301501Y-100761228D01*
X126297692Y-100799900D01*
X126312895Y-100954257D01*
X126357918Y-101102682D01*
X126421623Y-101221863D01*
X126431035Y-101239472D01*
X126529432Y-101359369D01*
X126559472Y-101384022D01*
X126682500Y-101507050D01*
X126682500Y-101579321D01*
X126723985Y-101787878D01*
X126805360Y-101984335D01*
X126923498Y-102161141D01*
X127073859Y-102311502D01*
X127250665Y-102429640D01*
X127447122Y-102511015D01*
X127655679Y-102552500D01*
X127868321Y-102552500D01*
X128076878Y-102511015D01*
X128273335Y-102429640D01*
X128450141Y-102311502D01*
X128600502Y-102161141D01*
X128718640Y-101984335D01*
X128800015Y-101787878D01*
X128841500Y-101579321D01*
X128841500Y-101366679D01*
X128800015Y-101158122D01*
X128718640Y-100961665D01*
X128638062Y-100841072D01*
X128892300Y-100841072D01*
X129016782Y-100828812D01*
X129089150Y-100806859D01*
X129161518Y-100828812D01*
X129286000Y-100841072D01*
X129692400Y-100841072D01*
X129816882Y-100828812D01*
X129889250Y-100806859D01*
X129961618Y-100828812D01*
X130086100Y-100841072D01*
X130492500Y-100841072D01*
X130616982Y-100828812D01*
X130689350Y-100806859D01*
X130761718Y-100828812D01*
X130886200Y-100841072D01*
X131292600Y-100841072D01*
X131417082Y-100828812D01*
X131489450Y-100806859D01*
X131561818Y-100828812D01*
X131686300Y-100841072D01*
X132092700Y-100841072D01*
X132216079Y-100828921D01*
X132203928Y-100952300D01*
X132203928Y-101358700D01*
X132216188Y-101483182D01*
X132238141Y-101555550D01*
X132216188Y-101627918D01*
X132203928Y-101752400D01*
X132203928Y-102158800D01*
X132216188Y-102283282D01*
X132238204Y-102355860D01*
X132218086Y-102418830D01*
X132207000Y-102520750D01*
X132365750Y-102679500D01*
X132475520Y-102679500D01*
X132487506Y-102689337D01*
X132597820Y-102748302D01*
X132622208Y-102755700D01*
X132597820Y-102763098D01*
X132487506Y-102822063D01*
X132475520Y-102831900D01*
X132365750Y-102831900D01*
X132207000Y-102990650D01*
X132218086Y-103092570D01*
X132238204Y-103155540D01*
X132216188Y-103228118D01*
X132203928Y-103352600D01*
X132203928Y-103568500D01*
X131511143Y-103568500D01*
X131498141Y-103555498D01*
X131321335Y-103437360D01*
X131124878Y-103355985D01*
X130916321Y-103314500D01*
X130703679Y-103314500D01*
X130495122Y-103355985D01*
X130298665Y-103437360D01*
X130121859Y-103555498D01*
X129971498Y-103705859D01*
X129853360Y-103882665D01*
X129771985Y-104079122D01*
X129730500Y-104287679D01*
X129730500Y-104500321D01*
X129771985Y-104708878D01*
X129853360Y-104905335D01*
X129971498Y-105082141D01*
X130121859Y-105232502D01*
X130201639Y-105285810D01*
X129518573Y-105968877D01*
X129488532Y-105993531D01*
X129434799Y-106059005D01*
X129390135Y-106113428D01*
X129317018Y-106250218D01*
X129295543Y-106321015D01*
X129271995Y-106398643D01*
X129260600Y-106514327D01*
X129260600Y-106514337D01*
X129256792Y-106553000D01*
X129260600Y-106591663D01*
X129260600Y-106702757D01*
X129209498Y-106753859D01*
X129091360Y-106930665D01*
X129009985Y-107127122D01*
X128968500Y-107335679D01*
X128968500Y-107548321D01*
X129009985Y-107756878D01*
X129091360Y-107953335D01*
X129209498Y-108130141D01*
X129359859Y-108280502D01*
X129536665Y-108398640D01*
X129620159Y-108433224D01*
X129558318Y-108548918D01*
X129513295Y-108697343D01*
X129498092Y-108851700D01*
X129501901Y-108890373D01*
X129501901Y-109470928D01*
X129286000Y-109470928D01*
X129161518Y-109483188D01*
X129088940Y-109505204D01*
X129025970Y-109485086D01*
X128924050Y-109474000D01*
X128765300Y-109632750D01*
X128765300Y-109742520D01*
X128755463Y-109754506D01*
X128696498Y-109864820D01*
X128689100Y-109889208D01*
X128681702Y-109864820D01*
X128622737Y-109754506D01*
X128612900Y-109742520D01*
X128612900Y-109632750D01*
X128454150Y-109474000D01*
X128352230Y-109485086D01*
X128289260Y-109505204D01*
X128216682Y-109483188D01*
X128092200Y-109470928D01*
X127685800Y-109470928D01*
X127561318Y-109483188D01*
X127488950Y-109505141D01*
X127416582Y-109483188D01*
X127292100Y-109470928D01*
X127076200Y-109470928D01*
X127076200Y-109182465D01*
X127080008Y-109143800D01*
X127076200Y-109105135D01*
X127076200Y-109105127D01*
X127064806Y-108989443D01*
X127019782Y-108841017D01*
X126946666Y-108704228D01*
X126930133Y-108684082D01*
X126872922Y-108614370D01*
X126872919Y-108614367D01*
X126848269Y-108584331D01*
X126818233Y-108559681D01*
X126682500Y-108423949D01*
X126682500Y-108351679D01*
X126641015Y-108143122D01*
X126559640Y-107946665D01*
X126441502Y-107769859D01*
X126291141Y-107619498D01*
X126114335Y-107501360D01*
X125965186Y-107439581D01*
X126037141Y-107391502D01*
X126187502Y-107241141D01*
X126305640Y-107064335D01*
X126387015Y-106867878D01*
X126428500Y-106659321D01*
X126428500Y-106446679D01*
X126387015Y-106238122D01*
X126305640Y-106041665D01*
X126223010Y-105918000D01*
X126305640Y-105794335D01*
X126387015Y-105597878D01*
X126428500Y-105389321D01*
X126428500Y-105176679D01*
X126387015Y-104968122D01*
X126305640Y-104771665D01*
X126276100Y-104727455D01*
X126276100Y-100457099D01*
X126281402Y-100447180D01*
X126288800Y-100422792D01*
X126296198Y-100447180D01*
M02*
