G04 #@! TF.GenerationSoftware,KiCad,Pcbnew,(5.1.5)-3*
G04 #@! TF.CreationDate,2021-08-30T19:46:02+02:00*
G04 #@! TF.ProjectId,wa2,7761322e-6b69-4636-9164-5f7063625858,0428 -*
G04 #@! TF.SameCoordinates,Original*
G04 #@! TF.FileFunction,Soldermask,Top*
G04 #@! TF.FilePolarity,Negative*
%FSLAX46Y46*%
G04 Gerber Fmt 4.6, Leading zero omitted, Abs format (unit mm)*
G04 Created by KiCad (PCBNEW (5.1.5)-3) date 2021-08-30 19:46:02*
%MOMM*%
%LPD*%
G04 APERTURE LIST*
%ADD10C,6.908800*%
%ADD11R,1.905000X1.397000*%
%ADD12R,2.159000X2.159000*%
%ADD13C,2.159000*%
%ADD14C,3.556000*%
%ADD15R,3.556000X3.556000*%
%ADD16R,2.032000X2.032000*%
%ADD17C,2.032000*%
%ADD18R,1.422400X1.422400*%
%ADD19R,1.397000X1.905000*%
%ADD20C,1.778000*%
%ADD21R,1.016000X1.651000*%
%ADD22R,0.914400X2.032000*%
%ADD23R,2.032000X0.914400*%
%ADD24R,2.506980X6.007100*%
G04 APERTURE END LIST*
D10*
X156083000Y-120777000D03*
X120523000Y-77978000D03*
D11*
X126492000Y-115633500D03*
X126492000Y-113728500D03*
D12*
X154178000Y-113157000D03*
D13*
X156718000Y-113157000D03*
D14*
X144264380Y-84455000D03*
D15*
X154264360Y-84455000D03*
D14*
X149265640Y-84455000D03*
X132247640Y-84455000D03*
D15*
X137246360Y-84455000D03*
D14*
X127246380Y-84455000D03*
X148643340Y-114300000D03*
X138643360Y-114300000D03*
D15*
X133644640Y-114300000D03*
D14*
X143644620Y-114300000D03*
D16*
X119634000Y-121920000D03*
D17*
X119634000Y-119380000D03*
X122174000Y-121920000D03*
X122174000Y-119380000D03*
X124714000Y-121920000D03*
X124714000Y-119380000D03*
D11*
X129159000Y-114109500D03*
X129159000Y-116014500D03*
D17*
X152019000Y-103505000D03*
X152019000Y-100965000D03*
X154559000Y-103505000D03*
X154559000Y-100965000D03*
X157099000Y-103505000D03*
D16*
X157099000Y-100965000D03*
X124460000Y-88646000D03*
D17*
X127000000Y-88646000D03*
X124460000Y-91186000D03*
X127000000Y-91186000D03*
X124460000Y-93726000D03*
X127000000Y-93726000D03*
X124460000Y-96266000D03*
X127000000Y-96266000D03*
D18*
X156718000Y-108585000D03*
X154940000Y-108585000D03*
X155829000Y-106553000D03*
X154241500Y-89344500D03*
X156273500Y-90233500D03*
X156273500Y-88455500D03*
X156210000Y-95377000D03*
X156210000Y-97155000D03*
X154178000Y-96266000D03*
X156273500Y-91884500D03*
X156273500Y-93662500D03*
X154241500Y-92773500D03*
X129413000Y-119253000D03*
X127381000Y-118364000D03*
X127381000Y-120142000D03*
D11*
X150700000Y-109247500D03*
X150700000Y-111152500D03*
D19*
X151828500Y-91059000D03*
X149923500Y-91059000D03*
X149923500Y-97155000D03*
X151828500Y-97155000D03*
X149923500Y-94361000D03*
X151828500Y-94361000D03*
X149796500Y-102235000D03*
X147891500Y-102235000D03*
X149796500Y-100203000D03*
X147891500Y-100203000D03*
X147891500Y-106553000D03*
X149796500Y-106553000D03*
X147891500Y-104394000D03*
X149796500Y-104394000D03*
D11*
X132588000Y-93789500D03*
X132588000Y-95694500D03*
D19*
X151828500Y-88519000D03*
X149923500Y-88519000D03*
D11*
X144399000Y-92646500D03*
X144399000Y-94551500D03*
X137160000Y-94551500D03*
X137160000Y-92646500D03*
X146158000Y-109283500D03*
X146158000Y-111188500D03*
X141205000Y-111188500D03*
X141205000Y-109283500D03*
X122174000Y-115252500D03*
X122174000Y-113347500D03*
X143745000Y-111188500D03*
X143745000Y-109283500D03*
X148500000Y-109247500D03*
X148500000Y-111152500D03*
D19*
X127317500Y-122174000D03*
X129222500Y-122174000D03*
D20*
X147066000Y-95910400D03*
X141986000Y-95910400D03*
X147066000Y-92710000D03*
X147066000Y-90510360D03*
X147066000Y-88310720D03*
X141986000Y-92710000D03*
X141986000Y-90510360D03*
X141986000Y-88310720D03*
X134620000Y-88310720D03*
X134620000Y-90510360D03*
X134620000Y-92710000D03*
X139700000Y-88310720D03*
X139700000Y-90510360D03*
X139700000Y-92710000D03*
X134620000Y-95910400D03*
X139700000Y-95910400D03*
D21*
X137033000Y-104521000D03*
X138303000Y-104521000D03*
X139573000Y-104521000D03*
X140843000Y-104521000D03*
X142113000Y-104521000D03*
X143383000Y-104521000D03*
X144653000Y-104521000D03*
X145923000Y-104521000D03*
X145923000Y-99441000D03*
X144653000Y-99441000D03*
X143383000Y-99441000D03*
X142113000Y-99441000D03*
X140843000Y-99441000D03*
X139573000Y-99441000D03*
X138303000Y-99441000D03*
X137033000Y-99441000D03*
D22*
X127889000Y-110871000D03*
X128689100Y-110871000D03*
X129489200Y-110871000D03*
X130289300Y-110871000D03*
X131089400Y-110871000D03*
X131889500Y-110871000D03*
X127088900Y-110871000D03*
X126288800Y-110871000D03*
X125488700Y-110871000D03*
X124688600Y-110871000D03*
X123888500Y-110871000D03*
X127889000Y-99441000D03*
X128689100Y-99441000D03*
X129489200Y-99441000D03*
X130289300Y-99441000D03*
X131089400Y-99441000D03*
X131889500Y-99441000D03*
X127088900Y-99441000D03*
X126288800Y-99441000D03*
X125488700Y-99441000D03*
X124688600Y-99441000D03*
X123888500Y-99441000D03*
D23*
X133604000Y-105156000D03*
X122174000Y-105156000D03*
X133604000Y-104355900D03*
X122174000Y-104355900D03*
X122174000Y-103555800D03*
X133604000Y-103555800D03*
X133604000Y-102755700D03*
X122174000Y-102755700D03*
X122174000Y-101955600D03*
X133604000Y-101955600D03*
X133604000Y-101155500D03*
X122174000Y-101155500D03*
X122174000Y-105956100D03*
X133604000Y-105956100D03*
X133604000Y-106756200D03*
X122174000Y-106756200D03*
X122174000Y-107556300D03*
X133604000Y-107556300D03*
X133604000Y-108356400D03*
X122174000Y-108356400D03*
X122174000Y-109156500D03*
X133604000Y-109156500D03*
D24*
X119761000Y-86309200D03*
X119761000Y-95808800D03*
M02*
