G04 #@! TF.GenerationSoftware,KiCad,Pcbnew,(5.1.5)-3*
G04 #@! TF.CreationDate,2021-08-30T19:46:02+02:00*
G04 #@! TF.ProjectId,wa2,7761322e-6b69-4636-9164-5f7063625858,0428 -*
G04 #@! TF.SameCoordinates,Original*
G04 #@! TF.FileFunction,Legend,Bot*
G04 #@! TF.FilePolarity,Positive*
%FSLAX46Y46*%
G04 Gerber Fmt 4.6, Leading zero omitted, Abs format (unit mm)*
G04 Created by KiCad (PCBNEW (5.1.5)-3) date 2021-08-30 19:46:02*
%MOMM*%
%LPD*%
G04 APERTURE LIST*
%ADD10C,0.381000*%
%ADD11C,0.304800*%
%ADD12C,0.127000*%
%ADD13C,0.119380*%
%ADD14C,0.190500*%
%ADD15C,0.203200*%
G04 APERTURE END LIST*
D10*
X117094000Y-124333000D02*
X117094000Y-74422000D01*
X159639000Y-124333000D02*
X117094000Y-124333000D01*
X159639000Y-74422000D02*
X159639000Y-124333000D01*
X117094000Y-74422000D02*
X159639000Y-74422000D01*
D11*
X149279428Y-102585761D02*
X149206857Y-102489000D01*
X149061714Y-102392238D01*
X148698857Y-102392238D01*
X148553714Y-102489000D01*
X148481142Y-102585761D01*
X148408571Y-102779285D01*
X148408571Y-102972809D01*
X148481142Y-103263095D01*
X149352000Y-104424238D01*
X148408571Y-104424238D01*
X148408571Y-101630238D02*
X149279428Y-101630238D01*
X148844000Y-101630238D02*
X148844000Y-99598238D01*
X148989142Y-99888523D01*
X149134285Y-100082047D01*
X149279428Y-100178809D01*
X132515428Y-76550761D02*
X132442857Y-76454000D01*
X132297714Y-76357238D01*
X131934857Y-76357238D01*
X131789714Y-76454000D01*
X131717142Y-76550761D01*
X131644571Y-76744285D01*
X131644571Y-76937809D01*
X131717142Y-77228095D01*
X132588000Y-78389238D01*
X131644571Y-78389238D01*
X149043571Y-78389238D02*
X149914428Y-78389238D01*
X149479000Y-78389238D02*
X149479000Y-76357238D01*
X149624142Y-76647523D01*
X149769285Y-76841047D01*
X149914428Y-76937809D01*
X158223857Y-97173142D02*
X157062714Y-97173142D01*
X155175857Y-97173142D02*
X154014714Y-97173142D01*
X154595285Y-97947238D02*
X154595285Y-96399047D01*
X152200428Y-97850476D02*
X151982714Y-97947238D01*
X151619857Y-97947238D01*
X151474714Y-97850476D01*
X151402142Y-97753714D01*
X151329571Y-97560190D01*
X151329571Y-97366666D01*
X151402142Y-97173142D01*
X151474714Y-97076380D01*
X151619857Y-96979619D01*
X151910142Y-96882857D01*
X152055285Y-96786095D01*
X152127857Y-96689333D01*
X152200428Y-96495809D01*
X152200428Y-96302285D01*
X152127857Y-96108761D01*
X152055285Y-96012000D01*
X151910142Y-95915238D01*
X151547285Y-95915238D01*
X151329571Y-96012000D01*
X136561285Y-81564238D02*
X137287000Y-81564238D01*
X137287000Y-79532238D01*
X131608285Y-81564238D02*
X132116285Y-80596619D01*
X132479142Y-81564238D02*
X132479142Y-79532238D01*
X131898571Y-79532238D01*
X131753428Y-79629000D01*
X131680857Y-79725761D01*
X131608285Y-79919285D01*
X131608285Y-80209571D01*
X131680857Y-80403095D01*
X131753428Y-80499857D01*
X131898571Y-80596619D01*
X132479142Y-80596619D01*
X127562428Y-81564238D02*
X127562428Y-79532238D01*
X127562428Y-80499857D02*
X126691571Y-80499857D01*
X126691571Y-81564238D02*
X126691571Y-79532238D01*
X144453428Y-81564238D02*
X144453428Y-79532238D01*
X144453428Y-80499857D02*
X143582571Y-80499857D01*
X143582571Y-81564238D02*
X143582571Y-79532238D01*
X149007285Y-81564238D02*
X149515285Y-80596619D01*
X149878142Y-81564238D02*
X149878142Y-79532238D01*
X149297571Y-79532238D01*
X149152428Y-79629000D01*
X149079857Y-79725761D01*
X149007285Y-79919285D01*
X149007285Y-80209571D01*
X149079857Y-80403095D01*
X149152428Y-80499857D01*
X149297571Y-80596619D01*
X149878142Y-80596619D01*
X153960285Y-81564238D02*
X154686000Y-81564238D01*
X154686000Y-79532238D01*
D12*
X148336000Y-119761000D02*
X148336000Y-119380000D01*
X148717000Y-119761000D02*
X147955000Y-119761000D01*
X148336000Y-120396000D02*
X148336000Y-120015000D01*
X148336000Y-120015000D02*
X148717000Y-120015000D01*
X148717000Y-120015000D02*
X147955000Y-120015000D01*
X124587000Y-103378000D02*
X124206000Y-103378000D01*
X124587000Y-102997000D02*
X124587000Y-103759000D01*
X125222000Y-103378000D02*
X124841000Y-103378000D01*
X124841000Y-103378000D02*
X124841000Y-102997000D01*
X124841000Y-102997000D02*
X124841000Y-103759000D01*
X129794000Y-100330000D02*
X129032000Y-100330000D01*
X129413000Y-100330000D02*
X129794000Y-100330000D01*
X129413000Y-100711000D02*
X129413000Y-100330000D01*
X129794000Y-100076000D02*
X129032000Y-100076000D01*
X129413000Y-100076000D02*
X129413000Y-99695000D01*
X132715000Y-103378000D02*
X132715000Y-102616000D01*
X132715000Y-102997000D02*
X132715000Y-103378000D01*
X132334000Y-102997000D02*
X132715000Y-102997000D01*
X132969000Y-103378000D02*
X132969000Y-102616000D01*
X132969000Y-102997000D02*
X133350000Y-102997000D01*
X133223000Y-122555000D02*
X133223000Y-123063000D01*
X132969000Y-122809000D02*
X133477000Y-122809000D01*
X133223000Y-120015000D02*
X133223000Y-120396000D01*
X132842000Y-120015000D02*
X133604000Y-120015000D01*
X133223000Y-119380000D02*
X133223000Y-119761000D01*
X133223000Y-119761000D02*
X132842000Y-119761000D01*
X132842000Y-119761000D02*
X133604000Y-119761000D01*
X120777000Y-87376000D02*
X120777000Y-86995000D01*
X121158000Y-87376000D02*
X120396000Y-87376000D01*
X120777000Y-88011000D02*
X120777000Y-87630000D01*
X120777000Y-87630000D02*
X121158000Y-87630000D01*
X121158000Y-87630000D02*
X120396000Y-87630000D01*
X120523000Y-94615000D02*
X121285000Y-94615000D01*
X120904000Y-94615000D02*
X120523000Y-94615000D01*
X120904000Y-94234000D02*
X120904000Y-94615000D01*
X120523000Y-94869000D02*
X121285000Y-94869000D01*
X120904000Y-94869000D02*
X120904000Y-95250000D01*
X128270000Y-106807000D02*
X128270000Y-103759000D01*
X128270000Y-103759000D02*
X127508000Y-103759000D01*
X127508000Y-103759000D02*
X127508000Y-106807000D01*
X127508000Y-106807000D02*
X128270000Y-106807000D01*
X127508000Y-110363000D02*
X128270000Y-110363000D01*
X127508000Y-107315000D02*
X127508000Y-110363000D01*
X128270000Y-107315000D02*
X127508000Y-107315000D01*
X128270000Y-110363000D02*
X128270000Y-107315000D01*
X153289000Y-98806000D02*
X153035000Y-98806000D01*
X154051000Y-98806000D02*
X153797000Y-98806000D01*
X153797000Y-98552000D02*
X153797000Y-98933000D01*
X153797000Y-98933000D02*
X153797000Y-99060000D01*
X153797000Y-99060000D02*
X153289000Y-99060000D01*
X153289000Y-99060000D02*
X153289000Y-98552000D01*
X153289000Y-98552000D02*
X153797000Y-98552000D01*
X153289000Y-105537000D02*
X153797000Y-105537000D01*
X153289000Y-106045000D02*
X153289000Y-105537000D01*
X153797000Y-106045000D02*
X153289000Y-106045000D01*
X153797000Y-105918000D02*
X153797000Y-106045000D01*
X153797000Y-105537000D02*
X153797000Y-105918000D01*
X154051000Y-105791000D02*
X153797000Y-105791000D01*
X153289000Y-105791000D02*
X153035000Y-105791000D01*
X132588000Y-93472000D02*
X132588000Y-93218000D01*
X132588000Y-94234000D02*
X132588000Y-93980000D01*
X132842000Y-93980000D02*
X132461000Y-93980000D01*
X132461000Y-93980000D02*
X132334000Y-93980000D01*
X132334000Y-93980000D02*
X132334000Y-93472000D01*
X132334000Y-93472000D02*
X132842000Y-93472000D01*
X132842000Y-93472000D02*
X132842000Y-93980000D01*
X155500000Y-89446000D02*
X155500000Y-89192000D01*
X155500000Y-90208000D02*
X155500000Y-89954000D01*
X155754000Y-89954000D02*
X155373000Y-89954000D01*
X155373000Y-89954000D02*
X155246000Y-89954000D01*
X155246000Y-89954000D02*
X155246000Y-89446000D01*
X155246000Y-89446000D02*
X155754000Y-89446000D01*
X155754000Y-89446000D02*
X155754000Y-89954000D01*
X155500000Y-94154000D02*
X155500000Y-94408000D01*
X155500000Y-93392000D02*
X155500000Y-93646000D01*
X155246000Y-93646000D02*
X155627000Y-93646000D01*
X155627000Y-93646000D02*
X155754000Y-93646000D01*
X155754000Y-93646000D02*
X155754000Y-94154000D01*
X155754000Y-94154000D02*
X155246000Y-94154000D01*
X155246000Y-94154000D02*
X155246000Y-93646000D01*
X131826000Y-106172000D02*
X131572000Y-106172000D01*
X132588000Y-106172000D02*
X132334000Y-106172000D01*
X132334000Y-105918000D02*
X132334000Y-106299000D01*
X132334000Y-106299000D02*
X132334000Y-106426000D01*
X132334000Y-106426000D02*
X131826000Y-106426000D01*
X131826000Y-106426000D02*
X131826000Y-105918000D01*
X131826000Y-105918000D02*
X132334000Y-105918000D01*
X131826000Y-109474000D02*
X132334000Y-109474000D01*
X131826000Y-109982000D02*
X131826000Y-109474000D01*
X132334000Y-109982000D02*
X131826000Y-109982000D01*
X132334000Y-109855000D02*
X132334000Y-109982000D01*
X132334000Y-109474000D02*
X132334000Y-109855000D01*
X132588000Y-109728000D02*
X132334000Y-109728000D01*
X131826000Y-109728000D02*
X131572000Y-109728000D01*
X144018000Y-121539000D02*
X147193000Y-121539000D01*
X147193000Y-121539000D02*
X147193000Y-123317000D01*
X147193000Y-123317000D02*
X144018000Y-123317000D01*
X144018000Y-116967000D02*
X147193000Y-116967000D01*
X147193000Y-116967000D02*
X147193000Y-118745000D01*
X147193000Y-118745000D02*
X144018000Y-118745000D01*
X137922000Y-123571000D02*
X144018000Y-123571000D01*
X144018000Y-123571000D02*
X144018000Y-116713000D01*
X144018000Y-116713000D02*
X136144000Y-116713000D01*
X136017000Y-116713000D02*
X136017000Y-123571000D01*
X136144000Y-123571000D02*
X137922000Y-123571000D01*
X150340785Y-119177404D02*
X150371023Y-119147166D01*
X150401261Y-119056452D01*
X150401261Y-118995976D01*
X150371023Y-118905261D01*
X150310547Y-118844785D01*
X150250071Y-118814547D01*
X150129119Y-118784309D01*
X150038404Y-118784309D01*
X149917452Y-118814547D01*
X149856976Y-118844785D01*
X149796500Y-118905261D01*
X149766261Y-118995976D01*
X149766261Y-119056452D01*
X149796500Y-119147166D01*
X149826738Y-119177404D01*
X149977928Y-119721690D02*
X150401261Y-119721690D01*
X149736023Y-119570500D02*
X150189595Y-119419309D01*
X150189595Y-119812404D01*
X149766261Y-120175261D02*
X149766261Y-120235738D01*
X149796500Y-120296214D01*
X149826738Y-120326452D01*
X149887214Y-120356690D01*
X150008166Y-120386928D01*
X150159357Y-120386928D01*
X150280309Y-120356690D01*
X150340785Y-120326452D01*
X150371023Y-120296214D01*
X150401261Y-120235738D01*
X150401261Y-120175261D01*
X150371023Y-120114785D01*
X150340785Y-120084547D01*
X150280309Y-120054309D01*
X150159357Y-120024071D01*
X150008166Y-120024071D01*
X149887214Y-120054309D01*
X149826738Y-120084547D01*
X149796500Y-120114785D01*
X149766261Y-120175261D01*
X150401261Y-120991690D02*
X150401261Y-120628833D01*
X150401261Y-120810261D02*
X149766261Y-120810261D01*
X149856976Y-120749785D01*
X149917452Y-120689309D01*
X149947690Y-120628833D01*
X125424595Y-102080785D02*
X125454833Y-102111023D01*
X125545547Y-102141261D01*
X125606023Y-102141261D01*
X125696738Y-102111023D01*
X125757214Y-102050547D01*
X125787452Y-101990071D01*
X125817690Y-101869119D01*
X125817690Y-101778404D01*
X125787452Y-101657452D01*
X125757214Y-101596976D01*
X125696738Y-101536500D01*
X125606023Y-101506261D01*
X125545547Y-101506261D01*
X125454833Y-101536500D01*
X125424595Y-101566738D01*
X124880309Y-101717928D02*
X124880309Y-102141261D01*
X125031500Y-101476023D02*
X125182690Y-101929595D01*
X124789595Y-101929595D01*
X124426738Y-101506261D02*
X124366261Y-101506261D01*
X124305785Y-101536500D01*
X124275547Y-101566738D01*
X124245309Y-101627214D01*
X124215071Y-101748166D01*
X124215071Y-101899357D01*
X124245309Y-102020309D01*
X124275547Y-102080785D01*
X124305785Y-102111023D01*
X124366261Y-102141261D01*
X124426738Y-102141261D01*
X124487214Y-102111023D01*
X124517452Y-102080785D01*
X124547690Y-102020309D01*
X124577928Y-101899357D01*
X124577928Y-101748166D01*
X124547690Y-101627214D01*
X124517452Y-101566738D01*
X124487214Y-101536500D01*
X124426738Y-101506261D01*
X123973166Y-101566738D02*
X123942928Y-101536500D01*
X123882452Y-101506261D01*
X123731261Y-101506261D01*
X123670785Y-101536500D01*
X123640547Y-101566738D01*
X123610309Y-101627214D01*
X123610309Y-101687690D01*
X123640547Y-101778404D01*
X124003404Y-102141261D01*
X123610309Y-102141261D01*
X131290785Y-99492404D02*
X131321023Y-99462166D01*
X131351261Y-99371452D01*
X131351261Y-99310976D01*
X131321023Y-99220261D01*
X131260547Y-99159785D01*
X131200071Y-99129547D01*
X131079119Y-99099309D01*
X130988404Y-99099309D01*
X130867452Y-99129547D01*
X130806976Y-99159785D01*
X130746500Y-99220261D01*
X130716261Y-99310976D01*
X130716261Y-99371452D01*
X130746500Y-99462166D01*
X130776738Y-99492404D01*
X130927928Y-100036690D02*
X131351261Y-100036690D01*
X130686023Y-99885500D02*
X131139595Y-99734309D01*
X131139595Y-100127404D01*
X130716261Y-100490261D02*
X130716261Y-100550738D01*
X130746500Y-100611214D01*
X130776738Y-100641452D01*
X130837214Y-100671690D01*
X130958166Y-100701928D01*
X131109357Y-100701928D01*
X131230309Y-100671690D01*
X131290785Y-100641452D01*
X131321023Y-100611214D01*
X131351261Y-100550738D01*
X131351261Y-100490261D01*
X131321023Y-100429785D01*
X131290785Y-100399547D01*
X131230309Y-100369309D01*
X131109357Y-100339071D01*
X130958166Y-100339071D01*
X130837214Y-100369309D01*
X130776738Y-100399547D01*
X130746500Y-100429785D01*
X130716261Y-100490261D01*
X130716261Y-100913595D02*
X130716261Y-101306690D01*
X130958166Y-101095023D01*
X130958166Y-101185738D01*
X130988404Y-101246214D01*
X131018642Y-101276452D01*
X131079119Y-101306690D01*
X131230309Y-101306690D01*
X131290785Y-101276452D01*
X131321023Y-101246214D01*
X131351261Y-101185738D01*
X131351261Y-101004309D01*
X131321023Y-100943833D01*
X131290785Y-100913595D01*
X133552595Y-101699785D02*
X133582833Y-101730023D01*
X133673547Y-101760261D01*
X133734023Y-101760261D01*
X133824738Y-101730023D01*
X133885214Y-101669547D01*
X133915452Y-101609071D01*
X133945690Y-101488119D01*
X133945690Y-101397404D01*
X133915452Y-101276452D01*
X133885214Y-101215976D01*
X133824738Y-101155500D01*
X133734023Y-101125261D01*
X133673547Y-101125261D01*
X133582833Y-101155500D01*
X133552595Y-101185738D01*
X133008309Y-101336928D02*
X133008309Y-101760261D01*
X133159500Y-101095023D02*
X133310690Y-101548595D01*
X132917595Y-101548595D01*
X132554738Y-101125261D02*
X132494261Y-101125261D01*
X132433785Y-101155500D01*
X132403547Y-101185738D01*
X132373309Y-101246214D01*
X132343071Y-101367166D01*
X132343071Y-101518357D01*
X132373309Y-101639309D01*
X132403547Y-101699785D01*
X132433785Y-101730023D01*
X132494261Y-101760261D01*
X132554738Y-101760261D01*
X132615214Y-101730023D01*
X132645452Y-101699785D01*
X132675690Y-101639309D01*
X132705928Y-101518357D01*
X132705928Y-101367166D01*
X132675690Y-101246214D01*
X132645452Y-101185738D01*
X132615214Y-101155500D01*
X132554738Y-101125261D01*
X131798785Y-101336928D02*
X131798785Y-101760261D01*
X131949976Y-101095023D02*
X132101166Y-101548595D01*
X131708071Y-101548595D01*
D13*
X131750707Y-119328050D02*
X131774534Y-119304223D01*
X131798362Y-119232740D01*
X131798362Y-119185085D01*
X131774534Y-119113602D01*
X131726879Y-119065947D01*
X131679224Y-119042119D01*
X131583913Y-119018291D01*
X131512430Y-119018291D01*
X131417120Y-119042119D01*
X131369465Y-119065947D01*
X131321810Y-119113602D01*
X131297982Y-119185085D01*
X131297982Y-119232740D01*
X131321810Y-119304223D01*
X131345637Y-119328050D01*
X131464775Y-119756948D02*
X131798362Y-119756948D01*
X131274154Y-119637810D02*
X131631569Y-119518671D01*
X131631569Y-119828430D01*
X131297982Y-120114362D02*
X131297982Y-120162017D01*
X131321810Y-120209672D01*
X131345637Y-120233500D01*
X131393292Y-120257328D01*
X131488603Y-120281155D01*
X131607741Y-120281155D01*
X131703051Y-120257328D01*
X131750707Y-120233500D01*
X131774534Y-120209672D01*
X131798362Y-120162017D01*
X131798362Y-120114362D01*
X131774534Y-120066707D01*
X131750707Y-120042879D01*
X131703051Y-120019051D01*
X131607741Y-119995224D01*
X131488603Y-119995224D01*
X131393292Y-120019051D01*
X131345637Y-120042879D01*
X131321810Y-120066707D01*
X131297982Y-120114362D01*
X131297982Y-120710052D02*
X131297982Y-120614742D01*
X131321810Y-120567087D01*
X131345637Y-120543259D01*
X131417120Y-120495604D01*
X131512430Y-120471776D01*
X131703051Y-120471776D01*
X131750707Y-120495604D01*
X131774534Y-120519431D01*
X131798362Y-120567087D01*
X131798362Y-120662397D01*
X131774534Y-120710052D01*
X131750707Y-120733880D01*
X131703051Y-120757708D01*
X131583913Y-120757708D01*
X131536258Y-120733880D01*
X131512430Y-120710052D01*
X131488603Y-120662397D01*
X131488603Y-120567087D01*
X131512430Y-120519431D01*
X131536258Y-120495604D01*
X131583913Y-120471776D01*
D12*
X122781785Y-86792404D02*
X122812023Y-86762166D01*
X122842261Y-86671452D01*
X122842261Y-86610976D01*
X122812023Y-86520261D01*
X122751547Y-86459785D01*
X122691071Y-86429547D01*
X122570119Y-86399309D01*
X122479404Y-86399309D01*
X122358452Y-86429547D01*
X122297976Y-86459785D01*
X122237500Y-86520261D01*
X122207261Y-86610976D01*
X122207261Y-86671452D01*
X122237500Y-86762166D01*
X122267738Y-86792404D01*
X122418928Y-87336690D02*
X122842261Y-87336690D01*
X122177023Y-87185500D02*
X122630595Y-87034309D01*
X122630595Y-87427404D01*
X122207261Y-87790261D02*
X122207261Y-87850738D01*
X122237500Y-87911214D01*
X122267738Y-87941452D01*
X122328214Y-87971690D01*
X122449166Y-88001928D01*
X122600357Y-88001928D01*
X122721309Y-87971690D01*
X122781785Y-87941452D01*
X122812023Y-87911214D01*
X122842261Y-87850738D01*
X122842261Y-87790261D01*
X122812023Y-87729785D01*
X122781785Y-87699547D01*
X122721309Y-87669309D01*
X122600357Y-87639071D01*
X122449166Y-87639071D01*
X122328214Y-87669309D01*
X122267738Y-87699547D01*
X122237500Y-87729785D01*
X122207261Y-87790261D01*
X122479404Y-88364785D02*
X122449166Y-88304309D01*
X122418928Y-88274071D01*
X122358452Y-88243833D01*
X122328214Y-88243833D01*
X122267738Y-88274071D01*
X122237500Y-88304309D01*
X122207261Y-88364785D01*
X122207261Y-88485738D01*
X122237500Y-88546214D01*
X122267738Y-88576452D01*
X122328214Y-88606690D01*
X122358452Y-88606690D01*
X122418928Y-88576452D01*
X122449166Y-88546214D01*
X122479404Y-88485738D01*
X122479404Y-88364785D01*
X122509642Y-88304309D01*
X122539880Y-88274071D01*
X122600357Y-88243833D01*
X122721309Y-88243833D01*
X122781785Y-88274071D01*
X122812023Y-88304309D01*
X122842261Y-88364785D01*
X122842261Y-88485738D01*
X122812023Y-88546214D01*
X122781785Y-88576452D01*
X122721309Y-88606690D01*
X122600357Y-88606690D01*
X122539880Y-88576452D01*
X122509642Y-88546214D01*
X122479404Y-88485738D01*
X122781785Y-94031404D02*
X122812023Y-94001166D01*
X122842261Y-93910452D01*
X122842261Y-93849976D01*
X122812023Y-93759261D01*
X122751547Y-93698785D01*
X122691071Y-93668547D01*
X122570119Y-93638309D01*
X122479404Y-93638309D01*
X122358452Y-93668547D01*
X122297976Y-93698785D01*
X122237500Y-93759261D01*
X122207261Y-93849976D01*
X122207261Y-93910452D01*
X122237500Y-94001166D01*
X122267738Y-94031404D01*
X122418928Y-94575690D02*
X122842261Y-94575690D01*
X122177023Y-94424500D02*
X122630595Y-94273309D01*
X122630595Y-94666404D01*
X122207261Y-95029261D02*
X122207261Y-95089738D01*
X122237500Y-95150214D01*
X122267738Y-95180452D01*
X122328214Y-95210690D01*
X122449166Y-95240928D01*
X122600357Y-95240928D01*
X122721309Y-95210690D01*
X122781785Y-95180452D01*
X122812023Y-95150214D01*
X122842261Y-95089738D01*
X122842261Y-95029261D01*
X122812023Y-94968785D01*
X122781785Y-94938547D01*
X122721309Y-94908309D01*
X122600357Y-94878071D01*
X122449166Y-94878071D01*
X122328214Y-94908309D01*
X122267738Y-94938547D01*
X122237500Y-94968785D01*
X122207261Y-95029261D01*
X122842261Y-95543309D02*
X122842261Y-95664261D01*
X122812023Y-95724738D01*
X122781785Y-95754976D01*
X122691071Y-95815452D01*
X122570119Y-95845690D01*
X122328214Y-95845690D01*
X122267738Y-95815452D01*
X122237500Y-95785214D01*
X122207261Y-95724738D01*
X122207261Y-95603785D01*
X122237500Y-95543309D01*
X122267738Y-95513071D01*
X122328214Y-95482833D01*
X122479404Y-95482833D01*
X122539880Y-95513071D01*
X122570119Y-95543309D01*
X122600357Y-95603785D01*
X122600357Y-95724738D01*
X122570119Y-95785214D01*
X122539880Y-95815452D01*
X122479404Y-95845690D01*
D14*
X129068285Y-103541285D02*
X129140857Y-103505000D01*
X129213428Y-103432428D01*
X129322285Y-103323571D01*
X129394857Y-103287285D01*
X129467428Y-103287285D01*
X129431142Y-103468714D02*
X129503714Y-103432428D01*
X129576285Y-103359857D01*
X129612571Y-103214714D01*
X129612571Y-102960714D01*
X129576285Y-102815571D01*
X129503714Y-102743000D01*
X129431142Y-102706714D01*
X129286000Y-102706714D01*
X129213428Y-102743000D01*
X129140857Y-102815571D01*
X129104571Y-102960714D01*
X129104571Y-103214714D01*
X129140857Y-103359857D01*
X129213428Y-103432428D01*
X129286000Y-103468714D01*
X129431142Y-103468714D01*
X128850571Y-102706714D02*
X128378857Y-102706714D01*
X128632857Y-102997000D01*
X128524000Y-102997000D01*
X128451428Y-103033285D01*
X128415142Y-103069571D01*
X128378857Y-103142142D01*
X128378857Y-103323571D01*
X128415142Y-103396142D01*
X128451428Y-103432428D01*
X128524000Y-103468714D01*
X128741714Y-103468714D01*
X128814285Y-103432428D01*
X128850571Y-103396142D01*
X127907142Y-102706714D02*
X127834571Y-102706714D01*
X127762000Y-102743000D01*
X127725714Y-102779285D01*
X127689428Y-102851857D01*
X127653142Y-102997000D01*
X127653142Y-103178428D01*
X127689428Y-103323571D01*
X127725714Y-103396142D01*
X127762000Y-103432428D01*
X127834571Y-103468714D01*
X127907142Y-103468714D01*
X127979714Y-103432428D01*
X128016000Y-103396142D01*
X128052285Y-103323571D01*
X128088571Y-103178428D01*
X128088571Y-102997000D01*
X128052285Y-102851857D01*
X128016000Y-102779285D01*
X127979714Y-102743000D01*
X127907142Y-102706714D01*
X127362857Y-102779285D02*
X127326571Y-102743000D01*
X127254000Y-102706714D01*
X127072571Y-102706714D01*
X127000000Y-102743000D01*
X126963714Y-102779285D01*
X126927428Y-102851857D01*
X126927428Y-102924428D01*
X126963714Y-103033285D01*
X127399142Y-103468714D01*
X126927428Y-103468714D01*
X128814285Y-111669285D02*
X128886857Y-111633000D01*
X128959428Y-111560428D01*
X129068285Y-111451571D01*
X129140857Y-111415285D01*
X129213428Y-111415285D01*
X129177142Y-111596714D02*
X129249714Y-111560428D01*
X129322285Y-111487857D01*
X129358571Y-111342714D01*
X129358571Y-111088714D01*
X129322285Y-110943571D01*
X129249714Y-110871000D01*
X129177142Y-110834714D01*
X129032000Y-110834714D01*
X128959428Y-110871000D01*
X128886857Y-110943571D01*
X128850571Y-111088714D01*
X128850571Y-111342714D01*
X128886857Y-111487857D01*
X128959428Y-111560428D01*
X129032000Y-111596714D01*
X129177142Y-111596714D01*
X128596571Y-110834714D02*
X128124857Y-110834714D01*
X128378857Y-111125000D01*
X128270000Y-111125000D01*
X128197428Y-111161285D01*
X128161142Y-111197571D01*
X128124857Y-111270142D01*
X128124857Y-111451571D01*
X128161142Y-111524142D01*
X128197428Y-111560428D01*
X128270000Y-111596714D01*
X128487714Y-111596714D01*
X128560285Y-111560428D01*
X128596571Y-111524142D01*
X127653142Y-110834714D02*
X127580571Y-110834714D01*
X127508000Y-110871000D01*
X127471714Y-110907285D01*
X127435428Y-110979857D01*
X127399142Y-111125000D01*
X127399142Y-111306428D01*
X127435428Y-111451571D01*
X127471714Y-111524142D01*
X127508000Y-111560428D01*
X127580571Y-111596714D01*
X127653142Y-111596714D01*
X127725714Y-111560428D01*
X127762000Y-111524142D01*
X127798285Y-111451571D01*
X127834571Y-111306428D01*
X127834571Y-111125000D01*
X127798285Y-110979857D01*
X127762000Y-110907285D01*
X127725714Y-110871000D01*
X127653142Y-110834714D01*
X127145142Y-110834714D02*
X126673428Y-110834714D01*
X126927428Y-111125000D01*
X126818571Y-111125000D01*
X126746000Y-111161285D01*
X126709714Y-111197571D01*
X126673428Y-111270142D01*
X126673428Y-111451571D01*
X126709714Y-111524142D01*
X126746000Y-111560428D01*
X126818571Y-111596714D01*
X127036285Y-111596714D01*
X127108857Y-111560428D01*
X127145142Y-111524142D01*
D12*
X157428595Y-99093261D02*
X157640261Y-98790880D01*
X157791452Y-99093261D02*
X157791452Y-98458261D01*
X157549547Y-98458261D01*
X157489071Y-98488500D01*
X157458833Y-98518738D01*
X157428595Y-98579214D01*
X157428595Y-98669928D01*
X157458833Y-98730404D01*
X157489071Y-98760642D01*
X157549547Y-98790880D01*
X157791452Y-98790880D01*
X157186690Y-98518738D02*
X157156452Y-98488500D01*
X157095976Y-98458261D01*
X156944785Y-98458261D01*
X156884309Y-98488500D01*
X156854071Y-98518738D01*
X156823833Y-98579214D01*
X156823833Y-98639690D01*
X156854071Y-98730404D01*
X157216928Y-99093261D01*
X156823833Y-99093261D01*
X156430738Y-98458261D02*
X156370261Y-98458261D01*
X156309785Y-98488500D01*
X156279547Y-98518738D01*
X156249309Y-98579214D01*
X156219071Y-98700166D01*
X156219071Y-98851357D01*
X156249309Y-98972309D01*
X156279547Y-99032785D01*
X156309785Y-99063023D01*
X156370261Y-99093261D01*
X156430738Y-99093261D01*
X156491214Y-99063023D01*
X156521452Y-99032785D01*
X156551690Y-98972309D01*
X156581928Y-98851357D01*
X156581928Y-98700166D01*
X156551690Y-98579214D01*
X156521452Y-98518738D01*
X156491214Y-98488500D01*
X156430738Y-98458261D01*
X155977166Y-98518738D02*
X155946928Y-98488500D01*
X155886452Y-98458261D01*
X155735261Y-98458261D01*
X155674785Y-98488500D01*
X155644547Y-98518738D01*
X155614309Y-98579214D01*
X155614309Y-98639690D01*
X155644547Y-98730404D01*
X156007404Y-99093261D01*
X155614309Y-99093261D01*
X157428595Y-106078261D02*
X157640261Y-105775880D01*
X157791452Y-106078261D02*
X157791452Y-105443261D01*
X157549547Y-105443261D01*
X157489071Y-105473500D01*
X157458833Y-105503738D01*
X157428595Y-105564214D01*
X157428595Y-105654928D01*
X157458833Y-105715404D01*
X157489071Y-105745642D01*
X157549547Y-105775880D01*
X157791452Y-105775880D01*
X157186690Y-105503738D02*
X157156452Y-105473500D01*
X157095976Y-105443261D01*
X156944785Y-105443261D01*
X156884309Y-105473500D01*
X156854071Y-105503738D01*
X156823833Y-105564214D01*
X156823833Y-105624690D01*
X156854071Y-105715404D01*
X157216928Y-106078261D01*
X156823833Y-106078261D01*
X156430738Y-105443261D02*
X156370261Y-105443261D01*
X156309785Y-105473500D01*
X156279547Y-105503738D01*
X156249309Y-105564214D01*
X156219071Y-105685166D01*
X156219071Y-105836357D01*
X156249309Y-105957309D01*
X156279547Y-106017785D01*
X156309785Y-106048023D01*
X156370261Y-106078261D01*
X156430738Y-106078261D01*
X156491214Y-106048023D01*
X156521452Y-106017785D01*
X156551690Y-105957309D01*
X156581928Y-105836357D01*
X156581928Y-105685166D01*
X156551690Y-105564214D01*
X156521452Y-105503738D01*
X156491214Y-105473500D01*
X156430738Y-105443261D01*
X156007404Y-105443261D02*
X155614309Y-105443261D01*
X155825976Y-105685166D01*
X155735261Y-105685166D01*
X155674785Y-105715404D01*
X155644547Y-105745642D01*
X155614309Y-105806119D01*
X155614309Y-105957309D01*
X155644547Y-106017785D01*
X155674785Y-106048023D01*
X155735261Y-106078261D01*
X155916690Y-106078261D01*
X155977166Y-106048023D01*
X156007404Y-106017785D01*
X132875261Y-89967404D02*
X132572880Y-89755738D01*
X132875261Y-89604547D02*
X132240261Y-89604547D01*
X132240261Y-89846452D01*
X132270500Y-89906928D01*
X132300738Y-89937166D01*
X132361214Y-89967404D01*
X132451928Y-89967404D01*
X132512404Y-89937166D01*
X132542642Y-89906928D01*
X132572880Y-89846452D01*
X132572880Y-89604547D01*
X132300738Y-90209309D02*
X132270500Y-90239547D01*
X132240261Y-90300023D01*
X132240261Y-90451214D01*
X132270500Y-90511690D01*
X132300738Y-90541928D01*
X132361214Y-90572166D01*
X132421690Y-90572166D01*
X132512404Y-90541928D01*
X132875261Y-90179071D01*
X132875261Y-90572166D01*
X132240261Y-90965261D02*
X132240261Y-91025738D01*
X132270500Y-91086214D01*
X132300738Y-91116452D01*
X132361214Y-91146690D01*
X132482166Y-91176928D01*
X132633357Y-91176928D01*
X132754309Y-91146690D01*
X132814785Y-91116452D01*
X132845023Y-91086214D01*
X132875261Y-91025738D01*
X132875261Y-90965261D01*
X132845023Y-90904785D01*
X132814785Y-90874547D01*
X132754309Y-90844309D01*
X132633357Y-90814071D01*
X132482166Y-90814071D01*
X132361214Y-90844309D01*
X132300738Y-90874547D01*
X132270500Y-90904785D01*
X132240261Y-90965261D01*
X132875261Y-91479309D02*
X132875261Y-91600261D01*
X132845023Y-91660738D01*
X132814785Y-91690976D01*
X132724071Y-91751452D01*
X132603119Y-91781690D01*
X132361214Y-91781690D01*
X132300738Y-91751452D01*
X132270500Y-91721214D01*
X132240261Y-91660738D01*
X132240261Y-91539785D01*
X132270500Y-91479309D01*
X132300738Y-91449071D01*
X132361214Y-91418833D01*
X132512404Y-91418833D01*
X132572880Y-91449071D01*
X132603119Y-91479309D01*
X132633357Y-91539785D01*
X132633357Y-91660738D01*
X132603119Y-91721214D01*
X132572880Y-91751452D01*
X132512404Y-91781690D01*
X154187261Y-88989404D02*
X153884880Y-88777738D01*
X154187261Y-88626547D02*
X153552261Y-88626547D01*
X153552261Y-88868452D01*
X153582500Y-88928928D01*
X153612738Y-88959166D01*
X153673214Y-88989404D01*
X153763928Y-88989404D01*
X153824404Y-88959166D01*
X153854642Y-88928928D01*
X153884880Y-88868452D01*
X153884880Y-88626547D01*
X153612738Y-89231309D02*
X153582500Y-89261547D01*
X153552261Y-89322023D01*
X153552261Y-89473214D01*
X153582500Y-89533690D01*
X153612738Y-89563928D01*
X153673214Y-89594166D01*
X153733690Y-89594166D01*
X153824404Y-89563928D01*
X154187261Y-89201071D01*
X154187261Y-89594166D01*
X154187261Y-90198928D02*
X154187261Y-89836071D01*
X154187261Y-90017500D02*
X153552261Y-90017500D01*
X153642976Y-89957023D01*
X153703452Y-89896547D01*
X153733690Y-89836071D01*
X153552261Y-90743214D02*
X153552261Y-90622261D01*
X153582500Y-90561785D01*
X153612738Y-90531547D01*
X153703452Y-90471071D01*
X153824404Y-90440833D01*
X154066309Y-90440833D01*
X154126785Y-90471071D01*
X154157023Y-90501309D01*
X154187261Y-90561785D01*
X154187261Y-90682738D01*
X154157023Y-90743214D01*
X154126785Y-90773452D01*
X154066309Y-90803690D01*
X153915119Y-90803690D01*
X153854642Y-90773452D01*
X153824404Y-90743214D01*
X153794166Y-90682738D01*
X153794166Y-90561785D01*
X153824404Y-90501309D01*
X153854642Y-90471071D01*
X153915119Y-90440833D01*
X154287261Y-93189404D02*
X153984880Y-92977738D01*
X154287261Y-92826547D02*
X153652261Y-92826547D01*
X153652261Y-93068452D01*
X153682500Y-93128928D01*
X153712738Y-93159166D01*
X153773214Y-93189404D01*
X153863928Y-93189404D01*
X153924404Y-93159166D01*
X153954642Y-93128928D01*
X153984880Y-93068452D01*
X153984880Y-92826547D01*
X153712738Y-93431309D02*
X153682500Y-93461547D01*
X153652261Y-93522023D01*
X153652261Y-93673214D01*
X153682500Y-93733690D01*
X153712738Y-93763928D01*
X153773214Y-93794166D01*
X153833690Y-93794166D01*
X153924404Y-93763928D01*
X154287261Y-93401071D01*
X154287261Y-93794166D01*
X154287261Y-94398928D02*
X154287261Y-94036071D01*
X154287261Y-94217500D02*
X153652261Y-94217500D01*
X153742976Y-94157023D01*
X153803452Y-94096547D01*
X153833690Y-94036071D01*
X153652261Y-94610595D02*
X153652261Y-95033928D01*
X154287261Y-94761785D01*
X135965595Y-106459261D02*
X136177261Y-106156880D01*
X136328452Y-106459261D02*
X136328452Y-105824261D01*
X136086547Y-105824261D01*
X136026071Y-105854500D01*
X135995833Y-105884738D01*
X135965595Y-105945214D01*
X135965595Y-106035928D01*
X135995833Y-106096404D01*
X136026071Y-106126642D01*
X136086547Y-106156880D01*
X136328452Y-106156880D01*
X135753928Y-105824261D02*
X135360833Y-105824261D01*
X135572500Y-106066166D01*
X135481785Y-106066166D01*
X135421309Y-106096404D01*
X135391071Y-106126642D01*
X135360833Y-106187119D01*
X135360833Y-106338309D01*
X135391071Y-106398785D01*
X135421309Y-106429023D01*
X135481785Y-106459261D01*
X135663214Y-106459261D01*
X135723690Y-106429023D01*
X135753928Y-106398785D01*
X134967738Y-105824261D02*
X134907261Y-105824261D01*
X134846785Y-105854500D01*
X134816547Y-105884738D01*
X134786309Y-105945214D01*
X134756071Y-106066166D01*
X134756071Y-106217357D01*
X134786309Y-106338309D01*
X134816547Y-106398785D01*
X134846785Y-106429023D01*
X134907261Y-106459261D01*
X134967738Y-106459261D01*
X135028214Y-106429023D01*
X135058452Y-106398785D01*
X135088690Y-106338309D01*
X135118928Y-106217357D01*
X135118928Y-106066166D01*
X135088690Y-105945214D01*
X135058452Y-105884738D01*
X135028214Y-105854500D01*
X134967738Y-105824261D01*
X134181547Y-105824261D02*
X134483928Y-105824261D01*
X134514166Y-106126642D01*
X134483928Y-106096404D01*
X134423452Y-106066166D01*
X134272261Y-106066166D01*
X134211785Y-106096404D01*
X134181547Y-106126642D01*
X134151309Y-106187119D01*
X134151309Y-106338309D01*
X134181547Y-106398785D01*
X134211785Y-106429023D01*
X134272261Y-106459261D01*
X134423452Y-106459261D01*
X134483928Y-106429023D01*
X134514166Y-106398785D01*
X132790595Y-111539261D02*
X133002261Y-111236880D01*
X133153452Y-111539261D02*
X133153452Y-110904261D01*
X132911547Y-110904261D01*
X132851071Y-110934500D01*
X132820833Y-110964738D01*
X132790595Y-111025214D01*
X132790595Y-111115928D01*
X132820833Y-111176404D01*
X132851071Y-111206642D01*
X132911547Y-111236880D01*
X133153452Y-111236880D01*
X132578928Y-110904261D02*
X132185833Y-110904261D01*
X132397500Y-111146166D01*
X132306785Y-111146166D01*
X132246309Y-111176404D01*
X132216071Y-111206642D01*
X132185833Y-111267119D01*
X132185833Y-111418309D01*
X132216071Y-111478785D01*
X132246309Y-111509023D01*
X132306785Y-111539261D01*
X132488214Y-111539261D01*
X132548690Y-111509023D01*
X132578928Y-111478785D01*
X131792738Y-110904261D02*
X131732261Y-110904261D01*
X131671785Y-110934500D01*
X131641547Y-110964738D01*
X131611309Y-111025214D01*
X131581071Y-111146166D01*
X131581071Y-111297357D01*
X131611309Y-111418309D01*
X131641547Y-111478785D01*
X131671785Y-111509023D01*
X131732261Y-111539261D01*
X131792738Y-111539261D01*
X131853214Y-111509023D01*
X131883452Y-111478785D01*
X131913690Y-111418309D01*
X131943928Y-111297357D01*
X131943928Y-111146166D01*
X131913690Y-111025214D01*
X131883452Y-110964738D01*
X131853214Y-110934500D01*
X131792738Y-110904261D01*
X131036785Y-110904261D02*
X131157738Y-110904261D01*
X131218214Y-110934500D01*
X131248452Y-110964738D01*
X131308928Y-111055452D01*
X131339166Y-111176404D01*
X131339166Y-111418309D01*
X131308928Y-111478785D01*
X131278690Y-111509023D01*
X131218214Y-111539261D01*
X131097261Y-111539261D01*
X131036785Y-111509023D01*
X131006547Y-111478785D01*
X130976309Y-111418309D01*
X130976309Y-111267119D01*
X131006547Y-111206642D01*
X131036785Y-111176404D01*
X131097261Y-111146166D01*
X131218214Y-111146166D01*
X131278690Y-111176404D01*
X131308928Y-111206642D01*
X131339166Y-111267119D01*
D15*
X134432523Y-118400285D02*
X135460619Y-118400285D01*
X135581571Y-118448666D01*
X135642047Y-118497047D01*
X135702523Y-118593809D01*
X135702523Y-118787333D01*
X135642047Y-118884095D01*
X135581571Y-118932476D01*
X135460619Y-118980857D01*
X134432523Y-118980857D01*
X134855857Y-119900095D02*
X135702523Y-119900095D01*
X134372047Y-119658190D02*
X135279190Y-119416285D01*
X135279190Y-120045238D01*
X134432523Y-120625809D02*
X134432523Y-120722571D01*
X134493000Y-120819333D01*
X134553476Y-120867714D01*
X134674428Y-120916095D01*
X134916333Y-120964476D01*
X135218714Y-120964476D01*
X135460619Y-120916095D01*
X135581571Y-120867714D01*
X135642047Y-120819333D01*
X135702523Y-120722571D01*
X135702523Y-120625809D01*
X135642047Y-120529047D01*
X135581571Y-120480666D01*
X135460619Y-120432285D01*
X135218714Y-120383904D01*
X134916333Y-120383904D01*
X134674428Y-120432285D01*
X134553476Y-120480666D01*
X134493000Y-120529047D01*
X134432523Y-120625809D01*
X135702523Y-121932095D02*
X135702523Y-121351523D01*
X135702523Y-121641809D02*
X134432523Y-121641809D01*
X134613952Y-121545047D01*
X134734904Y-121448285D01*
X134795380Y-121351523D01*
M02*
