G04 #@! TF.GenerationSoftware,KiCad,Pcbnew,(5.1.5)-3*
G04 #@! TF.CreationDate,2021-08-30T19:46:02+02:00*
G04 #@! TF.ProjectId,wa2,7761322e-6b69-4636-9164-5f7063625858,0428 -*
G04 #@! TF.SameCoordinates,Original*
G04 #@! TF.FileFunction,Legend,Top*
G04 #@! TF.FilePolarity,Positive*
%FSLAX46Y46*%
G04 Gerber Fmt 4.6, Leading zero omitted, Abs format (unit mm)*
G04 Created by KiCad (PCBNEW (5.1.5)-3) date 2021-08-30 19:46:02*
%MOMM*%
%LPD*%
G04 APERTURE LIST*
%ADD10C,0.304800*%
%ADD11C,0.190500*%
%ADD12C,0.203200*%
%ADD13C,0.127000*%
%ADD14C,0.254000*%
%ADD15C,0.152400*%
G04 APERTURE END LIST*
D10*
X157864571Y-105580761D02*
X157937142Y-105484000D01*
X158082285Y-105387238D01*
X158445142Y-105387238D01*
X158590285Y-105484000D01*
X158662857Y-105580761D01*
X158735428Y-105774285D01*
X158735428Y-105967809D01*
X158662857Y-106258095D01*
X157792000Y-107419238D01*
X158735428Y-107419238D01*
X158835428Y-99619238D02*
X157964571Y-99619238D01*
X158400000Y-99619238D02*
X158400000Y-97587238D01*
X158254857Y-97877523D01*
X158109714Y-98071047D01*
X157964571Y-98167809D01*
D11*
X139842285Y-105955285D02*
X139878571Y-105919000D01*
X139951142Y-105882714D01*
X140132571Y-105882714D01*
X140205142Y-105919000D01*
X140241428Y-105955285D01*
X140277714Y-106027857D01*
X140277714Y-106100428D01*
X140241428Y-106209285D01*
X139806000Y-106644714D01*
X140277714Y-106644714D01*
X140749428Y-105882714D02*
X140822000Y-105882714D01*
X140894571Y-105919000D01*
X140930857Y-105955285D01*
X140967142Y-106027857D01*
X141003428Y-106173000D01*
X141003428Y-106354428D01*
X140967142Y-106499571D01*
X140930857Y-106572142D01*
X140894571Y-106608428D01*
X140822000Y-106644714D01*
X140749428Y-106644714D01*
X140676857Y-106608428D01*
X140640571Y-106572142D01*
X140604285Y-106499571D01*
X140568000Y-106354428D01*
X140568000Y-106173000D01*
X140604285Y-106027857D01*
X140640571Y-105955285D01*
X140676857Y-105919000D01*
X140749428Y-105882714D01*
X141729142Y-106644714D02*
X141293714Y-106644714D01*
X141511428Y-106644714D02*
X141511428Y-105882714D01*
X141438857Y-105991571D01*
X141366285Y-106064142D01*
X141293714Y-106100428D01*
X142382285Y-106136714D02*
X142382285Y-106644714D01*
X142200857Y-105846428D02*
X142019428Y-106390714D01*
X142491142Y-106390714D01*
X142926571Y-105882714D02*
X142999142Y-105882714D01*
X143071714Y-105919000D01*
X143108000Y-105955285D01*
X143144285Y-106027857D01*
X143180571Y-106173000D01*
X143180571Y-106354428D01*
X143144285Y-106499571D01*
X143108000Y-106572142D01*
X143071714Y-106608428D01*
X142999142Y-106644714D01*
X142926571Y-106644714D01*
X142854000Y-106608428D01*
X142817714Y-106572142D01*
X142781428Y-106499571D01*
X142745142Y-106354428D01*
X142745142Y-106173000D01*
X142781428Y-106027857D01*
X142817714Y-105955285D01*
X142854000Y-105919000D01*
X142926571Y-105882714D01*
X143434571Y-105882714D02*
X143942571Y-105882714D01*
X143616000Y-106644714D01*
X144378000Y-105882714D02*
X144450571Y-105882714D01*
X144523142Y-105919000D01*
X144559428Y-105955285D01*
X144595714Y-106027857D01*
X144632000Y-106173000D01*
X144632000Y-106354428D01*
X144595714Y-106499571D01*
X144559428Y-106572142D01*
X144523142Y-106608428D01*
X144450571Y-106644714D01*
X144378000Y-106644714D01*
X144305428Y-106608428D01*
X144269142Y-106572142D01*
X144232857Y-106499571D01*
X144196571Y-106354428D01*
X144196571Y-106173000D01*
X144232857Y-106027857D01*
X144269142Y-105955285D01*
X144305428Y-105919000D01*
X144378000Y-105882714D01*
X144994857Y-106644714D02*
X145140000Y-106644714D01*
X145212571Y-106608428D01*
X145248857Y-106572142D01*
X145321428Y-106463285D01*
X145357714Y-106318142D01*
X145357714Y-106027857D01*
X145321428Y-105955285D01*
X145285142Y-105919000D01*
X145212571Y-105882714D01*
X145067428Y-105882714D01*
X144994857Y-105919000D01*
X144958571Y-105955285D01*
X144922285Y-106027857D01*
X144922285Y-106209285D01*
X144958571Y-106281857D01*
X144994857Y-106318142D01*
X145067428Y-106354428D01*
X145212571Y-106354428D01*
X145285142Y-106318142D01*
X145321428Y-106281857D01*
X145357714Y-106209285D01*
D10*
X135368000Y-105987238D02*
X135730857Y-108019238D01*
X136021142Y-106567809D01*
X136311428Y-108019238D01*
X136674285Y-105987238D01*
X137182285Y-107438666D02*
X137908000Y-107438666D01*
X137037142Y-108019238D02*
X137545142Y-105987238D01*
X138053142Y-108019238D01*
X138488571Y-106180761D02*
X138561142Y-106084000D01*
X138706285Y-105987238D01*
X139069142Y-105987238D01*
X139214285Y-106084000D01*
X139286857Y-106180761D01*
X139359428Y-106374285D01*
X139359428Y-106567809D01*
X139286857Y-106858095D01*
X138416000Y-108019238D01*
X139359428Y-108019238D01*
D12*
X159385000Y-120777000D02*
G75*
G03X159385000Y-120777000I-3302000J0D01*
G01*
X157785558Y-120777000D02*
G75*
G03X157785558Y-120777000I-1702558J0D01*
G01*
X123825000Y-77978000D02*
G75*
G03X123825000Y-77978000I-3302000J0D01*
G01*
X122225558Y-77978000D02*
G75*
G03X122225558Y-77978000I-1702558J0D01*
G01*
D13*
X126492000Y-114554000D02*
X126492000Y-114173000D01*
X126111000Y-114554000D02*
X126873000Y-114554000D01*
X126492000Y-115189000D02*
X126492000Y-114808000D01*
X126492000Y-114808000D02*
X126111000Y-114808000D01*
X126111000Y-114808000D02*
X126873000Y-114808000D01*
D12*
X158496000Y-113157000D02*
G75*
G03X158496000Y-113157000I-3048000J0D01*
G01*
D10*
X157365700Y-86453980D02*
X157365700Y-74455020D01*
X146164300Y-74455020D02*
X157365700Y-74455020D01*
X141165580Y-86453980D02*
X141165580Y-74455020D01*
X157365700Y-86453980D02*
X146164300Y-86453980D01*
X157365700Y-80454500D02*
X146164300Y-80454500D01*
X146164300Y-86453980D02*
X141165580Y-86453980D01*
X146164300Y-74455020D02*
X141165580Y-74455020D01*
X146164300Y-80454500D02*
X141165580Y-80454500D01*
X129146300Y-80454500D02*
X124147580Y-80454500D01*
X129146300Y-74455020D02*
X124147580Y-74455020D01*
X129146300Y-86453980D02*
X124147580Y-86453980D01*
X140347700Y-80454500D02*
X129146300Y-80454500D01*
X140347700Y-86453980D02*
X129146300Y-86453980D01*
X124147580Y-86453980D02*
X124147580Y-74455020D01*
X129146300Y-74455020D02*
X140347700Y-74455020D01*
X140347700Y-86453980D02*
X140347700Y-74455020D01*
X141744700Y-124299980D02*
X151744680Y-124299980D01*
X141744700Y-118300500D02*
X151744680Y-118300500D01*
X141744700Y-112301020D02*
X151744680Y-112301020D01*
X130543300Y-118300500D02*
X141744700Y-118300500D01*
X130543300Y-112301020D02*
X141744700Y-112301020D01*
X151744680Y-112301020D02*
X151744680Y-124299980D01*
X141744700Y-124299980D02*
X130543300Y-124299980D01*
X130543300Y-112301020D02*
X130543300Y-124299980D01*
D12*
X125984000Y-123190000D02*
X118364000Y-123190000D01*
X118364000Y-118110000D02*
X125984000Y-118110000D01*
X125984000Y-118110000D02*
X125984000Y-123190000D01*
X118364000Y-123190000D02*
X118364000Y-118110000D01*
D13*
X129159000Y-115316000D02*
X129159000Y-115570000D01*
X129159000Y-114554000D02*
X129159000Y-114808000D01*
X129413000Y-114808000D02*
X129032000Y-114808000D01*
X129032000Y-114808000D02*
X128905000Y-114808000D01*
X128905000Y-114808000D02*
X128905000Y-115316000D01*
X128905000Y-115316000D02*
X129413000Y-115316000D01*
X129413000Y-115316000D02*
X129413000Y-114808000D01*
D12*
X158369000Y-99695000D02*
X158369000Y-104775000D01*
X150749000Y-104775000D02*
X150749000Y-99695000D01*
X158369000Y-104775000D02*
X150749000Y-104775000D01*
X150749000Y-99695000D02*
X158369000Y-99695000D01*
D10*
X128270000Y-87376000D02*
X128270000Y-97536000D01*
X128270000Y-97536000D02*
X123190000Y-97536000D01*
X123190000Y-97536000D02*
X123190000Y-87376000D01*
X123190000Y-87376000D02*
X128270000Y-87376000D01*
D13*
X157353000Y-107950000D02*
X154305000Y-107950000D01*
X154305000Y-107950000D02*
X154305000Y-107188000D01*
X154305000Y-107188000D02*
X157353000Y-107188000D01*
X157353000Y-107188000D02*
X157353000Y-107950000D01*
X154876500Y-87820500D02*
X155638500Y-87820500D01*
X154876500Y-90868500D02*
X154876500Y-87820500D01*
X155638500Y-90868500D02*
X154876500Y-90868500D01*
X155638500Y-87820500D02*
X155638500Y-90868500D01*
X155575000Y-94742000D02*
X155575000Y-97790000D01*
X155575000Y-97790000D02*
X154813000Y-97790000D01*
X154813000Y-97790000D02*
X154813000Y-94742000D01*
X154813000Y-94742000D02*
X155575000Y-94742000D01*
X155638500Y-91249500D02*
X155638500Y-94297500D01*
X155638500Y-94297500D02*
X154876500Y-94297500D01*
X154876500Y-94297500D02*
X154876500Y-91249500D01*
X154876500Y-91249500D02*
X155638500Y-91249500D01*
X128778000Y-120777000D02*
X128016000Y-120777000D01*
X128778000Y-117729000D02*
X128778000Y-120777000D01*
X128016000Y-117729000D02*
X128778000Y-117729000D01*
X128016000Y-120777000D02*
X128016000Y-117729000D01*
X150446000Y-109946000D02*
X150446000Y-110454000D01*
X150954000Y-109946000D02*
X150446000Y-109946000D01*
X150954000Y-110454000D02*
X150954000Y-109946000D01*
X150827000Y-110454000D02*
X150954000Y-110454000D01*
X150446000Y-110454000D02*
X150827000Y-110454000D01*
X150700000Y-110708000D02*
X150700000Y-110454000D01*
X150700000Y-109946000D02*
X150700000Y-109692000D01*
X151130000Y-90805000D02*
X150622000Y-90805000D01*
X151130000Y-91313000D02*
X151130000Y-90805000D01*
X150622000Y-91313000D02*
X151130000Y-91313000D01*
X150622000Y-91186000D02*
X150622000Y-91313000D01*
X150622000Y-90805000D02*
X150622000Y-91186000D01*
X150368000Y-91059000D02*
X150622000Y-91059000D01*
X151130000Y-91059000D02*
X151384000Y-91059000D01*
X151130000Y-97155000D02*
X151384000Y-97155000D01*
X150368000Y-97155000D02*
X150622000Y-97155000D01*
X150622000Y-96901000D02*
X150622000Y-97282000D01*
X150622000Y-97282000D02*
X150622000Y-97409000D01*
X150622000Y-97409000D02*
X151130000Y-97409000D01*
X151130000Y-97409000D02*
X151130000Y-96901000D01*
X151130000Y-96901000D02*
X150622000Y-96901000D01*
X151130000Y-94361000D02*
X151384000Y-94361000D01*
X150368000Y-94361000D02*
X150622000Y-94361000D01*
X150622000Y-94107000D02*
X150622000Y-94488000D01*
X150622000Y-94488000D02*
X150622000Y-94615000D01*
X150622000Y-94615000D02*
X151130000Y-94615000D01*
X151130000Y-94615000D02*
X151130000Y-94107000D01*
X151130000Y-94107000D02*
X150622000Y-94107000D01*
X149098000Y-101981000D02*
X148590000Y-101981000D01*
X149098000Y-102489000D02*
X149098000Y-101981000D01*
X148590000Y-102489000D02*
X149098000Y-102489000D01*
X148590000Y-102362000D02*
X148590000Y-102489000D01*
X148590000Y-101981000D02*
X148590000Y-102362000D01*
X148336000Y-102235000D02*
X148590000Y-102235000D01*
X149098000Y-102235000D02*
X149352000Y-102235000D01*
X149098000Y-99949000D02*
X148590000Y-99949000D01*
X149098000Y-100457000D02*
X149098000Y-99949000D01*
X148590000Y-100457000D02*
X149098000Y-100457000D01*
X148590000Y-100330000D02*
X148590000Y-100457000D01*
X148590000Y-99949000D02*
X148590000Y-100330000D01*
X148336000Y-100203000D02*
X148590000Y-100203000D01*
X149098000Y-100203000D02*
X149352000Y-100203000D01*
X149098000Y-106553000D02*
X149352000Y-106553000D01*
X148336000Y-106553000D02*
X148590000Y-106553000D01*
X148590000Y-106299000D02*
X148590000Y-106680000D01*
X148590000Y-106680000D02*
X148590000Y-106807000D01*
X148590000Y-106807000D02*
X149098000Y-106807000D01*
X149098000Y-106807000D02*
X149098000Y-106299000D01*
X149098000Y-106299000D02*
X148590000Y-106299000D01*
X149098000Y-104394000D02*
X149352000Y-104394000D01*
X148336000Y-104394000D02*
X148590000Y-104394000D01*
X148590000Y-104140000D02*
X148590000Y-104521000D01*
X148590000Y-104521000D02*
X148590000Y-104648000D01*
X148590000Y-104648000D02*
X149098000Y-104648000D01*
X149098000Y-104648000D02*
X149098000Y-104140000D01*
X149098000Y-104140000D02*
X148590000Y-104140000D01*
X132334000Y-94488000D02*
X132334000Y-94996000D01*
X132842000Y-94488000D02*
X132334000Y-94488000D01*
X132842000Y-94996000D02*
X132842000Y-94488000D01*
X132715000Y-94996000D02*
X132842000Y-94996000D01*
X132334000Y-94996000D02*
X132715000Y-94996000D01*
X132588000Y-95250000D02*
X132588000Y-94996000D01*
X132588000Y-94488000D02*
X132588000Y-94234000D01*
X151130000Y-88265000D02*
X150622000Y-88265000D01*
X151130000Y-88773000D02*
X151130000Y-88265000D01*
X150622000Y-88773000D02*
X151130000Y-88773000D01*
X150622000Y-88646000D02*
X150622000Y-88773000D01*
X150622000Y-88265000D02*
X150622000Y-88646000D01*
X150368000Y-88519000D02*
X150622000Y-88519000D01*
X151130000Y-88519000D02*
X151384000Y-88519000D01*
X144145000Y-93345000D02*
X144145000Y-93853000D01*
X144653000Y-93345000D02*
X144145000Y-93345000D01*
X144653000Y-93853000D02*
X144653000Y-93345000D01*
X144526000Y-93853000D02*
X144653000Y-93853000D01*
X144145000Y-93853000D02*
X144526000Y-93853000D01*
X144399000Y-94107000D02*
X144399000Y-93853000D01*
X144399000Y-93345000D02*
X144399000Y-93091000D01*
X137160000Y-93345000D02*
X137160000Y-93091000D01*
X137160000Y-94107000D02*
X137160000Y-93853000D01*
X136906000Y-93853000D02*
X137287000Y-93853000D01*
X137287000Y-93853000D02*
X137414000Y-93853000D01*
X137414000Y-93853000D02*
X137414000Y-93345000D01*
X137414000Y-93345000D02*
X136906000Y-93345000D01*
X136906000Y-93345000D02*
X136906000Y-93853000D01*
X145904000Y-109982000D02*
X145904000Y-110490000D01*
X146412000Y-109982000D02*
X145904000Y-109982000D01*
X146412000Y-110490000D02*
X146412000Y-109982000D01*
X146285000Y-110490000D02*
X146412000Y-110490000D01*
X145904000Y-110490000D02*
X146285000Y-110490000D01*
X146158000Y-110744000D02*
X146158000Y-110490000D01*
X146158000Y-109982000D02*
X146158000Y-109728000D01*
X141205000Y-109982000D02*
X141205000Y-109728000D01*
X141205000Y-110744000D02*
X141205000Y-110490000D01*
X140951000Y-110490000D02*
X141332000Y-110490000D01*
X141332000Y-110490000D02*
X141459000Y-110490000D01*
X141459000Y-110490000D02*
X141459000Y-109982000D01*
X141459000Y-109982000D02*
X140951000Y-109982000D01*
X140951000Y-109982000D02*
X140951000Y-110490000D01*
X122174000Y-114046000D02*
X122174000Y-113792000D01*
X122174000Y-114808000D02*
X122174000Y-114554000D01*
X121920000Y-114554000D02*
X122301000Y-114554000D01*
X122301000Y-114554000D02*
X122428000Y-114554000D01*
X122428000Y-114554000D02*
X122428000Y-114046000D01*
X122428000Y-114046000D02*
X121920000Y-114046000D01*
X121920000Y-114046000D02*
X121920000Y-114554000D01*
X143999000Y-110490000D02*
X143999000Y-109982000D01*
X143491000Y-110490000D02*
X143999000Y-110490000D01*
X143491000Y-109982000D02*
X143491000Y-110490000D01*
X143618000Y-109982000D02*
X143491000Y-109982000D01*
X143999000Y-109982000D02*
X143618000Y-109982000D01*
X143745000Y-109728000D02*
X143745000Y-109982000D01*
X143745000Y-110490000D02*
X143745000Y-110744000D01*
X148246000Y-109946000D02*
X148246000Y-110454000D01*
X148754000Y-109946000D02*
X148246000Y-109946000D01*
X148754000Y-110454000D02*
X148754000Y-109946000D01*
X148627000Y-110454000D02*
X148754000Y-110454000D01*
X148246000Y-110454000D02*
X148627000Y-110454000D01*
X148500000Y-110708000D02*
X148500000Y-110454000D01*
X148500000Y-109946000D02*
X148500000Y-109692000D01*
X128016000Y-122428000D02*
X128524000Y-122428000D01*
X128016000Y-121920000D02*
X128016000Y-122428000D01*
X128524000Y-121920000D02*
X128016000Y-121920000D01*
X128524000Y-122047000D02*
X128524000Y-121920000D01*
X128524000Y-122428000D02*
X128524000Y-122047000D01*
X128778000Y-122174000D02*
X128524000Y-122174000D01*
X128016000Y-122174000D02*
X127762000Y-122174000D01*
D14*
X145313400Y-95707200D02*
X146024600Y-95707200D01*
X143814800Y-95707200D02*
X143027400Y-95707200D01*
X145313400Y-96443800D02*
X143814800Y-94945200D01*
X143814800Y-96443800D02*
X143814800Y-94945200D01*
X143814800Y-94945200D02*
X145313400Y-94945200D01*
X145313400Y-94945200D02*
X145313400Y-96443800D01*
X145313400Y-96443800D02*
X143814800Y-96443800D01*
X141478000Y-97129600D02*
X141478000Y-87096600D01*
X141478000Y-87096600D02*
X147548600Y-87096600D01*
X147548600Y-87096600D02*
X147574000Y-97129600D01*
X147574000Y-97129600D02*
X141478000Y-97129600D01*
X140208000Y-97129600D02*
X134112000Y-97129600D01*
X140182600Y-87096600D02*
X140208000Y-97129600D01*
X134112000Y-87096600D02*
X140182600Y-87096600D01*
X134112000Y-97129600D02*
X134112000Y-87096600D01*
X137947400Y-96443800D02*
X136448800Y-96443800D01*
X137947400Y-94945200D02*
X137947400Y-96443800D01*
X136448800Y-94945200D02*
X137947400Y-94945200D01*
X136448800Y-96443800D02*
X136448800Y-94945200D01*
X137947400Y-96443800D02*
X136448800Y-94945200D01*
X136448800Y-95707200D02*
X135661400Y-95707200D01*
X137947400Y-95707200D02*
X138658600Y-95707200D01*
D12*
X136017000Y-100203000D02*
X146939000Y-100203000D01*
X146939000Y-100203000D02*
X146939000Y-103759000D01*
X146939000Y-103759000D02*
X136017000Y-103759000D01*
X136017000Y-103759000D02*
X136017000Y-100203000D01*
X136017000Y-101473000D02*
X136779000Y-101473000D01*
X136779000Y-101473000D02*
X136779000Y-102489000D01*
X136779000Y-102489000D02*
X136017000Y-102489000D01*
D10*
X122885200Y-110159800D02*
X122885200Y-100152200D01*
X122885200Y-100152200D02*
X132892800Y-100152200D01*
X132892800Y-109677200D02*
X132892800Y-100152200D01*
X132410200Y-110159800D02*
X122885200Y-110159800D01*
X132892800Y-109677200D02*
X132410200Y-110159800D01*
D12*
X132334000Y-108966000D02*
G75*
G03X132334000Y-108966000I-635000J0D01*
G01*
X117348000Y-87884000D02*
X117348000Y-94234000D01*
X122174000Y-87884000D02*
X122174000Y-94234000D01*
X119761000Y-85471000D02*
G75*
G03X117348000Y-87884000I0J-2413000D01*
G01*
X122174000Y-87884000D02*
G75*
G03X119761000Y-85471000I-2413000J0D01*
G01*
X117348000Y-94234000D02*
G75*
G03X119761000Y-96647000I2413000J0D01*
G01*
X119761000Y-96647000D02*
G75*
G03X122174000Y-94234000I0J2413000D01*
G01*
D15*
X154813000Y-121121714D02*
X154813000Y-120359714D01*
X154813000Y-120722571D02*
X155248428Y-120722571D01*
X155248428Y-121121714D02*
X155248428Y-120359714D01*
X155756428Y-120359714D02*
X155901571Y-120359714D01*
X155974142Y-120396000D01*
X156046714Y-120468571D01*
X156083000Y-120613714D01*
X156083000Y-120867714D01*
X156046714Y-121012857D01*
X155974142Y-121085428D01*
X155901571Y-121121714D01*
X155756428Y-121121714D01*
X155683857Y-121085428D01*
X155611285Y-121012857D01*
X155575000Y-120867714D01*
X155575000Y-120613714D01*
X155611285Y-120468571D01*
X155683857Y-120396000D01*
X155756428Y-120359714D01*
X156772428Y-121121714D02*
X156409571Y-121121714D01*
X156409571Y-120359714D01*
X157026428Y-120722571D02*
X157280428Y-120722571D01*
X157389285Y-121121714D02*
X157026428Y-121121714D01*
X157026428Y-120359714D01*
X157389285Y-120359714D01*
X119253000Y-78322714D02*
X119253000Y-77560714D01*
X119253000Y-77923571D02*
X119688428Y-77923571D01*
X119688428Y-78322714D02*
X119688428Y-77560714D01*
X120196428Y-77560714D02*
X120341571Y-77560714D01*
X120414142Y-77597000D01*
X120486714Y-77669571D01*
X120523000Y-77814714D01*
X120523000Y-78068714D01*
X120486714Y-78213857D01*
X120414142Y-78286428D01*
X120341571Y-78322714D01*
X120196428Y-78322714D01*
X120123857Y-78286428D01*
X120051285Y-78213857D01*
X120015000Y-78068714D01*
X120015000Y-77814714D01*
X120051285Y-77669571D01*
X120123857Y-77597000D01*
X120196428Y-77560714D01*
X121212428Y-78322714D02*
X120849571Y-78322714D01*
X120849571Y-77560714D01*
X121466428Y-77923571D02*
X121720428Y-77923571D01*
X121829285Y-78322714D02*
X121466428Y-78322714D01*
X121466428Y-77560714D01*
X121829285Y-77560714D01*
D13*
X125321785Y-115391595D02*
X125352023Y-115421833D01*
X125382261Y-115512547D01*
X125382261Y-115573023D01*
X125352023Y-115663738D01*
X125291547Y-115724214D01*
X125231071Y-115754452D01*
X125110119Y-115784690D01*
X125019404Y-115784690D01*
X124898452Y-115754452D01*
X124837976Y-115724214D01*
X124777500Y-115663738D01*
X124747261Y-115573023D01*
X124747261Y-115512547D01*
X124777500Y-115421833D01*
X124807738Y-115391595D01*
X124958928Y-114847309D02*
X125382261Y-114847309D01*
X124717023Y-114998500D02*
X125170595Y-115149690D01*
X125170595Y-114756595D01*
X124747261Y-114393738D02*
X124747261Y-114333261D01*
X124777500Y-114272785D01*
X124807738Y-114242547D01*
X124868214Y-114212309D01*
X124989166Y-114182071D01*
X125140357Y-114182071D01*
X125261309Y-114212309D01*
X125321785Y-114242547D01*
X125352023Y-114272785D01*
X125382261Y-114333261D01*
X125382261Y-114393738D01*
X125352023Y-114454214D01*
X125321785Y-114484452D01*
X125261309Y-114514690D01*
X125140357Y-114544928D01*
X124989166Y-114544928D01*
X124868214Y-114514690D01*
X124807738Y-114484452D01*
X124777500Y-114454214D01*
X124747261Y-114393738D01*
X124747261Y-113607547D02*
X124747261Y-113909928D01*
X125049642Y-113940166D01*
X125019404Y-113909928D01*
X124989166Y-113849452D01*
X124989166Y-113698261D01*
X125019404Y-113637785D01*
X125049642Y-113607547D01*
X125110119Y-113577309D01*
X125261309Y-113577309D01*
X125321785Y-113607547D01*
X125352023Y-113637785D01*
X125382261Y-113698261D01*
X125382261Y-113849452D01*
X125352023Y-113909928D01*
X125321785Y-113940166D01*
D12*
X154453166Y-115551857D02*
X154410833Y-115600238D01*
X154283833Y-115648619D01*
X154199166Y-115648619D01*
X154072166Y-115600238D01*
X153987500Y-115503476D01*
X153945166Y-115406714D01*
X153902833Y-115213190D01*
X153902833Y-115068047D01*
X153945166Y-114874523D01*
X153987500Y-114777761D01*
X154072166Y-114681000D01*
X154199166Y-114632619D01*
X154283833Y-114632619D01*
X154410833Y-114681000D01*
X154453166Y-114729380D01*
X155215166Y-114971285D02*
X155215166Y-115648619D01*
X155003500Y-114584238D02*
X154791833Y-115309952D01*
X155342166Y-115309952D01*
X155850166Y-114632619D02*
X155934833Y-114632619D01*
X156019500Y-114681000D01*
X156061833Y-114729380D01*
X156104166Y-114826142D01*
X156146500Y-115019666D01*
X156146500Y-115261571D01*
X156104166Y-115455095D01*
X156061833Y-115551857D01*
X156019500Y-115600238D01*
X155934833Y-115648619D01*
X155850166Y-115648619D01*
X155765500Y-115600238D01*
X155723166Y-115551857D01*
X155680833Y-115455095D01*
X155638500Y-115261571D01*
X155638500Y-115019666D01*
X155680833Y-114826142D01*
X155723166Y-114729380D01*
X155765500Y-114681000D01*
X155850166Y-114632619D01*
X156442833Y-114632619D02*
X157035500Y-114632619D01*
X156654500Y-115648619D01*
X153597428Y-111487857D02*
X154758571Y-111487857D01*
X154178000Y-112068428D02*
X154178000Y-110907285D01*
D10*
X141822714Y-77016428D02*
X141822714Y-75492428D01*
X142693571Y-77016428D02*
X142040428Y-76145571D01*
X142693571Y-75492428D02*
X141822714Y-76363285D01*
X143274142Y-75637571D02*
X143346714Y-75565000D01*
X143491857Y-75492428D01*
X143854714Y-75492428D01*
X143999857Y-75565000D01*
X144072428Y-75637571D01*
X144145000Y-75782714D01*
X144145000Y-75927857D01*
X144072428Y-76145571D01*
X143201571Y-77016428D01*
X144145000Y-77016428D01*
X145088428Y-75492428D02*
X145233571Y-75492428D01*
X145378714Y-75565000D01*
X145451285Y-75637571D01*
X145523857Y-75782714D01*
X145596428Y-76073000D01*
X145596428Y-76435857D01*
X145523857Y-76726142D01*
X145451285Y-76871285D01*
X145378714Y-76943857D01*
X145233571Y-77016428D01*
X145088428Y-77016428D01*
X144943285Y-76943857D01*
X144870714Y-76871285D01*
X144798142Y-76726142D01*
X144725571Y-76435857D01*
X144725571Y-76073000D01*
X144798142Y-75782714D01*
X144870714Y-75637571D01*
X144943285Y-75565000D01*
X145088428Y-75492428D01*
X147047857Y-77016428D02*
X146177000Y-77016428D01*
X146612428Y-77016428D02*
X146612428Y-75492428D01*
X146467285Y-75710142D01*
X146322142Y-75855285D01*
X146177000Y-75927857D01*
X125058714Y-77016428D02*
X125058714Y-75492428D01*
X125929571Y-77016428D02*
X125276428Y-76145571D01*
X125929571Y-75492428D02*
X125058714Y-76363285D01*
X126510142Y-75637571D02*
X126582714Y-75565000D01*
X126727857Y-75492428D01*
X127090714Y-75492428D01*
X127235857Y-75565000D01*
X127308428Y-75637571D01*
X127381000Y-75782714D01*
X127381000Y-75927857D01*
X127308428Y-76145571D01*
X126437571Y-77016428D01*
X127381000Y-77016428D01*
X128324428Y-75492428D02*
X128469571Y-75492428D01*
X128614714Y-75565000D01*
X128687285Y-75637571D01*
X128759857Y-75782714D01*
X128832428Y-76073000D01*
X128832428Y-76435857D01*
X128759857Y-76726142D01*
X128687285Y-76871285D01*
X128614714Y-76943857D01*
X128469571Y-77016428D01*
X128324428Y-77016428D01*
X128179285Y-76943857D01*
X128106714Y-76871285D01*
X128034142Y-76726142D01*
X127961571Y-76435857D01*
X127961571Y-76073000D01*
X128034142Y-75782714D01*
X128106714Y-75637571D01*
X128179285Y-75565000D01*
X128324428Y-75492428D01*
X129413000Y-75637571D02*
X129485571Y-75565000D01*
X129630714Y-75492428D01*
X129993571Y-75492428D01*
X130138714Y-75565000D01*
X130211285Y-75637571D01*
X130283857Y-75782714D01*
X130283857Y-75927857D01*
X130211285Y-76145571D01*
X129340428Y-77016428D01*
X130283857Y-77016428D01*
X133223714Y-111889428D02*
X133223714Y-110365428D01*
X134094571Y-111889428D02*
X133441428Y-111018571D01*
X134094571Y-110365428D02*
X133223714Y-111236285D01*
X134602571Y-110365428D02*
X135546000Y-110365428D01*
X135038000Y-110946000D01*
X135255714Y-110946000D01*
X135400857Y-111018571D01*
X135473428Y-111091142D01*
X135546000Y-111236285D01*
X135546000Y-111599142D01*
X135473428Y-111744285D01*
X135400857Y-111816857D01*
X135255714Y-111889428D01*
X134820285Y-111889428D01*
X134675142Y-111816857D01*
X134602571Y-111744285D01*
X136489428Y-110365428D02*
X136634571Y-110365428D01*
X136779714Y-110438000D01*
X136852285Y-110510571D01*
X136924857Y-110655714D01*
X136997428Y-110946000D01*
X136997428Y-111308857D01*
X136924857Y-111599142D01*
X136852285Y-111744285D01*
X136779714Y-111816857D01*
X136634571Y-111889428D01*
X136489428Y-111889428D01*
X136344285Y-111816857D01*
X136271714Y-111744285D01*
X136199142Y-111599142D01*
X136126571Y-111308857D01*
X136126571Y-110946000D01*
X136199142Y-110655714D01*
X136271714Y-110510571D01*
X136344285Y-110438000D01*
X136489428Y-110365428D01*
X138448857Y-111889428D02*
X137578000Y-111889428D01*
X138013428Y-111889428D02*
X138013428Y-110365428D01*
X137868285Y-110583142D01*
X137723142Y-110728285D01*
X137578000Y-110800857D01*
D15*
X118678476Y-117807619D02*
X118678476Y-116791619D01*
X119259047Y-117807619D02*
X118823619Y-117227047D01*
X119259047Y-116791619D02*
X118678476Y-117372190D01*
X120129904Y-117130285D02*
X120129904Y-117807619D01*
X119888000Y-116743238D02*
X119646095Y-117468952D01*
X120275047Y-117468952D01*
X120855619Y-116791619D02*
X120952380Y-116791619D01*
X121049142Y-116840000D01*
X121097523Y-116888380D01*
X121145904Y-116985142D01*
X121194285Y-117178666D01*
X121194285Y-117420571D01*
X121145904Y-117614095D01*
X121097523Y-117710857D01*
X121049142Y-117759238D01*
X120952380Y-117807619D01*
X120855619Y-117807619D01*
X120758857Y-117759238D01*
X120710476Y-117710857D01*
X120662095Y-117614095D01*
X120613714Y-117420571D01*
X120613714Y-117178666D01*
X120662095Y-116985142D01*
X120710476Y-116888380D01*
X120758857Y-116840000D01*
X120855619Y-116791619D01*
X122161904Y-117807619D02*
X121581333Y-117807619D01*
X121871619Y-117807619D02*
X121871619Y-116791619D01*
X121774857Y-116936761D01*
X121678095Y-117033523D01*
X121581333Y-117081904D01*
D13*
X128303261Y-115391595D02*
X128303261Y-115693976D01*
X127668261Y-115693976D01*
X127879928Y-114907785D02*
X128303261Y-114907785D01*
X127638023Y-115058976D02*
X128091595Y-115210166D01*
X128091595Y-114817071D01*
X127668261Y-114454214D02*
X127668261Y-114393738D01*
X127698500Y-114333261D01*
X127728738Y-114303023D01*
X127789214Y-114272785D01*
X127910166Y-114242547D01*
X128061357Y-114242547D01*
X128182309Y-114272785D01*
X128242785Y-114303023D01*
X128273023Y-114333261D01*
X128303261Y-114393738D01*
X128303261Y-114454214D01*
X128273023Y-114514690D01*
X128242785Y-114544928D01*
X128182309Y-114575166D01*
X128061357Y-114605404D01*
X127910166Y-114605404D01*
X127789214Y-114575166D01*
X127728738Y-114544928D01*
X127698500Y-114514690D01*
X127668261Y-114454214D01*
X128303261Y-113637785D02*
X128303261Y-114000642D01*
X128303261Y-113819214D02*
X127668261Y-113819214D01*
X127758976Y-113879690D01*
X127819452Y-113940166D01*
X127849690Y-114000642D01*
D15*
X150682476Y-99459619D02*
X150682476Y-98443619D01*
X151069523Y-98443619D01*
X151166285Y-98492000D01*
X151214666Y-98540380D01*
X151263047Y-98637142D01*
X151263047Y-98782285D01*
X151214666Y-98879047D01*
X151166285Y-98927428D01*
X151069523Y-98975809D01*
X150682476Y-98975809D01*
X151650095Y-98540380D02*
X151698476Y-98492000D01*
X151795238Y-98443619D01*
X152037142Y-98443619D01*
X152133904Y-98492000D01*
X152182285Y-98540380D01*
X152230666Y-98637142D01*
X152230666Y-98733904D01*
X152182285Y-98879047D01*
X151601714Y-99459619D01*
X152230666Y-99459619D01*
X152859619Y-98443619D02*
X152956380Y-98443619D01*
X153053142Y-98492000D01*
X153101523Y-98540380D01*
X153149904Y-98637142D01*
X153198285Y-98830666D01*
X153198285Y-99072571D01*
X153149904Y-99266095D01*
X153101523Y-99362857D01*
X153053142Y-99411238D01*
X152956380Y-99459619D01*
X152859619Y-99459619D01*
X152762857Y-99411238D01*
X152714476Y-99362857D01*
X152666095Y-99266095D01*
X152617714Y-99072571D01*
X152617714Y-98830666D01*
X152666095Y-98637142D01*
X152714476Y-98540380D01*
X152762857Y-98492000D01*
X152859619Y-98443619D01*
X154165904Y-99459619D02*
X153585333Y-99459619D01*
X153875619Y-99459619D02*
X153875619Y-98443619D01*
X153778857Y-98588761D01*
X153682095Y-98685523D01*
X153585333Y-98733904D01*
D12*
X123522619Y-86553523D02*
X122506619Y-86553523D01*
X122506619Y-86166476D01*
X122555000Y-86069714D01*
X122603380Y-86021333D01*
X122700142Y-85972952D01*
X122845285Y-85972952D01*
X122942047Y-86021333D01*
X122990428Y-86069714D01*
X123038809Y-86166476D01*
X123038809Y-86553523D01*
X122506619Y-85634285D02*
X122506619Y-85005333D01*
X122893666Y-85344000D01*
X122893666Y-85198857D01*
X122942047Y-85102095D01*
X122990428Y-85053714D01*
X123087190Y-85005333D01*
X123329095Y-85005333D01*
X123425857Y-85053714D01*
X123474238Y-85102095D01*
X123522619Y-85198857D01*
X123522619Y-85489142D01*
X123474238Y-85585904D01*
X123425857Y-85634285D01*
X122506619Y-84376380D02*
X122506619Y-84279619D01*
X122555000Y-84182857D01*
X122603380Y-84134476D01*
X122700142Y-84086095D01*
X122893666Y-84037714D01*
X123135571Y-84037714D01*
X123329095Y-84086095D01*
X123425857Y-84134476D01*
X123474238Y-84182857D01*
X123522619Y-84279619D01*
X123522619Y-84376380D01*
X123474238Y-84473142D01*
X123425857Y-84521523D01*
X123329095Y-84569904D01*
X123135571Y-84618285D01*
X122893666Y-84618285D01*
X122700142Y-84569904D01*
X122603380Y-84521523D01*
X122555000Y-84473142D01*
X122506619Y-84376380D01*
X123522619Y-83070095D02*
X123522619Y-83650666D01*
X123522619Y-83360380D02*
X122506619Y-83360380D01*
X122651761Y-83457142D01*
X122748523Y-83553904D01*
X122796904Y-83650666D01*
D11*
X153917285Y-109498285D02*
X153881000Y-109570857D01*
X153808428Y-109643428D01*
X153699571Y-109752285D01*
X153663285Y-109824857D01*
X153663285Y-109897428D01*
X153844714Y-109861142D02*
X153808428Y-109933714D01*
X153735857Y-110006285D01*
X153590714Y-110042571D01*
X153336714Y-110042571D01*
X153191571Y-110006285D01*
X153119000Y-109933714D01*
X153082714Y-109861142D01*
X153082714Y-109716000D01*
X153119000Y-109643428D01*
X153191571Y-109570857D01*
X153336714Y-109534571D01*
X153590714Y-109534571D01*
X153735857Y-109570857D01*
X153808428Y-109643428D01*
X153844714Y-109716000D01*
X153844714Y-109861142D01*
X153155285Y-109244285D02*
X153119000Y-109208000D01*
X153082714Y-109135428D01*
X153082714Y-108954000D01*
X153119000Y-108881428D01*
X153155285Y-108845142D01*
X153227857Y-108808857D01*
X153300428Y-108808857D01*
X153409285Y-108845142D01*
X153844714Y-109280571D01*
X153844714Y-108808857D01*
X153082714Y-108337142D02*
X153082714Y-108264571D01*
X153119000Y-108192000D01*
X153155285Y-108155714D01*
X153227857Y-108119428D01*
X153373000Y-108083142D01*
X153554428Y-108083142D01*
X153699571Y-108119428D01*
X153772142Y-108155714D01*
X153808428Y-108192000D01*
X153844714Y-108264571D01*
X153844714Y-108337142D01*
X153808428Y-108409714D01*
X153772142Y-108446000D01*
X153699571Y-108482285D01*
X153554428Y-108518571D01*
X153373000Y-108518571D01*
X153227857Y-108482285D01*
X153155285Y-108446000D01*
X153119000Y-108409714D01*
X153082714Y-108337142D01*
X153844714Y-107357428D02*
X153844714Y-107792857D01*
X153844714Y-107575142D02*
X153082714Y-107575142D01*
X153191571Y-107647714D01*
X153264142Y-107720285D01*
X153300428Y-107792857D01*
X158087785Y-90142785D02*
X158051500Y-90215357D01*
X157978928Y-90287928D01*
X157870071Y-90396785D01*
X157833785Y-90469357D01*
X157833785Y-90541928D01*
X158015214Y-90505642D02*
X157978928Y-90578214D01*
X157906357Y-90650785D01*
X157761214Y-90687071D01*
X157507214Y-90687071D01*
X157362071Y-90650785D01*
X157289500Y-90578214D01*
X157253214Y-90505642D01*
X157253214Y-90360500D01*
X157289500Y-90287928D01*
X157362071Y-90215357D01*
X157507214Y-90179071D01*
X157761214Y-90179071D01*
X157906357Y-90215357D01*
X157978928Y-90287928D01*
X158015214Y-90360500D01*
X158015214Y-90505642D01*
X157325785Y-89888785D02*
X157289500Y-89852500D01*
X157253214Y-89779928D01*
X157253214Y-89598500D01*
X157289500Y-89525928D01*
X157325785Y-89489642D01*
X157398357Y-89453357D01*
X157470928Y-89453357D01*
X157579785Y-89489642D01*
X158015214Y-89925071D01*
X158015214Y-89453357D01*
X157253214Y-88981642D02*
X157253214Y-88909071D01*
X157289500Y-88836500D01*
X157325785Y-88800214D01*
X157398357Y-88763928D01*
X157543500Y-88727642D01*
X157724928Y-88727642D01*
X157870071Y-88763928D01*
X157942642Y-88800214D01*
X157978928Y-88836500D01*
X158015214Y-88909071D01*
X158015214Y-88981642D01*
X157978928Y-89054214D01*
X157942642Y-89090500D01*
X157870071Y-89126785D01*
X157724928Y-89163071D01*
X157543500Y-89163071D01*
X157398357Y-89126785D01*
X157325785Y-89090500D01*
X157289500Y-89054214D01*
X157253214Y-88981642D01*
X157325785Y-88437357D02*
X157289500Y-88401071D01*
X157253214Y-88328500D01*
X157253214Y-88147071D01*
X157289500Y-88074500D01*
X157325785Y-88038214D01*
X157398357Y-88001928D01*
X157470928Y-88001928D01*
X157579785Y-88038214D01*
X158015214Y-88473642D01*
X158015214Y-88001928D01*
X158024285Y-97064285D02*
X157988000Y-97136857D01*
X157915428Y-97209428D01*
X157806571Y-97318285D01*
X157770285Y-97390857D01*
X157770285Y-97463428D01*
X157951714Y-97427142D02*
X157915428Y-97499714D01*
X157842857Y-97572285D01*
X157697714Y-97608571D01*
X157443714Y-97608571D01*
X157298571Y-97572285D01*
X157226000Y-97499714D01*
X157189714Y-97427142D01*
X157189714Y-97282000D01*
X157226000Y-97209428D01*
X157298571Y-97136857D01*
X157443714Y-97100571D01*
X157697714Y-97100571D01*
X157842857Y-97136857D01*
X157915428Y-97209428D01*
X157951714Y-97282000D01*
X157951714Y-97427142D01*
X157262285Y-96810285D02*
X157226000Y-96774000D01*
X157189714Y-96701428D01*
X157189714Y-96520000D01*
X157226000Y-96447428D01*
X157262285Y-96411142D01*
X157334857Y-96374857D01*
X157407428Y-96374857D01*
X157516285Y-96411142D01*
X157951714Y-96846571D01*
X157951714Y-96374857D01*
X157189714Y-95903142D02*
X157189714Y-95830571D01*
X157226000Y-95758000D01*
X157262285Y-95721714D01*
X157334857Y-95685428D01*
X157480000Y-95649142D01*
X157661428Y-95649142D01*
X157806571Y-95685428D01*
X157879142Y-95721714D01*
X157915428Y-95758000D01*
X157951714Y-95830571D01*
X157951714Y-95903142D01*
X157915428Y-95975714D01*
X157879142Y-96012000D01*
X157806571Y-96048285D01*
X157661428Y-96084571D01*
X157480000Y-96084571D01*
X157334857Y-96048285D01*
X157262285Y-96012000D01*
X157226000Y-95975714D01*
X157189714Y-95903142D01*
X157189714Y-95395142D02*
X157189714Y-94923428D01*
X157480000Y-95177428D01*
X157480000Y-95068571D01*
X157516285Y-94996000D01*
X157552571Y-94959714D01*
X157625142Y-94923428D01*
X157806571Y-94923428D01*
X157879142Y-94959714D01*
X157915428Y-94996000D01*
X157951714Y-95068571D01*
X157951714Y-95286285D01*
X157915428Y-95358857D01*
X157879142Y-95395142D01*
X158087785Y-93571785D02*
X158051500Y-93644357D01*
X157978928Y-93716928D01*
X157870071Y-93825785D01*
X157833785Y-93898357D01*
X157833785Y-93970928D01*
X158015214Y-93934642D02*
X157978928Y-94007214D01*
X157906357Y-94079785D01*
X157761214Y-94116071D01*
X157507214Y-94116071D01*
X157362071Y-94079785D01*
X157289500Y-94007214D01*
X157253214Y-93934642D01*
X157253214Y-93789500D01*
X157289500Y-93716928D01*
X157362071Y-93644357D01*
X157507214Y-93608071D01*
X157761214Y-93608071D01*
X157906357Y-93644357D01*
X157978928Y-93716928D01*
X158015214Y-93789500D01*
X158015214Y-93934642D01*
X157325785Y-93317785D02*
X157289500Y-93281500D01*
X157253214Y-93208928D01*
X157253214Y-93027500D01*
X157289500Y-92954928D01*
X157325785Y-92918642D01*
X157398357Y-92882357D01*
X157470928Y-92882357D01*
X157579785Y-92918642D01*
X158015214Y-93354071D01*
X158015214Y-92882357D01*
X157253214Y-92410642D02*
X157253214Y-92338071D01*
X157289500Y-92265500D01*
X157325785Y-92229214D01*
X157398357Y-92192928D01*
X157543500Y-92156642D01*
X157724928Y-92156642D01*
X157870071Y-92192928D01*
X157942642Y-92229214D01*
X157978928Y-92265500D01*
X158015214Y-92338071D01*
X158015214Y-92410642D01*
X157978928Y-92483214D01*
X157942642Y-92519500D01*
X157870071Y-92555785D01*
X157724928Y-92592071D01*
X157543500Y-92592071D01*
X157398357Y-92555785D01*
X157325785Y-92519500D01*
X157289500Y-92483214D01*
X157253214Y-92410642D01*
X157507214Y-91503500D02*
X158015214Y-91503500D01*
X157216928Y-91684928D02*
X157761214Y-91866357D01*
X157761214Y-91394642D01*
X126201714Y-117511285D02*
X126129142Y-117475000D01*
X126056571Y-117402428D01*
X125947714Y-117293571D01*
X125875142Y-117257285D01*
X125802571Y-117257285D01*
X125838857Y-117438714D02*
X125766285Y-117402428D01*
X125693714Y-117329857D01*
X125657428Y-117184714D01*
X125657428Y-116930714D01*
X125693714Y-116785571D01*
X125766285Y-116713000D01*
X125838857Y-116676714D01*
X125984000Y-116676714D01*
X126056571Y-116713000D01*
X126129142Y-116785571D01*
X126165428Y-116930714D01*
X126165428Y-117184714D01*
X126129142Y-117329857D01*
X126056571Y-117402428D01*
X125984000Y-117438714D01*
X125838857Y-117438714D01*
X126419428Y-116676714D02*
X126891142Y-116676714D01*
X126637142Y-116967000D01*
X126746000Y-116967000D01*
X126818571Y-117003285D01*
X126854857Y-117039571D01*
X126891142Y-117112142D01*
X126891142Y-117293571D01*
X126854857Y-117366142D01*
X126818571Y-117402428D01*
X126746000Y-117438714D01*
X126528285Y-117438714D01*
X126455714Y-117402428D01*
X126419428Y-117366142D01*
X127362857Y-116676714D02*
X127435428Y-116676714D01*
X127508000Y-116713000D01*
X127544285Y-116749285D01*
X127580571Y-116821857D01*
X127616857Y-116967000D01*
X127616857Y-117148428D01*
X127580571Y-117293571D01*
X127544285Y-117366142D01*
X127508000Y-117402428D01*
X127435428Y-117438714D01*
X127362857Y-117438714D01*
X127290285Y-117402428D01*
X127254000Y-117366142D01*
X127217714Y-117293571D01*
X127181428Y-117148428D01*
X127181428Y-116967000D01*
X127217714Y-116821857D01*
X127254000Y-116749285D01*
X127290285Y-116713000D01*
X127362857Y-116676714D01*
X128342571Y-117438714D02*
X127907142Y-117438714D01*
X128124857Y-117438714D02*
X128124857Y-116676714D01*
X128052285Y-116785571D01*
X127979714Y-116858142D01*
X127907142Y-116894428D01*
D13*
X152587261Y-110710595D02*
X152284880Y-110922261D01*
X152587261Y-111073452D02*
X151952261Y-111073452D01*
X151952261Y-110831547D01*
X151982500Y-110771071D01*
X152012738Y-110740833D01*
X152073214Y-110710595D01*
X152163928Y-110710595D01*
X152224404Y-110740833D01*
X152254642Y-110771071D01*
X152284880Y-110831547D01*
X152284880Y-111073452D01*
X152012738Y-110468690D02*
X151982500Y-110438452D01*
X151952261Y-110377976D01*
X151952261Y-110226785D01*
X151982500Y-110166309D01*
X152012738Y-110136071D01*
X152073214Y-110105833D01*
X152133690Y-110105833D01*
X152224404Y-110136071D01*
X152587261Y-110498928D01*
X152587261Y-110105833D01*
X151952261Y-109712738D02*
X151952261Y-109652261D01*
X151982500Y-109591785D01*
X152012738Y-109561547D01*
X152073214Y-109531309D01*
X152194166Y-109501071D01*
X152345357Y-109501071D01*
X152466309Y-109531309D01*
X152526785Y-109561547D01*
X152557023Y-109591785D01*
X152587261Y-109652261D01*
X152587261Y-109712738D01*
X152557023Y-109773214D01*
X152526785Y-109803452D01*
X152466309Y-109833690D01*
X152345357Y-109863928D01*
X152194166Y-109863928D01*
X152073214Y-109833690D01*
X152012738Y-109803452D01*
X151982500Y-109773214D01*
X151952261Y-109712738D01*
X152587261Y-108896309D02*
X152587261Y-109259166D01*
X152587261Y-109077738D02*
X151952261Y-109077738D01*
X152042976Y-109138214D01*
X152103452Y-109198690D01*
X152133690Y-109259166D01*
X150165404Y-90203261D02*
X149953738Y-89900880D01*
X149802547Y-90203261D02*
X149802547Y-89568261D01*
X150044452Y-89568261D01*
X150104928Y-89598500D01*
X150135166Y-89628738D01*
X150165404Y-89689214D01*
X150165404Y-89779928D01*
X150135166Y-89840404D01*
X150104928Y-89870642D01*
X150044452Y-89900880D01*
X149802547Y-89900880D01*
X150407309Y-89628738D02*
X150437547Y-89598500D01*
X150498023Y-89568261D01*
X150649214Y-89568261D01*
X150709690Y-89598500D01*
X150739928Y-89628738D01*
X150770166Y-89689214D01*
X150770166Y-89749690D01*
X150739928Y-89840404D01*
X150377071Y-90203261D01*
X150770166Y-90203261D01*
X151163261Y-89568261D02*
X151223738Y-89568261D01*
X151284214Y-89598500D01*
X151314452Y-89628738D01*
X151344690Y-89689214D01*
X151374928Y-89810166D01*
X151374928Y-89961357D01*
X151344690Y-90082309D01*
X151314452Y-90142785D01*
X151284214Y-90173023D01*
X151223738Y-90203261D01*
X151163261Y-90203261D01*
X151102785Y-90173023D01*
X151072547Y-90142785D01*
X151042309Y-90082309D01*
X151012071Y-89961357D01*
X151012071Y-89810166D01*
X151042309Y-89689214D01*
X151072547Y-89628738D01*
X151102785Y-89598500D01*
X151163261Y-89568261D01*
X151919214Y-89779928D02*
X151919214Y-90203261D01*
X151768023Y-89538023D02*
X151616833Y-89991595D01*
X152009928Y-89991595D01*
X150419404Y-96172261D02*
X150207738Y-95869880D01*
X150056547Y-96172261D02*
X150056547Y-95537261D01*
X150298452Y-95537261D01*
X150358928Y-95567500D01*
X150389166Y-95597738D01*
X150419404Y-95658214D01*
X150419404Y-95748928D01*
X150389166Y-95809404D01*
X150358928Y-95839642D01*
X150298452Y-95869880D01*
X150056547Y-95869880D01*
X150661309Y-95597738D02*
X150691547Y-95567500D01*
X150752023Y-95537261D01*
X150903214Y-95537261D01*
X150963690Y-95567500D01*
X150993928Y-95597738D01*
X151024166Y-95658214D01*
X151024166Y-95718690D01*
X150993928Y-95809404D01*
X150631071Y-96172261D01*
X151024166Y-96172261D01*
X151417261Y-95537261D02*
X151477738Y-95537261D01*
X151538214Y-95567500D01*
X151568452Y-95597738D01*
X151598690Y-95658214D01*
X151628928Y-95779166D01*
X151628928Y-95930357D01*
X151598690Y-96051309D01*
X151568452Y-96111785D01*
X151538214Y-96142023D01*
X151477738Y-96172261D01*
X151417261Y-96172261D01*
X151356785Y-96142023D01*
X151326547Y-96111785D01*
X151296309Y-96051309D01*
X151266071Y-95930357D01*
X151266071Y-95779166D01*
X151296309Y-95658214D01*
X151326547Y-95597738D01*
X151356785Y-95567500D01*
X151417261Y-95537261D01*
X152203452Y-95537261D02*
X151901071Y-95537261D01*
X151870833Y-95839642D01*
X151901071Y-95809404D01*
X151961547Y-95779166D01*
X152112738Y-95779166D01*
X152173214Y-95809404D01*
X152203452Y-95839642D01*
X152233690Y-95900119D01*
X152233690Y-96051309D01*
X152203452Y-96111785D01*
X152173214Y-96142023D01*
X152112738Y-96172261D01*
X151961547Y-96172261D01*
X151901071Y-96142023D01*
X151870833Y-96111785D01*
X150292404Y-93251261D02*
X150080738Y-92948880D01*
X149929547Y-93251261D02*
X149929547Y-92616261D01*
X150171452Y-92616261D01*
X150231928Y-92646500D01*
X150262166Y-92676738D01*
X150292404Y-92737214D01*
X150292404Y-92827928D01*
X150262166Y-92888404D01*
X150231928Y-92918642D01*
X150171452Y-92948880D01*
X149929547Y-92948880D01*
X150534309Y-92676738D02*
X150564547Y-92646500D01*
X150625023Y-92616261D01*
X150776214Y-92616261D01*
X150836690Y-92646500D01*
X150866928Y-92676738D01*
X150897166Y-92737214D01*
X150897166Y-92797690D01*
X150866928Y-92888404D01*
X150504071Y-93251261D01*
X150897166Y-93251261D01*
X151290261Y-92616261D02*
X151350738Y-92616261D01*
X151411214Y-92646500D01*
X151441452Y-92676738D01*
X151471690Y-92737214D01*
X151501928Y-92858166D01*
X151501928Y-93009357D01*
X151471690Y-93130309D01*
X151441452Y-93190785D01*
X151411214Y-93221023D01*
X151350738Y-93251261D01*
X151290261Y-93251261D01*
X151229785Y-93221023D01*
X151199547Y-93190785D01*
X151169309Y-93130309D01*
X151139071Y-93009357D01*
X151139071Y-92858166D01*
X151169309Y-92737214D01*
X151199547Y-92676738D01*
X151229785Y-92646500D01*
X151290261Y-92616261D01*
X152046214Y-92616261D02*
X151925261Y-92616261D01*
X151864785Y-92646500D01*
X151834547Y-92676738D01*
X151774071Y-92767452D01*
X151743833Y-92888404D01*
X151743833Y-93130309D01*
X151774071Y-93190785D01*
X151804309Y-93221023D01*
X151864785Y-93251261D01*
X151985738Y-93251261D01*
X152046214Y-93221023D01*
X152076452Y-93190785D01*
X152106690Y-93130309D01*
X152106690Y-92979119D01*
X152076452Y-92918642D01*
X152046214Y-92888404D01*
X151985738Y-92858166D01*
X151864785Y-92858166D01*
X151804309Y-92888404D01*
X151774071Y-92918642D01*
X151743833Y-92979119D01*
X145089404Y-102587261D02*
X144877738Y-102284880D01*
X144726547Y-102587261D02*
X144726547Y-101952261D01*
X144968452Y-101952261D01*
X145028928Y-101982500D01*
X145059166Y-102012738D01*
X145089404Y-102073214D01*
X145089404Y-102163928D01*
X145059166Y-102224404D01*
X145028928Y-102254642D01*
X144968452Y-102284880D01*
X144726547Y-102284880D01*
X145331309Y-102012738D02*
X145361547Y-101982500D01*
X145422023Y-101952261D01*
X145573214Y-101952261D01*
X145633690Y-101982500D01*
X145663928Y-102012738D01*
X145694166Y-102073214D01*
X145694166Y-102133690D01*
X145663928Y-102224404D01*
X145301071Y-102587261D01*
X145694166Y-102587261D01*
X146087261Y-101952261D02*
X146147738Y-101952261D01*
X146208214Y-101982500D01*
X146238452Y-102012738D01*
X146268690Y-102073214D01*
X146298928Y-102194166D01*
X146298928Y-102345357D01*
X146268690Y-102466309D01*
X146238452Y-102526785D01*
X146208214Y-102557023D01*
X146147738Y-102587261D01*
X146087261Y-102587261D01*
X146026785Y-102557023D01*
X145996547Y-102526785D01*
X145966309Y-102466309D01*
X145936071Y-102345357D01*
X145936071Y-102194166D01*
X145966309Y-102073214D01*
X145996547Y-102012738D01*
X146026785Y-101982500D01*
X146087261Y-101952261D01*
X146510595Y-101952261D02*
X146933928Y-101952261D01*
X146661785Y-102587261D01*
X148133404Y-99093261D02*
X147921738Y-98790880D01*
X147770547Y-99093261D02*
X147770547Y-98458261D01*
X148012452Y-98458261D01*
X148072928Y-98488500D01*
X148103166Y-98518738D01*
X148133404Y-98579214D01*
X148133404Y-98669928D01*
X148103166Y-98730404D01*
X148072928Y-98760642D01*
X148012452Y-98790880D01*
X147770547Y-98790880D01*
X148375309Y-98518738D02*
X148405547Y-98488500D01*
X148466023Y-98458261D01*
X148617214Y-98458261D01*
X148677690Y-98488500D01*
X148707928Y-98518738D01*
X148738166Y-98579214D01*
X148738166Y-98639690D01*
X148707928Y-98730404D01*
X148345071Y-99093261D01*
X148738166Y-99093261D01*
X149131261Y-98458261D02*
X149191738Y-98458261D01*
X149252214Y-98488500D01*
X149282452Y-98518738D01*
X149312690Y-98579214D01*
X149342928Y-98700166D01*
X149342928Y-98851357D01*
X149312690Y-98972309D01*
X149282452Y-99032785D01*
X149252214Y-99063023D01*
X149191738Y-99093261D01*
X149131261Y-99093261D01*
X149070785Y-99063023D01*
X149040547Y-99032785D01*
X149010309Y-98972309D01*
X148980071Y-98851357D01*
X148980071Y-98700166D01*
X149010309Y-98579214D01*
X149040547Y-98518738D01*
X149070785Y-98488500D01*
X149131261Y-98458261D01*
X149705785Y-98730404D02*
X149645309Y-98700166D01*
X149615071Y-98669928D01*
X149584833Y-98609452D01*
X149584833Y-98579214D01*
X149615071Y-98518738D01*
X149645309Y-98488500D01*
X149705785Y-98458261D01*
X149826738Y-98458261D01*
X149887214Y-98488500D01*
X149917452Y-98518738D01*
X149947690Y-98579214D01*
X149947690Y-98609452D01*
X149917452Y-98669928D01*
X149887214Y-98700166D01*
X149826738Y-98730404D01*
X149705785Y-98730404D01*
X149645309Y-98760642D01*
X149615071Y-98790880D01*
X149584833Y-98851357D01*
X149584833Y-98972309D01*
X149615071Y-99032785D01*
X149645309Y-99063023D01*
X149705785Y-99093261D01*
X149826738Y-99093261D01*
X149887214Y-99063023D01*
X149917452Y-99032785D01*
X149947690Y-98972309D01*
X149947690Y-98851357D01*
X149917452Y-98790880D01*
X149887214Y-98760642D01*
X149826738Y-98730404D01*
X151089404Y-106987261D02*
X150877738Y-106684880D01*
X150726547Y-106987261D02*
X150726547Y-106352261D01*
X150968452Y-106352261D01*
X151028928Y-106382500D01*
X151059166Y-106412738D01*
X151089404Y-106473214D01*
X151089404Y-106563928D01*
X151059166Y-106624404D01*
X151028928Y-106654642D01*
X150968452Y-106684880D01*
X150726547Y-106684880D01*
X151331309Y-106412738D02*
X151361547Y-106382500D01*
X151422023Y-106352261D01*
X151573214Y-106352261D01*
X151633690Y-106382500D01*
X151663928Y-106412738D01*
X151694166Y-106473214D01*
X151694166Y-106533690D01*
X151663928Y-106624404D01*
X151301071Y-106987261D01*
X151694166Y-106987261D01*
X152298928Y-106987261D02*
X151936071Y-106987261D01*
X152117500Y-106987261D02*
X152117500Y-106352261D01*
X152057023Y-106442976D01*
X151996547Y-106503452D01*
X151936071Y-106533690D01*
X152692023Y-106352261D02*
X152752500Y-106352261D01*
X152812976Y-106382500D01*
X152843214Y-106412738D01*
X152873452Y-106473214D01*
X152903690Y-106594166D01*
X152903690Y-106745357D01*
X152873452Y-106866309D01*
X152843214Y-106926785D01*
X152812976Y-106957023D01*
X152752500Y-106987261D01*
X152692023Y-106987261D01*
X152631547Y-106957023D01*
X152601309Y-106926785D01*
X152571071Y-106866309D01*
X152540833Y-106745357D01*
X152540833Y-106594166D01*
X152571071Y-106473214D01*
X152601309Y-106412738D01*
X152631547Y-106382500D01*
X152692023Y-106352261D01*
X151054404Y-105824261D02*
X150842738Y-105521880D01*
X150691547Y-105824261D02*
X150691547Y-105189261D01*
X150933452Y-105189261D01*
X150993928Y-105219500D01*
X151024166Y-105249738D01*
X151054404Y-105310214D01*
X151054404Y-105400928D01*
X151024166Y-105461404D01*
X150993928Y-105491642D01*
X150933452Y-105521880D01*
X150691547Y-105521880D01*
X151296309Y-105249738D02*
X151326547Y-105219500D01*
X151387023Y-105189261D01*
X151538214Y-105189261D01*
X151598690Y-105219500D01*
X151628928Y-105249738D01*
X151659166Y-105310214D01*
X151659166Y-105370690D01*
X151628928Y-105461404D01*
X151266071Y-105824261D01*
X151659166Y-105824261D01*
X152263928Y-105824261D02*
X151901071Y-105824261D01*
X152082500Y-105824261D02*
X152082500Y-105189261D01*
X152022023Y-105279976D01*
X151961547Y-105340452D01*
X151901071Y-105370690D01*
X152868690Y-105824261D02*
X152505833Y-105824261D01*
X152687261Y-105824261D02*
X152687261Y-105189261D01*
X152626785Y-105279976D01*
X152566309Y-105340452D01*
X152505833Y-105370690D01*
X131478261Y-95452595D02*
X131175880Y-95664261D01*
X131478261Y-95815452D02*
X130843261Y-95815452D01*
X130843261Y-95573547D01*
X130873500Y-95513071D01*
X130903738Y-95482833D01*
X130964214Y-95452595D01*
X131054928Y-95452595D01*
X131115404Y-95482833D01*
X131145642Y-95513071D01*
X131175880Y-95573547D01*
X131175880Y-95815452D01*
X130903738Y-95210690D02*
X130873500Y-95180452D01*
X130843261Y-95119976D01*
X130843261Y-94968785D01*
X130873500Y-94908309D01*
X130903738Y-94878071D01*
X130964214Y-94847833D01*
X131024690Y-94847833D01*
X131115404Y-94878071D01*
X131478261Y-95240928D01*
X131478261Y-94847833D01*
X131478261Y-94243071D02*
X131478261Y-94605928D01*
X131478261Y-94424500D02*
X130843261Y-94424500D01*
X130933976Y-94484976D01*
X130994452Y-94545452D01*
X131024690Y-94605928D01*
X130903738Y-94001166D02*
X130873500Y-93970928D01*
X130843261Y-93910452D01*
X130843261Y-93759261D01*
X130873500Y-93698785D01*
X130903738Y-93668547D01*
X130964214Y-93638309D01*
X131024690Y-93638309D01*
X131115404Y-93668547D01*
X131478261Y-94031404D01*
X131478261Y-93638309D01*
X150165404Y-87409261D02*
X149953738Y-87106880D01*
X149802547Y-87409261D02*
X149802547Y-86774261D01*
X150044452Y-86774261D01*
X150104928Y-86804500D01*
X150135166Y-86834738D01*
X150165404Y-86895214D01*
X150165404Y-86985928D01*
X150135166Y-87046404D01*
X150104928Y-87076642D01*
X150044452Y-87106880D01*
X149802547Y-87106880D01*
X150407309Y-86834738D02*
X150437547Y-86804500D01*
X150498023Y-86774261D01*
X150649214Y-86774261D01*
X150709690Y-86804500D01*
X150739928Y-86834738D01*
X150770166Y-86895214D01*
X150770166Y-86955690D01*
X150739928Y-87046404D01*
X150377071Y-87409261D01*
X150770166Y-87409261D01*
X151374928Y-87409261D02*
X151012071Y-87409261D01*
X151193500Y-87409261D02*
X151193500Y-86774261D01*
X151133023Y-86864976D01*
X151072547Y-86925452D01*
X151012071Y-86955690D01*
X151586595Y-86774261D02*
X151979690Y-86774261D01*
X151768023Y-87016166D01*
X151858738Y-87016166D01*
X151919214Y-87046404D01*
X151949452Y-87076642D01*
X151979690Y-87137119D01*
X151979690Y-87288309D01*
X151949452Y-87348785D01*
X151919214Y-87379023D01*
X151858738Y-87409261D01*
X151677309Y-87409261D01*
X151616833Y-87379023D01*
X151586595Y-87348785D01*
X144687261Y-91110595D02*
X144384880Y-91322261D01*
X144687261Y-91473452D02*
X144052261Y-91473452D01*
X144052261Y-91231547D01*
X144082500Y-91171071D01*
X144112738Y-91140833D01*
X144173214Y-91110595D01*
X144263928Y-91110595D01*
X144324404Y-91140833D01*
X144354642Y-91171071D01*
X144384880Y-91231547D01*
X144384880Y-91473452D01*
X144112738Y-90868690D02*
X144082500Y-90838452D01*
X144052261Y-90777976D01*
X144052261Y-90626785D01*
X144082500Y-90566309D01*
X144112738Y-90536071D01*
X144173214Y-90505833D01*
X144233690Y-90505833D01*
X144324404Y-90536071D01*
X144687261Y-90898928D01*
X144687261Y-90505833D01*
X144687261Y-89901071D02*
X144687261Y-90263928D01*
X144687261Y-90082500D02*
X144052261Y-90082500D01*
X144142976Y-90142976D01*
X144203452Y-90203452D01*
X144233690Y-90263928D01*
X144263928Y-89356785D02*
X144687261Y-89356785D01*
X144022023Y-89507976D02*
X144475595Y-89659166D01*
X144475595Y-89266071D01*
X137387261Y-91210595D02*
X137084880Y-91422261D01*
X137387261Y-91573452D02*
X136752261Y-91573452D01*
X136752261Y-91331547D01*
X136782500Y-91271071D01*
X136812738Y-91240833D01*
X136873214Y-91210595D01*
X136963928Y-91210595D01*
X137024404Y-91240833D01*
X137054642Y-91271071D01*
X137084880Y-91331547D01*
X137084880Y-91573452D01*
X136812738Y-90968690D02*
X136782500Y-90938452D01*
X136752261Y-90877976D01*
X136752261Y-90726785D01*
X136782500Y-90666309D01*
X136812738Y-90636071D01*
X136873214Y-90605833D01*
X136933690Y-90605833D01*
X137024404Y-90636071D01*
X137387261Y-90998928D01*
X137387261Y-90605833D01*
X137387261Y-90001071D02*
X137387261Y-90363928D01*
X137387261Y-90182500D02*
X136752261Y-90182500D01*
X136842976Y-90242976D01*
X136903452Y-90303452D01*
X136933690Y-90363928D01*
X136752261Y-89426547D02*
X136752261Y-89728928D01*
X137054642Y-89759166D01*
X137024404Y-89728928D01*
X136994166Y-89668452D01*
X136994166Y-89517261D01*
X137024404Y-89456785D01*
X137054642Y-89426547D01*
X137115119Y-89396309D01*
X137266309Y-89396309D01*
X137326785Y-89426547D01*
X137357023Y-89456785D01*
X137387261Y-89517261D01*
X137387261Y-89668452D01*
X137357023Y-89728928D01*
X137326785Y-89759166D01*
X145489404Y-108287261D02*
X145277738Y-107984880D01*
X145126547Y-108287261D02*
X145126547Y-107652261D01*
X145368452Y-107652261D01*
X145428928Y-107682500D01*
X145459166Y-107712738D01*
X145489404Y-107773214D01*
X145489404Y-107863928D01*
X145459166Y-107924404D01*
X145428928Y-107954642D01*
X145368452Y-107984880D01*
X145126547Y-107984880D01*
X145701071Y-107652261D02*
X146094166Y-107652261D01*
X145882500Y-107894166D01*
X145973214Y-107894166D01*
X146033690Y-107924404D01*
X146063928Y-107954642D01*
X146094166Y-108015119D01*
X146094166Y-108166309D01*
X146063928Y-108226785D01*
X146033690Y-108257023D01*
X145973214Y-108287261D01*
X145791785Y-108287261D01*
X145731309Y-108257023D01*
X145701071Y-108226785D01*
X146487261Y-107652261D02*
X146547738Y-107652261D01*
X146608214Y-107682500D01*
X146638452Y-107712738D01*
X146668690Y-107773214D01*
X146698928Y-107894166D01*
X146698928Y-108045357D01*
X146668690Y-108166309D01*
X146638452Y-108226785D01*
X146608214Y-108257023D01*
X146547738Y-108287261D01*
X146487261Y-108287261D01*
X146426785Y-108257023D01*
X146396547Y-108226785D01*
X146366309Y-108166309D01*
X146336071Y-108045357D01*
X146336071Y-107894166D01*
X146366309Y-107773214D01*
X146396547Y-107712738D01*
X146426785Y-107682500D01*
X146487261Y-107652261D01*
X147303690Y-108287261D02*
X146940833Y-108287261D01*
X147122261Y-108287261D02*
X147122261Y-107652261D01*
X147061785Y-107742976D01*
X147001309Y-107803452D01*
X146940833Y-107833690D01*
X140489404Y-108287261D02*
X140277738Y-107984880D01*
X140126547Y-108287261D02*
X140126547Y-107652261D01*
X140368452Y-107652261D01*
X140428928Y-107682500D01*
X140459166Y-107712738D01*
X140489404Y-107773214D01*
X140489404Y-107863928D01*
X140459166Y-107924404D01*
X140428928Y-107954642D01*
X140368452Y-107984880D01*
X140126547Y-107984880D01*
X140701071Y-107652261D02*
X141094166Y-107652261D01*
X140882500Y-107894166D01*
X140973214Y-107894166D01*
X141033690Y-107924404D01*
X141063928Y-107954642D01*
X141094166Y-108015119D01*
X141094166Y-108166309D01*
X141063928Y-108226785D01*
X141033690Y-108257023D01*
X140973214Y-108287261D01*
X140791785Y-108287261D01*
X140731309Y-108257023D01*
X140701071Y-108226785D01*
X141487261Y-107652261D02*
X141547738Y-107652261D01*
X141608214Y-107682500D01*
X141638452Y-107712738D01*
X141668690Y-107773214D01*
X141698928Y-107894166D01*
X141698928Y-108045357D01*
X141668690Y-108166309D01*
X141638452Y-108226785D01*
X141608214Y-108257023D01*
X141547738Y-108287261D01*
X141487261Y-108287261D01*
X141426785Y-108257023D01*
X141396547Y-108226785D01*
X141366309Y-108166309D01*
X141336071Y-108045357D01*
X141336071Y-107894166D01*
X141366309Y-107773214D01*
X141396547Y-107712738D01*
X141426785Y-107682500D01*
X141487261Y-107652261D01*
X141940833Y-107712738D02*
X141971071Y-107682500D01*
X142031547Y-107652261D01*
X142182738Y-107652261D01*
X142243214Y-107682500D01*
X142273452Y-107712738D01*
X142303690Y-107773214D01*
X142303690Y-107833690D01*
X142273452Y-107924404D01*
X141910595Y-108287261D01*
X142303690Y-108287261D01*
X120937261Y-115010595D02*
X120634880Y-115222261D01*
X120937261Y-115373452D02*
X120302261Y-115373452D01*
X120302261Y-115131547D01*
X120332500Y-115071071D01*
X120362738Y-115040833D01*
X120423214Y-115010595D01*
X120513928Y-115010595D01*
X120574404Y-115040833D01*
X120604642Y-115071071D01*
X120634880Y-115131547D01*
X120634880Y-115373452D01*
X120302261Y-114798928D02*
X120302261Y-114405833D01*
X120544166Y-114617500D01*
X120544166Y-114526785D01*
X120574404Y-114466309D01*
X120604642Y-114436071D01*
X120665119Y-114405833D01*
X120816309Y-114405833D01*
X120876785Y-114436071D01*
X120907023Y-114466309D01*
X120937261Y-114526785D01*
X120937261Y-114708214D01*
X120907023Y-114768690D01*
X120876785Y-114798928D01*
X120302261Y-114012738D02*
X120302261Y-113952261D01*
X120332500Y-113891785D01*
X120362738Y-113861547D01*
X120423214Y-113831309D01*
X120544166Y-113801071D01*
X120695357Y-113801071D01*
X120816309Y-113831309D01*
X120876785Y-113861547D01*
X120907023Y-113891785D01*
X120937261Y-113952261D01*
X120937261Y-114012738D01*
X120907023Y-114073214D01*
X120876785Y-114103452D01*
X120816309Y-114133690D01*
X120695357Y-114163928D01*
X120544166Y-114163928D01*
X120423214Y-114133690D01*
X120362738Y-114103452D01*
X120332500Y-114073214D01*
X120302261Y-114012738D01*
X120302261Y-113589404D02*
X120302261Y-113196309D01*
X120544166Y-113407976D01*
X120544166Y-113317261D01*
X120574404Y-113256785D01*
X120604642Y-113226547D01*
X120665119Y-113196309D01*
X120816309Y-113196309D01*
X120876785Y-113226547D01*
X120907023Y-113256785D01*
X120937261Y-113317261D01*
X120937261Y-113498690D01*
X120907023Y-113559166D01*
X120876785Y-113589404D01*
X142989404Y-108287261D02*
X142777738Y-107984880D01*
X142626547Y-108287261D02*
X142626547Y-107652261D01*
X142868452Y-107652261D01*
X142928928Y-107682500D01*
X142959166Y-107712738D01*
X142989404Y-107773214D01*
X142989404Y-107863928D01*
X142959166Y-107924404D01*
X142928928Y-107954642D01*
X142868452Y-107984880D01*
X142626547Y-107984880D01*
X143201071Y-107652261D02*
X143594166Y-107652261D01*
X143382500Y-107894166D01*
X143473214Y-107894166D01*
X143533690Y-107924404D01*
X143563928Y-107954642D01*
X143594166Y-108015119D01*
X143594166Y-108166309D01*
X143563928Y-108226785D01*
X143533690Y-108257023D01*
X143473214Y-108287261D01*
X143291785Y-108287261D01*
X143231309Y-108257023D01*
X143201071Y-108226785D01*
X143987261Y-107652261D02*
X144047738Y-107652261D01*
X144108214Y-107682500D01*
X144138452Y-107712738D01*
X144168690Y-107773214D01*
X144198928Y-107894166D01*
X144198928Y-108045357D01*
X144168690Y-108166309D01*
X144138452Y-108226785D01*
X144108214Y-108257023D01*
X144047738Y-108287261D01*
X143987261Y-108287261D01*
X143926785Y-108257023D01*
X143896547Y-108226785D01*
X143866309Y-108166309D01*
X143836071Y-108045357D01*
X143836071Y-107894166D01*
X143866309Y-107773214D01*
X143896547Y-107712738D01*
X143926785Y-107682500D01*
X143987261Y-107652261D01*
X144743214Y-107863928D02*
X144743214Y-108287261D01*
X144592023Y-107622023D02*
X144440833Y-108075595D01*
X144833928Y-108075595D01*
X147889404Y-108287261D02*
X147677738Y-107984880D01*
X147526547Y-108287261D02*
X147526547Y-107652261D01*
X147768452Y-107652261D01*
X147828928Y-107682500D01*
X147859166Y-107712738D01*
X147889404Y-107773214D01*
X147889404Y-107863928D01*
X147859166Y-107924404D01*
X147828928Y-107954642D01*
X147768452Y-107984880D01*
X147526547Y-107984880D01*
X148101071Y-107652261D02*
X148494166Y-107652261D01*
X148282500Y-107894166D01*
X148373214Y-107894166D01*
X148433690Y-107924404D01*
X148463928Y-107954642D01*
X148494166Y-108015119D01*
X148494166Y-108166309D01*
X148463928Y-108226785D01*
X148433690Y-108257023D01*
X148373214Y-108287261D01*
X148191785Y-108287261D01*
X148131309Y-108257023D01*
X148101071Y-108226785D01*
X148887261Y-107652261D02*
X148947738Y-107652261D01*
X149008214Y-107682500D01*
X149038452Y-107712738D01*
X149068690Y-107773214D01*
X149098928Y-107894166D01*
X149098928Y-108045357D01*
X149068690Y-108166309D01*
X149038452Y-108226785D01*
X149008214Y-108257023D01*
X148947738Y-108287261D01*
X148887261Y-108287261D01*
X148826785Y-108257023D01*
X148796547Y-108226785D01*
X148766309Y-108166309D01*
X148736071Y-108045357D01*
X148736071Y-107894166D01*
X148766309Y-107773214D01*
X148796547Y-107712738D01*
X148826785Y-107682500D01*
X148887261Y-107652261D01*
X149310595Y-107652261D02*
X149733928Y-107652261D01*
X149461785Y-108287261D01*
X127559404Y-123858261D02*
X127347738Y-123555880D01*
X127196547Y-123858261D02*
X127196547Y-123223261D01*
X127438452Y-123223261D01*
X127498928Y-123253500D01*
X127529166Y-123283738D01*
X127559404Y-123344214D01*
X127559404Y-123434928D01*
X127529166Y-123495404D01*
X127498928Y-123525642D01*
X127438452Y-123555880D01*
X127196547Y-123555880D01*
X128103690Y-123434928D02*
X128103690Y-123858261D01*
X127952500Y-123193023D02*
X127801309Y-123646595D01*
X128194404Y-123646595D01*
X128557261Y-123223261D02*
X128617738Y-123223261D01*
X128678214Y-123253500D01*
X128708452Y-123283738D01*
X128738690Y-123344214D01*
X128768928Y-123465166D01*
X128768928Y-123616357D01*
X128738690Y-123737309D01*
X128708452Y-123797785D01*
X128678214Y-123828023D01*
X128617738Y-123858261D01*
X128557261Y-123858261D01*
X128496785Y-123828023D01*
X128466547Y-123797785D01*
X128436309Y-123737309D01*
X128406071Y-123616357D01*
X128406071Y-123465166D01*
X128436309Y-123344214D01*
X128466547Y-123283738D01*
X128496785Y-123253500D01*
X128557261Y-123223261D01*
X129373690Y-123858261D02*
X129010833Y-123858261D01*
X129192261Y-123858261D02*
X129192261Y-123223261D01*
X129131785Y-123313976D01*
X129071309Y-123374452D01*
X129010833Y-123404690D01*
X136440571Y-102143619D02*
X136440571Y-102966095D01*
X136495000Y-103062857D01*
X136549428Y-103111238D01*
X136658285Y-103159619D01*
X136876000Y-103159619D01*
X136984857Y-103111238D01*
X137039285Y-103062857D01*
X137093714Y-102966095D01*
X137093714Y-102143619D01*
X137583571Y-102240380D02*
X137638000Y-102192000D01*
X137746857Y-102143619D01*
X138019000Y-102143619D01*
X138127857Y-102192000D01*
X138182285Y-102240380D01*
X138236714Y-102337142D01*
X138236714Y-102433904D01*
X138182285Y-102579047D01*
X137529142Y-103159619D01*
X138236714Y-103159619D01*
X138944285Y-102143619D02*
X139053142Y-102143619D01*
X139162000Y-102192000D01*
X139216428Y-102240380D01*
X139270857Y-102337142D01*
X139325285Y-102530666D01*
X139325285Y-102772571D01*
X139270857Y-102966095D01*
X139216428Y-103062857D01*
X139162000Y-103111238D01*
X139053142Y-103159619D01*
X138944285Y-103159619D01*
X138835428Y-103111238D01*
X138781000Y-103062857D01*
X138726571Y-102966095D01*
X138672142Y-102772571D01*
X138672142Y-102530666D01*
X138726571Y-102337142D01*
X138781000Y-102240380D01*
X138835428Y-102192000D01*
X138944285Y-102143619D01*
X140413857Y-103159619D02*
X139760714Y-103159619D01*
X140087285Y-103159619D02*
X140087285Y-102143619D01*
X139978428Y-102288761D01*
X139869571Y-102385523D01*
X139760714Y-102433904D01*
D12*
X126147285Y-106226428D02*
X126147285Y-107460142D01*
X126195666Y-107605285D01*
X126244047Y-107677857D01*
X126340809Y-107750428D01*
X126534333Y-107750428D01*
X126631095Y-107677857D01*
X126679476Y-107605285D01*
X126727857Y-107460142D01*
X126727857Y-106226428D01*
X127163285Y-106371571D02*
X127211666Y-106299000D01*
X127308428Y-106226428D01*
X127550333Y-106226428D01*
X127647095Y-106299000D01*
X127695476Y-106371571D01*
X127743857Y-106516714D01*
X127743857Y-106661857D01*
X127695476Y-106879571D01*
X127114904Y-107750428D01*
X127743857Y-107750428D01*
X128372809Y-106226428D02*
X128469571Y-106226428D01*
X128566333Y-106299000D01*
X128614714Y-106371571D01*
X128663095Y-106516714D01*
X128711476Y-106807000D01*
X128711476Y-107169857D01*
X128663095Y-107460142D01*
X128614714Y-107605285D01*
X128566333Y-107677857D01*
X128469571Y-107750428D01*
X128372809Y-107750428D01*
X128276047Y-107677857D01*
X128227666Y-107605285D01*
X128179285Y-107460142D01*
X128130904Y-107169857D01*
X128130904Y-106807000D01*
X128179285Y-106516714D01*
X128227666Y-106371571D01*
X128276047Y-106299000D01*
X128372809Y-106226428D01*
X129098523Y-106371571D02*
X129146904Y-106299000D01*
X129243666Y-106226428D01*
X129485571Y-106226428D01*
X129582333Y-106299000D01*
X129630714Y-106371571D01*
X129679095Y-106516714D01*
X129679095Y-106661857D01*
X129630714Y-106879571D01*
X129050142Y-107750428D01*
X129679095Y-107750428D01*
X118442619Y-103009095D02*
X119458619Y-102331761D01*
X118442619Y-102331761D02*
X119458619Y-103009095D01*
X118781285Y-101509285D02*
X119458619Y-101509285D01*
X118394238Y-101751190D02*
X119119952Y-101993095D01*
X119119952Y-101364142D01*
X118442619Y-100783571D02*
X118442619Y-100686809D01*
X118491000Y-100590047D01*
X118539380Y-100541666D01*
X118636142Y-100493285D01*
X118829666Y-100444904D01*
X119071571Y-100444904D01*
X119265095Y-100493285D01*
X119361857Y-100541666D01*
X119410238Y-100590047D01*
X119458619Y-100686809D01*
X119458619Y-100783571D01*
X119410238Y-100880333D01*
X119361857Y-100928714D01*
X119265095Y-100977095D01*
X119071571Y-101025476D01*
X118829666Y-101025476D01*
X118636142Y-100977095D01*
X118539380Y-100928714D01*
X118491000Y-100880333D01*
X118442619Y-100783571D01*
X119458619Y-99477285D02*
X119458619Y-100057857D01*
X119458619Y-99767571D02*
X118442619Y-99767571D01*
X118587761Y-99864333D01*
X118684523Y-99961095D01*
X118732904Y-100057857D01*
M02*
