%TF.GenerationSoftware,KiCad,Pcbnew,(6.0.7)*%
%TF.CreationDate,2026-02-23T19:25:28+01:00*%
%TF.ProjectId,FSZ_BP,46535a5f-4250-42e6-9b69-6361645f7063,0438 -*%
%TF.SameCoordinates,Original*%
%TF.FileFunction,Copper,L1,Top*%
%TF.FilePolarity,Positive*%
%FSLAX46Y46*%
G04 Gerber Fmt 4.6, Leading zero omitted, Abs format (unit mm)*
G04 Created by KiCad (PCBNEW (6.0.7)) date 2026-02-23 19:25:28*
%MOMM*%
%LPD*%
G01*
G04 APERTURE LIST*
%TA.AperFunction,ComponentPad*%
%ADD10C,6.400800*%
%TD*%
%TA.AperFunction,ComponentPad*%
%ADD11R,3.048000X3.048000*%
%TD*%
%TA.AperFunction,ComponentPad*%
%ADD12C,3.048000*%
%TD*%
%TA.AperFunction,ComponentPad*%
%ADD13C,2.200000*%
%TD*%
%TA.AperFunction,ComponentPad*%
%ADD14C,4.000000*%
%TD*%
%TA.AperFunction,Conductor*%
%ADD15C,1.000000*%
%TD*%
%TA.AperFunction,Conductor*%
%ADD16C,2.000000*%
%TD*%
G04 APERTURE END LIST*
D10*
%TO.P,HOLE,*%
%TO.N,*%
X48760000Y-109900000D03*
%TD*%
%TO.P,HOLE,*%
%TO.N,*%
X74160000Y-109900000D03*
%TD*%
D11*
%TO.P,P4,1,P1*%
%TO.N,/A4*%
X76700000Y-140220000D03*
D12*
%TO.P,P4,2,P2*%
%TO.N,/B4*%
X76700000Y-145218720D03*
%TO.P,P4,3,P3*%
%TO.N,/C4*%
X76700000Y-150219980D03*
%TO.P,P4,4,P4*%
%TO.N,/A5*%
X76700000Y-155218700D03*
%TO.P,P4,5,P5*%
%TO.N,/C5*%
X76700000Y-160219960D03*
%TO.P,P4,6,P6*%
%TO.N,/A6*%
X76700000Y-165218680D03*
%TO.P,P4,7,P7*%
%TO.N,/B6*%
X76700000Y-170219940D03*
%TO.P,P4,8,P8*%
%TO.N,/C6*%
X76700000Y-175218660D03*
%TO.P,P4,9,P9*%
%TO.N,/A7*%
X76700000Y-180220000D03*
%TO.P,P4,10,P10*%
%TO.N,/C7*%
X76700000Y-185220000D03*
%TD*%
D10*
%TO.P,HOLE,*%
%TO.N,*%
X74160000Y-194900000D03*
%TD*%
D11*
%TO.P,P1,1,P1*%
%TO.N,/LN*%
X76700000Y-117040640D03*
D12*
%TO.P,P1,2,P2*%
%TO.N,GND*%
X76700000Y-122039360D03*
%TO.P,P1,3,P3*%
X76700000Y-127040620D03*
%TO.P,P1,4,P4*%
%TO.N,+12V*%
X76700000Y-132039340D03*
%TD*%
D11*
%TO.P,P3,1,P1*%
%TO.N,/A8*%
X55110000Y-155982640D03*
D12*
%TO.P,P3,2,P2*%
%TO.N,/C8*%
X55110000Y-160981360D03*
%TO.P,P3,3,P3*%
%TO.N,/A9*%
X55110000Y-165982620D03*
%TO.P,P3,4,P4*%
%TO.N,/B9*%
X55110000Y-170981340D03*
%TO.P,P3,5,P5*%
%TO.N,/C9*%
X55110000Y-175982600D03*
%TO.P,P3,6,P6*%
%TO.N,/A10*%
X55110000Y-180981320D03*
%TO.P,P3,7,P7*%
%TO.N,/B10*%
X55110000Y-185982580D03*
%TO.P,P3,8,P8*%
%TO.N,/C10*%
X55110000Y-190981300D03*
%TD*%
D11*
%TO.P,P2,1,P1*%
%TO.N,/A1*%
X55110000Y-114326640D03*
D12*
%TO.P,P2,2,P2*%
%TO.N,/B1*%
X55110000Y-119325360D03*
%TO.P,P2,3,P3*%
%TO.N,/C1*%
X55110000Y-124326620D03*
%TO.P,P2,4,P4*%
%TO.N,/A2*%
X55110000Y-129325340D03*
%TO.P,P2,5,P5*%
%TO.N,/C2*%
X55110000Y-134326600D03*
%TO.P,P2,6,P6*%
%TO.N,/A3*%
X55110000Y-139325320D03*
%TO.P,P2,7,P7*%
%TO.N,/B3*%
X55110000Y-144326580D03*
%TO.P,P2,8,P8*%
%TO.N,/C3*%
X55110000Y-149325300D03*
%TD*%
D10*
%TO.P,HOLE,*%
%TO.N,*%
X48760000Y-194900000D03*
%TD*%
D13*
%TO.P,K1,1,P1*%
%TO.N,/LN*%
X61500000Y-114900000D03*
%TO.P,K1,2,P2*%
%TO.N,GND*%
X66500000Y-117400000D03*
%TO.P,K1,3,P3*%
%TO.N,+12V*%
X61500000Y-119900000D03*
%TO.P,K1,4,P4*%
%TO.N,GND*%
X66500000Y-122400000D03*
%TO.P,K1,5,P5*%
%TO.N,/A1*%
X61500000Y-124900000D03*
%TO.P,K1,6,P6*%
%TO.N,/B1*%
X66500000Y-127400000D03*
%TO.P,K1,7,P7*%
%TO.N,/C1*%
X61500000Y-129900000D03*
%TO.P,K1,8,P8*%
%TO.N,/A2*%
X66500000Y-132400000D03*
%TO.P,K1,9,P9*%
%TO.N,/C2*%
X61500000Y-134900000D03*
%TO.P,K1,10,P10*%
%TO.N,/A3*%
X66500000Y-137400000D03*
%TO.P,K1,11,P11*%
%TO.N,/B3*%
X61500000Y-139900000D03*
%TO.P,K1,12,P12*%
%TO.N,/C3*%
X66500000Y-142400000D03*
%TO.P,K1,13,P13*%
%TO.N,/A4*%
X61500000Y-144900000D03*
%TO.P,K1,14,P14*%
%TO.N,/B4*%
X66500000Y-147400000D03*
%TO.P,K1,15,P15*%
%TO.N,/C4*%
X61500000Y-149900000D03*
%TO.P,K1,16,P16*%
%TO.N,/A5*%
X66500000Y-152400000D03*
%TO.P,K1,17,P17*%
%TO.N,/C5*%
X61500000Y-154900000D03*
%TO.P,K1,18,P18*%
%TO.N,unconnected-(K1-Pad18)*%
X66500000Y-157400000D03*
%TO.P,K1,19,P19*%
%TO.N,/A6*%
X61500000Y-159900000D03*
%TO.P,K1,20,P20*%
%TO.N,/B6*%
X66500000Y-162400000D03*
%TO.P,K1,21,P21*%
%TO.N,/C6*%
X61500000Y-164900000D03*
%TO.P,K1,22,P22*%
%TO.N,/A7*%
X66500000Y-167400000D03*
%TO.P,K1,23,P23*%
%TO.N,/C7*%
X61500000Y-169900000D03*
%TO.P,K1,24,P24*%
%TO.N,/A8*%
X66500000Y-172400000D03*
%TO.P,K1,25,P25*%
%TO.N,/C8*%
X61500000Y-174900000D03*
%TO.P,K1,26,P26*%
%TO.N,/A9*%
X66500000Y-177401220D03*
%TO.P,K1,27,P27*%
%TO.N,/B9*%
X61500000Y-179900000D03*
%TO.P,K1,28,P28*%
%TO.N,/C9*%
X66500000Y-182399940D03*
%TO.P,K1,29,P29*%
%TO.N,/A10*%
X61500000Y-184900000D03*
%TO.P,K1,30,P30*%
%TO.N,/B10*%
X66500000Y-187400000D03*
%TO.P,K1,31,P31*%
%TO.N,/C10*%
X61500000Y-189900000D03*
D14*
%TO.P,K1,H1*%
%TO.N,N/C*%
X64000000Y-109900000D03*
%TO.P,K1,H2*%
X64000000Y-194900000D03*
%TD*%
D15*
%TO.N,/LN*%
X69434000Y-114900000D02*
X71574640Y-117040640D01*
X71574640Y-117040640D02*
X76700000Y-117040640D01*
X61500000Y-114900000D02*
X69434000Y-114900000D01*
%TO.N,+12V*%
X76700000Y-132039340D02*
X72349340Y-132039340D01*
X63500000Y-122936000D02*
X63500000Y-120650000D01*
X65532000Y-124968000D02*
X63500000Y-122936000D01*
X70866000Y-130556000D02*
X70866000Y-127508000D01*
X63500000Y-120650000D02*
X62750000Y-119900000D01*
X68326000Y-124968000D02*
X65532000Y-124968000D01*
X62750000Y-119900000D02*
X61500000Y-119900000D01*
X72349340Y-132039340D02*
X70866000Y-130556000D01*
X70866000Y-127508000D02*
X68326000Y-124968000D01*
D16*
%TO.N,/B1*%
X55110000Y-119325420D02*
X58420000Y-122635420D01*
X58420000Y-126170000D02*
X59650000Y-127400000D01*
X59650000Y-127400000D02*
X66500000Y-127400000D01*
X58420000Y-122635420D02*
X58420000Y-126170000D01*
%TO.N,/A4*%
X69250000Y-144900000D02*
X73930000Y-140220000D01*
X61500000Y-144900000D02*
X69250000Y-144900000D01*
X73930000Y-140220000D02*
X76700000Y-140220000D01*
%TO.N,/B4*%
X66500000Y-147400000D02*
X71400000Y-147400000D01*
X73580000Y-145220000D02*
X76700000Y-145220000D01*
X71400000Y-147400000D02*
X73580000Y-145220000D01*
%TO.N,/C4*%
X76378660Y-149900000D02*
X76700000Y-150221340D01*
X61500000Y-149900000D02*
X76378660Y-149900000D01*
%TO.N,/A5*%
X70850000Y-152400000D02*
X73670060Y-155220060D01*
X66500000Y-152400000D02*
X70850000Y-152400000D01*
X73670060Y-155220060D02*
X76700000Y-155220060D01*
%TO.N,/C5*%
X73921320Y-160221320D02*
X76700000Y-160221320D01*
X68600000Y-154900000D02*
X73921320Y-160221320D01*
X61500000Y-154900000D02*
X68600000Y-154900000D01*
%TO.N,/A6*%
X69150000Y-159900000D02*
X74470040Y-165220040D01*
X74470040Y-165220040D02*
X76700000Y-165220040D01*
X61500000Y-159900000D02*
X69150000Y-159900000D01*
%TO.N,/B6*%
X66500000Y-162400000D02*
X74321300Y-170221300D01*
X74321300Y-170221300D02*
X76700000Y-170221300D01*
%TO.N,/C6*%
X65276000Y-169926000D02*
X68176000Y-169926000D01*
X73470020Y-175220020D02*
X76700000Y-175220020D01*
X61500000Y-166150000D02*
X65276000Y-169926000D01*
X61500000Y-164900000D02*
X61500000Y-166150000D01*
X68176000Y-169926000D02*
X73470020Y-175220020D01*
%TO.N,/A9*%
X64350000Y-176110000D02*
X64350000Y-174078000D01*
X58250000Y-170384000D02*
X58250000Y-169122680D01*
X66500000Y-177401220D02*
X65641220Y-177401220D01*
X60332000Y-172466000D02*
X58250000Y-170384000D01*
X58250000Y-169122680D02*
X55110000Y-165982680D01*
X64350000Y-174078000D02*
X62738000Y-172466000D01*
X62738000Y-172466000D02*
X60332000Y-172466000D01*
X65641220Y-177401220D02*
X64350000Y-176110000D01*
%TO.N,/B9*%
X58166000Y-178308000D02*
X58166000Y-174362600D01*
X61500000Y-179900000D02*
X59758000Y-179900000D01*
X58166000Y-174362600D02*
X58133900Y-174362600D01*
X58133900Y-174362600D02*
X55110000Y-171338700D01*
X59758000Y-179900000D02*
X58166000Y-178308000D01*
X55110000Y-171338700D02*
X55110000Y-170981400D01*
%TD*%
M02*
