%TF.GenerationSoftware,KiCad,Pcbnew,(6.0.7)*%
%TF.CreationDate,2026-02-23T19:25:28+01:00*%
%TF.ProjectId,FSZ_BP,46535a5f-4250-42e6-9b69-6361645f7063,0438 -*%
%TF.SameCoordinates,Original*%
%TF.FileFunction,Legend,Bot*%
%TF.FilePolarity,Positive*%
%FSLAX46Y46*%
G04 Gerber Fmt 4.6, Leading zero omitted, Abs format (unit mm)*
G04 Created by KiCad (PCBNEW (6.0.7)) date 2026-02-23 19:25:28*
%MOMM*%
%LPD*%
G01*
G04 APERTURE LIST*
%ADD10C,0.508000*%
%ADD11C,0.304800*%
%ADD12C,0.381000*%
%ADD13C,4.000000*%
%ADD14C,6.400800*%
%ADD15R,3.048000X3.048000*%
%ADD16C,3.048000*%
%ADD17C,2.200000*%
G04 APERTURE END LIST*
D10*
X57428190Y-198700571D02*
X58274857Y-198700571D01*
X58274857Y-200031047D02*
X58274857Y-197491047D01*
X57065333Y-197491047D01*
X56218666Y-199910095D02*
X55855809Y-200031047D01*
X55251047Y-200031047D01*
X55009142Y-199910095D01*
X54888190Y-199789142D01*
X54767238Y-199547238D01*
X54767238Y-199305333D01*
X54888190Y-199063428D01*
X55009142Y-198942476D01*
X55251047Y-198821523D01*
X55734857Y-198700571D01*
X55976761Y-198579619D01*
X56097714Y-198458666D01*
X56218666Y-198216761D01*
X56218666Y-197974857D01*
X56097714Y-197732952D01*
X55976761Y-197612000D01*
X55734857Y-197491047D01*
X55130095Y-197491047D01*
X54767238Y-197612000D01*
X53920571Y-197491047D02*
X52227238Y-197491047D01*
X53920571Y-200031047D01*
X52227238Y-200031047D01*
D11*
X71695975Y-199069476D02*
X71635499Y-199009000D01*
X71514546Y-198948523D01*
X71212165Y-198948523D01*
X71091213Y-199009000D01*
X71030737Y-199069476D01*
X70970260Y-199190428D01*
X70970260Y-199311380D01*
X71030737Y-199492809D01*
X71756451Y-200218523D01*
X70970260Y-200218523D01*
X70184070Y-198948523D02*
X70063118Y-198948523D01*
X69942165Y-199009000D01*
X69881689Y-199069476D01*
X69821213Y-199190428D01*
X69760737Y-199432333D01*
X69760737Y-199734714D01*
X69821213Y-199976619D01*
X69881689Y-200097571D01*
X69942165Y-200158047D01*
X70063118Y-200218523D01*
X70184070Y-200218523D01*
X70305022Y-200158047D01*
X70365499Y-200097571D01*
X70425975Y-199976619D01*
X70486451Y-199734714D01*
X70486451Y-199432333D01*
X70425975Y-199190428D01*
X70365499Y-199069476D01*
X70305022Y-199009000D01*
X70184070Y-198948523D01*
X69276927Y-199069476D02*
X69216451Y-199009000D01*
X69095499Y-198948523D01*
X68793118Y-198948523D01*
X68672165Y-199009000D01*
X68611689Y-199069476D01*
X68551213Y-199190428D01*
X68551213Y-199311380D01*
X68611689Y-199492809D01*
X69337403Y-200218523D01*
X68551213Y-200218523D01*
X67462641Y-198948523D02*
X67704546Y-198948523D01*
X67825499Y-199009000D01*
X67885975Y-199069476D01*
X68006927Y-199250904D01*
X68067403Y-199492809D01*
X68067403Y-199976619D01*
X68006927Y-200097571D01*
X67946451Y-200158047D01*
X67825499Y-200218523D01*
X67583594Y-200218523D01*
X67462641Y-200158047D01*
X67402165Y-200097571D01*
X67341689Y-199976619D01*
X67341689Y-199674238D01*
X67402165Y-199553285D01*
X67462641Y-199492809D01*
X67583594Y-199432333D01*
X67825499Y-199432333D01*
X67946451Y-199492809D01*
X68006927Y-199553285D01*
X68067403Y-199674238D01*
X66797403Y-199734714D02*
X65829784Y-199734714D01*
X64983118Y-198948523D02*
X64862165Y-198948523D01*
X64741213Y-199009000D01*
X64680737Y-199069476D01*
X64620260Y-199190428D01*
X64559784Y-199432333D01*
X64559784Y-199734714D01*
X64620260Y-199976619D01*
X64680737Y-200097571D01*
X64741213Y-200158047D01*
X64862165Y-200218523D01*
X64983118Y-200218523D01*
X65104070Y-200158047D01*
X65164546Y-200097571D01*
X65225022Y-199976619D01*
X65285499Y-199734714D01*
X65285499Y-199432333D01*
X65225022Y-199190428D01*
X65164546Y-199069476D01*
X65104070Y-199009000D01*
X64983118Y-198948523D01*
X64075975Y-199069476D02*
X64015499Y-199009000D01*
X63894546Y-198948523D01*
X63592165Y-198948523D01*
X63471213Y-199009000D01*
X63410737Y-199069476D01*
X63350260Y-199190428D01*
X63350260Y-199311380D01*
X63410737Y-199492809D01*
X64136451Y-200218523D01*
X63350260Y-200218523D01*
X62805975Y-199734714D02*
X61838356Y-199734714D01*
X61294070Y-199069476D02*
X61233594Y-199009000D01*
X61112641Y-198948523D01*
X60810260Y-198948523D01*
X60689308Y-199009000D01*
X60628832Y-199069476D01*
X60568356Y-199190428D01*
X60568356Y-199311380D01*
X60628832Y-199492809D01*
X61354546Y-200218523D01*
X60568356Y-200218523D01*
X60084546Y-199069476D02*
X60024070Y-199009000D01*
X59903118Y-198948523D01*
X59600737Y-198948523D01*
X59479784Y-199009000D01*
X59419308Y-199069476D01*
X59358832Y-199190428D01*
X59358832Y-199311380D01*
X59419308Y-199492809D01*
X60145022Y-200218523D01*
X59358832Y-200218523D01*
%TO.C,K1*%
X58347428Y-108256977D02*
X56823428Y-108256977D01*
X58347428Y-109127834D02*
X57476571Y-108474691D01*
X56823428Y-109127834D02*
X57694285Y-108256977D01*
X58347428Y-110579262D02*
X58347428Y-109708405D01*
X58347428Y-110143834D02*
X56823428Y-110143834D01*
X57041142Y-109998691D01*
X57186285Y-109853548D01*
X57258857Y-109708405D01*
D12*
X59475000Y-107050000D02*
X69000000Y-107050000D01*
X59500000Y-112400000D02*
X69000000Y-112400000D01*
X59500000Y-192400000D02*
X69000000Y-192400000D01*
X69000000Y-197750000D02*
X59475000Y-197750000D01*
X59475000Y-107050000D02*
X59475000Y-197750000D01*
X69000000Y-107050000D02*
X69000000Y-197750000D01*
%TD*%
D13*
%TO.C,K1*%
X64000000Y-109900000D03*
X64000000Y-194900000D03*
%TD*%
%LPC*%
D14*
%TO.C,HOLE*%
X48760000Y-109900000D03*
%TD*%
%TO.C,HOLE*%
X74160000Y-109900000D03*
%TD*%
D15*
%TO.C,P4*%
X76700000Y-140220000D03*
D16*
X76700000Y-145218720D03*
X76700000Y-150219980D03*
X76700000Y-155218700D03*
X76700000Y-160219960D03*
X76700000Y-165218680D03*
X76700000Y-170219940D03*
X76700000Y-175218660D03*
X76700000Y-180220000D03*
X76700000Y-185220000D03*
%TD*%
D14*
%TO.C,HOLE*%
X74160000Y-194900000D03*
%TD*%
D15*
%TO.C,P1*%
X76700000Y-117040640D03*
D16*
X76700000Y-122039360D03*
X76700000Y-127040620D03*
X76700000Y-132039340D03*
%TD*%
D15*
%TO.C,P3*%
X55110000Y-155982640D03*
D16*
X55110000Y-160981360D03*
X55110000Y-165982620D03*
X55110000Y-170981340D03*
X55110000Y-175982600D03*
X55110000Y-180981320D03*
X55110000Y-185982580D03*
X55110000Y-190981300D03*
%TD*%
D15*
%TO.C,P2*%
X55110000Y-114326640D03*
D16*
X55110000Y-119325360D03*
X55110000Y-124326620D03*
X55110000Y-129325340D03*
X55110000Y-134326600D03*
X55110000Y-139325320D03*
X55110000Y-144326580D03*
X55110000Y-149325300D03*
%TD*%
D14*
%TO.C,HOLE*%
X48760000Y-194900000D03*
%TD*%
D17*
%TO.C,K1*%
X61500000Y-114900000D03*
X66500000Y-117400000D03*
X61500000Y-119900000D03*
X66500000Y-122400000D03*
X61500000Y-124900000D03*
X66500000Y-127400000D03*
X61500000Y-129900000D03*
X66500000Y-132400000D03*
X61500000Y-134900000D03*
X66500000Y-137400000D03*
X61500000Y-139900000D03*
X66500000Y-142400000D03*
X61500000Y-144900000D03*
X66500000Y-147400000D03*
X61500000Y-149900000D03*
X66500000Y-152400000D03*
X61500000Y-154900000D03*
X66500000Y-157400000D03*
X61500000Y-159900000D03*
X66500000Y-162400000D03*
X61500000Y-164900000D03*
X66500000Y-167400000D03*
X61500000Y-169900000D03*
X66500000Y-172400000D03*
X61500000Y-174900000D03*
X66500000Y-177401220D03*
X61500000Y-179900000D03*
X66500000Y-182399940D03*
X61500000Y-184900000D03*
X66500000Y-187400000D03*
X61500000Y-189900000D03*
D13*
X64000000Y-109900000D03*
X64000000Y-194900000D03*
%TD*%
M02*
