M48
; DRILL file {KiCad (6.0.7)} date Mon Feb 23 19:25:32 2026
; FORMAT={-:-/ absolute / metric / decimal}
; #@! TF.CreationDate,2026-02-23T19:25:32+01:00
; #@! TF.GenerationSoftware,Kicad,Pcbnew,(6.0.7)
; #@! TF.FileFunction,Plated,1,2,PTH
FMAT,2
METRIC
; #@! TA.AperFunction,Plated,PTH,ComponentDrill
T1C1.300
; #@! TA.AperFunction,Plated,PTH,ComponentDrill
T2C1.501
; #@! TA.AperFunction,Plated,PTH,ComponentDrill
T3C3.200
; #@! TA.AperFunction,Plated,PTH,ComponentDrill
T4C3.200
%
G90
G05
T1
X61.5Y-114.9
X61.5Y-119.9
X61.5Y-124.9
X61.5Y-129.9
X61.5Y-134.9
X61.5Y-139.9
X61.5Y-144.9
X61.5Y-149.9
X61.5Y-154.9
X61.5Y-159.9
X61.5Y-164.9
X61.5Y-169.9
X61.5Y-174.9
X61.5Y-179.9
X61.5Y-184.9
X61.5Y-189.9
X66.5Y-117.4
X66.5Y-122.4
X66.5Y-127.4
X66.5Y-132.4
X66.5Y-137.4
X66.5Y-142.4
X66.5Y-147.4
X66.5Y-152.4
X66.5Y-157.4
X66.5Y-162.4
X66.5Y-167.4
X66.5Y-172.4
X66.5Y-177.401
X66.5Y-182.4
X66.5Y-187.4
T2
X55.11Y-114.327
X55.11Y-119.325
X55.11Y-124.327
X55.11Y-129.325
X55.11Y-134.327
X55.11Y-139.325
X55.11Y-144.327
X55.11Y-149.325
X55.11Y-155.983
X55.11Y-160.981
X55.11Y-165.983
X55.11Y-170.981
X55.11Y-175.983
X55.11Y-180.981
X55.11Y-185.983
X55.11Y-190.981
X76.7Y-117.041
X76.7Y-122.039
X76.7Y-127.041
X76.7Y-132.039
X76.7Y-140.22
X76.7Y-145.219
X76.7Y-150.22
X76.7Y-155.219
X76.7Y-160.22
X76.7Y-165.219
X76.7Y-170.22
X76.7Y-175.219
X76.7Y-180.22
X76.7Y-185.22
T3
X64.0Y-109.9
X64.0Y-194.9
T4
X48.76Y-109.9
X48.76Y-194.9
X74.16Y-109.9
X74.16Y-194.9
T0
M30
