%TF.GenerationSoftware,KiCad,Pcbnew,(6.0.7)*%
%TF.CreationDate,2026-02-23T19:25:28+01:00*%
%TF.ProjectId,FSZ_BP,46535a5f-4250-42e6-9b69-6361645f7063,0438 -*%
%TF.SameCoordinates,Original*%
%TF.FileFunction,Legend,Top*%
%TF.FilePolarity,Positive*%
%FSLAX46Y46*%
G04 Gerber Fmt 4.6, Leading zero omitted, Abs format (unit mm)*
G04 Created by KiCad (PCBNEW (6.0.7)) date 2026-02-23 19:25:28*
%MOMM*%
%LPD*%
G01*
G04 APERTURE LIST*
%ADD10C,0.508000*%
%ADD11C,0.304800*%
%ADD12C,0.203200*%
%ADD13C,6.400800*%
%ADD14R,3.048000X3.048000*%
%ADD15C,3.048000*%
%ADD16C,2.200000*%
%ADD17C,4.000000*%
G04 APERTURE END LIST*
D10*
X53061809Y-198700571D02*
X52215142Y-198700571D01*
X52215142Y-200031047D02*
X52215142Y-197491047D01*
X53424666Y-197491047D01*
X54271333Y-199910095D02*
X54634190Y-200031047D01*
X55238952Y-200031047D01*
X55480857Y-199910095D01*
X55601809Y-199789142D01*
X55722761Y-199547238D01*
X55722761Y-199305333D01*
X55601809Y-199063428D01*
X55480857Y-198942476D01*
X55238952Y-198821523D01*
X54755142Y-198700571D01*
X54513238Y-198579619D01*
X54392285Y-198458666D01*
X54271333Y-198216761D01*
X54271333Y-197974857D01*
X54392285Y-197732952D01*
X54513238Y-197612000D01*
X54755142Y-197491047D01*
X55359904Y-197491047D01*
X55722761Y-197612000D01*
X56569428Y-197491047D02*
X58262761Y-197491047D01*
X56569428Y-200031047D01*
X58262761Y-200031047D01*
D11*
X46640024Y-116648766D02*
X47244786Y-116648766D01*
X46519072Y-117011623D02*
X46942405Y-115741623D01*
X47365739Y-117011623D01*
X48454310Y-117011623D02*
X47728596Y-117011623D01*
X48091453Y-117011623D02*
X48091453Y-115741623D01*
X47970500Y-115923052D01*
X47849548Y-116044004D01*
X47728596Y-116104480D01*
X47123834Y-120435785D02*
X47305262Y-120496261D01*
X47365739Y-120556738D01*
X47426215Y-120677690D01*
X47426215Y-120859119D01*
X47365739Y-120980071D01*
X47305262Y-121040547D01*
X47184310Y-121101023D01*
X46700500Y-121101023D01*
X46700500Y-119831023D01*
X47123834Y-119831023D01*
X47244786Y-119891500D01*
X47305262Y-119951976D01*
X47365739Y-120072928D01*
X47365739Y-120193880D01*
X47305262Y-120314833D01*
X47244786Y-120375309D01*
X47123834Y-120435785D01*
X46700500Y-120435785D01*
X48635739Y-121101023D02*
X47910024Y-121101023D01*
X48272881Y-121101023D02*
X48272881Y-119831023D01*
X48151929Y-120012452D01*
X48030977Y-120133404D01*
X47910024Y-120193880D01*
X47426215Y-125069471D02*
X47365739Y-125129947D01*
X47184310Y-125190423D01*
X47063358Y-125190423D01*
X46881929Y-125129947D01*
X46760977Y-125008995D01*
X46700500Y-124888042D01*
X46640024Y-124646138D01*
X46640024Y-124464709D01*
X46700500Y-124222804D01*
X46760977Y-124101852D01*
X46881929Y-123980900D01*
X47063358Y-123920423D01*
X47184310Y-123920423D01*
X47365739Y-123980900D01*
X47426215Y-124041376D01*
X48635739Y-125190423D02*
X47910024Y-125190423D01*
X48272881Y-125190423D02*
X48272881Y-123920423D01*
X48151929Y-124101852D01*
X48030977Y-124222804D01*
X47910024Y-124283280D01*
X46640024Y-128916966D02*
X47244786Y-128916966D01*
X46519072Y-129279823D02*
X46942405Y-128009823D01*
X47365739Y-129279823D01*
X47728596Y-128130776D02*
X47789072Y-128070300D01*
X47910024Y-128009823D01*
X48212405Y-128009823D01*
X48333358Y-128070300D01*
X48393834Y-128130776D01*
X48454310Y-128251728D01*
X48454310Y-128372680D01*
X48393834Y-128554109D01*
X47668120Y-129279823D01*
X48454310Y-129279823D01*
X47426215Y-133248271D02*
X47365739Y-133308747D01*
X47184310Y-133369223D01*
X47063358Y-133369223D01*
X46881929Y-133308747D01*
X46760977Y-133187795D01*
X46700500Y-133066842D01*
X46640024Y-132824938D01*
X46640024Y-132643509D01*
X46700500Y-132401604D01*
X46760977Y-132280652D01*
X46881929Y-132159700D01*
X47063358Y-132099223D01*
X47184310Y-132099223D01*
X47365739Y-132159700D01*
X47426215Y-132220176D01*
X47910024Y-132220176D02*
X47970500Y-132159700D01*
X48091453Y-132099223D01*
X48393834Y-132099223D01*
X48514786Y-132159700D01*
X48575262Y-132220176D01*
X48635739Y-132341128D01*
X48635739Y-132462080D01*
X48575262Y-132643509D01*
X47849548Y-133369223D01*
X48635739Y-133369223D01*
X46640024Y-137095766D02*
X47244786Y-137095766D01*
X46519072Y-137458623D02*
X46942405Y-136188623D01*
X47365739Y-137458623D01*
X47668120Y-136188623D02*
X48454310Y-136188623D01*
X48030977Y-136672433D01*
X48212405Y-136672433D01*
X48333358Y-136732909D01*
X48393834Y-136793385D01*
X48454310Y-136914338D01*
X48454310Y-137216719D01*
X48393834Y-137337671D01*
X48333358Y-137398147D01*
X48212405Y-137458623D01*
X47849548Y-137458623D01*
X47728596Y-137398147D01*
X47668120Y-137337671D01*
X47123834Y-140882785D02*
X47305262Y-140943261D01*
X47365739Y-141003738D01*
X47426215Y-141124690D01*
X47426215Y-141306119D01*
X47365739Y-141427071D01*
X47305262Y-141487547D01*
X47184310Y-141548023D01*
X46700500Y-141548023D01*
X46700500Y-140278023D01*
X47123834Y-140278023D01*
X47244786Y-140338500D01*
X47305262Y-140398976D01*
X47365739Y-140519928D01*
X47365739Y-140640880D01*
X47305262Y-140761833D01*
X47244786Y-140822309D01*
X47123834Y-140882785D01*
X46700500Y-140882785D01*
X47849548Y-140278023D02*
X48635739Y-140278023D01*
X48212405Y-140761833D01*
X48393834Y-140761833D01*
X48514786Y-140822309D01*
X48575262Y-140882785D01*
X48635739Y-141003738D01*
X48635739Y-141306119D01*
X48575262Y-141427071D01*
X48514786Y-141487547D01*
X48393834Y-141548023D01*
X48030977Y-141548023D01*
X47910024Y-141487547D01*
X47849548Y-141427071D01*
X47426215Y-145516471D02*
X47365739Y-145576947D01*
X47184310Y-145637423D01*
X47063358Y-145637423D01*
X46881929Y-145576947D01*
X46760977Y-145455995D01*
X46700500Y-145335042D01*
X46640024Y-145093138D01*
X46640024Y-144911709D01*
X46700500Y-144669804D01*
X46760977Y-144548852D01*
X46881929Y-144427900D01*
X47063358Y-144367423D01*
X47184310Y-144367423D01*
X47365739Y-144427900D01*
X47426215Y-144488376D01*
X47849548Y-144367423D02*
X48635739Y-144367423D01*
X48212405Y-144851233D01*
X48393834Y-144851233D01*
X48514786Y-144911709D01*
X48575262Y-144972185D01*
X48635739Y-145093138D01*
X48635739Y-145395519D01*
X48575262Y-145516471D01*
X48514786Y-145576947D01*
X48393834Y-145637423D01*
X48030977Y-145637423D01*
X47910024Y-145576947D01*
X47849548Y-145516471D01*
X59622024Y-199069476D02*
X59682500Y-199009000D01*
X59803453Y-198948523D01*
X60105834Y-198948523D01*
X60226786Y-199009000D01*
X60287262Y-199069476D01*
X60347739Y-199190428D01*
X60347739Y-199311380D01*
X60287262Y-199492809D01*
X59561548Y-200218523D01*
X60347739Y-200218523D01*
X61133929Y-198948523D02*
X61254881Y-198948523D01*
X61375834Y-199009000D01*
X61436310Y-199069476D01*
X61496786Y-199190428D01*
X61557262Y-199432333D01*
X61557262Y-199734714D01*
X61496786Y-199976619D01*
X61436310Y-200097571D01*
X61375834Y-200158047D01*
X61254881Y-200218523D01*
X61133929Y-200218523D01*
X61012977Y-200158047D01*
X60952500Y-200097571D01*
X60892024Y-199976619D01*
X60831548Y-199734714D01*
X60831548Y-199432333D01*
X60892024Y-199190428D01*
X60952500Y-199069476D01*
X61012977Y-199009000D01*
X61133929Y-198948523D01*
X62041072Y-199069476D02*
X62101548Y-199009000D01*
X62222500Y-198948523D01*
X62524881Y-198948523D01*
X62645834Y-199009000D01*
X62706310Y-199069476D01*
X62766786Y-199190428D01*
X62766786Y-199311380D01*
X62706310Y-199492809D01*
X61980596Y-200218523D01*
X62766786Y-200218523D01*
X63855358Y-198948523D02*
X63613453Y-198948523D01*
X63492500Y-199009000D01*
X63432024Y-199069476D01*
X63311072Y-199250904D01*
X63250596Y-199492809D01*
X63250596Y-199976619D01*
X63311072Y-200097571D01*
X63371548Y-200158047D01*
X63492500Y-200218523D01*
X63734405Y-200218523D01*
X63855358Y-200158047D01*
X63915834Y-200097571D01*
X63976310Y-199976619D01*
X63976310Y-199674238D01*
X63915834Y-199553285D01*
X63855358Y-199492809D01*
X63734405Y-199432333D01*
X63492500Y-199432333D01*
X63371548Y-199492809D01*
X63311072Y-199553285D01*
X63250596Y-199674238D01*
X64520596Y-199734714D02*
X65488215Y-199734714D01*
X66334881Y-198948523D02*
X66455834Y-198948523D01*
X66576786Y-199009000D01*
X66637262Y-199069476D01*
X66697739Y-199190428D01*
X66758215Y-199432333D01*
X66758215Y-199734714D01*
X66697739Y-199976619D01*
X66637262Y-200097571D01*
X66576786Y-200158047D01*
X66455834Y-200218523D01*
X66334881Y-200218523D01*
X66213929Y-200158047D01*
X66153453Y-200097571D01*
X66092977Y-199976619D01*
X66032500Y-199734714D01*
X66032500Y-199432333D01*
X66092977Y-199190428D01*
X66153453Y-199069476D01*
X66213929Y-199009000D01*
X66334881Y-198948523D01*
X67242024Y-199069476D02*
X67302500Y-199009000D01*
X67423453Y-198948523D01*
X67725834Y-198948523D01*
X67846786Y-199009000D01*
X67907262Y-199069476D01*
X67967739Y-199190428D01*
X67967739Y-199311380D01*
X67907262Y-199492809D01*
X67181548Y-200218523D01*
X67967739Y-200218523D01*
X68512024Y-199734714D02*
X69479643Y-199734714D01*
X70023929Y-199069476D02*
X70084405Y-199009000D01*
X70205358Y-198948523D01*
X70507739Y-198948523D01*
X70628691Y-199009000D01*
X70689167Y-199069476D01*
X70749643Y-199190428D01*
X70749643Y-199311380D01*
X70689167Y-199492809D01*
X69963453Y-200218523D01*
X70749643Y-200218523D01*
X71233453Y-199069476D02*
X71293929Y-199009000D01*
X71414881Y-198948523D01*
X71717262Y-198948523D01*
X71838215Y-199009000D01*
X71898691Y-199069476D01*
X71959167Y-199190428D01*
X71959167Y-199311380D01*
X71898691Y-199492809D01*
X71172977Y-200218523D01*
X71959167Y-200218523D01*
X69390024Y-144559366D02*
X69994786Y-144559366D01*
X69269072Y-144922223D02*
X69692405Y-143652223D01*
X70115739Y-144922223D01*
X71083358Y-144075557D02*
X71083358Y-144922223D01*
X70780977Y-143591747D02*
X70478596Y-144498890D01*
X71264786Y-144498890D01*
X69873834Y-148346385D02*
X70055262Y-148406861D01*
X70115739Y-148467338D01*
X70176215Y-148588290D01*
X70176215Y-148769719D01*
X70115739Y-148890671D01*
X70055262Y-148951147D01*
X69934310Y-149011623D01*
X69450500Y-149011623D01*
X69450500Y-147741623D01*
X69873834Y-147741623D01*
X69994786Y-147802100D01*
X70055262Y-147862576D01*
X70115739Y-147983528D01*
X70115739Y-148104480D01*
X70055262Y-148225433D01*
X69994786Y-148285909D01*
X69873834Y-148346385D01*
X69450500Y-148346385D01*
X71264786Y-148164957D02*
X71264786Y-149011623D01*
X70962405Y-147681147D02*
X70660024Y-148588290D01*
X71446215Y-148588290D01*
X70176215Y-152980071D02*
X70115739Y-153040547D01*
X69934310Y-153101023D01*
X69813358Y-153101023D01*
X69631929Y-153040547D01*
X69510977Y-152919595D01*
X69450500Y-152798642D01*
X69390024Y-152556738D01*
X69390024Y-152375309D01*
X69450500Y-152133404D01*
X69510977Y-152012452D01*
X69631929Y-151891500D01*
X69813358Y-151831023D01*
X69934310Y-151831023D01*
X70115739Y-151891500D01*
X70176215Y-151951976D01*
X71264786Y-152254357D02*
X71264786Y-153101023D01*
X70962405Y-151770547D02*
X70660024Y-152677690D01*
X71446215Y-152677690D01*
X69390024Y-156827566D02*
X69994786Y-156827566D01*
X69269072Y-157190423D02*
X69692405Y-155920423D01*
X70115739Y-157190423D01*
X71143834Y-155920423D02*
X70539072Y-155920423D01*
X70478596Y-156525185D01*
X70539072Y-156464709D01*
X70660024Y-156404233D01*
X70962405Y-156404233D01*
X71083358Y-156464709D01*
X71143834Y-156525185D01*
X71204310Y-156646138D01*
X71204310Y-156948519D01*
X71143834Y-157069471D01*
X71083358Y-157129947D01*
X70962405Y-157190423D01*
X70660024Y-157190423D01*
X70539072Y-157129947D01*
X70478596Y-157069471D01*
X70176215Y-161158871D02*
X70115739Y-161219347D01*
X69934310Y-161279823D01*
X69813358Y-161279823D01*
X69631929Y-161219347D01*
X69510977Y-161098395D01*
X69450500Y-160977442D01*
X69390024Y-160735538D01*
X69390024Y-160554109D01*
X69450500Y-160312204D01*
X69510977Y-160191252D01*
X69631929Y-160070300D01*
X69813358Y-160009823D01*
X69934310Y-160009823D01*
X70115739Y-160070300D01*
X70176215Y-160130776D01*
X71325262Y-160009823D02*
X70720500Y-160009823D01*
X70660024Y-160614585D01*
X70720500Y-160554109D01*
X70841453Y-160493633D01*
X71143834Y-160493633D01*
X71264786Y-160554109D01*
X71325262Y-160614585D01*
X71385739Y-160735538D01*
X71385739Y-161037919D01*
X71325262Y-161158871D01*
X71264786Y-161219347D01*
X71143834Y-161279823D01*
X70841453Y-161279823D01*
X70720500Y-161219347D01*
X70660024Y-161158871D01*
X69390024Y-165006366D02*
X69994786Y-165006366D01*
X69269072Y-165369223D02*
X69692405Y-164099223D01*
X70115739Y-165369223D01*
X71083358Y-164099223D02*
X70841453Y-164099223D01*
X70720500Y-164159700D01*
X70660024Y-164220176D01*
X70539072Y-164401604D01*
X70478596Y-164643509D01*
X70478596Y-165127319D01*
X70539072Y-165248271D01*
X70599548Y-165308747D01*
X70720500Y-165369223D01*
X70962405Y-165369223D01*
X71083358Y-165308747D01*
X71143834Y-165248271D01*
X71204310Y-165127319D01*
X71204310Y-164824938D01*
X71143834Y-164703985D01*
X71083358Y-164643509D01*
X70962405Y-164583033D01*
X70720500Y-164583033D01*
X70599548Y-164643509D01*
X70539072Y-164703985D01*
X70478596Y-164824938D01*
X69873834Y-168793385D02*
X70055262Y-168853861D01*
X70115739Y-168914338D01*
X70176215Y-169035290D01*
X70176215Y-169216719D01*
X70115739Y-169337671D01*
X70055262Y-169398147D01*
X69934310Y-169458623D01*
X69450500Y-169458623D01*
X69450500Y-168188623D01*
X69873834Y-168188623D01*
X69994786Y-168249100D01*
X70055262Y-168309576D01*
X70115739Y-168430528D01*
X70115739Y-168551480D01*
X70055262Y-168672433D01*
X69994786Y-168732909D01*
X69873834Y-168793385D01*
X69450500Y-168793385D01*
X71264786Y-168188623D02*
X71022881Y-168188623D01*
X70901929Y-168249100D01*
X70841453Y-168309576D01*
X70720500Y-168491004D01*
X70660024Y-168732909D01*
X70660024Y-169216719D01*
X70720500Y-169337671D01*
X70780977Y-169398147D01*
X70901929Y-169458623D01*
X71143834Y-169458623D01*
X71264786Y-169398147D01*
X71325262Y-169337671D01*
X71385739Y-169216719D01*
X71385739Y-168914338D01*
X71325262Y-168793385D01*
X71264786Y-168732909D01*
X71143834Y-168672433D01*
X70901929Y-168672433D01*
X70780977Y-168732909D01*
X70720500Y-168793385D01*
X70660024Y-168914338D01*
X70176215Y-173427071D02*
X70115739Y-173487547D01*
X69934310Y-173548023D01*
X69813358Y-173548023D01*
X69631929Y-173487547D01*
X69510977Y-173366595D01*
X69450500Y-173245642D01*
X69390024Y-173003738D01*
X69390024Y-172822309D01*
X69450500Y-172580404D01*
X69510977Y-172459452D01*
X69631929Y-172338500D01*
X69813358Y-172278023D01*
X69934310Y-172278023D01*
X70115739Y-172338500D01*
X70176215Y-172398976D01*
X71264786Y-172278023D02*
X71022881Y-172278023D01*
X70901929Y-172338500D01*
X70841453Y-172398976D01*
X70720500Y-172580404D01*
X70660024Y-172822309D01*
X70660024Y-173306119D01*
X70720500Y-173427071D01*
X70780977Y-173487547D01*
X70901929Y-173548023D01*
X71143834Y-173548023D01*
X71264786Y-173487547D01*
X71325262Y-173427071D01*
X71385739Y-173306119D01*
X71385739Y-173003738D01*
X71325262Y-172882785D01*
X71264786Y-172822309D01*
X71143834Y-172761833D01*
X70901929Y-172761833D01*
X70780977Y-172822309D01*
X70720500Y-172882785D01*
X70660024Y-173003738D01*
X69390024Y-177274566D02*
X69994786Y-177274566D01*
X69269072Y-177637423D02*
X69692405Y-176367423D01*
X70115739Y-177637423D01*
X70418120Y-176367423D02*
X71264786Y-176367423D01*
X70720500Y-177637423D01*
X70176215Y-181605871D02*
X70115739Y-181666347D01*
X69934310Y-181726823D01*
X69813358Y-181726823D01*
X69631929Y-181666347D01*
X69510977Y-181545395D01*
X69450500Y-181424442D01*
X69390024Y-181182538D01*
X69390024Y-181001109D01*
X69450500Y-180759204D01*
X69510977Y-180638252D01*
X69631929Y-180517300D01*
X69813358Y-180456823D01*
X69934310Y-180456823D01*
X70115739Y-180517300D01*
X70176215Y-180577776D01*
X70599548Y-180456823D02*
X71446215Y-180456823D01*
X70901929Y-181726823D01*
X46640024Y-157798766D02*
X47244786Y-157798766D01*
X46519072Y-158161623D02*
X46942405Y-156891623D01*
X47365739Y-158161623D01*
X47970500Y-157435909D02*
X47849548Y-157375433D01*
X47789072Y-157314957D01*
X47728596Y-157194004D01*
X47728596Y-157133528D01*
X47789072Y-157012576D01*
X47849548Y-156952100D01*
X47970500Y-156891623D01*
X48212405Y-156891623D01*
X48333358Y-156952100D01*
X48393834Y-157012576D01*
X48454310Y-157133528D01*
X48454310Y-157194004D01*
X48393834Y-157314957D01*
X48333358Y-157375433D01*
X48212405Y-157435909D01*
X47970500Y-157435909D01*
X47849548Y-157496385D01*
X47789072Y-157556861D01*
X47728596Y-157677814D01*
X47728596Y-157919719D01*
X47789072Y-158040671D01*
X47849548Y-158101147D01*
X47970500Y-158161623D01*
X48212405Y-158161623D01*
X48333358Y-158101147D01*
X48393834Y-158040671D01*
X48454310Y-157919719D01*
X48454310Y-157677814D01*
X48393834Y-157556861D01*
X48333358Y-157496385D01*
X48212405Y-157435909D01*
X47426215Y-162130071D02*
X47365739Y-162190547D01*
X47184310Y-162251023D01*
X47063358Y-162251023D01*
X46881929Y-162190547D01*
X46760977Y-162069595D01*
X46700500Y-161948642D01*
X46640024Y-161706738D01*
X46640024Y-161525309D01*
X46700500Y-161283404D01*
X46760977Y-161162452D01*
X46881929Y-161041500D01*
X47063358Y-160981023D01*
X47184310Y-160981023D01*
X47365739Y-161041500D01*
X47426215Y-161101976D01*
X48151929Y-161525309D02*
X48030977Y-161464833D01*
X47970500Y-161404357D01*
X47910024Y-161283404D01*
X47910024Y-161222928D01*
X47970500Y-161101976D01*
X48030977Y-161041500D01*
X48151929Y-160981023D01*
X48393834Y-160981023D01*
X48514786Y-161041500D01*
X48575262Y-161101976D01*
X48635739Y-161222928D01*
X48635739Y-161283404D01*
X48575262Y-161404357D01*
X48514786Y-161464833D01*
X48393834Y-161525309D01*
X48151929Y-161525309D01*
X48030977Y-161585785D01*
X47970500Y-161646261D01*
X47910024Y-161767214D01*
X47910024Y-162009119D01*
X47970500Y-162130071D01*
X48030977Y-162190547D01*
X48151929Y-162251023D01*
X48393834Y-162251023D01*
X48514786Y-162190547D01*
X48575262Y-162130071D01*
X48635739Y-162009119D01*
X48635739Y-161767214D01*
X48575262Y-161646261D01*
X48514786Y-161585785D01*
X48393834Y-161525309D01*
X46640024Y-165977566D02*
X47244786Y-165977566D01*
X46519072Y-166340423D02*
X46942405Y-165070423D01*
X47365739Y-166340423D01*
X47849548Y-166340423D02*
X48091453Y-166340423D01*
X48212405Y-166279947D01*
X48272881Y-166219471D01*
X48393834Y-166038042D01*
X48454310Y-165796138D01*
X48454310Y-165312328D01*
X48393834Y-165191376D01*
X48333358Y-165130900D01*
X48212405Y-165070423D01*
X47970500Y-165070423D01*
X47849548Y-165130900D01*
X47789072Y-165191376D01*
X47728596Y-165312328D01*
X47728596Y-165614709D01*
X47789072Y-165735661D01*
X47849548Y-165796138D01*
X47970500Y-165856614D01*
X48212405Y-165856614D01*
X48333358Y-165796138D01*
X48393834Y-165735661D01*
X48454310Y-165614709D01*
X47123834Y-169764585D02*
X47305262Y-169825061D01*
X47365739Y-169885538D01*
X47426215Y-170006490D01*
X47426215Y-170187919D01*
X47365739Y-170308871D01*
X47305262Y-170369347D01*
X47184310Y-170429823D01*
X46700500Y-170429823D01*
X46700500Y-169159823D01*
X47123834Y-169159823D01*
X47244786Y-169220300D01*
X47305262Y-169280776D01*
X47365739Y-169401728D01*
X47365739Y-169522680D01*
X47305262Y-169643633D01*
X47244786Y-169704109D01*
X47123834Y-169764585D01*
X46700500Y-169764585D01*
X48030977Y-170429823D02*
X48272881Y-170429823D01*
X48393834Y-170369347D01*
X48454310Y-170308871D01*
X48575262Y-170127442D01*
X48635739Y-169885538D01*
X48635739Y-169401728D01*
X48575262Y-169280776D01*
X48514786Y-169220300D01*
X48393834Y-169159823D01*
X48151929Y-169159823D01*
X48030977Y-169220300D01*
X47970500Y-169280776D01*
X47910024Y-169401728D01*
X47910024Y-169704109D01*
X47970500Y-169825061D01*
X48030977Y-169885538D01*
X48151929Y-169946014D01*
X48393834Y-169946014D01*
X48514786Y-169885538D01*
X48575262Y-169825061D01*
X48635739Y-169704109D01*
X47426215Y-174398271D02*
X47365739Y-174458747D01*
X47184310Y-174519223D01*
X47063358Y-174519223D01*
X46881929Y-174458747D01*
X46760977Y-174337795D01*
X46700500Y-174216842D01*
X46640024Y-173974938D01*
X46640024Y-173793509D01*
X46700500Y-173551604D01*
X46760977Y-173430652D01*
X46881929Y-173309700D01*
X47063358Y-173249223D01*
X47184310Y-173249223D01*
X47365739Y-173309700D01*
X47426215Y-173370176D01*
X48030977Y-174519223D02*
X48272881Y-174519223D01*
X48393834Y-174458747D01*
X48454310Y-174398271D01*
X48575262Y-174216842D01*
X48635739Y-173974938D01*
X48635739Y-173491128D01*
X48575262Y-173370176D01*
X48514786Y-173309700D01*
X48393834Y-173249223D01*
X48151929Y-173249223D01*
X48030977Y-173309700D01*
X47970500Y-173370176D01*
X47910024Y-173491128D01*
X47910024Y-173793509D01*
X47970500Y-173914461D01*
X48030977Y-173974938D01*
X48151929Y-174035414D01*
X48393834Y-174035414D01*
X48514786Y-173974938D01*
X48575262Y-173914461D01*
X48635739Y-173793509D01*
X46640024Y-178245766D02*
X47244786Y-178245766D01*
X46519072Y-178608623D02*
X46942405Y-177338623D01*
X47365739Y-178608623D01*
X48454310Y-178608623D02*
X47728596Y-178608623D01*
X48091453Y-178608623D02*
X48091453Y-177338623D01*
X47970500Y-177520052D01*
X47849548Y-177641004D01*
X47728596Y-177701480D01*
X49240500Y-177338623D02*
X49361453Y-177338623D01*
X49482405Y-177399100D01*
X49542881Y-177459576D01*
X49603358Y-177580528D01*
X49663834Y-177822433D01*
X49663834Y-178124814D01*
X49603358Y-178366719D01*
X49542881Y-178487671D01*
X49482405Y-178548147D01*
X49361453Y-178608623D01*
X49240500Y-178608623D01*
X49119548Y-178548147D01*
X49059072Y-178487671D01*
X48998596Y-178366719D01*
X48938120Y-178124814D01*
X48938120Y-177822433D01*
X48998596Y-177580528D01*
X49059072Y-177459576D01*
X49119548Y-177399100D01*
X49240500Y-177338623D01*
X47123834Y-182032785D02*
X47305262Y-182093261D01*
X47365739Y-182153738D01*
X47426215Y-182274690D01*
X47426215Y-182456119D01*
X47365739Y-182577071D01*
X47305262Y-182637547D01*
X47184310Y-182698023D01*
X46700500Y-182698023D01*
X46700500Y-181428023D01*
X47123834Y-181428023D01*
X47244786Y-181488500D01*
X47305262Y-181548976D01*
X47365739Y-181669928D01*
X47365739Y-181790880D01*
X47305262Y-181911833D01*
X47244786Y-181972309D01*
X47123834Y-182032785D01*
X46700500Y-182032785D01*
X48635739Y-182698023D02*
X47910024Y-182698023D01*
X48272881Y-182698023D02*
X48272881Y-181428023D01*
X48151929Y-181609452D01*
X48030977Y-181730404D01*
X47910024Y-181790880D01*
X49421929Y-181428023D02*
X49542881Y-181428023D01*
X49663834Y-181488500D01*
X49724310Y-181548976D01*
X49784786Y-181669928D01*
X49845262Y-181911833D01*
X49845262Y-182214214D01*
X49784786Y-182456119D01*
X49724310Y-182577071D01*
X49663834Y-182637547D01*
X49542881Y-182698023D01*
X49421929Y-182698023D01*
X49300977Y-182637547D01*
X49240500Y-182577071D01*
X49180024Y-182456119D01*
X49119548Y-182214214D01*
X49119548Y-181911833D01*
X49180024Y-181669928D01*
X49240500Y-181548976D01*
X49300977Y-181488500D01*
X49421929Y-181428023D01*
X47426215Y-186666471D02*
X47365739Y-186726947D01*
X47184310Y-186787423D01*
X47063358Y-186787423D01*
X46881929Y-186726947D01*
X46760977Y-186605995D01*
X46700500Y-186485042D01*
X46640024Y-186243138D01*
X46640024Y-186061709D01*
X46700500Y-185819804D01*
X46760977Y-185698852D01*
X46881929Y-185577900D01*
X47063358Y-185517423D01*
X47184310Y-185517423D01*
X47365739Y-185577900D01*
X47426215Y-185638376D01*
X48635739Y-186787423D02*
X47910024Y-186787423D01*
X48272881Y-186787423D02*
X48272881Y-185517423D01*
X48151929Y-185698852D01*
X48030977Y-185819804D01*
X47910024Y-185880280D01*
X49421929Y-185517423D02*
X49542881Y-185517423D01*
X49663834Y-185577900D01*
X49724310Y-185638376D01*
X49784786Y-185759328D01*
X49845262Y-186001233D01*
X49845262Y-186303614D01*
X49784786Y-186545519D01*
X49724310Y-186666471D01*
X49663834Y-186726947D01*
X49542881Y-186787423D01*
X49421929Y-186787423D01*
X49300977Y-186726947D01*
X49240500Y-186666471D01*
X49180024Y-186545519D01*
X49119548Y-186303614D01*
X49119548Y-186001233D01*
X49180024Y-185759328D01*
X49240500Y-185638376D01*
X49300977Y-185577900D01*
X49421929Y-185517423D01*
X70055262Y-119408423D02*
X69450500Y-119408423D01*
X69450500Y-118138423D01*
X70478596Y-119408423D02*
X70478596Y-118138423D01*
X71204310Y-119408423D01*
X71204310Y-118138423D01*
X69692405Y-122227823D02*
X69813358Y-122227823D01*
X69934310Y-122288300D01*
X69994786Y-122348776D01*
X70055262Y-122469728D01*
X70115739Y-122711633D01*
X70115739Y-123014014D01*
X70055262Y-123255919D01*
X69994786Y-123376871D01*
X69934310Y-123437347D01*
X69813358Y-123497823D01*
X69692405Y-123497823D01*
X69571453Y-123437347D01*
X69510977Y-123376871D01*
X69450500Y-123255919D01*
X69390024Y-123014014D01*
X69390024Y-122711633D01*
X69450500Y-122469728D01*
X69510977Y-122348776D01*
X69571453Y-122288300D01*
X69692405Y-122227823D01*
X71446215Y-122227823D02*
X71869548Y-123497823D01*
X72292881Y-122227823D01*
X69692405Y-126317223D02*
X69813358Y-126317223D01*
X69934310Y-126377700D01*
X69994786Y-126438176D01*
X70055262Y-126559128D01*
X70115739Y-126801033D01*
X70115739Y-127103414D01*
X70055262Y-127345319D01*
X69994786Y-127466271D01*
X69934310Y-127526747D01*
X69813358Y-127587223D01*
X69692405Y-127587223D01*
X69571453Y-127526747D01*
X69510977Y-127466271D01*
X69450500Y-127345319D01*
X69390024Y-127103414D01*
X69390024Y-126801033D01*
X69450500Y-126559128D01*
X69510977Y-126438176D01*
X69571453Y-126377700D01*
X69692405Y-126317223D01*
X71446215Y-126317223D02*
X71869548Y-127587223D01*
X72292881Y-126317223D01*
X70115739Y-131676623D02*
X69390024Y-131676623D01*
X69752881Y-131676623D02*
X69752881Y-130406623D01*
X69631929Y-130588052D01*
X69510977Y-130709004D01*
X69390024Y-130769480D01*
X70599548Y-130527576D02*
X70660024Y-130467100D01*
X70780977Y-130406623D01*
X71083358Y-130406623D01*
X71204310Y-130467100D01*
X71264786Y-130527576D01*
X71325262Y-130648528D01*
X71325262Y-130769480D01*
X71264786Y-130950909D01*
X70539072Y-131676623D01*
X71325262Y-131676623D01*
X71688120Y-130406623D02*
X72111453Y-131676623D01*
X72534786Y-130406623D01*
%TO.C,P4*%
X69902977Y-138865428D02*
X69902977Y-137341428D01*
X70483548Y-137341428D01*
X70628691Y-137414000D01*
X70701262Y-137486571D01*
X70773834Y-137631714D01*
X70773834Y-137849428D01*
X70701262Y-137994571D01*
X70628691Y-138067142D01*
X70483548Y-138139714D01*
X69902977Y-138139714D01*
X72080120Y-137849428D02*
X72080120Y-138865428D01*
X71717262Y-137268857D02*
X71354405Y-138357428D01*
X72297834Y-138357428D01*
%TO.C,P1*%
X77961308Y-113465428D02*
X77961308Y-111941428D01*
X78541880Y-111941428D01*
X78687022Y-112014000D01*
X78759594Y-112086571D01*
X78832165Y-112231714D01*
X78832165Y-112449428D01*
X78759594Y-112594571D01*
X78687022Y-112667142D01*
X78541880Y-112739714D01*
X77961308Y-112739714D01*
X80283594Y-113465428D02*
X79412737Y-113465428D01*
X79848165Y-113465428D02*
X79848165Y-111941428D01*
X79703022Y-112159142D01*
X79557880Y-112304285D01*
X79412737Y-112376857D01*
%TO.C,P3*%
X48312977Y-154613428D02*
X48312977Y-153089428D01*
X48893548Y-153089428D01*
X49038691Y-153162000D01*
X49111262Y-153234571D01*
X49183834Y-153379714D01*
X49183834Y-153597428D01*
X49111262Y-153742571D01*
X49038691Y-153815142D01*
X48893548Y-153887714D01*
X48312977Y-153887714D01*
X49691834Y-153089428D02*
X50635262Y-153089428D01*
X50127262Y-153670000D01*
X50344977Y-153670000D01*
X50490120Y-153742571D01*
X50562691Y-153815142D01*
X50635262Y-153960285D01*
X50635262Y-154323142D01*
X50562691Y-154468285D01*
X50490120Y-154540857D01*
X50344977Y-154613428D01*
X49909548Y-154613428D01*
X49764405Y-154540857D01*
X49691834Y-154468285D01*
%TO.C,P2*%
X56440977Y-110671428D02*
X56440977Y-109147428D01*
X57021548Y-109147428D01*
X57166691Y-109220000D01*
X57239262Y-109292571D01*
X57311834Y-109437714D01*
X57311834Y-109655428D01*
X57239262Y-109800571D01*
X57166691Y-109873142D01*
X57021548Y-109945714D01*
X56440977Y-109945714D01*
X57892405Y-109292571D02*
X57964977Y-109220000D01*
X58110120Y-109147428D01*
X58472977Y-109147428D01*
X58618120Y-109220000D01*
X58690691Y-109292571D01*
X58763262Y-109437714D01*
X58763262Y-109582857D01*
X58690691Y-109800571D01*
X57819834Y-110671428D01*
X58763262Y-110671428D01*
D12*
%TO.C,HOLE*%
X52062000Y-109900000D02*
G75*
G03*
X52062000Y-109900000I-3302000J0D01*
G01*
X50462558Y-109900000D02*
G75*
G03*
X50462558Y-109900000I-1702558J0D01*
G01*
X75862558Y-109900000D02*
G75*
G03*
X75862558Y-109900000I-1702558J0D01*
G01*
X77462000Y-109900000D02*
G75*
G03*
X77462000Y-109900000I-3302000J0D01*
G01*
D11*
%TO.C,P4*%
X72699500Y-137119300D02*
X72700000Y-188320640D01*
X80500000Y-188320640D02*
X72700000Y-188320640D01*
X80500000Y-137119300D02*
X80500000Y-188320640D01*
X80500000Y-137119300D02*
X72700000Y-137119300D01*
D12*
%TO.C,HOLE*%
X77462000Y-194900000D02*
G75*
G03*
X77462000Y-194900000I-3302000J0D01*
G01*
X75862558Y-194900000D02*
G75*
G03*
X75862558Y-194900000I-1702558J0D01*
G01*
D11*
%TO.C,P1*%
X72900000Y-113939300D02*
X72900000Y-135140680D01*
X80500000Y-113939300D02*
X72900000Y-113939300D01*
X80500000Y-135140680D02*
X72900000Y-135140680D01*
X80500000Y-113939300D02*
X80500000Y-135140680D01*
%TO.C,P3*%
X58910000Y-152881300D02*
X51110000Y-152881300D01*
X58910000Y-194082640D02*
X51110000Y-194082640D01*
X51109500Y-152881300D02*
X51110000Y-194082640D01*
X58910000Y-152881300D02*
X58910000Y-194082640D01*
%TO.C,P2*%
X58910000Y-111225300D02*
X51110000Y-111225300D01*
X58910000Y-152426640D02*
X51110000Y-152426640D01*
X51109500Y-111225300D02*
X51110000Y-152426640D01*
X58910000Y-111225300D02*
X58910000Y-152426640D01*
D12*
%TO.C,HOLE*%
X50462558Y-194900000D02*
G75*
G03*
X50462558Y-194900000I-1702558J0D01*
G01*
X52062000Y-194900000D02*
G75*
G03*
X52062000Y-194900000I-3302000J0D01*
G01*
%TD*%
%LPC*%
D13*
%TO.C,HOLE*%
X48760000Y-109900000D03*
%TD*%
%TO.C,HOLE*%
X74160000Y-109900000D03*
%TD*%
D14*
%TO.C,P4*%
X76700000Y-140220000D03*
D15*
X76700000Y-145218720D03*
X76700000Y-150219980D03*
X76700000Y-155218700D03*
X76700000Y-160219960D03*
X76700000Y-165218680D03*
X76700000Y-170219940D03*
X76700000Y-175218660D03*
X76700000Y-180220000D03*
X76700000Y-185220000D03*
%TD*%
D13*
%TO.C,HOLE*%
X74160000Y-194900000D03*
%TD*%
D14*
%TO.C,P1*%
X76700000Y-117040640D03*
D15*
X76700000Y-122039360D03*
X76700000Y-127040620D03*
X76700000Y-132039340D03*
%TD*%
D14*
%TO.C,P3*%
X55110000Y-155982640D03*
D15*
X55110000Y-160981360D03*
X55110000Y-165982620D03*
X55110000Y-170981340D03*
X55110000Y-175982600D03*
X55110000Y-180981320D03*
X55110000Y-185982580D03*
X55110000Y-190981300D03*
%TD*%
D14*
%TO.C,P2*%
X55110000Y-114326640D03*
D15*
X55110000Y-119325360D03*
X55110000Y-124326620D03*
X55110000Y-129325340D03*
X55110000Y-134326600D03*
X55110000Y-139325320D03*
X55110000Y-144326580D03*
X55110000Y-149325300D03*
%TD*%
D13*
%TO.C,HOLE*%
X48760000Y-194900000D03*
%TD*%
D16*
%TO.C,K1*%
X61500000Y-114900000D03*
X66500000Y-117400000D03*
X61500000Y-119900000D03*
X66500000Y-122400000D03*
X61500000Y-124900000D03*
X66500000Y-127400000D03*
X61500000Y-129900000D03*
X66500000Y-132400000D03*
X61500000Y-134900000D03*
X66500000Y-137400000D03*
X61500000Y-139900000D03*
X66500000Y-142400000D03*
X61500000Y-144900000D03*
X66500000Y-147400000D03*
X61500000Y-149900000D03*
X66500000Y-152400000D03*
X61500000Y-154900000D03*
X66500000Y-157400000D03*
X61500000Y-159900000D03*
X66500000Y-162400000D03*
X61500000Y-164900000D03*
X66500000Y-167400000D03*
X61500000Y-169900000D03*
X66500000Y-172400000D03*
X61500000Y-174900000D03*
X66500000Y-177401220D03*
X61500000Y-179900000D03*
X66500000Y-182399940D03*
X61500000Y-184900000D03*
X66500000Y-187400000D03*
X61500000Y-189900000D03*
D17*
X64000000Y-109900000D03*
X64000000Y-194900000D03*
%TD*%
M02*
