G04 #@! TF.GenerationSoftware,KiCad,Pcbnew,(5.1.5)-3*
G04 #@! TF.CreationDate,2021-08-30T19:45:08+02:00*
G04 #@! TF.ProjectId,sbk6ac,73626b36-6163-42e6-9b69-6361645f7063,0432 -*
G04 #@! TF.SameCoordinates,Original*
G04 #@! TF.FileFunction,Soldermask,Top*
G04 #@! TF.FilePolarity,Negative*
%FSLAX46Y46*%
G04 Gerber Fmt 4.6, Leading zero omitted, Abs format (unit mm)*
G04 Created by KiCad (PCBNEW (5.1.5)-3) date 2021-08-30 19:45:08*
%MOMM*%
%LPD*%
G04 APERTURE LIST*
%ADD10C,1.905000*%
%ADD11R,1.905000X1.905000*%
%ADD12C,2.286000*%
%ADD13R,1.397000X1.905000*%
%ADD14R,6.507480X2.506980*%
%ADD15C,4.008120*%
%ADD16C,2.707640*%
%ADD17R,1.016000X1.651000*%
%ADD18C,2.159000*%
%ADD19R,2.159000X2.159000*%
%ADD20R,1.905000X1.397000*%
G04 APERTURE END LIST*
D10*
X148209000Y-139573000D03*
D11*
X148209000Y-142113000D03*
D10*
X145669000Y-142113000D03*
D12*
X83820000Y-76200000D03*
X88900000Y-76200000D03*
X93980000Y-76200000D03*
X83820000Y-68580000D03*
X88900000Y-68580000D03*
X93980000Y-68580000D03*
X101600000Y-76200000D03*
X101600000Y-68580000D03*
X125730000Y-68580000D03*
X120650000Y-68580000D03*
X115570000Y-68580000D03*
X125730000Y-76200000D03*
X120650000Y-76200000D03*
X115570000Y-76200000D03*
X107950000Y-68580000D03*
X107950000Y-76200000D03*
X83820000Y-88900000D03*
X88900000Y-88900000D03*
X93980000Y-88900000D03*
X83820000Y-81280000D03*
X88900000Y-81280000D03*
X93980000Y-81280000D03*
X101600000Y-88900000D03*
X101600000Y-81280000D03*
X125730000Y-81280000D03*
X120650000Y-81280000D03*
X115570000Y-81280000D03*
X125730000Y-88900000D03*
X120650000Y-88900000D03*
X115570000Y-88900000D03*
X107950000Y-81280000D03*
X107950000Y-88900000D03*
X83820000Y-101600000D03*
X88900000Y-101600000D03*
X93980000Y-101600000D03*
X83820000Y-93980000D03*
X88900000Y-93980000D03*
X93980000Y-93980000D03*
X101600000Y-101600000D03*
X101600000Y-93980000D03*
X125730000Y-93980000D03*
X120650000Y-93980000D03*
X115570000Y-93980000D03*
X125730000Y-101600000D03*
X120650000Y-101600000D03*
X115570000Y-101600000D03*
X107950000Y-93980000D03*
X107950000Y-101600000D03*
X83820000Y-114300000D03*
X88900000Y-114300000D03*
X93980000Y-114300000D03*
X83820000Y-106680000D03*
X88900000Y-106680000D03*
X93980000Y-106680000D03*
X101600000Y-114300000D03*
X101600000Y-106680000D03*
X125730000Y-106680000D03*
X120650000Y-106680000D03*
X115570000Y-106680000D03*
X125730000Y-114300000D03*
X120650000Y-114300000D03*
X115570000Y-114300000D03*
X107950000Y-106680000D03*
X107950000Y-114300000D03*
X83820000Y-127000000D03*
X88900000Y-127000000D03*
X93980000Y-127000000D03*
X83820000Y-119380000D03*
X88900000Y-119380000D03*
X93980000Y-119380000D03*
X101600000Y-127000000D03*
X101600000Y-119380000D03*
X125730000Y-119380000D03*
X120650000Y-119380000D03*
X115570000Y-119380000D03*
X125730000Y-127000000D03*
X120650000Y-127000000D03*
X115570000Y-127000000D03*
X107950000Y-119380000D03*
X107950000Y-127000000D03*
X83820000Y-139700000D03*
X88900000Y-139700000D03*
X93980000Y-139700000D03*
X83820000Y-132080000D03*
X88900000Y-132080000D03*
X93980000Y-132080000D03*
X101600000Y-139700000D03*
X101600000Y-132080000D03*
X125730000Y-132080000D03*
X120650000Y-132080000D03*
X115570000Y-132080000D03*
X125730000Y-139700000D03*
X120650000Y-139700000D03*
X115570000Y-139700000D03*
X107950000Y-132080000D03*
X107950000Y-139700000D03*
X83820000Y-63500000D03*
X88900000Y-63500000D03*
X93980000Y-63500000D03*
X83820000Y-55880000D03*
X88900000Y-55880000D03*
X93980000Y-55880000D03*
X101600000Y-63500000D03*
X101600000Y-55880000D03*
D13*
X141922500Y-100076000D03*
X140017500Y-100076000D03*
D12*
X161719260Y-64099440D03*
D14*
X161218880Y-66601340D03*
D12*
X161719260Y-69100700D03*
D14*
X161218880Y-71600060D03*
D12*
X161719260Y-74099420D03*
D14*
X161218880Y-76601320D03*
D12*
X161719260Y-79100680D03*
D14*
X161218880Y-81600040D03*
D12*
X161719260Y-84099400D03*
D14*
X161218880Y-86601300D03*
D12*
X161719260Y-89100660D03*
D14*
X161218880Y-91600020D03*
D12*
X161719260Y-94099380D03*
D14*
X161218880Y-96601280D03*
D12*
X161719260Y-99100640D03*
D14*
X161218880Y-101600000D03*
D12*
X161719260Y-104099360D03*
D14*
X161218880Y-106601260D03*
D12*
X161719260Y-109100620D03*
D14*
X161218880Y-111599980D03*
D12*
X161719260Y-114099340D03*
D14*
X161218880Y-116601240D03*
D12*
X161719260Y-119100600D03*
D14*
X161218880Y-121599960D03*
D12*
X161719260Y-124099320D03*
D14*
X161218880Y-126601220D03*
D12*
X161719260Y-129100580D03*
D14*
X161218880Y-131599940D03*
D12*
X161719260Y-134099300D03*
D14*
X161218880Y-136601200D03*
D12*
X161719260Y-139100560D03*
D15*
X71198740Y-59100720D03*
D16*
X76200000Y-101600000D03*
X76200000Y-106601260D03*
X76200000Y-116601240D03*
X76200000Y-111599980D03*
X76200000Y-131599940D03*
X76200000Y-136601200D03*
X76200000Y-126601220D03*
X76200000Y-121599960D03*
X76200000Y-81600040D03*
X76200000Y-86601300D03*
X76200000Y-96601280D03*
X76200000Y-91600020D03*
X76200000Y-71600060D03*
X76200000Y-76601320D03*
X76200000Y-66601340D03*
X73698100Y-69100700D03*
X73698100Y-79100680D03*
X73698100Y-74099420D03*
X73698100Y-94099380D03*
X73698100Y-99100640D03*
X73698100Y-89100660D03*
X73698100Y-84099400D03*
X73698100Y-124099320D03*
X73698100Y-129100580D03*
X73698100Y-139100560D03*
X73698100Y-134099300D03*
X73698100Y-114099340D03*
X73698100Y-119100600D03*
X73698100Y-109100620D03*
X73698100Y-104099360D03*
X73700640Y-64099440D03*
D15*
X71198740Y-144101820D03*
D17*
X132715000Y-87630000D03*
X133985000Y-87630000D03*
X135255000Y-87630000D03*
X136525000Y-87630000D03*
X137795000Y-87630000D03*
X139065000Y-87630000D03*
X140335000Y-87630000D03*
X141605000Y-87630000D03*
X141605000Y-92710000D03*
X140335000Y-92710000D03*
X139065000Y-92710000D03*
X137795000Y-92710000D03*
X136525000Y-92710000D03*
X135255000Y-92710000D03*
X133985000Y-92710000D03*
X132715000Y-92710000D03*
X142875000Y-119380000D03*
X141605000Y-119380000D03*
X140335000Y-119380000D03*
X139065000Y-119380000D03*
X137795000Y-119380000D03*
X136525000Y-119380000D03*
X135255000Y-119380000D03*
X133985000Y-119380000D03*
X133985000Y-114300000D03*
X135255000Y-114300000D03*
X136525000Y-114300000D03*
X137795000Y-114300000D03*
X139065000Y-114300000D03*
X140335000Y-114300000D03*
X141605000Y-114300000D03*
X142875000Y-114300000D03*
D18*
X140208000Y-139573000D03*
D19*
X140208000Y-142113000D03*
D20*
X130048000Y-89344500D03*
X130048000Y-91249500D03*
X144018000Y-109410500D03*
X144018000Y-111315500D03*
M02*
