M48
; DRILL file {KiCad (6.0.7)} date Sun May 12 15:56:41 2024
; FORMAT={-:-/ absolute / metric / decimal}
; #@! TF.CreationDate,2024-05-12T15:56:41+02:00
; #@! TF.GenerationSoftware,Kicad,Pcbnew,(6.0.7)
; #@! TF.FileFunction,Plated,1,2,PTH
FMAT,2
METRIC
; #@! TA.AperFunction,Plated,PTH,ViaDrill
T1C0.635
; #@! TA.AperFunction,Plated,PTH,ComponentDrill
T2C0.813
; #@! TA.AperFunction,Plated,PTH,ComponentDrill
T3C0.899
; #@! TA.AperFunction,Plated,PTH,ComponentDrill
T4C1.501
; #@! TA.AperFunction,Plated,PTH,ComponentDrill
T5C3.200
%
G90
G05
T1
X129.159Y-99.441
X129.159Y-108.839
X129.159Y-114.046
X132.7Y-86.2
X133.096Y-89.789
X133.604Y-94.996
X135.3Y-121.7
X137.795Y-101.092
X138.049Y-97.282
X138.557Y-95.377
X140.589Y-83.947
X141.351Y-135.763
X141.605Y-97.282
X141.605Y-115.951
X142.875Y-123.698
X143.256Y-116.332
X144.018Y-107.442
X144.399Y-120.015
X144.653Y-105.537
X146.177Y-118.999
X147.447Y-118.11
X150.749Y-116.586
X152.146Y-105.537
X152.146Y-114.173
X156.718Y-119.38
X156.845Y-114.173
T2
X140.208Y-139.573
X140.208Y-142.113
X145.669Y-142.113
X148.209Y-139.573
X148.209Y-142.113
T3
X83.82Y-55.88
X83.82Y-63.5
X83.82Y-68.58
X83.82Y-76.2
X83.82Y-81.28
X83.82Y-88.9
X83.82Y-93.98
X83.82Y-101.6
X83.82Y-106.68
X83.82Y-114.3
X83.82Y-119.38
X83.82Y-127.0
X83.82Y-132.08
X83.82Y-139.7
X88.9Y-55.88
X88.9Y-63.5
X88.9Y-68.58
X88.9Y-76.2
X88.9Y-81.28
X88.9Y-88.9
X88.9Y-93.98
X88.9Y-101.6
X88.9Y-106.68
X88.9Y-114.3
X88.9Y-119.38
X88.9Y-127.0
X88.9Y-132.08
X88.9Y-139.7
X93.98Y-55.88
X93.98Y-63.5
X93.98Y-68.58
X93.98Y-76.2
X93.98Y-81.28
X93.98Y-88.9
X93.98Y-93.98
X93.98Y-101.6
X93.98Y-106.68
X93.98Y-114.3
X93.98Y-119.38
X93.98Y-127.0
X93.98Y-132.08
X93.98Y-139.7
X101.6Y-55.88
X101.6Y-63.5
X101.6Y-68.58
X101.6Y-76.2
X101.6Y-81.28
X101.6Y-88.9
X101.6Y-93.98
X101.6Y-101.6
X101.6Y-106.68
X101.6Y-114.3
X101.6Y-119.38
X101.6Y-127.0
X101.6Y-132.08
X101.6Y-139.7
X107.95Y-68.58
X107.95Y-76.2
X107.95Y-81.28
X107.95Y-88.9
X107.95Y-93.98
X107.95Y-101.6
X107.95Y-106.68
X107.95Y-114.3
X107.95Y-119.38
X107.95Y-127.0
X107.95Y-132.08
X107.95Y-139.7
X115.57Y-68.58
X115.57Y-76.2
X115.57Y-81.28
X115.57Y-88.9
X115.57Y-93.98
X115.57Y-101.6
X115.57Y-106.68
X115.57Y-114.3
X115.57Y-119.38
X115.57Y-127.0
X115.57Y-132.08
X115.57Y-139.7
X120.65Y-68.58
X120.65Y-76.2
X120.65Y-81.28
X120.65Y-88.9
X120.65Y-93.98
X120.65Y-101.6
X120.65Y-106.68
X120.65Y-114.3
X120.65Y-119.38
X120.65Y-127.0
X120.65Y-132.08
X120.65Y-139.7
X125.73Y-68.58
X125.73Y-76.2
X125.73Y-81.28
X125.73Y-88.9
X125.73Y-93.98
X125.73Y-101.6
X125.73Y-106.68
X125.73Y-114.3
X125.73Y-119.38
X125.73Y-127.0
X125.73Y-132.08
X125.73Y-139.7
X161.719Y-64.099
X161.719Y-66.601
X161.719Y-69.101
X161.719Y-71.6
X161.719Y-74.099
X161.719Y-76.601
X161.719Y-79.101
X161.719Y-81.6
X161.719Y-84.099
X161.719Y-86.601
X161.719Y-89.101
X161.719Y-91.6
X161.719Y-94.099
X161.719Y-96.601
X161.719Y-99.101
X161.719Y-101.6
X161.719Y-104.099
X161.719Y-106.601
X161.719Y-109.101
X161.719Y-111.6
X161.719Y-114.099
X161.719Y-116.601
X161.719Y-119.101
X161.719Y-121.6
X161.719Y-124.099
X161.719Y-126.601
X161.719Y-129.101
X161.719Y-131.6
X161.719Y-134.099
X161.719Y-136.601
X161.719Y-139.101
T4
X73.698Y-69.101
X73.698Y-74.099
X73.698Y-79.101
X73.698Y-84.099
X73.698Y-89.101
X73.698Y-94.099
X73.698Y-99.101
X73.698Y-104.099
X73.698Y-109.101
X73.698Y-114.099
X73.698Y-119.101
X73.698Y-124.099
X73.698Y-129.101
X73.698Y-134.099
X73.698Y-139.101
X73.701Y-64.099
X76.2Y-66.601
X76.2Y-71.6
X76.2Y-76.601
X76.2Y-81.6
X76.2Y-86.601
X76.2Y-91.6
X76.2Y-96.601
X76.2Y-101.6
X76.2Y-106.601
X76.2Y-111.6
X76.2Y-116.601
X76.2Y-121.6
X76.2Y-126.601
X76.2Y-131.6
X76.2Y-136.601
T5
X71.199Y-59.101
X71.199Y-144.102
T0
M30
