G04 #@! TF.GenerationSoftware,KiCad,Pcbnew,(5.1.5)-3*
G04 #@! TF.CreationDate,2021-08-30T19:45:08+02:00*
G04 #@! TF.ProjectId,sbk6ac,73626b36-6163-42e6-9b69-6361645f7063,0432 -*
G04 #@! TF.SameCoordinates,Original*
G04 #@! TF.FileFunction,Legend,Top*
G04 #@! TF.FilePolarity,Positive*
%FSLAX46Y46*%
G04 Gerber Fmt 4.6, Leading zero omitted, Abs format (unit mm)*
G04 Created by KiCad (PCBNEW (5.1.5)-3) date 2021-08-30 19:45:08*
%MOMM*%
%LPD*%
G04 APERTURE LIST*
%ADD10C,0.304800*%
%ADD11C,0.254000*%
%ADD12C,0.127000*%
%ADD13C,0.381000*%
%ADD14C,0.203200*%
G04 APERTURE END LIST*
D10*
X68688857Y-150779238D02*
X68688857Y-148747238D01*
X69196857Y-150198666D01*
X69704857Y-148747238D01*
X69704857Y-150779238D01*
X70212857Y-148747238D02*
X70720857Y-150779238D01*
X71228857Y-148747238D01*
X150694571Y-55595761D02*
X150767142Y-55499000D01*
X150912285Y-55402238D01*
X151275142Y-55402238D01*
X151420285Y-55499000D01*
X151492857Y-55595761D01*
X151565428Y-55789285D01*
X151565428Y-55982809D01*
X151492857Y-56273095D01*
X150622000Y-57434238D01*
X151565428Y-57434238D01*
X152508857Y-55402238D02*
X152654000Y-55402238D01*
X152799142Y-55499000D01*
X152871714Y-55595761D01*
X152944285Y-55789285D01*
X153016857Y-56176333D01*
X153016857Y-56660142D01*
X152944285Y-57047190D01*
X152871714Y-57240714D01*
X152799142Y-57337476D01*
X152654000Y-57434238D01*
X152508857Y-57434238D01*
X152363714Y-57337476D01*
X152291142Y-57240714D01*
X152218571Y-57047190D01*
X152146000Y-56660142D01*
X152146000Y-56176333D01*
X152218571Y-55789285D01*
X152291142Y-55595761D01*
X152363714Y-55499000D01*
X152508857Y-55402238D01*
X154468285Y-57434238D02*
X153597428Y-57434238D01*
X154032857Y-57434238D02*
X154032857Y-55402238D01*
X153887714Y-55692523D01*
X153742571Y-55886047D01*
X153597428Y-55982809D01*
X155774571Y-56079571D02*
X155774571Y-57434238D01*
X155411714Y-55305476D02*
X155048857Y-56756904D01*
X155992285Y-56756904D01*
X156863142Y-55402238D02*
X157008285Y-55402238D01*
X157153428Y-55499000D01*
X157226000Y-55595761D01*
X157298571Y-55789285D01*
X157371142Y-56176333D01*
X157371142Y-56660142D01*
X157298571Y-57047190D01*
X157226000Y-57240714D01*
X157153428Y-57337476D01*
X157008285Y-57434238D01*
X156863142Y-57434238D01*
X156718000Y-57337476D01*
X156645428Y-57240714D01*
X156572857Y-57047190D01*
X156500285Y-56660142D01*
X156500285Y-56176333D01*
X156572857Y-55789285D01*
X156645428Y-55595761D01*
X156718000Y-55499000D01*
X156863142Y-55402238D01*
X157951714Y-55595761D02*
X158024285Y-55499000D01*
X158169428Y-55402238D01*
X158532285Y-55402238D01*
X158677428Y-55499000D01*
X158750000Y-55595761D01*
X158822571Y-55789285D01*
X158822571Y-55982809D01*
X158750000Y-56273095D01*
X157879142Y-57434238D01*
X158822571Y-57434238D01*
X160274000Y-57434238D02*
X159403142Y-57434238D01*
X159838571Y-57434238D02*
X159838571Y-55402238D01*
X159693428Y-55692523D01*
X159548285Y-55886047D01*
X159403142Y-55982809D01*
X161580285Y-55402238D02*
X161290000Y-55402238D01*
X161144857Y-55499000D01*
X161072285Y-55595761D01*
X160927142Y-55886047D01*
X160854571Y-56273095D01*
X160854571Y-57047190D01*
X160927142Y-57240714D01*
X160999714Y-57337476D01*
X161144857Y-57434238D01*
X161435142Y-57434238D01*
X161580285Y-57337476D01*
X161652857Y-57240714D01*
X161725428Y-57047190D01*
X161725428Y-56563380D01*
X161652857Y-56369857D01*
X161580285Y-56273095D01*
X161435142Y-56176333D01*
X161144857Y-56176333D01*
X160999714Y-56273095D01*
X160927142Y-56369857D01*
X160854571Y-56563380D01*
X139409714Y-57337476D02*
X139627428Y-57434238D01*
X139990285Y-57434238D01*
X140135428Y-57337476D01*
X140208000Y-57240714D01*
X140280571Y-57047190D01*
X140280571Y-56853666D01*
X140208000Y-56660142D01*
X140135428Y-56563380D01*
X139990285Y-56466619D01*
X139700000Y-56369857D01*
X139554857Y-56273095D01*
X139482285Y-56176333D01*
X139409714Y-55982809D01*
X139409714Y-55789285D01*
X139482285Y-55595761D01*
X139554857Y-55499000D01*
X139700000Y-55402238D01*
X140062857Y-55402238D01*
X140280571Y-55499000D01*
X141441714Y-56369857D02*
X141659428Y-56466619D01*
X141732000Y-56563380D01*
X141804571Y-56756904D01*
X141804571Y-57047190D01*
X141732000Y-57240714D01*
X141659428Y-57337476D01*
X141514285Y-57434238D01*
X140933714Y-57434238D01*
X140933714Y-55402238D01*
X141441714Y-55402238D01*
X141586857Y-55499000D01*
X141659428Y-55595761D01*
X141732000Y-55789285D01*
X141732000Y-55982809D01*
X141659428Y-56176333D01*
X141586857Y-56273095D01*
X141441714Y-56369857D01*
X140933714Y-56369857D01*
X142457714Y-57434238D02*
X142457714Y-55402238D01*
X143328571Y-57434238D02*
X142675428Y-56273095D01*
X143328571Y-55402238D02*
X142457714Y-56563380D01*
X144634857Y-55402238D02*
X144344571Y-55402238D01*
X144199428Y-55499000D01*
X144126857Y-55595761D01*
X143981714Y-55886047D01*
X143909142Y-56273095D01*
X143909142Y-57047190D01*
X143981714Y-57240714D01*
X144054285Y-57337476D01*
X144199428Y-57434238D01*
X144489714Y-57434238D01*
X144634857Y-57337476D01*
X144707428Y-57240714D01*
X144780000Y-57047190D01*
X144780000Y-56563380D01*
X144707428Y-56369857D01*
X144634857Y-56273095D01*
X144489714Y-56176333D01*
X144199428Y-56176333D01*
X144054285Y-56273095D01*
X143981714Y-56369857D01*
X143909142Y-56563380D01*
X145360571Y-56853666D02*
X146086285Y-56853666D01*
X145215428Y-57434238D02*
X145723428Y-55402238D01*
X146231428Y-57434238D01*
X147610285Y-57240714D02*
X147537714Y-57337476D01*
X147320000Y-57434238D01*
X147174857Y-57434238D01*
X146957142Y-57337476D01*
X146812000Y-57143952D01*
X146739428Y-56950428D01*
X146666857Y-56563380D01*
X146666857Y-56273095D01*
X146739428Y-55886047D01*
X146812000Y-55692523D01*
X146957142Y-55499000D01*
X147174857Y-55402238D01*
X147320000Y-55402238D01*
X147537714Y-55499000D01*
X147610285Y-55595761D01*
X149479000Y-138303000D02*
X148209000Y-138303000D01*
X150749000Y-139573000D02*
X149479000Y-138303000D01*
X150749000Y-142113000D02*
X150749000Y-139573000D01*
X148209000Y-144653000D02*
X150749000Y-142113000D01*
X145669000Y-144653000D02*
X148209000Y-144653000D01*
X144399000Y-143383000D02*
X145669000Y-144653000D01*
X144399000Y-142113000D02*
X144399000Y-143383000D01*
X148209000Y-138303000D02*
X144399000Y-142113000D01*
D11*
X97790000Y-73660000D02*
X99060000Y-73660000D01*
X97790000Y-71120000D02*
X97790000Y-73660000D01*
X100330000Y-71120000D02*
X97790000Y-71120000D01*
X100330000Y-73660000D02*
X100330000Y-71120000D01*
X99060000Y-73660000D02*
X100330000Y-73660000D01*
X99060000Y-74930000D02*
X99060000Y-73660000D01*
X99060000Y-76200000D02*
X99060000Y-74930000D01*
X100330000Y-76200000D02*
X99060000Y-76200000D01*
X99060000Y-68580000D02*
X100330000Y-68580000D01*
X99060000Y-71120000D02*
X99060000Y-68580000D01*
X100330000Y-71120000D02*
X97790000Y-73660000D01*
X82550000Y-77470000D02*
X102870000Y-77470000D01*
X82550000Y-67310000D02*
X82550000Y-77470000D01*
X102870000Y-67310000D02*
X82550000Y-67310000D01*
X102870000Y-77470000D02*
X102870000Y-67310000D01*
X111760000Y-71120000D02*
X110490000Y-71120000D01*
X111760000Y-73660000D02*
X111760000Y-71120000D01*
X109220000Y-73660000D02*
X111760000Y-73660000D01*
X109220000Y-71120000D02*
X109220000Y-73660000D01*
X110490000Y-71120000D02*
X109220000Y-71120000D01*
X110490000Y-69850000D02*
X110490000Y-71120000D01*
X110490000Y-68580000D02*
X110490000Y-69850000D01*
X109220000Y-68580000D02*
X110490000Y-68580000D01*
X110490000Y-76200000D02*
X109220000Y-76200000D01*
X110490000Y-73660000D02*
X110490000Y-76200000D01*
X109220000Y-73660000D02*
X111760000Y-71120000D01*
X127000000Y-67310000D02*
X106680000Y-67310000D01*
X127000000Y-77470000D02*
X127000000Y-67310000D01*
X106680000Y-77470000D02*
X127000000Y-77470000D01*
X106680000Y-67310000D02*
X106680000Y-77470000D01*
X97790000Y-86360000D02*
X99060000Y-86360000D01*
X97790000Y-83820000D02*
X97790000Y-86360000D01*
X100330000Y-83820000D02*
X97790000Y-83820000D01*
X100330000Y-86360000D02*
X100330000Y-83820000D01*
X99060000Y-86360000D02*
X100330000Y-86360000D01*
X99060000Y-87630000D02*
X99060000Y-86360000D01*
X99060000Y-88900000D02*
X99060000Y-87630000D01*
X100330000Y-88900000D02*
X99060000Y-88900000D01*
X99060000Y-81280000D02*
X100330000Y-81280000D01*
X99060000Y-83820000D02*
X99060000Y-81280000D01*
X100330000Y-83820000D02*
X97790000Y-86360000D01*
X82550000Y-90170000D02*
X102870000Y-90170000D01*
X82550000Y-80010000D02*
X82550000Y-90170000D01*
X102870000Y-80010000D02*
X82550000Y-80010000D01*
X102870000Y-90170000D02*
X102870000Y-80010000D01*
X111760000Y-83820000D02*
X110490000Y-83820000D01*
X111760000Y-86360000D02*
X111760000Y-83820000D01*
X109220000Y-86360000D02*
X111760000Y-86360000D01*
X109220000Y-83820000D02*
X109220000Y-86360000D01*
X110490000Y-83820000D02*
X109220000Y-83820000D01*
X110490000Y-82550000D02*
X110490000Y-83820000D01*
X110490000Y-81280000D02*
X110490000Y-82550000D01*
X109220000Y-81280000D02*
X110490000Y-81280000D01*
X110490000Y-88900000D02*
X109220000Y-88900000D01*
X110490000Y-86360000D02*
X110490000Y-88900000D01*
X109220000Y-86360000D02*
X111760000Y-83820000D01*
X127000000Y-80010000D02*
X106680000Y-80010000D01*
X127000000Y-90170000D02*
X127000000Y-80010000D01*
X106680000Y-90170000D02*
X127000000Y-90170000D01*
X106680000Y-80010000D02*
X106680000Y-90170000D01*
X97790000Y-99060000D02*
X99060000Y-99060000D01*
X97790000Y-96520000D02*
X97790000Y-99060000D01*
X100330000Y-96520000D02*
X97790000Y-96520000D01*
X100330000Y-99060000D02*
X100330000Y-96520000D01*
X99060000Y-99060000D02*
X100330000Y-99060000D01*
X99060000Y-100330000D02*
X99060000Y-99060000D01*
X99060000Y-101600000D02*
X99060000Y-100330000D01*
X100330000Y-101600000D02*
X99060000Y-101600000D01*
X99060000Y-93980000D02*
X100330000Y-93980000D01*
X99060000Y-96520000D02*
X99060000Y-93980000D01*
X100330000Y-96520000D02*
X97790000Y-99060000D01*
X82550000Y-102870000D02*
X102870000Y-102870000D01*
X82550000Y-92710000D02*
X82550000Y-102870000D01*
X102870000Y-92710000D02*
X82550000Y-92710000D01*
X102870000Y-102870000D02*
X102870000Y-92710000D01*
X111760000Y-96520000D02*
X110490000Y-96520000D01*
X111760000Y-99060000D02*
X111760000Y-96520000D01*
X109220000Y-99060000D02*
X111760000Y-99060000D01*
X109220000Y-96520000D02*
X109220000Y-99060000D01*
X110490000Y-96520000D02*
X109220000Y-96520000D01*
X110490000Y-95250000D02*
X110490000Y-96520000D01*
X110490000Y-93980000D02*
X110490000Y-95250000D01*
X109220000Y-93980000D02*
X110490000Y-93980000D01*
X110490000Y-101600000D02*
X109220000Y-101600000D01*
X110490000Y-99060000D02*
X110490000Y-101600000D01*
X109220000Y-99060000D02*
X111760000Y-96520000D01*
X127000000Y-92710000D02*
X106680000Y-92710000D01*
X127000000Y-102870000D02*
X127000000Y-92710000D01*
X106680000Y-102870000D02*
X127000000Y-102870000D01*
X106680000Y-92710000D02*
X106680000Y-102870000D01*
X97790000Y-111760000D02*
X99060000Y-111760000D01*
X97790000Y-109220000D02*
X97790000Y-111760000D01*
X100330000Y-109220000D02*
X97790000Y-109220000D01*
X100330000Y-111760000D02*
X100330000Y-109220000D01*
X99060000Y-111760000D02*
X100330000Y-111760000D01*
X99060000Y-113030000D02*
X99060000Y-111760000D01*
X99060000Y-114300000D02*
X99060000Y-113030000D01*
X100330000Y-114300000D02*
X99060000Y-114300000D01*
X99060000Y-106680000D02*
X100330000Y-106680000D01*
X99060000Y-109220000D02*
X99060000Y-106680000D01*
X100330000Y-109220000D02*
X97790000Y-111760000D01*
X82550000Y-115570000D02*
X102870000Y-115570000D01*
X82550000Y-105410000D02*
X82550000Y-115570000D01*
X102870000Y-105410000D02*
X82550000Y-105410000D01*
X102870000Y-115570000D02*
X102870000Y-105410000D01*
X111760000Y-109220000D02*
X110490000Y-109220000D01*
X111760000Y-111760000D02*
X111760000Y-109220000D01*
X109220000Y-111760000D02*
X111760000Y-111760000D01*
X109220000Y-109220000D02*
X109220000Y-111760000D01*
X110490000Y-109220000D02*
X109220000Y-109220000D01*
X110490000Y-107950000D02*
X110490000Y-109220000D01*
X110490000Y-106680000D02*
X110490000Y-107950000D01*
X109220000Y-106680000D02*
X110490000Y-106680000D01*
X110490000Y-114300000D02*
X109220000Y-114300000D01*
X110490000Y-111760000D02*
X110490000Y-114300000D01*
X109220000Y-111760000D02*
X111760000Y-109220000D01*
X127000000Y-105410000D02*
X106680000Y-105410000D01*
X127000000Y-115570000D02*
X127000000Y-105410000D01*
X106680000Y-115570000D02*
X127000000Y-115570000D01*
X106680000Y-105410000D02*
X106680000Y-115570000D01*
X97790000Y-124460000D02*
X99060000Y-124460000D01*
X97790000Y-121920000D02*
X97790000Y-124460000D01*
X100330000Y-121920000D02*
X97790000Y-121920000D01*
X100330000Y-124460000D02*
X100330000Y-121920000D01*
X99060000Y-124460000D02*
X100330000Y-124460000D01*
X99060000Y-125730000D02*
X99060000Y-124460000D01*
X99060000Y-127000000D02*
X99060000Y-125730000D01*
X100330000Y-127000000D02*
X99060000Y-127000000D01*
X99060000Y-119380000D02*
X100330000Y-119380000D01*
X99060000Y-121920000D02*
X99060000Y-119380000D01*
X100330000Y-121920000D02*
X97790000Y-124460000D01*
X82550000Y-128270000D02*
X102870000Y-128270000D01*
X82550000Y-118110000D02*
X82550000Y-128270000D01*
X102870000Y-118110000D02*
X82550000Y-118110000D01*
X102870000Y-128270000D02*
X102870000Y-118110000D01*
X111760000Y-121920000D02*
X110490000Y-121920000D01*
X111760000Y-124460000D02*
X111760000Y-121920000D01*
X109220000Y-124460000D02*
X111760000Y-124460000D01*
X109220000Y-121920000D02*
X109220000Y-124460000D01*
X110490000Y-121920000D02*
X109220000Y-121920000D01*
X110490000Y-120650000D02*
X110490000Y-121920000D01*
X110490000Y-119380000D02*
X110490000Y-120650000D01*
X109220000Y-119380000D02*
X110490000Y-119380000D01*
X110490000Y-127000000D02*
X109220000Y-127000000D01*
X110490000Y-124460000D02*
X110490000Y-127000000D01*
X109220000Y-124460000D02*
X111760000Y-121920000D01*
X127000000Y-118110000D02*
X106680000Y-118110000D01*
X127000000Y-128270000D02*
X127000000Y-118110000D01*
X106680000Y-128270000D02*
X127000000Y-128270000D01*
X106680000Y-118110000D02*
X106680000Y-128270000D01*
X97790000Y-137160000D02*
X99060000Y-137160000D01*
X97790000Y-134620000D02*
X97790000Y-137160000D01*
X100330000Y-134620000D02*
X97790000Y-134620000D01*
X100330000Y-137160000D02*
X100330000Y-134620000D01*
X99060000Y-137160000D02*
X100330000Y-137160000D01*
X99060000Y-138430000D02*
X99060000Y-137160000D01*
X99060000Y-139700000D02*
X99060000Y-138430000D01*
X100330000Y-139700000D02*
X99060000Y-139700000D01*
X99060000Y-132080000D02*
X100330000Y-132080000D01*
X99060000Y-134620000D02*
X99060000Y-132080000D01*
X100330000Y-134620000D02*
X97790000Y-137160000D01*
X82550000Y-140970000D02*
X102870000Y-140970000D01*
X82550000Y-130810000D02*
X82550000Y-140970000D01*
X102870000Y-130810000D02*
X82550000Y-130810000D01*
X102870000Y-140970000D02*
X102870000Y-130810000D01*
X111760000Y-134620000D02*
X110490000Y-134620000D01*
X111760000Y-137160000D02*
X111760000Y-134620000D01*
X109220000Y-137160000D02*
X111760000Y-137160000D01*
X109220000Y-134620000D02*
X109220000Y-137160000D01*
X110490000Y-134620000D02*
X109220000Y-134620000D01*
X110490000Y-133350000D02*
X110490000Y-134620000D01*
X110490000Y-132080000D02*
X110490000Y-133350000D01*
X109220000Y-132080000D02*
X110490000Y-132080000D01*
X110490000Y-139700000D02*
X109220000Y-139700000D01*
X110490000Y-137160000D02*
X110490000Y-139700000D01*
X109220000Y-137160000D02*
X111760000Y-134620000D01*
X127000000Y-130810000D02*
X106680000Y-130810000D01*
X127000000Y-140970000D02*
X127000000Y-130810000D01*
X106680000Y-140970000D02*
X127000000Y-140970000D01*
X106680000Y-130810000D02*
X106680000Y-140970000D01*
X97790000Y-60960000D02*
X99060000Y-60960000D01*
X97790000Y-58420000D02*
X97790000Y-60960000D01*
X100330000Y-58420000D02*
X97790000Y-58420000D01*
X100330000Y-60960000D02*
X100330000Y-58420000D01*
X99060000Y-60960000D02*
X100330000Y-60960000D01*
X99060000Y-62230000D02*
X99060000Y-60960000D01*
X99060000Y-63500000D02*
X99060000Y-62230000D01*
X100330000Y-63500000D02*
X99060000Y-63500000D01*
X99060000Y-55880000D02*
X100330000Y-55880000D01*
X99060000Y-58420000D02*
X99060000Y-55880000D01*
X100330000Y-58420000D02*
X97790000Y-60960000D01*
X82550000Y-64770000D02*
X102870000Y-64770000D01*
X82550000Y-54610000D02*
X82550000Y-64770000D01*
X102870000Y-54610000D02*
X82550000Y-54610000D01*
X102870000Y-64770000D02*
X102870000Y-54610000D01*
D12*
X141224000Y-99822000D02*
X140716000Y-99822000D01*
X141224000Y-100330000D02*
X141224000Y-99822000D01*
X140716000Y-100330000D02*
X141224000Y-100330000D01*
X140716000Y-100203000D02*
X140716000Y-100330000D01*
X140716000Y-99822000D02*
X140716000Y-100203000D01*
X140462000Y-100076000D02*
X140716000Y-100076000D01*
X141224000Y-100076000D02*
X141478000Y-100076000D01*
D13*
X74930000Y-55880000D02*
X66675000Y-55880000D01*
X74930000Y-60960000D02*
X74930000Y-55880000D01*
X71120000Y-62865000D02*
X74930000Y-60960000D01*
X71120000Y-140335000D02*
X71120000Y-62865000D01*
X74930000Y-142240000D02*
X71120000Y-140335000D01*
X74930000Y-147320000D02*
X74930000Y-142240000D01*
X66675000Y-147320000D02*
X74930000Y-147320000D01*
X66675000Y-55880000D02*
X66675000Y-147320000D01*
D14*
X132461000Y-90678000D02*
X131699000Y-90678000D01*
X132461000Y-89662000D02*
X132461000Y-90678000D01*
X131699000Y-89662000D02*
X132461000Y-89662000D01*
X131699000Y-91948000D02*
X131699000Y-88392000D01*
X142621000Y-91948000D02*
X131699000Y-91948000D01*
X142621000Y-88392000D02*
X142621000Y-91948000D01*
X131699000Y-88392000D02*
X142621000Y-88392000D01*
X143129000Y-116332000D02*
X143891000Y-116332000D01*
X143129000Y-117348000D02*
X143129000Y-116332000D01*
X143891000Y-117348000D02*
X143129000Y-117348000D01*
X143891000Y-115062000D02*
X143891000Y-118618000D01*
X132969000Y-115062000D02*
X143891000Y-115062000D01*
X132969000Y-118618000D02*
X132969000Y-115062000D01*
X143891000Y-118618000D02*
X132969000Y-118618000D01*
X143256000Y-140843000D02*
G75*
G03X143256000Y-140843000I-3048000J0D01*
G01*
D12*
X129667000Y-90424000D02*
X130429000Y-90424000D01*
X130048000Y-90424000D02*
X129667000Y-90424000D01*
X130048000Y-90805000D02*
X130048000Y-90424000D01*
X129667000Y-90170000D02*
X130429000Y-90170000D01*
X130048000Y-90170000D02*
X130048000Y-89789000D01*
X143637000Y-110490000D02*
X144399000Y-110490000D01*
X144018000Y-110490000D02*
X143637000Y-110490000D01*
X144018000Y-110871000D02*
X144018000Y-110490000D01*
X143637000Y-110236000D02*
X144399000Y-110236000D01*
X144018000Y-110236000D02*
X144018000Y-109855000D01*
D14*
X147102285Y-136476619D02*
X147102285Y-137299095D01*
X147150666Y-137395857D01*
X147199047Y-137444238D01*
X147295809Y-137492619D01*
X147489333Y-137492619D01*
X147586095Y-137444238D01*
X147634476Y-137395857D01*
X147682857Y-137299095D01*
X147682857Y-136476619D01*
X148698857Y-137492619D02*
X148118285Y-137492619D01*
X148408571Y-137492619D02*
X148408571Y-136476619D01*
X148311809Y-136621761D01*
X148215047Y-136718523D01*
X148118285Y-136766904D01*
X149327809Y-136476619D02*
X149424571Y-136476619D01*
X149521333Y-136525000D01*
X149569714Y-136573380D01*
X149618095Y-136670142D01*
X149666476Y-136863666D01*
X149666476Y-137105571D01*
X149618095Y-137299095D01*
X149569714Y-137395857D01*
X149521333Y-137444238D01*
X149424571Y-137492619D01*
X149327809Y-137492619D01*
X149231047Y-137444238D01*
X149182666Y-137395857D01*
X149134285Y-137299095D01*
X149085904Y-137105571D01*
X149085904Y-136863666D01*
X149134285Y-136670142D01*
X149182666Y-136573380D01*
X149231047Y-136525000D01*
X149327809Y-136476619D01*
X150634095Y-137492619D02*
X150053523Y-137492619D01*
X150343809Y-137492619D02*
X150343809Y-136476619D01*
X150247047Y-136621761D01*
X150150285Y-136718523D01*
X150053523Y-136766904D01*
X146007666Y-145366619D02*
X146685000Y-145366619D01*
X146249571Y-146382619D01*
X147217190Y-145802047D02*
X147120428Y-145753666D01*
X147072047Y-145705285D01*
X147023666Y-145608523D01*
X147023666Y-145560142D01*
X147072047Y-145463380D01*
X147120428Y-145415000D01*
X147217190Y-145366619D01*
X147410714Y-145366619D01*
X147507476Y-145415000D01*
X147555857Y-145463380D01*
X147604238Y-145560142D01*
X147604238Y-145608523D01*
X147555857Y-145705285D01*
X147507476Y-145753666D01*
X147410714Y-145802047D01*
X147217190Y-145802047D01*
X147120428Y-145850428D01*
X147072047Y-145898809D01*
X147023666Y-145995571D01*
X147023666Y-146189095D01*
X147072047Y-146285857D01*
X147120428Y-146334238D01*
X147217190Y-146382619D01*
X147410714Y-146382619D01*
X147507476Y-146334238D01*
X147555857Y-146285857D01*
X147604238Y-146189095D01*
X147604238Y-145995571D01*
X147555857Y-145898809D01*
X147507476Y-145850428D01*
X147410714Y-145802047D01*
X148523476Y-146382619D02*
X148039666Y-146382619D01*
X148039666Y-145366619D01*
X149055666Y-145366619D02*
X149152428Y-145366619D01*
X149249190Y-145415000D01*
X149297571Y-145463380D01*
X149345952Y-145560142D01*
X149394333Y-145753666D01*
X149394333Y-145995571D01*
X149345952Y-146189095D01*
X149297571Y-146285857D01*
X149249190Y-146334238D01*
X149152428Y-146382619D01*
X149055666Y-146382619D01*
X148958904Y-146334238D01*
X148910523Y-146285857D01*
X148862142Y-146189095D01*
X148813761Y-145995571D01*
X148813761Y-145753666D01*
X148862142Y-145560142D01*
X148910523Y-145463380D01*
X148958904Y-145415000D01*
X149055666Y-145366619D01*
X150313571Y-145366619D02*
X149829761Y-145366619D01*
X149781380Y-145850428D01*
X149829761Y-145802047D01*
X149926523Y-145753666D01*
X150168428Y-145753666D01*
X150265190Y-145802047D01*
X150313571Y-145850428D01*
X150361952Y-145947190D01*
X150361952Y-146189095D01*
X150313571Y-146285857D01*
X150265190Y-146334238D01*
X150168428Y-146382619D01*
X149926523Y-146382619D01*
X149829761Y-146334238D01*
X149781380Y-146285857D01*
D10*
X78268285Y-69269428D02*
X77760285Y-68543714D01*
X77397428Y-69269428D02*
X77397428Y-67745428D01*
X77978000Y-67745428D01*
X78123142Y-67818000D01*
X78195714Y-67890571D01*
X78268285Y-68035714D01*
X78268285Y-68253428D01*
X78195714Y-68398571D01*
X78123142Y-68471142D01*
X77978000Y-68543714D01*
X77397428Y-68543714D01*
X78921428Y-68471142D02*
X79429428Y-68471142D01*
X79647142Y-69269428D02*
X78921428Y-69269428D01*
X78921428Y-67745428D01*
X79647142Y-67745428D01*
X81026000Y-69269428D02*
X80300285Y-69269428D01*
X80300285Y-67745428D01*
X81388857Y-67745428D02*
X82404857Y-67745428D01*
X81751714Y-69269428D01*
X83275714Y-67745428D02*
X83420857Y-67745428D01*
X83566000Y-67818000D01*
X83638571Y-67890571D01*
X83711142Y-68035714D01*
X83783714Y-68326000D01*
X83783714Y-68688857D01*
X83711142Y-68979142D01*
X83638571Y-69124285D01*
X83566000Y-69196857D01*
X83420857Y-69269428D01*
X83275714Y-69269428D01*
X83130571Y-69196857D01*
X83058000Y-69124285D01*
X82985428Y-68979142D01*
X82912857Y-68688857D01*
X82912857Y-68326000D01*
X82985428Y-68035714D01*
X83058000Y-67890571D01*
X83130571Y-67818000D01*
X83275714Y-67745428D01*
X84364285Y-67890571D02*
X84436857Y-67818000D01*
X84582000Y-67745428D01*
X84944857Y-67745428D01*
X85090000Y-67818000D01*
X85162571Y-67890571D01*
X85235142Y-68035714D01*
X85235142Y-68180857D01*
X85162571Y-68398571D01*
X84291714Y-69269428D01*
X85235142Y-69269428D01*
X125258285Y-76889428D02*
X124750285Y-76163714D01*
X124387428Y-76889428D02*
X124387428Y-75365428D01*
X124968000Y-75365428D01*
X125113142Y-75438000D01*
X125185714Y-75510571D01*
X125258285Y-75655714D01*
X125258285Y-75873428D01*
X125185714Y-76018571D01*
X125113142Y-76091142D01*
X124968000Y-76163714D01*
X124387428Y-76163714D01*
X125911428Y-76091142D02*
X126419428Y-76091142D01*
X126637142Y-76889428D02*
X125911428Y-76889428D01*
X125911428Y-75365428D01*
X126637142Y-75365428D01*
X128016000Y-76889428D02*
X127290285Y-76889428D01*
X127290285Y-75365428D01*
X128378857Y-75365428D02*
X129394857Y-75365428D01*
X128741714Y-76889428D01*
X130265714Y-75365428D02*
X130410857Y-75365428D01*
X130556000Y-75438000D01*
X130628571Y-75510571D01*
X130701142Y-75655714D01*
X130773714Y-75946000D01*
X130773714Y-76308857D01*
X130701142Y-76599142D01*
X130628571Y-76744285D01*
X130556000Y-76816857D01*
X130410857Y-76889428D01*
X130265714Y-76889428D01*
X130120571Y-76816857D01*
X130048000Y-76744285D01*
X129975428Y-76599142D01*
X129902857Y-76308857D01*
X129902857Y-75946000D01*
X129975428Y-75655714D01*
X130048000Y-75510571D01*
X130120571Y-75438000D01*
X130265714Y-75365428D01*
X132225142Y-76889428D02*
X131354285Y-76889428D01*
X131789714Y-76889428D02*
X131789714Y-75365428D01*
X131644571Y-75583142D01*
X131499428Y-75728285D01*
X131354285Y-75800857D01*
X78268285Y-81969428D02*
X77760285Y-81243714D01*
X77397428Y-81969428D02*
X77397428Y-80445428D01*
X77978000Y-80445428D01*
X78123142Y-80518000D01*
X78195714Y-80590571D01*
X78268285Y-80735714D01*
X78268285Y-80953428D01*
X78195714Y-81098571D01*
X78123142Y-81171142D01*
X77978000Y-81243714D01*
X77397428Y-81243714D01*
X78921428Y-81171142D02*
X79429428Y-81171142D01*
X79647142Y-81969428D02*
X78921428Y-81969428D01*
X78921428Y-80445428D01*
X79647142Y-80445428D01*
X81026000Y-81969428D02*
X80300285Y-81969428D01*
X80300285Y-80445428D01*
X82187142Y-80445428D02*
X81896857Y-80445428D01*
X81751714Y-80518000D01*
X81679142Y-80590571D01*
X81534000Y-80808285D01*
X81461428Y-81098571D01*
X81461428Y-81679142D01*
X81534000Y-81824285D01*
X81606571Y-81896857D01*
X81751714Y-81969428D01*
X82042000Y-81969428D01*
X82187142Y-81896857D01*
X82259714Y-81824285D01*
X82332285Y-81679142D01*
X82332285Y-81316285D01*
X82259714Y-81171142D01*
X82187142Y-81098571D01*
X82042000Y-81026000D01*
X81751714Y-81026000D01*
X81606571Y-81098571D01*
X81534000Y-81171142D01*
X81461428Y-81316285D01*
X83275714Y-80445428D02*
X83420857Y-80445428D01*
X83566000Y-80518000D01*
X83638571Y-80590571D01*
X83711142Y-80735714D01*
X83783714Y-81026000D01*
X83783714Y-81388857D01*
X83711142Y-81679142D01*
X83638571Y-81824285D01*
X83566000Y-81896857D01*
X83420857Y-81969428D01*
X83275714Y-81969428D01*
X83130571Y-81896857D01*
X83058000Y-81824285D01*
X82985428Y-81679142D01*
X82912857Y-81388857D01*
X82912857Y-81026000D01*
X82985428Y-80735714D01*
X83058000Y-80590571D01*
X83130571Y-80518000D01*
X83275714Y-80445428D01*
X84364285Y-80590571D02*
X84436857Y-80518000D01*
X84582000Y-80445428D01*
X84944857Y-80445428D01*
X85090000Y-80518000D01*
X85162571Y-80590571D01*
X85235142Y-80735714D01*
X85235142Y-80880857D01*
X85162571Y-81098571D01*
X84291714Y-81969428D01*
X85235142Y-81969428D01*
X125258285Y-89589428D02*
X124750285Y-88863714D01*
X124387428Y-89589428D02*
X124387428Y-88065428D01*
X124968000Y-88065428D01*
X125113142Y-88138000D01*
X125185714Y-88210571D01*
X125258285Y-88355714D01*
X125258285Y-88573428D01*
X125185714Y-88718571D01*
X125113142Y-88791142D01*
X124968000Y-88863714D01*
X124387428Y-88863714D01*
X125911428Y-88791142D02*
X126419428Y-88791142D01*
X126637142Y-89589428D02*
X125911428Y-89589428D01*
X125911428Y-88065428D01*
X126637142Y-88065428D01*
X128016000Y-89589428D02*
X127290285Y-89589428D01*
X127290285Y-88065428D01*
X129177142Y-88065428D02*
X128886857Y-88065428D01*
X128741714Y-88138000D01*
X128669142Y-88210571D01*
X128524000Y-88428285D01*
X128451428Y-88718571D01*
X128451428Y-89299142D01*
X128524000Y-89444285D01*
X128596571Y-89516857D01*
X128741714Y-89589428D01*
X129032000Y-89589428D01*
X129177142Y-89516857D01*
X129249714Y-89444285D01*
X129322285Y-89299142D01*
X129322285Y-88936285D01*
X129249714Y-88791142D01*
X129177142Y-88718571D01*
X129032000Y-88646000D01*
X128741714Y-88646000D01*
X128596571Y-88718571D01*
X128524000Y-88791142D01*
X128451428Y-88936285D01*
X130265714Y-88065428D02*
X130410857Y-88065428D01*
X130556000Y-88138000D01*
X130628571Y-88210571D01*
X130701142Y-88355714D01*
X130773714Y-88646000D01*
X130773714Y-89008857D01*
X130701142Y-89299142D01*
X130628571Y-89444285D01*
X130556000Y-89516857D01*
X130410857Y-89589428D01*
X130265714Y-89589428D01*
X130120571Y-89516857D01*
X130048000Y-89444285D01*
X129975428Y-89299142D01*
X129902857Y-89008857D01*
X129902857Y-88646000D01*
X129975428Y-88355714D01*
X130048000Y-88210571D01*
X130120571Y-88138000D01*
X130265714Y-88065428D01*
X132225142Y-89589428D02*
X131354285Y-89589428D01*
X131789714Y-89589428D02*
X131789714Y-88065428D01*
X131644571Y-88283142D01*
X131499428Y-88428285D01*
X131354285Y-88500857D01*
X78268285Y-94669428D02*
X77760285Y-93943714D01*
X77397428Y-94669428D02*
X77397428Y-93145428D01*
X77978000Y-93145428D01*
X78123142Y-93218000D01*
X78195714Y-93290571D01*
X78268285Y-93435714D01*
X78268285Y-93653428D01*
X78195714Y-93798571D01*
X78123142Y-93871142D01*
X77978000Y-93943714D01*
X77397428Y-93943714D01*
X78921428Y-93871142D02*
X79429428Y-93871142D01*
X79647142Y-94669428D02*
X78921428Y-94669428D01*
X78921428Y-93145428D01*
X79647142Y-93145428D01*
X81026000Y-94669428D02*
X80300285Y-94669428D01*
X80300285Y-93145428D01*
X82259714Y-93145428D02*
X81534000Y-93145428D01*
X81461428Y-93871142D01*
X81534000Y-93798571D01*
X81679142Y-93726000D01*
X82042000Y-93726000D01*
X82187142Y-93798571D01*
X82259714Y-93871142D01*
X82332285Y-94016285D01*
X82332285Y-94379142D01*
X82259714Y-94524285D01*
X82187142Y-94596857D01*
X82042000Y-94669428D01*
X81679142Y-94669428D01*
X81534000Y-94596857D01*
X81461428Y-94524285D01*
X83275714Y-93145428D02*
X83420857Y-93145428D01*
X83566000Y-93218000D01*
X83638571Y-93290571D01*
X83711142Y-93435714D01*
X83783714Y-93726000D01*
X83783714Y-94088857D01*
X83711142Y-94379142D01*
X83638571Y-94524285D01*
X83566000Y-94596857D01*
X83420857Y-94669428D01*
X83275714Y-94669428D01*
X83130571Y-94596857D01*
X83058000Y-94524285D01*
X82985428Y-94379142D01*
X82912857Y-94088857D01*
X82912857Y-93726000D01*
X82985428Y-93435714D01*
X83058000Y-93290571D01*
X83130571Y-93218000D01*
X83275714Y-93145428D01*
X84364285Y-93290571D02*
X84436857Y-93218000D01*
X84582000Y-93145428D01*
X84944857Y-93145428D01*
X85090000Y-93218000D01*
X85162571Y-93290571D01*
X85235142Y-93435714D01*
X85235142Y-93580857D01*
X85162571Y-93798571D01*
X84291714Y-94669428D01*
X85235142Y-94669428D01*
X125258285Y-102289428D02*
X124750285Y-101563714D01*
X124387428Y-102289428D02*
X124387428Y-100765428D01*
X124968000Y-100765428D01*
X125113142Y-100838000D01*
X125185714Y-100910571D01*
X125258285Y-101055714D01*
X125258285Y-101273428D01*
X125185714Y-101418571D01*
X125113142Y-101491142D01*
X124968000Y-101563714D01*
X124387428Y-101563714D01*
X125911428Y-101491142D02*
X126419428Y-101491142D01*
X126637142Y-102289428D02*
X125911428Y-102289428D01*
X125911428Y-100765428D01*
X126637142Y-100765428D01*
X128016000Y-102289428D02*
X127290285Y-102289428D01*
X127290285Y-100765428D01*
X129249714Y-100765428D02*
X128524000Y-100765428D01*
X128451428Y-101491142D01*
X128524000Y-101418571D01*
X128669142Y-101346000D01*
X129032000Y-101346000D01*
X129177142Y-101418571D01*
X129249714Y-101491142D01*
X129322285Y-101636285D01*
X129322285Y-101999142D01*
X129249714Y-102144285D01*
X129177142Y-102216857D01*
X129032000Y-102289428D01*
X128669142Y-102289428D01*
X128524000Y-102216857D01*
X128451428Y-102144285D01*
X130265714Y-100765428D02*
X130410857Y-100765428D01*
X130556000Y-100838000D01*
X130628571Y-100910571D01*
X130701142Y-101055714D01*
X130773714Y-101346000D01*
X130773714Y-101708857D01*
X130701142Y-101999142D01*
X130628571Y-102144285D01*
X130556000Y-102216857D01*
X130410857Y-102289428D01*
X130265714Y-102289428D01*
X130120571Y-102216857D01*
X130048000Y-102144285D01*
X129975428Y-101999142D01*
X129902857Y-101708857D01*
X129902857Y-101346000D01*
X129975428Y-101055714D01*
X130048000Y-100910571D01*
X130120571Y-100838000D01*
X130265714Y-100765428D01*
X132225142Y-102289428D02*
X131354285Y-102289428D01*
X131789714Y-102289428D02*
X131789714Y-100765428D01*
X131644571Y-100983142D01*
X131499428Y-101128285D01*
X131354285Y-101200857D01*
X78268285Y-107369428D02*
X77760285Y-106643714D01*
X77397428Y-107369428D02*
X77397428Y-105845428D01*
X77978000Y-105845428D01*
X78123142Y-105918000D01*
X78195714Y-105990571D01*
X78268285Y-106135714D01*
X78268285Y-106353428D01*
X78195714Y-106498571D01*
X78123142Y-106571142D01*
X77978000Y-106643714D01*
X77397428Y-106643714D01*
X78921428Y-106571142D02*
X79429428Y-106571142D01*
X79647142Y-107369428D02*
X78921428Y-107369428D01*
X78921428Y-105845428D01*
X79647142Y-105845428D01*
X81026000Y-107369428D02*
X80300285Y-107369428D01*
X80300285Y-105845428D01*
X82187142Y-106353428D02*
X82187142Y-107369428D01*
X81824285Y-105772857D02*
X81461428Y-106861428D01*
X82404857Y-106861428D01*
X83275714Y-105845428D02*
X83420857Y-105845428D01*
X83566000Y-105918000D01*
X83638571Y-105990571D01*
X83711142Y-106135714D01*
X83783714Y-106426000D01*
X83783714Y-106788857D01*
X83711142Y-107079142D01*
X83638571Y-107224285D01*
X83566000Y-107296857D01*
X83420857Y-107369428D01*
X83275714Y-107369428D01*
X83130571Y-107296857D01*
X83058000Y-107224285D01*
X82985428Y-107079142D01*
X82912857Y-106788857D01*
X82912857Y-106426000D01*
X82985428Y-106135714D01*
X83058000Y-105990571D01*
X83130571Y-105918000D01*
X83275714Y-105845428D01*
X84364285Y-105990571D02*
X84436857Y-105918000D01*
X84582000Y-105845428D01*
X84944857Y-105845428D01*
X85090000Y-105918000D01*
X85162571Y-105990571D01*
X85235142Y-106135714D01*
X85235142Y-106280857D01*
X85162571Y-106498571D01*
X84291714Y-107369428D01*
X85235142Y-107369428D01*
X125258285Y-114989428D02*
X124750285Y-114263714D01*
X124387428Y-114989428D02*
X124387428Y-113465428D01*
X124968000Y-113465428D01*
X125113142Y-113538000D01*
X125185714Y-113610571D01*
X125258285Y-113755714D01*
X125258285Y-113973428D01*
X125185714Y-114118571D01*
X125113142Y-114191142D01*
X124968000Y-114263714D01*
X124387428Y-114263714D01*
X125911428Y-114191142D02*
X126419428Y-114191142D01*
X126637142Y-114989428D02*
X125911428Y-114989428D01*
X125911428Y-113465428D01*
X126637142Y-113465428D01*
X128016000Y-114989428D02*
X127290285Y-114989428D01*
X127290285Y-113465428D01*
X129177142Y-113973428D02*
X129177142Y-114989428D01*
X128814285Y-113392857D02*
X128451428Y-114481428D01*
X129394857Y-114481428D01*
X130265714Y-113465428D02*
X130410857Y-113465428D01*
X130556000Y-113538000D01*
X130628571Y-113610571D01*
X130701142Y-113755714D01*
X130773714Y-114046000D01*
X130773714Y-114408857D01*
X130701142Y-114699142D01*
X130628571Y-114844285D01*
X130556000Y-114916857D01*
X130410857Y-114989428D01*
X130265714Y-114989428D01*
X130120571Y-114916857D01*
X130048000Y-114844285D01*
X129975428Y-114699142D01*
X129902857Y-114408857D01*
X129902857Y-114046000D01*
X129975428Y-113755714D01*
X130048000Y-113610571D01*
X130120571Y-113538000D01*
X130265714Y-113465428D01*
X132225142Y-114989428D02*
X131354285Y-114989428D01*
X131789714Y-114989428D02*
X131789714Y-113465428D01*
X131644571Y-113683142D01*
X131499428Y-113828285D01*
X131354285Y-113900857D01*
X78268285Y-120069428D02*
X77760285Y-119343714D01*
X77397428Y-120069428D02*
X77397428Y-118545428D01*
X77978000Y-118545428D01*
X78123142Y-118618000D01*
X78195714Y-118690571D01*
X78268285Y-118835714D01*
X78268285Y-119053428D01*
X78195714Y-119198571D01*
X78123142Y-119271142D01*
X77978000Y-119343714D01*
X77397428Y-119343714D01*
X78921428Y-119271142D02*
X79429428Y-119271142D01*
X79647142Y-120069428D02*
X78921428Y-120069428D01*
X78921428Y-118545428D01*
X79647142Y-118545428D01*
X81026000Y-120069428D02*
X80300285Y-120069428D01*
X80300285Y-118545428D01*
X81388857Y-118545428D02*
X82332285Y-118545428D01*
X81824285Y-119126000D01*
X82042000Y-119126000D01*
X82187142Y-119198571D01*
X82259714Y-119271142D01*
X82332285Y-119416285D01*
X82332285Y-119779142D01*
X82259714Y-119924285D01*
X82187142Y-119996857D01*
X82042000Y-120069428D01*
X81606571Y-120069428D01*
X81461428Y-119996857D01*
X81388857Y-119924285D01*
X83275714Y-118545428D02*
X83420857Y-118545428D01*
X83566000Y-118618000D01*
X83638571Y-118690571D01*
X83711142Y-118835714D01*
X83783714Y-119126000D01*
X83783714Y-119488857D01*
X83711142Y-119779142D01*
X83638571Y-119924285D01*
X83566000Y-119996857D01*
X83420857Y-120069428D01*
X83275714Y-120069428D01*
X83130571Y-119996857D01*
X83058000Y-119924285D01*
X82985428Y-119779142D01*
X82912857Y-119488857D01*
X82912857Y-119126000D01*
X82985428Y-118835714D01*
X83058000Y-118690571D01*
X83130571Y-118618000D01*
X83275714Y-118545428D01*
X84364285Y-118690571D02*
X84436857Y-118618000D01*
X84582000Y-118545428D01*
X84944857Y-118545428D01*
X85090000Y-118618000D01*
X85162571Y-118690571D01*
X85235142Y-118835714D01*
X85235142Y-118980857D01*
X85162571Y-119198571D01*
X84291714Y-120069428D01*
X85235142Y-120069428D01*
X125258285Y-127689428D02*
X124750285Y-126963714D01*
X124387428Y-127689428D02*
X124387428Y-126165428D01*
X124968000Y-126165428D01*
X125113142Y-126238000D01*
X125185714Y-126310571D01*
X125258285Y-126455714D01*
X125258285Y-126673428D01*
X125185714Y-126818571D01*
X125113142Y-126891142D01*
X124968000Y-126963714D01*
X124387428Y-126963714D01*
X125911428Y-126891142D02*
X126419428Y-126891142D01*
X126637142Y-127689428D02*
X125911428Y-127689428D01*
X125911428Y-126165428D01*
X126637142Y-126165428D01*
X128016000Y-127689428D02*
X127290285Y-127689428D01*
X127290285Y-126165428D01*
X128378857Y-126165428D02*
X129322285Y-126165428D01*
X128814285Y-126746000D01*
X129032000Y-126746000D01*
X129177142Y-126818571D01*
X129249714Y-126891142D01*
X129322285Y-127036285D01*
X129322285Y-127399142D01*
X129249714Y-127544285D01*
X129177142Y-127616857D01*
X129032000Y-127689428D01*
X128596571Y-127689428D01*
X128451428Y-127616857D01*
X128378857Y-127544285D01*
X130265714Y-126165428D02*
X130410857Y-126165428D01*
X130556000Y-126238000D01*
X130628571Y-126310571D01*
X130701142Y-126455714D01*
X130773714Y-126746000D01*
X130773714Y-127108857D01*
X130701142Y-127399142D01*
X130628571Y-127544285D01*
X130556000Y-127616857D01*
X130410857Y-127689428D01*
X130265714Y-127689428D01*
X130120571Y-127616857D01*
X130048000Y-127544285D01*
X129975428Y-127399142D01*
X129902857Y-127108857D01*
X129902857Y-126746000D01*
X129975428Y-126455714D01*
X130048000Y-126310571D01*
X130120571Y-126238000D01*
X130265714Y-126165428D01*
X132225142Y-127689428D02*
X131354285Y-127689428D01*
X131789714Y-127689428D02*
X131789714Y-126165428D01*
X131644571Y-126383142D01*
X131499428Y-126528285D01*
X131354285Y-126600857D01*
X78268285Y-132769428D02*
X77760285Y-132043714D01*
X77397428Y-132769428D02*
X77397428Y-131245428D01*
X77978000Y-131245428D01*
X78123142Y-131318000D01*
X78195714Y-131390571D01*
X78268285Y-131535714D01*
X78268285Y-131753428D01*
X78195714Y-131898571D01*
X78123142Y-131971142D01*
X77978000Y-132043714D01*
X77397428Y-132043714D01*
X78921428Y-131971142D02*
X79429428Y-131971142D01*
X79647142Y-132769428D02*
X78921428Y-132769428D01*
X78921428Y-131245428D01*
X79647142Y-131245428D01*
X81026000Y-132769428D02*
X80300285Y-132769428D01*
X80300285Y-131245428D01*
X81461428Y-131390571D02*
X81534000Y-131318000D01*
X81679142Y-131245428D01*
X82042000Y-131245428D01*
X82187142Y-131318000D01*
X82259714Y-131390571D01*
X82332285Y-131535714D01*
X82332285Y-131680857D01*
X82259714Y-131898571D01*
X81388857Y-132769428D01*
X82332285Y-132769428D01*
X83275714Y-131245428D02*
X83420857Y-131245428D01*
X83566000Y-131318000D01*
X83638571Y-131390571D01*
X83711142Y-131535714D01*
X83783714Y-131826000D01*
X83783714Y-132188857D01*
X83711142Y-132479142D01*
X83638571Y-132624285D01*
X83566000Y-132696857D01*
X83420857Y-132769428D01*
X83275714Y-132769428D01*
X83130571Y-132696857D01*
X83058000Y-132624285D01*
X82985428Y-132479142D01*
X82912857Y-132188857D01*
X82912857Y-131826000D01*
X82985428Y-131535714D01*
X83058000Y-131390571D01*
X83130571Y-131318000D01*
X83275714Y-131245428D01*
X84364285Y-131390571D02*
X84436857Y-131318000D01*
X84582000Y-131245428D01*
X84944857Y-131245428D01*
X85090000Y-131318000D01*
X85162571Y-131390571D01*
X85235142Y-131535714D01*
X85235142Y-131680857D01*
X85162571Y-131898571D01*
X84291714Y-132769428D01*
X85235142Y-132769428D01*
X125258285Y-140389428D02*
X124750285Y-139663714D01*
X124387428Y-140389428D02*
X124387428Y-138865428D01*
X124968000Y-138865428D01*
X125113142Y-138938000D01*
X125185714Y-139010571D01*
X125258285Y-139155714D01*
X125258285Y-139373428D01*
X125185714Y-139518571D01*
X125113142Y-139591142D01*
X124968000Y-139663714D01*
X124387428Y-139663714D01*
X125911428Y-139591142D02*
X126419428Y-139591142D01*
X126637142Y-140389428D02*
X125911428Y-140389428D01*
X125911428Y-138865428D01*
X126637142Y-138865428D01*
X128016000Y-140389428D02*
X127290285Y-140389428D01*
X127290285Y-138865428D01*
X128451428Y-139010571D02*
X128524000Y-138938000D01*
X128669142Y-138865428D01*
X129032000Y-138865428D01*
X129177142Y-138938000D01*
X129249714Y-139010571D01*
X129322285Y-139155714D01*
X129322285Y-139300857D01*
X129249714Y-139518571D01*
X128378857Y-140389428D01*
X129322285Y-140389428D01*
X130265714Y-138865428D02*
X130410857Y-138865428D01*
X130556000Y-138938000D01*
X130628571Y-139010571D01*
X130701142Y-139155714D01*
X130773714Y-139446000D01*
X130773714Y-139808857D01*
X130701142Y-140099142D01*
X130628571Y-140244285D01*
X130556000Y-140316857D01*
X130410857Y-140389428D01*
X130265714Y-140389428D01*
X130120571Y-140316857D01*
X130048000Y-140244285D01*
X129975428Y-140099142D01*
X129902857Y-139808857D01*
X129902857Y-139446000D01*
X129975428Y-139155714D01*
X130048000Y-139010571D01*
X130120571Y-138938000D01*
X130265714Y-138865428D01*
X132225142Y-140389428D02*
X131354285Y-140389428D01*
X131789714Y-140389428D02*
X131789714Y-138865428D01*
X131644571Y-139083142D01*
X131499428Y-139228285D01*
X131354285Y-139300857D01*
X78268285Y-56569428D02*
X77760285Y-55843714D01*
X77397428Y-56569428D02*
X77397428Y-55045428D01*
X77978000Y-55045428D01*
X78123142Y-55118000D01*
X78195714Y-55190571D01*
X78268285Y-55335714D01*
X78268285Y-55553428D01*
X78195714Y-55698571D01*
X78123142Y-55771142D01*
X77978000Y-55843714D01*
X77397428Y-55843714D01*
X78921428Y-55771142D02*
X79429428Y-55771142D01*
X79647142Y-56569428D02*
X78921428Y-56569428D01*
X78921428Y-55045428D01*
X79647142Y-55045428D01*
X81026000Y-56569428D02*
X80300285Y-56569428D01*
X80300285Y-55045428D01*
X82332285Y-56569428D02*
X81461428Y-56569428D01*
X81896857Y-56569428D02*
X81896857Y-55045428D01*
X81751714Y-55263142D01*
X81606571Y-55408285D01*
X81461428Y-55480857D01*
X83275714Y-55045428D02*
X83420857Y-55045428D01*
X83566000Y-55118000D01*
X83638571Y-55190571D01*
X83711142Y-55335714D01*
X83783714Y-55626000D01*
X83783714Y-55988857D01*
X83711142Y-56279142D01*
X83638571Y-56424285D01*
X83566000Y-56496857D01*
X83420857Y-56569428D01*
X83275714Y-56569428D01*
X83130571Y-56496857D01*
X83058000Y-56424285D01*
X82985428Y-56279142D01*
X82912857Y-55988857D01*
X82912857Y-55626000D01*
X82985428Y-55335714D01*
X83058000Y-55190571D01*
X83130571Y-55118000D01*
X83275714Y-55045428D01*
X85235142Y-56569428D02*
X84364285Y-56569428D01*
X84799714Y-56569428D02*
X84799714Y-55045428D01*
X84654571Y-55263142D01*
X84509428Y-55408285D01*
X84364285Y-55480857D01*
D12*
X140259404Y-100363261D02*
X140047738Y-100060880D01*
X139896547Y-100363261D02*
X139896547Y-99728261D01*
X140138452Y-99728261D01*
X140198928Y-99758500D01*
X140229166Y-99788738D01*
X140259404Y-99849214D01*
X140259404Y-99939928D01*
X140229166Y-100000404D01*
X140198928Y-100030642D01*
X140138452Y-100060880D01*
X139896547Y-100060880D01*
X140864166Y-100363261D02*
X140501309Y-100363261D01*
X140682738Y-100363261D02*
X140682738Y-99728261D01*
X140622261Y-99818976D01*
X140561785Y-99879452D01*
X140501309Y-99909690D01*
X141257261Y-99728261D02*
X141317738Y-99728261D01*
X141378214Y-99758500D01*
X141408452Y-99788738D01*
X141438690Y-99849214D01*
X141468928Y-99970166D01*
X141468928Y-100121357D01*
X141438690Y-100242309D01*
X141408452Y-100302785D01*
X141378214Y-100333023D01*
X141317738Y-100363261D01*
X141257261Y-100363261D01*
X141196785Y-100333023D01*
X141166547Y-100302785D01*
X141136309Y-100242309D01*
X141106071Y-100121357D01*
X141106071Y-99970166D01*
X141136309Y-99849214D01*
X141166547Y-99788738D01*
X141196785Y-99758500D01*
X141257261Y-99728261D01*
X141680595Y-99728261D02*
X142073690Y-99728261D01*
X141862023Y-99970166D01*
X141952738Y-99970166D01*
X142013214Y-100000404D01*
X142043452Y-100030642D01*
X142073690Y-100091119D01*
X142073690Y-100242309D01*
X142043452Y-100302785D01*
X142013214Y-100333023D01*
X141952738Y-100363261D01*
X141771309Y-100363261D01*
X141710833Y-100333023D01*
X141680595Y-100302785D01*
D10*
X150365097Y-64643725D02*
X150292525Y-64716297D01*
X150074811Y-64788868D01*
X149929668Y-64788868D01*
X149711954Y-64716297D01*
X149566811Y-64571154D01*
X149494240Y-64426011D01*
X149421668Y-64135725D01*
X149421668Y-63918011D01*
X149494240Y-63627725D01*
X149566811Y-63482582D01*
X149711954Y-63337440D01*
X149929668Y-63264868D01*
X150074811Y-63264868D01*
X150292525Y-63337440D01*
X150365097Y-63410011D01*
X151308525Y-63264868D02*
X151598811Y-63264868D01*
X151743954Y-63337440D01*
X151889097Y-63482582D01*
X151961668Y-63772868D01*
X151961668Y-64280868D01*
X151889097Y-64571154D01*
X151743954Y-64716297D01*
X151598811Y-64788868D01*
X151308525Y-64788868D01*
X151163382Y-64716297D01*
X151018240Y-64571154D01*
X150945668Y-64280868D01*
X150945668Y-63772868D01*
X151018240Y-63482582D01*
X151163382Y-63337440D01*
X151308525Y-63264868D01*
X152614811Y-64788868D02*
X152614811Y-63264868D01*
X153485668Y-64788868D01*
X153485668Y-63264868D01*
X154211382Y-64788868D02*
X154211382Y-63264868D01*
X155082240Y-64788868D01*
X155082240Y-63264868D01*
X155445097Y-64934011D02*
X156606240Y-64934011D01*
X156823954Y-63264868D02*
X157767382Y-63264868D01*
X157259382Y-63845440D01*
X157477097Y-63845440D01*
X157622240Y-63918011D01*
X157694811Y-63990582D01*
X157767382Y-64135725D01*
X157767382Y-64498582D01*
X157694811Y-64643725D01*
X157622240Y-64716297D01*
X157477097Y-64788868D01*
X157041668Y-64788868D01*
X156896525Y-64716297D01*
X156823954Y-64643725D01*
X159218811Y-64788868D02*
X158347954Y-64788868D01*
X158783382Y-64788868D02*
X158783382Y-63264868D01*
X158638240Y-63482582D01*
X158493097Y-63627725D01*
X158347954Y-63700297D01*
X81334428Y-67981285D02*
X79810428Y-67981285D01*
X81334428Y-67110428D02*
X80463571Y-67763571D01*
X79810428Y-67110428D02*
X80681285Y-67981285D01*
X81334428Y-65659000D02*
X81334428Y-66529857D01*
X81334428Y-66094428D02*
X79810428Y-66094428D01*
X80028142Y-66239571D01*
X80173285Y-66384714D01*
X80245857Y-66529857D01*
X79810428Y-64715571D02*
X79810428Y-64570428D01*
X79883000Y-64425285D01*
X79955571Y-64352714D01*
X80100714Y-64280142D01*
X80391000Y-64207571D01*
X80753857Y-64207571D01*
X81044142Y-64280142D01*
X81189285Y-64352714D01*
X81261857Y-64425285D01*
X81334428Y-64570428D01*
X81334428Y-64715571D01*
X81261857Y-64860714D01*
X81189285Y-64933285D01*
X81044142Y-65005857D01*
X80753857Y-65078428D01*
X80391000Y-65078428D01*
X80100714Y-65005857D01*
X79955571Y-64933285D01*
X79883000Y-64860714D01*
X79810428Y-64715571D01*
X81334428Y-62756142D02*
X81334428Y-63627000D01*
X81334428Y-63191571D02*
X79810428Y-63191571D01*
X80028142Y-63336714D01*
X80173285Y-63481857D01*
X80245857Y-63627000D01*
X78649285Y-64915142D02*
X78721857Y-64987714D01*
X78794428Y-65205428D01*
X78794428Y-65350571D01*
X78721857Y-65568285D01*
X78576714Y-65713428D01*
X78431571Y-65786000D01*
X78141285Y-65858571D01*
X77923571Y-65858571D01*
X77633285Y-65786000D01*
X77488142Y-65713428D01*
X77343000Y-65568285D01*
X77270428Y-65350571D01*
X77270428Y-65205428D01*
X77343000Y-64987714D01*
X77415571Y-64915142D01*
X77270428Y-63971714D02*
X77270428Y-63681428D01*
X77343000Y-63536285D01*
X77488142Y-63391142D01*
X77778428Y-63318571D01*
X78286428Y-63318571D01*
X78576714Y-63391142D01*
X78721857Y-63536285D01*
X78794428Y-63681428D01*
X78794428Y-63971714D01*
X78721857Y-64116857D01*
X78576714Y-64262000D01*
X78286428Y-64334571D01*
X77778428Y-64334571D01*
X77488142Y-64262000D01*
X77343000Y-64116857D01*
X77270428Y-63971714D01*
X78794428Y-62665428D02*
X77270428Y-62665428D01*
X78794428Y-61794571D01*
X77270428Y-61794571D01*
X78794428Y-61068857D02*
X77270428Y-61068857D01*
X78794428Y-60198000D01*
X77270428Y-60198000D01*
X78939571Y-59835142D02*
X78939571Y-58674000D01*
X77270428Y-58456285D02*
X77270428Y-57512857D01*
X77851000Y-58020857D01*
X77851000Y-57803142D01*
X77923571Y-57658000D01*
X77996142Y-57585428D01*
X78141285Y-57512857D01*
X78504142Y-57512857D01*
X78649285Y-57585428D01*
X78721857Y-57658000D01*
X78794428Y-57803142D01*
X78794428Y-58238571D01*
X78721857Y-58383714D01*
X78649285Y-58456285D01*
X78794428Y-56061428D02*
X78794428Y-56932285D01*
X78794428Y-56496857D02*
X77270428Y-56496857D01*
X77488142Y-56642000D01*
X77633285Y-56787142D01*
X77705857Y-56932285D01*
D12*
X134955642Y-89867619D02*
X134955642Y-88851619D01*
X136153071Y-89770857D02*
X136098642Y-89819238D01*
X135935357Y-89867619D01*
X135826500Y-89867619D01*
X135663214Y-89819238D01*
X135554357Y-89722476D01*
X135499928Y-89625714D01*
X135445500Y-89432190D01*
X135445500Y-89287047D01*
X135499928Y-89093523D01*
X135554357Y-88996761D01*
X135663214Y-88900000D01*
X135826500Y-88851619D01*
X135935357Y-88851619D01*
X136098642Y-88900000D01*
X136153071Y-88948380D01*
X137241642Y-89867619D02*
X136588500Y-89867619D01*
X136915071Y-89867619D02*
X136915071Y-88851619D01*
X136806214Y-88996761D01*
X136697357Y-89093523D01*
X136588500Y-89141904D01*
X137949214Y-88851619D02*
X138058071Y-88851619D01*
X138166928Y-88900000D01*
X138221357Y-88948380D01*
X138275785Y-89045142D01*
X138330214Y-89238666D01*
X138330214Y-89480571D01*
X138275785Y-89674095D01*
X138221357Y-89770857D01*
X138166928Y-89819238D01*
X138058071Y-89867619D01*
X137949214Y-89867619D01*
X137840357Y-89819238D01*
X137785928Y-89770857D01*
X137731500Y-89674095D01*
X137677071Y-89480571D01*
X137677071Y-89238666D01*
X137731500Y-89045142D01*
X137785928Y-88948380D01*
X137840357Y-88900000D01*
X137949214Y-88851619D01*
X138765642Y-88948380D02*
X138820071Y-88900000D01*
X138928928Y-88851619D01*
X139201071Y-88851619D01*
X139309928Y-88900000D01*
X139364357Y-88948380D01*
X139418785Y-89045142D01*
X139418785Y-89141904D01*
X139364357Y-89287047D01*
X138711214Y-89867619D01*
X139418785Y-89867619D01*
X132098142Y-90375619D02*
X132751285Y-90375619D01*
X132424714Y-91391619D02*
X132424714Y-90375619D01*
X133132285Y-91391619D02*
X133132285Y-90375619D01*
X133567714Y-90375619D01*
X133676571Y-90424000D01*
X133731000Y-90472380D01*
X133785428Y-90569142D01*
X133785428Y-90714285D01*
X133731000Y-90811047D01*
X133676571Y-90859428D01*
X133567714Y-90907809D01*
X133132285Y-90907809D01*
X134275285Y-91391619D02*
X134275285Y-90375619D01*
X135472714Y-91294857D02*
X135418285Y-91343238D01*
X135255000Y-91391619D01*
X135146142Y-91391619D01*
X134982857Y-91343238D01*
X134874000Y-91246476D01*
X134819571Y-91149714D01*
X134765142Y-90956190D01*
X134765142Y-90811047D01*
X134819571Y-90617523D01*
X134874000Y-90520761D01*
X134982857Y-90424000D01*
X135146142Y-90375619D01*
X135255000Y-90375619D01*
X135418285Y-90424000D01*
X135472714Y-90472380D01*
X136452428Y-90375619D02*
X136234714Y-90375619D01*
X136125857Y-90424000D01*
X136071428Y-90472380D01*
X135962571Y-90617523D01*
X135908142Y-90811047D01*
X135908142Y-91198095D01*
X135962571Y-91294857D01*
X136017000Y-91343238D01*
X136125857Y-91391619D01*
X136343571Y-91391619D01*
X136452428Y-91343238D01*
X136506857Y-91294857D01*
X136561285Y-91198095D01*
X136561285Y-90956190D01*
X136506857Y-90859428D01*
X136452428Y-90811047D01*
X136343571Y-90762666D01*
X136125857Y-90762666D01*
X136017000Y-90811047D01*
X135962571Y-90859428D01*
X135908142Y-90956190D01*
X137704285Y-91294857D02*
X137649857Y-91343238D01*
X137486571Y-91391619D01*
X137377714Y-91391619D01*
X137214428Y-91343238D01*
X137105571Y-91246476D01*
X137051142Y-91149714D01*
X136996714Y-90956190D01*
X136996714Y-90811047D01*
X137051142Y-90617523D01*
X137105571Y-90520761D01*
X137214428Y-90424000D01*
X137377714Y-90375619D01*
X137486571Y-90375619D01*
X137649857Y-90424000D01*
X137704285Y-90472380D01*
X138738428Y-90375619D02*
X138194142Y-90375619D01*
X138139714Y-90859428D01*
X138194142Y-90811047D01*
X138303000Y-90762666D01*
X138575142Y-90762666D01*
X138684000Y-90811047D01*
X138738428Y-90859428D01*
X138792857Y-90956190D01*
X138792857Y-91198095D01*
X138738428Y-91294857D01*
X138684000Y-91343238D01*
X138575142Y-91391619D01*
X138303000Y-91391619D01*
X138194142Y-91343238D01*
X138139714Y-91294857D01*
X139337142Y-91391619D02*
X139554857Y-91391619D01*
X139663714Y-91343238D01*
X139718142Y-91294857D01*
X139827000Y-91149714D01*
X139881428Y-90956190D01*
X139881428Y-90569142D01*
X139827000Y-90472380D01*
X139772571Y-90424000D01*
X139663714Y-90375619D01*
X139446000Y-90375619D01*
X139337142Y-90424000D01*
X139282714Y-90472380D01*
X139228285Y-90569142D01*
X139228285Y-90811047D01*
X139282714Y-90907809D01*
X139337142Y-90956190D01*
X139446000Y-91004571D01*
X139663714Y-91004571D01*
X139772571Y-90956190D01*
X139827000Y-90907809D01*
X139881428Y-90811047D01*
X140861142Y-90375619D02*
X140643428Y-90375619D01*
X140534571Y-90424000D01*
X140480142Y-90472380D01*
X140371285Y-90617523D01*
X140316857Y-90811047D01*
X140316857Y-91198095D01*
X140371285Y-91294857D01*
X140425714Y-91343238D01*
X140534571Y-91391619D01*
X140752285Y-91391619D01*
X140861142Y-91343238D01*
X140915571Y-91294857D01*
X140970000Y-91198095D01*
X140970000Y-90956190D01*
X140915571Y-90859428D01*
X140861142Y-90811047D01*
X140752285Y-90762666D01*
X140534571Y-90762666D01*
X140425714Y-90811047D01*
X140371285Y-90859428D01*
X140316857Y-90956190D01*
X141459857Y-91391619D02*
X141459857Y-90375619D01*
X141732000Y-90375619D01*
X141895285Y-90424000D01*
X142004142Y-90520761D01*
X142058571Y-90617523D01*
X142113000Y-90811047D01*
X142113000Y-90956190D01*
X142058571Y-91149714D01*
X142004142Y-91246476D01*
X141895285Y-91343238D01*
X141732000Y-91391619D01*
X141459857Y-91391619D01*
X136225642Y-118061619D02*
X136225642Y-117045619D01*
X137423071Y-117964857D02*
X137368642Y-118013238D01*
X137205357Y-118061619D01*
X137096500Y-118061619D01*
X136933214Y-118013238D01*
X136824357Y-117916476D01*
X136769928Y-117819714D01*
X136715500Y-117626190D01*
X136715500Y-117481047D01*
X136769928Y-117287523D01*
X136824357Y-117190761D01*
X136933214Y-117094000D01*
X137096500Y-117045619D01*
X137205357Y-117045619D01*
X137368642Y-117094000D01*
X137423071Y-117142380D01*
X138511642Y-118061619D02*
X137858500Y-118061619D01*
X138185071Y-118061619D02*
X138185071Y-117045619D01*
X138076214Y-117190761D01*
X137967357Y-117287523D01*
X137858500Y-117335904D01*
X139219214Y-117045619D02*
X139328071Y-117045619D01*
X139436928Y-117094000D01*
X139491357Y-117142380D01*
X139545785Y-117239142D01*
X139600214Y-117432666D01*
X139600214Y-117674571D01*
X139545785Y-117868095D01*
X139491357Y-117964857D01*
X139436928Y-118013238D01*
X139328071Y-118061619D01*
X139219214Y-118061619D01*
X139110357Y-118013238D01*
X139055928Y-117964857D01*
X139001500Y-117868095D01*
X138947071Y-117674571D01*
X138947071Y-117432666D01*
X139001500Y-117239142D01*
X139055928Y-117142380D01*
X139110357Y-117094000D01*
X139219214Y-117045619D01*
X140688785Y-118061619D02*
X140035642Y-118061619D01*
X140362214Y-118061619D02*
X140362214Y-117045619D01*
X140253357Y-117190761D01*
X140144500Y-117287523D01*
X140035642Y-117335904D01*
X133368142Y-115521619D02*
X134021285Y-115521619D01*
X133694714Y-116537619D02*
X133694714Y-115521619D01*
X134402285Y-116537619D02*
X134402285Y-115521619D01*
X134837714Y-115521619D01*
X134946571Y-115570000D01*
X135001000Y-115618380D01*
X135055428Y-115715142D01*
X135055428Y-115860285D01*
X135001000Y-115957047D01*
X134946571Y-116005428D01*
X134837714Y-116053809D01*
X134402285Y-116053809D01*
X135545285Y-116537619D02*
X135545285Y-115521619D01*
X136742714Y-116440857D02*
X136688285Y-116489238D01*
X136525000Y-116537619D01*
X136416142Y-116537619D01*
X136252857Y-116489238D01*
X136144000Y-116392476D01*
X136089571Y-116295714D01*
X136035142Y-116102190D01*
X136035142Y-115957047D01*
X136089571Y-115763523D01*
X136144000Y-115666761D01*
X136252857Y-115570000D01*
X136416142Y-115521619D01*
X136525000Y-115521619D01*
X136688285Y-115570000D01*
X136742714Y-115618380D01*
X137722428Y-115521619D02*
X137504714Y-115521619D01*
X137395857Y-115570000D01*
X137341428Y-115618380D01*
X137232571Y-115763523D01*
X137178142Y-115957047D01*
X137178142Y-116344095D01*
X137232571Y-116440857D01*
X137287000Y-116489238D01*
X137395857Y-116537619D01*
X137613571Y-116537619D01*
X137722428Y-116489238D01*
X137776857Y-116440857D01*
X137831285Y-116344095D01*
X137831285Y-116102190D01*
X137776857Y-116005428D01*
X137722428Y-115957047D01*
X137613571Y-115908666D01*
X137395857Y-115908666D01*
X137287000Y-115957047D01*
X137232571Y-116005428D01*
X137178142Y-116102190D01*
X138974285Y-116440857D02*
X138919857Y-116489238D01*
X138756571Y-116537619D01*
X138647714Y-116537619D01*
X138484428Y-116489238D01*
X138375571Y-116392476D01*
X138321142Y-116295714D01*
X138266714Y-116102190D01*
X138266714Y-115957047D01*
X138321142Y-115763523D01*
X138375571Y-115666761D01*
X138484428Y-115570000D01*
X138647714Y-115521619D01*
X138756571Y-115521619D01*
X138919857Y-115570000D01*
X138974285Y-115618380D01*
X140008428Y-115521619D02*
X139464142Y-115521619D01*
X139409714Y-116005428D01*
X139464142Y-115957047D01*
X139573000Y-115908666D01*
X139845142Y-115908666D01*
X139954000Y-115957047D01*
X140008428Y-116005428D01*
X140062857Y-116102190D01*
X140062857Y-116344095D01*
X140008428Y-116440857D01*
X139954000Y-116489238D01*
X139845142Y-116537619D01*
X139573000Y-116537619D01*
X139464142Y-116489238D01*
X139409714Y-116440857D01*
X140607142Y-116537619D02*
X140824857Y-116537619D01*
X140933714Y-116489238D01*
X140988142Y-116440857D01*
X141097000Y-116295714D01*
X141151428Y-116102190D01*
X141151428Y-115715142D01*
X141097000Y-115618380D01*
X141042571Y-115570000D01*
X140933714Y-115521619D01*
X140716000Y-115521619D01*
X140607142Y-115570000D01*
X140552714Y-115618380D01*
X140498285Y-115715142D01*
X140498285Y-115957047D01*
X140552714Y-116053809D01*
X140607142Y-116102190D01*
X140716000Y-116150571D01*
X140933714Y-116150571D01*
X141042571Y-116102190D01*
X141097000Y-116053809D01*
X141151428Y-115957047D01*
X142131142Y-115521619D02*
X141913428Y-115521619D01*
X141804571Y-115570000D01*
X141750142Y-115618380D01*
X141641285Y-115763523D01*
X141586857Y-115957047D01*
X141586857Y-116344095D01*
X141641285Y-116440857D01*
X141695714Y-116489238D01*
X141804571Y-116537619D01*
X142022285Y-116537619D01*
X142131142Y-116489238D01*
X142185571Y-116440857D01*
X142240000Y-116344095D01*
X142240000Y-116102190D01*
X142185571Y-116005428D01*
X142131142Y-115957047D01*
X142022285Y-115908666D01*
X141804571Y-115908666D01*
X141695714Y-115957047D01*
X141641285Y-116005428D01*
X141586857Y-116102190D01*
X142729857Y-116537619D02*
X142729857Y-115521619D01*
X143002000Y-115521619D01*
X143165285Y-115570000D01*
X143274142Y-115666761D01*
X143328571Y-115763523D01*
X143383000Y-115957047D01*
X143383000Y-116102190D01*
X143328571Y-116295714D01*
X143274142Y-116392476D01*
X143165285Y-116489238D01*
X143002000Y-116537619D01*
X142729857Y-116537619D01*
D14*
X142602857Y-141837833D02*
X142651238Y-141880166D01*
X142699619Y-142007166D01*
X142699619Y-142091833D01*
X142651238Y-142218833D01*
X142554476Y-142303500D01*
X142457714Y-142345833D01*
X142264190Y-142388166D01*
X142119047Y-142388166D01*
X141925523Y-142345833D01*
X141828761Y-142303500D01*
X141732000Y-142218833D01*
X141683619Y-142091833D01*
X141683619Y-142007166D01*
X141732000Y-141880166D01*
X141780380Y-141837833D01*
X142699619Y-140991166D02*
X142699619Y-141499166D01*
X142699619Y-141245166D02*
X141683619Y-141245166D01*
X141828761Y-141329833D01*
X141925523Y-141414500D01*
X141973904Y-141499166D01*
X141683619Y-140440833D02*
X141683619Y-140356166D01*
X141732000Y-140271500D01*
X141780380Y-140229166D01*
X141877142Y-140186833D01*
X142070666Y-140144500D01*
X142312571Y-140144500D01*
X142506095Y-140186833D01*
X142602857Y-140229166D01*
X142651238Y-140271500D01*
X142699619Y-140356166D01*
X142699619Y-140440833D01*
X142651238Y-140525500D01*
X142602857Y-140567833D01*
X142506095Y-140610166D01*
X142312571Y-140652500D01*
X142070666Y-140652500D01*
X141877142Y-140610166D01*
X141780380Y-140567833D01*
X141732000Y-140525500D01*
X141683619Y-140440833D01*
X142022285Y-139382500D02*
X142699619Y-139382500D01*
X141635238Y-139594166D02*
X142360952Y-139805833D01*
X142360952Y-139255500D01*
X137876159Y-141964833D02*
X137876159Y-141414500D01*
X138263206Y-141710833D01*
X138263206Y-141583833D01*
X138311587Y-141499166D01*
X138359968Y-141456833D01*
X138456730Y-141414500D01*
X138698635Y-141414500D01*
X138795397Y-141456833D01*
X138843778Y-141499166D01*
X138892159Y-141583833D01*
X138892159Y-141837833D01*
X138843778Y-141922500D01*
X138795397Y-141964833D01*
X137876159Y-141118166D02*
X137876159Y-140567833D01*
X138263206Y-140864166D01*
X138263206Y-140737166D01*
X138311587Y-140652500D01*
X138359968Y-140610166D01*
X138456730Y-140567833D01*
X138698635Y-140567833D01*
X138795397Y-140610166D01*
X138843778Y-140652500D01*
X138892159Y-140737166D01*
X138892159Y-140991166D01*
X138843778Y-141075833D01*
X138795397Y-141118166D01*
X138214825Y-139805833D02*
X138892159Y-139805833D01*
X138214825Y-140186833D02*
X138747016Y-140186833D01*
X138843778Y-140144500D01*
X138892159Y-140059833D01*
X138892159Y-139932833D01*
X138843778Y-139848166D01*
X138795397Y-139805833D01*
X138538857Y-142693571D02*
X138538857Y-141532428D01*
X139119428Y-142113000D02*
X137958285Y-142113000D01*
D12*
X130274785Y-91007595D02*
X130305023Y-91037833D01*
X130335261Y-91128547D01*
X130335261Y-91189023D01*
X130305023Y-91279738D01*
X130244547Y-91340214D01*
X130184071Y-91370452D01*
X130063119Y-91400690D01*
X129972404Y-91400690D01*
X129851452Y-91370452D01*
X129790976Y-91340214D01*
X129730500Y-91279738D01*
X129700261Y-91189023D01*
X129700261Y-91128547D01*
X129730500Y-91037833D01*
X129760738Y-91007595D01*
X130335261Y-90402833D02*
X130335261Y-90765690D01*
X130335261Y-90584261D02*
X129700261Y-90584261D01*
X129790976Y-90644738D01*
X129851452Y-90705214D01*
X129881690Y-90765690D01*
X129700261Y-90009738D02*
X129700261Y-89949261D01*
X129730500Y-89888785D01*
X129760738Y-89858547D01*
X129821214Y-89828309D01*
X129942166Y-89798071D01*
X130093357Y-89798071D01*
X130214309Y-89828309D01*
X130274785Y-89858547D01*
X130305023Y-89888785D01*
X130335261Y-89949261D01*
X130335261Y-90009738D01*
X130305023Y-90070214D01*
X130274785Y-90100452D01*
X130214309Y-90130690D01*
X130093357Y-90160928D01*
X129942166Y-90160928D01*
X129821214Y-90130690D01*
X129760738Y-90100452D01*
X129730500Y-90070214D01*
X129700261Y-90009738D01*
X129760738Y-89556166D02*
X129730500Y-89525928D01*
X129700261Y-89465452D01*
X129700261Y-89314261D01*
X129730500Y-89253785D01*
X129760738Y-89223547D01*
X129821214Y-89193309D01*
X129881690Y-89193309D01*
X129972404Y-89223547D01*
X130335261Y-89586404D01*
X130335261Y-89193309D01*
X144244785Y-111073595D02*
X144275023Y-111103833D01*
X144305261Y-111194547D01*
X144305261Y-111255023D01*
X144275023Y-111345738D01*
X144214547Y-111406214D01*
X144154071Y-111436452D01*
X144033119Y-111466690D01*
X143942404Y-111466690D01*
X143821452Y-111436452D01*
X143760976Y-111406214D01*
X143700500Y-111345738D01*
X143670261Y-111255023D01*
X143670261Y-111194547D01*
X143700500Y-111103833D01*
X143730738Y-111073595D01*
X144305261Y-110468833D02*
X144305261Y-110831690D01*
X144305261Y-110650261D02*
X143670261Y-110650261D01*
X143760976Y-110710738D01*
X143821452Y-110771214D01*
X143851690Y-110831690D01*
X143670261Y-110075738D02*
X143670261Y-110015261D01*
X143700500Y-109954785D01*
X143730738Y-109924547D01*
X143791214Y-109894309D01*
X143912166Y-109864071D01*
X144063357Y-109864071D01*
X144184309Y-109894309D01*
X144244785Y-109924547D01*
X144275023Y-109954785D01*
X144305261Y-110015261D01*
X144305261Y-110075738D01*
X144275023Y-110136214D01*
X144244785Y-110166452D01*
X144184309Y-110196690D01*
X144063357Y-110226928D01*
X143912166Y-110226928D01*
X143791214Y-110196690D01*
X143730738Y-110166452D01*
X143700500Y-110136214D01*
X143670261Y-110075738D01*
X144305261Y-109259309D02*
X144305261Y-109622166D01*
X144305261Y-109440738D02*
X143670261Y-109440738D01*
X143760976Y-109501214D01*
X143821452Y-109561690D01*
X143851690Y-109622166D01*
M02*
