G04 #@! TF.GenerationSoftware,KiCad,Pcbnew,(6.0.7)*
G04 #@! TF.CreationDate,2024-05-12T15:56:34+02:00*
G04 #@! TF.ProjectId,sbk6ac,73626b36-6163-42e6-9b69-6361645f7063,0432 -*
G04 #@! TF.SameCoordinates,Original*
G04 #@! TF.FileFunction,Legend,Top*
G04 #@! TF.FilePolarity,Positive*
%FSLAX46Y46*%
G04 Gerber Fmt 4.6, Leading zero omitted, Abs format (unit mm)*
G04 Created by KiCad (PCBNEW (6.0.7)) date 2024-05-12 15:56:34*
%MOMM*%
%LPD*%
G01*
G04 APERTURE LIST*
%ADD10C,0.304800*%
%ADD11C,0.203200*%
%ADD12C,0.127000*%
%ADD13C,0.254000*%
%ADD14C,0.381000*%
%ADD15C,1.778000*%
%ADD16C,2.199640*%
%ADD17C,3.500120*%
%ADD18R,5.999480X1.998980*%
%ADD19R,1.397000X1.397000*%
%ADD20C,1.397000*%
%ADD21R,1.651000X1.651000*%
%ADD22C,1.651000*%
G04 APERTURE END LIST*
D10*
X139409714Y-57337476D02*
X139627428Y-57434238D01*
X139990285Y-57434238D01*
X140135428Y-57337476D01*
X140208000Y-57240714D01*
X140280571Y-57047190D01*
X140280571Y-56853666D01*
X140208000Y-56660142D01*
X140135428Y-56563380D01*
X139990285Y-56466619D01*
X139700000Y-56369857D01*
X139554857Y-56273095D01*
X139482285Y-56176333D01*
X139409714Y-55982809D01*
X139409714Y-55789285D01*
X139482285Y-55595761D01*
X139554857Y-55499000D01*
X139700000Y-55402238D01*
X140062857Y-55402238D01*
X140280571Y-55499000D01*
X141441714Y-56369857D02*
X141659428Y-56466619D01*
X141732000Y-56563380D01*
X141804571Y-56756904D01*
X141804571Y-57047190D01*
X141732000Y-57240714D01*
X141659428Y-57337476D01*
X141514285Y-57434238D01*
X140933714Y-57434238D01*
X140933714Y-55402238D01*
X141441714Y-55402238D01*
X141586857Y-55499000D01*
X141659428Y-55595761D01*
X141732000Y-55789285D01*
X141732000Y-55982809D01*
X141659428Y-56176333D01*
X141586857Y-56273095D01*
X141441714Y-56369857D01*
X140933714Y-56369857D01*
X142457714Y-57434238D02*
X142457714Y-55402238D01*
X143328571Y-57434238D02*
X142675428Y-56273095D01*
X143328571Y-55402238D02*
X142457714Y-56563380D01*
X144634857Y-55402238D02*
X144344571Y-55402238D01*
X144199428Y-55499000D01*
X144126857Y-55595761D01*
X143981714Y-55886047D01*
X143909142Y-56273095D01*
X143909142Y-57047190D01*
X143981714Y-57240714D01*
X144054285Y-57337476D01*
X144199428Y-57434238D01*
X144489714Y-57434238D01*
X144634857Y-57337476D01*
X144707428Y-57240714D01*
X144780000Y-57047190D01*
X144780000Y-56563380D01*
X144707428Y-56369857D01*
X144634857Y-56273095D01*
X144489714Y-56176333D01*
X144199428Y-56176333D01*
X144054285Y-56273095D01*
X143981714Y-56369857D01*
X143909142Y-56563380D01*
X145360571Y-56853666D02*
X146086285Y-56853666D01*
X145215428Y-57434238D02*
X145723428Y-55402238D01*
X146231428Y-57434238D01*
X147610285Y-57240714D02*
X147537714Y-57337476D01*
X147320000Y-57434238D01*
X147174857Y-57434238D01*
X146957142Y-57337476D01*
X146812000Y-57143952D01*
X146739428Y-56950428D01*
X146666857Y-56563380D01*
X146666857Y-56273095D01*
X146739428Y-55886047D01*
X146812000Y-55692523D01*
X146957142Y-55499000D01*
X147174857Y-55402238D01*
X147320000Y-55402238D01*
X147537714Y-55499000D01*
X147610285Y-55595761D01*
X68688857Y-150779238D02*
X68688857Y-148747238D01*
X69196857Y-150198666D01*
X69704857Y-148747238D01*
X69704857Y-150779238D01*
X70212857Y-148747238D02*
X70720857Y-150779238D01*
X71228857Y-148747238D01*
X150694571Y-55595761D02*
X150767142Y-55499000D01*
X150912285Y-55402238D01*
X151275142Y-55402238D01*
X151420285Y-55499000D01*
X151492857Y-55595761D01*
X151565428Y-55789285D01*
X151565428Y-55982809D01*
X151492857Y-56273095D01*
X150622000Y-57434238D01*
X151565428Y-57434238D01*
X152508857Y-55402238D02*
X152654000Y-55402238D01*
X152799142Y-55499000D01*
X152871714Y-55595761D01*
X152944285Y-55789285D01*
X153016857Y-56176333D01*
X153016857Y-56660142D01*
X152944285Y-57047190D01*
X152871714Y-57240714D01*
X152799142Y-57337476D01*
X152654000Y-57434238D01*
X152508857Y-57434238D01*
X152363714Y-57337476D01*
X152291142Y-57240714D01*
X152218571Y-57047190D01*
X152146000Y-56660142D01*
X152146000Y-56176333D01*
X152218571Y-55789285D01*
X152291142Y-55595761D01*
X152363714Y-55499000D01*
X152508857Y-55402238D01*
X154468285Y-57434238D02*
X153597428Y-57434238D01*
X154032857Y-57434238D02*
X154032857Y-55402238D01*
X153887714Y-55692523D01*
X153742571Y-55886047D01*
X153597428Y-55982809D01*
X155774571Y-56079571D02*
X155774571Y-57434238D01*
X155411714Y-55305476D02*
X155048857Y-56756904D01*
X155992285Y-56756904D01*
X156863142Y-55402238D02*
X157008285Y-55402238D01*
X157153428Y-55499000D01*
X157226000Y-55595761D01*
X157298571Y-55789285D01*
X157371142Y-56176333D01*
X157371142Y-56660142D01*
X157298571Y-57047190D01*
X157226000Y-57240714D01*
X157153428Y-57337476D01*
X157008285Y-57434238D01*
X156863142Y-57434238D01*
X156718000Y-57337476D01*
X156645428Y-57240714D01*
X156572857Y-57047190D01*
X156500285Y-56660142D01*
X156500285Y-56176333D01*
X156572857Y-55789285D01*
X156645428Y-55595761D01*
X156718000Y-55499000D01*
X156863142Y-55402238D01*
X157951714Y-55595761D02*
X158024285Y-55499000D01*
X158169428Y-55402238D01*
X158532285Y-55402238D01*
X158677428Y-55499000D01*
X158750000Y-55595761D01*
X158822571Y-55789285D01*
X158822571Y-55982809D01*
X158750000Y-56273095D01*
X157879142Y-57434238D01*
X158822571Y-57434238D01*
X160274000Y-57434238D02*
X159403142Y-57434238D01*
X159838571Y-57434238D02*
X159838571Y-55402238D01*
X159693428Y-55692523D01*
X159548285Y-55886047D01*
X159403142Y-55982809D01*
X161580285Y-55402238D02*
X161290000Y-55402238D01*
X161144857Y-55499000D01*
X161072285Y-55595761D01*
X160927142Y-55886047D01*
X160854571Y-56273095D01*
X160854571Y-57047190D01*
X160927142Y-57240714D01*
X160999714Y-57337476D01*
X161144857Y-57434238D01*
X161435142Y-57434238D01*
X161580285Y-57337476D01*
X161652857Y-57240714D01*
X161725428Y-57047190D01*
X161725428Y-56563380D01*
X161652857Y-56369857D01*
X161580285Y-56273095D01*
X161435142Y-56176333D01*
X161144857Y-56176333D01*
X160999714Y-56273095D01*
X160927142Y-56369857D01*
X160854571Y-56563380D01*
X113838285Y-136589428D02*
X113330285Y-135863714D01*
X112967428Y-136589428D02*
X112967428Y-135065428D01*
X113548000Y-135065428D01*
X113693142Y-135138000D01*
X113765714Y-135210571D01*
X113838285Y-135355714D01*
X113838285Y-135573428D01*
X113765714Y-135718571D01*
X113693142Y-135791142D01*
X113548000Y-135863714D01*
X112967428Y-135863714D01*
X114491428Y-135791142D02*
X114999428Y-135791142D01*
X115217142Y-136589428D02*
X114491428Y-136589428D01*
X114491428Y-135065428D01*
X115217142Y-135065428D01*
X116596000Y-136589428D02*
X115870285Y-136589428D01*
X115870285Y-135065428D01*
X117031428Y-135210571D02*
X117104000Y-135138000D01*
X117249142Y-135065428D01*
X117612000Y-135065428D01*
X117757142Y-135138000D01*
X117829714Y-135210571D01*
X117902285Y-135355714D01*
X117902285Y-135500857D01*
X117829714Y-135718571D01*
X116958857Y-136589428D01*
X117902285Y-136589428D01*
X118845714Y-135065428D02*
X118990857Y-135065428D01*
X119136000Y-135138000D01*
X119208571Y-135210571D01*
X119281142Y-135355714D01*
X119353714Y-135646000D01*
X119353714Y-136008857D01*
X119281142Y-136299142D01*
X119208571Y-136444285D01*
X119136000Y-136516857D01*
X118990857Y-136589428D01*
X118845714Y-136589428D01*
X118700571Y-136516857D01*
X118628000Y-136444285D01*
X118555428Y-136299142D01*
X118482857Y-136008857D01*
X118482857Y-135646000D01*
X118555428Y-135355714D01*
X118628000Y-135210571D01*
X118700571Y-135138000D01*
X118845714Y-135065428D01*
X120805142Y-136589428D02*
X119934285Y-136589428D01*
X120369714Y-136589428D02*
X120369714Y-135065428D01*
X120224571Y-135283142D01*
X120079428Y-135428285D01*
X119934285Y-135500857D01*
X89588285Y-136589428D02*
X89080285Y-135863714D01*
X88717428Y-136589428D02*
X88717428Y-135065428D01*
X89298000Y-135065428D01*
X89443142Y-135138000D01*
X89515714Y-135210571D01*
X89588285Y-135355714D01*
X89588285Y-135573428D01*
X89515714Y-135718571D01*
X89443142Y-135791142D01*
X89298000Y-135863714D01*
X88717428Y-135863714D01*
X90241428Y-135791142D02*
X90749428Y-135791142D01*
X90967142Y-136589428D02*
X90241428Y-136589428D01*
X90241428Y-135065428D01*
X90967142Y-135065428D01*
X92346000Y-136589428D02*
X91620285Y-136589428D01*
X91620285Y-135065428D01*
X92781428Y-135210571D02*
X92854000Y-135138000D01*
X92999142Y-135065428D01*
X93362000Y-135065428D01*
X93507142Y-135138000D01*
X93579714Y-135210571D01*
X93652285Y-135355714D01*
X93652285Y-135500857D01*
X93579714Y-135718571D01*
X92708857Y-136589428D01*
X93652285Y-136589428D01*
X94595714Y-135065428D02*
X94740857Y-135065428D01*
X94886000Y-135138000D01*
X94958571Y-135210571D01*
X95031142Y-135355714D01*
X95103714Y-135646000D01*
X95103714Y-136008857D01*
X95031142Y-136299142D01*
X94958571Y-136444285D01*
X94886000Y-136516857D01*
X94740857Y-136589428D01*
X94595714Y-136589428D01*
X94450571Y-136516857D01*
X94378000Y-136444285D01*
X94305428Y-136299142D01*
X94232857Y-136008857D01*
X94232857Y-135646000D01*
X94305428Y-135355714D01*
X94378000Y-135210571D01*
X94450571Y-135138000D01*
X94595714Y-135065428D01*
X95684285Y-135210571D02*
X95756857Y-135138000D01*
X95902000Y-135065428D01*
X96264857Y-135065428D01*
X96410000Y-135138000D01*
X96482571Y-135210571D01*
X96555142Y-135355714D01*
X96555142Y-135500857D01*
X96482571Y-135718571D01*
X95611714Y-136589428D01*
X96555142Y-136589428D01*
X76073714Y-145639428D02*
X76073714Y-144115428D01*
X76944571Y-145639428D02*
X76291428Y-144768571D01*
X76944571Y-144115428D02*
X76073714Y-144986285D01*
X78396000Y-145639428D02*
X77525142Y-145639428D01*
X77960571Y-145639428D02*
X77960571Y-144115428D01*
X77815428Y-144333142D01*
X77670285Y-144478285D01*
X77525142Y-144550857D01*
X79339428Y-144115428D02*
X79484571Y-144115428D01*
X79629714Y-144188000D01*
X79702285Y-144260571D01*
X79774857Y-144405714D01*
X79847428Y-144696000D01*
X79847428Y-145058857D01*
X79774857Y-145349142D01*
X79702285Y-145494285D01*
X79629714Y-145566857D01*
X79484571Y-145639428D01*
X79339428Y-145639428D01*
X79194285Y-145566857D01*
X79121714Y-145494285D01*
X79049142Y-145349142D01*
X78976571Y-145058857D01*
X78976571Y-144696000D01*
X79049142Y-144405714D01*
X79121714Y-144260571D01*
X79194285Y-144188000D01*
X79339428Y-144115428D01*
X81298857Y-145639428D02*
X80428000Y-145639428D01*
X80863428Y-145639428D02*
X80863428Y-144115428D01*
X80718285Y-144333142D01*
X80573142Y-144478285D01*
X80428000Y-144550857D01*
X157773714Y-143639428D02*
X157773714Y-142115428D01*
X158644571Y-143639428D02*
X157991428Y-142768571D01*
X158644571Y-142115428D02*
X157773714Y-142986285D01*
X160096000Y-143639428D02*
X159225142Y-143639428D01*
X159660571Y-143639428D02*
X159660571Y-142115428D01*
X159515428Y-142333142D01*
X159370285Y-142478285D01*
X159225142Y-142550857D01*
X161039428Y-142115428D02*
X161184571Y-142115428D01*
X161329714Y-142188000D01*
X161402285Y-142260571D01*
X161474857Y-142405714D01*
X161547428Y-142696000D01*
X161547428Y-143058857D01*
X161474857Y-143349142D01*
X161402285Y-143494285D01*
X161329714Y-143566857D01*
X161184571Y-143639428D01*
X161039428Y-143639428D01*
X160894285Y-143566857D01*
X160821714Y-143494285D01*
X160749142Y-143349142D01*
X160676571Y-143058857D01*
X160676571Y-142696000D01*
X160749142Y-142405714D01*
X160821714Y-142260571D01*
X160894285Y-142188000D01*
X161039428Y-142115428D01*
X162128000Y-142260571D02*
X162200571Y-142188000D01*
X162345714Y-142115428D01*
X162708571Y-142115428D01*
X162853714Y-142188000D01*
X162926285Y-142260571D01*
X162998857Y-142405714D01*
X162998857Y-142550857D01*
X162926285Y-142768571D01*
X162055428Y-143639428D01*
X162998857Y-143639428D01*
X113438285Y-123589428D02*
X112930285Y-122863714D01*
X112567428Y-123589428D02*
X112567428Y-122065428D01*
X113148000Y-122065428D01*
X113293142Y-122138000D01*
X113365714Y-122210571D01*
X113438285Y-122355714D01*
X113438285Y-122573428D01*
X113365714Y-122718571D01*
X113293142Y-122791142D01*
X113148000Y-122863714D01*
X112567428Y-122863714D01*
X114091428Y-122791142D02*
X114599428Y-122791142D01*
X114817142Y-123589428D02*
X114091428Y-123589428D01*
X114091428Y-122065428D01*
X114817142Y-122065428D01*
X116196000Y-123589428D02*
X115470285Y-123589428D01*
X115470285Y-122065428D01*
X116558857Y-122065428D02*
X117502285Y-122065428D01*
X116994285Y-122646000D01*
X117212000Y-122646000D01*
X117357142Y-122718571D01*
X117429714Y-122791142D01*
X117502285Y-122936285D01*
X117502285Y-123299142D01*
X117429714Y-123444285D01*
X117357142Y-123516857D01*
X117212000Y-123589428D01*
X116776571Y-123589428D01*
X116631428Y-123516857D01*
X116558857Y-123444285D01*
X118445714Y-122065428D02*
X118590857Y-122065428D01*
X118736000Y-122138000D01*
X118808571Y-122210571D01*
X118881142Y-122355714D01*
X118953714Y-122646000D01*
X118953714Y-123008857D01*
X118881142Y-123299142D01*
X118808571Y-123444285D01*
X118736000Y-123516857D01*
X118590857Y-123589428D01*
X118445714Y-123589428D01*
X118300571Y-123516857D01*
X118228000Y-123444285D01*
X118155428Y-123299142D01*
X118082857Y-123008857D01*
X118082857Y-122646000D01*
X118155428Y-122355714D01*
X118228000Y-122210571D01*
X118300571Y-122138000D01*
X118445714Y-122065428D01*
X120405142Y-123589428D02*
X119534285Y-123589428D01*
X119969714Y-123589428D02*
X119969714Y-122065428D01*
X119824571Y-122283142D01*
X119679428Y-122428285D01*
X119534285Y-122500857D01*
X89238285Y-123789428D02*
X88730285Y-123063714D01*
X88367428Y-123789428D02*
X88367428Y-122265428D01*
X88948000Y-122265428D01*
X89093142Y-122338000D01*
X89165714Y-122410571D01*
X89238285Y-122555714D01*
X89238285Y-122773428D01*
X89165714Y-122918571D01*
X89093142Y-122991142D01*
X88948000Y-123063714D01*
X88367428Y-123063714D01*
X89891428Y-122991142D02*
X90399428Y-122991142D01*
X90617142Y-123789428D02*
X89891428Y-123789428D01*
X89891428Y-122265428D01*
X90617142Y-122265428D01*
X91996000Y-123789428D02*
X91270285Y-123789428D01*
X91270285Y-122265428D01*
X92358857Y-122265428D02*
X93302285Y-122265428D01*
X92794285Y-122846000D01*
X93012000Y-122846000D01*
X93157142Y-122918571D01*
X93229714Y-122991142D01*
X93302285Y-123136285D01*
X93302285Y-123499142D01*
X93229714Y-123644285D01*
X93157142Y-123716857D01*
X93012000Y-123789428D01*
X92576571Y-123789428D01*
X92431428Y-123716857D01*
X92358857Y-123644285D01*
X94245714Y-122265428D02*
X94390857Y-122265428D01*
X94536000Y-122338000D01*
X94608571Y-122410571D01*
X94681142Y-122555714D01*
X94753714Y-122846000D01*
X94753714Y-123208857D01*
X94681142Y-123499142D01*
X94608571Y-123644285D01*
X94536000Y-123716857D01*
X94390857Y-123789428D01*
X94245714Y-123789428D01*
X94100571Y-123716857D01*
X94028000Y-123644285D01*
X93955428Y-123499142D01*
X93882857Y-123208857D01*
X93882857Y-122846000D01*
X93955428Y-122555714D01*
X94028000Y-122410571D01*
X94100571Y-122338000D01*
X94245714Y-122265428D01*
X95334285Y-122410571D02*
X95406857Y-122338000D01*
X95552000Y-122265428D01*
X95914857Y-122265428D01*
X96060000Y-122338000D01*
X96132571Y-122410571D01*
X96205142Y-122555714D01*
X96205142Y-122700857D01*
X96132571Y-122918571D01*
X95261714Y-123789428D01*
X96205142Y-123789428D01*
X113588285Y-110939428D02*
X113080285Y-110213714D01*
X112717428Y-110939428D02*
X112717428Y-109415428D01*
X113298000Y-109415428D01*
X113443142Y-109488000D01*
X113515714Y-109560571D01*
X113588285Y-109705714D01*
X113588285Y-109923428D01*
X113515714Y-110068571D01*
X113443142Y-110141142D01*
X113298000Y-110213714D01*
X112717428Y-110213714D01*
X114241428Y-110141142D02*
X114749428Y-110141142D01*
X114967142Y-110939428D02*
X114241428Y-110939428D01*
X114241428Y-109415428D01*
X114967142Y-109415428D01*
X116346000Y-110939428D02*
X115620285Y-110939428D01*
X115620285Y-109415428D01*
X117507142Y-109923428D02*
X117507142Y-110939428D01*
X117144285Y-109342857D02*
X116781428Y-110431428D01*
X117724857Y-110431428D01*
X118595714Y-109415428D02*
X118740857Y-109415428D01*
X118886000Y-109488000D01*
X118958571Y-109560571D01*
X119031142Y-109705714D01*
X119103714Y-109996000D01*
X119103714Y-110358857D01*
X119031142Y-110649142D01*
X118958571Y-110794285D01*
X118886000Y-110866857D01*
X118740857Y-110939428D01*
X118595714Y-110939428D01*
X118450571Y-110866857D01*
X118378000Y-110794285D01*
X118305428Y-110649142D01*
X118232857Y-110358857D01*
X118232857Y-109996000D01*
X118305428Y-109705714D01*
X118378000Y-109560571D01*
X118450571Y-109488000D01*
X118595714Y-109415428D01*
X120555142Y-110939428D02*
X119684285Y-110939428D01*
X120119714Y-110939428D02*
X120119714Y-109415428D01*
X119974571Y-109633142D01*
X119829428Y-109778285D01*
X119684285Y-109850857D01*
X89638285Y-111339428D02*
X89130285Y-110613714D01*
X88767428Y-111339428D02*
X88767428Y-109815428D01*
X89348000Y-109815428D01*
X89493142Y-109888000D01*
X89565714Y-109960571D01*
X89638285Y-110105714D01*
X89638285Y-110323428D01*
X89565714Y-110468571D01*
X89493142Y-110541142D01*
X89348000Y-110613714D01*
X88767428Y-110613714D01*
X90291428Y-110541142D02*
X90799428Y-110541142D01*
X91017142Y-111339428D02*
X90291428Y-111339428D01*
X90291428Y-109815428D01*
X91017142Y-109815428D01*
X92396000Y-111339428D02*
X91670285Y-111339428D01*
X91670285Y-109815428D01*
X93557142Y-110323428D02*
X93557142Y-111339428D01*
X93194285Y-109742857D02*
X92831428Y-110831428D01*
X93774857Y-110831428D01*
X94645714Y-109815428D02*
X94790857Y-109815428D01*
X94936000Y-109888000D01*
X95008571Y-109960571D01*
X95081142Y-110105714D01*
X95153714Y-110396000D01*
X95153714Y-110758857D01*
X95081142Y-111049142D01*
X95008571Y-111194285D01*
X94936000Y-111266857D01*
X94790857Y-111339428D01*
X94645714Y-111339428D01*
X94500571Y-111266857D01*
X94428000Y-111194285D01*
X94355428Y-111049142D01*
X94282857Y-110758857D01*
X94282857Y-110396000D01*
X94355428Y-110105714D01*
X94428000Y-109960571D01*
X94500571Y-109888000D01*
X94645714Y-109815428D01*
X95734285Y-109960571D02*
X95806857Y-109888000D01*
X95952000Y-109815428D01*
X96314857Y-109815428D01*
X96460000Y-109888000D01*
X96532571Y-109960571D01*
X96605142Y-110105714D01*
X96605142Y-110250857D01*
X96532571Y-110468571D01*
X95661714Y-111339428D01*
X96605142Y-111339428D01*
X113788285Y-98539428D02*
X113280285Y-97813714D01*
X112917428Y-98539428D02*
X112917428Y-97015428D01*
X113498000Y-97015428D01*
X113643142Y-97088000D01*
X113715714Y-97160571D01*
X113788285Y-97305714D01*
X113788285Y-97523428D01*
X113715714Y-97668571D01*
X113643142Y-97741142D01*
X113498000Y-97813714D01*
X112917428Y-97813714D01*
X114441428Y-97741142D02*
X114949428Y-97741142D01*
X115167142Y-98539428D02*
X114441428Y-98539428D01*
X114441428Y-97015428D01*
X115167142Y-97015428D01*
X116546000Y-98539428D02*
X115820285Y-98539428D01*
X115820285Y-97015428D01*
X117779714Y-97015428D02*
X117054000Y-97015428D01*
X116981428Y-97741142D01*
X117054000Y-97668571D01*
X117199142Y-97596000D01*
X117562000Y-97596000D01*
X117707142Y-97668571D01*
X117779714Y-97741142D01*
X117852285Y-97886285D01*
X117852285Y-98249142D01*
X117779714Y-98394285D01*
X117707142Y-98466857D01*
X117562000Y-98539428D01*
X117199142Y-98539428D01*
X117054000Y-98466857D01*
X116981428Y-98394285D01*
X118795714Y-97015428D02*
X118940857Y-97015428D01*
X119086000Y-97088000D01*
X119158571Y-97160571D01*
X119231142Y-97305714D01*
X119303714Y-97596000D01*
X119303714Y-97958857D01*
X119231142Y-98249142D01*
X119158571Y-98394285D01*
X119086000Y-98466857D01*
X118940857Y-98539428D01*
X118795714Y-98539428D01*
X118650571Y-98466857D01*
X118578000Y-98394285D01*
X118505428Y-98249142D01*
X118432857Y-97958857D01*
X118432857Y-97596000D01*
X118505428Y-97305714D01*
X118578000Y-97160571D01*
X118650571Y-97088000D01*
X118795714Y-97015428D01*
X120755142Y-98539428D02*
X119884285Y-98539428D01*
X120319714Y-98539428D02*
X120319714Y-97015428D01*
X120174571Y-97233142D01*
X120029428Y-97378285D01*
X119884285Y-97450857D01*
X89338285Y-98589428D02*
X88830285Y-97863714D01*
X88467428Y-98589428D02*
X88467428Y-97065428D01*
X89048000Y-97065428D01*
X89193142Y-97138000D01*
X89265714Y-97210571D01*
X89338285Y-97355714D01*
X89338285Y-97573428D01*
X89265714Y-97718571D01*
X89193142Y-97791142D01*
X89048000Y-97863714D01*
X88467428Y-97863714D01*
X89991428Y-97791142D02*
X90499428Y-97791142D01*
X90717142Y-98589428D02*
X89991428Y-98589428D01*
X89991428Y-97065428D01*
X90717142Y-97065428D01*
X92096000Y-98589428D02*
X91370285Y-98589428D01*
X91370285Y-97065428D01*
X93329714Y-97065428D02*
X92604000Y-97065428D01*
X92531428Y-97791142D01*
X92604000Y-97718571D01*
X92749142Y-97646000D01*
X93112000Y-97646000D01*
X93257142Y-97718571D01*
X93329714Y-97791142D01*
X93402285Y-97936285D01*
X93402285Y-98299142D01*
X93329714Y-98444285D01*
X93257142Y-98516857D01*
X93112000Y-98589428D01*
X92749142Y-98589428D01*
X92604000Y-98516857D01*
X92531428Y-98444285D01*
X94345714Y-97065428D02*
X94490857Y-97065428D01*
X94636000Y-97138000D01*
X94708571Y-97210571D01*
X94781142Y-97355714D01*
X94853714Y-97646000D01*
X94853714Y-98008857D01*
X94781142Y-98299142D01*
X94708571Y-98444285D01*
X94636000Y-98516857D01*
X94490857Y-98589428D01*
X94345714Y-98589428D01*
X94200571Y-98516857D01*
X94128000Y-98444285D01*
X94055428Y-98299142D01*
X93982857Y-98008857D01*
X93982857Y-97646000D01*
X94055428Y-97355714D01*
X94128000Y-97210571D01*
X94200571Y-97138000D01*
X94345714Y-97065428D01*
X95434285Y-97210571D02*
X95506857Y-97138000D01*
X95652000Y-97065428D01*
X96014857Y-97065428D01*
X96160000Y-97138000D01*
X96232571Y-97210571D01*
X96305142Y-97355714D01*
X96305142Y-97500857D01*
X96232571Y-97718571D01*
X95361714Y-98589428D01*
X96305142Y-98589428D01*
X113538285Y-85889428D02*
X113030285Y-85163714D01*
X112667428Y-85889428D02*
X112667428Y-84365428D01*
X113248000Y-84365428D01*
X113393142Y-84438000D01*
X113465714Y-84510571D01*
X113538285Y-84655714D01*
X113538285Y-84873428D01*
X113465714Y-85018571D01*
X113393142Y-85091142D01*
X113248000Y-85163714D01*
X112667428Y-85163714D01*
X114191428Y-85091142D02*
X114699428Y-85091142D01*
X114917142Y-85889428D02*
X114191428Y-85889428D01*
X114191428Y-84365428D01*
X114917142Y-84365428D01*
X116296000Y-85889428D02*
X115570285Y-85889428D01*
X115570285Y-84365428D01*
X117457142Y-84365428D02*
X117166857Y-84365428D01*
X117021714Y-84438000D01*
X116949142Y-84510571D01*
X116804000Y-84728285D01*
X116731428Y-85018571D01*
X116731428Y-85599142D01*
X116804000Y-85744285D01*
X116876571Y-85816857D01*
X117021714Y-85889428D01*
X117312000Y-85889428D01*
X117457142Y-85816857D01*
X117529714Y-85744285D01*
X117602285Y-85599142D01*
X117602285Y-85236285D01*
X117529714Y-85091142D01*
X117457142Y-85018571D01*
X117312000Y-84946000D01*
X117021714Y-84946000D01*
X116876571Y-85018571D01*
X116804000Y-85091142D01*
X116731428Y-85236285D01*
X118545714Y-84365428D02*
X118690857Y-84365428D01*
X118836000Y-84438000D01*
X118908571Y-84510571D01*
X118981142Y-84655714D01*
X119053714Y-84946000D01*
X119053714Y-85308857D01*
X118981142Y-85599142D01*
X118908571Y-85744285D01*
X118836000Y-85816857D01*
X118690857Y-85889428D01*
X118545714Y-85889428D01*
X118400571Y-85816857D01*
X118328000Y-85744285D01*
X118255428Y-85599142D01*
X118182857Y-85308857D01*
X118182857Y-84946000D01*
X118255428Y-84655714D01*
X118328000Y-84510571D01*
X118400571Y-84438000D01*
X118545714Y-84365428D01*
X120505142Y-85889428D02*
X119634285Y-85889428D01*
X120069714Y-85889428D02*
X120069714Y-84365428D01*
X119924571Y-84583142D01*
X119779428Y-84728285D01*
X119634285Y-84800857D01*
X89738285Y-73239428D02*
X89230285Y-72513714D01*
X88867428Y-73239428D02*
X88867428Y-71715428D01*
X89448000Y-71715428D01*
X89593142Y-71788000D01*
X89665714Y-71860571D01*
X89738285Y-72005714D01*
X89738285Y-72223428D01*
X89665714Y-72368571D01*
X89593142Y-72441142D01*
X89448000Y-72513714D01*
X88867428Y-72513714D01*
X90391428Y-72441142D02*
X90899428Y-72441142D01*
X91117142Y-73239428D02*
X90391428Y-73239428D01*
X90391428Y-71715428D01*
X91117142Y-71715428D01*
X92496000Y-73239428D02*
X91770285Y-73239428D01*
X91770285Y-71715428D01*
X92858857Y-71715428D02*
X93874857Y-71715428D01*
X93221714Y-73239428D01*
X94745714Y-71715428D02*
X94890857Y-71715428D01*
X95036000Y-71788000D01*
X95108571Y-71860571D01*
X95181142Y-72005714D01*
X95253714Y-72296000D01*
X95253714Y-72658857D01*
X95181142Y-72949142D01*
X95108571Y-73094285D01*
X95036000Y-73166857D01*
X94890857Y-73239428D01*
X94745714Y-73239428D01*
X94600571Y-73166857D01*
X94528000Y-73094285D01*
X94455428Y-72949142D01*
X94382857Y-72658857D01*
X94382857Y-72296000D01*
X94455428Y-72005714D01*
X94528000Y-71860571D01*
X94600571Y-71788000D01*
X94745714Y-71715428D01*
X95834285Y-71860571D02*
X95906857Y-71788000D01*
X96052000Y-71715428D01*
X96414857Y-71715428D01*
X96560000Y-71788000D01*
X96632571Y-71860571D01*
X96705142Y-72005714D01*
X96705142Y-72150857D01*
X96632571Y-72368571D01*
X95761714Y-73239428D01*
X96705142Y-73239428D01*
X113538285Y-73089428D02*
X113030285Y-72363714D01*
X112667428Y-73089428D02*
X112667428Y-71565428D01*
X113248000Y-71565428D01*
X113393142Y-71638000D01*
X113465714Y-71710571D01*
X113538285Y-71855714D01*
X113538285Y-72073428D01*
X113465714Y-72218571D01*
X113393142Y-72291142D01*
X113248000Y-72363714D01*
X112667428Y-72363714D01*
X114191428Y-72291142D02*
X114699428Y-72291142D01*
X114917142Y-73089428D02*
X114191428Y-73089428D01*
X114191428Y-71565428D01*
X114917142Y-71565428D01*
X116296000Y-73089428D02*
X115570285Y-73089428D01*
X115570285Y-71565428D01*
X116658857Y-71565428D02*
X117674857Y-71565428D01*
X117021714Y-73089428D01*
X118545714Y-71565428D02*
X118690857Y-71565428D01*
X118836000Y-71638000D01*
X118908571Y-71710571D01*
X118981142Y-71855714D01*
X119053714Y-72146000D01*
X119053714Y-72508857D01*
X118981142Y-72799142D01*
X118908571Y-72944285D01*
X118836000Y-73016857D01*
X118690857Y-73089428D01*
X118545714Y-73089428D01*
X118400571Y-73016857D01*
X118328000Y-72944285D01*
X118255428Y-72799142D01*
X118182857Y-72508857D01*
X118182857Y-72146000D01*
X118255428Y-71855714D01*
X118328000Y-71710571D01*
X118400571Y-71638000D01*
X118545714Y-71565428D01*
X120505142Y-73089428D02*
X119634285Y-73089428D01*
X120069714Y-73089428D02*
X120069714Y-71565428D01*
X119924571Y-71783142D01*
X119779428Y-71928285D01*
X119634285Y-72000857D01*
X89538285Y-85889428D02*
X89030285Y-85163714D01*
X88667428Y-85889428D02*
X88667428Y-84365428D01*
X89248000Y-84365428D01*
X89393142Y-84438000D01*
X89465714Y-84510571D01*
X89538285Y-84655714D01*
X89538285Y-84873428D01*
X89465714Y-85018571D01*
X89393142Y-85091142D01*
X89248000Y-85163714D01*
X88667428Y-85163714D01*
X90191428Y-85091142D02*
X90699428Y-85091142D01*
X90917142Y-85889428D02*
X90191428Y-85889428D01*
X90191428Y-84365428D01*
X90917142Y-84365428D01*
X92296000Y-85889428D02*
X91570285Y-85889428D01*
X91570285Y-84365428D01*
X93457142Y-84365428D02*
X93166857Y-84365428D01*
X93021714Y-84438000D01*
X92949142Y-84510571D01*
X92804000Y-84728285D01*
X92731428Y-85018571D01*
X92731428Y-85599142D01*
X92804000Y-85744285D01*
X92876571Y-85816857D01*
X93021714Y-85889428D01*
X93312000Y-85889428D01*
X93457142Y-85816857D01*
X93529714Y-85744285D01*
X93602285Y-85599142D01*
X93602285Y-85236285D01*
X93529714Y-85091142D01*
X93457142Y-85018571D01*
X93312000Y-84946000D01*
X93021714Y-84946000D01*
X92876571Y-85018571D01*
X92804000Y-85091142D01*
X92731428Y-85236285D01*
X94545714Y-84365428D02*
X94690857Y-84365428D01*
X94836000Y-84438000D01*
X94908571Y-84510571D01*
X94981142Y-84655714D01*
X95053714Y-84946000D01*
X95053714Y-85308857D01*
X94981142Y-85599142D01*
X94908571Y-85744285D01*
X94836000Y-85816857D01*
X94690857Y-85889428D01*
X94545714Y-85889428D01*
X94400571Y-85816857D01*
X94328000Y-85744285D01*
X94255428Y-85599142D01*
X94182857Y-85308857D01*
X94182857Y-84946000D01*
X94255428Y-84655714D01*
X94328000Y-84510571D01*
X94400571Y-84438000D01*
X94545714Y-84365428D01*
X95634285Y-84510571D02*
X95706857Y-84438000D01*
X95852000Y-84365428D01*
X96214857Y-84365428D01*
X96360000Y-84438000D01*
X96432571Y-84510571D01*
X96505142Y-84655714D01*
X96505142Y-84800857D01*
X96432571Y-85018571D01*
X95561714Y-85889428D01*
X96505142Y-85889428D01*
X89738285Y-60339428D02*
X89230285Y-59613714D01*
X88867428Y-60339428D02*
X88867428Y-58815428D01*
X89448000Y-58815428D01*
X89593142Y-58888000D01*
X89665714Y-58960571D01*
X89738285Y-59105714D01*
X89738285Y-59323428D01*
X89665714Y-59468571D01*
X89593142Y-59541142D01*
X89448000Y-59613714D01*
X88867428Y-59613714D01*
X90391428Y-59541142D02*
X90899428Y-59541142D01*
X91117142Y-60339428D02*
X90391428Y-60339428D01*
X90391428Y-58815428D01*
X91117142Y-58815428D01*
X92496000Y-60339428D02*
X91770285Y-60339428D01*
X91770285Y-58815428D01*
X93802285Y-60339428D02*
X92931428Y-60339428D01*
X93366857Y-60339428D02*
X93366857Y-58815428D01*
X93221714Y-59033142D01*
X93076571Y-59178285D01*
X92931428Y-59250857D01*
X94745714Y-58815428D02*
X94890857Y-58815428D01*
X95036000Y-58888000D01*
X95108571Y-58960571D01*
X95181142Y-59105714D01*
X95253714Y-59396000D01*
X95253714Y-59758857D01*
X95181142Y-60049142D01*
X95108571Y-60194285D01*
X95036000Y-60266857D01*
X94890857Y-60339428D01*
X94745714Y-60339428D01*
X94600571Y-60266857D01*
X94528000Y-60194285D01*
X94455428Y-60049142D01*
X94382857Y-59758857D01*
X94382857Y-59396000D01*
X94455428Y-59105714D01*
X94528000Y-58960571D01*
X94600571Y-58888000D01*
X94745714Y-58815428D01*
X96705142Y-60339428D02*
X95834285Y-60339428D01*
X96269714Y-60339428D02*
X96269714Y-58815428D01*
X96124571Y-59033142D01*
X95979428Y-59178285D01*
X95834285Y-59250857D01*
D11*
X147102285Y-136476619D02*
X147102285Y-137299095D01*
X147150666Y-137395857D01*
X147199047Y-137444238D01*
X147295809Y-137492619D01*
X147489333Y-137492619D01*
X147586095Y-137444238D01*
X147634476Y-137395857D01*
X147682857Y-137299095D01*
X147682857Y-136476619D01*
X148698857Y-137492619D02*
X148118285Y-137492619D01*
X148408571Y-137492619D02*
X148408571Y-136476619D01*
X148311809Y-136621761D01*
X148215047Y-136718523D01*
X148118285Y-136766904D01*
X149327809Y-136476619D02*
X149424571Y-136476619D01*
X149521333Y-136525000D01*
X149569714Y-136573380D01*
X149618095Y-136670142D01*
X149666476Y-136863666D01*
X149666476Y-137105571D01*
X149618095Y-137299095D01*
X149569714Y-137395857D01*
X149521333Y-137444238D01*
X149424571Y-137492619D01*
X149327809Y-137492619D01*
X149231047Y-137444238D01*
X149182666Y-137395857D01*
X149134285Y-137299095D01*
X149085904Y-137105571D01*
X149085904Y-136863666D01*
X149134285Y-136670142D01*
X149182666Y-136573380D01*
X149231047Y-136525000D01*
X149327809Y-136476619D01*
X150634095Y-137492619D02*
X150053523Y-137492619D01*
X150343809Y-137492619D02*
X150343809Y-136476619D01*
X150247047Y-136621761D01*
X150150285Y-136718523D01*
X150053523Y-136766904D01*
X146007666Y-145366619D02*
X146685000Y-145366619D01*
X146249571Y-146382619D01*
X147217190Y-145802047D02*
X147120428Y-145753666D01*
X147072047Y-145705285D01*
X147023666Y-145608523D01*
X147023666Y-145560142D01*
X147072047Y-145463380D01*
X147120428Y-145415000D01*
X147217190Y-145366619D01*
X147410714Y-145366619D01*
X147507476Y-145415000D01*
X147555857Y-145463380D01*
X147604238Y-145560142D01*
X147604238Y-145608523D01*
X147555857Y-145705285D01*
X147507476Y-145753666D01*
X147410714Y-145802047D01*
X147217190Y-145802047D01*
X147120428Y-145850428D01*
X147072047Y-145898809D01*
X147023666Y-145995571D01*
X147023666Y-146189095D01*
X147072047Y-146285857D01*
X147120428Y-146334238D01*
X147217190Y-146382619D01*
X147410714Y-146382619D01*
X147507476Y-146334238D01*
X147555857Y-146285857D01*
X147604238Y-146189095D01*
X147604238Y-145995571D01*
X147555857Y-145898809D01*
X147507476Y-145850428D01*
X147410714Y-145802047D01*
X148523476Y-146382619D02*
X148039666Y-146382619D01*
X148039666Y-145366619D01*
X149055666Y-145366619D02*
X149152428Y-145366619D01*
X149249190Y-145415000D01*
X149297571Y-145463380D01*
X149345952Y-145560142D01*
X149394333Y-145753666D01*
X149394333Y-145995571D01*
X149345952Y-146189095D01*
X149297571Y-146285857D01*
X149249190Y-146334238D01*
X149152428Y-146382619D01*
X149055666Y-146382619D01*
X148958904Y-146334238D01*
X148910523Y-146285857D01*
X148862142Y-146189095D01*
X148813761Y-145995571D01*
X148813761Y-145753666D01*
X148862142Y-145560142D01*
X148910523Y-145463380D01*
X148958904Y-145415000D01*
X149055666Y-145366619D01*
X150313571Y-145366619D02*
X149829761Y-145366619D01*
X149781380Y-145850428D01*
X149829761Y-145802047D01*
X149926523Y-145753666D01*
X150168428Y-145753666D01*
X150265190Y-145802047D01*
X150313571Y-145850428D01*
X150361952Y-145947190D01*
X150361952Y-146189095D01*
X150313571Y-146285857D01*
X150265190Y-146334238D01*
X150168428Y-146382619D01*
X149926523Y-146382619D01*
X149829761Y-146334238D01*
X149781380Y-146285857D01*
X139205166Y-137412857D02*
X139162833Y-137461238D01*
X139035833Y-137509619D01*
X138951166Y-137509619D01*
X138824166Y-137461238D01*
X138739500Y-137364476D01*
X138697166Y-137267714D01*
X138654833Y-137074190D01*
X138654833Y-136929047D01*
X138697166Y-136735523D01*
X138739500Y-136638761D01*
X138824166Y-136542000D01*
X138951166Y-136493619D01*
X139035833Y-136493619D01*
X139162833Y-136542000D01*
X139205166Y-136590380D01*
X140051833Y-137509619D02*
X139543833Y-137509619D01*
X139797833Y-137509619D02*
X139797833Y-136493619D01*
X139713166Y-136638761D01*
X139628500Y-136735523D01*
X139543833Y-136783904D01*
X140602166Y-136493619D02*
X140686833Y-136493619D01*
X140771500Y-136542000D01*
X140813833Y-136590380D01*
X140856166Y-136687142D01*
X140898500Y-136880666D01*
X140898500Y-137122571D01*
X140856166Y-137316095D01*
X140813833Y-137412857D01*
X140771500Y-137461238D01*
X140686833Y-137509619D01*
X140602166Y-137509619D01*
X140517500Y-137461238D01*
X140475166Y-137412857D01*
X140432833Y-137316095D01*
X140390500Y-137122571D01*
X140390500Y-136880666D01*
X140432833Y-136687142D01*
X140475166Y-136590380D01*
X140517500Y-136542000D01*
X140602166Y-136493619D01*
X141660500Y-136832285D02*
X141660500Y-137509619D01*
X141448833Y-136445238D02*
X141237166Y-137170952D01*
X141787500Y-137170952D01*
X137876159Y-141964833D02*
X137876159Y-141414500D01*
X138263206Y-141710833D01*
X138263206Y-141583833D01*
X138311587Y-141499166D01*
X138359968Y-141456833D01*
X138456730Y-141414500D01*
X138698635Y-141414500D01*
X138795397Y-141456833D01*
X138843778Y-141499166D01*
X138892159Y-141583833D01*
X138892159Y-141837833D01*
X138843778Y-141922500D01*
X138795397Y-141964833D01*
X137876159Y-141118166D02*
X137876159Y-140567833D01*
X138263206Y-140864166D01*
X138263206Y-140737166D01*
X138311587Y-140652500D01*
X138359968Y-140610166D01*
X138456730Y-140567833D01*
X138698635Y-140567833D01*
X138795397Y-140610166D01*
X138843778Y-140652500D01*
X138892159Y-140737166D01*
X138892159Y-140991166D01*
X138843778Y-141075833D01*
X138795397Y-141118166D01*
X138214825Y-139805833D02*
X138892159Y-139805833D01*
X138214825Y-140186833D02*
X138747016Y-140186833D01*
X138843778Y-140144500D01*
X138892159Y-140059833D01*
X138892159Y-139932833D01*
X138843778Y-139848166D01*
X138795397Y-139805833D01*
X140308857Y-145430571D02*
X140308857Y-144269428D01*
X140889428Y-144850000D02*
X139728285Y-144850000D01*
D12*
X128526785Y-91010595D02*
X128557023Y-91040833D01*
X128587261Y-91131547D01*
X128587261Y-91192023D01*
X128557023Y-91282738D01*
X128496547Y-91343214D01*
X128436071Y-91373452D01*
X128315119Y-91403690D01*
X128224404Y-91403690D01*
X128103452Y-91373452D01*
X128042976Y-91343214D01*
X127982500Y-91282738D01*
X127952261Y-91192023D01*
X127952261Y-91131547D01*
X127982500Y-91040833D01*
X128012738Y-91010595D01*
X128587261Y-90405833D02*
X128587261Y-90768690D01*
X128587261Y-90587261D02*
X127952261Y-90587261D01*
X128042976Y-90647738D01*
X128103452Y-90708214D01*
X128133690Y-90768690D01*
X127952261Y-90012738D02*
X127952261Y-89952261D01*
X127982500Y-89891785D01*
X128012738Y-89861547D01*
X128073214Y-89831309D01*
X128194166Y-89801071D01*
X128345357Y-89801071D01*
X128466309Y-89831309D01*
X128526785Y-89861547D01*
X128557023Y-89891785D01*
X128587261Y-89952261D01*
X128587261Y-90012738D01*
X128557023Y-90073214D01*
X128526785Y-90103452D01*
X128466309Y-90133690D01*
X128345357Y-90163928D01*
X128194166Y-90163928D01*
X128073214Y-90133690D01*
X128012738Y-90103452D01*
X127982500Y-90073214D01*
X127952261Y-90012738D01*
X128012738Y-89559166D02*
X127982500Y-89528928D01*
X127952261Y-89468452D01*
X127952261Y-89317261D01*
X127982500Y-89256785D01*
X128012738Y-89226547D01*
X128073214Y-89196309D01*
X128133690Y-89196309D01*
X128224404Y-89226547D01*
X128587261Y-89589404D01*
X128587261Y-89196309D01*
X142526785Y-111060595D02*
X142557023Y-111090833D01*
X142587261Y-111181547D01*
X142587261Y-111242023D01*
X142557023Y-111332738D01*
X142496547Y-111393214D01*
X142436071Y-111423452D01*
X142315119Y-111453690D01*
X142224404Y-111453690D01*
X142103452Y-111423452D01*
X142042976Y-111393214D01*
X141982500Y-111332738D01*
X141952261Y-111242023D01*
X141952261Y-111181547D01*
X141982500Y-111090833D01*
X142012738Y-111060595D01*
X142587261Y-110455833D02*
X142587261Y-110818690D01*
X142587261Y-110637261D02*
X141952261Y-110637261D01*
X142042976Y-110697738D01*
X142103452Y-110758214D01*
X142133690Y-110818690D01*
X141952261Y-110062738D02*
X141952261Y-110002261D01*
X141982500Y-109941785D01*
X142012738Y-109911547D01*
X142073214Y-109881309D01*
X142194166Y-109851071D01*
X142345357Y-109851071D01*
X142466309Y-109881309D01*
X142526785Y-109911547D01*
X142557023Y-109941785D01*
X142587261Y-110002261D01*
X142587261Y-110062738D01*
X142557023Y-110123214D01*
X142526785Y-110153452D01*
X142466309Y-110183690D01*
X142345357Y-110213928D01*
X142194166Y-110213928D01*
X142073214Y-110183690D01*
X142012738Y-110153452D01*
X141982500Y-110123214D01*
X141952261Y-110062738D01*
X142587261Y-109246309D02*
X142587261Y-109609166D01*
X142587261Y-109427738D02*
X141952261Y-109427738D01*
X142042976Y-109488214D01*
X142103452Y-109548690D01*
X142133690Y-109609166D01*
X140259404Y-101987261D02*
X140047738Y-101684880D01*
X139896547Y-101987261D02*
X139896547Y-101352261D01*
X140138452Y-101352261D01*
X140198928Y-101382500D01*
X140229166Y-101412738D01*
X140259404Y-101473214D01*
X140259404Y-101563928D01*
X140229166Y-101624404D01*
X140198928Y-101654642D01*
X140138452Y-101684880D01*
X139896547Y-101684880D01*
X140864166Y-101987261D02*
X140501309Y-101987261D01*
X140682738Y-101987261D02*
X140682738Y-101352261D01*
X140622261Y-101442976D01*
X140561785Y-101503452D01*
X140501309Y-101533690D01*
X141257261Y-101352261D02*
X141317738Y-101352261D01*
X141378214Y-101382500D01*
X141408452Y-101412738D01*
X141438690Y-101473214D01*
X141468928Y-101594166D01*
X141468928Y-101745357D01*
X141438690Y-101866309D01*
X141408452Y-101926785D01*
X141378214Y-101957023D01*
X141317738Y-101987261D01*
X141257261Y-101987261D01*
X141196785Y-101957023D01*
X141166547Y-101926785D01*
X141136309Y-101866309D01*
X141106071Y-101745357D01*
X141106071Y-101594166D01*
X141136309Y-101473214D01*
X141166547Y-101412738D01*
X141196785Y-101382500D01*
X141257261Y-101352261D01*
X141680595Y-101352261D02*
X142073690Y-101352261D01*
X141862023Y-101594166D01*
X141952738Y-101594166D01*
X142013214Y-101624404D01*
X142043452Y-101654642D01*
X142073690Y-101715119D01*
X142073690Y-101866309D01*
X142043452Y-101926785D01*
X142013214Y-101957023D01*
X141952738Y-101987261D01*
X141771309Y-101987261D01*
X141710833Y-101957023D01*
X141680595Y-101926785D01*
X134955642Y-89867619D02*
X134955642Y-88851619D01*
X136153071Y-89770857D02*
X136098642Y-89819238D01*
X135935357Y-89867619D01*
X135826500Y-89867619D01*
X135663214Y-89819238D01*
X135554357Y-89722476D01*
X135499928Y-89625714D01*
X135445500Y-89432190D01*
X135445500Y-89287047D01*
X135499928Y-89093523D01*
X135554357Y-88996761D01*
X135663214Y-88900000D01*
X135826500Y-88851619D01*
X135935357Y-88851619D01*
X136098642Y-88900000D01*
X136153071Y-88948380D01*
X137241642Y-89867619D02*
X136588500Y-89867619D01*
X136915071Y-89867619D02*
X136915071Y-88851619D01*
X136806214Y-88996761D01*
X136697357Y-89093523D01*
X136588500Y-89141904D01*
X137949214Y-88851619D02*
X138058071Y-88851619D01*
X138166928Y-88900000D01*
X138221357Y-88948380D01*
X138275785Y-89045142D01*
X138330214Y-89238666D01*
X138330214Y-89480571D01*
X138275785Y-89674095D01*
X138221357Y-89770857D01*
X138166928Y-89819238D01*
X138058071Y-89867619D01*
X137949214Y-89867619D01*
X137840357Y-89819238D01*
X137785928Y-89770857D01*
X137731500Y-89674095D01*
X137677071Y-89480571D01*
X137677071Y-89238666D01*
X137731500Y-89045142D01*
X137785928Y-88948380D01*
X137840357Y-88900000D01*
X137949214Y-88851619D01*
X138765642Y-88948380D02*
X138820071Y-88900000D01*
X138928928Y-88851619D01*
X139201071Y-88851619D01*
X139309928Y-88900000D01*
X139364357Y-88948380D01*
X139418785Y-89045142D01*
X139418785Y-89141904D01*
X139364357Y-89287047D01*
X138711214Y-89867619D01*
X139418785Y-89867619D01*
X132098142Y-90375619D02*
X132751285Y-90375619D01*
X132424714Y-91391619D02*
X132424714Y-90375619D01*
X133132285Y-91391619D02*
X133132285Y-90375619D01*
X133567714Y-90375619D01*
X133676571Y-90424000D01*
X133731000Y-90472380D01*
X133785428Y-90569142D01*
X133785428Y-90714285D01*
X133731000Y-90811047D01*
X133676571Y-90859428D01*
X133567714Y-90907809D01*
X133132285Y-90907809D01*
X134275285Y-91391619D02*
X134275285Y-90375619D01*
X135472714Y-91294857D02*
X135418285Y-91343238D01*
X135255000Y-91391619D01*
X135146142Y-91391619D01*
X134982857Y-91343238D01*
X134874000Y-91246476D01*
X134819571Y-91149714D01*
X134765142Y-90956190D01*
X134765142Y-90811047D01*
X134819571Y-90617523D01*
X134874000Y-90520761D01*
X134982857Y-90424000D01*
X135146142Y-90375619D01*
X135255000Y-90375619D01*
X135418285Y-90424000D01*
X135472714Y-90472380D01*
X136452428Y-90375619D02*
X136234714Y-90375619D01*
X136125857Y-90424000D01*
X136071428Y-90472380D01*
X135962571Y-90617523D01*
X135908142Y-90811047D01*
X135908142Y-91198095D01*
X135962571Y-91294857D01*
X136017000Y-91343238D01*
X136125857Y-91391619D01*
X136343571Y-91391619D01*
X136452428Y-91343238D01*
X136506857Y-91294857D01*
X136561285Y-91198095D01*
X136561285Y-90956190D01*
X136506857Y-90859428D01*
X136452428Y-90811047D01*
X136343571Y-90762666D01*
X136125857Y-90762666D01*
X136017000Y-90811047D01*
X135962571Y-90859428D01*
X135908142Y-90956190D01*
X137704285Y-91294857D02*
X137649857Y-91343238D01*
X137486571Y-91391619D01*
X137377714Y-91391619D01*
X137214428Y-91343238D01*
X137105571Y-91246476D01*
X137051142Y-91149714D01*
X136996714Y-90956190D01*
X136996714Y-90811047D01*
X137051142Y-90617523D01*
X137105571Y-90520761D01*
X137214428Y-90424000D01*
X137377714Y-90375619D01*
X137486571Y-90375619D01*
X137649857Y-90424000D01*
X137704285Y-90472380D01*
X138738428Y-90375619D02*
X138194142Y-90375619D01*
X138139714Y-90859428D01*
X138194142Y-90811047D01*
X138303000Y-90762666D01*
X138575142Y-90762666D01*
X138684000Y-90811047D01*
X138738428Y-90859428D01*
X138792857Y-90956190D01*
X138792857Y-91198095D01*
X138738428Y-91294857D01*
X138684000Y-91343238D01*
X138575142Y-91391619D01*
X138303000Y-91391619D01*
X138194142Y-91343238D01*
X138139714Y-91294857D01*
X139337142Y-91391619D02*
X139554857Y-91391619D01*
X139663714Y-91343238D01*
X139718142Y-91294857D01*
X139827000Y-91149714D01*
X139881428Y-90956190D01*
X139881428Y-90569142D01*
X139827000Y-90472380D01*
X139772571Y-90424000D01*
X139663714Y-90375619D01*
X139446000Y-90375619D01*
X139337142Y-90424000D01*
X139282714Y-90472380D01*
X139228285Y-90569142D01*
X139228285Y-90811047D01*
X139282714Y-90907809D01*
X139337142Y-90956190D01*
X139446000Y-91004571D01*
X139663714Y-91004571D01*
X139772571Y-90956190D01*
X139827000Y-90907809D01*
X139881428Y-90811047D01*
X140861142Y-90375619D02*
X140643428Y-90375619D01*
X140534571Y-90424000D01*
X140480142Y-90472380D01*
X140371285Y-90617523D01*
X140316857Y-90811047D01*
X140316857Y-91198095D01*
X140371285Y-91294857D01*
X140425714Y-91343238D01*
X140534571Y-91391619D01*
X140752285Y-91391619D01*
X140861142Y-91343238D01*
X140915571Y-91294857D01*
X140970000Y-91198095D01*
X140970000Y-90956190D01*
X140915571Y-90859428D01*
X140861142Y-90811047D01*
X140752285Y-90762666D01*
X140534571Y-90762666D01*
X140425714Y-90811047D01*
X140371285Y-90859428D01*
X140316857Y-90956190D01*
X141459857Y-91391619D02*
X141459857Y-90375619D01*
X141732000Y-90375619D01*
X141895285Y-90424000D01*
X142004142Y-90520761D01*
X142058571Y-90617523D01*
X142113000Y-90811047D01*
X142113000Y-90956190D01*
X142058571Y-91149714D01*
X142004142Y-91246476D01*
X141895285Y-91343238D01*
X141732000Y-91391619D01*
X141459857Y-91391619D01*
X136225642Y-118061619D02*
X136225642Y-117045619D01*
X137423071Y-117964857D02*
X137368642Y-118013238D01*
X137205357Y-118061619D01*
X137096500Y-118061619D01*
X136933214Y-118013238D01*
X136824357Y-117916476D01*
X136769928Y-117819714D01*
X136715500Y-117626190D01*
X136715500Y-117481047D01*
X136769928Y-117287523D01*
X136824357Y-117190761D01*
X136933214Y-117094000D01*
X137096500Y-117045619D01*
X137205357Y-117045619D01*
X137368642Y-117094000D01*
X137423071Y-117142380D01*
X138511642Y-118061619D02*
X137858500Y-118061619D01*
X138185071Y-118061619D02*
X138185071Y-117045619D01*
X138076214Y-117190761D01*
X137967357Y-117287523D01*
X137858500Y-117335904D01*
X139219214Y-117045619D02*
X139328071Y-117045619D01*
X139436928Y-117094000D01*
X139491357Y-117142380D01*
X139545785Y-117239142D01*
X139600214Y-117432666D01*
X139600214Y-117674571D01*
X139545785Y-117868095D01*
X139491357Y-117964857D01*
X139436928Y-118013238D01*
X139328071Y-118061619D01*
X139219214Y-118061619D01*
X139110357Y-118013238D01*
X139055928Y-117964857D01*
X139001500Y-117868095D01*
X138947071Y-117674571D01*
X138947071Y-117432666D01*
X139001500Y-117239142D01*
X139055928Y-117142380D01*
X139110357Y-117094000D01*
X139219214Y-117045619D01*
X140688785Y-118061619D02*
X140035642Y-118061619D01*
X140362214Y-118061619D02*
X140362214Y-117045619D01*
X140253357Y-117190761D01*
X140144500Y-117287523D01*
X140035642Y-117335904D01*
X133368142Y-115521619D02*
X134021285Y-115521619D01*
X133694714Y-116537619D02*
X133694714Y-115521619D01*
X134402285Y-116537619D02*
X134402285Y-115521619D01*
X134837714Y-115521619D01*
X134946571Y-115570000D01*
X135001000Y-115618380D01*
X135055428Y-115715142D01*
X135055428Y-115860285D01*
X135001000Y-115957047D01*
X134946571Y-116005428D01*
X134837714Y-116053809D01*
X134402285Y-116053809D01*
X135545285Y-116537619D02*
X135545285Y-115521619D01*
X136742714Y-116440857D02*
X136688285Y-116489238D01*
X136525000Y-116537619D01*
X136416142Y-116537619D01*
X136252857Y-116489238D01*
X136144000Y-116392476D01*
X136089571Y-116295714D01*
X136035142Y-116102190D01*
X136035142Y-115957047D01*
X136089571Y-115763523D01*
X136144000Y-115666761D01*
X136252857Y-115570000D01*
X136416142Y-115521619D01*
X136525000Y-115521619D01*
X136688285Y-115570000D01*
X136742714Y-115618380D01*
X137722428Y-115521619D02*
X137504714Y-115521619D01*
X137395857Y-115570000D01*
X137341428Y-115618380D01*
X137232571Y-115763523D01*
X137178142Y-115957047D01*
X137178142Y-116344095D01*
X137232571Y-116440857D01*
X137287000Y-116489238D01*
X137395857Y-116537619D01*
X137613571Y-116537619D01*
X137722428Y-116489238D01*
X137776857Y-116440857D01*
X137831285Y-116344095D01*
X137831285Y-116102190D01*
X137776857Y-116005428D01*
X137722428Y-115957047D01*
X137613571Y-115908666D01*
X137395857Y-115908666D01*
X137287000Y-115957047D01*
X137232571Y-116005428D01*
X137178142Y-116102190D01*
X138974285Y-116440857D02*
X138919857Y-116489238D01*
X138756571Y-116537619D01*
X138647714Y-116537619D01*
X138484428Y-116489238D01*
X138375571Y-116392476D01*
X138321142Y-116295714D01*
X138266714Y-116102190D01*
X138266714Y-115957047D01*
X138321142Y-115763523D01*
X138375571Y-115666761D01*
X138484428Y-115570000D01*
X138647714Y-115521619D01*
X138756571Y-115521619D01*
X138919857Y-115570000D01*
X138974285Y-115618380D01*
X140008428Y-115521619D02*
X139464142Y-115521619D01*
X139409714Y-116005428D01*
X139464142Y-115957047D01*
X139573000Y-115908666D01*
X139845142Y-115908666D01*
X139954000Y-115957047D01*
X140008428Y-116005428D01*
X140062857Y-116102190D01*
X140062857Y-116344095D01*
X140008428Y-116440857D01*
X139954000Y-116489238D01*
X139845142Y-116537619D01*
X139573000Y-116537619D01*
X139464142Y-116489238D01*
X139409714Y-116440857D01*
X140607142Y-116537619D02*
X140824857Y-116537619D01*
X140933714Y-116489238D01*
X140988142Y-116440857D01*
X141097000Y-116295714D01*
X141151428Y-116102190D01*
X141151428Y-115715142D01*
X141097000Y-115618380D01*
X141042571Y-115570000D01*
X140933714Y-115521619D01*
X140716000Y-115521619D01*
X140607142Y-115570000D01*
X140552714Y-115618380D01*
X140498285Y-115715142D01*
X140498285Y-115957047D01*
X140552714Y-116053809D01*
X140607142Y-116102190D01*
X140716000Y-116150571D01*
X140933714Y-116150571D01*
X141042571Y-116102190D01*
X141097000Y-116053809D01*
X141151428Y-115957047D01*
X142131142Y-115521619D02*
X141913428Y-115521619D01*
X141804571Y-115570000D01*
X141750142Y-115618380D01*
X141641285Y-115763523D01*
X141586857Y-115957047D01*
X141586857Y-116344095D01*
X141641285Y-116440857D01*
X141695714Y-116489238D01*
X141804571Y-116537619D01*
X142022285Y-116537619D01*
X142131142Y-116489238D01*
X142185571Y-116440857D01*
X142240000Y-116344095D01*
X142240000Y-116102190D01*
X142185571Y-116005428D01*
X142131142Y-115957047D01*
X142022285Y-115908666D01*
X141804571Y-115908666D01*
X141695714Y-115957047D01*
X141641285Y-116005428D01*
X141586857Y-116102190D01*
X142729857Y-116537619D02*
X142729857Y-115521619D01*
X143002000Y-115521619D01*
X143165285Y-115570000D01*
X143274142Y-115666761D01*
X143328571Y-115763523D01*
X143383000Y-115957047D01*
X143383000Y-116102190D01*
X143328571Y-116295714D01*
X143274142Y-116392476D01*
X143165285Y-116489238D01*
X143002000Y-116537619D01*
X142729857Y-116537619D01*
D13*
X106680000Y-140970000D02*
X127000000Y-140970000D01*
X110490000Y-132080000D02*
X110490000Y-133350000D01*
X109220000Y-132080000D02*
X110490000Y-132080000D01*
X109220000Y-137160000D02*
X111760000Y-137160000D01*
X111760000Y-137160000D02*
X111760000Y-134620000D01*
X109220000Y-134620000D02*
X109220000Y-137160000D01*
X127000000Y-140970000D02*
X127000000Y-130810000D01*
X110490000Y-134620000D02*
X109220000Y-134620000D01*
X110490000Y-137160000D02*
X110490000Y-139700000D01*
X110490000Y-139700000D02*
X109220000Y-139700000D01*
X111760000Y-134620000D02*
X110490000Y-134620000D01*
X110490000Y-133350000D02*
X110490000Y-134620000D01*
X127000000Y-130810000D02*
X106680000Y-130810000D01*
X109220000Y-137160000D02*
X111760000Y-134620000D01*
X106680000Y-130810000D02*
X106680000Y-140970000D01*
X102870000Y-130810000D02*
X82550000Y-130810000D01*
X99060000Y-134620000D02*
X99060000Y-132080000D01*
X99060000Y-137160000D02*
X100330000Y-137160000D01*
X99060000Y-132080000D02*
X100330000Y-132080000D01*
X100330000Y-134620000D02*
X97790000Y-137160000D01*
X99060000Y-138430000D02*
X99060000Y-137160000D01*
X99060000Y-139700000D02*
X99060000Y-138430000D01*
X100330000Y-134620000D02*
X97790000Y-134620000D01*
X97790000Y-134620000D02*
X97790000Y-137160000D01*
X82550000Y-130810000D02*
X82550000Y-140970000D01*
X102870000Y-140970000D02*
X102870000Y-130810000D01*
X97790000Y-137160000D02*
X99060000Y-137160000D01*
X100330000Y-139700000D02*
X99060000Y-139700000D01*
X100330000Y-137160000D02*
X100330000Y-134620000D01*
X82550000Y-140970000D02*
X102870000Y-140970000D01*
D14*
X66675000Y-147320000D02*
X74930000Y-147320000D01*
X74930000Y-142240000D02*
X71120000Y-140335000D01*
X66675000Y-55880000D02*
X66675000Y-147320000D01*
X74930000Y-60960000D02*
X74930000Y-55880000D01*
X74930000Y-147320000D02*
X74930000Y-142240000D01*
X74930000Y-55880000D02*
X66675000Y-55880000D01*
X71120000Y-140335000D02*
X71120000Y-62865000D01*
X71120000Y-62865000D02*
X74930000Y-60960000D01*
D13*
X109220000Y-124460000D02*
X111760000Y-121920000D01*
X106680000Y-128270000D02*
X127000000Y-128270000D01*
X110490000Y-127000000D02*
X109220000Y-127000000D01*
X109220000Y-119380000D02*
X110490000Y-119380000D01*
X111760000Y-121920000D02*
X110490000Y-121920000D01*
X110490000Y-119380000D02*
X110490000Y-120650000D01*
X109220000Y-121920000D02*
X109220000Y-124460000D01*
X110490000Y-124460000D02*
X110490000Y-127000000D01*
X127000000Y-128270000D02*
X127000000Y-118110000D01*
X110490000Y-120650000D02*
X110490000Y-121920000D01*
X127000000Y-118110000D02*
X106680000Y-118110000D01*
X111760000Y-124460000D02*
X111760000Y-121920000D01*
X109220000Y-124460000D02*
X111760000Y-124460000D01*
X110490000Y-121920000D02*
X109220000Y-121920000D01*
X106680000Y-118110000D02*
X106680000Y-128270000D01*
X102870000Y-128270000D02*
X102870000Y-118110000D01*
X99060000Y-121920000D02*
X99060000Y-119380000D01*
X82550000Y-128270000D02*
X102870000Y-128270000D01*
X100330000Y-121920000D02*
X97790000Y-121920000D01*
X99060000Y-119380000D02*
X100330000Y-119380000D01*
X99060000Y-124460000D02*
X100330000Y-124460000D01*
X100330000Y-124460000D02*
X100330000Y-121920000D01*
X99060000Y-125730000D02*
X99060000Y-124460000D01*
X82550000Y-118110000D02*
X82550000Y-128270000D01*
X99060000Y-127000000D02*
X99060000Y-125730000D01*
X102870000Y-118110000D02*
X82550000Y-118110000D01*
X100330000Y-127000000D02*
X99060000Y-127000000D01*
X100330000Y-121920000D02*
X97790000Y-124460000D01*
X97790000Y-121920000D02*
X97790000Y-124460000D01*
X97790000Y-124460000D02*
X99060000Y-124460000D01*
X127000000Y-105410000D02*
X106680000Y-105410000D01*
X111760000Y-111760000D02*
X111760000Y-109220000D01*
X106680000Y-115570000D02*
X127000000Y-115570000D01*
X110490000Y-114300000D02*
X109220000Y-114300000D01*
X109220000Y-111760000D02*
X111760000Y-109220000D01*
X110490000Y-109220000D02*
X109220000Y-109220000D01*
X110490000Y-106680000D02*
X110490000Y-107950000D01*
X110490000Y-111760000D02*
X110490000Y-114300000D01*
X127000000Y-115570000D02*
X127000000Y-105410000D01*
X109220000Y-106680000D02*
X110490000Y-106680000D01*
X109220000Y-109220000D02*
X109220000Y-111760000D01*
X111760000Y-109220000D02*
X110490000Y-109220000D01*
X110490000Y-107950000D02*
X110490000Y-109220000D01*
X106680000Y-105410000D02*
X106680000Y-115570000D01*
X109220000Y-111760000D02*
X111760000Y-111760000D01*
X82550000Y-115570000D02*
X102870000Y-115570000D01*
X99060000Y-106680000D02*
X100330000Y-106680000D01*
X102870000Y-105410000D02*
X82550000Y-105410000D01*
X99060000Y-111760000D02*
X100330000Y-111760000D01*
X97790000Y-111760000D02*
X99060000Y-111760000D01*
X97790000Y-109220000D02*
X97790000Y-111760000D01*
X99060000Y-113030000D02*
X99060000Y-111760000D01*
X102870000Y-115570000D02*
X102870000Y-105410000D01*
X99060000Y-114300000D02*
X99060000Y-113030000D01*
X100330000Y-111760000D02*
X100330000Y-109220000D01*
X100330000Y-114300000D02*
X99060000Y-114300000D01*
X99060000Y-109220000D02*
X99060000Y-106680000D01*
X100330000Y-109220000D02*
X97790000Y-111760000D01*
X100330000Y-109220000D02*
X97790000Y-109220000D01*
X82550000Y-105410000D02*
X82550000Y-115570000D01*
X111760000Y-96520000D02*
X110490000Y-96520000D01*
X109220000Y-99060000D02*
X111760000Y-96520000D01*
X127000000Y-102870000D02*
X127000000Y-92710000D01*
X111760000Y-99060000D02*
X111760000Y-96520000D01*
X127000000Y-92710000D02*
X106680000Y-92710000D01*
X109220000Y-96520000D02*
X109220000Y-99060000D01*
X110490000Y-96520000D02*
X109220000Y-96520000D01*
X110490000Y-95250000D02*
X110490000Y-96520000D01*
X110490000Y-99060000D02*
X110490000Y-101600000D01*
X110490000Y-101600000D02*
X109220000Y-101600000D01*
X109220000Y-99060000D02*
X111760000Y-99060000D01*
X110490000Y-93980000D02*
X110490000Y-95250000D01*
X106680000Y-92710000D02*
X106680000Y-102870000D01*
X109220000Y-93980000D02*
X110490000Y-93980000D01*
X106680000Y-102870000D02*
X127000000Y-102870000D01*
X99060000Y-93980000D02*
X100330000Y-93980000D01*
X82550000Y-102870000D02*
X102870000Y-102870000D01*
X97790000Y-99060000D02*
X99060000Y-99060000D01*
X99060000Y-96520000D02*
X99060000Y-93980000D01*
X99060000Y-100330000D02*
X99060000Y-99060000D01*
X102870000Y-102870000D02*
X102870000Y-92710000D01*
X100330000Y-96520000D02*
X97790000Y-99060000D01*
X99060000Y-99060000D02*
X100330000Y-99060000D01*
X99060000Y-101600000D02*
X99060000Y-100330000D01*
X100330000Y-101600000D02*
X99060000Y-101600000D01*
X102870000Y-92710000D02*
X82550000Y-92710000D01*
X100330000Y-96520000D02*
X97790000Y-96520000D01*
X100330000Y-99060000D02*
X100330000Y-96520000D01*
X82550000Y-92710000D02*
X82550000Y-102870000D01*
X97790000Y-96520000D02*
X97790000Y-99060000D01*
X127000000Y-80010000D02*
X106680000Y-80010000D01*
X106680000Y-80010000D02*
X106680000Y-90170000D01*
X110490000Y-88900000D02*
X109220000Y-88900000D01*
X110490000Y-82550000D02*
X110490000Y-83820000D01*
X110490000Y-86360000D02*
X110490000Y-88900000D01*
X109220000Y-86360000D02*
X111760000Y-86360000D01*
X110490000Y-81280000D02*
X110490000Y-82550000D01*
X111760000Y-86360000D02*
X111760000Y-83820000D01*
X111760000Y-83820000D02*
X110490000Y-83820000D01*
X106680000Y-90170000D02*
X127000000Y-90170000D01*
X109220000Y-83820000D02*
X109220000Y-86360000D01*
X109220000Y-81280000D02*
X110490000Y-81280000D01*
X110490000Y-83820000D02*
X109220000Y-83820000D01*
X109220000Y-86360000D02*
X111760000Y-83820000D01*
X127000000Y-90170000D02*
X127000000Y-80010000D01*
X100330000Y-71120000D02*
X97790000Y-73660000D01*
X82550000Y-77470000D02*
X102870000Y-77470000D01*
X100330000Y-73660000D02*
X100330000Y-71120000D01*
X100330000Y-76200000D02*
X99060000Y-76200000D01*
X99060000Y-76200000D02*
X99060000Y-74930000D01*
X97790000Y-71120000D02*
X97790000Y-73660000D01*
X102870000Y-77470000D02*
X102870000Y-67310000D01*
X99060000Y-71120000D02*
X99060000Y-68580000D01*
X102870000Y-67310000D02*
X82550000Y-67310000D01*
X99060000Y-74930000D02*
X99060000Y-73660000D01*
X100330000Y-71120000D02*
X97790000Y-71120000D01*
X97790000Y-73660000D02*
X99060000Y-73660000D01*
X82550000Y-67310000D02*
X82550000Y-77470000D01*
X99060000Y-73660000D02*
X100330000Y-73660000D01*
X99060000Y-68580000D02*
X100330000Y-68580000D01*
X109220000Y-68580000D02*
X110490000Y-68580000D01*
X109220000Y-73660000D02*
X111760000Y-73660000D01*
X110490000Y-68580000D02*
X110490000Y-69850000D01*
X106680000Y-77470000D02*
X127000000Y-77470000D01*
X127000000Y-77470000D02*
X127000000Y-67310000D01*
X110490000Y-76200000D02*
X109220000Y-76200000D01*
X111760000Y-73660000D02*
X111760000Y-71120000D01*
X106680000Y-67310000D02*
X106680000Y-77470000D01*
X109220000Y-71120000D02*
X109220000Y-73660000D01*
X110490000Y-73660000D02*
X110490000Y-76200000D01*
X110490000Y-71120000D02*
X109220000Y-71120000D01*
X111760000Y-71120000D02*
X110490000Y-71120000D01*
X110490000Y-69850000D02*
X110490000Y-71120000D01*
X109220000Y-73660000D02*
X111760000Y-71120000D01*
X127000000Y-67310000D02*
X106680000Y-67310000D01*
X97790000Y-86360000D02*
X99060000Y-86360000D01*
X99060000Y-83820000D02*
X99060000Y-81280000D01*
X100330000Y-88900000D02*
X99060000Y-88900000D01*
X102870000Y-80010000D02*
X82550000Y-80010000D01*
X102870000Y-90170000D02*
X102870000Y-80010000D01*
X100330000Y-83820000D02*
X97790000Y-83820000D01*
X82550000Y-80010000D02*
X82550000Y-90170000D01*
X100330000Y-83820000D02*
X97790000Y-86360000D01*
X82550000Y-90170000D02*
X102870000Y-90170000D01*
X99060000Y-81280000D02*
X100330000Y-81280000D01*
X99060000Y-86360000D02*
X100330000Y-86360000D01*
X99060000Y-88900000D02*
X99060000Y-87630000D01*
X97790000Y-83820000D02*
X97790000Y-86360000D01*
X100330000Y-86360000D02*
X100330000Y-83820000D01*
X99060000Y-87630000D02*
X99060000Y-86360000D01*
X99060000Y-60960000D02*
X100330000Y-60960000D01*
X102870000Y-64770000D02*
X102870000Y-54610000D01*
X100330000Y-58420000D02*
X97790000Y-60960000D01*
X97790000Y-60960000D02*
X99060000Y-60960000D01*
X100330000Y-63500000D02*
X99060000Y-63500000D01*
X82550000Y-54610000D02*
X82550000Y-64770000D01*
X100330000Y-60960000D02*
X100330000Y-58420000D01*
X99060000Y-55880000D02*
X100330000Y-55880000D01*
X99060000Y-63500000D02*
X99060000Y-62230000D01*
X100330000Y-58420000D02*
X97790000Y-58420000D01*
X102870000Y-54610000D02*
X82550000Y-54610000D01*
X99060000Y-58420000D02*
X99060000Y-55880000D01*
X82550000Y-64770000D02*
X102870000Y-64770000D01*
X99060000Y-62230000D02*
X99060000Y-60960000D01*
X97790000Y-58420000D02*
X97790000Y-60960000D01*
D10*
X144399000Y-142113000D02*
X144399000Y-143383000D01*
X148209000Y-144653000D02*
X150749000Y-142113000D01*
X144399000Y-143383000D02*
X145669000Y-144653000D01*
X149479000Y-138303000D02*
X148209000Y-138303000D01*
X150749000Y-139573000D02*
X149479000Y-138303000D01*
X150749000Y-142113000D02*
X150749000Y-139573000D01*
X145669000Y-144653000D02*
X148209000Y-144653000D01*
X148209000Y-138303000D02*
X144399000Y-142113000D01*
D11*
X143256000Y-140843000D02*
G75*
G03*
X143256000Y-140843000I-3048000J0D01*
G01*
D12*
X129667000Y-90424000D02*
X130429000Y-90424000D01*
X130048000Y-90170000D02*
X130048000Y-89789000D01*
X129667000Y-90170000D02*
X130429000Y-90170000D01*
X130048000Y-90424000D02*
X129667000Y-90424000D01*
X130048000Y-90805000D02*
X130048000Y-90424000D01*
X144018000Y-110236000D02*
X144018000Y-109855000D01*
X144018000Y-110490000D02*
X143637000Y-110490000D01*
X143637000Y-110490000D02*
X144399000Y-110490000D01*
X143637000Y-110236000D02*
X144399000Y-110236000D01*
X144018000Y-110871000D02*
X144018000Y-110490000D01*
X140462000Y-100076000D02*
X140716000Y-100076000D01*
X140716000Y-99822000D02*
X140716000Y-100203000D01*
X141224000Y-99822000D02*
X140716000Y-99822000D01*
X141224000Y-100076000D02*
X141478000Y-100076000D01*
X141224000Y-100330000D02*
X141224000Y-99822000D01*
X140716000Y-100203000D02*
X140716000Y-100330000D01*
X140716000Y-100330000D02*
X141224000Y-100330000D01*
D11*
X131699000Y-91948000D02*
X131699000Y-88392000D01*
X131699000Y-88392000D02*
X142621000Y-88392000D01*
X132461000Y-89662000D02*
X132461000Y-90678000D01*
X142621000Y-88392000D02*
X142621000Y-91948000D01*
X142621000Y-91948000D02*
X131699000Y-91948000D01*
X132461000Y-90678000D02*
X131699000Y-90678000D01*
X131699000Y-89662000D02*
X132461000Y-89662000D01*
X132969000Y-115062000D02*
X143891000Y-115062000D01*
X143891000Y-117348000D02*
X143129000Y-117348000D01*
X143891000Y-118618000D02*
X132969000Y-118618000D01*
X132969000Y-118618000D02*
X132969000Y-115062000D01*
X143891000Y-115062000D02*
X143891000Y-118618000D01*
X143129000Y-117348000D02*
X143129000Y-116332000D01*
X143129000Y-116332000D02*
X143891000Y-116332000D01*
D15*
X107950000Y-139700000D03*
X107950000Y-132080000D03*
X115570000Y-139700000D03*
X120650000Y-139700000D03*
X125730000Y-139700000D03*
X115570000Y-132080000D03*
X120650000Y-132080000D03*
X125730000Y-132080000D03*
X101600000Y-132080000D03*
X101600000Y-139700000D03*
X93980000Y-132080000D03*
X88900000Y-132080000D03*
X83820000Y-132080000D03*
X93980000Y-139700000D03*
X88900000Y-139700000D03*
X83820000Y-139700000D03*
D16*
X73698100Y-139100560D03*
X76200000Y-136601200D03*
X73698100Y-134099300D03*
X76200000Y-131599940D03*
X73698100Y-129100580D03*
X76200000Y-126601220D03*
X73698100Y-124099320D03*
X76200000Y-121599960D03*
X73698100Y-119100600D03*
X76200000Y-116601240D03*
X73698100Y-114099340D03*
X76200000Y-111599980D03*
X73698100Y-109100620D03*
X76200000Y-106601260D03*
X73698100Y-104099360D03*
X76200000Y-101600000D03*
X73698100Y-99100640D03*
X76200000Y-96601280D03*
X73698100Y-94099380D03*
X76200000Y-91600020D03*
X73698100Y-89100660D03*
X76200000Y-86601300D03*
X73698100Y-84099400D03*
X76200000Y-81600040D03*
X73698100Y-79100680D03*
X76200000Y-76601320D03*
X73698100Y-74099420D03*
X76200000Y-71600060D03*
X73698100Y-69100700D03*
X76200000Y-66601340D03*
X73700640Y-64099440D03*
D17*
X71198740Y-59100720D03*
X71198740Y-144101820D03*
D15*
X161719260Y-139100560D03*
D18*
X161218880Y-136601200D03*
D15*
X161719260Y-134099300D03*
D18*
X161218880Y-131599940D03*
D15*
X161719260Y-129100580D03*
D18*
X161218880Y-126601220D03*
D15*
X161719260Y-124099320D03*
D18*
X161218880Y-121599960D03*
D15*
X161719260Y-119100600D03*
D18*
X161218880Y-116601240D03*
D15*
X161719260Y-114099340D03*
D18*
X161218880Y-111599980D03*
D15*
X161719260Y-109100620D03*
D18*
X161218880Y-106601260D03*
D15*
X161719260Y-104099360D03*
D18*
X161218880Y-101600000D03*
D15*
X161719260Y-99100640D03*
D18*
X161218880Y-96601280D03*
D15*
X161719260Y-94099380D03*
D18*
X161218880Y-91600020D03*
D15*
X161719260Y-89100660D03*
D18*
X161218880Y-86601300D03*
D15*
X161719260Y-84099400D03*
D18*
X161218880Y-81600040D03*
D15*
X161719260Y-79100680D03*
D18*
X161218880Y-76601320D03*
D15*
X161719260Y-74099420D03*
D18*
X161218880Y-71600060D03*
D15*
X161719260Y-69100700D03*
D18*
X161218880Y-66601340D03*
D15*
X161719260Y-64099440D03*
X107950000Y-127000000D03*
X107950000Y-119380000D03*
X115570000Y-127000000D03*
X120650000Y-127000000D03*
X125730000Y-127000000D03*
X115570000Y-119380000D03*
X120650000Y-119380000D03*
X125730000Y-119380000D03*
X101600000Y-119380000D03*
X101600000Y-127000000D03*
X93980000Y-119380000D03*
X88900000Y-119380000D03*
X83820000Y-119380000D03*
X93980000Y-127000000D03*
X88900000Y-127000000D03*
X83820000Y-127000000D03*
X107950000Y-114300000D03*
X107950000Y-106680000D03*
X115570000Y-114300000D03*
X120650000Y-114300000D03*
X125730000Y-114300000D03*
X115570000Y-106680000D03*
X120650000Y-106680000D03*
X125730000Y-106680000D03*
X101600000Y-106680000D03*
X101600000Y-114300000D03*
X93980000Y-106680000D03*
X88900000Y-106680000D03*
X83820000Y-106680000D03*
X93980000Y-114300000D03*
X88900000Y-114300000D03*
X83820000Y-114300000D03*
X107950000Y-101600000D03*
X107950000Y-93980000D03*
X115570000Y-101600000D03*
X120650000Y-101600000D03*
X125730000Y-101600000D03*
X115570000Y-93980000D03*
X120650000Y-93980000D03*
X125730000Y-93980000D03*
X101600000Y-93980000D03*
X101600000Y-101600000D03*
X93980000Y-93980000D03*
X88900000Y-93980000D03*
X83820000Y-93980000D03*
X93980000Y-101600000D03*
X88900000Y-101600000D03*
X83820000Y-101600000D03*
X107950000Y-88900000D03*
X107950000Y-81280000D03*
X115570000Y-88900000D03*
X120650000Y-88900000D03*
X125730000Y-88900000D03*
X115570000Y-81280000D03*
X120650000Y-81280000D03*
X125730000Y-81280000D03*
X101600000Y-68580000D03*
X101600000Y-76200000D03*
X93980000Y-68580000D03*
X88900000Y-68580000D03*
X83820000Y-68580000D03*
X93980000Y-76200000D03*
X88900000Y-76200000D03*
X83820000Y-76200000D03*
X107950000Y-76200000D03*
X107950000Y-68580000D03*
X115570000Y-76200000D03*
X120650000Y-76200000D03*
X125730000Y-76200000D03*
X115570000Y-68580000D03*
X120650000Y-68580000D03*
X125730000Y-68580000D03*
X101600000Y-81280000D03*
X101600000Y-88900000D03*
X93980000Y-81280000D03*
X88900000Y-81280000D03*
X83820000Y-81280000D03*
X93980000Y-88900000D03*
X88900000Y-88900000D03*
X83820000Y-88900000D03*
X101600000Y-55880000D03*
X101600000Y-63500000D03*
X93980000Y-55880000D03*
X88900000Y-55880000D03*
X83820000Y-55880000D03*
X93980000Y-63500000D03*
X88900000Y-63500000D03*
X83820000Y-63500000D03*
D19*
X148209000Y-142113000D03*
D20*
X145669000Y-142113000D03*
X148209000Y-139573000D03*
D21*
X140208000Y-142113000D03*
D22*
X140208000Y-139573000D03*
M02*
