G04 #@! TF.GenerationSoftware,KiCad,Pcbnew,(6.0.7)*
G04 #@! TF.CreationDate,2024-05-12T15:56:34+02:00*
G04 #@! TF.ProjectId,sbk6ac,73626b36-6163-42e6-9b69-6361645f7063,0432 -*
G04 #@! TF.SameCoordinates,Original*
G04 #@! TF.FileFunction,Copper,L2,Bot*
G04 #@! TF.FilePolarity,Positive*
%FSLAX46Y46*%
G04 Gerber Fmt 4.6, Leading zero omitted, Abs format (unit mm)*
G04 Created by KiCad (PCBNEW (6.0.7)) date 2024-05-12 15:56:34*
%MOMM*%
%LPD*%
G01*
G04 APERTURE LIST*
G04 #@! TA.AperFunction,ComponentPad*
%ADD10C,1.778000*%
G04 #@! TD*
G04 #@! TA.AperFunction,ComponentPad*
%ADD11C,2.199640*%
G04 #@! TD*
G04 #@! TA.AperFunction,ComponentPad*
%ADD12C,3.500120*%
G04 #@! TD*
G04 #@! TA.AperFunction,ComponentPad*
%ADD13R,5.999480X1.998980*%
G04 #@! TD*
G04 #@! TA.AperFunction,ComponentPad*
%ADD14R,1.397000X1.397000*%
G04 #@! TD*
G04 #@! TA.AperFunction,ComponentPad*
%ADD15C,1.397000*%
G04 #@! TD*
G04 #@! TA.AperFunction,ComponentPad*
%ADD16R,1.651000X1.651000*%
G04 #@! TD*
G04 #@! TA.AperFunction,ComponentPad*
%ADD17C,1.651000*%
G04 #@! TD*
G04 #@! TA.AperFunction,SMDPad,CuDef*
%ADD18R,0.889000X1.397000*%
G04 #@! TD*
G04 #@! TA.AperFunction,SMDPad,CuDef*
%ADD19R,1.803400X1.600200*%
G04 #@! TD*
G04 #@! TA.AperFunction,ViaPad*
%ADD20C,0.889000*%
G04 #@! TD*
G04 #@! TA.AperFunction,Conductor*
%ADD21C,0.508000*%
G04 #@! TD*
G04 #@! TA.AperFunction,Conductor*
%ADD22C,1.778000*%
G04 #@! TD*
G04 #@! TA.AperFunction,Conductor*
%ADD23C,1.016000*%
G04 #@! TD*
G04 APERTURE END LIST*
D10*
X107950000Y-139700000D03*
X107950000Y-132080000D03*
X115570000Y-139700000D03*
X120650000Y-139700000D03*
X125730000Y-139700000D03*
X115570000Y-132080000D03*
X120650000Y-132080000D03*
X125730000Y-132080000D03*
X101600000Y-132080000D03*
X101600000Y-139700000D03*
X93980000Y-132080000D03*
X88900000Y-132080000D03*
X83820000Y-132080000D03*
X93980000Y-139700000D03*
X88900000Y-139700000D03*
X83820000Y-139700000D03*
D11*
X73698100Y-139100560D03*
X76200000Y-136601200D03*
X73698100Y-134099300D03*
X76200000Y-131599940D03*
X73698100Y-129100580D03*
X76200000Y-126601220D03*
X73698100Y-124099320D03*
X76200000Y-121599960D03*
X73698100Y-119100600D03*
X76200000Y-116601240D03*
X73698100Y-114099340D03*
X76200000Y-111599980D03*
X73698100Y-109100620D03*
X76200000Y-106601260D03*
X73698100Y-104099360D03*
X76200000Y-101600000D03*
X73698100Y-99100640D03*
X76200000Y-96601280D03*
X73698100Y-94099380D03*
X76200000Y-91600020D03*
X73698100Y-89100660D03*
X76200000Y-86601300D03*
X73698100Y-84099400D03*
X76200000Y-81600040D03*
X73698100Y-79100680D03*
X76200000Y-76601320D03*
X73698100Y-74099420D03*
X76200000Y-71600060D03*
X73698100Y-69100700D03*
X76200000Y-66601340D03*
X73700640Y-64099440D03*
D12*
X71198740Y-59100720D03*
X71198740Y-144101820D03*
D10*
X161719260Y-139100560D03*
D13*
X161218880Y-136601200D03*
D10*
X161719260Y-134099300D03*
D13*
X161218880Y-131599940D03*
D10*
X161719260Y-129100580D03*
D13*
X161218880Y-126601220D03*
D10*
X161719260Y-124099320D03*
D13*
X161218880Y-121599960D03*
D10*
X161719260Y-119100600D03*
D13*
X161218880Y-116601240D03*
D10*
X161719260Y-114099340D03*
D13*
X161218880Y-111599980D03*
D10*
X161719260Y-109100620D03*
D13*
X161218880Y-106601260D03*
D10*
X161719260Y-104099360D03*
D13*
X161218880Y-101600000D03*
D10*
X161719260Y-99100640D03*
D13*
X161218880Y-96601280D03*
D10*
X161719260Y-94099380D03*
D13*
X161218880Y-91600020D03*
D10*
X161719260Y-89100660D03*
D13*
X161218880Y-86601300D03*
D10*
X161719260Y-84099400D03*
D13*
X161218880Y-81600040D03*
D10*
X161719260Y-79100680D03*
D13*
X161218880Y-76601320D03*
D10*
X161719260Y-74099420D03*
D13*
X161218880Y-71600060D03*
D10*
X161719260Y-69100700D03*
D13*
X161218880Y-66601340D03*
D10*
X161719260Y-64099440D03*
X107950000Y-127000000D03*
X107950000Y-119380000D03*
X115570000Y-127000000D03*
X120650000Y-127000000D03*
X125730000Y-127000000D03*
X115570000Y-119380000D03*
X120650000Y-119380000D03*
X125730000Y-119380000D03*
X101600000Y-119380000D03*
X101600000Y-127000000D03*
X93980000Y-119380000D03*
X88900000Y-119380000D03*
X83820000Y-119380000D03*
X93980000Y-127000000D03*
X88900000Y-127000000D03*
X83820000Y-127000000D03*
X107950000Y-114300000D03*
X107950000Y-106680000D03*
X115570000Y-114300000D03*
X120650000Y-114300000D03*
X125730000Y-114300000D03*
X115570000Y-106680000D03*
X120650000Y-106680000D03*
X125730000Y-106680000D03*
X101600000Y-106680000D03*
X101600000Y-114300000D03*
X93980000Y-106680000D03*
X88900000Y-106680000D03*
X83820000Y-106680000D03*
X93980000Y-114300000D03*
X88900000Y-114300000D03*
X83820000Y-114300000D03*
X107950000Y-101600000D03*
X107950000Y-93980000D03*
X115570000Y-101600000D03*
X120650000Y-101600000D03*
X125730000Y-101600000D03*
X115570000Y-93980000D03*
X120650000Y-93980000D03*
X125730000Y-93980000D03*
X101600000Y-93980000D03*
X101600000Y-101600000D03*
X93980000Y-93980000D03*
X88900000Y-93980000D03*
X83820000Y-93980000D03*
X93980000Y-101600000D03*
X88900000Y-101600000D03*
X83820000Y-101600000D03*
X107950000Y-88900000D03*
X107950000Y-81280000D03*
X115570000Y-88900000D03*
X120650000Y-88900000D03*
X125730000Y-88900000D03*
X115570000Y-81280000D03*
X120650000Y-81280000D03*
X125730000Y-81280000D03*
X101600000Y-68580000D03*
X101600000Y-76200000D03*
X93980000Y-68580000D03*
X88900000Y-68580000D03*
X83820000Y-68580000D03*
X93980000Y-76200000D03*
X88900000Y-76200000D03*
X83820000Y-76200000D03*
X107950000Y-76200000D03*
X107950000Y-68580000D03*
X115570000Y-76200000D03*
X120650000Y-76200000D03*
X125730000Y-76200000D03*
X115570000Y-68580000D03*
X120650000Y-68580000D03*
X125730000Y-68580000D03*
X101600000Y-81280000D03*
X101600000Y-88900000D03*
X93980000Y-81280000D03*
X88900000Y-81280000D03*
X83820000Y-81280000D03*
X93980000Y-88900000D03*
X88900000Y-88900000D03*
X83820000Y-88900000D03*
X101600000Y-55880000D03*
X101600000Y-63500000D03*
X93980000Y-55880000D03*
X88900000Y-55880000D03*
X83820000Y-55880000D03*
X93980000Y-63500000D03*
X88900000Y-63500000D03*
X83820000Y-63500000D03*
D14*
X148209000Y-142113000D03*
D15*
X145669000Y-142113000D03*
X148209000Y-139573000D03*
D16*
X140208000Y-142113000D03*
D17*
X140208000Y-139573000D03*
D18*
X146240500Y-144907000D03*
X148145500Y-144907000D03*
D19*
X153289000Y-139446000D03*
X153289000Y-142240000D03*
D20*
X143256000Y-116332000D03*
X156718000Y-119380000D03*
X141351000Y-135763000D03*
X147447000Y-118110000D03*
X138557000Y-95377000D03*
X140589000Y-83947000D03*
X144399000Y-120015000D03*
X141605000Y-115951000D03*
X138049000Y-97282000D03*
X141605000Y-97282000D03*
X144653000Y-105537000D03*
X152146000Y-105537000D03*
X150749000Y-116586000D03*
X135300000Y-121700000D03*
X144018000Y-107442000D03*
X142875000Y-123698000D03*
X152146000Y-114173000D03*
X156845000Y-114173000D03*
X132700000Y-86200000D03*
X137795000Y-101092000D03*
X146177000Y-118999000D03*
X133096000Y-89789000D03*
X129159000Y-99441000D03*
X129159000Y-114046000D03*
X133604000Y-94996000D03*
X129159000Y-108839000D03*
D21*
X107950000Y-127000000D02*
X101600000Y-127000000D01*
X107950000Y-101600000D02*
X101600000Y-101600000D01*
X107950000Y-132080000D02*
X101600000Y-132080000D01*
X145669000Y-144335500D02*
X145669000Y-142113000D01*
X107950000Y-106680000D02*
X101600000Y-106680000D01*
X146240500Y-144907000D02*
X145669000Y-144335500D01*
X107950000Y-81280000D02*
X101600000Y-81280000D01*
X107950000Y-76200000D02*
X101600000Y-76200000D01*
X141351000Y-134747000D02*
X141351000Y-135763000D01*
X143256000Y-116332000D02*
X145669000Y-116332000D01*
X153289000Y-139446000D02*
X153162000Y-139573000D01*
X156718000Y-119380000D02*
X141351000Y-134747000D01*
X153162000Y-139573000D02*
X148209000Y-139573000D01*
X145669000Y-116332000D02*
X147447000Y-118110000D01*
D22*
X86360000Y-66040000D02*
X88900000Y-63500000D01*
X76200000Y-66601340D02*
X76761340Y-66040000D01*
X76761340Y-66040000D02*
X86360000Y-66040000D01*
X67945000Y-57150000D02*
X69215000Y-55880000D01*
X73698100Y-129100580D02*
X69850000Y-125252480D01*
X67945000Y-60960000D02*
X67945000Y-57150000D01*
X69850000Y-125252480D02*
X69850000Y-62865000D01*
X69850000Y-62865000D02*
X67945000Y-60960000D01*
X69215000Y-55880000D02*
X83820000Y-55880000D01*
D21*
X138557000Y-95377000D02*
X138557000Y-85979000D01*
X138557000Y-85979000D02*
X140589000Y-83947000D01*
X141605000Y-117221000D02*
X141605000Y-115951000D01*
X144399000Y-120015000D02*
X141605000Y-117221000D01*
X144653000Y-105537000D02*
X152146000Y-105537000D01*
X138049000Y-97282000D02*
X141605000Y-97282000D01*
X145635000Y-121700000D02*
X145669000Y-121666000D01*
X145669000Y-121666000D02*
X150749000Y-116586000D01*
X135300000Y-121700000D02*
X145635000Y-121700000D01*
X156845000Y-132461000D02*
X156845000Y-137414000D01*
D23*
X156845000Y-100203000D02*
X156845000Y-114173000D01*
D21*
X153289000Y-142240000D02*
X155829000Y-142240000D01*
D23*
X161719260Y-99100640D02*
X157947360Y-99100640D01*
D21*
X161719260Y-131599940D02*
X157706060Y-131599940D01*
D23*
X157947360Y-99100640D02*
X156845000Y-100203000D01*
D21*
X156845000Y-137414000D02*
X157657800Y-136601200D01*
X155829000Y-142240000D02*
X156845000Y-141224000D01*
X156845000Y-141224000D02*
X156845000Y-137414000D01*
X157706060Y-131599940D02*
X156845000Y-132461000D01*
X157657800Y-136601200D02*
X161719260Y-136601200D01*
X129159000Y-99441000D02*
X133604000Y-94996000D01*
X129159000Y-114046000D02*
X129159000Y-108839000D01*
D22*
X113000000Y-109220000D02*
X113030000Y-109220000D01*
X115570000Y-109220000D02*
X115550000Y-109200000D01*
X115550000Y-109200000D02*
X115500000Y-109200000D01*
X115500000Y-109200000D02*
X115570000Y-109200000D01*
X115570000Y-109200000D02*
X115570000Y-114300000D01*
X87630000Y-109220000D02*
X113000000Y-109220000D01*
X73700640Y-99100640D02*
X76200000Y-101600000D01*
X113000000Y-109220000D02*
X115570000Y-109220000D01*
X85090000Y-106680000D02*
X87630000Y-109220000D01*
X73698100Y-99100640D02*
X73700640Y-99100640D01*
X83820000Y-106680000D02*
X85090000Y-106680000D01*
X115570000Y-106680000D02*
X115570000Y-109200000D01*
X91440000Y-116840000D02*
X93980000Y-114300000D01*
X82550000Y-116840000D02*
X91440000Y-116840000D01*
X76200000Y-106680000D02*
X81280000Y-111760000D01*
X81280000Y-111760000D02*
X81280000Y-115570000D01*
X81280000Y-115570000D02*
X82550000Y-116840000D01*
X76200000Y-106601260D02*
X76200000Y-106680000D01*
X115570000Y-121920000D02*
X115590000Y-121900000D01*
X115590000Y-121900000D02*
X115600000Y-121900000D01*
X115600000Y-121900000D02*
X115570000Y-121900000D01*
X115570000Y-121900000D02*
X115570000Y-127000000D01*
X83820000Y-119380000D02*
X85090000Y-119380000D01*
X73700640Y-109100620D02*
X76200000Y-111599980D01*
X115570000Y-119380000D02*
X115570000Y-121900000D01*
X87630000Y-121920000D02*
X113030000Y-121920000D01*
X73698100Y-109100620D02*
X73700640Y-109100620D01*
X85090000Y-119380000D02*
X87630000Y-121920000D01*
X113030000Y-121920000D02*
X115570000Y-121920000D01*
X78740000Y-129141220D02*
X78740000Y-138430000D01*
X78740000Y-138430000D02*
X82550000Y-142240000D01*
X76200000Y-126601220D02*
X78740000Y-129141220D01*
X91440000Y-142240000D02*
X93980000Y-139700000D01*
X82550000Y-142240000D02*
X91440000Y-142240000D01*
X115570000Y-134620000D02*
X115590000Y-134600000D01*
X115590000Y-134600000D02*
X115600000Y-134600000D01*
X115600000Y-134600000D02*
X115570000Y-134600000D01*
X115570000Y-134600000D02*
X115570000Y-139700000D01*
X113030000Y-134620000D02*
X115570000Y-134620000D01*
X115570000Y-132080000D02*
X115570000Y-134600000D01*
X86360000Y-134620000D02*
X113030000Y-134620000D01*
X83820000Y-132080000D02*
X86360000Y-134620000D01*
X73698100Y-119100600D02*
X73700640Y-119100600D01*
X73700640Y-119100600D02*
X76200000Y-121599960D01*
X115570000Y-83820000D02*
X115590000Y-83800000D01*
X115590000Y-83800000D02*
X115600000Y-83800000D01*
X115600000Y-83800000D02*
X115570000Y-83800000D01*
X115570000Y-83800000D02*
X115570000Y-81280000D01*
X87630000Y-83820000D02*
X113030000Y-83820000D01*
X76520040Y-81280000D02*
X83820000Y-81280000D01*
X115570000Y-88900000D02*
X115570000Y-83800000D01*
X113030000Y-83820000D02*
X115570000Y-83820000D01*
X76197460Y-81600040D02*
X73698100Y-79100680D01*
X76200000Y-81600040D02*
X76197460Y-81600040D01*
X83820000Y-81280000D02*
X85090000Y-81280000D01*
X85090000Y-81280000D02*
X87630000Y-83820000D01*
X76200000Y-81600040D02*
X76520040Y-81280000D01*
X76200000Y-86601300D02*
X77711300Y-86601300D01*
X77711300Y-86601300D02*
X82550000Y-91440000D01*
X82550000Y-91440000D02*
X91440000Y-91440000D01*
X91440000Y-91440000D02*
X93980000Y-88900000D01*
X76200000Y-96601280D02*
X76200000Y-97790000D01*
X76200000Y-97790000D02*
X82550000Y-104140000D01*
X91440000Y-104140000D02*
X93980000Y-101600000D01*
X82550000Y-104140000D02*
X91440000Y-104140000D01*
X115570000Y-96520000D02*
X115570000Y-93980000D01*
X83820000Y-93980000D02*
X86360000Y-96520000D01*
X115570000Y-101600000D02*
X115570000Y-96520000D01*
X113030000Y-96520000D02*
X115570000Y-96520000D01*
X86360000Y-96520000D02*
X113030000Y-96520000D01*
X73700640Y-89100660D02*
X76200000Y-91600020D01*
X73698100Y-89100660D02*
X73700640Y-89100660D01*
X115570000Y-71120000D02*
X115550000Y-71100000D01*
X115550000Y-71100000D02*
X115500000Y-71100000D01*
X115500000Y-71100000D02*
X115570000Y-71100000D01*
X115570000Y-71100000D02*
X115570000Y-76200000D01*
X83299300Y-69100700D02*
X83820000Y-68580000D01*
X113000000Y-71120000D02*
X115570000Y-71120000D01*
X86360000Y-71120000D02*
X113000000Y-71120000D01*
X76200000Y-71600060D02*
X76197460Y-71600060D01*
X83820000Y-68580000D02*
X86360000Y-71120000D01*
X76197460Y-71600060D02*
X73698100Y-69100700D01*
X73698100Y-69100700D02*
X83299300Y-69100700D01*
X115570000Y-68580000D02*
X115570000Y-71100000D01*
X93980000Y-76200000D02*
X91440000Y-78740000D01*
X91440000Y-78740000D02*
X78338680Y-78740000D01*
X78338680Y-78740000D02*
X76200000Y-76601320D01*
X143400000Y-71600060D02*
X161719260Y-71600060D01*
X135299940Y-71600060D02*
X128200000Y-78700000D01*
X128200000Y-78700000D02*
X114000000Y-78700000D01*
X114000000Y-78700000D02*
X109399420Y-74099420D01*
X86360000Y-74099420D02*
X86799420Y-74099420D01*
X143355060Y-71600060D02*
X143400000Y-71600060D01*
X143400000Y-71600060D02*
X135299940Y-71600060D01*
X86799420Y-74099420D02*
X88900000Y-76200000D01*
X86360000Y-74099420D02*
X109399420Y-74099420D01*
X73698100Y-74099420D02*
X86360000Y-74099420D01*
X136000000Y-83710000D02*
X136000000Y-98200000D01*
X136000000Y-98200000D02*
X130100000Y-104100000D01*
X130100000Y-104100000D02*
X115700000Y-104100000D01*
X94660000Y-99060000D02*
X108760000Y-99060000D01*
X113800000Y-104100000D02*
X108760000Y-99060000D01*
X86360000Y-99060000D02*
X88900000Y-101600000D01*
X78859380Y-94099380D02*
X83820000Y-99060000D01*
X161719260Y-81600040D02*
X138109960Y-81600040D01*
X86360000Y-99060000D02*
X94660000Y-99060000D01*
X83820000Y-99060000D02*
X86360000Y-99060000D01*
X138109960Y-81600040D02*
X136000000Y-83710000D01*
X73698100Y-94099380D02*
X78859380Y-94099380D01*
X115700000Y-104100000D02*
X113800000Y-104100000D01*
X130300000Y-81155000D02*
X134853680Y-76601320D01*
X130300000Y-89100000D02*
X127900000Y-91500000D01*
X127900000Y-91500000D02*
X114300000Y-91500000D01*
X114300000Y-91500000D02*
X109160000Y-86360000D01*
X85090000Y-85090000D02*
X86360000Y-86360000D01*
X130175000Y-81280000D02*
X130300000Y-81155000D01*
X85090000Y-85090000D02*
X88900000Y-88900000D01*
X134853680Y-76601320D02*
X161719260Y-76601320D01*
X73698100Y-84099400D02*
X84099400Y-84099400D01*
X130300000Y-81155000D02*
X130300000Y-89100000D01*
X84099400Y-84099400D02*
X85090000Y-85090000D01*
X86360000Y-86360000D02*
X109160000Y-86360000D01*
X141000000Y-132050000D02*
X154305000Y-118745000D01*
X130550000Y-142500000D02*
X114700000Y-142500000D01*
X114700000Y-142500000D02*
X109360000Y-137160000D01*
X157398720Y-96601280D02*
X161719260Y-96601280D01*
X86360000Y-137160000D02*
X109360000Y-137160000D01*
X83820000Y-137160000D02*
X86360000Y-137160000D01*
X154305000Y-118745000D02*
X154305000Y-99695000D01*
X154305000Y-99695000D02*
X157398720Y-96601280D01*
X135890000Y-137160000D02*
X130550000Y-142500000D01*
X73698100Y-124099320D02*
X78379320Y-124099320D01*
X81280000Y-134620000D02*
X83820000Y-137160000D01*
X78379320Y-124099320D02*
X81280000Y-127000000D01*
X81280000Y-127000000D02*
X81280000Y-134620000D01*
X141000000Y-132050000D02*
X135890000Y-137160000D01*
X86360000Y-137160000D02*
X88900000Y-139700000D01*
X140970000Y-132080000D02*
X141000000Y-132050000D01*
X118070000Y-129500000D02*
X118100000Y-129500000D01*
X118100000Y-129500000D02*
X128100000Y-129500000D01*
X114700000Y-129500000D02*
X109660000Y-124460000D01*
X129600000Y-129500000D02*
X133400000Y-125700000D01*
X133400000Y-125700000D02*
X133400000Y-113800000D01*
X133400000Y-113800000D02*
X155599980Y-91600020D01*
X155599980Y-91600020D02*
X161719260Y-91600020D01*
X83820000Y-123190000D02*
X85090000Y-123190000D01*
X77269340Y-114099340D02*
X78740000Y-115570000D01*
X78740000Y-115570000D02*
X78740000Y-118110000D01*
X86360000Y-124460000D02*
X88900000Y-127000000D01*
X78740000Y-118110000D02*
X83820000Y-123190000D01*
X73698100Y-114099340D02*
X77269340Y-114099340D01*
X118100000Y-129500000D02*
X114700000Y-129500000D01*
X86360000Y-124460000D02*
X109660000Y-124460000D01*
X128100000Y-129500000D02*
X129600000Y-129500000D01*
X85090000Y-123190000D02*
X86360000Y-124460000D01*
X108860000Y-111760000D02*
X113900000Y-116800000D01*
X113900000Y-116800000D02*
X126600000Y-116800000D01*
X129300000Y-116800000D02*
X131000000Y-115100000D01*
X131000000Y-115100000D02*
X131000000Y-110935000D01*
X131000000Y-110935000D02*
X135255000Y-106680000D01*
X83820000Y-110490000D02*
X85090000Y-110490000D01*
X86360000Y-111760000D02*
X108500000Y-111760000D01*
X85090000Y-110490000D02*
X86360000Y-111760000D01*
X155333700Y-86601300D02*
X161719260Y-86601300D01*
X126600000Y-116800000D02*
X129300000Y-116800000D01*
X77429360Y-104099360D02*
X83820000Y-110490000D01*
X86360000Y-111760000D02*
X88900000Y-114300000D01*
X135255000Y-106680000D02*
X155333700Y-86601300D01*
X108500000Y-111760000D02*
X108860000Y-111760000D01*
X73698100Y-104099360D02*
X77429360Y-104099360D01*
X118600000Y-60400000D02*
X118800000Y-60400000D01*
X77400080Y-60400000D02*
X73700640Y-64099440D01*
X118800000Y-60400000D02*
X77400080Y-60400000D01*
X121300000Y-60400000D02*
X125730000Y-64830000D01*
X125730000Y-64830000D02*
X125730000Y-68580000D01*
X125730000Y-139700000D02*
X125730000Y-132080000D01*
X118800000Y-60400000D02*
X121300000Y-60400000D01*
X125730000Y-106680000D02*
X125730000Y-114300000D01*
X125730000Y-119380000D02*
X125730000Y-127000000D01*
X125730000Y-93980000D02*
X125730000Y-101600000D01*
X125730000Y-93980000D02*
X125730000Y-93980000D01*
X125730000Y-81280000D02*
X125730000Y-88900000D01*
X125730000Y-68580000D02*
X125730000Y-76200000D01*
D21*
X120650000Y-132080000D02*
X120650000Y-139700000D01*
X120650000Y-119380000D02*
X120650000Y-127000000D01*
X120650000Y-106680000D02*
X120650000Y-114300000D01*
X120650000Y-93980000D02*
X120650000Y-101600000D01*
X120650000Y-81280000D02*
X120650000Y-88900000D01*
X120650000Y-68580000D02*
X120650000Y-76200000D01*
G04 #@! TA.AperFunction,Conductor*
G36*
X158015536Y-97764782D02*
G01*
X158030940Y-97777196D01*
X158035656Y-97784254D01*
X158119839Y-97840504D01*
X158194073Y-97855270D01*
X160960515Y-97855270D01*
X161028636Y-97875272D01*
X161049610Y-97892175D01*
X161706448Y-98549013D01*
X161720392Y-98556627D01*
X161722225Y-98556496D01*
X161728840Y-98552245D01*
X162388911Y-97892174D01*
X162451223Y-97858148D01*
X162478003Y-97855269D01*
X163704000Y-97855269D01*
X163772121Y-97875271D01*
X163818614Y-97928927D01*
X163830000Y-97981269D01*
X163830000Y-100220010D01*
X163809998Y-100288131D01*
X163756342Y-100334624D01*
X163704000Y-100346010D01*
X162478005Y-100346010D01*
X162409884Y-100326008D01*
X162388910Y-100309105D01*
X161732072Y-99652267D01*
X161718128Y-99644653D01*
X161716295Y-99644784D01*
X161709680Y-99649035D01*
X161049609Y-100309106D01*
X160987297Y-100343132D01*
X160960518Y-100346011D01*
X158194074Y-100346011D01*
X158158322Y-100353122D01*
X158132014Y-100358354D01*
X158132012Y-100358355D01*
X158119839Y-100360776D01*
X158109519Y-100367671D01*
X158109518Y-100367672D01*
X158052692Y-100405643D01*
X158035656Y-100417026D01*
X157979406Y-100501209D01*
X157964640Y-100575443D01*
X157964641Y-102624556D01*
X157969526Y-102649115D01*
X157973372Y-102668451D01*
X157979406Y-102698791D01*
X157986301Y-102709111D01*
X157986302Y-102709112D01*
X158008350Y-102742108D01*
X158035656Y-102782974D01*
X158119839Y-102839224D01*
X158194073Y-102853990D01*
X160960515Y-102853990D01*
X161028636Y-102873992D01*
X161049610Y-102890895D01*
X161706448Y-103547733D01*
X161720392Y-103555347D01*
X161722225Y-103555216D01*
X161728840Y-103550965D01*
X162388911Y-102890894D01*
X162451223Y-102856868D01*
X162478003Y-102853989D01*
X163704000Y-102853989D01*
X163772121Y-102873991D01*
X163818614Y-102927647D01*
X163830000Y-102979989D01*
X163830000Y-105221270D01*
X163809998Y-105289391D01*
X163756342Y-105335884D01*
X163704000Y-105347270D01*
X162480545Y-105347270D01*
X162412424Y-105327268D01*
X162391450Y-105310365D01*
X161732072Y-104650987D01*
X161718128Y-104643373D01*
X161716295Y-104643504D01*
X161709680Y-104647755D01*
X161047069Y-105310366D01*
X160984757Y-105344392D01*
X160957978Y-105347271D01*
X158194074Y-105347271D01*
X158158322Y-105354382D01*
X158132014Y-105359614D01*
X158132012Y-105359615D01*
X158119839Y-105362036D01*
X158109519Y-105368931D01*
X158109518Y-105368932D01*
X158056493Y-105404363D01*
X158035656Y-105418286D01*
X157979406Y-105502469D01*
X157964640Y-105576703D01*
X157964641Y-107625816D01*
X157979406Y-107700051D01*
X157986301Y-107710371D01*
X157986302Y-107710372D01*
X158009419Y-107744968D01*
X158035656Y-107784234D01*
X158119839Y-107840484D01*
X158194073Y-107855250D01*
X161117675Y-107855250D01*
X161185794Y-107875251D01*
X161232287Y-107928907D01*
X161242391Y-107999181D01*
X161212897Y-108063761D01*
X161182097Y-108089534D01*
X161044248Y-108171546D01*
X160886241Y-108310114D01*
X160756132Y-108475157D01*
X160753441Y-108480273D01*
X160753439Y-108480275D01*
X160705962Y-108570514D01*
X160658278Y-108661147D01*
X160595956Y-108861854D01*
X160571255Y-109070558D01*
X160585000Y-109280269D01*
X160636731Y-109483963D01*
X160639150Y-109489210D01*
X160722298Y-109669573D01*
X160722301Y-109669578D01*
X160724717Y-109674819D01*
X160728048Y-109679532D01*
X160728049Y-109679534D01*
X160751945Y-109713345D01*
X160846011Y-109846445D01*
X160996549Y-109993094D01*
X161001345Y-109996299D01*
X161001348Y-109996301D01*
X161166482Y-110106640D01*
X161171291Y-110109853D01*
X161172364Y-110110314D01*
X161221625Y-110159337D01*
X161236884Y-110228674D01*
X161212235Y-110295254D01*
X161155502Y-110337939D01*
X161111184Y-110345990D01*
X158206003Y-110345991D01*
X158194074Y-110345991D01*
X158158322Y-110353102D01*
X158132014Y-110358334D01*
X158132012Y-110358335D01*
X158119839Y-110360756D01*
X158109519Y-110367651D01*
X158109518Y-110367652D01*
X158079341Y-110387816D01*
X158035656Y-110417006D01*
X157979406Y-110501189D01*
X157964640Y-110575423D01*
X157964641Y-112624536D01*
X157979406Y-112698771D01*
X158035656Y-112782954D01*
X158119839Y-112839204D01*
X158194073Y-112853970D01*
X161117675Y-112853970D01*
X161185794Y-112873971D01*
X161232287Y-112927627D01*
X161242391Y-112997901D01*
X161212897Y-113062481D01*
X161182097Y-113088254D01*
X161044248Y-113170266D01*
X160886241Y-113308834D01*
X160856993Y-113345935D01*
X160780276Y-113443251D01*
X160756132Y-113473877D01*
X160753441Y-113478993D01*
X160753439Y-113478995D01*
X160660970Y-113654750D01*
X160658278Y-113659867D01*
X160595956Y-113860574D01*
X160571255Y-114069278D01*
X160585000Y-114278989D01*
X160636731Y-114482683D01*
X160639150Y-114487930D01*
X160722298Y-114668293D01*
X160722301Y-114668298D01*
X160724717Y-114673539D01*
X160728048Y-114678252D01*
X160728049Y-114678254D01*
X160815202Y-114801571D01*
X160846011Y-114845165D01*
X160996549Y-114991814D01*
X161001345Y-114995019D01*
X161001348Y-114995021D01*
X161159128Y-115100446D01*
X161171291Y-115108573D01*
X161176106Y-115110642D01*
X161226304Y-115160599D01*
X161241562Y-115229936D01*
X161216912Y-115296516D01*
X161160178Y-115339199D01*
X161115862Y-115347250D01*
X158206021Y-115347251D01*
X158194074Y-115347251D01*
X158164335Y-115353166D01*
X158132014Y-115359594D01*
X158132012Y-115359595D01*
X158119839Y-115362016D01*
X158109519Y-115368911D01*
X158109518Y-115368912D01*
X158059766Y-115402156D01*
X158035656Y-115418266D01*
X157979406Y-115502449D01*
X157964640Y-115576683D01*
X157964641Y-117625796D01*
X157979406Y-117700031D01*
X158035656Y-117784214D01*
X158119839Y-117840464D01*
X158194073Y-117855230D01*
X161117675Y-117855230D01*
X161185794Y-117875231D01*
X161232287Y-117928887D01*
X161242391Y-117999161D01*
X161212897Y-118063741D01*
X161182097Y-118089514D01*
X161044248Y-118171526D01*
X160886241Y-118310094D01*
X160882670Y-118314624D01*
X160787006Y-118435974D01*
X160756132Y-118475137D01*
X160753441Y-118480253D01*
X160753439Y-118480255D01*
X160675065Y-118629220D01*
X160658278Y-118661127D01*
X160595956Y-118861834D01*
X160571255Y-119070538D01*
X160585000Y-119280249D01*
X160636731Y-119483943D01*
X160639150Y-119489190D01*
X160722298Y-119669553D01*
X160722301Y-119669558D01*
X160724717Y-119674799D01*
X160728048Y-119679512D01*
X160728049Y-119679514D01*
X160751945Y-119713325D01*
X160846011Y-119846425D01*
X160996549Y-119993074D01*
X161001345Y-119996279D01*
X161001348Y-119996281D01*
X161140049Y-120088958D01*
X161171291Y-120109833D01*
X161172364Y-120110294D01*
X161221625Y-120159317D01*
X161236884Y-120228654D01*
X161212235Y-120295234D01*
X161155502Y-120337919D01*
X161111184Y-120345970D01*
X158206003Y-120345971D01*
X158194074Y-120345971D01*
X158158322Y-120353082D01*
X158132014Y-120358314D01*
X158132012Y-120358315D01*
X158119839Y-120360736D01*
X158109519Y-120367631D01*
X158109518Y-120367632D01*
X158077191Y-120389233D01*
X158035656Y-120416986D01*
X157979406Y-120501169D01*
X157964640Y-120575403D01*
X157964641Y-122624516D01*
X157979406Y-122698751D01*
X158035656Y-122782934D01*
X158119839Y-122839184D01*
X158194073Y-122853950D01*
X161117675Y-122853950D01*
X161185794Y-122873951D01*
X161232287Y-122927607D01*
X161242391Y-122997881D01*
X161212897Y-123062461D01*
X161182097Y-123088234D01*
X161044248Y-123170246D01*
X160886241Y-123308814D01*
X160756132Y-123473857D01*
X160753441Y-123478973D01*
X160753439Y-123478975D01*
X160673943Y-123630073D01*
X160658278Y-123659847D01*
X160595956Y-123860554D01*
X160571255Y-124069258D01*
X160585000Y-124278969D01*
X160636731Y-124482663D01*
X160639150Y-124487910D01*
X160722298Y-124668273D01*
X160722301Y-124668278D01*
X160724717Y-124673519D01*
X160728048Y-124678232D01*
X160728049Y-124678234D01*
X160799142Y-124778827D01*
X160846011Y-124845145D01*
X160996549Y-124991794D01*
X161001345Y-124994999D01*
X161001348Y-124995001D01*
X161113983Y-125070261D01*
X161171291Y-125108553D01*
X161176106Y-125110622D01*
X161226304Y-125160579D01*
X161241562Y-125229916D01*
X161216912Y-125296496D01*
X161160178Y-125339179D01*
X161115862Y-125347230D01*
X158206021Y-125347231D01*
X158194074Y-125347231D01*
X158158322Y-125354342D01*
X158132014Y-125359574D01*
X158132012Y-125359575D01*
X158119839Y-125361996D01*
X158109519Y-125368891D01*
X158109518Y-125368892D01*
X158104834Y-125372022D01*
X158035656Y-125418246D01*
X157979406Y-125502429D01*
X157964640Y-125576663D01*
X157964641Y-127625776D01*
X157979406Y-127700011D01*
X157986301Y-127710331D01*
X157986302Y-127710332D01*
X158005642Y-127739275D01*
X158035656Y-127784194D01*
X158119839Y-127840444D01*
X158194073Y-127855210D01*
X161117675Y-127855210D01*
X161185794Y-127875211D01*
X161232287Y-127928867D01*
X161242391Y-127999141D01*
X161212897Y-128063721D01*
X161182097Y-128089494D01*
X161044248Y-128171506D01*
X160886241Y-128310074D01*
X160756132Y-128475117D01*
X160753441Y-128480233D01*
X160753439Y-128480235D01*
X160740029Y-128505724D01*
X160658278Y-128661107D01*
X160595956Y-128861814D01*
X160571255Y-129070518D01*
X160585000Y-129280229D01*
X160636731Y-129483923D01*
X160639150Y-129489170D01*
X160722298Y-129669533D01*
X160722301Y-129669538D01*
X160724717Y-129674779D01*
X160728048Y-129679492D01*
X160728049Y-129679494D01*
X160751945Y-129713305D01*
X160846011Y-129846405D01*
X160850147Y-129850434D01*
X160876592Y-129876196D01*
X160911430Y-129938058D01*
X160907292Y-130008934D01*
X160865492Y-130066322D01*
X160799302Y-130092001D01*
X160788670Y-130092450D01*
X158174471Y-130092451D01*
X158167650Y-130092821D01*
X158116788Y-130098345D01*
X158101536Y-130101971D01*
X157981086Y-130147126D01*
X157965491Y-130155664D01*
X157863416Y-130232165D01*
X157850855Y-130244726D01*
X157774354Y-130346801D01*
X157765816Y-130362396D01*
X157720662Y-130482844D01*
X157717035Y-130498099D01*
X157711509Y-130548964D01*
X157711140Y-130555778D01*
X157711140Y-131200825D01*
X157715615Y-131216064D01*
X157717005Y-131217269D01*
X157724688Y-131218940D01*
X161473880Y-131218940D01*
X161542001Y-131238942D01*
X161588494Y-131292598D01*
X161599880Y-131344940D01*
X161599880Y-131854940D01*
X161579878Y-131923061D01*
X161526222Y-131969554D01*
X161473880Y-131980940D01*
X157729256Y-131980940D01*
X157714017Y-131985415D01*
X157712812Y-131986805D01*
X157711141Y-131994488D01*
X157711141Y-132644099D01*
X157711511Y-132650920D01*
X157717035Y-132701782D01*
X157720661Y-132717034D01*
X157765816Y-132837484D01*
X157774354Y-132853079D01*
X157850855Y-132955154D01*
X157863416Y-132967715D01*
X157965491Y-133044216D01*
X157981086Y-133052754D01*
X158101534Y-133097908D01*
X158116789Y-133101535D01*
X158167654Y-133107061D01*
X158174468Y-133107430D01*
X160785209Y-133107429D01*
X160853330Y-133127431D01*
X160899823Y-133181087D01*
X160909927Y-133251361D01*
X160884159Y-133311435D01*
X160772730Y-133452783D01*
X160756132Y-133473837D01*
X160753441Y-133478953D01*
X160753439Y-133478955D01*
X160740029Y-133504444D01*
X160658278Y-133659827D01*
X160595956Y-133860534D01*
X160571255Y-134069238D01*
X160585000Y-134278949D01*
X160636731Y-134482643D01*
X160639150Y-134487890D01*
X160722298Y-134668253D01*
X160722301Y-134668258D01*
X160724717Y-134673499D01*
X160728048Y-134678212D01*
X160728049Y-134678214D01*
X160824128Y-134814161D01*
X160846011Y-134845125D01*
X160850147Y-134849154D01*
X160850152Y-134849160D01*
X160879199Y-134877456D01*
X160914037Y-134939317D01*
X160909900Y-135010193D01*
X160868101Y-135067581D01*
X160801912Y-135093260D01*
X160791278Y-135093710D01*
X158174471Y-135093711D01*
X158167650Y-135094081D01*
X158116788Y-135099605D01*
X158101536Y-135103231D01*
X157981086Y-135148386D01*
X157965491Y-135156924D01*
X157863416Y-135233425D01*
X157850855Y-135245986D01*
X157774354Y-135348061D01*
X157765816Y-135363656D01*
X157720662Y-135484104D01*
X157717035Y-135499359D01*
X157711509Y-135550224D01*
X157711140Y-135557038D01*
X157711140Y-136202085D01*
X157715615Y-136217324D01*
X157717005Y-136218529D01*
X157724688Y-136220200D01*
X161473880Y-136220200D01*
X161542001Y-136240202D01*
X161588494Y-136293858D01*
X161599880Y-136346200D01*
X161599880Y-136856200D01*
X161579878Y-136924321D01*
X161526222Y-136970814D01*
X161473880Y-136982200D01*
X157729256Y-136982200D01*
X157714017Y-136986675D01*
X157712812Y-136988065D01*
X157711141Y-136995748D01*
X157711141Y-137645359D01*
X157711511Y-137652180D01*
X157717035Y-137703042D01*
X157720661Y-137718294D01*
X157765816Y-137838744D01*
X157774354Y-137854339D01*
X157850855Y-137956414D01*
X157863416Y-137968975D01*
X157965491Y-138045476D01*
X157981086Y-138054014D01*
X158101534Y-138099168D01*
X158116789Y-138102795D01*
X158167654Y-138108321D01*
X158174468Y-138108690D01*
X160785209Y-138108689D01*
X160853330Y-138128691D01*
X160899823Y-138182347D01*
X160909927Y-138252621D01*
X160884159Y-138312695D01*
X160772730Y-138454043D01*
X160756132Y-138475097D01*
X160753441Y-138480213D01*
X160753439Y-138480215D01*
X160664675Y-138648928D01*
X160658278Y-138661087D01*
X160595956Y-138861794D01*
X160595277Y-138867529D01*
X160595277Y-138867530D01*
X160586748Y-138939593D01*
X160571255Y-139070498D01*
X160585000Y-139280209D01*
X160636731Y-139483903D01*
X160639150Y-139489150D01*
X160722298Y-139669513D01*
X160722301Y-139669518D01*
X160724717Y-139674759D01*
X160728048Y-139679472D01*
X160728049Y-139679474D01*
X160820833Y-139810759D01*
X160846011Y-139846385D01*
X160996549Y-139993034D01*
X161001345Y-139996239D01*
X161001348Y-139996241D01*
X161071759Y-140043288D01*
X161171291Y-140109793D01*
X161176599Y-140112074D01*
X161176600Y-140112074D01*
X161359082Y-140190474D01*
X161359085Y-140190475D01*
X161364385Y-140192752D01*
X161370014Y-140194026D01*
X161370015Y-140194026D01*
X161563727Y-140237859D01*
X161563733Y-140237860D01*
X161569364Y-140239134D01*
X161575135Y-140239361D01*
X161575137Y-140239361D01*
X161638693Y-140241858D01*
X161779363Y-140247385D01*
X161987348Y-140217229D01*
X161992812Y-140215374D01*
X161992817Y-140215373D01*
X162180884Y-140151533D01*
X162180889Y-140151531D01*
X162186356Y-140149675D01*
X162231590Y-140124343D01*
X162289795Y-140091746D01*
X162369720Y-140046986D01*
X162531301Y-139912601D01*
X162665686Y-139751020D01*
X162768375Y-139567656D01*
X162770231Y-139562189D01*
X162770233Y-139562184D01*
X162834073Y-139374117D01*
X162834074Y-139374112D01*
X162835929Y-139368648D01*
X162866085Y-139160663D01*
X162867659Y-139100560D01*
X162848429Y-138891281D01*
X162846644Y-138884950D01*
X162810142Y-138755525D01*
X162791383Y-138689011D01*
X162723429Y-138551214D01*
X162700986Y-138505704D01*
X162698431Y-138500523D01*
X162670500Y-138463118D01*
X162576140Y-138336755D01*
X162576139Y-138336754D01*
X162572687Y-138332131D01*
X162568448Y-138328213D01*
X162568444Y-138328208D01*
X162567367Y-138327212D01*
X162567010Y-138326615D01*
X162564579Y-138323915D01*
X162565109Y-138323438D01*
X162530922Y-138266283D01*
X162533204Y-138195323D01*
X162573488Y-138136862D01*
X162638983Y-138109460D01*
X162652897Y-138108689D01*
X163704000Y-138108689D01*
X163772121Y-138128691D01*
X163818614Y-138182347D01*
X163830000Y-138234689D01*
X163830000Y-148464000D01*
X163809998Y-148532121D01*
X163756342Y-148578614D01*
X163704000Y-148590000D01*
X67436000Y-148590000D01*
X67367879Y-148569998D01*
X67321386Y-148516342D01*
X67310000Y-148464000D01*
X67310000Y-144038694D01*
X69190052Y-144038694D01*
X69201197Y-144322351D01*
X69201997Y-144326731D01*
X69237865Y-144523124D01*
X69252198Y-144601607D01*
X69277694Y-144678027D01*
X69312574Y-144782575D01*
X69342038Y-144870891D01*
X69344030Y-144874878D01*
X69344031Y-144874880D01*
X69427641Y-145042209D01*
X69468924Y-145124830D01*
X69630325Y-145358358D01*
X69823019Y-145566814D01*
X69826473Y-145569626D01*
X70039706Y-145743225D01*
X70039710Y-145743228D01*
X70043163Y-145746039D01*
X70286364Y-145892458D01*
X70290459Y-145894192D01*
X70290461Y-145894193D01*
X70470367Y-145970373D01*
X70547770Y-146003149D01*
X70552063Y-146004287D01*
X70552068Y-146004289D01*
X70695569Y-146042337D01*
X70822164Y-146075903D01*
X71104071Y-146109269D01*
X71387868Y-146102581D01*
X71431107Y-146095384D01*
X71663500Y-146056703D01*
X71663504Y-146056702D01*
X71667890Y-146055972D01*
X71672131Y-146054631D01*
X71672134Y-146054630D01*
X71934307Y-145971716D01*
X71934309Y-145971715D01*
X71938553Y-145970373D01*
X72100810Y-145892458D01*
X72190434Y-145849421D01*
X72190435Y-145849420D01*
X72194453Y-145847491D01*
X72198159Y-145845015D01*
X72426779Y-145692257D01*
X72426783Y-145692254D01*
X72430487Y-145689779D01*
X72641944Y-145500382D01*
X72824605Y-145283080D01*
X72974826Y-145042209D01*
X73014471Y-144952535D01*
X73087809Y-144786646D01*
X73089609Y-144782575D01*
X73166664Y-144509358D01*
X73183720Y-144382378D01*
X73204027Y-144231191D01*
X73204028Y-144231183D01*
X73204454Y-144228009D01*
X73204555Y-144224798D01*
X73208319Y-144105042D01*
X73208319Y-144105037D01*
X73208420Y-144101820D01*
X73203951Y-144038694D01*
X73188686Y-143823103D01*
X73188371Y-143818654D01*
X73128623Y-143541137D01*
X73124509Y-143529984D01*
X73031910Y-143278985D01*
X73030369Y-143274808D01*
X73021854Y-143259026D01*
X72897682Y-143028896D01*
X72895569Y-143024980D01*
X72726913Y-142796637D01*
X72704020Y-142773381D01*
X72597325Y-142664998D01*
X72527765Y-142594337D01*
X72302100Y-142422115D01*
X72238030Y-142386234D01*
X72058306Y-142285583D01*
X72058303Y-142285582D01*
X72054420Y-142283407D01*
X72050275Y-142281803D01*
X72050272Y-142281802D01*
X71903765Y-142225123D01*
X71789667Y-142180982D01*
X71785342Y-142179979D01*
X71785337Y-142179978D01*
X71674396Y-142154263D01*
X71513123Y-142116882D01*
X71230307Y-142092388D01*
X71225872Y-142092632D01*
X71225868Y-142092632D01*
X70951303Y-142107742D01*
X70951296Y-142107743D01*
X70946860Y-142107987D01*
X70668440Y-142163368D01*
X70664230Y-142164846D01*
X70664228Y-142164847D01*
X70618283Y-142180982D01*
X70400600Y-142257427D01*
X70396649Y-142259480D01*
X70396643Y-142259482D01*
X70334450Y-142291789D01*
X70148685Y-142388286D01*
X70145070Y-142390869D01*
X70145064Y-142390873D01*
X70000753Y-142494000D01*
X69917722Y-142553335D01*
X69712318Y-142749280D01*
X69536573Y-142972212D01*
X69472331Y-143082813D01*
X69396226Y-143213836D01*
X69396223Y-143213842D01*
X69393992Y-143217683D01*
X69392322Y-143221806D01*
X69290275Y-143473750D01*
X69287421Y-143480795D01*
X69286350Y-143485108D01*
X69286348Y-143485113D01*
X69231381Y-143706395D01*
X69218985Y-143756298D01*
X69218531Y-143760726D01*
X69218531Y-143760728D01*
X69197044Y-143970446D01*
X69190052Y-144038694D01*
X67310000Y-144038694D01*
X67310000Y-139067358D01*
X72339544Y-139067358D01*
X72339841Y-139072511D01*
X72339841Y-139072514D01*
X72345093Y-139163595D01*
X72352363Y-139289691D01*
X72353500Y-139294737D01*
X72353501Y-139294743D01*
X72365061Y-139346036D01*
X72401324Y-139506945D01*
X72403266Y-139511727D01*
X72403267Y-139511731D01*
X72483166Y-139708498D01*
X72485110Y-139713285D01*
X72601472Y-139903171D01*
X72747284Y-140071501D01*
X72751259Y-140074802D01*
X72751262Y-140074804D01*
X72765072Y-140086269D01*
X72918631Y-140213757D01*
X73110912Y-140326116D01*
X73318962Y-140405563D01*
X73324028Y-140406594D01*
X73324029Y-140406594D01*
X73421408Y-140426406D01*
X73537194Y-140449962D01*
X73662420Y-140454554D01*
X73754583Y-140457934D01*
X73754587Y-140457934D01*
X73759747Y-140458123D01*
X73764867Y-140457467D01*
X73764869Y-140457467D01*
X73835180Y-140448460D01*
X73980644Y-140429825D01*
X73985592Y-140428340D01*
X73985599Y-140428339D01*
X74189011Y-140367312D01*
X74193954Y-140365829D01*
X74215347Y-140355349D01*
X74389309Y-140270126D01*
X74393947Y-140267854D01*
X74463760Y-140218057D01*
X74571040Y-140141535D01*
X74571045Y-140141531D01*
X74575252Y-140138530D01*
X74733002Y-139981330D01*
X74862958Y-139800477D01*
X74886267Y-139753316D01*
X74959337Y-139605469D01*
X74959338Y-139605467D01*
X74961631Y-139600827D01*
X75026371Y-139387742D01*
X75055440Y-139166945D01*
X75055522Y-139163595D01*
X75056980Y-139103925D01*
X75056980Y-139103921D01*
X75057062Y-139100560D01*
X75038814Y-138878606D01*
X74984560Y-138662613D01*
X74929628Y-138536278D01*
X74897818Y-138463118D01*
X74897816Y-138463115D01*
X74895758Y-138458381D01*
X74808768Y-138323915D01*
X74777602Y-138275739D01*
X74777600Y-138275736D01*
X74774792Y-138271396D01*
X74759203Y-138254263D01*
X74628388Y-138110500D01*
X74628386Y-138110498D01*
X74624910Y-138106678D01*
X74620859Y-138103479D01*
X74620855Y-138103475D01*
X74467485Y-137982352D01*
X74457799Y-137974702D01*
X75370933Y-137974702D01*
X75376660Y-137982352D01*
X75463588Y-138035622D01*
X75472382Y-138040103D01*
X75697047Y-138133162D01*
X75706432Y-138136211D01*
X75942891Y-138192981D01*
X75952638Y-138194524D01*
X76195070Y-138213604D01*
X76204930Y-138213604D01*
X76447362Y-138194524D01*
X76457109Y-138192981D01*
X76693568Y-138136211D01*
X76702953Y-138133162D01*
X76927618Y-138040103D01*
X76936412Y-138035622D01*
X77019674Y-137984599D01*
X77029134Y-137974142D01*
X77025351Y-137965366D01*
X76212812Y-137152827D01*
X76198868Y-137145213D01*
X76197035Y-137145344D01*
X76190420Y-137149595D01*
X75377693Y-137962322D01*
X75370933Y-137974702D01*
X74457799Y-137974702D01*
X74450138Y-137968652D01*
X74255170Y-137861023D01*
X74130102Y-137816735D01*
X74050113Y-137788409D01*
X74050110Y-137788408D01*
X74045241Y-137786684D01*
X74040152Y-137785777D01*
X74040150Y-137785777D01*
X73831078Y-137748535D01*
X73831074Y-137748535D01*
X73825990Y-137747629D01*
X73739703Y-137746575D01*
X73608473Y-137744971D01*
X73608471Y-137744971D01*
X73603304Y-137744908D01*
X73383163Y-137778595D01*
X73171481Y-137847783D01*
X72973941Y-137950616D01*
X72969808Y-137953719D01*
X72969805Y-137953721D01*
X72799985Y-138081226D01*
X72795850Y-138084331D01*
X72758775Y-138123128D01*
X72671973Y-138213961D01*
X72641988Y-138245338D01*
X72639074Y-138249610D01*
X72639073Y-138249611D01*
X72616089Y-138283304D01*
X72516489Y-138429312D01*
X72492861Y-138480215D01*
X72427589Y-138620833D01*
X72422724Y-138631313D01*
X72363209Y-138845916D01*
X72339544Y-139067358D01*
X67310000Y-139067358D01*
X67310000Y-136606130D01*
X74587596Y-136606130D01*
X74606676Y-136848562D01*
X74608219Y-136858309D01*
X74664989Y-137094768D01*
X74668038Y-137104153D01*
X74761097Y-137328818D01*
X74765578Y-137337612D01*
X74816601Y-137420874D01*
X74827058Y-137430334D01*
X74835834Y-137426551D01*
X75648373Y-136614012D01*
X75655987Y-136600068D01*
X75655856Y-136598235D01*
X75651605Y-136591620D01*
X74838878Y-135778893D01*
X74826498Y-135772133D01*
X74818848Y-135777860D01*
X74765578Y-135864788D01*
X74761097Y-135873582D01*
X74668038Y-136098247D01*
X74664989Y-136107632D01*
X74608219Y-136344091D01*
X74606676Y-136353838D01*
X74587596Y-136596270D01*
X74587596Y-136606130D01*
X67310000Y-136606130D01*
X67310000Y-134066098D01*
X72339544Y-134066098D01*
X72339841Y-134071251D01*
X72339841Y-134071254D01*
X72345093Y-134162335D01*
X72352363Y-134288431D01*
X72353500Y-134293477D01*
X72353501Y-134293483D01*
X72365066Y-134344800D01*
X72401324Y-134505685D01*
X72403266Y-134510467D01*
X72403267Y-134510471D01*
X72454517Y-134636684D01*
X72485110Y-134712025D01*
X72601472Y-134901911D01*
X72747284Y-135070241D01*
X72751259Y-135073542D01*
X72751262Y-135073544D01*
X72775999Y-135094081D01*
X72918631Y-135212497D01*
X73110912Y-135324856D01*
X73115737Y-135326698D01*
X73115738Y-135326699D01*
X73187704Y-135354180D01*
X73318962Y-135404303D01*
X73324028Y-135405334D01*
X73324029Y-135405334D01*
X73415999Y-135424045D01*
X73537194Y-135448702D01*
X73662420Y-135453294D01*
X73754583Y-135456674D01*
X73754587Y-135456674D01*
X73759747Y-135456863D01*
X73764867Y-135456207D01*
X73764869Y-135456207D01*
X73845130Y-135445925D01*
X73980644Y-135428565D01*
X73985592Y-135427080D01*
X73985599Y-135427079D01*
X74189011Y-135366052D01*
X74193954Y-135364569D01*
X74393947Y-135266594D01*
X74447692Y-135228258D01*
X75370866Y-135228258D01*
X75374649Y-135237034D01*
X76187188Y-136049573D01*
X76201132Y-136057187D01*
X76202965Y-136057056D01*
X76209580Y-136052805D01*
X77022307Y-135240078D01*
X77029067Y-135227698D01*
X77023340Y-135220048D01*
X76936412Y-135166778D01*
X76927618Y-135162297D01*
X76702953Y-135069238D01*
X76693568Y-135066189D01*
X76457109Y-135009419D01*
X76447362Y-135007876D01*
X76204930Y-134988796D01*
X76195070Y-134988796D01*
X75952638Y-135007876D01*
X75942891Y-135009419D01*
X75706432Y-135066189D01*
X75697047Y-135069238D01*
X75472382Y-135162297D01*
X75463588Y-135166778D01*
X75380326Y-135217801D01*
X75370866Y-135228258D01*
X74447692Y-135228258D01*
X74462352Y-135217801D01*
X74571040Y-135140275D01*
X74571045Y-135140271D01*
X74575252Y-135137270D01*
X74733002Y-134980070D01*
X74862958Y-134799217D01*
X74871497Y-134781941D01*
X74959337Y-134604209D01*
X74959338Y-134604207D01*
X74961631Y-134599567D01*
X75026371Y-134386482D01*
X75055440Y-134165685D01*
X75055522Y-134162335D01*
X75056980Y-134102665D01*
X75056980Y-134102661D01*
X75057062Y-134099300D01*
X75038814Y-133877346D01*
X74984560Y-133661353D01*
X74932757Y-133542213D01*
X74897818Y-133461858D01*
X74897816Y-133461855D01*
X74895758Y-133457121D01*
X74808768Y-133322655D01*
X74777602Y-133274479D01*
X74777600Y-133274476D01*
X74774792Y-133270136D01*
X74754970Y-133248351D01*
X74628388Y-133109240D01*
X74628386Y-133109238D01*
X74624910Y-133105418D01*
X74620859Y-133102219D01*
X74620855Y-133102215D01*
X74467485Y-132981092D01*
X74457799Y-132973442D01*
X75370933Y-132973442D01*
X75376660Y-132981092D01*
X75463588Y-133034362D01*
X75472382Y-133038843D01*
X75697047Y-133131902D01*
X75706432Y-133134951D01*
X75942891Y-133191721D01*
X75952638Y-133193264D01*
X76195070Y-133212344D01*
X76204930Y-133212344D01*
X76447362Y-133193264D01*
X76457109Y-133191721D01*
X76693568Y-133134951D01*
X76702953Y-133131902D01*
X76927618Y-133038843D01*
X76936412Y-133034362D01*
X77019674Y-132983339D01*
X77029134Y-132972882D01*
X77025351Y-132964106D01*
X76212812Y-132151567D01*
X76198868Y-132143953D01*
X76197035Y-132144084D01*
X76190420Y-132148335D01*
X75377693Y-132961062D01*
X75370933Y-132973442D01*
X74457799Y-132973442D01*
X74450138Y-132967392D01*
X74255170Y-132859763D01*
X74130102Y-132815475D01*
X74050113Y-132787149D01*
X74050110Y-132787148D01*
X74045241Y-132785424D01*
X74040152Y-132784517D01*
X74040150Y-132784517D01*
X73831078Y-132747275D01*
X73831074Y-132747275D01*
X73825990Y-132746369D01*
X73739703Y-132745315D01*
X73608473Y-132743711D01*
X73608471Y-132743711D01*
X73603304Y-132743648D01*
X73383163Y-132777335D01*
X73171481Y-132846523D01*
X72973941Y-132949356D01*
X72969808Y-132952459D01*
X72969805Y-132952461D01*
X72799985Y-133079966D01*
X72795850Y-133083071D01*
X72778205Y-133101535D01*
X72692022Y-133191721D01*
X72641988Y-133244078D01*
X72516489Y-133428052D01*
X72422724Y-133630053D01*
X72363209Y-133844656D01*
X72339544Y-134066098D01*
X67310000Y-134066098D01*
X67310000Y-130936000D01*
X67330002Y-130867879D01*
X67383658Y-130821386D01*
X67436000Y-130810000D01*
X74598340Y-130810000D01*
X74666461Y-130830002D01*
X74712954Y-130883658D01*
X74723058Y-130953932D01*
X74714749Y-130984218D01*
X74668038Y-131096987D01*
X74664989Y-131106372D01*
X74608219Y-131342831D01*
X74606676Y-131352578D01*
X74587596Y-131595010D01*
X74587596Y-131604870D01*
X74606676Y-131847302D01*
X74608219Y-131857049D01*
X74664989Y-132093508D01*
X74668038Y-132102893D01*
X74761097Y-132327558D01*
X74765578Y-132336352D01*
X74816601Y-132419614D01*
X74827058Y-132429074D01*
X74835834Y-132425291D01*
X76110905Y-131150220D01*
X76173217Y-131116194D01*
X76244032Y-131121259D01*
X76289095Y-131150220D01*
X77559595Y-132420720D01*
X77593621Y-132483032D01*
X77596500Y-132509815D01*
X77596500Y-135691325D01*
X77576498Y-135759446D01*
X77559595Y-135780420D01*
X76751627Y-136588388D01*
X76744013Y-136602332D01*
X76744144Y-136604165D01*
X76748395Y-136610780D01*
X77559595Y-137421980D01*
X77593621Y-137484292D01*
X77596500Y-137511075D01*
X77596500Y-138387195D01*
X77596230Y-138395436D01*
X77591994Y-138460061D01*
X77602399Y-138547973D01*
X77602736Y-138551186D01*
X77610831Y-138639279D01*
X77612399Y-138644839D01*
X77613061Y-138648412D01*
X77615250Y-138659415D01*
X77616018Y-138663028D01*
X77616697Y-138668765D01*
X77642938Y-138753276D01*
X77643854Y-138756373D01*
X77667877Y-138841549D01*
X77670435Y-138846737D01*
X77671760Y-138850188D01*
X77675901Y-138860566D01*
X77677304Y-138863953D01*
X77679018Y-138869473D01*
X77681709Y-138874587D01*
X77681709Y-138874588D01*
X77720198Y-138947745D01*
X77721695Y-138950681D01*
X77760829Y-139030037D01*
X77764287Y-139034668D01*
X77766250Y-139037871D01*
X77772173Y-139047258D01*
X77774182Y-139050351D01*
X77776871Y-139055463D01*
X77831656Y-139124956D01*
X77833627Y-139127526D01*
X77883116Y-139193801D01*
X77883123Y-139193808D01*
X77886573Y-139198429D01*
X77890807Y-139202343D01*
X77890809Y-139202345D01*
X77946973Y-139254262D01*
X77950539Y-139257692D01*
X79973095Y-141280248D01*
X80007121Y-141342560D01*
X80010000Y-141369343D01*
X80010000Y-142240000D01*
X80880657Y-142240000D01*
X80948778Y-142260002D01*
X80969752Y-142276905D01*
X81711151Y-143018304D01*
X81716788Y-143024322D01*
X81759494Y-143073019D01*
X81764029Y-143076594D01*
X81764030Y-143076595D01*
X81828982Y-143127798D01*
X81831547Y-143129876D01*
X81895100Y-143182734D01*
X81895105Y-143182738D01*
X81899540Y-143186426D01*
X81904574Y-143189245D01*
X81907584Y-143191314D01*
X81916854Y-143197508D01*
X81919999Y-143199551D01*
X81924537Y-143203128D01*
X81929645Y-143205816D01*
X81929649Y-143205818D01*
X82002816Y-143244312D01*
X82005716Y-143245887D01*
X82074346Y-143284322D01*
X82082904Y-143289115D01*
X82088376Y-143290972D01*
X82091776Y-143292486D01*
X82101987Y-143296873D01*
X82105421Y-143298295D01*
X82110527Y-143300982D01*
X82116041Y-143302694D01*
X82116043Y-143302695D01*
X82194999Y-143327212D01*
X82198135Y-143328231D01*
X82251280Y-143346271D01*
X82281912Y-143356669D01*
X82287625Y-143357498D01*
X82291138Y-143358341D01*
X82302151Y-143360833D01*
X82305718Y-143361591D01*
X82311234Y-143363304D01*
X82316962Y-143363982D01*
X82316967Y-143363983D01*
X82369182Y-143370163D01*
X82399099Y-143373704D01*
X82402322Y-143374128D01*
X82438419Y-143379362D01*
X82484184Y-143385998D01*
X82484189Y-143385998D01*
X82489898Y-143386826D01*
X82572069Y-143383597D01*
X82577017Y-143383500D01*
X91397195Y-143383500D01*
X91405436Y-143383770D01*
X91470061Y-143388006D01*
X91557973Y-143377601D01*
X91561186Y-143377264D01*
X91649279Y-143369169D01*
X91654839Y-143367601D01*
X91658412Y-143366939D01*
X91669415Y-143364750D01*
X91673028Y-143363982D01*
X91678765Y-143363303D01*
X91763276Y-143337062D01*
X91766373Y-143336146D01*
X91851549Y-143312123D01*
X91856737Y-143309565D01*
X91860188Y-143308240D01*
X91870566Y-143304099D01*
X91873953Y-143302696D01*
X91879473Y-143300982D01*
X91957746Y-143259801D01*
X91960682Y-143258305D01*
X91985863Y-143245887D01*
X92040037Y-143219171D01*
X92044668Y-143215713D01*
X92047871Y-143213750D01*
X92057258Y-143207827D01*
X92060351Y-143205818D01*
X92065463Y-143203129D01*
X92134956Y-143148344D01*
X92137526Y-143146373D01*
X92203801Y-143096884D01*
X92203808Y-143096877D01*
X92208429Y-143093427D01*
X92216433Y-143084769D01*
X92264262Y-143033027D01*
X92267692Y-143029461D01*
X93020248Y-142276905D01*
X93082560Y-142242879D01*
X93109343Y-142240000D01*
X112770657Y-142240000D01*
X112838778Y-142260002D01*
X112859752Y-142276905D01*
X113861151Y-143278304D01*
X113866788Y-143284322D01*
X113909494Y-143333019D01*
X113978973Y-143387793D01*
X113981517Y-143389853D01*
X114045092Y-143442728D01*
X114045102Y-143442735D01*
X114049539Y-143446425D01*
X114054583Y-143449250D01*
X114057641Y-143451351D01*
X114066921Y-143457552D01*
X114070005Y-143459555D01*
X114074537Y-143463128D01*
X114079638Y-143465812D01*
X114079643Y-143465815D01*
X114152829Y-143504319D01*
X114155729Y-143505894D01*
X114223102Y-143543625D01*
X114232903Y-143549114D01*
X114238378Y-143550972D01*
X114241767Y-143552481D01*
X114252026Y-143556889D01*
X114255418Y-143558294D01*
X114260527Y-143560982D01*
X114283902Y-143568240D01*
X114344998Y-143587211D01*
X114348136Y-143588230D01*
X114426437Y-143614810D01*
X114426439Y-143614810D01*
X114431911Y-143616668D01*
X114437635Y-143617498D01*
X114441247Y-143618365D01*
X114452138Y-143620830D01*
X114455716Y-143621591D01*
X114461234Y-143623304D01*
X114466971Y-143623983D01*
X114549101Y-143633703D01*
X114552367Y-143634133D01*
X114567910Y-143636387D01*
X114634184Y-143645997D01*
X114634188Y-143645997D01*
X114639897Y-143646825D01*
X114722054Y-143643597D01*
X114727001Y-143643500D01*
X130507195Y-143643500D01*
X130515436Y-143643770D01*
X130580061Y-143648006D01*
X130667973Y-143637601D01*
X130671186Y-143637264D01*
X130759279Y-143629169D01*
X130764839Y-143627601D01*
X130768412Y-143626939D01*
X130779415Y-143624750D01*
X130783028Y-143623982D01*
X130788765Y-143623303D01*
X130873276Y-143597062D01*
X130876373Y-143596146D01*
X130961549Y-143572123D01*
X130966737Y-143569565D01*
X130970188Y-143568240D01*
X130980566Y-143564099D01*
X130983953Y-143562696D01*
X130989473Y-143560982D01*
X131067746Y-143519801D01*
X131070682Y-143518305D01*
X131150037Y-143479171D01*
X131154668Y-143475713D01*
X131157871Y-143473750D01*
X131167258Y-143467827D01*
X131170351Y-143465818D01*
X131175463Y-143463129D01*
X131244956Y-143408344D01*
X131247526Y-143406373D01*
X131313801Y-143356884D01*
X131313808Y-143356877D01*
X131318429Y-143353427D01*
X131374263Y-143293026D01*
X131377692Y-143289461D01*
X133404720Y-141262433D01*
X139128000Y-141262433D01*
X139128001Y-142963566D01*
X139129721Y-142972212D01*
X139139504Y-143021398D01*
X139142766Y-143037801D01*
X139149661Y-143048120D01*
X139149662Y-143048122D01*
X139190016Y-143108515D01*
X139199016Y-143121984D01*
X139283199Y-143178234D01*
X139357433Y-143193000D01*
X140207862Y-143193000D01*
X141058566Y-143192999D01*
X141094318Y-143185888D01*
X141120626Y-143180656D01*
X141120628Y-143180655D01*
X141132801Y-143178234D01*
X141143121Y-143171339D01*
X141143122Y-143171338D01*
X141206668Y-143128877D01*
X141216984Y-143121984D01*
X141273234Y-143037801D01*
X141288000Y-142963567D01*
X141287999Y-142099630D01*
X144711482Y-142099630D01*
X144712899Y-142116505D01*
X144724733Y-142257427D01*
X144727121Y-142285867D01*
X144778636Y-142465520D01*
X144821350Y-142548633D01*
X144844839Y-142594337D01*
X144864064Y-142631746D01*
X144867887Y-142636570D01*
X144867890Y-142636574D01*
X144954786Y-142746208D01*
X144980152Y-142778212D01*
X145116164Y-142893968D01*
X145155076Y-142953350D01*
X145160500Y-142989921D01*
X145160500Y-144264428D01*
X145159145Y-144276558D01*
X145159627Y-144276597D01*
X145158907Y-144285544D01*
X145156926Y-144294300D01*
X145157482Y-144303260D01*
X145160258Y-144348008D01*
X145160500Y-144355810D01*
X145160500Y-144372013D01*
X145161136Y-144376453D01*
X145161984Y-144382378D01*
X145163013Y-144392428D01*
X145165945Y-144439677D01*
X145168994Y-144448123D01*
X145169593Y-144451014D01*
X145173822Y-144467980D01*
X145174648Y-144470805D01*
X145175920Y-144479687D01*
X145195522Y-144522798D01*
X145199327Y-144532147D01*
X145215404Y-144576681D01*
X145220699Y-144583929D01*
X145222080Y-144586527D01*
X145230915Y-144601645D01*
X145232494Y-144604114D01*
X145236208Y-144612282D01*
X145242064Y-144619078D01*
X145267115Y-144648152D01*
X145273401Y-144656069D01*
X145278548Y-144663115D01*
X145278553Y-144663120D01*
X145281425Y-144667052D01*
X145292400Y-144678027D01*
X145298758Y-144684874D01*
X145331287Y-144722627D01*
X145338822Y-144727511D01*
X145345066Y-144732958D01*
X145356931Y-144742558D01*
X145504596Y-144890223D01*
X145538622Y-144952535D01*
X145541501Y-144979318D01*
X145541501Y-145630566D01*
X145545400Y-145650169D01*
X145552687Y-145686805D01*
X145556266Y-145704801D01*
X145612516Y-145788984D01*
X145696699Y-145845234D01*
X145770933Y-145860000D01*
X146240424Y-145860000D01*
X146710066Y-145859999D01*
X146745818Y-145852888D01*
X146772126Y-145847656D01*
X146772128Y-145847655D01*
X146784301Y-145845234D01*
X146794621Y-145838339D01*
X146794622Y-145838338D01*
X146858168Y-145795877D01*
X146868484Y-145788984D01*
X146924734Y-145704801D01*
X146935601Y-145650169D01*
X147193001Y-145650169D01*
X147193371Y-145656990D01*
X147198895Y-145707852D01*
X147202521Y-145723104D01*
X147247676Y-145843554D01*
X147256214Y-145859149D01*
X147332715Y-145961224D01*
X147345276Y-145973785D01*
X147447351Y-146050286D01*
X147462946Y-146058824D01*
X147583394Y-146103978D01*
X147598649Y-146107605D01*
X147649514Y-146113131D01*
X147656328Y-146113500D01*
X147746385Y-146113500D01*
X147761624Y-146109025D01*
X147762829Y-146107635D01*
X147764500Y-146099952D01*
X147764500Y-146095384D01*
X148526500Y-146095384D01*
X148530975Y-146110623D01*
X148532365Y-146111828D01*
X148540048Y-146113499D01*
X148634669Y-146113499D01*
X148641490Y-146113129D01*
X148692352Y-146107605D01*
X148707604Y-146103979D01*
X148828054Y-146058824D01*
X148843649Y-146050286D01*
X148945724Y-145973785D01*
X148958285Y-145961224D01*
X149034786Y-145859149D01*
X149043324Y-145843554D01*
X149088478Y-145723106D01*
X149092105Y-145707851D01*
X149097631Y-145656986D01*
X149098000Y-145650172D01*
X149098000Y-145306115D01*
X149093525Y-145290876D01*
X149092135Y-145289671D01*
X149084452Y-145288000D01*
X148544615Y-145288000D01*
X148529376Y-145292475D01*
X148528171Y-145293865D01*
X148526500Y-145301548D01*
X148526500Y-146095384D01*
X147764500Y-146095384D01*
X147764500Y-145306115D01*
X147760025Y-145290876D01*
X147758635Y-145289671D01*
X147750952Y-145288000D01*
X147211116Y-145288000D01*
X147195877Y-145292475D01*
X147194672Y-145293865D01*
X147193001Y-145301548D01*
X147193001Y-145650169D01*
X146935601Y-145650169D01*
X146939500Y-145630567D01*
X146939499Y-144507885D01*
X147193000Y-144507885D01*
X147197475Y-144523124D01*
X147198865Y-144524329D01*
X147206548Y-144526000D01*
X147746385Y-144526000D01*
X147761624Y-144521525D01*
X147762829Y-144520135D01*
X147764500Y-144512452D01*
X147764500Y-144507885D01*
X148526500Y-144507885D01*
X148530975Y-144523124D01*
X148532365Y-144524329D01*
X148540048Y-144526000D01*
X149079884Y-144526000D01*
X149095123Y-144521525D01*
X149096328Y-144520135D01*
X149097999Y-144512452D01*
X149097999Y-144163831D01*
X149097629Y-144157010D01*
X149092105Y-144106148D01*
X149088479Y-144090896D01*
X149043324Y-143970446D01*
X149034786Y-143954851D01*
X148958285Y-143852776D01*
X148945724Y-143840215D01*
X148843649Y-143763714D01*
X148828054Y-143755176D01*
X148707606Y-143710022D01*
X148692351Y-143706395D01*
X148641486Y-143700869D01*
X148634672Y-143700500D01*
X148544615Y-143700500D01*
X148529376Y-143704975D01*
X148528171Y-143706365D01*
X148526500Y-143714048D01*
X148526500Y-144507885D01*
X147764500Y-144507885D01*
X147764500Y-143718616D01*
X147760025Y-143703377D01*
X147758635Y-143702172D01*
X147750952Y-143700501D01*
X147656331Y-143700501D01*
X147649510Y-143700871D01*
X147598648Y-143706395D01*
X147583396Y-143710021D01*
X147462946Y-143755176D01*
X147447351Y-143763714D01*
X147345276Y-143840215D01*
X147332715Y-143852776D01*
X147256214Y-143954851D01*
X147247676Y-143970446D01*
X147202522Y-144090894D01*
X147198895Y-144106149D01*
X147193369Y-144157014D01*
X147193000Y-144163828D01*
X147193000Y-144507885D01*
X146939499Y-144507885D01*
X146939499Y-144183434D01*
X146924734Y-144109199D01*
X146917652Y-144098599D01*
X146875377Y-144035332D01*
X146868484Y-144025016D01*
X146784301Y-143968766D01*
X146710067Y-143954000D01*
X146685140Y-143954000D01*
X146303499Y-143954001D01*
X146235380Y-143933999D01*
X146188886Y-143880344D01*
X146177500Y-143828001D01*
X146177500Y-142986597D01*
X146197502Y-142918476D01*
X146225926Y-142887308D01*
X146265782Y-142856169D01*
X147002501Y-142856169D01*
X147002871Y-142862990D01*
X147008395Y-142913852D01*
X147012021Y-142929104D01*
X147057176Y-143049554D01*
X147065714Y-143065149D01*
X147142215Y-143167224D01*
X147154776Y-143179785D01*
X147256851Y-143256286D01*
X147272446Y-143264824D01*
X147392894Y-143309978D01*
X147408149Y-143313605D01*
X147459014Y-143319131D01*
X147465828Y-143319500D01*
X147809885Y-143319500D01*
X147825124Y-143315025D01*
X147826329Y-143313635D01*
X147828000Y-143305952D01*
X147828000Y-143301384D01*
X148590000Y-143301384D01*
X148594475Y-143316623D01*
X148595865Y-143317828D01*
X148603548Y-143319499D01*
X148952169Y-143319499D01*
X148958990Y-143319129D01*
X149009852Y-143313605D01*
X149025104Y-143309979D01*
X149145554Y-143264824D01*
X149161149Y-143256286D01*
X149263224Y-143179785D01*
X149275785Y-143167224D01*
X149337582Y-143084769D01*
X151879301Y-143084769D01*
X151879671Y-143091590D01*
X151885195Y-143142452D01*
X151888821Y-143157704D01*
X151933976Y-143278154D01*
X151942514Y-143293749D01*
X152019015Y-143395824D01*
X152031576Y-143408385D01*
X152133651Y-143484886D01*
X152149246Y-143493424D01*
X152269694Y-143538578D01*
X152284949Y-143542205D01*
X152335814Y-143547731D01*
X152342628Y-143548100D01*
X152889885Y-143548100D01*
X152905124Y-143543625D01*
X152906329Y-143542235D01*
X152908000Y-143534552D01*
X152908000Y-143529984D01*
X153670000Y-143529984D01*
X153674475Y-143545223D01*
X153675865Y-143546428D01*
X153683548Y-143548099D01*
X154235369Y-143548099D01*
X154242190Y-143547729D01*
X154293052Y-143542205D01*
X154308304Y-143538579D01*
X154428754Y-143493424D01*
X154444349Y-143484886D01*
X154546424Y-143408385D01*
X154558985Y-143395824D01*
X154635486Y-143293749D01*
X154644024Y-143278154D01*
X154689178Y-143157706D01*
X154692805Y-143142451D01*
X154698331Y-143091586D01*
X154698700Y-143084772D01*
X154698700Y-142639115D01*
X154694225Y-142623876D01*
X154692835Y-142622671D01*
X154685152Y-142621000D01*
X153688115Y-142621000D01*
X153672876Y-142625475D01*
X153671671Y-142626865D01*
X153670000Y-142634548D01*
X153670000Y-143529984D01*
X152908000Y-143529984D01*
X152908000Y-142639115D01*
X152903525Y-142623876D01*
X152902135Y-142622671D01*
X152894452Y-142621000D01*
X151897416Y-142621000D01*
X151882177Y-142625475D01*
X151880972Y-142626865D01*
X151879301Y-142634548D01*
X151879301Y-143084769D01*
X149337582Y-143084769D01*
X149352286Y-143065149D01*
X149360824Y-143049554D01*
X149405978Y-142929106D01*
X149409605Y-142913851D01*
X149415131Y-142862986D01*
X149415500Y-142856172D01*
X149415500Y-142512115D01*
X149411025Y-142496876D01*
X149409635Y-142495671D01*
X149401952Y-142494000D01*
X148608115Y-142494000D01*
X148592876Y-142498475D01*
X148591671Y-142499865D01*
X148590000Y-142507548D01*
X148590000Y-143301384D01*
X147828000Y-143301384D01*
X147828000Y-142512115D01*
X147823525Y-142496876D01*
X147822135Y-142495671D01*
X147814452Y-142494000D01*
X147020616Y-142494000D01*
X147005377Y-142498475D01*
X147004172Y-142499865D01*
X147002501Y-142507548D01*
X147002501Y-142856169D01*
X146265782Y-142856169D01*
X146329387Y-142806475D01*
X146333413Y-142801811D01*
X146333416Y-142801808D01*
X146447480Y-142669663D01*
X146451507Y-142664998D01*
X146543821Y-142502495D01*
X146558091Y-142459600D01*
X146600867Y-142331009D01*
X146602814Y-142325157D01*
X146613572Y-142240000D01*
X146625796Y-142143241D01*
X146625797Y-142143232D01*
X146626238Y-142139738D01*
X146626611Y-142113000D01*
X146608373Y-141926999D01*
X146604419Y-141913901D01*
X146582374Y-141840885D01*
X151879300Y-141840885D01*
X151883775Y-141856124D01*
X151885165Y-141857329D01*
X151892848Y-141859000D01*
X152889885Y-141859000D01*
X152905124Y-141854525D01*
X152906329Y-141853135D01*
X152908000Y-141845452D01*
X152908000Y-141840885D01*
X153670000Y-141840885D01*
X153674475Y-141856124D01*
X153675865Y-141857329D01*
X153683548Y-141859000D01*
X154680584Y-141859000D01*
X154695823Y-141854525D01*
X154697028Y-141853135D01*
X154698699Y-141845452D01*
X154698699Y-141395231D01*
X154698329Y-141388410D01*
X154692805Y-141337548D01*
X154689179Y-141322296D01*
X154644024Y-141201846D01*
X154635486Y-141186251D01*
X154558985Y-141084176D01*
X154546424Y-141071615D01*
X154444349Y-140995114D01*
X154428754Y-140986576D01*
X154308306Y-140941422D01*
X154293051Y-140937795D01*
X154242186Y-140932269D01*
X154235372Y-140931900D01*
X153688115Y-140931900D01*
X153672876Y-140936375D01*
X153671671Y-140937765D01*
X153670000Y-140945448D01*
X153670000Y-141840885D01*
X152908000Y-141840885D01*
X152908000Y-140950016D01*
X152903525Y-140934777D01*
X152902135Y-140933572D01*
X152894452Y-140931901D01*
X152342631Y-140931901D01*
X152335810Y-140932271D01*
X152284948Y-140937795D01*
X152269696Y-140941421D01*
X152149246Y-140986576D01*
X152133651Y-140995114D01*
X152031576Y-141071615D01*
X152019015Y-141084176D01*
X151942514Y-141186251D01*
X151933976Y-141201846D01*
X151888822Y-141322294D01*
X151885195Y-141337549D01*
X151879669Y-141388414D01*
X151879300Y-141395228D01*
X151879300Y-141840885D01*
X146582374Y-141840885D01*
X146556136Y-141753983D01*
X146554355Y-141748083D01*
X146536172Y-141713885D01*
X147002500Y-141713885D01*
X147006975Y-141729124D01*
X147008365Y-141730329D01*
X147016048Y-141732000D01*
X147809885Y-141732000D01*
X147825124Y-141727525D01*
X147826329Y-141726135D01*
X147828000Y-141718452D01*
X147828000Y-141713885D01*
X148590000Y-141713885D01*
X148594475Y-141729124D01*
X148595865Y-141730329D01*
X148603548Y-141732000D01*
X149397384Y-141732000D01*
X149412623Y-141727525D01*
X149413828Y-141726135D01*
X149415499Y-141718452D01*
X149415499Y-141369831D01*
X149415129Y-141363010D01*
X149409605Y-141312148D01*
X149405979Y-141296896D01*
X149360824Y-141176446D01*
X149352286Y-141160851D01*
X149275785Y-141058776D01*
X149263224Y-141046215D01*
X149161149Y-140969714D01*
X149145554Y-140961176D01*
X149025106Y-140916022D01*
X149009851Y-140912395D01*
X148958986Y-140906869D01*
X148952172Y-140906500D01*
X148608115Y-140906500D01*
X148592876Y-140910975D01*
X148591671Y-140912365D01*
X148590000Y-140920048D01*
X148590000Y-141713885D01*
X147828000Y-141713885D01*
X147828000Y-140924616D01*
X147823525Y-140909377D01*
X147822135Y-140908172D01*
X147814452Y-140906501D01*
X147465831Y-140906501D01*
X147459010Y-140906871D01*
X147408148Y-140912395D01*
X147392896Y-140916021D01*
X147272446Y-140961176D01*
X147256851Y-140969714D01*
X147154776Y-141046215D01*
X147142215Y-141058776D01*
X147065714Y-141160851D01*
X147057176Y-141176446D01*
X147012022Y-141296894D01*
X147008395Y-141312149D01*
X147002869Y-141363014D01*
X147002500Y-141369828D01*
X147002500Y-141713885D01*
X146536172Y-141713885D01*
X146466615Y-141583066D01*
X146453727Y-141567264D01*
X146352388Y-141443010D01*
X146352385Y-141443007D01*
X146348493Y-141438235D01*
X146343744Y-141434306D01*
X146209239Y-141323034D01*
X146209236Y-141323032D01*
X146204489Y-141319105D01*
X146040089Y-141230214D01*
X145943685Y-141200372D01*
X145867441Y-141176770D01*
X145867438Y-141176769D01*
X145861554Y-141174948D01*
X145855429Y-141174304D01*
X145855428Y-141174304D01*
X145681813Y-141156056D01*
X145681812Y-141156056D01*
X145675685Y-141155412D01*
X145557087Y-141166206D01*
X145495703Y-141171792D01*
X145495702Y-141171792D01*
X145489562Y-141172351D01*
X145483648Y-141174092D01*
X145483646Y-141174092D01*
X145394355Y-141200372D01*
X145310273Y-141225119D01*
X145304808Y-141227976D01*
X145199858Y-141282842D01*
X145144647Y-141311705D01*
X144998995Y-141428813D01*
X144878862Y-141571981D01*
X144875899Y-141577370D01*
X144875896Y-141577375D01*
X144802509Y-141710868D01*
X144788826Y-141735757D01*
X144732315Y-141913901D01*
X144711482Y-142099630D01*
X141287999Y-142099630D01*
X141287999Y-141262434D01*
X141280231Y-141223377D01*
X141275656Y-141200374D01*
X141275655Y-141200372D01*
X141273234Y-141188199D01*
X141265598Y-141176770D01*
X141223877Y-141114332D01*
X141216984Y-141104016D01*
X141132801Y-141047766D01*
X141058567Y-141033000D01*
X140800699Y-141033000D01*
X140732578Y-141012998D01*
X140686085Y-140959342D01*
X140675981Y-140889068D01*
X140705475Y-140824488D01*
X140747449Y-140792805D01*
X140827559Y-140755449D01*
X140838142Y-140746130D01*
X140836335Y-140740151D01*
X140220811Y-140124626D01*
X140206868Y-140117013D01*
X140205034Y-140117144D01*
X140198420Y-140121395D01*
X139584831Y-140734985D01*
X139578074Y-140747360D01*
X139581817Y-140752361D01*
X139668553Y-140792807D01*
X139721837Y-140839724D01*
X139741298Y-140908001D01*
X139720756Y-140975961D01*
X139666733Y-141022027D01*
X139615303Y-141033001D01*
X139357434Y-141033001D01*
X139321682Y-141040112D01*
X139295374Y-141045344D01*
X139295372Y-141045345D01*
X139283199Y-141047766D01*
X139272879Y-141054661D01*
X139272878Y-141054662D01*
X139247507Y-141071615D01*
X139199016Y-141104016D01*
X139142766Y-141188199D01*
X139128000Y-141262433D01*
X133404720Y-141262433D01*
X135088678Y-139578475D01*
X138869885Y-139578475D01*
X138889263Y-139799964D01*
X138891166Y-139810759D01*
X138948710Y-140025516D01*
X138952456Y-140035808D01*
X139025551Y-140192559D01*
X139034870Y-140203142D01*
X139040849Y-140201335D01*
X139656374Y-139585811D01*
X139662751Y-139574132D01*
X140752013Y-139574132D01*
X140752144Y-139575966D01*
X140756395Y-139582580D01*
X141369985Y-140196169D01*
X141382360Y-140202926D01*
X141387360Y-140199183D01*
X141463544Y-140035808D01*
X141467290Y-140025516D01*
X141524834Y-139810759D01*
X141526737Y-139799964D01*
X141546115Y-139578475D01*
X141546115Y-139567525D01*
X141545424Y-139559630D01*
X147251482Y-139559630D01*
X147253232Y-139580474D01*
X147266517Y-139738672D01*
X147267121Y-139745867D01*
X147318636Y-139925520D01*
X147332844Y-139953166D01*
X147393660Y-140071501D01*
X147404064Y-140091746D01*
X147407887Y-140096570D01*
X147407890Y-140096574D01*
X147492356Y-140203142D01*
X147520152Y-140238212D01*
X147524846Y-140242207D01*
X147646098Y-140345401D01*
X147662478Y-140359342D01*
X147825621Y-140450519D01*
X148003367Y-140508272D01*
X148188945Y-140530401D01*
X148195080Y-140529929D01*
X148195082Y-140529929D01*
X148251119Y-140525617D01*
X148375287Y-140516063D01*
X148555296Y-140465804D01*
X148560785Y-140463031D01*
X148560791Y-140463029D01*
X148647421Y-140419268D01*
X148722114Y-140381538D01*
X148733999Y-140372253D01*
X148778733Y-140337302D01*
X148869387Y-140266475D01*
X148873413Y-140261811D01*
X148873416Y-140261808D01*
X148955169Y-140167096D01*
X148991360Y-140125168D01*
X149051012Y-140086672D01*
X149086740Y-140081500D01*
X152006801Y-140081500D01*
X152074922Y-140101502D01*
X152121415Y-140155158D01*
X152132801Y-140207500D01*
X152132801Y-140271166D01*
X152138543Y-140300037D01*
X152143212Y-140323509D01*
X152147566Y-140345401D01*
X152154461Y-140355720D01*
X152154462Y-140355722D01*
X152171712Y-140381538D01*
X152203816Y-140429584D01*
X152287999Y-140485834D01*
X152362233Y-140500600D01*
X153288850Y-140500600D01*
X154215766Y-140500599D01*
X154251518Y-140493488D01*
X154277826Y-140488256D01*
X154277828Y-140488255D01*
X154290001Y-140485834D01*
X154300321Y-140478939D01*
X154300322Y-140478938D01*
X154363868Y-140436477D01*
X154374184Y-140429584D01*
X154430434Y-140345401D01*
X154445200Y-140271167D01*
X154445199Y-138620834D01*
X154434241Y-138565740D01*
X154432856Y-138558774D01*
X154432855Y-138558772D01*
X154430434Y-138546599D01*
X154403109Y-138505704D01*
X154381077Y-138472732D01*
X154374184Y-138462416D01*
X154290001Y-138406166D01*
X154215767Y-138391400D01*
X153289150Y-138391400D01*
X152362234Y-138391401D01*
X152326482Y-138398512D01*
X152300174Y-138403744D01*
X152300172Y-138403745D01*
X152287999Y-138406166D01*
X152277679Y-138413061D01*
X152277678Y-138413062D01*
X152217285Y-138453416D01*
X152203816Y-138462416D01*
X152147566Y-138546599D01*
X152132800Y-138620833D01*
X152132800Y-138938500D01*
X152112798Y-139006621D01*
X152059142Y-139053114D01*
X152006800Y-139064500D01*
X149083925Y-139064500D01*
X149015804Y-139044498D01*
X148986282Y-139018136D01*
X148974562Y-139003765D01*
X148921333Y-138938500D01*
X148892388Y-138903010D01*
X148892385Y-138903007D01*
X148888493Y-138898235D01*
X148883744Y-138894306D01*
X148749239Y-138783034D01*
X148749236Y-138783032D01*
X148744489Y-138779105D01*
X148580089Y-138690214D01*
X148460016Y-138653045D01*
X148407441Y-138636770D01*
X148407438Y-138636769D01*
X148401554Y-138634948D01*
X148395429Y-138634304D01*
X148395428Y-138634304D01*
X148221813Y-138616056D01*
X148221812Y-138616056D01*
X148215685Y-138615412D01*
X148097087Y-138626206D01*
X148035703Y-138631792D01*
X148035702Y-138631792D01*
X148029562Y-138632351D01*
X148023648Y-138634092D01*
X148023646Y-138634092D01*
X147949312Y-138655970D01*
X147850273Y-138685119D01*
X147844808Y-138687976D01*
X147713933Y-138756395D01*
X147684647Y-138771705D01*
X147538995Y-138888813D01*
X147418862Y-139031981D01*
X147415899Y-139037370D01*
X147415896Y-139037375D01*
X147379124Y-139104264D01*
X147328826Y-139195757D01*
X147272315Y-139373901D01*
X147257957Y-139501902D01*
X147252551Y-139550104D01*
X147251482Y-139559630D01*
X141545424Y-139559630D01*
X141526737Y-139346036D01*
X141524834Y-139335241D01*
X141467290Y-139120484D01*
X141463544Y-139110192D01*
X141390449Y-138953441D01*
X141381130Y-138942858D01*
X141375151Y-138944665D01*
X140759626Y-139560189D01*
X140752013Y-139574132D01*
X139662751Y-139574132D01*
X139663987Y-139571868D01*
X139663856Y-139570034D01*
X139659605Y-139563420D01*
X139046015Y-138949831D01*
X139033640Y-138943074D01*
X139028640Y-138946817D01*
X138952456Y-139110192D01*
X138948710Y-139120484D01*
X138891166Y-139335241D01*
X138889263Y-139346036D01*
X138869885Y-139567525D01*
X138869885Y-139578475D01*
X135088678Y-139578475D01*
X136267283Y-138399870D01*
X139577858Y-138399870D01*
X139579665Y-138405849D01*
X140195189Y-139021374D01*
X140209132Y-139028987D01*
X140210966Y-139028856D01*
X140217580Y-139024605D01*
X140831169Y-138411015D01*
X140837926Y-138398640D01*
X140834183Y-138393640D01*
X140670808Y-138317456D01*
X140660516Y-138313710D01*
X140445759Y-138256166D01*
X140434964Y-138254263D01*
X140213475Y-138234885D01*
X140202525Y-138234885D01*
X139981036Y-138254263D01*
X139970241Y-138256166D01*
X139755484Y-138313710D01*
X139745192Y-138317456D01*
X139588441Y-138390551D01*
X139577858Y-138399870D01*
X136267283Y-138399870D01*
X138911527Y-135755626D01*
X140646905Y-135755626D01*
X140665470Y-135923790D01*
X140668080Y-135930922D01*
X140714287Y-136057187D01*
X140723612Y-136082670D01*
X140727848Y-136088973D01*
X140727848Y-136088974D01*
X140813740Y-136216796D01*
X140813743Y-136216799D01*
X140817974Y-136223096D01*
X140943108Y-136336959D01*
X141091791Y-136417687D01*
X141255438Y-136460619D01*
X141343047Y-136461996D01*
X141417004Y-136463158D01*
X141417007Y-136463158D01*
X141424602Y-136463277D01*
X141482723Y-136449965D01*
X141582114Y-136427202D01*
X141582118Y-136427201D01*
X141589517Y-136425506D01*
X141740662Y-136349488D01*
X141746433Y-136344559D01*
X141746436Y-136344557D01*
X141863539Y-136244541D01*
X141863540Y-136244540D01*
X141869311Y-136239611D01*
X141968037Y-136102219D01*
X141973362Y-136088974D01*
X142003832Y-136013175D01*
X142031141Y-135945243D01*
X142054980Y-135777746D01*
X142055134Y-135763000D01*
X142054033Y-135753896D01*
X142035721Y-135602580D01*
X142034809Y-135595040D01*
X141975006Y-135436778D01*
X141881660Y-135300958D01*
X141859500Y-135229591D01*
X141859500Y-135009817D01*
X141879502Y-134941696D01*
X141896405Y-134920722D01*
X156699971Y-120117157D01*
X156762283Y-120083131D01*
X156776534Y-120081716D01*
X156776454Y-120080951D01*
X156784004Y-120080158D01*
X156791602Y-120080277D01*
X156863382Y-120063837D01*
X156949114Y-120044202D01*
X156949118Y-120044201D01*
X156956517Y-120042506D01*
X157107662Y-119966488D01*
X157113433Y-119961559D01*
X157113436Y-119961557D01*
X157230539Y-119861541D01*
X157230540Y-119861540D01*
X157236311Y-119856611D01*
X157335037Y-119719219D01*
X157398141Y-119562243D01*
X157421980Y-119394746D01*
X157422134Y-119380000D01*
X157420766Y-119368688D01*
X157411506Y-119292171D01*
X157401809Y-119212040D01*
X157342006Y-119053778D01*
X157300140Y-118992862D01*
X157250481Y-118920607D01*
X157250479Y-118920605D01*
X157246179Y-118914348D01*
X157240508Y-118909295D01*
X157125531Y-118806854D01*
X157125528Y-118806852D01*
X157119859Y-118801801D01*
X156970339Y-118722634D01*
X156956198Y-118719082D01*
X156813622Y-118683269D01*
X156813618Y-118683269D01*
X156806251Y-118681418D01*
X156798652Y-118681378D01*
X156798650Y-118681378D01*
X156728308Y-118681010D01*
X156637069Y-118680532D01*
X156629688Y-118682304D01*
X156479938Y-118718256D01*
X156479935Y-118718257D01*
X156472559Y-118720028D01*
X156322218Y-118797624D01*
X156316497Y-118802614D01*
X156316495Y-118802616D01*
X156209563Y-118895899D01*
X156194726Y-118908842D01*
X156180117Y-118929628D01*
X156128022Y-119003753D01*
X156097444Y-119047261D01*
X156035988Y-119204889D01*
X156023997Y-119295975D01*
X156020649Y-119321402D01*
X155991927Y-119386329D01*
X155984822Y-119394051D01*
X141041696Y-134337177D01*
X141032156Y-134344800D01*
X141032470Y-134345168D01*
X141025634Y-134350986D01*
X141018042Y-134355776D01*
X141012100Y-134362504D01*
X140982407Y-134396125D01*
X140977061Y-134401812D01*
X140965618Y-134413255D01*
X140959978Y-134420780D01*
X140959341Y-134421630D01*
X140952967Y-134429459D01*
X140921622Y-134464951D01*
X140917808Y-134473074D01*
X140916174Y-134475562D01*
X140907186Y-134490523D01*
X140905771Y-134493108D01*
X140900384Y-134500295D01*
X140897233Y-134508701D01*
X140883759Y-134544642D01*
X140879833Y-134553958D01*
X140859719Y-134596800D01*
X140858338Y-134605669D01*
X140857472Y-134608502D01*
X140853042Y-134625389D01*
X140852408Y-134628274D01*
X140849255Y-134636684D01*
X140848590Y-134645639D01*
X140845746Y-134683906D01*
X140844592Y-134693952D01*
X140842500Y-134707386D01*
X140842500Y-134722906D01*
X140842154Y-134732243D01*
X140838461Y-134781941D01*
X140840335Y-134790720D01*
X140840898Y-134798978D01*
X140842500Y-134814161D01*
X140842500Y-135230973D01*
X140819588Y-135303422D01*
X140730444Y-135430261D01*
X140727682Y-135437344D01*
X140727682Y-135437345D01*
X140721571Y-135453019D01*
X140668988Y-135587889D01*
X140667997Y-135595418D01*
X140649401Y-135736668D01*
X140646905Y-135755626D01*
X138911527Y-135755626D01*
X155083304Y-119583849D01*
X155089322Y-119578212D01*
X155133680Y-119539311D01*
X155138019Y-119535506D01*
X155192793Y-119466027D01*
X155194853Y-119463483D01*
X155247728Y-119399908D01*
X155247735Y-119399898D01*
X155251425Y-119395461D01*
X155254250Y-119390417D01*
X155256351Y-119387359D01*
X155262552Y-119378079D01*
X155264555Y-119374995D01*
X155268128Y-119370463D01*
X155270812Y-119365362D01*
X155270815Y-119365357D01*
X155309319Y-119292171D01*
X155310894Y-119289271D01*
X155351290Y-119217140D01*
X155351291Y-119217138D01*
X155354114Y-119212097D01*
X155355972Y-119206622D01*
X155357481Y-119203233D01*
X155361889Y-119192974D01*
X155363294Y-119189582D01*
X155365982Y-119184473D01*
X155392214Y-119099994D01*
X155393230Y-119096864D01*
X155419810Y-119018563D01*
X155419810Y-119018561D01*
X155421668Y-119013089D01*
X155422498Y-119007365D01*
X155423365Y-119003753D01*
X155425830Y-118992862D01*
X155426591Y-118989284D01*
X155428304Y-118983766D01*
X155438703Y-118895899D01*
X155439134Y-118892626D01*
X155450997Y-118810816D01*
X155450997Y-118810812D01*
X155451825Y-118805103D01*
X155448597Y-118722946D01*
X155448500Y-118717999D01*
X155448500Y-104070267D01*
X160318187Y-104070267D01*
X160330817Y-104289292D01*
X160332250Y-104299494D01*
X160380479Y-104513503D01*
X160383562Y-104523343D01*
X160466100Y-104726608D01*
X160470743Y-104735799D01*
X160489115Y-104765780D01*
X160499572Y-104775240D01*
X160508348Y-104771457D01*
X161167633Y-104112172D01*
X161174011Y-104100492D01*
X162263273Y-104100492D01*
X162263404Y-104102325D01*
X162267655Y-104108940D01*
X162927603Y-104768888D01*
X162939983Y-104775648D01*
X162945416Y-104771581D01*
X163020316Y-104620034D01*
X163024114Y-104610442D01*
X163087888Y-104400537D01*
X163090065Y-104390467D01*
X163118937Y-104171159D01*
X163119456Y-104164484D01*
X163120966Y-104102724D01*
X163120772Y-104096006D01*
X163102649Y-103875563D01*
X163100966Y-103865401D01*
X163047521Y-103652623D01*
X163044203Y-103642876D01*
X162956721Y-103441681D01*
X162951854Y-103432604D01*
X162951079Y-103431408D01*
X162940393Y-103422204D01*
X162930828Y-103426607D01*
X162270887Y-104086548D01*
X162263273Y-104100492D01*
X161174011Y-104100492D01*
X161175247Y-104098228D01*
X161175116Y-104096395D01*
X161170865Y-104089780D01*
X160509303Y-103428218D01*
X160496923Y-103421458D01*
X160491956Y-103425177D01*
X160405871Y-103610630D01*
X160402308Y-103620317D01*
X160343684Y-103831707D01*
X160341753Y-103841828D01*
X160318438Y-104059979D01*
X160318187Y-104070267D01*
X155448500Y-104070267D01*
X155448500Y-100220843D01*
X155468502Y-100152722D01*
X155485405Y-100131748D01*
X156545606Y-99071547D01*
X160318187Y-99071547D01*
X160330817Y-99290572D01*
X160332250Y-99300774D01*
X160380479Y-99514783D01*
X160383562Y-99524623D01*
X160466100Y-99727888D01*
X160470743Y-99737079D01*
X160489115Y-99767060D01*
X160499572Y-99776520D01*
X160508348Y-99772737D01*
X161167633Y-99113452D01*
X161174011Y-99101772D01*
X162263273Y-99101772D01*
X162263404Y-99103605D01*
X162267655Y-99110220D01*
X162927603Y-99770168D01*
X162939983Y-99776928D01*
X162945416Y-99772861D01*
X163020316Y-99621314D01*
X163024114Y-99611722D01*
X163087888Y-99401817D01*
X163090065Y-99391747D01*
X163118937Y-99172439D01*
X163119456Y-99165764D01*
X163120966Y-99104004D01*
X163120772Y-99097286D01*
X163102649Y-98876843D01*
X163100966Y-98866681D01*
X163047521Y-98653903D01*
X163044203Y-98644156D01*
X162956721Y-98442961D01*
X162951854Y-98433884D01*
X162951079Y-98432688D01*
X162940393Y-98423484D01*
X162930828Y-98427887D01*
X162270887Y-99087828D01*
X162263273Y-99101772D01*
X161174011Y-99101772D01*
X161175247Y-99099508D01*
X161175116Y-99097675D01*
X161170865Y-99091060D01*
X160509303Y-98429498D01*
X160496923Y-98422738D01*
X160491956Y-98426457D01*
X160405871Y-98611910D01*
X160402308Y-98621597D01*
X160343684Y-98832987D01*
X160341753Y-98843108D01*
X160318438Y-99061259D01*
X160318187Y-99071547D01*
X156545606Y-99071547D01*
X157835468Y-97781685D01*
X157897780Y-97747659D01*
X157924563Y-97744780D01*
X157947415Y-97744780D01*
X158015536Y-97764782D01*
G37*
G04 #@! TD.AperFunction*
G04 #@! TA.AperFunction,Conductor*
G36*
X158015536Y-92763522D02*
G01*
X158030940Y-92775936D01*
X158035656Y-92782994D01*
X158119839Y-92839244D01*
X158194073Y-92854010D01*
X160960515Y-92854010D01*
X161028636Y-92874012D01*
X161049610Y-92890915D01*
X161706448Y-93547753D01*
X161720392Y-93555367D01*
X161722225Y-93555236D01*
X161728840Y-93550985D01*
X162388911Y-92890914D01*
X162451223Y-92856888D01*
X162478003Y-92854009D01*
X163704000Y-92854009D01*
X163772121Y-92874011D01*
X163818614Y-92927667D01*
X163830000Y-92980009D01*
X163830000Y-95221290D01*
X163809998Y-95289411D01*
X163756342Y-95335904D01*
X163704000Y-95347290D01*
X162480545Y-95347290D01*
X162412424Y-95327288D01*
X162391450Y-95310385D01*
X161732072Y-94651007D01*
X161718128Y-94643393D01*
X161716295Y-94643524D01*
X161709680Y-94647775D01*
X161047069Y-95310386D01*
X160984757Y-95344412D01*
X160957978Y-95347291D01*
X158194074Y-95347291D01*
X158158322Y-95354402D01*
X158132014Y-95359634D01*
X158132012Y-95359635D01*
X158119839Y-95362056D01*
X158109519Y-95368951D01*
X158109518Y-95368952D01*
X158075405Y-95391746D01*
X158035656Y-95418306D01*
X158032463Y-95423085D01*
X157974198Y-95454901D01*
X157947415Y-95457780D01*
X157441525Y-95457780D01*
X157433284Y-95457510D01*
X157424172Y-95456913D01*
X157368659Y-95453274D01*
X157280761Y-95463678D01*
X157277493Y-95464020D01*
X157189441Y-95472111D01*
X157183875Y-95473681D01*
X157180179Y-95474366D01*
X157169330Y-95476524D01*
X157165694Y-95477297D01*
X157159955Y-95477976D01*
X157075464Y-95504211D01*
X157072328Y-95505140D01*
X157011179Y-95522386D01*
X156987171Y-95529157D01*
X156981983Y-95531715D01*
X156978532Y-95533040D01*
X156968154Y-95537181D01*
X156964767Y-95538584D01*
X156959247Y-95540298D01*
X156954133Y-95542989D01*
X156954132Y-95542989D01*
X156880975Y-95581478D01*
X156878039Y-95582975D01*
X156798683Y-95622109D01*
X156794052Y-95625567D01*
X156790849Y-95627530D01*
X156781462Y-95633453D01*
X156778369Y-95635462D01*
X156773257Y-95638151D01*
X156703764Y-95692936D01*
X156701194Y-95694907D01*
X156634919Y-95744396D01*
X156634912Y-95744403D01*
X156630291Y-95747853D01*
X156626377Y-95752087D01*
X156626375Y-95752089D01*
X156574458Y-95808253D01*
X156571028Y-95811819D01*
X153526696Y-98856151D01*
X153520678Y-98861788D01*
X153471981Y-98904494D01*
X153468406Y-98909029D01*
X153468405Y-98909030D01*
X153417202Y-98973982D01*
X153415124Y-98976547D01*
X153362266Y-99040100D01*
X153362262Y-99040105D01*
X153358574Y-99044540D01*
X153355755Y-99049574D01*
X153353686Y-99052584D01*
X153347492Y-99061854D01*
X153345449Y-99064999D01*
X153341872Y-99069537D01*
X153339184Y-99074645D01*
X153339182Y-99074649D01*
X153300688Y-99147816D01*
X153299118Y-99150706D01*
X153255885Y-99227904D01*
X153254028Y-99233376D01*
X153252514Y-99236776D01*
X153248127Y-99246987D01*
X153246705Y-99250421D01*
X153244018Y-99255527D01*
X153242306Y-99261041D01*
X153242305Y-99261043D01*
X153217788Y-99339999D01*
X153216769Y-99343135D01*
X153188331Y-99426912D01*
X153187502Y-99432625D01*
X153186659Y-99436138D01*
X153184167Y-99447151D01*
X153183409Y-99450718D01*
X153181696Y-99456234D01*
X153181018Y-99461962D01*
X153181017Y-99461967D01*
X153171297Y-99544098D01*
X153170870Y-99547340D01*
X153158175Y-99634897D01*
X153159221Y-99661511D01*
X153161403Y-99717054D01*
X153161500Y-99722001D01*
X153161500Y-118219156D01*
X153141498Y-118287277D01*
X153124595Y-118308251D01*
X140239613Y-131193234D01*
X140239595Y-131193251D01*
X140153723Y-131279124D01*
X135129600Y-136303247D01*
X135129595Y-136303251D01*
X132596862Y-138835985D01*
X130113252Y-141319595D01*
X130050940Y-141353621D01*
X130024157Y-141356500D01*
X128396000Y-141356500D01*
X128327879Y-141336498D01*
X128281386Y-141282842D01*
X128270000Y-141230500D01*
X128270000Y-130769500D01*
X128290002Y-130701379D01*
X128343658Y-130654886D01*
X128396000Y-130643500D01*
X129557195Y-130643500D01*
X129565436Y-130643770D01*
X129630061Y-130648006D01*
X129717973Y-130637601D01*
X129721186Y-130637264D01*
X129809279Y-130629169D01*
X129814839Y-130627601D01*
X129818412Y-130626939D01*
X129829415Y-130624750D01*
X129833028Y-130623982D01*
X129838765Y-130623303D01*
X129923276Y-130597062D01*
X129926373Y-130596146D01*
X130011549Y-130572123D01*
X130016737Y-130569565D01*
X130020188Y-130568240D01*
X130030566Y-130564099D01*
X130033953Y-130562696D01*
X130039473Y-130560982D01*
X130049365Y-130555778D01*
X130117745Y-130519802D01*
X130120682Y-130518305D01*
X130161655Y-130498099D01*
X130200037Y-130479171D01*
X130204668Y-130475713D01*
X130207871Y-130473750D01*
X130217258Y-130467827D01*
X130220351Y-130465818D01*
X130225463Y-130463129D01*
X130294956Y-130408344D01*
X130297526Y-130406373D01*
X130363801Y-130356884D01*
X130363808Y-130356877D01*
X130368429Y-130353427D01*
X130393657Y-130326136D01*
X130424262Y-130293027D01*
X130427692Y-130289461D01*
X134178304Y-126538849D01*
X134184322Y-126533212D01*
X134233019Y-126490506D01*
X134287798Y-126421018D01*
X134289876Y-126418453D01*
X134342734Y-126354900D01*
X134342738Y-126354895D01*
X134346426Y-126350460D01*
X134349245Y-126345426D01*
X134351314Y-126342416D01*
X134357508Y-126333146D01*
X134359551Y-126330001D01*
X134363128Y-126325463D01*
X134374539Y-126303775D01*
X134404312Y-126247184D01*
X134405887Y-126244284D01*
X134446291Y-126172139D01*
X134446292Y-126172137D01*
X134449115Y-126167096D01*
X134450972Y-126161624D01*
X134452486Y-126158224D01*
X134456873Y-126148013D01*
X134458295Y-126144579D01*
X134460982Y-126139473D01*
X134463311Y-126131973D01*
X134487212Y-126055001D01*
X134488231Y-126051865D01*
X134514813Y-125973555D01*
X134516669Y-125968088D01*
X134517498Y-125962375D01*
X134518341Y-125958862D01*
X134520833Y-125947849D01*
X134521591Y-125944282D01*
X134523304Y-125938766D01*
X134528024Y-125898892D01*
X134530503Y-125877943D01*
X134533704Y-125850901D01*
X134534132Y-125847649D01*
X134545998Y-125765816D01*
X134545998Y-125765811D01*
X134546826Y-125760102D01*
X134543597Y-125677930D01*
X134543500Y-125672983D01*
X134543500Y-122238607D01*
X134563502Y-122170486D01*
X134617158Y-122123993D01*
X134687432Y-122113889D01*
X134752012Y-122143383D01*
X134763431Y-122154823D01*
X134766974Y-122160096D01*
X134892108Y-122273959D01*
X135040791Y-122354687D01*
X135204438Y-122397619D01*
X135292047Y-122398996D01*
X135366004Y-122400158D01*
X135366007Y-122400158D01*
X135373602Y-122400277D01*
X135431723Y-122386965D01*
X135531114Y-122364202D01*
X135531118Y-122364201D01*
X135538517Y-122362506D01*
X135689662Y-122286488D01*
X135745628Y-122238689D01*
X135810417Y-122209658D01*
X135827458Y-122208500D01*
X145563928Y-122208500D01*
X145576058Y-122209855D01*
X145576097Y-122209373D01*
X145585044Y-122210093D01*
X145593800Y-122212074D01*
X145647508Y-122208742D01*
X145655310Y-122208500D01*
X145671513Y-122208500D01*
X145680429Y-122207223D01*
X145681878Y-122207016D01*
X145691928Y-122205987D01*
X145730216Y-122203611D01*
X145739177Y-122203055D01*
X145747623Y-122200006D01*
X145750514Y-122199407D01*
X145767480Y-122195178D01*
X145770305Y-122194352D01*
X145779187Y-122193080D01*
X145822298Y-122173478D01*
X145831649Y-122169672D01*
X145867735Y-122156645D01*
X145876181Y-122153596D01*
X145883429Y-122148301D01*
X145886027Y-122146920D01*
X145901145Y-122138085D01*
X145903614Y-122136506D01*
X145911782Y-122132792D01*
X145947653Y-122101884D01*
X145955569Y-122095599D01*
X145962615Y-122090452D01*
X145962620Y-122090447D01*
X145966552Y-122087575D01*
X145977527Y-122076600D01*
X145984375Y-122070242D01*
X146015323Y-122043576D01*
X146015324Y-122043575D01*
X146022127Y-122037713D01*
X146027011Y-122030178D01*
X146032458Y-122023934D01*
X146042058Y-122012069D01*
X150730970Y-117323157D01*
X150793282Y-117289131D01*
X150807534Y-117287715D01*
X150807454Y-117286951D01*
X150815004Y-117286158D01*
X150822602Y-117286277D01*
X150881104Y-117272878D01*
X150980114Y-117250202D01*
X150980118Y-117250201D01*
X150987517Y-117248506D01*
X151138662Y-117172488D01*
X151144433Y-117167559D01*
X151144436Y-117167557D01*
X151261539Y-117067541D01*
X151261540Y-117067540D01*
X151267311Y-117062611D01*
X151366037Y-116925219D01*
X151373780Y-116905959D01*
X151400094Y-116840500D01*
X151429141Y-116768243D01*
X151452980Y-116600746D01*
X151453134Y-116586000D01*
X151451175Y-116569807D01*
X151433721Y-116425580D01*
X151432809Y-116418040D01*
X151373006Y-116259778D01*
X151311329Y-116170037D01*
X151281481Y-116126607D01*
X151281479Y-116126605D01*
X151277179Y-116120348D01*
X151271508Y-116115295D01*
X151156531Y-116012854D01*
X151156528Y-116012852D01*
X151150859Y-116007801D01*
X151001339Y-115928634D01*
X150990964Y-115926028D01*
X150844622Y-115889269D01*
X150844618Y-115889269D01*
X150837251Y-115887418D01*
X150829652Y-115887378D01*
X150829650Y-115887378D01*
X150759308Y-115887010D01*
X150668069Y-115886532D01*
X150660688Y-115888304D01*
X150510938Y-115924256D01*
X150510935Y-115924257D01*
X150503559Y-115926028D01*
X150353218Y-116003624D01*
X150347497Y-116008614D01*
X150347495Y-116008616D01*
X150255097Y-116089220D01*
X150225726Y-116114842D01*
X150213672Y-116131993D01*
X150186935Y-116170037D01*
X150128444Y-116253261D01*
X150066988Y-116410889D01*
X150057200Y-116485241D01*
X150051649Y-116527402D01*
X150022927Y-116592329D01*
X150015822Y-116600051D01*
X148361589Y-118254284D01*
X148299277Y-118288310D01*
X148228462Y-118283245D01*
X148171626Y-118240698D01*
X148146815Y-118174178D01*
X148147751Y-118147436D01*
X148150399Y-118128829D01*
X148150399Y-118128827D01*
X148150980Y-118124746D01*
X148151134Y-118110000D01*
X148149504Y-118096524D01*
X148135551Y-117981229D01*
X148130809Y-117942040D01*
X148071006Y-117783778D01*
X148018475Y-117707344D01*
X147979481Y-117650607D01*
X147979479Y-117650605D01*
X147975179Y-117644348D01*
X147969508Y-117639295D01*
X147854531Y-117536854D01*
X147854528Y-117536852D01*
X147848859Y-117531801D01*
X147699339Y-117452634D01*
X147560058Y-117417649D01*
X147542621Y-117413269D01*
X147542619Y-117413269D01*
X147535251Y-117411418D01*
X147527653Y-117411378D01*
X147527651Y-117411378D01*
X147520140Y-117411339D01*
X147518993Y-117411333D01*
X147450978Y-117390975D01*
X147430557Y-117374430D01*
X146078823Y-116022696D01*
X146071200Y-116013156D01*
X146070832Y-116013470D01*
X146065014Y-116006634D01*
X146060224Y-115999042D01*
X146019875Y-115963407D01*
X146014188Y-115958061D01*
X146002745Y-115946618D01*
X145994370Y-115940341D01*
X145986541Y-115933967D01*
X145951049Y-115902622D01*
X145942926Y-115898808D01*
X145940438Y-115897174D01*
X145925477Y-115888186D01*
X145922892Y-115886771D01*
X145915705Y-115881384D01*
X145871357Y-115864759D01*
X145862040Y-115860832D01*
X145827326Y-115844534D01*
X145819200Y-115840719D01*
X145810331Y-115839338D01*
X145807498Y-115838472D01*
X145790611Y-115834042D01*
X145787726Y-115833408D01*
X145779316Y-115830255D01*
X145750158Y-115828088D01*
X145732094Y-115826746D01*
X145722048Y-115825592D01*
X145713425Y-115824249D01*
X145713422Y-115824249D01*
X145708614Y-115823500D01*
X145693094Y-115823500D01*
X145683757Y-115823154D01*
X145666854Y-115821898D01*
X145634059Y-115819461D01*
X145625280Y-115821335D01*
X145617022Y-115821898D01*
X145601839Y-115823500D01*
X143784075Y-115823500D01*
X143715954Y-115803498D01*
X143700265Y-115791584D01*
X143657859Y-115753801D01*
X143508339Y-115674634D01*
X143497964Y-115672028D01*
X143351622Y-115635269D01*
X143351618Y-115635269D01*
X143344251Y-115633418D01*
X143336652Y-115633378D01*
X143336650Y-115633378D01*
X143266308Y-115633010D01*
X143175069Y-115632532D01*
X143167688Y-115634304D01*
X143017938Y-115670256D01*
X143017935Y-115670257D01*
X143010559Y-115672028D01*
X142860218Y-115749624D01*
X142854497Y-115754614D01*
X142854495Y-115754616D01*
X142751420Y-115844534D01*
X142732726Y-115860842D01*
X142728356Y-115867060D01*
X142658999Y-115965746D01*
X142635444Y-115999261D01*
X142632682Y-116006344D01*
X142632682Y-116006345D01*
X142630189Y-116012739D01*
X142573988Y-116156889D01*
X142572997Y-116164418D01*
X142556435Y-116290219D01*
X142551905Y-116324626D01*
X142570470Y-116492790D01*
X142573080Y-116499922D01*
X142608468Y-116596623D01*
X142628612Y-116651670D01*
X142632848Y-116657973D01*
X142632848Y-116657974D01*
X142718740Y-116785796D01*
X142718743Y-116785799D01*
X142722974Y-116792096D01*
X142777442Y-116841658D01*
X142816728Y-116877405D01*
X142848108Y-116905959D01*
X142996791Y-116986687D01*
X143160438Y-117029619D01*
X143248047Y-117030996D01*
X143322004Y-117032158D01*
X143322007Y-117032158D01*
X143329602Y-117032277D01*
X143387723Y-117018965D01*
X143487114Y-116996202D01*
X143487118Y-116996201D01*
X143494517Y-116994506D01*
X143645662Y-116918488D01*
X143701628Y-116870689D01*
X143766417Y-116841658D01*
X143783458Y-116840500D01*
X145406183Y-116840500D01*
X145474304Y-116860502D01*
X145495278Y-116877405D01*
X146714397Y-118096524D01*
X146748423Y-118158836D01*
X146750541Y-118171793D01*
X146752930Y-118193433D01*
X146761470Y-118270790D01*
X146764080Y-118277922D01*
X146814929Y-118416872D01*
X146819612Y-118429670D01*
X146823848Y-118435973D01*
X146823848Y-118435974D01*
X146909740Y-118563796D01*
X146909743Y-118563799D01*
X146913974Y-118570096D01*
X147039108Y-118683959D01*
X147187791Y-118764687D01*
X147351438Y-118807619D01*
X147481169Y-118809657D01*
X147503668Y-118810011D01*
X147571466Y-118831080D01*
X147617110Y-118885460D01*
X147626108Y-118955884D01*
X147590783Y-119025090D01*
X145461278Y-121154595D01*
X145398966Y-121188621D01*
X145372183Y-121191500D01*
X135828075Y-121191500D01*
X135759954Y-121171498D01*
X135744265Y-121159584D01*
X135701859Y-121121801D01*
X135552339Y-121042634D01*
X135541964Y-121040028D01*
X135395622Y-121003269D01*
X135395618Y-121003269D01*
X135388251Y-121001418D01*
X135380652Y-121001378D01*
X135380650Y-121001378D01*
X135310308Y-121001010D01*
X135219069Y-121000532D01*
X135211688Y-121002304D01*
X135061938Y-121038256D01*
X135061935Y-121038257D01*
X135054559Y-121040028D01*
X134904218Y-121117624D01*
X134898497Y-121122614D01*
X134898495Y-121122616D01*
X134842461Y-121171498D01*
X134776726Y-121228842D01*
X134772356Y-121235060D01*
X134767276Y-121240702D01*
X134766251Y-121239779D01*
X134717051Y-121278964D01*
X134646418Y-121286149D01*
X134583115Y-121254006D01*
X134547237Y-121192742D01*
X134543500Y-121162281D01*
X134543500Y-115943626D01*
X140900905Y-115943626D01*
X140919470Y-116111790D01*
X140922080Y-116118922D01*
X140973834Y-116260345D01*
X140977612Y-116270670D01*
X140981848Y-116276973D01*
X140981848Y-116276974D01*
X141071974Y-116411096D01*
X141070250Y-116412254D01*
X141095252Y-116467285D01*
X141096500Y-116484973D01*
X141096500Y-117149928D01*
X141095145Y-117162058D01*
X141095627Y-117162097D01*
X141094907Y-117171044D01*
X141092926Y-117179800D01*
X141093482Y-117188760D01*
X141096258Y-117233508D01*
X141096500Y-117241310D01*
X141096500Y-117257513D01*
X141097136Y-117261953D01*
X141097984Y-117267878D01*
X141099013Y-117277928D01*
X141101362Y-117315785D01*
X141101945Y-117325177D01*
X141104994Y-117333623D01*
X141105593Y-117336514D01*
X141109822Y-117353480D01*
X141110648Y-117356305D01*
X141111920Y-117365187D01*
X141131522Y-117408298D01*
X141135327Y-117417647D01*
X141151404Y-117462181D01*
X141156699Y-117469429D01*
X141158080Y-117472027D01*
X141166915Y-117487145D01*
X141168494Y-117489614D01*
X141172208Y-117497782D01*
X141178064Y-117504578D01*
X141203115Y-117533652D01*
X141209401Y-117541569D01*
X141214548Y-117548615D01*
X141214553Y-117548620D01*
X141217425Y-117552552D01*
X141228400Y-117563527D01*
X141234758Y-117570374D01*
X141267287Y-117608127D01*
X141274822Y-117613011D01*
X141281066Y-117618458D01*
X141292931Y-117628058D01*
X143666397Y-120001525D01*
X143700423Y-120063837D01*
X143702541Y-120076794D01*
X143703241Y-120083131D01*
X143713470Y-120175790D01*
X143716080Y-120182922D01*
X143768428Y-120325968D01*
X143771612Y-120334670D01*
X143775848Y-120340973D01*
X143775848Y-120340974D01*
X143861740Y-120468796D01*
X143861743Y-120468799D01*
X143865974Y-120475096D01*
X143922824Y-120526825D01*
X143983010Y-120581590D01*
X143991108Y-120588959D01*
X144139791Y-120669687D01*
X144303438Y-120712619D01*
X144391047Y-120713996D01*
X144465004Y-120715158D01*
X144465007Y-120715158D01*
X144472602Y-120715277D01*
X144530723Y-120701965D01*
X144630114Y-120679202D01*
X144630118Y-120679201D01*
X144637517Y-120677506D01*
X144788662Y-120601488D01*
X144794433Y-120596559D01*
X144794436Y-120596557D01*
X144911539Y-120496541D01*
X144911540Y-120496540D01*
X144917311Y-120491611D01*
X145016037Y-120354219D01*
X145021362Y-120340974D01*
X145062285Y-120239174D01*
X145079141Y-120197243D01*
X145102980Y-120029746D01*
X145103134Y-120015000D01*
X145101721Y-120003318D01*
X145089606Y-119903211D01*
X145082809Y-119847040D01*
X145023006Y-119688778D01*
X144995041Y-119648088D01*
X144931481Y-119555607D01*
X144931479Y-119555605D01*
X144927179Y-119549348D01*
X144879632Y-119506985D01*
X144806531Y-119441854D01*
X144806528Y-119441852D01*
X144800859Y-119436801D01*
X144651339Y-119357634D01*
X144620700Y-119349938D01*
X144494621Y-119318269D01*
X144494619Y-119318269D01*
X144487251Y-119316418D01*
X144479653Y-119316378D01*
X144479651Y-119316378D01*
X144472140Y-119316339D01*
X144470993Y-119316333D01*
X144402978Y-119295975D01*
X144382557Y-119279430D01*
X142150405Y-117047278D01*
X142116379Y-116984966D01*
X142113500Y-116958183D01*
X142113500Y-116481840D01*
X142137178Y-116408314D01*
X142217603Y-116296391D01*
X142217606Y-116296385D01*
X142222037Y-116290219D01*
X142227362Y-116276974D01*
X142270350Y-116170037D01*
X142285141Y-116133243D01*
X142308980Y-115965746D01*
X142309134Y-115951000D01*
X142307845Y-115940341D01*
X142294981Y-115834042D01*
X142288809Y-115783040D01*
X142229006Y-115624778D01*
X142195952Y-115576684D01*
X142137481Y-115491607D01*
X142137479Y-115491605D01*
X142133179Y-115485348D01*
X142127508Y-115480295D01*
X142012531Y-115377854D01*
X142012528Y-115377852D01*
X142006859Y-115372801D01*
X141998644Y-115368451D01*
X141913238Y-115323231D01*
X141857339Y-115293634D01*
X141844699Y-115290459D01*
X141700622Y-115254269D01*
X141700618Y-115254269D01*
X141693251Y-115252418D01*
X141685652Y-115252378D01*
X141685650Y-115252378D01*
X141615308Y-115252010D01*
X141524069Y-115251532D01*
X141516688Y-115253304D01*
X141366938Y-115289256D01*
X141366935Y-115289257D01*
X141359559Y-115291028D01*
X141209218Y-115368624D01*
X141203497Y-115373614D01*
X141203495Y-115373616D01*
X141093774Y-115469332D01*
X141081726Y-115479842D01*
X141073090Y-115492130D01*
X140991183Y-115608673D01*
X140984444Y-115618261D01*
X140922988Y-115775889D01*
X140919353Y-115803498D01*
X140902178Y-115933960D01*
X140900905Y-115943626D01*
X134543500Y-115943626D01*
X134543500Y-114325843D01*
X134563502Y-114257722D01*
X134580405Y-114236748D01*
X143287527Y-105529626D01*
X143948905Y-105529626D01*
X143967470Y-105697790D01*
X144025612Y-105856670D01*
X144029848Y-105862973D01*
X144029848Y-105862974D01*
X144115740Y-105990796D01*
X144115743Y-105990799D01*
X144119974Y-105997096D01*
X144245108Y-106110959D01*
X144393791Y-106191687D01*
X144557438Y-106234619D01*
X144645047Y-106235996D01*
X144719004Y-106237158D01*
X144719007Y-106237158D01*
X144726602Y-106237277D01*
X144784723Y-106223965D01*
X144884114Y-106201202D01*
X144884118Y-106201201D01*
X144891517Y-106199506D01*
X145042662Y-106123488D01*
X145098628Y-106075689D01*
X145163417Y-106046658D01*
X145180458Y-106045500D01*
X151617424Y-106045500D01*
X151685545Y-106065502D01*
X151702222Y-106078305D01*
X151738108Y-106110959D01*
X151886791Y-106191687D01*
X152050438Y-106234619D01*
X152138047Y-106235996D01*
X152212004Y-106237158D01*
X152212007Y-106237158D01*
X152219602Y-106237277D01*
X152277723Y-106223965D01*
X152377114Y-106201202D01*
X152377118Y-106201201D01*
X152384517Y-106199506D01*
X152535662Y-106123488D01*
X152541433Y-106118559D01*
X152541436Y-106118557D01*
X152658539Y-106018541D01*
X152658540Y-106018540D01*
X152664311Y-106013611D01*
X152763037Y-105876219D01*
X152768362Y-105862974D01*
X152806173Y-105768914D01*
X152826141Y-105719243D01*
X152849980Y-105551746D01*
X152850134Y-105537000D01*
X152848331Y-105522095D01*
X152830721Y-105376580D01*
X152829809Y-105369040D01*
X152770006Y-105210778D01*
X152724853Y-105145079D01*
X152678481Y-105077607D01*
X152678479Y-105077605D01*
X152674179Y-105071348D01*
X152668508Y-105066295D01*
X152553531Y-104963854D01*
X152553527Y-104963851D01*
X152547859Y-104958801D01*
X152537710Y-104953427D01*
X152405051Y-104883188D01*
X152405052Y-104883188D01*
X152398339Y-104879634D01*
X152387964Y-104877028D01*
X152241622Y-104840269D01*
X152241618Y-104840269D01*
X152234251Y-104838418D01*
X152226652Y-104838378D01*
X152226650Y-104838378D01*
X152156308Y-104838010D01*
X152065069Y-104837532D01*
X152057688Y-104839304D01*
X151907938Y-104875256D01*
X151907935Y-104875257D01*
X151900559Y-104877028D01*
X151750218Y-104954624D01*
X151744497Y-104959614D01*
X151744495Y-104959616D01*
X151739637Y-104963854D01*
X151702128Y-104996576D01*
X151701127Y-104997449D01*
X151636645Y-105027157D01*
X151618298Y-105028500D01*
X145181075Y-105028500D01*
X145112954Y-105008498D01*
X145097265Y-104996584D01*
X145054859Y-104958801D01*
X145044710Y-104953427D01*
X144912051Y-104883188D01*
X144912052Y-104883188D01*
X144905339Y-104879634D01*
X144894964Y-104877028D01*
X144748622Y-104840269D01*
X144748618Y-104840269D01*
X144741251Y-104838418D01*
X144733652Y-104838378D01*
X144733650Y-104838378D01*
X144663308Y-104838010D01*
X144572069Y-104837532D01*
X144564688Y-104839304D01*
X144414938Y-104875256D01*
X144414935Y-104875257D01*
X144407559Y-104877028D01*
X144257218Y-104954624D01*
X144251497Y-104959614D01*
X144251495Y-104959616D01*
X144172532Y-105028500D01*
X144129726Y-105065842D01*
X144120358Y-105079171D01*
X144039683Y-105193961D01*
X144032444Y-105204261D01*
X144029682Y-105211344D01*
X144029682Y-105211345D01*
X144019840Y-105236590D01*
X143970988Y-105361889D01*
X143969997Y-105369418D01*
X143950878Y-105514642D01*
X143948905Y-105529626D01*
X143287527Y-105529626D01*
X154746866Y-94070287D01*
X160318187Y-94070287D01*
X160330817Y-94289312D01*
X160332250Y-94299514D01*
X160380479Y-94513523D01*
X160383562Y-94523363D01*
X160466100Y-94726628D01*
X160470743Y-94735819D01*
X160489115Y-94765800D01*
X160499572Y-94775260D01*
X160508348Y-94771477D01*
X161167633Y-94112192D01*
X161174011Y-94100512D01*
X162263273Y-94100512D01*
X162263404Y-94102345D01*
X162267655Y-94108960D01*
X162927603Y-94768908D01*
X162939983Y-94775668D01*
X162945416Y-94771601D01*
X163020316Y-94620054D01*
X163024114Y-94610462D01*
X163087888Y-94400557D01*
X163090065Y-94390487D01*
X163118937Y-94171179D01*
X163119456Y-94164504D01*
X163120966Y-94102744D01*
X163120772Y-94096026D01*
X163102649Y-93875583D01*
X163100966Y-93865421D01*
X163047521Y-93652643D01*
X163044203Y-93642896D01*
X162956721Y-93441701D01*
X162951854Y-93432624D01*
X162951079Y-93431428D01*
X162940393Y-93422224D01*
X162930828Y-93426627D01*
X162270887Y-94086568D01*
X162263273Y-94100512D01*
X161174011Y-94100512D01*
X161175247Y-94098248D01*
X161175116Y-94096415D01*
X161170865Y-94089800D01*
X160509303Y-93428238D01*
X160496923Y-93421478D01*
X160491956Y-93425197D01*
X160405871Y-93610650D01*
X160402308Y-93620337D01*
X160343684Y-93831727D01*
X160341753Y-93841848D01*
X160318438Y-94059999D01*
X160318187Y-94070287D01*
X154746866Y-94070287D01*
X156036728Y-92780425D01*
X156099040Y-92746399D01*
X156125823Y-92743520D01*
X157947415Y-92743520D01*
X158015536Y-92763522D01*
G37*
G04 #@! TD.AperFunction*
G04 #@! TA.AperFunction,Conductor*
G36*
X158015536Y-87764802D02*
G01*
X158030940Y-87777216D01*
X158035656Y-87784274D01*
X158119839Y-87840524D01*
X158194073Y-87855290D01*
X160960515Y-87855290D01*
X161028636Y-87875292D01*
X161049610Y-87892195D01*
X161706448Y-88549033D01*
X161720392Y-88556647D01*
X161722225Y-88556516D01*
X161728840Y-88552265D01*
X162388911Y-87892194D01*
X162451223Y-87858168D01*
X162478003Y-87855289D01*
X163704000Y-87855289D01*
X163772121Y-87875291D01*
X163818614Y-87928947D01*
X163830000Y-87981289D01*
X163830000Y-90220030D01*
X163809998Y-90288151D01*
X163756342Y-90334644D01*
X163704000Y-90346030D01*
X162478005Y-90346030D01*
X162409884Y-90326028D01*
X162388910Y-90309125D01*
X161732072Y-89652287D01*
X161718128Y-89644673D01*
X161716295Y-89644804D01*
X161709680Y-89649055D01*
X161049609Y-90309126D01*
X160987297Y-90343152D01*
X160960518Y-90346031D01*
X158194074Y-90346031D01*
X158158322Y-90353142D01*
X158132014Y-90358374D01*
X158132012Y-90358375D01*
X158119839Y-90360796D01*
X158109519Y-90367691D01*
X158109518Y-90367692D01*
X158052692Y-90405663D01*
X158035656Y-90417046D01*
X158032463Y-90421825D01*
X157974198Y-90453641D01*
X157947415Y-90456520D01*
X155642785Y-90456520D01*
X155634544Y-90456250D01*
X155625432Y-90455653D01*
X155569919Y-90452014D01*
X155482021Y-90462418D01*
X155478753Y-90462760D01*
X155390701Y-90470851D01*
X155385135Y-90472421D01*
X155381439Y-90473106D01*
X155370590Y-90475264D01*
X155366954Y-90476037D01*
X155361215Y-90476716D01*
X155276724Y-90502951D01*
X155273588Y-90503880D01*
X155212439Y-90521126D01*
X155188431Y-90527897D01*
X155183243Y-90530455D01*
X155179792Y-90531780D01*
X155169414Y-90535921D01*
X155166027Y-90537324D01*
X155160507Y-90539038D01*
X155155393Y-90541729D01*
X155155392Y-90541729D01*
X155082235Y-90580218D01*
X155079299Y-90581715D01*
X154999943Y-90620849D01*
X154995312Y-90624307D01*
X154992109Y-90626270D01*
X154982722Y-90632193D01*
X154979629Y-90634202D01*
X154974517Y-90636891D01*
X154905024Y-90691676D01*
X154902454Y-90693647D01*
X154836179Y-90743136D01*
X154836172Y-90743143D01*
X154831551Y-90746593D01*
X154827637Y-90750827D01*
X154827635Y-90750829D01*
X154775718Y-90806993D01*
X154772288Y-90810559D01*
X132621696Y-112961151D01*
X132615678Y-112966788D01*
X132566981Y-113009494D01*
X132563406Y-113014029D01*
X132563405Y-113014030D01*
X132512202Y-113078982D01*
X132510124Y-113081547D01*
X132457266Y-113145100D01*
X132457262Y-113145105D01*
X132453574Y-113149540D01*
X132450755Y-113154574D01*
X132448686Y-113157584D01*
X132442492Y-113166854D01*
X132440449Y-113169999D01*
X132436872Y-113174537D01*
X132434184Y-113179645D01*
X132434182Y-113179649D01*
X132406206Y-113232824D01*
X132397734Y-113248928D01*
X132395688Y-113252816D01*
X132394118Y-113255706D01*
X132382323Y-113276769D01*
X132379434Y-113281927D01*
X132328697Y-113331588D01*
X132259165Y-113345935D01*
X132192915Y-113320413D01*
X132150979Y-113263125D01*
X132143500Y-113220360D01*
X132143500Y-111460843D01*
X132163502Y-111392722D01*
X132180405Y-111371748D01*
X154480586Y-89071567D01*
X160318187Y-89071567D01*
X160330817Y-89290592D01*
X160332250Y-89300794D01*
X160380479Y-89514803D01*
X160383562Y-89524643D01*
X160466100Y-89727908D01*
X160470743Y-89737099D01*
X160489115Y-89767080D01*
X160499572Y-89776540D01*
X160508348Y-89772757D01*
X161167633Y-89113472D01*
X161174011Y-89101792D01*
X162263273Y-89101792D01*
X162263404Y-89103625D01*
X162267655Y-89110240D01*
X162927603Y-89770188D01*
X162939983Y-89776948D01*
X162945416Y-89772881D01*
X163020316Y-89621334D01*
X163024114Y-89611742D01*
X163087888Y-89401837D01*
X163090065Y-89391767D01*
X163118937Y-89172459D01*
X163119456Y-89165784D01*
X163120966Y-89104024D01*
X163120772Y-89097306D01*
X163102649Y-88876863D01*
X163100966Y-88866701D01*
X163047521Y-88653923D01*
X163044203Y-88644176D01*
X162956721Y-88442981D01*
X162951854Y-88433904D01*
X162951079Y-88432708D01*
X162940393Y-88423504D01*
X162930828Y-88427907D01*
X162270887Y-89087848D01*
X162263273Y-89101792D01*
X161174011Y-89101792D01*
X161175247Y-89099528D01*
X161175116Y-89097695D01*
X161170865Y-89091080D01*
X160509303Y-88429518D01*
X160496923Y-88422758D01*
X160491956Y-88426477D01*
X160405871Y-88611930D01*
X160402308Y-88621617D01*
X160343684Y-88833007D01*
X160341753Y-88843128D01*
X160318438Y-89061279D01*
X160318187Y-89071567D01*
X154480586Y-89071567D01*
X155770448Y-87781705D01*
X155832760Y-87747679D01*
X155859543Y-87744800D01*
X157947415Y-87744800D01*
X158015536Y-87764802D01*
G37*
G04 #@! TD.AperFunction*
G04 #@! TA.AperFunction,Conductor*
G36*
X158015536Y-82763542D02*
G01*
X158030940Y-82775956D01*
X158035656Y-82783014D01*
X158119839Y-82839264D01*
X158194073Y-82854030D01*
X160960515Y-82854030D01*
X161028636Y-82874032D01*
X161049610Y-82890935D01*
X161706448Y-83547773D01*
X161720392Y-83555387D01*
X161722225Y-83555256D01*
X161728840Y-83551005D01*
X162388911Y-82890934D01*
X162451223Y-82856908D01*
X162478003Y-82854029D01*
X163704000Y-82854029D01*
X163772121Y-82874031D01*
X163818614Y-82927687D01*
X163830000Y-82980029D01*
X163830000Y-85221310D01*
X163809998Y-85289431D01*
X163756342Y-85335924D01*
X163704000Y-85347310D01*
X162480545Y-85347310D01*
X162412424Y-85327308D01*
X162391450Y-85310405D01*
X161732072Y-84651027D01*
X161718128Y-84643413D01*
X161716295Y-84643544D01*
X161709680Y-84647795D01*
X161047069Y-85310406D01*
X160984757Y-85344432D01*
X160957978Y-85347311D01*
X158194074Y-85347311D01*
X158158322Y-85354422D01*
X158132014Y-85359654D01*
X158132012Y-85359655D01*
X158119839Y-85362076D01*
X158109519Y-85368971D01*
X158109518Y-85368972D01*
X158067764Y-85396872D01*
X158035656Y-85418326D01*
X158032463Y-85423105D01*
X157974198Y-85454921D01*
X157947415Y-85457800D01*
X155376505Y-85457800D01*
X155368264Y-85457530D01*
X155359152Y-85456933D01*
X155303639Y-85453294D01*
X155215741Y-85463698D01*
X155212473Y-85464040D01*
X155124421Y-85472131D01*
X155118855Y-85473701D01*
X155115159Y-85474386D01*
X155104310Y-85476544D01*
X155100674Y-85477317D01*
X155094935Y-85477996D01*
X155010444Y-85504231D01*
X155007308Y-85505160D01*
X154946159Y-85522406D01*
X154922151Y-85529177D01*
X154916963Y-85531735D01*
X154913512Y-85533060D01*
X154903134Y-85537201D01*
X154899747Y-85538604D01*
X154894227Y-85540318D01*
X154889113Y-85543009D01*
X154889112Y-85543009D01*
X154815955Y-85581498D01*
X154813019Y-85582995D01*
X154733663Y-85622129D01*
X154729032Y-85625587D01*
X154725829Y-85627550D01*
X154716442Y-85633473D01*
X154713349Y-85635482D01*
X154708237Y-85638171D01*
X154638744Y-85692956D01*
X154636174Y-85694927D01*
X154569899Y-85744416D01*
X154569892Y-85744423D01*
X154565271Y-85747873D01*
X154561357Y-85752107D01*
X154561355Y-85752109D01*
X154509438Y-85808273D01*
X154506008Y-85811839D01*
X130221696Y-110096151D01*
X130215678Y-110101788D01*
X130166981Y-110144494D01*
X130163406Y-110149029D01*
X130163405Y-110149030D01*
X130112202Y-110213982D01*
X130110124Y-110216547D01*
X130057266Y-110280100D01*
X130057262Y-110280105D01*
X130053574Y-110284540D01*
X130050755Y-110289574D01*
X130048686Y-110292584D01*
X130042492Y-110301854D01*
X130040449Y-110304999D01*
X130036872Y-110309537D01*
X130034184Y-110314645D01*
X130034182Y-110314649D01*
X129995688Y-110387816D01*
X129994118Y-110390706D01*
X129950885Y-110467904D01*
X129949028Y-110473376D01*
X129947514Y-110476776D01*
X129943127Y-110486987D01*
X129941705Y-110490421D01*
X129939018Y-110495527D01*
X129937306Y-110501041D01*
X129937305Y-110501043D01*
X129913832Y-110576638D01*
X129874529Y-110635763D01*
X129809500Y-110664253D01*
X129739391Y-110653063D01*
X129686461Y-110605745D01*
X129667500Y-110539273D01*
X129667500Y-109369840D01*
X129691178Y-109296314D01*
X129771603Y-109184391D01*
X129771606Y-109184385D01*
X129776037Y-109178219D01*
X129781362Y-109164974D01*
X129812862Y-109086614D01*
X129839141Y-109021243D01*
X129862980Y-108853746D01*
X129863134Y-108839000D01*
X129842809Y-108671040D01*
X129783006Y-108512778D01*
X129754030Y-108470618D01*
X129691481Y-108379607D01*
X129691479Y-108379605D01*
X129687179Y-108373348D01*
X129681508Y-108368295D01*
X129566531Y-108265854D01*
X129566528Y-108265852D01*
X129560859Y-108260801D01*
X129411339Y-108181634D01*
X129400964Y-108179028D01*
X129254622Y-108142269D01*
X129254618Y-108142269D01*
X129247251Y-108140418D01*
X129239652Y-108140378D01*
X129239650Y-108140378D01*
X129169308Y-108140010D01*
X129078069Y-108139532D01*
X129070688Y-108141304D01*
X128920938Y-108177256D01*
X128920935Y-108177257D01*
X128913559Y-108179028D01*
X128763218Y-108256624D01*
X128757497Y-108261614D01*
X128757495Y-108261616D01*
X128671293Y-108336815D01*
X128635726Y-108367842D01*
X128538444Y-108506261D01*
X128535682Y-108513344D01*
X128535682Y-108513345D01*
X128513393Y-108570514D01*
X128470013Y-108626716D01*
X128403134Y-108650543D01*
X128333990Y-108634430D01*
X128284534Y-108583492D01*
X128270000Y-108524745D01*
X128270000Y-105369500D01*
X128290002Y-105301379D01*
X128343658Y-105254886D01*
X128396000Y-105243500D01*
X130057195Y-105243500D01*
X130065436Y-105243770D01*
X130130061Y-105248006D01*
X130217973Y-105237601D01*
X130221186Y-105237264D01*
X130309279Y-105229169D01*
X130314839Y-105227601D01*
X130318412Y-105226939D01*
X130329415Y-105224750D01*
X130333028Y-105223982D01*
X130338765Y-105223303D01*
X130423276Y-105197062D01*
X130426373Y-105196146D01*
X130511549Y-105172123D01*
X130516737Y-105169565D01*
X130520188Y-105168240D01*
X130530566Y-105164099D01*
X130533953Y-105162696D01*
X130539473Y-105160982D01*
X130617746Y-105119801D01*
X130620682Y-105118305D01*
X130700037Y-105079171D01*
X130704668Y-105075713D01*
X130707871Y-105073750D01*
X130717258Y-105067827D01*
X130720351Y-105065818D01*
X130725463Y-105063129D01*
X130794956Y-105008344D01*
X130797526Y-105006373D01*
X130863801Y-104956884D01*
X130863808Y-104956877D01*
X130868429Y-104953427D01*
X130888950Y-104931228D01*
X130924261Y-104893028D01*
X130927691Y-104889462D01*
X136778312Y-99038842D01*
X136784330Y-99033205D01*
X136828680Y-98994311D01*
X136833019Y-98990506D01*
X136836592Y-98985974D01*
X136887782Y-98921041D01*
X136889856Y-98918480D01*
X136942732Y-98854902D01*
X136942733Y-98854900D01*
X136946426Y-98850460D01*
X136949248Y-98845422D01*
X136951334Y-98842386D01*
X136957508Y-98833146D01*
X136959551Y-98830001D01*
X136963128Y-98825463D01*
X136975193Y-98802532D01*
X137004312Y-98747184D01*
X137005887Y-98744284D01*
X137046291Y-98672139D01*
X137046292Y-98672137D01*
X137049115Y-98667096D01*
X137050972Y-98661624D01*
X137052486Y-98658224D01*
X137056873Y-98648013D01*
X137058295Y-98644579D01*
X137060982Y-98639473D01*
X137066533Y-98621597D01*
X137087212Y-98555001D01*
X137088231Y-98551865D01*
X137114813Y-98473555D01*
X137116669Y-98468088D01*
X137117498Y-98462375D01*
X137118341Y-98458862D01*
X137120833Y-98447849D01*
X137121591Y-98444282D01*
X137123304Y-98438766D01*
X137124024Y-98432688D01*
X137133703Y-98350902D01*
X137134134Y-98347631D01*
X137146825Y-98260103D01*
X137143597Y-98177946D01*
X137143500Y-98172999D01*
X137143500Y-97552647D01*
X137163502Y-97484526D01*
X137217158Y-97438033D01*
X137287432Y-97427929D01*
X137352012Y-97457423D01*
X137387826Y-97509346D01*
X137421612Y-97601670D01*
X137425848Y-97607973D01*
X137425848Y-97607974D01*
X137511740Y-97735796D01*
X137511743Y-97735799D01*
X137515974Y-97742096D01*
X137570442Y-97791658D01*
X137632211Y-97847863D01*
X137641108Y-97855959D01*
X137789791Y-97936687D01*
X137953438Y-97979619D01*
X138041047Y-97980996D01*
X138115004Y-97982158D01*
X138115007Y-97982158D01*
X138122602Y-97982277D01*
X138181742Y-97968732D01*
X138280114Y-97946202D01*
X138280118Y-97946201D01*
X138287517Y-97944506D01*
X138438662Y-97868488D01*
X138494628Y-97820689D01*
X138559417Y-97791658D01*
X138576458Y-97790500D01*
X141076424Y-97790500D01*
X141144545Y-97810502D01*
X141161224Y-97823307D01*
X141188211Y-97847863D01*
X141197108Y-97855959D01*
X141345791Y-97936687D01*
X141509438Y-97979619D01*
X141597047Y-97980996D01*
X141671004Y-97982158D01*
X141671007Y-97982158D01*
X141678602Y-97982277D01*
X141737742Y-97968732D01*
X141836114Y-97946202D01*
X141836118Y-97946201D01*
X141843517Y-97944506D01*
X141994662Y-97868488D01*
X142000433Y-97863559D01*
X142000436Y-97863557D01*
X142117539Y-97763541D01*
X142117540Y-97763540D01*
X142123311Y-97758611D01*
X142222037Y-97621219D01*
X142227362Y-97607974D01*
X142260684Y-97525081D01*
X142285141Y-97464243D01*
X142308980Y-97296746D01*
X142309134Y-97282000D01*
X142288809Y-97114040D01*
X142229006Y-96955778D01*
X142133179Y-96816348D01*
X142127508Y-96811295D01*
X142012531Y-96708854D01*
X142012527Y-96708851D01*
X142006859Y-96703801D01*
X141857339Y-96624634D01*
X141846964Y-96622028D01*
X141700622Y-96585269D01*
X141700618Y-96585269D01*
X141693251Y-96583418D01*
X141685652Y-96583378D01*
X141685650Y-96583378D01*
X141615308Y-96583010D01*
X141524069Y-96582532D01*
X141516688Y-96584304D01*
X141366938Y-96620256D01*
X141366935Y-96620257D01*
X141359559Y-96622028D01*
X141209218Y-96699624D01*
X141203497Y-96704614D01*
X141203495Y-96704616D01*
X141198637Y-96708854D01*
X141161128Y-96741576D01*
X141160127Y-96742449D01*
X141095645Y-96772157D01*
X141077298Y-96773500D01*
X138577075Y-96773500D01*
X138508954Y-96753498D01*
X138493265Y-96741584D01*
X138450859Y-96703801D01*
X138301339Y-96624634D01*
X138290964Y-96622028D01*
X138144622Y-96585269D01*
X138144618Y-96585269D01*
X138137251Y-96583418D01*
X138129652Y-96583378D01*
X138129650Y-96583378D01*
X138059308Y-96583010D01*
X137968069Y-96582532D01*
X137960688Y-96584304D01*
X137810938Y-96620256D01*
X137810935Y-96620257D01*
X137803559Y-96622028D01*
X137653218Y-96699624D01*
X137647497Y-96704614D01*
X137647495Y-96704616D01*
X137531453Y-96805846D01*
X137525726Y-96810842D01*
X137428444Y-96949261D01*
X137425684Y-96956341D01*
X137425682Y-96956344D01*
X137386893Y-97055835D01*
X137343513Y-97112037D01*
X137276634Y-97135864D01*
X137207490Y-97119751D01*
X137158034Y-97068813D01*
X137143500Y-97010066D01*
X137143500Y-95369626D01*
X137852905Y-95369626D01*
X137871470Y-95537790D01*
X137874080Y-95544922D01*
X137916267Y-95660202D01*
X137929612Y-95696670D01*
X137933848Y-95702973D01*
X137933848Y-95702974D01*
X138019740Y-95830796D01*
X138019743Y-95830799D01*
X138023974Y-95837096D01*
X138149108Y-95950959D01*
X138297791Y-96031687D01*
X138461438Y-96074619D01*
X138549047Y-96075996D01*
X138623004Y-96077158D01*
X138623007Y-96077158D01*
X138630602Y-96077277D01*
X138688723Y-96063965D01*
X138788114Y-96041202D01*
X138788118Y-96041201D01*
X138795517Y-96039506D01*
X138946662Y-95963488D01*
X138952433Y-95958559D01*
X138952436Y-95958557D01*
X139069539Y-95858541D01*
X139069540Y-95858540D01*
X139075311Y-95853611D01*
X139174037Y-95716219D01*
X139179362Y-95702974D01*
X139226766Y-95585051D01*
X139237141Y-95559243D01*
X139260980Y-95391746D01*
X139261134Y-95377000D01*
X139260161Y-95368952D01*
X139245566Y-95248349D01*
X139240809Y-95209040D01*
X139181006Y-95050778D01*
X139087660Y-94914958D01*
X139065500Y-94843591D01*
X139065500Y-86241817D01*
X139085502Y-86173696D01*
X139102405Y-86152722D01*
X140570970Y-84684157D01*
X140633282Y-84650131D01*
X140647534Y-84648715D01*
X140647454Y-84647951D01*
X140655004Y-84647158D01*
X140662602Y-84647277D01*
X140720723Y-84633965D01*
X140820114Y-84611202D01*
X140820118Y-84611201D01*
X140827517Y-84609506D01*
X140978662Y-84533488D01*
X140984433Y-84528559D01*
X140984436Y-84528557D01*
X141101539Y-84428541D01*
X141101540Y-84428540D01*
X141107311Y-84423611D01*
X141206037Y-84286219D01*
X141269141Y-84129243D01*
X141277529Y-84070307D01*
X160318187Y-84070307D01*
X160330817Y-84289332D01*
X160332250Y-84299534D01*
X160380479Y-84513543D01*
X160383562Y-84523383D01*
X160466100Y-84726648D01*
X160470743Y-84735839D01*
X160489115Y-84765820D01*
X160499572Y-84775280D01*
X160508348Y-84771497D01*
X161167633Y-84112212D01*
X161174011Y-84100532D01*
X162263273Y-84100532D01*
X162263404Y-84102365D01*
X162267655Y-84108980D01*
X162927603Y-84768928D01*
X162939983Y-84775688D01*
X162945416Y-84771621D01*
X163020316Y-84620074D01*
X163024114Y-84610482D01*
X163087888Y-84400577D01*
X163090065Y-84390507D01*
X163118937Y-84171199D01*
X163119456Y-84164524D01*
X163120966Y-84102764D01*
X163120772Y-84096046D01*
X163102649Y-83875603D01*
X163100966Y-83865441D01*
X163047521Y-83652663D01*
X163044203Y-83642916D01*
X162956721Y-83441721D01*
X162951854Y-83432644D01*
X162951079Y-83431448D01*
X162940393Y-83422244D01*
X162930828Y-83426647D01*
X162270887Y-84086588D01*
X162263273Y-84100532D01*
X161174011Y-84100532D01*
X161175247Y-84098268D01*
X161175116Y-84096435D01*
X161170865Y-84089820D01*
X160509303Y-83428258D01*
X160496923Y-83421498D01*
X160491956Y-83425217D01*
X160405871Y-83610670D01*
X160402308Y-83620357D01*
X160343684Y-83831747D01*
X160341753Y-83841868D01*
X160318438Y-84060019D01*
X160318187Y-84070307D01*
X141277529Y-84070307D01*
X141292980Y-83961746D01*
X141293134Y-83947000D01*
X141291175Y-83930807D01*
X141273721Y-83786580D01*
X141272809Y-83779040D01*
X141213006Y-83620778D01*
X141165053Y-83551005D01*
X141121481Y-83487607D01*
X141121479Y-83487605D01*
X141117179Y-83481348D01*
X141111508Y-83476295D01*
X140996531Y-83373854D01*
X140996528Y-83373852D01*
X140990859Y-83368801D01*
X140970715Y-83358135D01*
X140848051Y-83293188D01*
X140848052Y-83293188D01*
X140841339Y-83289634D01*
X140830964Y-83287028D01*
X140684622Y-83250269D01*
X140684618Y-83250269D01*
X140677251Y-83248418D01*
X140669652Y-83248378D01*
X140669650Y-83248378D01*
X140599308Y-83248010D01*
X140508069Y-83247532D01*
X140500688Y-83249304D01*
X140350938Y-83285256D01*
X140350935Y-83285257D01*
X140343559Y-83287028D01*
X140193218Y-83364624D01*
X140187497Y-83369614D01*
X140187495Y-83369616D01*
X140116616Y-83431448D01*
X140065726Y-83475842D01*
X139968444Y-83614261D01*
X139906988Y-83771889D01*
X139905997Y-83779418D01*
X139891649Y-83888402D01*
X139862927Y-83953329D01*
X139855822Y-83961051D01*
X138247696Y-85569177D01*
X138238156Y-85576800D01*
X138238470Y-85577168D01*
X138231634Y-85582986D01*
X138224042Y-85587776D01*
X138218100Y-85594504D01*
X138188407Y-85628125D01*
X138183061Y-85633812D01*
X138171618Y-85645255D01*
X138165978Y-85652780D01*
X138165341Y-85653630D01*
X138158967Y-85661459D01*
X138127622Y-85696951D01*
X138123808Y-85705074D01*
X138122174Y-85707562D01*
X138113186Y-85722523D01*
X138111771Y-85725108D01*
X138106384Y-85732295D01*
X138103233Y-85740701D01*
X138089759Y-85776642D01*
X138085833Y-85785958D01*
X138065719Y-85828800D01*
X138064338Y-85837669D01*
X138063472Y-85840502D01*
X138059042Y-85857389D01*
X138058408Y-85860274D01*
X138055255Y-85868684D01*
X138054590Y-85877639D01*
X138051746Y-85915906D01*
X138050592Y-85925952D01*
X138049954Y-85930052D01*
X138048500Y-85939386D01*
X138048500Y-85954906D01*
X138048154Y-85964243D01*
X138044461Y-86013941D01*
X138046335Y-86022720D01*
X138046898Y-86030978D01*
X138048500Y-86046161D01*
X138048500Y-94844973D01*
X138025588Y-94917422D01*
X137936444Y-95044261D01*
X137874988Y-95201889D01*
X137873997Y-95209418D01*
X137853902Y-95362056D01*
X137852905Y-95369626D01*
X137143500Y-95369626D01*
X137143500Y-84235843D01*
X137163502Y-84167722D01*
X137180405Y-84146748D01*
X138546709Y-82780445D01*
X138609021Y-82746419D01*
X138635804Y-82743540D01*
X157947415Y-82743540D01*
X158015536Y-82763542D01*
G37*
G04 #@! TD.AperFunction*
G04 #@! TA.AperFunction,Conductor*
G36*
X158015536Y-77764822D02*
G01*
X158030940Y-77777236D01*
X158035656Y-77784294D01*
X158119839Y-77840544D01*
X158194073Y-77855310D01*
X160960515Y-77855310D01*
X161028636Y-77875312D01*
X161049610Y-77892215D01*
X161706448Y-78549053D01*
X161720392Y-78556667D01*
X161722225Y-78556536D01*
X161728840Y-78552285D01*
X162388911Y-77892214D01*
X162451223Y-77858188D01*
X162478003Y-77855309D01*
X163704000Y-77855309D01*
X163772121Y-77875311D01*
X163818614Y-77928967D01*
X163830000Y-77981309D01*
X163830000Y-80220050D01*
X163809998Y-80288171D01*
X163756342Y-80334664D01*
X163704000Y-80346050D01*
X162478005Y-80346050D01*
X162409884Y-80326048D01*
X162388910Y-80309145D01*
X161732072Y-79652307D01*
X161718128Y-79644693D01*
X161716295Y-79644824D01*
X161709680Y-79649075D01*
X161049609Y-80309146D01*
X160987297Y-80343172D01*
X160960518Y-80346051D01*
X158194074Y-80346051D01*
X158158322Y-80353162D01*
X158132014Y-80358394D01*
X158132012Y-80358395D01*
X158119839Y-80360816D01*
X158109519Y-80367711D01*
X158109518Y-80367712D01*
X158078006Y-80388768D01*
X158035656Y-80417066D01*
X158032463Y-80421845D01*
X157974198Y-80453661D01*
X157947415Y-80456540D01*
X138152765Y-80456540D01*
X138144524Y-80456270D01*
X138135412Y-80455673D01*
X138079899Y-80452034D01*
X137991987Y-80462439D01*
X137988774Y-80462776D01*
X137900681Y-80470871D01*
X137895121Y-80472439D01*
X137891548Y-80473101D01*
X137880545Y-80475290D01*
X137876932Y-80476058D01*
X137871195Y-80476737D01*
X137786684Y-80502978D01*
X137783587Y-80503894D01*
X137698411Y-80527917D01*
X137693223Y-80530475D01*
X137689772Y-80531800D01*
X137679394Y-80535941D01*
X137676007Y-80537344D01*
X137670487Y-80539058D01*
X137665373Y-80541749D01*
X137665372Y-80541749D01*
X137592215Y-80580238D01*
X137589279Y-80581735D01*
X137509923Y-80620869D01*
X137505292Y-80624327D01*
X137502089Y-80626290D01*
X137492702Y-80632213D01*
X137489609Y-80634222D01*
X137484497Y-80636911D01*
X137415004Y-80691696D01*
X137412434Y-80693667D01*
X137346159Y-80743156D01*
X137346152Y-80743163D01*
X137341531Y-80746613D01*
X137337617Y-80750847D01*
X137337615Y-80750849D01*
X137285698Y-80807013D01*
X137282268Y-80810579D01*
X135221696Y-82871151D01*
X135215678Y-82876788D01*
X135166981Y-82919494D01*
X135163406Y-82924029D01*
X135163405Y-82924030D01*
X135112202Y-82988982D01*
X135110124Y-82991547D01*
X135057266Y-83055100D01*
X135057262Y-83055105D01*
X135053574Y-83059540D01*
X135050755Y-83064574D01*
X135048686Y-83067584D01*
X135042492Y-83076854D01*
X135040449Y-83079999D01*
X135036872Y-83084537D01*
X135034184Y-83089645D01*
X135034182Y-83089649D01*
X134995688Y-83162816D01*
X134994118Y-83165706D01*
X134950885Y-83242904D01*
X134949028Y-83248376D01*
X134947514Y-83251776D01*
X134943127Y-83261987D01*
X134941705Y-83265421D01*
X134939018Y-83270527D01*
X134937306Y-83276041D01*
X134937305Y-83276043D01*
X134912788Y-83354999D01*
X134911769Y-83358135D01*
X134893729Y-83411280D01*
X134883331Y-83441912D01*
X134882502Y-83447625D01*
X134881659Y-83451138D01*
X134879167Y-83462151D01*
X134878409Y-83465718D01*
X134876696Y-83471234D01*
X134876018Y-83476962D01*
X134876017Y-83476967D01*
X134874758Y-83487607D01*
X134866752Y-83555256D01*
X134866297Y-83559098D01*
X134865870Y-83562340D01*
X134853175Y-83649897D01*
X134856403Y-83732054D01*
X134856500Y-83737001D01*
X134856500Y-97674157D01*
X134836498Y-97742278D01*
X134819595Y-97763252D01*
X129663252Y-102919595D01*
X129600940Y-102953621D01*
X129574157Y-102956500D01*
X128396000Y-102956500D01*
X128327879Y-102936498D01*
X128281386Y-102882842D01*
X128270000Y-102830500D01*
X128270000Y-99756735D01*
X128290002Y-99688614D01*
X128343658Y-99642121D01*
X128413932Y-99632017D01*
X128478512Y-99661511D01*
X128514326Y-99713434D01*
X128531612Y-99760670D01*
X128535848Y-99766973D01*
X128535848Y-99766974D01*
X128621740Y-99894796D01*
X128621743Y-99894799D01*
X128625974Y-99901096D01*
X128751108Y-100014959D01*
X128899791Y-100095687D01*
X129063438Y-100138619D01*
X129151047Y-100139996D01*
X129225004Y-100141158D01*
X129225007Y-100141158D01*
X129232602Y-100141277D01*
X129321214Y-100120982D01*
X129390114Y-100105202D01*
X129390118Y-100105201D01*
X129397517Y-100103506D01*
X129548662Y-100027488D01*
X129554433Y-100022559D01*
X129554436Y-100022557D01*
X129671539Y-99922541D01*
X129671540Y-99922540D01*
X129677311Y-99917611D01*
X129776037Y-99780219D01*
X129780078Y-99770168D01*
X129827473Y-99652267D01*
X129839141Y-99623243D01*
X129856990Y-99497830D01*
X129886391Y-99433208D01*
X129892638Y-99426489D01*
X133585970Y-95733157D01*
X133648282Y-95699131D01*
X133662534Y-95697715D01*
X133662454Y-95696951D01*
X133670004Y-95696158D01*
X133677602Y-95696277D01*
X133735723Y-95682965D01*
X133835114Y-95660202D01*
X133835118Y-95660201D01*
X133842517Y-95658506D01*
X133993662Y-95582488D01*
X133999433Y-95577559D01*
X133999436Y-95577557D01*
X134116539Y-95477541D01*
X134116540Y-95477540D01*
X134122311Y-95472611D01*
X134221037Y-95335219D01*
X134224226Y-95327288D01*
X134248592Y-95266674D01*
X134284141Y-95178243D01*
X134307980Y-95010746D01*
X134308134Y-94996000D01*
X134307316Y-94989233D01*
X134289858Y-94844973D01*
X134287809Y-94828040D01*
X134228006Y-94669778D01*
X134193832Y-94620054D01*
X134136481Y-94536607D01*
X134136479Y-94536605D01*
X134132179Y-94530348D01*
X134126508Y-94525295D01*
X134011531Y-94422854D01*
X134011528Y-94422852D01*
X134005859Y-94417801D01*
X133954688Y-94390707D01*
X133863051Y-94342188D01*
X133863052Y-94342188D01*
X133856339Y-94338634D01*
X133845964Y-94336028D01*
X133699622Y-94299269D01*
X133699618Y-94299269D01*
X133692251Y-94297418D01*
X133684652Y-94297378D01*
X133684650Y-94297378D01*
X133614308Y-94297010D01*
X133523069Y-94296532D01*
X133515688Y-94298304D01*
X133365938Y-94334256D01*
X133365935Y-94334257D01*
X133358559Y-94336028D01*
X133208218Y-94413624D01*
X133202497Y-94418614D01*
X133202495Y-94418616D01*
X133201513Y-94419473D01*
X133080726Y-94524842D01*
X133066117Y-94545628D01*
X132994328Y-94647775D01*
X132983444Y-94663261D01*
X132921988Y-94820889D01*
X132909604Y-94914958D01*
X132906649Y-94937401D01*
X132877927Y-95002328D01*
X132870822Y-95010050D01*
X129176200Y-98704673D01*
X129113888Y-98738699D01*
X129086445Y-98741576D01*
X129078069Y-98741532D01*
X129070688Y-98743304D01*
X128920938Y-98779256D01*
X128920935Y-98779257D01*
X128913559Y-98781028D01*
X128763218Y-98858624D01*
X128757497Y-98863614D01*
X128757495Y-98863616D01*
X128693142Y-98919755D01*
X128635726Y-98969842D01*
X128631356Y-98976060D01*
X128543005Y-99101772D01*
X128538444Y-99108261D01*
X128535682Y-99115344D01*
X128535682Y-99115345D01*
X128513393Y-99172514D01*
X128470013Y-99228716D01*
X128403134Y-99252543D01*
X128333990Y-99236430D01*
X128284534Y-99185492D01*
X128270000Y-99126745D01*
X128270000Y-92673377D01*
X128290002Y-92605256D01*
X128340544Y-92563017D01*
X128339473Y-92560982D01*
X128417745Y-92519802D01*
X128420682Y-92518305D01*
X128446743Y-92505453D01*
X128500037Y-92479171D01*
X128504668Y-92475713D01*
X128507871Y-92473750D01*
X128517258Y-92467827D01*
X128520351Y-92465818D01*
X128525463Y-92463129D01*
X128594956Y-92408344D01*
X128597526Y-92406373D01*
X128663801Y-92356884D01*
X128663808Y-92356877D01*
X128668429Y-92353427D01*
X128724263Y-92293026D01*
X128727692Y-92289461D01*
X131078304Y-89938849D01*
X131084322Y-89933212D01*
X131118463Y-89903271D01*
X131133019Y-89890506D01*
X131187798Y-89821018D01*
X131189876Y-89818453D01*
X131242734Y-89754900D01*
X131242738Y-89754895D01*
X131246426Y-89750460D01*
X131249245Y-89745426D01*
X131251314Y-89742416D01*
X131257508Y-89733146D01*
X131259551Y-89730001D01*
X131263128Y-89725463D01*
X131266917Y-89718263D01*
X131304312Y-89647184D01*
X131305887Y-89644284D01*
X131346291Y-89572139D01*
X131346292Y-89572137D01*
X131349115Y-89567096D01*
X131350972Y-89561624D01*
X131352486Y-89558224D01*
X131356873Y-89548013D01*
X131358295Y-89544579D01*
X131360982Y-89539473D01*
X131362695Y-89533957D01*
X131387212Y-89455001D01*
X131388231Y-89451865D01*
X131414813Y-89373555D01*
X131416669Y-89368088D01*
X131417498Y-89362375D01*
X131418341Y-89358862D01*
X131420833Y-89347849D01*
X131421591Y-89344282D01*
X131423304Y-89338766D01*
X131424132Y-89331778D01*
X131433701Y-89250920D01*
X131434132Y-89247649D01*
X131437410Y-89225046D01*
X131441620Y-89196006D01*
X131445998Y-89165816D01*
X131445998Y-89165811D01*
X131446826Y-89160102D01*
X131443597Y-89077930D01*
X131443500Y-89072983D01*
X131443500Y-81680843D01*
X131463502Y-81612722D01*
X131480405Y-81591748D01*
X134000567Y-79071587D01*
X160318187Y-79071587D01*
X160330817Y-79290612D01*
X160332250Y-79300814D01*
X160380479Y-79514823D01*
X160383562Y-79524663D01*
X160466100Y-79727928D01*
X160470743Y-79737119D01*
X160489115Y-79767100D01*
X160499572Y-79776560D01*
X160508348Y-79772777D01*
X161167633Y-79113492D01*
X161174011Y-79101812D01*
X162263273Y-79101812D01*
X162263404Y-79103645D01*
X162267655Y-79110260D01*
X162927603Y-79770208D01*
X162939983Y-79776968D01*
X162945416Y-79772901D01*
X163020316Y-79621354D01*
X163024114Y-79611762D01*
X163087888Y-79401857D01*
X163090065Y-79391787D01*
X163118937Y-79172479D01*
X163119456Y-79165804D01*
X163120966Y-79104044D01*
X163120772Y-79097326D01*
X163102649Y-78876883D01*
X163100966Y-78866721D01*
X163047521Y-78653943D01*
X163044203Y-78644196D01*
X162956721Y-78443001D01*
X162951854Y-78433924D01*
X162951079Y-78432728D01*
X162940393Y-78423524D01*
X162930828Y-78427927D01*
X162270887Y-79087868D01*
X162263273Y-79101812D01*
X161174011Y-79101812D01*
X161175247Y-79099548D01*
X161175116Y-79097715D01*
X161170865Y-79091100D01*
X160509303Y-78429538D01*
X160496923Y-78422778D01*
X160491956Y-78426497D01*
X160405871Y-78611950D01*
X160402308Y-78621637D01*
X160343684Y-78833027D01*
X160341753Y-78843148D01*
X160318438Y-79061299D01*
X160318187Y-79071587D01*
X134000567Y-79071587D01*
X135290429Y-77781725D01*
X135352741Y-77747699D01*
X135379524Y-77744820D01*
X157947415Y-77744820D01*
X158015536Y-77764822D01*
G37*
G04 #@! TD.AperFunction*
G04 #@! TA.AperFunction,Conductor*
G36*
X158015536Y-72763562D02*
G01*
X158030940Y-72775976D01*
X158035656Y-72783034D01*
X158119839Y-72839284D01*
X158194073Y-72854050D01*
X160960515Y-72854050D01*
X161028636Y-72874052D01*
X161049610Y-72890955D01*
X161706448Y-73547793D01*
X161720392Y-73555407D01*
X161722225Y-73555276D01*
X161728840Y-73551025D01*
X162388911Y-72890954D01*
X162451223Y-72856928D01*
X162478003Y-72854049D01*
X163704000Y-72854049D01*
X163772121Y-72874051D01*
X163818614Y-72927707D01*
X163830000Y-72980049D01*
X163830000Y-75221330D01*
X163809998Y-75289451D01*
X163756342Y-75335944D01*
X163704000Y-75347330D01*
X162480545Y-75347330D01*
X162412424Y-75327328D01*
X162391450Y-75310425D01*
X161732072Y-74651047D01*
X161718128Y-74643433D01*
X161716295Y-74643564D01*
X161709680Y-74647815D01*
X161047069Y-75310426D01*
X160984757Y-75344452D01*
X160957978Y-75347331D01*
X158194074Y-75347331D01*
X158158322Y-75354442D01*
X158132014Y-75359674D01*
X158132012Y-75359675D01*
X158119839Y-75362096D01*
X158109519Y-75368991D01*
X158109518Y-75368992D01*
X158056493Y-75404423D01*
X158035656Y-75418346D01*
X158032463Y-75423125D01*
X157974198Y-75454941D01*
X157947415Y-75457820D01*
X134896485Y-75457820D01*
X134888244Y-75457550D01*
X134860218Y-75455713D01*
X134823619Y-75453314D01*
X134735707Y-75463719D01*
X134732494Y-75464056D01*
X134644401Y-75472151D01*
X134638841Y-75473719D01*
X134635268Y-75474381D01*
X134624265Y-75476570D01*
X134620652Y-75477338D01*
X134614915Y-75478017D01*
X134530404Y-75504258D01*
X134527307Y-75505174D01*
X134442131Y-75529197D01*
X134436943Y-75531755D01*
X134433492Y-75533080D01*
X134423114Y-75537221D01*
X134419727Y-75538624D01*
X134414207Y-75540338D01*
X134409093Y-75543029D01*
X134409092Y-75543029D01*
X134335935Y-75581518D01*
X134332999Y-75583015D01*
X134253643Y-75622149D01*
X134249012Y-75625607D01*
X134245809Y-75627570D01*
X134236422Y-75633493D01*
X134233329Y-75635502D01*
X134228217Y-75638191D01*
X134158724Y-75692976D01*
X134156154Y-75694947D01*
X134089879Y-75744436D01*
X134089872Y-75744443D01*
X134085251Y-75747893D01*
X134081337Y-75752127D01*
X134081335Y-75752129D01*
X134029418Y-75808293D01*
X134025988Y-75811859D01*
X129521696Y-80316151D01*
X129515678Y-80321788D01*
X129466981Y-80364494D01*
X129463410Y-80369024D01*
X129447845Y-80388768D01*
X129437990Y-80399857D01*
X129328723Y-80509124D01*
X129326866Y-80511357D01*
X129326864Y-80511359D01*
X129303827Y-80539058D01*
X129228574Y-80629540D01*
X129125885Y-80812904D01*
X129124029Y-80818371D01*
X129124027Y-80818376D01*
X129116508Y-80840527D01*
X129058331Y-81011912D01*
X129028175Y-81219897D01*
X129036426Y-81429896D01*
X129037700Y-81435527D01*
X129037701Y-81435533D01*
X129043158Y-81459649D01*
X129082808Y-81634875D01*
X129085085Y-81640175D01*
X129085086Y-81640178D01*
X129146268Y-81782583D01*
X129156500Y-81832320D01*
X129156500Y-88574157D01*
X129136498Y-88642278D01*
X129119595Y-88663252D01*
X128485095Y-89297752D01*
X128422783Y-89331778D01*
X128351968Y-89326713D01*
X128295132Y-89284166D01*
X128270321Y-89217646D01*
X128270000Y-89208657D01*
X128270000Y-79956920D01*
X128290002Y-79888799D01*
X128343658Y-79842306D01*
X128384469Y-79831449D01*
X128403523Y-79829698D01*
X128403524Y-79829698D01*
X128409279Y-79829169D01*
X128414838Y-79827601D01*
X128418412Y-79826939D01*
X128429415Y-79824750D01*
X128433028Y-79823982D01*
X128438765Y-79823303D01*
X128523276Y-79797062D01*
X128526373Y-79796146D01*
X128611549Y-79772123D01*
X128616737Y-79769565D01*
X128620188Y-79768240D01*
X128630566Y-79764099D01*
X128633953Y-79762696D01*
X128639473Y-79760982D01*
X128669697Y-79745081D01*
X128717745Y-79719802D01*
X128720682Y-79718305D01*
X128730618Y-79713405D01*
X128800037Y-79679171D01*
X128804668Y-79675713D01*
X128807871Y-79673750D01*
X128817258Y-79667827D01*
X128820351Y-79665818D01*
X128825463Y-79663129D01*
X128894956Y-79608344D01*
X128897526Y-79606373D01*
X128963801Y-79556884D01*
X128963808Y-79556877D01*
X128968429Y-79553427D01*
X128988950Y-79531228D01*
X129024262Y-79493027D01*
X129027692Y-79489461D01*
X134446826Y-74070327D01*
X160318187Y-74070327D01*
X160330817Y-74289352D01*
X160332250Y-74299554D01*
X160380479Y-74513563D01*
X160383562Y-74523403D01*
X160466100Y-74726668D01*
X160470743Y-74735859D01*
X160489115Y-74765840D01*
X160499572Y-74775300D01*
X160508348Y-74771517D01*
X161167633Y-74112232D01*
X161174011Y-74100552D01*
X162263273Y-74100552D01*
X162263404Y-74102385D01*
X162267655Y-74109000D01*
X162927603Y-74768948D01*
X162939983Y-74775708D01*
X162945416Y-74771641D01*
X163020316Y-74620094D01*
X163024114Y-74610502D01*
X163087888Y-74400597D01*
X163090065Y-74390527D01*
X163118937Y-74171219D01*
X163119456Y-74164544D01*
X163120966Y-74102784D01*
X163120772Y-74096066D01*
X163102649Y-73875623D01*
X163100966Y-73865461D01*
X163047521Y-73652683D01*
X163044203Y-73642936D01*
X162956721Y-73441741D01*
X162951854Y-73432664D01*
X162951079Y-73431468D01*
X162940393Y-73422264D01*
X162930828Y-73426667D01*
X162270887Y-74086608D01*
X162263273Y-74100552D01*
X161174011Y-74100552D01*
X161175247Y-74098288D01*
X161175116Y-74096455D01*
X161170865Y-74089840D01*
X160509303Y-73428278D01*
X160496923Y-73421518D01*
X160491956Y-73425237D01*
X160405871Y-73610690D01*
X160402308Y-73620377D01*
X160343684Y-73831767D01*
X160341753Y-73841888D01*
X160318438Y-74060039D01*
X160318187Y-74070327D01*
X134446826Y-74070327D01*
X135736688Y-72780465D01*
X135799000Y-72746439D01*
X135825783Y-72743560D01*
X157947415Y-72743560D01*
X158015536Y-72763562D01*
G37*
G04 #@! TD.AperFunction*
G04 #@! TA.AperFunction,Conductor*
G36*
X163772121Y-54630002D02*
G01*
X163818614Y-54683658D01*
X163830000Y-54736000D01*
X163830000Y-65221350D01*
X163809998Y-65289471D01*
X163756342Y-65335964D01*
X163704000Y-65347350D01*
X162480545Y-65347350D01*
X162412424Y-65327348D01*
X162391450Y-65310445D01*
X161732072Y-64651067D01*
X161718128Y-64643453D01*
X161716295Y-64643584D01*
X161709680Y-64647835D01*
X161047069Y-65310446D01*
X160984757Y-65344472D01*
X160957978Y-65347351D01*
X158194074Y-65347351D01*
X158158322Y-65354462D01*
X158132014Y-65359694D01*
X158132012Y-65359695D01*
X158119839Y-65362116D01*
X158109519Y-65369011D01*
X158109518Y-65369012D01*
X158056493Y-65404443D01*
X158035656Y-65418366D01*
X157979406Y-65502549D01*
X157964640Y-65576783D01*
X157964641Y-67625896D01*
X157979406Y-67700131D01*
X157986301Y-67710451D01*
X157986302Y-67710452D01*
X158025179Y-67768634D01*
X158035656Y-67784314D01*
X158119839Y-67840564D01*
X158194073Y-67855330D01*
X160960515Y-67855330D01*
X161028636Y-67875332D01*
X161049610Y-67892235D01*
X161706448Y-68549073D01*
X161720392Y-68556687D01*
X161722225Y-68556556D01*
X161728840Y-68552305D01*
X162388911Y-67892234D01*
X162451223Y-67858208D01*
X162478003Y-67855329D01*
X163704000Y-67855329D01*
X163772121Y-67875331D01*
X163818614Y-67928987D01*
X163830000Y-67981329D01*
X163830000Y-70220070D01*
X163809998Y-70288191D01*
X163756342Y-70334684D01*
X163704000Y-70346070D01*
X162478005Y-70346070D01*
X162409884Y-70326068D01*
X162388910Y-70309165D01*
X161732072Y-69652327D01*
X161718128Y-69644713D01*
X161716295Y-69644844D01*
X161709680Y-69649095D01*
X161049609Y-70309166D01*
X160987297Y-70343192D01*
X160960518Y-70346071D01*
X158194074Y-70346071D01*
X158158322Y-70353182D01*
X158132014Y-70358414D01*
X158132012Y-70358415D01*
X158119839Y-70360836D01*
X158109519Y-70367731D01*
X158109518Y-70367732D01*
X158052692Y-70405703D01*
X158035656Y-70417086D01*
X158032463Y-70421865D01*
X157974198Y-70453681D01*
X157947415Y-70456560D01*
X135342734Y-70456560D01*
X135334493Y-70456290D01*
X135294686Y-70453681D01*
X135269878Y-70452055D01*
X135182014Y-70462455D01*
X135178747Y-70462797D01*
X135152938Y-70465169D01*
X135096416Y-70470362D01*
X135096414Y-70470362D01*
X135090661Y-70470891D01*
X135085099Y-70472460D01*
X135081541Y-70473119D01*
X135070491Y-70475317D01*
X135066910Y-70476078D01*
X135061174Y-70476757D01*
X134976671Y-70502995D01*
X134973539Y-70503923D01*
X134888391Y-70527937D01*
X134883209Y-70530493D01*
X134879764Y-70531815D01*
X134869361Y-70535966D01*
X134865982Y-70537365D01*
X134860466Y-70539078D01*
X134855360Y-70541764D01*
X134855356Y-70541766D01*
X134782157Y-70580278D01*
X134779217Y-70581776D01*
X134705081Y-70618335D01*
X134705077Y-70618338D01*
X134699903Y-70620889D01*
X134695278Y-70624343D01*
X134692112Y-70626283D01*
X134682699Y-70632222D01*
X134679589Y-70634241D01*
X134674477Y-70636931D01*
X134669943Y-70640506D01*
X134669942Y-70640506D01*
X134604998Y-70691704D01*
X134602397Y-70693700D01*
X134531511Y-70746633D01*
X134527597Y-70750867D01*
X134527595Y-70750869D01*
X134475691Y-70807019D01*
X134472261Y-70810585D01*
X131111628Y-74171219D01*
X128485095Y-76797752D01*
X128422783Y-76831778D01*
X128351968Y-76826713D01*
X128295132Y-76784166D01*
X128270321Y-76717646D01*
X128270000Y-76708657D01*
X128270000Y-69071607D01*
X160318187Y-69071607D01*
X160330817Y-69290632D01*
X160332250Y-69300834D01*
X160380479Y-69514843D01*
X160383562Y-69524683D01*
X160466100Y-69727948D01*
X160470743Y-69737139D01*
X160489115Y-69767120D01*
X160499572Y-69776580D01*
X160508348Y-69772797D01*
X161167633Y-69113512D01*
X161174011Y-69101832D01*
X162263273Y-69101832D01*
X162263404Y-69103665D01*
X162267655Y-69110280D01*
X162927603Y-69770228D01*
X162939983Y-69776988D01*
X162945416Y-69772921D01*
X163020316Y-69621374D01*
X163024114Y-69611782D01*
X163087888Y-69401877D01*
X163090065Y-69391807D01*
X163118937Y-69172499D01*
X163119456Y-69165824D01*
X163120966Y-69104064D01*
X163120772Y-69097346D01*
X163102649Y-68876903D01*
X163100966Y-68866741D01*
X163047521Y-68653963D01*
X163044203Y-68644216D01*
X162956721Y-68443021D01*
X162951854Y-68433944D01*
X162951079Y-68432748D01*
X162940393Y-68423544D01*
X162930828Y-68427947D01*
X162270887Y-69087888D01*
X162263273Y-69101832D01*
X161174011Y-69101832D01*
X161175247Y-69099568D01*
X161175116Y-69097735D01*
X161170865Y-69091120D01*
X160509303Y-68429558D01*
X160496923Y-68422798D01*
X160491956Y-68426517D01*
X160405871Y-68611970D01*
X160402308Y-68621657D01*
X160343684Y-68833047D01*
X160341753Y-68843168D01*
X160318438Y-69061319D01*
X160318187Y-69071607D01*
X128270000Y-69071607D01*
X128270000Y-64070347D01*
X160318187Y-64070347D01*
X160330817Y-64289372D01*
X160332250Y-64299574D01*
X160380479Y-64513583D01*
X160383562Y-64523423D01*
X160466100Y-64726688D01*
X160470743Y-64735879D01*
X160489115Y-64765860D01*
X160499572Y-64775320D01*
X160508348Y-64771537D01*
X161167633Y-64112252D01*
X161174011Y-64100572D01*
X162263273Y-64100572D01*
X162263404Y-64102405D01*
X162267655Y-64109020D01*
X162927603Y-64768968D01*
X162939983Y-64775728D01*
X162945416Y-64771661D01*
X163020316Y-64620114D01*
X163024114Y-64610522D01*
X163087888Y-64400617D01*
X163090065Y-64390547D01*
X163118937Y-64171239D01*
X163119456Y-64164564D01*
X163120966Y-64102804D01*
X163120772Y-64096086D01*
X163102649Y-63875643D01*
X163100966Y-63865481D01*
X163047521Y-63652703D01*
X163044203Y-63642956D01*
X162956721Y-63441761D01*
X162951854Y-63432684D01*
X162951079Y-63431488D01*
X162940393Y-63422284D01*
X162930828Y-63426687D01*
X162270887Y-64086628D01*
X162263273Y-64100572D01*
X161174011Y-64100572D01*
X161175247Y-64098308D01*
X161175116Y-64096475D01*
X161170865Y-64089860D01*
X160509303Y-63428298D01*
X160496923Y-63421538D01*
X160491956Y-63425257D01*
X160405871Y-63610710D01*
X160402308Y-63620397D01*
X160343684Y-63831787D01*
X160341753Y-63841908D01*
X160318438Y-64060059D01*
X160318187Y-64070347D01*
X128270000Y-64070347D01*
X128270000Y-62880562D01*
X161043692Y-62880562D01*
X161046118Y-62887483D01*
X161706448Y-63547813D01*
X161720392Y-63555427D01*
X161722225Y-63555296D01*
X161728840Y-63551045D01*
X162387488Y-62892397D01*
X162394248Y-62880017D01*
X162389434Y-62873587D01*
X162298411Y-62823340D01*
X162289012Y-62819115D01*
X162082210Y-62745883D01*
X162072253Y-62743253D01*
X161856268Y-62704779D01*
X161846017Y-62703810D01*
X161626646Y-62701130D01*
X161616362Y-62701850D01*
X161399511Y-62735032D01*
X161389484Y-62737421D01*
X161180964Y-62805575D01*
X161171455Y-62809572D01*
X161053859Y-62870790D01*
X161043692Y-62880562D01*
X128270000Y-62880562D01*
X128270000Y-54736000D01*
X128290002Y-54667879D01*
X128343658Y-54621386D01*
X128396000Y-54610000D01*
X163704000Y-54610000D01*
X163772121Y-54630002D01*
G37*
G04 #@! TD.AperFunction*
M02*
