G04 #@! TF.GenerationSoftware,KiCad,Pcbnew,(5.1.5)-3*
G04 #@! TF.CreationDate,2021-08-30T19:45:08+02:00*
G04 #@! TF.ProjectId,sbk6ac,73626b36-6163-42e6-9b69-6361645f7063,0432 -*
G04 #@! TF.SameCoordinates,Original*
G04 #@! TF.FileFunction,Copper,L1,Top*
G04 #@! TF.FilePolarity,Positive*
%FSLAX46Y46*%
G04 Gerber Fmt 4.6, Leading zero omitted, Abs format (unit mm)*
G04 Created by KiCad (PCBNEW (5.1.5)-3) date 2021-08-30 19:45:08*
%MOMM*%
%LPD*%
G04 APERTURE LIST*
%ADD10C,1.397000*%
%ADD11R,1.397000X1.397000*%
%ADD12C,1.778000*%
%ADD13R,0.889000X1.397000*%
%ADD14R,5.999480X1.998980*%
%ADD15C,3.500120*%
%ADD16C,2.199640*%
%ADD17R,0.508000X1.143000*%
%ADD18C,1.651000*%
%ADD19R,1.651000X1.651000*%
%ADD20R,1.397000X0.889000*%
%ADD21C,0.889000*%
%ADD22C,1.016000*%
%ADD23C,0.508000*%
%ADD24C,1.778000*%
%ADD25C,0.254000*%
G04 APERTURE END LIST*
D10*
X148209000Y-139573000D03*
D11*
X148209000Y-142113000D03*
D10*
X145669000Y-142113000D03*
D12*
X83820000Y-76200000D03*
X88900000Y-76200000D03*
X93980000Y-76200000D03*
X83820000Y-68580000D03*
X88900000Y-68580000D03*
X93980000Y-68580000D03*
X101600000Y-76200000D03*
X101600000Y-68580000D03*
X125730000Y-68580000D03*
X120650000Y-68580000D03*
X115570000Y-68580000D03*
X125730000Y-76200000D03*
X120650000Y-76200000D03*
X115570000Y-76200000D03*
X107950000Y-68580000D03*
X107950000Y-76200000D03*
X83820000Y-88900000D03*
X88900000Y-88900000D03*
X93980000Y-88900000D03*
X83820000Y-81280000D03*
X88900000Y-81280000D03*
X93980000Y-81280000D03*
X101600000Y-88900000D03*
X101600000Y-81280000D03*
X125730000Y-81280000D03*
X120650000Y-81280000D03*
X115570000Y-81280000D03*
X125730000Y-88900000D03*
X120650000Y-88900000D03*
X115570000Y-88900000D03*
X107950000Y-81280000D03*
X107950000Y-88900000D03*
X83820000Y-101600000D03*
X88900000Y-101600000D03*
X93980000Y-101600000D03*
X83820000Y-93980000D03*
X88900000Y-93980000D03*
X93980000Y-93980000D03*
X101600000Y-101600000D03*
X101600000Y-93980000D03*
X125730000Y-93980000D03*
X120650000Y-93980000D03*
X115570000Y-93980000D03*
X125730000Y-101600000D03*
X120650000Y-101600000D03*
X115570000Y-101600000D03*
X107950000Y-93980000D03*
X107950000Y-101600000D03*
X83820000Y-114300000D03*
X88900000Y-114300000D03*
X93980000Y-114300000D03*
X83820000Y-106680000D03*
X88900000Y-106680000D03*
X93980000Y-106680000D03*
X101600000Y-114300000D03*
X101600000Y-106680000D03*
X125730000Y-106680000D03*
X120650000Y-106680000D03*
X115570000Y-106680000D03*
X125730000Y-114300000D03*
X120650000Y-114300000D03*
X115570000Y-114300000D03*
X107950000Y-106680000D03*
X107950000Y-114300000D03*
X83820000Y-127000000D03*
X88900000Y-127000000D03*
X93980000Y-127000000D03*
X83820000Y-119380000D03*
X88900000Y-119380000D03*
X93980000Y-119380000D03*
X101600000Y-127000000D03*
X101600000Y-119380000D03*
X125730000Y-119380000D03*
X120650000Y-119380000D03*
X115570000Y-119380000D03*
X125730000Y-127000000D03*
X120650000Y-127000000D03*
X115570000Y-127000000D03*
X107950000Y-119380000D03*
X107950000Y-127000000D03*
X83820000Y-139700000D03*
X88900000Y-139700000D03*
X93980000Y-139700000D03*
X83820000Y-132080000D03*
X88900000Y-132080000D03*
X93980000Y-132080000D03*
X101600000Y-139700000D03*
X101600000Y-132080000D03*
X125730000Y-132080000D03*
X120650000Y-132080000D03*
X115570000Y-132080000D03*
X125730000Y-139700000D03*
X120650000Y-139700000D03*
X115570000Y-139700000D03*
X107950000Y-132080000D03*
X107950000Y-139700000D03*
X83820000Y-63500000D03*
X88900000Y-63500000D03*
X93980000Y-63500000D03*
X83820000Y-55880000D03*
X88900000Y-55880000D03*
X93980000Y-55880000D03*
X101600000Y-63500000D03*
X101600000Y-55880000D03*
D13*
X141922500Y-100076000D03*
X140017500Y-100076000D03*
D12*
X161719260Y-64099440D03*
D14*
X161218880Y-66601340D03*
D12*
X161719260Y-69100700D03*
D14*
X161218880Y-71600060D03*
D12*
X161719260Y-74099420D03*
D14*
X161218880Y-76601320D03*
D12*
X161719260Y-79100680D03*
D14*
X161218880Y-81600040D03*
D12*
X161719260Y-84099400D03*
D14*
X161218880Y-86601300D03*
D12*
X161719260Y-89100660D03*
D14*
X161218880Y-91600020D03*
D12*
X161719260Y-94099380D03*
D14*
X161218880Y-96601280D03*
D12*
X161719260Y-99100640D03*
D14*
X161218880Y-101600000D03*
D12*
X161719260Y-104099360D03*
D14*
X161218880Y-106601260D03*
D12*
X161719260Y-109100620D03*
D14*
X161218880Y-111599980D03*
D12*
X161719260Y-114099340D03*
D14*
X161218880Y-116601240D03*
D12*
X161719260Y-119100600D03*
D14*
X161218880Y-121599960D03*
D12*
X161719260Y-124099320D03*
D14*
X161218880Y-126601220D03*
D12*
X161719260Y-129100580D03*
D14*
X161218880Y-131599940D03*
D12*
X161719260Y-134099300D03*
D14*
X161218880Y-136601200D03*
D12*
X161719260Y-139100560D03*
D15*
X71198740Y-59100720D03*
D16*
X76200000Y-101600000D03*
X76200000Y-106601260D03*
X76200000Y-116601240D03*
X76200000Y-111599980D03*
X76200000Y-131599940D03*
X76200000Y-136601200D03*
X76200000Y-126601220D03*
X76200000Y-121599960D03*
X76200000Y-81600040D03*
X76200000Y-86601300D03*
X76200000Y-96601280D03*
X76200000Y-91600020D03*
X76200000Y-71600060D03*
X76200000Y-76601320D03*
X76200000Y-66601340D03*
X73698100Y-69100700D03*
X73698100Y-79100680D03*
X73698100Y-74099420D03*
X73698100Y-94099380D03*
X73698100Y-99100640D03*
X73698100Y-89100660D03*
X73698100Y-84099400D03*
X73698100Y-124099320D03*
X73698100Y-129100580D03*
X73698100Y-139100560D03*
X73698100Y-134099300D03*
X73698100Y-114099340D03*
X73698100Y-119100600D03*
X73698100Y-109100620D03*
X73698100Y-104099360D03*
X73700640Y-64099440D03*
D15*
X71198740Y-144101820D03*
D17*
X132715000Y-87630000D03*
X133985000Y-87630000D03*
X135255000Y-87630000D03*
X136525000Y-87630000D03*
X137795000Y-87630000D03*
X139065000Y-87630000D03*
X140335000Y-87630000D03*
X141605000Y-87630000D03*
X141605000Y-92710000D03*
X140335000Y-92710000D03*
X139065000Y-92710000D03*
X137795000Y-92710000D03*
X136525000Y-92710000D03*
X135255000Y-92710000D03*
X133985000Y-92710000D03*
X132715000Y-92710000D03*
X142875000Y-119380000D03*
X141605000Y-119380000D03*
X140335000Y-119380000D03*
X139065000Y-119380000D03*
X137795000Y-119380000D03*
X136525000Y-119380000D03*
X135255000Y-119380000D03*
X133985000Y-119380000D03*
X133985000Y-114300000D03*
X135255000Y-114300000D03*
X136525000Y-114300000D03*
X137795000Y-114300000D03*
X139065000Y-114300000D03*
X140335000Y-114300000D03*
X141605000Y-114300000D03*
X142875000Y-114300000D03*
D18*
X140208000Y-139573000D03*
D19*
X140208000Y-142113000D03*
D20*
X130048000Y-89344500D03*
X130048000Y-91249500D03*
X144018000Y-109410500D03*
X144018000Y-111315500D03*
D21*
X141351000Y-135763000D03*
X143256000Y-116332000D03*
X156718000Y-119380000D03*
X147447000Y-118110000D03*
X140589000Y-83947000D03*
X138557000Y-95377000D03*
X144399000Y-120015000D03*
X141605000Y-115951000D03*
X152146000Y-105537000D03*
X138049000Y-97282000D03*
X144653000Y-105537000D03*
X141605000Y-97282000D03*
X150749000Y-116586000D03*
X135300000Y-121700000D03*
X133096000Y-89789000D03*
X132700000Y-86200000D03*
X142875000Y-123698000D03*
X137795000Y-101092000D03*
X144018000Y-107442000D03*
X156845000Y-114173000D03*
X152146000Y-114173000D03*
X146177000Y-118999000D03*
X133604000Y-94996000D03*
X129159000Y-108839000D03*
X129159000Y-99441000D03*
X129159000Y-114046000D03*
D22*
X140081000Y-142240000D02*
X140208000Y-142113000D01*
X82550000Y-142240000D02*
X95377000Y-142240000D01*
X80645000Y-137160000D02*
X80645000Y-140335000D01*
X95377000Y-142240000D02*
X95250000Y-142240000D01*
X131064000Y-142240000D02*
X139204700Y-134099300D01*
X140208000Y-142113000D02*
X145669000Y-142113000D01*
X97155000Y-136525000D02*
X101600000Y-132080000D01*
D23*
X101600000Y-106680000D02*
X98425000Y-106680000D01*
D22*
X131064000Y-142240000D02*
X140081000Y-142240000D01*
D23*
X101600000Y-124460000D02*
X98425000Y-121285000D01*
X98425000Y-101600000D02*
X98425000Y-81280000D01*
X98425000Y-66675000D02*
X101600000Y-63500000D01*
D22*
X97155000Y-140335000D02*
X97155000Y-136525000D01*
X77584300Y-134099300D02*
X80645000Y-137160000D01*
X95250000Y-142240000D02*
X97155000Y-140335000D01*
D23*
X98425000Y-79375000D02*
X98425000Y-76200000D01*
X101600000Y-132080000D02*
X101600000Y-127000000D01*
D22*
X95377000Y-142240000D02*
X131064000Y-142240000D01*
D23*
X101600000Y-101600000D02*
X98425000Y-101600000D01*
X98425000Y-76200000D02*
X98425000Y-66675000D01*
X101600000Y-81280000D02*
X98425000Y-81280000D01*
X98425000Y-106680000D02*
X98425000Y-101600000D01*
X98425000Y-121285000D02*
X98425000Y-106680000D01*
D22*
X73698100Y-134099300D02*
X77584300Y-134099300D01*
D23*
X98425000Y-81280000D02*
X98425000Y-79375000D01*
X101600000Y-76200000D02*
X98425000Y-76200000D01*
D22*
X139204700Y-134099300D02*
X161719260Y-134099300D01*
X80645000Y-140335000D02*
X82550000Y-142240000D01*
D23*
X101600000Y-127000000D02*
X101600000Y-124460000D01*
X148717000Y-119380000D02*
X156718000Y-119380000D01*
X144018000Y-111315500D02*
X144018000Y-112268000D01*
X135255000Y-113411000D02*
X135255000Y-110109000D01*
X135255000Y-114300000D02*
X135255000Y-113411000D01*
X142875000Y-113411000D02*
X142875000Y-113157000D01*
X140335000Y-96647000D02*
X140335000Y-92710000D01*
X135255000Y-110109000D02*
X135255000Y-101727000D01*
X142875000Y-114300000D02*
X142875000Y-115951000D01*
X145542000Y-135763000D02*
X148209000Y-138430000D01*
X142875000Y-113411000D02*
X142875000Y-114300000D01*
X148209000Y-138430000D02*
X148209000Y-139573000D01*
X137985500Y-98996500D02*
X140335000Y-96647000D01*
X141986000Y-112268000D02*
X136398000Y-112268000D01*
X144018000Y-112268000D02*
X142875000Y-113411000D01*
X140335000Y-91821000D02*
X139319000Y-90805000D01*
X135255000Y-101727000D02*
X137985500Y-98996500D01*
X140335000Y-92710000D02*
X140335000Y-91821000D01*
X142875000Y-115951000D02*
X143256000Y-116332000D01*
X142875000Y-113157000D02*
X141986000Y-112268000D01*
X132715000Y-91567000D02*
X133477000Y-90805000D01*
X132715000Y-92710000D02*
X132715000Y-91567000D01*
X139319000Y-90805000D02*
X133477000Y-90805000D01*
X147447000Y-118110000D02*
X148717000Y-119380000D01*
X133032500Y-91249500D02*
X133477000Y-90805000D01*
X139065000Y-100076000D02*
X137985500Y-98996500D01*
X130048000Y-91249500D02*
X133032500Y-91249500D01*
X141351000Y-135763000D02*
X145542000Y-135763000D01*
X140017500Y-100076000D02*
X139065000Y-100076000D01*
X136398000Y-112268000D02*
X135255000Y-113411000D01*
D24*
X88900000Y-63500000D02*
X88900000Y-55880000D01*
X83820000Y-55880000D02*
X83820000Y-63500000D01*
D23*
X135763000Y-147574000D02*
X159131000Y-147574000D01*
X96139000Y-144272000D02*
X132461000Y-144272000D01*
X161719260Y-144985740D02*
X161719260Y-139100560D01*
X81915000Y-144272000D02*
X96139000Y-144272000D01*
X159131000Y-147574000D02*
X161719260Y-144985740D01*
X73698100Y-139100560D02*
X76743560Y-139100560D01*
X76743560Y-139100560D02*
X81915000Y-144272000D01*
X132461000Y-144272000D02*
X135763000Y-147574000D01*
X119634000Y-55118000D02*
X102362000Y-55118000D01*
X139065000Y-94869000D02*
X138557000Y-95377000D01*
X140589000Y-76073000D02*
X119634000Y-55118000D01*
X102362000Y-55118000D02*
X101600000Y-55880000D01*
X140589000Y-83947000D02*
X140589000Y-76073000D01*
X139065000Y-92710000D02*
X139065000Y-94869000D01*
X145983960Y-121599960D02*
X144399000Y-120015000D01*
X141605000Y-115951000D02*
X141605000Y-114300000D01*
X147828000Y-121599960D02*
X147894040Y-121599960D01*
X161719260Y-121599960D02*
X147828000Y-121599960D01*
X147828000Y-121599960D02*
X145983960Y-121599960D01*
X141605000Y-97282000D02*
X141605000Y-92710000D01*
X141922500Y-102933500D02*
X144526000Y-105537000D01*
X133985000Y-114300000D02*
X133985000Y-101346000D01*
X141922500Y-97599500D02*
X141605000Y-97282000D01*
X154017980Y-111599980D02*
X161719260Y-111599980D01*
X141922500Y-100076000D02*
X141922500Y-97599500D01*
X141922500Y-100076000D02*
X141922500Y-102933500D01*
X144526000Y-105537000D02*
X144653000Y-105537000D01*
X133985000Y-101346000D02*
X138049000Y-97282000D01*
X152146000Y-105537000D02*
X152146000Y-109728000D01*
X152146000Y-109728000D02*
X154017980Y-111599980D01*
X150749000Y-116601240D02*
X150749000Y-116586000D01*
X135255000Y-121655000D02*
X135300000Y-121700000D01*
X135255000Y-121655000D02*
X135255000Y-119380000D01*
X141097000Y-89027000D02*
X142494000Y-89027000D01*
X150749000Y-116601240D02*
X161719260Y-116601240D01*
X150733760Y-116601240D02*
X150733760Y-97266760D01*
X142494000Y-89027000D02*
X150733760Y-97266760D01*
X150733760Y-116601240D02*
X150749000Y-116601240D01*
X140335000Y-87630000D02*
X140335000Y-88265000D01*
X140335000Y-88265000D02*
X141097000Y-89027000D01*
X147955000Y-96393000D02*
X147955000Y-114935000D01*
X141605000Y-118110000D02*
X141605000Y-119380000D01*
X133985000Y-88900000D02*
X135001000Y-89916000D01*
X143111220Y-126601220D02*
X141605000Y-125095000D01*
X141859000Y-117856000D02*
X141605000Y-118110000D01*
X147955000Y-115443000D02*
X145542000Y-117856000D01*
X141605000Y-125095000D02*
X141605000Y-119380000D01*
X141478000Y-89916000D02*
X147955000Y-96393000D01*
X161719260Y-126601220D02*
X143111220Y-126601220D01*
X145542000Y-117856000D02*
X141859000Y-117856000D01*
X147955000Y-114935000D02*
X147955000Y-115443000D01*
X135001000Y-89916000D02*
X141478000Y-89916000D01*
X133985000Y-87630000D02*
X133985000Y-88900000D01*
X130048000Y-89344500D02*
X132651500Y-89344500D01*
X132715000Y-89408000D02*
X133096000Y-89789000D01*
X132715000Y-89408000D02*
X132715000Y-87630000D01*
X132651500Y-89344500D02*
X133096000Y-89789000D01*
X132715000Y-87630000D02*
X132715000Y-86215000D01*
X132715000Y-86215000D02*
X132700000Y-86200000D01*
X143256000Y-118999000D02*
X146177000Y-118999000D01*
X142875000Y-119380000D02*
X143256000Y-118999000D01*
X144018000Y-107442000D02*
X144018000Y-107315000D01*
X144018000Y-109410500D02*
X144018000Y-107442000D01*
X142875000Y-119380000D02*
X142875000Y-123698000D01*
X144018000Y-107315000D02*
X137795000Y-101092000D01*
D22*
X156845000Y-114173000D02*
X152146000Y-114173000D01*
D23*
X135250000Y-135260000D02*
X140335000Y-130175000D01*
X107950000Y-139700000D02*
X112390000Y-135260000D01*
X140335000Y-130175000D02*
X140335000Y-119380000D01*
X112390000Y-135260000D02*
X135250000Y-135260000D01*
X139065000Y-128905000D02*
X139065000Y-119380000D01*
X133880000Y-134090000D02*
X139065000Y-128905000D01*
X101600000Y-139700000D02*
X107210000Y-134090000D01*
X107210000Y-134090000D02*
X133880000Y-134090000D01*
X106680000Y-124460000D02*
X136790000Y-124460000D01*
X136790000Y-124460000D02*
X137795000Y-123455000D01*
X137795000Y-123455000D02*
X137795000Y-119380000D01*
X101600000Y-119380000D02*
X106680000Y-124460000D01*
X111760000Y-123190000D02*
X136020000Y-123190000D01*
X136525000Y-122685000D02*
X136525000Y-119380000D01*
X107950000Y-119380000D02*
X111760000Y-123190000D01*
X136020000Y-123190000D02*
X136525000Y-122685000D01*
X129159000Y-116002000D02*
X129159000Y-114046000D01*
X133604000Y-94996000D02*
X133985000Y-94615000D01*
X132537000Y-119380000D02*
X129159000Y-116002000D01*
X133985000Y-119380000D02*
X132537000Y-119380000D01*
X129159000Y-108839000D02*
X129159000Y-99441000D01*
X133985000Y-94615000D02*
X133985000Y-92710000D01*
X133858000Y-116713000D02*
X135255000Y-116713000D01*
X129794000Y-110617000D02*
X132461000Y-113284000D01*
X105283000Y-110617000D02*
X129794000Y-110617000D01*
X132461000Y-115316000D02*
X133858000Y-116713000D01*
X132461000Y-113284000D02*
X132461000Y-115316000D01*
X101600000Y-114300000D02*
X105283000Y-110617000D01*
X135255000Y-116713000D02*
X136525000Y-115443000D01*
X136525000Y-115443000D02*
X136525000Y-114300000D01*
X131191000Y-114046000D02*
X131191000Y-115951000D01*
X107950000Y-114300000D02*
X109982000Y-112268000D01*
X136144000Y-117729000D02*
X137795000Y-116078000D01*
X132969000Y-117729000D02*
X136144000Y-117729000D01*
X129413000Y-112268000D02*
X131191000Y-114046000D01*
X137795000Y-116078000D02*
X137795000Y-114300000D01*
X131191000Y-115951000D02*
X132969000Y-117729000D01*
X109982000Y-112268000D02*
X129413000Y-112268000D01*
X134620000Y-85090000D02*
X135255000Y-85725000D01*
X135255000Y-85725000D02*
X135255000Y-87630000D01*
X107950000Y-88900000D02*
X111760000Y-85090000D01*
X111760000Y-85090000D02*
X134620000Y-85090000D01*
X101600000Y-88900000D02*
X106680000Y-83820000D01*
X106680000Y-83820000D02*
X135890000Y-83820000D01*
X135890000Y-83820000D02*
X136525000Y-84455000D01*
X136525000Y-84455000D02*
X136525000Y-87630000D01*
X133350000Y-73660000D02*
X137795000Y-78105000D01*
X137795000Y-78105000D02*
X137795000Y-87630000D01*
X101600000Y-68580000D02*
X106680000Y-73660000D01*
X106680000Y-73660000D02*
X133350000Y-73660000D01*
X139065000Y-76835000D02*
X139065000Y-87630000D01*
X107950000Y-68580000D02*
X111760000Y-72390000D01*
X134620000Y-72390000D02*
X139065000Y-76835000D01*
X111760000Y-72390000D02*
X134620000Y-72390000D01*
X105410000Y-97790000D02*
X135890000Y-97790000D01*
X136525000Y-97155000D02*
X136525000Y-92710000D01*
X135890000Y-97790000D02*
X136525000Y-97155000D01*
X101600000Y-93980000D02*
X105410000Y-97790000D01*
X133350000Y-96520000D02*
X134620000Y-96520000D01*
X110490000Y-96520000D02*
X133350000Y-96520000D01*
X107950000Y-93980000D02*
X110490000Y-96520000D01*
X135255000Y-95885000D02*
X135255000Y-92710000D01*
X134620000Y-96520000D02*
X135255000Y-95885000D01*
D24*
X78740000Y-101600000D02*
X83820000Y-106680000D01*
X76200000Y-101600000D02*
X78740000Y-101600000D01*
X77231240Y-116601240D02*
X83820000Y-123190000D01*
X83820000Y-123190000D02*
X90170000Y-123190000D01*
X76200000Y-116601240D02*
X77231240Y-116601240D01*
X90170000Y-123190000D02*
X93980000Y-127000000D01*
X76200000Y-111599980D02*
X76200000Y-111760000D01*
X76200000Y-111760000D02*
X83820000Y-119380000D01*
X81280000Y-124460000D02*
X81280000Y-129540000D01*
X78419960Y-121599960D02*
X81280000Y-124460000D01*
X76200000Y-121599960D02*
X78419960Y-121599960D01*
X81280000Y-129540000D02*
X83820000Y-132080000D01*
X81440020Y-91600020D02*
X83820000Y-93980000D01*
X76200000Y-91600020D02*
X81440020Y-91600020D01*
X125730000Y-81280000D02*
X125730000Y-76200000D01*
X125730000Y-93980000D02*
X125730000Y-88900000D01*
X125730000Y-106680000D02*
X125730000Y-101600000D01*
X125730000Y-119380000D02*
X125730000Y-114300000D01*
X125730000Y-127000000D02*
X125730000Y-132080000D01*
X122809000Y-53213000D02*
X136197340Y-66601340D01*
X83820000Y-114300000D02*
X86360000Y-114300000D01*
X87757000Y-53213000D02*
X122809000Y-53213000D01*
X83820000Y-88900000D02*
X86360000Y-88900000D01*
X86360000Y-101600000D02*
X86360000Y-88900000D01*
X95250000Y-129540000D02*
X96520000Y-128270000D01*
X90170000Y-116840000D02*
X87630000Y-116840000D01*
X86360000Y-115570000D02*
X86360000Y-114300000D01*
X86360000Y-129540000D02*
X83820000Y-127000000D01*
X86360000Y-134620000D02*
X86360000Y-129540000D01*
X86360000Y-54610000D02*
X87757000Y-53213000D01*
X83820000Y-76200000D02*
X86360000Y-76200000D01*
X91440000Y-118110000D02*
X90170000Y-116840000D01*
X83820000Y-139700000D02*
X83820000Y-137160000D01*
X86360000Y-63500000D02*
X86360000Y-54610000D01*
X87630000Y-116840000D02*
X86360000Y-115570000D01*
X96520000Y-128270000D02*
X96520000Y-125730000D01*
X83820000Y-101600000D02*
X86360000Y-101600000D01*
X96520000Y-125730000D02*
X91440000Y-120650000D01*
X86360000Y-114300000D02*
X86360000Y-111760000D01*
X86360000Y-129540000D02*
X95250000Y-129540000D01*
X86360000Y-111760000D02*
X86360000Y-101600000D01*
X91440000Y-120650000D02*
X91440000Y-118110000D01*
X136197340Y-66601340D02*
X161719260Y-66601340D01*
X86360000Y-76200000D02*
X86360000Y-63500000D01*
X86360000Y-88900000D02*
X86360000Y-76200000D01*
X83820000Y-137160000D02*
X86360000Y-134620000D01*
X93980000Y-63500000D02*
X96520000Y-66040000D01*
X96520000Y-66040000D02*
X96520000Y-68580000D01*
X96520000Y-121920000D02*
X96520000Y-119380000D01*
X93980000Y-81280000D02*
X96520000Y-81280000D01*
X93980000Y-119380000D02*
X96520000Y-119380000D01*
X93980000Y-106680000D02*
X96520000Y-106680000D01*
X96520000Y-81280000D02*
X96520000Y-68580000D01*
X99060000Y-129540000D02*
X99060000Y-124460000D01*
X93980000Y-68580000D02*
X96520000Y-68580000D01*
X99060000Y-124460000D02*
X96520000Y-121920000D01*
X96520000Y-119380000D02*
X96520000Y-106680000D01*
X93980000Y-93980000D02*
X96520000Y-93980000D01*
X96520000Y-93980000D02*
X96520000Y-81280000D01*
X93980000Y-132080000D02*
X96520000Y-132080000D01*
X96520000Y-106680000D02*
X96520000Y-93980000D01*
X96520000Y-132080000D02*
X99060000Y-129540000D01*
X93980000Y-58420000D02*
X93980000Y-63500000D01*
X93980000Y-55880000D02*
X93980000Y-58420000D01*
D25*
G36*
X74527468Y-131108583D02*
G01*
X74463746Y-131444319D01*
X74466747Y-131786035D01*
X74536356Y-132120600D01*
X74655464Y-132408150D01*
X74914499Y-132526231D01*
X75840790Y-131599940D01*
X75826648Y-131585798D01*
X76185858Y-131226588D01*
X76200000Y-131240730D01*
X76214143Y-131226588D01*
X76573353Y-131585798D01*
X76559210Y-131599940D01*
X77485501Y-132526231D01*
X77744536Y-132408150D01*
X77872532Y-132091297D01*
X77936254Y-131755561D01*
X77933253Y-131413845D01*
X77863644Y-131079280D01*
X77804709Y-130937000D01*
X79883000Y-130937000D01*
X79883000Y-135140764D01*
X78243799Y-133501564D01*
X78215959Y-133467641D01*
X78080591Y-133356547D01*
X77926151Y-133273997D01*
X77758574Y-133223164D01*
X77627967Y-133210300D01*
X77627960Y-133210300D01*
X77584300Y-133206000D01*
X77540640Y-133210300D01*
X76849298Y-133210300D01*
X77008210Y-133144476D01*
X77126291Y-132885441D01*
X76200000Y-131959150D01*
X75273709Y-132885441D01*
X75391790Y-133144476D01*
X75554737Y-133210300D01*
X74885056Y-133210300D01*
X74848328Y-133155332D01*
X74642068Y-132949072D01*
X74399531Y-132787014D01*
X74130039Y-132675387D01*
X73843948Y-132618480D01*
X73552252Y-132618480D01*
X73266161Y-132675387D01*
X72996669Y-132787014D01*
X72754132Y-132949072D01*
X72547872Y-133155332D01*
X72385814Y-133397869D01*
X72274187Y-133667361D01*
X72217280Y-133953452D01*
X72217280Y-134245148D01*
X72274187Y-134531239D01*
X72385814Y-134800731D01*
X72547872Y-135043268D01*
X72754132Y-135249528D01*
X72996669Y-135411586D01*
X73266161Y-135523213D01*
X73552252Y-135580120D01*
X73843948Y-135580120D01*
X74130039Y-135523213D01*
X74399531Y-135411586D01*
X74642068Y-135249528D01*
X74848328Y-135043268D01*
X74885056Y-134988300D01*
X75556834Y-134988300D01*
X75391790Y-135056664D01*
X75273709Y-135315699D01*
X76200000Y-136241990D01*
X77126291Y-135315699D01*
X77008210Y-135056664D01*
X76838976Y-134988300D01*
X77216065Y-134988300D01*
X79756000Y-137528236D01*
X79756001Y-140291330D01*
X79751700Y-140335000D01*
X79768864Y-140509274D01*
X79819698Y-140676852D01*
X79883000Y-140795281D01*
X79883000Y-141341975D01*
X77214634Y-138673610D01*
X77194745Y-138649375D01*
X77098054Y-138570023D01*
X76987740Y-138511058D01*
X76868042Y-138474748D01*
X76774752Y-138465560D01*
X76774741Y-138465560D01*
X76743560Y-138462489D01*
X76712379Y-138465560D01*
X75037903Y-138465560D01*
X75010386Y-138399129D01*
X74848328Y-138156592D01*
X74642068Y-137950332D01*
X74546838Y-137886701D01*
X75273709Y-137886701D01*
X75391790Y-138145736D01*
X75708643Y-138273732D01*
X76044379Y-138337454D01*
X76386095Y-138334453D01*
X76720660Y-138264844D01*
X77008210Y-138145736D01*
X77126291Y-137886701D01*
X76200000Y-136960410D01*
X75273709Y-137886701D01*
X74546838Y-137886701D01*
X74399531Y-137788274D01*
X74130039Y-137676647D01*
X73843948Y-137619740D01*
X73552252Y-137619740D01*
X73266161Y-137676647D01*
X72996669Y-137788274D01*
X72754132Y-137950332D01*
X72547872Y-138156592D01*
X72385814Y-138399129D01*
X72274187Y-138668621D01*
X72217280Y-138954712D01*
X72217280Y-139246408D01*
X72274187Y-139532499D01*
X72385814Y-139801991D01*
X72547872Y-140044528D01*
X72754132Y-140250788D01*
X72996669Y-140412846D01*
X73266161Y-140524473D01*
X73552252Y-140581380D01*
X73843948Y-140581380D01*
X74130039Y-140524473D01*
X74399531Y-140412846D01*
X74642068Y-140250788D01*
X74848328Y-140044528D01*
X75010386Y-139801991D01*
X75037903Y-139735560D01*
X76480536Y-139735560D01*
X81443935Y-144698961D01*
X81463815Y-144723185D01*
X81488039Y-144743065D01*
X81488043Y-144743069D01*
X81560506Y-144802538D01*
X81670367Y-144861260D01*
X81670820Y-144861502D01*
X81790518Y-144897812D01*
X81883808Y-144907000D01*
X81883811Y-144907000D01*
X81915000Y-144910072D01*
X81946189Y-144907000D01*
X132197976Y-144907000D01*
X135291930Y-148000955D01*
X135311815Y-148025185D01*
X135408506Y-148104537D01*
X135518820Y-148163502D01*
X135638518Y-148199812D01*
X135731808Y-148209000D01*
X135731818Y-148209000D01*
X135762999Y-148212071D01*
X135794180Y-148209000D01*
X159099819Y-148209000D01*
X159131000Y-148212071D01*
X159162181Y-148209000D01*
X159162192Y-148209000D01*
X159255482Y-148199812D01*
X159375180Y-148163502D01*
X159485494Y-148104537D01*
X159582185Y-148025185D01*
X159602074Y-148000950D01*
X162146222Y-145456804D01*
X162170445Y-145436925D01*
X162190328Y-145412698D01*
X162249797Y-145340235D01*
X162270336Y-145301809D01*
X162308762Y-145229920D01*
X162345072Y-145110222D01*
X162354260Y-145016932D01*
X162354260Y-145016922D01*
X162357331Y-144985741D01*
X162354260Y-144954560D01*
X162354260Y-140203682D01*
X162528838Y-140087033D01*
X162705733Y-139910138D01*
X162844719Y-139702131D01*
X162940455Y-139471005D01*
X162989260Y-139225644D01*
X162989260Y-138975476D01*
X162940455Y-138730115D01*
X162844719Y-138498989D01*
X162705733Y-138290982D01*
X162651652Y-138236901D01*
X163703000Y-138238150D01*
X163703000Y-148463000D01*
X67437000Y-148463000D01*
X67437000Y-143891929D01*
X69067680Y-143891929D01*
X69067680Y-144311711D01*
X69149576Y-144723427D01*
X69310219Y-145111255D01*
X69543438Y-145460291D01*
X69840269Y-145757122D01*
X70189305Y-145990341D01*
X70577133Y-146150984D01*
X70988849Y-146232880D01*
X71408631Y-146232880D01*
X71820347Y-146150984D01*
X72208175Y-145990341D01*
X72557211Y-145757122D01*
X72854042Y-145460291D01*
X73087261Y-145111255D01*
X73247904Y-144723427D01*
X73329800Y-144311711D01*
X73329800Y-143891929D01*
X73247904Y-143480213D01*
X73087261Y-143092385D01*
X72854042Y-142743349D01*
X72557211Y-142446518D01*
X72208175Y-142213299D01*
X71820347Y-142052656D01*
X71408631Y-141970760D01*
X70988849Y-141970760D01*
X70577133Y-142052656D01*
X70189305Y-142213299D01*
X69840269Y-142446518D01*
X69543438Y-142743349D01*
X69310219Y-143092385D01*
X69149576Y-143480213D01*
X69067680Y-143891929D01*
X67437000Y-143891929D01*
X67437000Y-136445579D01*
X74463746Y-136445579D01*
X74466747Y-136787295D01*
X74536356Y-137121860D01*
X74655464Y-137409410D01*
X74914499Y-137527491D01*
X75840790Y-136601200D01*
X76559210Y-136601200D01*
X77485501Y-137527491D01*
X77744536Y-137409410D01*
X77872532Y-137092557D01*
X77936254Y-136756821D01*
X77933253Y-136415105D01*
X77863644Y-136080540D01*
X77744536Y-135792990D01*
X77485501Y-135674909D01*
X76559210Y-136601200D01*
X75840790Y-136601200D01*
X74914499Y-135674909D01*
X74655464Y-135792990D01*
X74527468Y-136109843D01*
X74463746Y-136445579D01*
X67437000Y-136445579D01*
X67437000Y-130937000D01*
X74596781Y-130937000D01*
X74527468Y-131108583D01*
G37*
X74527468Y-131108583D02*
X74463746Y-131444319D01*
X74466747Y-131786035D01*
X74536356Y-132120600D01*
X74655464Y-132408150D01*
X74914499Y-132526231D01*
X75840790Y-131599940D01*
X75826648Y-131585798D01*
X76185858Y-131226588D01*
X76200000Y-131240730D01*
X76214143Y-131226588D01*
X76573353Y-131585798D01*
X76559210Y-131599940D01*
X77485501Y-132526231D01*
X77744536Y-132408150D01*
X77872532Y-132091297D01*
X77936254Y-131755561D01*
X77933253Y-131413845D01*
X77863644Y-131079280D01*
X77804709Y-130937000D01*
X79883000Y-130937000D01*
X79883000Y-135140764D01*
X78243799Y-133501564D01*
X78215959Y-133467641D01*
X78080591Y-133356547D01*
X77926151Y-133273997D01*
X77758574Y-133223164D01*
X77627967Y-133210300D01*
X77627960Y-133210300D01*
X77584300Y-133206000D01*
X77540640Y-133210300D01*
X76849298Y-133210300D01*
X77008210Y-133144476D01*
X77126291Y-132885441D01*
X76200000Y-131959150D01*
X75273709Y-132885441D01*
X75391790Y-133144476D01*
X75554737Y-133210300D01*
X74885056Y-133210300D01*
X74848328Y-133155332D01*
X74642068Y-132949072D01*
X74399531Y-132787014D01*
X74130039Y-132675387D01*
X73843948Y-132618480D01*
X73552252Y-132618480D01*
X73266161Y-132675387D01*
X72996669Y-132787014D01*
X72754132Y-132949072D01*
X72547872Y-133155332D01*
X72385814Y-133397869D01*
X72274187Y-133667361D01*
X72217280Y-133953452D01*
X72217280Y-134245148D01*
X72274187Y-134531239D01*
X72385814Y-134800731D01*
X72547872Y-135043268D01*
X72754132Y-135249528D01*
X72996669Y-135411586D01*
X73266161Y-135523213D01*
X73552252Y-135580120D01*
X73843948Y-135580120D01*
X74130039Y-135523213D01*
X74399531Y-135411586D01*
X74642068Y-135249528D01*
X74848328Y-135043268D01*
X74885056Y-134988300D01*
X75556834Y-134988300D01*
X75391790Y-135056664D01*
X75273709Y-135315699D01*
X76200000Y-136241990D01*
X77126291Y-135315699D01*
X77008210Y-135056664D01*
X76838976Y-134988300D01*
X77216065Y-134988300D01*
X79756000Y-137528236D01*
X79756001Y-140291330D01*
X79751700Y-140335000D01*
X79768864Y-140509274D01*
X79819698Y-140676852D01*
X79883000Y-140795281D01*
X79883000Y-141341975D01*
X77214634Y-138673610D01*
X77194745Y-138649375D01*
X77098054Y-138570023D01*
X76987740Y-138511058D01*
X76868042Y-138474748D01*
X76774752Y-138465560D01*
X76774741Y-138465560D01*
X76743560Y-138462489D01*
X76712379Y-138465560D01*
X75037903Y-138465560D01*
X75010386Y-138399129D01*
X74848328Y-138156592D01*
X74642068Y-137950332D01*
X74546838Y-137886701D01*
X75273709Y-137886701D01*
X75391790Y-138145736D01*
X75708643Y-138273732D01*
X76044379Y-138337454D01*
X76386095Y-138334453D01*
X76720660Y-138264844D01*
X77008210Y-138145736D01*
X77126291Y-137886701D01*
X76200000Y-136960410D01*
X75273709Y-137886701D01*
X74546838Y-137886701D01*
X74399531Y-137788274D01*
X74130039Y-137676647D01*
X73843948Y-137619740D01*
X73552252Y-137619740D01*
X73266161Y-137676647D01*
X72996669Y-137788274D01*
X72754132Y-137950332D01*
X72547872Y-138156592D01*
X72385814Y-138399129D01*
X72274187Y-138668621D01*
X72217280Y-138954712D01*
X72217280Y-139246408D01*
X72274187Y-139532499D01*
X72385814Y-139801991D01*
X72547872Y-140044528D01*
X72754132Y-140250788D01*
X72996669Y-140412846D01*
X73266161Y-140524473D01*
X73552252Y-140581380D01*
X73843948Y-140581380D01*
X74130039Y-140524473D01*
X74399531Y-140412846D01*
X74642068Y-140250788D01*
X74848328Y-140044528D01*
X75010386Y-139801991D01*
X75037903Y-139735560D01*
X76480536Y-139735560D01*
X81443935Y-144698961D01*
X81463815Y-144723185D01*
X81488039Y-144743065D01*
X81488043Y-144743069D01*
X81560506Y-144802538D01*
X81670367Y-144861260D01*
X81670820Y-144861502D01*
X81790518Y-144897812D01*
X81883808Y-144907000D01*
X81883811Y-144907000D01*
X81915000Y-144910072D01*
X81946189Y-144907000D01*
X132197976Y-144907000D01*
X135291930Y-148000955D01*
X135311815Y-148025185D01*
X135408506Y-148104537D01*
X135518820Y-148163502D01*
X135638518Y-148199812D01*
X135731808Y-148209000D01*
X135731818Y-148209000D01*
X135762999Y-148212071D01*
X135794180Y-148209000D01*
X159099819Y-148209000D01*
X159131000Y-148212071D01*
X159162181Y-148209000D01*
X159162192Y-148209000D01*
X159255482Y-148199812D01*
X159375180Y-148163502D01*
X159485494Y-148104537D01*
X159582185Y-148025185D01*
X159602074Y-148000950D01*
X162146222Y-145456804D01*
X162170445Y-145436925D01*
X162190328Y-145412698D01*
X162249797Y-145340235D01*
X162270336Y-145301809D01*
X162308762Y-145229920D01*
X162345072Y-145110222D01*
X162354260Y-145016932D01*
X162354260Y-145016922D01*
X162357331Y-144985741D01*
X162354260Y-144954560D01*
X162354260Y-140203682D01*
X162528838Y-140087033D01*
X162705733Y-139910138D01*
X162844719Y-139702131D01*
X162940455Y-139471005D01*
X162989260Y-139225644D01*
X162989260Y-138975476D01*
X162940455Y-138730115D01*
X162844719Y-138498989D01*
X162705733Y-138290982D01*
X162651652Y-138236901D01*
X163703000Y-138238150D01*
X163703000Y-148463000D01*
X67437000Y-148463000D01*
X67437000Y-143891929D01*
X69067680Y-143891929D01*
X69067680Y-144311711D01*
X69149576Y-144723427D01*
X69310219Y-145111255D01*
X69543438Y-145460291D01*
X69840269Y-145757122D01*
X70189305Y-145990341D01*
X70577133Y-146150984D01*
X70988849Y-146232880D01*
X71408631Y-146232880D01*
X71820347Y-146150984D01*
X72208175Y-145990341D01*
X72557211Y-145757122D01*
X72854042Y-145460291D01*
X73087261Y-145111255D01*
X73247904Y-144723427D01*
X73329800Y-144311711D01*
X73329800Y-143891929D01*
X73247904Y-143480213D01*
X73087261Y-143092385D01*
X72854042Y-142743349D01*
X72557211Y-142446518D01*
X72208175Y-142213299D01*
X71820347Y-142052656D01*
X71408631Y-141970760D01*
X70988849Y-141970760D01*
X70577133Y-142052656D01*
X70189305Y-142213299D01*
X69840269Y-142446518D01*
X69543438Y-142743349D01*
X69310219Y-143092385D01*
X69149576Y-143480213D01*
X69067680Y-143891929D01*
X67437000Y-143891929D01*
X67437000Y-136445579D01*
X74463746Y-136445579D01*
X74466747Y-136787295D01*
X74536356Y-137121860D01*
X74655464Y-137409410D01*
X74914499Y-137527491D01*
X75840790Y-136601200D01*
X76559210Y-136601200D01*
X77485501Y-137527491D01*
X77744536Y-137409410D01*
X77872532Y-137092557D01*
X77936254Y-136756821D01*
X77933253Y-136415105D01*
X77863644Y-136080540D01*
X77744536Y-135792990D01*
X77485501Y-135674909D01*
X76559210Y-136601200D01*
X75840790Y-136601200D01*
X74914499Y-135674909D01*
X74655464Y-135792990D01*
X74527468Y-136109843D01*
X74463746Y-136445579D01*
X67437000Y-136445579D01*
X67437000Y-130937000D01*
X74596781Y-130937000D01*
X74527468Y-131108583D01*
G36*
X140959979Y-135031452D02*
G01*
X140824775Y-135121792D01*
X140709792Y-135236775D01*
X140619452Y-135371979D01*
X140557224Y-135522211D01*
X140525500Y-135681695D01*
X140525500Y-135844305D01*
X140557224Y-136003789D01*
X140619452Y-136154021D01*
X140709792Y-136289225D01*
X140824775Y-136404208D01*
X140959979Y-136494548D01*
X141110211Y-136556776D01*
X141269695Y-136588500D01*
X141432305Y-136588500D01*
X141591789Y-136556776D01*
X141742021Y-136494548D01*
X141877225Y-136404208D01*
X141883433Y-136398000D01*
X145278976Y-136398000D01*
X147574000Y-138693026D01*
X147574000Y-138698990D01*
X147520859Y-138734498D01*
X147370498Y-138884859D01*
X147252360Y-139061665D01*
X147170985Y-139258122D01*
X147129500Y-139466679D01*
X147129500Y-139679321D01*
X147170985Y-139887878D01*
X147252360Y-140084335D01*
X147370498Y-140261141D01*
X147520859Y-140411502D01*
X147697665Y-140529640D01*
X147894122Y-140611015D01*
X148102679Y-140652500D01*
X148315321Y-140652500D01*
X148523878Y-140611015D01*
X148720335Y-140529640D01*
X148897141Y-140411502D01*
X149047502Y-140261141D01*
X149165640Y-140084335D01*
X149247015Y-139887878D01*
X149288500Y-139679321D01*
X149288500Y-139466679D01*
X149247015Y-139258122D01*
X149165640Y-139061665D01*
X149047502Y-138884859D01*
X148897141Y-138734498D01*
X148844000Y-138698990D01*
X148844000Y-138461189D01*
X148847072Y-138430000D01*
X148844000Y-138398808D01*
X148834812Y-138305518D01*
X148798502Y-138185820D01*
X148781501Y-138154013D01*
X148739538Y-138075506D01*
X148680069Y-138003043D01*
X148680065Y-138003039D01*
X148660185Y-137978815D01*
X148635962Y-137958936D01*
X146013074Y-135336050D01*
X145993185Y-135311815D01*
X145896494Y-135232463D01*
X145786180Y-135173498D01*
X145666482Y-135137188D01*
X145573192Y-135128000D01*
X145573181Y-135128000D01*
X145542000Y-135124929D01*
X145510819Y-135128000D01*
X141883433Y-135128000D01*
X141877225Y-135121792D01*
X141742021Y-135031452D01*
X141637843Y-134988300D01*
X158053774Y-134988300D01*
X157974960Y-135012208D01*
X157864646Y-135071173D01*
X157767955Y-135150525D01*
X157688603Y-135247216D01*
X157629638Y-135357530D01*
X157593328Y-135477228D01*
X157581068Y-135601710D01*
X157584140Y-136188450D01*
X157742890Y-136347200D01*
X160964880Y-136347200D01*
X160964880Y-136327200D01*
X161472880Y-136327200D01*
X161472880Y-136347200D01*
X161492880Y-136347200D01*
X161492880Y-136855200D01*
X161472880Y-136855200D01*
X161472880Y-136875200D01*
X160964880Y-136875200D01*
X160964880Y-136855200D01*
X157742890Y-136855200D01*
X157584140Y-137013950D01*
X157581068Y-137600690D01*
X157593328Y-137725172D01*
X157629638Y-137844870D01*
X157688603Y-137955184D01*
X157767955Y-138051875D01*
X157864646Y-138131227D01*
X157974960Y-138190192D01*
X158094658Y-138226502D01*
X158219140Y-138238762D01*
X160788058Y-138235711D01*
X160732787Y-138290982D01*
X160593801Y-138498989D01*
X160498065Y-138730115D01*
X160449260Y-138975476D01*
X160449260Y-139225644D01*
X160498065Y-139471005D01*
X160593801Y-139702131D01*
X160732787Y-139910138D01*
X160909682Y-140087033D01*
X161084261Y-140203683D01*
X161084260Y-144722714D01*
X158867976Y-146939000D01*
X136026025Y-146939000D01*
X132932074Y-143845050D01*
X132912185Y-143820815D01*
X132815494Y-143741463D01*
X132705180Y-143682498D01*
X132585482Y-143646188D01*
X132492192Y-143637000D01*
X132492181Y-143637000D01*
X132461000Y-143633929D01*
X132429819Y-143637000D01*
X82178026Y-143637000D01*
X80908025Y-142367000D01*
X81419764Y-142367000D01*
X81890506Y-142837742D01*
X81918341Y-142871659D01*
X82053709Y-142982753D01*
X82208149Y-143065303D01*
X82273109Y-143085008D01*
X82375725Y-143116136D01*
X82392325Y-143117771D01*
X82506333Y-143129000D01*
X82506340Y-143129000D01*
X82550000Y-143133300D01*
X82593660Y-143129000D01*
X95206340Y-143129000D01*
X95250000Y-143133300D01*
X95293660Y-143129000D01*
X131020340Y-143129000D01*
X131064000Y-143133300D01*
X131107660Y-143129000D01*
X139052314Y-143129000D01*
X139064178Y-143151196D01*
X139111789Y-143209211D01*
X139169804Y-143256822D01*
X139235992Y-143292201D01*
X139307811Y-143313987D01*
X139382500Y-143321343D01*
X141033500Y-143321343D01*
X141108189Y-143313987D01*
X141180008Y-143292201D01*
X141246196Y-143256822D01*
X141304211Y-143209211D01*
X141351822Y-143151196D01*
X141387201Y-143085008D01*
X141408987Y-143013189D01*
X141410089Y-143002000D01*
X145056435Y-143002000D01*
X145157665Y-143069640D01*
X145354122Y-143151015D01*
X145562679Y-143192500D01*
X145775321Y-143192500D01*
X145983878Y-143151015D01*
X146180335Y-143069640D01*
X146357141Y-142951502D01*
X146497143Y-142811500D01*
X146872428Y-142811500D01*
X146884688Y-142935982D01*
X146920998Y-143055680D01*
X146979963Y-143165994D01*
X147059315Y-143262685D01*
X147156006Y-143342037D01*
X147266320Y-143401002D01*
X147386018Y-143437312D01*
X147510500Y-143449572D01*
X147796250Y-143446500D01*
X147955000Y-143287750D01*
X147955000Y-142367000D01*
X148463000Y-142367000D01*
X148463000Y-143287750D01*
X148621750Y-143446500D01*
X148907500Y-143449572D01*
X149031982Y-143437312D01*
X149151680Y-143401002D01*
X149261994Y-143342037D01*
X149358685Y-143262685D01*
X149438037Y-143165994D01*
X149497002Y-143055680D01*
X149533312Y-142935982D01*
X149545572Y-142811500D01*
X149542500Y-142525750D01*
X149383750Y-142367000D01*
X148463000Y-142367000D01*
X147955000Y-142367000D01*
X147034250Y-142367000D01*
X146875500Y-142525750D01*
X146872428Y-142811500D01*
X146497143Y-142811500D01*
X146507502Y-142801141D01*
X146625640Y-142624335D01*
X146707015Y-142427878D01*
X146748500Y-142219321D01*
X146748500Y-142006679D01*
X146707015Y-141798122D01*
X146625640Y-141601665D01*
X146507502Y-141424859D01*
X146497143Y-141414500D01*
X146872428Y-141414500D01*
X146875500Y-141700250D01*
X147034250Y-141859000D01*
X147955000Y-141859000D01*
X147955000Y-140938250D01*
X148463000Y-140938250D01*
X148463000Y-141859000D01*
X149383750Y-141859000D01*
X149542500Y-141700250D01*
X149545572Y-141414500D01*
X149533312Y-141290018D01*
X149497002Y-141170320D01*
X149438037Y-141060006D01*
X149358685Y-140963315D01*
X149261994Y-140883963D01*
X149151680Y-140824998D01*
X149031982Y-140788688D01*
X148907500Y-140776428D01*
X148621750Y-140779500D01*
X148463000Y-140938250D01*
X147955000Y-140938250D01*
X147796250Y-140779500D01*
X147510500Y-140776428D01*
X147386018Y-140788688D01*
X147266320Y-140824998D01*
X147156006Y-140883963D01*
X147059315Y-140963315D01*
X146979963Y-141060006D01*
X146920998Y-141170320D01*
X146884688Y-141290018D01*
X146872428Y-141414500D01*
X146497143Y-141414500D01*
X146357141Y-141274498D01*
X146180335Y-141156360D01*
X145983878Y-141074985D01*
X145775321Y-141033500D01*
X145562679Y-141033500D01*
X145354122Y-141074985D01*
X145157665Y-141156360D01*
X145056435Y-141224000D01*
X141410089Y-141224000D01*
X141408987Y-141212811D01*
X141387201Y-141140992D01*
X141351822Y-141074804D01*
X141304211Y-141016789D01*
X141246196Y-140969178D01*
X141180008Y-140933799D01*
X141108189Y-140912013D01*
X141033500Y-140904657D01*
X140820743Y-140904657D01*
X140852106Y-140891666D01*
X140936273Y-140660484D01*
X140208000Y-139932210D01*
X139479727Y-140660484D01*
X139563894Y-140891666D01*
X139598810Y-140904657D01*
X139382500Y-140904657D01*
X139307811Y-140912013D01*
X139235992Y-140933799D01*
X139169804Y-140969178D01*
X139111789Y-141016789D01*
X139064178Y-141074804D01*
X139028799Y-141140992D01*
X139007013Y-141212811D01*
X138999657Y-141287500D01*
X138999657Y-141351000D01*
X133210235Y-141351000D01*
X135078680Y-139482555D01*
X138743223Y-139482555D01*
X138753722Y-139770057D01*
X138820110Y-140049987D01*
X138889334Y-140217106D01*
X139120516Y-140301273D01*
X139848790Y-139573000D01*
X140567210Y-139573000D01*
X141295484Y-140301273D01*
X141526666Y-140217106D01*
X141626987Y-139947470D01*
X141672777Y-139663445D01*
X141662278Y-139375943D01*
X141595890Y-139096013D01*
X141526666Y-138928894D01*
X141295484Y-138844727D01*
X140567210Y-139573000D01*
X139848790Y-139573000D01*
X139120516Y-138844727D01*
X138889334Y-138928894D01*
X138789013Y-139198530D01*
X138743223Y-139482555D01*
X135078680Y-139482555D01*
X136075719Y-138485516D01*
X139479727Y-138485516D01*
X140208000Y-139213790D01*
X140936273Y-138485516D01*
X140852106Y-138254334D01*
X140582470Y-138154013D01*
X140298445Y-138108223D01*
X140010943Y-138118722D01*
X139731013Y-138185110D01*
X139563894Y-138254334D01*
X139479727Y-138485516D01*
X136075719Y-138485516D01*
X139572935Y-134988300D01*
X141064157Y-134988300D01*
X140959979Y-135031452D01*
G37*
X140959979Y-135031452D02*
X140824775Y-135121792D01*
X140709792Y-135236775D01*
X140619452Y-135371979D01*
X140557224Y-135522211D01*
X140525500Y-135681695D01*
X140525500Y-135844305D01*
X140557224Y-136003789D01*
X140619452Y-136154021D01*
X140709792Y-136289225D01*
X140824775Y-136404208D01*
X140959979Y-136494548D01*
X141110211Y-136556776D01*
X141269695Y-136588500D01*
X141432305Y-136588500D01*
X141591789Y-136556776D01*
X141742021Y-136494548D01*
X141877225Y-136404208D01*
X141883433Y-136398000D01*
X145278976Y-136398000D01*
X147574000Y-138693026D01*
X147574000Y-138698990D01*
X147520859Y-138734498D01*
X147370498Y-138884859D01*
X147252360Y-139061665D01*
X147170985Y-139258122D01*
X147129500Y-139466679D01*
X147129500Y-139679321D01*
X147170985Y-139887878D01*
X147252360Y-140084335D01*
X147370498Y-140261141D01*
X147520859Y-140411502D01*
X147697665Y-140529640D01*
X147894122Y-140611015D01*
X148102679Y-140652500D01*
X148315321Y-140652500D01*
X148523878Y-140611015D01*
X148720335Y-140529640D01*
X148897141Y-140411502D01*
X149047502Y-140261141D01*
X149165640Y-140084335D01*
X149247015Y-139887878D01*
X149288500Y-139679321D01*
X149288500Y-139466679D01*
X149247015Y-139258122D01*
X149165640Y-139061665D01*
X149047502Y-138884859D01*
X148897141Y-138734498D01*
X148844000Y-138698990D01*
X148844000Y-138461189D01*
X148847072Y-138430000D01*
X148844000Y-138398808D01*
X148834812Y-138305518D01*
X148798502Y-138185820D01*
X148781501Y-138154013D01*
X148739538Y-138075506D01*
X148680069Y-138003043D01*
X148680065Y-138003039D01*
X148660185Y-137978815D01*
X148635962Y-137958936D01*
X146013074Y-135336050D01*
X145993185Y-135311815D01*
X145896494Y-135232463D01*
X145786180Y-135173498D01*
X145666482Y-135137188D01*
X145573192Y-135128000D01*
X145573181Y-135128000D01*
X145542000Y-135124929D01*
X145510819Y-135128000D01*
X141883433Y-135128000D01*
X141877225Y-135121792D01*
X141742021Y-135031452D01*
X141637843Y-134988300D01*
X158053774Y-134988300D01*
X157974960Y-135012208D01*
X157864646Y-135071173D01*
X157767955Y-135150525D01*
X157688603Y-135247216D01*
X157629638Y-135357530D01*
X157593328Y-135477228D01*
X157581068Y-135601710D01*
X157584140Y-136188450D01*
X157742890Y-136347200D01*
X160964880Y-136347200D01*
X160964880Y-136327200D01*
X161472880Y-136327200D01*
X161472880Y-136347200D01*
X161492880Y-136347200D01*
X161492880Y-136855200D01*
X161472880Y-136855200D01*
X161472880Y-136875200D01*
X160964880Y-136875200D01*
X160964880Y-136855200D01*
X157742890Y-136855200D01*
X157584140Y-137013950D01*
X157581068Y-137600690D01*
X157593328Y-137725172D01*
X157629638Y-137844870D01*
X157688603Y-137955184D01*
X157767955Y-138051875D01*
X157864646Y-138131227D01*
X157974960Y-138190192D01*
X158094658Y-138226502D01*
X158219140Y-138238762D01*
X160788058Y-138235711D01*
X160732787Y-138290982D01*
X160593801Y-138498989D01*
X160498065Y-138730115D01*
X160449260Y-138975476D01*
X160449260Y-139225644D01*
X160498065Y-139471005D01*
X160593801Y-139702131D01*
X160732787Y-139910138D01*
X160909682Y-140087033D01*
X161084261Y-140203683D01*
X161084260Y-144722714D01*
X158867976Y-146939000D01*
X136026025Y-146939000D01*
X132932074Y-143845050D01*
X132912185Y-143820815D01*
X132815494Y-143741463D01*
X132705180Y-143682498D01*
X132585482Y-143646188D01*
X132492192Y-143637000D01*
X132492181Y-143637000D01*
X132461000Y-143633929D01*
X132429819Y-143637000D01*
X82178026Y-143637000D01*
X80908025Y-142367000D01*
X81419764Y-142367000D01*
X81890506Y-142837742D01*
X81918341Y-142871659D01*
X82053709Y-142982753D01*
X82208149Y-143065303D01*
X82273109Y-143085008D01*
X82375725Y-143116136D01*
X82392325Y-143117771D01*
X82506333Y-143129000D01*
X82506340Y-143129000D01*
X82550000Y-143133300D01*
X82593660Y-143129000D01*
X95206340Y-143129000D01*
X95250000Y-143133300D01*
X95293660Y-143129000D01*
X131020340Y-143129000D01*
X131064000Y-143133300D01*
X131107660Y-143129000D01*
X139052314Y-143129000D01*
X139064178Y-143151196D01*
X139111789Y-143209211D01*
X139169804Y-143256822D01*
X139235992Y-143292201D01*
X139307811Y-143313987D01*
X139382500Y-143321343D01*
X141033500Y-143321343D01*
X141108189Y-143313987D01*
X141180008Y-143292201D01*
X141246196Y-143256822D01*
X141304211Y-143209211D01*
X141351822Y-143151196D01*
X141387201Y-143085008D01*
X141408987Y-143013189D01*
X141410089Y-143002000D01*
X145056435Y-143002000D01*
X145157665Y-143069640D01*
X145354122Y-143151015D01*
X145562679Y-143192500D01*
X145775321Y-143192500D01*
X145983878Y-143151015D01*
X146180335Y-143069640D01*
X146357141Y-142951502D01*
X146497143Y-142811500D01*
X146872428Y-142811500D01*
X146884688Y-142935982D01*
X146920998Y-143055680D01*
X146979963Y-143165994D01*
X147059315Y-143262685D01*
X147156006Y-143342037D01*
X147266320Y-143401002D01*
X147386018Y-143437312D01*
X147510500Y-143449572D01*
X147796250Y-143446500D01*
X147955000Y-143287750D01*
X147955000Y-142367000D01*
X148463000Y-142367000D01*
X148463000Y-143287750D01*
X148621750Y-143446500D01*
X148907500Y-143449572D01*
X149031982Y-143437312D01*
X149151680Y-143401002D01*
X149261994Y-143342037D01*
X149358685Y-143262685D01*
X149438037Y-143165994D01*
X149497002Y-143055680D01*
X149533312Y-142935982D01*
X149545572Y-142811500D01*
X149542500Y-142525750D01*
X149383750Y-142367000D01*
X148463000Y-142367000D01*
X147955000Y-142367000D01*
X147034250Y-142367000D01*
X146875500Y-142525750D01*
X146872428Y-142811500D01*
X146497143Y-142811500D01*
X146507502Y-142801141D01*
X146625640Y-142624335D01*
X146707015Y-142427878D01*
X146748500Y-142219321D01*
X146748500Y-142006679D01*
X146707015Y-141798122D01*
X146625640Y-141601665D01*
X146507502Y-141424859D01*
X146497143Y-141414500D01*
X146872428Y-141414500D01*
X146875500Y-141700250D01*
X147034250Y-141859000D01*
X147955000Y-141859000D01*
X147955000Y-140938250D01*
X148463000Y-140938250D01*
X148463000Y-141859000D01*
X149383750Y-141859000D01*
X149542500Y-141700250D01*
X149545572Y-141414500D01*
X149533312Y-141290018D01*
X149497002Y-141170320D01*
X149438037Y-141060006D01*
X149358685Y-140963315D01*
X149261994Y-140883963D01*
X149151680Y-140824998D01*
X149031982Y-140788688D01*
X148907500Y-140776428D01*
X148621750Y-140779500D01*
X148463000Y-140938250D01*
X147955000Y-140938250D01*
X147796250Y-140779500D01*
X147510500Y-140776428D01*
X147386018Y-140788688D01*
X147266320Y-140824998D01*
X147156006Y-140883963D01*
X147059315Y-140963315D01*
X146979963Y-141060006D01*
X146920998Y-141170320D01*
X146884688Y-141290018D01*
X146872428Y-141414500D01*
X146497143Y-141414500D01*
X146357141Y-141274498D01*
X146180335Y-141156360D01*
X145983878Y-141074985D01*
X145775321Y-141033500D01*
X145562679Y-141033500D01*
X145354122Y-141074985D01*
X145157665Y-141156360D01*
X145056435Y-141224000D01*
X141410089Y-141224000D01*
X141408987Y-141212811D01*
X141387201Y-141140992D01*
X141351822Y-141074804D01*
X141304211Y-141016789D01*
X141246196Y-140969178D01*
X141180008Y-140933799D01*
X141108189Y-140912013D01*
X141033500Y-140904657D01*
X140820743Y-140904657D01*
X140852106Y-140891666D01*
X140936273Y-140660484D01*
X140208000Y-139932210D01*
X139479727Y-140660484D01*
X139563894Y-140891666D01*
X139598810Y-140904657D01*
X139382500Y-140904657D01*
X139307811Y-140912013D01*
X139235992Y-140933799D01*
X139169804Y-140969178D01*
X139111789Y-141016789D01*
X139064178Y-141074804D01*
X139028799Y-141140992D01*
X139007013Y-141212811D01*
X138999657Y-141287500D01*
X138999657Y-141351000D01*
X133210235Y-141351000D01*
X135078680Y-139482555D01*
X138743223Y-139482555D01*
X138753722Y-139770057D01*
X138820110Y-140049987D01*
X138889334Y-140217106D01*
X139120516Y-140301273D01*
X139848790Y-139573000D01*
X140567210Y-139573000D01*
X141295484Y-140301273D01*
X141526666Y-140217106D01*
X141626987Y-139947470D01*
X141672777Y-139663445D01*
X141662278Y-139375943D01*
X141595890Y-139096013D01*
X141526666Y-138928894D01*
X141295484Y-138844727D01*
X140567210Y-139573000D01*
X139848790Y-139573000D01*
X139120516Y-138844727D01*
X138889334Y-138928894D01*
X138789013Y-139198530D01*
X138743223Y-139482555D01*
X135078680Y-139482555D01*
X136075719Y-138485516D01*
X139479727Y-138485516D01*
X140208000Y-139213790D01*
X140936273Y-138485516D01*
X140852106Y-138254334D01*
X140582470Y-138154013D01*
X140298445Y-138108223D01*
X140010943Y-138118722D01*
X139731013Y-138185110D01*
X139563894Y-138254334D01*
X139479727Y-138485516D01*
X136075719Y-138485516D01*
X139572935Y-134988300D01*
X141064157Y-134988300D01*
X140959979Y-135031452D01*
G36*
X150098761Y-97529786D02*
G01*
X150098760Y-116073292D01*
X150017452Y-116194979D01*
X149955224Y-116345211D01*
X149923500Y-116504695D01*
X149923500Y-116667305D01*
X149955224Y-116826789D01*
X150017452Y-116977021D01*
X150107792Y-117112225D01*
X150222775Y-117227208D01*
X150357979Y-117317548D01*
X150508211Y-117379776D01*
X150667695Y-117411500D01*
X150830305Y-117411500D01*
X150989789Y-117379776D01*
X151140021Y-117317548D01*
X151261708Y-117236240D01*
X157836297Y-117236240D01*
X157836297Y-117600730D01*
X157843653Y-117675419D01*
X157865439Y-117747238D01*
X157900818Y-117813426D01*
X157948429Y-117871441D01*
X158006444Y-117919052D01*
X158072632Y-117954431D01*
X158144451Y-117976217D01*
X158219140Y-117983573D01*
X161105070Y-117983573D01*
X160909682Y-118114127D01*
X160732787Y-118291022D01*
X160593801Y-118499029D01*
X160498065Y-118730155D01*
X160449260Y-118975516D01*
X160449260Y-119225684D01*
X160498065Y-119471045D01*
X160593801Y-119702171D01*
X160732787Y-119910178D01*
X160909682Y-120087073D01*
X161105070Y-120217627D01*
X158219140Y-120217627D01*
X158144451Y-120224983D01*
X158072632Y-120246769D01*
X158006444Y-120282148D01*
X157948429Y-120329759D01*
X157900818Y-120387774D01*
X157865439Y-120453962D01*
X157843653Y-120525781D01*
X157836297Y-120600470D01*
X157836297Y-120964960D01*
X146246985Y-120964960D01*
X145224500Y-119942476D01*
X145224500Y-119933695D01*
X145192776Y-119774211D01*
X145130548Y-119623979D01*
X145040208Y-119488775D01*
X144925225Y-119373792D01*
X144790021Y-119283452D01*
X144639789Y-119221224D01*
X144480305Y-119189500D01*
X144317695Y-119189500D01*
X144158211Y-119221224D01*
X144007979Y-119283452D01*
X143872775Y-119373792D01*
X143757792Y-119488775D01*
X143667452Y-119623979D01*
X143646298Y-119675048D01*
X143605250Y-119634000D01*
X143002000Y-119634000D01*
X143002000Y-120427750D01*
X143160750Y-120586500D01*
X143264635Y-120574989D01*
X143383666Y-120536548D01*
X143492910Y-120475624D01*
X143588169Y-120394558D01*
X143637092Y-120332725D01*
X143667452Y-120406021D01*
X143757792Y-120541225D01*
X143872775Y-120656208D01*
X144007979Y-120746548D01*
X144158211Y-120808776D01*
X144317695Y-120840500D01*
X144326476Y-120840500D01*
X145512890Y-122026915D01*
X145532775Y-122051145D01*
X145575484Y-122086195D01*
X145629466Y-122130498D01*
X145732437Y-122185537D01*
X145739780Y-122189462D01*
X145859478Y-122225772D01*
X145952768Y-122234960D01*
X145952779Y-122234960D01*
X145983960Y-122238031D01*
X146015141Y-122234960D01*
X157836297Y-122234960D01*
X157836297Y-122599450D01*
X157843653Y-122674139D01*
X157865439Y-122745958D01*
X157900818Y-122812146D01*
X157948429Y-122870161D01*
X158006444Y-122917772D01*
X158072632Y-122953151D01*
X158144451Y-122974937D01*
X158219140Y-122982293D01*
X161105070Y-122982293D01*
X160909682Y-123112847D01*
X160732787Y-123289742D01*
X160593801Y-123497749D01*
X160498065Y-123728875D01*
X160449260Y-123974236D01*
X160449260Y-124224404D01*
X160498065Y-124469765D01*
X160593801Y-124700891D01*
X160732787Y-124908898D01*
X160909682Y-125085793D01*
X161108871Y-125218887D01*
X158219140Y-125218887D01*
X158144451Y-125226243D01*
X158072632Y-125248029D01*
X158006444Y-125283408D01*
X157948429Y-125331019D01*
X157900818Y-125389034D01*
X157865439Y-125455222D01*
X157843653Y-125527041D01*
X157836297Y-125601730D01*
X157836297Y-125966220D01*
X143374246Y-125966220D01*
X142240000Y-124831976D01*
X142240000Y-120461080D01*
X142257090Y-120475624D01*
X142366334Y-120536548D01*
X142485365Y-120574989D01*
X142589250Y-120586500D01*
X142748000Y-120427750D01*
X142748000Y-119634000D01*
X142621000Y-119634000D01*
X142621000Y-119126000D01*
X142748000Y-119126000D01*
X142748000Y-119106000D01*
X143002000Y-119106000D01*
X143002000Y-119126000D01*
X143605250Y-119126000D01*
X143764000Y-118967250D01*
X143766970Y-118819892D01*
X143756934Y-118695212D01*
X143722767Y-118574884D01*
X143679838Y-118491000D01*
X145510819Y-118491000D01*
X145542000Y-118494071D01*
X145573181Y-118491000D01*
X145573192Y-118491000D01*
X145666482Y-118481812D01*
X145786180Y-118445502D01*
X145896494Y-118386537D01*
X145993185Y-118307185D01*
X146013074Y-118282950D01*
X146267329Y-118028695D01*
X146621500Y-118028695D01*
X146621500Y-118191305D01*
X146653224Y-118350789D01*
X146715452Y-118501021D01*
X146805792Y-118636225D01*
X146920775Y-118751208D01*
X147055979Y-118841548D01*
X147206211Y-118903776D01*
X147365695Y-118935500D01*
X147374476Y-118935500D01*
X148245930Y-119806955D01*
X148265815Y-119831185D01*
X148290043Y-119851068D01*
X148362505Y-119910537D01*
X148439141Y-119951500D01*
X148472820Y-119969502D01*
X148592518Y-120005812D01*
X148685808Y-120015000D01*
X148685818Y-120015000D01*
X148716999Y-120018071D01*
X148748180Y-120015000D01*
X156185567Y-120015000D01*
X156191775Y-120021208D01*
X156326979Y-120111548D01*
X156477211Y-120173776D01*
X156636695Y-120205500D01*
X156799305Y-120205500D01*
X156958789Y-120173776D01*
X157109021Y-120111548D01*
X157244225Y-120021208D01*
X157359208Y-119906225D01*
X157449548Y-119771021D01*
X157511776Y-119620789D01*
X157543500Y-119461305D01*
X157543500Y-119298695D01*
X157511776Y-119139211D01*
X157449548Y-118988979D01*
X157359208Y-118853775D01*
X157244225Y-118738792D01*
X157109021Y-118648452D01*
X156958789Y-118586224D01*
X156799305Y-118554500D01*
X156636695Y-118554500D01*
X156477211Y-118586224D01*
X156326979Y-118648452D01*
X156191775Y-118738792D01*
X156185567Y-118745000D01*
X148980025Y-118745000D01*
X148272500Y-118037476D01*
X148272500Y-118028695D01*
X148240776Y-117869211D01*
X148178548Y-117718979D01*
X148088208Y-117583775D01*
X147973225Y-117468792D01*
X147838021Y-117378452D01*
X147687789Y-117316224D01*
X147528305Y-117284500D01*
X147365695Y-117284500D01*
X147206211Y-117316224D01*
X147055979Y-117378452D01*
X146920775Y-117468792D01*
X146805792Y-117583775D01*
X146715452Y-117718979D01*
X146653224Y-117869211D01*
X146621500Y-118028695D01*
X146267329Y-118028695D01*
X148381955Y-115914070D01*
X148406185Y-115894185D01*
X148445289Y-115846537D01*
X148485537Y-115797495D01*
X148506743Y-115757821D01*
X148544502Y-115687180D01*
X148580812Y-115567482D01*
X148590000Y-115474192D01*
X148590000Y-115474182D01*
X148593071Y-115443001D01*
X148590000Y-115411820D01*
X148590000Y-96424180D01*
X148593071Y-96392999D01*
X148590000Y-96361818D01*
X148590000Y-96361808D01*
X148580812Y-96268518D01*
X148544502Y-96148820D01*
X148534004Y-96129180D01*
X148485537Y-96038505D01*
X148426068Y-95966043D01*
X148406185Y-95941815D01*
X148381956Y-95921931D01*
X142122024Y-89662000D01*
X142230976Y-89662000D01*
X150098761Y-97529786D01*
G37*
X150098761Y-97529786D02*
X150098760Y-116073292D01*
X150017452Y-116194979D01*
X149955224Y-116345211D01*
X149923500Y-116504695D01*
X149923500Y-116667305D01*
X149955224Y-116826789D01*
X150017452Y-116977021D01*
X150107792Y-117112225D01*
X150222775Y-117227208D01*
X150357979Y-117317548D01*
X150508211Y-117379776D01*
X150667695Y-117411500D01*
X150830305Y-117411500D01*
X150989789Y-117379776D01*
X151140021Y-117317548D01*
X151261708Y-117236240D01*
X157836297Y-117236240D01*
X157836297Y-117600730D01*
X157843653Y-117675419D01*
X157865439Y-117747238D01*
X157900818Y-117813426D01*
X157948429Y-117871441D01*
X158006444Y-117919052D01*
X158072632Y-117954431D01*
X158144451Y-117976217D01*
X158219140Y-117983573D01*
X161105070Y-117983573D01*
X160909682Y-118114127D01*
X160732787Y-118291022D01*
X160593801Y-118499029D01*
X160498065Y-118730155D01*
X160449260Y-118975516D01*
X160449260Y-119225684D01*
X160498065Y-119471045D01*
X160593801Y-119702171D01*
X160732787Y-119910178D01*
X160909682Y-120087073D01*
X161105070Y-120217627D01*
X158219140Y-120217627D01*
X158144451Y-120224983D01*
X158072632Y-120246769D01*
X158006444Y-120282148D01*
X157948429Y-120329759D01*
X157900818Y-120387774D01*
X157865439Y-120453962D01*
X157843653Y-120525781D01*
X157836297Y-120600470D01*
X157836297Y-120964960D01*
X146246985Y-120964960D01*
X145224500Y-119942476D01*
X145224500Y-119933695D01*
X145192776Y-119774211D01*
X145130548Y-119623979D01*
X145040208Y-119488775D01*
X144925225Y-119373792D01*
X144790021Y-119283452D01*
X144639789Y-119221224D01*
X144480305Y-119189500D01*
X144317695Y-119189500D01*
X144158211Y-119221224D01*
X144007979Y-119283452D01*
X143872775Y-119373792D01*
X143757792Y-119488775D01*
X143667452Y-119623979D01*
X143646298Y-119675048D01*
X143605250Y-119634000D01*
X143002000Y-119634000D01*
X143002000Y-120427750D01*
X143160750Y-120586500D01*
X143264635Y-120574989D01*
X143383666Y-120536548D01*
X143492910Y-120475624D01*
X143588169Y-120394558D01*
X143637092Y-120332725D01*
X143667452Y-120406021D01*
X143757792Y-120541225D01*
X143872775Y-120656208D01*
X144007979Y-120746548D01*
X144158211Y-120808776D01*
X144317695Y-120840500D01*
X144326476Y-120840500D01*
X145512890Y-122026915D01*
X145532775Y-122051145D01*
X145575484Y-122086195D01*
X145629466Y-122130498D01*
X145732437Y-122185537D01*
X145739780Y-122189462D01*
X145859478Y-122225772D01*
X145952768Y-122234960D01*
X145952779Y-122234960D01*
X145983960Y-122238031D01*
X146015141Y-122234960D01*
X157836297Y-122234960D01*
X157836297Y-122599450D01*
X157843653Y-122674139D01*
X157865439Y-122745958D01*
X157900818Y-122812146D01*
X157948429Y-122870161D01*
X158006444Y-122917772D01*
X158072632Y-122953151D01*
X158144451Y-122974937D01*
X158219140Y-122982293D01*
X161105070Y-122982293D01*
X160909682Y-123112847D01*
X160732787Y-123289742D01*
X160593801Y-123497749D01*
X160498065Y-123728875D01*
X160449260Y-123974236D01*
X160449260Y-124224404D01*
X160498065Y-124469765D01*
X160593801Y-124700891D01*
X160732787Y-124908898D01*
X160909682Y-125085793D01*
X161108871Y-125218887D01*
X158219140Y-125218887D01*
X158144451Y-125226243D01*
X158072632Y-125248029D01*
X158006444Y-125283408D01*
X157948429Y-125331019D01*
X157900818Y-125389034D01*
X157865439Y-125455222D01*
X157843653Y-125527041D01*
X157836297Y-125601730D01*
X157836297Y-125966220D01*
X143374246Y-125966220D01*
X142240000Y-124831976D01*
X142240000Y-120461080D01*
X142257090Y-120475624D01*
X142366334Y-120536548D01*
X142485365Y-120574989D01*
X142589250Y-120586500D01*
X142748000Y-120427750D01*
X142748000Y-119634000D01*
X142621000Y-119634000D01*
X142621000Y-119126000D01*
X142748000Y-119126000D01*
X142748000Y-119106000D01*
X143002000Y-119106000D01*
X143002000Y-119126000D01*
X143605250Y-119126000D01*
X143764000Y-118967250D01*
X143766970Y-118819892D01*
X143756934Y-118695212D01*
X143722767Y-118574884D01*
X143679838Y-118491000D01*
X145510819Y-118491000D01*
X145542000Y-118494071D01*
X145573181Y-118491000D01*
X145573192Y-118491000D01*
X145666482Y-118481812D01*
X145786180Y-118445502D01*
X145896494Y-118386537D01*
X145993185Y-118307185D01*
X146013074Y-118282950D01*
X146267329Y-118028695D01*
X146621500Y-118028695D01*
X146621500Y-118191305D01*
X146653224Y-118350789D01*
X146715452Y-118501021D01*
X146805792Y-118636225D01*
X146920775Y-118751208D01*
X147055979Y-118841548D01*
X147206211Y-118903776D01*
X147365695Y-118935500D01*
X147374476Y-118935500D01*
X148245930Y-119806955D01*
X148265815Y-119831185D01*
X148290043Y-119851068D01*
X148362505Y-119910537D01*
X148439141Y-119951500D01*
X148472820Y-119969502D01*
X148592518Y-120005812D01*
X148685808Y-120015000D01*
X148685818Y-120015000D01*
X148716999Y-120018071D01*
X148748180Y-120015000D01*
X156185567Y-120015000D01*
X156191775Y-120021208D01*
X156326979Y-120111548D01*
X156477211Y-120173776D01*
X156636695Y-120205500D01*
X156799305Y-120205500D01*
X156958789Y-120173776D01*
X157109021Y-120111548D01*
X157244225Y-120021208D01*
X157359208Y-119906225D01*
X157449548Y-119771021D01*
X157511776Y-119620789D01*
X157543500Y-119461305D01*
X157543500Y-119298695D01*
X157511776Y-119139211D01*
X157449548Y-118988979D01*
X157359208Y-118853775D01*
X157244225Y-118738792D01*
X157109021Y-118648452D01*
X156958789Y-118586224D01*
X156799305Y-118554500D01*
X156636695Y-118554500D01*
X156477211Y-118586224D01*
X156326979Y-118648452D01*
X156191775Y-118738792D01*
X156185567Y-118745000D01*
X148980025Y-118745000D01*
X148272500Y-118037476D01*
X148272500Y-118028695D01*
X148240776Y-117869211D01*
X148178548Y-117718979D01*
X148088208Y-117583775D01*
X147973225Y-117468792D01*
X147838021Y-117378452D01*
X147687789Y-117316224D01*
X147528305Y-117284500D01*
X147365695Y-117284500D01*
X147206211Y-117316224D01*
X147055979Y-117378452D01*
X146920775Y-117468792D01*
X146805792Y-117583775D01*
X146715452Y-117718979D01*
X146653224Y-117869211D01*
X146621500Y-118028695D01*
X146267329Y-118028695D01*
X148381955Y-115914070D01*
X148406185Y-115894185D01*
X148445289Y-115846537D01*
X148485537Y-115797495D01*
X148506743Y-115757821D01*
X148544502Y-115687180D01*
X148580812Y-115567482D01*
X148590000Y-115474192D01*
X148590000Y-115474182D01*
X148593071Y-115443001D01*
X148590000Y-115411820D01*
X148590000Y-96424180D01*
X148593071Y-96392999D01*
X148590000Y-96361818D01*
X148590000Y-96361808D01*
X148580812Y-96268518D01*
X148544502Y-96148820D01*
X148534004Y-96129180D01*
X148485537Y-96038505D01*
X148426068Y-95966043D01*
X148406185Y-95941815D01*
X148381956Y-95921931D01*
X142122024Y-89662000D01*
X142230976Y-89662000D01*
X150098761Y-97529786D01*
G36*
X147320000Y-96656025D02*
G01*
X147320001Y-114903799D01*
X147320000Y-114903809D01*
X147320000Y-115179975D01*
X145278976Y-117221000D01*
X141890180Y-117221000D01*
X141858999Y-117217929D01*
X141827818Y-117221000D01*
X141827808Y-117221000D01*
X141734518Y-117230188D01*
X141614820Y-117266498D01*
X141504506Y-117325463D01*
X141407815Y-117404815D01*
X141387926Y-117429050D01*
X141178050Y-117638926D01*
X141153815Y-117658815D01*
X141074463Y-117755507D01*
X141015498Y-117865821D01*
X140979188Y-117985519D01*
X140970000Y-118078809D01*
X140970000Y-118078819D01*
X140966929Y-118110000D01*
X140970000Y-118141182D01*
X140970001Y-118789782D01*
X140970000Y-118789787D01*
X140964487Y-118733811D01*
X140942701Y-118661992D01*
X140907322Y-118595804D01*
X140859711Y-118537789D01*
X140801696Y-118490178D01*
X140735508Y-118454799D01*
X140663689Y-118433013D01*
X140589000Y-118425657D01*
X140081000Y-118425657D01*
X140006311Y-118433013D01*
X139934492Y-118454799D01*
X139868304Y-118490178D01*
X139810289Y-118537789D01*
X139762678Y-118595804D01*
X139727299Y-118661992D01*
X139705513Y-118733811D01*
X139700000Y-118789782D01*
X139694487Y-118733811D01*
X139672701Y-118661992D01*
X139637322Y-118595804D01*
X139589711Y-118537789D01*
X139531696Y-118490178D01*
X139465508Y-118454799D01*
X139393689Y-118433013D01*
X139319000Y-118425657D01*
X138811000Y-118425657D01*
X138736311Y-118433013D01*
X138664492Y-118454799D01*
X138598304Y-118490178D01*
X138540289Y-118537789D01*
X138492678Y-118595804D01*
X138457299Y-118661992D01*
X138435513Y-118733811D01*
X138430000Y-118789782D01*
X138424487Y-118733811D01*
X138402701Y-118661992D01*
X138367322Y-118595804D01*
X138319711Y-118537789D01*
X138261696Y-118490178D01*
X138195508Y-118454799D01*
X138123689Y-118433013D01*
X138049000Y-118425657D01*
X137541000Y-118425657D01*
X137466311Y-118433013D01*
X137394492Y-118454799D01*
X137328304Y-118490178D01*
X137270289Y-118537789D01*
X137222678Y-118595804D01*
X137187299Y-118661992D01*
X137165513Y-118733811D01*
X137160000Y-118789782D01*
X137154487Y-118733811D01*
X137132701Y-118661992D01*
X137097322Y-118595804D01*
X137049711Y-118537789D01*
X136991696Y-118490178D01*
X136925508Y-118454799D01*
X136853689Y-118433013D01*
X136779000Y-118425657D01*
X136271000Y-118425657D01*
X136196311Y-118433013D01*
X136124492Y-118454799D01*
X136058304Y-118490178D01*
X136000289Y-118537789D01*
X135952678Y-118595804D01*
X135917299Y-118661992D01*
X135895513Y-118733811D01*
X135890000Y-118789782D01*
X135884487Y-118733811D01*
X135862701Y-118661992D01*
X135827322Y-118595804D01*
X135779711Y-118537789D01*
X135721696Y-118490178D01*
X135655508Y-118454799D01*
X135583689Y-118433013D01*
X135509000Y-118425657D01*
X135001000Y-118425657D01*
X134926311Y-118433013D01*
X134854492Y-118454799D01*
X134788304Y-118490178D01*
X134730289Y-118537789D01*
X134682678Y-118595804D01*
X134647299Y-118661992D01*
X134625513Y-118733811D01*
X134620000Y-118789782D01*
X134614487Y-118733811D01*
X134592701Y-118661992D01*
X134557322Y-118595804D01*
X134509711Y-118537789D01*
X134451696Y-118490178D01*
X134385508Y-118454799D01*
X134313689Y-118433013D01*
X134239000Y-118425657D01*
X133731000Y-118425657D01*
X133656311Y-118433013D01*
X133584492Y-118454799D01*
X133518304Y-118490178D01*
X133460289Y-118537789D01*
X133412678Y-118595804D01*
X133377299Y-118661992D01*
X133355513Y-118733811D01*
X133354411Y-118745000D01*
X132800026Y-118745000D01*
X129794000Y-115738976D01*
X129794000Y-114578433D01*
X129800208Y-114572225D01*
X129890548Y-114437021D01*
X129952776Y-114286789D01*
X129984500Y-114127305D01*
X129984500Y-113964695D01*
X129952776Y-113805211D01*
X129890548Y-113654979D01*
X129867580Y-113620605D01*
X130556000Y-114309026D01*
X130556001Y-115919809D01*
X130552929Y-115951000D01*
X130556001Y-115982191D01*
X130556001Y-115982192D01*
X130565189Y-116075482D01*
X130575415Y-116109191D01*
X130601498Y-116195179D01*
X130660463Y-116305493D01*
X130660464Y-116305494D01*
X130739816Y-116402185D01*
X130764046Y-116422070D01*
X132497934Y-118155960D01*
X132517815Y-118180185D01*
X132542039Y-118200065D01*
X132542043Y-118200069D01*
X132614506Y-118259538D01*
X132724820Y-118318502D01*
X132844518Y-118354812D01*
X132937808Y-118364000D01*
X132937811Y-118364000D01*
X132969000Y-118367072D01*
X133000189Y-118364000D01*
X136112819Y-118364000D01*
X136144000Y-118367071D01*
X136175181Y-118364000D01*
X136175192Y-118364000D01*
X136268482Y-118354812D01*
X136388180Y-118318502D01*
X136498494Y-118259537D01*
X136595185Y-118180185D01*
X136615074Y-118155950D01*
X138221962Y-116549064D01*
X138246185Y-116529185D01*
X138266065Y-116504961D01*
X138266069Y-116504957D01*
X138325538Y-116432494D01*
X138384502Y-116322180D01*
X138384502Y-116322179D01*
X138420812Y-116202482D01*
X138430000Y-116109192D01*
X138430000Y-116109189D01*
X138433072Y-116078000D01*
X138430000Y-116046811D01*
X138430000Y-114890220D01*
X138435513Y-114946189D01*
X138457299Y-115018008D01*
X138492678Y-115084196D01*
X138540289Y-115142211D01*
X138598304Y-115189822D01*
X138664492Y-115225201D01*
X138736311Y-115246987D01*
X138811000Y-115254343D01*
X139319000Y-115254343D01*
X139393689Y-115246987D01*
X139465508Y-115225201D01*
X139531696Y-115189822D01*
X139589711Y-115142211D01*
X139637322Y-115084196D01*
X139672701Y-115018008D01*
X139694487Y-114946189D01*
X139700000Y-114890220D01*
X139705513Y-114946189D01*
X139727299Y-115018008D01*
X139762678Y-115084196D01*
X139810289Y-115142211D01*
X139868304Y-115189822D01*
X139934492Y-115225201D01*
X140006311Y-115246987D01*
X140081000Y-115254343D01*
X140589000Y-115254343D01*
X140663689Y-115246987D01*
X140735508Y-115225201D01*
X140801696Y-115189822D01*
X140859711Y-115142211D01*
X140907322Y-115084196D01*
X140942701Y-115018008D01*
X140964487Y-114946189D01*
X140970000Y-114890213D01*
X140970001Y-114890219D01*
X140970000Y-115418567D01*
X140963792Y-115424775D01*
X140873452Y-115559979D01*
X140811224Y-115710211D01*
X140779500Y-115869695D01*
X140779500Y-116032305D01*
X140811224Y-116191789D01*
X140873452Y-116342021D01*
X140963792Y-116477225D01*
X141078775Y-116592208D01*
X141213979Y-116682548D01*
X141364211Y-116744776D01*
X141523695Y-116776500D01*
X141686305Y-116776500D01*
X141845789Y-116744776D01*
X141996021Y-116682548D01*
X142131225Y-116592208D01*
X142246208Y-116477225D01*
X142336548Y-116342021D01*
X142349258Y-116311336D01*
X142423816Y-116402185D01*
X142430500Y-116407670D01*
X142430500Y-116413305D01*
X142462224Y-116572789D01*
X142524452Y-116723021D01*
X142614792Y-116858225D01*
X142729775Y-116973208D01*
X142864979Y-117063548D01*
X143015211Y-117125776D01*
X143174695Y-117157500D01*
X143337305Y-117157500D01*
X143496789Y-117125776D01*
X143647021Y-117063548D01*
X143782225Y-116973208D01*
X143897208Y-116858225D01*
X143987548Y-116723021D01*
X144049776Y-116572789D01*
X144081500Y-116413305D01*
X144081500Y-116250695D01*
X144049776Y-116091211D01*
X143987548Y-115940979D01*
X143897208Y-115805775D01*
X143782225Y-115690792D01*
X143647021Y-115600452D01*
X143510000Y-115543696D01*
X143510000Y-114890213D01*
X143511843Y-114871500D01*
X143511843Y-113728500D01*
X143510000Y-113709787D01*
X143510000Y-113674024D01*
X144444955Y-112739070D01*
X144469185Y-112719185D01*
X144548537Y-112622494D01*
X144607502Y-112512180D01*
X144643812Y-112392482D01*
X144653000Y-112299192D01*
X144653000Y-112299182D01*
X144656071Y-112268001D01*
X144653000Y-112236820D01*
X144653000Y-112142843D01*
X144716500Y-112142843D01*
X144791189Y-112135487D01*
X144863008Y-112113701D01*
X144929196Y-112078322D01*
X144987211Y-112030711D01*
X145034822Y-111972696D01*
X145070201Y-111906508D01*
X145091987Y-111834689D01*
X145099343Y-111760000D01*
X145099343Y-110871000D01*
X145091987Y-110796311D01*
X145070201Y-110724492D01*
X145034822Y-110658304D01*
X144987211Y-110600289D01*
X144929196Y-110552678D01*
X144863008Y-110517299D01*
X144791189Y-110495513D01*
X144741452Y-110490615D01*
X144840982Y-110480812D01*
X144960680Y-110444502D01*
X145070994Y-110385537D01*
X145167685Y-110306185D01*
X145247037Y-110209494D01*
X145306002Y-110099180D01*
X145342312Y-109979482D01*
X145354572Y-109855000D01*
X145351500Y-109823250D01*
X145192750Y-109664500D01*
X144272000Y-109664500D01*
X144272000Y-109684500D01*
X143764000Y-109684500D01*
X143764000Y-109664500D01*
X142843250Y-109664500D01*
X142684500Y-109823250D01*
X142681428Y-109855000D01*
X142693688Y-109979482D01*
X142729998Y-110099180D01*
X142788963Y-110209494D01*
X142868315Y-110306185D01*
X142965006Y-110385537D01*
X143075320Y-110444502D01*
X143195018Y-110480812D01*
X143294548Y-110490615D01*
X143244811Y-110495513D01*
X143172992Y-110517299D01*
X143106804Y-110552678D01*
X143048789Y-110600289D01*
X143001178Y-110658304D01*
X142965799Y-110724492D01*
X142944013Y-110796311D01*
X142936657Y-110871000D01*
X142936657Y-111760000D01*
X142944013Y-111834689D01*
X142965799Y-111906508D01*
X143001178Y-111972696D01*
X143048789Y-112030711D01*
X143106804Y-112078322D01*
X143172992Y-112113701D01*
X143244811Y-112135487D01*
X143251800Y-112136175D01*
X143002000Y-112385975D01*
X142457074Y-111841050D01*
X142437185Y-111816815D01*
X142340494Y-111737463D01*
X142230180Y-111678498D01*
X142110482Y-111642188D01*
X142017192Y-111633000D01*
X142017181Y-111633000D01*
X141986000Y-111629929D01*
X141954819Y-111633000D01*
X136429180Y-111633000D01*
X136397999Y-111629929D01*
X136366818Y-111633000D01*
X136366808Y-111633000D01*
X136273518Y-111642188D01*
X136153820Y-111678498D01*
X136043506Y-111737463D01*
X135946815Y-111816815D01*
X135926930Y-111841045D01*
X135890000Y-111877975D01*
X135890000Y-108966000D01*
X142681428Y-108966000D01*
X142684500Y-108997750D01*
X142843250Y-109156500D01*
X143764000Y-109156500D01*
X143764000Y-108489750D01*
X144272000Y-108489750D01*
X144272000Y-109156500D01*
X145192750Y-109156500D01*
X145351500Y-108997750D01*
X145354572Y-108966000D01*
X145342312Y-108841518D01*
X145306002Y-108721820D01*
X145247037Y-108611506D01*
X145167685Y-108514815D01*
X145070994Y-108435463D01*
X144960680Y-108376498D01*
X144840982Y-108340188D01*
X144716500Y-108327928D01*
X144430750Y-108331000D01*
X144272000Y-108489750D01*
X143764000Y-108489750D01*
X143605250Y-108331000D01*
X143319500Y-108327928D01*
X143195018Y-108340188D01*
X143075320Y-108376498D01*
X142965006Y-108435463D01*
X142868315Y-108514815D01*
X142788963Y-108611506D01*
X142729998Y-108721820D01*
X142693688Y-108841518D01*
X142681428Y-108966000D01*
X135890000Y-108966000D01*
X135890000Y-101990024D01*
X137985500Y-99894525D01*
X138593934Y-100502960D01*
X138613815Y-100527185D01*
X138638039Y-100547065D01*
X138638043Y-100547069D01*
X138710506Y-100606538D01*
X138803103Y-100656032D01*
X138820820Y-100665502D01*
X138940518Y-100701812D01*
X139033808Y-100711000D01*
X139033811Y-100711000D01*
X139065000Y-100714072D01*
X139096189Y-100711000D01*
X139190157Y-100711000D01*
X139190157Y-100774500D01*
X139197513Y-100849189D01*
X139219299Y-100921008D01*
X139254678Y-100987196D01*
X139302289Y-101045211D01*
X139360304Y-101092822D01*
X139426492Y-101128201D01*
X139498311Y-101149987D01*
X139573000Y-101157343D01*
X140462000Y-101157343D01*
X140536689Y-101149987D01*
X140608508Y-101128201D01*
X140674696Y-101092822D01*
X140732711Y-101045211D01*
X140780322Y-100987196D01*
X140815701Y-100921008D01*
X140837487Y-100849189D01*
X140844843Y-100774500D01*
X140844843Y-99377500D01*
X140837487Y-99302811D01*
X140815701Y-99230992D01*
X140780322Y-99164804D01*
X140732711Y-99106789D01*
X140674696Y-99059178D01*
X140608508Y-99023799D01*
X140536689Y-99002013D01*
X140462000Y-98994657D01*
X139573000Y-98994657D01*
X139498311Y-99002013D01*
X139426492Y-99023799D01*
X139360304Y-99059178D01*
X139302289Y-99106789D01*
X139254678Y-99164804D01*
X139219299Y-99230992D01*
X139197513Y-99302811D01*
X139196825Y-99309799D01*
X138883525Y-98996500D01*
X140761962Y-97118064D01*
X140786185Y-97098185D01*
X140804276Y-97076141D01*
X140779500Y-97200695D01*
X140779500Y-97363305D01*
X140811224Y-97522789D01*
X140873452Y-97673021D01*
X140963792Y-97808225D01*
X141078775Y-97923208D01*
X141213979Y-98013548D01*
X141287501Y-98044002D01*
X141287500Y-99047314D01*
X141265304Y-99059178D01*
X141207289Y-99106789D01*
X141159678Y-99164804D01*
X141124299Y-99230992D01*
X141102513Y-99302811D01*
X141095157Y-99377500D01*
X141095157Y-100774500D01*
X141102513Y-100849189D01*
X141124299Y-100921008D01*
X141159678Y-100987196D01*
X141207289Y-101045211D01*
X141265304Y-101092822D01*
X141287500Y-101104686D01*
X141287501Y-102902309D01*
X141284429Y-102933500D01*
X141287501Y-102964691D01*
X141287501Y-102964692D01*
X141289239Y-102982333D01*
X141296689Y-103057981D01*
X141332998Y-103177679D01*
X141332999Y-103177680D01*
X141391964Y-103287994D01*
X141471316Y-103384685D01*
X141495546Y-103404570D01*
X143856855Y-105765880D01*
X143859224Y-105777789D01*
X143921452Y-105928021D01*
X144011792Y-106063225D01*
X144126775Y-106178208D01*
X144261979Y-106268548D01*
X144412211Y-106330776D01*
X144571695Y-106362500D01*
X144734305Y-106362500D01*
X144893789Y-106330776D01*
X145044021Y-106268548D01*
X145179225Y-106178208D01*
X145294208Y-106063225D01*
X145384548Y-105928021D01*
X145446776Y-105777789D01*
X145478500Y-105618305D01*
X145478500Y-105455695D01*
X145446776Y-105296211D01*
X145384548Y-105145979D01*
X145294208Y-105010775D01*
X145179225Y-104895792D01*
X145044021Y-104805452D01*
X144893789Y-104743224D01*
X144734305Y-104711500D01*
X144598525Y-104711500D01*
X142557500Y-102670476D01*
X142557500Y-101104686D01*
X142579696Y-101092822D01*
X142637711Y-101045211D01*
X142685322Y-100987196D01*
X142720701Y-100921008D01*
X142742487Y-100849189D01*
X142749843Y-100774500D01*
X142749843Y-99377500D01*
X142742487Y-99302811D01*
X142720701Y-99230992D01*
X142685322Y-99164804D01*
X142637711Y-99106789D01*
X142579696Y-99059178D01*
X142557500Y-99047314D01*
X142557500Y-97630689D01*
X142560572Y-97599500D01*
X142555285Y-97545820D01*
X142548312Y-97475018D01*
X142512002Y-97355320D01*
X142489483Y-97313191D01*
X142453038Y-97245007D01*
X142430500Y-97217544D01*
X142430500Y-97200695D01*
X142398776Y-97041211D01*
X142336548Y-96890979D01*
X142246208Y-96755775D01*
X142240000Y-96749567D01*
X142240000Y-93300213D01*
X142241843Y-93281500D01*
X142241843Y-92138500D01*
X142234487Y-92063811D01*
X142212701Y-91991992D01*
X142177322Y-91925804D01*
X142129711Y-91867789D01*
X142071696Y-91820178D01*
X142005508Y-91784799D01*
X141933689Y-91763013D01*
X141859000Y-91755657D01*
X141351000Y-91755657D01*
X141276311Y-91763013D01*
X141204492Y-91784799D01*
X141138304Y-91820178D01*
X141080289Y-91867789D01*
X141032678Y-91925804D01*
X140997299Y-91991992D01*
X140975513Y-92063811D01*
X140970000Y-92119782D01*
X140970000Y-91852181D01*
X140973071Y-91821000D01*
X140970000Y-91789819D01*
X140970000Y-91789808D01*
X140960812Y-91696518D01*
X140924502Y-91576820D01*
X140865537Y-91466506D01*
X140786185Y-91369815D01*
X140761955Y-91349930D01*
X139963024Y-90551000D01*
X141214976Y-90551000D01*
X147320000Y-96656025D01*
G37*
X147320000Y-96656025D02*
X147320001Y-114903799D01*
X147320000Y-114903809D01*
X147320000Y-115179975D01*
X145278976Y-117221000D01*
X141890180Y-117221000D01*
X141858999Y-117217929D01*
X141827818Y-117221000D01*
X141827808Y-117221000D01*
X141734518Y-117230188D01*
X141614820Y-117266498D01*
X141504506Y-117325463D01*
X141407815Y-117404815D01*
X141387926Y-117429050D01*
X141178050Y-117638926D01*
X141153815Y-117658815D01*
X141074463Y-117755507D01*
X141015498Y-117865821D01*
X140979188Y-117985519D01*
X140970000Y-118078809D01*
X140970000Y-118078819D01*
X140966929Y-118110000D01*
X140970000Y-118141182D01*
X140970001Y-118789782D01*
X140970000Y-118789787D01*
X140964487Y-118733811D01*
X140942701Y-118661992D01*
X140907322Y-118595804D01*
X140859711Y-118537789D01*
X140801696Y-118490178D01*
X140735508Y-118454799D01*
X140663689Y-118433013D01*
X140589000Y-118425657D01*
X140081000Y-118425657D01*
X140006311Y-118433013D01*
X139934492Y-118454799D01*
X139868304Y-118490178D01*
X139810289Y-118537789D01*
X139762678Y-118595804D01*
X139727299Y-118661992D01*
X139705513Y-118733811D01*
X139700000Y-118789782D01*
X139694487Y-118733811D01*
X139672701Y-118661992D01*
X139637322Y-118595804D01*
X139589711Y-118537789D01*
X139531696Y-118490178D01*
X139465508Y-118454799D01*
X139393689Y-118433013D01*
X139319000Y-118425657D01*
X138811000Y-118425657D01*
X138736311Y-118433013D01*
X138664492Y-118454799D01*
X138598304Y-118490178D01*
X138540289Y-118537789D01*
X138492678Y-118595804D01*
X138457299Y-118661992D01*
X138435513Y-118733811D01*
X138430000Y-118789782D01*
X138424487Y-118733811D01*
X138402701Y-118661992D01*
X138367322Y-118595804D01*
X138319711Y-118537789D01*
X138261696Y-118490178D01*
X138195508Y-118454799D01*
X138123689Y-118433013D01*
X138049000Y-118425657D01*
X137541000Y-118425657D01*
X137466311Y-118433013D01*
X137394492Y-118454799D01*
X137328304Y-118490178D01*
X137270289Y-118537789D01*
X137222678Y-118595804D01*
X137187299Y-118661992D01*
X137165513Y-118733811D01*
X137160000Y-118789782D01*
X137154487Y-118733811D01*
X137132701Y-118661992D01*
X137097322Y-118595804D01*
X137049711Y-118537789D01*
X136991696Y-118490178D01*
X136925508Y-118454799D01*
X136853689Y-118433013D01*
X136779000Y-118425657D01*
X136271000Y-118425657D01*
X136196311Y-118433013D01*
X136124492Y-118454799D01*
X136058304Y-118490178D01*
X136000289Y-118537789D01*
X135952678Y-118595804D01*
X135917299Y-118661992D01*
X135895513Y-118733811D01*
X135890000Y-118789782D01*
X135884487Y-118733811D01*
X135862701Y-118661992D01*
X135827322Y-118595804D01*
X135779711Y-118537789D01*
X135721696Y-118490178D01*
X135655508Y-118454799D01*
X135583689Y-118433013D01*
X135509000Y-118425657D01*
X135001000Y-118425657D01*
X134926311Y-118433013D01*
X134854492Y-118454799D01*
X134788304Y-118490178D01*
X134730289Y-118537789D01*
X134682678Y-118595804D01*
X134647299Y-118661992D01*
X134625513Y-118733811D01*
X134620000Y-118789782D01*
X134614487Y-118733811D01*
X134592701Y-118661992D01*
X134557322Y-118595804D01*
X134509711Y-118537789D01*
X134451696Y-118490178D01*
X134385508Y-118454799D01*
X134313689Y-118433013D01*
X134239000Y-118425657D01*
X133731000Y-118425657D01*
X133656311Y-118433013D01*
X133584492Y-118454799D01*
X133518304Y-118490178D01*
X133460289Y-118537789D01*
X133412678Y-118595804D01*
X133377299Y-118661992D01*
X133355513Y-118733811D01*
X133354411Y-118745000D01*
X132800026Y-118745000D01*
X129794000Y-115738976D01*
X129794000Y-114578433D01*
X129800208Y-114572225D01*
X129890548Y-114437021D01*
X129952776Y-114286789D01*
X129984500Y-114127305D01*
X129984500Y-113964695D01*
X129952776Y-113805211D01*
X129890548Y-113654979D01*
X129867580Y-113620605D01*
X130556000Y-114309026D01*
X130556001Y-115919809D01*
X130552929Y-115951000D01*
X130556001Y-115982191D01*
X130556001Y-115982192D01*
X130565189Y-116075482D01*
X130575415Y-116109191D01*
X130601498Y-116195179D01*
X130660463Y-116305493D01*
X130660464Y-116305494D01*
X130739816Y-116402185D01*
X130764046Y-116422070D01*
X132497934Y-118155960D01*
X132517815Y-118180185D01*
X132542039Y-118200065D01*
X132542043Y-118200069D01*
X132614506Y-118259538D01*
X132724820Y-118318502D01*
X132844518Y-118354812D01*
X132937808Y-118364000D01*
X132937811Y-118364000D01*
X132969000Y-118367072D01*
X133000189Y-118364000D01*
X136112819Y-118364000D01*
X136144000Y-118367071D01*
X136175181Y-118364000D01*
X136175192Y-118364000D01*
X136268482Y-118354812D01*
X136388180Y-118318502D01*
X136498494Y-118259537D01*
X136595185Y-118180185D01*
X136615074Y-118155950D01*
X138221962Y-116549064D01*
X138246185Y-116529185D01*
X138266065Y-116504961D01*
X138266069Y-116504957D01*
X138325538Y-116432494D01*
X138384502Y-116322180D01*
X138384502Y-116322179D01*
X138420812Y-116202482D01*
X138430000Y-116109192D01*
X138430000Y-116109189D01*
X138433072Y-116078000D01*
X138430000Y-116046811D01*
X138430000Y-114890220D01*
X138435513Y-114946189D01*
X138457299Y-115018008D01*
X138492678Y-115084196D01*
X138540289Y-115142211D01*
X138598304Y-115189822D01*
X138664492Y-115225201D01*
X138736311Y-115246987D01*
X138811000Y-115254343D01*
X139319000Y-115254343D01*
X139393689Y-115246987D01*
X139465508Y-115225201D01*
X139531696Y-115189822D01*
X139589711Y-115142211D01*
X139637322Y-115084196D01*
X139672701Y-115018008D01*
X139694487Y-114946189D01*
X139700000Y-114890220D01*
X139705513Y-114946189D01*
X139727299Y-115018008D01*
X139762678Y-115084196D01*
X139810289Y-115142211D01*
X139868304Y-115189822D01*
X139934492Y-115225201D01*
X140006311Y-115246987D01*
X140081000Y-115254343D01*
X140589000Y-115254343D01*
X140663689Y-115246987D01*
X140735508Y-115225201D01*
X140801696Y-115189822D01*
X140859711Y-115142211D01*
X140907322Y-115084196D01*
X140942701Y-115018008D01*
X140964487Y-114946189D01*
X140970000Y-114890213D01*
X140970001Y-114890219D01*
X140970000Y-115418567D01*
X140963792Y-115424775D01*
X140873452Y-115559979D01*
X140811224Y-115710211D01*
X140779500Y-115869695D01*
X140779500Y-116032305D01*
X140811224Y-116191789D01*
X140873452Y-116342021D01*
X140963792Y-116477225D01*
X141078775Y-116592208D01*
X141213979Y-116682548D01*
X141364211Y-116744776D01*
X141523695Y-116776500D01*
X141686305Y-116776500D01*
X141845789Y-116744776D01*
X141996021Y-116682548D01*
X142131225Y-116592208D01*
X142246208Y-116477225D01*
X142336548Y-116342021D01*
X142349258Y-116311336D01*
X142423816Y-116402185D01*
X142430500Y-116407670D01*
X142430500Y-116413305D01*
X142462224Y-116572789D01*
X142524452Y-116723021D01*
X142614792Y-116858225D01*
X142729775Y-116973208D01*
X142864979Y-117063548D01*
X143015211Y-117125776D01*
X143174695Y-117157500D01*
X143337305Y-117157500D01*
X143496789Y-117125776D01*
X143647021Y-117063548D01*
X143782225Y-116973208D01*
X143897208Y-116858225D01*
X143987548Y-116723021D01*
X144049776Y-116572789D01*
X144081500Y-116413305D01*
X144081500Y-116250695D01*
X144049776Y-116091211D01*
X143987548Y-115940979D01*
X143897208Y-115805775D01*
X143782225Y-115690792D01*
X143647021Y-115600452D01*
X143510000Y-115543696D01*
X143510000Y-114890213D01*
X143511843Y-114871500D01*
X143511843Y-113728500D01*
X143510000Y-113709787D01*
X143510000Y-113674024D01*
X144444955Y-112739070D01*
X144469185Y-112719185D01*
X144548537Y-112622494D01*
X144607502Y-112512180D01*
X144643812Y-112392482D01*
X144653000Y-112299192D01*
X144653000Y-112299182D01*
X144656071Y-112268001D01*
X144653000Y-112236820D01*
X144653000Y-112142843D01*
X144716500Y-112142843D01*
X144791189Y-112135487D01*
X144863008Y-112113701D01*
X144929196Y-112078322D01*
X144987211Y-112030711D01*
X145034822Y-111972696D01*
X145070201Y-111906508D01*
X145091987Y-111834689D01*
X145099343Y-111760000D01*
X145099343Y-110871000D01*
X145091987Y-110796311D01*
X145070201Y-110724492D01*
X145034822Y-110658304D01*
X144987211Y-110600289D01*
X144929196Y-110552678D01*
X144863008Y-110517299D01*
X144791189Y-110495513D01*
X144741452Y-110490615D01*
X144840982Y-110480812D01*
X144960680Y-110444502D01*
X145070994Y-110385537D01*
X145167685Y-110306185D01*
X145247037Y-110209494D01*
X145306002Y-110099180D01*
X145342312Y-109979482D01*
X145354572Y-109855000D01*
X145351500Y-109823250D01*
X145192750Y-109664500D01*
X144272000Y-109664500D01*
X144272000Y-109684500D01*
X143764000Y-109684500D01*
X143764000Y-109664500D01*
X142843250Y-109664500D01*
X142684500Y-109823250D01*
X142681428Y-109855000D01*
X142693688Y-109979482D01*
X142729998Y-110099180D01*
X142788963Y-110209494D01*
X142868315Y-110306185D01*
X142965006Y-110385537D01*
X143075320Y-110444502D01*
X143195018Y-110480812D01*
X143294548Y-110490615D01*
X143244811Y-110495513D01*
X143172992Y-110517299D01*
X143106804Y-110552678D01*
X143048789Y-110600289D01*
X143001178Y-110658304D01*
X142965799Y-110724492D01*
X142944013Y-110796311D01*
X142936657Y-110871000D01*
X142936657Y-111760000D01*
X142944013Y-111834689D01*
X142965799Y-111906508D01*
X143001178Y-111972696D01*
X143048789Y-112030711D01*
X143106804Y-112078322D01*
X143172992Y-112113701D01*
X143244811Y-112135487D01*
X143251800Y-112136175D01*
X143002000Y-112385975D01*
X142457074Y-111841050D01*
X142437185Y-111816815D01*
X142340494Y-111737463D01*
X142230180Y-111678498D01*
X142110482Y-111642188D01*
X142017192Y-111633000D01*
X142017181Y-111633000D01*
X141986000Y-111629929D01*
X141954819Y-111633000D01*
X136429180Y-111633000D01*
X136397999Y-111629929D01*
X136366818Y-111633000D01*
X136366808Y-111633000D01*
X136273518Y-111642188D01*
X136153820Y-111678498D01*
X136043506Y-111737463D01*
X135946815Y-111816815D01*
X135926930Y-111841045D01*
X135890000Y-111877975D01*
X135890000Y-108966000D01*
X142681428Y-108966000D01*
X142684500Y-108997750D01*
X142843250Y-109156500D01*
X143764000Y-109156500D01*
X143764000Y-108489750D01*
X144272000Y-108489750D01*
X144272000Y-109156500D01*
X145192750Y-109156500D01*
X145351500Y-108997750D01*
X145354572Y-108966000D01*
X145342312Y-108841518D01*
X145306002Y-108721820D01*
X145247037Y-108611506D01*
X145167685Y-108514815D01*
X145070994Y-108435463D01*
X144960680Y-108376498D01*
X144840982Y-108340188D01*
X144716500Y-108327928D01*
X144430750Y-108331000D01*
X144272000Y-108489750D01*
X143764000Y-108489750D01*
X143605250Y-108331000D01*
X143319500Y-108327928D01*
X143195018Y-108340188D01*
X143075320Y-108376498D01*
X142965006Y-108435463D01*
X142868315Y-108514815D01*
X142788963Y-108611506D01*
X142729998Y-108721820D01*
X142693688Y-108841518D01*
X142681428Y-108966000D01*
X135890000Y-108966000D01*
X135890000Y-101990024D01*
X137985500Y-99894525D01*
X138593934Y-100502960D01*
X138613815Y-100527185D01*
X138638039Y-100547065D01*
X138638043Y-100547069D01*
X138710506Y-100606538D01*
X138803103Y-100656032D01*
X138820820Y-100665502D01*
X138940518Y-100701812D01*
X139033808Y-100711000D01*
X139033811Y-100711000D01*
X139065000Y-100714072D01*
X139096189Y-100711000D01*
X139190157Y-100711000D01*
X139190157Y-100774500D01*
X139197513Y-100849189D01*
X139219299Y-100921008D01*
X139254678Y-100987196D01*
X139302289Y-101045211D01*
X139360304Y-101092822D01*
X139426492Y-101128201D01*
X139498311Y-101149987D01*
X139573000Y-101157343D01*
X140462000Y-101157343D01*
X140536689Y-101149987D01*
X140608508Y-101128201D01*
X140674696Y-101092822D01*
X140732711Y-101045211D01*
X140780322Y-100987196D01*
X140815701Y-100921008D01*
X140837487Y-100849189D01*
X140844843Y-100774500D01*
X140844843Y-99377500D01*
X140837487Y-99302811D01*
X140815701Y-99230992D01*
X140780322Y-99164804D01*
X140732711Y-99106789D01*
X140674696Y-99059178D01*
X140608508Y-99023799D01*
X140536689Y-99002013D01*
X140462000Y-98994657D01*
X139573000Y-98994657D01*
X139498311Y-99002013D01*
X139426492Y-99023799D01*
X139360304Y-99059178D01*
X139302289Y-99106789D01*
X139254678Y-99164804D01*
X139219299Y-99230992D01*
X139197513Y-99302811D01*
X139196825Y-99309799D01*
X138883525Y-98996500D01*
X140761962Y-97118064D01*
X140786185Y-97098185D01*
X140804276Y-97076141D01*
X140779500Y-97200695D01*
X140779500Y-97363305D01*
X140811224Y-97522789D01*
X140873452Y-97673021D01*
X140963792Y-97808225D01*
X141078775Y-97923208D01*
X141213979Y-98013548D01*
X141287501Y-98044002D01*
X141287500Y-99047314D01*
X141265304Y-99059178D01*
X141207289Y-99106789D01*
X141159678Y-99164804D01*
X141124299Y-99230992D01*
X141102513Y-99302811D01*
X141095157Y-99377500D01*
X141095157Y-100774500D01*
X141102513Y-100849189D01*
X141124299Y-100921008D01*
X141159678Y-100987196D01*
X141207289Y-101045211D01*
X141265304Y-101092822D01*
X141287500Y-101104686D01*
X141287501Y-102902309D01*
X141284429Y-102933500D01*
X141287501Y-102964691D01*
X141287501Y-102964692D01*
X141289239Y-102982333D01*
X141296689Y-103057981D01*
X141332998Y-103177679D01*
X141332999Y-103177680D01*
X141391964Y-103287994D01*
X141471316Y-103384685D01*
X141495546Y-103404570D01*
X143856855Y-105765880D01*
X143859224Y-105777789D01*
X143921452Y-105928021D01*
X144011792Y-106063225D01*
X144126775Y-106178208D01*
X144261979Y-106268548D01*
X144412211Y-106330776D01*
X144571695Y-106362500D01*
X144734305Y-106362500D01*
X144893789Y-106330776D01*
X145044021Y-106268548D01*
X145179225Y-106178208D01*
X145294208Y-106063225D01*
X145384548Y-105928021D01*
X145446776Y-105777789D01*
X145478500Y-105618305D01*
X145478500Y-105455695D01*
X145446776Y-105296211D01*
X145384548Y-105145979D01*
X145294208Y-105010775D01*
X145179225Y-104895792D01*
X145044021Y-104805452D01*
X144893789Y-104743224D01*
X144734305Y-104711500D01*
X144598525Y-104711500D01*
X142557500Y-102670476D01*
X142557500Y-101104686D01*
X142579696Y-101092822D01*
X142637711Y-101045211D01*
X142685322Y-100987196D01*
X142720701Y-100921008D01*
X142742487Y-100849189D01*
X142749843Y-100774500D01*
X142749843Y-99377500D01*
X142742487Y-99302811D01*
X142720701Y-99230992D01*
X142685322Y-99164804D01*
X142637711Y-99106789D01*
X142579696Y-99059178D01*
X142557500Y-99047314D01*
X142557500Y-97630689D01*
X142560572Y-97599500D01*
X142555285Y-97545820D01*
X142548312Y-97475018D01*
X142512002Y-97355320D01*
X142489483Y-97313191D01*
X142453038Y-97245007D01*
X142430500Y-97217544D01*
X142430500Y-97200695D01*
X142398776Y-97041211D01*
X142336548Y-96890979D01*
X142246208Y-96755775D01*
X142240000Y-96749567D01*
X142240000Y-93300213D01*
X142241843Y-93281500D01*
X142241843Y-92138500D01*
X142234487Y-92063811D01*
X142212701Y-91991992D01*
X142177322Y-91925804D01*
X142129711Y-91867789D01*
X142071696Y-91820178D01*
X142005508Y-91784799D01*
X141933689Y-91763013D01*
X141859000Y-91755657D01*
X141351000Y-91755657D01*
X141276311Y-91763013D01*
X141204492Y-91784799D01*
X141138304Y-91820178D01*
X141080289Y-91867789D01*
X141032678Y-91925804D01*
X140997299Y-91991992D01*
X140975513Y-92063811D01*
X140970000Y-92119782D01*
X140970000Y-91852181D01*
X140973071Y-91821000D01*
X140970000Y-91789819D01*
X140970000Y-91789808D01*
X140960812Y-91696518D01*
X140924502Y-91576820D01*
X140865537Y-91466506D01*
X140786185Y-91369815D01*
X140761955Y-91349930D01*
X139963024Y-90551000D01*
X141214976Y-90551000D01*
X147320000Y-96656025D01*
G36*
X151414452Y-105928021D02*
G01*
X151504792Y-106063225D01*
X151511000Y-106069433D01*
X151511001Y-109696809D01*
X151507929Y-109728000D01*
X151520189Y-109852481D01*
X151556498Y-109972179D01*
X151595202Y-110044588D01*
X151615464Y-110082494D01*
X151694816Y-110179185D01*
X151719046Y-110199070D01*
X153546914Y-112026940D01*
X153566795Y-112051165D01*
X153591019Y-112071045D01*
X153591023Y-112071049D01*
X153663486Y-112130518D01*
X153773800Y-112189482D01*
X153893498Y-112225792D01*
X153986788Y-112234980D01*
X153986791Y-112234980D01*
X154017980Y-112238052D01*
X154049169Y-112234980D01*
X157836297Y-112234980D01*
X157836297Y-112599470D01*
X157843653Y-112674159D01*
X157865439Y-112745978D01*
X157900818Y-112812166D01*
X157948429Y-112870181D01*
X158006444Y-112917792D01*
X158072632Y-112953171D01*
X158144451Y-112974957D01*
X158219140Y-112982313D01*
X161105070Y-112982313D01*
X160909682Y-113112867D01*
X160732787Y-113289762D01*
X160593801Y-113497769D01*
X160498065Y-113728895D01*
X160449260Y-113974256D01*
X160449260Y-114224424D01*
X160498065Y-114469785D01*
X160593801Y-114700911D01*
X160732787Y-114908918D01*
X160909682Y-115085813D01*
X161108871Y-115218907D01*
X158219140Y-115218907D01*
X158144451Y-115226263D01*
X158072632Y-115248049D01*
X158006444Y-115283428D01*
X157948429Y-115331039D01*
X157900818Y-115389054D01*
X157865439Y-115455242D01*
X157843653Y-115527061D01*
X157836297Y-115601750D01*
X157836297Y-115966240D01*
X151368760Y-115966240D01*
X151368760Y-105817711D01*
X151414452Y-105928021D01*
G37*
X151414452Y-105928021D02*
X151504792Y-106063225D01*
X151511000Y-106069433D01*
X151511001Y-109696809D01*
X151507929Y-109728000D01*
X151520189Y-109852481D01*
X151556498Y-109972179D01*
X151595202Y-110044588D01*
X151615464Y-110082494D01*
X151694816Y-110179185D01*
X151719046Y-110199070D01*
X153546914Y-112026940D01*
X153566795Y-112051165D01*
X153591019Y-112071045D01*
X153591023Y-112071049D01*
X153663486Y-112130518D01*
X153773800Y-112189482D01*
X153893498Y-112225792D01*
X153986788Y-112234980D01*
X153986791Y-112234980D01*
X154017980Y-112238052D01*
X154049169Y-112234980D01*
X157836297Y-112234980D01*
X157836297Y-112599470D01*
X157843653Y-112674159D01*
X157865439Y-112745978D01*
X157900818Y-112812166D01*
X157948429Y-112870181D01*
X158006444Y-112917792D01*
X158072632Y-112953171D01*
X158144451Y-112974957D01*
X158219140Y-112982313D01*
X161105070Y-112982313D01*
X160909682Y-113112867D01*
X160732787Y-113289762D01*
X160593801Y-113497769D01*
X160498065Y-113728895D01*
X160449260Y-113974256D01*
X160449260Y-114224424D01*
X160498065Y-114469785D01*
X160593801Y-114700911D01*
X160732787Y-114908918D01*
X160909682Y-115085813D01*
X161108871Y-115218907D01*
X158219140Y-115218907D01*
X158144451Y-115226263D01*
X158072632Y-115248049D01*
X158006444Y-115283428D01*
X157948429Y-115331039D01*
X157900818Y-115389054D01*
X157865439Y-115455242D01*
X157843653Y-115527061D01*
X157836297Y-115601750D01*
X157836297Y-115966240D01*
X151368760Y-115966240D01*
X151368760Y-105817711D01*
X151414452Y-105928021D01*
G36*
X135255203Y-67455254D02*
G01*
X135294970Y-67503710D01*
X135488352Y-67662415D01*
X135708981Y-67780343D01*
X135818371Y-67813526D01*
X135948376Y-67852963D01*
X135974095Y-67855496D01*
X136134960Y-67871340D01*
X136134966Y-67871340D01*
X136197339Y-67877483D01*
X136259712Y-67871340D01*
X157948264Y-67871340D01*
X157948429Y-67871541D01*
X158006444Y-67919152D01*
X158072632Y-67954531D01*
X158144451Y-67976317D01*
X158219140Y-67983673D01*
X160961443Y-67983673D01*
X161719260Y-68741490D01*
X162477077Y-67983673D01*
X163703000Y-67983673D01*
X163703000Y-70217727D01*
X162477077Y-70217727D01*
X161719260Y-69459910D01*
X160961443Y-70217727D01*
X158219140Y-70217727D01*
X158144451Y-70225083D01*
X158072632Y-70246869D01*
X158006444Y-70282248D01*
X157948429Y-70329859D01*
X157900818Y-70387874D01*
X157865439Y-70454062D01*
X157843653Y-70525881D01*
X157836297Y-70600570D01*
X157836297Y-72599550D01*
X157843653Y-72674239D01*
X157865439Y-72746058D01*
X157900818Y-72812246D01*
X157948429Y-72870261D01*
X158006444Y-72917872D01*
X158072632Y-72953251D01*
X158144451Y-72975037D01*
X158219140Y-72982393D01*
X160961443Y-72982393D01*
X161719260Y-73740210D01*
X162477077Y-72982393D01*
X163703000Y-72982393D01*
X163703000Y-75218987D01*
X162479617Y-75218987D01*
X161719260Y-74458630D01*
X160958903Y-75218987D01*
X158219140Y-75218987D01*
X158144451Y-75226343D01*
X158072632Y-75248129D01*
X158006444Y-75283508D01*
X157948429Y-75331119D01*
X157900818Y-75389134D01*
X157865439Y-75455322D01*
X157843653Y-75527141D01*
X157836297Y-75601830D01*
X157836297Y-77600810D01*
X157843653Y-77675499D01*
X157865439Y-77747318D01*
X157900818Y-77813506D01*
X157948429Y-77871521D01*
X158006444Y-77919132D01*
X158072632Y-77954511D01*
X158144451Y-77976297D01*
X158219140Y-77983653D01*
X160961443Y-77983653D01*
X161719260Y-78741470D01*
X162477077Y-77983653D01*
X163703000Y-77983653D01*
X163703000Y-80217707D01*
X162477077Y-80217707D01*
X161719260Y-79459890D01*
X160961443Y-80217707D01*
X158219140Y-80217707D01*
X158144451Y-80225063D01*
X158072632Y-80246849D01*
X158006444Y-80282228D01*
X157948429Y-80329839D01*
X157900818Y-80387854D01*
X157865439Y-80454042D01*
X157843653Y-80525861D01*
X157836297Y-80600550D01*
X157836297Y-82599530D01*
X157843653Y-82674219D01*
X157865439Y-82746038D01*
X157900818Y-82812226D01*
X157948429Y-82870241D01*
X158006444Y-82917852D01*
X158072632Y-82953231D01*
X158144451Y-82975017D01*
X158219140Y-82982373D01*
X160961443Y-82982373D01*
X161719260Y-83740190D01*
X162477077Y-82982373D01*
X163703000Y-82982373D01*
X163703000Y-85218967D01*
X162479617Y-85218967D01*
X161719260Y-84458610D01*
X160958903Y-85218967D01*
X158219140Y-85218967D01*
X158144451Y-85226323D01*
X158072632Y-85248109D01*
X158006444Y-85283488D01*
X157948429Y-85331099D01*
X157900818Y-85389114D01*
X157865439Y-85455302D01*
X157843653Y-85527121D01*
X157836297Y-85601810D01*
X157836297Y-87600790D01*
X157843653Y-87675479D01*
X157865439Y-87747298D01*
X157900818Y-87813486D01*
X157948429Y-87871501D01*
X158006444Y-87919112D01*
X158072632Y-87954491D01*
X158144451Y-87976277D01*
X158219140Y-87983633D01*
X160961443Y-87983633D01*
X161719260Y-88741450D01*
X162477077Y-87983633D01*
X163703000Y-87983633D01*
X163703000Y-90217687D01*
X162477077Y-90217687D01*
X161719260Y-89459870D01*
X160961443Y-90217687D01*
X158219140Y-90217687D01*
X158144451Y-90225043D01*
X158072632Y-90246829D01*
X158006444Y-90282208D01*
X157948429Y-90329819D01*
X157900818Y-90387834D01*
X157865439Y-90454022D01*
X157843653Y-90525841D01*
X157836297Y-90600530D01*
X157836297Y-92599510D01*
X157843653Y-92674199D01*
X157865439Y-92746018D01*
X157900818Y-92812206D01*
X157948429Y-92870221D01*
X158006444Y-92917832D01*
X158072632Y-92953211D01*
X158144451Y-92974997D01*
X158219140Y-92982353D01*
X160961443Y-92982353D01*
X161719260Y-93740170D01*
X162477077Y-92982353D01*
X163703000Y-92982353D01*
X163703000Y-95218947D01*
X162479617Y-95218947D01*
X161719260Y-94458590D01*
X160958903Y-95218947D01*
X158219140Y-95218947D01*
X158144451Y-95226303D01*
X158072632Y-95248089D01*
X158006444Y-95283468D01*
X157948429Y-95331079D01*
X157900818Y-95389094D01*
X157865439Y-95455282D01*
X157843653Y-95527101D01*
X157836297Y-95601790D01*
X157836297Y-97600770D01*
X157843653Y-97675459D01*
X157865439Y-97747278D01*
X157900818Y-97813466D01*
X157948429Y-97871481D01*
X158006444Y-97919092D01*
X158072632Y-97954471D01*
X158144451Y-97976257D01*
X158219140Y-97983613D01*
X160961443Y-97983613D01*
X161719260Y-98741430D01*
X162477077Y-97983613D01*
X163703000Y-97983613D01*
X163703000Y-100217667D01*
X162477077Y-100217667D01*
X161719260Y-99459850D01*
X160961443Y-100217667D01*
X158219140Y-100217667D01*
X158144451Y-100225023D01*
X158072632Y-100246809D01*
X158006444Y-100282188D01*
X157948429Y-100329799D01*
X157900818Y-100387814D01*
X157865439Y-100454002D01*
X157843653Y-100525821D01*
X157836297Y-100600510D01*
X157836297Y-102599490D01*
X157843653Y-102674179D01*
X157865439Y-102745998D01*
X157900818Y-102812186D01*
X157948429Y-102870201D01*
X158006444Y-102917812D01*
X158072632Y-102953191D01*
X158144451Y-102974977D01*
X158219140Y-102982333D01*
X160961443Y-102982333D01*
X161719260Y-103740150D01*
X162477077Y-102982333D01*
X163703000Y-102982333D01*
X163703000Y-105218927D01*
X162479617Y-105218927D01*
X161719260Y-104458570D01*
X160958903Y-105218927D01*
X158219140Y-105218927D01*
X158144451Y-105226283D01*
X158072632Y-105248069D01*
X158006444Y-105283448D01*
X157948429Y-105331059D01*
X157900818Y-105389074D01*
X157865439Y-105455262D01*
X157843653Y-105527081D01*
X157836297Y-105601770D01*
X157836297Y-107600750D01*
X157843653Y-107675439D01*
X157865439Y-107747258D01*
X157900818Y-107813446D01*
X157948429Y-107871461D01*
X158006444Y-107919072D01*
X158072632Y-107954451D01*
X158144451Y-107976237D01*
X158219140Y-107983593D01*
X161105070Y-107983593D01*
X160909682Y-108114147D01*
X160732787Y-108291042D01*
X160593801Y-108499049D01*
X160498065Y-108730175D01*
X160449260Y-108975536D01*
X160449260Y-109225704D01*
X160498065Y-109471065D01*
X160593801Y-109702191D01*
X160732787Y-109910198D01*
X160909682Y-110087093D01*
X161105070Y-110217647D01*
X158219140Y-110217647D01*
X158144451Y-110225003D01*
X158072632Y-110246789D01*
X158006444Y-110282168D01*
X157948429Y-110329779D01*
X157900818Y-110387794D01*
X157865439Y-110453982D01*
X157843653Y-110525801D01*
X157836297Y-110600490D01*
X157836297Y-110964980D01*
X154281006Y-110964980D01*
X152781000Y-109464976D01*
X152781000Y-106069433D01*
X152787208Y-106063225D01*
X152877548Y-105928021D01*
X152939776Y-105777789D01*
X152971500Y-105618305D01*
X152971500Y-105455695D01*
X152939776Y-105296211D01*
X152877548Y-105145979D01*
X152787208Y-105010775D01*
X152672225Y-104895792D01*
X152537021Y-104805452D01*
X152386789Y-104743224D01*
X152227305Y-104711500D01*
X152064695Y-104711500D01*
X151905211Y-104743224D01*
X151754979Y-104805452D01*
X151619775Y-104895792D01*
X151504792Y-105010775D01*
X151414452Y-105145979D01*
X151368760Y-105256289D01*
X151368760Y-103993802D01*
X160191529Y-103993802D01*
X160200291Y-104293876D01*
X160267426Y-104586475D01*
X160348216Y-104781521D01*
X160585826Y-104873584D01*
X161360050Y-104099360D01*
X162078470Y-104099360D01*
X162852694Y-104873584D01*
X163090304Y-104781521D01*
X163197042Y-104500936D01*
X163246991Y-104204918D01*
X163238229Y-103904844D01*
X163171094Y-103612245D01*
X163090304Y-103417199D01*
X162852694Y-103325136D01*
X162078470Y-104099360D01*
X161360050Y-104099360D01*
X160585826Y-103325136D01*
X160348216Y-103417199D01*
X160241478Y-103697784D01*
X160191529Y-103993802D01*
X151368760Y-103993802D01*
X151368760Y-98995082D01*
X160191529Y-98995082D01*
X160200291Y-99295156D01*
X160267426Y-99587755D01*
X160348216Y-99782801D01*
X160585826Y-99874864D01*
X161360050Y-99100640D01*
X162078470Y-99100640D01*
X162852694Y-99874864D01*
X163090304Y-99782801D01*
X163197042Y-99502216D01*
X163246991Y-99206198D01*
X163238229Y-98906124D01*
X163171094Y-98613525D01*
X163090304Y-98418479D01*
X162852694Y-98326416D01*
X162078470Y-99100640D01*
X161360050Y-99100640D01*
X160585826Y-98326416D01*
X160348216Y-98418479D01*
X160241478Y-98699064D01*
X160191529Y-98995082D01*
X151368760Y-98995082D01*
X151368760Y-97297940D01*
X151371831Y-97266759D01*
X151368760Y-97235578D01*
X151368760Y-97235568D01*
X151359572Y-97142278D01*
X151323262Y-97022580D01*
X151270322Y-96923537D01*
X151264297Y-96912265D01*
X151222334Y-96861133D01*
X151184945Y-96815575D01*
X151160715Y-96795690D01*
X148358847Y-93993822D01*
X160191529Y-93993822D01*
X160200291Y-94293896D01*
X160267426Y-94586495D01*
X160348216Y-94781541D01*
X160585826Y-94873604D01*
X161360050Y-94099380D01*
X162078470Y-94099380D01*
X162852694Y-94873604D01*
X163090304Y-94781541D01*
X163197042Y-94500956D01*
X163246991Y-94204938D01*
X163238229Y-93904864D01*
X163171094Y-93612265D01*
X163090304Y-93417219D01*
X162852694Y-93325156D01*
X162078470Y-94099380D01*
X161360050Y-94099380D01*
X160585826Y-93325156D01*
X160348216Y-93417219D01*
X160241478Y-93697804D01*
X160191529Y-93993822D01*
X148358847Y-93993822D01*
X143360127Y-88995102D01*
X160191529Y-88995102D01*
X160200291Y-89295176D01*
X160267426Y-89587775D01*
X160348216Y-89782821D01*
X160585826Y-89874884D01*
X161360050Y-89100660D01*
X162078470Y-89100660D01*
X162852694Y-89874884D01*
X163090304Y-89782821D01*
X163197042Y-89502236D01*
X163246991Y-89206218D01*
X163238229Y-88906144D01*
X163171094Y-88613545D01*
X163090304Y-88418499D01*
X162852694Y-88326436D01*
X162078470Y-89100660D01*
X161360050Y-89100660D01*
X160585826Y-88326436D01*
X160348216Y-88418499D01*
X160241478Y-88699084D01*
X160191529Y-88995102D01*
X143360127Y-88995102D01*
X142965074Y-88600050D01*
X142945185Y-88575815D01*
X142848494Y-88496463D01*
X142738180Y-88437498D01*
X142618482Y-88401188D01*
X142525192Y-88392000D01*
X142525181Y-88392000D01*
X142494000Y-88388929D01*
X142462819Y-88392000D01*
X142189186Y-88392000D01*
X142212701Y-88348008D01*
X142234487Y-88276189D01*
X142241843Y-88201500D01*
X142241843Y-87058500D01*
X142234487Y-86983811D01*
X142212701Y-86911992D01*
X142177322Y-86845804D01*
X142129711Y-86787789D01*
X142071696Y-86740178D01*
X142005508Y-86704799D01*
X141933689Y-86683013D01*
X141859000Y-86675657D01*
X141351000Y-86675657D01*
X141276311Y-86683013D01*
X141204492Y-86704799D01*
X141138304Y-86740178D01*
X141080289Y-86787789D01*
X141032678Y-86845804D01*
X140997299Y-86911992D01*
X140975513Y-86983811D01*
X140970000Y-87039787D01*
X140964487Y-86983811D01*
X140942701Y-86911992D01*
X140907322Y-86845804D01*
X140859711Y-86787789D01*
X140801696Y-86740178D01*
X140735508Y-86704799D01*
X140663689Y-86683013D01*
X140589000Y-86675657D01*
X140081000Y-86675657D01*
X140006311Y-86683013D01*
X139934492Y-86704799D01*
X139868304Y-86740178D01*
X139810289Y-86787789D01*
X139762678Y-86845804D01*
X139727299Y-86911992D01*
X139705513Y-86983811D01*
X139700000Y-87039787D01*
X139700000Y-76866180D01*
X139703071Y-76834999D01*
X139700000Y-76803818D01*
X139700000Y-76803808D01*
X139690812Y-76710518D01*
X139654502Y-76590820D01*
X139595538Y-76480507D01*
X139595537Y-76480505D01*
X139536068Y-76408043D01*
X139516185Y-76383815D01*
X139491956Y-76363931D01*
X135091074Y-71963050D01*
X135071185Y-71938815D01*
X134974494Y-71859463D01*
X134864180Y-71800498D01*
X134744482Y-71764188D01*
X134651192Y-71755000D01*
X134651181Y-71755000D01*
X134620000Y-71751929D01*
X134588819Y-71755000D01*
X128397000Y-71755000D01*
X128397000Y-64779024D01*
X139954001Y-76336026D01*
X139954000Y-83414567D01*
X139947792Y-83420775D01*
X139857452Y-83555979D01*
X139795224Y-83706211D01*
X139763500Y-83865695D01*
X139763500Y-84028305D01*
X139795224Y-84187789D01*
X139857452Y-84338021D01*
X139947792Y-84473225D01*
X140062775Y-84588208D01*
X140197979Y-84678548D01*
X140348211Y-84740776D01*
X140507695Y-84772500D01*
X140670305Y-84772500D01*
X140829789Y-84740776D01*
X140980021Y-84678548D01*
X141115225Y-84588208D01*
X141230208Y-84473225D01*
X141320548Y-84338021D01*
X141382776Y-84187789D01*
X141414500Y-84028305D01*
X141414500Y-83993842D01*
X160191529Y-83993842D01*
X160200291Y-84293916D01*
X160267426Y-84586515D01*
X160348216Y-84781561D01*
X160585826Y-84873624D01*
X161360050Y-84099400D01*
X162078470Y-84099400D01*
X162852694Y-84873624D01*
X163090304Y-84781561D01*
X163197042Y-84500976D01*
X163246991Y-84204958D01*
X163238229Y-83904884D01*
X163171094Y-83612285D01*
X163090304Y-83417239D01*
X162852694Y-83325176D01*
X162078470Y-84099400D01*
X161360050Y-84099400D01*
X160585826Y-83325176D01*
X160348216Y-83417239D01*
X160241478Y-83697824D01*
X160191529Y-83993842D01*
X141414500Y-83993842D01*
X141414500Y-83865695D01*
X141382776Y-83706211D01*
X141320548Y-83555979D01*
X141230208Y-83420775D01*
X141224000Y-83414567D01*
X141224000Y-78995122D01*
X160191529Y-78995122D01*
X160200291Y-79295196D01*
X160267426Y-79587795D01*
X160348216Y-79782841D01*
X160585826Y-79874904D01*
X161360050Y-79100680D01*
X162078470Y-79100680D01*
X162852694Y-79874904D01*
X163090304Y-79782841D01*
X163197042Y-79502256D01*
X163246991Y-79206238D01*
X163238229Y-78906164D01*
X163171094Y-78613565D01*
X163090304Y-78418519D01*
X162852694Y-78326456D01*
X162078470Y-79100680D01*
X161360050Y-79100680D01*
X160585826Y-78326456D01*
X160348216Y-78418519D01*
X160241478Y-78699104D01*
X160191529Y-78995122D01*
X141224000Y-78995122D01*
X141224000Y-76104180D01*
X141227071Y-76072999D01*
X141224000Y-76041818D01*
X141224000Y-76041808D01*
X141214812Y-75948518D01*
X141178502Y-75828820D01*
X141119537Y-75718506D01*
X141040185Y-75621815D01*
X141015955Y-75601930D01*
X139407887Y-73993862D01*
X160191529Y-73993862D01*
X160200291Y-74293936D01*
X160267426Y-74586535D01*
X160348216Y-74781581D01*
X160585826Y-74873644D01*
X161360050Y-74099420D01*
X162078470Y-74099420D01*
X162852694Y-74873644D01*
X163090304Y-74781581D01*
X163197042Y-74500996D01*
X163246991Y-74204978D01*
X163238229Y-73904904D01*
X163171094Y-73612305D01*
X163090304Y-73417259D01*
X162852694Y-73325196D01*
X162078470Y-74099420D01*
X161360050Y-74099420D01*
X160585826Y-73325196D01*
X160348216Y-73417259D01*
X160241478Y-73697844D01*
X160191529Y-73993862D01*
X139407887Y-73993862D01*
X134409167Y-68995142D01*
X160191529Y-68995142D01*
X160200291Y-69295216D01*
X160267426Y-69587815D01*
X160348216Y-69782861D01*
X160585826Y-69874924D01*
X161360050Y-69100700D01*
X162078470Y-69100700D01*
X162852694Y-69874924D01*
X163090304Y-69782861D01*
X163197042Y-69502276D01*
X163246991Y-69206258D01*
X163238229Y-68906184D01*
X163171094Y-68613585D01*
X163090304Y-68418539D01*
X162852694Y-68326476D01*
X162078470Y-69100700D01*
X161360050Y-69100700D01*
X160585826Y-68326476D01*
X160348216Y-68418539D01*
X160241478Y-68699124D01*
X160191529Y-68995142D01*
X134409167Y-68995142D01*
X128397000Y-62982976D01*
X128397000Y-60597050D01*
X135255203Y-67455254D01*
G37*
X135255203Y-67455254D02*
X135294970Y-67503710D01*
X135488352Y-67662415D01*
X135708981Y-67780343D01*
X135818371Y-67813526D01*
X135948376Y-67852963D01*
X135974095Y-67855496D01*
X136134960Y-67871340D01*
X136134966Y-67871340D01*
X136197339Y-67877483D01*
X136259712Y-67871340D01*
X157948264Y-67871340D01*
X157948429Y-67871541D01*
X158006444Y-67919152D01*
X158072632Y-67954531D01*
X158144451Y-67976317D01*
X158219140Y-67983673D01*
X160961443Y-67983673D01*
X161719260Y-68741490D01*
X162477077Y-67983673D01*
X163703000Y-67983673D01*
X163703000Y-70217727D01*
X162477077Y-70217727D01*
X161719260Y-69459910D01*
X160961443Y-70217727D01*
X158219140Y-70217727D01*
X158144451Y-70225083D01*
X158072632Y-70246869D01*
X158006444Y-70282248D01*
X157948429Y-70329859D01*
X157900818Y-70387874D01*
X157865439Y-70454062D01*
X157843653Y-70525881D01*
X157836297Y-70600570D01*
X157836297Y-72599550D01*
X157843653Y-72674239D01*
X157865439Y-72746058D01*
X157900818Y-72812246D01*
X157948429Y-72870261D01*
X158006444Y-72917872D01*
X158072632Y-72953251D01*
X158144451Y-72975037D01*
X158219140Y-72982393D01*
X160961443Y-72982393D01*
X161719260Y-73740210D01*
X162477077Y-72982393D01*
X163703000Y-72982393D01*
X163703000Y-75218987D01*
X162479617Y-75218987D01*
X161719260Y-74458630D01*
X160958903Y-75218987D01*
X158219140Y-75218987D01*
X158144451Y-75226343D01*
X158072632Y-75248129D01*
X158006444Y-75283508D01*
X157948429Y-75331119D01*
X157900818Y-75389134D01*
X157865439Y-75455322D01*
X157843653Y-75527141D01*
X157836297Y-75601830D01*
X157836297Y-77600810D01*
X157843653Y-77675499D01*
X157865439Y-77747318D01*
X157900818Y-77813506D01*
X157948429Y-77871521D01*
X158006444Y-77919132D01*
X158072632Y-77954511D01*
X158144451Y-77976297D01*
X158219140Y-77983653D01*
X160961443Y-77983653D01*
X161719260Y-78741470D01*
X162477077Y-77983653D01*
X163703000Y-77983653D01*
X163703000Y-80217707D01*
X162477077Y-80217707D01*
X161719260Y-79459890D01*
X160961443Y-80217707D01*
X158219140Y-80217707D01*
X158144451Y-80225063D01*
X158072632Y-80246849D01*
X158006444Y-80282228D01*
X157948429Y-80329839D01*
X157900818Y-80387854D01*
X157865439Y-80454042D01*
X157843653Y-80525861D01*
X157836297Y-80600550D01*
X157836297Y-82599530D01*
X157843653Y-82674219D01*
X157865439Y-82746038D01*
X157900818Y-82812226D01*
X157948429Y-82870241D01*
X158006444Y-82917852D01*
X158072632Y-82953231D01*
X158144451Y-82975017D01*
X158219140Y-82982373D01*
X160961443Y-82982373D01*
X161719260Y-83740190D01*
X162477077Y-82982373D01*
X163703000Y-82982373D01*
X163703000Y-85218967D01*
X162479617Y-85218967D01*
X161719260Y-84458610D01*
X160958903Y-85218967D01*
X158219140Y-85218967D01*
X158144451Y-85226323D01*
X158072632Y-85248109D01*
X158006444Y-85283488D01*
X157948429Y-85331099D01*
X157900818Y-85389114D01*
X157865439Y-85455302D01*
X157843653Y-85527121D01*
X157836297Y-85601810D01*
X157836297Y-87600790D01*
X157843653Y-87675479D01*
X157865439Y-87747298D01*
X157900818Y-87813486D01*
X157948429Y-87871501D01*
X158006444Y-87919112D01*
X158072632Y-87954491D01*
X158144451Y-87976277D01*
X158219140Y-87983633D01*
X160961443Y-87983633D01*
X161719260Y-88741450D01*
X162477077Y-87983633D01*
X163703000Y-87983633D01*
X163703000Y-90217687D01*
X162477077Y-90217687D01*
X161719260Y-89459870D01*
X160961443Y-90217687D01*
X158219140Y-90217687D01*
X158144451Y-90225043D01*
X158072632Y-90246829D01*
X158006444Y-90282208D01*
X157948429Y-90329819D01*
X157900818Y-90387834D01*
X157865439Y-90454022D01*
X157843653Y-90525841D01*
X157836297Y-90600530D01*
X157836297Y-92599510D01*
X157843653Y-92674199D01*
X157865439Y-92746018D01*
X157900818Y-92812206D01*
X157948429Y-92870221D01*
X158006444Y-92917832D01*
X158072632Y-92953211D01*
X158144451Y-92974997D01*
X158219140Y-92982353D01*
X160961443Y-92982353D01*
X161719260Y-93740170D01*
X162477077Y-92982353D01*
X163703000Y-92982353D01*
X163703000Y-95218947D01*
X162479617Y-95218947D01*
X161719260Y-94458590D01*
X160958903Y-95218947D01*
X158219140Y-95218947D01*
X158144451Y-95226303D01*
X158072632Y-95248089D01*
X158006444Y-95283468D01*
X157948429Y-95331079D01*
X157900818Y-95389094D01*
X157865439Y-95455282D01*
X157843653Y-95527101D01*
X157836297Y-95601790D01*
X157836297Y-97600770D01*
X157843653Y-97675459D01*
X157865439Y-97747278D01*
X157900818Y-97813466D01*
X157948429Y-97871481D01*
X158006444Y-97919092D01*
X158072632Y-97954471D01*
X158144451Y-97976257D01*
X158219140Y-97983613D01*
X160961443Y-97983613D01*
X161719260Y-98741430D01*
X162477077Y-97983613D01*
X163703000Y-97983613D01*
X163703000Y-100217667D01*
X162477077Y-100217667D01*
X161719260Y-99459850D01*
X160961443Y-100217667D01*
X158219140Y-100217667D01*
X158144451Y-100225023D01*
X158072632Y-100246809D01*
X158006444Y-100282188D01*
X157948429Y-100329799D01*
X157900818Y-100387814D01*
X157865439Y-100454002D01*
X157843653Y-100525821D01*
X157836297Y-100600510D01*
X157836297Y-102599490D01*
X157843653Y-102674179D01*
X157865439Y-102745998D01*
X157900818Y-102812186D01*
X157948429Y-102870201D01*
X158006444Y-102917812D01*
X158072632Y-102953191D01*
X158144451Y-102974977D01*
X158219140Y-102982333D01*
X160961443Y-102982333D01*
X161719260Y-103740150D01*
X162477077Y-102982333D01*
X163703000Y-102982333D01*
X163703000Y-105218927D01*
X162479617Y-105218927D01*
X161719260Y-104458570D01*
X160958903Y-105218927D01*
X158219140Y-105218927D01*
X158144451Y-105226283D01*
X158072632Y-105248069D01*
X158006444Y-105283448D01*
X157948429Y-105331059D01*
X157900818Y-105389074D01*
X157865439Y-105455262D01*
X157843653Y-105527081D01*
X157836297Y-105601770D01*
X157836297Y-107600750D01*
X157843653Y-107675439D01*
X157865439Y-107747258D01*
X157900818Y-107813446D01*
X157948429Y-107871461D01*
X158006444Y-107919072D01*
X158072632Y-107954451D01*
X158144451Y-107976237D01*
X158219140Y-107983593D01*
X161105070Y-107983593D01*
X160909682Y-108114147D01*
X160732787Y-108291042D01*
X160593801Y-108499049D01*
X160498065Y-108730175D01*
X160449260Y-108975536D01*
X160449260Y-109225704D01*
X160498065Y-109471065D01*
X160593801Y-109702191D01*
X160732787Y-109910198D01*
X160909682Y-110087093D01*
X161105070Y-110217647D01*
X158219140Y-110217647D01*
X158144451Y-110225003D01*
X158072632Y-110246789D01*
X158006444Y-110282168D01*
X157948429Y-110329779D01*
X157900818Y-110387794D01*
X157865439Y-110453982D01*
X157843653Y-110525801D01*
X157836297Y-110600490D01*
X157836297Y-110964980D01*
X154281006Y-110964980D01*
X152781000Y-109464976D01*
X152781000Y-106069433D01*
X152787208Y-106063225D01*
X152877548Y-105928021D01*
X152939776Y-105777789D01*
X152971500Y-105618305D01*
X152971500Y-105455695D01*
X152939776Y-105296211D01*
X152877548Y-105145979D01*
X152787208Y-105010775D01*
X152672225Y-104895792D01*
X152537021Y-104805452D01*
X152386789Y-104743224D01*
X152227305Y-104711500D01*
X152064695Y-104711500D01*
X151905211Y-104743224D01*
X151754979Y-104805452D01*
X151619775Y-104895792D01*
X151504792Y-105010775D01*
X151414452Y-105145979D01*
X151368760Y-105256289D01*
X151368760Y-103993802D01*
X160191529Y-103993802D01*
X160200291Y-104293876D01*
X160267426Y-104586475D01*
X160348216Y-104781521D01*
X160585826Y-104873584D01*
X161360050Y-104099360D01*
X162078470Y-104099360D01*
X162852694Y-104873584D01*
X163090304Y-104781521D01*
X163197042Y-104500936D01*
X163246991Y-104204918D01*
X163238229Y-103904844D01*
X163171094Y-103612245D01*
X163090304Y-103417199D01*
X162852694Y-103325136D01*
X162078470Y-104099360D01*
X161360050Y-104099360D01*
X160585826Y-103325136D01*
X160348216Y-103417199D01*
X160241478Y-103697784D01*
X160191529Y-103993802D01*
X151368760Y-103993802D01*
X151368760Y-98995082D01*
X160191529Y-98995082D01*
X160200291Y-99295156D01*
X160267426Y-99587755D01*
X160348216Y-99782801D01*
X160585826Y-99874864D01*
X161360050Y-99100640D01*
X162078470Y-99100640D01*
X162852694Y-99874864D01*
X163090304Y-99782801D01*
X163197042Y-99502216D01*
X163246991Y-99206198D01*
X163238229Y-98906124D01*
X163171094Y-98613525D01*
X163090304Y-98418479D01*
X162852694Y-98326416D01*
X162078470Y-99100640D01*
X161360050Y-99100640D01*
X160585826Y-98326416D01*
X160348216Y-98418479D01*
X160241478Y-98699064D01*
X160191529Y-98995082D01*
X151368760Y-98995082D01*
X151368760Y-97297940D01*
X151371831Y-97266759D01*
X151368760Y-97235578D01*
X151368760Y-97235568D01*
X151359572Y-97142278D01*
X151323262Y-97022580D01*
X151270322Y-96923537D01*
X151264297Y-96912265D01*
X151222334Y-96861133D01*
X151184945Y-96815575D01*
X151160715Y-96795690D01*
X148358847Y-93993822D01*
X160191529Y-93993822D01*
X160200291Y-94293896D01*
X160267426Y-94586495D01*
X160348216Y-94781541D01*
X160585826Y-94873604D01*
X161360050Y-94099380D01*
X162078470Y-94099380D01*
X162852694Y-94873604D01*
X163090304Y-94781541D01*
X163197042Y-94500956D01*
X163246991Y-94204938D01*
X163238229Y-93904864D01*
X163171094Y-93612265D01*
X163090304Y-93417219D01*
X162852694Y-93325156D01*
X162078470Y-94099380D01*
X161360050Y-94099380D01*
X160585826Y-93325156D01*
X160348216Y-93417219D01*
X160241478Y-93697804D01*
X160191529Y-93993822D01*
X148358847Y-93993822D01*
X143360127Y-88995102D01*
X160191529Y-88995102D01*
X160200291Y-89295176D01*
X160267426Y-89587775D01*
X160348216Y-89782821D01*
X160585826Y-89874884D01*
X161360050Y-89100660D01*
X162078470Y-89100660D01*
X162852694Y-89874884D01*
X163090304Y-89782821D01*
X163197042Y-89502236D01*
X163246991Y-89206218D01*
X163238229Y-88906144D01*
X163171094Y-88613545D01*
X163090304Y-88418499D01*
X162852694Y-88326436D01*
X162078470Y-89100660D01*
X161360050Y-89100660D01*
X160585826Y-88326436D01*
X160348216Y-88418499D01*
X160241478Y-88699084D01*
X160191529Y-88995102D01*
X143360127Y-88995102D01*
X142965074Y-88600050D01*
X142945185Y-88575815D01*
X142848494Y-88496463D01*
X142738180Y-88437498D01*
X142618482Y-88401188D01*
X142525192Y-88392000D01*
X142525181Y-88392000D01*
X142494000Y-88388929D01*
X142462819Y-88392000D01*
X142189186Y-88392000D01*
X142212701Y-88348008D01*
X142234487Y-88276189D01*
X142241843Y-88201500D01*
X142241843Y-87058500D01*
X142234487Y-86983811D01*
X142212701Y-86911992D01*
X142177322Y-86845804D01*
X142129711Y-86787789D01*
X142071696Y-86740178D01*
X142005508Y-86704799D01*
X141933689Y-86683013D01*
X141859000Y-86675657D01*
X141351000Y-86675657D01*
X141276311Y-86683013D01*
X141204492Y-86704799D01*
X141138304Y-86740178D01*
X141080289Y-86787789D01*
X141032678Y-86845804D01*
X140997299Y-86911992D01*
X140975513Y-86983811D01*
X140970000Y-87039787D01*
X140964487Y-86983811D01*
X140942701Y-86911992D01*
X140907322Y-86845804D01*
X140859711Y-86787789D01*
X140801696Y-86740178D01*
X140735508Y-86704799D01*
X140663689Y-86683013D01*
X140589000Y-86675657D01*
X140081000Y-86675657D01*
X140006311Y-86683013D01*
X139934492Y-86704799D01*
X139868304Y-86740178D01*
X139810289Y-86787789D01*
X139762678Y-86845804D01*
X139727299Y-86911992D01*
X139705513Y-86983811D01*
X139700000Y-87039787D01*
X139700000Y-76866180D01*
X139703071Y-76834999D01*
X139700000Y-76803818D01*
X139700000Y-76803808D01*
X139690812Y-76710518D01*
X139654502Y-76590820D01*
X139595538Y-76480507D01*
X139595537Y-76480505D01*
X139536068Y-76408043D01*
X139516185Y-76383815D01*
X139491956Y-76363931D01*
X135091074Y-71963050D01*
X135071185Y-71938815D01*
X134974494Y-71859463D01*
X134864180Y-71800498D01*
X134744482Y-71764188D01*
X134651192Y-71755000D01*
X134651181Y-71755000D01*
X134620000Y-71751929D01*
X134588819Y-71755000D01*
X128397000Y-71755000D01*
X128397000Y-64779024D01*
X139954001Y-76336026D01*
X139954000Y-83414567D01*
X139947792Y-83420775D01*
X139857452Y-83555979D01*
X139795224Y-83706211D01*
X139763500Y-83865695D01*
X139763500Y-84028305D01*
X139795224Y-84187789D01*
X139857452Y-84338021D01*
X139947792Y-84473225D01*
X140062775Y-84588208D01*
X140197979Y-84678548D01*
X140348211Y-84740776D01*
X140507695Y-84772500D01*
X140670305Y-84772500D01*
X140829789Y-84740776D01*
X140980021Y-84678548D01*
X141115225Y-84588208D01*
X141230208Y-84473225D01*
X141320548Y-84338021D01*
X141382776Y-84187789D01*
X141414500Y-84028305D01*
X141414500Y-83993842D01*
X160191529Y-83993842D01*
X160200291Y-84293916D01*
X160267426Y-84586515D01*
X160348216Y-84781561D01*
X160585826Y-84873624D01*
X161360050Y-84099400D01*
X162078470Y-84099400D01*
X162852694Y-84873624D01*
X163090304Y-84781561D01*
X163197042Y-84500976D01*
X163246991Y-84204958D01*
X163238229Y-83904884D01*
X163171094Y-83612285D01*
X163090304Y-83417239D01*
X162852694Y-83325176D01*
X162078470Y-84099400D01*
X161360050Y-84099400D01*
X160585826Y-83325176D01*
X160348216Y-83417239D01*
X160241478Y-83697824D01*
X160191529Y-83993842D01*
X141414500Y-83993842D01*
X141414500Y-83865695D01*
X141382776Y-83706211D01*
X141320548Y-83555979D01*
X141230208Y-83420775D01*
X141224000Y-83414567D01*
X141224000Y-78995122D01*
X160191529Y-78995122D01*
X160200291Y-79295196D01*
X160267426Y-79587795D01*
X160348216Y-79782841D01*
X160585826Y-79874904D01*
X161360050Y-79100680D01*
X162078470Y-79100680D01*
X162852694Y-79874904D01*
X163090304Y-79782841D01*
X163197042Y-79502256D01*
X163246991Y-79206238D01*
X163238229Y-78906164D01*
X163171094Y-78613565D01*
X163090304Y-78418519D01*
X162852694Y-78326456D01*
X162078470Y-79100680D01*
X161360050Y-79100680D01*
X160585826Y-78326456D01*
X160348216Y-78418519D01*
X160241478Y-78699104D01*
X160191529Y-78995122D01*
X141224000Y-78995122D01*
X141224000Y-76104180D01*
X141227071Y-76072999D01*
X141224000Y-76041818D01*
X141224000Y-76041808D01*
X141214812Y-75948518D01*
X141178502Y-75828820D01*
X141119537Y-75718506D01*
X141040185Y-75621815D01*
X141015955Y-75601930D01*
X139407887Y-73993862D01*
X160191529Y-73993862D01*
X160200291Y-74293936D01*
X160267426Y-74586535D01*
X160348216Y-74781581D01*
X160585826Y-74873644D01*
X161360050Y-74099420D01*
X162078470Y-74099420D01*
X162852694Y-74873644D01*
X163090304Y-74781581D01*
X163197042Y-74500996D01*
X163246991Y-74204978D01*
X163238229Y-73904904D01*
X163171094Y-73612305D01*
X163090304Y-73417259D01*
X162852694Y-73325196D01*
X162078470Y-74099420D01*
X161360050Y-74099420D01*
X160585826Y-73325196D01*
X160348216Y-73417259D01*
X160241478Y-73697844D01*
X160191529Y-73993862D01*
X139407887Y-73993862D01*
X134409167Y-68995142D01*
X160191529Y-68995142D01*
X160200291Y-69295216D01*
X160267426Y-69587815D01*
X160348216Y-69782861D01*
X160585826Y-69874924D01*
X161360050Y-69100700D01*
X162078470Y-69100700D01*
X162852694Y-69874924D01*
X163090304Y-69782861D01*
X163197042Y-69502276D01*
X163246991Y-69206258D01*
X163238229Y-68906184D01*
X163171094Y-68613585D01*
X163090304Y-68418539D01*
X162852694Y-68326476D01*
X162078470Y-69100700D01*
X161360050Y-69100700D01*
X160585826Y-68326476D01*
X160348216Y-68418539D01*
X160241478Y-68699124D01*
X160191529Y-68995142D01*
X134409167Y-68995142D01*
X128397000Y-62982976D01*
X128397000Y-60597050D01*
X135255203Y-67455254D01*
G36*
X134620000Y-85988026D02*
G01*
X134620001Y-87039780D01*
X134620000Y-87039787D01*
X134614487Y-86983811D01*
X134592701Y-86911992D01*
X134557322Y-86845804D01*
X134509711Y-86787789D01*
X134451696Y-86740178D01*
X134385508Y-86704799D01*
X134313689Y-86683013D01*
X134239000Y-86675657D01*
X133731000Y-86675657D01*
X133656311Y-86683013D01*
X133584492Y-86704799D01*
X133519178Y-86739711D01*
X133505782Y-86713535D01*
X133428169Y-86615442D01*
X133332910Y-86534376D01*
X133223666Y-86473452D01*
X133104635Y-86435011D01*
X133000750Y-86423500D01*
X132842000Y-86582250D01*
X132842000Y-87376000D01*
X132969000Y-87376000D01*
X132969000Y-87884000D01*
X132842000Y-87884000D01*
X132842000Y-88677750D01*
X133000750Y-88836500D01*
X133104635Y-88824989D01*
X133223666Y-88786548D01*
X133332910Y-88725624D01*
X133350001Y-88711080D01*
X133350001Y-88868809D01*
X133346929Y-88900000D01*
X133359189Y-89024481D01*
X133395498Y-89144179D01*
X133454463Y-89254493D01*
X133476217Y-89281000D01*
X133533816Y-89351185D01*
X133558044Y-89371068D01*
X134356975Y-90170000D01*
X133508189Y-90170000D01*
X133477000Y-90166928D01*
X133445811Y-90170000D01*
X133445808Y-90170000D01*
X133352518Y-90179188D01*
X133232820Y-90215498D01*
X133122506Y-90274462D01*
X133050043Y-90333931D01*
X133050039Y-90333935D01*
X133025815Y-90353815D01*
X133005934Y-90378040D01*
X132769475Y-90614500D01*
X131076686Y-90614500D01*
X131064822Y-90592304D01*
X131017211Y-90534289D01*
X130959196Y-90486678D01*
X130893008Y-90451299D01*
X130821189Y-90429513D01*
X130771452Y-90424615D01*
X130870982Y-90414812D01*
X130990680Y-90378502D01*
X131100994Y-90319537D01*
X131197685Y-90240185D01*
X131277037Y-90143494D01*
X131336002Y-90033180D01*
X131372312Y-89913482D01*
X131384572Y-89789000D01*
X131381500Y-89757250D01*
X131222750Y-89598500D01*
X130302000Y-89598500D01*
X130302000Y-89618500D01*
X129794000Y-89618500D01*
X129794000Y-89598500D01*
X128873250Y-89598500D01*
X128714500Y-89757250D01*
X128711428Y-89789000D01*
X128723688Y-89913482D01*
X128759998Y-90033180D01*
X128818963Y-90143494D01*
X128898315Y-90240185D01*
X128995006Y-90319537D01*
X129105320Y-90378502D01*
X129225018Y-90414812D01*
X129324548Y-90424615D01*
X129274811Y-90429513D01*
X129202992Y-90451299D01*
X129136804Y-90486678D01*
X129078789Y-90534289D01*
X129031178Y-90592304D01*
X128995799Y-90658492D01*
X128974013Y-90730311D01*
X128966657Y-90805000D01*
X128966657Y-91694000D01*
X128974013Y-91768689D01*
X128995799Y-91840508D01*
X129031178Y-91906696D01*
X129078789Y-91964711D01*
X129136804Y-92012322D01*
X129202992Y-92047701D01*
X129274811Y-92069487D01*
X129349500Y-92076843D01*
X130746500Y-92076843D01*
X130821189Y-92069487D01*
X130893008Y-92047701D01*
X130959196Y-92012322D01*
X131017211Y-91964711D01*
X131064822Y-91906696D01*
X131076686Y-91884500D01*
X132080001Y-91884500D01*
X132080001Y-92119782D01*
X132078157Y-92138500D01*
X132078157Y-93281500D01*
X132085513Y-93356189D01*
X132107299Y-93428008D01*
X132142678Y-93494196D01*
X132190289Y-93552211D01*
X132248304Y-93599822D01*
X132314492Y-93635201D01*
X132386311Y-93656987D01*
X132461000Y-93664343D01*
X132969000Y-93664343D01*
X133043689Y-93656987D01*
X133115508Y-93635201D01*
X133181696Y-93599822D01*
X133239711Y-93552211D01*
X133287322Y-93494196D01*
X133322701Y-93428008D01*
X133344487Y-93356189D01*
X133350000Y-93300216D01*
X133350001Y-93300220D01*
X133350000Y-94207696D01*
X133212979Y-94264452D01*
X133077775Y-94354792D01*
X132962792Y-94469775D01*
X132872452Y-94604979D01*
X132810224Y-94755211D01*
X132778500Y-94914695D01*
X132778500Y-95077305D01*
X132810224Y-95236789D01*
X132872452Y-95387021D01*
X132962792Y-95522225D01*
X133077775Y-95637208D01*
X133212979Y-95727548D01*
X133363211Y-95789776D01*
X133522695Y-95821500D01*
X133685305Y-95821500D01*
X133844789Y-95789776D01*
X133995021Y-95727548D01*
X134130225Y-95637208D01*
X134245208Y-95522225D01*
X134335548Y-95387021D01*
X134397776Y-95236789D01*
X134429500Y-95077305D01*
X134429500Y-95071671D01*
X134436185Y-95066185D01*
X134495851Y-94993482D01*
X134515537Y-94969495D01*
X134562106Y-94882370D01*
X134574502Y-94859180D01*
X134610812Y-94739482D01*
X134620000Y-94646192D01*
X134620000Y-95621975D01*
X134356975Y-95885000D01*
X128397000Y-95885000D01*
X128397000Y-88900000D01*
X128711428Y-88900000D01*
X128714500Y-88931750D01*
X128873250Y-89090500D01*
X129794000Y-89090500D01*
X129794000Y-88423750D01*
X130302000Y-88423750D01*
X130302000Y-89090500D01*
X131222750Y-89090500D01*
X131381500Y-88931750D01*
X131384572Y-88900000D01*
X131372312Y-88775518D01*
X131336002Y-88655820D01*
X131277037Y-88545506D01*
X131197685Y-88448815D01*
X131100994Y-88369463D01*
X130990680Y-88310498D01*
X130870982Y-88274188D01*
X130746500Y-88261928D01*
X130460750Y-88265000D01*
X130302000Y-88423750D01*
X129794000Y-88423750D01*
X129635250Y-88265000D01*
X129349500Y-88261928D01*
X129225018Y-88274188D01*
X129105320Y-88310498D01*
X128995006Y-88369463D01*
X128898315Y-88448815D01*
X128818963Y-88545506D01*
X128759998Y-88655820D01*
X128723688Y-88775518D01*
X128711428Y-88900000D01*
X128397000Y-88900000D01*
X128397000Y-88190108D01*
X131823030Y-88190108D01*
X131833066Y-88314788D01*
X131867233Y-88435116D01*
X131924218Y-88546465D01*
X132001831Y-88644558D01*
X132097090Y-88725624D01*
X132206334Y-88786548D01*
X132325365Y-88824989D01*
X132429250Y-88836500D01*
X132588000Y-88677750D01*
X132588000Y-87884000D01*
X131984750Y-87884000D01*
X131826000Y-88042750D01*
X131823030Y-88190108D01*
X128397000Y-88190108D01*
X128397000Y-87069892D01*
X131823030Y-87069892D01*
X131826000Y-87217250D01*
X131984750Y-87376000D01*
X132588000Y-87376000D01*
X132588000Y-86582250D01*
X132429250Y-86423500D01*
X132325365Y-86435011D01*
X132206334Y-86473452D01*
X132097090Y-86534376D01*
X132001831Y-86615442D01*
X131924218Y-86713535D01*
X131867233Y-86824884D01*
X131833066Y-86945212D01*
X131823030Y-87069892D01*
X128397000Y-87069892D01*
X128397000Y-85725000D01*
X134356975Y-85725000D01*
X134620000Y-85988026D01*
G37*
X134620000Y-85988026D02*
X134620001Y-87039780D01*
X134620000Y-87039787D01*
X134614487Y-86983811D01*
X134592701Y-86911992D01*
X134557322Y-86845804D01*
X134509711Y-86787789D01*
X134451696Y-86740178D01*
X134385508Y-86704799D01*
X134313689Y-86683013D01*
X134239000Y-86675657D01*
X133731000Y-86675657D01*
X133656311Y-86683013D01*
X133584492Y-86704799D01*
X133519178Y-86739711D01*
X133505782Y-86713535D01*
X133428169Y-86615442D01*
X133332910Y-86534376D01*
X133223666Y-86473452D01*
X133104635Y-86435011D01*
X133000750Y-86423500D01*
X132842000Y-86582250D01*
X132842000Y-87376000D01*
X132969000Y-87376000D01*
X132969000Y-87884000D01*
X132842000Y-87884000D01*
X132842000Y-88677750D01*
X133000750Y-88836500D01*
X133104635Y-88824989D01*
X133223666Y-88786548D01*
X133332910Y-88725624D01*
X133350001Y-88711080D01*
X133350001Y-88868809D01*
X133346929Y-88900000D01*
X133359189Y-89024481D01*
X133395498Y-89144179D01*
X133454463Y-89254493D01*
X133476217Y-89281000D01*
X133533816Y-89351185D01*
X133558044Y-89371068D01*
X134356975Y-90170000D01*
X133508189Y-90170000D01*
X133477000Y-90166928D01*
X133445811Y-90170000D01*
X133445808Y-90170000D01*
X133352518Y-90179188D01*
X133232820Y-90215498D01*
X133122506Y-90274462D01*
X133050043Y-90333931D01*
X133050039Y-90333935D01*
X133025815Y-90353815D01*
X133005934Y-90378040D01*
X132769475Y-90614500D01*
X131076686Y-90614500D01*
X131064822Y-90592304D01*
X131017211Y-90534289D01*
X130959196Y-90486678D01*
X130893008Y-90451299D01*
X130821189Y-90429513D01*
X130771452Y-90424615D01*
X130870982Y-90414812D01*
X130990680Y-90378502D01*
X131100994Y-90319537D01*
X131197685Y-90240185D01*
X131277037Y-90143494D01*
X131336002Y-90033180D01*
X131372312Y-89913482D01*
X131384572Y-89789000D01*
X131381500Y-89757250D01*
X131222750Y-89598500D01*
X130302000Y-89598500D01*
X130302000Y-89618500D01*
X129794000Y-89618500D01*
X129794000Y-89598500D01*
X128873250Y-89598500D01*
X128714500Y-89757250D01*
X128711428Y-89789000D01*
X128723688Y-89913482D01*
X128759998Y-90033180D01*
X128818963Y-90143494D01*
X128898315Y-90240185D01*
X128995006Y-90319537D01*
X129105320Y-90378502D01*
X129225018Y-90414812D01*
X129324548Y-90424615D01*
X129274811Y-90429513D01*
X129202992Y-90451299D01*
X129136804Y-90486678D01*
X129078789Y-90534289D01*
X129031178Y-90592304D01*
X128995799Y-90658492D01*
X128974013Y-90730311D01*
X128966657Y-90805000D01*
X128966657Y-91694000D01*
X128974013Y-91768689D01*
X128995799Y-91840508D01*
X129031178Y-91906696D01*
X129078789Y-91964711D01*
X129136804Y-92012322D01*
X129202992Y-92047701D01*
X129274811Y-92069487D01*
X129349500Y-92076843D01*
X130746500Y-92076843D01*
X130821189Y-92069487D01*
X130893008Y-92047701D01*
X130959196Y-92012322D01*
X131017211Y-91964711D01*
X131064822Y-91906696D01*
X131076686Y-91884500D01*
X132080001Y-91884500D01*
X132080001Y-92119782D01*
X132078157Y-92138500D01*
X132078157Y-93281500D01*
X132085513Y-93356189D01*
X132107299Y-93428008D01*
X132142678Y-93494196D01*
X132190289Y-93552211D01*
X132248304Y-93599822D01*
X132314492Y-93635201D01*
X132386311Y-93656987D01*
X132461000Y-93664343D01*
X132969000Y-93664343D01*
X133043689Y-93656987D01*
X133115508Y-93635201D01*
X133181696Y-93599822D01*
X133239711Y-93552211D01*
X133287322Y-93494196D01*
X133322701Y-93428008D01*
X133344487Y-93356189D01*
X133350000Y-93300216D01*
X133350001Y-93300220D01*
X133350000Y-94207696D01*
X133212979Y-94264452D01*
X133077775Y-94354792D01*
X132962792Y-94469775D01*
X132872452Y-94604979D01*
X132810224Y-94755211D01*
X132778500Y-94914695D01*
X132778500Y-95077305D01*
X132810224Y-95236789D01*
X132872452Y-95387021D01*
X132962792Y-95522225D01*
X133077775Y-95637208D01*
X133212979Y-95727548D01*
X133363211Y-95789776D01*
X133522695Y-95821500D01*
X133685305Y-95821500D01*
X133844789Y-95789776D01*
X133995021Y-95727548D01*
X134130225Y-95637208D01*
X134245208Y-95522225D01*
X134335548Y-95387021D01*
X134397776Y-95236789D01*
X134429500Y-95077305D01*
X134429500Y-95071671D01*
X134436185Y-95066185D01*
X134495851Y-94993482D01*
X134515537Y-94969495D01*
X134562106Y-94882370D01*
X134574502Y-94859180D01*
X134610812Y-94739482D01*
X134620000Y-94646192D01*
X134620000Y-95621975D01*
X134356975Y-95885000D01*
X128397000Y-95885000D01*
X128397000Y-88900000D01*
X128711428Y-88900000D01*
X128714500Y-88931750D01*
X128873250Y-89090500D01*
X129794000Y-89090500D01*
X129794000Y-88423750D01*
X130302000Y-88423750D01*
X130302000Y-89090500D01*
X131222750Y-89090500D01*
X131381500Y-88931750D01*
X131384572Y-88900000D01*
X131372312Y-88775518D01*
X131336002Y-88655820D01*
X131277037Y-88545506D01*
X131197685Y-88448815D01*
X131100994Y-88369463D01*
X130990680Y-88310498D01*
X130870982Y-88274188D01*
X130746500Y-88261928D01*
X130460750Y-88265000D01*
X130302000Y-88423750D01*
X129794000Y-88423750D01*
X129635250Y-88265000D01*
X129349500Y-88261928D01*
X129225018Y-88274188D01*
X129105320Y-88310498D01*
X128995006Y-88369463D01*
X128898315Y-88448815D01*
X128818963Y-88545506D01*
X128759998Y-88655820D01*
X128723688Y-88775518D01*
X128711428Y-88900000D01*
X128397000Y-88900000D01*
X128397000Y-88190108D01*
X131823030Y-88190108D01*
X131833066Y-88314788D01*
X131867233Y-88435116D01*
X131924218Y-88546465D01*
X132001831Y-88644558D01*
X132097090Y-88725624D01*
X132206334Y-88786548D01*
X132325365Y-88824989D01*
X132429250Y-88836500D01*
X132588000Y-88677750D01*
X132588000Y-87884000D01*
X131984750Y-87884000D01*
X131826000Y-88042750D01*
X131823030Y-88190108D01*
X128397000Y-88190108D01*
X128397000Y-87069892D01*
X131823030Y-87069892D01*
X131826000Y-87217250D01*
X131984750Y-87376000D01*
X132588000Y-87376000D01*
X132588000Y-86582250D01*
X132429250Y-86423500D01*
X132325365Y-86435011D01*
X132206334Y-86473452D01*
X132097090Y-86534376D01*
X132001831Y-86615442D01*
X131924218Y-86713535D01*
X131867233Y-86824884D01*
X131833066Y-86945212D01*
X131823030Y-87069892D01*
X128397000Y-87069892D01*
X128397000Y-85725000D01*
X134356975Y-85725000D01*
X134620000Y-85988026D01*
G36*
X163703000Y-65219007D02*
G01*
X162479617Y-65219007D01*
X161719260Y-64458650D01*
X160958903Y-65219007D01*
X158219140Y-65219007D01*
X158144451Y-65226363D01*
X158072632Y-65248149D01*
X158006444Y-65283528D01*
X157948429Y-65331139D01*
X157948264Y-65331340D01*
X136723391Y-65331340D01*
X135385933Y-63993882D01*
X160191529Y-63993882D01*
X160200291Y-64293956D01*
X160267426Y-64586555D01*
X160348216Y-64781601D01*
X160585826Y-64873664D01*
X161360050Y-64099440D01*
X162078470Y-64099440D01*
X162852694Y-64873664D01*
X163090304Y-64781601D01*
X163197042Y-64501016D01*
X163246991Y-64204998D01*
X163238229Y-63904924D01*
X163171094Y-63612325D01*
X163090304Y-63417279D01*
X162852694Y-63325216D01*
X162078470Y-64099440D01*
X161360050Y-64099440D01*
X160585826Y-63325216D01*
X160348216Y-63417279D01*
X160241478Y-63697864D01*
X160191529Y-63993882D01*
X135385933Y-63993882D01*
X134358057Y-62966006D01*
X160945036Y-62966006D01*
X161719260Y-63740230D01*
X162493484Y-62966006D01*
X162401421Y-62728396D01*
X162120836Y-62621658D01*
X161824818Y-62571709D01*
X161524744Y-62580471D01*
X161232145Y-62647606D01*
X161037099Y-62728396D01*
X160945036Y-62966006D01*
X134358057Y-62966006D01*
X128397000Y-57004950D01*
X128397000Y-54737000D01*
X163703000Y-54737000D01*
X163703000Y-65219007D01*
G37*
X163703000Y-65219007D02*
X162479617Y-65219007D01*
X161719260Y-64458650D01*
X160958903Y-65219007D01*
X158219140Y-65219007D01*
X158144451Y-65226363D01*
X158072632Y-65248149D01*
X158006444Y-65283528D01*
X157948429Y-65331139D01*
X157948264Y-65331340D01*
X136723391Y-65331340D01*
X135385933Y-63993882D01*
X160191529Y-63993882D01*
X160200291Y-64293956D01*
X160267426Y-64586555D01*
X160348216Y-64781601D01*
X160585826Y-64873664D01*
X161360050Y-64099440D01*
X162078470Y-64099440D01*
X162852694Y-64873664D01*
X163090304Y-64781601D01*
X163197042Y-64501016D01*
X163246991Y-64204998D01*
X163238229Y-63904924D01*
X163171094Y-63612325D01*
X163090304Y-63417279D01*
X162852694Y-63325216D01*
X162078470Y-64099440D01*
X161360050Y-64099440D01*
X160585826Y-63325216D01*
X160348216Y-63417279D01*
X160241478Y-63697864D01*
X160191529Y-63993882D01*
X135385933Y-63993882D01*
X134358057Y-62966006D01*
X160945036Y-62966006D01*
X161719260Y-63740230D01*
X162493484Y-62966006D01*
X162401421Y-62728396D01*
X162120836Y-62621658D01*
X161824818Y-62571709D01*
X161524744Y-62580471D01*
X161232145Y-62647606D01*
X161037099Y-62728396D01*
X160945036Y-62966006D01*
X134358057Y-62966006D01*
X128397000Y-57004950D01*
X128397000Y-54737000D01*
X163703000Y-54737000D01*
X163703000Y-65219007D01*
M02*
