M48
; DRILL file {KiCad (5.1.5)-3} date 30.08.2021 19:45:10
; FORMAT={-:-/ absolute / inch / decimal}
; #@! TF.CreationDate,2021-08-30T19:45:10+02:00
; #@! TF.GenerationSoftware,Kicad,Pcbnew,(5.1.5)-3
; #@! TF.FileFunction,Plated,1,2,PTH
FMAT,2
INCH
T1C0.0250
T2C0.0320
T3C0.0354
T4C0.0591
T5C0.1260
%
G90
G05
T1
X5.085Y-3.915
X5.085Y-4.285
X5.085Y-4.49
X5.2244Y-3.3937
X5.24Y-3.535
X5.26Y-3.74
X5.3268Y-4.7913
X5.425Y-3.98
X5.435Y-3.83
X5.455Y-3.755
X5.535Y-3.305
X5.565Y-5.345
X5.575Y-3.83
X5.575Y-4.565
X5.625Y-4.87
X5.64Y-4.58
X5.67Y-4.23
X5.685Y-4.725
X5.695Y-4.155
X5.755Y-4.685
X5.805Y-4.65
X5.935Y-4.59
X5.99Y-4.155
X5.99Y-4.495
X6.17Y-4.7
X6.175Y-4.495
T2
X5.735Y-5.595
X5.835Y-5.495
X5.835Y-5.595
X5.52Y-5.495
X5.52Y-5.595
T3
X3.3Y-2.7
X3.3Y-3.0
X3.5Y-2.7
X3.5Y-3.0
X3.7Y-2.7
X3.7Y-3.0
X4.0Y-2.7
X4.0Y-3.0
X3.3Y-3.2
X3.3Y-3.5
X3.5Y-3.2
X3.5Y-3.5
X3.7Y-3.2
X3.7Y-3.5
X4.0Y-3.2
X4.0Y-3.5
X4.25Y-3.2
X4.25Y-3.5
X4.55Y-3.2
X4.55Y-3.5
X4.75Y-3.2
X4.75Y-3.5
X4.95Y-3.2
X4.95Y-3.5
X4.25Y-3.7
X4.25Y-4.0
X4.55Y-3.7
X4.55Y-4.0
X4.75Y-3.7
X4.75Y-4.0
X4.95Y-3.7
X4.95Y-4.0
X4.25Y-4.2
X4.25Y-4.5
X4.55Y-4.2
X4.55Y-4.5
X4.75Y-4.2
X4.75Y-4.5
X4.95Y-4.2
X4.95Y-4.5
X3.3Y-4.7
X3.3Y-5.0
X3.5Y-4.7
X3.5Y-5.0
X3.7Y-4.7
X3.7Y-5.0
X4.0Y-4.7
X4.0Y-5.0
X4.25Y-2.7
X4.25Y-3.0
X4.55Y-2.7
X4.55Y-3.0
X4.75Y-2.7
X4.75Y-3.0
X4.95Y-2.7
X4.95Y-3.0
X3.3Y-3.7
X3.3Y-4.0
X3.5Y-3.7
X3.5Y-4.0
X3.7Y-3.7
X3.7Y-4.0
X4.0Y-3.7
X4.0Y-4.0
X4.25Y-4.7
X4.25Y-5.0
X4.55Y-4.7
X4.55Y-5.0
X4.75Y-4.7
X4.75Y-5.0
X4.95Y-4.7
X4.95Y-5.0
X3.3Y-4.2
X3.3Y-4.5
X3.5Y-4.2
X3.5Y-4.5
X3.7Y-4.2
X3.7Y-4.5
X4.0Y-4.2
X4.0Y-4.5
X3.3Y-5.2
X3.3Y-5.5
X3.5Y-5.2
X3.5Y-5.5
X3.7Y-5.2
X3.7Y-5.5
X4.0Y-5.2
X4.0Y-5.5
X4.25Y-5.2
X4.25Y-5.5
X4.55Y-5.2
X4.55Y-5.5
X4.75Y-5.2
X4.75Y-5.5
X4.95Y-5.2
X4.95Y-5.5
X3.3Y-2.2
X3.3Y-2.5
X3.5Y-2.2
X3.5Y-2.5
X3.7Y-2.2
X3.7Y-2.5
X4.0Y-2.2
X4.0Y-2.5
X6.3669Y-2.5236
X6.3669Y-2.6221
X6.3669Y-2.7205
X6.3669Y-2.8189
X6.3669Y-2.9173
X6.3669Y-3.0158
X6.3669Y-3.1142
X6.3669Y-3.2126
X6.3669Y-3.311
X6.3669Y-3.4095
X6.3669Y-3.5079
X6.3669Y-3.6063
X6.3669Y-3.7047
X6.3669Y-3.8032
X6.3669Y-3.9016
X6.3669Y-4.0
X6.3669Y-4.0984
X6.3669Y-4.1969
X6.3669Y-4.2953
X6.3669Y-4.3937
X6.3669Y-4.4921
X6.3669Y-4.5906
X6.3669Y-4.689
X6.3669Y-4.7874
X6.3669Y-4.8858
X6.3669Y-4.9843
X6.3669Y-5.0827
X6.3669Y-5.1811
X6.3669Y-5.2795
X6.3669Y-5.378
X6.3669Y-5.4764
T4
X2.9015Y-2.7205
X2.9015Y-2.9173
X2.9015Y-3.1142
X2.9015Y-3.311
X2.9015Y-3.5079
X2.9015Y-3.7047
X2.9015Y-3.9016
X2.9015Y-4.0984
X2.9015Y-4.2953
X2.9015Y-4.4921
X2.9015Y-4.689
X2.9015Y-4.8858
X2.9015Y-5.0827
X2.9015Y-5.2795
X2.9015Y-5.4764
X2.9016Y-2.5236
X3.0Y-2.6221
X3.0Y-2.8189
X3.0Y-3.0158
X3.0Y-3.2126
X3.0Y-3.4095
X3.0Y-3.6063
X3.0Y-3.8032
X3.0Y-4.0
X3.0Y-4.1969
X3.0Y-4.3937
X3.0Y-4.5906
X3.0Y-4.7874
X3.0Y-4.9843
X3.0Y-5.1811
X3.0Y-5.378
T5
X2.8031Y-2.3268
X2.8031Y-5.6733
T0
M30
