G04 #@! TF.GenerationSoftware,KiCad,Pcbnew,(5.1.5)-3*
G04 #@! TF.CreationDate,2021-08-10T21:54:11+02:00*
G04 #@! TF.ProjectId,eam,65616d2e-6b69-4636-9164-5f7063625858,0429 -*
G04 #@! TF.SameCoordinates,Original*
G04 #@! TF.FileFunction,Copper,L2,Bot*
G04 #@! TF.FilePolarity,Positive*
%FSLAX46Y46*%
G04 Gerber Fmt 4.6, Leading zero omitted, Abs format (unit mm)*
G04 Created by KiCad (PCBNEW (5.1.5)-3) date 2021-08-10 21:54:11*
%MOMM*%
%LPD*%
G04 APERTURE LIST*
%ADD10R,0.889000X1.397000*%
%ADD11R,1.651000X1.651000*%
%ADD12C,1.651000*%
%ADD13R,1.524000X1.524000*%
%ADD14C,1.524000*%
%ADD15R,0.914400X0.914400*%
%ADD16R,1.397000X0.889000*%
%ADD17R,0.406400X1.524000*%
%ADD18R,1.524000X0.406400*%
%ADD19R,0.508000X1.143000*%
%ADD20C,0.889000*%
%ADD21C,0.381000*%
%ADD22C,0.508000*%
%ADD23C,0.254000*%
G04 APERTURE END LIST*
D10*
X120747500Y-135400000D03*
X122652500Y-135400000D03*
X109947500Y-141900000D03*
X111852500Y-141900000D03*
D11*
X103630000Y-142000000D03*
D12*
X106170000Y-142000000D03*
D13*
X114840000Y-144930000D03*
D14*
X114840000Y-147470000D03*
X112300000Y-144930000D03*
X112300000Y-147470000D03*
X109760000Y-144930000D03*
X109760000Y-147470000D03*
D15*
X121216000Y-142589000D03*
X121216000Y-140811000D03*
X119184000Y-141700000D03*
D10*
X122652500Y-138300000D03*
X120747500Y-138300000D03*
D16*
X106900000Y-147652500D03*
X106900000Y-145747500D03*
D17*
X112300000Y-139415000D03*
X111499900Y-139415000D03*
X110699800Y-139415000D03*
X109899700Y-139415000D03*
X109099600Y-139415000D03*
X108299500Y-139415000D03*
X113100100Y-139415000D03*
X113900200Y-139415000D03*
X114700300Y-139415000D03*
X115500400Y-139415000D03*
X116300500Y-139415000D03*
X112300000Y-127985000D03*
X111499900Y-127985000D03*
X110699800Y-127985000D03*
X109899700Y-127985000D03*
X109099600Y-127985000D03*
X108299500Y-127985000D03*
X113100100Y-127985000D03*
X113900200Y-127985000D03*
X114700300Y-127985000D03*
X115500400Y-127985000D03*
X116300500Y-127985000D03*
D18*
X106585000Y-133700000D03*
X118015000Y-133700000D03*
X106585000Y-132899900D03*
X118015000Y-132899900D03*
X118015000Y-132099800D03*
X106585000Y-132099800D03*
X106585000Y-131299700D03*
X118015000Y-131299700D03*
X118015000Y-130499600D03*
X106585000Y-130499600D03*
X106585000Y-129699500D03*
X118015000Y-129699500D03*
X118015000Y-134500100D03*
X106585000Y-134500100D03*
X106585000Y-135300200D03*
X118015000Y-135300200D03*
X118015000Y-136100300D03*
X106585000Y-136100300D03*
X106585000Y-136900400D03*
X118015000Y-136900400D03*
X118015000Y-137700500D03*
X106585000Y-137700500D03*
D19*
X111145000Y-105745000D03*
X109875000Y-105745000D03*
X108605000Y-105745000D03*
X107335000Y-105745000D03*
X106065000Y-105745000D03*
X104795000Y-105745000D03*
X103525000Y-105745000D03*
X102255000Y-105745000D03*
X102255000Y-115905000D03*
X103525000Y-115905000D03*
X104795000Y-115905000D03*
X106065000Y-115905000D03*
X107335000Y-115905000D03*
X108605000Y-115905000D03*
X109875000Y-115905000D03*
X111145000Y-115905000D03*
X100985000Y-115905000D03*
X100985000Y-105745000D03*
X100985000Y-108920000D03*
X100985000Y-119080000D03*
X111145000Y-119080000D03*
X109875000Y-119080000D03*
X108605000Y-119080000D03*
X107335000Y-119080000D03*
X106065000Y-119080000D03*
X104795000Y-119080000D03*
X103525000Y-119080000D03*
X102255000Y-119080000D03*
X102255000Y-108920000D03*
X103525000Y-108920000D03*
X104795000Y-108920000D03*
X106065000Y-108920000D03*
X107335000Y-108920000D03*
X108605000Y-108920000D03*
X109875000Y-108920000D03*
X111145000Y-108920000D03*
X123545000Y-108920000D03*
X122275000Y-108920000D03*
X121005000Y-108920000D03*
X119735000Y-108920000D03*
X118465000Y-108920000D03*
X117195000Y-108920000D03*
X115925000Y-108920000D03*
X114655000Y-108920000D03*
X114655000Y-119080000D03*
X115925000Y-119080000D03*
X117195000Y-119080000D03*
X118465000Y-119080000D03*
X119735000Y-119080000D03*
X121005000Y-119080000D03*
X122275000Y-119080000D03*
X123545000Y-119080000D03*
X113385000Y-119080000D03*
X113385000Y-108920000D03*
X113385000Y-105745000D03*
X113385000Y-115905000D03*
X123545000Y-115905000D03*
X122275000Y-115905000D03*
X121005000Y-115905000D03*
X119735000Y-115905000D03*
X118465000Y-115905000D03*
X117195000Y-115905000D03*
X115925000Y-115905000D03*
X114655000Y-115905000D03*
X114655000Y-105745000D03*
X115925000Y-105745000D03*
X117195000Y-105745000D03*
X118465000Y-105745000D03*
X119735000Y-105745000D03*
X121005000Y-105745000D03*
X122275000Y-105745000D03*
X123545000Y-105745000D03*
D20*
X114500000Y-130300000D03*
X108700000Y-130400000D03*
X110400000Y-135400000D03*
X102300000Y-117900000D03*
X119300000Y-120700000D03*
X115200000Y-120700000D03*
X120600000Y-120700000D03*
X116600000Y-120700000D03*
X122200000Y-120200000D03*
X118000000Y-120700000D03*
X119000000Y-125400000D03*
X123545000Y-120155000D03*
X107400000Y-120700000D03*
X103500000Y-120700000D03*
X108600000Y-120700000D03*
X104900000Y-120700000D03*
X109900000Y-120700000D03*
X106100000Y-120700000D03*
X111100000Y-120700000D03*
X113900000Y-120700000D03*
X102100000Y-110700000D03*
X115900000Y-103600000D03*
X120300000Y-113800000D03*
X116700000Y-112700000D03*
X117300000Y-102700000D03*
X121300000Y-113200000D03*
X118000000Y-112700000D03*
X118400000Y-101300000D03*
X122400000Y-112600000D03*
X119300000Y-112700000D03*
X123200000Y-104500000D03*
X123600000Y-112900000D03*
X104100000Y-103900000D03*
X108000000Y-114000000D03*
X104400000Y-112600000D03*
X105300000Y-103000000D03*
X109600000Y-112800000D03*
X106000000Y-112700000D03*
X108000000Y-103100000D03*
X110600000Y-113400000D03*
X107800000Y-112700000D03*
X110000000Y-103300000D03*
X111600000Y-114100000D03*
X115300000Y-112700000D03*
X114300000Y-137300000D03*
X112000000Y-135600000D03*
X116300000Y-133600000D03*
X115400000Y-132700000D03*
X113300000Y-141200000D03*
X114000000Y-132600000D03*
X110800000Y-132600000D03*
X104900000Y-131400000D03*
X108900000Y-143300000D03*
X110800000Y-130200000D03*
X114400000Y-134800000D03*
X120100000Y-133600000D03*
X122700000Y-133700000D03*
X121200000Y-144000000D03*
X101000000Y-114300000D03*
X101000000Y-111500000D03*
X113900000Y-114300000D03*
X113900000Y-112800000D03*
X111700000Y-124300000D03*
X101300000Y-120600000D03*
X113300000Y-103300000D03*
D21*
X114900000Y-129900000D02*
X115600000Y-129900000D01*
X114500000Y-130300000D02*
X114900000Y-129900000D01*
X112300000Y-139415000D02*
X112300000Y-140900000D01*
X109300000Y-140700000D02*
X108500000Y-141500000D01*
X112100000Y-140700000D02*
X109300000Y-140700000D01*
X112300000Y-140900000D02*
X112100000Y-140700000D01*
X118015000Y-136100300D02*
X120047200Y-136100300D01*
X120047200Y-136100300D02*
X120747500Y-135400000D01*
X111852500Y-141900000D02*
X112300000Y-141452500D01*
X112300000Y-141452500D02*
X112300000Y-139415000D01*
X106900000Y-147652500D02*
X107447500Y-147652500D01*
X113570000Y-146200000D02*
X114840000Y-147470000D01*
X108900000Y-146200000D02*
X113570000Y-146200000D01*
X107447500Y-147652500D02*
X108900000Y-146200000D01*
X106585000Y-131299700D02*
X112400300Y-131299700D01*
X112400300Y-131299700D02*
X113900200Y-129799800D01*
X113900200Y-129799800D02*
X113900200Y-127985000D01*
X112300000Y-139415000D02*
X112300000Y-137400000D01*
X113599700Y-136100300D02*
X113700000Y-136100300D01*
X113700000Y-136100300D02*
X118015000Y-136100300D01*
X112300000Y-137400000D02*
X113599700Y-136100300D01*
X102255000Y-119080000D02*
X102255000Y-117945000D01*
X102255000Y-117945000D02*
X102300000Y-117900000D01*
X102255000Y-119080000D02*
X102255000Y-115905000D01*
X106585000Y-133700000D02*
X104600000Y-133700000D01*
X102255000Y-120955000D02*
X102255000Y-119080000D01*
X104900000Y-123600000D02*
X102255000Y-120955000D01*
X104900000Y-127400000D02*
X104900000Y-123600000D01*
X102900000Y-129400000D02*
X104900000Y-127400000D01*
X102900000Y-132000000D02*
X102900000Y-129400000D01*
X104600000Y-133700000D02*
X102900000Y-132000000D01*
X119735000Y-119080000D02*
X119735000Y-115905000D01*
X119300000Y-120700000D02*
X119735000Y-120265000D01*
X119735000Y-120265000D02*
X119735000Y-119080000D01*
X116300500Y-127985000D02*
X116300500Y-123699500D01*
X116300500Y-123699500D02*
X119300000Y-120700000D01*
X112300000Y-127985000D02*
X112300000Y-126700000D01*
X113600000Y-122300000D02*
X115200000Y-120700000D01*
X113600000Y-125400000D02*
X113600000Y-122300000D01*
X112300000Y-126700000D02*
X113600000Y-125400000D01*
X115925000Y-119080000D02*
X115925000Y-115905000D01*
X115925000Y-119080000D02*
X115925000Y-119975000D01*
X115925000Y-119975000D02*
X115200000Y-120700000D01*
X121005000Y-119080000D02*
X121005000Y-115905000D01*
X120600000Y-120700000D02*
X121005000Y-120295000D01*
X121005000Y-120295000D02*
X121005000Y-119080000D01*
X118015000Y-129699500D02*
X118015000Y-128815000D01*
X117200000Y-124100000D02*
X120600000Y-120700000D01*
X117200000Y-128000000D02*
X117200000Y-124100000D01*
X118015000Y-128815000D02*
X117200000Y-128000000D01*
X117195000Y-119080000D02*
X117195000Y-115905000D01*
X116600000Y-120700000D02*
X117195000Y-120105000D01*
X117195000Y-120105000D02*
X117195000Y-119080000D01*
X114700300Y-127985000D02*
X114700300Y-122599700D01*
X114700300Y-122599700D02*
X116600000Y-120700000D01*
X122200000Y-120200000D02*
X122200000Y-119155000D01*
X122200000Y-119155000D02*
X122275000Y-119080000D01*
X122275000Y-119080000D02*
X122275000Y-115905000D01*
X118015000Y-130499600D02*
X119400400Y-130499600D01*
X122200000Y-120400000D02*
X122200000Y-120200000D01*
X117900000Y-124700000D02*
X122200000Y-120400000D01*
X117900000Y-127500000D02*
X117900000Y-124700000D01*
X119800000Y-129400000D02*
X117900000Y-127500000D01*
X119800000Y-130100000D02*
X119800000Y-129400000D01*
X119400400Y-130499600D02*
X119800000Y-130100000D01*
X118465000Y-119080000D02*
X118465000Y-115905000D01*
X118000000Y-120700000D02*
X118465000Y-120235000D01*
X118465000Y-120235000D02*
X118465000Y-119080000D01*
X115500400Y-127985000D02*
X115500400Y-123199600D01*
X115500400Y-123199600D02*
X118000000Y-120700000D01*
X119000000Y-127200000D02*
X120600000Y-128800000D01*
X119000000Y-125400000D02*
X119000000Y-127200000D01*
X123545000Y-119080000D02*
X123545000Y-115905000D01*
X123545000Y-119080000D02*
X123545000Y-120155000D01*
X120000300Y-131299700D02*
X118015000Y-131299700D01*
X120600000Y-128800000D02*
X120600000Y-130700000D01*
X120600000Y-130700000D02*
X120000300Y-131299700D01*
X107335000Y-119080000D02*
X107335000Y-115905000D01*
X107335000Y-119080000D02*
X107335000Y-120635000D01*
X107335000Y-120635000D02*
X107400000Y-120700000D01*
X108299500Y-127985000D02*
X108299500Y-122599500D01*
X107335000Y-121635000D02*
X107335000Y-119080000D01*
X108299500Y-122599500D02*
X107335000Y-121635000D01*
X103525000Y-119080000D02*
X103525000Y-115905000D01*
X103525000Y-119080000D02*
X103525000Y-120675000D01*
X103525000Y-120675000D02*
X103500000Y-120700000D01*
X106585000Y-132899900D02*
X105099900Y-132899900D01*
X103525000Y-121325000D02*
X103525000Y-119080000D01*
X105800000Y-123600000D02*
X103525000Y-121325000D01*
X105800000Y-127400000D02*
X105800000Y-123600000D01*
X103900000Y-129300000D02*
X105800000Y-127400000D01*
X103900000Y-131700000D02*
X103900000Y-129300000D01*
X105099900Y-132899900D02*
X103900000Y-131700000D01*
X108605000Y-119080000D02*
X108605000Y-115905000D01*
X108605000Y-119080000D02*
X108605000Y-120695000D01*
X108605000Y-120695000D02*
X108600000Y-120700000D01*
X109099600Y-127985000D02*
X109099600Y-122299600D01*
X108605000Y-121805000D02*
X108605000Y-119080000D01*
X109099600Y-122299600D02*
X108605000Y-121805000D01*
X104795000Y-119080000D02*
X104795000Y-115905000D01*
X106585000Y-130499600D02*
X105399600Y-130499600D01*
X104900000Y-121600000D02*
X104900000Y-120700000D01*
X106500000Y-123200000D02*
X104900000Y-121600000D01*
X106500000Y-127700000D02*
X106500000Y-123200000D01*
X105100000Y-129100000D02*
X106500000Y-127700000D01*
X105100000Y-130200000D02*
X105100000Y-129100000D01*
X105399600Y-130499600D02*
X105100000Y-130200000D01*
X104795000Y-119080000D02*
X104900000Y-119185000D01*
X104900000Y-119185000D02*
X104900000Y-120700000D01*
X109875000Y-119080000D02*
X109875000Y-115905000D01*
X109875000Y-119080000D02*
X109875000Y-120675000D01*
X109875000Y-120675000D02*
X109900000Y-120700000D01*
X109899700Y-127985000D02*
X109899700Y-119104700D01*
X109899700Y-119104700D02*
X109875000Y-119080000D01*
X106585000Y-129699500D02*
X106585000Y-129215000D01*
X106100000Y-121800000D02*
X106100000Y-120700000D01*
X107300000Y-123000000D02*
X106100000Y-121800000D01*
X107300000Y-128500000D02*
X107300000Y-123000000D01*
X106585000Y-129215000D02*
X107300000Y-128500000D01*
X106065000Y-119080000D02*
X106065000Y-115905000D01*
X106065000Y-119080000D02*
X106065000Y-120665000D01*
X106065000Y-120665000D02*
X106100000Y-120700000D01*
X111145000Y-119080000D02*
X111145000Y-115905000D01*
X111145000Y-119080000D02*
X111145000Y-120655000D01*
X111145000Y-120655000D02*
X111100000Y-120700000D01*
X110699800Y-127985000D02*
X110699800Y-122500200D01*
X111145000Y-122055000D02*
X111145000Y-119080000D01*
X110699800Y-122500200D02*
X111145000Y-122055000D01*
X111499900Y-127985000D02*
X111499900Y-126400100D01*
X112800000Y-121800000D02*
X113900000Y-120700000D01*
X112800000Y-125100000D02*
X112800000Y-121800000D01*
X111499900Y-126400100D02*
X112800000Y-125100000D01*
X114655000Y-119080000D02*
X114655000Y-115905000D01*
X113900000Y-120700000D02*
X114655000Y-119945000D01*
X114655000Y-119945000D02*
X114655000Y-119080000D01*
X102255000Y-108920000D02*
X102255000Y-105745000D01*
X102255000Y-108920000D02*
X102255000Y-110545000D01*
X102255000Y-110545000D02*
X102100000Y-110700000D01*
X119735000Y-105745000D02*
X119735000Y-105135000D01*
X118200000Y-103600000D02*
X115900000Y-103600000D01*
X119735000Y-105135000D02*
X118200000Y-103600000D01*
X119735000Y-108920000D02*
X119735000Y-105745000D01*
X119735000Y-108920000D02*
X119735000Y-111635000D01*
X120300000Y-112200000D02*
X120300000Y-113800000D01*
X119735000Y-111635000D02*
X120300000Y-112200000D01*
X115925000Y-108920000D02*
X115925000Y-105745000D01*
X115925000Y-108920000D02*
X115925000Y-111925000D01*
X115925000Y-111925000D02*
X116700000Y-112700000D01*
X121005000Y-108920000D02*
X121005000Y-105745000D01*
X121005000Y-105745000D02*
X121005000Y-105005000D01*
X121005000Y-105005000D02*
X118700000Y-102700000D01*
X118700000Y-102700000D02*
X117300000Y-102700000D01*
X121005000Y-112905000D02*
X121005000Y-108920000D01*
X121300000Y-113200000D02*
X121005000Y-112905000D01*
X117195000Y-108920000D02*
X117195000Y-105745000D01*
X117195000Y-108920000D02*
X117195000Y-111895000D01*
X117195000Y-111895000D02*
X118000000Y-112700000D01*
X122275000Y-108920000D02*
X122275000Y-105745000D01*
X122275000Y-105745000D02*
X122275000Y-104975000D01*
X122275000Y-104975000D02*
X118600000Y-101300000D01*
X118600000Y-101300000D02*
X118400000Y-101300000D01*
X122275000Y-112475000D02*
X122275000Y-108920000D01*
X122400000Y-112600000D02*
X122275000Y-112475000D01*
X118465000Y-108920000D02*
X118465000Y-105745000D01*
X118465000Y-108920000D02*
X118465000Y-111865000D01*
X118465000Y-111865000D02*
X119300000Y-112700000D01*
X123545000Y-105745000D02*
X123545000Y-104845000D01*
X123545000Y-104845000D02*
X123200000Y-104500000D01*
X123545000Y-108920000D02*
X123545000Y-105745000D01*
X123545000Y-112845000D02*
X123545000Y-108920000D01*
X123600000Y-112900000D02*
X123545000Y-112845000D01*
X107335000Y-105745000D02*
X107335000Y-104835000D01*
X106400000Y-103900000D02*
X104100000Y-103900000D01*
X107335000Y-104835000D02*
X106400000Y-103900000D01*
X107335000Y-108920000D02*
X107335000Y-105745000D01*
X107335000Y-108920000D02*
X107335000Y-110635000D01*
X108700000Y-113300000D02*
X108000000Y-114000000D01*
X108700000Y-112000000D02*
X108700000Y-113300000D01*
X107335000Y-110635000D02*
X108700000Y-112000000D01*
X103525000Y-108920000D02*
X103525000Y-105745000D01*
X103525000Y-108920000D02*
X103525000Y-111725000D01*
X103525000Y-111725000D02*
X104400000Y-112600000D01*
X108605000Y-105745000D02*
X108605000Y-105005000D01*
X106600000Y-103000000D02*
X105300000Y-103000000D01*
X108605000Y-105005000D02*
X106600000Y-103000000D01*
X108605000Y-108920000D02*
X108605000Y-105745000D01*
X108605000Y-110605000D02*
X108605000Y-108920000D01*
X109600000Y-111600000D02*
X108605000Y-110605000D01*
X109600000Y-112800000D02*
X109600000Y-111600000D01*
X104795000Y-108920000D02*
X104795000Y-105745000D01*
X104795000Y-108920000D02*
X104795000Y-111495000D01*
X104795000Y-111495000D02*
X106000000Y-112700000D01*
X109875000Y-105745000D02*
X109875000Y-104975000D01*
X109875000Y-104975000D02*
X108000000Y-103100000D01*
X109875000Y-108920000D02*
X109875000Y-105745000D01*
X109875000Y-110375000D02*
X109875000Y-108920000D01*
X110600000Y-111100000D02*
X109875000Y-110375000D01*
X110600000Y-113400000D02*
X110600000Y-111100000D01*
X106065000Y-108920000D02*
X106065000Y-105745000D01*
X106065000Y-108920000D02*
X106065000Y-110965000D01*
X106065000Y-110965000D02*
X107800000Y-112700000D01*
X111145000Y-105745000D02*
X111145000Y-104445000D01*
X111145000Y-104445000D02*
X110000000Y-103300000D01*
X111145000Y-108920000D02*
X111145000Y-105745000D01*
X111145000Y-110345000D02*
X111145000Y-108920000D01*
X111600000Y-110800000D02*
X111145000Y-110345000D01*
X111600000Y-114100000D02*
X111600000Y-110800000D01*
X114655000Y-108920000D02*
X114655000Y-105745000D01*
X114655000Y-108920000D02*
X114655000Y-112055000D01*
X114655000Y-112055000D02*
X115300000Y-112700000D01*
X119184000Y-140584000D02*
X119184000Y-141700000D01*
X115900000Y-137300000D02*
X119184000Y-140584000D01*
X114300000Y-137300000D02*
X115900000Y-137300000D01*
X112000000Y-135600000D02*
X112000000Y-135700000D01*
X112000000Y-135700000D02*
X109099600Y-138600400D01*
X109099600Y-138600400D02*
X109099600Y-139415000D01*
X118015000Y-137700500D02*
X120148000Y-137700500D01*
X120148000Y-137700500D02*
X120747500Y-138300000D01*
X117000100Y-132899900D02*
X118015000Y-132899900D01*
X116300000Y-133600000D02*
X117000100Y-132899900D01*
X116000200Y-132099800D02*
X118015000Y-132099800D01*
X115400000Y-132700000D02*
X116000200Y-132099800D01*
X113100100Y-139415000D02*
X113100100Y-141000100D01*
X113100100Y-141000100D02*
X113300000Y-141200000D01*
X110800000Y-132600000D02*
X114000000Y-132600000D01*
X106585000Y-132099800D02*
X105599800Y-132099800D01*
X105599800Y-132099800D02*
X104900000Y-131400000D01*
X109947500Y-141900000D02*
X109947500Y-142252500D01*
X109947500Y-142252500D02*
X108900000Y-143300000D01*
X113100100Y-127985000D02*
X113100100Y-129199900D01*
X112100000Y-130200000D02*
X110800000Y-130200000D01*
X113100100Y-129199900D02*
X112100000Y-130200000D01*
X118015000Y-135300200D02*
X114900200Y-135300200D01*
X114900200Y-135300200D02*
X114400000Y-134800000D01*
X118015000Y-135300200D02*
X119299800Y-135300200D01*
X119600000Y-134100000D02*
X120100000Y-133600000D01*
X119600000Y-135000000D02*
X119600000Y-134100000D01*
X119299800Y-135300200D02*
X119600000Y-135000000D01*
X122652500Y-135400000D02*
X122700000Y-135352500D01*
X122700000Y-135352500D02*
X122700000Y-133700000D01*
X121216000Y-142589000D02*
X121200000Y-142605000D01*
X121200000Y-142605000D02*
X121200000Y-144000000D01*
D22*
X100985000Y-114315000D02*
X101000000Y-114300000D01*
X100985000Y-114315000D02*
X100985000Y-115905000D01*
X100985000Y-108920000D02*
X100985000Y-111485000D01*
X100985000Y-111485000D02*
X101000000Y-111500000D01*
X113385000Y-115905000D02*
X113385000Y-115415000D01*
X113900000Y-114900000D02*
X113900000Y-114300000D01*
X113385000Y-115415000D02*
X113900000Y-114900000D01*
X113385000Y-108920000D02*
X113385000Y-112285000D01*
X113385000Y-112285000D02*
X113900000Y-112800000D01*
X112000000Y-122700000D02*
X112000000Y-124000000D01*
X112000000Y-122700000D02*
X112000000Y-121100000D01*
X112000000Y-121100000D02*
X113385000Y-119715000D01*
X113385000Y-119080000D02*
X113385000Y-119715000D01*
X112000000Y-124000000D02*
X111700000Y-124300000D01*
X100985000Y-120285000D02*
X101300000Y-120600000D01*
X100985000Y-119080000D02*
X100985000Y-120285000D01*
X113385000Y-105745000D02*
X113385000Y-106715000D01*
X113385000Y-118385000D02*
X113385000Y-119080000D01*
X112300000Y-117300000D02*
X113385000Y-118385000D01*
X112300000Y-115200000D02*
X112300000Y-117300000D01*
X112700000Y-114800000D02*
X112300000Y-115200000D01*
X112700000Y-113000000D02*
X112700000Y-114800000D01*
X112300000Y-112600000D02*
X112700000Y-113000000D01*
X112300000Y-107800000D02*
X112300000Y-112600000D01*
X113385000Y-106715000D02*
X112300000Y-107800000D01*
X113300000Y-103300000D02*
X111600000Y-101600000D01*
X100985000Y-104915000D02*
X100985000Y-105745000D01*
X104300000Y-101600000D02*
X100985000Y-104915000D01*
X111600000Y-101600000D02*
X104300000Y-101600000D01*
X113385000Y-103385000D02*
X113385000Y-105745000D01*
X113300000Y-103300000D02*
X113385000Y-103385000D01*
D21*
X114840000Y-144930000D02*
X116300500Y-143469500D01*
X116300500Y-143469500D02*
X116300500Y-139415000D01*
X106900000Y-145747500D02*
X106900000Y-145600000D01*
X107570000Y-144930000D02*
X109760000Y-144930000D01*
X106900000Y-145600000D02*
X107570000Y-144930000D01*
X109760000Y-144930000D02*
X111390000Y-143300000D01*
X115500400Y-142299600D02*
X115500400Y-139415000D01*
X114500000Y-143300000D02*
X115500400Y-142299600D01*
X111390000Y-143300000D02*
X114500000Y-143300000D01*
X121216000Y-140811000D02*
X121889000Y-140811000D01*
X122652500Y-140047500D02*
X122652500Y-138300000D01*
X121889000Y-140811000D02*
X122652500Y-140047500D01*
D23*
G36*
X114001800Y-126721350D02*
G01*
X113976400Y-126746750D01*
X113976400Y-127858000D01*
X113986643Y-127858000D01*
X113986643Y-128112000D01*
X113976400Y-128112000D01*
X113976400Y-129223250D01*
X114135150Y-129382000D01*
X114237070Y-129370914D01*
X114356221Y-129332847D01*
X114465657Y-129272268D01*
X114484625Y-129256228D01*
X114497100Y-129257457D01*
X114903500Y-129257457D01*
X115003085Y-129247649D01*
X115098843Y-129218601D01*
X115100350Y-129217795D01*
X115101857Y-129218601D01*
X115197615Y-129247649D01*
X115297200Y-129257457D01*
X115703600Y-129257457D01*
X115803185Y-129247649D01*
X115898943Y-129218601D01*
X115900450Y-129217795D01*
X115901957Y-129218601D01*
X115997715Y-129247649D01*
X116097300Y-129257457D01*
X116503700Y-129257457D01*
X116603285Y-129247649D01*
X116699043Y-129218601D01*
X116787295Y-129171429D01*
X116864648Y-129107948D01*
X116928129Y-129030595D01*
X116975301Y-128942343D01*
X117004349Y-128846585D01*
X117009227Y-128797055D01*
X117202945Y-128990773D01*
X117153415Y-128995651D01*
X117057657Y-129024699D01*
X116969405Y-129071871D01*
X116892052Y-129135352D01*
X116828571Y-129212705D01*
X116781399Y-129300957D01*
X116752351Y-129396715D01*
X116742543Y-129496300D01*
X116742543Y-129902700D01*
X116752351Y-130002285D01*
X116781399Y-130098043D01*
X116782205Y-130099550D01*
X116781399Y-130101057D01*
X116752351Y-130196815D01*
X116742543Y-130296400D01*
X116742543Y-130702800D01*
X116752351Y-130802385D01*
X116781399Y-130898143D01*
X116782205Y-130899650D01*
X116781399Y-130901157D01*
X116752351Y-130996915D01*
X116742543Y-131096500D01*
X116742543Y-131401300D01*
X116034498Y-131401300D01*
X116000200Y-131397922D01*
X115965902Y-131401300D01*
X115965891Y-131401300D01*
X115863270Y-131411407D01*
X115731603Y-131451348D01*
X115731601Y-131451349D01*
X115610256Y-131516209D01*
X115530546Y-131581626D01*
X115530543Y-131581629D01*
X115503897Y-131603497D01*
X115482029Y-131630143D01*
X115364672Y-131747500D01*
X115306187Y-131747500D01*
X115122166Y-131784104D01*
X114948822Y-131855905D01*
X114792816Y-131960145D01*
X114747982Y-132004979D01*
X114739855Y-131992816D01*
X114607184Y-131860145D01*
X114451178Y-131755905D01*
X114277834Y-131684104D01*
X114093813Y-131647500D01*
X113906187Y-131647500D01*
X113722166Y-131684104D01*
X113548822Y-131755905D01*
X113392816Y-131860145D01*
X113351461Y-131901500D01*
X111448539Y-131901500D01*
X111407184Y-131860145D01*
X111251178Y-131755905D01*
X111077834Y-131684104D01*
X110893813Y-131647500D01*
X110706187Y-131647500D01*
X110522166Y-131684104D01*
X110348822Y-131755905D01*
X110192816Y-131860145D01*
X110060145Y-131992816D01*
X109955905Y-132148822D01*
X109884104Y-132322166D01*
X109847500Y-132506187D01*
X109847500Y-132693813D01*
X109884104Y-132877834D01*
X109955905Y-133051178D01*
X110060145Y-133207184D01*
X110192816Y-133339855D01*
X110348822Y-133444095D01*
X110522166Y-133515896D01*
X110706187Y-133552500D01*
X110893813Y-133552500D01*
X111077834Y-133515896D01*
X111251178Y-133444095D01*
X111407184Y-133339855D01*
X111448539Y-133298500D01*
X113351461Y-133298500D01*
X113392816Y-133339855D01*
X113548822Y-133444095D01*
X113722166Y-133515896D01*
X113906187Y-133552500D01*
X114093813Y-133552500D01*
X114277834Y-133515896D01*
X114451178Y-133444095D01*
X114607184Y-133339855D01*
X114652018Y-133295021D01*
X114660145Y-133307184D01*
X114792816Y-133439855D01*
X114948822Y-133544095D01*
X115122166Y-133615896D01*
X115306187Y-133652500D01*
X115347500Y-133652500D01*
X115347500Y-133693813D01*
X115384104Y-133877834D01*
X115455905Y-134051178D01*
X115560145Y-134207184D01*
X115692816Y-134339855D01*
X115848822Y-134444095D01*
X116022166Y-134515896D01*
X116206187Y-134552500D01*
X116393813Y-134552500D01*
X116577834Y-134515896D01*
X116742543Y-134447672D01*
X116742543Y-134601700D01*
X115331716Y-134601700D01*
X115315896Y-134522166D01*
X115244095Y-134348822D01*
X115139855Y-134192816D01*
X115007184Y-134060145D01*
X114851178Y-133955905D01*
X114677834Y-133884104D01*
X114493813Y-133847500D01*
X114306187Y-133847500D01*
X114122166Y-133884104D01*
X113948822Y-133955905D01*
X113792816Y-134060145D01*
X113660145Y-134192816D01*
X113555905Y-134348822D01*
X113484104Y-134522166D01*
X113447500Y-134706187D01*
X113447500Y-134893813D01*
X113484104Y-135077834D01*
X113555905Y-135251178D01*
X113660145Y-135407184D01*
X113792816Y-135539855D01*
X113948822Y-135644095D01*
X114122166Y-135715896D01*
X114306187Y-135752500D01*
X114364672Y-135752500D01*
X114382029Y-135769857D01*
X114403897Y-135796503D01*
X114430543Y-135818371D01*
X114430546Y-135818374D01*
X114453157Y-135836930D01*
X114510257Y-135883791D01*
X114631603Y-135948652D01*
X114763270Y-135988593D01*
X114865891Y-135998700D01*
X114865902Y-135998700D01*
X114900200Y-136002078D01*
X114934498Y-135998700D01*
X116751350Y-135998700D01*
X116776750Y-136024100D01*
X117888000Y-136024100D01*
X117888000Y-136013857D01*
X118142000Y-136013857D01*
X118142000Y-136024100D01*
X119253250Y-136024100D01*
X119277471Y-135999879D01*
X119299800Y-136002078D01*
X119334098Y-135998700D01*
X119334109Y-135998700D01*
X119436730Y-135988593D01*
X119568397Y-135948652D01*
X119666433Y-135896250D01*
X119664928Y-136098500D01*
X119677188Y-136222982D01*
X119713498Y-136342680D01*
X119772463Y-136452994D01*
X119851815Y-136549685D01*
X119948506Y-136629037D01*
X120058820Y-136688002D01*
X120178518Y-136724312D01*
X120303000Y-136736572D01*
X120461750Y-136733500D01*
X120620500Y-136574750D01*
X120620500Y-135527000D01*
X120600500Y-135527000D01*
X120600500Y-135273000D01*
X120620500Y-135273000D01*
X120620500Y-135253000D01*
X120874500Y-135253000D01*
X120874500Y-135273000D01*
X120894500Y-135273000D01*
X120894500Y-135527000D01*
X120874500Y-135527000D01*
X120874500Y-136574750D01*
X121033250Y-136733500D01*
X121192000Y-136736572D01*
X121316482Y-136724312D01*
X121436180Y-136688002D01*
X121546494Y-136629037D01*
X121643185Y-136549685D01*
X121722537Y-136452994D01*
X121772003Y-136360452D01*
X121783571Y-136382095D01*
X121847052Y-136459448D01*
X121924405Y-136522929D01*
X122012657Y-136570101D01*
X122108415Y-136599149D01*
X122208000Y-136608957D01*
X123097000Y-136608957D01*
X123196585Y-136599149D01*
X123292343Y-136570101D01*
X123380595Y-136522929D01*
X123457948Y-136459448D01*
X123521429Y-136382095D01*
X123568601Y-136293843D01*
X123597649Y-136198085D01*
X123607457Y-136098500D01*
X123607457Y-134701500D01*
X123597649Y-134601915D01*
X123568601Y-134506157D01*
X123521429Y-134417905D01*
X123457948Y-134340552D01*
X123429683Y-134317356D01*
X123439855Y-134307184D01*
X123544095Y-134151178D01*
X123615896Y-133977834D01*
X123652500Y-133793813D01*
X123652500Y-133606187D01*
X123615896Y-133422166D01*
X123544095Y-133248822D01*
X123439855Y-133092816D01*
X123307184Y-132960145D01*
X123151178Y-132855905D01*
X122977834Y-132784104D01*
X122793813Y-132747500D01*
X122606187Y-132747500D01*
X122422166Y-132784104D01*
X122248822Y-132855905D01*
X122092816Y-132960145D01*
X121960145Y-133092816D01*
X121855905Y-133248822D01*
X121784104Y-133422166D01*
X121747500Y-133606187D01*
X121747500Y-133793813D01*
X121784104Y-133977834D01*
X121855905Y-134151178D01*
X121935914Y-134270919D01*
X121924405Y-134277071D01*
X121847052Y-134340552D01*
X121783571Y-134417905D01*
X121772003Y-134439548D01*
X121722537Y-134347006D01*
X121643185Y-134250315D01*
X121546494Y-134170963D01*
X121436180Y-134111998D01*
X121316482Y-134075688D01*
X121192000Y-134063428D01*
X121033250Y-134066500D01*
X120874502Y-134225248D01*
X120874502Y-134155331D01*
X120944095Y-134051178D01*
X121015896Y-133877834D01*
X121052500Y-133693813D01*
X121052500Y-133506187D01*
X121015896Y-133322166D01*
X120944095Y-133148822D01*
X120839855Y-132992816D01*
X120707184Y-132860145D01*
X120551178Y-132755905D01*
X120377834Y-132684104D01*
X120193813Y-132647500D01*
X120006187Y-132647500D01*
X119822166Y-132684104D01*
X119648822Y-132755905D01*
X119492816Y-132860145D01*
X119360145Y-132992816D01*
X119287457Y-133101601D01*
X119287457Y-132696700D01*
X119277649Y-132597115D01*
X119248601Y-132501357D01*
X119247795Y-132499850D01*
X119248601Y-132498343D01*
X119277649Y-132402585D01*
X119287457Y-132303000D01*
X119287457Y-131998200D01*
X119966002Y-131998200D01*
X120000300Y-132001578D01*
X120034598Y-131998200D01*
X120034609Y-131998200D01*
X120137230Y-131988093D01*
X120268897Y-131948152D01*
X120390243Y-131883291D01*
X120496603Y-131796003D01*
X120518475Y-131769352D01*
X121069657Y-131218171D01*
X121096303Y-131196303D01*
X121118171Y-131169657D01*
X121118174Y-131169654D01*
X121183591Y-131089944D01*
X121226291Y-131010057D01*
X121248452Y-130968597D01*
X121288393Y-130836930D01*
X121298500Y-130734309D01*
X121298500Y-130734298D01*
X121301878Y-130700000D01*
X121298500Y-130665702D01*
X121298500Y-128834298D01*
X121301878Y-128800000D01*
X121298500Y-128765702D01*
X121298500Y-128765691D01*
X121288393Y-128663070D01*
X121248452Y-128531403D01*
X121215446Y-128469653D01*
X121183591Y-128410056D01*
X121118174Y-128330346D01*
X121118167Y-128330339D01*
X121096302Y-128303697D01*
X121069662Y-128281834D01*
X119698500Y-126910673D01*
X119698500Y-126751738D01*
X123673000Y-130455249D01*
X123673000Y-143946496D01*
X119548289Y-147973000D01*
X116147216Y-147973000D01*
X116162756Y-147939952D01*
X116229023Y-147672865D01*
X116241910Y-147397983D01*
X116200922Y-147125867D01*
X116107636Y-146866977D01*
X116045656Y-146751020D01*
X115805565Y-146684040D01*
X115019605Y-147470000D01*
X115033748Y-147484143D01*
X114854143Y-147663748D01*
X114840000Y-147649605D01*
X114825858Y-147663748D01*
X114646253Y-147484143D01*
X114660395Y-147470000D01*
X113874435Y-146684040D01*
X113634344Y-146751020D01*
X113517244Y-147000048D01*
X113503284Y-147056314D01*
X113425459Y-146868429D01*
X113286473Y-146660422D01*
X113109578Y-146483527D01*
X112901571Y-146344541D01*
X112670445Y-146248805D01*
X112425084Y-146200000D01*
X112670445Y-146151195D01*
X112901571Y-146055459D01*
X113109578Y-145916473D01*
X113286473Y-145739578D01*
X113425459Y-145531571D01*
X113521195Y-145300445D01*
X113567543Y-145067436D01*
X113567543Y-145692000D01*
X113577351Y-145791585D01*
X113606399Y-145887343D01*
X113653571Y-145975595D01*
X113717052Y-146052948D01*
X113794405Y-146116429D01*
X113882657Y-146163601D01*
X113978415Y-146192649D01*
X114078000Y-146202457D01*
X114236803Y-146202457D01*
X114121020Y-146264344D01*
X114054040Y-146504435D01*
X114840000Y-147290395D01*
X115625960Y-146504435D01*
X115558980Y-146264344D01*
X115427369Y-146202457D01*
X115602000Y-146202457D01*
X115701585Y-146192649D01*
X115797343Y-146163601D01*
X115885595Y-146116429D01*
X115962948Y-146052948D01*
X116026429Y-145975595D01*
X116073601Y-145887343D01*
X116102649Y-145791585D01*
X116112457Y-145692000D01*
X116112457Y-144645371D01*
X116673000Y-144084828D01*
X116673000Y-144500000D01*
X116675440Y-144524776D01*
X116682667Y-144548601D01*
X116694403Y-144570557D01*
X116710197Y-144589803D01*
X116729443Y-144605597D01*
X116751399Y-144617333D01*
X116775224Y-144624560D01*
X116800000Y-144627000D01*
X120479961Y-144627000D01*
X120592816Y-144739855D01*
X120748822Y-144844095D01*
X120922166Y-144915896D01*
X121106187Y-144952500D01*
X121293813Y-144952500D01*
X121477834Y-144915896D01*
X121651178Y-144844095D01*
X121807184Y-144739855D01*
X121922228Y-144624811D01*
X121924776Y-144624560D01*
X121948601Y-144617333D01*
X121970557Y-144605597D01*
X121989803Y-144589803D01*
X122005597Y-144570557D01*
X122017333Y-144548601D01*
X122024560Y-144524776D01*
X122027000Y-144500000D01*
X122027000Y-144476762D01*
X122044095Y-144451178D01*
X122115896Y-144277834D01*
X122152500Y-144093813D01*
X122152500Y-143906187D01*
X122115896Y-143722166D01*
X122044095Y-143548822D01*
X122027000Y-143523238D01*
X122027000Y-143413014D01*
X122034148Y-143407148D01*
X122097629Y-143329795D01*
X122144801Y-143241543D01*
X122173849Y-143145785D01*
X122183657Y-143046200D01*
X122183657Y-142131800D01*
X122173849Y-142032215D01*
X122144801Y-141936457D01*
X122097629Y-141848205D01*
X122034148Y-141770852D01*
X122027000Y-141764986D01*
X122027000Y-141635014D01*
X122034148Y-141629148D01*
X122097629Y-141551795D01*
X122144801Y-141463543D01*
X122144871Y-141463312D01*
X122157597Y-141459452D01*
X122278943Y-141394591D01*
X122385303Y-141307303D01*
X122407175Y-141280652D01*
X123122161Y-140565666D01*
X123148802Y-140543803D01*
X123170667Y-140517161D01*
X123170674Y-140517154D01*
X123236091Y-140437444D01*
X123300951Y-140316099D01*
X123301162Y-140315404D01*
X123340893Y-140184430D01*
X123351000Y-140081809D01*
X123351000Y-140081799D01*
X123354378Y-140047501D01*
X123351000Y-140013203D01*
X123351000Y-139438748D01*
X123380595Y-139422929D01*
X123457948Y-139359448D01*
X123521429Y-139282095D01*
X123568601Y-139193843D01*
X123597649Y-139098085D01*
X123607457Y-138998500D01*
X123607457Y-137601500D01*
X123597649Y-137501915D01*
X123568601Y-137406157D01*
X123521429Y-137317905D01*
X123457948Y-137240552D01*
X123380595Y-137177071D01*
X123292343Y-137129899D01*
X123196585Y-137100851D01*
X123097000Y-137091043D01*
X122208000Y-137091043D01*
X122108415Y-137100851D01*
X122012657Y-137129899D01*
X121924405Y-137177071D01*
X121847052Y-137240552D01*
X121783571Y-137317905D01*
X121736399Y-137406157D01*
X121707351Y-137501915D01*
X121700000Y-137576553D01*
X121692649Y-137501915D01*
X121663601Y-137406157D01*
X121616429Y-137317905D01*
X121552948Y-137240552D01*
X121475595Y-137177071D01*
X121387343Y-137129899D01*
X121291585Y-137100851D01*
X121192000Y-137091043D01*
X120489551Y-137091043D01*
X120416597Y-137052048D01*
X120284930Y-137012107D01*
X120182309Y-137002000D01*
X120182298Y-137002000D01*
X120148000Y-136998622D01*
X120113702Y-137002000D01*
X119287457Y-137002000D01*
X119287457Y-136697200D01*
X119286228Y-136684725D01*
X119302268Y-136665757D01*
X119362847Y-136556321D01*
X119400914Y-136437170D01*
X119412000Y-136335250D01*
X119253250Y-136176500D01*
X118142000Y-136176500D01*
X118142000Y-136186743D01*
X117888000Y-136186743D01*
X117888000Y-136176500D01*
X116776750Y-136176500D01*
X116618000Y-136335250D01*
X116629086Y-136437170D01*
X116667153Y-136556321D01*
X116727732Y-136665757D01*
X116743772Y-136684725D01*
X116742543Y-136697200D01*
X116742543Y-137103600D01*
X116748127Y-137160300D01*
X116418175Y-136830348D01*
X116396303Y-136803697D01*
X116289943Y-136716409D01*
X116168597Y-136651548D01*
X116036930Y-136611607D01*
X115934309Y-136601500D01*
X115934298Y-136601500D01*
X115900000Y-136598122D01*
X115865702Y-136601500D01*
X114948539Y-136601500D01*
X114907184Y-136560145D01*
X114751178Y-136455905D01*
X114577834Y-136384104D01*
X114393813Y-136347500D01*
X114206187Y-136347500D01*
X114022166Y-136384104D01*
X113848822Y-136455905D01*
X113692816Y-136560145D01*
X113560145Y-136692816D01*
X113455905Y-136848822D01*
X113384104Y-137022166D01*
X113347500Y-137206187D01*
X113347500Y-137393813D01*
X113384104Y-137577834D01*
X113455905Y-137751178D01*
X113560145Y-137907184D01*
X113692816Y-138039855D01*
X113846499Y-138142543D01*
X113697000Y-138142543D01*
X113597415Y-138152351D01*
X113501657Y-138181399D01*
X113500150Y-138182205D01*
X113498643Y-138181399D01*
X113402885Y-138152351D01*
X113303300Y-138142543D01*
X112896900Y-138142543D01*
X112884425Y-138143772D01*
X112865457Y-138127732D01*
X112756021Y-138067153D01*
X112636870Y-138029086D01*
X112534950Y-138018000D01*
X112376200Y-138176750D01*
X112376200Y-139288000D01*
X112386443Y-139288000D01*
X112386443Y-139542000D01*
X112376200Y-139542000D01*
X112376200Y-139562000D01*
X112223800Y-139562000D01*
X112223800Y-139542000D01*
X112213557Y-139542000D01*
X112213557Y-139288000D01*
X112223800Y-139288000D01*
X112223800Y-138176750D01*
X112065050Y-138018000D01*
X111963130Y-138029086D01*
X111843979Y-138067153D01*
X111734543Y-138127732D01*
X111715575Y-138143772D01*
X111703100Y-138142543D01*
X111296700Y-138142543D01*
X111197115Y-138152351D01*
X111101357Y-138181399D01*
X111099850Y-138182205D01*
X111098343Y-138181399D01*
X111002585Y-138152351D01*
X110903000Y-138142543D01*
X110545284Y-138142543D01*
X112145636Y-136542192D01*
X112277834Y-136515896D01*
X112451178Y-136444095D01*
X112607184Y-136339855D01*
X112739855Y-136207184D01*
X112844095Y-136051178D01*
X112915896Y-135877834D01*
X112952500Y-135693813D01*
X112952500Y-135506187D01*
X112915896Y-135322166D01*
X112844095Y-135148822D01*
X112739855Y-134992816D01*
X112607184Y-134860145D01*
X112451178Y-134755905D01*
X112277834Y-134684104D01*
X112093813Y-134647500D01*
X111906187Y-134647500D01*
X111722166Y-134684104D01*
X111548822Y-134755905D01*
X111392816Y-134860145D01*
X111260145Y-134992816D01*
X111155905Y-135148822D01*
X111084104Y-135322166D01*
X111047500Y-135506187D01*
X111047500Y-135664672D01*
X108629944Y-138082229D01*
X108603297Y-138104098D01*
X108581429Y-138130744D01*
X108581426Y-138130747D01*
X108566582Y-138148835D01*
X108502700Y-138142543D01*
X108096300Y-138142543D01*
X107996715Y-138152351D01*
X107900957Y-138181399D01*
X107812705Y-138228571D01*
X107735352Y-138292052D01*
X107671871Y-138369405D01*
X107624699Y-138457657D01*
X107595651Y-138553415D01*
X107585843Y-138653000D01*
X107585843Y-140177000D01*
X107595651Y-140276585D01*
X107624699Y-140372343D01*
X107671871Y-140460595D01*
X107735352Y-140537948D01*
X107812705Y-140601429D01*
X107900957Y-140648601D01*
X107996715Y-140677649D01*
X108096300Y-140687457D01*
X108502700Y-140687457D01*
X108602285Y-140677649D01*
X108698043Y-140648601D01*
X108699550Y-140647795D01*
X108701057Y-140648601D01*
X108796815Y-140677649D01*
X108896400Y-140687457D01*
X109302800Y-140687457D01*
X109402385Y-140677649D01*
X109498143Y-140648601D01*
X109499650Y-140647795D01*
X109501157Y-140648601D01*
X109596915Y-140677649D01*
X109696500Y-140687457D01*
X110102900Y-140687457D01*
X110202485Y-140677649D01*
X110298243Y-140648601D01*
X110299750Y-140647795D01*
X110301257Y-140648601D01*
X110397015Y-140677649D01*
X110496600Y-140687457D01*
X110903000Y-140687457D01*
X111002585Y-140677649D01*
X111091403Y-140650706D01*
X111053506Y-140670963D01*
X110956815Y-140750315D01*
X110877463Y-140847006D01*
X110827997Y-140939548D01*
X110816429Y-140917905D01*
X110752948Y-140840552D01*
X110675595Y-140777071D01*
X110587343Y-140729899D01*
X110491585Y-140700851D01*
X110392000Y-140691043D01*
X109503000Y-140691043D01*
X109403415Y-140700851D01*
X109307657Y-140729899D01*
X109219405Y-140777071D01*
X109142052Y-140840552D01*
X109078571Y-140917905D01*
X109031399Y-141006157D01*
X109002351Y-141101915D01*
X108992543Y-141201500D01*
X108992543Y-142219629D01*
X108864673Y-142347500D01*
X108806187Y-142347500D01*
X108622166Y-142384104D01*
X108448822Y-142455905D01*
X108292816Y-142560145D01*
X108160145Y-142692816D01*
X108055905Y-142848822D01*
X107984104Y-143022166D01*
X107947500Y-143206187D01*
X107947500Y-143393813D01*
X107984104Y-143577834D01*
X108055905Y-143751178D01*
X108160145Y-143907184D01*
X108292816Y-144039855D01*
X108448822Y-144144095D01*
X108622166Y-144215896D01*
X108699460Y-144231271D01*
X108699307Y-144231500D01*
X107604297Y-144231500D01*
X107569999Y-144228122D01*
X107535701Y-144231500D01*
X107535691Y-144231500D01*
X107433070Y-144241607D01*
X107301403Y-144281548D01*
X107301401Y-144281549D01*
X107180056Y-144346409D01*
X107100345Y-144411826D01*
X107100337Y-144411834D01*
X107073697Y-144433697D01*
X107051833Y-144460338D01*
X106719629Y-144792543D01*
X106201500Y-144792543D01*
X106101915Y-144802351D01*
X106006157Y-144831399D01*
X105917905Y-144878571D01*
X105840552Y-144942052D01*
X105777071Y-145019405D01*
X105729899Y-145107657D01*
X105700851Y-145203415D01*
X105691043Y-145303000D01*
X105691043Y-146192000D01*
X105700851Y-146291585D01*
X105729899Y-146387343D01*
X105777071Y-146475595D01*
X105840552Y-146552948D01*
X105917905Y-146616429D01*
X105939548Y-146627997D01*
X105847006Y-146677463D01*
X105750315Y-146756815D01*
X105670963Y-146853506D01*
X105611998Y-146963820D01*
X105575688Y-147083518D01*
X105563428Y-147208000D01*
X105566500Y-147366750D01*
X105725250Y-147525500D01*
X106773000Y-147525500D01*
X106773000Y-147505500D01*
X107027000Y-147505500D01*
X107027000Y-147525500D01*
X108074750Y-147525500D01*
X108233500Y-147366750D01*
X108236572Y-147208000D01*
X108224312Y-147083518D01*
X108188002Y-146963820D01*
X108129037Y-146853506D01*
X108049685Y-146756815D01*
X107952994Y-146677463D01*
X107860452Y-146627997D01*
X107882095Y-146616429D01*
X107959448Y-146552948D01*
X108022929Y-146475595D01*
X108070101Y-146387343D01*
X108099149Y-146291585D01*
X108108957Y-146192000D01*
X108108957Y-145628500D01*
X108699307Y-145628500D01*
X108773527Y-145739578D01*
X108950422Y-145916473D01*
X109158429Y-146055459D01*
X109389555Y-146151195D01*
X109634916Y-146200000D01*
X109389555Y-146248805D01*
X109158429Y-146344541D01*
X108950422Y-146483527D01*
X108773527Y-146660422D01*
X108634541Y-146868429D01*
X108538805Y-147099555D01*
X108490000Y-147344916D01*
X108490000Y-147595084D01*
X108538805Y-147840445D01*
X108593711Y-147973000D01*
X108234172Y-147973000D01*
X108233500Y-147938250D01*
X108074750Y-147779500D01*
X107027000Y-147779500D01*
X107027000Y-147799500D01*
X106773000Y-147799500D01*
X106773000Y-147779500D01*
X105725250Y-147779500D01*
X105566500Y-147938250D01*
X105565828Y-147973000D01*
X104727000Y-147973000D01*
X104727000Y-143256394D01*
X104739095Y-143249929D01*
X104816448Y-143186448D01*
X104879929Y-143109095D01*
X104927101Y-143020843D01*
X104956149Y-142925085D01*
X104965957Y-142825500D01*
X104965957Y-142577786D01*
X104988268Y-142631649D01*
X105134203Y-142850057D01*
X105319943Y-143035797D01*
X105538351Y-143181732D01*
X105781032Y-143282254D01*
X106038662Y-143333500D01*
X106301338Y-143333500D01*
X106558968Y-143282254D01*
X106801649Y-143181732D01*
X107020057Y-143035797D01*
X107205797Y-142850057D01*
X107351732Y-142631649D01*
X107452254Y-142388968D01*
X107503500Y-142131338D01*
X107503500Y-141868662D01*
X107452254Y-141611032D01*
X107351732Y-141368351D01*
X107205797Y-141149943D01*
X107020057Y-140964203D01*
X106801649Y-140818268D01*
X106558968Y-140717746D01*
X106301338Y-140666500D01*
X106038662Y-140666500D01*
X105781032Y-140717746D01*
X105538351Y-140818268D01*
X105319943Y-140964203D01*
X105134203Y-141149943D01*
X104988268Y-141368351D01*
X104965957Y-141422214D01*
X104965957Y-141174500D01*
X104956149Y-141074915D01*
X104927101Y-140979157D01*
X104879929Y-140890905D01*
X104816448Y-140813552D01*
X104739095Y-140750071D01*
X104727000Y-140743606D01*
X104727000Y-134398500D01*
X105312543Y-134398500D01*
X105312543Y-134703300D01*
X105322351Y-134802885D01*
X105351399Y-134898643D01*
X105352205Y-134900150D01*
X105351399Y-134901657D01*
X105322351Y-134997415D01*
X105312543Y-135097000D01*
X105312543Y-135503400D01*
X105322351Y-135602985D01*
X105351399Y-135698743D01*
X105352205Y-135700250D01*
X105351399Y-135701757D01*
X105322351Y-135797515D01*
X105312543Y-135897100D01*
X105312543Y-136303500D01*
X105322351Y-136403085D01*
X105351399Y-136498843D01*
X105352205Y-136500350D01*
X105351399Y-136501857D01*
X105322351Y-136597615D01*
X105312543Y-136697200D01*
X105312543Y-137103600D01*
X105322351Y-137203185D01*
X105351399Y-137298943D01*
X105352205Y-137300450D01*
X105351399Y-137301957D01*
X105322351Y-137397715D01*
X105312543Y-137497300D01*
X105312543Y-137903700D01*
X105322351Y-138003285D01*
X105351399Y-138099043D01*
X105398571Y-138187295D01*
X105462052Y-138264648D01*
X105539405Y-138328129D01*
X105627657Y-138375301D01*
X105723415Y-138404349D01*
X105823000Y-138414157D01*
X107347000Y-138414157D01*
X107446585Y-138404349D01*
X107542343Y-138375301D01*
X107630595Y-138328129D01*
X107707948Y-138264648D01*
X107771429Y-138187295D01*
X107818601Y-138099043D01*
X107847649Y-138003285D01*
X107857457Y-137903700D01*
X107857457Y-137497300D01*
X107847649Y-137397715D01*
X107818601Y-137301957D01*
X107817795Y-137300450D01*
X107818601Y-137298943D01*
X107847649Y-137203185D01*
X107857457Y-137103600D01*
X107857457Y-136697200D01*
X107847649Y-136597615D01*
X107818601Y-136501857D01*
X107817795Y-136500350D01*
X107818601Y-136498843D01*
X107847649Y-136403085D01*
X107857457Y-136303500D01*
X107857457Y-135897100D01*
X107847649Y-135797515D01*
X107818601Y-135701757D01*
X107817795Y-135700250D01*
X107818601Y-135698743D01*
X107847649Y-135602985D01*
X107857457Y-135503400D01*
X107857457Y-135097000D01*
X107847649Y-134997415D01*
X107818601Y-134901657D01*
X107817795Y-134900150D01*
X107818601Y-134898643D01*
X107847649Y-134802885D01*
X107857457Y-134703300D01*
X107857457Y-134296900D01*
X107847649Y-134197315D01*
X107818601Y-134101557D01*
X107817795Y-134100050D01*
X107818601Y-134098543D01*
X107847649Y-134002785D01*
X107857457Y-133903200D01*
X107857457Y-133496800D01*
X107847649Y-133397215D01*
X107818601Y-133301457D01*
X107817795Y-133299950D01*
X107818601Y-133298443D01*
X107847649Y-133202685D01*
X107857457Y-133103100D01*
X107857457Y-132696700D01*
X107847649Y-132597115D01*
X107818601Y-132501357D01*
X107817795Y-132499850D01*
X107818601Y-132498343D01*
X107847649Y-132402585D01*
X107857457Y-132303000D01*
X107857457Y-131896600D01*
X107856228Y-131884125D01*
X107872268Y-131865157D01*
X107932847Y-131755721D01*
X107970914Y-131636570D01*
X107982000Y-131534650D01*
X107823250Y-131375900D01*
X106712000Y-131375900D01*
X106712000Y-131386143D01*
X106458000Y-131386143D01*
X106458000Y-131375900D01*
X106438000Y-131375900D01*
X106438000Y-131223500D01*
X106458000Y-131223500D01*
X106458000Y-131213257D01*
X106712000Y-131213257D01*
X106712000Y-131223500D01*
X107823250Y-131223500D01*
X107982000Y-131064750D01*
X107970914Y-130962830D01*
X107932847Y-130843679D01*
X107872268Y-130734243D01*
X107856228Y-130715275D01*
X107857457Y-130702800D01*
X107857457Y-130296400D01*
X107847649Y-130196815D01*
X107818601Y-130101057D01*
X107817795Y-130099550D01*
X107818601Y-130098043D01*
X107847649Y-130002285D01*
X107857457Y-129902700D01*
X107857457Y-129496300D01*
X107847649Y-129396715D01*
X107818601Y-129300957D01*
X107771429Y-129212705D01*
X107707948Y-129135352D01*
X107677480Y-129110348D01*
X107710348Y-129077480D01*
X107735352Y-129107948D01*
X107812705Y-129171429D01*
X107900957Y-129218601D01*
X107996715Y-129247649D01*
X108096300Y-129257457D01*
X108502700Y-129257457D01*
X108602285Y-129247649D01*
X108698043Y-129218601D01*
X108699550Y-129217795D01*
X108701057Y-129218601D01*
X108796815Y-129247649D01*
X108896400Y-129257457D01*
X109302800Y-129257457D01*
X109402385Y-129247649D01*
X109498143Y-129218601D01*
X109499650Y-129217795D01*
X109501157Y-129218601D01*
X109596915Y-129247649D01*
X109696500Y-129257457D01*
X110102900Y-129257457D01*
X110202485Y-129247649D01*
X110298243Y-129218601D01*
X110299750Y-129217795D01*
X110301257Y-129218601D01*
X110397015Y-129247649D01*
X110496600Y-129257457D01*
X110656130Y-129257457D01*
X110522166Y-129284104D01*
X110348822Y-129355905D01*
X110192816Y-129460145D01*
X110060145Y-129592816D01*
X109955905Y-129748822D01*
X109884104Y-129922166D01*
X109847500Y-130106187D01*
X109847500Y-130293813D01*
X109884104Y-130477834D01*
X109955905Y-130651178D01*
X110060145Y-130807184D01*
X110192816Y-130939855D01*
X110348822Y-131044095D01*
X110522166Y-131115896D01*
X110706187Y-131152500D01*
X110893813Y-131152500D01*
X111077834Y-131115896D01*
X111251178Y-131044095D01*
X111407184Y-130939855D01*
X111448539Y-130898500D01*
X112065702Y-130898500D01*
X112100000Y-130901878D01*
X112134298Y-130898500D01*
X112134309Y-130898500D01*
X112236930Y-130888393D01*
X112368597Y-130848452D01*
X112489943Y-130783591D01*
X112596303Y-130696303D01*
X112618175Y-130669652D01*
X113569757Y-129718071D01*
X113596403Y-129696203D01*
X113618271Y-129669557D01*
X113618274Y-129669554D01*
X113683691Y-129589844D01*
X113748551Y-129468499D01*
X113748552Y-129468497D01*
X113788493Y-129336830D01*
X113797022Y-129250228D01*
X113824000Y-129223250D01*
X113824000Y-128112000D01*
X113813757Y-128112000D01*
X113813757Y-127858000D01*
X113824000Y-127858000D01*
X113824000Y-126746750D01*
X113665250Y-126588000D01*
X113563330Y-126599086D01*
X113444179Y-126637153D01*
X113334743Y-126697732D01*
X113315775Y-126713772D01*
X113303300Y-126712543D01*
X113275284Y-126712543D01*
X113560827Y-126427000D01*
X114001800Y-126427000D01*
X114001800Y-126721350D01*
G37*
X114001800Y-126721350D02*
X113976400Y-126746750D01*
X113976400Y-127858000D01*
X113986643Y-127858000D01*
X113986643Y-128112000D01*
X113976400Y-128112000D01*
X113976400Y-129223250D01*
X114135150Y-129382000D01*
X114237070Y-129370914D01*
X114356221Y-129332847D01*
X114465657Y-129272268D01*
X114484625Y-129256228D01*
X114497100Y-129257457D01*
X114903500Y-129257457D01*
X115003085Y-129247649D01*
X115098843Y-129218601D01*
X115100350Y-129217795D01*
X115101857Y-129218601D01*
X115197615Y-129247649D01*
X115297200Y-129257457D01*
X115703600Y-129257457D01*
X115803185Y-129247649D01*
X115898943Y-129218601D01*
X115900450Y-129217795D01*
X115901957Y-129218601D01*
X115997715Y-129247649D01*
X116097300Y-129257457D01*
X116503700Y-129257457D01*
X116603285Y-129247649D01*
X116699043Y-129218601D01*
X116787295Y-129171429D01*
X116864648Y-129107948D01*
X116928129Y-129030595D01*
X116975301Y-128942343D01*
X117004349Y-128846585D01*
X117009227Y-128797055D01*
X117202945Y-128990773D01*
X117153415Y-128995651D01*
X117057657Y-129024699D01*
X116969405Y-129071871D01*
X116892052Y-129135352D01*
X116828571Y-129212705D01*
X116781399Y-129300957D01*
X116752351Y-129396715D01*
X116742543Y-129496300D01*
X116742543Y-129902700D01*
X116752351Y-130002285D01*
X116781399Y-130098043D01*
X116782205Y-130099550D01*
X116781399Y-130101057D01*
X116752351Y-130196815D01*
X116742543Y-130296400D01*
X116742543Y-130702800D01*
X116752351Y-130802385D01*
X116781399Y-130898143D01*
X116782205Y-130899650D01*
X116781399Y-130901157D01*
X116752351Y-130996915D01*
X116742543Y-131096500D01*
X116742543Y-131401300D01*
X116034498Y-131401300D01*
X116000200Y-131397922D01*
X115965902Y-131401300D01*
X115965891Y-131401300D01*
X115863270Y-131411407D01*
X115731603Y-131451348D01*
X115731601Y-131451349D01*
X115610256Y-131516209D01*
X115530546Y-131581626D01*
X115530543Y-131581629D01*
X115503897Y-131603497D01*
X115482029Y-131630143D01*
X115364672Y-131747500D01*
X115306187Y-131747500D01*
X115122166Y-131784104D01*
X114948822Y-131855905D01*
X114792816Y-131960145D01*
X114747982Y-132004979D01*
X114739855Y-131992816D01*
X114607184Y-131860145D01*
X114451178Y-131755905D01*
X114277834Y-131684104D01*
X114093813Y-131647500D01*
X113906187Y-131647500D01*
X113722166Y-131684104D01*
X113548822Y-131755905D01*
X113392816Y-131860145D01*
X113351461Y-131901500D01*
X111448539Y-131901500D01*
X111407184Y-131860145D01*
X111251178Y-131755905D01*
X111077834Y-131684104D01*
X110893813Y-131647500D01*
X110706187Y-131647500D01*
X110522166Y-131684104D01*
X110348822Y-131755905D01*
X110192816Y-131860145D01*
X110060145Y-131992816D01*
X109955905Y-132148822D01*
X109884104Y-132322166D01*
X109847500Y-132506187D01*
X109847500Y-132693813D01*
X109884104Y-132877834D01*
X109955905Y-133051178D01*
X110060145Y-133207184D01*
X110192816Y-133339855D01*
X110348822Y-133444095D01*
X110522166Y-133515896D01*
X110706187Y-133552500D01*
X110893813Y-133552500D01*
X111077834Y-133515896D01*
X111251178Y-133444095D01*
X111407184Y-133339855D01*
X111448539Y-133298500D01*
X113351461Y-133298500D01*
X113392816Y-133339855D01*
X113548822Y-133444095D01*
X113722166Y-133515896D01*
X113906187Y-133552500D01*
X114093813Y-133552500D01*
X114277834Y-133515896D01*
X114451178Y-133444095D01*
X114607184Y-133339855D01*
X114652018Y-133295021D01*
X114660145Y-133307184D01*
X114792816Y-133439855D01*
X114948822Y-133544095D01*
X115122166Y-133615896D01*
X115306187Y-133652500D01*
X115347500Y-133652500D01*
X115347500Y-133693813D01*
X115384104Y-133877834D01*
X115455905Y-134051178D01*
X115560145Y-134207184D01*
X115692816Y-134339855D01*
X115848822Y-134444095D01*
X116022166Y-134515896D01*
X116206187Y-134552500D01*
X116393813Y-134552500D01*
X116577834Y-134515896D01*
X116742543Y-134447672D01*
X116742543Y-134601700D01*
X115331716Y-134601700D01*
X115315896Y-134522166D01*
X115244095Y-134348822D01*
X115139855Y-134192816D01*
X115007184Y-134060145D01*
X114851178Y-133955905D01*
X114677834Y-133884104D01*
X114493813Y-133847500D01*
X114306187Y-133847500D01*
X114122166Y-133884104D01*
X113948822Y-133955905D01*
X113792816Y-134060145D01*
X113660145Y-134192816D01*
X113555905Y-134348822D01*
X113484104Y-134522166D01*
X113447500Y-134706187D01*
X113447500Y-134893813D01*
X113484104Y-135077834D01*
X113555905Y-135251178D01*
X113660145Y-135407184D01*
X113792816Y-135539855D01*
X113948822Y-135644095D01*
X114122166Y-135715896D01*
X114306187Y-135752500D01*
X114364672Y-135752500D01*
X114382029Y-135769857D01*
X114403897Y-135796503D01*
X114430543Y-135818371D01*
X114430546Y-135818374D01*
X114453157Y-135836930D01*
X114510257Y-135883791D01*
X114631603Y-135948652D01*
X114763270Y-135988593D01*
X114865891Y-135998700D01*
X114865902Y-135998700D01*
X114900200Y-136002078D01*
X114934498Y-135998700D01*
X116751350Y-135998700D01*
X116776750Y-136024100D01*
X117888000Y-136024100D01*
X117888000Y-136013857D01*
X118142000Y-136013857D01*
X118142000Y-136024100D01*
X119253250Y-136024100D01*
X119277471Y-135999879D01*
X119299800Y-136002078D01*
X119334098Y-135998700D01*
X119334109Y-135998700D01*
X119436730Y-135988593D01*
X119568397Y-135948652D01*
X119666433Y-135896250D01*
X119664928Y-136098500D01*
X119677188Y-136222982D01*
X119713498Y-136342680D01*
X119772463Y-136452994D01*
X119851815Y-136549685D01*
X119948506Y-136629037D01*
X120058820Y-136688002D01*
X120178518Y-136724312D01*
X120303000Y-136736572D01*
X120461750Y-136733500D01*
X120620500Y-136574750D01*
X120620500Y-135527000D01*
X120600500Y-135527000D01*
X120600500Y-135273000D01*
X120620500Y-135273000D01*
X120620500Y-135253000D01*
X120874500Y-135253000D01*
X120874500Y-135273000D01*
X120894500Y-135273000D01*
X120894500Y-135527000D01*
X120874500Y-135527000D01*
X120874500Y-136574750D01*
X121033250Y-136733500D01*
X121192000Y-136736572D01*
X121316482Y-136724312D01*
X121436180Y-136688002D01*
X121546494Y-136629037D01*
X121643185Y-136549685D01*
X121722537Y-136452994D01*
X121772003Y-136360452D01*
X121783571Y-136382095D01*
X121847052Y-136459448D01*
X121924405Y-136522929D01*
X122012657Y-136570101D01*
X122108415Y-136599149D01*
X122208000Y-136608957D01*
X123097000Y-136608957D01*
X123196585Y-136599149D01*
X123292343Y-136570101D01*
X123380595Y-136522929D01*
X123457948Y-136459448D01*
X123521429Y-136382095D01*
X123568601Y-136293843D01*
X123597649Y-136198085D01*
X123607457Y-136098500D01*
X123607457Y-134701500D01*
X123597649Y-134601915D01*
X123568601Y-134506157D01*
X123521429Y-134417905D01*
X123457948Y-134340552D01*
X123429683Y-134317356D01*
X123439855Y-134307184D01*
X123544095Y-134151178D01*
X123615896Y-133977834D01*
X123652500Y-133793813D01*
X123652500Y-133606187D01*
X123615896Y-133422166D01*
X123544095Y-133248822D01*
X123439855Y-133092816D01*
X123307184Y-132960145D01*
X123151178Y-132855905D01*
X122977834Y-132784104D01*
X122793813Y-132747500D01*
X122606187Y-132747500D01*
X122422166Y-132784104D01*
X122248822Y-132855905D01*
X122092816Y-132960145D01*
X121960145Y-133092816D01*
X121855905Y-133248822D01*
X121784104Y-133422166D01*
X121747500Y-133606187D01*
X121747500Y-133793813D01*
X121784104Y-133977834D01*
X121855905Y-134151178D01*
X121935914Y-134270919D01*
X121924405Y-134277071D01*
X121847052Y-134340552D01*
X121783571Y-134417905D01*
X121772003Y-134439548D01*
X121722537Y-134347006D01*
X121643185Y-134250315D01*
X121546494Y-134170963D01*
X121436180Y-134111998D01*
X121316482Y-134075688D01*
X121192000Y-134063428D01*
X121033250Y-134066500D01*
X120874502Y-134225248D01*
X120874502Y-134155331D01*
X120944095Y-134051178D01*
X121015896Y-133877834D01*
X121052500Y-133693813D01*
X121052500Y-133506187D01*
X121015896Y-133322166D01*
X120944095Y-133148822D01*
X120839855Y-132992816D01*
X120707184Y-132860145D01*
X120551178Y-132755905D01*
X120377834Y-132684104D01*
X120193813Y-132647500D01*
X120006187Y-132647500D01*
X119822166Y-132684104D01*
X119648822Y-132755905D01*
X119492816Y-132860145D01*
X119360145Y-132992816D01*
X119287457Y-133101601D01*
X119287457Y-132696700D01*
X119277649Y-132597115D01*
X119248601Y-132501357D01*
X119247795Y-132499850D01*
X119248601Y-132498343D01*
X119277649Y-132402585D01*
X119287457Y-132303000D01*
X119287457Y-131998200D01*
X119966002Y-131998200D01*
X120000300Y-132001578D01*
X120034598Y-131998200D01*
X120034609Y-131998200D01*
X120137230Y-131988093D01*
X120268897Y-131948152D01*
X120390243Y-131883291D01*
X120496603Y-131796003D01*
X120518475Y-131769352D01*
X121069657Y-131218171D01*
X121096303Y-131196303D01*
X121118171Y-131169657D01*
X121118174Y-131169654D01*
X121183591Y-131089944D01*
X121226291Y-131010057D01*
X121248452Y-130968597D01*
X121288393Y-130836930D01*
X121298500Y-130734309D01*
X121298500Y-130734298D01*
X121301878Y-130700000D01*
X121298500Y-130665702D01*
X121298500Y-128834298D01*
X121301878Y-128800000D01*
X121298500Y-128765702D01*
X121298500Y-128765691D01*
X121288393Y-128663070D01*
X121248452Y-128531403D01*
X121215446Y-128469653D01*
X121183591Y-128410056D01*
X121118174Y-128330346D01*
X121118167Y-128330339D01*
X121096302Y-128303697D01*
X121069662Y-128281834D01*
X119698500Y-126910673D01*
X119698500Y-126751738D01*
X123673000Y-130455249D01*
X123673000Y-143946496D01*
X119548289Y-147973000D01*
X116147216Y-147973000D01*
X116162756Y-147939952D01*
X116229023Y-147672865D01*
X116241910Y-147397983D01*
X116200922Y-147125867D01*
X116107636Y-146866977D01*
X116045656Y-146751020D01*
X115805565Y-146684040D01*
X115019605Y-147470000D01*
X115033748Y-147484143D01*
X114854143Y-147663748D01*
X114840000Y-147649605D01*
X114825858Y-147663748D01*
X114646253Y-147484143D01*
X114660395Y-147470000D01*
X113874435Y-146684040D01*
X113634344Y-146751020D01*
X113517244Y-147000048D01*
X113503284Y-147056314D01*
X113425459Y-146868429D01*
X113286473Y-146660422D01*
X113109578Y-146483527D01*
X112901571Y-146344541D01*
X112670445Y-146248805D01*
X112425084Y-146200000D01*
X112670445Y-146151195D01*
X112901571Y-146055459D01*
X113109578Y-145916473D01*
X113286473Y-145739578D01*
X113425459Y-145531571D01*
X113521195Y-145300445D01*
X113567543Y-145067436D01*
X113567543Y-145692000D01*
X113577351Y-145791585D01*
X113606399Y-145887343D01*
X113653571Y-145975595D01*
X113717052Y-146052948D01*
X113794405Y-146116429D01*
X113882657Y-146163601D01*
X113978415Y-146192649D01*
X114078000Y-146202457D01*
X114236803Y-146202457D01*
X114121020Y-146264344D01*
X114054040Y-146504435D01*
X114840000Y-147290395D01*
X115625960Y-146504435D01*
X115558980Y-146264344D01*
X115427369Y-146202457D01*
X115602000Y-146202457D01*
X115701585Y-146192649D01*
X115797343Y-146163601D01*
X115885595Y-146116429D01*
X115962948Y-146052948D01*
X116026429Y-145975595D01*
X116073601Y-145887343D01*
X116102649Y-145791585D01*
X116112457Y-145692000D01*
X116112457Y-144645371D01*
X116673000Y-144084828D01*
X116673000Y-144500000D01*
X116675440Y-144524776D01*
X116682667Y-144548601D01*
X116694403Y-144570557D01*
X116710197Y-144589803D01*
X116729443Y-144605597D01*
X116751399Y-144617333D01*
X116775224Y-144624560D01*
X116800000Y-144627000D01*
X120479961Y-144627000D01*
X120592816Y-144739855D01*
X120748822Y-144844095D01*
X120922166Y-144915896D01*
X121106187Y-144952500D01*
X121293813Y-144952500D01*
X121477834Y-144915896D01*
X121651178Y-144844095D01*
X121807184Y-144739855D01*
X121922228Y-144624811D01*
X121924776Y-144624560D01*
X121948601Y-144617333D01*
X121970557Y-144605597D01*
X121989803Y-144589803D01*
X122005597Y-144570557D01*
X122017333Y-144548601D01*
X122024560Y-144524776D01*
X122027000Y-144500000D01*
X122027000Y-144476762D01*
X122044095Y-144451178D01*
X122115896Y-144277834D01*
X122152500Y-144093813D01*
X122152500Y-143906187D01*
X122115896Y-143722166D01*
X122044095Y-143548822D01*
X122027000Y-143523238D01*
X122027000Y-143413014D01*
X122034148Y-143407148D01*
X122097629Y-143329795D01*
X122144801Y-143241543D01*
X122173849Y-143145785D01*
X122183657Y-143046200D01*
X122183657Y-142131800D01*
X122173849Y-142032215D01*
X122144801Y-141936457D01*
X122097629Y-141848205D01*
X122034148Y-141770852D01*
X122027000Y-141764986D01*
X122027000Y-141635014D01*
X122034148Y-141629148D01*
X122097629Y-141551795D01*
X122144801Y-141463543D01*
X122144871Y-141463312D01*
X122157597Y-141459452D01*
X122278943Y-141394591D01*
X122385303Y-141307303D01*
X122407175Y-141280652D01*
X123122161Y-140565666D01*
X123148802Y-140543803D01*
X123170667Y-140517161D01*
X123170674Y-140517154D01*
X123236091Y-140437444D01*
X123300951Y-140316099D01*
X123301162Y-140315404D01*
X123340893Y-140184430D01*
X123351000Y-140081809D01*
X123351000Y-140081799D01*
X123354378Y-140047501D01*
X123351000Y-140013203D01*
X123351000Y-139438748D01*
X123380595Y-139422929D01*
X123457948Y-139359448D01*
X123521429Y-139282095D01*
X123568601Y-139193843D01*
X123597649Y-139098085D01*
X123607457Y-138998500D01*
X123607457Y-137601500D01*
X123597649Y-137501915D01*
X123568601Y-137406157D01*
X123521429Y-137317905D01*
X123457948Y-137240552D01*
X123380595Y-137177071D01*
X123292343Y-137129899D01*
X123196585Y-137100851D01*
X123097000Y-137091043D01*
X122208000Y-137091043D01*
X122108415Y-137100851D01*
X122012657Y-137129899D01*
X121924405Y-137177071D01*
X121847052Y-137240552D01*
X121783571Y-137317905D01*
X121736399Y-137406157D01*
X121707351Y-137501915D01*
X121700000Y-137576553D01*
X121692649Y-137501915D01*
X121663601Y-137406157D01*
X121616429Y-137317905D01*
X121552948Y-137240552D01*
X121475595Y-137177071D01*
X121387343Y-137129899D01*
X121291585Y-137100851D01*
X121192000Y-137091043D01*
X120489551Y-137091043D01*
X120416597Y-137052048D01*
X120284930Y-137012107D01*
X120182309Y-137002000D01*
X120182298Y-137002000D01*
X120148000Y-136998622D01*
X120113702Y-137002000D01*
X119287457Y-137002000D01*
X119287457Y-136697200D01*
X119286228Y-136684725D01*
X119302268Y-136665757D01*
X119362847Y-136556321D01*
X119400914Y-136437170D01*
X119412000Y-136335250D01*
X119253250Y-136176500D01*
X118142000Y-136176500D01*
X118142000Y-136186743D01*
X117888000Y-136186743D01*
X117888000Y-136176500D01*
X116776750Y-136176500D01*
X116618000Y-136335250D01*
X116629086Y-136437170D01*
X116667153Y-136556321D01*
X116727732Y-136665757D01*
X116743772Y-136684725D01*
X116742543Y-136697200D01*
X116742543Y-137103600D01*
X116748127Y-137160300D01*
X116418175Y-136830348D01*
X116396303Y-136803697D01*
X116289943Y-136716409D01*
X116168597Y-136651548D01*
X116036930Y-136611607D01*
X115934309Y-136601500D01*
X115934298Y-136601500D01*
X115900000Y-136598122D01*
X115865702Y-136601500D01*
X114948539Y-136601500D01*
X114907184Y-136560145D01*
X114751178Y-136455905D01*
X114577834Y-136384104D01*
X114393813Y-136347500D01*
X114206187Y-136347500D01*
X114022166Y-136384104D01*
X113848822Y-136455905D01*
X113692816Y-136560145D01*
X113560145Y-136692816D01*
X113455905Y-136848822D01*
X113384104Y-137022166D01*
X113347500Y-137206187D01*
X113347500Y-137393813D01*
X113384104Y-137577834D01*
X113455905Y-137751178D01*
X113560145Y-137907184D01*
X113692816Y-138039855D01*
X113846499Y-138142543D01*
X113697000Y-138142543D01*
X113597415Y-138152351D01*
X113501657Y-138181399D01*
X113500150Y-138182205D01*
X113498643Y-138181399D01*
X113402885Y-138152351D01*
X113303300Y-138142543D01*
X112896900Y-138142543D01*
X112884425Y-138143772D01*
X112865457Y-138127732D01*
X112756021Y-138067153D01*
X112636870Y-138029086D01*
X112534950Y-138018000D01*
X112376200Y-138176750D01*
X112376200Y-139288000D01*
X112386443Y-139288000D01*
X112386443Y-139542000D01*
X112376200Y-139542000D01*
X112376200Y-139562000D01*
X112223800Y-139562000D01*
X112223800Y-139542000D01*
X112213557Y-139542000D01*
X112213557Y-139288000D01*
X112223800Y-139288000D01*
X112223800Y-138176750D01*
X112065050Y-138018000D01*
X111963130Y-138029086D01*
X111843979Y-138067153D01*
X111734543Y-138127732D01*
X111715575Y-138143772D01*
X111703100Y-138142543D01*
X111296700Y-138142543D01*
X111197115Y-138152351D01*
X111101357Y-138181399D01*
X111099850Y-138182205D01*
X111098343Y-138181399D01*
X111002585Y-138152351D01*
X110903000Y-138142543D01*
X110545284Y-138142543D01*
X112145636Y-136542192D01*
X112277834Y-136515896D01*
X112451178Y-136444095D01*
X112607184Y-136339855D01*
X112739855Y-136207184D01*
X112844095Y-136051178D01*
X112915896Y-135877834D01*
X112952500Y-135693813D01*
X112952500Y-135506187D01*
X112915896Y-135322166D01*
X112844095Y-135148822D01*
X112739855Y-134992816D01*
X112607184Y-134860145D01*
X112451178Y-134755905D01*
X112277834Y-134684104D01*
X112093813Y-134647500D01*
X111906187Y-134647500D01*
X111722166Y-134684104D01*
X111548822Y-134755905D01*
X111392816Y-134860145D01*
X111260145Y-134992816D01*
X111155905Y-135148822D01*
X111084104Y-135322166D01*
X111047500Y-135506187D01*
X111047500Y-135664672D01*
X108629944Y-138082229D01*
X108603297Y-138104098D01*
X108581429Y-138130744D01*
X108581426Y-138130747D01*
X108566582Y-138148835D01*
X108502700Y-138142543D01*
X108096300Y-138142543D01*
X107996715Y-138152351D01*
X107900957Y-138181399D01*
X107812705Y-138228571D01*
X107735352Y-138292052D01*
X107671871Y-138369405D01*
X107624699Y-138457657D01*
X107595651Y-138553415D01*
X107585843Y-138653000D01*
X107585843Y-140177000D01*
X107595651Y-140276585D01*
X107624699Y-140372343D01*
X107671871Y-140460595D01*
X107735352Y-140537948D01*
X107812705Y-140601429D01*
X107900957Y-140648601D01*
X107996715Y-140677649D01*
X108096300Y-140687457D01*
X108502700Y-140687457D01*
X108602285Y-140677649D01*
X108698043Y-140648601D01*
X108699550Y-140647795D01*
X108701057Y-140648601D01*
X108796815Y-140677649D01*
X108896400Y-140687457D01*
X109302800Y-140687457D01*
X109402385Y-140677649D01*
X109498143Y-140648601D01*
X109499650Y-140647795D01*
X109501157Y-140648601D01*
X109596915Y-140677649D01*
X109696500Y-140687457D01*
X110102900Y-140687457D01*
X110202485Y-140677649D01*
X110298243Y-140648601D01*
X110299750Y-140647795D01*
X110301257Y-140648601D01*
X110397015Y-140677649D01*
X110496600Y-140687457D01*
X110903000Y-140687457D01*
X111002585Y-140677649D01*
X111091403Y-140650706D01*
X111053506Y-140670963D01*
X110956815Y-140750315D01*
X110877463Y-140847006D01*
X110827997Y-140939548D01*
X110816429Y-140917905D01*
X110752948Y-140840552D01*
X110675595Y-140777071D01*
X110587343Y-140729899D01*
X110491585Y-140700851D01*
X110392000Y-140691043D01*
X109503000Y-140691043D01*
X109403415Y-140700851D01*
X109307657Y-140729899D01*
X109219405Y-140777071D01*
X109142052Y-140840552D01*
X109078571Y-140917905D01*
X109031399Y-141006157D01*
X109002351Y-141101915D01*
X108992543Y-141201500D01*
X108992543Y-142219629D01*
X108864673Y-142347500D01*
X108806187Y-142347500D01*
X108622166Y-142384104D01*
X108448822Y-142455905D01*
X108292816Y-142560145D01*
X108160145Y-142692816D01*
X108055905Y-142848822D01*
X107984104Y-143022166D01*
X107947500Y-143206187D01*
X107947500Y-143393813D01*
X107984104Y-143577834D01*
X108055905Y-143751178D01*
X108160145Y-143907184D01*
X108292816Y-144039855D01*
X108448822Y-144144095D01*
X108622166Y-144215896D01*
X108699460Y-144231271D01*
X108699307Y-144231500D01*
X107604297Y-144231500D01*
X107569999Y-144228122D01*
X107535701Y-144231500D01*
X107535691Y-144231500D01*
X107433070Y-144241607D01*
X107301403Y-144281548D01*
X107301401Y-144281549D01*
X107180056Y-144346409D01*
X107100345Y-144411826D01*
X107100337Y-144411834D01*
X107073697Y-144433697D01*
X107051833Y-144460338D01*
X106719629Y-144792543D01*
X106201500Y-144792543D01*
X106101915Y-144802351D01*
X106006157Y-144831399D01*
X105917905Y-144878571D01*
X105840552Y-144942052D01*
X105777071Y-145019405D01*
X105729899Y-145107657D01*
X105700851Y-145203415D01*
X105691043Y-145303000D01*
X105691043Y-146192000D01*
X105700851Y-146291585D01*
X105729899Y-146387343D01*
X105777071Y-146475595D01*
X105840552Y-146552948D01*
X105917905Y-146616429D01*
X105939548Y-146627997D01*
X105847006Y-146677463D01*
X105750315Y-146756815D01*
X105670963Y-146853506D01*
X105611998Y-146963820D01*
X105575688Y-147083518D01*
X105563428Y-147208000D01*
X105566500Y-147366750D01*
X105725250Y-147525500D01*
X106773000Y-147525500D01*
X106773000Y-147505500D01*
X107027000Y-147505500D01*
X107027000Y-147525500D01*
X108074750Y-147525500D01*
X108233500Y-147366750D01*
X108236572Y-147208000D01*
X108224312Y-147083518D01*
X108188002Y-146963820D01*
X108129037Y-146853506D01*
X108049685Y-146756815D01*
X107952994Y-146677463D01*
X107860452Y-146627997D01*
X107882095Y-146616429D01*
X107959448Y-146552948D01*
X108022929Y-146475595D01*
X108070101Y-146387343D01*
X108099149Y-146291585D01*
X108108957Y-146192000D01*
X108108957Y-145628500D01*
X108699307Y-145628500D01*
X108773527Y-145739578D01*
X108950422Y-145916473D01*
X109158429Y-146055459D01*
X109389555Y-146151195D01*
X109634916Y-146200000D01*
X109389555Y-146248805D01*
X109158429Y-146344541D01*
X108950422Y-146483527D01*
X108773527Y-146660422D01*
X108634541Y-146868429D01*
X108538805Y-147099555D01*
X108490000Y-147344916D01*
X108490000Y-147595084D01*
X108538805Y-147840445D01*
X108593711Y-147973000D01*
X108234172Y-147973000D01*
X108233500Y-147938250D01*
X108074750Y-147779500D01*
X107027000Y-147779500D01*
X107027000Y-147799500D01*
X106773000Y-147799500D01*
X106773000Y-147779500D01*
X105725250Y-147779500D01*
X105566500Y-147938250D01*
X105565828Y-147973000D01*
X104727000Y-147973000D01*
X104727000Y-143256394D01*
X104739095Y-143249929D01*
X104816448Y-143186448D01*
X104879929Y-143109095D01*
X104927101Y-143020843D01*
X104956149Y-142925085D01*
X104965957Y-142825500D01*
X104965957Y-142577786D01*
X104988268Y-142631649D01*
X105134203Y-142850057D01*
X105319943Y-143035797D01*
X105538351Y-143181732D01*
X105781032Y-143282254D01*
X106038662Y-143333500D01*
X106301338Y-143333500D01*
X106558968Y-143282254D01*
X106801649Y-143181732D01*
X107020057Y-143035797D01*
X107205797Y-142850057D01*
X107351732Y-142631649D01*
X107452254Y-142388968D01*
X107503500Y-142131338D01*
X107503500Y-141868662D01*
X107452254Y-141611032D01*
X107351732Y-141368351D01*
X107205797Y-141149943D01*
X107020057Y-140964203D01*
X106801649Y-140818268D01*
X106558968Y-140717746D01*
X106301338Y-140666500D01*
X106038662Y-140666500D01*
X105781032Y-140717746D01*
X105538351Y-140818268D01*
X105319943Y-140964203D01*
X105134203Y-141149943D01*
X104988268Y-141368351D01*
X104965957Y-141422214D01*
X104965957Y-141174500D01*
X104956149Y-141074915D01*
X104927101Y-140979157D01*
X104879929Y-140890905D01*
X104816448Y-140813552D01*
X104739095Y-140750071D01*
X104727000Y-140743606D01*
X104727000Y-134398500D01*
X105312543Y-134398500D01*
X105312543Y-134703300D01*
X105322351Y-134802885D01*
X105351399Y-134898643D01*
X105352205Y-134900150D01*
X105351399Y-134901657D01*
X105322351Y-134997415D01*
X105312543Y-135097000D01*
X105312543Y-135503400D01*
X105322351Y-135602985D01*
X105351399Y-135698743D01*
X105352205Y-135700250D01*
X105351399Y-135701757D01*
X105322351Y-135797515D01*
X105312543Y-135897100D01*
X105312543Y-136303500D01*
X105322351Y-136403085D01*
X105351399Y-136498843D01*
X105352205Y-136500350D01*
X105351399Y-136501857D01*
X105322351Y-136597615D01*
X105312543Y-136697200D01*
X105312543Y-137103600D01*
X105322351Y-137203185D01*
X105351399Y-137298943D01*
X105352205Y-137300450D01*
X105351399Y-137301957D01*
X105322351Y-137397715D01*
X105312543Y-137497300D01*
X105312543Y-137903700D01*
X105322351Y-138003285D01*
X105351399Y-138099043D01*
X105398571Y-138187295D01*
X105462052Y-138264648D01*
X105539405Y-138328129D01*
X105627657Y-138375301D01*
X105723415Y-138404349D01*
X105823000Y-138414157D01*
X107347000Y-138414157D01*
X107446585Y-138404349D01*
X107542343Y-138375301D01*
X107630595Y-138328129D01*
X107707948Y-138264648D01*
X107771429Y-138187295D01*
X107818601Y-138099043D01*
X107847649Y-138003285D01*
X107857457Y-137903700D01*
X107857457Y-137497300D01*
X107847649Y-137397715D01*
X107818601Y-137301957D01*
X107817795Y-137300450D01*
X107818601Y-137298943D01*
X107847649Y-137203185D01*
X107857457Y-137103600D01*
X107857457Y-136697200D01*
X107847649Y-136597615D01*
X107818601Y-136501857D01*
X107817795Y-136500350D01*
X107818601Y-136498843D01*
X107847649Y-136403085D01*
X107857457Y-136303500D01*
X107857457Y-135897100D01*
X107847649Y-135797515D01*
X107818601Y-135701757D01*
X107817795Y-135700250D01*
X107818601Y-135698743D01*
X107847649Y-135602985D01*
X107857457Y-135503400D01*
X107857457Y-135097000D01*
X107847649Y-134997415D01*
X107818601Y-134901657D01*
X107817795Y-134900150D01*
X107818601Y-134898643D01*
X107847649Y-134802885D01*
X107857457Y-134703300D01*
X107857457Y-134296900D01*
X107847649Y-134197315D01*
X107818601Y-134101557D01*
X107817795Y-134100050D01*
X107818601Y-134098543D01*
X107847649Y-134002785D01*
X107857457Y-133903200D01*
X107857457Y-133496800D01*
X107847649Y-133397215D01*
X107818601Y-133301457D01*
X107817795Y-133299950D01*
X107818601Y-133298443D01*
X107847649Y-133202685D01*
X107857457Y-133103100D01*
X107857457Y-132696700D01*
X107847649Y-132597115D01*
X107818601Y-132501357D01*
X107817795Y-132499850D01*
X107818601Y-132498343D01*
X107847649Y-132402585D01*
X107857457Y-132303000D01*
X107857457Y-131896600D01*
X107856228Y-131884125D01*
X107872268Y-131865157D01*
X107932847Y-131755721D01*
X107970914Y-131636570D01*
X107982000Y-131534650D01*
X107823250Y-131375900D01*
X106712000Y-131375900D01*
X106712000Y-131386143D01*
X106458000Y-131386143D01*
X106458000Y-131375900D01*
X106438000Y-131375900D01*
X106438000Y-131223500D01*
X106458000Y-131223500D01*
X106458000Y-131213257D01*
X106712000Y-131213257D01*
X106712000Y-131223500D01*
X107823250Y-131223500D01*
X107982000Y-131064750D01*
X107970914Y-130962830D01*
X107932847Y-130843679D01*
X107872268Y-130734243D01*
X107856228Y-130715275D01*
X107857457Y-130702800D01*
X107857457Y-130296400D01*
X107847649Y-130196815D01*
X107818601Y-130101057D01*
X107817795Y-130099550D01*
X107818601Y-130098043D01*
X107847649Y-130002285D01*
X107857457Y-129902700D01*
X107857457Y-129496300D01*
X107847649Y-129396715D01*
X107818601Y-129300957D01*
X107771429Y-129212705D01*
X107707948Y-129135352D01*
X107677480Y-129110348D01*
X107710348Y-129077480D01*
X107735352Y-129107948D01*
X107812705Y-129171429D01*
X107900957Y-129218601D01*
X107996715Y-129247649D01*
X108096300Y-129257457D01*
X108502700Y-129257457D01*
X108602285Y-129247649D01*
X108698043Y-129218601D01*
X108699550Y-129217795D01*
X108701057Y-129218601D01*
X108796815Y-129247649D01*
X108896400Y-129257457D01*
X109302800Y-129257457D01*
X109402385Y-129247649D01*
X109498143Y-129218601D01*
X109499650Y-129217795D01*
X109501157Y-129218601D01*
X109596915Y-129247649D01*
X109696500Y-129257457D01*
X110102900Y-129257457D01*
X110202485Y-129247649D01*
X110298243Y-129218601D01*
X110299750Y-129217795D01*
X110301257Y-129218601D01*
X110397015Y-129247649D01*
X110496600Y-129257457D01*
X110656130Y-129257457D01*
X110522166Y-129284104D01*
X110348822Y-129355905D01*
X110192816Y-129460145D01*
X110060145Y-129592816D01*
X109955905Y-129748822D01*
X109884104Y-129922166D01*
X109847500Y-130106187D01*
X109847500Y-130293813D01*
X109884104Y-130477834D01*
X109955905Y-130651178D01*
X110060145Y-130807184D01*
X110192816Y-130939855D01*
X110348822Y-131044095D01*
X110522166Y-131115896D01*
X110706187Y-131152500D01*
X110893813Y-131152500D01*
X111077834Y-131115896D01*
X111251178Y-131044095D01*
X111407184Y-130939855D01*
X111448539Y-130898500D01*
X112065702Y-130898500D01*
X112100000Y-130901878D01*
X112134298Y-130898500D01*
X112134309Y-130898500D01*
X112236930Y-130888393D01*
X112368597Y-130848452D01*
X112489943Y-130783591D01*
X112596303Y-130696303D01*
X112618175Y-130669652D01*
X113569757Y-129718071D01*
X113596403Y-129696203D01*
X113618271Y-129669557D01*
X113618274Y-129669554D01*
X113683691Y-129589844D01*
X113748551Y-129468499D01*
X113748552Y-129468497D01*
X113788493Y-129336830D01*
X113797022Y-129250228D01*
X113824000Y-129223250D01*
X113824000Y-128112000D01*
X113813757Y-128112000D01*
X113813757Y-127858000D01*
X113824000Y-127858000D01*
X113824000Y-126746750D01*
X113665250Y-126588000D01*
X113563330Y-126599086D01*
X113444179Y-126637153D01*
X113334743Y-126697732D01*
X113315775Y-126713772D01*
X113303300Y-126712543D01*
X113275284Y-126712543D01*
X113560827Y-126427000D01*
X114001800Y-126427000D01*
X114001800Y-126721350D01*
G36*
X111979500Y-141773000D02*
G01*
X111999500Y-141773000D01*
X111999500Y-142027000D01*
X111979500Y-142027000D01*
X111979500Y-142047000D01*
X111725500Y-142047000D01*
X111725500Y-142027000D01*
X111705500Y-142027000D01*
X111705500Y-141773000D01*
X111725500Y-141773000D01*
X111725500Y-141753000D01*
X111979500Y-141753000D01*
X111979500Y-141773000D01*
G37*
X111979500Y-141773000D02*
X111999500Y-141773000D01*
X111999500Y-142027000D01*
X111979500Y-142027000D01*
X111979500Y-142047000D01*
X111725500Y-142047000D01*
X111725500Y-142027000D01*
X111705500Y-142027000D01*
X111705500Y-141773000D01*
X111725500Y-141773000D01*
X111725500Y-141753000D01*
X111979500Y-141753000D01*
X111979500Y-141773000D01*
G36*
X117484104Y-101022166D02*
G01*
X117447500Y-101206187D01*
X117447500Y-101393813D01*
X117484104Y-101577834D01*
X117555905Y-101751178D01*
X117577933Y-101784145D01*
X117577834Y-101784104D01*
X117393813Y-101747500D01*
X117206187Y-101747500D01*
X117022166Y-101784104D01*
X116848822Y-101855905D01*
X116692816Y-101960145D01*
X116560145Y-102092816D01*
X116455905Y-102248822D01*
X116384104Y-102422166D01*
X116347500Y-102606187D01*
X116347500Y-102754382D01*
X116177834Y-102684104D01*
X115993813Y-102647500D01*
X115806187Y-102647500D01*
X115622166Y-102684104D01*
X115448822Y-102755905D01*
X115292816Y-102860145D01*
X115160145Y-102992816D01*
X115055905Y-103148822D01*
X114984104Y-103322166D01*
X114947500Y-103506187D01*
X114947500Y-103693813D01*
X114984104Y-103877834D01*
X115055905Y-104051178D01*
X115160145Y-104207184D01*
X115292816Y-104339855D01*
X115448822Y-104444095D01*
X115622166Y-104515896D01*
X115806187Y-104552500D01*
X115993813Y-104552500D01*
X116177834Y-104515896D01*
X116351178Y-104444095D01*
X116507184Y-104339855D01*
X116548539Y-104298500D01*
X117910673Y-104298500D01*
X118275216Y-104663043D01*
X118211000Y-104663043D01*
X118111415Y-104672851D01*
X118015657Y-104701899D01*
X117927405Y-104749071D01*
X117850052Y-104812552D01*
X117830000Y-104836986D01*
X117809948Y-104812552D01*
X117732595Y-104749071D01*
X117644343Y-104701899D01*
X117548585Y-104672851D01*
X117449000Y-104663043D01*
X116941000Y-104663043D01*
X116841415Y-104672851D01*
X116745657Y-104701899D01*
X116657405Y-104749071D01*
X116580052Y-104812552D01*
X116560000Y-104836986D01*
X116539948Y-104812552D01*
X116462595Y-104749071D01*
X116374343Y-104701899D01*
X116278585Y-104672851D01*
X116179000Y-104663043D01*
X115671000Y-104663043D01*
X115571415Y-104672851D01*
X115475657Y-104701899D01*
X115387405Y-104749071D01*
X115310052Y-104812552D01*
X115290000Y-104836986D01*
X115269948Y-104812552D01*
X115192595Y-104749071D01*
X115104343Y-104701899D01*
X115008585Y-104672851D01*
X114909000Y-104663043D01*
X114401000Y-104663043D01*
X114301415Y-104672851D01*
X114205657Y-104701899D01*
X114117405Y-104749071D01*
X114114679Y-104751308D01*
X114098169Y-104730442D01*
X114002910Y-104649376D01*
X113893666Y-104588452D01*
X113774635Y-104550011D01*
X113670750Y-104538500D01*
X113512000Y-104697250D01*
X113512000Y-105618000D01*
X113532000Y-105618000D01*
X113532000Y-105872000D01*
X113512000Y-105872000D01*
X113512000Y-106792750D01*
X113670750Y-106951500D01*
X113774635Y-106939989D01*
X113893666Y-106901548D01*
X113956501Y-106866506D01*
X113956500Y-107951896D01*
X113922595Y-107924071D01*
X113834343Y-107876899D01*
X113738585Y-107847851D01*
X113639000Y-107838043D01*
X113131000Y-107838043D01*
X113031415Y-107847851D01*
X112935657Y-107876899D01*
X112847405Y-107924071D01*
X112770052Y-107987552D01*
X112706571Y-108064905D01*
X112659399Y-108153157D01*
X112630351Y-108248915D01*
X112620543Y-108348500D01*
X112620543Y-109491500D01*
X112623000Y-109516449D01*
X112623001Y-112247567D01*
X112619314Y-112285000D01*
X112634027Y-112434378D01*
X112677599Y-112578015D01*
X112748355Y-112710392D01*
X112819721Y-112797351D01*
X112843579Y-112826422D01*
X112872649Y-112850279D01*
X112955276Y-112932906D01*
X112984104Y-113077834D01*
X113055905Y-113251178D01*
X113160145Y-113407184D01*
X113292816Y-113539855D01*
X113307999Y-113550000D01*
X113292816Y-113560145D01*
X113160145Y-113692816D01*
X113055905Y-113848822D01*
X112984104Y-114022166D01*
X112947500Y-114206187D01*
X112947500Y-114393813D01*
X112984104Y-114577834D01*
X113031093Y-114691276D01*
X112872649Y-114849721D01*
X112843579Y-114873578D01*
X112748355Y-114989608D01*
X112733973Y-115016515D01*
X112706571Y-115049905D01*
X112659399Y-115138157D01*
X112630351Y-115233915D01*
X112620543Y-115333500D01*
X112620543Y-115402522D01*
X112619314Y-115415000D01*
X112620543Y-115427478D01*
X112620543Y-116476500D01*
X112630351Y-116576085D01*
X112659399Y-116671843D01*
X112706571Y-116760095D01*
X112770052Y-116837448D01*
X112847405Y-116900929D01*
X112935657Y-116948101D01*
X113031415Y-116977149D01*
X113131000Y-116986957D01*
X113639000Y-116986957D01*
X113738585Y-116977149D01*
X113834343Y-116948101D01*
X113922595Y-116900929D01*
X113956501Y-116873104D01*
X113956500Y-117958494D01*
X113893666Y-117923452D01*
X113774635Y-117885011D01*
X113670750Y-117873500D01*
X113512000Y-118032250D01*
X113512000Y-118953000D01*
X113532000Y-118953000D01*
X113532000Y-119207000D01*
X113512000Y-119207000D01*
X113512000Y-119227000D01*
X113258000Y-119227000D01*
X113258000Y-119207000D01*
X112654750Y-119207000D01*
X112496000Y-119365750D01*
X112493030Y-119640108D01*
X112503066Y-119764788D01*
X112537233Y-119885116D01*
X112594218Y-119996465D01*
X112671831Y-120094558D01*
X112767090Y-120175624D01*
X112876334Y-120236548D01*
X112995365Y-120274989D01*
X113042885Y-120280254D01*
X112984104Y-120422166D01*
X112947500Y-120606187D01*
X112947500Y-120664672D01*
X112330344Y-121281829D01*
X112303698Y-121303697D01*
X112281830Y-121330343D01*
X112281826Y-121330347D01*
X112216409Y-121410057D01*
X112151549Y-121531402D01*
X112132683Y-121593596D01*
X112111608Y-121663070D01*
X112101501Y-121765691D01*
X112098122Y-121800000D01*
X112101501Y-121834308D01*
X112101500Y-124373000D01*
X111398300Y-124373000D01*
X111398300Y-122789527D01*
X111614656Y-122573171D01*
X111641302Y-122551303D01*
X111663171Y-122524656D01*
X111663174Y-122524653D01*
X111728591Y-122444944D01*
X111768603Y-122370086D01*
X111793452Y-122323597D01*
X111833393Y-122191930D01*
X111843500Y-122089309D01*
X111843500Y-122089298D01*
X111846878Y-122055000D01*
X111843500Y-122020702D01*
X111843500Y-121301729D01*
X111944095Y-121151178D01*
X112015896Y-120977834D01*
X112052500Y-120793813D01*
X112052500Y-120606187D01*
X112015896Y-120422166D01*
X111944095Y-120248822D01*
X111843500Y-120098271D01*
X111843500Y-119897545D01*
X111870601Y-119846843D01*
X111899649Y-119751085D01*
X111909457Y-119651500D01*
X111909457Y-118519892D01*
X112493030Y-118519892D01*
X112496000Y-118794250D01*
X112654750Y-118953000D01*
X113258000Y-118953000D01*
X113258000Y-118032250D01*
X113099250Y-117873500D01*
X112995365Y-117885011D01*
X112876334Y-117923452D01*
X112767090Y-117984376D01*
X112671831Y-118065442D01*
X112594218Y-118163535D01*
X112537233Y-118274884D01*
X112503066Y-118395212D01*
X112493030Y-118519892D01*
X111909457Y-118519892D01*
X111909457Y-118508500D01*
X111899649Y-118408915D01*
X111870601Y-118313157D01*
X111843500Y-118262455D01*
X111843500Y-116722545D01*
X111870601Y-116671843D01*
X111899649Y-116576085D01*
X111909457Y-116476500D01*
X111909457Y-115333500D01*
X111899649Y-115233915D01*
X111870601Y-115138157D01*
X111823429Y-115049905D01*
X111807070Y-115029972D01*
X111877834Y-115015896D01*
X112051178Y-114944095D01*
X112207184Y-114839855D01*
X112339855Y-114707184D01*
X112444095Y-114551178D01*
X112515896Y-114377834D01*
X112552500Y-114193813D01*
X112552500Y-114006187D01*
X112515896Y-113822166D01*
X112444095Y-113648822D01*
X112339855Y-113492816D01*
X112298500Y-113451461D01*
X112298500Y-110834297D01*
X112301878Y-110799999D01*
X112298500Y-110765701D01*
X112298500Y-110765691D01*
X112288393Y-110663070D01*
X112248452Y-110531403D01*
X112240438Y-110516409D01*
X112183591Y-110410056D01*
X112118174Y-110330346D01*
X112118171Y-110330343D01*
X112096303Y-110303697D01*
X112069657Y-110281829D01*
X111843500Y-110055673D01*
X111843500Y-109737545D01*
X111870601Y-109686843D01*
X111899649Y-109591085D01*
X111909457Y-109491500D01*
X111909457Y-108348500D01*
X111899649Y-108248915D01*
X111870601Y-108153157D01*
X111843500Y-108102455D01*
X111843500Y-106562545D01*
X111870601Y-106511843D01*
X111899649Y-106416085D01*
X111909457Y-106316500D01*
X111909457Y-106305108D01*
X112493030Y-106305108D01*
X112503066Y-106429788D01*
X112537233Y-106550116D01*
X112594218Y-106661465D01*
X112671831Y-106759558D01*
X112767090Y-106840624D01*
X112876334Y-106901548D01*
X112995365Y-106939989D01*
X113099250Y-106951500D01*
X113258000Y-106792750D01*
X113258000Y-105872000D01*
X112654750Y-105872000D01*
X112496000Y-106030750D01*
X112493030Y-106305108D01*
X111909457Y-106305108D01*
X111909457Y-105184892D01*
X112493030Y-105184892D01*
X112496000Y-105459250D01*
X112654750Y-105618000D01*
X113258000Y-105618000D01*
X113258000Y-104697250D01*
X113099250Y-104538500D01*
X112995365Y-104550011D01*
X112876334Y-104588452D01*
X112767090Y-104649376D01*
X112671831Y-104730442D01*
X112594218Y-104828535D01*
X112537233Y-104939884D01*
X112503066Y-105060212D01*
X112493030Y-105184892D01*
X111909457Y-105184892D01*
X111909457Y-105173500D01*
X111899649Y-105073915D01*
X111870601Y-104978157D01*
X111843500Y-104927455D01*
X111843500Y-104479298D01*
X111846878Y-104445000D01*
X111843500Y-104410702D01*
X111843500Y-104410691D01*
X111833393Y-104308070D01*
X111793452Y-104176403D01*
X111728591Y-104055057D01*
X111716115Y-104039855D01*
X111663174Y-103975346D01*
X111663171Y-103975343D01*
X111641303Y-103948697D01*
X111614657Y-103926829D01*
X110952500Y-103264673D01*
X110952500Y-103206187D01*
X110915896Y-103022166D01*
X110844095Y-102848822D01*
X110739855Y-102692816D01*
X110607184Y-102560145D01*
X110451178Y-102455905D01*
X110277834Y-102384104D01*
X110093813Y-102347500D01*
X109906187Y-102347500D01*
X109722166Y-102384104D01*
X109548822Y-102455905D01*
X109392816Y-102560145D01*
X109260145Y-102692816D01*
X109155905Y-102848822D01*
X109084104Y-103022166D01*
X109055217Y-103167390D01*
X108952500Y-103064673D01*
X108952500Y-103006187D01*
X108915896Y-102822166D01*
X108844095Y-102648822D01*
X108739855Y-102492816D01*
X108607184Y-102360145D01*
X108451178Y-102255905D01*
X108277834Y-102184104D01*
X108093813Y-102147500D01*
X107906187Y-102147500D01*
X107722166Y-102184104D01*
X107548822Y-102255905D01*
X107392816Y-102360145D01*
X107260145Y-102492816D01*
X107188247Y-102600419D01*
X107118175Y-102530348D01*
X107096303Y-102503697D01*
X106989943Y-102416409D01*
X106868597Y-102351548D01*
X106736930Y-102311607D01*
X106634309Y-102301500D01*
X106634298Y-102301500D01*
X106600000Y-102298122D01*
X106565702Y-102301500D01*
X105948539Y-102301500D01*
X105907184Y-102260145D01*
X105751178Y-102155905D01*
X105577834Y-102084104D01*
X105393813Y-102047500D01*
X105206187Y-102047500D01*
X105022166Y-102084104D01*
X104848822Y-102155905D01*
X104692816Y-102260145D01*
X104560145Y-102392816D01*
X104455905Y-102548822D01*
X104384104Y-102722166D01*
X104347500Y-102906187D01*
X104347500Y-102978070D01*
X104193813Y-102947500D01*
X104006187Y-102947500D01*
X103822166Y-102984104D01*
X103648822Y-103055905D01*
X103492816Y-103160145D01*
X103360145Y-103292816D01*
X103255905Y-103448822D01*
X103184104Y-103622166D01*
X103147500Y-103806187D01*
X103147500Y-103993813D01*
X103184104Y-104177834D01*
X103255905Y-104351178D01*
X103360145Y-104507184D01*
X103492816Y-104639855D01*
X103527519Y-104663043D01*
X103271000Y-104663043D01*
X103171415Y-104672851D01*
X103075657Y-104701899D01*
X102987405Y-104749071D01*
X102910052Y-104812552D01*
X102890000Y-104836986D01*
X102869948Y-104812552D01*
X102792595Y-104749071D01*
X102704343Y-104701899D01*
X102608585Y-104672851D01*
X102509000Y-104663043D01*
X102001000Y-104663043D01*
X101901415Y-104672851D01*
X101805657Y-104701899D01*
X101717405Y-104749071D01*
X101714679Y-104751308D01*
X101698169Y-104730442D01*
X101602910Y-104649376D01*
X101493666Y-104588452D01*
X101374635Y-104550011D01*
X101270750Y-104538500D01*
X101112000Y-104697250D01*
X101112000Y-105618000D01*
X101132000Y-105618000D01*
X101132000Y-105872000D01*
X101112000Y-105872000D01*
X101112000Y-106792750D01*
X101270750Y-106951500D01*
X101374635Y-106939989D01*
X101493666Y-106901548D01*
X101556501Y-106866506D01*
X101556500Y-107951896D01*
X101522595Y-107924071D01*
X101434343Y-107876899D01*
X101338585Y-107847851D01*
X101239000Y-107838043D01*
X100927000Y-107838043D01*
X100927000Y-104452606D01*
X104452606Y-100927000D01*
X117523523Y-100927000D01*
X117484104Y-101022166D01*
G37*
X117484104Y-101022166D02*
X117447500Y-101206187D01*
X117447500Y-101393813D01*
X117484104Y-101577834D01*
X117555905Y-101751178D01*
X117577933Y-101784145D01*
X117577834Y-101784104D01*
X117393813Y-101747500D01*
X117206187Y-101747500D01*
X117022166Y-101784104D01*
X116848822Y-101855905D01*
X116692816Y-101960145D01*
X116560145Y-102092816D01*
X116455905Y-102248822D01*
X116384104Y-102422166D01*
X116347500Y-102606187D01*
X116347500Y-102754382D01*
X116177834Y-102684104D01*
X115993813Y-102647500D01*
X115806187Y-102647500D01*
X115622166Y-102684104D01*
X115448822Y-102755905D01*
X115292816Y-102860145D01*
X115160145Y-102992816D01*
X115055905Y-103148822D01*
X114984104Y-103322166D01*
X114947500Y-103506187D01*
X114947500Y-103693813D01*
X114984104Y-103877834D01*
X115055905Y-104051178D01*
X115160145Y-104207184D01*
X115292816Y-104339855D01*
X115448822Y-104444095D01*
X115622166Y-104515896D01*
X115806187Y-104552500D01*
X115993813Y-104552500D01*
X116177834Y-104515896D01*
X116351178Y-104444095D01*
X116507184Y-104339855D01*
X116548539Y-104298500D01*
X117910673Y-104298500D01*
X118275216Y-104663043D01*
X118211000Y-104663043D01*
X118111415Y-104672851D01*
X118015657Y-104701899D01*
X117927405Y-104749071D01*
X117850052Y-104812552D01*
X117830000Y-104836986D01*
X117809948Y-104812552D01*
X117732595Y-104749071D01*
X117644343Y-104701899D01*
X117548585Y-104672851D01*
X117449000Y-104663043D01*
X116941000Y-104663043D01*
X116841415Y-104672851D01*
X116745657Y-104701899D01*
X116657405Y-104749071D01*
X116580052Y-104812552D01*
X116560000Y-104836986D01*
X116539948Y-104812552D01*
X116462595Y-104749071D01*
X116374343Y-104701899D01*
X116278585Y-104672851D01*
X116179000Y-104663043D01*
X115671000Y-104663043D01*
X115571415Y-104672851D01*
X115475657Y-104701899D01*
X115387405Y-104749071D01*
X115310052Y-104812552D01*
X115290000Y-104836986D01*
X115269948Y-104812552D01*
X115192595Y-104749071D01*
X115104343Y-104701899D01*
X115008585Y-104672851D01*
X114909000Y-104663043D01*
X114401000Y-104663043D01*
X114301415Y-104672851D01*
X114205657Y-104701899D01*
X114117405Y-104749071D01*
X114114679Y-104751308D01*
X114098169Y-104730442D01*
X114002910Y-104649376D01*
X113893666Y-104588452D01*
X113774635Y-104550011D01*
X113670750Y-104538500D01*
X113512000Y-104697250D01*
X113512000Y-105618000D01*
X113532000Y-105618000D01*
X113532000Y-105872000D01*
X113512000Y-105872000D01*
X113512000Y-106792750D01*
X113670750Y-106951500D01*
X113774635Y-106939989D01*
X113893666Y-106901548D01*
X113956501Y-106866506D01*
X113956500Y-107951896D01*
X113922595Y-107924071D01*
X113834343Y-107876899D01*
X113738585Y-107847851D01*
X113639000Y-107838043D01*
X113131000Y-107838043D01*
X113031415Y-107847851D01*
X112935657Y-107876899D01*
X112847405Y-107924071D01*
X112770052Y-107987552D01*
X112706571Y-108064905D01*
X112659399Y-108153157D01*
X112630351Y-108248915D01*
X112620543Y-108348500D01*
X112620543Y-109491500D01*
X112623000Y-109516449D01*
X112623001Y-112247567D01*
X112619314Y-112285000D01*
X112634027Y-112434378D01*
X112677599Y-112578015D01*
X112748355Y-112710392D01*
X112819721Y-112797351D01*
X112843579Y-112826422D01*
X112872649Y-112850279D01*
X112955276Y-112932906D01*
X112984104Y-113077834D01*
X113055905Y-113251178D01*
X113160145Y-113407184D01*
X113292816Y-113539855D01*
X113307999Y-113550000D01*
X113292816Y-113560145D01*
X113160145Y-113692816D01*
X113055905Y-113848822D01*
X112984104Y-114022166D01*
X112947500Y-114206187D01*
X112947500Y-114393813D01*
X112984104Y-114577834D01*
X113031093Y-114691276D01*
X112872649Y-114849721D01*
X112843579Y-114873578D01*
X112748355Y-114989608D01*
X112733973Y-115016515D01*
X112706571Y-115049905D01*
X112659399Y-115138157D01*
X112630351Y-115233915D01*
X112620543Y-115333500D01*
X112620543Y-115402522D01*
X112619314Y-115415000D01*
X112620543Y-115427478D01*
X112620543Y-116476500D01*
X112630351Y-116576085D01*
X112659399Y-116671843D01*
X112706571Y-116760095D01*
X112770052Y-116837448D01*
X112847405Y-116900929D01*
X112935657Y-116948101D01*
X113031415Y-116977149D01*
X113131000Y-116986957D01*
X113639000Y-116986957D01*
X113738585Y-116977149D01*
X113834343Y-116948101D01*
X113922595Y-116900929D01*
X113956501Y-116873104D01*
X113956500Y-117958494D01*
X113893666Y-117923452D01*
X113774635Y-117885011D01*
X113670750Y-117873500D01*
X113512000Y-118032250D01*
X113512000Y-118953000D01*
X113532000Y-118953000D01*
X113532000Y-119207000D01*
X113512000Y-119207000D01*
X113512000Y-119227000D01*
X113258000Y-119227000D01*
X113258000Y-119207000D01*
X112654750Y-119207000D01*
X112496000Y-119365750D01*
X112493030Y-119640108D01*
X112503066Y-119764788D01*
X112537233Y-119885116D01*
X112594218Y-119996465D01*
X112671831Y-120094558D01*
X112767090Y-120175624D01*
X112876334Y-120236548D01*
X112995365Y-120274989D01*
X113042885Y-120280254D01*
X112984104Y-120422166D01*
X112947500Y-120606187D01*
X112947500Y-120664672D01*
X112330344Y-121281829D01*
X112303698Y-121303697D01*
X112281830Y-121330343D01*
X112281826Y-121330347D01*
X112216409Y-121410057D01*
X112151549Y-121531402D01*
X112132683Y-121593596D01*
X112111608Y-121663070D01*
X112101501Y-121765691D01*
X112098122Y-121800000D01*
X112101501Y-121834308D01*
X112101500Y-124373000D01*
X111398300Y-124373000D01*
X111398300Y-122789527D01*
X111614656Y-122573171D01*
X111641302Y-122551303D01*
X111663171Y-122524656D01*
X111663174Y-122524653D01*
X111728591Y-122444944D01*
X111768603Y-122370086D01*
X111793452Y-122323597D01*
X111833393Y-122191930D01*
X111843500Y-122089309D01*
X111843500Y-122089298D01*
X111846878Y-122055000D01*
X111843500Y-122020702D01*
X111843500Y-121301729D01*
X111944095Y-121151178D01*
X112015896Y-120977834D01*
X112052500Y-120793813D01*
X112052500Y-120606187D01*
X112015896Y-120422166D01*
X111944095Y-120248822D01*
X111843500Y-120098271D01*
X111843500Y-119897545D01*
X111870601Y-119846843D01*
X111899649Y-119751085D01*
X111909457Y-119651500D01*
X111909457Y-118519892D01*
X112493030Y-118519892D01*
X112496000Y-118794250D01*
X112654750Y-118953000D01*
X113258000Y-118953000D01*
X113258000Y-118032250D01*
X113099250Y-117873500D01*
X112995365Y-117885011D01*
X112876334Y-117923452D01*
X112767090Y-117984376D01*
X112671831Y-118065442D01*
X112594218Y-118163535D01*
X112537233Y-118274884D01*
X112503066Y-118395212D01*
X112493030Y-118519892D01*
X111909457Y-118519892D01*
X111909457Y-118508500D01*
X111899649Y-118408915D01*
X111870601Y-118313157D01*
X111843500Y-118262455D01*
X111843500Y-116722545D01*
X111870601Y-116671843D01*
X111899649Y-116576085D01*
X111909457Y-116476500D01*
X111909457Y-115333500D01*
X111899649Y-115233915D01*
X111870601Y-115138157D01*
X111823429Y-115049905D01*
X111807070Y-115029972D01*
X111877834Y-115015896D01*
X112051178Y-114944095D01*
X112207184Y-114839855D01*
X112339855Y-114707184D01*
X112444095Y-114551178D01*
X112515896Y-114377834D01*
X112552500Y-114193813D01*
X112552500Y-114006187D01*
X112515896Y-113822166D01*
X112444095Y-113648822D01*
X112339855Y-113492816D01*
X112298500Y-113451461D01*
X112298500Y-110834297D01*
X112301878Y-110799999D01*
X112298500Y-110765701D01*
X112298500Y-110765691D01*
X112288393Y-110663070D01*
X112248452Y-110531403D01*
X112240438Y-110516409D01*
X112183591Y-110410056D01*
X112118174Y-110330346D01*
X112118171Y-110330343D01*
X112096303Y-110303697D01*
X112069657Y-110281829D01*
X111843500Y-110055673D01*
X111843500Y-109737545D01*
X111870601Y-109686843D01*
X111899649Y-109591085D01*
X111909457Y-109491500D01*
X111909457Y-108348500D01*
X111899649Y-108248915D01*
X111870601Y-108153157D01*
X111843500Y-108102455D01*
X111843500Y-106562545D01*
X111870601Y-106511843D01*
X111899649Y-106416085D01*
X111909457Y-106316500D01*
X111909457Y-106305108D01*
X112493030Y-106305108D01*
X112503066Y-106429788D01*
X112537233Y-106550116D01*
X112594218Y-106661465D01*
X112671831Y-106759558D01*
X112767090Y-106840624D01*
X112876334Y-106901548D01*
X112995365Y-106939989D01*
X113099250Y-106951500D01*
X113258000Y-106792750D01*
X113258000Y-105872000D01*
X112654750Y-105872000D01*
X112496000Y-106030750D01*
X112493030Y-106305108D01*
X111909457Y-106305108D01*
X111909457Y-105184892D01*
X112493030Y-105184892D01*
X112496000Y-105459250D01*
X112654750Y-105618000D01*
X113258000Y-105618000D01*
X113258000Y-104697250D01*
X113099250Y-104538500D01*
X112995365Y-104550011D01*
X112876334Y-104588452D01*
X112767090Y-104649376D01*
X112671831Y-104730442D01*
X112594218Y-104828535D01*
X112537233Y-104939884D01*
X112503066Y-105060212D01*
X112493030Y-105184892D01*
X111909457Y-105184892D01*
X111909457Y-105173500D01*
X111899649Y-105073915D01*
X111870601Y-104978157D01*
X111843500Y-104927455D01*
X111843500Y-104479298D01*
X111846878Y-104445000D01*
X111843500Y-104410702D01*
X111843500Y-104410691D01*
X111833393Y-104308070D01*
X111793452Y-104176403D01*
X111728591Y-104055057D01*
X111716115Y-104039855D01*
X111663174Y-103975346D01*
X111663171Y-103975343D01*
X111641303Y-103948697D01*
X111614657Y-103926829D01*
X110952500Y-103264673D01*
X110952500Y-103206187D01*
X110915896Y-103022166D01*
X110844095Y-102848822D01*
X110739855Y-102692816D01*
X110607184Y-102560145D01*
X110451178Y-102455905D01*
X110277834Y-102384104D01*
X110093813Y-102347500D01*
X109906187Y-102347500D01*
X109722166Y-102384104D01*
X109548822Y-102455905D01*
X109392816Y-102560145D01*
X109260145Y-102692816D01*
X109155905Y-102848822D01*
X109084104Y-103022166D01*
X109055217Y-103167390D01*
X108952500Y-103064673D01*
X108952500Y-103006187D01*
X108915896Y-102822166D01*
X108844095Y-102648822D01*
X108739855Y-102492816D01*
X108607184Y-102360145D01*
X108451178Y-102255905D01*
X108277834Y-102184104D01*
X108093813Y-102147500D01*
X107906187Y-102147500D01*
X107722166Y-102184104D01*
X107548822Y-102255905D01*
X107392816Y-102360145D01*
X107260145Y-102492816D01*
X107188247Y-102600419D01*
X107118175Y-102530348D01*
X107096303Y-102503697D01*
X106989943Y-102416409D01*
X106868597Y-102351548D01*
X106736930Y-102311607D01*
X106634309Y-102301500D01*
X106634298Y-102301500D01*
X106600000Y-102298122D01*
X106565702Y-102301500D01*
X105948539Y-102301500D01*
X105907184Y-102260145D01*
X105751178Y-102155905D01*
X105577834Y-102084104D01*
X105393813Y-102047500D01*
X105206187Y-102047500D01*
X105022166Y-102084104D01*
X104848822Y-102155905D01*
X104692816Y-102260145D01*
X104560145Y-102392816D01*
X104455905Y-102548822D01*
X104384104Y-102722166D01*
X104347500Y-102906187D01*
X104347500Y-102978070D01*
X104193813Y-102947500D01*
X104006187Y-102947500D01*
X103822166Y-102984104D01*
X103648822Y-103055905D01*
X103492816Y-103160145D01*
X103360145Y-103292816D01*
X103255905Y-103448822D01*
X103184104Y-103622166D01*
X103147500Y-103806187D01*
X103147500Y-103993813D01*
X103184104Y-104177834D01*
X103255905Y-104351178D01*
X103360145Y-104507184D01*
X103492816Y-104639855D01*
X103527519Y-104663043D01*
X103271000Y-104663043D01*
X103171415Y-104672851D01*
X103075657Y-104701899D01*
X102987405Y-104749071D01*
X102910052Y-104812552D01*
X102890000Y-104836986D01*
X102869948Y-104812552D01*
X102792595Y-104749071D01*
X102704343Y-104701899D01*
X102608585Y-104672851D01*
X102509000Y-104663043D01*
X102001000Y-104663043D01*
X101901415Y-104672851D01*
X101805657Y-104701899D01*
X101717405Y-104749071D01*
X101714679Y-104751308D01*
X101698169Y-104730442D01*
X101602910Y-104649376D01*
X101493666Y-104588452D01*
X101374635Y-104550011D01*
X101270750Y-104538500D01*
X101112000Y-104697250D01*
X101112000Y-105618000D01*
X101132000Y-105618000D01*
X101132000Y-105872000D01*
X101112000Y-105872000D01*
X101112000Y-106792750D01*
X101270750Y-106951500D01*
X101374635Y-106939989D01*
X101493666Y-106901548D01*
X101556501Y-106866506D01*
X101556500Y-107951896D01*
X101522595Y-107924071D01*
X101434343Y-107876899D01*
X101338585Y-107847851D01*
X101239000Y-107838043D01*
X100927000Y-107838043D01*
X100927000Y-104452606D01*
X104452606Y-100927000D01*
X117523523Y-100927000D01*
X117484104Y-101022166D01*
G36*
X101556501Y-117298270D02*
G01*
X101455905Y-117448822D01*
X101384104Y-117622166D01*
X101347500Y-117806187D01*
X101347500Y-117882004D01*
X101270750Y-117873500D01*
X101112000Y-118032250D01*
X101112000Y-118953000D01*
X101132000Y-118953000D01*
X101132000Y-119207000D01*
X101112000Y-119207000D01*
X101112000Y-119227000D01*
X100927000Y-119227000D01*
X100927000Y-116986957D01*
X101239000Y-116986957D01*
X101338585Y-116977149D01*
X101434343Y-116948101D01*
X101522595Y-116900929D01*
X101556501Y-116873104D01*
X101556501Y-117298270D01*
G37*
X101556501Y-117298270D02*
X101455905Y-117448822D01*
X101384104Y-117622166D01*
X101347500Y-117806187D01*
X101347500Y-117882004D01*
X101270750Y-117873500D01*
X101112000Y-118032250D01*
X101112000Y-118953000D01*
X101132000Y-118953000D01*
X101132000Y-119207000D01*
X101112000Y-119207000D01*
X101112000Y-119227000D01*
X100927000Y-119227000D01*
X100927000Y-116986957D01*
X101239000Y-116986957D01*
X101338585Y-116977149D01*
X101434343Y-116948101D01*
X101522595Y-116900929D01*
X101556501Y-116873104D01*
X101556501Y-117298270D01*
M02*
