G04 #@! TF.GenerationSoftware,KiCad,Pcbnew,(5.1.5)-3*
G04 #@! TF.CreationDate,2021-08-10T21:54:11+02:00*
G04 #@! TF.ProjectId,eam,65616d2e-6b69-4636-9164-5f7063625858,0429 -*
G04 #@! TF.SameCoordinates,Original*
G04 #@! TF.FileFunction,Soldermask,Top*
G04 #@! TF.FilePolarity,Negative*
%FSLAX46Y46*%
G04 Gerber Fmt 4.6, Leading zero omitted, Abs format (unit mm)*
G04 Created by KiCad (PCBNEW (5.1.5)-3) date 2021-08-10 21:54:11*
%MOMM*%
%LPD*%
G04 APERTURE LIST*
%ADD10R,0.889000X1.397000*%
%ADD11R,1.397000X0.889000*%
%ADD12R,1.803400X1.600200*%
%ADD13R,1.651000X1.651000*%
%ADD14C,1.651000*%
%ADD15R,1.524000X1.524000*%
%ADD16C,1.524000*%
%ADD17R,0.431800X0.762000*%
%ADD18R,1.000000X0.660000*%
%ADD19R,0.890000X2.900000*%
G04 APERTURE END LIST*
D10*
X103147500Y-133900000D03*
X105052500Y-133900000D03*
D11*
X114500000Y-126947500D03*
X114500000Y-128852500D03*
X106700000Y-128952500D03*
X106700000Y-127047500D03*
D12*
X108700000Y-135397000D03*
X108700000Y-132603000D03*
D13*
X103630000Y-142000000D03*
D14*
X106170000Y-142000000D03*
D15*
X114840000Y-144930000D03*
D16*
X114840000Y-147470000D03*
X112300000Y-144930000D03*
X112300000Y-147470000D03*
X109760000Y-144930000D03*
X109760000Y-147470000D03*
D17*
X108001120Y-115438000D03*
X110398880Y-115438000D03*
X110398880Y-116962000D03*
X108001120Y-116962000D03*
X109598780Y-115438000D03*
X109598780Y-116962000D03*
X108801220Y-115438000D03*
X108801220Y-116962000D03*
X102901120Y-115438000D03*
X105298880Y-115438000D03*
X105298880Y-116962000D03*
X102901120Y-116962000D03*
X104498780Y-115438000D03*
X104498780Y-116962000D03*
X103701220Y-115438000D03*
X103701220Y-116962000D03*
X121601220Y-116962000D03*
X121601220Y-115438000D03*
X122398780Y-116962000D03*
X122398780Y-115438000D03*
X120801120Y-116962000D03*
X123198880Y-116962000D03*
X123198880Y-115438000D03*
X120801120Y-115438000D03*
X116801220Y-116962000D03*
X116801220Y-115438000D03*
X117598780Y-116962000D03*
X117598780Y-115438000D03*
X116001120Y-116962000D03*
X118398880Y-116962000D03*
X118398880Y-115438000D03*
X116001120Y-115438000D03*
D11*
X111100000Y-126947500D03*
X111100000Y-128852500D03*
D10*
X111052500Y-137400000D03*
X109147500Y-137400000D03*
D11*
X109000000Y-126947500D03*
X109000000Y-128852500D03*
D18*
X103100000Y-137850000D03*
X103100000Y-135950000D03*
X105700000Y-135950000D03*
X105700000Y-137850000D03*
X103100000Y-136900000D03*
D19*
X121300000Y-105700000D03*
X121300000Y-110300000D03*
X119300000Y-105700000D03*
X119300000Y-110300000D03*
X117300000Y-105700000D03*
X117300000Y-110300000D03*
X115300000Y-105700000D03*
X115300000Y-110300000D03*
X113300000Y-105700000D03*
X113300000Y-110300000D03*
X103300000Y-110300000D03*
X103300000Y-105700000D03*
X105300000Y-110300000D03*
X105300000Y-105700000D03*
X107300000Y-110300000D03*
X107300000Y-105700000D03*
X109300000Y-110300000D03*
X109300000Y-105700000D03*
X111300000Y-110300000D03*
X111300000Y-105700000D03*
M02*
