M48
; DRILL file {KiCad (5.1.5)-3} date 10.08.2021 21:54:16
; FORMAT={-:-/ absolute / inch / decimal}
; #@! TF.CreationDate,2021-08-10T21:54:16+02:00
; #@! TF.GenerationSoftware,Kicad,Pcbnew,(5.1.5)-3
; #@! TF.FileFunction,Plated,1,2,PTH
FMAT,2
INCH
T1C0.0250
T2C0.0320
T3C0.0354
%
G90
G05
T1
X3.9764Y-4.3898
X3.9764Y-4.5
X3.9882Y-4.748
X4.0197Y-4.3583
X4.0276Y-4.6417
X4.0748Y-4.752
X4.0984Y-4.0906
X4.1102Y-4.4331
X4.1299Y-4.752
X4.1299Y-5.1732
X4.1457Y-4.0551
X4.1732Y-4.437
X4.1772Y-4.752
X4.2283Y-4.752
X4.2441Y-4.437
X4.252Y-4.0591
X4.252Y-4.4882
X4.2756Y-4.752
X4.2795Y-5.1339
X4.2874Y-5.6417
X4.315Y-4.4409
X4.3268Y-4.752
X4.3307Y-4.0669
X4.3465Y-5.3307
X4.3543Y-4.4646
X4.3622Y-5.126
X4.3622Y-5.2205
X4.374Y-4.752
X4.3937Y-4.4921
X4.3976Y-4.8937
X4.4094Y-5.3386
X4.4606Y-4.0669
X4.4606Y-5.5591
X4.4843Y-4.4409
X4.4843Y-4.5
X4.4843Y-4.752
X4.4882Y-5.2205
X4.5Y-5.4055
X4.5039Y-5.3071
X4.5079Y-5.1299
X4.5354Y-4.752
X4.5394Y-4.437
X4.5433Y-5.2244
X4.563Y-4.0787
X4.5787Y-5.2598
X4.5906Y-4.752
X4.5945Y-4.437
X4.6181Y-4.0433
X4.6457Y-4.437
X4.6457Y-4.752
X4.6614Y-3.9882
X4.685Y-4.937
X4.6969Y-4.437
X4.6969Y-4.752
X4.7283Y-5.2598
X4.7362Y-4.4803
X4.748Y-4.752
X4.7717Y-5.6693
X4.7756Y-4.4567
X4.811Y-4.7323
X4.8189Y-4.4331
X4.8307Y-5.2638
X4.8504Y-4.1142
X4.864Y-4.7305
X4.8661Y-4.4449
T2
X4.0799Y-5.5906
X4.1799Y-5.5906
T3
X4.3213Y-5.7059
X4.3213Y-5.8059
X4.4213Y-5.7059
X4.4213Y-5.8059
X4.5213Y-5.7059
X4.5213Y-5.8059
T0
M30
