G04 #@! TF.GenerationSoftware,KiCad,Pcbnew,(5.1.5)-3*
G04 #@! TF.CreationDate,2021-08-10T21:54:11+02:00*
G04 #@! TF.ProjectId,eam,65616d2e-6b69-4636-9164-5f7063625858,0429 -*
G04 #@! TF.SameCoordinates,Original*
G04 #@! TF.FileFunction,Copper,L1,Top*
G04 #@! TF.FilePolarity,Positive*
%FSLAX46Y46*%
G04 Gerber Fmt 4.6, Leading zero omitted, Abs format (unit mm)*
G04 Created by KiCad (PCBNEW (5.1.5)-3) date 2021-08-10 21:54:11*
%MOMM*%
%LPD*%
G04 APERTURE LIST*
%ADD10R,0.889000X1.397000*%
%ADD11R,1.397000X0.889000*%
%ADD12R,1.803400X1.600200*%
%ADD13R,1.651000X1.651000*%
%ADD14C,1.651000*%
%ADD15R,1.524000X1.524000*%
%ADD16C,1.524000*%
%ADD17R,0.431800X0.762000*%
%ADD18R,1.000000X0.660000*%
%ADD19R,0.890000X2.900000*%
%ADD20C,0.889000*%
%ADD21C,0.381000*%
%ADD22C,0.508000*%
%ADD23C,0.254000*%
G04 APERTURE END LIST*
D10*
X103147500Y-133900000D03*
X105052500Y-133900000D03*
D11*
X114500000Y-126947500D03*
X114500000Y-128852500D03*
X106700000Y-128952500D03*
X106700000Y-127047500D03*
D12*
X108700000Y-135397000D03*
X108700000Y-132603000D03*
D13*
X103630000Y-142000000D03*
D14*
X106170000Y-142000000D03*
D15*
X114840000Y-144930000D03*
D16*
X114840000Y-147470000D03*
X112300000Y-144930000D03*
X112300000Y-147470000D03*
X109760000Y-144930000D03*
X109760000Y-147470000D03*
D17*
X108001120Y-115438000D03*
X110398880Y-115438000D03*
X110398880Y-116962000D03*
X108001120Y-116962000D03*
X109598780Y-115438000D03*
X109598780Y-116962000D03*
X108801220Y-115438000D03*
X108801220Y-116962000D03*
X102901120Y-115438000D03*
X105298880Y-115438000D03*
X105298880Y-116962000D03*
X102901120Y-116962000D03*
X104498780Y-115438000D03*
X104498780Y-116962000D03*
X103701220Y-115438000D03*
X103701220Y-116962000D03*
X121601220Y-116962000D03*
X121601220Y-115438000D03*
X122398780Y-116962000D03*
X122398780Y-115438000D03*
X120801120Y-116962000D03*
X123198880Y-116962000D03*
X123198880Y-115438000D03*
X120801120Y-115438000D03*
X116801220Y-116962000D03*
X116801220Y-115438000D03*
X117598780Y-116962000D03*
X117598780Y-115438000D03*
X116001120Y-116962000D03*
X118398880Y-116962000D03*
X118398880Y-115438000D03*
X116001120Y-115438000D03*
D11*
X111100000Y-126947500D03*
X111100000Y-128852500D03*
D10*
X111052500Y-137400000D03*
X109147500Y-137400000D03*
D11*
X109000000Y-126947500D03*
X109000000Y-128852500D03*
D18*
X103100000Y-137850000D03*
X103100000Y-135950000D03*
X105700000Y-135950000D03*
X105700000Y-137850000D03*
X103100000Y-136900000D03*
D19*
X121300000Y-105700000D03*
X121300000Y-110300000D03*
X119300000Y-105700000D03*
X119300000Y-110300000D03*
X117300000Y-105700000D03*
X117300000Y-110300000D03*
X115300000Y-105700000D03*
X115300000Y-110300000D03*
X113300000Y-105700000D03*
X113300000Y-110300000D03*
X103300000Y-110300000D03*
X103300000Y-105700000D03*
X105300000Y-110300000D03*
X105300000Y-105700000D03*
X107300000Y-110300000D03*
X107300000Y-105700000D03*
X109300000Y-110300000D03*
X109300000Y-105700000D03*
X111300000Y-110300000D03*
X111300000Y-105700000D03*
D20*
X114500000Y-130300000D03*
X108700000Y-130400000D03*
X110400000Y-135400000D03*
X102300000Y-117900000D03*
X119300000Y-120700000D03*
X115200000Y-120700000D03*
X120600000Y-120700000D03*
X116600000Y-120700000D03*
X122200000Y-120200000D03*
X118000000Y-120700000D03*
X119000000Y-125400000D03*
X123545000Y-120155000D03*
X107400000Y-120700000D03*
X103500000Y-120700000D03*
X108600000Y-120700000D03*
X104900000Y-120700000D03*
X109900000Y-120700000D03*
X106100000Y-120700000D03*
X111100000Y-120700000D03*
X113900000Y-120700000D03*
X102100000Y-110700000D03*
X115900000Y-103600000D03*
X120300000Y-113800000D03*
X116700000Y-112700000D03*
X117300000Y-102700000D03*
X121300000Y-113200000D03*
X118000000Y-112700000D03*
X118400000Y-101300000D03*
X122400000Y-112600000D03*
X119300000Y-112700000D03*
X123200000Y-104500000D03*
X123600000Y-112900000D03*
X104100000Y-103900000D03*
X108000000Y-114000000D03*
X104400000Y-112600000D03*
X105300000Y-103000000D03*
X109600000Y-112800000D03*
X106000000Y-112700000D03*
X108000000Y-103100000D03*
X110600000Y-113400000D03*
X107800000Y-112700000D03*
X110000000Y-103300000D03*
X111600000Y-114100000D03*
X115300000Y-112700000D03*
X114300000Y-137300000D03*
X112000000Y-135600000D03*
X116300000Y-133600000D03*
X115400000Y-132700000D03*
X113300000Y-141200000D03*
X114000000Y-132600000D03*
X110800000Y-132600000D03*
X104900000Y-131400000D03*
X108900000Y-143300000D03*
X110800000Y-130200000D03*
X114400000Y-134800000D03*
X120100000Y-133600000D03*
X122700000Y-133700000D03*
X121200000Y-144000000D03*
X101000000Y-114300000D03*
X101000000Y-111500000D03*
X113900000Y-114300000D03*
X113900000Y-112800000D03*
X111700000Y-124300000D03*
X101300000Y-120600000D03*
X113300000Y-103300000D03*
D21*
X114500000Y-128852500D02*
X114500000Y-130300000D01*
X106700000Y-128952500D02*
X107252500Y-128952500D01*
X107252500Y-128952500D02*
X108700000Y-130400000D01*
X108700000Y-135397000D02*
X110397000Y-135397000D01*
X110397000Y-135397000D02*
X110400000Y-135400000D01*
X109147500Y-137400000D02*
X109147500Y-135844500D01*
X109147500Y-135844500D02*
X108700000Y-135397000D01*
D22*
X105700000Y-135950000D02*
X108147000Y-135950000D01*
X108147000Y-135950000D02*
X108700000Y-135397000D01*
D21*
X102901120Y-117298880D02*
X102901120Y-116962000D01*
X102300000Y-117900000D02*
X102901120Y-117298880D01*
X120801120Y-116998880D02*
X120801120Y-116962000D01*
X119700000Y-118100000D02*
X120801120Y-116998880D01*
X119700000Y-120300000D02*
X119700000Y-118100000D01*
X119300000Y-120700000D02*
X119700000Y-120300000D01*
X116801220Y-118298780D02*
X116801220Y-116962000D01*
X115200000Y-120700000D02*
X115900000Y-120000000D01*
X115900000Y-120000000D02*
X115900000Y-119200000D01*
X115900000Y-119200000D02*
X116801220Y-118298780D01*
X121601220Y-117798780D02*
X121601220Y-116962000D01*
X121000000Y-118400000D02*
X121601220Y-117798780D01*
X121000000Y-120300000D02*
X121000000Y-118400000D01*
X120600000Y-120700000D02*
X121000000Y-120300000D01*
X117598780Y-118601220D02*
X117598780Y-116962000D01*
X117200000Y-119000000D02*
X117598780Y-118601220D01*
X117200000Y-120100000D02*
X117200000Y-119000000D01*
X116600000Y-120700000D02*
X117200000Y-120100000D01*
X122398780Y-120001220D02*
X122398780Y-116962000D01*
X122200000Y-120200000D02*
X122398780Y-120001220D01*
X118398880Y-120301120D02*
X118398880Y-116962000D01*
X118000000Y-120700000D02*
X118398880Y-120301120D01*
X123545000Y-120155000D02*
X122400000Y-121300000D01*
X119000000Y-123600000D02*
X119000000Y-125400000D01*
X121300000Y-121300000D02*
X119000000Y-123600000D01*
X122400000Y-121300000D02*
X121300000Y-121300000D01*
X123545000Y-117308120D02*
X123198880Y-116962000D01*
X123545000Y-120155000D02*
X123545000Y-117308120D01*
X108001120Y-117698880D02*
X108001120Y-116962000D01*
X107400000Y-118300000D02*
X108001120Y-117698880D01*
X107400000Y-120700000D02*
X107400000Y-118300000D01*
X103701220Y-120498780D02*
X103701220Y-116962000D01*
X103500000Y-120700000D02*
X103701220Y-120498780D01*
X108801220Y-120498780D02*
X108801220Y-116962000D01*
X108600000Y-120700000D02*
X108801220Y-120498780D01*
X104498780Y-118698780D02*
X104498780Y-116962000D01*
X104900000Y-119100000D02*
X104498780Y-118698780D01*
X104900000Y-120700000D02*
X104900000Y-119100000D01*
X109598780Y-118598780D02*
X109598780Y-116962000D01*
X109900000Y-118900000D02*
X109598780Y-118598780D01*
X109900000Y-120700000D02*
X109900000Y-118900000D01*
X106100000Y-117763120D02*
X105298880Y-116962000D01*
X106100000Y-120700000D02*
X106100000Y-117763120D01*
X110398880Y-117798880D02*
X110398880Y-116962000D01*
X111100000Y-118500000D02*
X110398880Y-117798880D01*
X111100000Y-120700000D02*
X111100000Y-118500000D01*
X114700000Y-119900000D02*
X114700000Y-118900000D01*
X113900000Y-120700000D02*
X114700000Y-119900000D01*
X114700000Y-118900000D02*
X116001120Y-117598880D01*
X116001120Y-117598880D02*
X116001120Y-116962000D01*
X116001120Y-117598880D02*
X116001120Y-116962000D01*
X114700000Y-118900000D02*
X116001120Y-117598880D01*
X102901120Y-115438000D02*
X102901120Y-112601120D01*
X103300000Y-112202240D02*
X103300000Y-110300000D01*
X102901120Y-112601120D02*
X103300000Y-112202240D01*
X102500000Y-110300000D02*
X103300000Y-110300000D01*
X102100000Y-110700000D02*
X102500000Y-110300000D01*
X115300000Y-104200000D02*
X115300000Y-105700000D01*
X115900000Y-103600000D02*
X115300000Y-104200000D01*
X120801120Y-114301120D02*
X120801120Y-115438000D01*
X120300000Y-113800000D02*
X120801120Y-114301120D01*
X116801220Y-115438000D02*
X116801220Y-112801220D01*
X116801220Y-112801220D02*
X116700000Y-112700000D01*
X117300000Y-112100000D02*
X117300000Y-110300000D01*
X116700000Y-112700000D02*
X117300000Y-112100000D01*
X117300000Y-102700000D02*
X117300000Y-105700000D01*
X121601220Y-115438000D02*
X121601220Y-113501220D01*
X121601220Y-113501220D02*
X121300000Y-113200000D01*
X117598780Y-115438000D02*
X117598780Y-113101220D01*
X117598780Y-113101220D02*
X118000000Y-112700000D01*
X119300000Y-111400000D02*
X119300000Y-110300000D01*
X118000000Y-112700000D02*
X119300000Y-111400000D01*
X118400000Y-101300000D02*
X119300000Y-102200000D01*
X119300000Y-102200000D02*
X119300000Y-105700000D01*
X122398780Y-115438000D02*
X122398780Y-112601220D01*
X122398780Y-112601220D02*
X122400000Y-112600000D01*
X118398880Y-115438000D02*
X118398880Y-113601120D01*
X118398880Y-113601120D02*
X119300000Y-112700000D01*
X120400000Y-112700000D02*
X121300000Y-111800000D01*
X119300000Y-112700000D02*
X120400000Y-112700000D01*
X121300000Y-111800000D02*
X121300000Y-110300000D01*
X121300000Y-105100000D02*
X121300000Y-105700000D01*
X121900000Y-104500000D02*
X121300000Y-105100000D01*
X123200000Y-104500000D02*
X121900000Y-104500000D01*
X123198880Y-115438000D02*
X123198880Y-113301120D01*
X123198880Y-113301120D02*
X123600000Y-112900000D01*
X103300000Y-104700000D02*
X103300000Y-105700000D01*
X104100000Y-103900000D02*
X103300000Y-104700000D01*
X108001120Y-114001120D02*
X108001120Y-115438000D01*
X108000000Y-114000000D02*
X108001120Y-114001120D01*
X103701220Y-115438000D02*
X103701220Y-113298780D01*
X103701220Y-113298780D02*
X104400000Y-112600000D01*
X105300000Y-111700000D02*
X105300000Y-110300000D01*
X104400000Y-112600000D02*
X105300000Y-111700000D01*
X105300000Y-103000000D02*
X105300000Y-105700000D01*
X108801220Y-115438000D02*
X108801220Y-114398780D01*
X109600000Y-113600000D02*
X109600000Y-112800000D01*
X108801220Y-114398780D02*
X109600000Y-113600000D01*
X104498780Y-115438000D02*
X104498780Y-114201220D01*
X104498780Y-114201220D02*
X106000000Y-112700000D01*
X107300000Y-111400000D02*
X107300000Y-110300000D01*
X106000000Y-112700000D02*
X107300000Y-111400000D01*
X107300000Y-103800000D02*
X107300000Y-105700000D01*
X108000000Y-103100000D02*
X107300000Y-103800000D01*
X109598780Y-115438000D02*
X109598780Y-114701220D01*
X110600000Y-113700000D02*
X110600000Y-113400000D01*
X109598780Y-114701220D02*
X110600000Y-113700000D01*
X105298880Y-115438000D02*
X105298880Y-114701120D01*
X107300000Y-112700000D02*
X107800000Y-112700000D01*
X105298880Y-114701120D02*
X107300000Y-112700000D01*
X109300000Y-111200000D02*
X109300000Y-110300000D01*
X107800000Y-112700000D02*
X109300000Y-111200000D01*
X109300000Y-103700000D02*
X109300000Y-105700000D01*
X109700000Y-103300000D02*
X109300000Y-103700000D01*
X110000000Y-103300000D02*
X109700000Y-103300000D01*
X110398880Y-115438000D02*
X110398880Y-115201120D01*
X111500000Y-114100000D02*
X111600000Y-114100000D01*
X110398880Y-115201120D02*
X111500000Y-114100000D01*
X116001120Y-115438000D02*
X116001120Y-115101120D01*
X115300000Y-114400000D02*
X115300000Y-112700000D01*
X116001120Y-115101120D02*
X115300000Y-114400000D01*
X115300000Y-112700000D02*
X115300000Y-110300000D01*
X112800000Y-134300000D02*
X112800000Y-134800000D01*
X112800000Y-126600000D02*
X112800000Y-134300000D01*
X114300000Y-136300000D02*
X114300000Y-137300000D01*
X112800000Y-134800000D02*
X114300000Y-136300000D01*
X111100000Y-126947500D02*
X112452500Y-126947500D01*
X112452500Y-126947500D02*
X112800000Y-126600000D01*
X111300000Y-110300000D02*
X111300000Y-112300000D01*
X112800000Y-123700000D02*
X112800000Y-126600000D01*
X112000000Y-122900000D02*
X112800000Y-123700000D01*
X112000000Y-118300000D02*
X112000000Y-122900000D01*
X111400000Y-117700000D02*
X112000000Y-118300000D01*
X111400000Y-115700000D02*
X111400000Y-117700000D01*
X112500000Y-114600000D02*
X111400000Y-115700000D01*
X112500000Y-113500000D02*
X112500000Y-114600000D01*
X111300000Y-112300000D02*
X112500000Y-113500000D01*
X111052500Y-137400000D02*
X111052500Y-136547500D01*
X111052500Y-136547500D02*
X112000000Y-135600000D01*
X109000000Y-128852500D02*
X111100000Y-128852500D01*
X111100000Y-128852500D02*
X112000000Y-129752500D01*
X112000000Y-129752500D02*
X112000000Y-135600000D01*
X112300000Y-147470000D02*
X113600000Y-146170000D01*
X116300000Y-141000000D02*
X116300000Y-133600000D01*
X113600000Y-143700000D02*
X116300000Y-141000000D01*
X113600000Y-146170000D02*
X113600000Y-143700000D01*
X112300000Y-144930000D02*
X112300000Y-143800000D01*
X115400000Y-140700000D02*
X115400000Y-132700000D01*
X112300000Y-143800000D02*
X115400000Y-140700000D01*
X108700000Y-132603000D02*
X110797000Y-132603000D01*
X110797000Y-132603000D02*
X110800000Y-132600000D01*
X104900000Y-131400000D02*
X105052500Y-131400000D01*
X106700000Y-127047500D02*
X108900000Y-127047500D01*
X108900000Y-127047500D02*
X109000000Y-126947500D01*
X105052500Y-133900000D02*
X105052500Y-131400000D01*
X105052500Y-131400000D02*
X105052500Y-127847500D01*
X105052500Y-127847500D02*
X105852500Y-127047500D01*
X105852500Y-127047500D02*
X106700000Y-127047500D01*
X108700000Y-132603000D02*
X106349500Y-132603000D01*
X106349500Y-132603000D02*
X105052500Y-133900000D01*
D22*
X104200000Y-136900000D02*
X104400000Y-137100000D01*
X106170000Y-140670000D02*
X106170000Y-142000000D01*
X104400000Y-138900000D02*
X106170000Y-140670000D01*
X104400000Y-137100000D02*
X104400000Y-138900000D01*
X103100000Y-136900000D02*
X104200000Y-136900000D01*
X105052500Y-134947500D02*
X105052500Y-133900000D01*
X104400000Y-135600000D02*
X105052500Y-134947500D01*
X104400000Y-136700000D02*
X104400000Y-135600000D01*
X104200000Y-136900000D02*
X104400000Y-136700000D01*
X101000000Y-111500000D02*
X101000000Y-114300000D01*
X101000000Y-111500000D02*
X101000000Y-104900000D01*
X101000000Y-104900000D02*
X104300000Y-101600000D01*
X104300000Y-101600000D02*
X110700000Y-101600000D01*
X110700000Y-101600000D02*
X111300000Y-102200000D01*
X111300000Y-102200000D02*
X111300000Y-105700000D01*
X113300000Y-110300000D02*
X113300000Y-109100000D01*
X111300000Y-107100000D02*
X111300000Y-105700000D01*
X113300000Y-109100000D02*
X111300000Y-107100000D01*
X113900000Y-114300000D02*
X113900000Y-114200000D01*
X105600000Y-124300000D02*
X104800000Y-123500000D01*
X111700000Y-124300000D02*
X105600000Y-124300000D01*
X103100000Y-137850000D02*
X101600000Y-137850000D01*
X103100000Y-135950000D02*
X101600000Y-135950000D01*
X101600000Y-135950000D02*
X101600000Y-135900000D01*
X103147500Y-133900000D02*
X101600000Y-133900000D01*
X101600000Y-133900000D02*
X101600000Y-134000000D01*
X103400000Y-122100000D02*
X104800000Y-123500000D01*
X101300000Y-120600000D02*
X101900000Y-120600000D01*
X101900000Y-120600000D02*
X103400000Y-122100000D01*
X102500000Y-142000000D02*
X103630000Y-142000000D01*
X101600000Y-141100000D02*
X102500000Y-142000000D01*
X101600000Y-129900000D02*
X101600000Y-134000000D01*
X104800000Y-123500000D02*
X104800000Y-126700000D01*
X104800000Y-126700000D02*
X101600000Y-129900000D01*
X101600000Y-134000000D02*
X101600000Y-135900000D01*
X101600000Y-135900000D02*
X101600000Y-137850000D01*
X101600000Y-137850000D02*
X101600000Y-141100000D01*
X113300000Y-105700000D02*
X113300000Y-103300000D01*
D23*
G36*
X117484104Y-101022166D02*
G01*
X117447500Y-101206187D01*
X117447500Y-101393813D01*
X117484104Y-101577834D01*
X117555905Y-101751178D01*
X117577933Y-101784145D01*
X117577834Y-101784104D01*
X117393813Y-101747500D01*
X117206187Y-101747500D01*
X117022166Y-101784104D01*
X116848822Y-101855905D01*
X116692816Y-101960145D01*
X116560145Y-102092816D01*
X116455905Y-102248822D01*
X116384104Y-102422166D01*
X116347500Y-102606187D01*
X116347500Y-102754382D01*
X116177834Y-102684104D01*
X115993813Y-102647500D01*
X115806187Y-102647500D01*
X115622166Y-102684104D01*
X115448822Y-102755905D01*
X115292816Y-102860145D01*
X115160145Y-102992816D01*
X115055905Y-103148822D01*
X114984104Y-103322166D01*
X114947500Y-103506187D01*
X114947500Y-103564672D01*
X114830343Y-103681830D01*
X114803697Y-103703698D01*
X114781829Y-103730344D01*
X114781826Y-103730347D01*
X114767181Y-103748192D01*
X114755415Y-103749351D01*
X114659657Y-103778399D01*
X114571405Y-103825571D01*
X114513612Y-103873000D01*
X114086388Y-103873000D01*
X114071087Y-103860443D01*
X114144095Y-103751178D01*
X114215896Y-103577834D01*
X114252500Y-103393813D01*
X114252500Y-103206187D01*
X114215896Y-103022166D01*
X114144095Y-102848822D01*
X114039855Y-102692816D01*
X113907184Y-102560145D01*
X113751178Y-102455905D01*
X113577834Y-102384104D01*
X113393813Y-102347500D01*
X113206187Y-102347500D01*
X113022166Y-102384104D01*
X112848822Y-102455905D01*
X112692816Y-102560145D01*
X112560145Y-102692816D01*
X112455905Y-102848822D01*
X112384104Y-103022166D01*
X112347500Y-103206187D01*
X112347500Y-103393813D01*
X112384104Y-103577834D01*
X112455905Y-103751178D01*
X112528913Y-103860443D01*
X112494052Y-103889052D01*
X112430571Y-103966405D01*
X112383399Y-104054657D01*
X112366358Y-104110834D01*
X112334502Y-104005820D01*
X112275537Y-103895506D01*
X112196185Y-103798815D01*
X112099494Y-103719463D01*
X111989180Y-103660498D01*
X111869482Y-103624188D01*
X111745000Y-103611928D01*
X111585750Y-103615000D01*
X111427000Y-103773750D01*
X111427000Y-105573000D01*
X111447000Y-105573000D01*
X111447000Y-105827000D01*
X111427000Y-105827000D01*
X111427000Y-107626250D01*
X111585750Y-107785000D01*
X111745000Y-107788072D01*
X111869482Y-107775812D01*
X111989180Y-107739502D01*
X112099494Y-107680537D01*
X112196185Y-107601185D01*
X112275537Y-107504494D01*
X112334502Y-107394180D01*
X112366358Y-107289166D01*
X112383399Y-107345343D01*
X112430571Y-107433595D01*
X112494052Y-107510948D01*
X112571405Y-107574429D01*
X112659657Y-107621601D01*
X112755415Y-107650649D01*
X112855000Y-107660457D01*
X113745000Y-107660457D01*
X113844585Y-107650649D01*
X113873000Y-107642029D01*
X113873000Y-108225255D01*
X113869482Y-108224188D01*
X113745000Y-108211928D01*
X113585750Y-108215000D01*
X113427000Y-108373750D01*
X113427000Y-110173000D01*
X113447000Y-110173000D01*
X113447000Y-110427000D01*
X113427000Y-110427000D01*
X113427000Y-112226250D01*
X113585750Y-112385000D01*
X113745000Y-112388072D01*
X113869482Y-112375812D01*
X113989180Y-112339502D01*
X114099494Y-112280537D01*
X114196185Y-112201185D01*
X114259107Y-112124514D01*
X114507671Y-112122124D01*
X114528913Y-112139557D01*
X114455905Y-112248822D01*
X114384104Y-112422166D01*
X114347500Y-112606187D01*
X114347500Y-112793813D01*
X114384104Y-112977834D01*
X114455905Y-113151178D01*
X114560145Y-113307184D01*
X114601501Y-113348540D01*
X114601500Y-114365701D01*
X114598122Y-114400000D01*
X114601500Y-114434298D01*
X114601500Y-114434308D01*
X114611607Y-114536929D01*
X114644116Y-114644095D01*
X114651549Y-114668598D01*
X114716409Y-114789943D01*
X114781826Y-114869653D01*
X114781829Y-114869656D01*
X114803697Y-114896302D01*
X114830344Y-114918171D01*
X115274763Y-115362591D01*
X115274763Y-115819000D01*
X115284571Y-115918585D01*
X115313619Y-116014343D01*
X115360791Y-116102595D01*
X115424272Y-116179948D01*
X115448706Y-116200000D01*
X115424272Y-116220052D01*
X115360791Y-116297405D01*
X115313619Y-116385657D01*
X115284571Y-116481415D01*
X115274763Y-116581000D01*
X115274763Y-117337409D01*
X114230344Y-118381829D01*
X114203698Y-118403697D01*
X114181830Y-118430343D01*
X114181826Y-118430347D01*
X114116409Y-118510057D01*
X114051549Y-118631402D01*
X114048985Y-118639855D01*
X114011609Y-118763069D01*
X114011608Y-118763071D01*
X113998122Y-118900000D01*
X114001501Y-118934308D01*
X114001500Y-119610672D01*
X113864672Y-119747500D01*
X113806187Y-119747500D01*
X113622166Y-119784104D01*
X113448822Y-119855905D01*
X113292816Y-119960145D01*
X113160145Y-120092816D01*
X113055905Y-120248822D01*
X112984104Y-120422166D01*
X112947500Y-120606187D01*
X112947500Y-120793813D01*
X112984104Y-120977834D01*
X113055905Y-121151178D01*
X113160145Y-121307184D01*
X113292816Y-121439855D01*
X113448822Y-121544095D01*
X113622166Y-121615896D01*
X113806187Y-121652500D01*
X113993813Y-121652500D01*
X114177834Y-121615896D01*
X114351178Y-121544095D01*
X114507184Y-121439855D01*
X114550000Y-121397039D01*
X114592816Y-121439855D01*
X114748822Y-121544095D01*
X114922166Y-121615896D01*
X115106187Y-121652500D01*
X115293813Y-121652500D01*
X115477834Y-121615896D01*
X115651178Y-121544095D01*
X115807184Y-121439855D01*
X115900000Y-121347039D01*
X115992816Y-121439855D01*
X116148822Y-121544095D01*
X116322166Y-121615896D01*
X116506187Y-121652500D01*
X116693813Y-121652500D01*
X116877834Y-121615896D01*
X117051178Y-121544095D01*
X117207184Y-121439855D01*
X117300000Y-121347039D01*
X117392816Y-121439855D01*
X117548822Y-121544095D01*
X117722166Y-121615896D01*
X117906187Y-121652500D01*
X118093813Y-121652500D01*
X118277834Y-121615896D01*
X118451178Y-121544095D01*
X118607184Y-121439855D01*
X118650000Y-121397039D01*
X118692816Y-121439855D01*
X118848822Y-121544095D01*
X119022166Y-121615896D01*
X119206187Y-121652500D01*
X119393813Y-121652500D01*
X119577834Y-121615896D01*
X119751178Y-121544095D01*
X119907184Y-121439855D01*
X119950000Y-121397039D01*
X119992816Y-121439855D01*
X120100419Y-121511753D01*
X118530344Y-123081829D01*
X118503697Y-123103698D01*
X118481829Y-123130344D01*
X118481826Y-123130347D01*
X118416409Y-123210057D01*
X118356937Y-123321321D01*
X118351548Y-123331404D01*
X118311607Y-123463071D01*
X118301500Y-123565692D01*
X118301500Y-123565702D01*
X118298122Y-123600000D01*
X118301500Y-123634299D01*
X118301501Y-124751460D01*
X118260145Y-124792816D01*
X118155905Y-124948822D01*
X118084104Y-125122166D01*
X118047500Y-125306187D01*
X118047500Y-125493813D01*
X118084104Y-125677834D01*
X118155905Y-125851178D01*
X118260145Y-126007184D01*
X118392816Y-126139855D01*
X118548822Y-126244095D01*
X118722166Y-126315896D01*
X118906187Y-126352500D01*
X119093813Y-126352500D01*
X119277834Y-126315896D01*
X119451178Y-126244095D01*
X119607184Y-126139855D01*
X119739855Y-126007184D01*
X119844095Y-125851178D01*
X119915896Y-125677834D01*
X119946147Y-125525753D01*
X123573000Y-129152606D01*
X123573000Y-144046475D01*
X119548311Y-147973000D01*
X116006289Y-147973000D01*
X116061195Y-147840445D01*
X116110000Y-147595084D01*
X116110000Y-147344916D01*
X116061195Y-147099555D01*
X115965459Y-146868429D01*
X115826473Y-146660422D01*
X115649578Y-146483527D01*
X115441571Y-146344541D01*
X115210445Y-146248805D01*
X114977436Y-146202457D01*
X115602000Y-146202457D01*
X115701585Y-146192649D01*
X115797343Y-146163601D01*
X115885595Y-146116429D01*
X115962948Y-146052948D01*
X116026429Y-145975595D01*
X116073601Y-145887343D01*
X116102649Y-145791585D01*
X116112457Y-145692000D01*
X116112457Y-144168000D01*
X116102649Y-144068415D01*
X116073601Y-143972657D01*
X116026429Y-143884405D01*
X115962948Y-143807052D01*
X115885595Y-143743571D01*
X115797343Y-143696399D01*
X115701585Y-143667351D01*
X115602000Y-143657543D01*
X114630284Y-143657543D01*
X116769662Y-141518166D01*
X116796302Y-141496303D01*
X116818167Y-141469661D01*
X116818174Y-141469654D01*
X116883591Y-141389943D01*
X116935623Y-141292598D01*
X116948452Y-141268597D01*
X116988393Y-141136930D01*
X116998500Y-141034309D01*
X116998500Y-141034298D01*
X117001878Y-141000000D01*
X116998500Y-140965702D01*
X116998500Y-134248539D01*
X117039855Y-134207184D01*
X117144095Y-134051178D01*
X117215896Y-133877834D01*
X117252500Y-133693813D01*
X117252500Y-133506187D01*
X117215896Y-133322166D01*
X117144095Y-133148822D01*
X117039855Y-132992816D01*
X116907184Y-132860145D01*
X116751178Y-132755905D01*
X116577834Y-132684104D01*
X116393813Y-132647500D01*
X116352500Y-132647500D01*
X116352500Y-132606187D01*
X116315896Y-132422166D01*
X116244095Y-132248822D01*
X116139855Y-132092816D01*
X116007184Y-131960145D01*
X115851178Y-131855905D01*
X115677834Y-131784104D01*
X115493813Y-131747500D01*
X115306187Y-131747500D01*
X115122166Y-131784104D01*
X114948822Y-131855905D01*
X114792816Y-131960145D01*
X114660145Y-132092816D01*
X114555905Y-132248822D01*
X114484104Y-132422166D01*
X114447500Y-132606187D01*
X114447500Y-132793813D01*
X114484104Y-132977834D01*
X114555905Y-133151178D01*
X114660145Y-133307184D01*
X114701501Y-133348540D01*
X114701501Y-135713673D01*
X113498500Y-134510673D01*
X113498500Y-129705504D01*
X113517905Y-129721429D01*
X113606157Y-129768601D01*
X113692089Y-129794668D01*
X113655905Y-129848822D01*
X113584104Y-130022166D01*
X113547500Y-130206187D01*
X113547500Y-130393813D01*
X113584104Y-130577834D01*
X113655905Y-130751178D01*
X113760145Y-130907184D01*
X113892816Y-131039855D01*
X114048822Y-131144095D01*
X114222166Y-131215896D01*
X114406187Y-131252500D01*
X114593813Y-131252500D01*
X114777834Y-131215896D01*
X114951178Y-131144095D01*
X115107184Y-131039855D01*
X115239855Y-130907184D01*
X115344095Y-130751178D01*
X115415896Y-130577834D01*
X115452500Y-130393813D01*
X115452500Y-130206187D01*
X115415896Y-130022166D01*
X115344095Y-129848822D01*
X115307911Y-129794668D01*
X115393843Y-129768601D01*
X115482095Y-129721429D01*
X115559448Y-129657948D01*
X115622929Y-129580595D01*
X115670101Y-129492343D01*
X115699149Y-129396585D01*
X115708957Y-129297000D01*
X115708957Y-128408000D01*
X115699149Y-128308415D01*
X115670101Y-128212657D01*
X115622929Y-128124405D01*
X115559448Y-128047052D01*
X115482095Y-127983571D01*
X115460452Y-127972003D01*
X115552994Y-127922537D01*
X115649685Y-127843185D01*
X115729037Y-127746494D01*
X115788002Y-127636180D01*
X115824312Y-127516482D01*
X115836572Y-127392000D01*
X115833500Y-127233250D01*
X115674750Y-127074500D01*
X114627000Y-127074500D01*
X114627000Y-127094500D01*
X114373000Y-127094500D01*
X114373000Y-127074500D01*
X114353000Y-127074500D01*
X114353000Y-126820500D01*
X114373000Y-126820500D01*
X114373000Y-126026750D01*
X114627000Y-126026750D01*
X114627000Y-126820500D01*
X115674750Y-126820500D01*
X115833500Y-126661750D01*
X115836572Y-126503000D01*
X115824312Y-126378518D01*
X115788002Y-126258820D01*
X115729037Y-126148506D01*
X115649685Y-126051815D01*
X115552994Y-125972463D01*
X115442680Y-125913498D01*
X115322982Y-125877188D01*
X115198500Y-125864928D01*
X114785750Y-125868000D01*
X114627000Y-126026750D01*
X114373000Y-126026750D01*
X114214250Y-125868000D01*
X113801500Y-125864928D01*
X113677018Y-125877188D01*
X113557320Y-125913498D01*
X113498500Y-125944938D01*
X113498500Y-123734298D01*
X113501878Y-123700000D01*
X113498500Y-123665702D01*
X113498500Y-123665691D01*
X113488393Y-123563070D01*
X113448452Y-123431403D01*
X113401163Y-123342932D01*
X113383591Y-123310056D01*
X113318174Y-123230346D01*
X113318167Y-123230339D01*
X113296302Y-123203697D01*
X113269661Y-123181834D01*
X112698500Y-122610673D01*
X112698500Y-118334297D01*
X112701878Y-118299999D01*
X112698500Y-118265701D01*
X112698500Y-118265691D01*
X112688393Y-118163070D01*
X112648452Y-118031403D01*
X112648451Y-118031401D01*
X112583591Y-117910056D01*
X112518174Y-117830345D01*
X112518162Y-117830333D01*
X112496302Y-117803697D01*
X112469667Y-117781838D01*
X112098500Y-117410672D01*
X112098500Y-115989327D01*
X112969657Y-115118171D01*
X112996303Y-115096303D01*
X113018171Y-115069657D01*
X113018174Y-115069654D01*
X113083591Y-114989944D01*
X113118260Y-114925083D01*
X113148452Y-114868597D01*
X113188393Y-114736930D01*
X113198500Y-114634309D01*
X113198500Y-114634298D01*
X113201878Y-114600000D01*
X113198500Y-114565702D01*
X113198500Y-113534297D01*
X113201878Y-113499999D01*
X113198500Y-113465701D01*
X113198500Y-113465691D01*
X113188393Y-113363070D01*
X113148452Y-113231403D01*
X113122896Y-113183591D01*
X113083591Y-113110056D01*
X113018174Y-113030345D01*
X113018162Y-113030333D01*
X112996302Y-113003697D01*
X112969667Y-112981838D01*
X112102009Y-112114181D01*
X112105948Y-112110948D01*
X112169429Y-112033595D01*
X112216601Y-111945343D01*
X112233642Y-111889166D01*
X112265498Y-111994180D01*
X112324463Y-112104494D01*
X112403815Y-112201185D01*
X112500506Y-112280537D01*
X112610820Y-112339502D01*
X112730518Y-112375812D01*
X112855000Y-112388072D01*
X113014250Y-112385000D01*
X113173000Y-112226250D01*
X113173000Y-110427000D01*
X113153000Y-110427000D01*
X113153000Y-110173000D01*
X113173000Y-110173000D01*
X113173000Y-108373750D01*
X113014250Y-108215000D01*
X112855000Y-108211928D01*
X112730518Y-108224188D01*
X112610820Y-108260498D01*
X112500506Y-108319463D01*
X112403815Y-108398815D01*
X112324463Y-108495506D01*
X112265498Y-108605820D01*
X112233642Y-108710834D01*
X112216601Y-108654657D01*
X112169429Y-108566405D01*
X112105948Y-108489052D01*
X112028595Y-108425571D01*
X111940343Y-108378399D01*
X111844585Y-108349351D01*
X111745000Y-108339543D01*
X110855000Y-108339543D01*
X110755415Y-108349351D01*
X110727000Y-108357971D01*
X110727000Y-107774745D01*
X110730518Y-107775812D01*
X110855000Y-107788072D01*
X111014250Y-107785000D01*
X111173000Y-107626250D01*
X111173000Y-105827000D01*
X111153000Y-105827000D01*
X111153000Y-105573000D01*
X111173000Y-105573000D01*
X111173000Y-103773750D01*
X111014250Y-103615000D01*
X110901403Y-103612823D01*
X110915896Y-103577834D01*
X110952500Y-103393813D01*
X110952500Y-103206187D01*
X110915896Y-103022166D01*
X110844095Y-102848822D01*
X110739855Y-102692816D01*
X110607184Y-102560145D01*
X110451178Y-102455905D01*
X110277834Y-102384104D01*
X110093813Y-102347500D01*
X109906187Y-102347500D01*
X109722166Y-102384104D01*
X109548822Y-102455905D01*
X109392816Y-102560145D01*
X109260145Y-102692816D01*
X109155905Y-102848822D01*
X109150640Y-102861533D01*
X108952500Y-103059673D01*
X108952500Y-103006187D01*
X108915896Y-102822166D01*
X108844095Y-102648822D01*
X108739855Y-102492816D01*
X108607184Y-102360145D01*
X108451178Y-102255905D01*
X108277834Y-102184104D01*
X108093813Y-102147500D01*
X107906187Y-102147500D01*
X107722166Y-102184104D01*
X107548822Y-102255905D01*
X107392816Y-102360145D01*
X107260145Y-102492816D01*
X107155905Y-102648822D01*
X107084104Y-102822166D01*
X107047500Y-103006187D01*
X107047500Y-103064673D01*
X106830344Y-103281829D01*
X106803697Y-103303698D01*
X106781829Y-103330344D01*
X106781826Y-103330347D01*
X106716409Y-103410057D01*
X106671284Y-103494481D01*
X106651548Y-103531404D01*
X106611607Y-103663071D01*
X106601500Y-103765692D01*
X106601500Y-103765702D01*
X106598122Y-103800000D01*
X106599178Y-103810726D01*
X106571405Y-103825571D01*
X106494052Y-103889052D01*
X106430571Y-103966405D01*
X106383399Y-104054657D01*
X106377835Y-104073000D01*
X106222165Y-104073000D01*
X106216601Y-104054657D01*
X106169429Y-103966405D01*
X106105948Y-103889052D01*
X106028595Y-103825571D01*
X105998500Y-103809485D01*
X105998500Y-103648539D01*
X106039855Y-103607184D01*
X106144095Y-103451178D01*
X106215896Y-103277834D01*
X106252500Y-103093813D01*
X106252500Y-102906187D01*
X106215896Y-102722166D01*
X106144095Y-102548822D01*
X106039855Y-102392816D01*
X105907184Y-102260145D01*
X105751178Y-102155905D01*
X105577834Y-102084104D01*
X105393813Y-102047500D01*
X105206187Y-102047500D01*
X105022166Y-102084104D01*
X104848822Y-102155905D01*
X104692816Y-102260145D01*
X104560145Y-102392816D01*
X104455905Y-102548822D01*
X104384104Y-102722166D01*
X104347500Y-102906187D01*
X104347500Y-102978070D01*
X104193813Y-102947500D01*
X104006187Y-102947500D01*
X103822166Y-102984104D01*
X103648822Y-103055905D01*
X103492816Y-103160145D01*
X103360145Y-103292816D01*
X103255905Y-103448822D01*
X103184104Y-103622166D01*
X103160756Y-103739543D01*
X102855000Y-103739543D01*
X102755415Y-103749351D01*
X102659657Y-103778399D01*
X102571405Y-103825571D01*
X102494052Y-103889052D01*
X102430571Y-103966405D01*
X102383399Y-104054657D01*
X102354351Y-104150415D01*
X102344543Y-104250000D01*
X102344543Y-107150000D01*
X102354351Y-107249585D01*
X102383399Y-107345343D01*
X102430571Y-107433595D01*
X102473000Y-107485296D01*
X102473000Y-108514704D01*
X102430571Y-108566405D01*
X102383399Y-108654657D01*
X102354351Y-108750415D01*
X102344543Y-108850000D01*
X102344543Y-109617227D01*
X102231403Y-109651548D01*
X102231401Y-109651549D01*
X102110056Y-109716409D01*
X102072172Y-109747500D01*
X102006187Y-109747500D01*
X101822166Y-109784104D01*
X101648822Y-109855905D01*
X101492816Y-109960145D01*
X101360145Y-110092816D01*
X101255905Y-110248822D01*
X101184104Y-110422166D01*
X101147500Y-110606187D01*
X101147500Y-110793813D01*
X101184104Y-110977834D01*
X101255905Y-111151178D01*
X101360145Y-111307184D01*
X101492816Y-111439855D01*
X101648822Y-111544095D01*
X101822166Y-111615896D01*
X102006187Y-111652500D01*
X102193813Y-111652500D01*
X102344543Y-111622518D01*
X102344543Y-111750000D01*
X102354351Y-111849585D01*
X102383399Y-111945343D01*
X102430571Y-112033595D01*
X102453220Y-112061193D01*
X102431464Y-112082949D01*
X102404818Y-112104817D01*
X102382950Y-112131463D01*
X102382946Y-112131467D01*
X102317529Y-112211177D01*
X102252669Y-112332522D01*
X102245576Y-112355905D01*
X102212728Y-112464190D01*
X102202989Y-112563071D01*
X102199242Y-112601120D01*
X102202621Y-112635428D01*
X102202620Y-114897915D01*
X102184571Y-114957415D01*
X102174763Y-115057000D01*
X102174763Y-115819000D01*
X102184571Y-115918585D01*
X102213619Y-116014343D01*
X102260791Y-116102595D01*
X102324272Y-116179948D01*
X102348706Y-116200000D01*
X102324272Y-116220052D01*
X102260791Y-116297405D01*
X102213619Y-116385657D01*
X102184571Y-116481415D01*
X102174763Y-116581000D01*
X102174763Y-116953751D01*
X102022166Y-116984104D01*
X101848822Y-117055905D01*
X101692816Y-117160145D01*
X101560145Y-117292816D01*
X101455905Y-117448822D01*
X101384104Y-117622166D01*
X101347500Y-117806187D01*
X101347500Y-117993813D01*
X101384104Y-118177834D01*
X101455905Y-118351178D01*
X101560145Y-118507184D01*
X101692816Y-118639855D01*
X101848822Y-118744095D01*
X102022166Y-118815896D01*
X102206187Y-118852500D01*
X102393813Y-118852500D01*
X102577834Y-118815896D01*
X102751178Y-118744095D01*
X102907184Y-118639855D01*
X103002721Y-118544318D01*
X103002720Y-119886709D01*
X102892816Y-119960145D01*
X102760145Y-120092816D01*
X102655905Y-120248822D01*
X102647278Y-120269648D01*
X102465284Y-120087654D01*
X102441422Y-120058578D01*
X102325392Y-119963355D01*
X102193015Y-119892598D01*
X102049378Y-119849026D01*
X101937426Y-119838000D01*
X101937423Y-119838000D01*
X101900000Y-119834314D01*
X101872569Y-119837016D01*
X101751178Y-119755905D01*
X101577834Y-119684104D01*
X101393813Y-119647500D01*
X101206187Y-119647500D01*
X101022166Y-119684104D01*
X100927000Y-119723523D01*
X100927000Y-104452606D01*
X104452606Y-100927000D01*
X117523523Y-100927000D01*
X117484104Y-101022166D01*
G37*
X117484104Y-101022166D02*
X117447500Y-101206187D01*
X117447500Y-101393813D01*
X117484104Y-101577834D01*
X117555905Y-101751178D01*
X117577933Y-101784145D01*
X117577834Y-101784104D01*
X117393813Y-101747500D01*
X117206187Y-101747500D01*
X117022166Y-101784104D01*
X116848822Y-101855905D01*
X116692816Y-101960145D01*
X116560145Y-102092816D01*
X116455905Y-102248822D01*
X116384104Y-102422166D01*
X116347500Y-102606187D01*
X116347500Y-102754382D01*
X116177834Y-102684104D01*
X115993813Y-102647500D01*
X115806187Y-102647500D01*
X115622166Y-102684104D01*
X115448822Y-102755905D01*
X115292816Y-102860145D01*
X115160145Y-102992816D01*
X115055905Y-103148822D01*
X114984104Y-103322166D01*
X114947500Y-103506187D01*
X114947500Y-103564672D01*
X114830343Y-103681830D01*
X114803697Y-103703698D01*
X114781829Y-103730344D01*
X114781826Y-103730347D01*
X114767181Y-103748192D01*
X114755415Y-103749351D01*
X114659657Y-103778399D01*
X114571405Y-103825571D01*
X114513612Y-103873000D01*
X114086388Y-103873000D01*
X114071087Y-103860443D01*
X114144095Y-103751178D01*
X114215896Y-103577834D01*
X114252500Y-103393813D01*
X114252500Y-103206187D01*
X114215896Y-103022166D01*
X114144095Y-102848822D01*
X114039855Y-102692816D01*
X113907184Y-102560145D01*
X113751178Y-102455905D01*
X113577834Y-102384104D01*
X113393813Y-102347500D01*
X113206187Y-102347500D01*
X113022166Y-102384104D01*
X112848822Y-102455905D01*
X112692816Y-102560145D01*
X112560145Y-102692816D01*
X112455905Y-102848822D01*
X112384104Y-103022166D01*
X112347500Y-103206187D01*
X112347500Y-103393813D01*
X112384104Y-103577834D01*
X112455905Y-103751178D01*
X112528913Y-103860443D01*
X112494052Y-103889052D01*
X112430571Y-103966405D01*
X112383399Y-104054657D01*
X112366358Y-104110834D01*
X112334502Y-104005820D01*
X112275537Y-103895506D01*
X112196185Y-103798815D01*
X112099494Y-103719463D01*
X111989180Y-103660498D01*
X111869482Y-103624188D01*
X111745000Y-103611928D01*
X111585750Y-103615000D01*
X111427000Y-103773750D01*
X111427000Y-105573000D01*
X111447000Y-105573000D01*
X111447000Y-105827000D01*
X111427000Y-105827000D01*
X111427000Y-107626250D01*
X111585750Y-107785000D01*
X111745000Y-107788072D01*
X111869482Y-107775812D01*
X111989180Y-107739502D01*
X112099494Y-107680537D01*
X112196185Y-107601185D01*
X112275537Y-107504494D01*
X112334502Y-107394180D01*
X112366358Y-107289166D01*
X112383399Y-107345343D01*
X112430571Y-107433595D01*
X112494052Y-107510948D01*
X112571405Y-107574429D01*
X112659657Y-107621601D01*
X112755415Y-107650649D01*
X112855000Y-107660457D01*
X113745000Y-107660457D01*
X113844585Y-107650649D01*
X113873000Y-107642029D01*
X113873000Y-108225255D01*
X113869482Y-108224188D01*
X113745000Y-108211928D01*
X113585750Y-108215000D01*
X113427000Y-108373750D01*
X113427000Y-110173000D01*
X113447000Y-110173000D01*
X113447000Y-110427000D01*
X113427000Y-110427000D01*
X113427000Y-112226250D01*
X113585750Y-112385000D01*
X113745000Y-112388072D01*
X113869482Y-112375812D01*
X113989180Y-112339502D01*
X114099494Y-112280537D01*
X114196185Y-112201185D01*
X114259107Y-112124514D01*
X114507671Y-112122124D01*
X114528913Y-112139557D01*
X114455905Y-112248822D01*
X114384104Y-112422166D01*
X114347500Y-112606187D01*
X114347500Y-112793813D01*
X114384104Y-112977834D01*
X114455905Y-113151178D01*
X114560145Y-113307184D01*
X114601501Y-113348540D01*
X114601500Y-114365701D01*
X114598122Y-114400000D01*
X114601500Y-114434298D01*
X114601500Y-114434308D01*
X114611607Y-114536929D01*
X114644116Y-114644095D01*
X114651549Y-114668598D01*
X114716409Y-114789943D01*
X114781826Y-114869653D01*
X114781829Y-114869656D01*
X114803697Y-114896302D01*
X114830344Y-114918171D01*
X115274763Y-115362591D01*
X115274763Y-115819000D01*
X115284571Y-115918585D01*
X115313619Y-116014343D01*
X115360791Y-116102595D01*
X115424272Y-116179948D01*
X115448706Y-116200000D01*
X115424272Y-116220052D01*
X115360791Y-116297405D01*
X115313619Y-116385657D01*
X115284571Y-116481415D01*
X115274763Y-116581000D01*
X115274763Y-117337409D01*
X114230344Y-118381829D01*
X114203698Y-118403697D01*
X114181830Y-118430343D01*
X114181826Y-118430347D01*
X114116409Y-118510057D01*
X114051549Y-118631402D01*
X114048985Y-118639855D01*
X114011609Y-118763069D01*
X114011608Y-118763071D01*
X113998122Y-118900000D01*
X114001501Y-118934308D01*
X114001500Y-119610672D01*
X113864672Y-119747500D01*
X113806187Y-119747500D01*
X113622166Y-119784104D01*
X113448822Y-119855905D01*
X113292816Y-119960145D01*
X113160145Y-120092816D01*
X113055905Y-120248822D01*
X112984104Y-120422166D01*
X112947500Y-120606187D01*
X112947500Y-120793813D01*
X112984104Y-120977834D01*
X113055905Y-121151178D01*
X113160145Y-121307184D01*
X113292816Y-121439855D01*
X113448822Y-121544095D01*
X113622166Y-121615896D01*
X113806187Y-121652500D01*
X113993813Y-121652500D01*
X114177834Y-121615896D01*
X114351178Y-121544095D01*
X114507184Y-121439855D01*
X114550000Y-121397039D01*
X114592816Y-121439855D01*
X114748822Y-121544095D01*
X114922166Y-121615896D01*
X115106187Y-121652500D01*
X115293813Y-121652500D01*
X115477834Y-121615896D01*
X115651178Y-121544095D01*
X115807184Y-121439855D01*
X115900000Y-121347039D01*
X115992816Y-121439855D01*
X116148822Y-121544095D01*
X116322166Y-121615896D01*
X116506187Y-121652500D01*
X116693813Y-121652500D01*
X116877834Y-121615896D01*
X117051178Y-121544095D01*
X117207184Y-121439855D01*
X117300000Y-121347039D01*
X117392816Y-121439855D01*
X117548822Y-121544095D01*
X117722166Y-121615896D01*
X117906187Y-121652500D01*
X118093813Y-121652500D01*
X118277834Y-121615896D01*
X118451178Y-121544095D01*
X118607184Y-121439855D01*
X118650000Y-121397039D01*
X118692816Y-121439855D01*
X118848822Y-121544095D01*
X119022166Y-121615896D01*
X119206187Y-121652500D01*
X119393813Y-121652500D01*
X119577834Y-121615896D01*
X119751178Y-121544095D01*
X119907184Y-121439855D01*
X119950000Y-121397039D01*
X119992816Y-121439855D01*
X120100419Y-121511753D01*
X118530344Y-123081829D01*
X118503697Y-123103698D01*
X118481829Y-123130344D01*
X118481826Y-123130347D01*
X118416409Y-123210057D01*
X118356937Y-123321321D01*
X118351548Y-123331404D01*
X118311607Y-123463071D01*
X118301500Y-123565692D01*
X118301500Y-123565702D01*
X118298122Y-123600000D01*
X118301500Y-123634299D01*
X118301501Y-124751460D01*
X118260145Y-124792816D01*
X118155905Y-124948822D01*
X118084104Y-125122166D01*
X118047500Y-125306187D01*
X118047500Y-125493813D01*
X118084104Y-125677834D01*
X118155905Y-125851178D01*
X118260145Y-126007184D01*
X118392816Y-126139855D01*
X118548822Y-126244095D01*
X118722166Y-126315896D01*
X118906187Y-126352500D01*
X119093813Y-126352500D01*
X119277834Y-126315896D01*
X119451178Y-126244095D01*
X119607184Y-126139855D01*
X119739855Y-126007184D01*
X119844095Y-125851178D01*
X119915896Y-125677834D01*
X119946147Y-125525753D01*
X123573000Y-129152606D01*
X123573000Y-144046475D01*
X119548311Y-147973000D01*
X116006289Y-147973000D01*
X116061195Y-147840445D01*
X116110000Y-147595084D01*
X116110000Y-147344916D01*
X116061195Y-147099555D01*
X115965459Y-146868429D01*
X115826473Y-146660422D01*
X115649578Y-146483527D01*
X115441571Y-146344541D01*
X115210445Y-146248805D01*
X114977436Y-146202457D01*
X115602000Y-146202457D01*
X115701585Y-146192649D01*
X115797343Y-146163601D01*
X115885595Y-146116429D01*
X115962948Y-146052948D01*
X116026429Y-145975595D01*
X116073601Y-145887343D01*
X116102649Y-145791585D01*
X116112457Y-145692000D01*
X116112457Y-144168000D01*
X116102649Y-144068415D01*
X116073601Y-143972657D01*
X116026429Y-143884405D01*
X115962948Y-143807052D01*
X115885595Y-143743571D01*
X115797343Y-143696399D01*
X115701585Y-143667351D01*
X115602000Y-143657543D01*
X114630284Y-143657543D01*
X116769662Y-141518166D01*
X116796302Y-141496303D01*
X116818167Y-141469661D01*
X116818174Y-141469654D01*
X116883591Y-141389943D01*
X116935623Y-141292598D01*
X116948452Y-141268597D01*
X116988393Y-141136930D01*
X116998500Y-141034309D01*
X116998500Y-141034298D01*
X117001878Y-141000000D01*
X116998500Y-140965702D01*
X116998500Y-134248539D01*
X117039855Y-134207184D01*
X117144095Y-134051178D01*
X117215896Y-133877834D01*
X117252500Y-133693813D01*
X117252500Y-133506187D01*
X117215896Y-133322166D01*
X117144095Y-133148822D01*
X117039855Y-132992816D01*
X116907184Y-132860145D01*
X116751178Y-132755905D01*
X116577834Y-132684104D01*
X116393813Y-132647500D01*
X116352500Y-132647500D01*
X116352500Y-132606187D01*
X116315896Y-132422166D01*
X116244095Y-132248822D01*
X116139855Y-132092816D01*
X116007184Y-131960145D01*
X115851178Y-131855905D01*
X115677834Y-131784104D01*
X115493813Y-131747500D01*
X115306187Y-131747500D01*
X115122166Y-131784104D01*
X114948822Y-131855905D01*
X114792816Y-131960145D01*
X114660145Y-132092816D01*
X114555905Y-132248822D01*
X114484104Y-132422166D01*
X114447500Y-132606187D01*
X114447500Y-132793813D01*
X114484104Y-132977834D01*
X114555905Y-133151178D01*
X114660145Y-133307184D01*
X114701501Y-133348540D01*
X114701501Y-135713673D01*
X113498500Y-134510673D01*
X113498500Y-129705504D01*
X113517905Y-129721429D01*
X113606157Y-129768601D01*
X113692089Y-129794668D01*
X113655905Y-129848822D01*
X113584104Y-130022166D01*
X113547500Y-130206187D01*
X113547500Y-130393813D01*
X113584104Y-130577834D01*
X113655905Y-130751178D01*
X113760145Y-130907184D01*
X113892816Y-131039855D01*
X114048822Y-131144095D01*
X114222166Y-131215896D01*
X114406187Y-131252500D01*
X114593813Y-131252500D01*
X114777834Y-131215896D01*
X114951178Y-131144095D01*
X115107184Y-131039855D01*
X115239855Y-130907184D01*
X115344095Y-130751178D01*
X115415896Y-130577834D01*
X115452500Y-130393813D01*
X115452500Y-130206187D01*
X115415896Y-130022166D01*
X115344095Y-129848822D01*
X115307911Y-129794668D01*
X115393843Y-129768601D01*
X115482095Y-129721429D01*
X115559448Y-129657948D01*
X115622929Y-129580595D01*
X115670101Y-129492343D01*
X115699149Y-129396585D01*
X115708957Y-129297000D01*
X115708957Y-128408000D01*
X115699149Y-128308415D01*
X115670101Y-128212657D01*
X115622929Y-128124405D01*
X115559448Y-128047052D01*
X115482095Y-127983571D01*
X115460452Y-127972003D01*
X115552994Y-127922537D01*
X115649685Y-127843185D01*
X115729037Y-127746494D01*
X115788002Y-127636180D01*
X115824312Y-127516482D01*
X115836572Y-127392000D01*
X115833500Y-127233250D01*
X115674750Y-127074500D01*
X114627000Y-127074500D01*
X114627000Y-127094500D01*
X114373000Y-127094500D01*
X114373000Y-127074500D01*
X114353000Y-127074500D01*
X114353000Y-126820500D01*
X114373000Y-126820500D01*
X114373000Y-126026750D01*
X114627000Y-126026750D01*
X114627000Y-126820500D01*
X115674750Y-126820500D01*
X115833500Y-126661750D01*
X115836572Y-126503000D01*
X115824312Y-126378518D01*
X115788002Y-126258820D01*
X115729037Y-126148506D01*
X115649685Y-126051815D01*
X115552994Y-125972463D01*
X115442680Y-125913498D01*
X115322982Y-125877188D01*
X115198500Y-125864928D01*
X114785750Y-125868000D01*
X114627000Y-126026750D01*
X114373000Y-126026750D01*
X114214250Y-125868000D01*
X113801500Y-125864928D01*
X113677018Y-125877188D01*
X113557320Y-125913498D01*
X113498500Y-125944938D01*
X113498500Y-123734298D01*
X113501878Y-123700000D01*
X113498500Y-123665702D01*
X113498500Y-123665691D01*
X113488393Y-123563070D01*
X113448452Y-123431403D01*
X113401163Y-123342932D01*
X113383591Y-123310056D01*
X113318174Y-123230346D01*
X113318167Y-123230339D01*
X113296302Y-123203697D01*
X113269661Y-123181834D01*
X112698500Y-122610673D01*
X112698500Y-118334297D01*
X112701878Y-118299999D01*
X112698500Y-118265701D01*
X112698500Y-118265691D01*
X112688393Y-118163070D01*
X112648452Y-118031403D01*
X112648451Y-118031401D01*
X112583591Y-117910056D01*
X112518174Y-117830345D01*
X112518162Y-117830333D01*
X112496302Y-117803697D01*
X112469667Y-117781838D01*
X112098500Y-117410672D01*
X112098500Y-115989327D01*
X112969657Y-115118171D01*
X112996303Y-115096303D01*
X113018171Y-115069657D01*
X113018174Y-115069654D01*
X113083591Y-114989944D01*
X113118260Y-114925083D01*
X113148452Y-114868597D01*
X113188393Y-114736930D01*
X113198500Y-114634309D01*
X113198500Y-114634298D01*
X113201878Y-114600000D01*
X113198500Y-114565702D01*
X113198500Y-113534297D01*
X113201878Y-113499999D01*
X113198500Y-113465701D01*
X113198500Y-113465691D01*
X113188393Y-113363070D01*
X113148452Y-113231403D01*
X113122896Y-113183591D01*
X113083591Y-113110056D01*
X113018174Y-113030345D01*
X113018162Y-113030333D01*
X112996302Y-113003697D01*
X112969667Y-112981838D01*
X112102009Y-112114181D01*
X112105948Y-112110948D01*
X112169429Y-112033595D01*
X112216601Y-111945343D01*
X112233642Y-111889166D01*
X112265498Y-111994180D01*
X112324463Y-112104494D01*
X112403815Y-112201185D01*
X112500506Y-112280537D01*
X112610820Y-112339502D01*
X112730518Y-112375812D01*
X112855000Y-112388072D01*
X113014250Y-112385000D01*
X113173000Y-112226250D01*
X113173000Y-110427000D01*
X113153000Y-110427000D01*
X113153000Y-110173000D01*
X113173000Y-110173000D01*
X113173000Y-108373750D01*
X113014250Y-108215000D01*
X112855000Y-108211928D01*
X112730518Y-108224188D01*
X112610820Y-108260498D01*
X112500506Y-108319463D01*
X112403815Y-108398815D01*
X112324463Y-108495506D01*
X112265498Y-108605820D01*
X112233642Y-108710834D01*
X112216601Y-108654657D01*
X112169429Y-108566405D01*
X112105948Y-108489052D01*
X112028595Y-108425571D01*
X111940343Y-108378399D01*
X111844585Y-108349351D01*
X111745000Y-108339543D01*
X110855000Y-108339543D01*
X110755415Y-108349351D01*
X110727000Y-108357971D01*
X110727000Y-107774745D01*
X110730518Y-107775812D01*
X110855000Y-107788072D01*
X111014250Y-107785000D01*
X111173000Y-107626250D01*
X111173000Y-105827000D01*
X111153000Y-105827000D01*
X111153000Y-105573000D01*
X111173000Y-105573000D01*
X111173000Y-103773750D01*
X111014250Y-103615000D01*
X110901403Y-103612823D01*
X110915896Y-103577834D01*
X110952500Y-103393813D01*
X110952500Y-103206187D01*
X110915896Y-103022166D01*
X110844095Y-102848822D01*
X110739855Y-102692816D01*
X110607184Y-102560145D01*
X110451178Y-102455905D01*
X110277834Y-102384104D01*
X110093813Y-102347500D01*
X109906187Y-102347500D01*
X109722166Y-102384104D01*
X109548822Y-102455905D01*
X109392816Y-102560145D01*
X109260145Y-102692816D01*
X109155905Y-102848822D01*
X109150640Y-102861533D01*
X108952500Y-103059673D01*
X108952500Y-103006187D01*
X108915896Y-102822166D01*
X108844095Y-102648822D01*
X108739855Y-102492816D01*
X108607184Y-102360145D01*
X108451178Y-102255905D01*
X108277834Y-102184104D01*
X108093813Y-102147500D01*
X107906187Y-102147500D01*
X107722166Y-102184104D01*
X107548822Y-102255905D01*
X107392816Y-102360145D01*
X107260145Y-102492816D01*
X107155905Y-102648822D01*
X107084104Y-102822166D01*
X107047500Y-103006187D01*
X107047500Y-103064673D01*
X106830344Y-103281829D01*
X106803697Y-103303698D01*
X106781829Y-103330344D01*
X106781826Y-103330347D01*
X106716409Y-103410057D01*
X106671284Y-103494481D01*
X106651548Y-103531404D01*
X106611607Y-103663071D01*
X106601500Y-103765692D01*
X106601500Y-103765702D01*
X106598122Y-103800000D01*
X106599178Y-103810726D01*
X106571405Y-103825571D01*
X106494052Y-103889052D01*
X106430571Y-103966405D01*
X106383399Y-104054657D01*
X106377835Y-104073000D01*
X106222165Y-104073000D01*
X106216601Y-104054657D01*
X106169429Y-103966405D01*
X106105948Y-103889052D01*
X106028595Y-103825571D01*
X105998500Y-103809485D01*
X105998500Y-103648539D01*
X106039855Y-103607184D01*
X106144095Y-103451178D01*
X106215896Y-103277834D01*
X106252500Y-103093813D01*
X106252500Y-102906187D01*
X106215896Y-102722166D01*
X106144095Y-102548822D01*
X106039855Y-102392816D01*
X105907184Y-102260145D01*
X105751178Y-102155905D01*
X105577834Y-102084104D01*
X105393813Y-102047500D01*
X105206187Y-102047500D01*
X105022166Y-102084104D01*
X104848822Y-102155905D01*
X104692816Y-102260145D01*
X104560145Y-102392816D01*
X104455905Y-102548822D01*
X104384104Y-102722166D01*
X104347500Y-102906187D01*
X104347500Y-102978070D01*
X104193813Y-102947500D01*
X104006187Y-102947500D01*
X103822166Y-102984104D01*
X103648822Y-103055905D01*
X103492816Y-103160145D01*
X103360145Y-103292816D01*
X103255905Y-103448822D01*
X103184104Y-103622166D01*
X103160756Y-103739543D01*
X102855000Y-103739543D01*
X102755415Y-103749351D01*
X102659657Y-103778399D01*
X102571405Y-103825571D01*
X102494052Y-103889052D01*
X102430571Y-103966405D01*
X102383399Y-104054657D01*
X102354351Y-104150415D01*
X102344543Y-104250000D01*
X102344543Y-107150000D01*
X102354351Y-107249585D01*
X102383399Y-107345343D01*
X102430571Y-107433595D01*
X102473000Y-107485296D01*
X102473000Y-108514704D01*
X102430571Y-108566405D01*
X102383399Y-108654657D01*
X102354351Y-108750415D01*
X102344543Y-108850000D01*
X102344543Y-109617227D01*
X102231403Y-109651548D01*
X102231401Y-109651549D01*
X102110056Y-109716409D01*
X102072172Y-109747500D01*
X102006187Y-109747500D01*
X101822166Y-109784104D01*
X101648822Y-109855905D01*
X101492816Y-109960145D01*
X101360145Y-110092816D01*
X101255905Y-110248822D01*
X101184104Y-110422166D01*
X101147500Y-110606187D01*
X101147500Y-110793813D01*
X101184104Y-110977834D01*
X101255905Y-111151178D01*
X101360145Y-111307184D01*
X101492816Y-111439855D01*
X101648822Y-111544095D01*
X101822166Y-111615896D01*
X102006187Y-111652500D01*
X102193813Y-111652500D01*
X102344543Y-111622518D01*
X102344543Y-111750000D01*
X102354351Y-111849585D01*
X102383399Y-111945343D01*
X102430571Y-112033595D01*
X102453220Y-112061193D01*
X102431464Y-112082949D01*
X102404818Y-112104817D01*
X102382950Y-112131463D01*
X102382946Y-112131467D01*
X102317529Y-112211177D01*
X102252669Y-112332522D01*
X102245576Y-112355905D01*
X102212728Y-112464190D01*
X102202989Y-112563071D01*
X102199242Y-112601120D01*
X102202621Y-112635428D01*
X102202620Y-114897915D01*
X102184571Y-114957415D01*
X102174763Y-115057000D01*
X102174763Y-115819000D01*
X102184571Y-115918585D01*
X102213619Y-116014343D01*
X102260791Y-116102595D01*
X102324272Y-116179948D01*
X102348706Y-116200000D01*
X102324272Y-116220052D01*
X102260791Y-116297405D01*
X102213619Y-116385657D01*
X102184571Y-116481415D01*
X102174763Y-116581000D01*
X102174763Y-116953751D01*
X102022166Y-116984104D01*
X101848822Y-117055905D01*
X101692816Y-117160145D01*
X101560145Y-117292816D01*
X101455905Y-117448822D01*
X101384104Y-117622166D01*
X101347500Y-117806187D01*
X101347500Y-117993813D01*
X101384104Y-118177834D01*
X101455905Y-118351178D01*
X101560145Y-118507184D01*
X101692816Y-118639855D01*
X101848822Y-118744095D01*
X102022166Y-118815896D01*
X102206187Y-118852500D01*
X102393813Y-118852500D01*
X102577834Y-118815896D01*
X102751178Y-118744095D01*
X102907184Y-118639855D01*
X103002721Y-118544318D01*
X103002720Y-119886709D01*
X102892816Y-119960145D01*
X102760145Y-120092816D01*
X102655905Y-120248822D01*
X102647278Y-120269648D01*
X102465284Y-120087654D01*
X102441422Y-120058578D01*
X102325392Y-119963355D01*
X102193015Y-119892598D01*
X102049378Y-119849026D01*
X101937426Y-119838000D01*
X101937423Y-119838000D01*
X101900000Y-119834314D01*
X101872569Y-119837016D01*
X101751178Y-119755905D01*
X101577834Y-119684104D01*
X101393813Y-119647500D01*
X101206187Y-119647500D01*
X101022166Y-119684104D01*
X100927000Y-119723523D01*
X100927000Y-104452606D01*
X104452606Y-100927000D01*
X117523523Y-100927000D01*
X117484104Y-101022166D01*
G36*
X104077463Y-134952994D02*
G01*
X104156815Y-135049685D01*
X104253506Y-135129037D01*
X104363820Y-135188002D01*
X104483518Y-135224312D01*
X104608000Y-135236572D01*
X104766750Y-135233500D01*
X104925498Y-135074752D01*
X104925498Y-135190711D01*
X104916405Y-135195571D01*
X104839052Y-135259052D01*
X104775571Y-135336405D01*
X104728399Y-135424657D01*
X104699351Y-135520415D01*
X104689543Y-135620000D01*
X104689543Y-136280000D01*
X104699351Y-136379585D01*
X104728399Y-136475343D01*
X104775571Y-136563595D01*
X104839052Y-136640948D01*
X104916405Y-136704429D01*
X105004657Y-136751601D01*
X105100415Y-136780649D01*
X105200000Y-136790457D01*
X106200000Y-136790457D01*
X106299585Y-136780649D01*
X106395343Y-136751601D01*
X106469431Y-136712000D01*
X108109577Y-136712000D01*
X108147000Y-136715686D01*
X108184423Y-136712000D01*
X108184426Y-136712000D01*
X108192543Y-136711201D01*
X108192543Y-138098500D01*
X108202351Y-138198085D01*
X108231399Y-138293843D01*
X108278571Y-138382095D01*
X108342052Y-138459448D01*
X108419405Y-138522929D01*
X108507657Y-138570101D01*
X108603415Y-138599149D01*
X108703000Y-138608957D01*
X109592000Y-138608957D01*
X109691585Y-138599149D01*
X109787343Y-138570101D01*
X109875595Y-138522929D01*
X109952948Y-138459448D01*
X110016429Y-138382095D01*
X110063601Y-138293843D01*
X110092649Y-138198085D01*
X110100000Y-138123447D01*
X110107351Y-138198085D01*
X110136399Y-138293843D01*
X110183571Y-138382095D01*
X110247052Y-138459448D01*
X110324405Y-138522929D01*
X110412657Y-138570101D01*
X110508415Y-138599149D01*
X110608000Y-138608957D01*
X111497000Y-138608957D01*
X111596585Y-138599149D01*
X111692343Y-138570101D01*
X111780595Y-138522929D01*
X111857948Y-138459448D01*
X111921429Y-138382095D01*
X111968601Y-138293843D01*
X111997649Y-138198085D01*
X112007457Y-138098500D01*
X112007457Y-136701500D01*
X111997649Y-136601915D01*
X111994917Y-136592910D01*
X112035328Y-136552500D01*
X112093813Y-136552500D01*
X112277834Y-136515896D01*
X112451178Y-136444095D01*
X112607184Y-136339855D01*
X112739855Y-136207184D01*
X112844095Y-136051178D01*
X112908313Y-135896141D01*
X113601500Y-136589328D01*
X113601500Y-136651461D01*
X113560145Y-136692816D01*
X113455905Y-136848822D01*
X113384104Y-137022166D01*
X113347500Y-137206187D01*
X113347500Y-137393813D01*
X113384104Y-137577834D01*
X113455905Y-137751178D01*
X113560145Y-137907184D01*
X113692816Y-138039855D01*
X113848822Y-138144095D01*
X114022166Y-138215896D01*
X114206187Y-138252500D01*
X114393813Y-138252500D01*
X114577834Y-138215896D01*
X114701500Y-138164672D01*
X114701500Y-140410672D01*
X111830344Y-143281829D01*
X111803698Y-143303697D01*
X111781830Y-143330343D01*
X111781826Y-143330347D01*
X111716409Y-143410057D01*
X111651549Y-143531402D01*
X111631578Y-143597237D01*
X111611608Y-143663070D01*
X111607971Y-143700000D01*
X111598122Y-143800000D01*
X111601501Y-143834308D01*
X111601501Y-143869306D01*
X111490422Y-143943527D01*
X111313527Y-144120422D01*
X111174541Y-144328429D01*
X111078805Y-144559555D01*
X111030000Y-144804916D01*
X110981195Y-144559555D01*
X110885459Y-144328429D01*
X110746473Y-144120422D01*
X110569578Y-143943527D01*
X110361571Y-143804541D01*
X110130445Y-143708805D01*
X109885084Y-143660000D01*
X109634916Y-143660000D01*
X109389555Y-143708805D01*
X109158429Y-143804541D01*
X108950422Y-143943527D01*
X108773527Y-144120422D01*
X108634541Y-144328429D01*
X108538805Y-144559555D01*
X108490000Y-144804916D01*
X108490000Y-145055084D01*
X108538805Y-145300445D01*
X108634541Y-145531571D01*
X108773527Y-145739578D01*
X108950422Y-145916473D01*
X109158429Y-146055459D01*
X109347419Y-146133742D01*
X109156977Y-146202364D01*
X109041020Y-146264344D01*
X108974040Y-146504435D01*
X109760000Y-147290395D01*
X110545960Y-146504435D01*
X110478980Y-146264344D01*
X110229952Y-146147244D01*
X110173686Y-146133284D01*
X110361571Y-146055459D01*
X110569578Y-145916473D01*
X110746473Y-145739578D01*
X110885459Y-145531571D01*
X110981195Y-145300445D01*
X111030000Y-145055084D01*
X111078805Y-145300445D01*
X111174541Y-145531571D01*
X111313527Y-145739578D01*
X111490422Y-145916473D01*
X111698429Y-146055459D01*
X111929555Y-146151195D01*
X112174916Y-146200000D01*
X111929555Y-146248805D01*
X111698429Y-146344541D01*
X111490422Y-146483527D01*
X111313527Y-146660422D01*
X111174541Y-146868429D01*
X111096258Y-147057419D01*
X111027636Y-146866977D01*
X110965656Y-146751020D01*
X110725565Y-146684040D01*
X109939605Y-147470000D01*
X109953748Y-147484143D01*
X109774143Y-147663748D01*
X109760000Y-147649605D01*
X109745858Y-147663748D01*
X109566253Y-147484143D01*
X109580395Y-147470000D01*
X108794435Y-146684040D01*
X108554344Y-146751020D01*
X108437244Y-147000048D01*
X108370977Y-147267135D01*
X108358090Y-147542017D01*
X108399078Y-147814133D01*
X108456323Y-147973000D01*
X104652606Y-147973000D01*
X101227000Y-144547394D01*
X101227000Y-141804630D01*
X101934721Y-142512351D01*
X101958578Y-142541422D01*
X102074608Y-142636645D01*
X102206985Y-142707402D01*
X102294043Y-142733811D01*
X102294043Y-142825500D01*
X102303851Y-142925085D01*
X102332899Y-143020843D01*
X102380071Y-143109095D01*
X102443552Y-143186448D01*
X102520905Y-143249929D01*
X102609157Y-143297101D01*
X102704915Y-143326149D01*
X102804500Y-143335957D01*
X104455500Y-143335957D01*
X104555085Y-143326149D01*
X104650843Y-143297101D01*
X104739095Y-143249929D01*
X104816448Y-143186448D01*
X104879929Y-143109095D01*
X104927101Y-143020843D01*
X104930114Y-143010909D01*
X105338696Y-143010909D01*
X105413367Y-143257481D01*
X105673228Y-143380931D01*
X105952180Y-143451313D01*
X106239502Y-143465921D01*
X106524154Y-143424194D01*
X106795196Y-143327737D01*
X106926633Y-143257481D01*
X107001304Y-143010909D01*
X106170000Y-142179605D01*
X105338696Y-143010909D01*
X104930114Y-143010909D01*
X104956149Y-142925085D01*
X104965957Y-142825500D01*
X104965957Y-142772816D01*
X105159091Y-142831304D01*
X105990395Y-142000000D01*
X106349605Y-142000000D01*
X107180909Y-142831304D01*
X107427481Y-142756633D01*
X107550931Y-142496772D01*
X107621313Y-142217820D01*
X107635921Y-141930498D01*
X107594194Y-141645846D01*
X107497737Y-141374804D01*
X107427481Y-141243367D01*
X107180909Y-141168696D01*
X106349605Y-142000000D01*
X105990395Y-142000000D01*
X105159091Y-141168696D01*
X104965957Y-141227184D01*
X104965957Y-141174500D01*
X104956149Y-141074915D01*
X104930115Y-140989091D01*
X105338696Y-140989091D01*
X106170000Y-141820395D01*
X107001304Y-140989091D01*
X106926633Y-140742519D01*
X106666772Y-140619069D01*
X106387820Y-140548687D01*
X106100498Y-140534079D01*
X105815846Y-140575806D01*
X105544804Y-140672263D01*
X105413367Y-140742519D01*
X105338696Y-140989091D01*
X104930115Y-140989091D01*
X104927101Y-140979157D01*
X104879929Y-140890905D01*
X104816448Y-140813552D01*
X104739095Y-140750071D01*
X104650843Y-140702899D01*
X104555085Y-140673851D01*
X104455500Y-140664043D01*
X102804500Y-140664043D01*
X102704915Y-140673851D01*
X102609157Y-140702899D01*
X102520905Y-140750071D01*
X102443552Y-140813552D01*
X102419946Y-140842316D01*
X102362000Y-140784370D01*
X102362000Y-138628800D01*
X102404657Y-138651601D01*
X102500415Y-138680649D01*
X102600000Y-138690457D01*
X103600000Y-138690457D01*
X103699585Y-138680649D01*
X103795343Y-138651601D01*
X103883595Y-138604429D01*
X103960948Y-138540948D01*
X104024429Y-138463595D01*
X104071601Y-138375343D01*
X104100649Y-138279585D01*
X104110457Y-138180000D01*
X104110457Y-137608962D01*
X104130537Y-137584494D01*
X104165010Y-137520000D01*
X104689543Y-137520000D01*
X104689543Y-138180000D01*
X104699351Y-138279585D01*
X104728399Y-138375343D01*
X104775571Y-138463595D01*
X104839052Y-138540948D01*
X104916405Y-138604429D01*
X105004657Y-138651601D01*
X105100415Y-138680649D01*
X105200000Y-138690457D01*
X106200000Y-138690457D01*
X106299585Y-138680649D01*
X106395343Y-138651601D01*
X106483595Y-138604429D01*
X106560948Y-138540948D01*
X106624429Y-138463595D01*
X106671601Y-138375343D01*
X106700649Y-138279585D01*
X106710457Y-138180000D01*
X106710457Y-137520000D01*
X106700649Y-137420415D01*
X106671601Y-137324657D01*
X106624429Y-137236405D01*
X106560948Y-137159052D01*
X106483595Y-137095571D01*
X106395343Y-137048399D01*
X106299585Y-137019351D01*
X106200000Y-137009543D01*
X105200000Y-137009543D01*
X105100415Y-137019351D01*
X105004657Y-137048399D01*
X104916405Y-137095571D01*
X104839052Y-137159052D01*
X104775571Y-137236405D01*
X104728399Y-137324657D01*
X104699351Y-137420415D01*
X104689543Y-137520000D01*
X104165010Y-137520000D01*
X104189502Y-137474180D01*
X104225812Y-137354482D01*
X104238072Y-137230000D01*
X104235000Y-137185750D01*
X104076250Y-137027000D01*
X103724800Y-137027000D01*
X103699585Y-137019351D01*
X103600000Y-137009543D01*
X102953000Y-137009543D01*
X102953000Y-136790457D01*
X103600000Y-136790457D01*
X103699585Y-136780649D01*
X103724800Y-136773000D01*
X104076250Y-136773000D01*
X104235000Y-136614250D01*
X104238072Y-136570000D01*
X104225812Y-136445518D01*
X104189502Y-136325820D01*
X104130537Y-136215506D01*
X104110457Y-136191038D01*
X104110457Y-135620000D01*
X104100649Y-135520415D01*
X104071601Y-135424657D01*
X104024429Y-135336405D01*
X103960948Y-135259052D01*
X103883595Y-135195571D01*
X103795343Y-135148399D01*
X103699585Y-135119351D01*
X103600000Y-135109543D01*
X102600000Y-135109543D01*
X102500415Y-135119351D01*
X102404657Y-135148399D01*
X102362000Y-135171200D01*
X102362000Y-134975819D01*
X102419405Y-135022929D01*
X102507657Y-135070101D01*
X102603415Y-135099149D01*
X102703000Y-135108957D01*
X103592000Y-135108957D01*
X103691585Y-135099149D01*
X103787343Y-135070101D01*
X103875595Y-135022929D01*
X103952948Y-134959448D01*
X104016429Y-134882095D01*
X104027997Y-134860452D01*
X104077463Y-134952994D01*
G37*
X104077463Y-134952994D02*
X104156815Y-135049685D01*
X104253506Y-135129037D01*
X104363820Y-135188002D01*
X104483518Y-135224312D01*
X104608000Y-135236572D01*
X104766750Y-135233500D01*
X104925498Y-135074752D01*
X104925498Y-135190711D01*
X104916405Y-135195571D01*
X104839052Y-135259052D01*
X104775571Y-135336405D01*
X104728399Y-135424657D01*
X104699351Y-135520415D01*
X104689543Y-135620000D01*
X104689543Y-136280000D01*
X104699351Y-136379585D01*
X104728399Y-136475343D01*
X104775571Y-136563595D01*
X104839052Y-136640948D01*
X104916405Y-136704429D01*
X105004657Y-136751601D01*
X105100415Y-136780649D01*
X105200000Y-136790457D01*
X106200000Y-136790457D01*
X106299585Y-136780649D01*
X106395343Y-136751601D01*
X106469431Y-136712000D01*
X108109577Y-136712000D01*
X108147000Y-136715686D01*
X108184423Y-136712000D01*
X108184426Y-136712000D01*
X108192543Y-136711201D01*
X108192543Y-138098500D01*
X108202351Y-138198085D01*
X108231399Y-138293843D01*
X108278571Y-138382095D01*
X108342052Y-138459448D01*
X108419405Y-138522929D01*
X108507657Y-138570101D01*
X108603415Y-138599149D01*
X108703000Y-138608957D01*
X109592000Y-138608957D01*
X109691585Y-138599149D01*
X109787343Y-138570101D01*
X109875595Y-138522929D01*
X109952948Y-138459448D01*
X110016429Y-138382095D01*
X110063601Y-138293843D01*
X110092649Y-138198085D01*
X110100000Y-138123447D01*
X110107351Y-138198085D01*
X110136399Y-138293843D01*
X110183571Y-138382095D01*
X110247052Y-138459448D01*
X110324405Y-138522929D01*
X110412657Y-138570101D01*
X110508415Y-138599149D01*
X110608000Y-138608957D01*
X111497000Y-138608957D01*
X111596585Y-138599149D01*
X111692343Y-138570101D01*
X111780595Y-138522929D01*
X111857948Y-138459448D01*
X111921429Y-138382095D01*
X111968601Y-138293843D01*
X111997649Y-138198085D01*
X112007457Y-138098500D01*
X112007457Y-136701500D01*
X111997649Y-136601915D01*
X111994917Y-136592910D01*
X112035328Y-136552500D01*
X112093813Y-136552500D01*
X112277834Y-136515896D01*
X112451178Y-136444095D01*
X112607184Y-136339855D01*
X112739855Y-136207184D01*
X112844095Y-136051178D01*
X112908313Y-135896141D01*
X113601500Y-136589328D01*
X113601500Y-136651461D01*
X113560145Y-136692816D01*
X113455905Y-136848822D01*
X113384104Y-137022166D01*
X113347500Y-137206187D01*
X113347500Y-137393813D01*
X113384104Y-137577834D01*
X113455905Y-137751178D01*
X113560145Y-137907184D01*
X113692816Y-138039855D01*
X113848822Y-138144095D01*
X114022166Y-138215896D01*
X114206187Y-138252500D01*
X114393813Y-138252500D01*
X114577834Y-138215896D01*
X114701500Y-138164672D01*
X114701500Y-140410672D01*
X111830344Y-143281829D01*
X111803698Y-143303697D01*
X111781830Y-143330343D01*
X111781826Y-143330347D01*
X111716409Y-143410057D01*
X111651549Y-143531402D01*
X111631578Y-143597237D01*
X111611608Y-143663070D01*
X111607971Y-143700000D01*
X111598122Y-143800000D01*
X111601501Y-143834308D01*
X111601501Y-143869306D01*
X111490422Y-143943527D01*
X111313527Y-144120422D01*
X111174541Y-144328429D01*
X111078805Y-144559555D01*
X111030000Y-144804916D01*
X110981195Y-144559555D01*
X110885459Y-144328429D01*
X110746473Y-144120422D01*
X110569578Y-143943527D01*
X110361571Y-143804541D01*
X110130445Y-143708805D01*
X109885084Y-143660000D01*
X109634916Y-143660000D01*
X109389555Y-143708805D01*
X109158429Y-143804541D01*
X108950422Y-143943527D01*
X108773527Y-144120422D01*
X108634541Y-144328429D01*
X108538805Y-144559555D01*
X108490000Y-144804916D01*
X108490000Y-145055084D01*
X108538805Y-145300445D01*
X108634541Y-145531571D01*
X108773527Y-145739578D01*
X108950422Y-145916473D01*
X109158429Y-146055459D01*
X109347419Y-146133742D01*
X109156977Y-146202364D01*
X109041020Y-146264344D01*
X108974040Y-146504435D01*
X109760000Y-147290395D01*
X110545960Y-146504435D01*
X110478980Y-146264344D01*
X110229952Y-146147244D01*
X110173686Y-146133284D01*
X110361571Y-146055459D01*
X110569578Y-145916473D01*
X110746473Y-145739578D01*
X110885459Y-145531571D01*
X110981195Y-145300445D01*
X111030000Y-145055084D01*
X111078805Y-145300445D01*
X111174541Y-145531571D01*
X111313527Y-145739578D01*
X111490422Y-145916473D01*
X111698429Y-146055459D01*
X111929555Y-146151195D01*
X112174916Y-146200000D01*
X111929555Y-146248805D01*
X111698429Y-146344541D01*
X111490422Y-146483527D01*
X111313527Y-146660422D01*
X111174541Y-146868429D01*
X111096258Y-147057419D01*
X111027636Y-146866977D01*
X110965656Y-146751020D01*
X110725565Y-146684040D01*
X109939605Y-147470000D01*
X109953748Y-147484143D01*
X109774143Y-147663748D01*
X109760000Y-147649605D01*
X109745858Y-147663748D01*
X109566253Y-147484143D01*
X109580395Y-147470000D01*
X108794435Y-146684040D01*
X108554344Y-146751020D01*
X108437244Y-147000048D01*
X108370977Y-147267135D01*
X108358090Y-147542017D01*
X108399078Y-147814133D01*
X108456323Y-147973000D01*
X104652606Y-147973000D01*
X101227000Y-144547394D01*
X101227000Y-141804630D01*
X101934721Y-142512351D01*
X101958578Y-142541422D01*
X102074608Y-142636645D01*
X102206985Y-142707402D01*
X102294043Y-142733811D01*
X102294043Y-142825500D01*
X102303851Y-142925085D01*
X102332899Y-143020843D01*
X102380071Y-143109095D01*
X102443552Y-143186448D01*
X102520905Y-143249929D01*
X102609157Y-143297101D01*
X102704915Y-143326149D01*
X102804500Y-143335957D01*
X104455500Y-143335957D01*
X104555085Y-143326149D01*
X104650843Y-143297101D01*
X104739095Y-143249929D01*
X104816448Y-143186448D01*
X104879929Y-143109095D01*
X104927101Y-143020843D01*
X104930114Y-143010909D01*
X105338696Y-143010909D01*
X105413367Y-143257481D01*
X105673228Y-143380931D01*
X105952180Y-143451313D01*
X106239502Y-143465921D01*
X106524154Y-143424194D01*
X106795196Y-143327737D01*
X106926633Y-143257481D01*
X107001304Y-143010909D01*
X106170000Y-142179605D01*
X105338696Y-143010909D01*
X104930114Y-143010909D01*
X104956149Y-142925085D01*
X104965957Y-142825500D01*
X104965957Y-142772816D01*
X105159091Y-142831304D01*
X105990395Y-142000000D01*
X106349605Y-142000000D01*
X107180909Y-142831304D01*
X107427481Y-142756633D01*
X107550931Y-142496772D01*
X107621313Y-142217820D01*
X107635921Y-141930498D01*
X107594194Y-141645846D01*
X107497737Y-141374804D01*
X107427481Y-141243367D01*
X107180909Y-141168696D01*
X106349605Y-142000000D01*
X105990395Y-142000000D01*
X105159091Y-141168696D01*
X104965957Y-141227184D01*
X104965957Y-141174500D01*
X104956149Y-141074915D01*
X104930115Y-140989091D01*
X105338696Y-140989091D01*
X106170000Y-141820395D01*
X107001304Y-140989091D01*
X106926633Y-140742519D01*
X106666772Y-140619069D01*
X106387820Y-140548687D01*
X106100498Y-140534079D01*
X105815846Y-140575806D01*
X105544804Y-140672263D01*
X105413367Y-140742519D01*
X105338696Y-140989091D01*
X104930115Y-140989091D01*
X104927101Y-140979157D01*
X104879929Y-140890905D01*
X104816448Y-140813552D01*
X104739095Y-140750071D01*
X104650843Y-140702899D01*
X104555085Y-140673851D01*
X104455500Y-140664043D01*
X102804500Y-140664043D01*
X102704915Y-140673851D01*
X102609157Y-140702899D01*
X102520905Y-140750071D01*
X102443552Y-140813552D01*
X102419946Y-140842316D01*
X102362000Y-140784370D01*
X102362000Y-138628800D01*
X102404657Y-138651601D01*
X102500415Y-138680649D01*
X102600000Y-138690457D01*
X103600000Y-138690457D01*
X103699585Y-138680649D01*
X103795343Y-138651601D01*
X103883595Y-138604429D01*
X103960948Y-138540948D01*
X104024429Y-138463595D01*
X104071601Y-138375343D01*
X104100649Y-138279585D01*
X104110457Y-138180000D01*
X104110457Y-137608962D01*
X104130537Y-137584494D01*
X104165010Y-137520000D01*
X104689543Y-137520000D01*
X104689543Y-138180000D01*
X104699351Y-138279585D01*
X104728399Y-138375343D01*
X104775571Y-138463595D01*
X104839052Y-138540948D01*
X104916405Y-138604429D01*
X105004657Y-138651601D01*
X105100415Y-138680649D01*
X105200000Y-138690457D01*
X106200000Y-138690457D01*
X106299585Y-138680649D01*
X106395343Y-138651601D01*
X106483595Y-138604429D01*
X106560948Y-138540948D01*
X106624429Y-138463595D01*
X106671601Y-138375343D01*
X106700649Y-138279585D01*
X106710457Y-138180000D01*
X106710457Y-137520000D01*
X106700649Y-137420415D01*
X106671601Y-137324657D01*
X106624429Y-137236405D01*
X106560948Y-137159052D01*
X106483595Y-137095571D01*
X106395343Y-137048399D01*
X106299585Y-137019351D01*
X106200000Y-137009543D01*
X105200000Y-137009543D01*
X105100415Y-137019351D01*
X105004657Y-137048399D01*
X104916405Y-137095571D01*
X104839052Y-137159052D01*
X104775571Y-137236405D01*
X104728399Y-137324657D01*
X104699351Y-137420415D01*
X104689543Y-137520000D01*
X104165010Y-137520000D01*
X104189502Y-137474180D01*
X104225812Y-137354482D01*
X104238072Y-137230000D01*
X104235000Y-137185750D01*
X104076250Y-137027000D01*
X103724800Y-137027000D01*
X103699585Y-137019351D01*
X103600000Y-137009543D01*
X102953000Y-137009543D01*
X102953000Y-136790457D01*
X103600000Y-136790457D01*
X103699585Y-136780649D01*
X103724800Y-136773000D01*
X104076250Y-136773000D01*
X104235000Y-136614250D01*
X104238072Y-136570000D01*
X104225812Y-136445518D01*
X104189502Y-136325820D01*
X104130537Y-136215506D01*
X104110457Y-136191038D01*
X104110457Y-135620000D01*
X104100649Y-135520415D01*
X104071601Y-135424657D01*
X104024429Y-135336405D01*
X103960948Y-135259052D01*
X103883595Y-135195571D01*
X103795343Y-135148399D01*
X103699585Y-135119351D01*
X103600000Y-135109543D01*
X102600000Y-135109543D01*
X102500415Y-135119351D01*
X102404657Y-135148399D01*
X102362000Y-135171200D01*
X102362000Y-134975819D01*
X102419405Y-135022929D01*
X102507657Y-135070101D01*
X102603415Y-135099149D01*
X102703000Y-135108957D01*
X103592000Y-135108957D01*
X103691585Y-135099149D01*
X103787343Y-135070101D01*
X103875595Y-135022929D01*
X103952948Y-134959448D01*
X104016429Y-134882095D01*
X104027997Y-134860452D01*
X104077463Y-134952994D01*
G36*
X105366500Y-127333250D02*
G01*
X105363428Y-127492000D01*
X105375688Y-127616482D01*
X105411998Y-127736180D01*
X105470963Y-127846494D01*
X105550315Y-127943185D01*
X105647006Y-128022537D01*
X105739548Y-128072003D01*
X105717905Y-128083571D01*
X105640552Y-128147052D01*
X105577071Y-128224405D01*
X105529899Y-128312657D01*
X105500851Y-128408415D01*
X105491043Y-128508000D01*
X105491043Y-129397000D01*
X105500851Y-129496585D01*
X105529899Y-129592343D01*
X105577071Y-129680595D01*
X105640552Y-129757948D01*
X105717905Y-129821429D01*
X105806157Y-129868601D01*
X105901915Y-129897649D01*
X106001500Y-129907457D01*
X107219629Y-129907457D01*
X107747500Y-130435328D01*
X107747500Y-130493813D01*
X107784104Y-130677834D01*
X107855905Y-130851178D01*
X107960145Y-131007184D01*
X108092816Y-131139855D01*
X108132687Y-131166496D01*
X107798300Y-131164828D01*
X107673818Y-131177088D01*
X107554120Y-131213398D01*
X107443806Y-131272363D01*
X107347115Y-131351715D01*
X107267763Y-131448406D01*
X107208798Y-131558720D01*
X107172488Y-131678418D01*
X107160228Y-131802900D01*
X107163300Y-132317250D01*
X107322050Y-132476000D01*
X108573000Y-132476000D01*
X108573000Y-132456000D01*
X108827000Y-132456000D01*
X108827000Y-132476000D01*
X110077950Y-132476000D01*
X110236700Y-132317250D01*
X110239772Y-131802900D01*
X110227512Y-131678418D01*
X110191202Y-131558720D01*
X110132237Y-131448406D01*
X110052885Y-131351715D01*
X109956194Y-131272363D01*
X109845880Y-131213398D01*
X109726182Y-131177088D01*
X109601700Y-131164828D01*
X109267313Y-131166496D01*
X109307184Y-131139855D01*
X109439855Y-131007184D01*
X109544095Y-130851178D01*
X109615896Y-130677834D01*
X109652500Y-130493813D01*
X109652500Y-130306187D01*
X109615896Y-130122166D01*
X109544095Y-129948822D01*
X109449638Y-129807457D01*
X109698500Y-129807457D01*
X109798085Y-129797649D01*
X109893843Y-129768601D01*
X109982095Y-129721429D01*
X110050000Y-129665702D01*
X110117905Y-129721429D01*
X110206157Y-129768601D01*
X110301915Y-129797649D01*
X110401500Y-129807457D01*
X111067129Y-129807457D01*
X111301500Y-130041829D01*
X111301501Y-134951460D01*
X111261681Y-134991280D01*
X111244095Y-134948822D01*
X111139855Y-134792816D01*
X111007184Y-134660145D01*
X110851178Y-134555905D01*
X110677834Y-134484104D01*
X110493813Y-134447500D01*
X110306187Y-134447500D01*
X110122166Y-134484104D01*
X110101001Y-134492871D01*
X110073301Y-134401557D01*
X110026129Y-134313305D01*
X109962648Y-134235952D01*
X109885295Y-134172471D01*
X109797043Y-134125299D01*
X109701285Y-134096251D01*
X109601700Y-134086443D01*
X107798300Y-134086443D01*
X107698715Y-134096251D01*
X107602957Y-134125299D01*
X107514705Y-134172471D01*
X107437352Y-134235952D01*
X107373871Y-134313305D01*
X107326699Y-134401557D01*
X107297651Y-134497315D01*
X107287843Y-134596900D01*
X107287843Y-135188000D01*
X106469431Y-135188000D01*
X106395343Y-135148399D01*
X106299585Y-135119351D01*
X106200000Y-135109543D01*
X105875248Y-135109543D01*
X105948185Y-135049685D01*
X106027537Y-134952994D01*
X106086502Y-134842680D01*
X106122812Y-134722982D01*
X106135072Y-134598500D01*
X106132000Y-134185750D01*
X105973250Y-134027000D01*
X105179500Y-134027000D01*
X105179500Y-134047000D01*
X104925500Y-134047000D01*
X104925500Y-134027000D01*
X104905500Y-134027000D01*
X104905500Y-133773000D01*
X104925500Y-133773000D01*
X104925500Y-132725250D01*
X105179500Y-132725250D01*
X105179500Y-133773000D01*
X105973250Y-133773000D01*
X106132000Y-133614250D01*
X106133571Y-133403100D01*
X107160228Y-133403100D01*
X107172488Y-133527582D01*
X107208798Y-133647280D01*
X107267763Y-133757594D01*
X107347115Y-133854285D01*
X107443806Y-133933637D01*
X107554120Y-133992602D01*
X107673818Y-134028912D01*
X107798300Y-134041172D01*
X108414250Y-134038100D01*
X108573000Y-133879350D01*
X108573000Y-132730000D01*
X108827000Y-132730000D01*
X108827000Y-133879350D01*
X108985750Y-134038100D01*
X109601700Y-134041172D01*
X109726182Y-134028912D01*
X109845880Y-133992602D01*
X109956194Y-133933637D01*
X110052885Y-133854285D01*
X110132237Y-133757594D01*
X110191202Y-133647280D01*
X110227512Y-133527582D01*
X110239772Y-133403100D01*
X110236700Y-132888750D01*
X110077950Y-132730000D01*
X108827000Y-132730000D01*
X108573000Y-132730000D01*
X107322050Y-132730000D01*
X107163300Y-132888750D01*
X107160228Y-133403100D01*
X106133571Y-133403100D01*
X106135072Y-133201500D01*
X106122812Y-133077018D01*
X106086502Y-132957320D01*
X106027537Y-132847006D01*
X105948185Y-132750315D01*
X105851494Y-132670963D01*
X105741180Y-132611998D01*
X105621482Y-132575688D01*
X105497000Y-132563428D01*
X105338250Y-132566500D01*
X105179500Y-132725250D01*
X104925500Y-132725250D01*
X104766750Y-132566500D01*
X104608000Y-132563428D01*
X104483518Y-132575688D01*
X104363820Y-132611998D01*
X104253506Y-132670963D01*
X104156815Y-132750315D01*
X104077463Y-132847006D01*
X104027997Y-132939548D01*
X104016429Y-132917905D01*
X103952948Y-132840552D01*
X103875595Y-132777071D01*
X103787343Y-132729899D01*
X103691585Y-132700851D01*
X103592000Y-132691043D01*
X102703000Y-132691043D01*
X102603415Y-132700851D01*
X102507657Y-132729899D01*
X102419405Y-132777071D01*
X102362000Y-132824181D01*
X102362000Y-130215630D01*
X105312352Y-127265279D01*
X105341422Y-127241422D01*
X105396342Y-127174502D01*
X105525248Y-127174502D01*
X105366500Y-127333250D01*
G37*
X105366500Y-127333250D02*
X105363428Y-127492000D01*
X105375688Y-127616482D01*
X105411998Y-127736180D01*
X105470963Y-127846494D01*
X105550315Y-127943185D01*
X105647006Y-128022537D01*
X105739548Y-128072003D01*
X105717905Y-128083571D01*
X105640552Y-128147052D01*
X105577071Y-128224405D01*
X105529899Y-128312657D01*
X105500851Y-128408415D01*
X105491043Y-128508000D01*
X105491043Y-129397000D01*
X105500851Y-129496585D01*
X105529899Y-129592343D01*
X105577071Y-129680595D01*
X105640552Y-129757948D01*
X105717905Y-129821429D01*
X105806157Y-129868601D01*
X105901915Y-129897649D01*
X106001500Y-129907457D01*
X107219629Y-129907457D01*
X107747500Y-130435328D01*
X107747500Y-130493813D01*
X107784104Y-130677834D01*
X107855905Y-130851178D01*
X107960145Y-131007184D01*
X108092816Y-131139855D01*
X108132687Y-131166496D01*
X107798300Y-131164828D01*
X107673818Y-131177088D01*
X107554120Y-131213398D01*
X107443806Y-131272363D01*
X107347115Y-131351715D01*
X107267763Y-131448406D01*
X107208798Y-131558720D01*
X107172488Y-131678418D01*
X107160228Y-131802900D01*
X107163300Y-132317250D01*
X107322050Y-132476000D01*
X108573000Y-132476000D01*
X108573000Y-132456000D01*
X108827000Y-132456000D01*
X108827000Y-132476000D01*
X110077950Y-132476000D01*
X110236700Y-132317250D01*
X110239772Y-131802900D01*
X110227512Y-131678418D01*
X110191202Y-131558720D01*
X110132237Y-131448406D01*
X110052885Y-131351715D01*
X109956194Y-131272363D01*
X109845880Y-131213398D01*
X109726182Y-131177088D01*
X109601700Y-131164828D01*
X109267313Y-131166496D01*
X109307184Y-131139855D01*
X109439855Y-131007184D01*
X109544095Y-130851178D01*
X109615896Y-130677834D01*
X109652500Y-130493813D01*
X109652500Y-130306187D01*
X109615896Y-130122166D01*
X109544095Y-129948822D01*
X109449638Y-129807457D01*
X109698500Y-129807457D01*
X109798085Y-129797649D01*
X109893843Y-129768601D01*
X109982095Y-129721429D01*
X110050000Y-129665702D01*
X110117905Y-129721429D01*
X110206157Y-129768601D01*
X110301915Y-129797649D01*
X110401500Y-129807457D01*
X111067129Y-129807457D01*
X111301500Y-130041829D01*
X111301501Y-134951460D01*
X111261681Y-134991280D01*
X111244095Y-134948822D01*
X111139855Y-134792816D01*
X111007184Y-134660145D01*
X110851178Y-134555905D01*
X110677834Y-134484104D01*
X110493813Y-134447500D01*
X110306187Y-134447500D01*
X110122166Y-134484104D01*
X110101001Y-134492871D01*
X110073301Y-134401557D01*
X110026129Y-134313305D01*
X109962648Y-134235952D01*
X109885295Y-134172471D01*
X109797043Y-134125299D01*
X109701285Y-134096251D01*
X109601700Y-134086443D01*
X107798300Y-134086443D01*
X107698715Y-134096251D01*
X107602957Y-134125299D01*
X107514705Y-134172471D01*
X107437352Y-134235952D01*
X107373871Y-134313305D01*
X107326699Y-134401557D01*
X107297651Y-134497315D01*
X107287843Y-134596900D01*
X107287843Y-135188000D01*
X106469431Y-135188000D01*
X106395343Y-135148399D01*
X106299585Y-135119351D01*
X106200000Y-135109543D01*
X105875248Y-135109543D01*
X105948185Y-135049685D01*
X106027537Y-134952994D01*
X106086502Y-134842680D01*
X106122812Y-134722982D01*
X106135072Y-134598500D01*
X106132000Y-134185750D01*
X105973250Y-134027000D01*
X105179500Y-134027000D01*
X105179500Y-134047000D01*
X104925500Y-134047000D01*
X104925500Y-134027000D01*
X104905500Y-134027000D01*
X104905500Y-133773000D01*
X104925500Y-133773000D01*
X104925500Y-132725250D01*
X105179500Y-132725250D01*
X105179500Y-133773000D01*
X105973250Y-133773000D01*
X106132000Y-133614250D01*
X106133571Y-133403100D01*
X107160228Y-133403100D01*
X107172488Y-133527582D01*
X107208798Y-133647280D01*
X107267763Y-133757594D01*
X107347115Y-133854285D01*
X107443806Y-133933637D01*
X107554120Y-133992602D01*
X107673818Y-134028912D01*
X107798300Y-134041172D01*
X108414250Y-134038100D01*
X108573000Y-133879350D01*
X108573000Y-132730000D01*
X108827000Y-132730000D01*
X108827000Y-133879350D01*
X108985750Y-134038100D01*
X109601700Y-134041172D01*
X109726182Y-134028912D01*
X109845880Y-133992602D01*
X109956194Y-133933637D01*
X110052885Y-133854285D01*
X110132237Y-133757594D01*
X110191202Y-133647280D01*
X110227512Y-133527582D01*
X110239772Y-133403100D01*
X110236700Y-132888750D01*
X110077950Y-132730000D01*
X108827000Y-132730000D01*
X108573000Y-132730000D01*
X107322050Y-132730000D01*
X107163300Y-132888750D01*
X107160228Y-133403100D01*
X106133571Y-133403100D01*
X106135072Y-133201500D01*
X106122812Y-133077018D01*
X106086502Y-132957320D01*
X106027537Y-132847006D01*
X105948185Y-132750315D01*
X105851494Y-132670963D01*
X105741180Y-132611998D01*
X105621482Y-132575688D01*
X105497000Y-132563428D01*
X105338250Y-132566500D01*
X105179500Y-132725250D01*
X104925500Y-132725250D01*
X104766750Y-132566500D01*
X104608000Y-132563428D01*
X104483518Y-132575688D01*
X104363820Y-132611998D01*
X104253506Y-132670963D01*
X104156815Y-132750315D01*
X104077463Y-132847006D01*
X104027997Y-132939548D01*
X104016429Y-132917905D01*
X103952948Y-132840552D01*
X103875595Y-132777071D01*
X103787343Y-132729899D01*
X103691585Y-132700851D01*
X103592000Y-132691043D01*
X102703000Y-132691043D01*
X102603415Y-132700851D01*
X102507657Y-132729899D01*
X102419405Y-132777071D01*
X102362000Y-132824181D01*
X102362000Y-130215630D01*
X105312352Y-127265279D01*
X105341422Y-127241422D01*
X105396342Y-127174502D01*
X105525248Y-127174502D01*
X105366500Y-127333250D01*
G36*
X105562574Y-125062000D02*
G01*
X105562577Y-125062000D01*
X105600000Y-125065686D01*
X105637423Y-125062000D01*
X111125958Y-125062000D01*
X111248822Y-125144095D01*
X111422166Y-125215896D01*
X111606187Y-125252500D01*
X111793813Y-125252500D01*
X111977834Y-125215896D01*
X112101501Y-125164672D01*
X112101501Y-126094497D01*
X112082095Y-126078571D01*
X111993843Y-126031399D01*
X111898085Y-126002351D01*
X111798500Y-125992543D01*
X110401500Y-125992543D01*
X110301915Y-126002351D01*
X110206157Y-126031399D01*
X110155258Y-126058605D01*
X110149685Y-126051815D01*
X110052994Y-125972463D01*
X109942680Y-125913498D01*
X109822982Y-125877188D01*
X109698500Y-125864928D01*
X109285750Y-125868000D01*
X109127000Y-126026750D01*
X109127000Y-126820500D01*
X109147000Y-126820500D01*
X109147000Y-127074500D01*
X109127000Y-127074500D01*
X109127000Y-127094500D01*
X108873000Y-127094500D01*
X108873000Y-127074500D01*
X107825250Y-127074500D01*
X107725250Y-127174500D01*
X106827000Y-127174500D01*
X106827000Y-127194500D01*
X106573000Y-127194500D01*
X106573000Y-127174500D01*
X106553000Y-127174500D01*
X106553000Y-126920500D01*
X106573000Y-126920500D01*
X106573000Y-126126750D01*
X106827000Y-126126750D01*
X106827000Y-126920500D01*
X107874750Y-126920500D01*
X107974750Y-126820500D01*
X108873000Y-126820500D01*
X108873000Y-126026750D01*
X108714250Y-125868000D01*
X108301500Y-125864928D01*
X108177018Y-125877188D01*
X108057320Y-125913498D01*
X107947006Y-125972463D01*
X107850315Y-126051815D01*
X107801022Y-126111879D01*
X107752994Y-126072463D01*
X107642680Y-126013498D01*
X107522982Y-125977188D01*
X107398500Y-125964928D01*
X106985750Y-125968000D01*
X106827000Y-126126750D01*
X106573000Y-126126750D01*
X106414250Y-125968000D01*
X106001500Y-125964928D01*
X105877018Y-125977188D01*
X105757320Y-126013498D01*
X105647006Y-126072463D01*
X105562000Y-126142225D01*
X105562000Y-125061943D01*
X105562574Y-125062000D01*
G37*
X105562574Y-125062000D02*
X105562577Y-125062000D01*
X105600000Y-125065686D01*
X105637423Y-125062000D01*
X111125958Y-125062000D01*
X111248822Y-125144095D01*
X111422166Y-125215896D01*
X111606187Y-125252500D01*
X111793813Y-125252500D01*
X111977834Y-125215896D01*
X112101501Y-125164672D01*
X112101501Y-126094497D01*
X112082095Y-126078571D01*
X111993843Y-126031399D01*
X111898085Y-126002351D01*
X111798500Y-125992543D01*
X110401500Y-125992543D01*
X110301915Y-126002351D01*
X110206157Y-126031399D01*
X110155258Y-126058605D01*
X110149685Y-126051815D01*
X110052994Y-125972463D01*
X109942680Y-125913498D01*
X109822982Y-125877188D01*
X109698500Y-125864928D01*
X109285750Y-125868000D01*
X109127000Y-126026750D01*
X109127000Y-126820500D01*
X109147000Y-126820500D01*
X109147000Y-127074500D01*
X109127000Y-127074500D01*
X109127000Y-127094500D01*
X108873000Y-127094500D01*
X108873000Y-127074500D01*
X107825250Y-127074500D01*
X107725250Y-127174500D01*
X106827000Y-127174500D01*
X106827000Y-127194500D01*
X106573000Y-127194500D01*
X106573000Y-127174500D01*
X106553000Y-127174500D01*
X106553000Y-126920500D01*
X106573000Y-126920500D01*
X106573000Y-126126750D01*
X106827000Y-126126750D01*
X106827000Y-126920500D01*
X107874750Y-126920500D01*
X107974750Y-126820500D01*
X108873000Y-126820500D01*
X108873000Y-126026750D01*
X108714250Y-125868000D01*
X108301500Y-125864928D01*
X108177018Y-125877188D01*
X108057320Y-125913498D01*
X107947006Y-125972463D01*
X107850315Y-126051815D01*
X107801022Y-126111879D01*
X107752994Y-126072463D01*
X107642680Y-126013498D01*
X107522982Y-125977188D01*
X107398500Y-125964928D01*
X106985750Y-125968000D01*
X106827000Y-126126750D01*
X106573000Y-126126750D01*
X106414250Y-125968000D01*
X106001500Y-125964928D01*
X105877018Y-125977188D01*
X105757320Y-126013498D01*
X105647006Y-126072463D01*
X105562000Y-126142225D01*
X105562000Y-125061943D01*
X105562574Y-125062000D01*
M02*
