G04 #@! TF.GenerationSoftware,KiCad,Pcbnew,(5.1.5)-3*
G04 #@! TF.CreationDate,2021-08-10T21:54:11+02:00*
G04 #@! TF.ProjectId,eam,65616d2e-6b69-4636-9164-5f7063625858,0429 -*
G04 #@! TF.SameCoordinates,Original*
G04 #@! TF.FileFunction,Legend,Bot*
G04 #@! TF.FilePolarity,Positive*
%FSLAX46Y46*%
G04 Gerber Fmt 4.6, Leading zero omitted, Abs format (unit mm)*
G04 Created by KiCad (PCBNEW (5.1.5)-3) date 2021-08-10 21:54:11*
%MOMM*%
%LPD*%
G04 APERTURE LIST*
%ADD10C,0.300000*%
%ADD11C,0.254000*%
%ADD12C,0.100000*%
%ADD13C,0.127000*%
%ADD14C,0.304800*%
%ADD15C,0.203200*%
G04 APERTURE END LIST*
D10*
X109164285Y-102878571D02*
X109164285Y-101378571D01*
X108307142Y-102878571D01*
X108307142Y-101378571D01*
X107592857Y-102878571D02*
X107592857Y-101378571D01*
X107021428Y-101378571D01*
X106878571Y-101450000D01*
X106807142Y-101521428D01*
X106735714Y-101664285D01*
X106735714Y-101878571D01*
X106807142Y-102021428D01*
X106878571Y-102092857D01*
X107021428Y-102164285D01*
X107592857Y-102164285D01*
X106092857Y-102878571D02*
X106092857Y-101378571D01*
X105235714Y-102878571D01*
X105235714Y-101378571D01*
X119028571Y-102878571D02*
X119028571Y-101378571D01*
X118457142Y-101378571D01*
X118314285Y-101450000D01*
X118242857Y-101521428D01*
X118171428Y-101664285D01*
X118171428Y-101878571D01*
X118242857Y-102021428D01*
X118314285Y-102092857D01*
X118457142Y-102164285D01*
X119028571Y-102164285D01*
X117528571Y-102878571D02*
X117528571Y-101378571D01*
X116671428Y-102878571D01*
X116671428Y-101378571D01*
X115957142Y-102878571D02*
X115957142Y-101378571D01*
X115385714Y-101378571D01*
X115242857Y-101450000D01*
X115171428Y-101521428D01*
X115100000Y-101664285D01*
X115100000Y-101878571D01*
X115171428Y-102021428D01*
X115242857Y-102092857D01*
X115385714Y-102164285D01*
X115957142Y-102164285D01*
D11*
X110400000Y-103000000D02*
X110400000Y-100900000D01*
D12*
X110400000Y-100900000D02*
X111000000Y-101500000D01*
D11*
X110400000Y-100900000D02*
X109800000Y-101500000D01*
X111000000Y-101500000D02*
X110400000Y-100900000D01*
X119800000Y-102600000D02*
X120400000Y-103200000D01*
X120400000Y-103200000D02*
X121000000Y-102600000D01*
D12*
X120400000Y-103200000D02*
X119800000Y-102600000D01*
D11*
X120400000Y-101100000D02*
X120400000Y-103200000D01*
D13*
X121827000Y-135400000D02*
X122208000Y-135400000D01*
X121827000Y-135781000D02*
X121827000Y-135019000D01*
X121192000Y-135400000D02*
X121573000Y-135400000D01*
X121573000Y-135400000D02*
X121573000Y-135781000D01*
X121573000Y-135781000D02*
X121573000Y-135019000D01*
X111027000Y-141519000D02*
X111027000Y-142281000D01*
X111027000Y-141900000D02*
X111027000Y-141519000D01*
X111408000Y-141900000D02*
X111027000Y-141900000D01*
X110773000Y-141519000D02*
X110773000Y-142281000D01*
X110773000Y-141900000D02*
X110392000Y-141900000D01*
X120581000Y-143224000D02*
X120581000Y-140176000D01*
X120581000Y-140176000D02*
X119819000Y-140176000D01*
X119819000Y-140176000D02*
X119819000Y-143224000D01*
X119819000Y-143224000D02*
X120581000Y-143224000D01*
X121446000Y-138300000D02*
X121192000Y-138300000D01*
X122208000Y-138300000D02*
X121954000Y-138300000D01*
X121954000Y-138046000D02*
X121954000Y-138427000D01*
X121954000Y-138427000D02*
X121954000Y-138554000D01*
X121954000Y-138554000D02*
X121446000Y-138554000D01*
X121446000Y-138554000D02*
X121446000Y-138046000D01*
X121446000Y-138046000D02*
X121954000Y-138046000D01*
X106900000Y-146446000D02*
X106900000Y-146192000D01*
X106900000Y-147208000D02*
X106900000Y-146954000D01*
X107154000Y-146954000D02*
X106773000Y-146954000D01*
X106773000Y-146954000D02*
X106646000Y-146954000D01*
X106646000Y-146954000D02*
X106646000Y-146446000D01*
X106646000Y-146446000D02*
X107154000Y-146446000D01*
X107154000Y-146446000D02*
X107154000Y-146954000D01*
D14*
X117303800Y-138703800D02*
X117303800Y-128696200D01*
X117303800Y-128696200D02*
X107296200Y-128696200D01*
X107296200Y-138221200D02*
X107296200Y-128696200D01*
X107778800Y-138703800D02*
X117303800Y-138703800D01*
X107296200Y-138221200D02*
X107778800Y-138703800D01*
D15*
X109125000Y-137510000D02*
G75*
G03X109125000Y-137510000I-635000J0D01*
G01*
X111399000Y-111333000D02*
X112161000Y-111333000D01*
X111399000Y-110317000D02*
X111399000Y-111333000D01*
X112161000Y-110317000D02*
X111399000Y-110317000D01*
X112161000Y-114762000D02*
X112161000Y-106761000D01*
X99969000Y-106761000D02*
X99969000Y-114762000D01*
X112161000Y-106761000D02*
X99969000Y-106761000D01*
X99969000Y-114762000D02*
X112161000Y-114762000D01*
X99969000Y-117937000D02*
X112161000Y-117937000D01*
X112161000Y-109936000D02*
X99969000Y-109936000D01*
X99969000Y-109936000D02*
X99969000Y-117937000D01*
X112161000Y-117937000D02*
X112161000Y-109936000D01*
X112161000Y-113492000D02*
X111399000Y-113492000D01*
X111399000Y-113492000D02*
X111399000Y-114508000D01*
X111399000Y-114508000D02*
X112161000Y-114508000D01*
X123799000Y-114508000D02*
X124561000Y-114508000D01*
X123799000Y-113492000D02*
X123799000Y-114508000D01*
X124561000Y-113492000D02*
X123799000Y-113492000D01*
X124561000Y-117937000D02*
X124561000Y-109936000D01*
X112369000Y-109936000D02*
X112369000Y-117937000D01*
X124561000Y-109936000D02*
X112369000Y-109936000D01*
X112369000Y-117937000D02*
X124561000Y-117937000D01*
X112369000Y-114762000D02*
X124561000Y-114762000D01*
X124561000Y-106761000D02*
X112369000Y-106761000D01*
X112369000Y-106761000D02*
X112369000Y-114762000D01*
X124561000Y-114762000D02*
X124561000Y-106761000D01*
X124561000Y-110317000D02*
X123799000Y-110317000D01*
X123799000Y-110317000D02*
X123799000Y-111333000D01*
X123799000Y-111333000D02*
X124561000Y-111333000D01*
D13*
X122410595Y-137126785D02*
X122440833Y-137157023D01*
X122531547Y-137187261D01*
X122592023Y-137187261D01*
X122682738Y-137157023D01*
X122743214Y-137096547D01*
X122773452Y-137036071D01*
X122803690Y-136915119D01*
X122803690Y-136824404D01*
X122773452Y-136703452D01*
X122743214Y-136642976D01*
X122682738Y-136582500D01*
X122592023Y-136552261D01*
X122531547Y-136552261D01*
X122440833Y-136582500D01*
X122410595Y-136612738D01*
X121866309Y-136763928D02*
X121866309Y-137187261D01*
X122017500Y-136522023D02*
X122168690Y-136975595D01*
X121775595Y-136975595D01*
X121412738Y-136552261D02*
X121352261Y-136552261D01*
X121291785Y-136582500D01*
X121261547Y-136612738D01*
X121231309Y-136673214D01*
X121201071Y-136794166D01*
X121201071Y-136945357D01*
X121231309Y-137066309D01*
X121261547Y-137126785D01*
X121291785Y-137157023D01*
X121352261Y-137187261D01*
X121412738Y-137187261D01*
X121473214Y-137157023D01*
X121503452Y-137126785D01*
X121533690Y-137066309D01*
X121563928Y-136945357D01*
X121563928Y-136794166D01*
X121533690Y-136673214D01*
X121503452Y-136612738D01*
X121473214Y-136582500D01*
X121412738Y-136552261D01*
X120959166Y-136612738D02*
X120928928Y-136582500D01*
X120868452Y-136552261D01*
X120717261Y-136552261D01*
X120656785Y-136582500D01*
X120626547Y-136612738D01*
X120596309Y-136673214D01*
X120596309Y-136733690D01*
X120626547Y-136824404D01*
X120989404Y-137187261D01*
X120596309Y-137187261D01*
X114510595Y-142526785D02*
X114540833Y-142557023D01*
X114631547Y-142587261D01*
X114692023Y-142587261D01*
X114782738Y-142557023D01*
X114843214Y-142496547D01*
X114873452Y-142436071D01*
X114903690Y-142315119D01*
X114903690Y-142224404D01*
X114873452Y-142103452D01*
X114843214Y-142042976D01*
X114782738Y-141982500D01*
X114692023Y-141952261D01*
X114631547Y-141952261D01*
X114540833Y-141982500D01*
X114510595Y-142012738D01*
X113966309Y-142163928D02*
X113966309Y-142587261D01*
X114117500Y-141922023D02*
X114268690Y-142375595D01*
X113875595Y-142375595D01*
X113512738Y-141952261D02*
X113452261Y-141952261D01*
X113391785Y-141982500D01*
X113361547Y-142012738D01*
X113331309Y-142073214D01*
X113301071Y-142194166D01*
X113301071Y-142345357D01*
X113331309Y-142466309D01*
X113361547Y-142526785D01*
X113391785Y-142557023D01*
X113452261Y-142587261D01*
X113512738Y-142587261D01*
X113573214Y-142557023D01*
X113603452Y-142526785D01*
X113633690Y-142466309D01*
X113663928Y-142345357D01*
X113663928Y-142194166D01*
X113633690Y-142073214D01*
X113603452Y-142012738D01*
X113573214Y-141982500D01*
X113512738Y-141952261D01*
X112756785Y-142163928D02*
X112756785Y-142587261D01*
X112907976Y-141922023D02*
X113059166Y-142375595D01*
X112666071Y-142375595D01*
X119165238Y-143847738D02*
X119225714Y-143817500D01*
X119286190Y-143757023D01*
X119376904Y-143666309D01*
X119437380Y-143636071D01*
X119497857Y-143636071D01*
X119467619Y-143787261D02*
X119528095Y-143757023D01*
X119588571Y-143696547D01*
X119618809Y-143575595D01*
X119618809Y-143363928D01*
X119588571Y-143242976D01*
X119528095Y-143182500D01*
X119467619Y-143152261D01*
X119346666Y-143152261D01*
X119286190Y-143182500D01*
X119225714Y-143242976D01*
X119195476Y-143363928D01*
X119195476Y-143575595D01*
X119225714Y-143696547D01*
X119286190Y-143757023D01*
X119346666Y-143787261D01*
X119467619Y-143787261D01*
X118983809Y-143152261D02*
X118590714Y-143152261D01*
X118802380Y-143394166D01*
X118711666Y-143394166D01*
X118651190Y-143424404D01*
X118620952Y-143454642D01*
X118590714Y-143515119D01*
X118590714Y-143666309D01*
X118620952Y-143726785D01*
X118651190Y-143757023D01*
X118711666Y-143787261D01*
X118893095Y-143787261D01*
X118953571Y-143757023D01*
X118983809Y-143726785D01*
X118197619Y-143152261D02*
X118137142Y-143152261D01*
X118076666Y-143182500D01*
X118046428Y-143212738D01*
X118016190Y-143273214D01*
X117985952Y-143394166D01*
X117985952Y-143545357D01*
X118016190Y-143666309D01*
X118046428Y-143726785D01*
X118076666Y-143757023D01*
X118137142Y-143787261D01*
X118197619Y-143787261D01*
X118258095Y-143757023D01*
X118288333Y-143726785D01*
X118318571Y-143666309D01*
X118348809Y-143545357D01*
X118348809Y-143394166D01*
X118318571Y-143273214D01*
X118288333Y-143212738D01*
X118258095Y-143182500D01*
X118197619Y-143152261D01*
X117381190Y-143787261D02*
X117744047Y-143787261D01*
X117562619Y-143787261D02*
X117562619Y-143152261D01*
X117623095Y-143242976D01*
X117683571Y-143303452D01*
X117744047Y-143333690D01*
X122410595Y-140087261D02*
X122622261Y-139784880D01*
X122773452Y-140087261D02*
X122773452Y-139452261D01*
X122531547Y-139452261D01*
X122471071Y-139482500D01*
X122440833Y-139512738D01*
X122410595Y-139573214D01*
X122410595Y-139663928D01*
X122440833Y-139724404D01*
X122471071Y-139754642D01*
X122531547Y-139784880D01*
X122773452Y-139784880D01*
X122198928Y-139452261D02*
X121805833Y-139452261D01*
X122017500Y-139694166D01*
X121926785Y-139694166D01*
X121866309Y-139724404D01*
X121836071Y-139754642D01*
X121805833Y-139815119D01*
X121805833Y-139966309D01*
X121836071Y-140026785D01*
X121866309Y-140057023D01*
X121926785Y-140087261D01*
X122108214Y-140087261D01*
X122168690Y-140057023D01*
X122198928Y-140026785D01*
X121412738Y-139452261D02*
X121352261Y-139452261D01*
X121291785Y-139482500D01*
X121261547Y-139512738D01*
X121231309Y-139573214D01*
X121201071Y-139694166D01*
X121201071Y-139845357D01*
X121231309Y-139966309D01*
X121261547Y-140026785D01*
X121291785Y-140057023D01*
X121352261Y-140087261D01*
X121412738Y-140087261D01*
X121473214Y-140057023D01*
X121503452Y-140026785D01*
X121533690Y-139966309D01*
X121563928Y-139845357D01*
X121563928Y-139694166D01*
X121533690Y-139573214D01*
X121503452Y-139512738D01*
X121473214Y-139482500D01*
X121412738Y-139452261D01*
X120959166Y-139512738D02*
X120928928Y-139482500D01*
X120868452Y-139452261D01*
X120717261Y-139452261D01*
X120656785Y-139482500D01*
X120626547Y-139512738D01*
X120596309Y-139573214D01*
X120596309Y-139633690D01*
X120626547Y-139724404D01*
X120989404Y-140087261D01*
X120596309Y-140087261D01*
X105287261Y-146089404D02*
X104984880Y-145877738D01*
X105287261Y-145726547D02*
X104652261Y-145726547D01*
X104652261Y-145968452D01*
X104682500Y-146028928D01*
X104712738Y-146059166D01*
X104773214Y-146089404D01*
X104863928Y-146089404D01*
X104924404Y-146059166D01*
X104954642Y-146028928D01*
X104984880Y-145968452D01*
X104984880Y-145726547D01*
X104863928Y-146633690D02*
X105287261Y-146633690D01*
X104622023Y-146482500D02*
X105075595Y-146331309D01*
X105075595Y-146724404D01*
X104652261Y-147087261D02*
X104652261Y-147147738D01*
X104682500Y-147208214D01*
X104712738Y-147238452D01*
X104773214Y-147268690D01*
X104894166Y-147298928D01*
X105045357Y-147298928D01*
X105166309Y-147268690D01*
X105226785Y-147238452D01*
X105257023Y-147208214D01*
X105287261Y-147147738D01*
X105287261Y-147087261D01*
X105257023Y-147026785D01*
X105226785Y-146996547D01*
X105166309Y-146966309D01*
X105045357Y-146936071D01*
X104894166Y-146936071D01*
X104773214Y-146966309D01*
X104712738Y-146996547D01*
X104682500Y-147026785D01*
X104652261Y-147087261D01*
X105287261Y-147903690D02*
X105287261Y-147540833D01*
X105287261Y-147722261D02*
X104652261Y-147722261D01*
X104742976Y-147661785D01*
X104803452Y-147601309D01*
X104833690Y-147540833D01*
D15*
X113841714Y-133365428D02*
X113841714Y-134599142D01*
X113793333Y-134744285D01*
X113744952Y-134816857D01*
X113648190Y-134889428D01*
X113454666Y-134889428D01*
X113357904Y-134816857D01*
X113309523Y-134744285D01*
X113261142Y-134599142D01*
X113261142Y-133365428D01*
X112245142Y-134889428D02*
X112825714Y-134889428D01*
X112535428Y-134889428D02*
X112535428Y-133365428D01*
X112632190Y-133583142D01*
X112728952Y-133728285D01*
X112825714Y-133800857D01*
X111616190Y-133365428D02*
X111519428Y-133365428D01*
X111422666Y-133438000D01*
X111374285Y-133510571D01*
X111325904Y-133655714D01*
X111277523Y-133946000D01*
X111277523Y-134308857D01*
X111325904Y-134599142D01*
X111374285Y-134744285D01*
X111422666Y-134816857D01*
X111519428Y-134889428D01*
X111616190Y-134889428D01*
X111712952Y-134816857D01*
X111761333Y-134744285D01*
X111809714Y-134599142D01*
X111858095Y-134308857D01*
X111858095Y-133946000D01*
X111809714Y-133655714D01*
X111761333Y-133510571D01*
X111712952Y-133438000D01*
X111616190Y-133365428D01*
X110309904Y-134889428D02*
X110890476Y-134889428D01*
X110600190Y-134889428D02*
X110600190Y-133365428D01*
X110696952Y-133583142D01*
X110793714Y-133728285D01*
X110890476Y-133800857D01*
D13*
X108877142Y-110504523D02*
X108877142Y-111532619D01*
X108816666Y-111653571D01*
X108756190Y-111714047D01*
X108635238Y-111774523D01*
X108393333Y-111774523D01*
X108272380Y-111714047D01*
X108211904Y-111653571D01*
X108151428Y-111532619D01*
X108151428Y-110504523D01*
X107607142Y-110625476D02*
X107546666Y-110565000D01*
X107425714Y-110504523D01*
X107123333Y-110504523D01*
X107002380Y-110565000D01*
X106941904Y-110625476D01*
X106881428Y-110746428D01*
X106881428Y-110867380D01*
X106941904Y-111048809D01*
X107667619Y-111774523D01*
X106881428Y-111774523D01*
X106095238Y-110504523D02*
X105974285Y-110504523D01*
X105853333Y-110565000D01*
X105792857Y-110625476D01*
X105732380Y-110746428D01*
X105671904Y-110988333D01*
X105671904Y-111290714D01*
X105732380Y-111532619D01*
X105792857Y-111653571D01*
X105853333Y-111714047D01*
X105974285Y-111774523D01*
X106095238Y-111774523D01*
X106216190Y-111714047D01*
X106276666Y-111653571D01*
X106337142Y-111532619D01*
X106397619Y-111290714D01*
X106397619Y-110988333D01*
X106337142Y-110746428D01*
X106276666Y-110625476D01*
X106216190Y-110565000D01*
X106095238Y-110504523D01*
X104462380Y-111774523D02*
X105188095Y-111774523D01*
X104825238Y-111774523D02*
X104825238Y-110504523D01*
X104946190Y-110685952D01*
X105067142Y-110806904D01*
X105188095Y-110867380D01*
X121277142Y-110704523D02*
X121277142Y-111732619D01*
X121216666Y-111853571D01*
X121156190Y-111914047D01*
X121035238Y-111974523D01*
X120793333Y-111974523D01*
X120672380Y-111914047D01*
X120611904Y-111853571D01*
X120551428Y-111732619D01*
X120551428Y-110704523D01*
X120007142Y-110825476D02*
X119946666Y-110765000D01*
X119825714Y-110704523D01*
X119523333Y-110704523D01*
X119402380Y-110765000D01*
X119341904Y-110825476D01*
X119281428Y-110946428D01*
X119281428Y-111067380D01*
X119341904Y-111248809D01*
X120067619Y-111974523D01*
X119281428Y-111974523D01*
X118495238Y-110704523D02*
X118374285Y-110704523D01*
X118253333Y-110765000D01*
X118192857Y-110825476D01*
X118132380Y-110946428D01*
X118071904Y-111188333D01*
X118071904Y-111490714D01*
X118132380Y-111732619D01*
X118192857Y-111853571D01*
X118253333Y-111914047D01*
X118374285Y-111974523D01*
X118495238Y-111974523D01*
X118616190Y-111914047D01*
X118676666Y-111853571D01*
X118737142Y-111732619D01*
X118797619Y-111490714D01*
X118797619Y-111188333D01*
X118737142Y-110946428D01*
X118676666Y-110825476D01*
X118616190Y-110765000D01*
X118495238Y-110704523D01*
X117588095Y-110825476D02*
X117527619Y-110765000D01*
X117406666Y-110704523D01*
X117104285Y-110704523D01*
X116983333Y-110765000D01*
X116922857Y-110825476D01*
X116862380Y-110946428D01*
X116862380Y-111067380D01*
X116922857Y-111248809D01*
X117648571Y-111974523D01*
X116862380Y-111974523D01*
M02*
