G04 #@! TF.GenerationSoftware,KiCad,Pcbnew,(5.1.5)-3*
G04 #@! TF.CreationDate,2021-08-10T21:54:11+02:00*
G04 #@! TF.ProjectId,eam,65616d2e-6b69-4636-9164-5f7063625858,0429 -*
G04 #@! TF.SameCoordinates,Original*
G04 #@! TF.FileFunction,Legend,Top*
G04 #@! TF.FilePolarity,Positive*
%FSLAX46Y46*%
G04 Gerber Fmt 4.6, Leading zero omitted, Abs format (unit mm)*
G04 Created by KiCad (PCBNEW (5.1.5)-3) date 2021-08-10 21:54:11*
%MOMM*%
%LPD*%
G04 APERTURE LIST*
%ADD10C,0.300000*%
%ADD11C,0.127000*%
%ADD12C,0.203200*%
%ADD13C,0.150000*%
%ADD14C,0.152400*%
G04 APERTURE END LIST*
D10*
X122592857Y-145207142D02*
X122592857Y-144707142D01*
X123378571Y-144492857D02*
X123378571Y-145207142D01*
X121878571Y-145207142D01*
X121878571Y-144492857D01*
X122950000Y-143921428D02*
X122950000Y-143207142D01*
X123378571Y-144064285D02*
X121878571Y-143564285D01*
X123378571Y-143064285D01*
X123378571Y-142564285D02*
X121878571Y-142564285D01*
X122950000Y-142064285D01*
X121878571Y-141564285D01*
X123378571Y-141564285D01*
X122021428Y-139778571D02*
X121950000Y-139707142D01*
X121878571Y-139564285D01*
X121878571Y-139207142D01*
X121950000Y-139064285D01*
X122021428Y-138992857D01*
X122164285Y-138921428D01*
X122307142Y-138921428D01*
X122521428Y-138992857D01*
X123378571Y-139850000D01*
X123378571Y-138921428D01*
X121878571Y-137992857D02*
X121878571Y-137850000D01*
X121950000Y-137707142D01*
X122021428Y-137635714D01*
X122164285Y-137564285D01*
X122450000Y-137492857D01*
X122807142Y-137492857D01*
X123092857Y-137564285D01*
X123235714Y-137635714D01*
X123307142Y-137707142D01*
X123378571Y-137850000D01*
X123378571Y-137992857D01*
X123307142Y-138135714D01*
X123235714Y-138207142D01*
X123092857Y-138278571D01*
X122807142Y-138350000D01*
X122450000Y-138350000D01*
X122164285Y-138278571D01*
X122021428Y-138207142D01*
X121950000Y-138135714D01*
X121878571Y-137992857D01*
X123378571Y-136064285D02*
X123378571Y-136921428D01*
X123378571Y-136492857D02*
X121878571Y-136492857D01*
X122092857Y-136635714D01*
X122235714Y-136778571D01*
X122307142Y-136921428D01*
X122378571Y-134778571D02*
X123378571Y-134778571D01*
X121807142Y-135135714D02*
X122878571Y-135492857D01*
X122878571Y-134564285D01*
X121878571Y-133707142D02*
X121878571Y-133564285D01*
X121950000Y-133421428D01*
X122021428Y-133350000D01*
X122164285Y-133278571D01*
X122450000Y-133207142D01*
X122807142Y-133207142D01*
X123092857Y-133278571D01*
X123235714Y-133350000D01*
X123307142Y-133421428D01*
X123378571Y-133564285D01*
X123378571Y-133707142D01*
X123307142Y-133850000D01*
X123235714Y-133921428D01*
X123092857Y-133992857D01*
X122807142Y-134064285D01*
X122450000Y-134064285D01*
X122164285Y-133992857D01*
X122021428Y-133921428D01*
X121950000Y-133850000D01*
X121878571Y-133707142D01*
X121878571Y-131921428D02*
X121878571Y-132207142D01*
X121950000Y-132350000D01*
X122021428Y-132421428D01*
X122235714Y-132564285D01*
X122521428Y-132635714D01*
X123092857Y-132635714D01*
X123235714Y-132564285D01*
X123307142Y-132492857D01*
X123378571Y-132350000D01*
X123378571Y-132064285D01*
X123307142Y-131921428D01*
X123235714Y-131850000D01*
X123092857Y-131778571D01*
X122735714Y-131778571D01*
X122592857Y-131850000D01*
X122521428Y-131921428D01*
X122450000Y-132064285D01*
X122450000Y-132350000D01*
X122521428Y-132492857D01*
X122592857Y-132564285D01*
X122735714Y-132635714D01*
X122021428Y-131207142D02*
X121950000Y-131135714D01*
X121878571Y-130992857D01*
X121878571Y-130635714D01*
X121950000Y-130492857D01*
X122021428Y-130421428D01*
X122164285Y-130350000D01*
X122307142Y-130350000D01*
X122521428Y-130421428D01*
X123378571Y-131278571D01*
X123378571Y-130350000D01*
X123378571Y-129635714D02*
X123378571Y-129350000D01*
X123307142Y-129207142D01*
X123235714Y-129135714D01*
X123021428Y-128992857D01*
X122735714Y-128921428D01*
X122164285Y-128921428D01*
X122021428Y-128992857D01*
X121950000Y-129064285D01*
X121878571Y-129207142D01*
X121878571Y-129492857D01*
X121950000Y-129635714D01*
X122021428Y-129707142D01*
X122164285Y-129778571D01*
X122521428Y-129778571D01*
X122664285Y-129707142D01*
X122735714Y-129635714D01*
X122807142Y-129492857D01*
X122807142Y-129207142D01*
X122735714Y-129064285D01*
X122664285Y-128992857D01*
X122521428Y-128921428D01*
D11*
X104227000Y-133900000D02*
X104608000Y-133900000D01*
X104227000Y-133519000D02*
X104227000Y-134281000D01*
X103592000Y-133900000D02*
X103973000Y-133900000D01*
X103973000Y-133900000D02*
X103973000Y-133519000D01*
X103973000Y-133519000D02*
X103973000Y-134281000D01*
X114119000Y-128027000D02*
X114881000Y-128027000D01*
X114500000Y-128027000D02*
X114119000Y-128027000D01*
X114500000Y-128408000D02*
X114500000Y-128027000D01*
X114119000Y-127773000D02*
X114881000Y-127773000D01*
X114500000Y-127773000D02*
X114500000Y-127392000D01*
X106700000Y-127873000D02*
X106700000Y-127492000D01*
X106319000Y-127873000D02*
X107081000Y-127873000D01*
X106700000Y-128508000D02*
X106700000Y-128127000D01*
X106700000Y-128127000D02*
X106319000Y-128127000D01*
X106319000Y-128127000D02*
X107081000Y-128127000D01*
X108700000Y-136667000D02*
X108700000Y-137175000D01*
X108954000Y-136921000D02*
X108446000Y-136921000D01*
X108700000Y-134127000D02*
X108700000Y-134508000D01*
X109081000Y-134127000D02*
X108319000Y-134127000D01*
X108700000Y-133492000D02*
X108700000Y-133873000D01*
X108700000Y-133873000D02*
X109081000Y-133873000D01*
X109081000Y-133873000D02*
X108319000Y-133873000D01*
D12*
X107948000Y-142000000D02*
G75*
G03X107948000Y-142000000I-3048000J0D01*
G01*
X108490000Y-143660000D02*
X116110000Y-143660000D01*
X116110000Y-148740000D02*
X108490000Y-148740000D01*
X108490000Y-148740000D02*
X108490000Y-143660000D01*
X116110000Y-143660000D02*
X116110000Y-148740000D01*
D11*
X107800460Y-115300840D02*
X107800460Y-115699620D01*
X108199240Y-115300840D02*
X108199240Y-115699620D01*
X108199240Y-116700380D02*
X108199240Y-117099160D01*
X107800460Y-116700380D02*
X107800460Y-117099160D01*
X108600560Y-116700380D02*
X108600560Y-117099160D01*
X108600560Y-115300840D02*
X108600560Y-115699620D01*
X108999340Y-115699620D02*
X108999340Y-115300840D01*
X108999340Y-117099160D02*
X108999340Y-116700380D01*
X109400660Y-116700380D02*
X109400660Y-117099160D01*
X109400660Y-115300840D02*
X109400660Y-115699620D01*
X109799440Y-115699620D02*
X109799440Y-115300840D01*
X109799440Y-117099160D02*
X109799440Y-116700380D01*
X110200760Y-116700380D02*
X110200760Y-117099160D01*
X110200760Y-115300840D02*
X110200760Y-115699620D01*
X110599540Y-116700380D02*
X110599540Y-117099160D01*
X110599540Y-115300840D02*
X110599540Y-115699620D01*
X108399900Y-115699620D02*
X108399900Y-116700380D01*
X109200000Y-115699620D02*
X109200000Y-116700380D01*
X110000100Y-115699620D02*
X110000100Y-116700380D01*
X107500740Y-115300840D02*
X107500740Y-117099160D01*
X110899260Y-115300840D02*
X110899260Y-117099160D01*
X107500740Y-117099160D02*
X110899260Y-117099160D01*
X110899260Y-115300840D02*
X107500740Y-115300840D01*
X107500740Y-115699620D02*
X110899260Y-115699620D01*
X110899260Y-116700380D02*
X107500740Y-116700380D01*
X102700460Y-115300840D02*
X102700460Y-115699620D01*
X103099240Y-115300840D02*
X103099240Y-115699620D01*
X103099240Y-116700380D02*
X103099240Y-117099160D01*
X102700460Y-116700380D02*
X102700460Y-117099160D01*
X103500560Y-116700380D02*
X103500560Y-117099160D01*
X103500560Y-115300840D02*
X103500560Y-115699620D01*
X103899340Y-115699620D02*
X103899340Y-115300840D01*
X103899340Y-117099160D02*
X103899340Y-116700380D01*
X104300660Y-116700380D02*
X104300660Y-117099160D01*
X104300660Y-115300840D02*
X104300660Y-115699620D01*
X104699440Y-115699620D02*
X104699440Y-115300840D01*
X104699440Y-117099160D02*
X104699440Y-116700380D01*
X105100760Y-116700380D02*
X105100760Y-117099160D01*
X105100760Y-115300840D02*
X105100760Y-115699620D01*
X105499540Y-116700380D02*
X105499540Y-117099160D01*
X105499540Y-115300840D02*
X105499540Y-115699620D01*
X103299900Y-115699620D02*
X103299900Y-116700380D01*
X104100000Y-115699620D02*
X104100000Y-116700380D01*
X104900100Y-115699620D02*
X104900100Y-116700380D01*
X102400740Y-115300840D02*
X102400740Y-117099160D01*
X105799260Y-115300840D02*
X105799260Y-117099160D01*
X102400740Y-117099160D02*
X105799260Y-117099160D01*
X105799260Y-115300840D02*
X102400740Y-115300840D01*
X102400740Y-115699620D02*
X105799260Y-115699620D01*
X105799260Y-116700380D02*
X102400740Y-116700380D01*
X123699260Y-116700380D02*
X120300740Y-116700380D01*
X120300740Y-115699620D02*
X123699260Y-115699620D01*
X123699260Y-115300840D02*
X120300740Y-115300840D01*
X120300740Y-117099160D02*
X123699260Y-117099160D01*
X123699260Y-115300840D02*
X123699260Y-117099160D01*
X120300740Y-115300840D02*
X120300740Y-117099160D01*
X122800100Y-115699620D02*
X122800100Y-116700380D01*
X122000000Y-115699620D02*
X122000000Y-116700380D01*
X121199900Y-115699620D02*
X121199900Y-116700380D01*
X123399540Y-115300840D02*
X123399540Y-115699620D01*
X123399540Y-116700380D02*
X123399540Y-117099160D01*
X123000760Y-115300840D02*
X123000760Y-115699620D01*
X123000760Y-116700380D02*
X123000760Y-117099160D01*
X122599440Y-117099160D02*
X122599440Y-116700380D01*
X122599440Y-115699620D02*
X122599440Y-115300840D01*
X122200660Y-115300840D02*
X122200660Y-115699620D01*
X122200660Y-116700380D02*
X122200660Y-117099160D01*
X121799340Y-117099160D02*
X121799340Y-116700380D01*
X121799340Y-115699620D02*
X121799340Y-115300840D01*
X121400560Y-115300840D02*
X121400560Y-115699620D01*
X121400560Y-116700380D02*
X121400560Y-117099160D01*
X120600460Y-116700380D02*
X120600460Y-117099160D01*
X120999240Y-116700380D02*
X120999240Y-117099160D01*
X120999240Y-115300840D02*
X120999240Y-115699620D01*
X120600460Y-115300840D02*
X120600460Y-115699620D01*
X118899260Y-116700380D02*
X115500740Y-116700380D01*
X115500740Y-115699620D02*
X118899260Y-115699620D01*
X118899260Y-115300840D02*
X115500740Y-115300840D01*
X115500740Y-117099160D02*
X118899260Y-117099160D01*
X118899260Y-115300840D02*
X118899260Y-117099160D01*
X115500740Y-115300840D02*
X115500740Y-117099160D01*
X118000100Y-115699620D02*
X118000100Y-116700380D01*
X117200000Y-115699620D02*
X117200000Y-116700380D01*
X116399900Y-115699620D02*
X116399900Y-116700380D01*
X118599540Y-115300840D02*
X118599540Y-115699620D01*
X118599540Y-116700380D02*
X118599540Y-117099160D01*
X118200760Y-115300840D02*
X118200760Y-115699620D01*
X118200760Y-116700380D02*
X118200760Y-117099160D01*
X117799440Y-117099160D02*
X117799440Y-116700380D01*
X117799440Y-115699620D02*
X117799440Y-115300840D01*
X117400660Y-115300840D02*
X117400660Y-115699620D01*
X117400660Y-116700380D02*
X117400660Y-117099160D01*
X116999340Y-117099160D02*
X116999340Y-116700380D01*
X116999340Y-115699620D02*
X116999340Y-115300840D01*
X116600560Y-115300840D02*
X116600560Y-115699620D01*
X116600560Y-116700380D02*
X116600560Y-117099160D01*
X115800460Y-116700380D02*
X115800460Y-117099160D01*
X116199240Y-116700380D02*
X116199240Y-117099160D01*
X116199240Y-115300840D02*
X116199240Y-115699620D01*
X115800460Y-115300840D02*
X115800460Y-115699620D01*
X111100000Y-128154000D02*
X111100000Y-128408000D01*
X111100000Y-127392000D02*
X111100000Y-127646000D01*
X111354000Y-127646000D02*
X110973000Y-127646000D01*
X110973000Y-127646000D02*
X110846000Y-127646000D01*
X110846000Y-127646000D02*
X110846000Y-128154000D01*
X110846000Y-128154000D02*
X111354000Y-128154000D01*
X111354000Y-128154000D02*
X111354000Y-127646000D01*
X110354000Y-137146000D02*
X109846000Y-137146000D01*
X110354000Y-137654000D02*
X110354000Y-137146000D01*
X109846000Y-137654000D02*
X110354000Y-137654000D01*
X109846000Y-137527000D02*
X109846000Y-137654000D01*
X109846000Y-137146000D02*
X109846000Y-137527000D01*
X109592000Y-137400000D02*
X109846000Y-137400000D01*
X110354000Y-137400000D02*
X110608000Y-137400000D01*
X108746000Y-127646000D02*
X108746000Y-128154000D01*
X109254000Y-127646000D02*
X108746000Y-127646000D01*
X109254000Y-128154000D02*
X109254000Y-127646000D01*
X109127000Y-128154000D02*
X109254000Y-128154000D01*
X108746000Y-128154000D02*
X109127000Y-128154000D01*
X109000000Y-128408000D02*
X109000000Y-128154000D01*
X109000000Y-127646000D02*
X109000000Y-127392000D01*
X104781000Y-135376000D02*
X104781000Y-138424000D01*
X104781000Y-138424000D02*
X104019000Y-138424000D01*
X104019000Y-138424000D02*
X104019000Y-135376000D01*
X104019000Y-135376000D02*
X104781000Y-135376000D01*
D13*
X98700000Y-105500000D02*
X125900000Y-105500000D01*
X125900000Y-105500000D02*
X125900000Y-110500000D01*
X125900000Y-110500000D02*
X98700000Y-110500000D01*
X98700000Y-110500000D02*
X98700000Y-105500000D01*
D11*
X101726785Y-134610595D02*
X101757023Y-134640833D01*
X101787261Y-134731547D01*
X101787261Y-134792023D01*
X101757023Y-134882738D01*
X101696547Y-134943214D01*
X101636071Y-134973452D01*
X101515119Y-135003690D01*
X101424404Y-135003690D01*
X101303452Y-134973452D01*
X101242976Y-134943214D01*
X101182500Y-134882738D01*
X101152261Y-134792023D01*
X101152261Y-134731547D01*
X101182500Y-134640833D01*
X101212738Y-134610595D01*
X101363928Y-134066309D02*
X101787261Y-134066309D01*
X101122023Y-134217500D02*
X101575595Y-134368690D01*
X101575595Y-133975595D01*
X101152261Y-133612738D02*
X101152261Y-133552261D01*
X101182500Y-133491785D01*
X101212738Y-133461547D01*
X101273214Y-133431309D01*
X101394166Y-133401071D01*
X101545357Y-133401071D01*
X101666309Y-133431309D01*
X101726785Y-133461547D01*
X101757023Y-133491785D01*
X101787261Y-133552261D01*
X101787261Y-133612738D01*
X101757023Y-133673214D01*
X101726785Y-133703452D01*
X101666309Y-133733690D01*
X101545357Y-133763928D01*
X101394166Y-133763928D01*
X101273214Y-133733690D01*
X101212738Y-133703452D01*
X101182500Y-133673214D01*
X101152261Y-133612738D01*
X101787261Y-132796309D02*
X101787261Y-133159166D01*
X101787261Y-132977738D02*
X101152261Y-132977738D01*
X101242976Y-133038214D01*
X101303452Y-133098690D01*
X101333690Y-133159166D01*
X114726785Y-125410595D02*
X114757023Y-125440833D01*
X114787261Y-125531547D01*
X114787261Y-125592023D01*
X114757023Y-125682738D01*
X114696547Y-125743214D01*
X114636071Y-125773452D01*
X114515119Y-125803690D01*
X114424404Y-125803690D01*
X114303452Y-125773452D01*
X114242976Y-125743214D01*
X114182500Y-125682738D01*
X114152261Y-125592023D01*
X114152261Y-125531547D01*
X114182500Y-125440833D01*
X114212738Y-125410595D01*
X114363928Y-124866309D02*
X114787261Y-124866309D01*
X114122023Y-125017500D02*
X114575595Y-125168690D01*
X114575595Y-124775595D01*
X114152261Y-124412738D02*
X114152261Y-124352261D01*
X114182500Y-124291785D01*
X114212738Y-124261547D01*
X114273214Y-124231309D01*
X114394166Y-124201071D01*
X114545357Y-124201071D01*
X114666309Y-124231309D01*
X114726785Y-124261547D01*
X114757023Y-124291785D01*
X114787261Y-124352261D01*
X114787261Y-124412738D01*
X114757023Y-124473214D01*
X114726785Y-124503452D01*
X114666309Y-124533690D01*
X114545357Y-124563928D01*
X114394166Y-124563928D01*
X114273214Y-124533690D01*
X114212738Y-124503452D01*
X114182500Y-124473214D01*
X114152261Y-124412738D01*
X114152261Y-123989404D02*
X114152261Y-123596309D01*
X114394166Y-123807976D01*
X114394166Y-123717261D01*
X114424404Y-123656785D01*
X114454642Y-123626547D01*
X114515119Y-123596309D01*
X114666309Y-123596309D01*
X114726785Y-123626547D01*
X114757023Y-123656785D01*
X114787261Y-123717261D01*
X114787261Y-123898690D01*
X114757023Y-123959166D01*
X114726785Y-123989404D01*
X106926785Y-125410595D02*
X106957023Y-125440833D01*
X106987261Y-125531547D01*
X106987261Y-125592023D01*
X106957023Y-125682738D01*
X106896547Y-125743214D01*
X106836071Y-125773452D01*
X106715119Y-125803690D01*
X106624404Y-125803690D01*
X106503452Y-125773452D01*
X106442976Y-125743214D01*
X106382500Y-125682738D01*
X106352261Y-125592023D01*
X106352261Y-125531547D01*
X106382500Y-125440833D01*
X106412738Y-125410595D01*
X106563928Y-124866309D02*
X106987261Y-124866309D01*
X106322023Y-125017500D02*
X106775595Y-125168690D01*
X106775595Y-124775595D01*
X106352261Y-124412738D02*
X106352261Y-124352261D01*
X106382500Y-124291785D01*
X106412738Y-124261547D01*
X106473214Y-124231309D01*
X106594166Y-124201071D01*
X106745357Y-124201071D01*
X106866309Y-124231309D01*
X106926785Y-124261547D01*
X106957023Y-124291785D01*
X106987261Y-124352261D01*
X106987261Y-124412738D01*
X106957023Y-124473214D01*
X106926785Y-124503452D01*
X106866309Y-124533690D01*
X106745357Y-124563928D01*
X106594166Y-124563928D01*
X106473214Y-124533690D01*
X106412738Y-124503452D01*
X106382500Y-124473214D01*
X106352261Y-124412738D01*
X106352261Y-123626547D02*
X106352261Y-123928928D01*
X106654642Y-123959166D01*
X106624404Y-123928928D01*
X106594166Y-123868452D01*
X106594166Y-123717261D01*
X106624404Y-123656785D01*
X106654642Y-123626547D01*
X106715119Y-123596309D01*
X106866309Y-123596309D01*
X106926785Y-123626547D01*
X106957023Y-123656785D01*
X106987261Y-123717261D01*
X106987261Y-123868452D01*
X106957023Y-123928928D01*
X106926785Y-123959166D01*
X107226785Y-134710595D02*
X107257023Y-134740833D01*
X107287261Y-134831547D01*
X107287261Y-134892023D01*
X107257023Y-134982738D01*
X107196547Y-135043214D01*
X107136071Y-135073452D01*
X107015119Y-135103690D01*
X106924404Y-135103690D01*
X106803452Y-135073452D01*
X106742976Y-135043214D01*
X106682500Y-134982738D01*
X106652261Y-134892023D01*
X106652261Y-134831547D01*
X106682500Y-134740833D01*
X106712738Y-134710595D01*
X106863928Y-134166309D02*
X107287261Y-134166309D01*
X106622023Y-134317500D02*
X107075595Y-134468690D01*
X107075595Y-134075595D01*
X106652261Y-133712738D02*
X106652261Y-133652261D01*
X106682500Y-133591785D01*
X106712738Y-133561547D01*
X106773214Y-133531309D01*
X106894166Y-133501071D01*
X107045357Y-133501071D01*
X107166309Y-133531309D01*
X107226785Y-133561547D01*
X107257023Y-133591785D01*
X107287261Y-133652261D01*
X107287261Y-133712738D01*
X107257023Y-133773214D01*
X107226785Y-133803452D01*
X107166309Y-133833690D01*
X107045357Y-133863928D01*
X106894166Y-133863928D01*
X106773214Y-133833690D01*
X106712738Y-133803452D01*
X106682500Y-133773214D01*
X106652261Y-133712738D01*
X106652261Y-132956785D02*
X106652261Y-133077738D01*
X106682500Y-133138214D01*
X106712738Y-133168452D01*
X106803452Y-133228928D01*
X106924404Y-133259166D01*
X107166309Y-133259166D01*
X107226785Y-133228928D01*
X107257023Y-133198690D01*
X107287261Y-133138214D01*
X107287261Y-133017261D01*
X107257023Y-132956785D01*
X107226785Y-132926547D01*
X107166309Y-132896309D01*
X107015119Y-132896309D01*
X106954642Y-132926547D01*
X106924404Y-132956785D01*
X106894166Y-133017261D01*
X106894166Y-133138214D01*
X106924404Y-133198690D01*
X106954642Y-133228928D01*
X107015119Y-133259166D01*
D12*
X104705166Y-146562857D02*
X104662833Y-146611238D01*
X104535833Y-146659619D01*
X104451166Y-146659619D01*
X104324166Y-146611238D01*
X104239500Y-146514476D01*
X104197166Y-146417714D01*
X104154833Y-146224190D01*
X104154833Y-146079047D01*
X104197166Y-145885523D01*
X104239500Y-145788761D01*
X104324166Y-145692000D01*
X104451166Y-145643619D01*
X104535833Y-145643619D01*
X104662833Y-145692000D01*
X104705166Y-145740380D01*
X105467166Y-145982285D02*
X105467166Y-146659619D01*
X105255500Y-145595238D02*
X105043833Y-146320952D01*
X105594166Y-146320952D01*
X106102166Y-145643619D02*
X106186833Y-145643619D01*
X106271500Y-145692000D01*
X106313833Y-145740380D01*
X106356166Y-145837142D01*
X106398500Y-146030666D01*
X106398500Y-146272571D01*
X106356166Y-146466095D01*
X106313833Y-146562857D01*
X106271500Y-146611238D01*
X106186833Y-146659619D01*
X106102166Y-146659619D01*
X106017500Y-146611238D01*
X105975166Y-146562857D01*
X105932833Y-146466095D01*
X105890500Y-146272571D01*
X105890500Y-146030666D01*
X105932833Y-145837142D01*
X105975166Y-145740380D01*
X106017500Y-145692000D01*
X106102166Y-145643619D01*
X106694833Y-145643619D02*
X107287500Y-145643619D01*
X106906500Y-146659619D01*
X103049428Y-140330857D02*
X104210571Y-140330857D01*
X103630000Y-140911428D02*
X103630000Y-139750285D01*
D14*
X116582476Y-145459619D02*
X116582476Y-144443619D01*
X117163047Y-145459619D02*
X116727619Y-144879047D01*
X117163047Y-144443619D02*
X116582476Y-145024190D01*
X118033904Y-144782285D02*
X118033904Y-145459619D01*
X117792000Y-144395238D02*
X117550095Y-145120952D01*
X118179047Y-145120952D01*
X118759619Y-144443619D02*
X118856380Y-144443619D01*
X118953142Y-144492000D01*
X119001523Y-144540380D01*
X119049904Y-144637142D01*
X119098285Y-144830666D01*
X119098285Y-145072571D01*
X119049904Y-145266095D01*
X119001523Y-145362857D01*
X118953142Y-145411238D01*
X118856380Y-145459619D01*
X118759619Y-145459619D01*
X118662857Y-145411238D01*
X118614476Y-145362857D01*
X118566095Y-145266095D01*
X118517714Y-145072571D01*
X118517714Y-144830666D01*
X118566095Y-144637142D01*
X118614476Y-144540380D01*
X118662857Y-144492000D01*
X118759619Y-144443619D01*
X120065904Y-145459619D02*
X119485333Y-145459619D01*
X119775619Y-145459619D02*
X119775619Y-144443619D01*
X119678857Y-144588761D01*
X119582095Y-144685523D01*
X119485333Y-144733904D01*
D11*
X108489404Y-118887261D02*
X108277738Y-118584880D01*
X108126547Y-118887261D02*
X108126547Y-118252261D01*
X108368452Y-118252261D01*
X108428928Y-118282500D01*
X108459166Y-118312738D01*
X108489404Y-118373214D01*
X108489404Y-118463928D01*
X108459166Y-118524404D01*
X108428928Y-118554642D01*
X108368452Y-118584880D01*
X108126547Y-118584880D01*
X108731309Y-118312738D02*
X108761547Y-118282500D01*
X108822023Y-118252261D01*
X108973214Y-118252261D01*
X109033690Y-118282500D01*
X109063928Y-118312738D01*
X109094166Y-118373214D01*
X109094166Y-118433690D01*
X109063928Y-118524404D01*
X108701071Y-118887261D01*
X109094166Y-118887261D01*
X109487261Y-118252261D02*
X109547738Y-118252261D01*
X109608214Y-118282500D01*
X109638452Y-118312738D01*
X109668690Y-118373214D01*
X109698928Y-118494166D01*
X109698928Y-118645357D01*
X109668690Y-118766309D01*
X109638452Y-118826785D01*
X109608214Y-118857023D01*
X109547738Y-118887261D01*
X109487261Y-118887261D01*
X109426785Y-118857023D01*
X109396547Y-118826785D01*
X109366309Y-118766309D01*
X109336071Y-118645357D01*
X109336071Y-118494166D01*
X109366309Y-118373214D01*
X109396547Y-118312738D01*
X109426785Y-118282500D01*
X109487261Y-118252261D01*
X110303690Y-118887261D02*
X109940833Y-118887261D01*
X110122261Y-118887261D02*
X110122261Y-118252261D01*
X110061785Y-118342976D01*
X110001309Y-118403452D01*
X109940833Y-118433690D01*
X103389404Y-118887261D02*
X103177738Y-118584880D01*
X103026547Y-118887261D02*
X103026547Y-118252261D01*
X103268452Y-118252261D01*
X103328928Y-118282500D01*
X103359166Y-118312738D01*
X103389404Y-118373214D01*
X103389404Y-118463928D01*
X103359166Y-118524404D01*
X103328928Y-118554642D01*
X103268452Y-118584880D01*
X103026547Y-118584880D01*
X103631309Y-118312738D02*
X103661547Y-118282500D01*
X103722023Y-118252261D01*
X103873214Y-118252261D01*
X103933690Y-118282500D01*
X103963928Y-118312738D01*
X103994166Y-118373214D01*
X103994166Y-118433690D01*
X103963928Y-118524404D01*
X103601071Y-118887261D01*
X103994166Y-118887261D01*
X104387261Y-118252261D02*
X104447738Y-118252261D01*
X104508214Y-118282500D01*
X104538452Y-118312738D01*
X104568690Y-118373214D01*
X104598928Y-118494166D01*
X104598928Y-118645357D01*
X104568690Y-118766309D01*
X104538452Y-118826785D01*
X104508214Y-118857023D01*
X104447738Y-118887261D01*
X104387261Y-118887261D01*
X104326785Y-118857023D01*
X104296547Y-118826785D01*
X104266309Y-118766309D01*
X104236071Y-118645357D01*
X104236071Y-118494166D01*
X104266309Y-118373214D01*
X104296547Y-118312738D01*
X104326785Y-118282500D01*
X104387261Y-118252261D01*
X104840833Y-118312738D02*
X104871071Y-118282500D01*
X104931547Y-118252261D01*
X105082738Y-118252261D01*
X105143214Y-118282500D01*
X105173452Y-118312738D01*
X105203690Y-118373214D01*
X105203690Y-118433690D01*
X105173452Y-118524404D01*
X104810595Y-118887261D01*
X105203690Y-118887261D01*
X121289404Y-118887261D02*
X121077738Y-118584880D01*
X120926547Y-118887261D02*
X120926547Y-118252261D01*
X121168452Y-118252261D01*
X121228928Y-118282500D01*
X121259166Y-118312738D01*
X121289404Y-118373214D01*
X121289404Y-118463928D01*
X121259166Y-118524404D01*
X121228928Y-118554642D01*
X121168452Y-118584880D01*
X120926547Y-118584880D01*
X121531309Y-118312738D02*
X121561547Y-118282500D01*
X121622023Y-118252261D01*
X121773214Y-118252261D01*
X121833690Y-118282500D01*
X121863928Y-118312738D01*
X121894166Y-118373214D01*
X121894166Y-118433690D01*
X121863928Y-118524404D01*
X121501071Y-118887261D01*
X121894166Y-118887261D01*
X122287261Y-118252261D02*
X122347738Y-118252261D01*
X122408214Y-118282500D01*
X122438452Y-118312738D01*
X122468690Y-118373214D01*
X122498928Y-118494166D01*
X122498928Y-118645357D01*
X122468690Y-118766309D01*
X122438452Y-118826785D01*
X122408214Y-118857023D01*
X122347738Y-118887261D01*
X122287261Y-118887261D01*
X122226785Y-118857023D01*
X122196547Y-118826785D01*
X122166309Y-118766309D01*
X122136071Y-118645357D01*
X122136071Y-118494166D01*
X122166309Y-118373214D01*
X122196547Y-118312738D01*
X122226785Y-118282500D01*
X122287261Y-118252261D01*
X122710595Y-118252261D02*
X123103690Y-118252261D01*
X122892023Y-118494166D01*
X122982738Y-118494166D01*
X123043214Y-118524404D01*
X123073452Y-118554642D01*
X123103690Y-118615119D01*
X123103690Y-118766309D01*
X123073452Y-118826785D01*
X123043214Y-118857023D01*
X122982738Y-118887261D01*
X122801309Y-118887261D01*
X122740833Y-118857023D01*
X122710595Y-118826785D01*
X116489404Y-118887261D02*
X116277738Y-118584880D01*
X116126547Y-118887261D02*
X116126547Y-118252261D01*
X116368452Y-118252261D01*
X116428928Y-118282500D01*
X116459166Y-118312738D01*
X116489404Y-118373214D01*
X116489404Y-118463928D01*
X116459166Y-118524404D01*
X116428928Y-118554642D01*
X116368452Y-118584880D01*
X116126547Y-118584880D01*
X116731309Y-118312738D02*
X116761547Y-118282500D01*
X116822023Y-118252261D01*
X116973214Y-118252261D01*
X117033690Y-118282500D01*
X117063928Y-118312738D01*
X117094166Y-118373214D01*
X117094166Y-118433690D01*
X117063928Y-118524404D01*
X116701071Y-118887261D01*
X117094166Y-118887261D01*
X117487261Y-118252261D02*
X117547738Y-118252261D01*
X117608214Y-118282500D01*
X117638452Y-118312738D01*
X117668690Y-118373214D01*
X117698928Y-118494166D01*
X117698928Y-118645357D01*
X117668690Y-118766309D01*
X117638452Y-118826785D01*
X117608214Y-118857023D01*
X117547738Y-118887261D01*
X117487261Y-118887261D01*
X117426785Y-118857023D01*
X117396547Y-118826785D01*
X117366309Y-118766309D01*
X117336071Y-118645357D01*
X117336071Y-118494166D01*
X117366309Y-118373214D01*
X117396547Y-118312738D01*
X117426785Y-118282500D01*
X117487261Y-118252261D01*
X118243214Y-118463928D02*
X118243214Y-118887261D01*
X118092023Y-118222023D02*
X117940833Y-118675595D01*
X118333928Y-118675595D01*
X111387261Y-125410595D02*
X111084880Y-125622261D01*
X111387261Y-125773452D02*
X110752261Y-125773452D01*
X110752261Y-125531547D01*
X110782500Y-125471071D01*
X110812738Y-125440833D01*
X110873214Y-125410595D01*
X110963928Y-125410595D01*
X111024404Y-125440833D01*
X111054642Y-125471071D01*
X111084880Y-125531547D01*
X111084880Y-125773452D01*
X110752261Y-125198928D02*
X110752261Y-124805833D01*
X110994166Y-125017500D01*
X110994166Y-124926785D01*
X111024404Y-124866309D01*
X111054642Y-124836071D01*
X111115119Y-124805833D01*
X111266309Y-124805833D01*
X111326785Y-124836071D01*
X111357023Y-124866309D01*
X111387261Y-124926785D01*
X111387261Y-125108214D01*
X111357023Y-125168690D01*
X111326785Y-125198928D01*
X110752261Y-124412738D02*
X110752261Y-124352261D01*
X110782500Y-124291785D01*
X110812738Y-124261547D01*
X110873214Y-124231309D01*
X110994166Y-124201071D01*
X111145357Y-124201071D01*
X111266309Y-124231309D01*
X111326785Y-124261547D01*
X111357023Y-124291785D01*
X111387261Y-124352261D01*
X111387261Y-124412738D01*
X111357023Y-124473214D01*
X111326785Y-124503452D01*
X111266309Y-124533690D01*
X111145357Y-124563928D01*
X110994166Y-124563928D01*
X110873214Y-124533690D01*
X110812738Y-124503452D01*
X110782500Y-124473214D01*
X110752261Y-124412738D01*
X111387261Y-123596309D02*
X111387261Y-123959166D01*
X111387261Y-123777738D02*
X110752261Y-123777738D01*
X110842976Y-123838214D01*
X110903452Y-123898690D01*
X110933690Y-123959166D01*
X109389404Y-139287261D02*
X109177738Y-138984880D01*
X109026547Y-139287261D02*
X109026547Y-138652261D01*
X109268452Y-138652261D01*
X109328928Y-138682500D01*
X109359166Y-138712738D01*
X109389404Y-138773214D01*
X109389404Y-138863928D01*
X109359166Y-138924404D01*
X109328928Y-138954642D01*
X109268452Y-138984880D01*
X109026547Y-138984880D01*
X109601071Y-138652261D02*
X109994166Y-138652261D01*
X109782500Y-138894166D01*
X109873214Y-138894166D01*
X109933690Y-138924404D01*
X109963928Y-138954642D01*
X109994166Y-139015119D01*
X109994166Y-139166309D01*
X109963928Y-139226785D01*
X109933690Y-139257023D01*
X109873214Y-139287261D01*
X109691785Y-139287261D01*
X109631309Y-139257023D01*
X109601071Y-139226785D01*
X110387261Y-138652261D02*
X110447738Y-138652261D01*
X110508214Y-138682500D01*
X110538452Y-138712738D01*
X110568690Y-138773214D01*
X110598928Y-138894166D01*
X110598928Y-139045357D01*
X110568690Y-139166309D01*
X110538452Y-139226785D01*
X110508214Y-139257023D01*
X110447738Y-139287261D01*
X110387261Y-139287261D01*
X110326785Y-139257023D01*
X110296547Y-139226785D01*
X110266309Y-139166309D01*
X110236071Y-139045357D01*
X110236071Y-138894166D01*
X110266309Y-138773214D01*
X110296547Y-138712738D01*
X110326785Y-138682500D01*
X110387261Y-138652261D01*
X110810595Y-138652261D02*
X111203690Y-138652261D01*
X110992023Y-138894166D01*
X111082738Y-138894166D01*
X111143214Y-138924404D01*
X111173452Y-138954642D01*
X111203690Y-139015119D01*
X111203690Y-139166309D01*
X111173452Y-139226785D01*
X111143214Y-139257023D01*
X111082738Y-139287261D01*
X110901309Y-139287261D01*
X110840833Y-139257023D01*
X110810595Y-139226785D01*
X109287261Y-125410595D02*
X108984880Y-125622261D01*
X109287261Y-125773452D02*
X108652261Y-125773452D01*
X108652261Y-125531547D01*
X108682500Y-125471071D01*
X108712738Y-125440833D01*
X108773214Y-125410595D01*
X108863928Y-125410595D01*
X108924404Y-125440833D01*
X108954642Y-125471071D01*
X108984880Y-125531547D01*
X108984880Y-125773452D01*
X108652261Y-125198928D02*
X108652261Y-124805833D01*
X108894166Y-125017500D01*
X108894166Y-124926785D01*
X108924404Y-124866309D01*
X108954642Y-124836071D01*
X109015119Y-124805833D01*
X109166309Y-124805833D01*
X109226785Y-124836071D01*
X109257023Y-124866309D01*
X109287261Y-124926785D01*
X109287261Y-125108214D01*
X109257023Y-125168690D01*
X109226785Y-125198928D01*
X108652261Y-124412738D02*
X108652261Y-124352261D01*
X108682500Y-124291785D01*
X108712738Y-124261547D01*
X108773214Y-124231309D01*
X108894166Y-124201071D01*
X109045357Y-124201071D01*
X109166309Y-124231309D01*
X109226785Y-124261547D01*
X109257023Y-124291785D01*
X109287261Y-124352261D01*
X109287261Y-124412738D01*
X109257023Y-124473214D01*
X109226785Y-124503452D01*
X109166309Y-124533690D01*
X109045357Y-124563928D01*
X108894166Y-124563928D01*
X108773214Y-124533690D01*
X108712738Y-124503452D01*
X108682500Y-124473214D01*
X108652261Y-124412738D01*
X108863928Y-123656785D02*
X109287261Y-123656785D01*
X108622023Y-123807976D02*
X109075595Y-123959166D01*
X109075595Y-123566071D01*
X101152261Y-137888571D02*
X101666309Y-137888571D01*
X101726785Y-137858333D01*
X101757023Y-137828095D01*
X101787261Y-137767619D01*
X101787261Y-137646666D01*
X101757023Y-137586190D01*
X101726785Y-137555952D01*
X101666309Y-137525714D01*
X101152261Y-137525714D01*
X101363928Y-136951190D02*
X101787261Y-136951190D01*
X101122023Y-137102380D02*
X101575595Y-137253571D01*
X101575595Y-136860476D01*
X101152261Y-136497619D02*
X101152261Y-136437142D01*
X101182500Y-136376666D01*
X101212738Y-136346428D01*
X101273214Y-136316190D01*
X101394166Y-136285952D01*
X101545357Y-136285952D01*
X101666309Y-136316190D01*
X101726785Y-136346428D01*
X101757023Y-136376666D01*
X101787261Y-136437142D01*
X101787261Y-136497619D01*
X101757023Y-136558095D01*
X101726785Y-136588333D01*
X101666309Y-136618571D01*
X101545357Y-136648809D01*
X101394166Y-136648809D01*
X101273214Y-136618571D01*
X101212738Y-136588333D01*
X101182500Y-136558095D01*
X101152261Y-136497619D01*
X101787261Y-135681190D02*
X101787261Y-136044047D01*
X101787261Y-135862619D02*
X101152261Y-135862619D01*
X101242976Y-135923095D01*
X101303452Y-135983571D01*
X101333690Y-136044047D01*
D13*
X100338095Y-112552380D02*
X101004761Y-113552380D01*
X101004761Y-112552380D02*
X100338095Y-113552380D01*
X101338095Y-112647619D02*
X101385714Y-112600000D01*
X101480952Y-112552380D01*
X101719047Y-112552380D01*
X101814285Y-112600000D01*
X101861904Y-112647619D01*
X101909523Y-112742857D01*
X101909523Y-112838095D01*
X101861904Y-112980952D01*
X101290476Y-113552380D01*
X101909523Y-113552380D01*
X102528571Y-112552380D02*
X102623809Y-112552380D01*
X102719047Y-112600000D01*
X102766666Y-112647619D01*
X102814285Y-112742857D01*
X102861904Y-112933333D01*
X102861904Y-113171428D01*
X102814285Y-113361904D01*
X102766666Y-113457142D01*
X102719047Y-113504761D01*
X102623809Y-113552380D01*
X102528571Y-113552380D01*
X102433333Y-113504761D01*
X102385714Y-113457142D01*
X102338095Y-113361904D01*
X102290476Y-113171428D01*
X102290476Y-112933333D01*
X102338095Y-112742857D01*
X102385714Y-112647619D01*
X102433333Y-112600000D01*
X102528571Y-112552380D01*
X103814285Y-113552380D02*
X103242857Y-113552380D01*
X103528571Y-113552380D02*
X103528571Y-112552380D01*
X103433333Y-112695238D01*
X103338095Y-112790476D01*
X103242857Y-112838095D01*
M02*
