M48
; DRILL file {KiCad (6.0.7)} date Sun Jan  8 19:57:58 2023
; FORMAT={-:-/ absolute / metric / decimal}
; #@! TF.CreationDate,2023-01-08T19:57:58+01:00
; #@! TF.GenerationSoftware,Kicad,Pcbnew,(6.0.7)
; #@! TF.FileFunction,Plated,1,2,PTH
FMAT,2
METRIC
; #@! TA.AperFunction,Plated,PTH,ViaDrill
T1C0.400
; #@! TA.AperFunction,Plated,PTH,ComponentDrill
T2C0.813
; #@! TA.AperFunction,Plated,PTH,ComponentDrill
T3C0.899
; #@! TA.AperFunction,Plated,PTH,ComponentDrill
T4C1.300
; #@! TA.AperFunction,Plated,PTH,ComponentDrill
T5C1.501
; #@! TA.AperFunction,Plated,PTH,ComponentDrill
T6C3.200
; #@! TA.AperFunction,Plated,PTH,ComponentDrill
T7C3.200
%
G90
G05
T1
X160.071Y-125.552
X165.202Y-152.527
T2
X167.259Y-157.556
X169.799Y-157.556
T3
X162.585Y-144.043
X162.585Y-146.583
T4
X99.1Y-114.9
X99.1Y-119.9
X99.1Y-124.9
X99.1Y-129.9
X99.1Y-134.9
X99.1Y-139.9
X99.1Y-144.9
X99.1Y-149.9
X99.1Y-154.9
X99.1Y-159.9
X99.1Y-164.9
X99.1Y-169.9
X99.1Y-174.9
X99.1Y-179.9
X99.1Y-184.9
X99.1Y-189.9
X104.1Y-117.4
X104.1Y-122.4
X104.1Y-127.4
X104.1Y-132.4
X104.1Y-137.4
X104.1Y-142.4
X104.1Y-147.4
X104.1Y-152.4
X104.1Y-157.4
X104.1Y-162.4
X104.1Y-167.4
X104.1Y-172.4
X104.1Y-177.401
X104.1Y-182.4
X104.1Y-187.4
X124.5Y-114.9
X124.5Y-119.9
X124.5Y-124.9
X124.5Y-129.9
X124.5Y-134.9
X124.5Y-139.9
X124.5Y-144.9
X124.5Y-149.9
X124.5Y-154.9
X124.5Y-159.9
X124.5Y-164.9
X124.5Y-169.9
X124.5Y-174.9
X124.5Y-179.9
X124.5Y-184.9
X124.5Y-189.9
X129.5Y-117.4
X129.5Y-122.4
X129.5Y-127.4
X129.5Y-132.4
X129.5Y-137.4
X129.5Y-142.4
X129.5Y-147.4
X129.5Y-152.4
X129.5Y-157.4
X129.5Y-162.4
X129.5Y-167.4
X129.5Y-172.4
X129.5Y-177.401
X129.5Y-182.4
X129.5Y-187.4
X149.9Y-114.9
X149.9Y-119.9
X149.9Y-124.9
X149.9Y-129.9
X149.9Y-134.9
X149.9Y-139.9
X149.9Y-144.9
X149.9Y-149.9
X149.9Y-154.9
X149.9Y-159.9
X149.9Y-164.9
X149.9Y-169.9
X149.9Y-174.9
X149.9Y-179.9
X149.9Y-184.9
X149.9Y-189.9
X154.9Y-117.4
X154.9Y-122.4
X154.9Y-127.4
X154.9Y-132.4
X154.9Y-137.4
X154.9Y-142.4
X154.9Y-147.4
X154.9Y-152.4
X154.9Y-157.4
X154.9Y-162.4
X154.9Y-167.4
X154.9Y-172.4
X154.9Y-177.401
X154.9Y-182.4
X154.9Y-187.4
X175.3Y-114.9
X175.3Y-119.9
X175.3Y-124.9
X175.3Y-129.9
X175.3Y-134.9
X175.3Y-139.9
X175.3Y-144.9
X175.3Y-149.9
X175.3Y-154.9
X175.3Y-159.9
X175.3Y-164.9
X175.3Y-169.9
X175.3Y-174.9
X175.3Y-179.9
X175.3Y-184.9
X175.3Y-189.9
X180.3Y-117.4
X180.3Y-122.4
X180.3Y-127.4
X180.3Y-132.4
X180.3Y-137.4
X180.3Y-142.4
X180.3Y-147.4
X180.3Y-152.4
X180.3Y-157.4
X180.3Y-162.4
X180.3Y-167.4
X180.3Y-172.4
X180.3Y-177.401
X180.3Y-182.4
X180.3Y-187.4
X200.7Y-114.9
X200.7Y-119.9
X200.7Y-124.9
X200.7Y-129.9
X200.7Y-134.9
X200.7Y-139.9
X200.7Y-144.9
X200.7Y-149.9
X200.7Y-154.9
X200.7Y-159.9
X200.7Y-164.9
X200.7Y-169.9
X200.7Y-174.9
X200.7Y-179.9
X200.7Y-184.9
X200.7Y-189.9
X205.7Y-117.4
X205.7Y-122.4
X205.7Y-127.4
X205.7Y-132.4
X205.7Y-137.4
X205.7Y-142.4
X205.7Y-147.4
X205.7Y-152.4
X205.7Y-157.4
X205.7Y-162.4
X205.7Y-167.4
X205.7Y-172.4
X205.7Y-177.401
X205.7Y-182.4
X205.7Y-187.4
X226.1Y-114.9
X226.1Y-119.9
X226.1Y-124.9
X226.1Y-129.9
X226.1Y-134.9
X226.1Y-139.9
X226.1Y-144.9
X226.1Y-149.9
X226.1Y-154.9
X226.1Y-159.9
X226.1Y-164.9
X226.1Y-169.9
X226.1Y-174.9
X226.1Y-179.9
X226.1Y-184.9
X226.1Y-189.9
X231.1Y-117.4
X231.1Y-122.4
X231.1Y-127.4
X231.1Y-132.4
X231.1Y-137.4
X231.1Y-142.4
X231.1Y-147.4
X231.1Y-152.4
X231.1Y-157.4
X231.1Y-162.4
X231.1Y-167.4
X231.1Y-172.4
X231.1Y-177.401
X231.1Y-182.4
X231.1Y-187.4
X251.5Y-114.9
X251.5Y-119.9
X251.5Y-124.9
X251.5Y-129.9
X251.5Y-134.9
X251.5Y-139.9
X251.5Y-144.9
X251.5Y-149.9
X251.5Y-154.9
X251.5Y-159.9
X251.5Y-164.9
X251.5Y-169.9
X251.5Y-174.9
X251.5Y-179.9
X251.5Y-184.9
X251.5Y-189.9
X256.5Y-117.4
X256.5Y-122.4
X256.5Y-127.4
X256.5Y-132.4
X256.5Y-137.4
X256.5Y-142.4
X256.5Y-147.4
X256.5Y-152.4
X256.5Y-157.4
X256.5Y-162.4
X256.5Y-167.4
X256.5Y-172.4
X256.5Y-177.401
X256.5Y-182.4
X256.5Y-187.4
X276.9Y-114.9
X276.9Y-119.9
X276.9Y-124.9
X276.9Y-129.9
X276.9Y-134.9
X276.9Y-139.9
X276.9Y-144.9
X276.9Y-149.9
X276.9Y-154.9
X276.9Y-159.9
X276.9Y-164.9
X276.9Y-169.9
X276.9Y-174.9
X276.9Y-179.9
X276.9Y-184.9
X276.9Y-189.9
X281.9Y-117.4
X281.9Y-122.4
X281.9Y-127.4
X281.9Y-132.4
X281.9Y-137.4
X281.9Y-142.4
X281.9Y-147.4
X281.9Y-152.4
X281.9Y-157.4
X281.9Y-162.4
X281.9Y-167.4
X281.9Y-172.4
X281.9Y-177.401
X281.9Y-182.4
X281.9Y-187.4
X302.3Y-114.9
X302.3Y-119.9
X302.3Y-124.9
X302.3Y-129.9
X302.3Y-134.9
X302.3Y-139.9
X302.3Y-144.9
X302.3Y-149.9
X302.3Y-154.9
X302.3Y-159.9
X302.3Y-164.9
X302.3Y-169.9
X302.3Y-174.9
X302.3Y-179.9
X302.3Y-184.9
X302.3Y-189.9
X307.3Y-117.4
X307.3Y-122.4
X307.3Y-127.4
X307.3Y-132.4
X307.3Y-137.4
X307.3Y-142.4
X307.3Y-147.4
X307.3Y-152.4
X307.3Y-157.4
X307.3Y-162.4
X307.3Y-167.4
X307.3Y-172.4
X307.3Y-177.401
X307.3Y-182.4
X307.3Y-187.4
X327.7Y-114.9
X327.7Y-119.9
X327.7Y-124.9
X327.7Y-129.9
X327.7Y-134.9
X327.7Y-139.9
X327.7Y-144.9
X327.7Y-149.9
X327.7Y-154.9
X327.7Y-159.9
X327.7Y-164.9
X327.7Y-169.9
X327.7Y-174.9
X327.7Y-179.9
X327.7Y-184.9
X327.7Y-189.9
X332.7Y-117.4
X332.7Y-122.4
X332.7Y-127.4
X332.7Y-132.4
X332.7Y-137.4
X332.7Y-142.4
X332.7Y-147.4
X332.7Y-152.4
X332.7Y-157.4
X332.7Y-162.4
X332.7Y-167.4
X332.7Y-172.4
X332.7Y-177.401
X332.7Y-182.4
X332.7Y-187.4
X353.1Y-114.9
X353.1Y-119.9
X353.1Y-124.9
X353.1Y-129.9
X353.1Y-134.9
X353.1Y-139.9
X353.1Y-144.9
X353.1Y-149.9
X353.1Y-154.9
X353.1Y-159.9
X353.1Y-164.9
X353.1Y-169.9
X353.1Y-174.9
X353.1Y-179.9
X353.1Y-184.9
X353.1Y-189.9
X358.1Y-117.4
X358.1Y-122.4
X358.1Y-127.4
X358.1Y-132.4
X358.1Y-137.4
X358.1Y-142.4
X358.1Y-147.4
X358.1Y-152.4
X358.1Y-157.4
X358.1Y-162.4
X358.1Y-167.4
X358.1Y-172.4
X358.1Y-177.401
X358.1Y-182.4
X358.1Y-187.4
X378.5Y-114.9
X378.5Y-119.9
X378.5Y-124.9
X378.5Y-129.9
X378.5Y-134.9
X378.5Y-139.9
X378.5Y-144.9
X378.5Y-149.9
X378.5Y-154.9
X378.5Y-159.9
X378.5Y-164.9
X378.5Y-169.9
X378.5Y-174.9
X378.5Y-179.9
X378.5Y-184.9
X378.5Y-189.9
X383.5Y-117.4
X383.5Y-122.4
X383.5Y-127.4
X383.5Y-132.4
X383.5Y-137.4
X383.5Y-142.4
X383.5Y-147.4
X383.5Y-152.4
X383.5Y-157.4
X383.5Y-162.4
X383.5Y-167.4
X383.5Y-172.4
X383.5Y-177.401
X383.5Y-182.4
X383.5Y-187.4
T5
X92.71Y-114.327
X92.71Y-119.325
X92.71Y-124.327
X92.71Y-129.325
X92.71Y-134.327
X92.71Y-139.325
X92.71Y-144.327
X92.71Y-149.325
X92.71Y-155.983
X92.71Y-160.981
X92.71Y-165.983
X92.71Y-170.981
X92.71Y-175.983
X92.71Y-180.981
X92.71Y-185.983
X92.71Y-190.981
X118.11Y-114.327
X118.11Y-119.325
X118.11Y-124.327
X118.11Y-129.325
X118.11Y-134.327
X118.11Y-139.325
X118.11Y-144.327
X118.11Y-149.325
X118.11Y-155.983
X118.11Y-160.981
X118.11Y-165.983
X118.11Y-170.981
X118.11Y-175.983
X118.11Y-180.981
X118.11Y-185.983
X118.11Y-190.981
X143.51Y-114.327
X143.51Y-119.325
X143.51Y-124.327
X143.51Y-129.325
X143.51Y-134.327
X143.51Y-139.325
X143.51Y-144.327
X143.51Y-149.325
X143.51Y-155.983
X143.51Y-160.981
X143.51Y-165.983
X143.51Y-170.981
X143.51Y-175.983
X143.51Y-180.981
X143.51Y-185.983
X143.51Y-190.981
X165.1Y-116.961
X165.1Y-121.959
X165.1Y-126.961
X165.1Y-131.959
X241.3Y-122.041
X241.3Y-127.039
X241.3Y-132.041
X241.3Y-137.039
X266.7Y-122.041
X266.7Y-127.039
X266.7Y-132.041
X266.7Y-137.039
X266.7Y-165.221
X266.7Y-170.219
X266.7Y-175.221
X266.7Y-180.219
X292.1Y-122.041
X292.1Y-127.039
X292.1Y-132.041
X292.1Y-137.039
X292.1Y-165.221
X292.1Y-170.219
X292.1Y-175.221
X292.1Y-180.219
X317.5Y-122.041
X317.5Y-127.039
X317.5Y-132.041
X317.5Y-137.039
X317.5Y-165.221
X317.5Y-170.219
X317.5Y-175.221
X317.5Y-180.219
X342.9Y-122.041
X342.9Y-127.039
X342.9Y-132.041
X342.9Y-137.039
X342.9Y-165.221
X342.9Y-170.219
X342.9Y-175.221
X342.9Y-180.219
X368.3Y-134.901
X368.3Y-139.899
X368.3Y-144.901
X368.3Y-149.899
X368.3Y-154.901
X368.3Y-159.899
X368.3Y-164.901
X368.3Y-169.899
X391.16Y-114.327
X391.16Y-119.325
X391.16Y-124.327
X391.16Y-129.325
X391.16Y-134.327
X391.16Y-139.325
X391.16Y-144.327
X391.16Y-149.325
X391.16Y-155.983
X391.16Y-160.981
X391.16Y-165.983
X391.16Y-170.981
X391.16Y-175.983
X391.16Y-180.981
X391.16Y-185.983
X391.16Y-190.981
T6
X101.6Y-109.9
X101.6Y-194.9
X127.0Y-109.9
X127.0Y-194.9
X152.4Y-109.9
X152.4Y-194.9
X177.8Y-109.9
X177.8Y-194.9
X203.2Y-109.9
X203.2Y-194.9
X228.6Y-109.9
X228.6Y-194.9
X254.0Y-109.9
X254.0Y-194.9
X279.4Y-109.9
X279.4Y-194.9
X304.8Y-109.9
X304.8Y-194.9
X330.2Y-109.9
X330.2Y-194.9
X355.6Y-109.9
X355.6Y-194.9
X381.0Y-109.9
X381.0Y-194.9
T7
X86.36Y-109.9
X86.36Y-194.9
X162.56Y-109.9
X167.64Y-194.9
X193.04Y-194.9
X264.16Y-109.9
X269.24Y-194.9
X314.96Y-109.9
X320.04Y-194.9
X365.76Y-109.9
X370.84Y-194.9
T0
M30
