%TF.GenerationSoftware,KiCad,Pcbnew,(6.0.7)*%
%TF.CreationDate,2024-08-18T11:11:24+02:00*%
%TF.ProjectId,BP51,42503531-2e6b-4696-9361-645f70636258,0437 -*%
%TF.SameCoordinates,Original*%
%TF.FileFunction,Copper,L1,Top*%
%TF.FilePolarity,Positive*%
%FSLAX46Y46*%
G04 Gerber Fmt 4.6, Leading zero omitted, Abs format (unit mm)*
G04 Created by KiCad (PCBNEW (6.0.7)) date 2024-08-18 11:11:24*
%MOMM*%
%LPD*%
G01*
G04 APERTURE LIST*
%TA.AperFunction,ComponentPad*%
%ADD10C,6.400800*%
%TD*%
%TA.AperFunction,ComponentPad*%
%ADD11R,3.048000X3.048000*%
%TD*%
%TA.AperFunction,ComponentPad*%
%ADD12C,3.048000*%
%TD*%
%TA.AperFunction,SMDPad,CuDef*%
%ADD13R,1.600200X1.830400*%
%TD*%
%TA.AperFunction,SMDPad,CuDef*%
%ADD14R,1.600200X1.803400*%
%TD*%
%TA.AperFunction,SMDPad,CuDef*%
%ADD15R,0.914400X0.914400*%
%TD*%
%TA.AperFunction,ComponentPad*%
%ADD16R,1.524000X1.524000*%
%TD*%
%TA.AperFunction,ComponentPad*%
%ADD17C,1.524000*%
%TD*%
%TA.AperFunction,ComponentPad*%
%ADD18R,1.651000X1.651000*%
%TD*%
%TA.AperFunction,ComponentPad*%
%ADD19C,1.651000*%
%TD*%
%TA.AperFunction,ComponentPad*%
%ADD20C,2.200000*%
%TD*%
%TA.AperFunction,ComponentPad*%
%ADD21C,4.000000*%
%TD*%
%TA.AperFunction,Conductor*%
%ADD22C,1.000000*%
%TD*%
%TA.AperFunction,Conductor*%
%ADD23C,2.000000*%
%TD*%
%TA.AperFunction,Conductor*%
%ADD24C,0.500000*%
%TD*%
G04 APERTURE END LIST*
D10*
%TO.P,HOLE,*%
%TO.N,*%
X130040000Y-194900000D03*
%TD*%
D11*
%TO.P,P2,1,P1*%
%TO.N,GND*%
X152900000Y-180059360D03*
D12*
%TO.P,P2,2,P2*%
%TO.N,/FP4*%
X152900000Y-175060640D03*
%TO.P,P2,3,P3*%
%TO.N,/FP3*%
X152900000Y-170059380D03*
%TO.P,P2,4,P4*%
%TO.N,/FP1*%
X152900000Y-165060660D03*
%TO.P,P2,5,P5*%
%TO.N,/FP2*%
X152900000Y-160059400D03*
%TO.P,P2,6,P6*%
%TO.N,/FP6*%
X152900000Y-155060680D03*
%TO.P,P2,7,P7*%
%TO.N,/FP5*%
X152900000Y-150059420D03*
%TO.P,P2,8,P8*%
%TO.N,/FP7*%
X152900000Y-145060700D03*
%TD*%
D13*
%TO.P,R1,1*%
%TO.N,+12V*%
X77156000Y-131245400D03*
D14*
%TO.P,R1,2*%
%TO.N,Net-(C1-Pad1)*%
X79950000Y-131245400D03*
%TD*%
D10*
%TO.P,HOLE,*%
%TO.N,*%
X48760000Y-109900000D03*
%TD*%
D11*
%TO.P,P5,1,P1*%
%TO.N,GND*%
X102100000Y-137039360D03*
D12*
%TO.P,P5,2,P2*%
%TO.N,/G500Z*%
X102100000Y-132040640D03*
%TO.P,P5,3,P3*%
%TO.N,/G501Z*%
X102100000Y-127039380D03*
%TO.P,P5,4,P4*%
%TO.N,/G503Z*%
X102100000Y-122040660D03*
%TD*%
D10*
%TO.P,HOLE,*%
%TO.N,*%
X104640000Y-194900000D03*
%TD*%
%TO.P,HOLE,*%
%TO.N,*%
X74160000Y-109900000D03*
%TD*%
%TO.P,HOLE,*%
%TO.N,*%
X99560000Y-109900000D03*
%TD*%
D15*
%TO.P,Q1,1,E*%
%TO.N,Net-(Q1-Pad1)*%
X79670600Y-124209600D03*
%TO.P,Q1,2,B*%
%TO.N,Net-(Q1-Pad2)*%
X81448600Y-124209600D03*
%TO.P,Q1,3,C*%
%TO.N,Net-(C1-Pad1)*%
X80559600Y-126241600D03*
%TD*%
D16*
%TO.P,JP1,1,P1*%
%TO.N,Net-(JP1-Pad1)*%
X72685600Y-125327200D03*
D17*
%TO.P,JP1,2,PM*%
%TO.N,/LN*%
X72685600Y-122787200D03*
%TD*%
D10*
%TO.P,HOLE,*%
%TO.N,*%
X79240000Y-194900000D03*
%TD*%
D18*
%TO.P,C1,1*%
%TO.N,Net-(C1-Pad1)*%
X75770000Y-135200000D03*
D19*
%TO.P,C1,2*%
%TO.N,GND*%
X73230000Y-135200000D03*
%TD*%
D10*
%TO.P,HOLE,*%
%TO.N,*%
X150360000Y-109900000D03*
%TD*%
D15*
%TO.P,Q2,1,E*%
%TO.N,Net-(JP1-Pad1)*%
X75682800Y-124158800D03*
%TO.P,Q2,2,B*%
%TO.N,Net-(Q1-Pad1)*%
X77460800Y-124158800D03*
%TO.P,Q2,3,C*%
%TO.N,Net-(Q1-Pad2)*%
X76571800Y-126190800D03*
%TD*%
D11*
%TO.P,P4,1,P1*%
%TO.N,GND*%
X127500000Y-180219360D03*
D12*
%TO.P,P4,2,P2*%
%TO.N,/OUT2*%
X127500000Y-175220640D03*
%TO.P,P4,3,P3*%
%TO.N,/OUT1*%
X127500000Y-170219380D03*
%TO.P,P4,4,P4*%
%TO.N,/OUT3*%
X127500000Y-165220660D03*
%TD*%
D13*
%TO.P,R2,1*%
%TO.N,Net-(C1-Pad1)*%
X79950000Y-128654600D03*
D14*
%TO.P,R2,2*%
%TO.N,Net-(Q1-Pad2)*%
X77156000Y-128654600D03*
%TD*%
D10*
%TO.P,HOLE,*%
%TO.N,*%
X155440000Y-194900000D03*
%TD*%
D13*
%TO.P,R3,1*%
%TO.N,Net-(Q1-Pad1)*%
X79238800Y-121923600D03*
D14*
%TO.P,R3,2*%
%TO.N,Net-(JP1-Pad1)*%
X76444800Y-121923600D03*
%TD*%
D11*
%TO.P,P7,1,P1*%
%TO.N,/C7*%
X76700000Y-180219360D03*
D12*
%TO.P,P7,2,P2*%
%TO.N,/S4_FPA*%
X76700000Y-175220640D03*
%TO.P,P7,3,P3*%
%TO.N,/GW1_2Z*%
X76700000Y-170219380D03*
%TO.P,P7,4,P4*%
%TO.N,/GW22_24Z*%
X76700000Y-165220660D03*
%TD*%
D11*
%TO.P,P6,1,P1*%
%TO.N,GND*%
X102100000Y-180219360D03*
D12*
%TO.P,P6,2,P2*%
%TO.N,/G504Z*%
X102100000Y-175220640D03*
%TO.P,P6,3,P3*%
%TO.N,/G604ZZ*%
X102100000Y-170219380D03*
%TO.P,P6,4,P4*%
%TO.N,/G505Z*%
X102100000Y-165220660D03*
%TD*%
D11*
%TO.P,P3,1,P1*%
%TO.N,GND*%
X127500000Y-137039360D03*
D12*
%TO.P,P3,2,P2*%
%TO.N,/OUT6*%
X127500000Y-132040640D03*
%TO.P,P3,3,P3*%
%TO.N,/OUT4*%
X127500000Y-127039380D03*
%TO.P,P3,4,P4*%
%TO.N,/OUT5*%
X127500000Y-122040660D03*
%TD*%
D11*
%TO.P,P1,1,P1*%
%TO.N,/LN*%
X152900000Y-122040640D03*
D12*
%TO.P,P1,2,P2*%
%TO.N,GND*%
X152900000Y-127039360D03*
%TO.P,P1,3,P3*%
X152900000Y-132040620D03*
%TO.P,P1,4,P4*%
%TO.N,+12V*%
X152900000Y-137039340D03*
%TD*%
D11*
%TO.P,P9,1,P1*%
%TO.N,/FP1_A*%
X55110000Y-190981360D03*
D12*
%TO.P,P9,2,P2*%
%TO.N,/FP1_D*%
X55110000Y-185982640D03*
%TO.P,P9,3,P3*%
%TO.N,/FP2_A*%
X55110000Y-180981380D03*
%TO.P,P9,4,P4*%
%TO.N,/FP2_D*%
X55110000Y-175982660D03*
%TO.P,P9,5,P5*%
%TO.N,/FP3_A*%
X55110000Y-170981400D03*
%TO.P,P9,6,P6*%
%TO.N,/A7*%
X55110000Y-165982680D03*
%TO.P,P9,7,P7*%
%TO.N,/FP4_A*%
X55110000Y-160981420D03*
%TO.P,P9,8,P8*%
%TO.N,/FP4_D*%
X55110000Y-155982700D03*
%TD*%
D10*
%TO.P,HOLE,*%
%TO.N,*%
X124960000Y-109900000D03*
%TD*%
D11*
%TO.P,P8,1,P1*%
%TO.N,/GW21_G57*%
X55110000Y-149325360D03*
D12*
%TO.P,P8,2,P2*%
%TO.N,/G21_31_41*%
X55110000Y-144326640D03*
%TO.P,P8,3,P3*%
%TO.N,/G1_51*%
X55110000Y-139325380D03*
%TO.P,P8,4,P4*%
%TO.N,/G22_32_42*%
X55110000Y-134326660D03*
%TO.P,P8,5,P5*%
%TO.N,/G2_52*%
X55110000Y-129325400D03*
%TO.P,P8,6,P6*%
%TO.N,/GW21_G57Z*%
X55110000Y-124326680D03*
%TO.P,P8,7,P7*%
%TO.N,/G23_33_43*%
X55110000Y-119325420D03*
%TO.P,P8,8,P8*%
%TO.N,/G3_53*%
X55110000Y-114326700D03*
%TD*%
D10*
%TO.P,HOLE,*%
%TO.N,*%
X48760000Y-194900000D03*
%TD*%
D20*
%TO.P,K2,1,P1*%
%TO.N,/LN*%
X112300000Y-114900000D03*
%TO.P,K2,2,P2*%
%TO.N,GND*%
X117300000Y-117400000D03*
%TO.P,K2,3,P3*%
%TO.N,+12V*%
X112300000Y-119900000D03*
%TO.P,K2,4,P4*%
%TO.N,GND*%
X117300000Y-122400000D03*
%TO.P,K2,5,P5*%
%TO.N,unconnected-(K2-Pad5)*%
X112300000Y-124900000D03*
%TO.P,K2,6,P6*%
%TO.N,unconnected-(K2-Pad6)*%
X117300000Y-127400000D03*
%TO.P,K2,7,P7*%
%TO.N,unconnected-(K2-Pad7)*%
X112300000Y-129900000D03*
%TO.P,K2,8,P8*%
%TO.N,unconnected-(K2-Pad8)*%
X117300000Y-132400000D03*
%TO.P,K2,9,P9*%
%TO.N,/G503Z*%
X112300000Y-134900000D03*
%TO.P,K2,10,P10*%
%TO.N,/G501Z*%
X117300000Y-137400000D03*
%TO.P,K2,11,P11*%
%TO.N,/G500Z*%
X112300000Y-139900000D03*
%TO.P,K2,12,P12*%
%TO.N,unconnected-(K2-Pad12)*%
X117300000Y-142400000D03*
%TO.P,K2,13,P13*%
%TO.N,/FP7*%
X112300000Y-144900000D03*
%TO.P,K2,14,P14*%
%TO.N,/FP5*%
X117300000Y-147400000D03*
%TO.P,K2,15,P15*%
%TO.N,/FP6*%
X112300000Y-149900000D03*
%TO.P,K2,16,P16*%
%TO.N,/FP2*%
X117300000Y-152400000D03*
%TO.P,K2,17,P17*%
%TO.N,/FP1*%
X112300000Y-154900000D03*
%TO.P,K2,18,P18*%
%TO.N,/FP3*%
X117300000Y-157400000D03*
%TO.P,K2,19,P19*%
%TO.N,/FP4*%
X112300000Y-159900000D03*
%TO.P,K2,20,P20*%
%TO.N,/G505Z*%
X117300000Y-162400000D03*
%TO.P,K2,21,P21*%
%TO.N,/G604ZZ*%
X112300000Y-164900000D03*
%TO.P,K2,22,P22*%
%TO.N,/G504Z*%
X117300000Y-167400000D03*
%TO.P,K2,23,P23*%
%TO.N,unconnected-(K2-Pad23)*%
X112300000Y-169900000D03*
%TO.P,K2,24,P24*%
%TO.N,unconnected-(K2-Pad24)*%
X117300000Y-172400000D03*
%TO.P,K2,25,P25*%
%TO.N,unconnected-(K2-Pad25)*%
X112300000Y-174900000D03*
%TO.P,K2,26,P26*%
%TO.N,unconnected-(K2-Pad26)*%
X117300000Y-177401220D03*
%TO.P,K2,27,P27*%
%TO.N,unconnected-(K2-Pad27)*%
X112300000Y-179900000D03*
%TO.P,K2,28,P28*%
%TO.N,unconnected-(K2-Pad28)*%
X117300000Y-182399940D03*
%TO.P,K2,29,P29*%
%TO.N,unconnected-(K2-Pad29)*%
X112300000Y-184900000D03*
%TO.P,K2,30,P30*%
%TO.N,unconnected-(K2-Pad30)*%
X117300000Y-187400000D03*
%TO.P,K2,31,P31*%
%TO.N,unconnected-(K2-Pad31)*%
X112300000Y-189900000D03*
D21*
%TO.P,K2,H1*%
%TO.N,N/C*%
X114800000Y-109900000D03*
%TO.P,K2,H2*%
X114800000Y-194900000D03*
%TD*%
D20*
%TO.P,K4,1,P1*%
%TO.N,/LN*%
X61500000Y-114900000D03*
%TO.P,K4,2,P2*%
%TO.N,GND*%
X66500000Y-117400000D03*
%TO.P,K4,3,P3*%
%TO.N,+12V*%
X61500000Y-119900000D03*
%TO.P,K4,4,P4*%
%TO.N,GND*%
X66500000Y-122400000D03*
%TO.P,K4,5,P5*%
%TO.N,/G3_53*%
X61500000Y-124900000D03*
%TO.P,K4,6,P6*%
%TO.N,/G23_33_43*%
X66500000Y-127400000D03*
%TO.P,K4,7,P7*%
%TO.N,/G3Z*%
X61500000Y-129900000D03*
%TO.P,K4,8,P8*%
%TO.N,/GW21_G57Z*%
X66500000Y-132400000D03*
%TO.P,K4,9,P9*%
%TO.N,/GW21_G57*%
X61500000Y-134900000D03*
%TO.P,K4,10,P10*%
%TO.N,/G2_52*%
X66500000Y-137400000D03*
%TO.P,K4,11,P11*%
%TO.N,/G22_32_42*%
X61500000Y-139900000D03*
%TO.P,K4,12,P12*%
%TO.N,/G2Z*%
X66500000Y-142400000D03*
%TO.P,K4,13,P13*%
%TO.N,/G1_51*%
X61500000Y-144900000D03*
%TO.P,K4,14,P14*%
%TO.N,/G21_31_41*%
X66500000Y-147400000D03*
%TO.P,K4,15,P15*%
%TO.N,/G1Z*%
X61500000Y-149900000D03*
%TO.P,K4,16,P16*%
%TO.N,/GW21_G57*%
X66500000Y-152400000D03*
%TO.P,K4,17,P17*%
%TO.N,/GW22_24Z*%
X61500000Y-154900000D03*
%TO.P,K4,18,P18*%
%TO.N,unconnected-(K4-Pad18)*%
X66500000Y-157400000D03*
%TO.P,K4,19,P19*%
%TO.N,/FP4_D*%
X61500000Y-159900000D03*
%TO.P,K4,20,P20*%
%TO.N,/FP4_A*%
X66500000Y-162400000D03*
%TO.P,K4,21,P21*%
%TO.N,/FP4*%
X61500000Y-164900000D03*
%TO.P,K4,22,P22*%
%TO.N,/A7*%
X66500000Y-167400000D03*
%TO.P,K4,23,P23*%
%TO.N,/C7*%
X61500000Y-169900000D03*
%TO.P,K4,24,P24*%
%TO.N,/FP3_A*%
X66500000Y-172400000D03*
%TO.P,K4,25,P25*%
%TO.N,/FP3*%
X61500000Y-174900000D03*
%TO.P,K4,26,P26*%
%TO.N,/FP2_D*%
X66500000Y-177401220D03*
%TO.P,K4,27,P27*%
%TO.N,/FP2_A*%
X61500000Y-179900000D03*
%TO.P,K4,28,P28*%
%TO.N,/FP2*%
X66500000Y-182399940D03*
%TO.P,K4,29,P29*%
%TO.N,/FP1_D*%
X61500000Y-184900000D03*
%TO.P,K4,30,P30*%
%TO.N,/FP1_A*%
X66500000Y-187400000D03*
%TO.P,K4,31,P31*%
%TO.N,/FP1*%
X61500000Y-189900000D03*
D21*
%TO.P,K4,H1*%
%TO.N,N/C*%
X64000000Y-109900000D03*
%TO.P,K4,H2*%
X64000000Y-194900000D03*
%TD*%
D20*
%TO.P,K1,1,P1*%
%TO.N,/LN*%
X137700000Y-114900000D03*
%TO.P,K1,2,P2*%
%TO.N,GND*%
X142700000Y-117400000D03*
%TO.P,K1,3,P3*%
%TO.N,+12V*%
X137700000Y-119900000D03*
%TO.P,K1,4,P4*%
%TO.N,GND*%
X142700000Y-122400000D03*
%TO.P,K1,5,P5*%
%TO.N,unconnected-(K1-Pad5)*%
X137700000Y-124900000D03*
%TO.P,K1,6,P6*%
%TO.N,unconnected-(K1-Pad6)*%
X142700000Y-127400000D03*
%TO.P,K1,7,P7*%
%TO.N,unconnected-(K1-Pad7)*%
X137700000Y-129900000D03*
%TO.P,K1,8,P8*%
%TO.N,unconnected-(K1-Pad8)*%
X142700000Y-132400000D03*
%TO.P,K1,9,P9*%
%TO.N,/OUT5*%
X137700000Y-134900000D03*
%TO.P,K1,10,P10*%
%TO.N,/OUT4*%
X142700000Y-137400000D03*
%TO.P,K1,11,P11*%
%TO.N,/OUT6*%
X137700000Y-139900000D03*
%TO.P,K1,12,P12*%
%TO.N,unconnected-(K1-Pad12)*%
X142700000Y-142400000D03*
%TO.P,K1,13,P13*%
%TO.N,/FP7*%
X137700000Y-144900000D03*
%TO.P,K1,14,P14*%
%TO.N,/FP5*%
X142700000Y-147400000D03*
%TO.P,K1,15,P15*%
%TO.N,/FP6*%
X137700000Y-149900000D03*
%TO.P,K1,16,P16*%
%TO.N,/FP2*%
X142700000Y-152400000D03*
%TO.P,K1,17,P17*%
%TO.N,/FP1*%
X137700000Y-154900000D03*
%TO.P,K1,18,P18*%
%TO.N,/FP3*%
X142700000Y-157400000D03*
%TO.P,K1,19,P19*%
%TO.N,/FP4*%
X137700000Y-159900000D03*
%TO.P,K1,20,P20*%
%TO.N,/OUT3*%
X142700000Y-162400000D03*
%TO.P,K1,21,P21*%
%TO.N,/OUT1*%
X137700000Y-164900000D03*
%TO.P,K1,22,P22*%
%TO.N,/OUT2*%
X142700000Y-167400000D03*
%TO.P,K1,23,P23*%
%TO.N,unconnected-(K1-Pad23)*%
X137700000Y-169900000D03*
%TO.P,K1,24,P24*%
%TO.N,unconnected-(K1-Pad24)*%
X142700000Y-172400000D03*
%TO.P,K1,25,P25*%
%TO.N,unconnected-(K1-Pad25)*%
X137700000Y-174900000D03*
%TO.P,K1,26,P26*%
%TO.N,unconnected-(K1-Pad26)*%
X142700000Y-177401220D03*
%TO.P,K1,27,P27*%
%TO.N,unconnected-(K1-Pad27)*%
X137700000Y-179900000D03*
%TO.P,K1,28,P28*%
%TO.N,unconnected-(K1-Pad28)*%
X142700000Y-182399940D03*
%TO.P,K1,29,P29*%
%TO.N,unconnected-(K1-Pad29)*%
X137700000Y-184900000D03*
%TO.P,K1,30,P30*%
%TO.N,unconnected-(K1-Pad30)*%
X142700000Y-187400000D03*
%TO.P,K1,31,P31*%
%TO.N,unconnected-(K1-Pad31)*%
X137700000Y-189900000D03*
D21*
%TO.P,K1,H1*%
%TO.N,N/C*%
X140200000Y-109900000D03*
%TO.P,K1,H2*%
X140200000Y-194900000D03*
%TD*%
D20*
%TO.P,K3,1,P1*%
%TO.N,/LN*%
X86900000Y-114900000D03*
%TO.P,K3,2,P2*%
%TO.N,GND*%
X91900000Y-117400000D03*
%TO.P,K3,3,P3*%
%TO.N,+12V*%
X86900000Y-119900000D03*
%TO.P,K3,4,P4*%
%TO.N,GND*%
X91900000Y-122400000D03*
%TO.P,K3,5,P5*%
%TO.N,unconnected-(K3-Pad5)*%
X86900000Y-124900000D03*
%TO.P,K3,6,P6*%
%TO.N,unconnected-(K3-Pad6)*%
X91900000Y-127400000D03*
%TO.P,K3,7,P7*%
%TO.N,unconnected-(K3-Pad7)*%
X86900000Y-129900000D03*
%TO.P,K3,8,P8*%
%TO.N,unconnected-(K3-Pad8)*%
X91900000Y-132400000D03*
%TO.P,K3,9,P9*%
%TO.N,/G3Z*%
X86900000Y-134900000D03*
%TO.P,K3,10,P10*%
%TO.N,/G2Z*%
X91900000Y-137400000D03*
%TO.P,K3,11,P11*%
%TO.N,/G1Z*%
X86900000Y-139900000D03*
%TO.P,K3,12,P12*%
%TO.N,unconnected-(K3-Pad12)*%
X91900000Y-142400000D03*
%TO.P,K3,13,P13*%
%TO.N,/FP7*%
X86900000Y-144900000D03*
%TO.P,K3,14,P14*%
%TO.N,/FP5*%
X91900000Y-147400000D03*
%TO.P,K3,15,P15*%
%TO.N,/FP6*%
X86900000Y-149900000D03*
%TO.P,K3,16,P16*%
%TO.N,/FP2*%
X91900000Y-152400000D03*
%TO.P,K3,17,P17*%
%TO.N,/FP1*%
X86900000Y-154900000D03*
%TO.P,K3,18,P18*%
%TO.N,/FP3*%
X91900000Y-157400000D03*
%TO.P,K3,19,P19*%
%TO.N,/FP4*%
X86900000Y-159900000D03*
%TO.P,K3,20,P20*%
%TO.N,/GW22_24Z*%
X91900000Y-162400000D03*
%TO.P,K3,21,P21*%
%TO.N,/GW1_2Z*%
X86900000Y-164900000D03*
%TO.P,K3,22,P22*%
%TO.N,/S4_FPA*%
X91900000Y-167400000D03*
%TO.P,K3,23,P23*%
%TO.N,unconnected-(K3-Pad23)*%
X86900000Y-169900000D03*
%TO.P,K3,24,P24*%
%TO.N,unconnected-(K3-Pad24)*%
X91900000Y-172400000D03*
%TO.P,K3,25,P25*%
%TO.N,unconnected-(K3-Pad25)*%
X86900000Y-174900000D03*
%TO.P,K3,26,P26*%
%TO.N,unconnected-(K3-Pad26)*%
X91900000Y-177401220D03*
%TO.P,K3,27,P27*%
%TO.N,unconnected-(K3-Pad27)*%
X86900000Y-179900000D03*
%TO.P,K3,28,P28*%
%TO.N,unconnected-(K3-Pad28)*%
X91900000Y-182399940D03*
%TO.P,K3,29,P29*%
%TO.N,unconnected-(K3-Pad29)*%
X86900000Y-184900000D03*
%TO.P,K3,30,P30*%
%TO.N,unconnected-(K3-Pad30)*%
X91900000Y-187400000D03*
%TO.P,K3,31,P31*%
%TO.N,unconnected-(K3-Pad31)*%
X86900000Y-189900000D03*
D21*
%TO.P,K3,H1*%
%TO.N,N/C*%
X89400000Y-109900000D03*
%TO.P,K3,H2*%
X89400000Y-194900000D03*
%TD*%
D22*
%TO.N,/LN*%
X145759360Y-114900000D02*
X152900000Y-122040640D01*
X86900000Y-114900000D02*
X61500000Y-114900000D01*
X137700000Y-114900000D02*
X145759360Y-114900000D01*
X137700000Y-114900000D02*
X112300000Y-114900000D01*
X112300000Y-114900000D02*
X86900000Y-114900000D01*
D23*
%TO.N,+12V*%
X150689340Y-137039340D02*
X152900000Y-137039340D01*
X144950000Y-119900000D02*
X148500000Y-123450000D01*
D24*
X75301800Y-131270800D02*
X71270800Y-131270800D01*
X77130600Y-131270800D02*
X77156000Y-131245400D01*
D23*
X122674000Y-117500400D02*
X132224400Y-117500400D01*
D24*
X71270800Y-131270800D02*
X69169600Y-129169600D01*
D23*
X83493800Y-119900000D02*
X86900000Y-119900000D01*
X94391800Y-119900000D02*
X96791400Y-117500400D01*
X148500000Y-134850000D02*
X150689340Y-137039340D01*
X108893800Y-119900000D02*
X112300000Y-119900000D01*
X132224400Y-117500400D02*
X134624000Y-119900000D01*
X112300000Y-119900000D02*
X120274400Y-119900000D01*
D24*
X75301800Y-131270800D02*
X77130600Y-131270800D01*
D23*
X61500000Y-119900000D02*
X69169600Y-119900000D01*
X137700000Y-119900000D02*
X144950000Y-119900000D01*
X134624000Y-119900000D02*
X137700000Y-119900000D01*
X86900000Y-119900000D02*
X94391800Y-119900000D01*
X106494200Y-117500400D02*
X108893800Y-119900000D01*
X69169600Y-119900000D02*
X71696200Y-117373400D01*
X148500000Y-123450000D02*
X148500000Y-134850000D01*
D24*
X69169600Y-129169600D02*
X69169600Y-119900000D01*
D23*
X71696200Y-117373400D02*
X80967200Y-117373400D01*
X80967200Y-117373400D02*
X83493800Y-119900000D01*
X96791400Y-117500400D02*
X106494200Y-117500400D01*
X120274400Y-119900000D02*
X122674000Y-117500400D01*
%TO.N,/OUT5*%
X137700000Y-133344366D02*
X127500000Y-123144366D01*
X137700000Y-134900000D02*
X137700000Y-133344366D01*
X127500000Y-123144366D02*
X127500000Y-122040660D01*
%TO.N,/FP1_A*%
X66500000Y-187400000D02*
X58691360Y-187400000D01*
X58691360Y-187400000D02*
X55110000Y-190981360D01*
%TO.N,/FP4_A*%
X56528580Y-162400000D02*
X55110000Y-160981420D01*
X66500000Y-162400000D02*
X56528580Y-162400000D01*
%TO.N,/FP3_A*%
X56528600Y-172400000D02*
X55110000Y-170981400D01*
X66500000Y-172400000D02*
X56528600Y-172400000D01*
%TO.N,/OUT4*%
X142700000Y-137400000D02*
X136711678Y-137400000D01*
X136711678Y-137400000D02*
X127500000Y-128188322D01*
X127500000Y-128188322D02*
X127500000Y-127039380D01*
%TO.N,/OUT6*%
X137700000Y-139900000D02*
X135359360Y-139900000D01*
X135359360Y-139900000D02*
X127500000Y-132040640D01*
%TO.N,/FP2_A*%
X55110000Y-180981380D02*
X60418620Y-180981380D01*
X60418620Y-180981380D02*
X61500000Y-179900000D01*
%TO.N,/FP6*%
X86900000Y-149900000D02*
X112300000Y-149900000D01*
X137700000Y-149900000D02*
X145050000Y-149900000D01*
X112300000Y-149900000D02*
X137700000Y-149900000D01*
X150210680Y-155060680D02*
X152900000Y-155060680D01*
X145050000Y-149900000D02*
X150210680Y-155060680D01*
%TO.N,/FP7*%
X152739300Y-144900000D02*
X152900000Y-145060700D01*
X86900000Y-144900000D02*
X112300000Y-144900000D01*
X112300000Y-144900000D02*
X137700000Y-144900000D01*
X137700000Y-144900000D02*
X152739300Y-144900000D01*
%TO.N,/FP2_D*%
X56528560Y-177401220D02*
X55110000Y-175982660D01*
X66500000Y-177401220D02*
X56528560Y-177401220D01*
%TO.N,/FP1*%
X78700000Y-154900000D02*
X86900000Y-154900000D01*
X149800000Y-159600000D02*
X149800000Y-163750000D01*
X86900000Y-154900000D02*
X112300000Y-154900000D01*
X73050000Y-186500000D02*
X73050000Y-160550000D01*
X73050000Y-160550000D02*
X78700000Y-154900000D01*
X149800000Y-163750000D02*
X151110660Y-165060660D01*
X69650000Y-189900000D02*
X73050000Y-186500000D01*
X112300000Y-154900000D02*
X137700000Y-154900000D01*
X137700000Y-154900000D02*
X145100000Y-154900000D01*
X145100000Y-154900000D02*
X149800000Y-159600000D01*
X61500000Y-189900000D02*
X69650000Y-189900000D01*
X151110660Y-165060660D02*
X152900000Y-165060660D01*
%TO.N,/FP4*%
X137700000Y-159900000D02*
X112300000Y-159900000D01*
X112300000Y-159900000D02*
X86900000Y-159900000D01*
%TO.N,/A7*%
X66500000Y-167400000D02*
X56527320Y-167400000D01*
X56527320Y-167400000D02*
X55110000Y-165982680D01*
%TO.N,/FP1_D*%
X56192640Y-184900000D02*
X55110000Y-185982640D01*
X61500000Y-184900000D02*
X56192640Y-184900000D01*
%TO.N,/FP4_D*%
X61500000Y-159900000D02*
X59027300Y-159900000D01*
X59027300Y-159900000D02*
X55110000Y-155982700D01*
%TO.N,/FP3*%
X142700000Y-157400000D02*
X146850000Y-161550000D01*
X146850000Y-161550000D02*
X146850000Y-166450000D01*
X146850000Y-166450000D02*
X150459380Y-170059380D01*
X150459380Y-170059380D02*
X152900000Y-170059380D01*
X117300000Y-157400000D02*
X91900000Y-157400000D01*
X142700000Y-157400000D02*
X117300000Y-157400000D01*
%TO.N,/FP5*%
X147300000Y-147400000D02*
X149959420Y-150059420D01*
X117300000Y-147400000D02*
X91900000Y-147400000D01*
X142700000Y-147400000D02*
X147300000Y-147400000D01*
X142700000Y-147400000D02*
X117300000Y-147400000D01*
X149959420Y-150059420D02*
X152900000Y-150059420D01*
%TO.N,/FP2*%
X117300000Y-152400000D02*
X91900000Y-152400000D01*
X70250000Y-178649940D02*
X70250000Y-158850000D01*
X66500000Y-182399940D02*
X70250000Y-178649940D01*
X142700000Y-152400000D02*
X117300000Y-152400000D01*
X70250000Y-158850000D02*
X76700000Y-152400000D01*
X76700000Y-152400000D02*
X91900000Y-152400000D01*
%TO.N,/G501Z*%
X111311678Y-137400000D02*
X102100000Y-128188322D01*
X117300000Y-137400000D02*
X111311678Y-137400000D01*
X102100000Y-128188322D02*
X102100000Y-127039380D01*
%TO.N,/G3Z*%
X81450000Y-134900000D02*
X86900000Y-134900000D01*
X61500000Y-129900000D02*
X61500000Y-131150000D01*
X77200000Y-139150000D02*
X81450000Y-134900000D01*
X61500000Y-131150000D02*
X65300000Y-134950000D01*
X68100000Y-134950000D02*
X72300000Y-139150000D01*
X65300000Y-134950000D02*
X68100000Y-134950000D01*
X72300000Y-139150000D02*
X77200000Y-139150000D01*
%TO.N,/G2Z*%
X83100000Y-137400000D02*
X78100000Y-142400000D01*
X78100000Y-142400000D02*
X66500000Y-142400000D01*
X91900000Y-137400000D02*
X83100000Y-137400000D01*
%TO.N,/OUT3*%
X142700000Y-162400000D02*
X130320660Y-162400000D01*
X130320660Y-162400000D02*
X127500000Y-165220660D01*
D24*
%TO.N,Net-(C1-Pad1)*%
X79950000Y-128654600D02*
X79950000Y-127664000D01*
X79899200Y-131296200D02*
X79950000Y-131245400D01*
X77800000Y-135200000D02*
X75770000Y-135200000D01*
X79950000Y-131245400D02*
X79950000Y-133050000D01*
X80559600Y-127054400D02*
X80559600Y-126241600D01*
X79950000Y-133050000D02*
X77800000Y-135200000D01*
X79950000Y-131245400D02*
X79950000Y-128654600D01*
X79950000Y-127664000D02*
X80559600Y-127054400D01*
%TO.N,Net-(JP1-Pad1)*%
X75682800Y-123727000D02*
X76444800Y-122965000D01*
X76444800Y-122965000D02*
X76444800Y-121923600D01*
X75682800Y-124158800D02*
X75682800Y-123727000D01*
X74946200Y-124158800D02*
X75682800Y-124158800D01*
X73777800Y-125327200D02*
X74946200Y-124158800D01*
X72685600Y-125327200D02*
X73777800Y-125327200D01*
%TO.N,Net-(Q1-Pad2)*%
X81448600Y-124209600D02*
X80432600Y-125225600D01*
X77156000Y-127791000D02*
X76571800Y-127206800D01*
X77156000Y-128654600D02*
X77156000Y-127791000D01*
X77537000Y-125225600D02*
X76571800Y-126190800D01*
X80432600Y-125225600D02*
X77537000Y-125225600D01*
X76571800Y-127206800D02*
X76571800Y-126190800D01*
%TO.N,Net-(Q1-Pad1)*%
X77460800Y-124158800D02*
X79619800Y-124158800D01*
X79619800Y-124158800D02*
X79670600Y-124209600D01*
X79670600Y-123320600D02*
X79238800Y-122888800D01*
X79670600Y-124209600D02*
X79670600Y-123320600D01*
X79238800Y-122888800D02*
X79238800Y-121923600D01*
D23*
%TO.N,/OUT1*%
X137700000Y-164900000D02*
X132819380Y-164900000D01*
X132819380Y-164900000D02*
X127500000Y-170219380D01*
%TO.N,/OUT2*%
X135320640Y-167400000D02*
X127500000Y-175220640D01*
X142700000Y-167400000D02*
X135320640Y-167400000D01*
%TO.N,/G1Z*%
X84750000Y-139900000D02*
X74750000Y-149900000D01*
X86900000Y-139900000D02*
X84750000Y-139900000D01*
X74750000Y-149900000D02*
X61500000Y-149900000D01*
%TO.N,/GW22_24Z*%
X79520660Y-162400000D02*
X91900000Y-162400000D01*
X76700000Y-165220660D02*
X79520660Y-162400000D01*
%TO.N,/GW21_G57*%
X66500000Y-152400000D02*
X58184640Y-152400000D01*
X58184640Y-152400000D02*
X55110000Y-149325360D01*
%TO.N,/G23_33_43*%
X60200000Y-127400000D02*
X58184580Y-125384580D01*
X58184580Y-125384580D02*
X58184580Y-122400000D01*
X66500000Y-127400000D02*
X60200000Y-127400000D01*
X58184580Y-122400000D02*
X55110000Y-119325420D01*
%TO.N,/G22_32_42*%
X61500000Y-139900000D02*
X60683340Y-139900000D01*
X60683340Y-139900000D02*
X55110000Y-134326660D01*
%TO.N,/G1_51*%
X61500000Y-144900000D02*
X60684620Y-144900000D01*
X60684620Y-144900000D02*
X55110000Y-139325380D01*
%TO.N,/G21_31_41*%
X66500000Y-147400000D02*
X58183360Y-147400000D01*
X58183360Y-147400000D02*
X55110000Y-144326640D01*
%TO.N,/GW1_2Z*%
X82019380Y-164900000D02*
X76700000Y-170219380D01*
X86900000Y-164900000D02*
X82019380Y-164900000D01*
%TO.N,/G503Z*%
X112300000Y-134900000D02*
X112300000Y-133344366D01*
X112300000Y-133344366D02*
X102100000Y-123144366D01*
X102100000Y-123144366D02*
X102100000Y-122040660D01*
%TO.N,/G500Z*%
X112300000Y-139900000D02*
X109959360Y-139900000D01*
X109959360Y-139900000D02*
X102100000Y-132040640D01*
%TO.N,/G505Z*%
X104920660Y-162400000D02*
X102100000Y-165220660D01*
X117300000Y-162400000D02*
X104920660Y-162400000D01*
%TO.N,/G604ZZ*%
X107419380Y-164900000D02*
X102100000Y-170219380D01*
X112300000Y-164900000D02*
X107419380Y-164900000D01*
%TO.N,/G504Z*%
X109920640Y-167400000D02*
X102100000Y-175220640D01*
X117300000Y-167400000D02*
X109920640Y-167400000D01*
%TO.N,/S4_FPA*%
X91900000Y-167400000D02*
X84520640Y-167400000D01*
X84520640Y-167400000D02*
X76700000Y-175220640D01*
%TD*%
M02*
