%TF.GenerationSoftware,KiCad,Pcbnew,(6.0.7)*%
%TF.CreationDate,2024-08-18T11:11:24+02:00*%
%TF.ProjectId,BP51,42503531-2e6b-4696-9361-645f70636258,0437 -*%
%TF.SameCoordinates,Original*%
%TF.FileFunction,Legend,Top*%
%TF.FilePolarity,Positive*%
%FSLAX46Y46*%
G04 Gerber Fmt 4.6, Leading zero omitted, Abs format (unit mm)*
G04 Created by KiCad (PCBNEW (6.0.7)) date 2024-08-18 11:11:24*
%MOMM*%
%LPD*%
G01*
G04 APERTURE LIST*
%ADD10C,0.508000*%
%ADD11C,0.304800*%
%ADD12C,0.127000*%
%ADD13C,0.152400*%
%ADD14C,0.203200*%
%ADD15R,1.524000X1.524000*%
%ADD16C,1.524000*%
%ADD17R,1.651000X1.651000*%
%ADD18C,1.651000*%
%ADD19C,6.400800*%
%ADD20R,3.048000X3.048000*%
%ADD21C,3.048000*%
%ADD22R,1.600200X1.830400*%
%ADD23R,1.600200X1.803400*%
%ADD24R,0.914400X0.914400*%
%ADD25C,2.200000*%
%ADD26C,4.000000*%
G04 APERTURE END LIST*
D10*
X86134285Y-98164347D02*
X87827619Y-98164347D01*
X86134285Y-100704347D01*
X87827619Y-100704347D01*
X88674285Y-100583395D02*
X89037142Y-100704347D01*
X89641904Y-100704347D01*
X89883809Y-100583395D01*
X90004761Y-100462442D01*
X90125714Y-100220538D01*
X90125714Y-99978633D01*
X90004761Y-99736728D01*
X89883809Y-99615776D01*
X89641904Y-99494823D01*
X89158095Y-99373871D01*
X88916190Y-99252919D01*
X88795238Y-99131966D01*
X88674285Y-98890061D01*
X88674285Y-98648157D01*
X88795238Y-98406252D01*
X88916190Y-98285300D01*
X89158095Y-98164347D01*
X89762857Y-98164347D01*
X90125714Y-98285300D01*
X91577142Y-99252919D02*
X91335238Y-99131966D01*
X91214285Y-99011014D01*
X91093333Y-98769109D01*
X91093333Y-98648157D01*
X91214285Y-98406252D01*
X91335238Y-98285300D01*
X91577142Y-98164347D01*
X92060952Y-98164347D01*
X92302857Y-98285300D01*
X92423809Y-98406252D01*
X92544761Y-98648157D01*
X92544761Y-98769109D01*
X92423809Y-99011014D01*
X92302857Y-99131966D01*
X92060952Y-99252919D01*
X91577142Y-99252919D01*
X91335238Y-99373871D01*
X91214285Y-99494823D01*
X91093333Y-99736728D01*
X91093333Y-100220538D01*
X91214285Y-100462442D01*
X91335238Y-100583395D01*
X91577142Y-100704347D01*
X92060952Y-100704347D01*
X92302857Y-100583395D01*
X92423809Y-100462442D01*
X92544761Y-100220538D01*
X92544761Y-99736728D01*
X92423809Y-99494823D01*
X92302857Y-99373871D01*
X92060952Y-99252919D01*
X88916190Y-104793747D02*
X87464761Y-104793747D01*
X88190476Y-104793747D02*
X88190476Y-102253747D01*
X87948571Y-102616604D01*
X87706666Y-102858509D01*
X87464761Y-102979461D01*
X91093333Y-103100414D02*
X91093333Y-104793747D01*
X90488571Y-102132795D02*
X89883809Y-103947080D01*
X91456190Y-103947080D01*
D11*
X146023834Y-155502835D02*
X145600500Y-155502835D01*
X145600500Y-156168073D02*
X145600500Y-154898073D01*
X146205262Y-154898073D01*
X146689072Y-156168073D02*
X146689072Y-154898073D01*
X147172881Y-154898073D01*
X147293834Y-154958550D01*
X147354310Y-155019026D01*
X147414786Y-155139978D01*
X147414786Y-155321407D01*
X147354310Y-155442359D01*
X147293834Y-155502835D01*
X147172881Y-155563311D01*
X146689072Y-155563311D01*
X147838120Y-154898073D02*
X148684786Y-154898073D01*
X148140500Y-156168073D01*
X146023834Y-157547535D02*
X145600500Y-157547535D01*
X145600500Y-158212773D02*
X145600500Y-156942773D01*
X146205262Y-156942773D01*
X146689072Y-158212773D02*
X146689072Y-156942773D01*
X147172881Y-156942773D01*
X147293834Y-157003250D01*
X147354310Y-157063726D01*
X147414786Y-157184678D01*
X147414786Y-157366107D01*
X147354310Y-157487059D01*
X147293834Y-157547535D01*
X147172881Y-157608011D01*
X146689072Y-157608011D01*
X148563834Y-156942773D02*
X147959072Y-156942773D01*
X147898596Y-157547535D01*
X147959072Y-157487059D01*
X148080024Y-157426583D01*
X148382405Y-157426583D01*
X148503358Y-157487059D01*
X148563834Y-157547535D01*
X148624310Y-157668488D01*
X148624310Y-157970869D01*
X148563834Y-158091821D01*
X148503358Y-158152297D01*
X148382405Y-158212773D01*
X148080024Y-158212773D01*
X147959072Y-158152297D01*
X147898596Y-158091821D01*
X146023834Y-159592235D02*
X145600500Y-159592235D01*
X145600500Y-160257473D02*
X145600500Y-158987473D01*
X146205262Y-158987473D01*
X146689072Y-160257473D02*
X146689072Y-158987473D01*
X147172881Y-158987473D01*
X147293834Y-159047950D01*
X147354310Y-159108426D01*
X147414786Y-159229378D01*
X147414786Y-159410807D01*
X147354310Y-159531759D01*
X147293834Y-159592235D01*
X147172881Y-159652711D01*
X146689072Y-159652711D01*
X148503358Y-158987473D02*
X148261453Y-158987473D01*
X148140500Y-159047950D01*
X148080024Y-159108426D01*
X147959072Y-159289854D01*
X147898596Y-159531759D01*
X147898596Y-160015569D01*
X147959072Y-160136521D01*
X148019548Y-160196997D01*
X148140500Y-160257473D01*
X148382405Y-160257473D01*
X148503358Y-160196997D01*
X148563834Y-160136521D01*
X148624310Y-160015569D01*
X148624310Y-159713188D01*
X148563834Y-159592235D01*
X148503358Y-159531759D01*
X148382405Y-159471283D01*
X148140500Y-159471283D01*
X148019548Y-159531759D01*
X147959072Y-159592235D01*
X147898596Y-159713188D01*
X146023834Y-161636935D02*
X145600500Y-161636935D01*
X145600500Y-162302173D02*
X145600500Y-161032173D01*
X146205262Y-161032173D01*
X146689072Y-162302173D02*
X146689072Y-161032173D01*
X147172881Y-161032173D01*
X147293834Y-161092650D01*
X147354310Y-161153126D01*
X147414786Y-161274078D01*
X147414786Y-161455507D01*
X147354310Y-161576459D01*
X147293834Y-161636935D01*
X147172881Y-161697411D01*
X146689072Y-161697411D01*
X147898596Y-161153126D02*
X147959072Y-161092650D01*
X148080024Y-161032173D01*
X148382405Y-161032173D01*
X148503358Y-161092650D01*
X148563834Y-161153126D01*
X148624310Y-161274078D01*
X148624310Y-161395030D01*
X148563834Y-161576459D01*
X147838120Y-162302173D01*
X148624310Y-162302173D01*
X146023834Y-163681635D02*
X145600500Y-163681635D01*
X145600500Y-164346873D02*
X145600500Y-163076873D01*
X146205262Y-163076873D01*
X146689072Y-164346873D02*
X146689072Y-163076873D01*
X147172881Y-163076873D01*
X147293834Y-163137350D01*
X147354310Y-163197826D01*
X147414786Y-163318778D01*
X147414786Y-163500207D01*
X147354310Y-163621159D01*
X147293834Y-163681635D01*
X147172881Y-163742111D01*
X146689072Y-163742111D01*
X148624310Y-164346873D02*
X147898596Y-164346873D01*
X148261453Y-164346873D02*
X148261453Y-163076873D01*
X148140500Y-163258302D01*
X148019548Y-163379254D01*
X147898596Y-163439730D01*
X146023834Y-165726335D02*
X145600500Y-165726335D01*
X145600500Y-166391573D02*
X145600500Y-165121573D01*
X146205262Y-165121573D01*
X146689072Y-166391573D02*
X146689072Y-165121573D01*
X147172881Y-165121573D01*
X147293834Y-165182050D01*
X147354310Y-165242526D01*
X147414786Y-165363478D01*
X147414786Y-165544907D01*
X147354310Y-165665859D01*
X147293834Y-165726335D01*
X147172881Y-165786811D01*
X146689072Y-165786811D01*
X147838120Y-165121573D02*
X148624310Y-165121573D01*
X148200977Y-165605383D01*
X148382405Y-165605383D01*
X148503358Y-165665859D01*
X148563834Y-165726335D01*
X148624310Y-165847288D01*
X148624310Y-166149669D01*
X148563834Y-166270621D01*
X148503358Y-166331097D01*
X148382405Y-166391573D01*
X148019548Y-166391573D01*
X147898596Y-166331097D01*
X147838120Y-166270621D01*
X146023834Y-167771035D02*
X145600500Y-167771035D01*
X145600500Y-168436273D02*
X145600500Y-167166273D01*
X146205262Y-167166273D01*
X146689072Y-168436273D02*
X146689072Y-167166273D01*
X147172881Y-167166273D01*
X147293834Y-167226750D01*
X147354310Y-167287226D01*
X147414786Y-167408178D01*
X147414786Y-167589607D01*
X147354310Y-167710559D01*
X147293834Y-167771035D01*
X147172881Y-167831511D01*
X146689072Y-167831511D01*
X148503358Y-167589607D02*
X148503358Y-168436273D01*
X148200977Y-167105797D02*
X147898596Y-168012940D01*
X148684786Y-168012940D01*
X146265739Y-169271450D02*
X146144786Y-169210973D01*
X145963358Y-169210973D01*
X145781929Y-169271450D01*
X145660977Y-169392402D01*
X145600500Y-169513354D01*
X145540024Y-169755259D01*
X145540024Y-169936688D01*
X145600500Y-170178592D01*
X145660977Y-170299545D01*
X145781929Y-170420497D01*
X145963358Y-170480973D01*
X146084310Y-170480973D01*
X146265739Y-170420497D01*
X146326215Y-170360021D01*
X146326215Y-169936688D01*
X146084310Y-169936688D01*
X146870500Y-170480973D02*
X146870500Y-169210973D01*
X147596215Y-170480973D01*
X147596215Y-169210973D01*
X148200977Y-170480973D02*
X148200977Y-169210973D01*
X148503358Y-169210973D01*
X148684786Y-169271450D01*
X148805739Y-169392402D01*
X148866215Y-169513354D01*
X148926691Y-169755259D01*
X148926691Y-169936688D01*
X148866215Y-170178592D01*
X148805739Y-170299545D01*
X148684786Y-170420497D01*
X148503358Y-170480973D01*
X148200977Y-170480973D01*
D10*
X61943809Y-99373871D02*
X61097142Y-99373871D01*
X61097142Y-100704347D02*
X61097142Y-98164347D01*
X62306666Y-98164347D01*
X63153333Y-100583395D02*
X63516190Y-100704347D01*
X64120952Y-100704347D01*
X64362857Y-100583395D01*
X64483809Y-100462442D01*
X64604761Y-100220538D01*
X64604761Y-99978633D01*
X64483809Y-99736728D01*
X64362857Y-99615776D01*
X64120952Y-99494823D01*
X63637142Y-99373871D01*
X63395238Y-99252919D01*
X63274285Y-99131966D01*
X63153333Y-98890061D01*
X63153333Y-98648157D01*
X63274285Y-98406252D01*
X63395238Y-98285300D01*
X63637142Y-98164347D01*
X64241904Y-98164347D01*
X64604761Y-98285300D01*
X65451428Y-98164347D02*
X67144761Y-98164347D01*
X65451428Y-100704347D01*
X67144761Y-100704347D01*
X63516190Y-104793747D02*
X62064761Y-104793747D01*
X62790476Y-104793747D02*
X62790476Y-102253747D01*
X62548571Y-102616604D01*
X62306666Y-102858509D01*
X62064761Y-102979461D01*
X64725714Y-104793747D02*
X65209523Y-104793747D01*
X65451428Y-104672795D01*
X65572380Y-104551842D01*
X65814285Y-104188985D01*
X65935238Y-103705176D01*
X65935238Y-102737557D01*
X65814285Y-102495652D01*
X65693333Y-102374700D01*
X65451428Y-102253747D01*
X64967619Y-102253747D01*
X64725714Y-102374700D01*
X64604761Y-102495652D01*
X64483809Y-102737557D01*
X64483809Y-103342319D01*
X64604761Y-103584223D01*
X64725714Y-103705176D01*
X64967619Y-103826128D01*
X65451428Y-103826128D01*
X65693333Y-103705176D01*
X65814285Y-103584223D01*
X65935238Y-103342319D01*
X136934285Y-98164347D02*
X138627619Y-98164347D01*
X136934285Y-100704347D01*
X138627619Y-100704347D01*
X139474285Y-100583395D02*
X139837142Y-100704347D01*
X140441904Y-100704347D01*
X140683809Y-100583395D01*
X140804761Y-100462442D01*
X140925714Y-100220538D01*
X140925714Y-99978633D01*
X140804761Y-99736728D01*
X140683809Y-99615776D01*
X140441904Y-99494823D01*
X139958095Y-99373871D01*
X139716190Y-99252919D01*
X139595238Y-99131966D01*
X139474285Y-98890061D01*
X139474285Y-98648157D01*
X139595238Y-98406252D01*
X139716190Y-98285300D01*
X139958095Y-98164347D01*
X140562857Y-98164347D01*
X140925714Y-98285300D01*
X142377142Y-99252919D02*
X142135238Y-99131966D01*
X142014285Y-99011014D01*
X141893333Y-98769109D01*
X141893333Y-98648157D01*
X142014285Y-98406252D01*
X142135238Y-98285300D01*
X142377142Y-98164347D01*
X142860952Y-98164347D01*
X143102857Y-98285300D01*
X143223809Y-98406252D01*
X143344761Y-98648157D01*
X143344761Y-98769109D01*
X143223809Y-99011014D01*
X143102857Y-99131966D01*
X142860952Y-99252919D01*
X142377142Y-99252919D01*
X142135238Y-99373871D01*
X142014285Y-99494823D01*
X141893333Y-99736728D01*
X141893333Y-100220538D01*
X142014285Y-100462442D01*
X142135238Y-100583395D01*
X142377142Y-100704347D01*
X142860952Y-100704347D01*
X143102857Y-100583395D01*
X143223809Y-100462442D01*
X143344761Y-100220538D01*
X143344761Y-99736728D01*
X143223809Y-99494823D01*
X143102857Y-99373871D01*
X142860952Y-99252919D01*
X138869523Y-102253747D02*
X139111428Y-102253747D01*
X139353333Y-102374700D01*
X139474285Y-102495652D01*
X139595238Y-102737557D01*
X139716190Y-103221366D01*
X139716190Y-103826128D01*
X139595238Y-104309938D01*
X139474285Y-104551842D01*
X139353333Y-104672795D01*
X139111428Y-104793747D01*
X138869523Y-104793747D01*
X138627619Y-104672795D01*
X138506666Y-104551842D01*
X138385714Y-104309938D01*
X138264761Y-103826128D01*
X138264761Y-103221366D01*
X138385714Y-102737557D01*
X138506666Y-102495652D01*
X138627619Y-102374700D01*
X138869523Y-102253747D01*
X141893333Y-103100414D02*
X141893333Y-104793747D01*
X141288571Y-102132795D02*
X140683809Y-103947080D01*
X142256190Y-103947080D01*
X111534285Y-98164347D02*
X113227619Y-98164347D01*
X111534285Y-100704347D01*
X113227619Y-100704347D01*
X114074285Y-100583395D02*
X114437142Y-100704347D01*
X115041904Y-100704347D01*
X115283809Y-100583395D01*
X115404761Y-100462442D01*
X115525714Y-100220538D01*
X115525714Y-99978633D01*
X115404761Y-99736728D01*
X115283809Y-99615776D01*
X115041904Y-99494823D01*
X114558095Y-99373871D01*
X114316190Y-99252919D01*
X114195238Y-99131966D01*
X114074285Y-98890061D01*
X114074285Y-98648157D01*
X114195238Y-98406252D01*
X114316190Y-98285300D01*
X114558095Y-98164347D01*
X115162857Y-98164347D01*
X115525714Y-98285300D01*
X116977142Y-99252919D02*
X116735238Y-99131966D01*
X116614285Y-99011014D01*
X116493333Y-98769109D01*
X116493333Y-98648157D01*
X116614285Y-98406252D01*
X116735238Y-98285300D01*
X116977142Y-98164347D01*
X117460952Y-98164347D01*
X117702857Y-98285300D01*
X117823809Y-98406252D01*
X117944761Y-98648157D01*
X117944761Y-98769109D01*
X117823809Y-99011014D01*
X117702857Y-99131966D01*
X117460952Y-99252919D01*
X116977142Y-99252919D01*
X116735238Y-99373871D01*
X116614285Y-99494823D01*
X116493333Y-99736728D01*
X116493333Y-100220538D01*
X116614285Y-100462442D01*
X116735238Y-100583395D01*
X116977142Y-100704347D01*
X117460952Y-100704347D01*
X117702857Y-100583395D01*
X117823809Y-100462442D01*
X117944761Y-100220538D01*
X117944761Y-99736728D01*
X117823809Y-99494823D01*
X117702857Y-99373871D01*
X117460952Y-99252919D01*
X113469523Y-102253747D02*
X113711428Y-102253747D01*
X113953333Y-102374700D01*
X114074285Y-102495652D01*
X114195238Y-102737557D01*
X114316190Y-103221366D01*
X114316190Y-103826128D01*
X114195238Y-104309938D01*
X114074285Y-104551842D01*
X113953333Y-104672795D01*
X113711428Y-104793747D01*
X113469523Y-104793747D01*
X113227619Y-104672795D01*
X113106666Y-104551842D01*
X112985714Y-104309938D01*
X112864761Y-103826128D01*
X112864761Y-103221366D01*
X112985714Y-102737557D01*
X113106666Y-102495652D01*
X113227619Y-102374700D01*
X113469523Y-102253747D01*
X115525714Y-104793747D02*
X116009523Y-104793747D01*
X116251428Y-104672795D01*
X116372380Y-104551842D01*
X116614285Y-104188985D01*
X116735238Y-103705176D01*
X116735238Y-102737557D01*
X116614285Y-102495652D01*
X116493333Y-102374700D01*
X116251428Y-102253747D01*
X115767619Y-102253747D01*
X115525714Y-102374700D01*
X115404761Y-102495652D01*
X115283809Y-102737557D01*
X115283809Y-103342319D01*
X115404761Y-103584223D01*
X115525714Y-103705176D01*
X115767619Y-103826128D01*
X116251428Y-103826128D01*
X116493333Y-103705176D01*
X116614285Y-103584223D01*
X116735238Y-103342319D01*
D11*
X99455739Y-184257950D02*
X99334786Y-184197473D01*
X99153358Y-184197473D01*
X98971929Y-184257950D01*
X98850977Y-184378902D01*
X98790500Y-184499854D01*
X98730024Y-184741759D01*
X98730024Y-184923188D01*
X98790500Y-185165092D01*
X98850977Y-185286045D01*
X98971929Y-185406997D01*
X99153358Y-185467473D01*
X99274310Y-185467473D01*
X99455739Y-185406997D01*
X99516215Y-185346521D01*
X99516215Y-184923188D01*
X99274310Y-184923188D01*
X100665262Y-184197473D02*
X100060500Y-184197473D01*
X100000024Y-184802235D01*
X100060500Y-184741759D01*
X100181453Y-184681283D01*
X100483834Y-184681283D01*
X100604786Y-184741759D01*
X100665262Y-184802235D01*
X100725739Y-184923188D01*
X100725739Y-185225569D01*
X100665262Y-185346521D01*
X100604786Y-185406997D01*
X100483834Y-185467473D01*
X100181453Y-185467473D01*
X100060500Y-185406997D01*
X100000024Y-185346521D01*
X101511929Y-184197473D02*
X101632881Y-184197473D01*
X101753834Y-184257950D01*
X101814310Y-184318426D01*
X101874786Y-184439378D01*
X101935262Y-184681283D01*
X101935262Y-184983664D01*
X101874786Y-185225569D01*
X101814310Y-185346521D01*
X101753834Y-185406997D01*
X101632881Y-185467473D01*
X101511929Y-185467473D01*
X101390977Y-185406997D01*
X101330500Y-185346521D01*
X101270024Y-185225569D01*
X101209548Y-184983664D01*
X101209548Y-184681283D01*
X101270024Y-184439378D01*
X101330500Y-184318426D01*
X101390977Y-184257950D01*
X101511929Y-184197473D01*
X103084310Y-184197473D02*
X102479548Y-184197473D01*
X102419072Y-184802235D01*
X102479548Y-184741759D01*
X102600500Y-184681283D01*
X102902881Y-184681283D01*
X103023834Y-184741759D01*
X103084310Y-184802235D01*
X103144786Y-184923188D01*
X103144786Y-185225569D01*
X103084310Y-185346521D01*
X103023834Y-185406997D01*
X102902881Y-185467473D01*
X102600500Y-185467473D01*
X102479548Y-185406997D01*
X102419072Y-185346521D01*
X99455739Y-186302650D02*
X99334786Y-186242173D01*
X99153358Y-186242173D01*
X98971929Y-186302650D01*
X98850977Y-186423602D01*
X98790500Y-186544554D01*
X98730024Y-186786459D01*
X98730024Y-186967888D01*
X98790500Y-187209792D01*
X98850977Y-187330745D01*
X98971929Y-187451697D01*
X99153358Y-187512173D01*
X99274310Y-187512173D01*
X99455739Y-187451697D01*
X99516215Y-187391221D01*
X99516215Y-186967888D01*
X99274310Y-186967888D01*
X100604786Y-186242173D02*
X100362881Y-186242173D01*
X100241929Y-186302650D01*
X100181453Y-186363126D01*
X100060500Y-186544554D01*
X100000024Y-186786459D01*
X100000024Y-187270269D01*
X100060500Y-187391221D01*
X100120977Y-187451697D01*
X100241929Y-187512173D01*
X100483834Y-187512173D01*
X100604786Y-187451697D01*
X100665262Y-187391221D01*
X100725739Y-187270269D01*
X100725739Y-186967888D01*
X100665262Y-186846935D01*
X100604786Y-186786459D01*
X100483834Y-186725983D01*
X100241929Y-186725983D01*
X100120977Y-186786459D01*
X100060500Y-186846935D01*
X100000024Y-186967888D01*
X101511929Y-186242173D02*
X101632881Y-186242173D01*
X101753834Y-186302650D01*
X101814310Y-186363126D01*
X101874786Y-186484078D01*
X101935262Y-186725983D01*
X101935262Y-187028364D01*
X101874786Y-187270269D01*
X101814310Y-187391221D01*
X101753834Y-187451697D01*
X101632881Y-187512173D01*
X101511929Y-187512173D01*
X101390977Y-187451697D01*
X101330500Y-187391221D01*
X101270024Y-187270269D01*
X101209548Y-187028364D01*
X101209548Y-186725983D01*
X101270024Y-186484078D01*
X101330500Y-186363126D01*
X101390977Y-186302650D01*
X101511929Y-186242173D01*
X103023834Y-186665507D02*
X103023834Y-187512173D01*
X102721453Y-186181697D02*
X102419072Y-187088840D01*
X103205262Y-187088840D01*
X99455739Y-188347350D02*
X99334786Y-188286873D01*
X99153358Y-188286873D01*
X98971929Y-188347350D01*
X98850977Y-188468302D01*
X98790500Y-188589254D01*
X98730024Y-188831159D01*
X98730024Y-189012588D01*
X98790500Y-189254492D01*
X98850977Y-189375445D01*
X98971929Y-189496397D01*
X99153358Y-189556873D01*
X99274310Y-189556873D01*
X99455739Y-189496397D01*
X99516215Y-189435921D01*
X99516215Y-189012588D01*
X99274310Y-189012588D01*
X100665262Y-188286873D02*
X100060500Y-188286873D01*
X100000024Y-188891635D01*
X100060500Y-188831159D01*
X100181453Y-188770683D01*
X100483834Y-188770683D01*
X100604786Y-188831159D01*
X100665262Y-188891635D01*
X100725739Y-189012588D01*
X100725739Y-189314969D01*
X100665262Y-189435921D01*
X100604786Y-189496397D01*
X100483834Y-189556873D01*
X100181453Y-189556873D01*
X100060500Y-189496397D01*
X100000024Y-189435921D01*
X101511929Y-188286873D02*
X101632881Y-188286873D01*
X101753834Y-188347350D01*
X101814310Y-188407826D01*
X101874786Y-188528778D01*
X101935262Y-188770683D01*
X101935262Y-189073064D01*
X101874786Y-189314969D01*
X101814310Y-189435921D01*
X101753834Y-189496397D01*
X101632881Y-189556873D01*
X101511929Y-189556873D01*
X101390977Y-189496397D01*
X101330500Y-189435921D01*
X101270024Y-189314969D01*
X101209548Y-189073064D01*
X101209548Y-188770683D01*
X101270024Y-188528778D01*
X101330500Y-188407826D01*
X101390977Y-188347350D01*
X101511929Y-188286873D01*
X103023834Y-188710207D02*
X103023834Y-189556873D01*
X102721453Y-188226397D02*
X102419072Y-189133540D01*
X103205262Y-189133540D01*
X99455739Y-190392050D02*
X99334786Y-190331573D01*
X99153358Y-190331573D01*
X98971929Y-190392050D01*
X98850977Y-190513002D01*
X98790500Y-190633954D01*
X98730024Y-190875859D01*
X98730024Y-191057288D01*
X98790500Y-191299192D01*
X98850977Y-191420145D01*
X98971929Y-191541097D01*
X99153358Y-191601573D01*
X99274310Y-191601573D01*
X99455739Y-191541097D01*
X99516215Y-191480621D01*
X99516215Y-191057288D01*
X99274310Y-191057288D01*
X100060500Y-191601573D02*
X100060500Y-190331573D01*
X100786215Y-191601573D01*
X100786215Y-190331573D01*
X101390977Y-191601573D02*
X101390977Y-190331573D01*
X101693358Y-190331573D01*
X101874786Y-190392050D01*
X101995739Y-190513002D01*
X102056215Y-190633954D01*
X102116691Y-190875859D01*
X102116691Y-191057288D01*
X102056215Y-191299192D01*
X101995739Y-191420145D01*
X101874786Y-191541097D01*
X101693358Y-191601573D01*
X101390977Y-191601573D01*
X43223834Y-159078385D02*
X42800500Y-159078385D01*
X42800500Y-159743623D02*
X42800500Y-158473623D01*
X43405262Y-158473623D01*
X43889072Y-159743623D02*
X43889072Y-158473623D01*
X44372881Y-158473623D01*
X44493834Y-158534100D01*
X44554310Y-158594576D01*
X44614786Y-158715528D01*
X44614786Y-158896957D01*
X44554310Y-159017909D01*
X44493834Y-159078385D01*
X44372881Y-159138861D01*
X43889072Y-159138861D01*
X45703358Y-158896957D02*
X45703358Y-159743623D01*
X45400977Y-158413147D02*
X45098596Y-159320290D01*
X45884786Y-159320290D01*
X46066215Y-159864576D02*
X47033834Y-159864576D01*
X47336215Y-159743623D02*
X47336215Y-158473623D01*
X47638596Y-158473623D01*
X47820024Y-158534100D01*
X47940977Y-158655052D01*
X48001453Y-158776004D01*
X48061929Y-159017909D01*
X48061929Y-159199338D01*
X48001453Y-159441242D01*
X47940977Y-159562195D01*
X47820024Y-159683147D01*
X47638596Y-159743623D01*
X47336215Y-159743623D01*
X43223834Y-163167785D02*
X42800500Y-163167785D01*
X42800500Y-163833023D02*
X42800500Y-162563023D01*
X43405262Y-162563023D01*
X43889072Y-163833023D02*
X43889072Y-162563023D01*
X44372881Y-162563023D01*
X44493834Y-162623500D01*
X44554310Y-162683976D01*
X44614786Y-162804928D01*
X44614786Y-162986357D01*
X44554310Y-163107309D01*
X44493834Y-163167785D01*
X44372881Y-163228261D01*
X43889072Y-163228261D01*
X45703358Y-162986357D02*
X45703358Y-163833023D01*
X45400977Y-162502547D02*
X45098596Y-163409690D01*
X45884786Y-163409690D01*
X46066215Y-163953976D02*
X47033834Y-163953976D01*
X47275739Y-163470166D02*
X47880500Y-163470166D01*
X47154786Y-163833023D02*
X47578120Y-162563023D01*
X48001453Y-163833023D01*
X42740024Y-167559566D02*
X43344786Y-167559566D01*
X42619072Y-167922423D02*
X43042405Y-166652423D01*
X43465739Y-167922423D01*
X43768120Y-166652423D02*
X44614786Y-166652423D01*
X44070500Y-167922423D01*
X43223834Y-171346585D02*
X42800500Y-171346585D01*
X42800500Y-172011823D02*
X42800500Y-170741823D01*
X43405262Y-170741823D01*
X43889072Y-172011823D02*
X43889072Y-170741823D01*
X44372881Y-170741823D01*
X44493834Y-170802300D01*
X44554310Y-170862776D01*
X44614786Y-170983728D01*
X44614786Y-171165157D01*
X44554310Y-171286109D01*
X44493834Y-171346585D01*
X44372881Y-171407061D01*
X43889072Y-171407061D01*
X45038120Y-170741823D02*
X45824310Y-170741823D01*
X45400977Y-171225633D01*
X45582405Y-171225633D01*
X45703358Y-171286109D01*
X45763834Y-171346585D01*
X45824310Y-171467538D01*
X45824310Y-171769919D01*
X45763834Y-171890871D01*
X45703358Y-171951347D01*
X45582405Y-172011823D01*
X45219548Y-172011823D01*
X45098596Y-171951347D01*
X45038120Y-171890871D01*
X46066215Y-172132776D02*
X47033834Y-172132776D01*
X47275739Y-171648966D02*
X47880500Y-171648966D01*
X47154786Y-172011823D02*
X47578120Y-170741823D01*
X48001453Y-172011823D01*
X43223834Y-175435985D02*
X42800500Y-175435985D01*
X42800500Y-176101223D02*
X42800500Y-174831223D01*
X43405262Y-174831223D01*
X43889072Y-176101223D02*
X43889072Y-174831223D01*
X44372881Y-174831223D01*
X44493834Y-174891700D01*
X44554310Y-174952176D01*
X44614786Y-175073128D01*
X44614786Y-175254557D01*
X44554310Y-175375509D01*
X44493834Y-175435985D01*
X44372881Y-175496461D01*
X43889072Y-175496461D01*
X45098596Y-174952176D02*
X45159072Y-174891700D01*
X45280024Y-174831223D01*
X45582405Y-174831223D01*
X45703358Y-174891700D01*
X45763834Y-174952176D01*
X45824310Y-175073128D01*
X45824310Y-175194080D01*
X45763834Y-175375509D01*
X45038120Y-176101223D01*
X45824310Y-176101223D01*
X46066215Y-176222176D02*
X47033834Y-176222176D01*
X47336215Y-176101223D02*
X47336215Y-174831223D01*
X47638596Y-174831223D01*
X47820024Y-174891700D01*
X47940977Y-175012652D01*
X48001453Y-175133604D01*
X48061929Y-175375509D01*
X48061929Y-175556938D01*
X48001453Y-175798842D01*
X47940977Y-175919795D01*
X47820024Y-176040747D01*
X47638596Y-176101223D01*
X47336215Y-176101223D01*
X43223834Y-179525385D02*
X42800500Y-179525385D01*
X42800500Y-180190623D02*
X42800500Y-178920623D01*
X43405262Y-178920623D01*
X43889072Y-180190623D02*
X43889072Y-178920623D01*
X44372881Y-178920623D01*
X44493834Y-178981100D01*
X44554310Y-179041576D01*
X44614786Y-179162528D01*
X44614786Y-179343957D01*
X44554310Y-179464909D01*
X44493834Y-179525385D01*
X44372881Y-179585861D01*
X43889072Y-179585861D01*
X45098596Y-179041576D02*
X45159072Y-178981100D01*
X45280024Y-178920623D01*
X45582405Y-178920623D01*
X45703358Y-178981100D01*
X45763834Y-179041576D01*
X45824310Y-179162528D01*
X45824310Y-179283480D01*
X45763834Y-179464909D01*
X45038120Y-180190623D01*
X45824310Y-180190623D01*
X46066215Y-180311576D02*
X47033834Y-180311576D01*
X47275739Y-179827766D02*
X47880500Y-179827766D01*
X47154786Y-180190623D02*
X47578120Y-178920623D01*
X48001453Y-180190623D01*
X43223834Y-183614785D02*
X42800500Y-183614785D01*
X42800500Y-184280023D02*
X42800500Y-183010023D01*
X43405262Y-183010023D01*
X43889072Y-184280023D02*
X43889072Y-183010023D01*
X44372881Y-183010023D01*
X44493834Y-183070500D01*
X44554310Y-183130976D01*
X44614786Y-183251928D01*
X44614786Y-183433357D01*
X44554310Y-183554309D01*
X44493834Y-183614785D01*
X44372881Y-183675261D01*
X43889072Y-183675261D01*
X45824310Y-184280023D02*
X45098596Y-184280023D01*
X45461453Y-184280023D02*
X45461453Y-183010023D01*
X45340500Y-183191452D01*
X45219548Y-183312404D01*
X45098596Y-183372880D01*
X46066215Y-184400976D02*
X47033834Y-184400976D01*
X47336215Y-184280023D02*
X47336215Y-183010023D01*
X47638596Y-183010023D01*
X47820024Y-183070500D01*
X47940977Y-183191452D01*
X48001453Y-183312404D01*
X48061929Y-183554309D01*
X48061929Y-183735738D01*
X48001453Y-183977642D01*
X47940977Y-184098595D01*
X47820024Y-184219547D01*
X47638596Y-184280023D01*
X47336215Y-184280023D01*
X43223834Y-187704185D02*
X42800500Y-187704185D01*
X42800500Y-188369423D02*
X42800500Y-187099423D01*
X43405262Y-187099423D01*
X43889072Y-188369423D02*
X43889072Y-187099423D01*
X44372881Y-187099423D01*
X44493834Y-187159900D01*
X44554310Y-187220376D01*
X44614786Y-187341328D01*
X44614786Y-187522757D01*
X44554310Y-187643709D01*
X44493834Y-187704185D01*
X44372881Y-187764661D01*
X43889072Y-187764661D01*
X45824310Y-188369423D02*
X45098596Y-188369423D01*
X45461453Y-188369423D02*
X45461453Y-187099423D01*
X45340500Y-187280852D01*
X45219548Y-187401804D01*
X45098596Y-187462280D01*
X46066215Y-188490376D02*
X47033834Y-188490376D01*
X47275739Y-188006566D02*
X47880500Y-188006566D01*
X47154786Y-188369423D02*
X47578120Y-187099423D01*
X48001453Y-188369423D01*
X42815739Y-114090350D02*
X42694786Y-114029873D01*
X42513358Y-114029873D01*
X42331929Y-114090350D01*
X42210977Y-114211302D01*
X42150500Y-114332254D01*
X42090024Y-114574159D01*
X42090024Y-114755588D01*
X42150500Y-114997492D01*
X42210977Y-115118445D01*
X42331929Y-115239397D01*
X42513358Y-115299873D01*
X42634310Y-115299873D01*
X42815739Y-115239397D01*
X42876215Y-115178921D01*
X42876215Y-114755588D01*
X42634310Y-114755588D01*
X43299548Y-114029873D02*
X44085739Y-114029873D01*
X43662405Y-114513683D01*
X43843834Y-114513683D01*
X43964786Y-114574159D01*
X44025262Y-114634635D01*
X44085739Y-114755588D01*
X44085739Y-115057969D01*
X44025262Y-115178921D01*
X43964786Y-115239397D01*
X43843834Y-115299873D01*
X43480977Y-115299873D01*
X43360024Y-115239397D01*
X43299548Y-115178921D01*
X45537167Y-113969397D02*
X44448596Y-115602254D01*
X46565262Y-114029873D02*
X45960500Y-114029873D01*
X45900024Y-114634635D01*
X45960500Y-114574159D01*
X46081453Y-114513683D01*
X46383834Y-114513683D01*
X46504786Y-114574159D01*
X46565262Y-114634635D01*
X46625739Y-114755588D01*
X46625739Y-115057969D01*
X46565262Y-115178921D01*
X46504786Y-115239397D01*
X46383834Y-115299873D01*
X46081453Y-115299873D01*
X45960500Y-115239397D01*
X45900024Y-115178921D01*
X47049072Y-114029873D02*
X47835262Y-114029873D01*
X47411929Y-114513683D01*
X47593358Y-114513683D01*
X47714310Y-114574159D01*
X47774786Y-114634635D01*
X47835262Y-114755588D01*
X47835262Y-115057969D01*
X47774786Y-115178921D01*
X47714310Y-115239397D01*
X47593358Y-115299873D01*
X47230500Y-115299873D01*
X47109548Y-115239397D01*
X47049072Y-115178921D01*
X42815739Y-118179750D02*
X42694786Y-118119273D01*
X42513358Y-118119273D01*
X42331929Y-118179750D01*
X42210977Y-118300702D01*
X42150500Y-118421654D01*
X42090024Y-118663559D01*
X42090024Y-118844988D01*
X42150500Y-119086892D01*
X42210977Y-119207845D01*
X42331929Y-119328797D01*
X42513358Y-119389273D01*
X42634310Y-119389273D01*
X42815739Y-119328797D01*
X42876215Y-119268321D01*
X42876215Y-118844988D01*
X42634310Y-118844988D01*
X43360024Y-118240226D02*
X43420500Y-118179750D01*
X43541453Y-118119273D01*
X43843834Y-118119273D01*
X43964786Y-118179750D01*
X44025262Y-118240226D01*
X44085739Y-118361178D01*
X44085739Y-118482130D01*
X44025262Y-118663559D01*
X43299548Y-119389273D01*
X44085739Y-119389273D01*
X44509072Y-118119273D02*
X45295262Y-118119273D01*
X44871929Y-118603083D01*
X45053358Y-118603083D01*
X45174310Y-118663559D01*
X45234786Y-118724035D01*
X45295262Y-118844988D01*
X45295262Y-119147369D01*
X45234786Y-119268321D01*
X45174310Y-119328797D01*
X45053358Y-119389273D01*
X44690500Y-119389273D01*
X44569548Y-119328797D01*
X44509072Y-119268321D01*
X46746691Y-118058797D02*
X45658120Y-119691654D01*
X47049072Y-118119273D02*
X47835262Y-118119273D01*
X47411929Y-118603083D01*
X47593358Y-118603083D01*
X47714310Y-118663559D01*
X47774786Y-118724035D01*
X47835262Y-118844988D01*
X47835262Y-119147369D01*
X47774786Y-119268321D01*
X47714310Y-119328797D01*
X47593358Y-119389273D01*
X47230500Y-119389273D01*
X47109548Y-119328797D01*
X47049072Y-119268321D01*
X48258596Y-118119273D02*
X49044786Y-118119273D01*
X48621453Y-118603083D01*
X48802881Y-118603083D01*
X48923834Y-118663559D01*
X48984310Y-118724035D01*
X49044786Y-118844988D01*
X49044786Y-119147369D01*
X48984310Y-119268321D01*
X48923834Y-119328797D01*
X48802881Y-119389273D01*
X48440024Y-119389273D01*
X48319072Y-119328797D01*
X48258596Y-119268321D01*
X50496215Y-118058797D02*
X49407643Y-119691654D01*
X42694786Y-120587307D02*
X42694786Y-121433973D01*
X42392405Y-120103497D02*
X42090024Y-121010640D01*
X42876215Y-121010640D01*
X43239072Y-120163973D02*
X44025262Y-120163973D01*
X43601929Y-120647783D01*
X43783358Y-120647783D01*
X43904310Y-120708259D01*
X43964786Y-120768735D01*
X44025262Y-120889688D01*
X44025262Y-121192069D01*
X43964786Y-121313021D01*
X43904310Y-121373497D01*
X43783358Y-121433973D01*
X43420500Y-121433973D01*
X43299548Y-121373497D01*
X43239072Y-121313021D01*
X42815739Y-124313850D02*
X42694786Y-124253373D01*
X42513358Y-124253373D01*
X42331929Y-124313850D01*
X42210977Y-124434802D01*
X42150500Y-124555754D01*
X42090024Y-124797659D01*
X42090024Y-124979088D01*
X42150500Y-125220992D01*
X42210977Y-125341945D01*
X42331929Y-125462897D01*
X42513358Y-125523373D01*
X42634310Y-125523373D01*
X42815739Y-125462897D01*
X42876215Y-125402421D01*
X42876215Y-124979088D01*
X42634310Y-124979088D01*
X43299548Y-124253373D02*
X43601929Y-125523373D01*
X43843834Y-124616230D01*
X44085739Y-125523373D01*
X44388120Y-124253373D01*
X44811453Y-124374326D02*
X44871929Y-124313850D01*
X44992881Y-124253373D01*
X45295262Y-124253373D01*
X45416215Y-124313850D01*
X45476691Y-124374326D01*
X45537167Y-124495278D01*
X45537167Y-124616230D01*
X45476691Y-124797659D01*
X44750977Y-125523373D01*
X45537167Y-125523373D01*
X46746691Y-125523373D02*
X46020977Y-125523373D01*
X46383834Y-125523373D02*
X46383834Y-124253373D01*
X46262881Y-124434802D01*
X46141929Y-124555754D01*
X46020977Y-124616230D01*
X47170024Y-124253373D02*
X48016691Y-124253373D01*
X47170024Y-125523373D01*
X48016691Y-125523373D01*
X49407643Y-124192897D02*
X48319072Y-125825754D01*
X42815739Y-126358550D02*
X42694786Y-126298073D01*
X42513358Y-126298073D01*
X42331929Y-126358550D01*
X42210977Y-126479502D01*
X42150500Y-126600454D01*
X42090024Y-126842359D01*
X42090024Y-127023788D01*
X42150500Y-127265692D01*
X42210977Y-127386645D01*
X42331929Y-127507597D01*
X42513358Y-127568073D01*
X42634310Y-127568073D01*
X42815739Y-127507597D01*
X42876215Y-127447121D01*
X42876215Y-127023788D01*
X42634310Y-127023788D01*
X44025262Y-126298073D02*
X43420500Y-126298073D01*
X43360024Y-126902835D01*
X43420500Y-126842359D01*
X43541453Y-126781883D01*
X43843834Y-126781883D01*
X43964786Y-126842359D01*
X44025262Y-126902835D01*
X44085739Y-127023788D01*
X44085739Y-127326169D01*
X44025262Y-127447121D01*
X43964786Y-127507597D01*
X43843834Y-127568073D01*
X43541453Y-127568073D01*
X43420500Y-127507597D01*
X43360024Y-127447121D01*
X44509072Y-126298073D02*
X45355739Y-126298073D01*
X44811453Y-127568073D01*
X45718596Y-126298073D02*
X46565262Y-126298073D01*
X45718596Y-127568073D01*
X46565262Y-127568073D01*
X42815739Y-130447950D02*
X42694786Y-130387473D01*
X42513358Y-130387473D01*
X42331929Y-130447950D01*
X42210977Y-130568902D01*
X42150500Y-130689854D01*
X42090024Y-130931759D01*
X42090024Y-131113188D01*
X42150500Y-131355092D01*
X42210977Y-131476045D01*
X42331929Y-131596997D01*
X42513358Y-131657473D01*
X42634310Y-131657473D01*
X42815739Y-131596997D01*
X42876215Y-131536521D01*
X42876215Y-131113188D01*
X42634310Y-131113188D01*
X43360024Y-130508426D02*
X43420500Y-130447950D01*
X43541453Y-130387473D01*
X43843834Y-130387473D01*
X43964786Y-130447950D01*
X44025262Y-130508426D01*
X44085739Y-130629378D01*
X44085739Y-130750330D01*
X44025262Y-130931759D01*
X43299548Y-131657473D01*
X44085739Y-131657473D01*
X45537167Y-130326997D02*
X44448596Y-131959854D01*
X46565262Y-130387473D02*
X45960500Y-130387473D01*
X45900024Y-130992235D01*
X45960500Y-130931759D01*
X46081453Y-130871283D01*
X46383834Y-130871283D01*
X46504786Y-130931759D01*
X46565262Y-130992235D01*
X46625739Y-131113188D01*
X46625739Y-131415569D01*
X46565262Y-131536521D01*
X46504786Y-131596997D01*
X46383834Y-131657473D01*
X46081453Y-131657473D01*
X45960500Y-131596997D01*
X45900024Y-131536521D01*
X47109548Y-130508426D02*
X47170024Y-130447950D01*
X47290977Y-130387473D01*
X47593358Y-130387473D01*
X47714310Y-130447950D01*
X47774786Y-130508426D01*
X47835262Y-130629378D01*
X47835262Y-130750330D01*
X47774786Y-130931759D01*
X47049072Y-131657473D01*
X47835262Y-131657473D01*
X42815739Y-134537350D02*
X42694786Y-134476873D01*
X42513358Y-134476873D01*
X42331929Y-134537350D01*
X42210977Y-134658302D01*
X42150500Y-134779254D01*
X42090024Y-135021159D01*
X42090024Y-135202588D01*
X42150500Y-135444492D01*
X42210977Y-135565445D01*
X42331929Y-135686397D01*
X42513358Y-135746873D01*
X42634310Y-135746873D01*
X42815739Y-135686397D01*
X42876215Y-135625921D01*
X42876215Y-135202588D01*
X42634310Y-135202588D01*
X43360024Y-134597826D02*
X43420500Y-134537350D01*
X43541453Y-134476873D01*
X43843834Y-134476873D01*
X43964786Y-134537350D01*
X44025262Y-134597826D01*
X44085739Y-134718778D01*
X44085739Y-134839730D01*
X44025262Y-135021159D01*
X43299548Y-135746873D01*
X44085739Y-135746873D01*
X44569548Y-134597826D02*
X44630024Y-134537350D01*
X44750977Y-134476873D01*
X45053358Y-134476873D01*
X45174310Y-134537350D01*
X45234786Y-134597826D01*
X45295262Y-134718778D01*
X45295262Y-134839730D01*
X45234786Y-135021159D01*
X44509072Y-135746873D01*
X45295262Y-135746873D01*
X46746691Y-134416397D02*
X45658120Y-136049254D01*
X47049072Y-134476873D02*
X47835262Y-134476873D01*
X47411929Y-134960683D01*
X47593358Y-134960683D01*
X47714310Y-135021159D01*
X47774786Y-135081635D01*
X47835262Y-135202588D01*
X47835262Y-135504969D01*
X47774786Y-135625921D01*
X47714310Y-135686397D01*
X47593358Y-135746873D01*
X47230500Y-135746873D01*
X47109548Y-135686397D01*
X47049072Y-135625921D01*
X48319072Y-134597826D02*
X48379548Y-134537350D01*
X48500500Y-134476873D01*
X48802881Y-134476873D01*
X48923834Y-134537350D01*
X48984310Y-134597826D01*
X49044786Y-134718778D01*
X49044786Y-134839730D01*
X48984310Y-135021159D01*
X48258596Y-135746873D01*
X49044786Y-135746873D01*
X50496215Y-134416397D02*
X49407643Y-136049254D01*
X42694786Y-136944907D02*
X42694786Y-137791573D01*
X42392405Y-136461097D02*
X42090024Y-137368240D01*
X42876215Y-137368240D01*
X43299548Y-136642526D02*
X43360024Y-136582050D01*
X43480977Y-136521573D01*
X43783358Y-136521573D01*
X43904310Y-136582050D01*
X43964786Y-136642526D01*
X44025262Y-136763478D01*
X44025262Y-136884430D01*
X43964786Y-137065859D01*
X43239072Y-137791573D01*
X44025262Y-137791573D01*
X42815739Y-140671450D02*
X42694786Y-140610973D01*
X42513358Y-140610973D01*
X42331929Y-140671450D01*
X42210977Y-140792402D01*
X42150500Y-140913354D01*
X42090024Y-141155259D01*
X42090024Y-141336688D01*
X42150500Y-141578592D01*
X42210977Y-141699545D01*
X42331929Y-141820497D01*
X42513358Y-141880973D01*
X42634310Y-141880973D01*
X42815739Y-141820497D01*
X42876215Y-141760021D01*
X42876215Y-141336688D01*
X42634310Y-141336688D01*
X44085739Y-141880973D02*
X43360024Y-141880973D01*
X43722881Y-141880973D02*
X43722881Y-140610973D01*
X43601929Y-140792402D01*
X43480977Y-140913354D01*
X43360024Y-140973830D01*
X45537167Y-140550497D02*
X44448596Y-142183354D01*
X46565262Y-140610973D02*
X45960500Y-140610973D01*
X45900024Y-141215735D01*
X45960500Y-141155259D01*
X46081453Y-141094783D01*
X46383834Y-141094783D01*
X46504786Y-141155259D01*
X46565262Y-141215735D01*
X46625739Y-141336688D01*
X46625739Y-141639069D01*
X46565262Y-141760021D01*
X46504786Y-141820497D01*
X46383834Y-141880973D01*
X46081453Y-141880973D01*
X45960500Y-141820497D01*
X45900024Y-141760021D01*
X47835262Y-141880973D02*
X47109548Y-141880973D01*
X47472405Y-141880973D02*
X47472405Y-140610973D01*
X47351453Y-140792402D01*
X47230500Y-140913354D01*
X47109548Y-140973830D01*
X42815739Y-144760850D02*
X42694786Y-144700373D01*
X42513358Y-144700373D01*
X42331929Y-144760850D01*
X42210977Y-144881802D01*
X42150500Y-145002754D01*
X42090024Y-145244659D01*
X42090024Y-145426088D01*
X42150500Y-145667992D01*
X42210977Y-145788945D01*
X42331929Y-145909897D01*
X42513358Y-145970373D01*
X42634310Y-145970373D01*
X42815739Y-145909897D01*
X42876215Y-145849421D01*
X42876215Y-145426088D01*
X42634310Y-145426088D01*
X43360024Y-144821326D02*
X43420500Y-144760850D01*
X43541453Y-144700373D01*
X43843834Y-144700373D01*
X43964786Y-144760850D01*
X44025262Y-144821326D01*
X44085739Y-144942278D01*
X44085739Y-145063230D01*
X44025262Y-145244659D01*
X43299548Y-145970373D01*
X44085739Y-145970373D01*
X45295262Y-145970373D02*
X44569548Y-145970373D01*
X44932405Y-145970373D02*
X44932405Y-144700373D01*
X44811453Y-144881802D01*
X44690500Y-145002754D01*
X44569548Y-145063230D01*
X46746691Y-144639897D02*
X45658120Y-146272754D01*
X47049072Y-144700373D02*
X47835262Y-144700373D01*
X47411929Y-145184183D01*
X47593358Y-145184183D01*
X47714310Y-145244659D01*
X47774786Y-145305135D01*
X47835262Y-145426088D01*
X47835262Y-145728469D01*
X47774786Y-145849421D01*
X47714310Y-145909897D01*
X47593358Y-145970373D01*
X47230500Y-145970373D01*
X47109548Y-145909897D01*
X47049072Y-145849421D01*
X49044786Y-145970373D02*
X48319072Y-145970373D01*
X48681929Y-145970373D02*
X48681929Y-144700373D01*
X48560977Y-144881802D01*
X48440024Y-145002754D01*
X48319072Y-145063230D01*
X50496215Y-144639897D02*
X49407643Y-146272754D01*
X42694786Y-147168407D02*
X42694786Y-148015073D01*
X42392405Y-146684597D02*
X42090024Y-147591740D01*
X42876215Y-147591740D01*
X44025262Y-148015073D02*
X43299548Y-148015073D01*
X43662405Y-148015073D02*
X43662405Y-146745073D01*
X43541453Y-146926502D01*
X43420500Y-147047454D01*
X43299548Y-147107930D01*
X42815739Y-150894950D02*
X42694786Y-150834473D01*
X42513358Y-150834473D01*
X42331929Y-150894950D01*
X42210977Y-151015902D01*
X42150500Y-151136854D01*
X42090024Y-151378759D01*
X42090024Y-151560188D01*
X42150500Y-151802092D01*
X42210977Y-151923045D01*
X42331929Y-152043997D01*
X42513358Y-152104473D01*
X42634310Y-152104473D01*
X42815739Y-152043997D01*
X42876215Y-151983521D01*
X42876215Y-151560188D01*
X42634310Y-151560188D01*
X43299548Y-150834473D02*
X43601929Y-152104473D01*
X43843834Y-151197330D01*
X44085739Y-152104473D01*
X44388120Y-150834473D01*
X44811453Y-150955426D02*
X44871929Y-150894950D01*
X44992881Y-150834473D01*
X45295262Y-150834473D01*
X45416215Y-150894950D01*
X45476691Y-150955426D01*
X45537167Y-151076378D01*
X45537167Y-151197330D01*
X45476691Y-151378759D01*
X44750977Y-152104473D01*
X45537167Y-152104473D01*
X46746691Y-152104473D02*
X46020977Y-152104473D01*
X46383834Y-152104473D02*
X46383834Y-150834473D01*
X46262881Y-151015902D01*
X46141929Y-151136854D01*
X46020977Y-151197330D01*
X48198120Y-150773997D02*
X47109548Y-152406854D01*
X42815739Y-152939650D02*
X42694786Y-152879173D01*
X42513358Y-152879173D01*
X42331929Y-152939650D01*
X42210977Y-153060602D01*
X42150500Y-153181554D01*
X42090024Y-153423459D01*
X42090024Y-153604888D01*
X42150500Y-153846792D01*
X42210977Y-153967745D01*
X42331929Y-154088697D01*
X42513358Y-154149173D01*
X42634310Y-154149173D01*
X42815739Y-154088697D01*
X42876215Y-154028221D01*
X42876215Y-153604888D01*
X42634310Y-153604888D01*
X44025262Y-152879173D02*
X43420500Y-152879173D01*
X43360024Y-153483935D01*
X43420500Y-153423459D01*
X43541453Y-153362983D01*
X43843834Y-153362983D01*
X43964786Y-153423459D01*
X44025262Y-153483935D01*
X44085739Y-153604888D01*
X44085739Y-153907269D01*
X44025262Y-154028221D01*
X43964786Y-154088697D01*
X43843834Y-154149173D01*
X43541453Y-154149173D01*
X43420500Y-154088697D01*
X43360024Y-154028221D01*
X44509072Y-152879173D02*
X45355739Y-152879173D01*
X44811453Y-154149173D01*
X128340024Y-207705476D02*
X128400500Y-207645000D01*
X128521453Y-207584523D01*
X128823834Y-207584523D01*
X128944786Y-207645000D01*
X129005262Y-207705476D01*
X129065739Y-207826428D01*
X129065739Y-207947380D01*
X129005262Y-208128809D01*
X128279548Y-208854523D01*
X129065739Y-208854523D01*
X129851929Y-207584523D02*
X129972881Y-207584523D01*
X130093834Y-207645000D01*
X130154310Y-207705476D01*
X130214786Y-207826428D01*
X130275262Y-208068333D01*
X130275262Y-208370714D01*
X130214786Y-208612619D01*
X130154310Y-208733571D01*
X130093834Y-208794047D01*
X129972881Y-208854523D01*
X129851929Y-208854523D01*
X129730977Y-208794047D01*
X129670500Y-208733571D01*
X129610024Y-208612619D01*
X129549548Y-208370714D01*
X129549548Y-208068333D01*
X129610024Y-207826428D01*
X129670500Y-207705476D01*
X129730977Y-207645000D01*
X129851929Y-207584523D01*
X130759072Y-207705476D02*
X130819548Y-207645000D01*
X130940500Y-207584523D01*
X131242881Y-207584523D01*
X131363834Y-207645000D01*
X131424310Y-207705476D01*
X131484786Y-207826428D01*
X131484786Y-207947380D01*
X131424310Y-208128809D01*
X130698596Y-208854523D01*
X131484786Y-208854523D01*
X132573358Y-208007857D02*
X132573358Y-208854523D01*
X132270977Y-207524047D02*
X131968596Y-208431190D01*
X132754786Y-208431190D01*
X133238596Y-208370714D02*
X134206215Y-208370714D01*
X135052881Y-207584523D02*
X135173834Y-207584523D01*
X135294786Y-207645000D01*
X135355262Y-207705476D01*
X135415739Y-207826428D01*
X135476215Y-208068333D01*
X135476215Y-208370714D01*
X135415739Y-208612619D01*
X135355262Y-208733571D01*
X135294786Y-208794047D01*
X135173834Y-208854523D01*
X135052881Y-208854523D01*
X134931929Y-208794047D01*
X134871453Y-208733571D01*
X134810977Y-208612619D01*
X134750500Y-208370714D01*
X134750500Y-208068333D01*
X134810977Y-207826428D01*
X134871453Y-207705476D01*
X134931929Y-207645000D01*
X135052881Y-207584523D01*
X135899548Y-207584523D02*
X136746215Y-207584523D01*
X136201929Y-208854523D01*
X137230024Y-208370714D02*
X138197643Y-208370714D01*
X139044310Y-207584523D02*
X139165262Y-207584523D01*
X139286215Y-207645000D01*
X139346691Y-207705476D01*
X139407167Y-207826428D01*
X139467643Y-208068333D01*
X139467643Y-208370714D01*
X139407167Y-208612619D01*
X139346691Y-208733571D01*
X139286215Y-208794047D01*
X139165262Y-208854523D01*
X139044310Y-208854523D01*
X138923358Y-208794047D01*
X138862881Y-208733571D01*
X138802405Y-208612619D01*
X138741929Y-208370714D01*
X138741929Y-208068333D01*
X138802405Y-207826428D01*
X138862881Y-207705476D01*
X138923358Y-207645000D01*
X139044310Y-207584523D01*
X140677167Y-208854523D02*
X139951453Y-208854523D01*
X140314310Y-208854523D02*
X140314310Y-207584523D01*
X140193358Y-207765952D01*
X140072405Y-207886904D01*
X139951453Y-207947380D01*
X124855739Y-184257950D02*
X124734786Y-184197473D01*
X124553358Y-184197473D01*
X124371929Y-184257950D01*
X124250977Y-184378902D01*
X124190500Y-184499854D01*
X124130024Y-184741759D01*
X124130024Y-184923188D01*
X124190500Y-185165092D01*
X124250977Y-185286045D01*
X124371929Y-185406997D01*
X124553358Y-185467473D01*
X124674310Y-185467473D01*
X124855739Y-185406997D01*
X124916215Y-185346521D01*
X124916215Y-184923188D01*
X124674310Y-184923188D01*
X126125739Y-185467473D02*
X125400024Y-185467473D01*
X125762881Y-185467473D02*
X125762881Y-184197473D01*
X125641929Y-184378902D01*
X125520977Y-184499854D01*
X125400024Y-184560330D01*
X126911929Y-184197473D02*
X127032881Y-184197473D01*
X127153834Y-184257950D01*
X127214310Y-184318426D01*
X127274786Y-184439378D01*
X127335262Y-184681283D01*
X127335262Y-184983664D01*
X127274786Y-185225569D01*
X127214310Y-185346521D01*
X127153834Y-185406997D01*
X127032881Y-185467473D01*
X126911929Y-185467473D01*
X126790977Y-185406997D01*
X126730500Y-185346521D01*
X126670024Y-185225569D01*
X126609548Y-184983664D01*
X126609548Y-184681283D01*
X126670024Y-184439378D01*
X126730500Y-184318426D01*
X126790977Y-184257950D01*
X126911929Y-184197473D01*
X128423834Y-184620807D02*
X128423834Y-185467473D01*
X128121453Y-184136997D02*
X127819072Y-185044140D01*
X128605262Y-185044140D01*
X124855739Y-186302650D02*
X124734786Y-186242173D01*
X124553358Y-186242173D01*
X124371929Y-186302650D01*
X124250977Y-186423602D01*
X124190500Y-186544554D01*
X124130024Y-186786459D01*
X124130024Y-186967888D01*
X124190500Y-187209792D01*
X124250977Y-187330745D01*
X124371929Y-187451697D01*
X124553358Y-187512173D01*
X124674310Y-187512173D01*
X124855739Y-187451697D01*
X124916215Y-187391221D01*
X124916215Y-186967888D01*
X124674310Y-186967888D01*
X125400024Y-186363126D02*
X125460500Y-186302650D01*
X125581453Y-186242173D01*
X125883834Y-186242173D01*
X126004786Y-186302650D01*
X126065262Y-186363126D01*
X126125739Y-186484078D01*
X126125739Y-186605030D01*
X126065262Y-186786459D01*
X125339548Y-187512173D01*
X126125739Y-187512173D01*
X126911929Y-186242173D02*
X127032881Y-186242173D01*
X127153834Y-186302650D01*
X127214310Y-186363126D01*
X127274786Y-186484078D01*
X127335262Y-186725983D01*
X127335262Y-187028364D01*
X127274786Y-187270269D01*
X127214310Y-187391221D01*
X127153834Y-187451697D01*
X127032881Y-187512173D01*
X126911929Y-187512173D01*
X126790977Y-187451697D01*
X126730500Y-187391221D01*
X126670024Y-187270269D01*
X126609548Y-187028364D01*
X126609548Y-186725983D01*
X126670024Y-186484078D01*
X126730500Y-186363126D01*
X126790977Y-186302650D01*
X126911929Y-186242173D01*
X128423834Y-186665507D02*
X128423834Y-187512173D01*
X128121453Y-186181697D02*
X127819072Y-187088840D01*
X128605262Y-187088840D01*
X124855739Y-188347350D02*
X124734786Y-188286873D01*
X124553358Y-188286873D01*
X124371929Y-188347350D01*
X124250977Y-188468302D01*
X124190500Y-188589254D01*
X124130024Y-188831159D01*
X124130024Y-189012588D01*
X124190500Y-189254492D01*
X124250977Y-189375445D01*
X124371929Y-189496397D01*
X124553358Y-189556873D01*
X124674310Y-189556873D01*
X124855739Y-189496397D01*
X124916215Y-189435921D01*
X124916215Y-189012588D01*
X124674310Y-189012588D01*
X125339548Y-188286873D02*
X126125739Y-188286873D01*
X125702405Y-188770683D01*
X125883834Y-188770683D01*
X126004786Y-188831159D01*
X126065262Y-188891635D01*
X126125739Y-189012588D01*
X126125739Y-189314969D01*
X126065262Y-189435921D01*
X126004786Y-189496397D01*
X125883834Y-189556873D01*
X125520977Y-189556873D01*
X125400024Y-189496397D01*
X125339548Y-189435921D01*
X126911929Y-188286873D02*
X127032881Y-188286873D01*
X127153834Y-188347350D01*
X127214310Y-188407826D01*
X127274786Y-188528778D01*
X127335262Y-188770683D01*
X127335262Y-189073064D01*
X127274786Y-189314969D01*
X127214310Y-189435921D01*
X127153834Y-189496397D01*
X127032881Y-189556873D01*
X126911929Y-189556873D01*
X126790977Y-189496397D01*
X126730500Y-189435921D01*
X126670024Y-189314969D01*
X126609548Y-189073064D01*
X126609548Y-188770683D01*
X126670024Y-188528778D01*
X126730500Y-188407826D01*
X126790977Y-188347350D01*
X126911929Y-188286873D01*
X128423834Y-188710207D02*
X128423834Y-189556873D01*
X128121453Y-188226397D02*
X127819072Y-189133540D01*
X128605262Y-189133540D01*
X124855739Y-190392050D02*
X124734786Y-190331573D01*
X124553358Y-190331573D01*
X124371929Y-190392050D01*
X124250977Y-190513002D01*
X124190500Y-190633954D01*
X124130024Y-190875859D01*
X124130024Y-191057288D01*
X124190500Y-191299192D01*
X124250977Y-191420145D01*
X124371929Y-191541097D01*
X124553358Y-191601573D01*
X124674310Y-191601573D01*
X124855739Y-191541097D01*
X124916215Y-191480621D01*
X124916215Y-191057288D01*
X124674310Y-191057288D01*
X125460500Y-191601573D02*
X125460500Y-190331573D01*
X126186215Y-191601573D01*
X126186215Y-190331573D01*
X126790977Y-191601573D02*
X126790977Y-190331573D01*
X127093358Y-190331573D01*
X127274786Y-190392050D01*
X127395739Y-190513002D01*
X127456215Y-190633954D01*
X127516691Y-190875859D01*
X127516691Y-191057288D01*
X127456215Y-191299192D01*
X127395739Y-191420145D01*
X127274786Y-191541097D01*
X127093358Y-191601573D01*
X126790977Y-191601573D01*
X124855739Y-141077950D02*
X124734786Y-141017473D01*
X124553358Y-141017473D01*
X124371929Y-141077950D01*
X124250977Y-141198902D01*
X124190500Y-141319854D01*
X124130024Y-141561759D01*
X124130024Y-141743188D01*
X124190500Y-141985092D01*
X124250977Y-142106045D01*
X124371929Y-142226997D01*
X124553358Y-142287473D01*
X124674310Y-142287473D01*
X124855739Y-142226997D01*
X124916215Y-142166521D01*
X124916215Y-141743188D01*
X124674310Y-141743188D01*
X126004786Y-141440807D02*
X126004786Y-142287473D01*
X125702405Y-140956997D02*
X125400024Y-141864140D01*
X126186215Y-141864140D01*
X126911929Y-141017473D02*
X127032881Y-141017473D01*
X127153834Y-141077950D01*
X127214310Y-141138426D01*
X127274786Y-141259378D01*
X127335262Y-141501283D01*
X127335262Y-141803664D01*
X127274786Y-142045569D01*
X127214310Y-142166521D01*
X127153834Y-142226997D01*
X127032881Y-142287473D01*
X126911929Y-142287473D01*
X126790977Y-142226997D01*
X126730500Y-142166521D01*
X126670024Y-142045569D01*
X126609548Y-141803664D01*
X126609548Y-141501283D01*
X126670024Y-141259378D01*
X126730500Y-141138426D01*
X126790977Y-141077950D01*
X126911929Y-141017473D01*
X128423834Y-141440807D02*
X128423834Y-142287473D01*
X128121453Y-140956997D02*
X127819072Y-141864140D01*
X128605262Y-141864140D01*
X129996215Y-140956997D02*
X128907643Y-142589854D01*
X130963834Y-141440807D02*
X130963834Y-142287473D01*
X130661453Y-140956997D02*
X130359072Y-141864140D01*
X131145262Y-141864140D01*
X131870977Y-141017473D02*
X131991929Y-141017473D01*
X132112881Y-141077950D01*
X132173358Y-141138426D01*
X132233834Y-141259378D01*
X132294310Y-141501283D01*
X132294310Y-141803664D01*
X132233834Y-142045569D01*
X132173358Y-142166521D01*
X132112881Y-142226997D01*
X131991929Y-142287473D01*
X131870977Y-142287473D01*
X131750024Y-142226997D01*
X131689548Y-142166521D01*
X131629072Y-142045569D01*
X131568596Y-141803664D01*
X131568596Y-141501283D01*
X131629072Y-141259378D01*
X131689548Y-141138426D01*
X131750024Y-141077950D01*
X131870977Y-141017473D01*
X133443358Y-141017473D02*
X132838596Y-141017473D01*
X132778120Y-141622235D01*
X132838596Y-141561759D01*
X132959548Y-141501283D01*
X133261929Y-141501283D01*
X133382881Y-141561759D01*
X133443358Y-141622235D01*
X133503834Y-141743188D01*
X133503834Y-142045569D01*
X133443358Y-142166521D01*
X133382881Y-142226997D01*
X133261929Y-142287473D01*
X132959548Y-142287473D01*
X132838596Y-142226997D01*
X132778120Y-142166521D01*
X124855739Y-143122650D02*
X124734786Y-143062173D01*
X124553358Y-143062173D01*
X124371929Y-143122650D01*
X124250977Y-143243602D01*
X124190500Y-143364554D01*
X124130024Y-143606459D01*
X124130024Y-143787888D01*
X124190500Y-144029792D01*
X124250977Y-144150745D01*
X124371929Y-144271697D01*
X124553358Y-144332173D01*
X124674310Y-144332173D01*
X124855739Y-144271697D01*
X124916215Y-144211221D01*
X124916215Y-143787888D01*
X124674310Y-143787888D01*
X126125739Y-144332173D02*
X125400024Y-144332173D01*
X125762881Y-144332173D02*
X125762881Y-143062173D01*
X125641929Y-143243602D01*
X125520977Y-143364554D01*
X125400024Y-143425030D01*
X126911929Y-143062173D02*
X127032881Y-143062173D01*
X127153834Y-143122650D01*
X127214310Y-143183126D01*
X127274786Y-143304078D01*
X127335262Y-143545983D01*
X127335262Y-143848364D01*
X127274786Y-144090269D01*
X127214310Y-144211221D01*
X127153834Y-144271697D01*
X127032881Y-144332173D01*
X126911929Y-144332173D01*
X126790977Y-144271697D01*
X126730500Y-144211221D01*
X126670024Y-144090269D01*
X126609548Y-143848364D01*
X126609548Y-143545983D01*
X126670024Y-143304078D01*
X126730500Y-143183126D01*
X126790977Y-143122650D01*
X126911929Y-143062173D01*
X128484310Y-143062173D02*
X127879548Y-143062173D01*
X127819072Y-143666935D01*
X127879548Y-143606459D01*
X128000500Y-143545983D01*
X128302881Y-143545983D01*
X128423834Y-143606459D01*
X128484310Y-143666935D01*
X128544786Y-143787888D01*
X128544786Y-144090269D01*
X128484310Y-144211221D01*
X128423834Y-144271697D01*
X128302881Y-144332173D01*
X128000500Y-144332173D01*
X127879548Y-144271697D01*
X127819072Y-144211221D01*
X124855739Y-145167350D02*
X124734786Y-145106873D01*
X124553358Y-145106873D01*
X124371929Y-145167350D01*
X124250977Y-145288302D01*
X124190500Y-145409254D01*
X124130024Y-145651159D01*
X124130024Y-145832588D01*
X124190500Y-146074492D01*
X124250977Y-146195445D01*
X124371929Y-146316397D01*
X124553358Y-146376873D01*
X124674310Y-146376873D01*
X124855739Y-146316397D01*
X124916215Y-146255921D01*
X124916215Y-145832588D01*
X124674310Y-145832588D01*
X125339548Y-145106873D02*
X125641929Y-146376873D01*
X125883834Y-145469730D01*
X126125739Y-146376873D01*
X126428120Y-145106873D01*
X127577167Y-146376873D02*
X126851453Y-146376873D01*
X127214310Y-146376873D02*
X127214310Y-145106873D01*
X127093358Y-145288302D01*
X126972405Y-145409254D01*
X126851453Y-145469730D01*
X128363358Y-145106873D02*
X128484310Y-145106873D01*
X128605262Y-145167350D01*
X128665739Y-145227826D01*
X128726215Y-145348778D01*
X128786691Y-145590683D01*
X128786691Y-145893064D01*
X128726215Y-146134969D01*
X128665739Y-146255921D01*
X128605262Y-146316397D01*
X128484310Y-146376873D01*
X128363358Y-146376873D01*
X128242405Y-146316397D01*
X128181929Y-146255921D01*
X128121453Y-146134969D01*
X128060977Y-145893064D01*
X128060977Y-145590683D01*
X128121453Y-145348778D01*
X128181929Y-145227826D01*
X128242405Y-145167350D01*
X128363358Y-145106873D01*
X129270500Y-145227826D02*
X129330977Y-145167350D01*
X129451929Y-145106873D01*
X129754310Y-145106873D01*
X129875262Y-145167350D01*
X129935739Y-145227826D01*
X129996215Y-145348778D01*
X129996215Y-145469730D01*
X129935739Y-145651159D01*
X129210024Y-146376873D01*
X129996215Y-146376873D01*
X131447643Y-145046397D02*
X130359072Y-146679254D01*
X132536215Y-146376873D02*
X131810500Y-146376873D01*
X132173358Y-146376873D02*
X132173358Y-145106873D01*
X132052405Y-145288302D01*
X131931453Y-145409254D01*
X131810500Y-145469730D01*
X133322405Y-145106873D02*
X133443358Y-145106873D01*
X133564310Y-145167350D01*
X133624786Y-145227826D01*
X133685262Y-145348778D01*
X133745739Y-145590683D01*
X133745739Y-145893064D01*
X133685262Y-146134969D01*
X133624786Y-146255921D01*
X133564310Y-146316397D01*
X133443358Y-146376873D01*
X133322405Y-146376873D01*
X133201453Y-146316397D01*
X133140977Y-146255921D01*
X133080500Y-146134969D01*
X133020024Y-145893064D01*
X133020024Y-145590683D01*
X133080500Y-145348778D01*
X133140977Y-145227826D01*
X133201453Y-145167350D01*
X133322405Y-145106873D01*
X134169072Y-145106873D02*
X134955262Y-145106873D01*
X134531929Y-145590683D01*
X134713358Y-145590683D01*
X134834310Y-145651159D01*
X134894786Y-145711635D01*
X134955262Y-145832588D01*
X134955262Y-146134969D01*
X134894786Y-146255921D01*
X134834310Y-146316397D01*
X134713358Y-146376873D01*
X134350500Y-146376873D01*
X134229548Y-146316397D01*
X134169072Y-146255921D01*
X124855739Y-147212050D02*
X124734786Y-147151573D01*
X124553358Y-147151573D01*
X124371929Y-147212050D01*
X124250977Y-147333002D01*
X124190500Y-147453954D01*
X124130024Y-147695859D01*
X124130024Y-147877288D01*
X124190500Y-148119192D01*
X124250977Y-148240145D01*
X124371929Y-148361097D01*
X124553358Y-148421573D01*
X124674310Y-148421573D01*
X124855739Y-148361097D01*
X124916215Y-148300621D01*
X124916215Y-147877288D01*
X124674310Y-147877288D01*
X125460500Y-148421573D02*
X125460500Y-147151573D01*
X126186215Y-148421573D01*
X126186215Y-147151573D01*
X126790977Y-148421573D02*
X126790977Y-147151573D01*
X127093358Y-147151573D01*
X127274786Y-147212050D01*
X127395739Y-147333002D01*
X127456215Y-147453954D01*
X127516691Y-147695859D01*
X127516691Y-147877288D01*
X127456215Y-148119192D01*
X127395739Y-148240145D01*
X127274786Y-148361097D01*
X127093358Y-148421573D01*
X126790977Y-148421573D01*
D10*
X129137342Y-202927857D02*
X130407342Y-202927857D01*
X130951628Y-204923571D02*
X129137342Y-204923571D01*
X129137342Y-201113571D01*
X130951628Y-201113571D01*
X132040200Y-202383571D02*
X133491628Y-202383571D01*
X132584485Y-201113571D02*
X132584485Y-204379285D01*
X132765914Y-204742142D01*
X133128771Y-204923571D01*
X133491628Y-204923571D01*
X136394485Y-204923571D02*
X136394485Y-202927857D01*
X136213057Y-202565000D01*
X135850200Y-202383571D01*
X135124485Y-202383571D01*
X134761628Y-202565000D01*
X136394485Y-204742142D02*
X136031628Y-204923571D01*
X135124485Y-204923571D01*
X134761628Y-204742142D01*
X134580200Y-204379285D01*
X134580200Y-204016428D01*
X134761628Y-203653571D01*
X135124485Y-203472142D01*
X136031628Y-203472142D01*
X136394485Y-203290714D01*
X139841628Y-202383571D02*
X139841628Y-205467857D01*
X139660200Y-205830714D01*
X139478771Y-206012142D01*
X139115914Y-206193571D01*
X138571628Y-206193571D01*
X138208771Y-206012142D01*
X139841628Y-204742142D02*
X139478771Y-204923571D01*
X138753057Y-204923571D01*
X138390200Y-204742142D01*
X138208771Y-204560714D01*
X138027342Y-204197857D01*
X138027342Y-203109285D01*
X138208771Y-202746428D01*
X138390200Y-202565000D01*
X138753057Y-202383571D01*
X139478771Y-202383571D01*
X139841628Y-202565000D01*
X143107342Y-204742142D02*
X142744485Y-204923571D01*
X142018771Y-204923571D01*
X141655914Y-204742142D01*
X141474485Y-204379285D01*
X141474485Y-202927857D01*
X141655914Y-202565000D01*
X142018771Y-202383571D01*
X142744485Y-202383571D01*
X143107342Y-202565000D01*
X143288771Y-202927857D01*
X143288771Y-203290714D01*
X141474485Y-203653571D01*
X149638771Y-201113571D02*
X147824485Y-201113571D01*
X147643057Y-202927857D01*
X147824485Y-202746428D01*
X148187342Y-202565000D01*
X149094485Y-202565000D01*
X149457342Y-202746428D01*
X149638771Y-202927857D01*
X149820200Y-203290714D01*
X149820200Y-204197857D01*
X149638771Y-204560714D01*
X149457342Y-204742142D01*
X149094485Y-204923571D01*
X148187342Y-204923571D01*
X147824485Y-204742142D01*
X147643057Y-204560714D01*
X153448771Y-204923571D02*
X151271628Y-204923571D01*
X152360200Y-204923571D02*
X152360200Y-201113571D01*
X151997342Y-201657857D01*
X151634485Y-202020714D01*
X151271628Y-202202142D01*
X155081628Y-204560714D02*
X155263057Y-204742142D01*
X155081628Y-204923571D01*
X154900200Y-204742142D01*
X155081628Y-204560714D01*
X155081628Y-204923571D01*
X156895914Y-204560714D02*
X157077342Y-204742142D01*
X156895914Y-204923571D01*
X156714485Y-204742142D01*
X156895914Y-204560714D01*
X156895914Y-204923571D01*
D11*
X71415739Y-184147950D02*
X71294786Y-184087473D01*
X71113358Y-184087473D01*
X70931929Y-184147950D01*
X70810977Y-184268902D01*
X70750500Y-184389854D01*
X70690024Y-184631759D01*
X70690024Y-184813188D01*
X70750500Y-185055092D01*
X70810977Y-185176045D01*
X70931929Y-185296997D01*
X71113358Y-185357473D01*
X71234310Y-185357473D01*
X71415739Y-185296997D01*
X71476215Y-185236521D01*
X71476215Y-184813188D01*
X71234310Y-184813188D01*
X72080977Y-185357473D02*
X72322881Y-185357473D01*
X72443834Y-185296997D01*
X72504310Y-185236521D01*
X72625262Y-185055092D01*
X72685739Y-184813188D01*
X72685739Y-184329378D01*
X72625262Y-184208426D01*
X72564786Y-184147950D01*
X72443834Y-184087473D01*
X72201929Y-184087473D01*
X72080977Y-184147950D01*
X72020500Y-184208426D01*
X71960024Y-184329378D01*
X71960024Y-184631759D01*
X72020500Y-184752711D01*
X72080977Y-184813188D01*
X72201929Y-184873664D01*
X72443834Y-184873664D01*
X72564786Y-184813188D01*
X72625262Y-184752711D01*
X72685739Y-184631759D01*
X73109072Y-184087473D02*
X73895262Y-184087473D01*
X73471929Y-184571283D01*
X73653358Y-184571283D01*
X73774310Y-184631759D01*
X73834786Y-184692235D01*
X73895262Y-184813188D01*
X73895262Y-185115569D01*
X73834786Y-185236521D01*
X73774310Y-185296997D01*
X73653358Y-185357473D01*
X73290500Y-185357473D01*
X73169548Y-185296997D01*
X73109072Y-185236521D01*
X75346691Y-184026997D02*
X74258120Y-185659854D01*
X76435262Y-184147950D02*
X76314310Y-184087473D01*
X76132881Y-184087473D01*
X75951453Y-184147950D01*
X75830500Y-184268902D01*
X75770024Y-184389854D01*
X75709548Y-184631759D01*
X75709548Y-184813188D01*
X75770024Y-185055092D01*
X75830500Y-185176045D01*
X75951453Y-185296997D01*
X76132881Y-185357473D01*
X76253834Y-185357473D01*
X76435262Y-185296997D01*
X76495739Y-185236521D01*
X76495739Y-184813188D01*
X76253834Y-184813188D01*
X76919072Y-184087473D02*
X77221453Y-185357473D01*
X77463358Y-184450330D01*
X77705262Y-185357473D01*
X78007643Y-184087473D01*
X78430977Y-184208426D02*
X78491453Y-184147950D01*
X78612405Y-184087473D01*
X78914786Y-184087473D01*
X79035739Y-184147950D01*
X79096215Y-184208426D01*
X79156691Y-184329378D01*
X79156691Y-184450330D01*
X79096215Y-184631759D01*
X78370500Y-185357473D01*
X79156691Y-185357473D01*
X79640500Y-184208426D02*
X79700977Y-184147950D01*
X79821929Y-184087473D01*
X80124310Y-184087473D01*
X80245262Y-184147950D01*
X80305739Y-184208426D01*
X80366215Y-184329378D01*
X80366215Y-184450330D01*
X80305739Y-184631759D01*
X79580024Y-185357473D01*
X80366215Y-185357473D01*
X80910500Y-184873664D02*
X81878120Y-184873664D01*
X82422405Y-184208426D02*
X82482881Y-184147950D01*
X82603834Y-184087473D01*
X82906215Y-184087473D01*
X83027167Y-184147950D01*
X83087643Y-184208426D01*
X83148120Y-184329378D01*
X83148120Y-184450330D01*
X83087643Y-184631759D01*
X82361929Y-185357473D01*
X83148120Y-185357473D01*
X84236691Y-184510807D02*
X84236691Y-185357473D01*
X83934310Y-184026997D02*
X83631929Y-184934140D01*
X84418120Y-184934140D01*
X71415739Y-186192650D02*
X71294786Y-186132173D01*
X71113358Y-186132173D01*
X70931929Y-186192650D01*
X70810977Y-186313602D01*
X70750500Y-186434554D01*
X70690024Y-186676459D01*
X70690024Y-186857888D01*
X70750500Y-187099792D01*
X70810977Y-187220745D01*
X70931929Y-187341697D01*
X71113358Y-187402173D01*
X71234310Y-187402173D01*
X71415739Y-187341697D01*
X71476215Y-187281221D01*
X71476215Y-186857888D01*
X71234310Y-186857888D01*
X72685739Y-187402173D02*
X71960024Y-187402173D01*
X72322881Y-187402173D02*
X72322881Y-186132173D01*
X72201929Y-186313602D01*
X72080977Y-186434554D01*
X71960024Y-186495030D01*
X73109072Y-186132173D02*
X73895262Y-186132173D01*
X73471929Y-186615983D01*
X73653358Y-186615983D01*
X73774310Y-186676459D01*
X73834786Y-186736935D01*
X73895262Y-186857888D01*
X73895262Y-187160269D01*
X73834786Y-187281221D01*
X73774310Y-187341697D01*
X73653358Y-187402173D01*
X73290500Y-187402173D01*
X73169548Y-187341697D01*
X73109072Y-187281221D01*
X75346691Y-186071697D02*
X74258120Y-187704554D01*
X76435262Y-186192650D02*
X76314310Y-186132173D01*
X76132881Y-186132173D01*
X75951453Y-186192650D01*
X75830500Y-186313602D01*
X75770024Y-186434554D01*
X75709548Y-186676459D01*
X75709548Y-186857888D01*
X75770024Y-187099792D01*
X75830500Y-187220745D01*
X75951453Y-187341697D01*
X76132881Y-187402173D01*
X76253834Y-187402173D01*
X76435262Y-187341697D01*
X76495739Y-187281221D01*
X76495739Y-186857888D01*
X76253834Y-186857888D01*
X76919072Y-186132173D02*
X77221453Y-187402173D01*
X77463358Y-186495030D01*
X77705262Y-187402173D01*
X78007643Y-186132173D01*
X79156691Y-187402173D02*
X78430977Y-187402173D01*
X78793834Y-187402173D02*
X78793834Y-186132173D01*
X78672881Y-186313602D01*
X78551929Y-186434554D01*
X78430977Y-186495030D01*
X80608120Y-186071697D02*
X79519548Y-187704554D01*
X80970977Y-186253126D02*
X81031453Y-186192650D01*
X81152405Y-186132173D01*
X81454786Y-186132173D01*
X81575739Y-186192650D01*
X81636215Y-186253126D01*
X81696691Y-186374078D01*
X81696691Y-186495030D01*
X81636215Y-186676459D01*
X80910500Y-187402173D01*
X81696691Y-187402173D01*
X70690024Y-189386397D02*
X70871453Y-189446873D01*
X71173834Y-189446873D01*
X71294786Y-189386397D01*
X71355262Y-189325921D01*
X71415739Y-189204969D01*
X71415739Y-189084016D01*
X71355262Y-188963064D01*
X71294786Y-188902588D01*
X71173834Y-188842111D01*
X70931929Y-188781635D01*
X70810977Y-188721159D01*
X70750500Y-188660683D01*
X70690024Y-188539730D01*
X70690024Y-188418778D01*
X70750500Y-188297826D01*
X70810977Y-188237350D01*
X70931929Y-188176873D01*
X71234310Y-188176873D01*
X71415739Y-188237350D01*
X72504310Y-188600207D02*
X72504310Y-189446873D01*
X72201929Y-188116397D02*
X71899548Y-189023540D01*
X72685739Y-189023540D01*
X74560500Y-188781635D02*
X74137167Y-188781635D01*
X74137167Y-189446873D02*
X74137167Y-188176873D01*
X74741929Y-188176873D01*
X75225739Y-189446873D02*
X75225739Y-188176873D01*
X75709548Y-188176873D01*
X75830500Y-188237350D01*
X75890977Y-188297826D01*
X75951453Y-188418778D01*
X75951453Y-188600207D01*
X75890977Y-188721159D01*
X75830500Y-188781635D01*
X75709548Y-188842111D01*
X75225739Y-188842111D01*
X76435262Y-189084016D02*
X77040024Y-189084016D01*
X76314310Y-189446873D02*
X76737643Y-188176873D01*
X77160977Y-189446873D01*
X71476215Y-191370621D02*
X71415739Y-191431097D01*
X71234310Y-191491573D01*
X71113358Y-191491573D01*
X70931929Y-191431097D01*
X70810977Y-191310145D01*
X70750500Y-191189192D01*
X70690024Y-190947288D01*
X70690024Y-190765859D01*
X70750500Y-190523954D01*
X70810977Y-190403002D01*
X70931929Y-190282050D01*
X71113358Y-190221573D01*
X71234310Y-190221573D01*
X71415739Y-190282050D01*
X71476215Y-190342526D01*
X71899548Y-190221573D02*
X72746215Y-190221573D01*
X72201929Y-191491573D01*
X99455739Y-141077950D02*
X99334786Y-141017473D01*
X99153358Y-141017473D01*
X98971929Y-141077950D01*
X98850977Y-141198902D01*
X98790500Y-141319854D01*
X98730024Y-141561759D01*
X98730024Y-141743188D01*
X98790500Y-141985092D01*
X98850977Y-142106045D01*
X98971929Y-142226997D01*
X99153358Y-142287473D01*
X99274310Y-142287473D01*
X99455739Y-142226997D01*
X99516215Y-142166521D01*
X99516215Y-141743188D01*
X99274310Y-141743188D01*
X100665262Y-141017473D02*
X100060500Y-141017473D01*
X100000024Y-141622235D01*
X100060500Y-141561759D01*
X100181453Y-141501283D01*
X100483834Y-141501283D01*
X100604786Y-141561759D01*
X100665262Y-141622235D01*
X100725739Y-141743188D01*
X100725739Y-142045569D01*
X100665262Y-142166521D01*
X100604786Y-142226997D01*
X100483834Y-142287473D01*
X100181453Y-142287473D01*
X100060500Y-142226997D01*
X100000024Y-142166521D01*
X101511929Y-141017473D02*
X101632881Y-141017473D01*
X101753834Y-141077950D01*
X101814310Y-141138426D01*
X101874786Y-141259378D01*
X101935262Y-141501283D01*
X101935262Y-141803664D01*
X101874786Y-142045569D01*
X101814310Y-142166521D01*
X101753834Y-142226997D01*
X101632881Y-142287473D01*
X101511929Y-142287473D01*
X101390977Y-142226997D01*
X101330500Y-142166521D01*
X101270024Y-142045569D01*
X101209548Y-141803664D01*
X101209548Y-141501283D01*
X101270024Y-141259378D01*
X101330500Y-141138426D01*
X101390977Y-141077950D01*
X101511929Y-141017473D01*
X102358596Y-141017473D02*
X103144786Y-141017473D01*
X102721453Y-141501283D01*
X102902881Y-141501283D01*
X103023834Y-141561759D01*
X103084310Y-141622235D01*
X103144786Y-141743188D01*
X103144786Y-142045569D01*
X103084310Y-142166521D01*
X103023834Y-142226997D01*
X102902881Y-142287473D01*
X102540024Y-142287473D01*
X102419072Y-142226997D01*
X102358596Y-142166521D01*
X99455739Y-143122650D02*
X99334786Y-143062173D01*
X99153358Y-143062173D01*
X98971929Y-143122650D01*
X98850977Y-143243602D01*
X98790500Y-143364554D01*
X98730024Y-143606459D01*
X98730024Y-143787888D01*
X98790500Y-144029792D01*
X98850977Y-144150745D01*
X98971929Y-144271697D01*
X99153358Y-144332173D01*
X99274310Y-144332173D01*
X99455739Y-144271697D01*
X99516215Y-144211221D01*
X99516215Y-143787888D01*
X99274310Y-143787888D01*
X100665262Y-143062173D02*
X100060500Y-143062173D01*
X100000024Y-143666935D01*
X100060500Y-143606459D01*
X100181453Y-143545983D01*
X100483834Y-143545983D01*
X100604786Y-143606459D01*
X100665262Y-143666935D01*
X100725739Y-143787888D01*
X100725739Y-144090269D01*
X100665262Y-144211221D01*
X100604786Y-144271697D01*
X100483834Y-144332173D01*
X100181453Y-144332173D01*
X100060500Y-144271697D01*
X100000024Y-144211221D01*
X101511929Y-143062173D02*
X101632881Y-143062173D01*
X101753834Y-143122650D01*
X101814310Y-143183126D01*
X101874786Y-143304078D01*
X101935262Y-143545983D01*
X101935262Y-143848364D01*
X101874786Y-144090269D01*
X101814310Y-144211221D01*
X101753834Y-144271697D01*
X101632881Y-144332173D01*
X101511929Y-144332173D01*
X101390977Y-144271697D01*
X101330500Y-144211221D01*
X101270024Y-144090269D01*
X101209548Y-143848364D01*
X101209548Y-143545983D01*
X101270024Y-143304078D01*
X101330500Y-143183126D01*
X101390977Y-143122650D01*
X101511929Y-143062173D01*
X103144786Y-144332173D02*
X102419072Y-144332173D01*
X102781929Y-144332173D02*
X102781929Y-143062173D01*
X102660977Y-143243602D01*
X102540024Y-143364554D01*
X102419072Y-143425030D01*
X99455739Y-145167350D02*
X99334786Y-145106873D01*
X99153358Y-145106873D01*
X98971929Y-145167350D01*
X98850977Y-145288302D01*
X98790500Y-145409254D01*
X98730024Y-145651159D01*
X98730024Y-145832588D01*
X98790500Y-146074492D01*
X98850977Y-146195445D01*
X98971929Y-146316397D01*
X99153358Y-146376873D01*
X99274310Y-146376873D01*
X99455739Y-146316397D01*
X99516215Y-146255921D01*
X99516215Y-145832588D01*
X99274310Y-145832588D01*
X100665262Y-145106873D02*
X100060500Y-145106873D01*
X100000024Y-145711635D01*
X100060500Y-145651159D01*
X100181453Y-145590683D01*
X100483834Y-145590683D01*
X100604786Y-145651159D01*
X100665262Y-145711635D01*
X100725739Y-145832588D01*
X100725739Y-146134969D01*
X100665262Y-146255921D01*
X100604786Y-146316397D01*
X100483834Y-146376873D01*
X100181453Y-146376873D01*
X100060500Y-146316397D01*
X100000024Y-146255921D01*
X101511929Y-145106873D02*
X101632881Y-145106873D01*
X101753834Y-145167350D01*
X101814310Y-145227826D01*
X101874786Y-145348778D01*
X101935262Y-145590683D01*
X101935262Y-145893064D01*
X101874786Y-146134969D01*
X101814310Y-146255921D01*
X101753834Y-146316397D01*
X101632881Y-146376873D01*
X101511929Y-146376873D01*
X101390977Y-146316397D01*
X101330500Y-146255921D01*
X101270024Y-146134969D01*
X101209548Y-145893064D01*
X101209548Y-145590683D01*
X101270024Y-145348778D01*
X101330500Y-145227826D01*
X101390977Y-145167350D01*
X101511929Y-145106873D01*
X102721453Y-145106873D02*
X102842405Y-145106873D01*
X102963358Y-145167350D01*
X103023834Y-145227826D01*
X103084310Y-145348778D01*
X103144786Y-145590683D01*
X103144786Y-145893064D01*
X103084310Y-146134969D01*
X103023834Y-146255921D01*
X102963358Y-146316397D01*
X102842405Y-146376873D01*
X102721453Y-146376873D01*
X102600500Y-146316397D01*
X102540024Y-146255921D01*
X102479548Y-146134969D01*
X102419072Y-145893064D01*
X102419072Y-145590683D01*
X102479548Y-145348778D01*
X102540024Y-145227826D01*
X102600500Y-145167350D01*
X102721453Y-145106873D01*
X99455739Y-147212050D02*
X99334786Y-147151573D01*
X99153358Y-147151573D01*
X98971929Y-147212050D01*
X98850977Y-147333002D01*
X98790500Y-147453954D01*
X98730024Y-147695859D01*
X98730024Y-147877288D01*
X98790500Y-148119192D01*
X98850977Y-148240145D01*
X98971929Y-148361097D01*
X99153358Y-148421573D01*
X99274310Y-148421573D01*
X99455739Y-148361097D01*
X99516215Y-148300621D01*
X99516215Y-147877288D01*
X99274310Y-147877288D01*
X100060500Y-148421573D02*
X100060500Y-147151573D01*
X100786215Y-148421573D01*
X100786215Y-147151573D01*
X101390977Y-148421573D02*
X101390977Y-147151573D01*
X101693358Y-147151573D01*
X101874786Y-147212050D01*
X101995739Y-147333002D01*
X102056215Y-147453954D01*
X102116691Y-147695859D01*
X102116691Y-147877288D01*
X102056215Y-148119192D01*
X101995739Y-148240145D01*
X101874786Y-148361097D01*
X101693358Y-148421573D01*
X101390977Y-148421573D01*
X146305262Y-126507473D02*
X145700500Y-126507473D01*
X145700500Y-125237473D01*
X146728596Y-126507473D02*
X146728596Y-125237473D01*
X147454310Y-126507473D01*
X147454310Y-125237473D01*
X145942405Y-127282173D02*
X146063358Y-127282173D01*
X146184310Y-127342650D01*
X146244786Y-127403126D01*
X146305262Y-127524078D01*
X146365739Y-127765983D01*
X146365739Y-128068364D01*
X146305262Y-128310269D01*
X146244786Y-128431221D01*
X146184310Y-128491697D01*
X146063358Y-128552173D01*
X145942405Y-128552173D01*
X145821453Y-128491697D01*
X145760977Y-128431221D01*
X145700500Y-128310269D01*
X145640024Y-128068364D01*
X145640024Y-127765983D01*
X145700500Y-127524078D01*
X145760977Y-127403126D01*
X145821453Y-127342650D01*
X145942405Y-127282173D01*
X147696215Y-127282173D02*
X148119548Y-128552173D01*
X148542881Y-127282173D01*
X145942405Y-129326873D02*
X146063358Y-129326873D01*
X146184310Y-129387350D01*
X146244786Y-129447826D01*
X146305262Y-129568778D01*
X146365739Y-129810683D01*
X146365739Y-130113064D01*
X146305262Y-130354969D01*
X146244786Y-130475921D01*
X146184310Y-130536397D01*
X146063358Y-130596873D01*
X145942405Y-130596873D01*
X145821453Y-130536397D01*
X145760977Y-130475921D01*
X145700500Y-130354969D01*
X145640024Y-130113064D01*
X145640024Y-129810683D01*
X145700500Y-129568778D01*
X145760977Y-129447826D01*
X145821453Y-129387350D01*
X145942405Y-129326873D01*
X147696215Y-129326873D02*
X148119548Y-130596873D01*
X148542881Y-129326873D01*
X146365739Y-132641573D02*
X145640024Y-132641573D01*
X146002881Y-132641573D02*
X146002881Y-131371573D01*
X145881929Y-131553002D01*
X145760977Y-131673954D01*
X145640024Y-131734430D01*
X146849548Y-131492526D02*
X146910024Y-131432050D01*
X147030977Y-131371573D01*
X147333358Y-131371573D01*
X147454310Y-131432050D01*
X147514786Y-131492526D01*
X147575262Y-131613478D01*
X147575262Y-131734430D01*
X147514786Y-131915859D01*
X146789072Y-132641573D01*
X147575262Y-132641573D01*
X147938120Y-131371573D02*
X148361453Y-132641573D01*
X148784786Y-131371573D01*
%TO.C,P2*%
X148589428Y-181999022D02*
X147065428Y-181999022D01*
X147065428Y-181418451D01*
X147138000Y-181273308D01*
X147210571Y-181200737D01*
X147355714Y-181128165D01*
X147573428Y-181128165D01*
X147718571Y-181200737D01*
X147791142Y-181273308D01*
X147863714Y-181418451D01*
X147863714Y-181999022D01*
X147210571Y-180547594D02*
X147138000Y-180475022D01*
X147065428Y-180329880D01*
X147065428Y-179967022D01*
X147138000Y-179821880D01*
X147210571Y-179749308D01*
X147355714Y-179676737D01*
X147500857Y-179676737D01*
X147718571Y-179749308D01*
X148589428Y-180620165D01*
X148589428Y-179676737D01*
D12*
%TO.C,R1*%
X81723766Y-131532661D02*
X81512100Y-131230280D01*
X81360909Y-131532661D02*
X81360909Y-130897661D01*
X81602814Y-130897661D01*
X81663290Y-130927900D01*
X81693528Y-130958138D01*
X81723766Y-131018614D01*
X81723766Y-131109328D01*
X81693528Y-131169804D01*
X81663290Y-131200042D01*
X81602814Y-131230280D01*
X81360909Y-131230280D01*
X82328528Y-131532661D02*
X81965671Y-131532661D01*
X82147100Y-131532661D02*
X82147100Y-130897661D01*
X82086623Y-130988376D01*
X82026147Y-131048852D01*
X81965671Y-131079090D01*
D11*
%TO.C,P5*%
X97789428Y-138979022D02*
X96265428Y-138979022D01*
X96265428Y-138398451D01*
X96338000Y-138253308D01*
X96410571Y-138180737D01*
X96555714Y-138108165D01*
X96773428Y-138108165D01*
X96918571Y-138180737D01*
X96991142Y-138253308D01*
X97063714Y-138398451D01*
X97063714Y-138979022D01*
X96265428Y-136729308D02*
X96265428Y-137455022D01*
X96991142Y-137527594D01*
X96918571Y-137455022D01*
X96846000Y-137309880D01*
X96846000Y-136947022D01*
X96918571Y-136801880D01*
X96991142Y-136729308D01*
X97136285Y-136656737D01*
X97499142Y-136656737D01*
X97644285Y-136729308D01*
X97716857Y-136801880D01*
X97789428Y-136947022D01*
X97789428Y-137309880D01*
X97716857Y-137455022D01*
X97644285Y-137527594D01*
D12*
%TO.C,Q1*%
X82124723Y-126868738D02*
X82064247Y-126838500D01*
X82003771Y-126778023D01*
X81913057Y-126687309D01*
X81852580Y-126657071D01*
X81792104Y-126657071D01*
X81822342Y-126808261D02*
X81761866Y-126778023D01*
X81701390Y-126717547D01*
X81671152Y-126596595D01*
X81671152Y-126384928D01*
X81701390Y-126263976D01*
X81761866Y-126203500D01*
X81822342Y-126173261D01*
X81943295Y-126173261D01*
X82003771Y-126203500D01*
X82064247Y-126263976D01*
X82094485Y-126384928D01*
X82094485Y-126596595D01*
X82064247Y-126717547D01*
X82003771Y-126778023D01*
X81943295Y-126808261D01*
X81822342Y-126808261D01*
X82699247Y-126808261D02*
X82336390Y-126808261D01*
X82517819Y-126808261D02*
X82517819Y-126173261D01*
X82457342Y-126263976D01*
X82396866Y-126324452D01*
X82336390Y-126354690D01*
D13*
%TO.C,JP1*%
X71838933Y-119690819D02*
X71838933Y-120416533D01*
X71790552Y-120561676D01*
X71693790Y-120658438D01*
X71548647Y-120706819D01*
X71451885Y-120706819D01*
X72322742Y-120706819D02*
X72322742Y-119690819D01*
X72709790Y-119690819D01*
X72806552Y-119739200D01*
X72854933Y-119787580D01*
X72903314Y-119884342D01*
X72903314Y-120029485D01*
X72854933Y-120126247D01*
X72806552Y-120174628D01*
X72709790Y-120223009D01*
X72322742Y-120223009D01*
X73870933Y-120706819D02*
X73290361Y-120706819D01*
X73580647Y-120706819D02*
X73580647Y-119690819D01*
X73483885Y-119835961D01*
X73387123Y-119932723D01*
X73290361Y-119981104D01*
D14*
%TO.C,C1*%
X78251833Y-134112857D02*
X78209500Y-134161238D01*
X78082500Y-134209619D01*
X77997833Y-134209619D01*
X77870833Y-134161238D01*
X77786166Y-134064476D01*
X77743833Y-133967714D01*
X77701500Y-133774190D01*
X77701500Y-133629047D01*
X77743833Y-133435523D01*
X77786166Y-133338761D01*
X77870833Y-133242000D01*
X77997833Y-133193619D01*
X78082500Y-133193619D01*
X78209500Y-133242000D01*
X78251833Y-133290380D01*
X79098500Y-134209619D02*
X78590500Y-134209619D01*
X78844500Y-134209619D02*
X78844500Y-133193619D01*
X78759833Y-133338761D01*
X78675166Y-133435523D01*
X78590500Y-133483904D01*
X75189428Y-137086857D02*
X76350571Y-137086857D01*
X75770000Y-137667428D02*
X75770000Y-136506285D01*
D12*
%TO.C,Q2*%
X75139723Y-126970338D02*
X75079247Y-126940100D01*
X75018771Y-126879623D01*
X74928057Y-126788909D01*
X74867580Y-126758671D01*
X74807104Y-126758671D01*
X74837342Y-126909861D02*
X74776866Y-126879623D01*
X74716390Y-126819147D01*
X74686152Y-126698195D01*
X74686152Y-126486528D01*
X74716390Y-126365576D01*
X74776866Y-126305100D01*
X74837342Y-126274861D01*
X74958295Y-126274861D01*
X75018771Y-126305100D01*
X75079247Y-126365576D01*
X75109485Y-126486528D01*
X75109485Y-126698195D01*
X75079247Y-126819147D01*
X75018771Y-126879623D01*
X74958295Y-126909861D01*
X74837342Y-126909861D01*
X75351390Y-126335338D02*
X75381628Y-126305100D01*
X75442104Y-126274861D01*
X75593295Y-126274861D01*
X75653771Y-126305100D01*
X75684009Y-126335338D01*
X75714247Y-126395814D01*
X75714247Y-126456290D01*
X75684009Y-126547004D01*
X75321152Y-126909861D01*
X75714247Y-126909861D01*
D11*
%TO.C,P4*%
X123189428Y-182159022D02*
X121665428Y-182159022D01*
X121665428Y-181578451D01*
X121738000Y-181433308D01*
X121810571Y-181360737D01*
X121955714Y-181288165D01*
X122173428Y-181288165D01*
X122318571Y-181360737D01*
X122391142Y-181433308D01*
X122463714Y-181578451D01*
X122463714Y-182159022D01*
X122173428Y-179981880D02*
X123189428Y-179981880D01*
X121592857Y-180344737D02*
X122681428Y-180707594D01*
X122681428Y-179764165D01*
D12*
%TO.C,R2*%
X81749166Y-128992661D02*
X81537500Y-128690280D01*
X81386309Y-128992661D02*
X81386309Y-128357661D01*
X81628214Y-128357661D01*
X81688690Y-128387900D01*
X81718928Y-128418138D01*
X81749166Y-128478614D01*
X81749166Y-128569328D01*
X81718928Y-128629804D01*
X81688690Y-128660042D01*
X81628214Y-128690280D01*
X81386309Y-128690280D01*
X81991071Y-128418138D02*
X82021309Y-128387900D01*
X82081785Y-128357661D01*
X82232976Y-128357661D01*
X82293452Y-128387900D01*
X82323690Y-128418138D01*
X82353928Y-128478614D01*
X82353928Y-128539090D01*
X82323690Y-128629804D01*
X81960833Y-128992661D01*
X82353928Y-128992661D01*
%TO.C,R3*%
X81495166Y-122210861D02*
X81283500Y-121908480D01*
X81132309Y-122210861D02*
X81132309Y-121575861D01*
X81374214Y-121575861D01*
X81434690Y-121606100D01*
X81464928Y-121636338D01*
X81495166Y-121696814D01*
X81495166Y-121787528D01*
X81464928Y-121848004D01*
X81434690Y-121878242D01*
X81374214Y-121908480D01*
X81132309Y-121908480D01*
X81706833Y-121575861D02*
X82099928Y-121575861D01*
X81888261Y-121817766D01*
X81978976Y-121817766D01*
X82039452Y-121848004D01*
X82069690Y-121878242D01*
X82099928Y-121938719D01*
X82099928Y-122089909D01*
X82069690Y-122150385D01*
X82039452Y-122180623D01*
X81978976Y-122210861D01*
X81797547Y-122210861D01*
X81737071Y-122180623D01*
X81706833Y-122150385D01*
D11*
%TO.C,P7*%
X72389428Y-182159022D02*
X70865428Y-182159022D01*
X70865428Y-181578451D01*
X70938000Y-181433308D01*
X71010571Y-181360737D01*
X71155714Y-181288165D01*
X71373428Y-181288165D01*
X71518571Y-181360737D01*
X71591142Y-181433308D01*
X71663714Y-181578451D01*
X71663714Y-182159022D01*
X70865428Y-180780165D02*
X70865428Y-179764165D01*
X72389428Y-180417308D01*
%TO.C,P6*%
X97789428Y-182159022D02*
X96265428Y-182159022D01*
X96265428Y-181578451D01*
X96338000Y-181433308D01*
X96410571Y-181360737D01*
X96555714Y-181288165D01*
X96773428Y-181288165D01*
X96918571Y-181360737D01*
X96991142Y-181433308D01*
X97063714Y-181578451D01*
X97063714Y-182159022D01*
X96265428Y-179981880D02*
X96265428Y-180272165D01*
X96338000Y-180417308D01*
X96410571Y-180489880D01*
X96628285Y-180635022D01*
X96918571Y-180707594D01*
X97499142Y-180707594D01*
X97644285Y-180635022D01*
X97716857Y-180562451D01*
X97789428Y-180417308D01*
X97789428Y-180127022D01*
X97716857Y-179981880D01*
X97644285Y-179909308D01*
X97499142Y-179836737D01*
X97136285Y-179836737D01*
X96991142Y-179909308D01*
X96918571Y-179981880D01*
X96846000Y-180127022D01*
X96846000Y-180417308D01*
X96918571Y-180562451D01*
X96991142Y-180635022D01*
X97136285Y-180707594D01*
%TO.C,P3*%
X123189428Y-138979022D02*
X121665428Y-138979022D01*
X121665428Y-138398451D01*
X121738000Y-138253308D01*
X121810571Y-138180737D01*
X121955714Y-138108165D01*
X122173428Y-138108165D01*
X122318571Y-138180737D01*
X122391142Y-138253308D01*
X122463714Y-138398451D01*
X122463714Y-138979022D01*
X121665428Y-137600165D02*
X121665428Y-136656737D01*
X122246000Y-137164737D01*
X122246000Y-136947022D01*
X122318571Y-136801880D01*
X122391142Y-136729308D01*
X122536285Y-136656737D01*
X122899142Y-136656737D01*
X123044285Y-136729308D01*
X123116857Y-136801880D01*
X123189428Y-136947022D01*
X123189428Y-137382451D01*
X123116857Y-137527594D01*
X123044285Y-137600165D01*
%TO.C,P1*%
X148389428Y-122760691D02*
X146865428Y-122760691D01*
X146865428Y-122180120D01*
X146938000Y-122034977D01*
X147010571Y-121962405D01*
X147155714Y-121889834D01*
X147373428Y-121889834D01*
X147518571Y-121962405D01*
X147591142Y-122034977D01*
X147663714Y-122180120D01*
X147663714Y-122760691D01*
X148389428Y-120438405D02*
X148389428Y-121309262D01*
X148389428Y-120873834D02*
X146865428Y-120873834D01*
X147083142Y-121018977D01*
X147228285Y-121164120D01*
X147300857Y-121309262D01*
%TO.C,P9*%
X50889428Y-190789022D02*
X49365428Y-190789022D01*
X49365428Y-190208451D01*
X49438000Y-190063308D01*
X49510571Y-189990737D01*
X49655714Y-189918165D01*
X49873428Y-189918165D01*
X50018571Y-189990737D01*
X50091142Y-190063308D01*
X50163714Y-190208451D01*
X50163714Y-190789022D01*
X50889428Y-189192451D02*
X50889428Y-188902165D01*
X50816857Y-188757022D01*
X50744285Y-188684451D01*
X50526571Y-188539308D01*
X50236285Y-188466737D01*
X49655714Y-188466737D01*
X49510571Y-188539308D01*
X49438000Y-188611880D01*
X49365428Y-188757022D01*
X49365428Y-189047308D01*
X49438000Y-189192451D01*
X49510571Y-189265022D01*
X49655714Y-189337594D01*
X50018571Y-189337594D01*
X50163714Y-189265022D01*
X50236285Y-189192451D01*
X50308857Y-189047308D01*
X50308857Y-188757022D01*
X50236285Y-188611880D01*
X50163714Y-188539308D01*
X50018571Y-188466737D01*
%TO.C,P8*%
X50799428Y-151265022D02*
X49275428Y-151265022D01*
X49275428Y-150684451D01*
X49348000Y-150539308D01*
X49420571Y-150466737D01*
X49565714Y-150394165D01*
X49783428Y-150394165D01*
X49928571Y-150466737D01*
X50001142Y-150539308D01*
X50073714Y-150684451D01*
X50073714Y-151265022D01*
X49928571Y-149523308D02*
X49856000Y-149668451D01*
X49783428Y-149741022D01*
X49638285Y-149813594D01*
X49565714Y-149813594D01*
X49420571Y-149741022D01*
X49348000Y-149668451D01*
X49275428Y-149523308D01*
X49275428Y-149233022D01*
X49348000Y-149087880D01*
X49420571Y-149015308D01*
X49565714Y-148942737D01*
X49638285Y-148942737D01*
X49783428Y-149015308D01*
X49856000Y-149087880D01*
X49928571Y-149233022D01*
X49928571Y-149523308D01*
X50001142Y-149668451D01*
X50073714Y-149741022D01*
X50218857Y-149813594D01*
X50509142Y-149813594D01*
X50654285Y-149741022D01*
X50726857Y-149668451D01*
X50799428Y-149523308D01*
X50799428Y-149233022D01*
X50726857Y-149087880D01*
X50654285Y-149015308D01*
X50509142Y-148942737D01*
X50218857Y-148942737D01*
X50073714Y-149015308D01*
X50001142Y-149087880D01*
X49928571Y-149233022D01*
D14*
%TO.C,HOLE*%
X131742558Y-194900000D02*
G75*
G03*
X131742558Y-194900000I-1702558J0D01*
G01*
X133342000Y-194900000D02*
G75*
G03*
X133342000Y-194900000I-3302000J0D01*
G01*
D11*
%TO.C,P2*%
X149100000Y-183160700D02*
X149100000Y-141959360D01*
X149100000Y-183160700D02*
X156900000Y-183160700D01*
X156900500Y-183160700D02*
X156900000Y-141959360D01*
X149100000Y-141959360D02*
X156900000Y-141959360D01*
D12*
%TO.C,R1*%
X78299000Y-131372400D02*
X78299000Y-131499400D01*
X78045000Y-131245400D02*
X78299000Y-131245400D01*
X78299000Y-131499400D02*
X78807000Y-131499400D01*
X78299000Y-130991400D02*
X78299000Y-131372400D01*
X78807000Y-131499400D02*
X78807000Y-130991400D01*
X78807000Y-131245400D02*
X79061000Y-131245400D01*
X78807000Y-130991400D02*
X78299000Y-130991400D01*
D14*
%TO.C,HOLE*%
X52062000Y-109900000D02*
G75*
G03*
X52062000Y-109900000I-3302000J0D01*
G01*
X50462558Y-109900000D02*
G75*
G03*
X50462558Y-109900000I-1702558J0D01*
G01*
D11*
%TO.C,P5*%
X105900000Y-140140700D02*
X105900000Y-118939320D01*
X98300000Y-118939320D02*
X105900000Y-118939320D01*
X98300000Y-140140700D02*
X105900000Y-140140700D01*
X98300000Y-140140700D02*
X98300000Y-118939320D01*
D14*
%TO.C,HOLE*%
X107942000Y-194900000D02*
G75*
G03*
X107942000Y-194900000I-3302000J0D01*
G01*
X106342558Y-194900000D02*
G75*
G03*
X106342558Y-194900000I-1702558J0D01*
G01*
X75862558Y-109900000D02*
G75*
G03*
X75862558Y-109900000I-1702558J0D01*
G01*
X77462000Y-109900000D02*
G75*
G03*
X77462000Y-109900000I-3302000J0D01*
G01*
X101262558Y-109900000D02*
G75*
G03*
X101262558Y-109900000I-1702558J0D01*
G01*
X102862000Y-109900000D02*
G75*
G03*
X102862000Y-109900000I-3302000J0D01*
G01*
D12*
%TO.C,Q1*%
X79035600Y-125606600D02*
X79035600Y-124844600D01*
X82083600Y-125606600D02*
X79035600Y-125606600D01*
X82083600Y-124844600D02*
X82083600Y-125606600D01*
X79035600Y-124844600D02*
X82083600Y-124844600D01*
D14*
%TO.C,JP1*%
X73955600Y-121517200D02*
X73955600Y-126597200D01*
X71415600Y-121517200D02*
X73955600Y-121517200D01*
X73955600Y-126597200D02*
X71415600Y-126597200D01*
X71415600Y-126597200D02*
X71415600Y-121517200D01*
%TO.C,HOLE*%
X82542000Y-194900000D02*
G75*
G03*
X82542000Y-194900000I-3302000J0D01*
G01*
X80942558Y-194900000D02*
G75*
G03*
X80942558Y-194900000I-1702558J0D01*
G01*
%TO.C,C1*%
X77548000Y-135200000D02*
G75*
G03*
X77548000Y-135200000I-3048000J0D01*
G01*
%TO.C,HOLE*%
X152062558Y-109900000D02*
G75*
G03*
X152062558Y-109900000I-1702558J0D01*
G01*
X153662000Y-109900000D02*
G75*
G03*
X153662000Y-109900000I-3302000J0D01*
G01*
D12*
%TO.C,Q2*%
X75047800Y-124793800D02*
X78095800Y-124793800D01*
X75047800Y-125555800D02*
X75047800Y-124793800D01*
X78095800Y-124793800D02*
X78095800Y-125555800D01*
X78095800Y-125555800D02*
X75047800Y-125555800D01*
D11*
%TO.C,P4*%
X123700000Y-162119320D02*
X131300000Y-162119320D01*
X123700000Y-183320700D02*
X123700000Y-162119320D01*
X131300000Y-183320700D02*
X131300000Y-162119320D01*
X123700000Y-183320700D02*
X131300000Y-183320700D01*
D12*
%TO.C,R2*%
X78807000Y-128908600D02*
X78807000Y-128527600D01*
X78299000Y-128908600D02*
X78807000Y-128908600D01*
X78299000Y-128654600D02*
X78045000Y-128654600D01*
X79061000Y-128654600D02*
X78807000Y-128654600D01*
X78807000Y-128400600D02*
X78299000Y-128400600D01*
X78807000Y-128527600D02*
X78807000Y-128400600D01*
X78299000Y-128400600D02*
X78299000Y-128908600D01*
D14*
%TO.C,HOLE*%
X157142558Y-194900000D02*
G75*
G03*
X157142558Y-194900000I-1702558J0D01*
G01*
X158742000Y-194900000D02*
G75*
G03*
X158742000Y-194900000I-3302000J0D01*
G01*
D12*
%TO.C,R3*%
X77587800Y-121923600D02*
X77333800Y-121923600D01*
X78095800Y-121796600D02*
X78095800Y-121669600D01*
X78349800Y-121923600D02*
X78095800Y-121923600D01*
X78095800Y-122177600D02*
X78095800Y-121796600D01*
X77587800Y-122177600D02*
X78095800Y-122177600D01*
X78095800Y-121669600D02*
X77587800Y-121669600D01*
X77587800Y-121669600D02*
X77587800Y-122177600D01*
D11*
%TO.C,P7*%
X72900000Y-183320700D02*
X80500000Y-183320700D01*
X72900000Y-162119320D02*
X80500000Y-162119320D01*
X80500000Y-183320700D02*
X80500000Y-162119320D01*
X72900000Y-183320700D02*
X72900000Y-162119320D01*
%TO.C,P6*%
X98300000Y-183320700D02*
X105900000Y-183320700D01*
X105900000Y-183320700D02*
X105900000Y-162119320D01*
X98300000Y-183320700D02*
X98300000Y-162119320D01*
X98300000Y-162119320D02*
X105900000Y-162119320D01*
%TO.C,P3*%
X123700000Y-140140700D02*
X123700000Y-118939320D01*
X123700000Y-118939320D02*
X131300000Y-118939320D01*
X123700000Y-140140700D02*
X131300000Y-140140700D01*
X131300000Y-140140700D02*
X131300000Y-118939320D01*
%TO.C,P1*%
X149100000Y-118939300D02*
X149100000Y-140140680D01*
X156700000Y-118939300D02*
X149100000Y-118939300D01*
X156700000Y-140140680D02*
X149100000Y-140140680D01*
X156700000Y-118939300D02*
X156700000Y-140140680D01*
%TO.C,P9*%
X51310000Y-194082700D02*
X59110000Y-194082700D01*
X51310000Y-152881360D02*
X59110000Y-152881360D01*
X59110500Y-194082700D02*
X59110000Y-152881360D01*
X51310000Y-194082700D02*
X51310000Y-152881360D01*
D14*
%TO.C,HOLE*%
X128262000Y-109900000D02*
G75*
G03*
X128262000Y-109900000I-3302000J0D01*
G01*
X126662558Y-109900000D02*
G75*
G03*
X126662558Y-109900000I-1702558J0D01*
G01*
D11*
%TO.C,P8*%
X51310000Y-152426700D02*
X59110000Y-152426700D01*
X51310000Y-111225360D02*
X59110000Y-111225360D01*
X59110500Y-152426700D02*
X59110000Y-111225360D01*
X51310000Y-152426700D02*
X51310000Y-111225360D01*
D14*
%TO.C,HOLE*%
X50462558Y-194900000D02*
G75*
G03*
X50462558Y-194900000I-1702558J0D01*
G01*
X52062000Y-194900000D02*
G75*
G03*
X52062000Y-194900000I-3302000J0D01*
G01*
%TD*%
D15*
%TO.C,JP1*%
X72685600Y-125327200D03*
D16*
X72685600Y-122787200D03*
%TD*%
D17*
%TO.C,C1*%
X75770000Y-135200000D03*
D18*
X73230000Y-135200000D03*
%TD*%
%LPC*%
D19*
%TO.C,HOLE*%
X130040000Y-194900000D03*
%TD*%
D20*
%TO.C,P2*%
X152900000Y-180059360D03*
D21*
X152900000Y-175060640D03*
X152900000Y-170059380D03*
X152900000Y-165060660D03*
X152900000Y-160059400D03*
X152900000Y-155060680D03*
X152900000Y-150059420D03*
X152900000Y-145060700D03*
%TD*%
D22*
%TO.C,R1*%
X77156000Y-131245400D03*
D23*
X79950000Y-131245400D03*
%TD*%
D19*
%TO.C,HOLE*%
X48760000Y-109900000D03*
%TD*%
D20*
%TO.C,P5*%
X102100000Y-137039360D03*
D21*
X102100000Y-132040640D03*
X102100000Y-127039380D03*
X102100000Y-122040660D03*
%TD*%
D19*
%TO.C,HOLE*%
X104640000Y-194900000D03*
%TD*%
%TO.C,HOLE*%
X74160000Y-109900000D03*
%TD*%
%TO.C,HOLE*%
X99560000Y-109900000D03*
%TD*%
D24*
%TO.C,Q1*%
X79670600Y-124209600D03*
X81448600Y-124209600D03*
X80559600Y-126241600D03*
%TD*%
D15*
%TO.C,JP1*%
X72685600Y-125327200D03*
D16*
X72685600Y-122787200D03*
%TD*%
D19*
%TO.C,HOLE*%
X79240000Y-194900000D03*
%TD*%
D17*
%TO.C,C1*%
X75770000Y-135200000D03*
D18*
X73230000Y-135200000D03*
%TD*%
D19*
%TO.C,HOLE*%
X150360000Y-109900000D03*
%TD*%
D24*
%TO.C,Q2*%
X75682800Y-124158800D03*
X77460800Y-124158800D03*
X76571800Y-126190800D03*
%TD*%
D20*
%TO.C,P4*%
X127500000Y-180219360D03*
D21*
X127500000Y-175220640D03*
X127500000Y-170219380D03*
X127500000Y-165220660D03*
%TD*%
D22*
%TO.C,R2*%
X79950000Y-128654600D03*
D23*
X77156000Y-128654600D03*
%TD*%
D19*
%TO.C,HOLE*%
X155440000Y-194900000D03*
%TD*%
D22*
%TO.C,R3*%
X79238800Y-121923600D03*
D23*
X76444800Y-121923600D03*
%TD*%
D20*
%TO.C,P7*%
X76700000Y-180219360D03*
D21*
X76700000Y-175220640D03*
X76700000Y-170219380D03*
X76700000Y-165220660D03*
%TD*%
D20*
%TO.C,P6*%
X102100000Y-180219360D03*
D21*
X102100000Y-175220640D03*
X102100000Y-170219380D03*
X102100000Y-165220660D03*
%TD*%
D20*
%TO.C,P3*%
X127500000Y-137039360D03*
D21*
X127500000Y-132040640D03*
X127500000Y-127039380D03*
X127500000Y-122040660D03*
%TD*%
D20*
%TO.C,P1*%
X152900000Y-122040640D03*
D21*
X152900000Y-127039360D03*
X152900000Y-132040620D03*
X152900000Y-137039340D03*
%TD*%
D20*
%TO.C,P9*%
X55110000Y-190981360D03*
D21*
X55110000Y-185982640D03*
X55110000Y-180981380D03*
X55110000Y-175982660D03*
X55110000Y-170981400D03*
X55110000Y-165982680D03*
X55110000Y-160981420D03*
X55110000Y-155982700D03*
%TD*%
D19*
%TO.C,HOLE*%
X124960000Y-109900000D03*
%TD*%
D20*
%TO.C,P8*%
X55110000Y-149325360D03*
D21*
X55110000Y-144326640D03*
X55110000Y-139325380D03*
X55110000Y-134326660D03*
X55110000Y-129325400D03*
X55110000Y-124326680D03*
X55110000Y-119325420D03*
X55110000Y-114326700D03*
%TD*%
D19*
%TO.C,HOLE*%
X48760000Y-194900000D03*
%TD*%
D25*
%TO.C,K2*%
X112300000Y-114900000D03*
X117300000Y-117400000D03*
X112300000Y-119900000D03*
X117300000Y-122400000D03*
X112300000Y-124900000D03*
X117300000Y-127400000D03*
X112300000Y-129900000D03*
X117300000Y-132400000D03*
X112300000Y-134900000D03*
X117300000Y-137400000D03*
X112300000Y-139900000D03*
X117300000Y-142400000D03*
X112300000Y-144900000D03*
X117300000Y-147400000D03*
X112300000Y-149900000D03*
X117300000Y-152400000D03*
X112300000Y-154900000D03*
X117300000Y-157400000D03*
X112300000Y-159900000D03*
X117300000Y-162400000D03*
X112300000Y-164900000D03*
X117300000Y-167400000D03*
X112300000Y-169900000D03*
X117300000Y-172400000D03*
X112300000Y-174900000D03*
X117300000Y-177401220D03*
X112300000Y-179900000D03*
X117300000Y-182399940D03*
X112300000Y-184900000D03*
X117300000Y-187400000D03*
X112300000Y-189900000D03*
D26*
X114800000Y-109900000D03*
X114800000Y-194900000D03*
%TD*%
D25*
%TO.C,K4*%
X61500000Y-114900000D03*
X66500000Y-117400000D03*
X61500000Y-119900000D03*
X66500000Y-122400000D03*
X61500000Y-124900000D03*
X66500000Y-127400000D03*
X61500000Y-129900000D03*
X66500000Y-132400000D03*
X61500000Y-134900000D03*
X66500000Y-137400000D03*
X61500000Y-139900000D03*
X66500000Y-142400000D03*
X61500000Y-144900000D03*
X66500000Y-147400000D03*
X61500000Y-149900000D03*
X66500000Y-152400000D03*
X61500000Y-154900000D03*
X66500000Y-157400000D03*
X61500000Y-159900000D03*
X66500000Y-162400000D03*
X61500000Y-164900000D03*
X66500000Y-167400000D03*
X61500000Y-169900000D03*
X66500000Y-172400000D03*
X61500000Y-174900000D03*
X66500000Y-177401220D03*
X61500000Y-179900000D03*
X66500000Y-182399940D03*
X61500000Y-184900000D03*
X66500000Y-187400000D03*
X61500000Y-189900000D03*
D26*
X64000000Y-109900000D03*
X64000000Y-194900000D03*
%TD*%
D25*
%TO.C,K1*%
X137700000Y-114900000D03*
X142700000Y-117400000D03*
X137700000Y-119900000D03*
X142700000Y-122400000D03*
X137700000Y-124900000D03*
X142700000Y-127400000D03*
X137700000Y-129900000D03*
X142700000Y-132400000D03*
X137700000Y-134900000D03*
X142700000Y-137400000D03*
X137700000Y-139900000D03*
X142700000Y-142400000D03*
X137700000Y-144900000D03*
X142700000Y-147400000D03*
X137700000Y-149900000D03*
X142700000Y-152400000D03*
X137700000Y-154900000D03*
X142700000Y-157400000D03*
X137700000Y-159900000D03*
X142700000Y-162400000D03*
X137700000Y-164900000D03*
X142700000Y-167400000D03*
X137700000Y-169900000D03*
X142700000Y-172400000D03*
X137700000Y-174900000D03*
X142700000Y-177401220D03*
X137700000Y-179900000D03*
X142700000Y-182399940D03*
X137700000Y-184900000D03*
X142700000Y-187400000D03*
X137700000Y-189900000D03*
D26*
X140200000Y-109900000D03*
X140200000Y-194900000D03*
%TD*%
D25*
%TO.C,K3*%
X86900000Y-114900000D03*
X91900000Y-117400000D03*
X86900000Y-119900000D03*
X91900000Y-122400000D03*
X86900000Y-124900000D03*
X91900000Y-127400000D03*
X86900000Y-129900000D03*
X91900000Y-132400000D03*
X86900000Y-134900000D03*
X91900000Y-137400000D03*
X86900000Y-139900000D03*
X91900000Y-142400000D03*
X86900000Y-144900000D03*
X91900000Y-147400000D03*
X86900000Y-149900000D03*
X91900000Y-152400000D03*
X86900000Y-154900000D03*
X91900000Y-157400000D03*
X86900000Y-159900000D03*
X91900000Y-162400000D03*
X86900000Y-164900000D03*
X91900000Y-167400000D03*
X86900000Y-169900000D03*
X91900000Y-172400000D03*
X86900000Y-174900000D03*
X91900000Y-177401220D03*
X86900000Y-179900000D03*
X91900000Y-182399940D03*
X86900000Y-184900000D03*
X91900000Y-187400000D03*
X86900000Y-189900000D03*
D26*
X89400000Y-109900000D03*
X89400000Y-194900000D03*
%TD*%
M02*
