M48
; DRILL file {KiCad (6.0.7)} date Sun Aug 18 11:11:37 2024
; FORMAT={-:-/ absolute / metric / decimal}
; #@! TF.CreationDate,2024-08-18T11:11:37+02:00
; #@! TF.GenerationSoftware,Kicad,Pcbnew,(6.0.7)
; #@! TF.FileFunction,Plated,1,2,PTH
FMAT,2
METRIC
; #@! TA.AperFunction,Plated,PTH,ComponentDrill
T1C0.813
; #@! TA.AperFunction,Plated,PTH,ComponentDrill
T2C0.899
; #@! TA.AperFunction,Plated,PTH,ComponentDrill
T3C1.300
; #@! TA.AperFunction,Plated,PTH,ComponentDrill
T4C1.501
; #@! TA.AperFunction,Plated,PTH,ComponentDrill
T5C3.200
; #@! TA.AperFunction,Plated,PTH,ComponentDrill
T6C3.200
%
G90
G05
T1
X73.23Y-135.2
X75.77Y-135.2
T2
X72.686Y-122.787
X72.686Y-125.327
T3
X61.5Y-114.9
X61.5Y-119.9
X61.5Y-124.9
X61.5Y-129.9
X61.5Y-134.9
X61.5Y-139.9
X61.5Y-144.9
X61.5Y-149.9
X61.5Y-154.9
X61.5Y-159.9
X61.5Y-164.9
X61.5Y-169.9
X61.5Y-174.9
X61.5Y-179.9
X61.5Y-184.9
X61.5Y-189.9
X66.5Y-117.4
X66.5Y-122.4
X66.5Y-127.4
X66.5Y-132.4
X66.5Y-137.4
X66.5Y-142.4
X66.5Y-147.4
X66.5Y-152.4
X66.5Y-157.4
X66.5Y-162.4
X66.5Y-167.4
X66.5Y-172.4
X66.5Y-177.401
X66.5Y-182.4
X66.5Y-187.4
X86.9Y-114.9
X86.9Y-119.9
X86.9Y-124.9
X86.9Y-129.9
X86.9Y-134.9
X86.9Y-139.9
X86.9Y-144.9
X86.9Y-149.9
X86.9Y-154.9
X86.9Y-159.9
X86.9Y-164.9
X86.9Y-169.9
X86.9Y-174.9
X86.9Y-179.9
X86.9Y-184.9
X86.9Y-189.9
X91.9Y-117.4
X91.9Y-122.4
X91.9Y-127.4
X91.9Y-132.4
X91.9Y-137.4
X91.9Y-142.4
X91.9Y-147.4
X91.9Y-152.4
X91.9Y-157.4
X91.9Y-162.4
X91.9Y-167.4
X91.9Y-172.4
X91.9Y-177.401
X91.9Y-182.4
X91.9Y-187.4
X112.3Y-114.9
X112.3Y-119.9
X112.3Y-124.9
X112.3Y-129.9
X112.3Y-134.9
X112.3Y-139.9
X112.3Y-144.9
X112.3Y-149.9
X112.3Y-154.9
X112.3Y-159.9
X112.3Y-164.9
X112.3Y-169.9
X112.3Y-174.9
X112.3Y-179.9
X112.3Y-184.9
X112.3Y-189.9
X117.3Y-117.4
X117.3Y-122.4
X117.3Y-127.4
X117.3Y-132.4
X117.3Y-137.4
X117.3Y-142.4
X117.3Y-147.4
X117.3Y-152.4
X117.3Y-157.4
X117.3Y-162.4
X117.3Y-167.4
X117.3Y-172.4
X117.3Y-177.401
X117.3Y-182.4
X117.3Y-187.4
X137.7Y-114.9
X137.7Y-119.9
X137.7Y-124.9
X137.7Y-129.9
X137.7Y-134.9
X137.7Y-139.9
X137.7Y-144.9
X137.7Y-149.9
X137.7Y-154.9
X137.7Y-159.9
X137.7Y-164.9
X137.7Y-169.9
X137.7Y-174.9
X137.7Y-179.9
X137.7Y-184.9
X137.7Y-189.9
X142.7Y-117.4
X142.7Y-122.4
X142.7Y-127.4
X142.7Y-132.4
X142.7Y-137.4
X142.7Y-142.4
X142.7Y-147.4
X142.7Y-152.4
X142.7Y-157.4
X142.7Y-162.4
X142.7Y-167.4
X142.7Y-172.4
X142.7Y-177.401
X142.7Y-182.4
X142.7Y-187.4
T4
X55.11Y-114.327
X55.11Y-119.325
X55.11Y-124.327
X55.11Y-129.325
X55.11Y-134.327
X55.11Y-139.325
X55.11Y-144.327
X55.11Y-149.325
X55.11Y-155.983
X55.11Y-160.981
X55.11Y-165.983
X55.11Y-170.981
X55.11Y-175.983
X55.11Y-180.981
X55.11Y-185.983
X55.11Y-190.981
X76.7Y-165.221
X76.7Y-170.219
X76.7Y-175.221
X76.7Y-180.219
X102.1Y-122.041
X102.1Y-127.039
X102.1Y-132.041
X102.1Y-137.039
X102.1Y-165.221
X102.1Y-170.219
X102.1Y-175.221
X102.1Y-180.219
X127.5Y-122.041
X127.5Y-127.039
X127.5Y-132.041
X127.5Y-137.039
X127.5Y-165.221
X127.5Y-170.219
X127.5Y-175.221
X127.5Y-180.219
X152.9Y-122.041
X152.9Y-127.039
X152.9Y-132.041
X152.9Y-137.039
X152.9Y-145.061
X152.9Y-150.059
X152.9Y-155.061
X152.9Y-160.059
X152.9Y-165.061
X152.9Y-170.059
X152.9Y-175.061
X152.9Y-180.059
T5
X64.0Y-109.9
X64.0Y-194.9
X89.4Y-109.9
X89.4Y-194.9
X114.8Y-109.9
X114.8Y-194.9
X140.2Y-109.9
X140.2Y-194.9
T6
X48.76Y-109.9
X48.76Y-194.9
X74.16Y-109.9
X79.24Y-194.9
X99.56Y-109.9
X104.64Y-194.9
X124.96Y-109.9
X130.04Y-194.9
X150.36Y-109.9
X155.44Y-194.9
T0
M30
